<svg xmlns="http://www.w3.org/2000/svg" width="190" height="112" viewBox="0 0 190 112">
  <g id="Grupo_960503" data-name="Grupo 960503" transform="translate(-1230 -412)">
    <rect id="Rectángulo_45468" data-name="Rectángulo 45468" width="190" height="112" transform="translate(1230 412)" fill="none"/>
    <g id="gusano" transform="translate(1261.187 362.901)">
      <path id="Trazado_659462" data-name="Trazado 659462" d="M140.494,135.245h-80a4.3,4.3,0,0,0-4.294,4.294v51.988a4.3,4.3,0,0,0,4.294,4.294h80a4.3,4.3,0,0,0,4.294-4.294V139.539A4.3,4.3,0,0,0,140.494,135.245Z" transform="translate(-42.187 -60.402)" fill="#e0feec"/>
      <path id="Trazado_659463" data-name="Trazado 659463" d="M61.492,191.462V139.473a4.3,4.3,0,0,1,4.294-4.294c-5.515,0-6.529-.254-8.026.982a4.284,4.284,0,0,0-1.564,3.312v51.988a4.3,4.3,0,0,0,4.294,4.294h5.3A4.3,4.3,0,0,1,61.492,191.462Z" transform="translate(-42.188 -60.337)" fill="#b6fdd3"/>
      <path id="Trazado_659464" data-name="Trazado 659464" d="M123.375,112.47h-80a9.982,9.982,0,0,0-9.971,9.971c0,56.3-.05,52.431.115,53.5a9.986,9.986,0,0,0,9.856,8.454h80a9.982,9.982,0,0,0,9.971-9.971V122.441A9.982,9.982,0,0,0,123.375,112.47Zm-80,66.14a4.186,4.186,0,0,1-4.181-4.181V122.441a4.186,4.186,0,0,1,4.181-4.181h80a4.186,4.186,0,0,1,4.181,4.181v51.988a4.186,4.186,0,0,1-4.181,4.181Z" transform="translate(-25.069 -43.304)" fill="#ddd"/>
      <path id="Trazado_659465" data-name="Trazado 659465" d="M39.19,174.43c0-56.3-.05-52.431.115-53.5a9.986,9.986,0,0,1,9.856-8.454h-5.79a9.982,9.982,0,0,0-9.971,9.971c0,56.3-.05,52.431.115,53.5a9.986,9.986,0,0,0,9.856,8.454h5.79A9.982,9.982,0,0,1,39.19,174.43Z" transform="translate(-25.069 -43.305)" fill="#bababa"/>
      <path id="Trazado_659466" data-name="Trazado 659466" d="M117.6,426.509H10.3a2.9,2.9,0,0,0,0,5.79H117.6C121.311,432.3,121.305,426.509,117.6,426.509Z" transform="translate(-5.645 -279.063)" fill="#ddd"/>
      <path id="Trazado_659467" data-name="Trazado 659467" d="M117.58,433.764H10.277a2.778,2.778,0,0,1-2.44-1.448,2.921,2.921,0,0,0,2.44,4.343h107.3a2.916,2.916,0,0,0,2.44-4.343A2.779,2.779,0,0,1,117.58,433.764Z" transform="translate(-5.624 -283.424)" fill="#bababa"/>
      <path id="Trazado_659468" data-name="Trazado 659468" d="M140.834,135.7h-80a4.186,4.186,0,0,0-4.181,4.181v3.035h88.367V139.88A4.185,4.185,0,0,0,140.834,135.7Z" transform="translate(-42.527 -60.743)" fill="#f2f2f2"/>
      <path id="Trazado_659469" data-name="Trazado 659469" d="M66.254,135.7H60.829a4.186,4.186,0,0,0-4.181,4.181v3.035h9.606V135.7Z" transform="translate(-42.527 -60.743)" fill="#1c954d"/>
      <g id="Grupo_960504" data-name="Grupo 960504" transform="translate(14.121 74.956)">
        <path id="Trazado_659470" data-name="Trazado 659470" d="M60.829,135.7a4.186,4.186,0,0,0-4.181,4.181v3.035h5.183V139.88a4.287,4.287,0,0,1,3.335-4.181Z" transform="translate(-56.648 -135.699)" fill="#2ff980"/>
        <path id="Trazado_659471" data-name="Trazado 659471" d="M182.884,230.767a9.629,9.629,0,0,1-5.3-1.628,11.47,11.47,0,0,1-4.522-12.745c1.366-4.719,4.92-8.071,7.775-10.763,4.479-4.224,4.395-4.812,3.41-6.2a3,3,0,0,0-2.134-1.52c-1.782-.208-4.048,1.4-4.7,1.978a3.474,3.474,0,1,1-4.65-5.163c.487-.44,4.906-4.29,10.092-3.724,5.746.627,11.119,7.391,7.914,13.65-2.547,4.975-9.513,8.426-11.031,13.672a4.466,4.466,0,0,0,1.656,5,2.687,2.687,0,0,0,3.441-.308A16.794,16.794,0,0,1,190.9,219.8c4.931-1.394,9.766-.008,13.613,3.9a3.474,3.474,0,1,1-4.953,4.872c-2.1-2.137-4.254-2.8-6.77-2.09a9.9,9.9,0,0,0-3.394,1.771c-.031.028-.063.055-.094.081A10.02,10.02,0,0,1,182.884,230.767Z" transform="translate(-142.956 -177.175)" fill="#2ff980"/>
      </g>
      <path id="Trazado_659472" data-name="Trazado 659472" d="M338.65,63.588,318.178,96.036a2.809,2.809,0,0,0,2.374,4.305H361.5a2.809,2.809,0,0,0,2.284-4.444L343.4,63.588A2.809,2.809,0,0,0,338.65,63.588Z" transform="translate(-238.539 -5.625)" fill="#2ff980"/>
      <path id="Trazado_659473" data-name="Trazado 659473" d="M323.152,96.023l20.359-32.269a2.812,2.812,0,0,0-4.862-.178L318.177,96.023a2.809,2.809,0,0,0,2.374,4.305h4.975A2.81,2.81,0,0,1,323.152,96.023Z" transform="translate(-238.538 -5.612)" fill="#1c954d"/>
      <path id="Trazado_659474" data-name="Trazado 659474" d="M111.947,419.017H4.645A4.65,4.65,0,0,0,0,423.661v.232a4.65,4.65,0,0,0,4.645,4.645h107.3a4.65,4.65,0,0,0,4.645-4.645v-.232A4.649,4.649,0,0,0,111.947,419.017Zm.914,4.876a.915.915,0,0,1-.914.914H4.645a.915.915,0,0,1-.914-.914v-.232a.914.914,0,0,1,.914-.913h107.3a.914.914,0,0,1,.914.913v.232Z" transform="translate(0 -273.439)"/>
      <path id="Trazado_659475" data-name="Trazado 659475" d="M184.74,212.35a18.565,18.565,0,0,0-6.755,3.58,1.353,1.353,0,0,1-.744.36.923.923,0,0,1-.478-.182,2.623,2.623,0,0,1-.886-2.92c1.318-4.553,8.184-8.035,10.9-13.341,5.308-10.368-8.64-23.277-20.919-12.16A5.339,5.339,0,0,0,173,195.629a6.536,6.536,0,0,1,3.14-1.528c.378,0,.7.421.939.753.067.1.116.167.151.22-1.508,2.759-9.32,7.243-11.607,15.143-3.487,12.044,9.985,22.007,19.34,13.8a8.132,8.132,0,0,1,2.685-1.39c4.38-1.238,4.433,3.2,8.74,3.2a5.34,5.34,0,0,0,3.806-9.084C195.763,212.239,190.2,210.805,184.74,212.35Zm-15.181,5.419,3.246-.655a6.334,6.334,0,0,0,.661.978l-2.037,2.557A9.294,9.294,0,0,1,169.558,217.769Zm-.148-7.152,2.887,1.519a6.9,6.9,0,0,0-.251,1.325l-3.232.652A9.91,9.91,0,0,1,169.411,210.617Zm3.84-6.081,2.462,2.064a20.3,20.3,0,0,0-1.768,2.186l-2.853-1.5A23.112,23.112,0,0,1,173.25,204.536Zm5.423-.864-.3.287-2.482-2.081c.743-.7,1.659-1.556,2.46-2.367l2.368,2.186C180.071,202.352,179.38,203,178.673,203.672ZM176.679,190.4c-2.141-.251-4.69,1.137-6.17,2.448a1.591,1.591,0,0,1-1.07.414,1.614,1.614,0,0,1-1.076-2.811c3.494-3.163,10.127-5.611,14.379.381a6.65,6.65,0,0,1,.714,7.313c-.114.223-.24.442-.374.659l-2.431-2.244a3.523,3.523,0,0,0-.532-3.866A4.878,4.878,0,0,0,176.679,190.4Zm-2.14,32.332,2.188-2.746a4.017,4.017,0,0,0,1.254-.033l.926,3.1A7.389,7.389,0,0,1,174.539,222.733Zm7.76-1.359-.986-3.3a15.35,15.35,0,0,1,3.049-1.654l.67,3.213A11.9,11.9,0,0,0,182.3,221.374Zm6.35-2.669-.663-3.177a10.734,10.734,0,0,1,4.487.544l-1.932,2.777A7.252,7.252,0,0,0,188.649,218.7Zm8.863,2.926a1.608,1.608,0,0,1-2.274-.019,12.449,12.449,0,0,0-1.282-1.14l1.833-2.634a14.823,14.823,0,0,1,1.743,1.518,1.607,1.607,0,0,1-.019,2.275Z" transform="translate(-123.195 -96.563)"/>
      <path id="Trazado_659476" data-name="Trazado 659476" d="M146.261,89.274,125.876,56.965a4.674,4.674,0,0,0-7.9,0L111.453,67.3H37.741A11.85,11.85,0,0,0,25.9,79.135v51.988A11.85,11.85,0,0,0,37.741,142.96h80a11.85,11.85,0,0,0,11.837-11.837V125.5a1.866,1.866,0,1,0-3.731,0v5.623a8.115,8.115,0,0,1-8.106,8.105h-80a8.115,8.115,0,0,1-8.105-8.106V79.135a8.115,8.115,0,0,1,8.105-8.106H109.1l-1.3,2.059H37.74a6.053,6.053,0,0,0-6.047,6.047v51.988a6.053,6.053,0,0,0,6.047,6.047h80a6.053,6.053,0,0,0,6.047-6.047V96.579h2.059V116.8a1.866,1.866,0,0,0,3.731,0V96.579H142.4a4.673,4.673,0,0,0,3.861-7.305ZM35.425,79.135a2.318,2.318,0,0,1,2.316-2.316H41.3V80.3H35.425Zm84.636,51.988a2.319,2.319,0,0,1-2.316,2.316h-80a2.319,2.319,0,0,1-2.316-2.316V84.035h13.22a1.866,1.866,0,1,0,0-3.731H45.031V76.819h60.415l-2.2,3.485H57.35a1.866,1.866,0,1,0,0,3.731h43.543L97.5,89.413a4.673,4.673,0,0,0,3.952,7.166h18.609v34.544h0ZM142.4,92.848H101.452a.942.942,0,0,1-.8-1.445l9.75-15.453,10.721-16.993a.943.943,0,0,1,1.595,0l20.385,32.309a1.018,1.018,0,0,1,.236.641A.943.943,0,0,1,142.4,92.848Z" transform="translate(-19.447 0)"/>
      <path id="Trazado_659477" data-name="Trazado 659477" d="M405.5,124.179a1.865,1.865,0,0,0,1.866-1.866v-10.77a1.866,1.866,0,1,0-3.731,0v10.77A1.865,1.865,0,0,0,405.5,124.179Z" transform="translate(-303.021 -41.208)"/>
      <path id="Trazado_659478" data-name="Trazado 659478" d="M405.5,175.183a1.864,1.864,0,1,0,1.318.545A1.874,1.874,0,0,0,405.5,175.183Z" transform="translate(-303.024 -90.385)"/>
    </g>
  </g>
</svg>
