<svg xmlns="http://www.w3.org/2000/svg" width="375.071" height="257.174" viewBox="0 0 375.071 257.174">
  <g id="Grupo_960664" data-name="Grupo 960664" transform="translate(-561.963 -1247.78)">
    <g id="Grupo_960600" data-name="Grupo 960600" transform="translate(561.963 1504.383)">
      <g id="Grupo_960599" data-name="Grupo 960599">
        <path id="Trazado_659616" data-name="Trazado 659616" d="M892.681,1496.328c0,.157-83.969.285-187.527.285-103.593,0-187.544-.128-187.544-.285s83.951-.286,187.544-.286C808.712,1496.042,892.681,1496.17,892.681,1496.328Z" transform="translate(-517.61 -1496.042)" fill="#263238"/>
      </g>
    </g>
    <g id="Grupo_960654" data-name="Grupo 960654" transform="translate(561.963 1247.78)">
      <g id="Grupo_960618" data-name="Grupo 960618" transform="translate(0 111.806)">
        <path id="Trazado_659617" data-name="Trazado 659617" d="M624.369,1435.368l-31.21-31.345L608.85,1375.2c15.692-20.086,48.907-18.792,48.907-18.792a190.381,190.381,0,0,1,48.986,2.957C733.126,1364.5,731,1381.961,731,1381.961l3.534,64.674,3.789,52.661-97.31,1.962-16.646-65.891" transform="translate(-560.915 -1355.952)" fill="#45bbcc"/>
        <path id="Trazado_659618" data-name="Trazado 659618" d="M677.837,1497.129l-87.158,1.068a28.333,28.333,0,0,1-25.957-40.451l37.266-69.114,33.946,22.947-23.156,48.057,70.559,1.259Z" transform="translate(-561.963 -1354.854)" fill="#45bbcc"/>
        <path id="Trazado_659619" data-name="Trazado 659619" d="M723.506,1370.959l69.945,107.988-40.805,2.669s-24.368-38.4-23.817-37.607C729.824,1445.446,723.506,1370.959,723.506,1370.959Z" transform="translate(-556.535 -1355.447)" fill="#45bbcc"/>
        <path id="Trazado_659620" data-name="Trazado 659620" d="M620.677,1437.276" transform="translate(-559.99 -1353.219)" fill="#ff4f5b"/>
        <g id="Grupo_960601" data-name="Grupo 960601" transform="translate(60.709 13.301)">
          <path id="Trazado_659621" data-name="Trazado 659621" d="M632.21,1418.449a2.268,2.268,0,0,1,.1-.555c.1-.417.222-.934.371-1.565.323-1.358.793-3.322,1.286-5.766s1.012-5.369,1.369-8.64a45.62,45.62,0,0,0,.037-10.65,28.069,28.069,0,0,0-3.611-9.941,40.007,40.007,0,0,0-5.192-6.988,49.18,49.18,0,0,0-4.235-4.1,21.386,21.386,0,0,1-1.634-1.426,2.19,2.19,0,0,1,.475.3c.3.218.751.518,1.292.963a41.049,41.049,0,0,1,4.379,4,38.517,38.517,0,0,1,5.342,7A27.955,27.955,0,0,1,635.9,1391.2a44.588,44.588,0,0,1-.076,10.78,87.7,87.7,0,0,1-1.489,8.665c-.543,2.442-1.07,4.4-1.456,5.741-.192.672-.352,1.191-.468,1.54A2.218,2.218,0,0,1,632.21,1418.449Z" transform="translate(-620.698 -1368.82)" fill="#263238"/>
        </g>
        <g id="Grupo_960602" data-name="Grupo 960602" transform="translate(50.695 66.654)">
          <path id="Trazado_659622" data-name="Trazado 659622" d="M629.733,1420.439a9.84,9.84,0,0,1-.6,1.563c-.418.991-1.044,2.417-1.834,4.17-1.579,3.508-3.827,8.323-6.412,13.592s-5.02,10-6.828,13.39c-.9,1.7-1.649,3.065-2.178,4a9.756,9.756,0,0,1-.868,1.429,10,10,0,0,1,.683-1.526l2.024-4.08,6.684-13.452c2.537-5.237,4.834-9.974,6.55-13.515.808-1.665,1.478-3.045,1.988-4.1A10.157,10.157,0,0,1,629.733,1420.439Z" transform="translate(-611.01 -1420.439)" fill="#263238"/>
        </g>
        <g id="Grupo_960603" data-name="Grupo 960603" transform="translate(30.917 104.326)">
          <path id="Trazado_659623" data-name="Trazado 659623" d="M676.832,1494.836a.612.612,0,0,1,0-.182c.011-.144.026-.316.043-.531.05-.5.119-1.187.207-2.06.2-1.836.49-4.457.853-7.754.772-6.68,1.859-16.093,3.14-27.182l.244.275-25.746.023-45.044-.079-13.65-.086c-1.583-.021-2.827-.038-3.712-.051l-.964-.026a.166.166,0,1,1,0-.056l.964-.026,3.712-.051,13.65-.086,45.044-.079,25.746.023h.278l-.033.275c-1.36,11.08-2.515,20.485-3.333,27.16-.422,3.291-.758,5.906-.992,7.738-.12.87-.214,1.552-.283,2.052l-.083.526A.6.6,0,0,1,676.832,1494.836Z" transform="translate(-591.875 -1456.886)" fill="#263238"/>
        </g>
        <g id="Grupo_960604" data-name="Grupo 960604" transform="translate(37.104 93.416)">
          <path id="Trazado_659624" data-name="Trazado 659624" d="M612.187,1458.435a24.943,24.943,0,0,1-1.739-2.179,34,34,0,0,0-10.147-8.568,24.869,24.869,0,0,1-2.439-1.35,10.161,10.161,0,0,1,2.615,1.012,27.941,27.941,0,0,1,10.274,8.677A10.139,10.139,0,0,1,612.187,1458.435Z" transform="translate(-597.861 -1446.331)" fill="#263238"/>
        </g>
        <g id="Grupo_960605" data-name="Grupo 960605" transform="translate(169.624 23.715)">
          <path id="Trazado_659625" data-name="Trazado 659625" d="M731.516,1467.538a5.582,5.582,0,0,1-.138-.893q-.107-.954-.292-2.573c-.239-2.235-.558-5.472-.9-9.476-.706-8.007-1.522-19.082-2.249-31.324s-1.23-23.34-1.52-31.372c-.15-4.016-.245-7.266-.295-9.513q-.026-1.629-.043-2.588a5.792,5.792,0,0,1,.022-.9,5.55,5.55,0,0,1,.087.9q.054.958.145,2.584c.112,2.3.27,5.53.465,9.505.388,8.027.954,19.114,1.678,31.357s1.482,23.313,2.091,31.324c.307,3.968.557,7.2.734,9.489q.121,1.625.191,2.581A5.716,5.716,0,0,1,731.516,1467.538Z" transform="translate(-726.073 -1378.896)" fill="#263238"/>
        </g>
        <g id="Grupo_960606" data-name="Grupo 960606" transform="translate(86.062 25.58)">
          <path id="Trazado_659626" data-name="Trazado 659626" d="M656.429,1408.719a8.651,8.651,0,0,1,.112-1.412c.119-.986.277-2.3.472-3.91.454-3.412,1.075-8.087,1.794-13.5l.4.246-6.687,4.682-6.8,4.732-.491.341.09-.588c.822-5.365,1.53-10,2.047-13.377.264-1.592.477-2.886.638-3.859a8.612,8.612,0,0,1,.287-1.377,8.672,8.672,0,0,1-.118,1.4c-.124.978-.288,2.279-.49,3.879-.469,3.388-1.112,8.029-1.856,13.406l-.4-.247,6.789-4.754,6.7-4.661.487-.339-.086.585c-.8,5.4-1.483,10.065-1.985,13.471-.255,1.6-.463,2.909-.62,3.889A8.722,8.722,0,0,1,656.429,1408.719Z" transform="translate(-645.227 -1380.7)" fill="#e0e0e0"/>
        </g>
        <g id="Grupo_960607" data-name="Grupo 960607" transform="translate(109.409 43.148)">
          <path id="Trazado_659627" data-name="Trazado 659627" d="M694.568,1412.34a8.567,8.567,0,0,1-1.015-.988l-2.7-2.862-9.233-10.007.445-.151c-.21,2.533-.437,5.282-.674,8.135-.249,2.9-.489,5.688-.71,8.256l-.051.6-.395-.445-8.98-10.125c-1.055-1.219-1.914-2.21-2.559-2.956a8.62,8.62,0,0,1-.875-1.1,8.714,8.714,0,0,1,1,.986l2.67,2.857,9.124,10-.447.149c.213-2.57.444-5.36.684-8.259.245-2.853.482-5.6.7-8.133l.051-.591.395.44,9.091,10.136,2.594,2.963A9,9,0,0,1,694.568,1412.34Z" transform="translate(-667.815 -1397.697)" fill="#e0e0e0"/>
        </g>
        <g id="Grupo_960608" data-name="Grupo 960608" transform="translate(144.819 56.407)">
          <path id="Trazado_659628" data-name="Trazado 659628" d="M713,1410.525a8.634,8.634,0,0,1-.7,1.23c-.527.841-1.23,1.96-2.093,3.335-1.864,2.9-4.417,6.859-7.373,11.448l-.257-.393,8.044-1.388,8.172-1.384.588-.1-.332.494L711.5,1435l-2.22,3.22a8.621,8.621,0,0,1-.847,1.123,8.649,8.649,0,0,1,.7-1.218c.528-.832,1.231-1.94,2.1-3.3,1.867-2.865,4.425-6.79,7.389-11.338l.256.394-8.167,1.409-8.049,1.363-.585.1.327-.493,7.534-11.343,2.217-3.254A8.837,8.837,0,0,1,713,1410.525Z" transform="translate(-702.074 -1410.525)" fill="#e0e0e0"/>
        </g>
        <g id="Grupo_960609" data-name="Grupo 960609" transform="translate(118.783 76.434)">
          <path id="Trazado_659629" data-name="Trazado 659629" d="M687.809,1429.9a8.6,8.6,0,0,1-.7,1.231l-2.093,3.335-7.373,11.448-.257-.394,8.044-1.387,8.171-1.384.589-.1-.332.493c-3.028,4.505-5.642,8.394-7.549,11.232-.916,1.327-1.661,2.407-2.22,3.22a8.6,8.6,0,0,1-.846,1.122,8.652,8.652,0,0,1,.7-1.218c.528-.832,1.231-1.94,2.1-3.3l7.388-11.338.257.394-8.167,1.409-8.05,1.363-.585.1.328-.493c3.02-4.547,5.629-8.475,7.533-11.343l2.218-3.254A8.789,8.789,0,0,1,687.809,1429.9Z" transform="translate(-676.885 -1429.901)" fill="#e0e0e0"/>
        </g>
        <g id="Grupo_960610" data-name="Grupo 960610" transform="translate(175.034 56.122)">
          <path id="Trazado_659630" data-name="Trazado 659630" d="M742.231,1410.25a8.87,8.87,0,0,1-.7,1.231l-2.093,3.335c-1.865,2.894-4.418,6.859-7.373,11.448l-.258-.394,8.045-1.387,8.171-1.384.588-.1-.332.493c-3.027,4.505-5.641,8.394-7.549,11.232l-2.22,3.22a8.69,8.69,0,0,1-.845,1.122,8.571,8.571,0,0,1,.7-1.218c.529-.832,1.232-1.94,2.1-3.3l7.389-11.338.256.394-8.166,1.409-8.049,1.363-.585.1.327-.493,7.534-11.343,2.217-3.254A8.739,8.739,0,0,1,742.231,1410.25Z" transform="translate(-731.307 -1410.25)" fill="#e0e0e0"/>
        </g>
        <g id="Grupo_960611" data-name="Grupo 960611" transform="translate(43.303 39.578)">
          <path id="Trazado_659631" data-name="Trazado 659631" d="M614.782,1394.243a8.59,8.59,0,0,1-.7,1.231l-2.093,3.335-7.373,11.448-.257-.394,8.044-1.387,8.171-1.384.589-.1-.332.493c-3.028,4.505-5.642,8.394-7.549,11.232l-2.22,3.219a8.6,8.6,0,0,1-.846,1.124,8.646,8.646,0,0,1,.7-1.218c.528-.833,1.231-1.94,2.1-3.3L620.4,1407.2l.257.394-8.167,1.409-8.05,1.363-.585.1.328-.493c3.02-4.547,5.629-8.474,7.533-11.343l2.218-3.254A8.706,8.706,0,0,1,614.782,1394.243Z" transform="translate(-603.858 -1394.243)" fill="#e0e0e0"/>
        </g>
        <g id="Grupo_960612" data-name="Grupo 960612" transform="translate(13.363 114.762)">
          <path id="Trazado_659632" data-name="Trazado 659632" d="M574.893,1469.084a8.669,8.669,0,0,1,.951,1.05l2.521,3.025,8.59,10.565-.454.122c.367-2.516.766-5.244,1.18-8.078.43-2.876.843-5.646,1.224-8.2l.089-.59.366.469,8.33,10.666,2.37,3.11a8.692,8.692,0,0,1,.8,1.153,8.5,8.5,0,0,1-.938-1.047l-2.487-3.018-8.481-10.546.455-.122-1.2,8.2-1.205,8.074-.088.587-.367-.464-8.439-10.685c-.992-1.286-1.8-2.333-2.4-3.118A8.669,8.669,0,0,1,574.893,1469.084Z" transform="translate(-574.892 -1466.983)" fill="#e0e0e0"/>
        </g>
        <g id="Grupo_960613" data-name="Grupo 960613" transform="translate(80.938 66.803)">
          <path id="Trazado_659633" data-name="Trazado 659633" d="M666.023,1420.6a8.776,8.776,0,0,1-1.4.181l-3.924.339-13.578,1.013.158-.442,5.955,5.585,6.027,5.688.434.41-.594.032-13.512.741-3.907.167a8.513,8.513,0,0,1-1.407,0,8.661,8.661,0,0,1,1.4-.172l3.9-.316,13.5-.933-.16.442c-1.881-1.763-3.924-3.68-6.044-5.669l-5.937-5.6-.432-.407.59-.035,13.592-.821,3.934-.191A8.82,8.82,0,0,1,666.023,1420.6Z" transform="translate(-640.27 -1420.583)" fill="#e0e0e0"/>
        </g>
        <g id="Grupo_960614" data-name="Grupo 960614" transform="translate(83.787 116.541)">
          <path id="Trazado_659634" data-name="Trazado 659634" d="M643.027,1471.081a8.784,8.784,0,0,1,.973,1.031l2.579,2.977,8.795,10.394-.452.132c.318-2.523.665-5.259,1.023-8.1.373-2.885.732-5.662,1.063-8.219l.076-.592.375.462,8.538,10.5,2.43,3.063a8.47,8.47,0,0,1,.827,1.138,8.782,8.782,0,0,1-.959-1.028l-2.545-2.969-8.685-10.378.452-.13c-.322,2.558-.674,5.337-1.038,8.222-.367,2.839-.721,5.574-1.047,8.1l-.077.588-.375-.457-8.648-10.518-2.464-3.071A8.692,8.692,0,0,1,643.027,1471.081Z" transform="translate(-643.026 -1468.704)" fill="#e0e0e0"/>
        </g>
        <g id="Grupo_960615" data-name="Grupo 960615" transform="translate(17.102 80.692)">
          <path id="Trazado_659635" data-name="Trazado 659635" d="M604.262,1434.041a8.8,8.8,0,0,1-1.406.181l-3.922.339-13.579,1.013.159-.443,5.953,5.586,6.027,5.688.435.409-.594.033-13.513.741-3.907.167a8.651,8.651,0,0,1-1.406,0,8.673,8.673,0,0,1,1.4-.173l3.9-.315,13.5-.933-.159.443-6.044-5.669-5.937-5.6-.432-.407.59-.036,13.592-.82,3.933-.191A8.679,8.679,0,0,1,604.262,1434.041Z" transform="translate(-578.509 -1434.021)" fill="#e0e0e0"/>
        </g>
        <g id="Grupo_960616" data-name="Grupo 960616" transform="translate(52.268 117.725)">
          <path id="Trazado_659636" data-name="Trazado 659636" d="M638.285,1469.87a8.778,8.778,0,0,1-1.4.181l-3.924.339-13.578,1.013.158-.443c1.854,1.74,3.866,3.627,5.955,5.585l6.027,5.689.434.409-.594.033-13.512.74-3.907.168a8.655,8.655,0,0,1-1.407,0,8.7,8.7,0,0,1,1.4-.173l3.9-.315,13.5-.933-.16.442-6.044-5.669-5.937-5.6-.432-.407.59-.036,13.592-.821,3.934-.19A8.651,8.651,0,0,1,638.285,1469.87Z" transform="translate(-612.532 -1469.85)" fill="#e0e0e0"/>
        </g>
        <g id="Grupo_960617" data-name="Grupo 960617" transform="translate(131.659 23.505)">
          <path id="Trazado_659637" data-name="Trazado 659637" d="M715.1,1378.712a8.609,8.609,0,0,1-1.4.181l-3.923.34-13.578,1.012.158-.442,5.955,5.584,6.027,5.688.434.41-.593.032-13.513.741-3.907.167a8.779,8.779,0,0,1-1.407,0,8.582,8.582,0,0,1,1.4-.173l3.9-.316,13.5-.932-.16.441-6.044-5.669-5.937-5.6-.431-.407.59-.035,13.591-.821,3.934-.19A8.768,8.768,0,0,1,715.1,1378.712Z" transform="translate(-689.342 -1378.692)" fill="#e0e0e0"/>
        </g>
      </g>
      <g id="Grupo_960622" data-name="Grupo 960622" transform="translate(116.447 223.028)">
        <path id="Trazado_659638" data-name="Trazado 659638" d="M676.973,1470.081s17.39-5.01,23.145-6.478c2.243-.573,11.849,4.5,18.483,8.708,0,0,9.138,5.417,8.4,7.086-.813,1.837-4.183,1.46-9.555-1.066,0,0,1.874,5.443-1.806,5.326,0,0,1.825,5.883-1.624,6.492s-4.26-6.9-7.3-7.3-9.332-.811-9.332-.811-5.237,8.673-9.294,9.282-13.461-.488-13.461-.488Z" transform="translate(-674.625 -1463.559)" fill="#ffbf9d"/>
        <g id="Grupo_960619" data-name="Grupo 960619" transform="translate(32.028 7.712)">
          <path id="Trazado_659639" data-name="Trazado 659639" d="M705.614,1471.029a57.835,57.835,0,0,1,9.427,5.946,57.916,57.916,0,0,1-9.427-5.946Z" transform="translate(-705.612 -1471.021)" fill="#ff9a6c"/>
        </g>
        <g id="Grupo_960620" data-name="Grupo 960620" transform="translate(31 11.054)">
          <path id="Trazado_659640" data-name="Trazado 659640" d="M704.618,1474.265a72.158,72.158,0,0,1,11.308,5.219,72.165,72.165,0,0,1-11.308-5.219Z" transform="translate(-704.617 -1474.254)" fill="#ff9a6c"/>
        </g>
        <g id="Grupo_960621" data-name="Grupo 960621" transform="translate(32.862 19.111)">
          <path id="Trazado_659641" data-name="Trazado 659641" d="M706.419,1482.112a28.7,28.7,0,0,1,7.778,1.066,28.8,28.8,0,0,1-7.778-1.066Z" transform="translate(-706.419 -1482.049)" fill="#ff9a6c"/>
        </g>
      </g>
      <g id="Grupo_960653" data-name="Grupo 960653" transform="translate(81.843)">
        <g id="Grupo_960647" data-name="Grupo 960647">
          <path id="Trazado_659642" data-name="Trazado 659642" d="M655.477,1297.947a3.574,3.574,0,0,1-5.035,4.226c-2.357-1.195-2.655-4.446-2.191-7.047s1.348-5.377.256-7.783c-.834-1.841-2.642-3.007-4.052-4.456a11.4,11.4,0,0,1-3.167-9.672,9.588,9.588,0,0,1,6.591-7.539c3.463-.968,7.728.1,10.306-2.41,1.868-1.816,1.982-4.793,3.427-6.96,2.244-3.365,6.988-3.9,11-3.352s8.088,1.834,12.013.857c3.279-.816,5.969-3.1,9.041-4.511a17.705,17.705,0,0,1,23.053,24.307,11.312,11.312,0,0,1-5.493,5.435" transform="translate(-641.146 -1247.78)" fill="#263238"/>
          <g id="Grupo_960638" data-name="Grupo 960638" transform="translate(13.142 20.886)">
            <g id="Grupo_960637" data-name="Grupo 960637">
              <g id="Grupo_960636" data-name="Grupo 960636">
                <g id="Grupo_960623" data-name="Grupo 960623">
                  <path id="Trazado_659643" data-name="Trazado 659643" d="M674.994,1382.642h0a19.926,19.926,0,0,0,19.9-20.2l-.262-19s15.963-1.6,17.02-17.413.294-52.3.294-52.3h0a55.082,55.082,0,0,0-55.644,3.936l-2.444,1.677L655.05,1363A19.925,19.925,0,0,0,674.994,1382.642Z" transform="translate(-653.86 -1267.987)" fill="#ffbf9d"/>
                </g>
                <g id="Grupo_960627" data-name="Grupo 960627" transform="translate(48.996 26.854)">
                  <g id="Grupo_960624" data-name="Grupo 960624" transform="translate(2.802 2.802)">
                    <path id="Trazado_659644" data-name="Trazado 659644" d="M706.07,1301.4a2.368,2.368,0,0,1,.027-4.707,1.068,1.068,0,0,1,.385,0,2.368,2.368,0,0,1-.026,4.707A1.052,1.052,0,0,1,706.07,1301.4Z" transform="translate(-703.974 -1296.679)" fill="#263238"/>
                  </g>
                  <g id="Grupo_960626" data-name="Grupo 960626">
                    <g id="Grupo_960625" data-name="Grupo 960625">
                      <path id="Trazado_659645" data-name="Trazado 659645" d="M709.265,1296.445c-.263.26-1.752-1.02-3.93-1.149-2.178-.161-3.823.911-4.049.618-.111-.131.163-.612.882-1.1a5.383,5.383,0,0,1,6.368.425C709.185,1295.817,709.392,1296.33,709.265,1296.445Z" transform="translate(-701.263 -1293.968)" fill="#263238"/>
                    </g>
                  </g>
                </g>
                <g id="Grupo_960631" data-name="Grupo 960631" transform="translate(25.216 27.484)">
                  <g id="Grupo_960628" data-name="Grupo 960628" transform="translate(2.954 1.969)">
                    <path id="Trazado_659646" data-name="Trazado 659646" d="M684.727,1296.892a2.3,2.3,0,1,1-3.2.581A2.3,2.3,0,0,1,684.727,1296.892Z" transform="translate(-681.115 -1296.482)" fill="#263238"/>
                  </g>
                  <g id="Grupo_960630" data-name="Grupo 960630">
                    <g id="Grupo_960629" data-name="Grupo 960629">
                      <path id="Trazado_659647" data-name="Trazado 659647" d="M686.259,1297.053c-.264.26-1.752-1.02-3.931-1.148-2.177-.162-3.822.909-4.047.617-.112-.131.162-.612.882-1.1a5.381,5.381,0,0,1,6.368.424C686.179,1296.426,686.386,1296.939,686.259,1297.053Z" transform="translate(-678.257 -1294.577)" fill="#263238"/>
                    </g>
                  </g>
                </g>
                <g id="Grupo_960633" data-name="Grupo 960633" transform="translate(40.684 29.398)">
                  <g id="Grupo_960632" data-name="Grupo 960632">
                    <path id="Trazado_659648" data-name="Trazado 659648" d="M693.517,1315.449c-.005-.172,1.357-.371,3.566-.555.574-.031,1.027-.135,1.085-.439a3.1,3.1,0,0,0-.318-1.655l-1.483-4.523c-2.037-6.44-3.423-11.743-3.1-11.846s2.243,5.031,4.281,11.471c.479,1.571.936,3.071,1.389,4.553a3.644,3.644,0,0,1,.182,2.387,1.5,1.5,0,0,1-1.032.857,3.655,3.655,0,0,1-.98.073C694.9,1315.732,693.523,1315.621,693.517,1315.449Z" transform="translate(-693.222 -1296.43)" fill="#263238"/>
                  </g>
                </g>
                <g id="Grupo_960634" data-name="Grupo 960634" transform="translate(33.581 50.439)">
                  <path id="Trazado_659649" data-name="Trazado 659649" d="M686.535,1316.787a40.9,40.9,0,0,0,10.52,3.689,6.032,6.032,0,0,1-7.238,2.01C685.175,1320.495,686.535,1316.787,686.535,1316.787Z" transform="translate(-686.349 -1316.787)" fill="#fff"/>
                </g>
                <g id="Grupo_960635" data-name="Grupo 960635" transform="translate(20.5 68.237)">
                  <path id="Trazado_659650" data-name="Trazado 659650" d="M694.006,1340.994a36.855,36.855,0,0,1-20.312-6.988s4.256,11.656,20.125,11.09Z" transform="translate(-673.694 -1334.006)" fill="#ff9a6c"/>
                </g>
              </g>
            </g>
          </g>
          <path id="Trazado_659651" data-name="Trazado 659651" d="M712.188,1277.856s-9.552,4.855-22.221-1.164c-8.314-3.949-17.951-5.771-20.035-4.074s-2.365,10.19-10.474,12.826c0,0,.875,16.177-5.59,15.725s-2.92-25.6-2.92-25.6l15.64-8.019,17.167-3.591,16.28,1.974,12.628,3.195Z" transform="translate(-640.849 -1247.237)" fill="#263238"/>
          <g id="Grupo_960642" data-name="Grupo 960642" transform="translate(3.252 48.027)">
            <g id="Grupo_960639" data-name="Grupo 960639">
              <path id="Trazado_659652" data-name="Trazado 659652" d="M655.239,1294.951c-.264-.131-10.7-3.809-10.943,7.03s10.687,8.848,10.714,8.538S655.239,1294.951,655.239,1294.951Z" transform="translate(-644.292 -1294.246)" fill="#ffbf9d"/>
            </g>
            <g id="Grupo_960641" data-name="Grupo 960641" transform="translate(2.75 3.47)">
              <g id="Grupo_960640" data-name="Grupo 960640">
                <path id="Trazado_659653" data-name="Trazado 659653" d="M651.7,1306.224c-.047-.036-.191.128-.514.268a1.893,1.893,0,0,1-1.412,0c-1.135-.447-2.059-2.285-2.067-4.24a6.222,6.222,0,0,1,.589-2.692,2.185,2.185,0,0,1,1.453-1.418.961.961,0,0,1,1.1.543c.138.307.065.522.122.542.03.028.237-.177.16-.626a1.206,1.206,0,0,0-.411-.688,1.43,1.43,0,0,0-1.039-.3,2.656,2.656,0,0,0-2.009,1.636,6.407,6.407,0,0,0-.722,3.007c.02,2.185,1.093,4.253,2.649,4.742a2.025,2.025,0,0,0,1.733-.248C651.677,1306.486,651.74,1306.245,651.7,1306.224Z" transform="translate(-646.953 -1297.603)" fill="#ff9a6c"/>
              </g>
            </g>
          </g>
          <g id="Grupo_960643" data-name="Grupo 960643" transform="translate(8.679 14.52)">
            <path id="Trazado_659654" data-name="Trazado 659654" d="M649.544,1262.109a5.981,5.981,0,0,1,6.693,2.5,10.212,10.212,0,0,0-6.693-2.5Z" transform="translate(-649.543 -1261.829)" fill="#263238"/>
          </g>
          <g id="Grupo_960644" data-name="Grupo 960644" transform="translate(14.801 8.31)">
            <path id="Trazado_659655" data-name="Trazado 659655" d="M655.865,1255.82c.19.011-.108,2.285.271,5a21.524,21.524,0,0,0,1.513,4.723c-.051.036-.447-.386-.909-1.2a10.2,10.2,0,0,1-1.137-3.445A11.284,11.284,0,0,1,655.865,1255.82Z" transform="translate(-655.465 -1255.82)" fill="#263238"/>
          </g>
          <g id="Grupo_960645" data-name="Grupo 960645" transform="translate(59.73 43.498)">
            <path id="Trazado_659656" data-name="Trazado 659656" d="M698.939,1291.377c-.058-.127.406-.5,1.286-.86a9.9,9.9,0,0,1,7.254.072c.871.376,1.328.759,1.268.885-.133.287-2.22-.528-4.9-.533C701.17,1290.894,699.066,1291.667,698.939,1291.377Z" transform="translate(-698.934 -1289.865)" fill="#263238"/>
          </g>
          <g id="Grupo_960646" data-name="Grupo 960646" transform="translate(35.562 41.218)">
            <path id="Trazado_659657" data-name="Trazado 659657" d="M675.556,1289.171c-.057-.127.407-.5,1.287-.86a9.9,9.9,0,0,1,7.253.072c.872.376,1.329.759,1.269.885-.133.287-2.221-.528-4.9-.533C677.788,1288.688,675.683,1289.461,675.556,1289.171Z" transform="translate(-675.552 -1287.659)" fill="#263238"/>
          </g>
        </g>
        <g id="Grupo_960652" data-name="Grupo 960652" transform="translate(12.765 45.928)">
          <g id="Grupo_960648" data-name="Grupo 960648" transform="translate(44.947 0.534)">
            <path id="Trazado_659658" data-name="Trazado 659658" d="M697.138,1292.984a4.5,4.5,0,0,1,.041.642c.014.459.031,1.038.053,1.749.016.768.035,1.675.056,2.713a10.3,10.3,0,0,0,.516,3.515,9.418,9.418,0,0,0,2.285,3.611,9.2,9.2,0,0,0,4.272,2.346,8.709,8.709,0,0,0,2.644.231,8.485,8.485,0,0,0,2.7-.57,9.113,9.113,0,0,0,4.458-3.606,9.286,9.286,0,0,0,1.453-5.291c0-1.849.009-3.635.013-5.339l.25.249-13.413-.122-3.895-.067-1.054-.031a2.057,2.057,0,0,1-.383-.03,11.084,11.084,0,0,1,1.328-.06l3.839-.068,13.578-.121.249,0v.253c0,1.7.009,3.49.015,5.339a9.784,9.784,0,0,1-1.529,5.583,9.6,9.6,0,0,1-4.726,3.809,8.976,8.976,0,0,1-2.862.59,9.216,9.216,0,0,1-2.788-.263,9.6,9.6,0,0,1-4.468-2.511,9.712,9.712,0,0,1-2.333-3.81,10.377,10.377,0,0,1-.455-3.66q.033-1.6.057-2.784c.021-.7.038-1.272.052-1.725A3.067,3.067,0,0,1,697.138,1292.984Z" transform="translate(-696.982 -1292.732)" fill="#263238"/>
          </g>
          <g id="Grupo_960649" data-name="Grupo 960649" transform="translate(19.607)">
            <path id="Trazado_659659" data-name="Trazado 659659" d="M672.622,1292.467a4.676,4.676,0,0,1,.041.641l.052,1.749q.025,1.154.057,2.713a10.3,10.3,0,0,0,.516,3.515,9.418,9.418,0,0,0,2.284,3.612,9.208,9.208,0,0,0,4.273,2.346,8.771,8.771,0,0,0,2.643.231,8.509,8.509,0,0,0,2.7-.571,9.112,9.112,0,0,0,4.457-3.606,9.281,9.281,0,0,0,1.453-5.291c.005-1.849.009-3.635.014-5.341l.25.25-13.414-.122-3.895-.067-1.053-.031a2.167,2.167,0,0,1-.383-.03,11,11,0,0,1,1.328-.06l3.838-.068,13.579-.122.249,0v.252c.005,1.705.009,3.492.014,5.341a9.77,9.77,0,0,1-1.529,5.583,9.6,9.6,0,0,1-4.725,3.809,8.979,8.979,0,0,1-2.862.589,9.14,9.14,0,0,1-2.788-.263,9.6,9.6,0,0,1-4.469-2.511,9.711,9.711,0,0,1-2.333-3.809,10.375,10.375,0,0,1-.454-3.66c.022-1.066.04-2,.056-2.783.022-.7.039-1.272.053-1.725A2.949,2.949,0,0,1,672.622,1292.467Z" transform="translate(-672.465 -1292.215)" fill="#263238"/>
          </g>
          <g id="Grupo_960650" data-name="Grupo 960650" transform="translate(38.195 1.271)">
            <path id="Trazado_659660" data-name="Trazado 659660" d="M697.586,1293.714a23.737,23.737,0,0,1-7.137,0,23.822,23.822,0,0,1,7.137,0Z" transform="translate(-690.449 -1293.445)" fill="#263238"/>
          </g>
          <g id="Grupo_960651" data-name="Grupo 960651" transform="translate(0 1.381)">
            <path id="Trazado_659661" data-name="Trazado 659661" d="M653.5,1293.852a181.751,181.751,0,0,1,19.764-.06,181.26,181.26,0,0,1-19.764.06Z" transform="translate(-653.496 -1293.551)" fill="#263238"/>
          </g>
        </g>
      </g>
    </g>
    <g id="Grupo_960662" data-name="Grupo 960662" transform="translate(786.622 1297.181)">
      <g id="Grupo_960659" data-name="Grupo 960659">
        <g id="Grupo_960656" data-name="Grupo 960656">
          <g id="Grupo_960655" data-name="Grupo 960655">
            <path id="Trazado_659662" data-name="Trazado 659662" d="M847.86,1306.624l-30.769-11.049-30.469,10.9c-3.89,1.838-7.3,2.938-7.3,6.561v18.043a68.185,68.185,0,0,0,10.037,35.907,62.48,62.48,0,0,0,28.034,24.759c12.455-4.046,21.751-14.831,27.435-24.055a68.185,68.185,0,0,0,10.037-35.907v-16.225C854.863,1310.391,852.125,1307.867,847.86,1306.624Z" transform="translate(-779.319 -1295.575)" fill="#45bbcc"/>
          </g>
        </g>
        <g id="Grupo_960657" data-name="Grupo 960657" opacity="0.3">
          <path id="Trazado_659663" data-name="Trazado 659663" d="M817.391,1381.275a49.691,49.691,0,0,1-22.18-19.749,53.951,53.951,0,0,1-7.941-28.409v-12.655c0-2.867,1.729-5.552,5.164-7.156l24.664-9.222-.006-8.509-30.469,10.9c-3.2,1.4-7.3,2.938-7.3,6.561v18.043a68.185,68.185,0,0,0,10.037,35.907,62.48,62.48,0,0,0,28.034,24.759Z" transform="translate(-779.319 -1295.575)"/>
        </g>
        <g id="Grupo_960658" data-name="Grupo 960658" transform="translate(37.772)" opacity="0.4">
          <path id="Trazado_659664" data-name="Trazado 659664" d="M816.163,1391.745a37.035,37.035,0,0,0,6.044-2.592A54.269,54.269,0,0,0,835,1379.09a68.941,68.941,0,0,0,8.9-11.955,65.64,65.64,0,0,0,9.737-36.253l.019-14.9c-.019-7.417-3.822-7.964-7.021-9.361l-30.769-11.049.006,8.509,24.951,9.371c3.435,1.6,5.164,4.288,5.164,7.156v12.656a53.951,53.951,0,0,1-7.941,28.408,48.572,48.572,0,0,1-21.88,19.6Z" transform="translate(-815.863 -1295.575)"/>
        </g>
      </g>
      <path id="Trazado_659665" data-name="Trazado 659665" d="M824.4,1331.45l.034-2.435a7.989,7.989,0,0,0-15.977-.012l-.035,2.481a4.467,4.467,0,0,0-3.811,4.417v14.363a4.471,4.471,0,0,0,4.47,4.47H824a4.471,4.471,0,0,0,4.47-4.47V1335.9A4.47,4.47,0,0,0,824.4,1331.45Zm-5.824,15.237h-3.9l.609-2.817a2.375,2.375,0,1,1,2.577-.045C818.142,1344.918,818.58,1346.687,818.58,1346.687Zm4.1-15.258H810.148l.034-2.414a6.267,6.267,0,0,1,12.534-.012Z" transform="translate(-778.469 -1294.72)" fill="#fff" opacity="0.5"/>
      <g id="Grupo_960660" data-name="Grupo 960660" transform="translate(12.206 20.31)">
        <path id="Trazado_659666" data-name="Trazado 659666" d="M791.859,1331.469a9.765,9.765,0,0,1-.462-2.5,42.955,42.955,0,0,1-.249-6.126c.033-1.2.113-2.338.221-3.371a7.222,7.222,0,0,1,.688-2.724,3.122,3.122,0,0,1,1.347-1.354c.417-.193.678-.185.682-.155a3.478,3.478,0,0,0-1.689,1.681,7.5,7.5,0,0,0-.534,2.6c-.081,1.025-.144,2.154-.178,3.341-.07,2.372,0,4.522.091,6.077A15.139,15.139,0,0,1,791.859,1331.469Z" transform="translate(-791.128 -1315.225)" fill="#fff"/>
      </g>
      <g id="Grupo_960661" data-name="Grupo 960661" transform="translate(13.085 41.087)">
        <path id="Trazado_659667" data-name="Trazado 659667" d="M792.282,1338.648c-.149,0-.283-.739-.3-1.656s.088-1.663.237-1.666.284.738.3,1.656S792.431,1338.645,792.282,1338.648Z" transform="translate(-791.978 -1335.326)" fill="#fff"/>
      </g>
    </g>
    <g id="Grupo_960663" data-name="Grupo 960663" transform="translate(671.372 1415.993)">
      <path id="Trazado_659668" data-name="Trazado 659668" d="M763.991,1410.525l-34.31,84.846H667.816v3.83H852.081l37.691-88.677Z" transform="translate(-667.816 -1410.525)" fill="#263238"/>
      <path id="Trazado_659669" data-name="Trazado 659669" d="M812,1459.3c-1.243,4.27-4.863,6.971-8.086,6.033s-4.827-5.161-3.583-9.431,4.863-6.972,8.086-6.033S813.24,1455.031,812,1459.3Z" transform="translate(-663.378 -1409.209)" fill="#fafafa"/>
    </g>
  </g>
</svg>
