<svg xmlns="http://www.w3.org/2000/svg" xmlns:xlink="http://www.w3.org/1999/xlink" width="107.025" height="122.609" viewBox="0 0 107.025 122.609">
  <defs>
    <linearGradient id="linear-gradient" x1="0.427" y1="1.001" x2="0.539" y2="0.235" gradientUnits="objectBoundingBox">
      <stop offset="0" stop-color="#fff"/>
      <stop offset="1" stop-color="#e4e6eb"/>
    </linearGradient>
    <linearGradient id="linear-gradient-2" x1="0.755" y1="0.01" x2="0.322" y2="0.844" xlink:href="#linear-gradient"/>
    <linearGradient id="linear-gradient-3" x1="134.933" y1="0.765" x2="134.947" y2="0.255" gradientUnits="objectBoundingBox">
      <stop offset="0.016" stop-color="#a4a6b6"/>
      <stop offset="1" stop-color="#e4e6eb"/>
    </linearGradient>
    <linearGradient id="linear-gradient-4" x1="268.431" y1="0.189" x2="268.374" y2="0.696" gradientUnits="objectBoundingBox">
      <stop offset="0" stop-color="#fbfcfc"/>
      <stop offset="1" stop-color="#e4e6eb"/>
    </linearGradient>
    <linearGradient id="linear-gradient-5" x1="309.197" y1="1.018" x2="309.295" y2="0.024" gradientUnits="objectBoundingBox">
      <stop offset="0" stop-color="#ffac06"/>
      <stop offset="1" stop-color="#f25227"/>
    </linearGradient>
    <linearGradient id="linear-gradient-6" x1="7.911" y1="19.625" x2="8.866" y2="19.625" gradientUnits="objectBoundingBox">
      <stop offset="0" stop-color="#ffd9d9"/>
      <stop offset="1" stop-color="#efb4b4"/>
    </linearGradient>
    <linearGradient id="linear-gradient-7" x1="0" y1="0.5" x2="1" y2="0.5" xlink:href="#linear-gradient-6"/>
  </defs>
  <g id="Grupo_949835" data-name="Grupo 949835" transform="translate(-1088.591 -907.991)">
    <g id="Grupo_949836" data-name="Grupo 949836" transform="translate(1098.727 965.838)">
      <path id="Trazado_635192" data-name="Trazado 635192" d="M1155.728,1090.414l-45.712-26.823a3.65,3.65,0,0,1,.043-6.321l39.531-22.48a6.031,6.031,0,0,1,6.033.041l48.156,28.257a2.677,2.677,0,0,1-.031,4.635l-40,22.745A8.021,8.021,0,0,1,1155.728,1090.414Z" transform="translate(-1108.213 -1026.755)" fill="#9ca1b7" opacity="0.4"/>
      <path id="Trazado_635193" data-name="Trazado 635193" d="M1159.711,1075.368v29.925a8.091,8.091,0,0,1-3.971-1.1l-45.717-26.825a3.574,3.574,0,0,1-1.777-2.958h-.01v-1.254Z" transform="translate(-1108.224 -1045.682)" fill="#1d2035"/>
      <path id="Trazado_635194" data-name="Trazado 635194" d="M1253.281,1079.4v1.542h-.04a2.639,2.639,0,0,1-1.31,2.641l-40,22.744a7.982,7.982,0,0,1-4.05,1.042V1077.44Z" transform="translate(-1156.395 -1047.754)" fill="#1d2035"/>
      <path id="Trazado_635195" data-name="Trazado 635195" d="M1159.711,1074.959v29.925a8.084,8.084,0,0,1-3.971-1.1l-45.717-26.825a3.574,3.574,0,0,1-1.777-2.958h-.01v-1.253Z" transform="translate(-1108.224 -1045.484)" fill="#bec2cc"/>
      <path id="Trazado_635196" data-name="Trazado 635196" d="M1253.281,1078.987v1.542h-.04a2.639,2.639,0,0,1-1.31,2.641l-40,22.744a7.972,7.972,0,0,1-4.05,1.042v-29.925Z" transform="translate(-1156.395 -1047.556)" fill="#9ca1b7"/>
      <path id="Trazado_635197" data-name="Trazado 635197" d="M1155.728,1076.385l-45.712-26.823a3.65,3.65,0,0,1,.043-6.321l39.531-22.48a6.03,6.03,0,0,1,6.033.041l48.156,28.257a2.677,2.677,0,0,1-.031,4.635l-40,22.745A8.02,8.02,0,0,1,1155.728,1076.385Z" transform="translate(-1108.213 -1019.973)" fill="url(#linear-gradient)"/>
    </g>
    <g id="Grupo_949893" data-name="Grupo 949893" transform="translate(1088.591 907.991)">
      <g id="Grupo_949838" data-name="Grupo 949838" transform="translate(0 75.619)">
        <path id="Trazado_635198" data-name="Trazado 635198" d="M1137.158,1077.377l-28.636,16.65a2.18,2.18,0,0,1-2.222-.018l-17.029-10.273a.917.917,0,0,1,.013-1.578l28.889-16.8a1.891,1.891,0,0,1,1.926.016l17.073,10.3A.989.989,0,0,1,1137.158,1077.377Z" transform="translate(-1088.705 -1059.562)" fill="#9ca1b7" opacity="0.4"/>
        <g id="Grupo_949837" data-name="Grupo 949837" transform="translate(0 2.211)">
          <path id="Trazado_635199" data-name="Trazado 635199" d="M1137.044,1070.929l-28.636,16.65a2.179,2.179,0,0,1-2.222-.018l-17.029-10.273c-.6-.36-.808-3.1-.205-3.454l29.107-14.921a1.89,1.89,0,0,1,1.926.015l17.263,8.59C1137.89,1067.906,1137.693,1070.551,1137.044,1070.929Z" transform="translate(-1088.591 -1058.656)" fill="#2d2f4f"/>
          <path id="Trazado_635200" data-name="Trazado 635200" d="M1137.044,1070.929l-28.636,16.65a2.179,2.179,0,0,1-2.222-.018l-17.029-10.273c-.6-.36-.808-3.1-.205-3.454l29.107-14.921a1.89,1.89,0,0,1,1.926.015l17.263,8.59C1137.89,1067.906,1137.693,1070.551,1137.044,1070.929Z" transform="translate(-1088.591 -1058.656)" fill="#2d2f4f"/>
        </g>
        <path id="Trazado_635201" data-name="Trazado 635201" d="M1137.044,1070.622l-28.636,16.65a2.181,2.181,0,0,1-2.222-.018l-17.029-10.273c-.6-.36-.808-3.1-.205-3.454l29.107-14.921a1.891,1.891,0,0,1,1.926.015l17.263,8.591C1137.89,1067.6,1137.693,1070.244,1137.044,1070.622Z" transform="translate(-1088.591 -1056.297)" fill="#878aa0"/>
        <path id="Trazado_635202" data-name="Trazado 635202" d="M1137.158,1066.648l-28.636,16.65a2.181,2.181,0,0,1-2.222-.018l-17.029-10.273a.917.917,0,0,1,.013-1.579l28.889-16.8a1.89,1.89,0,0,1,1.926.016l17.073,10.3A.989.989,0,0,1,1137.158,1066.648Z" transform="translate(-1088.705 -1054.376)" fill="url(#linear-gradient-2)"/>
      </g>
      <g id="Grupo_949853" data-name="Grupo 949853" transform="translate(7.932 24.934)">
        <path id="Trazado_635203" data-name="Trazado 635203" d="M1119.488,956.355l-14.724,8.727a1.651,1.651,0,0,0-.82,1.426v22.983a.912.912,0,0,0,1.371.788l14.517-8.607a1.436,1.436,0,0,0,.713-1.241V956.964A.7.7,0,0,0,1119.488,956.355Z" transform="translate(-1103.945 -956.259)" fill="#878aa0"/>
        <path id="Trazado_635204" data-name="Trazado 635204" d="M1120.562,956.9l-14.723,8.728a1.649,1.649,0,0,0-.82,1.426v22.983a.912.912,0,0,0,1.371.788l14.517-8.607a1.434,1.434,0,0,0,.713-1.24V957.5A.7.7,0,0,0,1120.562,956.9Z" transform="translate(-1104.464 -956.52)" fill="#efefef"/>
        <g id="Grupo_949845" data-name="Grupo 949845" transform="translate(9.095 6.447)">
          <g id="Grupo_949844" data-name="Grupo 949844">
            <g id="Grupo_949843" data-name="Grupo 949843" opacity="0.75">
              <g id="Grupo_949839" data-name="Grupo 949839">
                <path id="Trazado_635205" data-name="Trazado 635205" d="M1127.08,968.739v.627l-5.529,3.228v-.627Z" transform="translate(-1121.55 -968.739)" fill="#aaadad"/>
              </g>
              <g id="Grupo_949840" data-name="Grupo 949840" transform="translate(0 1.808)">
                <path id="Trazado_635206" data-name="Trazado 635206" d="M1127.08,972.239v.627l-5.529,3.205v-.627Z" transform="translate(-1121.55 -972.239)" fill="#aaadad"/>
              </g>
              <g id="Grupo_949841" data-name="Grupo 949841" transform="translate(0 3.616)">
                <path id="Trazado_635207" data-name="Trazado 635207" d="M1127.08,975.739v.627l-5.529,3.205v-.627Z" transform="translate(-1121.55 -975.739)" fill="#aaadad"/>
              </g>
              <g id="Grupo_949842" data-name="Grupo 949842" transform="translate(0 5.424)">
                <path id="Trazado_635208" data-name="Trazado 635208" d="M1127.08,979.238v.627l-5.529,3.205v-.627Z" transform="translate(-1121.55 -979.238)" fill="#aaadad"/>
              </g>
            </g>
          </g>
        </g>
        <g id="Grupo_949852" data-name="Grupo 949852" transform="translate(3.586 16.823)">
          <g id="Grupo_949851" data-name="Grupo 949851">
            <g id="Grupo_949850" data-name="Grupo 949850" opacity="0.75">
              <g id="Grupo_949846" data-name="Grupo 949846" transform="translate(1.409)">
                <path id="Trazado_635209" data-name="Trazado 635209" d="M1123.243,988.825v.627l-9.629,5.622v-.627Z" transform="translate(-1113.614 -988.825)" fill="#aaadad"/>
              </g>
              <g id="Grupo_949847" data-name="Grupo 949847" transform="translate(0 1.808)">
                <path id="Trazado_635210" data-name="Trazado 635210" d="M1121.925,992.325v.627l-11.038,6.411v-.627Z" transform="translate(-1110.886 -992.325)" fill="#aaadad"/>
              </g>
              <g id="Grupo_949848" data-name="Grupo 949848" transform="translate(0 3.616)">
                <path id="Trazado_635211" data-name="Trazado 635211" d="M1121.925,995.825v.627l-11.038,6.411v-.627Z" transform="translate(-1110.886 -995.825)" fill="#aaadad"/>
              </g>
              <g id="Grupo_949849" data-name="Grupo 949849" transform="translate(0 5.424)">
                <path id="Trazado_635212" data-name="Trazado 635212" d="M1121.925,999.325v.627l-11.038,6.41v-.627Z" transform="translate(-1110.886 -999.325)" fill="#aaadad"/>
              </g>
            </g>
          </g>
        </g>
        <path id="Trazado_635213" data-name="Trazado 635213" d="M1108.966,978.967v6.028l5.529-3.205v-6.051Z" transform="translate(-1106.372 -965.676)" fill="#aaadad"/>
      </g>
      <g id="Grupo_949861" data-name="Grupo 949861" transform="translate(66.411 17.526)">
        <g id="Grupo_949855" data-name="Grupo 949855">
          <g id="Grupo_949854" data-name="Grupo 949854">
            <path id="Trazado_635214" data-name="Trazado 635214" d="M1217.489,943.707l1.886,44.858a3.785,3.785,0,0,0,1.878,3.272l9.508,6.743,8.544,6.062c1.449.845,4.728-1.635,4.728-3.315V957.263a3.548,3.548,0,0,0-1.764-3.067l-20.826-12.141C1220.526,941.519,1217.489,942.644,1217.489,943.707Z" transform="translate(-1217.314 -941.917)" fill="url(#linear-gradient-3)"/>
            <path id="Trazado_635215" data-name="Trazado 635215" d="M1243.181,974.77v36.387l8.544,6.062c1.45.845,4.728-1.635,4.728-3.315V969.84a3.544,3.544,0,0,0-.555-1.906Z" transform="translate(-1229.734 -954.494)" fill="url(#linear-gradient-4)"/>
            <path id="Trazado_635216" data-name="Trazado 635216" d="M1238.538,1005.357l-19.508-11.371a3.787,3.787,0,0,1-1.879-3.271V945.393a1.375,1.375,0,0,1,2.068-1.188l20.827,12.14a3.551,3.551,0,0,1,1.763,3.068v44.065A2.176,2.176,0,0,1,1238.538,1005.357Z" transform="translate(-1217.151 -942.931)" fill="#83869b"/>
            <path id="Trazado_635217" data-name="Trazado 635217" d="M1240.771,1005.578a.962.962,0,0,0,.959-.959V960.553a2.338,2.338,0,0,0-1.157-2.014l-20.827-12.14a.148.148,0,0,0-.076-.023.161.161,0,0,0-.158.158v45.323a2.576,2.576,0,0,0,1.274,2.218l19.507,11.37a.941.941,0,0,0,.478.133Z" transform="translate(-1218.292 -944.073)" fill="#fff"/>
          </g>
        </g>
        <g id="Grupo_949860" data-name="Grupo 949860" transform="translate(3.764 9.579)">
          <path id="Trazado_635218" data-name="Trazado 635218" d="M1226.895,975.355l27.114,16.306c.775.447,2.045-.619,2.045-1.514V978.823a2.662,2.662,0,0,0-1.333-2.306l-27.6-15.908c-.743-.428-2.246.115-2.246.973l.574,11.265A2.893,2.893,0,0,0,1226.895,975.355Z" transform="translate(-1224.647 -960.459)" fill="#7248a8"/>
          <path id="Trazado_635219" data-name="Trazado 635219" d="M1225.886,976.152l27.416,15.8a1.163,1.163,0,0,0,1.744-1.008V979.621a2.662,2.662,0,0,0-1.333-2.307l-27.6-15.908a1.115,1.115,0,0,0-1.671.966v11.272A2.9,2.9,0,0,0,1225.886,976.152Z" transform="translate(-1224.437 -960.844)" fill="#9b77c6"/>
          <g id="Grupo_949859" data-name="Grupo 949859" transform="translate(1.893 5.563)">
            <g id="Grupo_949856" data-name="Grupo 949856">
              <path id="Trazado_635220" data-name="Trazado 635220" d="M1228.1,973.873a8.052,8.052,0,0,0,1.285,3.988q.191.316.406.622a10.334,10.334,0,0,0,2.662,2.66c.07.046.14.091.211.135.035.022.071.044.105.065l.106.063.21.117a3.917,3.917,0,0,0,2.662.532,2.155,2.155,0,0,0,.407-.136,2.461,2.461,0,0,0,1.285-2.445c0-2.578-2.091-5.923-4.67-7.47S1228.1,971.294,1228.1,973.873Z" transform="translate(-1228.101 -971.227)" fill="#fff"/>
              <path id="Trazado_635221" data-name="Trazado 635221" d="M1231.6,980.238c0,.03,0,.06,0,.091.108.178.222.353.343.525a8.741,8.741,0,0,0,2.249,2.247l.178.115.089.054.089.053.178.1a3.307,3.307,0,0,0,2.249.45,1.835,1.835,0,0,0,.344-.115c0-.029,0-.059,0-.088a5.973,5.973,0,0,0-2.152-4.063c.382-.008.638-.277.638-.761a2.874,2.874,0,0,0-1.347-2.154c-.743-.446-1.347-.2-1.347.539a2.6,2.6,0,0,0,.639,1.526C1232.517,978.33,1231.6,978.9,1231.6,980.238Z" transform="translate(-1229.793 -973.76)" fill="#9b77c6"/>
            </g>
            <g id="Grupo_949858" data-name="Grupo 949858" transform="translate(11.174 6.558)">
              <g id="Grupo_949857" data-name="Grupo 949857">
                <path id="Trazado_635222" data-name="Trazado 635222" d="M1250.68,985.22l-.526-.3a.879.879,0,0,1-.422-.666v-.083c0-.232.19-.313.422-.178l.526.3a.88.88,0,0,1,.422.666v.083C1251.1,985.273,1250.912,985.354,1250.68,985.22Z" transform="translate(-1249.732 -983.923)" fill="#fff"/>
                <path id="Trazado_635223" data-name="Trazado 635223" d="M1266.854,994.566l-12.779-7.384a.878.878,0,0,1-.422-.666v-.083c0-.232.19-.312.422-.178l12.779,7.384a.879.879,0,0,1,.422.666v.083C1267.277,994.62,1267.087,994.7,1266.854,994.566Z" transform="translate(-1251.628 -985.019)" fill="#fff"/>
                <path id="Trazado_635224" data-name="Trazado 635224" d="M1250.68,989.459l-.526-.3a.879.879,0,0,1-.422-.666v-.083c0-.232.19-.312.422-.178l.526.3a.88.88,0,0,1,.422.666v.083C1251.1,989.513,1250.912,989.593,1250.68,989.459Z" transform="translate(-1249.732 -985.973)" fill="#fff"/>
                <path id="Trazado_635225" data-name="Trazado 635225" d="M1266.854,998.805l-12.779-7.384a.879.879,0,0,1-.422-.666v-.083c0-.232.19-.313.422-.178l12.779,7.384a.879.879,0,0,1,.422.666v.083C1267.277,998.859,1267.087,998.939,1266.854,998.805Z" transform="translate(-1251.628 -987.068)" fill="#fff"/>
                <path id="Trazado_635226" data-name="Trazado 635226" d="M1250.68,993.7l-.526-.3a.879.879,0,0,1-.422-.666v-.083c0-.232.19-.312.422-.178l.526.3a.879.879,0,0,1,.422.666v.083C1251.1,993.752,1250.912,993.833,1250.68,993.7Z" transform="translate(-1249.732 -988.022)" fill="#fff"/>
                <path id="Trazado_635227" data-name="Trazado 635227" d="M1266.854,1003.044l-12.779-7.384a.879.879,0,0,1-.422-.666v-.083c0-.232.19-.312.422-.178l12.779,7.384a.879.879,0,0,1,.422.666v.083C1267.277,1003.1,1267.087,1003.179,1266.854,1003.044Z" transform="translate(-1251.628 -989.117)" fill="#fff"/>
              </g>
            </g>
          </g>
        </g>
      </g>
      <g id="Grupo_949862" data-name="Grupo 949862" transform="translate(68.228 48.932)">
        <path id="Trazado_635228" data-name="Trazado 635228" d="M1238.364,1010.5c-.036-.061-.072-.124-.108-.185a18.26,18.26,0,0,0-6.016-6.237c-2.729-1.635-5.146-1.749-6.635-.59l-2.042,1.389.973-.021a5.929,5.929,0,0,0-.491,2.5,14.11,14.11,0,0,0,2.257,7c.223.369.46.735.71,1.091a19.033,19.033,0,0,0,3.077,3.446,15.423,15.423,0,0,0,1.6,1.224c.124.081.246.16.369.239l.185.113c.063.036.126.074.188.11.124.07.245.138.37.206a8.2,8.2,0,0,0,3.33,1.035c.145.009.287.011.424.009a4.45,4.45,0,0,0,.917-.11,3.769,3.769,0,0,0,.713-.239c1.4-.629,2.257-2.1,2.257-4.291A13.882,13.882,0,0,0,1238.364,1010.5Z" transform="translate(-1222.067 -1002.714)" fill="#878aa0"/>
        <path id="Trazado_635229" data-name="Trazado 635229" d="M1251.641,1024.469c0,2.187-.58,3.768-1.977,4.4-.226.1-1.37.8-1.62.855-.291.068.031-.619-.29-.613-.137,0-.279,0-.424-.009l-.6-.669.746-9.5,2.085-1.152A13.882,13.882,0,0,1,1251.641,1024.469Z" transform="translate(-1233.269 -1009.996)" fill="#4f318c"/>
        <path id="Trazado_635230" data-name="Trazado 635230" d="M1237.062,1019.775c0,2.187-.859,3.661-2.257,4.291a3.7,3.7,0,0,1-.713.239,4.449,4.449,0,0,1-.917.11,7.773,7.773,0,0,1-3.754-1.044c-.124-.068-.246-.135-.37-.205-.061-.036-.124-.074-.187-.111s-.125-.074-.185-.113c-.124-.079-.246-.158-.37-.239a15.348,15.348,0,0,1-1.6-1.224,18.992,18.992,0,0,1-3.078-3.446c-.251-.356-.487-.721-.71-1.091a14.109,14.109,0,0,1-2.257-7c0-4.528,3.67-6,8.2-3.283a18.254,18.254,0,0,1,6.016,6.237A14.038,14.038,0,0,1,1237.062,1019.775Z" transform="translate(-1220.668 -1003.964)" fill="#daeae9"/>
        <path id="Trazado_635231" data-name="Trazado 635231" d="M1244.732,1026.885c0,2.187-.859,3.661-2.257,4.291a3.7,3.7,0,0,1-.713.239,4.45,4.45,0,0,1-.917.11l-4.311-9.251,6.016-2.266A14.038,14.038,0,0,1,1244.732,1026.885Z" transform="translate(-1228.338 -1011.074)" fill="#9b77c6"/>
        <path id="Trazado_635232" data-name="Trazado 635232" d="M1238.832,1033.645a7.774,7.774,0,0,1-3.754-1.044c-.124-.068-.246-.135-.37-.2-.061-.036-.124-.074-.187-.111s-.125-.074-.185-.113c-.124-.079-.246-.158-.37-.239a15.335,15.335,0,0,1-1.6-1.224l2.151-6.316Z" transform="translate(-1226.325 -1013.195)" fill="url(#linear-gradient-5)"/>
      </g>
      <g id="Grupo_949865" data-name="Grupo 949865" transform="translate(54.563 13.896)">
        <g id="Grupo_949864" data-name="Grupo 949864">
          <g id="Grupo_949863" data-name="Grupo 949863">
            <path id="Trazado_635233" data-name="Trazado 635233" d="M1197.075,935l10.766,6.439a2.066,2.066,0,0,1,1.026,1.786V955.2c0,.882-1.559,2.267-2.321,1.824l-9.9-7.124a1.8,1.8,0,0,1-.893-1.554l-.945-12.459C1194.805,935.2,1196.488,934.654,1197.075,935Z" transform="translate(-1194.5 -934.891)" fill="#663ea0"/>
            <path id="Trazado_635234" data-name="Trazado 635234" d="M1195.54,936.3l10.765,6.439a2.065,2.065,0,0,1,1.026,1.786v11.977a1.142,1.142,0,0,1-1.717.987l-10.507-6.288a1.8,1.8,0,0,1-.893-1.554V937.066A.882.882,0,0,1,1195.54,936.3Z" transform="translate(-1194.215 -935.516)" fill="#9b77c6"/>
          </g>
        </g>
        <path id="Trazado_635235" data-name="Trazado 635235" d="M1197.517,951.031a8.452,8.452,0,0,1,2.179,2.978,18.829,18.829,0,0,1,.925,3.18,14.533,14.533,0,0,1,3.9-1.915c2.085-.6,2.608-.395,2.608-.395l.09-3.288a9.306,9.306,0,0,0-3.417.988,22.893,22.893,0,0,0-2.339,1.473,6.667,6.667,0,0,0-.655-2.461c-.571-1.008-.9-1.509-.9-1.509Z" transform="translate(-1195.811 -942.235)" fill="#fff"/>
      </g>
      <g id="Grupo_949868" data-name="Grupo 949868" transform="translate(35.955 23.402)">
        <path id="Trazado_635236" data-name="Trazado 635236" d="M1183.929,967.669v39.514c0,.378-.792,1.015-1.117.835l-22.676-13.387a2.648,2.648,0,0,1-1.01-1.729l-.68-39.121c0-.432.909-.61,1.285-.4l23.417,12.95A2.051,2.051,0,0,1,1183.929,967.669Z" transform="translate(-1158.315 -953.292)" fill="#878aa0"/>
        <path id="Trazado_635237" data-name="Trazado 635237" d="M1183,968.506v39.514c0,.378-.2.5-.528.316L1159.2,995.468a2.651,2.651,0,0,1-1.01-1.729V954.581c0-.432.229-.573.6-.363l23.417,12.95A2.053,2.053,0,0,1,1183,968.506Z" transform="translate(-1158.192 -953.693)" fill="#f2f2f2"/>
        <path id="Trazado_635238" data-name="Trazado 635238" d="M1183,968.506v1.5l-24.8-13.814v-1.611c0-.432.229-.573.6-.363l23.417,12.95A2.053,2.053,0,0,1,1183,968.506Z" transform="translate(-1158.192 -953.693)" fill="#9b77c6"/>
        <g id="Grupo_949866" data-name="Grupo 949866" transform="translate(11.377 13.493)">
          <path id="Trazado_635239" data-name="Trazado 635239" d="M1191.569,986.213l-10.91-5.852a.878.878,0,0,1-.444-.682h0c0-.244.2-.337.444-.206l10.91,5.852a.879.879,0,0,1,.444.682h0C1192.013,986.251,1191.813,986.344,1191.569,986.213Z" transform="translate(-1180.215 -979.413)" fill="#cbd3cf"/>
          <path id="Trazado_635240" data-name="Trazado 635240" d="M1191.569,990.511l-10.91-5.852a.878.878,0,0,1-.444-.682h0c0-.244.2-.337.444-.206l10.91,5.852a.878.878,0,0,1,.444.682h0C1192.013,990.549,1191.813,990.641,1191.569,990.511Z" transform="translate(-1180.215 -981.491)" fill="#cbd3cf"/>
          <path id="Trazado_635241" data-name="Trazado 635241" d="M1191.569,994.808l-10.91-5.852a.879.879,0,0,1-.444-.682h0c0-.244.2-.337.444-.206l10.91,5.852a.879.879,0,0,1,.444.682h0C1192.013,994.847,1191.813,994.939,1191.569,994.808Z" transform="translate(-1180.215 -983.568)" fill="#cbd3cf"/>
          <path id="Trazado_635242" data-name="Trazado 635242" d="M1191.569,999.106l-10.91-5.852a.878.878,0,0,1-.444-.682h0c0-.244.2-.337.444-.206l10.91,5.852a.879.879,0,0,1,.444.682h0C1192.013,999.145,1191.813,999.237,1191.569,999.106Z" transform="translate(-1180.215 -985.646)" fill="#cbd3cf"/>
        </g>
        <g id="Grupo_949867" data-name="Grupo 949867" transform="translate(2.462 30.729)">
          <path id="Trazado_635243" data-name="Trazado 635243" d="M1174.311,1019.578l-10.91-5.852a.877.877,0,0,1-.444-.682h0c0-.244.2-.337.444-.206l10.91,5.852a.879.879,0,0,1,.444.682h0C1174.755,1019.617,1174.555,1019.709,1174.311,1019.578Z" transform="translate(-1162.957 -1012.778)" fill="#9b77c6"/>
          <path id="Trazado_635244" data-name="Trazado 635244" d="M1182.678,1028.43l-19.277-10.406a.877.877,0,0,1-.444-.682h0c0-.244.2-.337.444-.206l19.277,10.406a.877.877,0,0,1,.444.682h0C1183.122,1028.468,1182.922,1028.56,1182.678,1028.43Z" transform="translate(-1162.957 -1014.856)" fill="#cbd3cf"/>
          <path id="Trazado_635245" data-name="Trazado 635245" d="M1182.678,1032.727l-19.277-10.406a.879.879,0,0,1-.444-.682h0c0-.244.2-.337.444-.206l19.277,10.406a.878.878,0,0,1,.444.682h0C1183.122,1032.766,1182.922,1032.858,1182.678,1032.727Z" transform="translate(-1162.957 -1016.933)" fill="#cbd3cf"/>
          <path id="Trazado_635246" data-name="Trazado 635246" d="M1182.678,1037.025l-19.277-10.406a.877.877,0,0,1-.444-.682h0c0-.244.2-.337.444-.206l19.277,10.406a.878.878,0,0,1,.444.682h0C1183.122,1037.063,1182.922,1037.156,1182.678,1037.025Z" transform="translate(-1162.957 -1019.011)" fill="#cbd3cf"/>
        </g>
      </g>
      <g id="Grupo_949873" data-name="Grupo 949873" transform="translate(35.055 37.833)">
        <path id="Trazado_635247" data-name="Trazado 635247" d="M1159,984.242l2.4,7.132,6.958-5.981,2.223,6.977" transform="translate(-1157.685 -982.685)" fill="none" stroke="#525575" stroke-miterlimit="10" stroke-width="3"/>
        <g id="Grupo_949869" data-name="Grupo 949869">
          <path id="Trazado_635248" data-name="Trazado 635248" d="M1158.8,982.261l-.014-.025a2.427,2.427,0,0,0-.8-.828.786.786,0,0,0-.881-.078l-.271.184.129,0a.784.784,0,0,0-.065.333,1.873,1.873,0,0,0,.3.929c.029.049.061.1.094.145a2.524,2.524,0,0,0,.409.457,2.026,2.026,0,0,0,.212.163l.049.031.025.015.025.015.049.027a1.092,1.092,0,0,0,.442.137h.056c.042,0,0,.09.038.081s.185-.1.215-.114c.185-.083.262-.293.262-.584A1.843,1.843,0,0,0,1158.8,982.261Z" transform="translate(-1156.636 -981.228)" fill="#c2c4c6"/>
          <path id="Trazado_635249" data-name="Trazado 635249" d="M1158.338,982.58a2.423,2.423,0,0,0-.8-.828c-.6-.36-1.088-.165-1.088.436a1.875,1.875,0,0,0,.3.929c.029.049.061.1.094.145a2.527,2.527,0,0,0,.409.458,2.022,2.022,0,0,0,.212.163l.049.032.024.015.025.015.049.027a1.034,1.034,0,0,0,.5.139.576.576,0,0,0,.122-.015.457.457,0,0,0,.094-.031.574.574,0,0,0,.3-.57A1.867,1.867,0,0,0,1158.338,982.58Z" transform="translate(-1156.45 -981.394)" fill="#e2e2e2"/>
        </g>
        <g id="Grupo_949870" data-name="Grupo 949870" transform="translate(11.681 8.689)">
          <path id="Trazado_635250" data-name="Trazado 635250" d="M1181.414,999.082l-.015-.025a2.429,2.429,0,0,0-.8-.828.784.784,0,0,0-.881-.078l-.271.184.129,0a.782.782,0,0,0-.065.333,1.873,1.873,0,0,0,.3.929c.029.049.061.1.094.145a2.524,2.524,0,0,0,.409.457,2.018,2.018,0,0,0,.212.163l.049.032.025.015.025.014.049.027a1.092,1.092,0,0,0,.442.137h.056c.042,0,0,.09.038.082s.185-.1.215-.114c.185-.084.262-.294.262-.584A1.844,1.844,0,0,0,1181.414,999.082Z" transform="translate(-1179.249 -998.049)" fill="#663ea0"/>
          <path id="Trazado_635251" data-name="Trazado 635251" d="M1180.951,999.4a2.424,2.424,0,0,0-.8-.828c-.6-.36-1.088-.165-1.088.436a1.875,1.875,0,0,0,.3.929c.029.049.061.1.094.145a2.525,2.525,0,0,0,.409.458,2.022,2.022,0,0,0,.212.163l.049.031.024.015.025.015.049.027a1.035,1.035,0,0,0,.5.139.566.566,0,0,0,.122-.015.471.471,0,0,0,.095-.031.574.574,0,0,0,.3-.57A1.868,1.868,0,0,0,1180.951,999.4Z" transform="translate(-1179.063 -998.215)" fill="#9b77c6"/>
        </g>
        <g id="Grupo_949871" data-name="Grupo 949871" transform="translate(2.03 6.654)">
          <path id="Trazado_635252" data-name="Trazado 635252" d="M1164.029,995.715l-.022-.038a3.766,3.766,0,0,0-1.241-1.286,1.217,1.217,0,0,0-1.369-.122l-.422.286.2,0a1.22,1.22,0,0,0-.1.517,2.912,2.912,0,0,0,.465,1.444c.046.076.1.151.146.225a3.952,3.952,0,0,0,.635.71,3.193,3.193,0,0,0,.329.253l.076.049.038.023.039.023.076.042a1.692,1.692,0,0,0,.687.214c.03,0,.059,0,.087,0,.066,0,0,.141.06.127s.288-.156.334-.177c.288-.13.408-.456.408-.906A2.862,2.862,0,0,0,1164.029,995.715Z" transform="translate(-1160.668 -994.109)" fill="#663ea0"/>
          <path id="Trazado_635253" data-name="Trazado 635253" d="M1163.311,996.21a3.77,3.77,0,0,0-1.241-1.287c-.934-.559-1.691-.257-1.691.677a2.911,2.911,0,0,0,.465,1.444c.046.076.095.151.147.225a3.914,3.914,0,0,0,.635.711,3.2,3.2,0,0,0,.329.253l.076.049.038.023.038.023.077.042a1.6,1.6,0,0,0,.774.215.934.934,0,0,0,.189-.023.778.778,0,0,0,.147-.049.891.891,0,0,0,.465-.885A2.892,2.892,0,0,0,1163.311,996.21Z" transform="translate(-1160.379 -994.367)" fill="#9b77c6"/>
        </g>
        <g id="Grupo_949872" data-name="Grupo 949872" transform="translate(8.565 0.378)">
          <path id="Trazado_635254" data-name="Trazado 635254" d="M1176.911,983.665l-.024-.04a4,4,0,0,0-1.319-1.367,1.3,1.3,0,0,0-1.455-.13l-.448.3.214,0a1.3,1.3,0,0,0-.108.549,3.1,3.1,0,0,0,.495,1.534c.049.081.1.161.156.24a4.178,4.178,0,0,0,.675.755,3.407,3.407,0,0,0,.35.268l.081.053.041.025.041.024.081.045a1.8,1.8,0,0,0,.73.227c.031,0,.063,0,.093,0,.07,0,0,.149.063.134s.305-.165.355-.187c.306-.138.433-.485.433-.964A3.045,3.045,0,0,0,1176.911,983.665Z" transform="translate(-1173.338 -981.959)" fill="#c2c4c6"/>
          <path id="Trazado_635255" data-name="Trazado 635255" d="M1176.147,984.192a4.006,4.006,0,0,0-1.319-1.367c-.992-.595-1.8-.273-1.8.72a3.1,3.1,0,0,0,.495,1.535c.049.081.1.161.156.239a4.155,4.155,0,0,0,.675.755,3.331,3.331,0,0,0,.35.269l.081.052.04.025.041.024.081.045a1.7,1.7,0,0,0,.823.229.972.972,0,0,0,.2-.024.823.823,0,0,0,.156-.052.947.947,0,0,0,.495-.941A3.08,3.08,0,0,0,1176.147,984.192Z" transform="translate(-1173.031 -982.233)" fill="#e2e2e2"/>
        </g>
      </g>
      <g id="Grupo_949874" data-name="Grupo 949874" transform="translate(55.81 85.852)">
        <path id="Trazado_635256" data-name="Trazado 635256" d="M1225.1,1088.679c0,3.5-4.2,6.458-9.977,7.452v-3.457a24.7,24.7,0,0,1-4.262.361,20.531,20.531,0,0,1-10.85-2.753v3.448a6.728,6.728,0,0,1-3.331-4.4h-.053v-4.1h1.465c2.325-2.583,7.167-4.36,12.77-4.36,4.984,0,9.371,1.408,11.914,3.536a8.46,8.46,0,0,1,.859.824h1.412v2.8A4.6,4.6,0,0,1,1225.1,1088.679Z" transform="translate(-1196.629 -1077.415)" fill="#5a3299"/>
        <path id="Trazado_635257" data-name="Trazado 635257" d="M1225.1,1082a4.183,4.183,0,0,1-.053.664c-.023.147-.054.289-.089.437-.753,2.935-4.485,5.349-9.473,6.285a24.785,24.785,0,0,1-4.623.423,20.531,20.531,0,0,1-10.85-2.753c-2.111-1.363-3.385-3.127-3.385-5.055,0-4.316,6.374-7.812,14.235-7.812S1225.1,1077.681,1225.1,1082Z" transform="translate(-1196.629 -1074.185)" fill="#9b77c6"/>
        <path id="Trazado_635258" data-name="Trazado 635258" d="M1218.655,1096.693c-.12.022-.241.044-.361.062a24.7,24.7,0,0,1-4.262.361,20.531,20.531,0,0,1-10.85-2.753l10.85-5.055Z" transform="translate(-1199.796 -1081.496)" fill="#f35626"/>
        <path id="Trazado_635259" data-name="Trazado 635259" d="M1242.413,1093.381c0,3.5-4.2,6.458-9.977,7.452.147-1.862.361-3.518.361-3.518,4.989-.936,8.721-3.35,9.474-6.285.036-.147.067-.29.089-.437v2.133A4.6,4.6,0,0,1,1242.413,1093.381Z" transform="translate(-1213.939 -1082.117)" fill="#d3c9d3"/>
        <path id="Trazado_635260" data-name="Trazado 635260" d="M1238.282,1090.408c-.753,2.935-4.485,5.349-9.474,6.285l-4.623-7.385Z" transform="translate(-1209.95 -1081.496)" fill="#fffcff"/>
        <path id="Trazado_635261" data-name="Trazado 635261" d="M1218.655,1101.424l-.361,3.518a25.217,25.217,0,0,1-4.262.356,20.48,20.48,0,0,1-10.85-2.757v-3.448a20.531,20.531,0,0,0,10.85,2.753A28.982,28.982,0,0,0,1218.655,1101.424Z" transform="translate(-1199.796 -1086.227)" fill="#b73718"/>
      </g>
      <g id="Grupo_949882" data-name="Grupo 949882" transform="translate(34.29)">
        <path id="Trazado_635262" data-name="Trazado 635262" d="M1156.975,908.038l13.062,7.081a1.379,1.379,0,0,1,.727,1.228v16.3c0,.625-1.375,1.485-1.915,1.2l-12.18-7.42a1.2,1.2,0,0,1-.633-1.068l-.975-16.458C1155.062,908.421,1156.559,907.816,1156.975,908.038Z" transform="translate(-1155.014 -907.991)" fill="#878aa0"/>
        <path id="Trazado_635263" data-name="Trazado 635263" d="M1155.908,909.025l13.062,7.081a1.379,1.379,0,0,1,.727,1.228v16.3a.847.847,0,0,1-1.216.761l-12.878-6.984a1.2,1.2,0,0,1-.633-1.068V909.612A.653.653,0,0,1,1155.908,909.025Z" transform="translate(-1154.969 -908.456)" fill="#efefef"/>
        <g id="Grupo_949881" data-name="Grupo 949881" transform="translate(3.275 6.623)">
          <g id="Grupo_949880" data-name="Grupo 949880">
            <g id="Grupo_949879" data-name="Grupo 949879" opacity="0.75">
              <g id="Grupo_949875" data-name="Grupo 949875">
                <path id="Trazado_635264" data-name="Trazado 635264" d="M1161.309,920.812v.927l8.178,4.36v-.927Z" transform="translate(-1161.309 -920.812)" fill="#aaadad"/>
              </g>
              <g id="Grupo_949876" data-name="Grupo 949876" transform="translate(0 2.674)">
                <path id="Trazado_635265" data-name="Trazado 635265" d="M1161.309,925.989v.927l8.178,4.326v-.927Z" transform="translate(-1161.309 -925.989)" fill="#aaadad"/>
              </g>
              <g id="Grupo_949877" data-name="Grupo 949877" transform="translate(0 5.348)">
                <path id="Trazado_635266" data-name="Trazado 635266" d="M1161.309,931.165v.927l8.178,4.326v-.927Z" transform="translate(-1161.309 -931.165)" fill="#aaadad"/>
              </g>
              <g id="Grupo_949878" data-name="Grupo 949878" transform="translate(0 8.022)">
                <path id="Trazado_635267" data-name="Trazado 635267" d="M1161.309,936.341v.927l8.178,4.326v-.927Z" transform="translate(-1161.309 -936.341)" fill="#aaadad"/>
              </g>
            </g>
          </g>
        </g>
      </g>
      <g id="Grupo_949886" data-name="Grupo 949886" transform="translate(31.739 30.054)">
        <g id="Grupo_949883" data-name="Grupo 949883" transform="translate(17.831 27.684)">
          <path id="Trazado_635268" data-name="Trazado 635268" d="M1192.511,1023.825l7.8,12.473s.253,1.412-1.7,2.759a3.791,3.791,0,0,1-3.583.6l-8.8-13.107Z" transform="translate(-1185.363 -1021.725)" fill="#6a6e89"/>
          <ellipse id="Elipse_5446" data-name="Elipse 5446" cx="3.463" cy="2.094" rx="3.463" ry="2.094" transform="matrix(0.858, -0.514, 0.514, 0.858, 0, 3.557)" fill="#525575"/>
        </g>
        <path id="Trazado_635269" data-name="Trazado 635269" d="M1183.712,1011.662l4.313,6.856s.134.744-.9,1.453a2,2,0,0,1-1.887.316l-4.838-7.189Z" transform="translate(-1164.714 -988.162)" fill="#6a6e89"/>
        <g id="Grupo_949885" data-name="Grupo 949885">
          <path id="Trazado_635270" data-name="Trazado 635270" d="M1150.031,974.274c-.018,6.166,4.318,13.68,9.687,16.779,3.156,1.821,5.964,1.71,7.747.057a1181.937,1181.937,0,0,1,1-.81c1.548-1.086,2.494-3.157,2.5-6.02.018-6.169-4.319-13.68-9.685-16.778-3.157-1.823-5.967-1.712-7.749-.058a4.708,4.708,0,0,0-.5.4,4.838,4.838,0,0,0-.5.4C1150.984,969.34,1150.039,971.41,1150.031,974.274Zm16.988,14.985c-1.529.729-3.564.539-5.8-.75-4.73-2.731-8.551-9.35-8.535-14.782a7.122,7.122,0,0,1,1.291-4.432c1.529-.729,3.565-.539,5.8.751,4.727,2.73,8.548,9.346,8.532,14.781A7.114,7.114,0,0,1,1167.019,989.259Z" transform="translate(-1150.031 -966.17)" fill="#525575"/>
          <g id="Grupo_949884" data-name="Grupo 949884" transform="translate(0 1.215)">
            <path id="Trazado_635271" data-name="Trazado 635271" d="M1150.031,975.411c-.018,6.166,4.319,13.68,9.687,16.779s9.731.609,9.749-5.558a19.171,19.171,0,0,0-2.353-8.682c-.012-.025-.025-.049-.038-.074a23.336,23.336,0,0,0-2.376-3.641,17.871,17.871,0,0,0-4.919-4.382C1154.413,966.755,1150.048,969.242,1150.031,975.411Zm1.157.667c.006-2.624.907-4.492,2.368-5.414,1.565-.99,3.775-.895,6.222.518,4.727,2.73,8.548,9.347,8.533,14.781a6.73,6.73,0,0,1-1.62,4.806c-1.561,1.591-4.1,1.745-6.969.09C1154.992,988.13,1151.173,981.511,1151.188,976.078Z" transform="translate(-1150.031 -968.521)" fill="#c2c4c6"/>
          </g>
        </g>
        <path id="Trazado_635272" data-name="Trazado 635272" d="M1153.721,976.864c-.016,5.431,3.806,12.051,8.535,14.781,2.444,1.412,4.653,1.507,6.219.517a6.729,6.729,0,0,0,1.62-4.806c.016-5.434-3.806-12.052-8.533-14.781-2.447-1.413-4.657-1.508-6.222-.518A6.732,6.732,0,0,0,1153.721,976.864Z" transform="translate(-1151.815 -968.698)" fill="#fff" opacity="0.2"/>
      </g>
      <g id="Grupo_949888" data-name="Grupo 949888" transform="translate(9.416 53.776)">
        <g id="Grupo_949887" data-name="Grupo 949887">
          <path id="Trazado_635273" data-name="Trazado 635273" d="M1111.838,1084.667a8.179,8.179,0,0,0-.124,1.366,3.045,3.045,0,0,0,1.661.689,14.711,14.711,0,0,0,2.6-2.978.744.744,0,0,0-1.066-.548,4.065,4.065,0,0,1-1,.25Z" transform="translate(-1109.178 -1046.435)" fill="#20233a"/>
          <path id="Trazado_635274" data-name="Trazado 635274" d="M1121.021,1088.866a4.188,4.188,0,0,0-.189,1.312,2.655,2.655,0,0,0,1.213.706,29.152,29.152,0,0,0,3.3-1.892c.1-.2-.605-.984-1.286-.706a7.113,7.113,0,0,1-1.866.328Z" transform="translate(-1113.582 -1048.896)" fill="#2d2f4f"/>
          <path id="Trazado_635275" data-name="Trazado 635275" d="M1110.537,1052.781a6.731,6.731,0,0,0,0,3.3,5.414,5.414,0,0,1,.451,1.667l.6,4.7a11.706,11.706,0,0,0-.634,4.318,16.169,16.169,0,0,1,0,2.993,1.709,1.709,0,0,0,1.318.641c1.026.128,1.22-.427,1.22-.427a17.991,17.991,0,0,1,.661-5.686c.813-2.137,1.454-10.644,1.454-10.644Z" transform="translate(-1108.51 -1031.761)" fill="#2d2f4f"/>
          <path id="Trazado_635276" data-name="Trazado 635276" d="M1115.308,1055.3a3,3,0,0,0,.379,2.578,5.75,5.75,0,0,0,2.264,2.024l.259,4.282a29.173,29.173,0,0,0-.259,4.281c.059,2.058.259,3.651.259,3.651s.133.5.9.564a1.171,1.171,0,0,0,1.029-.266s.4-4.779.9-6.937-.415-11.505-.415-11.505A8.067,8.067,0,0,1,1115.308,1055.3Z" transform="translate(-1110.856 -1032.337)" fill="#444866"/>
          <path id="Trazado_635277" data-name="Trazado 635277" d="M1119.172,1013.275a17.2,17.2,0,0,1,.147,2.031.563.563,0,0,1-.191.345,1.993,1.993,0,0,1,.181,1.082,8.149,8.149,0,0,1-.735,2.106,3.322,3.322,0,0,1-1.218.218l-.089,1.02-2.745-1.267s.209-2.187.195-2.237,2.053-4.134,2.053-4.134Z" transform="translate(-1110.542 -1012.258)" fill="url(#linear-gradient-6)"/>
          <path id="Trazado_635278" data-name="Trazado 635278" d="M1107.886,1025.507s-.822.606-1,2.911-.025,6.008.5,6.346,3.774.125,3.774.125Z" transform="translate(-1106.818 -1018.576)" fill="#7c5aa8"/>
          <path id="Trazado_635279" data-name="Trazado 635279" d="M1116.252,1027.736a17.879,17.879,0,0,1-1.732-1.33,2.755,2.755,0,0,1-.163-1.14,20.771,20.771,0,0,0-2.959-1.169,2.42,2.42,0,0,0-.91.488s-2.081-.55-2.276.928,1.04,6.566,1.365,8.445a21.774,21.774,0,0,1-.288,5.429s.646,1.846,3.735,1.846,4.292-1.4,4.292-1.4-.24-11.031-.436-11.453A1.545,1.545,0,0,0,1116.252,1027.736Z" transform="translate(-1107.482 -1017.895)" fill="#efefef"/>
          <path id="Trazado_635280" data-name="Trazado 635280" d="M1120.137,1031.548c-.78,1.222-.165,2.513.843,4.03s2.494,3.567,3.112,3.7,5.654-.157,5.654-.157a2.673,2.673,0,0,0,.161-1.411l-.169-.58s-4.507-.172-4.735-.345-1.684-4.734-2.993-5.385S1120.137,1031.548,1120.137,1031.548Z" transform="translate(-1113.086 -1021.3)" fill="#7c5aa8"/>
          <path id="Trazado_635281" data-name="Trazado 635281" d="M1119.334,1013.123c-.771.77-1.464,1.072-1.49,1.812s.1,1.258-.121,1.376-.011-.512-.58-.542-.32.924-.224,1.2-.373.424-1.474.5-1.3-.456-1.428-.772a4.815,4.815,0,0,1-.4-2.376c.215-.724.609-.875.609-.875a1.316,1.316,0,0,1,1.393-1.349c1.452-.064,2.587.454,3.231.281S1119.334,1013.123,1119.334,1013.123Z" transform="translate(-1110.077 -1012.09)" fill="#2d2f4f"/>
          <path id="Trazado_635282" data-name="Trazado 635282" d="M1139.226,1042.425a6.72,6.72,0,0,1,1.382-.806c.413-.1,1.106-.211,1.106-.211s.113.29-.319.408.319.4,1.389.1-.056.864-.825,1.3a9.99,9.99,0,0,1-2.748.641S1139.5,1042.767,1139.226,1042.425Z" transform="translate(-1122.477 -1026.263)" fill="url(#linear-gradient-7)"/>
        </g>
      </g>
      <g id="Grupo_949892" data-name="Grupo 949892" transform="translate(19.882 48.645)">
        <path id="Trazado_635283" data-name="Trazado 635283" d="M1131.11,1016.905a3.389,3.389,0,0,0-1.058-1.658,4.854,4.854,0,0,0-.951-.5s-.26.224.172.436.388.315.388.315a2.841,2.841,0,0,1-1.21-.085,12.251,12.251,0,0,0-1.265-.374c-.18.008-.235.635.668,1.288s2.63,1.768,2.63,1.768A1.594,1.594,0,0,1,1131.11,1016.905Z" transform="translate(-1127.079 -1008.245)" fill="#ffbdbd"/>
        <path id="Trazado_635284" data-name="Trazado 635284" d="M1152.392,1075.766a25.947,25.947,0,0,1-1.8,2.013c-.418.331-1.013.478-.519.769s.654.645,1.458.32a8.655,8.655,0,0,0,3.035-2.084.939.939,0,0,0-.17-1.107Z" transform="translate(-1138.107 -1037.699)" fill="#404363"/>
        <path id="Trazado_635285" data-name="Trazado 635285" d="M1144.551,1071.286a24.536,24.536,0,0,0-2.318,2.294c-.015.217.636,1.126,1.817.472a12.91,12.91,0,0,0,2.928-1.959c.13-.319-.209-.906-.209-.906Z" transform="translate(-1134.405 -1035.528)" fill="#404363"/>
        <path id="Trazado_635286" data-name="Trazado 635286" d="M1145.522,1037.057s-1.139,8.565-.658,9.82a28.294,28.294,0,0,1,.784,5.4c.128,1.271.118,2.642.118,2.642s-.182.669.9.621a1.747,1.747,0,0,0,1.478-.775,24.521,24.521,0,0,0,.491-4.89,12.574,12.574,0,0,0-.765-3.374l1.875-7.782Z" transform="translate(-1135.619 -1019.029)" fill="#1d2035"/>
        <path id="Trazado_635287" data-name="Trazado 635287" d="M1151.826,1042.69l.4,8.921a24.511,24.511,0,0,1,.933,4.07,29.493,29.493,0,0,1,.17,3.821.831.831,0,0,0,.926.62,2.107,2.107,0,0,0,1.3-.531s.485-3.945.532-6.073a7,7,0,0,0-.368-2.961s-.3-3.484.573-5.177a5.977,5.977,0,0,0,.6-3.348S1155.732,1043.267,1151.826,1042.69Z" transform="translate(-1139.042 -1021.434)" fill="#2d2f4f"/>
        <path id="Trazado_635288" data-name="Trazado 635288" d="M1141.553,1014.111s-.39.019-1.334,1.133-1.614,3.465-2.213,3.4-3.381-2.324-3.381-2.324a1.132,1.132,0,0,0-.852.568,2.682,2.682,0,0,0-.32,1.252s4.053,4,5.154,3.594,4.346-4.128,4.365-4.195S1141.553,1014.111,1141.553,1014.111Z" transform="translate(-1130.16 -1007.937)" fill="#7750a5"/>
        <path id="Trazado_635289" data-name="Trazado 635289" d="M1147.835,1013.933c.831-.237,7.459,3.235,7.722,3.744s-1.48,10.847-1.48,10.847a6.007,6.007,0,0,1-4.539.683,5.1,5.1,0,0,1-3.337-2.937s.6-9.846.854-10.959S1147.835,1013.933,1147.835,1013.933Z" transform="translate(-1136.323 -1007.845)" fill="#9b77c6"/>
        <path id="Trazado_635290" data-name="Trazado 635290" d="M1159.836,1021.223c-.876.139-1.381,1.384-1.14,2.756s.516,3.925.516,3.925l-3.346-.452a1.93,1.93,0,0,1,.263.97,2.228,2.228,0,0,1-.332,1.1s5.007,1.28,5.935.537-.528-7.351-.762-8.1A1.185,1.185,0,0,0,1159.836,1021.223Z" transform="translate(-1140.962 -1011.375)" fill="#7750a5"/>
        <g id="Grupo_949891" data-name="Grupo 949891" transform="translate(11.307)">
          <path id="Trazado_635291" data-name="Trazado 635291" d="M1150.187,1005.769a14.2,14.2,0,0,0-.292,2.161,5.917,5.917,0,0,0,.761,2.451,1.281,1.281,0,0,0,.791.175l-.11.43s-.1.7,1.139.929a3.545,3.545,0,0,0,2.031-.158,8.418,8.418,0,0,1-.092-2.382c.168-.981.28-3.447-.731-3.954S1150.187,1005.769,1150.187,1005.769Z" transform="translate(-1149.415 -1003.658)" fill="#ffbdbd"/>
          <path id="Trazado_635292" data-name="Trazado 635292" d="M1150.636,1004.841a3.267,3.267,0,0,0,1.911,0s-.387.5-.065.858.021,1.622.2,1.647.271-1.139.819-1.056.342.375.226.818-.281.719.138.894,1.507-.914,1.66-2.115a1.725,1.725,0,0,0-.571-1.687s.524-1.5-1.679-1.709-3.077.2-3.638-.275S1148.072,1004.236,1150.636,1004.841Z" transform="translate(-1148.968 -1002.159)" fill="#2d2f4f"/>
          <path id="Trazado_635293" data-name="Trazado 635293" d="M1152.77,1014.731a1.755,1.755,0,0,0,1.171-.312c.387-.377.5-.477.5-.477a3.9,3.9,0,0,1-.621.984,1.287,1.287,0,0,0-.237,1.13s-.93-.14-.886-.723A2.6,2.6,0,0,1,1152.77,1014.731Z" transform="translate(-1150.772 -1007.854)" fill="#eaa2a2"/>
          <path id="Trazado_635294" data-name="Trazado 635294" d="M1153.682,1009.992a.146.146,0,1,0,.156-.135A.146.146,0,0,0,1153.682,1009.992Z" transform="translate(-1151.246 -1005.88)" fill="#2d2f4f"/>
          <path id="Trazado_635295" data-name="Trazado 635295" d="M1150.385,1009.4a.146.146,0,1,0,.156-.135A.146.146,0,0,0,1150.385,1009.4Z" transform="translate(-1149.653 -1005.594)" fill="#2d2f4f"/>
          <path id="Trazado_635296" data-name="Trazado 635296" d="M1152.364,1012.725a1.988,1.988,0,0,1-.975.1.871.871,0,0,1-.507-.338.757.757,0,0,0,.507.646C1151.865,1013.284,1152.364,1012.725,1152.364,1012.725Z" transform="translate(-1149.893 -1007.15)" fill="#fff"/>
          <g id="Grupo_949889" data-name="Grupo 949889" transform="translate(1.056 4.008)">
            <path id="Trazado_635297" data-name="Trazado 635297" d="M1151.243,1010.979h.016c.279.013.375.028.375.029l.012-.072s-.1-.016-.384-.029c-.066,0-.149-.02-.172-.079s.029-.178.14-.285a1.177,1.177,0,0,0,.263-.617l-.072-.008a1.122,1.122,0,0,1-.241.573c-.134.13-.193.266-.157.362C1151.043,1010.905,1151.1,1010.968,1151.243,1010.979Z" transform="translate(-1151.013 -1009.918)" fill="#dd9292"/>
          </g>
          <g id="Grupo_949890" data-name="Grupo 949890" transform="translate(0.03 3.004)">
            <path id="Trazado_635298" data-name="Trazado 635298" d="M1153.67,1010.438l-.051,0a.819.819,0,0,1-.766-.869h0a.819.819,0,1,1,.817.871Zm0-1.38a.561.561,0,0,0-.559.525h0a.561.561,0,1,0,.595-.524Z" transform="translate(-1150.875 -1008.373)" fill="#2d2f4f"/>
            <path id="Trazado_635299" data-name="Trazado 635299" d="M1149.846,1009.613l-.052,0a.82.82,0,0,1-.766-.869h0a.819.819,0,1,1,.818.87Zm-.56-.854h0a.561.561,0,0,0,1.119.07.561.561,0,1,0-1.119-.07Z" transform="translate(-1149.027 -1007.974)" fill="#2d2f4f"/>
            <path id="Trazado_635300" data-name="Trazado 635300" d="M1152.436,1009.455c-.022-.036-.22-.351-.5-.187l-.128-.225a.629.629,0,0,1,.853.281Z" transform="translate(-1150.37 -1008.452)" fill="#2d2f4f"/>
          </g>
        </g>
        <path id="Trazado_635301" data-name="Trazado 635301" d="M1150.286,1023.21l-3.728-1.719-.219,6.751,3.728,1.719Z" transform="translate(-1136.389 -1011.504)" fill="#fff"/>
        <path id="Trazado_635302" data-name="Trazado 635302" d="M1153.122,1033.277c-.038-.028-.179-.854-.569-1.08s-.473-.263-.473-.263l.024.541a1.375,1.375,0,0,1-.7-.132,3.047,3.047,0,0,0-.977-.336c-.258-.016.216.288.55.477s.6.312.6.312a11.781,11.781,0,0,0-1.366-.535c-.149.007.048.174.328.365a4.737,4.737,0,0,0,.642.351,3.6,3.6,0,0,0-1.008-.4c-.259.011.156.359.465.521a4.716,4.716,0,0,1,.564.354,4.46,4.46,0,0,0-1.1-.52c-.257,0,.567.557,1.028.876a2.44,2.44,0,0,0,1.332.4c.326,0,.757.039.757.039S1153.408,1033.488,1153.122,1033.277Z" transform="translate(-1138.187 -1016.552)" fill="#ffbdbd"/>
      </g>
      <ellipse id="Elipse_5447" data-name="Elipse 5447" cx="8.207" cy="3.431" rx="8.207" ry="3.431" transform="translate(25.063 83.631)" fill="#000411" opacity="0.24"/>
      <ellipse id="Elipse_5448" data-name="Elipse 5448" cx="8.207" cy="3.431" rx="8.207" ry="3.431" transform="translate(9.44 90.651)" fill="#000411" opacity="0.24"/>
    </g>
  </g>
</svg>
