<svg xmlns="http://www.w3.org/2000/svg" width="505" height="368.472" viewBox="0 0 505 368.472">
  <g id="Grupo_961267" data-name="Grupo 961267" transform="translate(-915 -1101)">
    <rect id="BG" width="505" height="368.472" transform="translate(915 1101)" fill="#e8e8e8" opacity="0.949"/>
    <g id="Grupo_950350" data-name="Grupo 950350" transform="translate(474.067 -49.1)">
      <g id="Grupo_950252" data-name="Grupo 950252" transform="translate(511.933 1375.084)">
        <g id="Grupo_950241" data-name="Grupo 950241">
          <path id="Trazado_635986" data-name="Trazado 635986" d="M575.467,1477.979c12.768-10.447,14.421-28.02,12.613-43.543-.3-2.592-.237-5.356-1.676-7.532s-4.489-3.495-6.757-2.206c-1.881,1.069-2.55,3.385-3.492,5.332a15.387,15.387,0,0,1-5.7,6.331c-1.607,1-3.638,1.693-5.367.928-2.373-1.05-2.894-4.124-3.089-6.712l-1.091-14.458a23.864,23.864,0,0,0-1.418-7.612,8.079,8.079,0,0,0-5.548-5c-2.548-.483-5.513,1.189-5.832,3.762a23.69,23.69,0,0,0,.19,3.224,2.73,2.73,0,0,1-1.4,2.693c-1.02.388-2.127-.258-2.972-.95-2.916-2.387-5.026-5.6-7.014-8.8s-3.931-6.487-6.617-9.131-6.262-4.621-10.029-4.521-7.576,2.714-8.227,6.426,1.8,7.241,4.389,10a58.271,58.271,0,0,0,13.107,10.447,4.785,4.785,0,0,1,2.213,1.992c.71,1.676-.8,3.524-2.481,4.233-1.9.8-4.035.777-6.057,1.183s-4.163,1.477-4.779,3.444c-.855,2.732,1.609,5.315,3.96,6.948a50.4,50.4,0,0,0,15.512,7.221,17.061,17.061,0,0,1,5.723,2.188c1.663,1.209,2.79,3.454,2,5.352s-3.152,2.682-5.2,2.479-3.942-1.135-5.924-1.693c-3.709-1.044-8.336-.415-10.39,2.844a8.118,8.118,0,0,0-.291,7.305,18.87,18.87,0,0,0,4.492,6.06,50.489,50.489,0,0,0,22.72,13.142c8.583,2.169,16.381,2.3,24.433-1.374" transform="translate(-511.933 -1389.781)" fill="#ebebeb"/>
        </g>
        <g id="Grupo_950243" data-name="Grupo 950243" transform="translate(3.599 2.573)">
          <g id="Grupo_950242" data-name="Grupo 950242">
            <path id="Trazado_635987" data-name="Trazado 635987" d="M576.887,1489.725a112.655,112.655,0,0,0-6.028-20.94,230.827,230.827,0,0,0-11.356-24.161q-1.674-3.131-3.307-6.183c-1.089-2.027-2.169-4.035-3.349-5.936a115.739,115.739,0,0,0-7.411-10.538c-2.523-3.239-5.036-6.222-7.407-8.995s-4.642-5.308-6.806-7.535a93.14,93.14,0,0,0-10.994-9.751c-1.385-1.047-2.485-1.825-3.237-2.345l-.859-.585c-.195-.129-.3-.187-.3-.187s.09.079.277.221l.837.615c.736.54,1.822,1.337,3.19,2.4a97.263,97.263,0,0,1,10.886,9.823c2.147,2.234,4.4,4.779,6.76,7.554s4.859,5.767,7.369,9.006a116.421,116.421,0,0,1,7.37,10.516c1.172,1.894,2.242,3.888,3.332,5.921s2.188,4.094,3.3,6.18a235.447,235.447,0,0,1,11.365,24.11,114.377,114.377,0,0,1,6.093,20.858" transform="translate(-515.833 -1392.569)" fill="#e0e0e0"/>
          </g>
        </g>
        <g id="Grupo_950245" data-name="Grupo 950245" transform="translate(40.492 13.726)">
          <g id="Grupo_950244" data-name="Grupo 950244">
            <path id="Trazado_635988" data-name="Trazado 635988" d="M555.832,1433.408a6.275,6.275,0,0,0,.148-1.125c.074-.726.148-1.78.223-3.081.151-2.6.243-6.207.333-10.181s.245-7.568.452-10.162c.1-1.3.194-2.348.27-3.071a6.2,6.2,0,0,0,.071-1.132,6.35,6.35,0,0,0-.222,1.113c-.123.72-.258,1.768-.394,3.066-.28,2.6-.477,6.2-.568,10.178-.084,3.939-.161,7.5-.218,10.178-.04,1.247-.073,2.283-.1,3.084A6.284,6.284,0,0,0,555.832,1433.408Z" transform="translate(-555.811 -1404.655)" fill="#e0e0e0"/>
          </g>
        </g>
        <g id="Grupo_950247" data-name="Grupo 950247" transform="translate(6.336 38.836)">
          <g id="Grupo_950246" data-name="Grupo 950246">
            <path id="Trazado_635989" data-name="Trazado 635989" d="M518.8,1432.073a1.257,1.257,0,0,0,.352.028l1,0c.87,0,2.13-.007,3.686.04,3.111.066,7.406.312,12.13.793s8.981,1.119,12.045,1.667c1.534.263,2.769.51,3.624.677l.986.188a1.221,1.221,0,0,0,.351.04,1.2,1.2,0,0,0-.332-.117l-.971-.259c-.845-.213-2.075-.5-3.605-.8-3.058-.617-7.32-1.291-12.057-1.782s-9.046-.687-12.167-.681c-1.56-.01-2.822.036-3.693.085l-1,.07A1.175,1.175,0,0,0,518.8,1432.073Z" transform="translate(-518.799 -1431.864)" fill="#e0e0e0"/>
          </g>
        </g>
        <g id="Grupo_950249" data-name="Grupo 950249" transform="translate(58.198 34.357)">
          <g id="Grupo_950248" data-name="Grupo 950248">
            <path id="Trazado_635990" data-name="Trazado 635990" d="M575,1470.851a2.1,2.1,0,0,0,.188-.427c.123-.326.278-.741.471-1.252.4-1.089.951-2.678,1.6-4.65,1.3-3.942,2.94-9.443,4.667-15.536s3.319-11.6,4.555-15.561c.615-1.942,1.117-3.53,1.482-4.684.164-.521.3-.944.4-1.275a.235.235,0,1,0-.075-.026l-.47,1.251c-.405,1.089-.951,2.678-1.6,4.65-1.306,3.942-2.941,9.443-4.669,15.538s-3.319,11.6-4.554,15.559c-.615,1.942-1.117,3.531-1.483,4.684-.163.521-.3.944-.4,1.276A2.057,2.057,0,0,0,575,1470.851Z" transform="translate(-574.997 -1427.011)" fill="#e0e0e0"/>
          </g>
        </g>
        <g id="Grupo_950251" data-name="Grupo 950251" transform="translate(12.296 67.649)">
          <g id="Grupo_950250" data-name="Grupo 950250">
            <path id="Trazado_635991" data-name="Trazado 635991" d="M525.257,1463.092a2.358,2.358,0,0,0,.46.136l1.336.313,4.921,1.124c4.152.953,9.871,2.34,16.187,3.889s12.052,2.895,16.223,3.78c2.086.443,3.775.786,4.948,1l1.351.243a2.255,2.255,0,0,0,.477.058,2.142,2.142,0,0,0-.461-.136l-1.335-.314-4.92-1.123c-4.153-.953-9.873-2.342-16.191-3.89s-12.049-2.894-16.22-3.779c-2.086-.443-3.777-.786-4.949-1l-1.352-.243A2.135,2.135,0,0,0,525.257,1463.092Z" transform="translate(-525.257 -1463.087)" fill="#e0e0e0"/>
          </g>
        </g>
      </g>
      <g id="Grupo_950256" data-name="Grupo 950256" transform="translate(629.688 1199.336)">
        <g id="Grupo_950254" data-name="Grupo 950254" transform="translate(0)">
          <rect id="Rectángulo_44857" data-name="Rectángulo 44857" width="69.675" height="46.964" transform="translate(0.299 20.314) rotate(-16.745)" fill="#fff"/>
          <g id="Grupo_950253" data-name="Grupo 950253">
            <path id="Trazado_635992" data-name="Trazado 635992" d="M720.087,1244.548s-.1-.283-.269-.821-.418-1.345-.737-2.376c-.641-2.093-1.577-5.143-2.772-9.043l-9.937-32.676.24.129-66.7,20.119H639.9l.161-.3c4.815,16.032,9.394,31.274,13.511,44.978l-.274-.147,48.071-14.35,13.758-4.078,3.669-1.076.952-.273c.215-.06.333-.087.333-.087s-.1.038-.3.1l-.921.291-3.612,1.115-13.676,4.176-48.148,14.6-.21.064-.064-.21c-4.129-13.7-8.72-28.939-13.55-44.967l-.069-.23.23-.069.006,0,66.73-20.026.185-.056.055.185c4.085,13.728,7.44,25,9.777,32.849,1.149,3.894,2.049,6.941,2.665,9.03q.447,1.532.686,2.354C720.021,1244.283,720.087,1244.548,720.087,1244.548Z" transform="translate(-639.536 -1199.336)" fill="#e0e0e0"/>
          </g>
        </g>
        <g id="Grupo_950255" data-name="Grupo 950255" transform="translate(0.299 0.24)">
          <path id="Trazado_635993" data-name="Trazado 635993" d="M706.581,1199.6a.833.833,0,0,1-.092.2l-.313.572q-.454.8-1.241,2.181l-4.656,8c-4,6.775-9.5,16.113-15.636,26.518l-.1.174-.19-.074-2.042-.791-30.052-11.723-9.087-3.6-2.461-1-.636-.272a.88.88,0,0,1-.211-.108.862.862,0,0,1,.229.062l.652.228,2.494.918,9.142,3.462,30.1,11.591,2.042.792-.293.1,15.764-26.442,4.785-7.923q.835-1.354,1.317-2.135l.353-.548A.8.8,0,0,1,706.581,1199.6Z" transform="translate(-639.86 -1199.596)" fill="#e0e0e0"/>
        </g>
      </g>
      <g id="Grupo_950264" data-name="Grupo 950264" transform="translate(816.938 1378.359)">
        <path id="Trazado_635994" data-name="Trazado 635994" d="M916.331,1394.177s-4.323-4.284-12.766,6.416a157.767,157.767,0,0,0-12.11,17.109s-2.1,2.176-3.491.2-2.815-7.067-5.893-6.814c-3.194.262-4.861,3.436-5.272,8.506s-1.72,16.145-1.842,17.145c-.12.983-.959,2.3-2.121,1.106s-7.184-11.355-11.836-8.208-3.476,17.459-3.378,19.026-.319,2.145-1.1,2.373-2.483-3.38-4.315-6.2-4.45-5.771-6.981-3.73-5.21,12.071,1.17,30.5l3.516,8.346,9.006,1.281c19.439,1.566,28.479-3.537,29.821-6.5s-2.169-4.759-5.358-5.827-7.107-1.813-7.082-2.625.479-1.362,2.021-1.658,15.693-2.741,17.576-8.031-9.465-8.58-10.911-9.406-.38-1.967.541-2.329c.938-.369,11.334-4.407,16.139-6.074s7.462-4.075,6.916-7.232c-.526-3.045-5.815-3.151-8.072-4s-.677-3.43-.677-3.43a157.707,157.707,0,0,0,13.535-16.007c8.247-10.852,2.87-14.017,2.87-14.017" transform="translate(-842.445 -1393.33)" fill="#ebebeb"/>
        <g id="Grupo_950257" data-name="Grupo 950257" transform="translate(0.88 10.416)">
          <path id="Trazado_635995" data-name="Trazado 635995" d="M908.827,1404.618a1.181,1.181,0,0,1-.148.234l-.471.658-1.848,2.5c-1.61,2.17-3.968,5.288-6.9,9.129-5.859,7.682-14.056,18.215-23.159,29.807l-23.273,29.722-7.018,9.033-1.918,2.448c-.209.259-.377.466-.509.629a1.092,1.092,0,0,1-.187.2,1.208,1.208,0,0,1,.148-.234l.471-.659c.443-.6,1.061-1.437,1.848-2.5,1.609-2.17,3.967-5.288,6.9-9.128,5.859-7.682,14.056-18.216,23.163-29.812l23.268-29.717,7.019-9.034,1.919-2.448.509-.629A1.14,1.14,0,0,1,908.827,1404.618Z" transform="translate(-843.398 -1404.618)" fill="#e0e0e0"/>
        </g>
        <g id="Grupo_950258" data-name="Grupo 950258" transform="translate(41.288 24.969)">
          <path id="Trazado_635996" data-name="Trazado 635996" d="M887.23,1420.387a11.468,11.468,0,0,1,.341,2.417c.137,1.5.26,3.577.343,5.87.06,2.207.114,4.2.16,5.871a15.152,15.152,0,0,1,0,2.436,10.369,10.369,0,0,1-.337-2.419c-.123-1.5-.219-3.579-.3-5.871-.076-2.2-.144-4.2-.2-5.866A13.179,13.179,0,0,1,887.23,1420.387Z" transform="translate(-887.186 -1420.387)" fill="#e0e0e0"/>
        </g>
        <g id="Grupo_950259" data-name="Grupo 950259" transform="translate(42.958 40.255)">
          <path id="Trazado_635997" data-name="Trazado 635997" d="M888.995,1438.581a191.1,191.1,0,0,1,19.1-1.594c.01.132-4.255.6-9.529,1.036S889.006,1438.713,888.995,1438.581Z" transform="translate(-888.995 -1436.952)" fill="#e0e0e0"/>
        </g>
        <g id="Grupo_950260" data-name="Grupo 950260" transform="translate(27.645 59.668)">
          <path id="Trazado_635998" data-name="Trazado 635998" d="M872.4,1458a14,14,0,0,1,2.458.393c1.506.285,3.585.683,5.893,1.05s4.406.649,5.926.846a14.219,14.219,0,0,1,2.457.4,11.661,11.661,0,0,1-2.492-.057c-1.534-.112-3.65-.335-5.969-.71s-4.4-.822-5.889-1.192A11.735,11.735,0,0,1,872.4,1458Z" transform="translate(-872.402 -1457.988)" fill="#e0e0e0"/>
        </g>
        <g id="Grupo_950261" data-name="Grupo 950261" transform="translate(22.796 44.706)">
          <path id="Trazado_635999" data-name="Trazado 635999" d="M867.158,1441.775a10.978,10.978,0,0,1,.9,2.121c.494,1.33,1.146,3.178,1.837,5.229s1.292,3.917,1.7,5.275a10.9,10.9,0,0,1,.572,2.229,10.989,10.989,0,0,1-.894-2.121c-.495-1.33-1.146-3.178-1.838-5.23s-1.292-3.917-1.7-5.274A10.956,10.956,0,0,1,867.158,1441.775Z" transform="translate(-867.148 -1441.775)" fill="#e0e0e0"/>
        </g>
        <g id="Grupo_950262" data-name="Grupo 950262" transform="translate(7.284 58.702)">
          <path id="Trazado_636000" data-name="Trazado 636000" d="M850.346,1456.942a17.8,17.8,0,0,1,1.128,2.723c.638,1.7,1.489,4.066,2.4,6.686s1.712,5,2.267,6.733a17.875,17.875,0,0,1,.807,2.835,17.846,17.846,0,0,1-1.127-2.723c-.639-1.7-1.49-4.066-2.4-6.687s-1.711-5-2.267-6.732A17.892,17.892,0,0,1,850.346,1456.942Z" transform="translate(-850.338 -1456.942)" fill="#e0e0e0"/>
        </g>
        <g id="Grupo_950263" data-name="Grupo 950263" transform="translate(13.863 77.167)">
          <path id="Trazado_636001" data-name="Trazado 636001" d="M857.468,1476.965a22.6,22.6,0,0,1,3.128.413c1.923.3,4.578.713,7.52,1.1s5.613.688,7.547.9a22.615,22.615,0,0,1,3.127.417,18.7,18.7,0,0,1-3.157-.078c-1.945-.124-4.63-.367-7.581-.76s-5.6-.857-7.516-1.242A18.749,18.749,0,0,1,857.468,1476.965Z" transform="translate(-857.468 -1476.95)" fill="#e0e0e0"/>
        </g>
      </g>
      <g id="Grupo_950276" data-name="Grupo 950276" transform="translate(838.094 1288.458)">
        <rect id="Rectángulo_44858" data-name="Rectángulo 44858" width="71.599" height="52.323" transform="matrix(0.031, -1, 1, 0.031, 9.836, 71.566)" fill="#f5f5f5"/>
        <g id="Grupo_950275" data-name="Grupo 950275" transform="translate(0 9.259)">
          <g id="Grupo_950266" data-name="Grupo 950266">
            <rect id="Rectángulo_44859" data-name="Rectángulo 44859" width="71.599" height="52.323" transform="matrix(0.031, -1, 1, 0.031, 0.202, 71.814)" fill="#fff"/>
            <g id="Grupo_950265" data-name="Grupo 950265">
              <path id="Trazado_636002" data-name="Trazado 636002" d="M917.87,1379.355s0-.124,0-.352.011-.577.018-1.012c.021-.9.053-2.212.093-3.91.091-3.423.223-8.4.39-14.7.359-12.595.867-30.458,1.467-51.6l.211.224-52.293-1.574h-.006l.247-.234c-.833,26.732-1.6,51.48-2.229,71.565l-.19-.2,37.979,1.261,10.565.373,2.782.107c.631.027.966.052.966.052s-.307,0-.926-.007l-2.747-.062-10.524-.271-38.107-1.061-.2,0,.006-.2c.6-20.086,1.341-44.835,2.14-71.567l.007-.241.241.007h.006l52.291,1.62.219.006-.007.218c-.691,21.2-1.275,39.106-1.688,51.734-.216,6.277-.388,11.237-.5,14.648-.063,1.679-.112,2.972-.145,3.865-.018.425-.032.751-.042.987C917.882,1379.249,917.87,1379.355,917.87,1379.355Z" transform="translate(-865.37 -1305.944)" fill="#e0e0e0"/>
            </g>
          </g>
          <g id="Grupo_950267" data-name="Grupo 950267" transform="translate(8.845 15.968)">
            <path id="Trazado_636003" data-name="Trazado 636003" d="M900.371,1324.091c0,.133-5.7.067-12.715-.148s-12.7-.5-12.7-.628,5.7-.066,12.716.148S900.374,1323.958,900.371,1324.091Z" transform="translate(-874.955 -1323.247)" fill="#e0e0e0"/>
          </g>
          <g id="Grupo_950268" data-name="Grupo 950268" transform="translate(8.656 22.208)">
            <path id="Trazado_636004" data-name="Trazado 636004" d="M913.91,1331.251c0,.133-8.775-.027-19.587-.357s-19.578-.705-19.573-.838,8.772.028,19.588.357S913.914,1331.119,913.91,1331.251Z" transform="translate(-874.75 -1330.01)" fill="#e0e0e0"/>
          </g>
          <g id="Grupo_950269" data-name="Grupo 950269" transform="translate(8.458 28.696)">
            <path id="Trazado_636005" data-name="Trazado 636005" d="M913.7,1338.282c0,.132-8.774-.028-19.586-.358s-19.578-.705-19.574-.838,8.772.028,19.588.358S913.7,1338.149,913.7,1338.282Z" transform="translate(-874.535 -1337.039)" fill="#e0e0e0"/>
          </g>
          <g id="Grupo_950270" data-name="Grupo 950270" transform="translate(8.259 35.183)">
            <path id="Trazado_636006" data-name="Trazado 636006" d="M913.48,1345.312c0,.133-8.774-.028-19.586-.358s-19.578-.7-19.574-.838,8.772.028,19.589.358S913.485,1345.179,913.48,1345.312Z" transform="translate(-874.32 -1344.069)" fill="#e0e0e0"/>
          </g>
          <g id="Grupo_950271" data-name="Grupo 950271" transform="translate(8.062 41.671)">
            <path id="Trazado_636007" data-name="Trazado 636007" d="M913.266,1352.342c0,.133-8.774-.028-19.587-.358s-19.578-.705-19.573-.838,8.772.028,19.588.358S913.27,1352.209,913.266,1352.342Z" transform="translate(-874.106 -1351.1)" fill="#e0e0e0"/>
          </g>
          <g id="Grupo_950272" data-name="Grupo 950272" transform="translate(7.863 48.159)">
            <path id="Trazado_636008" data-name="Trazado 636008" d="M913.051,1359.372c0,.133-8.774-.028-19.586-.358s-19.578-.705-19.574-.838,8.772.028,19.588.358S913.055,1359.239,913.051,1359.372Z" transform="translate(-873.891 -1358.13)" fill="#e0e0e0"/>
          </g>
          <g id="Grupo_950273" data-name="Grupo 950273" transform="translate(7.665 54.646)">
            <path id="Trazado_636009" data-name="Trazado 636009" d="M912.836,1366.4c0,.133-8.774-.028-19.586-.357s-19.578-.706-19.574-.839,8.772.028,19.589.358S912.841,1366.269,912.836,1366.4Z" transform="translate(-873.676 -1365.16)" fill="#e0e0e0"/>
          </g>
          <g id="Grupo_950274" data-name="Grupo 950274" transform="translate(7.467 61.101)">
            <path id="Trazado_636010" data-name="Trazado 636010" d="M894.511,1372.877c0,.133-4.719.1-10.531-.081s-10.522-.429-10.517-.561,4.718-.1,10.532.081S894.514,1372.744,894.511,1372.877Z" transform="translate(-873.462 -1372.154)" fill="#e0e0e0"/>
          </g>
        </g>
      </g>
      <g id="Grupo_950282" data-name="Grupo 950282" transform="translate(720.924 1250.289)">
        <g id="Grupo_950279" data-name="Grupo 950279">
          <g id="Grupo_950278" data-name="Grupo 950278">
            <rect id="Rectángulo_44860" data-name="Rectángulo 44860" width="44.237" height="55.333" transform="translate(0.122 41.208) rotate(-68.29)" fill="#fff"/>
            <g id="Grupo_950277" data-name="Grupo 950277">
              <path id="Trazado_636011" data-name="Trazado 636011" d="M806.294,1275.127s-.086-.031-.248-.094l-.72-.281-2.792-1.1-10.526-4.167-37.154-14.748.109-.047c-4.867,12.233-10.448,26.258-16.352,41.1l0,0-.053-.121,51.4,20.483-.1.043c4.946-12.38,9.047-22.641,11.912-29.81l3.333-8.318c.385-.958.68-1.692.881-2.19s.309-.753.309-.753-.094.251-.287.744-.484,1.228-.86,2.182c-.759,1.919-1.872,4.731-3.289,8.316L790,1316.255l-.029.072-.072-.029-51.414-20.453-.087-.034.035-.087,0,0c5.911-14.838,11.5-28.861,16.371-41.092l.03-.078.077.031,37.173,14.845,10.493,4.2,2.768,1.113.708.287C806.217,1275.092,806.294,1275.127,806.294,1275.127Z" transform="translate(-738.401 -1254.55)" fill="#e0e0e0"/>
            </g>
          </g>
        </g>
        <rect id="Rectángulo_44861" data-name="Rectángulo 44861" width="38.667" height="51.445" transform="matrix(0.37, -0.929, 0.929, 0.37, 2.892, 39.361)" fill="#ebebeb"/>
        <path id="Trazado_636012" data-name="Trazado 636012" d="M741.742,1296.012l25.585-15.684,4.779,18.088,9.987-4.676,7.445,21.3Z" transform="translate(-738.659 -1256.539)" fill="#e0e0e0"/>
        <g id="Grupo_950281" data-name="Grupo 950281" transform="translate(36.673 21.368)">
          <g id="Grupo_950280" data-name="Grupo 950280">
            <path id="Trazado_636013" data-name="Trazado 636013" d="M785.956,1283.256a4.051,4.051,0,1,1-2.266-5.262A4.051,4.051,0,0,1,785.956,1283.256Z" transform="translate(-778.141 -1277.705)" fill="#e0e0e0"/>
          </g>
        </g>
      </g>
      <g id="Grupo_950284" data-name="Grupo 950284" transform="translate(576.108 1280.385)">
        <g id="Grupo_950283" data-name="Grupo 950283" transform="translate(0)">
          <path id="Trazado_636014" data-name="Trazado 636014" d="M608.716,1323.149a2.289,2.289,0,0,0,1.1.181,1.968,1.968,0,0,0,1.177-.588,11.344,11.344,0,0,0,.975-1.59l5.985-10.445,1.991-3.456,1.06-1.838a6.136,6.136,0,0,0,.487-.927,1.766,1.766,0,0,0,.028-.984,1.657,1.657,0,0,0-.531-.838,8.853,8.853,0,0,0-.953-.567l-2.052-1.148-4.285-2.4-19.065-10.7a1.728,1.728,0,0,0-2.241.56l-1.432,2.446q-1.424,2.449-2.806,4.821l-5.313,9.109-.631,1.082a1.819,1.819,0,0,0-.3,1.054,1.657,1.657,0,0,0,.375.991,2.928,2.928,0,0,0,.914.641l4.031,2.281,7.231,4.1,10.455,5.967,2.83,1.644.731.438a1.266,1.266,0,0,1,.24.163,1.354,1.354,0,0,1-.265-.121l-.753-.4-2.875-1.565-10.529-5.834-7.261-4.049-4.043-2.26a3.293,3.293,0,0,1-1.035-.736,2.088,2.088,0,0,1-.478-1.247,2.26,2.26,0,0,1,.351-1.292l.628-1.083c1.685-2.909,3.454-5.961,5.288-9.124l2.8-4.824q.718-1.231,1.449-2.479a2.208,2.208,0,0,1,2.873-.707l19.046,10.733,4.274,2.416,2.048,1.157a8.76,8.76,0,0,1,1.012.616,2.045,2.045,0,0,1,.654,1.045,2.152,2.152,0,0,1-.041,1.206,6.114,6.114,0,0,1-.527,1l-1.072,1.83-2.018,3.441-6.117,10.368a10.741,10.741,0,0,1-1.035,1.6,2.056,2.056,0,0,1-1.269.584,1.872,1.872,0,0,1-.85-.135A1.022,1.022,0,0,1,608.716,1323.149Z" transform="translate(-581.474 -1287.162)" fill="#e0e0e0"/>
        </g>
        <path id="Trazado_636015" data-name="Trazado 636015" d="M605.1,1305.312l2.326,4.13-4.8.088-4.8.088,2.472-4.218,2.472-4.218Z" transform="translate(-582.737 -1288.244)" fill="#e0e0e0"/>
      </g>
      <g id="Grupo_950286" data-name="Grupo 950286" transform="translate(517.172 1473.144)">
        <g id="Grupo_950285" data-name="Grupo 950285" transform="translate(0)">
          <path id="Trazado_636016" data-name="Trazado 636016" d="M911.871,1496.3c0,.14-88.266.255-197.121.255-108.893,0-197.14-.114-197.14-.255s88.246-.256,197.14-.256C823.605,1496.042,911.871,1496.156,911.871,1496.3Z" transform="translate(-517.61 -1496.042)" fill="#263238"/>
        </g>
      </g>
      <g id="Grupo_950340" data-name="Grupo 950340" transform="translate(558.102 1244.042)">
        <g id="Grupo_950304" data-name="Grupo 950304" transform="translate(0 99.823)">
          <path id="Trazado_636017" data-name="Trazado 636017" d="M621.024,1426.856l-27.866-27.986,14.01-25.732c14.01-17.933,43.665-16.778,43.665-16.778A169.973,169.973,0,0,1,694.57,1359c23.555,4.584,21.659,20.173,21.659,20.173l3.155,57.743,3.383,47.017-86.881,1.752-14.862-58.829" transform="translate(-564.37 -1355.952)" fill="#45bbcc"/>
          <path id="Trazado_636018" data-name="Trazado 636018" d="M665.418,1485.5l-77.817.953a25.3,25.3,0,0,1-23.175-36.116l33.273-61.707,30.308,20.488-20.674,42.907,63,1.124Z" transform="translate(-561.963 -1358.474)" fill="#45bbcc"/>
          <path id="Trazado_636019" data-name="Trazado 636019" d="M723.506,1370.959l62.449,96.415-36.432,2.383s-21.757-34.287-21.265-33.577C729.147,1437.464,723.506,1370.959,723.506,1370.959Z" transform="translate(-574.43 -1357.11)" fill="#45bbcc"/>
          <path id="Trazado_636020" data-name="Trazado 636020" d="M620.677,1437.276" transform="translate(-566.494 -1362.228)" fill="#ff4f5b"/>
          <g id="Grupo_950287" data-name="Grupo 950287" transform="translate(54.202 11.875)">
            <path id="Trazado_636021" data-name="Trazado 636021" d="M630.977,1413.13a2.022,2.022,0,0,1,.087-.5c.089-.372.2-.834.331-1.4.289-1.213.708-2.966,1.148-5.148s.9-4.793,1.223-7.714a40.736,40.736,0,0,0,.033-9.509,25.061,25.061,0,0,0-3.224-8.876,35.723,35.723,0,0,0-4.635-6.239,43.927,43.927,0,0,0-3.781-3.657,19.119,19.119,0,0,1-1.459-1.273,1.952,1.952,0,0,1,.425.269c.265.195.671.462,1.154.86a36.632,36.632,0,0,1,3.91,3.568,34.384,34.384,0,0,1,4.769,6.249,24.957,24.957,0,0,1,3.318,9.032,39.808,39.808,0,0,1-.068,9.625,78.256,78.256,0,0,1-1.33,7.736c-.484,2.181-.955,3.926-1.3,5.125-.172.6-.315,1.063-.418,1.375A1.982,1.982,0,0,1,630.977,1413.13Z" transform="translate(-620.698 -1368.82)" fill="#263238"/>
          </g>
          <g id="Grupo_950288" data-name="Grupo 950288" transform="translate(45.262 59.51)">
            <path id="Trazado_636022" data-name="Trazado 636022" d="M627.726,1420.439a8.794,8.794,0,0,1-.535,1.4c-.373.885-.932,2.157-1.637,3.723-1.41,3.132-3.417,7.432-5.725,12.135s-4.482,8.925-6.1,11.955c-.807,1.516-1.472,2.736-1.944,3.573a8.7,8.7,0,0,1-.775,1.276,8.939,8.939,0,0,1,.61-1.363l1.807-3.642,5.968-12.01c2.266-4.676,4.316-8.905,5.848-12.067.722-1.487,1.32-2.719,1.775-3.658A9.059,9.059,0,0,1,627.726,1420.439Z" transform="translate(-611.01 -1420.439)" fill="#263238"/>
          </g>
          <g id="Grupo_950289" data-name="Grupo 950289" transform="translate(27.604 93.145)">
            <path id="Trazado_636023" data-name="Trazado 636023" d="M667.727,1490.769a.547.547,0,0,1,0-.162c.01-.128.023-.282.039-.474.044-.448.106-1.059.185-1.839.18-1.639.438-3.979.761-6.923.689-5.964,1.66-14.368,2.8-24.269l.218.245-22.987.02-40.217-.07-12.187-.077-3.314-.045-.861-.023a.148.148,0,1,1,0-.05l.861-.023,3.314-.045,12.187-.077,40.217-.07,22.987.02h.248l-.03.245c-1.214,9.893-2.245,18.29-2.976,24.249-.376,2.938-.676,5.273-.886,6.908-.107.777-.191,1.386-.253,1.832l-.074.47A.526.526,0,0,1,667.727,1490.769Z" transform="translate(-591.875 -1456.886)" fill="#263238"/>
          </g>
          <g id="Grupo_950290" data-name="Grupo 950290" transform="translate(33.128 83.404)">
            <path id="Trazado_636024" data-name="Trazado 636024" d="M610.651,1457.137a22.253,22.253,0,0,1-1.552-1.945,30.364,30.364,0,0,0-9.059-7.65,22.192,22.192,0,0,1-2.178-1.205,9.071,9.071,0,0,1,2.335.9,24.948,24.948,0,0,1,9.173,7.747A9.056,9.056,0,0,1,610.651,1457.137Z" transform="translate(-597.861 -1446.331)" fill="#263238"/>
          </g>
          <g id="Grupo_950291" data-name="Grupo 950291" transform="translate(151.445 21.174)">
            <path id="Trazado_636025" data-name="Trazado 636025" d="M730.933,1458.039a4.986,4.986,0,0,1-.124-.8q-.1-.851-.26-2.3c-.213-2-.5-4.885-.807-8.46-.63-7.149-1.359-17.037-2.008-27.967s-1.1-20.838-1.358-28.01c-.134-3.585-.219-6.488-.263-8.494q-.024-1.455-.039-2.311a5.181,5.181,0,0,1,.019-.807,4.945,4.945,0,0,1,.078.8q.048.856.129,2.307c.1,2.05.241,4.937.415,8.486.346,7.167.852,17.066,1.5,28s1.323,20.814,1.867,27.967c.274,3.543.5,6.425.655,8.472q.108,1.451.171,2.3A5.107,5.107,0,0,1,730.933,1458.039Z" transform="translate(-726.073 -1378.896)" fill="#263238"/>
          </g>
          <g id="Grupo_950292" data-name="Grupo 950292" transform="translate(76.838 22.838)">
            <path id="Trazado_636026" data-name="Trazado 636026" d="M655.229,1405.716a7.716,7.716,0,0,1,.1-1.26c.106-.88.247-2.052.422-3.491l1.6-12.051.358.22-5.971,4.18-6.074,4.225-.438.3.08-.525c.734-4.791,1.366-8.926,1.827-11.943.235-1.421.426-2.577.569-3.445a7.68,7.68,0,0,1,.257-1.229,7.735,7.735,0,0,1-.105,1.251c-.111.873-.258,2.035-.437,3.463-.419,3.025-.993,7.169-1.657,11.969l-.357-.221,6.061-4.244,5.984-4.162.435-.3-.077.522c-.711,4.822-1.324,8.986-1.773,12.027-.228,1.432-.413,2.6-.554,3.473A7.788,7.788,0,0,1,655.229,1405.716Z" transform="translate(-645.227 -1380.7)" fill="#e0e0e0"/>
          </g>
          <g id="Grupo_950293" data-name="Grupo 950293" transform="translate(97.683 38.524)">
            <path id="Trazado_636027" data-name="Trazado 636027" d="M691.7,1410.771a7.659,7.659,0,0,1-.906-.882l-2.415-2.555-8.244-8.935.4-.135c-.187,2.262-.39,4.716-.6,7.264-.222,2.588-.437,5.078-.634,7.372l-.045.531-.352-.4-8.018-9.04c-.942-1.088-1.709-1.973-2.285-2.639a7.716,7.716,0,0,1-.782-.983,7.77,7.77,0,0,1,.9.88l2.384,2.551,8.146,8.926-.4.133c.19-2.294.4-4.786.611-7.373.219-2.547.43-5,.624-7.262l.045-.528.353.393,8.117,9.05,2.316,2.646A8.029,8.029,0,0,1,691.7,1410.771Z" transform="translate(-667.815 -1397.697)" fill="#e0e0e0"/>
          </g>
          <g id="Grupo_950294" data-name="Grupo 950294" transform="translate(129.298 50.361)">
            <path id="Trazado_636028" data-name="Trazado 636028" d="M711.826,1410.525a7.7,7.7,0,0,1-.627,1.1c-.471.751-1.1,1.75-1.869,2.978-1.664,2.585-3.943,6.124-6.583,10.221l-.23-.351,7.182-1.239L717,1422l.525-.089-.3.441-6.74,10.027-1.982,2.875a7.689,7.689,0,0,1-.756,1,7.735,7.735,0,0,1,.628-1.087c.472-.743,1.1-1.732,1.872-2.948l6.6-10.122.229.352-7.291,1.258-7.186,1.217-.522.089.292-.44,6.727-10.127,1.979-2.905A7.91,7.91,0,0,1,711.826,1410.525Z" transform="translate(-702.074 -1410.525)" fill="#e0e0e0"/>
          </g>
          <g id="Grupo_950295" data-name="Grupo 950295" transform="translate(106.053 68.242)">
            <path id="Trazado_636029" data-name="Trazado 636029" d="M686.638,1429.9a7.679,7.679,0,0,1-.627,1.1l-1.869,2.978-6.582,10.221-.23-.352,7.182-1.238,7.295-1.236.526-.089-.3.44-6.74,10.028c-.818,1.185-1.483,2.149-1.982,2.875a7.7,7.7,0,0,1-.756,1,7.735,7.735,0,0,1,.628-1.087c.472-.743,1.1-1.732,1.871-2.948l6.6-10.122.23.352-7.291,1.258-7.187,1.217-.522.089.293-.44c2.7-4.06,5.026-7.566,6.726-10.127l1.98-2.905A7.851,7.851,0,0,1,686.638,1429.9Z" transform="translate(-676.885 -1429.901)" fill="#e0e0e0"/>
          </g>
          <g id="Grupo_950296" data-name="Grupo 950296" transform="translate(156.275 50.108)">
            <path id="Trazado_636030" data-name="Trazado 636030" d="M741.06,1410.25a7.911,7.911,0,0,1-.627,1.1l-1.869,2.978c-1.665,2.584-3.944,6.124-6.583,10.221l-.231-.352,7.183-1.239,7.295-1.236.525-.089-.3.44c-2.7,4.023-5.037,7.494-6.74,10.028l-1.982,2.875a7.765,7.765,0,0,1-.755,1,7.665,7.665,0,0,1,.628-1.087c.472-.743,1.1-1.732,1.871-2.947l6.6-10.123.229.352-7.291,1.258-7.186,1.217-.522.089.292-.44,6.726-10.127,1.979-2.905A7.809,7.809,0,0,1,741.06,1410.25Z" transform="translate(-731.307 -1410.25)" fill="#e0e0e0"/>
          </g>
          <g id="Grupo_950297" data-name="Grupo 950297" transform="translate(38.662 35.336)">
            <path id="Trazado_636031" data-name="Trazado 636031" d="M613.611,1394.243a7.672,7.672,0,0,1-.627,1.1l-1.869,2.978-6.583,10.221-.23-.352,7.182-1.238,7.295-1.236.526-.089-.3.44-6.74,10.028-1.982,2.874a7.662,7.662,0,0,1-.756,1,7.729,7.729,0,0,1,.628-1.087c.472-.744,1.1-1.732,1.872-2.948l6.6-10.122.23.352-7.291,1.258-7.187,1.217-.522.089.293-.44c2.7-4.059,5.026-7.566,6.726-10.127l1.98-2.905A7.771,7.771,0,0,1,613.611,1394.243Z" transform="translate(-603.858 -1394.243)" fill="#e0e0e0"/>
          </g>
          <g id="Grupo_950298" data-name="Grupo 950298" transform="translate(11.931 102.463)">
            <path id="Trazado_636032" data-name="Trazado 636032" d="M574.893,1468.859a7.733,7.733,0,0,1,.849.938l2.251,2.7,7.67,9.433-.405.109c.328-2.246.684-4.682,1.054-7.212.384-2.568.753-5.041,1.093-7.318l.079-.527.327.419,7.437,9.523,2.116,2.777a7.746,7.746,0,0,1,.718,1.03,7.6,7.6,0,0,1-.838-.935l-2.22-2.695-7.572-9.416.406-.109-1.07,7.321-1.076,7.209-.078.524-.328-.414-7.535-9.54c-.886-1.148-1.606-2.083-2.146-2.784A7.75,7.75,0,0,1,574.893,1468.859Z" transform="translate(-574.892 -1466.983)" fill="#e0e0e0"/>
          </g>
          <g id="Grupo_950299" data-name="Grupo 950299" transform="translate(72.264 59.644)">
            <path id="Trazado_636033" data-name="Trazado 636033" d="M663.263,1420.6a7.838,7.838,0,0,1-1.254.161l-3.5.3-12.123.9.141-.395,5.316,4.986,5.381,5.078.388.366-.531.029-12.064.662-3.488.149a7.615,7.615,0,0,1-1.256,0,7.709,7.709,0,0,1,1.246-.153l3.481-.282,12.054-.833-.143.4-5.4-5.062-5.3-5-.386-.364.527-.031,12.135-.733,3.512-.171A7.889,7.889,0,0,1,663.263,1420.6Z" transform="translate(-640.27 -1420.583)" fill="#e0e0e0"/>
          </g>
          <g id="Grupo_950300" data-name="Grupo 950300" transform="translate(74.807 104.051)">
            <path id="Trazado_636034" data-name="Trazado 636034" d="M643.027,1470.827a7.855,7.855,0,0,1,.868.92l2.3,2.658,7.852,9.28-.4.118c.284-2.253.593-4.7.914-7.231.333-2.576.653-5.055.949-7.338l.068-.529.335.413,7.622,9.376,2.17,2.734a7.554,7.554,0,0,1,.738,1.016,7.847,7.847,0,0,1-.856-.918l-2.272-2.651-7.755-9.266.4-.116c-.288,2.284-.6,4.765-.927,7.341-.328,2.535-.644,4.977-.935,7.229l-.068.525-.335-.408-7.721-9.391-2.2-2.742A7.768,7.768,0,0,1,643.027,1470.827Z" transform="translate(-643.026 -1468.704)" fill="#e0e0e0"/>
          </g>
          <g id="Grupo_950301" data-name="Grupo 950301" transform="translate(15.269 72.044)">
            <path id="Trazado_636035" data-name="Trazado 636035" d="M601.5,1434.039a7.838,7.838,0,0,1-1.255.161l-3.5.3-12.124.9.142-.4,5.315,4.987,5.381,5.078.388.365-.531.03-12.065.662-3.488.15a7.713,7.713,0,0,1-1.255,0,7.77,7.77,0,0,1,1.246-.154l3.48-.281,12.054-.833-.142.4-5.4-5.062-5.3-5-.386-.364.527-.032,12.135-.732,3.511-.171A7.748,7.748,0,0,1,601.5,1434.039Z" transform="translate(-578.509 -1434.021)" fill="#e0e0e0"/>
          </g>
          <g id="Grupo_950302" data-name="Grupo 950302" transform="translate(46.667 105.108)">
            <path id="Trazado_636036" data-name="Trazado 636036" d="M635.525,1469.868a7.871,7.871,0,0,1-1.254.161l-3.5.3-12.123.9.141-.4c1.656,1.553,3.451,3.238,5.316,4.986l5.381,5.079.388.365-.531.03-12.064.661-3.488.15a7.728,7.728,0,0,1-1.256,0,7.756,7.756,0,0,1,1.246-.154l3.48-.281,12.055-.833-.143.4-5.4-5.062-5.3-5-.386-.364.527-.032,12.135-.733,3.512-.17A7.71,7.71,0,0,1,635.525,1469.868Z" transform="translate(-612.532 -1469.85)" fill="#e0e0e0"/>
          </g>
          <g id="Grupo_950303" data-name="Grupo 950303" transform="translate(117.549 20.986)">
            <path id="Trazado_636037" data-name="Trazado 636037" d="M712.335,1378.71a7.692,7.692,0,0,1-1.254.161l-3.5.3-12.123.9.141-.4,5.316,4.986,5.381,5.078.388.366-.53.029-12.065.662-3.488.149a7.822,7.822,0,0,1-1.256,0,7.666,7.666,0,0,1,1.247-.154l3.48-.282,12.054-.833-.143.394-5.4-5.062-5.3-5-.385-.364.527-.031,12.134-.733,3.512-.17A7.826,7.826,0,0,1,712.335,1378.71Z" transform="translate(-689.342 -1378.692)" fill="#e0e0e0"/>
          </g>
        </g>
        <g id="Grupo_950308" data-name="Grupo 950308" transform="translate(103.968 199.126)">
          <path id="Trazado_636038" data-name="Trazado 636038" d="M676.722,1469.382s15.527-4.473,20.665-5.783c2-.511,10.579,4.013,16.5,7.775,0,0,8.159,4.837,7.5,6.327-.726,1.64-3.735,1.3-8.531-.951,0,0,1.673,4.86-1.612,4.755,0,0,1.63,5.253-1.45,5.8s-3.8-6.159-6.521-6.521-8.332-.724-8.332-.724-4.676,7.743-8.3,8.287-12.018-.436-12.018-.436Z" transform="translate(-674.625 -1463.559)" fill="#ffbf9d"/>
          <g id="Grupo_950305" data-name="Grupo 950305" transform="translate(28.595 6.886)">
            <path id="Trazado_636039" data-name="Trazado 636039" d="M705.614,1471.028a51.65,51.65,0,0,1,8.417,5.309,51.693,51.693,0,0,1-8.417-5.309Z" transform="translate(-705.612 -1471.021)" fill="#ff9a6c"/>
          </g>
          <g id="Grupo_950306" data-name="Grupo 950306" transform="translate(27.677 9.869)">
            <path id="Trazado_636040" data-name="Trazado 636040" d="M704.618,1474.264a64.437,64.437,0,0,1,10.1,4.659,64.414,64.414,0,0,1-10.1-4.659Z" transform="translate(-704.617 -1474.254)" fill="#ff9a6c"/>
          </g>
          <g id="Grupo_950307" data-name="Grupo 950307" transform="translate(29.34 17.063)">
            <path id="Trazado_636041" data-name="Trazado 636041" d="M706.419,1482.105a25.613,25.613,0,0,1,6.944.951,25.716,25.716,0,0,1-6.944-.951Z" transform="translate(-706.419 -1482.049)" fill="#ff9a6c"/>
          </g>
        </g>
        <g id="Grupo_950339" data-name="Grupo 950339" transform="translate(73.072)">
          <g id="Grupo_950333" data-name="Grupo 950333">
            <path id="Trazado_636042" data-name="Trazado 636042" d="M653.941,1292.57a3.191,3.191,0,0,1-4.5,3.773c-2.1-1.067-2.371-3.969-1.956-6.292s1.2-4.8.229-6.949c-.745-1.644-2.359-2.685-3.617-3.978a10.183,10.183,0,0,1-2.828-8.636,8.56,8.56,0,0,1,5.885-6.731c3.091-.864,6.9.086,9.2-2.152,1.668-1.621,1.77-4.279,3.06-6.214,2-3,6.239-3.482,9.817-2.993s7.221,1.637,10.726.765c2.927-.728,5.329-2.772,8.072-4.027a15.808,15.808,0,0,1,20.583,21.7,10.1,10.1,0,0,1-4.9,4.852" transform="translate(-641.146 -1247.78)" fill="#263238"/>
            <g id="Grupo_950324" data-name="Grupo 950324" transform="translate(11.733 18.647)">
              <g id="Grupo_950323" data-name="Grupo 950323">
                <g id="Grupo_950322" data-name="Grupo 950322">
                  <g id="Grupo_950309" data-name="Grupo 950309">
                    <path id="Trazado_636043" data-name="Trazado 636043" d="M672.729,1370.354h0a17.791,17.791,0,0,0,17.77-18.036l-.234-16.966s14.252-1.428,15.2-15.547.262-46.7.262-46.7h0a49.178,49.178,0,0,0-49.68,3.514l-2.182,1.5,1.062,74.7A17.79,17.79,0,0,0,672.729,1370.354Z" transform="translate(-653.86 -1267.987)" fill="#ffbf9d"/>
                  </g>
                  <g id="Grupo_950313" data-name="Grupo 950313" transform="translate(43.745 23.976)">
                    <g id="Grupo_950310" data-name="Grupo 950310" transform="translate(2.502 2.501)">
                      <path id="Trazado_636044" data-name="Trazado 636044" d="M705.846,1300.9a2.114,2.114,0,0,1,.024-4.2.954.954,0,0,1,.343,0,2.114,2.114,0,0,1-.023,4.2A.94.94,0,0,1,705.846,1300.9Z" transform="translate(-703.974 -1296.679)" fill="#263238"/>
                    </g>
                    <g id="Grupo_950312" data-name="Grupo 950312">
                      <g id="Grupo_950311" data-name="Grupo 950311">
                        <path id="Trazado_636045" data-name="Trazado 636045" d="M708.408,1296.179c-.234.233-1.564-.911-3.509-1.026-1.944-.144-3.414.813-3.615.552-.1-.117.146-.546.787-.982a4.806,4.806,0,0,1,5.686.379C708.336,1295.619,708.521,1296.077,708.408,1296.179Z" transform="translate(-701.263 -1293.968)" fill="#263238"/>
                      </g>
                    </g>
                  </g>
                  <g id="Grupo_950317" data-name="Grupo 950317" transform="translate(22.514 24.538)">
                    <g id="Grupo_950314" data-name="Grupo 950314" transform="translate(2.638 1.758)">
                      <path id="Trazado_636046" data-name="Trazado 636046" d="M684.34,1296.848a2.055,2.055,0,1,1-2.86.519A2.055,2.055,0,0,1,684.34,1296.848Z" transform="translate(-681.115 -1296.482)" fill="#263238"/>
                    </g>
                    <g id="Grupo_950316" data-name="Grupo 950316">
                      <g id="Grupo_950315" data-name="Grupo 950315">
                        <path id="Trazado_636047" data-name="Trazado 636047" d="M685.4,1296.788c-.235.233-1.564-.911-3.51-1.025-1.943-.145-3.413.812-3.614.551-.1-.117.145-.546.787-.981a4.8,4.8,0,0,1,5.686.378C685.33,1296.228,685.515,1296.686,685.4,1296.788Z" transform="translate(-678.257 -1294.577)" fill="#263238"/>
                      </g>
                    </g>
                  </g>
                  <g id="Grupo_950319" data-name="Grupo 950319" transform="translate(36.324 26.247)">
                    <g id="Grupo_950318" data-name="Grupo 950318">
                      <path id="Trazado_636048" data-name="Trazado 636048" d="M693.485,1313.411c0-.153,1.212-.331,3.184-.5.512-.028.917-.121.969-.392a2.769,2.769,0,0,0-.284-1.478l-1.324-4.038c-1.819-5.75-3.056-10.484-2.765-10.576s2,4.492,3.822,10.242c.427,1.4.836,2.742,1.24,4.065a3.254,3.254,0,0,1,.162,2.131,1.337,1.337,0,0,1-.921.765,3.266,3.266,0,0,1-.875.065C694.716,1313.663,693.491,1313.564,693.485,1313.411Z" transform="translate(-693.222 -1296.43)" fill="#263238"/>
                    </g>
                  </g>
                  <g id="Grupo_950320" data-name="Grupo 950320" transform="translate(29.982 45.034)">
                    <path id="Trazado_636049" data-name="Trazado 636049" d="M686.515,1316.787a36.518,36.518,0,0,0,9.393,3.294,5.386,5.386,0,0,1-6.463,1.795C685.3,1320.1,686.515,1316.787,686.515,1316.787Z" transform="translate(-686.349 -1316.787)" fill="#fff"/>
                  </g>
                  <g id="Grupo_950321" data-name="Grupo 950321" transform="translate(18.303 60.924)">
                    <path id="Trazado_636050" data-name="Trazado 636050" d="M691.829,1340.245a32.9,32.9,0,0,1-18.135-6.239s3.8,10.407,17.968,9.9Z" transform="translate(-673.694 -1334.006)" fill="#ff9a6c"/>
                  </g>
                </g>
              </g>
            </g>
            <path id="Trazado_636051" data-name="Trazado 636051" d="M705.521,1276.366s-8.528,4.334-19.84-1.039c-7.423-3.526-16.028-5.152-17.888-3.638s-2.111,9.1-9.352,11.451c0,0,.782,14.443-4.991,14.04s-2.607-22.859-2.607-22.859l13.964-7.159,15.327-3.206,14.535,1.763,11.275,2.853Z" transform="translate(-641.827 -1249.029)" fill="#263238"/>
            <g id="Grupo_950328" data-name="Grupo 950328" transform="translate(2.904 42.88)">
              <g id="Grupo_950325" data-name="Grupo 950325">
                <path id="Trazado_636052" data-name="Trazado 636052" d="M654.066,1294.875c-.235-.117-9.552-3.4-9.77,6.276s9.542,7.9,9.566,7.623S654.066,1294.875,654.066,1294.875Z" transform="translate(-644.292 -1294.246)" fill="#ffbf9d"/>
              </g>
              <g id="Grupo_950327" data-name="Grupo 950327" transform="translate(2.455 3.098)">
                <g id="Grupo_950326" data-name="Grupo 950326">
                  <path id="Trazado_636053" data-name="Trazado 636053" d="M651.193,1305.3c-.042-.032-.171.115-.459.239a1.69,1.69,0,0,1-1.261,0c-1.013-.4-1.838-2.04-1.846-3.785a5.555,5.555,0,0,1,.526-2.4,1.951,1.951,0,0,1,1.3-1.266.859.859,0,0,1,.984.484c.124.274.058.466.109.484.027.025.211-.158.143-.559a1.077,1.077,0,0,0-.367-.615,1.277,1.277,0,0,0-.927-.268,2.371,2.371,0,0,0-1.794,1.461,5.72,5.72,0,0,0-.645,2.684c.018,1.951.975,3.8,2.365,4.234a1.808,1.808,0,0,0,1.548-.221C651.17,1305.534,651.227,1305.319,651.193,1305.3Z" transform="translate(-646.953 -1297.603)" fill="#ff9a6c"/>
                </g>
              </g>
            </g>
            <g id="Grupo_950329" data-name="Grupo 950329" transform="translate(7.749 12.964)">
              <path id="Trazado_636054" data-name="Trazado 636054" d="M649.544,1262.079a5.34,5.34,0,0,1,5.975,2.229,9.116,9.116,0,0,0-5.975-2.229Z" transform="translate(-649.543 -1261.828)" fill="#263238"/>
            </g>
            <g id="Grupo_950330" data-name="Grupo 950330" transform="translate(13.214 7.419)">
              <path id="Trazado_636055" data-name="Trazado 636055" d="M655.822,1255.82c.17.01-.1,2.04.242,4.461a19.216,19.216,0,0,0,1.351,4.216c-.045.032-.4-.344-.811-1.069a9.1,9.1,0,0,1-1.015-3.076A10.076,10.076,0,0,1,655.822,1255.82Z" transform="translate(-655.465 -1255.82)" fill="#263238"/>
            </g>
            <g id="Grupo_950331" data-name="Grupo 950331" transform="translate(53.329 38.837)">
              <path id="Trazado_636056" data-name="Trazado 636056" d="M698.939,1291.215c-.052-.114.363-.447,1.148-.768a8.838,8.838,0,0,1,6.476.065c.778.336,1.186.677,1.132.79-.119.256-1.982-.472-4.374-.476C700.93,1290.783,699.052,1291.474,698.939,1291.215Z" transform="translate(-698.934 -1289.865)" fill="#263238"/>
            </g>
            <g id="Grupo_950332" data-name="Grupo 950332" transform="translate(31.751 36.801)">
              <path id="Trazado_636057" data-name="Trazado 636057" d="M675.556,1289.009c-.051-.113.364-.447,1.149-.768a8.836,8.836,0,0,1,6.475.065c.779.336,1.187.677,1.133.79-.119.257-1.983-.472-4.375-.476C677.548,1288.577,675.669,1289.267,675.556,1289.009Z" transform="translate(-675.552 -1287.659)" fill="#263238"/>
            </g>
          </g>
          <g id="Grupo_950338" data-name="Grupo 950338" transform="translate(11.397 41.006)">
            <g id="Grupo_950334" data-name="Grupo 950334" transform="translate(40.13 0.477)">
              <path id="Trazado_636058" data-name="Trazado 636058" d="M697.121,1292.957a4.032,4.032,0,0,1,.037.573c.013.41.028.926.047,1.561.014.686.031,1.5.05,2.422a9.2,9.2,0,0,0,.46,3.138,8.407,8.407,0,0,0,2.04,3.224,8.216,8.216,0,0,0,3.814,2.095,7.775,7.775,0,0,0,2.361.207,7.573,7.573,0,0,0,2.414-.509,8.137,8.137,0,0,0,3.98-3.22,8.289,8.289,0,0,0,1.3-4.724c0-1.651.008-3.246.012-4.767l.223.222-11.975-.109-3.477-.06-.941-.028a1.836,1.836,0,0,1-.342-.027,9.871,9.871,0,0,1,1.186-.053l3.427-.061,12.123-.108.222,0v.226c0,1.522.008,3.116.013,4.767a8.735,8.735,0,0,1-1.365,4.984,8.569,8.569,0,0,1-4.219,3.4,8.018,8.018,0,0,1-2.555.527,8.233,8.233,0,0,1-2.489-.234,8.573,8.573,0,0,1-3.989-2.242,8.671,8.671,0,0,1-2.083-3.4,9.264,9.264,0,0,1-.406-3.268q.029-1.427.051-2.485c.018-.626.034-1.136.046-1.54A2.744,2.744,0,0,1,697.121,1292.957Z" transform="translate(-696.982 -1292.732)" fill="#263238"/>
            </g>
            <g id="Grupo_950335" data-name="Grupo 950335" transform="translate(17.505)">
              <path id="Trazado_636059" data-name="Trazado 636059" d="M672.605,1292.44a4.189,4.189,0,0,1,.037.572l.046,1.562q.022,1.03.051,2.422a9.193,9.193,0,0,0,.46,3.139,8.409,8.409,0,0,0,2.039,3.225,8.219,8.219,0,0,0,3.815,2.095,7.83,7.83,0,0,0,2.36.207,7.6,7.6,0,0,0,2.415-.509,8.136,8.136,0,0,0,3.979-3.22,8.286,8.286,0,0,0,1.3-4.724c0-1.651.008-3.246.013-4.768l.223.223-11.976-.109-3.477-.06-.94-.028a1.93,1.93,0,0,1-.342-.027,9.819,9.819,0,0,1,1.186-.053l3.426-.061,12.124-.109.222,0v.225c0,1.523.008,3.117.013,4.768a8.722,8.722,0,0,1-1.365,4.984,8.572,8.572,0,0,1-4.218,3.4,8.016,8.016,0,0,1-2.555.526,8.161,8.161,0,0,1-2.489-.234,8.57,8.57,0,0,1-3.99-2.242,8.67,8.67,0,0,1-2.083-3.4,9.261,9.261,0,0,1-.405-3.268c.019-.952.036-1.782.05-2.485.019-.627.035-1.136.047-1.54A2.621,2.621,0,0,1,672.605,1292.44Z" transform="translate(-672.465 -1292.215)" fill="#263238"/>
            </g>
            <g id="Grupo_950336" data-name="Grupo 950336" transform="translate(34.101 1.135)">
              <path id="Trazado_636060" data-name="Trazado 636060" d="M696.821,1293.685a21.194,21.194,0,0,1-6.372,0,21.269,21.269,0,0,1,6.372,0Z" transform="translate(-690.449 -1293.445)" fill="#263238"/>
            </g>
            <g id="Grupo_950337" data-name="Grupo 950337" transform="translate(0 1.233)">
              <path id="Trazado_636061" data-name="Trazado 636061" d="M653.5,1293.82a162.31,162.31,0,0,1,17.646-.053,161.819,161.819,0,0,1-17.646.053Z" transform="translate(-653.496 -1293.552)" fill="#263238"/>
            </g>
          </g>
        </g>
      </g>
      <g id="Grupo_950348" data-name="Grupo 950348" transform="translate(758.684 1288.148)">
        <g id="Grupo_950345" data-name="Grupo 950345">
          <g id="Grupo_950342" data-name="Grupo 950342">
            <g id="Grupo_950341" data-name="Grupo 950341">
              <path id="Trazado_636062" data-name="Trazado 636062" d="M840.514,1305.44l-27.472-9.865-27.2,9.732c-3.473,1.641-6.52,2.623-6.52,5.858v16.109a60.877,60.877,0,0,0,8.962,32.059,55.785,55.785,0,0,0,25.03,22.105c11.12-3.612,19.42-13.242,24.495-21.477a60.877,60.877,0,0,0,8.962-32.059v-14.487C846.767,1308.8,844.322,1306.549,840.514,1305.44Z" transform="translate(-779.319 -1295.575)" fill="#45bbcc"/>
            </g>
          </g>
          <g id="Grupo_950343" data-name="Grupo 950343" opacity="0.3">
            <path id="Trazado_636063" data-name="Trazado 636063" d="M813.31,1372.09a44.367,44.367,0,0,1-19.8-17.633,48.17,48.17,0,0,1-7.09-25.365v-11.3c0-2.56,1.544-4.957,4.61-6.389l22.02-8.233-.006-7.6-27.2,9.732c-2.856,1.248-6.52,2.623-6.52,5.858v16.109a60.877,60.877,0,0,0,8.962,32.059,55.785,55.785,0,0,0,25.03,22.105Z" transform="translate(-779.319 -1295.575)"/>
          </g>
          <g id="Grupo_950344" data-name="Grupo 950344" transform="translate(33.724)" opacity="0.4">
            <path id="Trazado_636064" data-name="Trazado 636064" d="M816.131,1381.438a33.069,33.069,0,0,0,5.4-2.314,48.452,48.452,0,0,0,11.421-8.985,61.548,61.548,0,0,0,7.945-10.673,58.605,58.605,0,0,0,8.694-32.368l.017-13.3c-.017-6.622-3.413-7.11-6.269-8.358l-27.472-9.865.006,7.6,22.277,8.366c3.067,1.431,4.61,3.829,4.61,6.389v11.3a48.169,48.169,0,0,1-7.09,25.364,43.367,43.367,0,0,1-19.535,17.5Z" transform="translate(-815.863 -1295.575)"/>
          </g>
        </g>
        <path id="Trazado_636065" data-name="Trazado 636065" d="M822.283,1330.333l.031-2.174a7.133,7.133,0,0,0-14.265-.011l-.031,2.215a3.989,3.989,0,0,0-3.4,3.943v12.823a3.991,3.991,0,0,0,3.991,3.991h13.313a3.992,3.992,0,0,0,3.991-3.991v-12.823A3.991,3.991,0,0,0,822.283,1330.333Zm-5.2,13.6H813.6l.544-2.515a2.121,2.121,0,1,1,2.3-.04C816.692,1342.357,817.083,1343.937,817.083,1343.937Zm3.664-13.623H809.555l.03-2.156a5.6,5.6,0,0,1,11.191-.011Z" transform="translate(-781.271 -1297.539)" fill="#fff" opacity="0.5"/>
        <g id="Grupo_950346" data-name="Grupo 950346" transform="translate(10.898 18.134)">
          <path id="Trazado_636066" data-name="Trazado 636066" d="M791.781,1329.728a8.717,8.717,0,0,1-.413-2.23,38.351,38.351,0,0,1-.222-5.47c.03-1.07.1-2.088.2-3.009a6.452,6.452,0,0,1,.615-2.432,2.789,2.789,0,0,1,1.2-1.209c.373-.172.605-.165.609-.138a3.106,3.106,0,0,0-1.508,1.5,6.7,6.7,0,0,0-.477,2.319c-.072.915-.128,1.923-.159,2.983-.063,2.118,0,4.037.081,5.426A13.516,13.516,0,0,1,791.781,1329.728Z" transform="translate(-791.128 -1315.225)" fill="#fff"/>
        </g>
        <g id="Grupo_950347" data-name="Grupo 950347" transform="translate(11.682 36.683)">
          <path id="Trazado_636067" data-name="Trazado 636067" d="M792.249,1338.292c-.133,0-.253-.66-.269-1.479s.078-1.485.211-1.488.254.659.269,1.478S792.382,1338.289,792.249,1338.292Z" transform="translate(-791.978 -1335.326)" fill="#fff"/>
        </g>
      </g>
      <g id="Grupo_950349" data-name="Grupo 950349" transform="translate(655.786 1394.226)">
        <path id="Trazado_636068" data-name="Trazado 636068" d="M753.684,1410.525l-30.633,75.753H667.816v3.42H832.333l33.651-79.173Z" transform="translate(-667.816 -1410.525)" fill="#263238"/>
        <path id="Trazado_636069" data-name="Trazado 636069" d="M810.7,1458.271c-1.11,3.812-4.342,6.224-7.219,5.387s-4.31-4.608-3.2-8.42,4.342-6.224,7.219-5.387S811.811,1454.458,810.7,1458.271Z" transform="translate(-678.01 -1413.547)" fill="#fafafa"/>
      </g>
    </g>
  </g>
</svg>
