<svg xmlns="http://www.w3.org/2000/svg" width="179.97" height="178" viewBox="0 0 179.97 178">
  <g id="administracion_1_" data-name="administracion(1)" transform="translate(0 -2.802)">
    <path id="Trazado_657486" data-name="Trazado 657486" d="M59.455,337.719l-6.725,4.6a3.212,3.212,0,0,1-5.025-2.652v-9.492H25.458A17.865,17.865,0,0,0,7.5,347.9v23.3a1.926,1.926,0,0,0,1.927,1.926H57.81l8.583-28.47Z" transform="translate(-4.864 -212.298)" fill="#e6e1fb"/>
    <path id="Trazado_657487" data-name="Trazado 657487" d="M242.047,358.606l-.179-.7-8.033-1.719a2.339,2.339,0,0,1-1.85-2.288v-5.485a2.338,2.338,0,0,1,1.85-2.288l8.033-1.719.179-.7a29.985,29.985,0,0,1,3.3-7.956l.372-.624-3.2-4.948H224.2v9.492a3.212,3.212,0,0,1-5.025,2.652l-6.725-4.6-6.939,6.939,8.583,28.47h27.774l3.847-5.941-.372-.624A30,30,0,0,1,242.047,358.606Z" transform="translate(-133.275 -212.298)" fill="#e6e1fb"/>
    <path id="Trazado_657488" data-name="Trazado 657488" d="M22.241,371.2V347.9A17.865,17.865,0,0,1,40.2,330.172H25.458A17.865,17.865,0,0,0,7.5,347.9v23.3a1.926,1.926,0,0,0,1.927,1.926H24.168A1.926,1.926,0,0,1,22.241,371.2Z" transform="translate(-4.864 -212.298)" fill="#c4baf5"/>
    <path id="Trazado_657489" data-name="Trazado 657489" d="M169.921,371.383l-2.869,2.869a3.526,3.526,0,0,1-4.971,0l-2.869-2.869-8.583,28.47H178.5Z" transform="translate(-97.682 -239.023)" fill="#0592fb"/>
    <path id="Trazado_657490" data-name="Trazado 657490" d="M167.052,374.252a3.526,3.526,0,0,1-4.971,0l-2.869-2.869-8.583,28.47h10.92l8.478-28.119-.106-.35Z" transform="translate(-97.682 -239.023)" fill="#0181fb"/>
    <path id="Trazado_657491" data-name="Trazado 657491" d="M167.6,327.737l-12.294,8.4,9.808,9.808a3.526,3.526,0,0,0,4.971,0l9.808-9.808Z" transform="translate(-100.715 -210.719)" fill="#0592fb"/>
    <path id="Trazado_657492" data-name="Trazado 657492" d="M164.359,334.04l-9.052,6.188,9.808,9.808a3.526,3.526,0,0,0,4.971,0l2.974-2.974-8.4-8.4a3.524,3.524,0,0,1-.3-4.621Z" transform="translate(-100.716 -214.806)" fill="#0181fb"/>
    <path id="Trazado_657493" data-name="Trazado 657493" d="M150.649,315.158H141.2a35.975,35.975,0,0,1-19.317-5.581v16.732a3.212,3.212,0,0,0,5.025,2.652l19.019-13,19.018,13a3.212,3.212,0,0,0,5.025-2.652V309.576A35.975,35.975,0,0,1,150.649,315.158Z" transform="translate(-79.038 -198.942)" fill="#c7eefd"/>
    <path id="Trazado_657494" data-name="Trazado 657494" d="M115.437,10.3c-22.406,0-40.569,8.231-40.569,30.294V62.069c.044-22,18.19-30.215,40.568-30.215,22.405,0,40.567,8.232,40.567,30.294v2c0-.018,0-.036,0-.053V40.6C156,18.533,137.842,10.3,115.437,10.3Z" transform="translate(-48.552 -4.864)" fill="#c76d36"/>
    <path id="Trazado_657495" data-name="Trazado 657495" d="M85.834,39.357c.614-19.347,15.668-27.622,35.076-28.881q-2.685-.175-5.471-.174c-22.406,0-40.569,8.231-40.569,30.294V62.069C74.89,51.548,79.051,44.182,85.834,39.357Z" transform="translate(-48.552 -4.864)" fill="#ab5e2e"/>
    <g id="Grupo_957501" data-name="Grupo 957501" transform="translate(13.331 26.991)">
      <path id="Trazado_657496" data-name="Trazado 657496" d="M50.911,191.037V172.816H45.383a7.377,7.377,0,0,0-7.456,7.294v8.829a7.377,7.377,0,0,0,7.456,7.294H51.3a35.3,35.3,0,0,1-.385-5.2Z" transform="translate(-37.927 -137.244)" fill="#fdd1a3"/>
      <path id="Trazado_657497" data-name="Trazado 657497" d="M310.512,172.815h-5.53v18.221a35.3,35.3,0,0,1-.385,5.2h5.915a7.376,7.376,0,0,0,7.455-7.294v-8.829A7.377,7.377,0,0,0,310.512,172.815Z" transform="translate(-210.861 -137.243)" fill="#fdd1a3"/>
      <path id="Trazado_657498" data-name="Trazado 657498" d="M115.434,71.617c-22.406,0-40.569,8.232-40.569,30.294v23.5a35.64,35.64,0,0,0,35.843,35.432h9.453A35.639,35.639,0,0,0,156,125.41v-23.5C156,79.849,137.84,71.617,115.434,71.617Z" transform="translate(-61.881 -71.617)" fill="#fdd1a3"/>
    </g>
    <path id="Trazado_657499" data-name="Trazado 657499" d="M85.81,125.41v-23.5c0-20.235,15.28-28.834,35.1-30.12q-2.685-.175-5.472-.174c-22.406,0-40.569,8.232-40.569,30.294v23.5a35.64,35.64,0,0,0,35.843,35.432h9.453c.249,0,.5,0,.745-.009A35.63,35.63,0,0,1,85.81,125.41Z" transform="translate(-48.55 -44.626)" fill="#ffbb85"/>
    <path id="Trazado_657500" data-name="Trazado 657500" d="M356.84,334.622a19.417,19.417,0,1,0,19.417,19.417A19.439,19.439,0,0,0,356.84,334.622Z" transform="translate(-218.817 -215.184)" fill="#5a5a5a"/>
    <circle id="Elipse_5665" data-name="Elipse 5665" cx="10.761" cy="10.761" r="10.761" transform="translate(127.261 128.094)" fill="#9b9b9b"/>
    <path id="Trazado_657501" data-name="Trazado 657501" d="M370.036,370.008a10.763,10.763,0,0,1,6.768-9.993,10.761,10.761,0,1,0,0,19.985A10.762,10.762,0,0,1,370.036,370.008Z" transform="translate(-234.787 -231.153)" fill="#828282"/>
    <path id="Trazado_657502" data-name="Trazado 657502" d="M317.393,356.646a2.338,2.338,0,0,1-2.288-1.85l-1.719-8.033-.7-.179a29.977,29.977,0,0,1-7.956-3.3l-.625-.372-6.9,4.467a2.338,2.338,0,0,1-2.925-.31l-3.879-3.879a2.339,2.339,0,0,1-.309-2.925l4.467-6.9-.372-.624a30,30,0,0,1-3.3-7.956l-.179-.7-8.033-1.719a2.339,2.339,0,0,1-1.85-2.288v-5.485a2.338,2.338,0,0,1,1.85-2.288l8.033-1.719.179-.7a29.985,29.985,0,0,1,3.3-7.956l.372-.624-4.467-6.9a2.339,2.339,0,0,1,.309-2.926l3.879-3.879a2.338,2.338,0,0,1,2.925-.31l6.9,4.467.624-.372a29.986,29.986,0,0,1,7.957-3.3l.7-.179,1.719-8.033a2.34,2.34,0,0,1,2.288-1.85h5.485a2.339,2.339,0,0,1,2.288,1.85l1.72,8.033.7.179a30,30,0,0,1,7.956,3.3l.624.372,6.9-4.467a2.338,2.338,0,0,1,2.925.31l3.879,3.879a2.34,2.34,0,0,1,.31,2.926l-4.467,6.9.372.624a30.02,30.02,0,0,1,3.3,7.956l.179.7,8.032,1.719a2.34,2.34,0,0,1,1.85,2.288v5.485a2.34,2.34,0,0,1-1.85,2.288l-8.032,1.719-.179.7a30.013,30.013,0,0,1-3.3,7.956l-.372.624,4.467,6.9a2.34,2.34,0,0,1-.31,2.925l-3.879,3.879a2.338,2.338,0,0,1-2.925.31l-6.9-4.467-.624.372a29.992,29.992,0,0,1-7.956,3.3l-.7.179-1.72,8.033a2.339,2.339,0,0,1-2.288,1.85h-5.485Zm2.743-58.728a19.417,19.417,0,1,0,19.417,19.417A19.439,19.439,0,0,0,320.136,297.918Z" transform="translate(-182.113 -178.48)" fill="#9b9b9b"/>
    <path id="Trazado_657503" data-name="Trazado 657503" d="M177.86,181.269h4.9a2.636,2.636,0,1,0,0-5.273h-4.551v-8.931a2.636,2.636,0,0,0-5.273,0v9.312A4.913,4.913,0,0,0,177.86,181.269Z" transform="translate(-112.15 -104.814)"/>
    <path id="Trazado_657504" data-name="Trazado 657504" d="M123.591,155.635a2.636,2.636,0,0,0-2.636,2.636v8.155a2.636,2.636,0,1,0,5.273,0v-8.155A2.636,2.636,0,0,0,123.591,155.635Z" transform="translate(-78.439 -99.112)"/>
    <path id="Trazado_657505" data-name="Trazado 657505" d="M247.241,169.063a2.636,2.636,0,0,0,2.636-2.636v-8.155a2.636,2.636,0,0,0-5.273,0v8.155A2.636,2.636,0,0,0,247.241,169.063Z" transform="translate(-158.625 -99.112)"/>
    <path id="Trazado_657506" data-name="Trazado 657506" d="M176.5,229.787a2.636,2.636,0,1,0-5.273,0,11.037,11.037,0,1,1-22.074,0,2.636,2.636,0,1,0-5.273,0,16.31,16.31,0,1,0,32.619,0Z" transform="translate(-93.306 -145.489)"/>
    <path id="Trazado_657507" data-name="Trazado 657507" d="M367.946,351.747a13.4,13.4,0,1,0,13.4,13.4A13.413,13.413,0,0,0,367.946,351.747Zm0,21.522a8.125,8.125,0,1,1,8.124-8.125A8.134,8.134,0,0,1,367.946,373.269Z" transform="translate(-229.923 -226.289)"/>
    <path id="Trazado_657508" data-name="Trazado 657508" d="M371.424,351.6a2.637,2.637,0,0,0-3.223,1.874,16.783,16.783,0,1,1-.563-10.325,2.636,2.636,0,1,0,4.918-1.9,22.051,22.051,0,1,0,.743,13.576A2.636,2.636,0,0,0,371.424,351.6Z" transform="translate(-213.954 -210.32)"/>
    <path id="Trazado_657509" data-name="Trazado 657509" d="M176.035,131.247l-6.446-1.38a32.624,32.624,0,0,0-2.893-6.975l3.585-5.538a5,5,0,0,0-.659-6.221l-3.878-3.878a4.975,4.975,0,0,0-6.223-.659l-5.537,3.585a32.61,32.61,0,0,0-6.975-2.893l-1.38-6.446a5,5,0,0,0-4.866-3.934H135.28a5,5,0,0,0-4.866,3.935l-1.379,6.446a32.607,32.607,0,0,0-6.975,2.893l-5.536-3.584a4.975,4.975,0,0,0-6.223.658l-3.878,3.879a4.991,4.991,0,0,0-1.413,4.1H93.564V112.03a38.138,38.138,0,0,0,15.7-23.412h3.715a10.023,10.023,0,0,0,10.092-9.931V69.857a10.023,10.023,0,0,0-10.092-9.93h-2.894V35.733c0-11.314-4.4-19.935-13.072-25.625C89.627,5.26,79.49,2.8,66.886,2.8S44.143,5.26,36.753,10.107C28.078,15.8,23.68,24.419,23.68,35.732V59.926H20.787A10.024,10.024,0,0,0,10.7,69.856v8.829a10.024,10.024,0,0,0,10.092,9.931H24.5A38.139,38.139,0,0,0,40.2,112.03v3.208H20.594A20.5,20.5,0,0,0,0,135.6v23.3a4.568,4.568,0,0,0,4.563,4.563H20.036a2.636,2.636,0,1,0,0-5.273H5.273V135.6a15.226,15.226,0,0,1,15.322-15.093H40.2v6.856a5.849,5.849,0,0,0,9.149,4.828l4.92-3.363,4.277,4.277-7.563,25.085H32.69a2.636,2.636,0,1,0,0,5.273h72.3a4.969,4.969,0,0,0,1.43,3.111l3.878,3.878a4.941,4.941,0,0,0,3.519,1.458h0a4.963,4.963,0,0,0,2.7-.8l5.537-3.585a32.612,32.612,0,0,0,6.975,2.893l1.379,6.444a5,5,0,0,0,4.866,3.936h5.485a5,5,0,0,0,4.866-3.934l1.38-6.446a32.635,32.635,0,0,0,6.975-2.893l5.535,3.584a4.975,4.975,0,0,0,6.223-.658l3.878-3.879a5,5,0,0,0,.659-6.222l-3.585-5.537a32.626,32.626,0,0,0,2.893-6.975l6.446-1.38a5,5,0,0,0,3.935-4.866v-5.485a5,5,0,0,0-3.935-4.866ZM110.088,80.784V65.2h2.894a4.746,4.746,0,0,1,4.819,4.658v8.829a4.746,4.746,0,0,1-4.819,4.658H110C110.056,82.5,110.088,81.644,110.088,80.784Zm-89.3,2.561a4.746,4.746,0,0,1-4.819-4.658V69.857A4.746,4.746,0,0,1,20.787,65.2h2.892V80.784c0,.861.032,1.714.089,2.561Zm8.165-47.612c0-9.424,3.6-16.562,10.692-21.216C46.069,10.3,55.489,8.074,66.886,8.074S87.7,10.3,94.125,14.516c7.094,4.654,10.691,11.792,10.691,21.216V39.08a28.741,28.741,0,0,0-7.8-7.42c-7.39-4.848-17.527-7.306-30.132-7.306S44.142,26.813,36.752,31.66a28.733,28.733,0,0,0-7.8,7.418Zm0,45.052v-23.5c0-9.424,3.6-16.563,10.692-21.216,6.424-4.214,15.844-6.442,27.241-6.442S87.7,31.855,94.124,36.069c7.094,4.654,10.691,11.792,10.691,21.216v23.5a33.039,33.039,0,0,1-33.2,32.8H62.158A33.041,33.041,0,0,1,28.952,80.784Zm45.166,37.986a38.52,38.52,0,0,0,14.174-3.684v12.281a.576.576,0,0,1-.9.475Zm.948,7.035-7.56,7.561a.889.889,0,0,1-1.243,0L58.7,125.8l8.182-5.593Zm-28.688,2.038a.576.576,0,0,1-.9-.476V115.086a38.524,38.524,0,0,0,14.173,3.683Zm60.785,30.351H82.781L81.5,153.96a2.636,2.636,0,0,0-5.048,1.522l.818,2.712H56.495l6.292-20.871a6.136,6.136,0,0,0,8.194,0l1.872,6.208a2.636,2.636,0,0,0,5.048-1.522l-2.683-8.9,4.277-4.277,4.92,3.364a5.849,5.849,0,0,0,9.149-4.829v-6.856h14.242l1.542,2.382a32.6,32.6,0,0,0-2.893,6.975l-6.446,1.38a5,5,0,0,0-3.934,4.866V141.6a5,5,0,0,0,3.934,4.866l6.446,1.38a32.638,32.638,0,0,0,2.893,6.975ZM174.7,141.358l-7.8,1.669a2.637,2.637,0,0,0-2,1.928l-.179.7a27.386,27.386,0,0,1-3.009,7.256l-.372.624a2.637,2.637,0,0,0,.052,2.782l4.336,6.7-3.539,3.539-6.7-4.336a2.636,2.636,0,0,0-2.781-.053l-.624.372a27.361,27.361,0,0,1-7.256,3.01l-.7.179a2.636,2.636,0,0,0-1.929,2l-1.669,7.8h-5l-1.669-7.8a2.636,2.636,0,0,0-1.93-2l-.7-.178a27.351,27.351,0,0,1-7.257-3.01l-.625-.372a2.636,2.636,0,0,0-2.78.053l-6.7,4.336-3.539-3.539,4.336-6.7a2.636,2.636,0,0,0,.052-2.782l-.371-.623a27.35,27.35,0,0,1-3.01-7.255l-.179-.7a2.636,2.636,0,0,0-2-1.93l-7.8-1.669v-5.005l7.8-1.669a2.636,2.636,0,0,0,2-1.93l.178-.7a27.363,27.363,0,0,1,3.01-7.256l.372-.624a2.637,2.637,0,0,0-.052-2.782l-4.336-6.7,3.539-3.539,6.7,4.336a2.636,2.636,0,0,0,2.781.052l.623-.371a27.352,27.352,0,0,1,7.257-3.01l.7-.179a2.636,2.636,0,0,0,1.93-2l1.668-7.8h5.005l1.669,7.8a2.637,2.637,0,0,0,1.929,2l.7.178a27.369,27.369,0,0,1,7.257,3.01l.624.372a2.637,2.637,0,0,0,2.781-.053l6.7-4.336,3.54,3.539-4.336,6.7a2.637,2.637,0,0,0-.052,2.782l.371.623a27.366,27.366,0,0,1,3.009,7.259l.179.7a2.637,2.637,0,0,0,2,1.927l7.8,1.669Z"/>
  </g>
</svg>
