<svg xmlns="http://www.w3.org/2000/svg" xmlns:xlink="http://www.w3.org/1999/xlink" width="105" height="105" viewBox="0 0 105 105">
  <defs>
    <clipPath id="clip-path">
      <path id="path4767" d="M0-682.665H53.266V-629.4H0Z" transform="translate(0 682.665)"/>
    </clipPath>
  </defs>
  <g id="Grupo_961264" data-name="Grupo 961264" transform="translate(-390 -28143)">
    <g id="Grupo_956877" data-name="Grupo 956877" transform="translate(3186 36568)">
      <circle id="_240_F_321763424_EUgnpmBP81OrR6HvnHsT5Mthjtk0JLcN" data-name="240_F_321763424_EUgnpmBP81OrR6HvnHsT5Mthjtk0JLcN" cx="52.5" cy="52.5" r="52.5" transform="translate(-2796 -8425)" fill="#583ae2"/>
      <g id="g4761" transform="translate(-2770.133 -7715.574)">
        <g id="g4763" transform="translate(0 -682.665)">
          <g id="g4765" clip-path="url(#clip-path)">
            <g id="g4771" transform="translate(1.031 0.78)">
              <path id="path4773" d="M-440.361-29.024V17.77a2.456,2.456,0,0,1-2.456,2.456h-32.356a2.456,2.456,0,0,1-2.456-2.456v-37.3l11.947-11.947h22.865a2.456,2.456,0,0,1,2.456,2.456" transform="translate(477.629 31.48)" fill="#ebeef2"/>
            </g>
            <g id="g4775" transform="translate(33.22 0.78)">
              <path id="path4777" d="M-30.992,0h-2.623a2.456,2.456,0,0,1,2.456,2.456V49.25a2.456,2.456,0,0,1-2.456,2.456h2.623a2.456,2.456,0,0,0,2.456-2.456V2.456A2.456,2.456,0,0,0-30.992,0" transform="translate(33.615)" fill="#c9cdd3"/>
            </g>
            <g id="g4779" transform="translate(0.25 0)">
              <path id="path4781" d="M-452.037-204.066h-32.356a3.24,3.24,0,0,1-3.237-3.237v-37.3a.78.78,0,0,1,.229-.552l11.947-11.947a.78.78,0,0,1,.552-.229h22.865A3.24,3.24,0,0,1-448.8-254.1v11.608a.78.78,0,0,1-.78.78.78.78,0,0,1-.78-.78V-254.1a1.678,1.678,0,0,0-1.676-1.676h-22.542l-11.49,11.49v36.98a1.678,1.678,0,0,0,1.676,1.676h32.356a1.678,1.678,0,0,0,1.676-1.676v-29.951a.78.78,0,0,1,.78-.78.78.78,0,0,1,.78.78V-207.3A3.24,3.24,0,0,1-452.037-204.066Z" transform="translate(487.629 257.333)"/>
            </g>
            <g id="g4783" transform="translate(1.031 0.78)">
              <path id="path4785" d="M-141.164,0-153.11,11.947h9.793a2.154,2.154,0,0,0,2.154-2.154Z" transform="translate(153.11)" fill="#c9cdd3"/>
            </g>
            <g id="g4787" transform="translate(0.25 0)">
              <path id="path4789" d="M-150.383-10a.779.779,0,0,1,.3.059.78.78,0,0,1,.482.721V.573a2.938,2.938,0,0,1-2.934,2.934h-9.793a.78.78,0,0,1-.721-.482.78.78,0,0,1,.169-.85l11.947-11.947A.78.78,0,0,1-150.383-10Zm-2.154,11.947A1.375,1.375,0,0,0-151.164.573V-7.336l-9.283,9.283Z" transform="translate(163.111 10)"/>
            </g>
            <g id="g4791" transform="translate(13.473 14.114)">
              <path id="path4793" d="M1.6-8.439H-9.22A.78.78,0,0,1-10-9.22.78.78,0,0,1-9.22-10H1.6a.78.78,0,0,1,.78.78A.78.78,0,0,1,1.6-8.439Z" transform="translate(10 10)"/>
            </g>
            <g id="g4795" transform="translate(5.738 22.366)">
              <path id="path4797" d="M17.072-8.439H-9.22A.78.78,0,0,1-10-9.22.78.78,0,0,1-9.22-10H17.072a.78.78,0,0,1,.78.78A.78.78,0,0,1,17.072-8.439Z" transform="translate(10 10)"/>
            </g>
            <g id="g4799" transform="translate(5.738 28.753)">
              <path id="path4801" d="M17.072-8.439H-9.22A.78.78,0,0,1-10-9.22.78.78,0,0,1-9.22-10H17.072a.78.78,0,0,1,.78.78A.78.78,0,0,1,17.072-8.439Z" transform="translate(10 10)"/>
            </g>
            <g id="g4803" transform="translate(5.738 35.14)">
              <path id="path4805" d="M17.072-8.439H-9.22A.78.78,0,0,1-10-9.22.78.78,0,0,1-9.22-10H17.072a.78.78,0,0,1,.78.78A.78.78,0,0,1,17.072-8.439Z" transform="translate(10 10)"/>
            </g>
            <g id="g4807" transform="translate(5.738 41.527)">
              <path id="path4809" d="M17.072-8.439H-9.22A.78.78,0,0,1-10-9.22.78.78,0,0,1-9.22-10H17.072a.78.78,0,0,1,.78.78A.78.78,0,0,1,17.072-8.439Z" transform="translate(10 10)"/>
            </g>
            <g id="g4811" transform="translate(24.361 17.966)">
              <path id="path4813" d="M-245.556-18.112a1.606,1.606,0,0,0-1.267-1.1,35.958,35.958,0,0,0-5.577-.435,35.959,35.959,0,0,0-5.577.435,1.606,1.606,0,0,0-1.267,1.1,11.005,11.005,0,0,1-6.12,6.661,1.6,1.6,0,0,0-.965,1.631C-265.477-1.733-260.208,5.657-253,8.6a1.588,1.588,0,0,0,1.2,0c7.208-2.94,12.477-10.33,13.33-18.418a1.6,1.6,0,0,0-.965-1.631,11,11,0,0,1-6.12-6.661" transform="translate(266.338 19.645)" fill="#6fbc89"/>
            </g>
            <g id="g4815" transform="translate(36.768 17.966)">
              <path id="path4817" d="M-171.264-96.82a11.005,11.005,0,0,1-6.12-6.661,1.606,1.606,0,0,0-1.267-1.1,35.958,35.958,0,0,0-5.577-.435q-.769,0-1.53.034a35.965,35.965,0,0,1,4.047.4,1.606,1.606,0,0,1,1.267,1.1,11.005,11.005,0,0,0,6.12,6.661,1.6,1.6,0,0,1,.965,1.631,22.769,22.769,0,0,1-12.4,18.008q.46.217.93.41a1.587,1.587,0,0,0,1.2,0c7.208-2.94,12.477-10.33,13.33-18.418a1.6,1.6,0,0,0-.965-1.631" transform="translate(185.758 105.014)" fill="#40904b"/>
            </g>
            <g id="g4819" transform="translate(35.238 22.684)">
              <path id="path4821" d="M0-36.156v1.112a3.06,3.06,0,0,0,3.06,3.06,3.06,3.06,0,0,0,3.06-3.06v-1.112a3.06,3.06,0,0,0-3.06-3.06A3.06,3.06,0,0,0,0-36.156" transform="translate(0 39.216)" fill="#f6bb93"/>
            </g>
            <g id="g4823" transform="translate(34.458 21.904)">
              <path id="path4825" d="M-6.16-49.216a3.844,3.844,0,0,1,3.84,3.84v1.112a3.844,3.844,0,0,1-3.84,3.84A3.845,3.845,0,0,1-10-44.263v-1.112A3.845,3.845,0,0,1-6.16-49.216Zm0,7.232a2.282,2.282,0,0,0,2.28-2.28v-1.112a2.282,2.282,0,0,0-2.28-2.28,2.282,2.282,0,0,0-2.28,2.28v1.112A2.282,2.282,0,0,0-6.16-41.984Z" transform="translate(10 49.216)"/>
            </g>
            <g id="g4827" transform="translate(32.811 31.29)">
              <path id="path4829" d="M-119.628-6.76a1.222,1.222,0,0,0-1.687-.382,5.449,5.449,0,0,1-2.949.863,5.449,5.449,0,0,1-2.949-.863,1.222,1.222,0,0,0-1.687.382,5.456,5.456,0,0,0-.851,2.934v2.371a1.291,1.291,0,0,0,1.291,1.291h8.394a1.291,1.291,0,0,0,1.291-1.291V-3.825a5.456,5.456,0,0,0-.851-2.934" transform="translate(129.752 7.332)" fill="#52668d"/>
            </g>
            <g id="g4831" transform="translate(32.03 30.51)">
              <path id="path4833" d="M-129.886-17.332h0a2,2,0,0,1,1.7.934,6.244,6.244,0,0,1,.972,3.353v2.371A2.073,2.073,0,0,1-129.287-8.6h-8.394a2.073,2.073,0,0,1-2.071-2.071v-2.371a6.245,6.245,0,0,1,.972-3.353,2,2,0,0,1,1.7-.934,1.98,1.98,0,0,1,1.07.313,4.678,4.678,0,0,0,2.528.74,4.678,4.678,0,0,0,2.528-.74A1.98,1.98,0,0,1-129.886-17.332Zm.6,7.168a.511.511,0,0,0,.51-.511v-2.371a4.686,4.686,0,0,0-.729-2.516.448.448,0,0,0-.38-.21h0a.416.416,0,0,0-.228.067,6.235,6.235,0,0,1-3.37.986,6.235,6.235,0,0,1-3.37-.986.417.417,0,0,0-.228-.067.448.448,0,0,0-.38.21,4.686,4.686,0,0,0-.729,2.516v2.371a.511.511,0,0,0,.511.511Z" transform="translate(139.752 17.332)"/>
            </g>
            <g id="g4835" transform="translate(35.688 31.681)">
              <path id="path4837" d="M-30.845-7.838a5.447,5.447,0,0,1-2.61-.663l2.085,3.435a.615.615,0,0,0,1.051,0L-28.235-8.5a5.446,5.446,0,0,1-2.61.663" transform="translate(33.456 8.501)" fill="#ebeef2"/>
            </g>
            <g id="g4839" transform="translate(34.907 30.9)">
              <path id="path4841" d="M-37.455-18.5a.78.78,0,0,1,.565.242.78.78,0,0,1,.1.943l-2.085,3.435a1.385,1.385,0,0,1-1.192.671,1.385,1.385,0,0,1-1.192-.671l-2.085-3.435a.78.78,0,0,1,.1-.943.78.78,0,0,1,.937-.147,4.7,4.7,0,0,0,2.238.568,4.7,4.7,0,0,0,2.238-.568A.778.778,0,0,1-37.455-18.5Zm-2.61,2.224a6.23,6.23,0,0,1-.857-.059l.857,1.412.857-1.412A6.233,6.233,0,0,1-40.065-16.278Z" transform="translate(43.456 18.502)"/>
            </g>
            <g id="g4843" transform="translate(23.58 17.186)">
              <path id="path4845" d="M-333.2-183.629a2.364,2.364,0,0,1-.894-.176c-7.376-3.009-12.926-10.668-13.811-19.059a2.363,2.363,0,0,1,1.435-2.43,10.2,10.2,0,0,0,5.685-6.188,2.379,2.379,0,0,1,1.887-1.625,36.864,36.864,0,0,1,5.7-.444,36.864,36.864,0,0,1,5.7.444,2.378,2.378,0,0,1,1.887,1.625,10.2,10.2,0,0,0,5.686,6.188,2.362,2.362,0,0,1,1.434,2.43,23.741,23.741,0,0,1-1.551,6.264.78.78,0,0,1-1.013.438.78.78,0,0,1-.438-1.013,22.178,22.178,0,0,0,1.449-5.852.81.81,0,0,0-.495-.831,11.764,11.764,0,0,1-6.555-7.135.825.825,0,0,0-.646-.571,35.3,35.3,0,0,0-5.456-.425,35.3,35.3,0,0,0-5.456.425.825.825,0,0,0-.647.571,11.764,11.764,0,0,1-6.555,7.135.81.81,0,0,0-.495.831c.826,7.835,5.989,14.979,12.848,17.777a.813.813,0,0,0,.609,0,20.785,20.785,0,0,0,10.1-9.2.78.78,0,0,1,1.062-.3.78.78,0,0,1,.3,1.062,22.349,22.349,0,0,1-10.876,9.884A2.364,2.364,0,0,1-333.2-183.629Z" transform="translate(347.919 213.551)"/>
            </g>
          </g>
        </g>
      </g>
    </g>
  </g>
</svg>
