<svg xmlns="http://www.w3.org/2000/svg" width="105" height="105" viewBox="0 0 105 105">
  <g id="Grupo_961262" data-name="Grupo 961262" transform="translate(-390 -27843)">
    <g id="Grupo_956874" data-name="Grupo 956874" transform="translate(3186 36268)">
      <circle id="_240_F_321763424_EUgnpmBP81OrR6HvnHsT5Mthjtk0JLcN" data-name="240_F_321763424_EUgnpmBP81OrR6HvnHsT5Mthjtk0JLcN" cx="52.5" cy="52.5" r="52.5" transform="translate(-2796 -8425)" fill="#583ae2"/>
      <g id="software_1_" data-name="software(1)" transform="translate(-2772.995 -8425.615)">
        <path id="Trazado_656482" data-name="Trazado 656482" d="M200.1,379.385H184.786l-.62,6.733h16.552Z" transform="translate(-162.948 -311.601)" fill="#4e5660"/>
        <path id="Trazado_656483" data-name="Trazado 656483" d="M171.64,442.37H149.677a1.433,1.433,0,0,1-1.374-1.837l.2-.678a2.831,2.831,0,0,1,2.716-2.032H170.1a2.831,2.831,0,0,1,2.716,2.032l.2.678A1.432,1.432,0,0,1,171.64,442.37Z" transform="translate(-131.164 -363.306)" fill="#c6c6c6"/>
        <path id="Trazado_656484" data-name="Trazado 656484" d="M158.463,437.823h-7.246a2.831,2.831,0,0,0-2.716,2.032l-.2.678a1.433,1.433,0,0,0,1.374,1.837h9.782C158.52,441.111,158.236,439.974,158.463,437.823Z" transform="translate(-131.163 -363.306)" fill="#9aa3b1"/>
        <path id="Trazado_656485" data-name="Trazado 656485" d="M57.931,74.42H14.33A6.83,6.83,0,0,1,7.5,67.59V41.539a6.83,6.83,0,0,1,6.83-6.83h43.6a6.83,6.83,0,0,1,6.83,6.83V67.59A6.83,6.83,0,0,1,57.931,74.42Z" transform="translate(-6.636 -6.636)" fill="#4e5660"/>
        <path id="Trazado_656486" data-name="Trazado 656486" d="M14.33,34.709A6.83,6.83,0,0,0,7.5,41.539V67.59a6.83,6.83,0,0,0,6.83,6.83H31.484c-7.165-5.308-8.828-22.748-6.467-39.711H14.33Z" transform="translate(-6.636 -6.636)" fill="#383c43"/>
        <path id="Trazado_656487" data-name="Trazado 656487" d="M48.044,102.6V78.274a3.02,3.02,0,0,1,3.02-3.02H92.943a3.02,3.02,0,0,1,3.02,3.02V102.6a3.02,3.02,0,0,1-3.02,3.02H51.064a3.02,3.02,0,0,1-3.02-3.02Z" transform="translate(-42.509 -42.51)" fill="#b6fdd3"/>
        <path id="Trazado_656488" data-name="Trazado 656488" d="M60.344,75.254h-9.28a3.02,3.02,0,0,0-3.02,3.02V102.6a3.02,3.02,0,0,0,3.02,3.02H63.64C60.138,98.766,59.211,87.179,60.344,75.254Z" transform="translate(-42.51 -42.51)" fill="#bae9cd"/>
        <path id="Trazado_656489" data-name="Trazado 656489" d="M294.291,75.254h-18.68v30.369h18.68a3.02,3.02,0,0,0,3.02-3.02V78.274A3.02,3.02,0,0,0,294.291,75.254Z" transform="translate(-243.857 -42.51)" fill="#e0feec"/>
        <path id="Trazado_656490" data-name="Trazado 656490" d="M7.5,303.52v1.911a6.83,6.83,0,0,0,6.83,6.83h43.6a6.83,6.83,0,0,0,6.83-6.83V303.52Z" transform="translate(-6.636 -244.476)" fill="#c6c6c6"/>
        <path id="Trazado_656491" data-name="Trazado 656491" d="M321.052,159.771a.6.6,0,0,1-.3.52l-5.88,3.395a2.231,2.231,0,0,1-2.231,0l-5.88-3.395a.6.6,0,0,1-.3-.52v-8.079h14.591Z" transform="translate(-271.153 -110.141)" fill="#8eafe2"/>
        <path id="Trazado_656492" data-name="Trazado 656492" d="M369.783,163.983a2.23,2.23,0,0,0,1.116-.3l5.88-3.395a.6.6,0,0,0,.3-.52V151.69h-7.3Z" transform="translate(-327.179 -110.139)" fill="#7acefa"/>
        <path id="Trazado_656493" data-name="Trazado 656493" d="M306.761,118.81l5.88-3.395a2.231,2.231,0,0,1,2.231,0l5.88,3.395a.6.6,0,0,1,0,1.041l-5.88,3.395a2.231,2.231,0,0,1-2.231,0l-5.88-3.395A.6.6,0,0,1,306.761,118.81Z" transform="translate(-271.153 -77.78)" fill="#a3defe"/>
        <g id="Grupo_956875" data-name="Grupo 956875" transform="translate(8.333 38.461)">
          <ellipse id="Elipse_5651" data-name="Elipse 5651" cx="1.8" cy="1.8" rx="1.8" ry="1.8" transform="matrix(0.987, -0.16, 0.16, 0.987, 11.784, 14.151)" fill="#fff"/>
          <path id="Trazado_656494" data-name="Trazado 656494" d="M78,127.128a2.912,2.912,0,1,1-2.839-2.26A2.6,2.6,0,0,1,78,127.128Z" transform="translate(-72.325 -124.868)" fill="#fff"/>
          <path id="Trazado_656495" data-name="Trazado 656495" d="M205.866,127.128a2.912,2.912,0,1,0,2.838-2.26A2.6,2.6,0,0,0,205.866,127.128Z" transform="translate(-190.48 -124.868)" fill="#fff"/>
        </g>
        <path id="Trazado_656496" data-name="Trazado 656496" d="M7.5,305.432a6.83,6.83,0,0,0,6.83,6.83H31.484c-2.36-1.748-4.122-4.812-5.341-8.741H7.5Z" transform="translate(-6.636 -244.477)" fill="#9aa3b1"/>
        <path id="Trazado_656497" data-name="Trazado 656497" d="M12.825,39.33a.864.864,0,0,0,.864-.864v-1a.864.864,0,0,0-1.728,0v1A.864.864,0,0,0,12.825,39.33ZM26.258,53.235h-1.55a2.663,2.663,0,0,0-5.039,0h-8.2a.864.864,0,0,0,0,1.728h8.2a2.663,2.663,0,0,0,5.039,0h1.55a.864.864,0,1,0,0-1.728Zm-4.069,1.8a.936.936,0,1,1,.936-.936A.937.937,0,0,1,22.189,55.035ZM24.9,39.33a.864.864,0,0,0,.864-.864v-1a.864.864,0,0,0-1.728,0v1A.864.864,0,0,0,24.9,39.33Zm-6.039.77a2.976,2.976,0,0,0,2.244-1.022.864.864,0,1,0-1.3-1.135,1.246,1.246,0,0,1-1.881,0,.864.864,0,1,0-1.3,1.135A2.975,2.975,0,0,0,18.864,40.1ZM31.152,63.414a1.658,1.658,0,1,0-1.658,1.658A1.658,1.658,0,0,0,31.152,63.414ZM50.031,40.282l-5.88-3.395a3.1,3.1,0,0,0-3.1,0l-5.88,3.395a1.446,1.446,0,0,0-.726,1.166.862.862,0,0,0-.007.1V49.63a1.45,1.45,0,0,0,.732,1.268l5.88,3.395a3.091,3.091,0,0,0,1.474.411c.024,0,.049,0,.074,0s.05,0,.074,0a3.091,3.091,0,0,0,1.474-.411l5.88-3.395a1.45,1.45,0,0,0,.732-1.269V41.551a.862.862,0,0,0-.007-.1,1.445,1.445,0,0,0-.725-1.166ZM41.74,52.692l-5.567-3.214V43.394l4.884,2.82a3.08,3.08,0,0,0,.684.29Zm.181-7.975-5.485-3.167,5.485-3.167a1.371,1.371,0,0,1,1.367,0l5.485,3.167-5.485,3.167A1.37,1.37,0,0,1,41.92,44.717Zm7.115,4.76-5.567,3.214V46.5a3.074,3.074,0,0,0,.684-.289l4.884-2.82v6.083ZM51.3,27.209H50.06a.864.864,0,0,0,0,1.728H51.3A5.972,5.972,0,0,1,57.261,34.9V58.179H54.318V35.764a3.888,3.888,0,0,0-3.884-3.884H8.555a3.888,3.888,0,0,0-3.884,3.884V58.179H1.728V34.9a5.972,5.972,0,0,1,5.965-5.965H45.988a.864.864,0,1,0,0-1.728H7.694A7.7,7.7,0,0,0,0,34.9V60.955a7.678,7.678,0,0,0,6.348,7.576.864.864,0,1,0,.3-1.7,5.953,5.953,0,0,1-4.92-5.874V59.908H57.261v1.047A5.972,5.972,0,0,1,51.3,66.92H10.555a.864.864,0,0,0,0,1.728H20.891l-.461,5h-.376A3.716,3.716,0,0,0,16.509,76.3l-.2.678a2.3,2.3,0,0,0,2.2,2.945H40.476a2.3,2.3,0,0,0,2.2-2.945l-.2-.678a3.716,3.716,0,0,0-3.545-2.652h-.376l-.461-5H51.3a7.7,7.7,0,0,0,7.694-7.694V34.9A7.7,7.7,0,0,0,51.3,27.209Zm1.294,30.97H6.4V35.764a2.158,2.158,0,0,1,2.156-2.156H50.434a2.158,2.158,0,0,1,2.156,2.156V58.179ZM22.627,68.648H36.362l.461,5H22.166Zm16.308,6.733a1.978,1.978,0,0,1,1.887,1.411l.2.678a.568.568,0,0,1-.545.729H18.513a.558.558,0,0,1-.455-.228.564.564,0,0,1-.09-.5l.2-.678a1.978,1.978,0,0,1,1.887-1.411H38.935ZM26.258,48.539H11.47a.864.864,0,1,0,0,1.728H26.258a.864.864,0,1,0,0-1.728Zm0-4.7H11.47a.864.864,0,0,0,0,1.728H26.258a.864.864,0,1,0,0-1.728Z"/>
      </g>
    </g>
  </g>
</svg>
