<svg xmlns="http://www.w3.org/2000/svg" width="105" height="105" viewBox="0 0 105 105">
  <g id="Grupo_961263" data-name="Grupo 961263" transform="translate(-390 -27997)">
    <g id="Grupo_956876" data-name="Grupo 956876" transform="translate(3186 36422)">
      <circle id="_240_F_321763424_EUgnpmBP81OrR6HvnHsT5Mthjtk0JLcN" data-name="240_F_321763424_EUgnpmBP81OrR6HvnHsT5Mthjtk0JLcN" cx="52.5" cy="52.5" r="52.5" transform="translate(-2796 -8425)" fill="#583ae2"/>
      <g id="la-gestion-del-inventario" transform="translate(-2771.551 -8413.051)">
        <path id="Trazado_656498" data-name="Trazado 656498" d="M197.573,362.944,190.629,361l-6.947,1.944-1.1,7.533s6.06,1.736,8.043,1.736,8.043-1.736,8.043-1.736Z" transform="translate(-162.578 -308.234)" fill="#f2fbff" fill-rule="evenodd"/>
        <path id="Trazado_656499" data-name="Trazado 656499" d="M190.09,364.843h12.18l.819,5.634h2.264l-1.1-7.533L197.312,361l-6.947,1.944Z" transform="translate(-169.261 -308.234)" fill="#dff6fd" fill-rule="evenodd"/>
        <path id="Trazado_656501" data-name="Trazado 656501" d="M11.286,26.59a.661.661,0,0,1,.661-.656H57.512a.661.661,0,0,1,.658.656V57.129a.658.658,0,0,1-.658.656H11.947a.659.659,0,0,1-.661-.656Zm16.5,34.8H59.3a2.66,2.66,0,0,0,2.657-2.647V24.982A2.658,2.658,0,0,0,59.3,22.335H10.153A2.656,2.656,0,0,0,7.5,24.982v33.76a2.658,2.658,0,0,0,2.653,2.647H27.782Z" transform="translate(-6.678 -6.678)" fill="#004281" fill-rule="evenodd"/>
        <path id="Trazado_656502" data-name="Trazado 656502" d="M442.1,57.786v.956a2.658,2.658,0,0,1-2.654,2.647h4.472a2.66,2.66,0,0,0,2.657-2.647V24.982a2.658,2.658,0,0,0-2.657-2.647h-4.472a2.656,2.656,0,0,1,2.654,2.647v.953h.028a.661.661,0,0,1,.658.656V57.129a.658.658,0,0,1-.658.656Z" transform="translate(-391.29 -6.678)" fill="#00366d" fill-rule="evenodd"/>
        <path id="Trazado_656519" data-name="Trazado 656519" d="M81.6,81.178H61a.822.822,0,0,1-.69-1.268l20.6-31.851a.822.822,0,0,1,.69-.376,1.481,1.481,0,0,1,1.48,1.478V79.7A1.481,1.481,0,0,1,81.6,81.178ZM62.509,79.534H81.434V50.272Zm-5.375,1.644h-21.1A1.482,1.482,0,0,1,34.55,79.7V49.161a1.482,1.482,0,0,1,1.483-1.478H56.843a.822.822,0,1,1,0,1.644H36.194V79.534H57.134a.822.822,0,1,1,0,1.644Z" transform="translate(-30.764 -29.249)"/>
        <path id="Trazado_656500" data-name="Trazado 656500" d="M88.276,55.183H42.711a.661.661,0,0,0-.661.656V86.378a.659.659,0,0,0,.661.656H88.276a.659.659,0,0,0,.658-.656V55.839a.661.661,0,0,0-.658-.656Z" transform="translate(-37.442 -35.927)" fill="#99e6fc" fill-rule="evenodd"/>
        <path id="Trazado_656503" data-name="Trazado 656503" d="M288.333,176.787h-3.628a.431.431,0,0,0-.433.432v3.618a.431.431,0,0,0,.433.432h3.628a.433.433,0,0,0,.433-.432v-3.618a.433.433,0,0,0-.433-.432Z" transform="translate(-253.123 -144.206)" fill="#6fd7a3" fill-rule="evenodd"/>
        <path id="Trazado_656504" data-name="Trazado 656504" d="M288.333,260.851h-3.628a.433.433,0,0,0-.433.432V264.9a.431.431,0,0,0,.433.432h3.628a.433.433,0,0,0,.433-.432v-3.618a.435.435,0,0,0-.433-.432Z" transform="translate(-253.123 -219.059)" fill="#6fd7a3" fill-rule="evenodd"/>
        <path id="Trazado_656505" data-name="Trazado 656505" d="M442.528,55.839V86.378a.659.659,0,0,1-.661.656h2.416a.659.659,0,0,0,.658-.656V55.839a.661.661,0,0,0-.658-.656h-2.416a.661.661,0,0,1,.661.656Z" transform="translate(-393.449 -35.927)" fill="#62dbfb" fill-rule="evenodd"/>
        <path id="Trazado_656506" data-name="Trazado 656506" d="M98.082,111.345h7.126a.71.71,0,0,0,.708-.707V97.806a.71.71,0,0,0-.708-.707H90.959a.71.71,0,0,0-.708.707v12.833a.707.707,0,0,0,.7.707h7.129Z" transform="translate(-80.362 -73.25)" fill="#ffc344" fill-rule="evenodd"/>
        <path id="Trazado_656507" data-name="Trazado 656507" d="M204.953,97.1h-2.682a.708.708,0,0,1,.708.707v12.833a.708.708,0,0,1-.708.707h2.682a.71.71,0,0,0,.708-.707V97.807a.71.71,0,0,0-.708-.707Z" transform="translate(-180.107 -73.251)" fill="#feb237" fill-rule="evenodd"/>
        <rect id="Rectángulo_45361" data-name="Rectángulo 45361" width="3.713" height="5.009" transform="translate(15.864 23.849)" fill="#f2fbff"/>
        <path id="Trazado_656508" data-name="Trazado 656508" d="M105.455,261.052H90.714a.484.484,0,0,0-.462.5v3.454a.485.485,0,0,0,.462.5h14.741a.487.487,0,0,0,.462-.5v-3.454a.486.486,0,0,0-.462-.5Z" transform="translate(-80.363 -219.238)" fill="#fd4755" fill-rule="evenodd"/>
        <path id="Trazado_656509" data-name="Trazado 656509" d="M237.685,411.189a2.112,2.112,0,0,0-2.11-2.1h-.917a2.112,2.112,0,0,0-2.11,2.1v3.2h5.136Z" transform="translate(-207.067 -351.05)" fill="#4f66d0" fill-rule="evenodd"/>
        <path id="Trazado_656510" data-name="Trazado 656510" d="M288.333,97.1h-3.628a.431.431,0,0,0-.433.432v3.618a.433.433,0,0,0,.433.432h3.628a.435.435,0,0,0,.433-.432V97.532a.433.433,0,0,0-.433-.432Z" transform="translate(-253.123 -73.251)" fill="#6fd7a3" fill-rule="evenodd"/>
        <path id="Trazado_656511" data-name="Trazado 656511" d="M203.656,261.555v3.454a.485.485,0,0,1-.462.5h2.827a.487.487,0,0,0,.462-.5v-3.454a.486.486,0,0,0-.462-.5h-2.827a.484.484,0,0,1,.462.5Z" transform="translate(-180.929 -219.239)" fill="#e94444" fill-rule="evenodd"/>
        <path id="Rectángulo_45362" data-name="Rectángulo 45362" d="M-6.678-7.5h3.713a.822.822,0,0,1,.822.822v5.009a.822.822,0,0,1-.822.822H-6.678A.822.822,0,0,1-7.5-1.669V-6.678A.822.822,0,0,1-6.678-7.5Zm2.891,1.644H-5.856v3.366h2.069Z" transform="translate(22.542 30.527)"/>
        <path id="Línea_256" data-name="Línea 256" d="M-.783-5.856h-5.9A.822.822,0,0,1-7.5-6.678.822.822,0,0,1-6.678-7.5h5.9a.822.822,0,0,1,.822.822A.822.822,0,0,1-.783-5.856Z" transform="translate(46.993 49.208)"/>
        <path id="Línea_257" data-name="Línea 257" d="M-.783-5.856h-5.9A.822.822,0,0,1-7.5-6.678.822.822,0,0,1-6.678-7.5h5.9a.822.822,0,0,1,.822.822A.822.822,0,0,1-.783-5.856Z" transform="translate(46.993 52.489)"/>
        <path id="Línea_258" data-name="Línea 258" d="M-.783-5.856h-5.9A.822.822,0,0,1-7.5-6.678.822.822,0,0,1-6.678-7.5h5.9a.822.822,0,0,1,.822.822A.822.822,0,0,1-.783-5.856Z" transform="translate(46.993 39.997)"/>
        <path id="Línea_259" data-name="Línea 259" d="M-.783-5.856h-5.9A.822.822,0,0,1-7.5-6.678.822.822,0,0,1-6.678-7.5h5.9a.822.822,0,0,1,.822.822A.822.822,0,0,1-.783-5.856Z" transform="translate(46.993 43.275)"/>
        <path id="Línea_260" data-name="Línea 260" d="M-.783-5.856h-5.9A.822.822,0,0,1-7.5-6.678.822.822,0,0,1-6.678-7.5h5.9a.822.822,0,0,1,.822.822A.822.822,0,0,1-.783-5.856Z" transform="translate(46.993 31.265)"/>
        <path id="Línea_261" data-name="Línea 261" d="M-.783-5.856h-5.9A.822.822,0,0,1-7.5-6.678.822.822,0,0,1-6.678-7.5h5.9a.822.822,0,0,1,.822.822A.822.822,0,0,1-.783-5.856Z" transform="translate(46.993 34.543)"/>
        <path id="Trazado_656512" data-name="Trazado 656512" d="M84.282,89.6H98.53a1.531,1.531,0,0,1,1.53,1.528v12.833a1.531,1.531,0,0,1-1.53,1.528H84.282a1.531,1.531,0,0,1-1.53-1.528V91.128A1.531,1.531,0,0,1,84.282,89.6Zm14.135,1.644H84.4v12.6H98.417Z" transform="translate(-73.684 -66.573)"/>
        <path id="Trazado_656513" data-name="Trazado 656513" d="M84.036,253.552H98.777a1.306,1.306,0,0,1,1.284,1.323v3.454a1.307,1.307,0,0,1-1.284,1.327H84.036a1.307,1.307,0,0,1-1.284-1.327v-3.454A1.305,1.305,0,0,1,84.036,253.552ZM98.417,255.2H84.4v2.817H98.417Z" transform="translate(-73.684 -212.56)"/>
        <path id="Trazado_656514" data-name="Trazado 656514" d="M278.027,169.287h3.628a1.256,1.256,0,0,1,1.255,1.254v3.618a1.256,1.256,0,0,1-1.255,1.254h-3.628a1.256,1.256,0,0,1-1.255-1.254v-3.618A1.256,1.256,0,0,1,278.027,169.287Zm3.239,1.644h-2.85v2.839h2.85Z" transform="translate(-246.445 -137.528)"/>
        <path id="Trazado_656515" data-name="Trazado 656515" d="M278.027,253.351h3.628a1.256,1.256,0,0,1,1.255,1.254v3.618a1.256,1.256,0,0,1-1.255,1.254h-3.628a1.256,1.256,0,0,1-1.255-1.254V254.6A1.256,1.256,0,0,1,278.027,253.351Zm3.239,1.644h-2.85v2.839h2.85Z" transform="translate(-246.445 -212.381)"/>
        <path id="Trazado_656516" data-name="Trazado 656516" d="M278.027,89.6h3.628a1.256,1.256,0,0,1,1.255,1.254v3.618a1.256,1.256,0,0,1-1.255,1.254h-3.628a1.256,1.256,0,0,1-1.255-1.254V90.854A1.256,1.256,0,0,1,278.027,89.6Zm3.239,1.644h-2.85v2.839h2.85Z" transform="translate(-246.445 -66.573)"/>
        <path id="Trazado_656517" data-name="Trazado 656517" d="M175.908,380.417a.823.823,0,0,1-.814-.94l1.1-7.533a.822.822,0,1,1,1.626.237l-1.1,7.533A.822.822,0,0,1,175.908,380.417Z" transform="translate(-155.9 -317.352)"/>
        <path id="Trazado_656518" data-name="Trazado 656518" d="M227.979,401.585h.917a2.932,2.932,0,0,1,2.931,2.926v2.1a.822.822,0,0,1-.822.822H225.87a.822.822,0,0,1-.822-.822v-2.1a2.934,2.934,0,0,1,2.931-2.926Zm2.2,4.208v-1.282a1.286,1.286,0,0,0-1.288-1.282h-.917a1.291,1.291,0,0,0-1.288,1.282v1.282Z" transform="translate(-200.388 -344.372)"/>
        <path id="Trazado_656520" data-name="Trazado 656520" d="M3.475,14.835H52.624A3.477,3.477,0,0,1,56.1,18.3v33.76a3.477,3.477,0,0,1-3.478,3.468H3.475A3.476,3.476,0,0,1,0,52.063V18.3A3.476,3.476,0,0,1,3.475,14.835ZM52.624,53.888a1.832,1.832,0,0,0,1.835-1.825V18.3a1.832,1.832,0,0,0-1.835-1.825H3.475A1.83,1.83,0,0,0,1.644,18.3v33.76a1.83,1.83,0,0,0,1.832,1.825Z"/>
        <path id="Trazado_656521" data-name="Trazado 656521" d="M142,447.489H127.408a2.32,2.32,0,0,0-2.318,2.309V451.5a.606.606,0,0,0,.6.606h27.478a.606.606,0,0,0,.6-.606V449.8a2.317,2.317,0,0,0-2.315-2.309H142Z" transform="translate(-111.383 -385.246)" fill="#004281" fill-rule="evenodd"/>
        <path id="Trazado_656522" data-name="Trazado 656522" d="M331.7,449.8a2.317,2.317,0,0,0-2.315-2.309h-4.475a2.32,2.32,0,0,1,2.318,2.309v1.707a.606.606,0,0,1-.6.606H331.1a.606.606,0,0,0,.6-.606Z" transform="translate(-289.309 -385.247)" fill="#00366d" fill-rule="evenodd"/>
        <path id="Trazado_656523" data-name="Trazado 656523" d="M146.494,446.255H119.016a1.428,1.428,0,0,1-1.426-1.427v-1.707a3.139,3.139,0,0,1,3.14-3.131h24.052a3.137,3.137,0,0,1,3.137,3.131v1.707A1.428,1.428,0,0,1,146.494,446.255Zm-27.26-1.644h27.042v-1.49a1.492,1.492,0,0,0-1.493-1.487H120.73a1.494,1.494,0,0,0-1.5,1.487Z" transform="translate(-104.705 -378.569)"/>
      </g>
    </g>
  </g>
</svg>
