<svg xmlns="http://www.w3.org/2000/svg" width="295" height="268.134" viewBox="0 0 295 268.134">
  <g id="Grupo_81219" data-name="Grupo 81219" transform="translate(-1020 -748)">
    <g id="Grupo_81217" data-name="Grupo 81217" transform="translate(1043.89 753.233)">
      <path id="Trazado_113531" data-name="Trazado 113531" d="M845.995,679.626c15.8-20.327,26.9-38.98,13.9-55.094-13.9-17.22-3.475-47.88,26.9-42.207s60.237,23.178,103.827-6.093c19.511-13.3,39.92-7.39,46.446,5.056,15.271,29.123-39.755,52.008-18.8,74.4,26.076,27.857,24.3,48.966,2.072,72.085-16.993,17.674,10.042,28.436-7.251,54.066-17.776,26.347-100.273,28.478-138.273,3.172C836.637,759.585,824.058,707.854,845.995,679.626Z" transform="translate(-820.168 -555.95)" fill="#e6e1fb"/>
      <g id="Grupo_81158" data-name="Grupo 81158" transform="translate(0 117.271)">
        <path id="Rectángulo_34849" data-name="Rectángulo 34849" d="M19.822,0H91.656a0,0,0,0,1,0,0V47.832a0,0,0,0,1,0,0H19.822A19.822,19.822,0,0,1,0,28.01V19.822A19.822,19.822,0,0,1,19.822,0Z" transform="translate(0.408 0.408)" fill="#c4baf5"/>
        <path id="Trazado_113532" data-name="Trazado 113532" d="M902.688,790.927H822.548a12.359,12.359,0,0,1-12.331-12.358V754.636a12.359,12.359,0,0,1,12.331-12.358h80.139Zm-80.139-47.833a11.542,11.542,0,0,0-11.517,11.542v23.933a11.542,11.542,0,0,0,11.517,11.542h79.325V743.094Z" transform="translate(-810.217 -742.278)" fill="#32293a"/>
      </g>
      <g id="Grupo_81159" data-name="Grupo 81159" transform="translate(59.098 132.104)">
        <path id="Rectángulo_34850" data-name="Rectángulo 34850" d="M3.788,0H30.622a.949.949,0,0,1,.949.949V6.627a.949.949,0,0,1-.949.949H3.788A3.788,3.788,0,0,1,0,3.788v0A3.788,3.788,0,0,1,3.788,0Z" transform="translate(0.408 0.408)" fill="#fffdf7"/>
        <path id="Trazado_113533" data-name="Trazado 113533" d="M939.386,775.3H912.542a4.2,4.2,0,0,1,0-8.393h26.845a1.357,1.357,0,0,1,1.354,1.357v5.679A1.358,1.358,0,0,1,939.386,775.3Zm-26.845-7.577a3.38,3.38,0,0,0,0,6.76h26.845a.541.541,0,0,0,.54-.541v-5.679a.541.541,0,0,0-.54-.541Z" transform="translate(-908.354 -766.909)" fill="#32293a"/>
      </g>
      <g id="Grupo_81160" data-name="Grupo 81160" transform="translate(59.098 143.92)">
        <path id="Rectángulo_34851" data-name="Rectángulo 34851" d="M3.788,0H30.622a.949.949,0,0,1,.949.949V6.627a.949.949,0,0,1-.949.949H3.788A3.788,3.788,0,0,1,0,3.788v0A3.788,3.788,0,0,1,3.788,0Z" transform="translate(0.408 0.408)" fill="#fff5d7"/>
        <path id="Trazado_113534" data-name="Trazado 113534" d="M939.386,794.922H912.542a4.2,4.2,0,0,1,0-8.392h26.845a1.357,1.357,0,0,1,1.354,1.357v5.678A1.357,1.357,0,0,1,939.386,794.922Zm-26.845-7.576a3.38,3.38,0,0,0,0,6.76h26.845a.541.541,0,0,0,.54-.541v-5.678a.541.541,0,0,0-.54-.541Z" transform="translate(-908.354 -786.53)" fill="#32293a"/>
      </g>
      <g id="Grupo_81161" data-name="Grupo 81161" transform="translate(167.721 12.485)">
        <path id="Trazado_113535" data-name="Trazado 113535" d="M1168.384,568.947V621.7a7.418,7.418,0,0,1-7.407,7.429h-64.161a7.418,7.418,0,0,1-7.407-7.429v-52.75Z" transform="translate(-1089.002 -568.539)" fill="#fffdf7"/>
        <path id="Trazado_113536" data-name="Trazado 113536" d="M1160.708,629.265h-64.161a7.835,7.835,0,0,1-7.814-7.838V568.27h79.789v53.158A7.835,7.835,0,0,1,1160.708,629.265Zm-71.161-60.179v52.342a7.019,7.019,0,0,0,7,7.022h64.161a7.019,7.019,0,0,0,7-7.022V569.086Z" transform="translate(-1088.733 -568.27)" fill="#32293a"/>
      </g>
      <rect id="Rectángulo_34852" data-name="Rectángulo 34852" width="64.596" height="20.951" rx="6.029" transform="translate(175.47 18.654)" fill="#e6e1fb"/>
      <path id="Rectángulo_34853" data-name="Rectángulo 34853" d="M6.029,0H58.567A6.029,6.029,0,0,1,64.6,6.029v8.893a6.029,6.029,0,0,1-6.029,6.029H6.03A6.03,6.03,0,0,1,0,14.922V6.029A6.029,6.029,0,0,1,6.029,0Z" transform="translate(175.47 45.438)" fill="#e6e1fb"/>
      <path id="Trazado_113537" data-name="Trazado 113537" d="M1168.384,555.645V560.7h-78.975v-5.055a7.418,7.418,0,0,1,7.407-7.429h64.161A7.418,7.418,0,0,1,1168.384,555.645Z" transform="translate(-921.281 -547.808)" fill="#583ae2"/>
      <path id="Trazado_113538" data-name="Trazado 113538" d="M1168.522,560.839h-79.789v-5.463a7.835,7.835,0,0,1,7.814-7.838h64.161a7.835,7.835,0,0,1,7.814,7.838Zm-78.975-.816h78.16v-4.647a7.018,7.018,0,0,0-7-7.021h-64.161a7.019,7.019,0,0,0-7,7.021Z" transform="translate(-921.012 -547.538)" fill="#32293a"/>
      <g id="Grupo_81162" data-name="Grupo 81162" transform="translate(172.379 4.325)">
        <path id="Rectángulo_34854" data-name="Rectángulo 34854" d="M2.076,0H44.355a2.076,2.076,0,0,1,2.076,2.076v0a2.076,2.076,0,0,1-2.076,2.076H2.076A2.076,2.076,0,0,1,0,2.076v0A2.076,2.076,0,0,1,2.076,0Z" transform="translate(0.407 0.408)" fill="#fffdf7"/>
        <path id="Trazado_113539" data-name="Trazado 113539" d="M1141.235,559.688h-42.288a2.484,2.484,0,0,1,0-4.968h42.288a2.484,2.484,0,0,1,0,4.968Zm-42.288-4.152a1.668,1.668,0,0,0,0,3.336h42.288a1.668,1.668,0,0,0,0-3.336Z" transform="translate(-1096.468 -554.72)" fill="#32293a"/>
      </g>
      <g id="Grupo_81163" data-name="Grupo 81163" transform="translate(236.407 4.118)">
        <path id="Trazado_113540" data-name="Trazado 113540" d="M1203.467,557.334a2.276,2.276,0,1,1,2.276,2.28A2.278,2.278,0,0,1,1203.467,557.334Z" transform="translate(-1203.061 -554.645)" fill="#fffdf7"/>
        <path id="Trazado_113541" data-name="Trazado 113541" d="M1205.475,559.753a2.689,2.689,0,1,1,2.683-2.688A2.689,2.689,0,0,1,1205.475,559.753Zm0-4.561a1.873,1.873,0,1,0,1.868,1.873A1.873,1.873,0,0,0,1205.475,555.192Z" transform="translate(-1202.792 -554.376)" fill="#32293a"/>
      </g>
      <g id="Grupo_81164" data-name="Grupo 81164" transform="translate(230.829 4.912)">
        <path id="Trazado_113542" data-name="Trazado 113542" d="M1194.206,557.859a1.483,1.483,0,1,1,1.483,1.486A1.485,1.485,0,0,1,1194.206,557.859Z" transform="translate(-1193.799 -555.965)" fill="#fffdf7"/>
        <path id="Trazado_113543" data-name="Trazado 113543" d="M1195.42,559.483a1.894,1.894,0,1,1,1.89-1.894A1.894,1.894,0,0,1,1195.42,559.483Zm0-2.972a1.078,1.078,0,1,0,1.076,1.079A1.078,1.078,0,0,0,1195.42,556.511Z" transform="translate(-1193.53 -555.695)" fill="#32293a"/>
      </g>
      <path id="Trazado_113544" data-name="Trazado 113544" d="M969.417,614.046a2.974,2.974,0,0,1-4.255-2.792c-.246-3.241-3.215-2.116-3.254-4.719s2.519-1.553,3.4-5.631,4.654-2.937,6.3-4.159,4.3-6.379,8.584-4.935,5.49,6.9,3.345,10.955-8.824,10.8-8.824,10.8Z" transform="translate(-870.561 -565.049)" fill="#32293a"/>
      <g id="Grupo_81171" data-name="Grupo 81171" transform="translate(120.137 224.033)">
        <path id="Trazado_113545" data-name="Trazado 113545" d="M1030.39,933.992h-16.815l4.07-14.427h16.815Z" transform="translate(-1011.25 -919.565)" fill="#f4c7a8"/>
        <path id="Trazado_113546" data-name="Trazado 113546" d="M1010.141,933.916v-1.2a2.365,2.365,0,0,1,2.362-2.368h.786a2.362,2.362,0,0,1,2.107,1.3l1.115,2.2a2.362,2.362,0,0,0,2.107,1.3h6.8a2.362,2.362,0,0,0,1.92-.988l3.761-5.258a2.361,2.361,0,0,1,1.92-.988h0a2.9,2.9,0,0,1,1.737.762c6.522,5.032,13.555,10.013,20.384,14.465a5.63,5.63,0,0,1,2.641,2.667l1.692,5.017h-49.18Z" transform="translate(-1009.884 -922.886)" fill="#583ae2"/>
        <g id="Grupo_81165" data-name="Grupo 81165" transform="translate(0 27.531)">
          <path id="Trazado_113547" data-name="Trazado 113547" d="M1057.782,972.338h-46.14a1.932,1.932,0,0,1-1.927-1.931v-4.716a.407.407,0,1,1,.814,0v4.716a1.115,1.115,0,0,0,1.113,1.115h46.14a1.114,1.114,0,0,0,1.112-1.115v-4.716a.407.407,0,1,1,.815,0v4.716A1.932,1.932,0,0,1,1057.782,972.338Z" transform="translate(-1009.715 -965.283)" fill="#32293a"/>
        </g>
        <g id="Grupo_81166" data-name="Grupo 81166" transform="translate(0.256 17.808)">
          <path id="Trazado_113548" data-name="Trazado 113548" d="M1019.834,959.491l-5.031-7.738a3.939,3.939,0,0,0-3.313-1.8h-1.35v-.817h1.35a4.753,4.753,0,0,1,4,2.17l5.03,7.738Z" transform="translate(-1010.14 -949.137)" fill="#32293a"/>
        </g>
        <g id="Grupo_81167" data-name="Grupo 81167" transform="translate(24.298 7.948)">
          <path id="Trazado_113549" data-name="Trazado 113549" d="M1062.17,947.124a2.375,2.375,0,0,1-1.306-.392l-9.713-6.367a2.4,2.4,0,0,1-.621-3.429l3.051-4.173.657.482-3.052,4.172a1.589,1.589,0,0,0,.409,2.264l9.713,6.367a1.58,1.58,0,0,0,2.2-.465l2.5-3.865.682.444-2.5,3.866a2.4,2.4,0,0,1-2.016,1.1Z" transform="translate(-1050.064 -932.763)" fill="#32293a"/>
        </g>
        <g id="Grupo_81168" data-name="Grupo 81168" transform="translate(26.965 10.182)">
          <path id="Trazado_113550" data-name="Trazado 113550" d="M1058.975,937.149l-3.8,5.43Z" transform="translate(-1054.762 -936.742)" fill="#ffcc38"/>
          <path id="Trazado_113551" data-name="Trazado 113551" d="M1054.9,942.718a.4.4,0,0,1-.234-.074.409.409,0,0,1-.1-.568l3.806-5.43a.407.407,0,1,1,.666.468l-3.806,5.43A.4.4,0,0,1,1054.9,942.718Z" transform="translate(-1054.493 -936.473)" fill="#32293a"/>
        </g>
        <g id="Grupo_81169" data-name="Grupo 81169" transform="translate(30.013 12.332)">
          <path id="Trazado_113552" data-name="Trazado 113552" d="M1064.035,940.72l-3.8,5.43Z" transform="translate(-1059.823 -940.312)" fill="#ffcc38"/>
          <path id="Trazado_113553" data-name="Trazado 113553" d="M1059.961,946.289a.4.4,0,0,1-.234-.075.408.408,0,0,1-.1-.568l3.8-5.43a.407.407,0,1,1,.666.469l-3.8,5.43A.406.406,0,0,1,1059.961,946.289Z" transform="translate(-1059.555 -940.043)" fill="#32293a"/>
        </g>
        <g id="Grupo_81170" data-name="Grupo 81170" transform="translate(33.117 14.351)">
          <path id="Trazado_113554" data-name="Trazado 113554" d="M1069.191,944.074l-3.8,5.43Z" transform="translate(-1064.979 -943.666)" fill="#ffcc38"/>
          <path id="Trazado_113555" data-name="Trazado 113555" d="M1065.117,949.642a.407.407,0,0,1-.333-.643l3.8-5.429a.407.407,0,1,1,.667.469l-3.8,5.429A.406.406,0,0,1,1065.117,949.642Z" transform="translate(-1064.71 -943.397)" fill="#32293a"/>
        </g>
      </g>
      <g id="Grupo_81177" data-name="Grupo 81177" transform="translate(89.083 224.32)">
        <rect id="Rectángulo_34855" data-name="Rectángulo 34855" width="16.815" height="17.584" transform="translate(4.901)" fill="#f4c7a8"/>
        <path id="Trazado_113556" data-name="Trazado 113556" d="M981.154,933.283H980.5a2.058,2.058,0,0,0-1.818,1.1l-1.318,2.486H965.378l-1.319-2.486a2.057,2.057,0,0,0-1.818-1.1h-.655a2.905,2.905,0,0,0-2.9,2.91v18.866a3.372,3.372,0,0,0,3.368,3.376h18.637a3.372,3.372,0,0,0,3.368-3.376V936.193A2.9,2.9,0,0,0,981.154,933.283Z" transform="translate(-958.361 -925.309)" fill="#583ae2"/>
        <path id="Trazado_113557" data-name="Trazado 113557" d="M970.661,934.575v-1.565a5.479,5.479,0,0,1,5.474-5.485h0a5.48,5.48,0,0,1,5.474,5.485v1.565Z" transform="translate(-963.126 -923.018)" fill="#583ae2"/>
        <g id="Grupo_81172" data-name="Grupo 81172" transform="translate(7.128 11.148)">
          <path id="Trazado_113558" data-name="Trazado 113558" d="M981.609,939.232l-1.72,12.168a2.588,2.588,0,0,1-2.56,2.228h-2.387a2.588,2.588,0,0,1-2.56-2.228l-1.72-12.168Z" transform="translate(-970.254 -938.824)" fill="#583ae2"/>
          <path id="Trazado_113559" data-name="Trazado 113559" d="M977.059,953.767h-2.387a3.01,3.01,0,0,1-2.963-2.579l-1.72-12.168a.407.407,0,1,1,.805-.115l1.72,12.167a2.192,2.192,0,0,0,2.158,1.878h2.387a2.192,2.192,0,0,0,2.158-1.878l1.719-12.167a.407.407,0,1,1,.805.115l-1.719,12.168A3.009,3.009,0,0,1,977.059,953.767Z" transform="translate(-969.985 -938.555)" fill="#32293a"/>
        </g>
        <g id="Grupo_81173" data-name="Grupo 81173" transform="translate(7.788 14.626)">
          <path id="Trazado_113560" data-name="Trazado 113560" d="M971.758,945.008h0Z" transform="translate(-971.35 -944.6)" fill="#ffcc38"/>
          <path id="Trazado_113561" data-name="Trazado 113561" d="M981.284,945.146h-9.8a.408.408,0,0,1,0-.816h9.8a.408.408,0,0,1,0,.816Z" transform="translate(-971.081 -944.33)" fill="#32293a"/>
        </g>
        <g id="Grupo_81174" data-name="Grupo 81174" transform="translate(8.681 18.339)">
          <path id="Trazado_113562" data-name="Trazado 113562" d="M973.239,951.174h0Z" transform="translate(-972.832 -950.766)" fill="#ffcc38"/>
          <path id="Trazado_113563" data-name="Trazado 113563" d="M980.982,951.313H972.97a.408.408,0,0,1,0-.817h8.012a.408.408,0,0,1,0,.817Z" transform="translate(-972.563 -950.496)" fill="#32293a"/>
        </g>
        <g id="Grupo_81175" data-name="Grupo 81175" transform="translate(9.047 22.104)">
          <path id="Trazado_113564" data-name="Trazado 113564" d="M973.848,957.424h0Z" transform="translate(-973.441 -957.016)" fill="#ffcc38"/>
          <path id="Trazado_113565" data-name="Trazado 113565" d="M980.858,957.563h-7.279a.408.408,0,0,1,0-.816h7.279a.408.408,0,0,1,0,.816Z" transform="translate(-973.172 -956.747)" fill="#32293a"/>
        </g>
        <g id="Grupo_81176" data-name="Grupo 81176" transform="translate(0 29.531)">
          <path id="Trazado_113566" data-name="Trazado 113566" d="M980.561,978.13H961.924a3.783,3.783,0,0,1-3.776-3.783v-4.859a.407.407,0,1,1,.814,0v4.859a2.967,2.967,0,0,0,2.962,2.967h18.637a2.967,2.967,0,0,0,2.962-2.967v-4.859a.407.407,0,1,1,.814,0v4.859A3.783,3.783,0,0,1,980.561,978.13Z" transform="translate(-958.148 -969.08)" fill="#32293a"/>
        </g>
      </g>
      <path id="Trazado_113567" data-name="Trazado 113567" d="M957.841,732.531V847.318a1.123,1.123,0,0,0,1.122,1.124h25.191a1.124,1.124,0,0,0,1.122-1.124V770.147l19,27.359L989.35,847.029a1.124,1.124,0,0,0,1.047,1.449l24.08.572a1.122,1.122,0,0,0,1.1-.783l14.931-47.072a16.542,16.542,0,0,0-1.883-13.995l-25.23-38.938a6.068,6.068,0,0,1-.975-3.232l-.145-12.5Z" transform="translate(-868.943 -621.129)" fill="#32293a"/>
      <path id="Trazado_113568" data-name="Trazado 113568" d="M1059.479,622.634h12.162l3.581-28.278a6.772,6.772,0,0,1,4.553-5.57l21.042-7.047a.533.533,0,0,1,.674.321l.191.52,4.1-1.339a.474.474,0,0,1,.577.258,3.54,3.54,0,0,1-.017,2.683c1.167,2-.467,4.3-1.524,4.909.3,1.48.044,2.707-1.284,3.476s-11.031,6.861-11.031,6.861c.314,2.327-3.83,4.8-5.1,5.072.1,2.015.613,19.613.929,30.592a8.568,8.568,0,0,1-8.525,8.822l-20.327.075Z" transform="translate(-909.375 -560.936)" fill="#f4c7a8"/>
      <g id="Grupo_81178" data-name="Grupo 81178" transform="translate(161.411 19.874)">
        <path id="Trazado_113569" data-name="Trazado 113569" d="M1095.638,629.657a.408.408,0,0,1-.407-.4c-.443-15.251-.7-23.665-.767-25.01a.406.406,0,0,1,.32-.419c.506-.11,4.952-1.178,4.813-4.759a.4.4,0,0,1,.189-.361c.389-.245,9.512-6,10.83-6.769,1.059-.613,1.4-1.551,1.09-3.04a.408.408,0,0,1,.221-.449,3.389,3.389,0,0,0,1.519-4.364.409.409,0,0,1-.013-.328,3.2,3.2,0,0,0,.024-2.366l-4.18,1.3a.407.407,0,0,1-.509-.248l-.19-.52a.127.127,0,0,0-.16-.076l-21.047,7.049a6.4,6.4,0,0,0-4.278,5.234l-4.029,32.079a.407.407,0,1,1-.807-.1l4.029-32.08a7.221,7.221,0,0,1,4.825-5.905l21.045-7.047a.946.946,0,0,1,1.185.567l.055.152,3.729-1.218a.878.878,0,0,1,1.073.478,3.9,3.9,0,0,1,.051,2.838,4.264,4.264,0,0,1-1.692,5.143,3.22,3.22,0,0,1-1.536,3.608c-1.2.7-9.252,5.773-10.609,6.63-.025,3.6-3.871,4.93-5.123,5.266.085,2.094.338,10.388.754,24.69a.408.408,0,0,1-.4.42Z" transform="translate(-1078.255 -580.541)" fill="#32293a"/>
      </g>
      <path id="Trazado_113570" data-name="Trazado 113570" d="M927.847,657.791l-11.221,22.661L934.768,687l6.678-11.521V699.7h44.431V671.348h16.775V649.993l-62.554.162A13.714,13.714,0,0,0,927.847,657.791Z" transform="translate(-852.547 -588.295)" fill="#2ff980"/>
      <path id="Trazado_113571" data-name="Trazado 113571" d="M975.346,633.089c0,4.127,3.56,10.585,11.906,10.585s9.009-6.653,8.89-10.634l-3.321-2.443a4.8,4.8,0,0,1-1.546-1.928l-2.21-5.012s5.448-1.053,4.8-6.025-5.581-10.454-5.581-10.454c-1.338,2.594-8.964,1.808-8.964,1.808-.2,2.4-2.907,2.223-2.647,3.867s1.755,5.254-1.009,5.235-4.855,3.182-2.962,4.9a3.715,3.715,0,0,0,4.947.327c.239.858.578,2.054.888,3.146a4.8,4.8,0,0,1-1.265,4.749Z" transform="translate(-874.567 -571.263)" fill="#f4c7a8"/>
      <path id="Trazado_113572" data-name="Trazado 113572" d="M1001.738,715.486l-7.419,2.6a4.28,4.28,0,0,1-5.455-2.637l-7.779-22.326a4.294,4.294,0,0,1,2.631-5.467l7.419-2.6a4.281,4.281,0,0,1,5.455,2.638l7.779,22.326A4.294,4.294,0,0,1,1001.738,715.486Z" transform="translate(-878.094 -602.148)" fill="#32293a"/>
      <g id="Grupo_81179" data-name="Grupo 81179" transform="translate(110.753 106.593)">
        <path id="Trazado_113573" data-name="Trazado 113573" d="M997.47,734.86a3.514,3.514,0,0,1-3.314-2.357.407.407,0,1,1,.769-.269,2.691,2.691,0,0,0,3.43,1.658l9.651-3.378a2.7,2.7,0,0,0,1.656-3.438l-.694-1.99a.407.407,0,1,1,.769-.269l.694,1.99a3.516,3.516,0,0,1-2.155,4.477l-9.651,3.378A3.5,3.5,0,0,1,997.47,734.86Z" transform="translate(-994.133 -724.545)" fill="#faf5ff"/>
      </g>
      <path id="Trazado_113574" data-name="Trazado 113574" d="M911.738,698.338l-6.208,14.234a13.874,13.874,0,0,0,16.508,18.91l34.612-9.93s15.068-7.33,16.659-8.183c2.532-1.357,1.62-5.738-1.142-4.608,2.834-1.249,1.031-5.415-1.233-4.682,2.551-.963,1.421-4.767-1.064-4.35,2.241-.956.268-5.356-1.854-4.707.028.055-16.153,5.611-16.153,5.611l-1.315-3.772-7.182,9.507L927.6,710.722l2.281-5.835Z" transform="translate(-847.659 -606.182)" fill="#f4c7a8"/>
      <g id="Grupo_81180" data-name="Grupo 81180" transform="translate(74.204 88.367)">
        <path id="Trazado_113575" data-name="Trazado 113575" d="M937.48,730.512a.408.408,0,0,1-.111-.8l30.746-8.821c.084-.048,15.013-7.311,16.578-8.151a2.53,2.53,0,0,0,1.062-3.222,1.308,1.308,0,0,0-1.858-.649.408.408,0,0,1-.318-.751,1.97,1.97,0,0,0,1.045-2.657,1.707,1.707,0,0,0-1.989-1.263.408.408,0,0,1-.269-.77,1.756,1.756,0,0,0,1.108-2.2,1.715,1.715,0,0,0-1.961-1.362.4.4,0,0,1-.458-.288.407.407,0,0,1,.232-.49c.88-.376.85-1.454.556-2.262-.376-1.033-1.283-1.945-2.132-1.68l-.009-.028c-.733.346-3.662,1.354-16.131,5.636a.408.408,0,0,1-.516-.252l-1.063-3.054-6.723,8.9a.413.413,0,0,1-.217.147l-21.1,5.827a.408.408,0,0,1-.216-.787l20.963-5.79,7.1-9.4a.412.412,0,0,1,.388-.157.407.407,0,0,1,.321.269l1.18,3.39c6.179-2.123,15.134-5.213,15.7-5.451a.437.437,0,0,1,.079-.034c1.37-.414,2.637.811,3.134,2.181a2.869,2.869,0,0,1-.124,2.564,2.764,2.764,0,0,1,1.27,4.333,3.089,3.089,0,0,1,1.322,4.518,2.094,2.094,0,0,1,1.416,1.212,3.368,3.368,0,0,1-1.414,4.288c-1.58.847-16.057,7.892-16.673,8.191L937.591,730.5A.393.393,0,0,1,937.48,730.512Z" transform="translate(-933.439 -694.28)" fill="#32293a"/>
      </g>
      <g id="Grupo_81181" data-name="Grupo 81181" transform="translate(112.251 93.139)">
        <path id="Trazado_113576" data-name="Trazado 113576" d="M997.028,707.034a.408.408,0,0,1-.158-.784l9.551-4.014a.407.407,0,0,1,.315.752L997.185,707A.412.412,0,0,1,997.028,707.034Z" transform="translate(-996.621 -702.205)" fill="#32293a"/>
      </g>
      <g id="Grupo_81182" data-name="Grupo 81182" transform="translate(113.608 97.489)">
        <path id="Trazado_113577" data-name="Trazado 113577" d="M999.281,713.924a.408.408,0,0,1-.15-.787l9.259-3.68a.408.408,0,0,1,.3.758l-9.259,3.68A.4.4,0,0,1,999.281,713.924Z" transform="translate(-998.875 -709.427)" fill="#32293a"/>
      </g>
      <g id="Grupo_81183" data-name="Grupo 81183" transform="translate(114.837 102.171)">
        <path id="Trazado_113578" data-name="Trazado 113578" d="M1001.322,721.648a.408.408,0,0,1-.149-.788l9.264-3.63a.407.407,0,0,1,.3.759l-9.263,3.631A.4.4,0,0,1,1001.322,721.648Z" transform="translate(-1000.915 -717.202)" fill="#32293a"/>
      </g>
      <g id="Grupo_81184" data-name="Grupo 81184" transform="translate(88.491 79.19)">
        <path id="Trazado_113579" data-name="Trazado 113579" d="M957.572,702.3a.407.407,0,0,1-.407-.408V679.448a.407.407,0,1,1,.814,0v22.443A.407.407,0,0,1,957.572,702.3Z" transform="translate(-957.165 -679.04)" fill="#32293a"/>
      </g>
      <g id="Grupo_81185" data-name="Grupo 81185" transform="translate(132.676 79.19)">
        <path id="Trazado_113580" data-name="Trazado 113580" d="M1030.946,702.3a.408.408,0,0,1-.408-.408V679.448a.407.407,0,1,1,.815,0v22.443A.407.407,0,0,1,1030.946,702.3Z" transform="translate(-1030.538 -679.04)" fill="#32293a"/>
      </g>
      <g id="Grupo_81186" data-name="Grupo 81186" transform="translate(63.672 77.609)">
        <path id="Trazado_113581" data-name="Trazado 113581" d="M934.5,697.92a.411.411,0,0,1-.138-.024l-18.142-6.549a.407.407,0,0,1-.226-.565l7-14.139a.407.407,0,1,1,.729.362l-6.8,13.729,17.394,6.279,6.507-11.227a.408.408,0,0,1,.7.41l-6.678,11.521A.408.408,0,0,1,934.5,697.92Z" transform="translate(-915.95 -676.416)" fill="#32293a"/>
      </g>
      <g id="Grupo_81187" data-name="Grupo 81187" transform="translate(181.191 20.884)">
        <path id="Trazado_113582" data-name="Trazado 113582" d="M1111.507,591.41a.408.408,0,0,1-.164-.782c1.866-.82,6.436-2.836,8.589-3.857,2.458-1.165,2.169-3,1.777-4a.407.407,0,1,1,.758-.3c.311.789,1.073,3.487-2.187,5.032-2.162,1.025-6.74,3.045-8.609,3.867A.413.413,0,0,1,1111.507,591.41Z" transform="translate(-1111.101 -582.218)" fill="#32293a"/>
      </g>
      <g id="Grupo_81188" data-name="Grupo 81188" transform="translate(188.649 21.665)">
        <path id="Trazado_113583" data-name="Trazado 113583" d="M1123.894,590.842a.409.409,0,0,1-.194-.767c1.705-.924,4.737-2.58,5.881-3.292a4.184,4.184,0,0,0,2.092-2.936.407.407,0,1,1,.8.152,5.05,5.05,0,0,1-2.461,3.478c-1.163.723-4.211,2.388-5.923,3.317A.413.413,0,0,1,1123.894,590.842Z" transform="translate(-1123.486 -583.515)" fill="#32293a"/>
      </g>
      <g id="Grupo_81189" data-name="Grupo 81189" transform="translate(189.076 27.595)">
        <path id="Trazado_113584" data-name="Trazado 113584" d="M1124.6,597.74a.408.408,0,0,1-.206-.76l6.059-3.561a.407.407,0,1,1,.411.7l-6.059,3.561A.407.407,0,0,1,1124.6,597.74Z" transform="translate(-1124.196 -593.363)" fill="#32293a"/>
      </g>
      <g id="Grupo_81190" data-name="Grupo 81190" transform="translate(175.512 28.63)">
        <path id="Trazado_113585" data-name="Trazado 113585" d="M1109.316,605.682a.4.4,0,0,1-.046,0,.407.407,0,0,1-.359-.45,11.949,11.949,0,0,0-.131-3.607.409.409,0,0,1,.3-.465c.033-.009,3.328-.9,4.584-2.422a2.257,2.257,0,0,0-.047-2.714.252.252,0,0,0-.287-.113l-11.126,3.51a.408.408,0,0,1-.246-.778l11.126-3.51a1.057,1.057,0,0,1,1.228.468,3.031,3.031,0,0,1-.021,3.656c-1.172,1.418-3.7,2.3-4.646,2.587a12.533,12.533,0,0,1,.078,3.476A.408.408,0,0,1,1109.316,605.682Z" transform="translate(-1101.671 -595.081)" fill="#32293a"/>
      </g>
      <g id="Grupo_81191" data-name="Grupo 81191" transform="translate(149.697 61.29)">
        <path id="Trazado_113586" data-name="Trazado 113586" d="M1059.209,671.486a.408.408,0,0,1-.407-.408V649.724a.408.408,0,0,1,.407-.408h12.163a.408.408,0,0,1,0,.816h-11.755v20.946A.408.408,0,0,1,1059.209,671.486Z" transform="translate(-1058.802 -649.316)" fill="#32293a"/>
      </g>
      <g id="Grupo_81192" data-name="Grupo 81192" transform="translate(130.459 61.29)">
        <path id="Trazado_113587" data-name="Trazado 113587" d="M1046.5,650.132h-19.237a.408.408,0,0,1,0-.816H1046.5a.408.408,0,0,1,0,.816Z" transform="translate(-1026.857 -649.316)" fill="#32293a"/>
      </g>
      <g id="Grupo_81193" data-name="Grupo 81193" transform="translate(115.926 137.789)">
        <path id="Trazado_113588" data-name="Trazado 113588" d="M1003.13,802.761a.407.407,0,0,1-.407-.408l.045-14.962,5.571-10.822a.407.407,0,1,1,.723.374l-5.526,10.734v14.677A.407.407,0,0,1,1003.13,802.761Z" transform="translate(-1002.723 -776.349)" fill="#faf5ff"/>
      </g>
      <g id="Grupo_81194" data-name="Grupo 81194" transform="translate(130.689 169.871)">
        <path id="Trazado_113589" data-name="Trazado 113589" d="M1034.509,840.239a.407.407,0,0,1-.333-.174l-6.863-9.8a.407.407,0,1,1,.666-.469l6.864,9.8a.409.409,0,0,1-.333.643Z" transform="translate(-1027.238 -829.625)" fill="#faf5ff"/>
      </g>
      <g id="Grupo_81195" data-name="Grupo 81195" transform="translate(96.619 123.269)">
        <path id="Trazado_113590" data-name="Trazado 113590" d="M971.069,761.768a.408.408,0,0,1,0-.816c5.338,0,8.29-4.911,8.29-8.307a.407.407,0,1,1,.814,0A9.361,9.361,0,0,1,971.069,761.768Z" transform="translate(-970.662 -752.237)" fill="#faf5ff"/>
      </g>
      <g id="Grupo_81196" data-name="Grupo 81196" transform="translate(112.251 85.942)">
        <path id="Trazado_113591" data-name="Trazado 113591" d="M998.519,694.057a1.9,1.9,0,1,1,1.9-1.9A1.9,1.9,0,0,1,998.519,694.057Zm0-2.988a1.086,1.086,0,1,0,1.084,1.086A1.086,1.086,0,0,0,998.519,691.069Z" transform="translate(-996.621 -690.253)" fill="#faf5ff"/>
      </g>
      <g id="Grupo_81197" data-name="Grupo 81197" transform="translate(114.143 37.414)">
        <path id="Trazado_113592" data-name="Trazado 113592" d="M1002.524,616.367a.4.4,0,0,1-.12-.019.407.407,0,0,1-.269-.509l.311-1.01a.216.216,0,0,0-.03-.189.191.191,0,0,0-.146-.085,2.668,2.668,0,0,1-2.058-.979,2.367,2.367,0,0,1-.4-1.878,3.044,3.044,0,0,1,1.327-1.97.408.408,0,0,1,.43.693,2.233,2.233,0,0,0-.957,1.428,1.551,1.551,0,0,0,.258,1.239,1.932,1.932,0,0,0,1.457.652,1,1,0,0,1,.764.436,1.028,1.028,0,0,1,.137.892l-.311,1.01A.407.407,0,0,1,1002.524,616.367Z" transform="translate(-999.761 -609.667)" fill="#32293a"/>
      </g>
      <g id="Grupo_81198" data-name="Grupo 81198" transform="translate(112.408 47.959)">
        <path id="Trazado_113593" data-name="Trazado 113593" d="M998.339,632.02a5.832,5.832,0,0,1-1.13-.112.408.408,0,0,1,.157-.8c3.153.621,5.293-1.91,5.894-3.654a.407.407,0,1,1,.769.267A6.373,6.373,0,0,1,998.339,632.02Z" transform="translate(-996.881 -627.179)" fill="#32293a"/>
      </g>
      <g id="Grupo_81199" data-name="Grupo 81199" transform="translate(107.211 40.97)">
        <path id="Trazado_113594" data-name="Trazado 113594" d="M988.659,618.675a.392.392,0,0,1-.059,0,.407.407,0,0,1-.344-.461,3.2,3.2,0,0,1,1.318-2.152,2.721,2.721,0,0,1,2.19-.412.408.408,0,0,1-.177.8,1.919,1.919,0,0,0-1.551.287,2.41,2.41,0,0,0-.974,1.6A.406.406,0,0,1,988.659,618.675Z" transform="translate(-988.251 -615.573)" fill="#32293a"/>
      </g>
      <path id="Trazado_113595" data-name="Trazado 113595" d="M994.112,619.618a.82.82,0,1,1-1.213-.413A.921.921,0,0,1,994.112,619.618Z" transform="translate(-882.76 -576.006)" fill="#32293a"/>
      <path id="Trazado_113596" data-name="Trazado 113596" d="M1002.777,614.065a.82.82,0,1,1-1.213-.413A.921.921,0,0,1,1002.777,614.065Z" transform="translate(-886.207 -573.797)" fill="#32293a"/>
      <g id="Grupo_81200" data-name="Grupo 81200" transform="translate(114.787 45.647)">
        <path id="Trazado_113597" data-name="Trazado 113597" d="M1001.709,625.02a1.66,1.66,0,0,1-.624-.122.408.408,0,0,1,.306-.756.815.815,0,0,0,.688-.028.621.621,0,0,0,.322-.444.4.4,0,0,1,.478-.323.408.408,0,0,1,.322.478,1.437,1.437,0,0,1-.733,1.007A1.6,1.6,0,0,1,1001.709,625.02Z" transform="translate(-1000.831 -623.339)" fill="#32293a"/>
      </g>
      <g id="Grupo_81201" data-name="Grupo 81201" transform="translate(100.372 51.64)">
        <path id="Trazado_113598" data-name="Trazado 113598" d="M977.3,643.885a.409.409,0,0,1-.288-.7l2.39-2.4a3.58,3.58,0,0,0,.88-3.626l-1.062-3.341a.407.407,0,1,1,.776-.247l1.062,3.341a4.4,4.4,0,0,1-1.079,4.45l-2.39,2.4A.408.408,0,0,1,977.3,643.885Z" transform="translate(-976.895 -633.291)" fill="#32293a"/>
      </g>
      <g id="Grupo_81202" data-name="Grupo 81202" transform="translate(112.636 51.986)">
        <path id="Trazado_113599" data-name="Trazado 113599" d="M997.667,654.7h0a.408.408,0,0,1,0-.816h0a7.12,7.12,0,0,0,5.311-2.068c2.573-2.633,2.8-7,2.813-7.96l-3.512-2.742a4.369,4.369,0,0,1-1.3-1.661l-2.231-5.011a.407.407,0,1,1,.743-.332l2.231,5.011a3.565,3.565,0,0,0,1.055,1.35l3.67,2.866a.408.408,0,0,1,.157.313c0,.225.08,5.539-3.045,8.738A7.908,7.908,0,0,1,997.667,654.7Z" transform="translate(-997.259 -633.866)" fill="#32293a"/>
      </g>
      <g id="Grupo_81206" data-name="Grupo 81206" transform="translate(195.393 23.167)">
        <g id="Grupo_81203" data-name="Grupo 81203" transform="translate(0 10.893)">
          <path id="Trazado_113600" data-name="Trazado 113600" d="M1160.3,617.266a12.469,12.469,0,1,1-20.568-9.492,12.315,12.315,0,0,1,3.853-2.263,12.532,12.532,0,0,1,8.493,0,12.32,12.32,0,0,1,3.853,2.263A12.456,12.456,0,0,1,1160.3,617.266Z" transform="translate(-1134.955 -604.366)" fill="#25c766"/>
          <path id="Trazado_113601" data-name="Trazado 113601" d="M1147.562,629.9A12.9,12.9,0,0,1,1139.2,607.2a12.676,12.676,0,0,1,3.979-2.335,12.99,12.99,0,0,1,8.769,0,12.687,12.687,0,0,1,3.981,2.338,12.9,12.9,0,0,1-8.366,22.705Zm0-24.992a12.05,12.05,0,0,0-4.108.717,11.841,11.841,0,0,0-3.725,2.188,12.062,12.062,0,1,0,15.668,0,11.845,11.845,0,0,0-3.726-2.19A12.063,12.063,0,0,0,1147.562,604.911Z" transform="translate(-1134.686 -604.099)" fill="#32293a"/>
        </g>
        <g id="Grupo_81204" data-name="Grupo 81204" transform="translate(4.369)">
          <path id="Trazado_113602" data-name="Trazado 113602" d="M1158.817,594.8v5.785a12.321,12.321,0,0,0-3.853-2.263V594.8a4.246,4.246,0,1,0-8.493,0v3.522a12.322,12.322,0,0,0-3.853,2.263V594.8a8.1,8.1,0,1,1,16.2,0Z" transform="translate(-1142.21 -586.279)" fill="#2ff980"/>
          <path id="Trazado_113603" data-name="Trazado 113603" d="M1158.954,601.2l-.674-.582a11.845,11.845,0,0,0-3.725-2.188l-.269-.1v-3.808a3.839,3.839,0,1,0-7.678,0v3.808l-.269.1a11.857,11.857,0,0,0-3.725,2.188l-.673.581v-6.675a8.507,8.507,0,1,1,17.013,0Zm-8.506-14.377a7.706,7.706,0,0,0-7.693,7.7v4.932a12.637,12.637,0,0,1,3.039-1.693v-3.239a4.654,4.654,0,1,1,9.308,0v3.239a12.618,12.618,0,0,1,3.038,1.693v-4.932A7.7,7.7,0,0,0,1150.448,586.825Z" transform="translate(-1141.941 -586.009)" fill="#32293a"/>
        </g>
        <g id="Grupo_81205" data-name="Grupo 81205" transform="translate(10.369 19.503)">
          <path id="Trazado_113604" data-name="Trazado 113604" d="M1156.78,621.177a2.105,2.105,0,0,1-.8,1.654v3.586a1.3,1.3,0,0,1-2.227.927,1.32,1.32,0,0,1-.382-.927v-3.591a2.1,2.1,0,1,1,3.406-1.649Z" transform="translate(-1152.174 -618.665)" fill="#32293a"/>
          <path id="Trazado_113605" data-name="Trazado 113605" d="M1154.411,627.865a1.7,1.7,0,0,1-1.212-.5,1.735,1.735,0,0,1-.5-1.216v-3.406a2.5,2.5,0,1,1,3.423.007v3.4A1.715,1.715,0,0,1,1154.411,627.865Zm0-8.653a1.7,1.7,0,0,0-1.051,3.026.409.409,0,0,1,.152.318v3.591a.91.91,0,0,0,.263.639.9.9,0,0,0,1.532-.639v-3.586a.408.408,0,0,1,.154-.319,1.7,1.7,0,0,0-1.048-3.03Z" transform="translate(-1151.905 -618.396)" fill="#32293a"/>
        </g>
      </g>
      <g id="Grupo_81209" data-name="Grupo 81209" transform="translate(11.605 128.722)">
        <g id="Grupo_81207" data-name="Grupo 81207">
          <path id="Trazado_113606" data-name="Trazado 113606" d="M862.028,774.721v-.15a6.46,6.46,0,0,0-11.19-4.425v-1.692a6.47,6.47,0,1,0-12.94,0V774.7h-1.263a6.484,6.484,0,0,0,0,12.968h24.944a6.481,6.481,0,0,0,.449-12.945Z" transform="translate(-829.758 -761.563)" fill="#462eb4"/>
          <path id="Trazado_113607" data-name="Trazado 113607" d="M861.31,787.8H836.366a6.892,6.892,0,0,1,0-13.784h.856v-5.835a6.877,6.877,0,1,1,13.754,0v.755a6.78,6.78,0,0,1,4.314-1.53,10.636,10.636,0,0,1,6.021,20.4Zm-24.944-12.968a6.076,6.076,0,0,0,0,12.152H861.31a6.073,6.073,0,0,0,.42-12.131.406.406,0,0,1-.379-.406V774.3a6.076,6.076,0,0,0-6.063-6.076,6,6,0,0,0-4.423,1.93.407.407,0,0,1-.7-.279v-1.692a6.063,6.063,0,1,0-12.125,0v6.244a.407.407,0,0,1-.407.408Z" transform="translate(-829.489 -761.293)" fill="#32293a"/>
        </g>
        <ellipse id="Elipse_4721" data-name="Elipse 4721" cx="4.543" cy="4.553" rx="4.543" ry="4.553" transform="translate(14.221 12.886)" fill="#fffdf7"/>
        <g id="Grupo_81208" data-name="Grupo 81208" transform="translate(16.306 11.762)">
          <path id="Trazado_113608" data-name="Trazado 113608" d="M858.984,788.727a.409.409,0,0,1-.288-.12l-2.009-2.014a.407.407,0,0,1,.575-.577l1.722,1.726,6.783-6.8a.408.408,0,0,1,.576.577l-7.071,7.087A.408.408,0,0,1,858.984,788.727Z" transform="translate(-856.567 -780.824)" fill="#32293a"/>
        </g>
      </g>
      <g id="Grupo_81210" data-name="Grupo 81210" transform="translate(202.457 141.188)">
        <path id="Trazado_113609" data-name="Trazado 113609" d="M1150.705,852.121a.419.419,0,0,1-.121-.018.409.409,0,0,1-.268-.511c1.437-4.642.125-8.005-1.4-11.9-1.593-4.079-3.4-8.7-2.006-15.59,1-4.936,4.323-8.405,8.171-12.424,6.1-6.372,13.018-13.593,13.018-29.278a.407.407,0,1,1,.814,0c0,16.013-7.344,23.681-13.245,29.843-3.761,3.926-7.008,7.318-7.959,12.021-1.346,6.653.337,10.963,1.965,15.131,1.511,3.869,2.938,7.523,1.417,12.438A.409.409,0,0,1,1150.705,852.121Z" transform="translate(-1146.416 -781.993)" fill="#32293a"/>
      </g>
      <g id="Grupo_81211" data-name="Grupo 81211" transform="translate(25.622 18.246)">
        <path id="Trazado_113610" data-name="Trazado 113610" d="M864.543,644.815l-.039,0a.408.408,0,0,1-.367-.444c.536-5.671-2.164-10.588-5.024-15.794-4-7.279-8.53-15.53-5.187-27.714,4.906-17.882,20.959-22.055,27.634-23.019a.408.408,0,0,1,.115.807c-6.516.941-22.186,5.011-26.964,22.429-3.255,11.864,1.191,19.96,5.115,27.1,2.921,5.319,5.681,10.342,5.121,16.263A.409.409,0,0,1,864.543,644.815Z" transform="translate(-852.764 -577.837)" fill="#32293a"/>
      </g>
      <g id="Grupo_81212" data-name="Grupo 81212" transform="translate(85.669 3.852)">
        <path id="Trazado_113611" data-name="Trazado 113611" d="M956.909,562.815a4.44,4.44,0,1,1,4.43-4.44A4.44,4.44,0,0,1,956.909,562.815Zm0-8.064a3.624,3.624,0,1,0,3.615,3.624A3.624,3.624,0,0,0,956.909,554.751Z" transform="translate(-952.479 -553.935)" fill="#32293a"/>
      </g>
      <g id="Grupo_81213" data-name="Grupo 81213" transform="translate(98.346 12.986)">
        <path id="Trazado_113612" data-name="Trazado 113612" d="M976.057,574.169a2.534,2.534,0,1,1,2.528-2.534A2.534,2.534,0,0,1,976.057,574.169Zm0-4.252a1.717,1.717,0,1,0,1.714,1.717A1.718,1.718,0,0,0,976.057,569.918Z" transform="translate(-973.529 -569.102)" fill="#32293a"/>
      </g>
      <g id="Grupo_81214" data-name="Grupo 81214" transform="translate(33.377 209.001)">
        <path id="Trazado_113613" data-name="Trazado 113613" d="M869.665,902.668a4.032,4.032,0,1,1,4.023-4.032A4.033,4.033,0,0,1,869.665,902.668Zm0-7.248a3.216,3.216,0,1,0,3.209,3.216A3.216,3.216,0,0,0,869.665,895.42Z" transform="translate(-865.642 -894.604)" fill="#32293a"/>
      </g>
      <g id="Grupo_81215" data-name="Grupo 81215" transform="translate(19.315 205.608)">
        <path id="Trazado_113614" data-name="Trazado 113614" d="M844.674,893.744a2.388,2.388,0,1,1,2.383-2.388A2.388,2.388,0,0,1,844.674,893.744Zm0-3.959a1.572,1.572,0,1,0,1.569,1.572A1.572,1.572,0,0,0,844.674,889.785Z" transform="translate(-842.292 -888.969)" fill="#32293a"/>
      </g>
      <g id="Grupo_81216" data-name="Grupo 81216" transform="translate(218.356 103.71)">
        <path id="Trazado_113615" data-name="Trazado 113615" d="M1175.2,724.534a2.388,2.388,0,1,1,2.383-2.388A2.388,2.388,0,0,1,1175.2,724.534Zm0-3.959a1.571,1.571,0,1,0,1.569,1.571A1.572,1.572,0,0,0,1175.2,720.576Z" transform="translate(-1172.817 -719.759)" fill="#32293a"/>
      </g>
    </g>
    <g id="Grupo_81218" data-name="Grupo 81218" transform="translate(1020 748)">
      <g id="Elipse_4722" data-name="Elipse 4722" transform="translate(232 215)" fill="none" stroke="#583ae2" stroke-width="15">
        <circle cx="26.5" cy="26.5" r="26.5" stroke="none"/>
        <circle cx="26.5" cy="26.5" r="19" fill="none"/>
      </g>
      <circle id="Elipse_4723" data-name="Elipse 4723" cx="8.5" cy="8.5" r="8.5" transform="translate(278 201)" fill="#40327b"/>
      <circle id="Elipse_4724" data-name="Elipse 4724" cx="16.5" cy="16.5" r="16.5" fill="#1c954d"/>
    </g>
  </g>
</svg>
