<svg id="_21-Consultant" data-name="21-Consultant" xmlns="http://www.w3.org/2000/svg" width="178" height="178" viewBox="0 0 178 178">
  <path id="Trazado_657510" data-name="Trazado 657510" d="M1,9V114.687a5.563,5.563,0,0,0,5.562,5.563H128.938a5.563,5.563,0,0,0,5.563-5.562V9Z" transform="translate(1.781 16.031)" fill="#f4f4f4"/>
  <path id="Trazado_657511" data-name="Trazado 657511" d="M12.125,114.687V9H1V114.687a5.563,5.563,0,0,0,5.562,5.563H17.687A5.563,5.563,0,0,1,12.125,114.687Z" transform="translate(1.781 16.031)" fill="#cfd9dc"/>
  <path id="Trazado_657512" data-name="Trazado 657512" d="M134.5,6.562A5.563,5.563,0,0,0,128.938,1H6.563A5.563,5.563,0,0,0,1,6.563V23.25H134.5Z" transform="translate(1.781 1.781)" fill="#314a66"/>
  <path id="Trazado_657513" data-name="Trazado 657513" d="M17.688,1H6.563A5.563,5.563,0,0,0,1,6.563V23.25H12.125V6.563A5.562,5.562,0,0,1,17.688,1Z" transform="translate(1.781 1.781)" fill="#263540"/>
  <path id="Trazado_657514" data-name="Trazado 657514" d="M58.016,12.343a25,25,0,0,0-38.5,3.783h41.61a24.8,24.8,0,0,0-3.112-3.783Z" transform="translate(34.766 8.906)" fill="#263540"/>
  <path id="Trazado_657515" data-name="Trazado 657515" d="M94.492,103.563A178.732,178.732,0,0,0,90.821,82.23c-.556-2.364-.946-3.7-.946-3.7L75.969,75.75l-8.344-1.669-5.563-1.113V62.734A19.385,19.385,0,0,0,73.188,45.156V42.375h2.781a5.579,5.579,0,0,0,5.563-5.562V31.25H78.75V22.906A24.881,24.881,0,0,0,74.52,9H32.909a24.9,24.9,0,0,0-4.222,13.906V31.25H25.906v5.563a5.579,5.579,0,0,0,5.563,5.563H34.25v2.781a19.352,19.352,0,0,0,5.7,13.767,19.1,19.1,0,0,0,5.423,3.81V72.969l-5.562,1.113L31.469,75.75,17.562,78.531s-.389,1.335-.946,3.7a178.738,178.738,0,0,0-3.671,21.332A156.565,156.565,0,0,0,12,120.25H95.438a156.558,156.558,0,0,0-.946-16.687Z" transform="translate(21.375 16.031)" fill="#cfd9dc"/>
  <path id="Trazado_657516" data-name="Trazado 657516" d="M66.719,77.5H25V69.156l22.25-5.563L41.688,55.25l5.563-2.781V33l13.906,2.781s.389,1.335.946,3.7a178.735,178.735,0,0,1,3.671,21.332A156.559,156.559,0,0,1,66.719,77.5Z" transform="translate(44.531 58.781)" fill="#3d5c9e"/>
  <path id="Trazado_657517" data-name="Trazado 657517" d="M40.344,17v5.563a5.579,5.579,0,0,1-5.562,5.563H32V17Z" transform="translate(57 30.281)" fill="#e09380"/>
  <path id="Trazado_657518" data-name="Trazado 657518" d="M66.062,30.031v8.344H60.5c-30.594,0-30.594-8.344-30.594-8.344a8.171,8.171,0,0,1-8.344,8.344H16V30.031a25.031,25.031,0,1,1,50.062,0Z" transform="translate(28.5 8.906)" fill="#966857"/>
  <path id="Trazado_657519" data-name="Trazado 657519" d="M29.906,12a8.171,8.171,0,0,1-8.344,8.344H16v5.563h5.563a8.171,8.171,0,0,0,8.344-8.344s0,8.344,30.594,8.344h5.562V20.344H60.5C29.906,20.344,29.906,12,29.906,12Z" transform="translate(28.5 21.375)" fill="#8d5c4d"/>
  <path id="Trazado_657520" data-name="Trazado 657520" d="M47.25,34.069V53.537l-5.562,2.781,5.563,8.344L25,70.225C36.125,59.1,38.906,36.85,38.906,36.85V32.4Z" transform="translate(44.531 57.713)" fill="#7ea8c2"/>
  <path id="Trazado_657521" data-name="Trazado 657521" d="M45.813,53.827A19.457,19.457,0,0,1,18,36.25V22.344A8.171,8.171,0,0,0,26.344,14s0,8.344,30.594,8.344V36.25A19.385,19.385,0,0,1,45.813,53.828Zm0-17.578H29.125a8.344,8.344,0,0,0,16.688,0Z" transform="translate(32.062 24.938)" fill="#ffbeaa"/>
  <path id="Trazado_657522" data-name="Trazado 657522" d="M38.906,33.113v4.45l-8.344,8.344L25,40.344,33.344,32Z" transform="translate(44.531 57)" fill="#acaeaf"/>
  <path id="Trazado_657523" data-name="Trazado 657523" d="M30.562,42.344,38.906,34S36.125,56.25,25,67.375V36.781Z" transform="translate(44.531 60.563)" fill="#f4f4f4"/>
  <path id="Trazado_657524" data-name="Trazado 657524" d="M38.688,28.32V38.555L30.344,46.9,22,38.555V28.32a19.352,19.352,0,0,0,16.688,0Z" transform="translate(39.188 50.445)" fill="#e09380"/>
  <path id="Trazado_657525" data-name="Trazado 657525" d="M22,22H38.688A8.344,8.344,0,1,1,22,22Z" transform="translate(39.188 39.188)" fill="#ff475a"/>
  <path id="Trazado_657526" data-name="Trazado 657526" d="M30.344,22H22a8.271,8.271,0,0,0,1.154,4.172A8.294,8.294,0,0,1,30.344,22Z" transform="translate(39.188 39.188)" fill="#d1093a"/>
  <path id="Trazado_657527" data-name="Trazado 657527" d="M32.19,26.172A8.272,8.272,0,0,0,33.344,22H25a8.294,8.294,0,0,1,7.19,4.172Z" transform="translate(44.531 39.188)" fill="#d1093a"/>
  <path id="Trazado_657528" data-name="Trazado 657528" d="M51.719,69.156V77.5H10a156.56,156.56,0,0,1,.946-16.688A178.73,178.73,0,0,1,14.617,39.48c.556-2.364.946-3.7.946-3.7L29.469,33V52.469l5.563,2.781-5.562,8.344Z" transform="translate(17.813 58.781)" fill="#314a66"/>
  <path id="Trazado_657529" data-name="Trazado 657529" d="M33.906,36.781V67.375C22.781,56.25,20,34,20,34l8.344,8.344Z" transform="translate(35.625 60.563)" fill="#cfd9dc"/>
  <path id="Trazado_657530" data-name="Trazado 657530" d="M33.906,40.344l-5.563,5.563L20,37.563v-4.45L25.562,32Z" transform="translate(35.625 57)" fill="#acaeaf"/>
  <path id="Trazado_657531" data-name="Trazado 657531" d="M39.25,70.225,17,64.662l5.563-8.344L17,53.537V34.069L25.344,32.4v4.45S28.125,59.1,39.25,70.225Z" transform="translate(30.281 57.713)" fill="#7ea8c2"/>
  <path id="Trazado_657532" data-name="Trazado 657532" d="M23.344,17V28.125H20.563A5.579,5.579,0,0,1,15,22.563V17Z" transform="translate(26.719 30.281)" fill="#e09380"/>
  <path id="Trazado_657533" data-name="Trazado 657533" d="M100.188,14H44.563A5.563,5.563,0,0,0,39,19.563v22.25a5.563,5.563,0,0,0,5.563,5.563h8.344v8.344l8.344-8.344h38.938a5.563,5.563,0,0,0,5.563-5.562V19.563A5.563,5.563,0,0,0,100.188,14Z" transform="translate(69.469 24.938)" fill="#ffd03e"/>
  <path id="Trazado_657534" data-name="Trazado 657534" d="M44.563,41.813V19.563A5.563,5.563,0,0,1,50.125,14H44.563A5.563,5.563,0,0,0,39,19.563v22.25a5.563,5.563,0,0,0,5.563,5.563h5.563A5.563,5.563,0,0,1,44.563,41.813Z" transform="translate(69.469 24.938)" fill="#f7941d"/>
  <path id="Trazado_657535" data-name="Trazado 657535" d="M49.563,26H44v8.344l5.563-5.563Z" transform="translate(78.375 46.313)" fill="#f7941d"/>
  <g id="Grupo_957502" data-name="Grupo 957502" transform="translate(116.365 50.553)">
    <circle id="Elipse_5666" data-name="Elipse 5666" cx="5.5" cy="5.5" r="5.5" transform="translate(-0.365 0.447)" fill="#314a66"/>
    <circle id="Elipse_5667" data-name="Elipse 5667" cx="5.5" cy="5.5" r="5.5" transform="translate(20.635 0.447)" fill="#314a66"/>
    <circle id="Elipse_5668" data-name="Elipse 5668" cx="5.5" cy="5.5" r="5.5" transform="translate(38.635 0.447)" fill="#314a66"/>
  </g>
  <path id="Trazado_657536" data-name="Trazado 657536" d="M59.125,59.563l-5.562,5.563L48,59.563V55.585L53.562,54Z" transform="translate(85.5 96.188)" fill="#f4f4f4"/>
  <path id="Trazado_657537" data-name="Trazado 657537" d="M63.125,55.585v3.977l-5.562,5.563L52,59.563,57.562,54Z" transform="translate(92.625 96.188)" fill="#f4f4f4"/>
  <path id="Trazado_657538" data-name="Trazado 657538" d="M74.25,57.741l2.781.807s3.866,0,5.145,11.236a74.784,74.784,0,0,1,.417,8.233H52V58.547l5.563,5.563,5.563-5.562V54.57Z" transform="translate(92.625 97.203)" fill="#e3a76f"/>
  <path id="Trazado_657539" data-name="Trazado 657539" d="M49.344,57.741,60.469,54.57v3.977l5.563,5.563,5.563-5.562V78.016H41a74.777,74.777,0,0,1,.417-8.233c1.279-11.236,5.145-11.236,5.145-11.236Z" transform="translate(73.031 97.203)" fill="#f2bb88"/>
  <path id="Trazado_657540" data-name="Trazado 657540" d="M61.125,51.59v6.7l-5.562,5.563L50,58.293v-6.7a14.137,14.137,0,0,0,11.125,0Z" transform="translate(89.063 91.895)" fill="#faa68e"/>
  <path id="Trazado_657541" data-name="Trazado 657541" d="M55.125,91.21,44,94.381c.083-18.885,2.781-27.2,2.781-40.912a19.469,19.469,0,0,1,38.938,0c0,13.712,2.7,22.027,2.781,40.912L77.375,91.21l-5.562-1.585v-6.7a13.987,13.987,0,0,0,8.344-12.766V61.813c-13.906,0-13.906-8.344-13.906-8.344,0,8.344-13.906,8.344-13.906,8.344v8.344A13.967,13.967,0,0,0,56.4,80a14.27,14.27,0,0,0,4.283,2.921v6.7Z" transform="translate(78.375 60.563)" fill="#263540"/>
  <path id="Trazado_657542" data-name="Trazado 657542" d="M74.813,47.344C60.906,47.344,60.906,39,60.906,39,60.906,47.344,47,47.344,47,47.344v5.563s13.906,0,13.906-8.344c0,0,0,8.344,13.906,8.344Z" transform="translate(83.719 69.469)" fill="#202d35"/>
  <path id="Trazado_657543" data-name="Trazado 657543" d="M66.469,70.453A13.9,13.9,0,0,1,47,57.688V49.344s13.906,0,13.906-8.344c0,0,0,8.344,13.906,8.344v8.344a13.987,13.987,0,0,1-8.344,12.766Z" transform="translate(83.719 73.031)" fill="#ffbeaa"/>
  <path id="Trazado_657544" data-name="Trazado 657544" d="M60.906,41C60.906,49.344,47,49.344,47,49.344v5.563s13.906,0,13.906-8.344c0,0,0,8.344,13.906,8.344V49.344C60.906,49.344,60.906,41,60.906,41Z" transform="translate(83.719 73.031)" fill="#faa68e"/>
  <path id="Trazado_657545" data-name="Trazado 657545" d="M79.313,64.125V58.563A5.563,5.563,0,0,0,73.75,53H12.562A5.563,5.563,0,0,0,7,58.563V75.25a5.563,5.563,0,0,0,5.562,5.563H73.75a5.563,5.563,0,0,0,5.563-5.562V72.469h8.344Z" transform="translate(12.469 94.406)" fill="#ffd03e"/>
  <path id="Trazado_657546" data-name="Trazado 657546" d="M12.562,75.25V58.563A5.563,5.563,0,0,1,18.125,53H12.562A5.563,5.563,0,0,0,7,58.563V75.25a5.563,5.563,0,0,0,5.562,5.563h5.563A5.563,5.563,0,0,1,12.562,75.25Z" transform="translate(12.469 94.406)" fill="#f7941d"/>
  <path id="Trazado_657547" data-name="Trazado 657547" d="M39.25,53.156A22.275,22.275,0,0,1,17,30.906V17h5.563V30.906a16.688,16.688,0,0,0,33.375,0V17H61.5V30.906a22.275,22.275,0,0,1-22.25,22.25Z" transform="translate(30.281 30.281)"/>
  <path id="Trazado_657548" data-name="Trazado 657548" d="M32.125,34.906A11.125,11.125,0,0,1,21,23.781,2.781,2.781,0,0,1,23.781,21H40.469a2.781,2.781,0,0,1,2.781,2.781A11.125,11.125,0,0,1,32.125,34.906Zm-4.814-8.344a5.562,5.562,0,0,0,9.629,0Z" transform="translate(37.406 37.406)"/>
  <path id="Trazado_657549" data-name="Trazado 657549" d="M66.844,38.04H64.063V32.477h2.781A2.781,2.781,0,0,0,69.625,29.7V26.915H64.063c-16.757,0-25.151-2.5-29.326-5.2a11.361,11.361,0,0,1-9.612,5.2H19.563V29.7a2.781,2.781,0,0,0,2.781,2.781h2.781V38.04H22.344A8.344,8.344,0,0,1,14,29.7V24.133a2.781,2.781,0,0,1,2.781-2.781h8.344a5.24,5.24,0,0,0,5.563-5.563,2.781,2.781,0,0,1,5.546-.317c.228.47,3.452,5.88,27.829,5.88h8.344a2.781,2.781,0,0,1,2.781,2.781V29.7A8.344,8.344,0,0,1,66.844,38.04Z" transform="translate(24.938 23.148)"/>
  <path id="Trazado_657550" data-name="Trazado 657550" d="M70.625,40.156H65.063V31.812a22.25,22.25,0,0,0-44.5,0v8.344H15V31.812a27.813,27.813,0,0,1,55.625,0Z" transform="translate(26.719 7.125)"/>
  <path id="Trazado_657551" data-name="Trazado 657551" d="M95.219,89.188H11.781A2.781,2.781,0,0,1,9,86.406a171.445,171.445,0,0,1,5.671-42.481A2.781,2.781,0,0,1,16.8,41.962l25.576-5.115V28h5.563V39.125a2.781,2.781,0,0,1-2.226,2.726L19.6,47.074a172.174,172.174,0,0,0-5.009,36.551H92.407A172.175,172.175,0,0,0,87.4,47.074L61.288,41.851a2.781,2.781,0,0,1-2.225-2.726V28h5.562v8.847l25.587,5.115a2.781,2.781,0,0,1,2.128,1.964A171.445,171.445,0,0,1,98,86.406a2.781,2.781,0,0,1-2.781,2.781Z" transform="translate(16.031 49.875)"/>
  <path id="Trazado_657552" data-name="Trazado 657552" d="M31.6,44.384a2.781,2.781,0,0,1-1.966-.814l-8.344-8.344,3.933-3.933L31.6,37.67l6.377-6.377,3.933,3.933-8.344,8.344a2.781,2.781,0,0,1-1.966.815Z" transform="translate(37.928 55.741)"/>
  <path id="Trazado_657553" data-name="Trazado 657553" d="M41.25,48.688a2.781,2.781,0,0,1-1.966-.814l-3.6-3.6-3.6,3.6a2.781,2.781,0,0,1-3.933,0l-8.344-8.344A2.781,2.781,0,0,1,19,37.563V32h5.563v4.411l5.563,5.563,3.6-3.6a2.781,2.781,0,0,1,3.933,0l3.6,3.6,5.563-5.562V32h5.563v5.563a2.781,2.781,0,0,1-.814,1.966l-8.344,8.344A2.781,2.781,0,0,1,41.25,48.688Z" transform="translate(33.844 57)"/>
  <path id="Trazado_657554" data-name="Trazado 657554" d="M41.031,71.938a2.809,2.809,0,0,1-.676-.083l-22.25-5.562a2.781,2.781,0,0,1-1.638-4.241l3.816-5.721-2.745-1.371A2.781,2.781,0,0,1,16,52.469V33h5.563V50.75l4.024,2.011a2.781,2.781,0,0,1,1.071,4.033l-3.374,5.059,10.627,2.656A80.153,80.153,0,0,1,24.366,36.14l5.518-.69C29.912,35.662,32.691,56.9,43,67.2a2.781,2.781,0,0,1-1.966,4.734Z" transform="translate(28.5 58.781)"/>
  <path id="Trazado_657555" data-name="Trazado 657555" d="M26.781,71.938a2.781,2.781,0,0,1-1.966-4.748c10.31-10.307,13.091-31.542,13.114-31.754l5.518.69A80.153,80.153,0,0,1,33.9,64.495l10.627-2.656L41.154,56.78a2.781,2.781,0,0,1,1.071-4.033l4.024-2V33h5.563V52.469a2.781,2.781,0,0,1-1.538,2.5l-2.745,1.371,3.816,5.721a2.781,2.781,0,0,1-1.638,4.241l-22.25,5.563a2.829,2.829,0,0,1-.676.07Z" transform="translate(42.75 58.781)"/>
  <path id="Trazado_657556" data-name="Trazado 657556" d="M24,35h5.562V73.938H24Z" transform="translate(42.75 62.344)"/>
  <path id="Trazado_657557" data-name="Trazado 657557" d="M125.156,139.063H8.344A8.344,8.344,0,0,1,0,130.719V8.344A8.344,8.344,0,0,1,8.344,0H130.719a8.344,8.344,0,0,1,8.344,8.344V38.938H133.5V8.344a2.781,2.781,0,0,0-2.781-2.781H8.344A2.781,2.781,0,0,0,5.563,8.344V130.719A2.781,2.781,0,0,0,8.344,133.5H125.156Z" transform="translate(0 0)"/>
  <path id="Trazado_657558" data-name="Trazado 657558" d="M1,8H48.281v5.563H1Z" transform="translate(1.781 14.25)"/>
  <path id="Trazado_657559" data-name="Trazado 657559" d="M4,4H9.563V9.563H4Z" transform="translate(7.125 7.125)"/>
  <path id="Trazado_657560" data-name="Trazado 657560" d="M8,4h5.563V9.563H8Z" transform="translate(14.25 7.125)"/>
  <path id="Trazado_657561" data-name="Trazado 657561" d="M12,4h5.562V9.563H12Z" transform="translate(21.375 7.125)"/>
  <path id="Trazado_657562" data-name="Trazado 657562" d="M44,4h5.563V9.563H44Z" transform="translate(78.375 7.125)"/>
  <path id="Trazado_657563" data-name="Trazado 657563" d="M32,8H79.281v5.563H32Z" transform="translate(57 14.25)"/>
  <path id="Trazado_657564" data-name="Trazado 657564" d="M103.969,87.156H42.781A2.781,2.781,0,0,1,40,84.375c0-18.885,5.159-21.927,7.863-22.222l17.169-4.906V51h5.563v8.344a2.781,2.781,0,0,1-2.016,2.676L49.109,67.582a2.44,2.44,0,0,1-.278.061c-.392.306-2.873,2.673-3.229,13.951h55.542c-.356-11.278-2.837-13.645-3.229-13.951a2.44,2.44,0,0,1-.278-.061L78.167,62.019a2.781,2.781,0,0,1-2.011-2.676V51h5.563v6.247l17.169,4.906c2.7.295,7.863,3.338,7.863,22.222a2.781,2.781,0,0,1-2.781,2.781Z" transform="translate(71.25 90.844)"/>
  <path id="Trazado_657565" data-name="Trazado 657565" d="M56.822,63.6a2.781,2.781,0,0,1-1.966-.814l-5.563-5.563,3.933-3.933,3.6,3.6,3.6-3.6,3.933,3.933-5.563,5.563A2.781,2.781,0,0,1,56.822,63.6Z" transform="translate(87.803 94.928)"/>
  <path id="Trazado_657566" data-name="Trazado 657566" d="M62.688,76.156A16.7,16.7,0,0,1,46,59.469V51.125a2.781,2.781,0,0,1,2.781-2.781c.111,0,11.125-.184,11.125-5.562a2.781,2.781,0,0,1,5.563,0c.028.515.576,5.563,11.125,5.563a2.781,2.781,0,0,1,2.781,2.781v8.344A16.7,16.7,0,0,1,62.688,76.156Zm-11.125-22.4v5.71a11.125,11.125,0,1,0,22.25,0V53.792a16.32,16.32,0,0,1-10.991-4.514A18.985,18.985,0,0,1,51.563,53.759Z" transform="translate(81.938 71.25)"/>
  <path id="Trazado_657567" data-name="Trazado 657567" d="M93.063,96.969H87.5a195.468,195.468,0,0,0-1.549-24.2A148.219,148.219,0,0,1,84.719,55.25a16.688,16.688,0,0,0-33.375,0,148.224,148.224,0,0,1-1.232,17.522,195.466,195.466,0,0,0-1.549,24.2H43a202.939,202.939,0,0,1,1.583-24.817,143.553,143.553,0,0,0,1.2-16.9,22.25,22.25,0,0,1,44.5,0,143.555,143.555,0,0,0,1.2,16.9,202.939,202.939,0,0,1,1.582,24.817Z" transform="translate(76.594 58.781)"/>
  <path id="Trazado_657568" data-name="Trazado 657568" d="M66.469,67.906a2.781,2.781,0,0,1-1.966-.814l-3.6-3.6-3.6,3.6a2.781,2.781,0,0,1-3.933,0l-5.562-5.563A2.781,2.781,0,0,1,47,59.563V54h5.563v4.411l2.781,2.781,3.6-3.6a2.781,2.781,0,0,1,3.933,0l3.6,3.6,2.781-2.781V54h5.563v5.563A2.781,2.781,0,0,1,74,61.528l-5.563,5.563A2.781,2.781,0,0,1,66.469,67.906Z" transform="translate(83.719 96.188)"/>
  <path id="Trazado_657569" data-name="Trazado 657569" d="M51,56h5.563V75.469H51Z" transform="translate(90.844 99.75)"/>
  <path id="Trazado_657570" data-name="Trazado 657570" d="M54.687,60.281a2.745,2.745,0,0,1-1.065-.211,2.781,2.781,0,0,1-1.716-2.57V51.937H46.344A8.344,8.344,0,0,1,38,43.594V21.344A8.344,8.344,0,0,1,46.344,13h55.625a8.344,8.344,0,0,1,8.344,8.344v22.25a8.344,8.344,0,0,1-8.344,8.344H64.183l-7.529,7.529A2.781,2.781,0,0,1,54.687,60.281ZM46.344,18.563a2.781,2.781,0,0,0-2.781,2.781v22.25a2.781,2.781,0,0,0,2.781,2.781h8.344a2.781,2.781,0,0,1,2.781,2.781v1.63l3.6-3.6a2.781,2.781,0,0,1,1.966-.815h38.938a2.781,2.781,0,0,0,2.781-2.781V21.344a2.781,2.781,0,0,0-2.781-2.781Z" transform="translate(67.688 23.156)"/>
  <path id="Trazado_657571" data-name="Trazado 657571" d="M48,26h5.562V51.031H48Z" transform="translate(85.5 46.313)"/>
  <path id="Trazado_657572" data-name="Trazado 657572" d="M75.531,85.375H14.344A8.344,8.344,0,0,1,6,77.031V60.344A8.344,8.344,0,0,1,14.344,52H75.531a8.344,8.344,0,0,1,8.344,8.344v4.411L91.4,72.284a2.781,2.781,0,0,1-1.966,4.748H83.875A8.344,8.344,0,0,1,75.531,85.375ZM14.344,57.562a2.781,2.781,0,0,0-2.781,2.781V77.031a2.781,2.781,0,0,0,2.781,2.781H75.531a2.781,2.781,0,0,0,2.781-2.781V74.25a2.781,2.781,0,0,1,2.781-2.781h1.63l-3.6-3.6a2.781,2.781,0,0,1-.815-1.966V60.344a2.781,2.781,0,0,0-2.781-2.781Z" transform="translate(10.688 92.625)"/>
  <path id="Trazado_657573" data-name="Trazado 657573" d="M49.344,33.688a8.344,8.344,0,1,1,8.344-8.344A8.344,8.344,0,0,1,49.344,33.688Zm0-11.125a2.781,2.781,0,1,0,2.781,2.781A2.781,2.781,0,0,0,49.344,22.563Z" transform="translate(73.031 30.281)"/>
  <path id="Trazado_657574" data-name="Trazado 657574" d="M56.344,33.688a8.344,8.344,0,1,1,8.344-8.344A8.344,8.344,0,0,1,56.344,33.688Zm0-11.125a2.781,2.781,0,1,0,2.781,2.781A2.781,2.781,0,0,0,56.344,22.563Z" transform="translate(85.5 30.281)"/>
  <path id="Trazado_657575" data-name="Trazado 657575" d="M63.344,33.688a8.344,8.344,0,1,1,8.344-8.344A8.344,8.344,0,0,1,63.344,33.688Zm0-11.125a2.781,2.781,0,1,0,2.781,2.781A2.781,2.781,0,0,0,63.344,22.563Z" transform="translate(97.969 30.281)"/>
  <path id="Trazado_657576" data-name="Trazado 657576" d="M10,57h5.562v5.563H10Z" transform="translate(17.813 101.531)"/>
  <path id="Trazado_657577" data-name="Trazado 657577" d="M14,57H58.5v5.563H14Z" transform="translate(24.938 101.531)"/>
</svg>
