<svg id="promocion_1_" data-name="promocion(1)" xmlns="http://www.w3.org/2000/svg" width="188.107" height="178" viewBox="0 0 188.107 178">
  <path id="Trazado_657642" data-name="Trazado 657642" d="M52.839,210.293l22.044,38.181-31.817,18.37a22.044,22.044,0,0,1-22.044-38.181Zm0,0" transform="translate(-6.325 -133.032)" fill="#c4baf5"/>
  <path id="Trazado_657643" data-name="Trazado 657643" d="M309.568,110.045a7.347,7.347,0,0,1-6.184,11.018l-4.133.812-.092-.466-47.3-81.92-.309-.243,2.645-3.37a7.347,7.347,0,0,1,12.635.151c73.4,127.131-19.2-33.259,42.733,74.018Zm0,0" transform="translate(-159.135 -20.468)" fill="#c4baf5"/>
  <path id="Trazado_657644" data-name="Trazado 657644" d="M139.3,369.218a11.022,11.022,0,0,1-19.09,11.022l-20.207-35,19.09-11.022,20.207,35Zm0,0" transform="translate(-63.263 -211.425)" fill="#332862"/>
  <path id="Trazado_657645" data-name="Trazado 657645" d="M349.537,108.934l7.348,12.727-9.053,13.711-14.7-25.454Zm0,0" transform="translate(-210.743 -68.912)" fill="#e9eef0"/>
  <path id="Trazado_657646" data-name="Trazado 657646" d="M220.115,133.275l.092.466-71.558,14.034L126.6,109.6l45.906-58.482.309.243Zm0,0" transform="translate(-80.091 -32.334)" fill="#e6e1fb"/>
  <path id="Trazado_657647" data-name="Trazado 657647" d="M127.475,296.43a3.674,3.674,0,1,0-5.019-1.345A3.675,3.675,0,0,0,127.475,296.43Zm0,0" transform="translate(-77.155 -183.186)"/>
  <path id="Trazado_657648" data-name="Trazado 657648" d="M35.264,152.744l18.5,32.048A14.7,14.7,0,1,0,79.22,170.1L68.2,151l9.545-5.511a3.675,3.675,0,0,0,1.345-5.019L74.31,132.2c.57-.111,4.315-.845,70.371-13.8a11.02,11.02,0,0,0,8.934-16.514L141.4,80.734l7.8-11.818a3.675,3.675,0,0,0,.116-3.862l-7.348-12.727a3.682,3.682,0,0,0-3.4-1.83l-14.135.848L110.884,27.866a10.926,10.926,0,0,0-9.407-5.51h-.141a10.925,10.925,0,0,0-9.28,5.082L44.062,88.577l-31.2,18.014a25.718,25.718,0,0,0,22.4,46.153Zm37.594,21.029A7.348,7.348,0,0,1,60.13,181.12L41.76,149.3l12.727-7.348c21.26,36.829,18.03,31.233,18.371,31.823ZM64.524,144.64l-3.674-6.363,6.363-3.674,3.674,6.363Zm72.224-86.673,5.078,8.795L137.3,73.619,128.546,58.46ZM98.2,31.466a3.673,3.673,0,0,1,6.318.073l42.733,74.018a3.673,3.673,0,0,1-3.091,5.508,13.492,13.492,0,0,0-2.015.342l-45.2-78.294c.949-1.22,1.071-1.338,1.259-1.646Zm-6.148,7.875,42.47,73.561-64.1,12.572L50.938,91.718ZM9.81,138.048a18.358,18.358,0,0,1,6.724-25.094L45.169,96.422l18.37,31.817L34.9,144.774A18.392,18.392,0,0,1,9.81,138.048Zm0,0" transform="translate(0 -14.142)"/>
  <path id="Trazado_657649" data-name="Trazado 657649" d="M65.939,311.41a3.675,3.675,0,0,0-5.019-1.345l-6.363,3.674a3.679,3.679,0,0,1-5.019-1.345,3.674,3.674,0,1,0-6.363,3.674A11.036,11.036,0,0,0,58.231,320.1l6.363-3.674a3.674,3.674,0,0,0,1.345-5.019Zm0,0" transform="translate(-27.001 -195.836)"/>
  <path id="Trazado_657650" data-name="Trazado 657650" d="M458.636,42.946,438.163,54.338a3.674,3.674,0,1,0,3.574,6.421l20.471-11.392a3.674,3.674,0,0,0-3.572-6.421Zm0,0" transform="translate(-275.989 -26.873)"/>
  <path id="Trazado_657651" data-name="Trazado 657651" d="M458.885,140.55l-14.2-3.8a3.674,3.674,0,1,0-1.9,7.1l14.2,3.8a3.673,3.673,0,1,0,1.9-7.1Zm0,0" transform="translate(-278.385 -86.427)"/>
  <path id="Trazado_657652" data-name="Trazado 657652" d="M387.426,2.724l-3.807,14.2a3.674,3.674,0,0,0,7.1,1.9l3.806-14.2a3.674,3.674,0,1,0-7.1-1.9Zm0,0" transform="translate(-242.598 0)"/>
</svg>
