<svg xmlns="http://www.w3.org/2000/svg" width="308.597" height="212.831" viewBox="0 0 308.597 212.831">
  <g id="Grupo_954493" data-name="Grupo 954493" transform="translate(-511.933 -1199.336)">
    <g id="Grupo_950252" data-name="Grupo 950252" transform="translate(511.933 1335.094)">
      <g id="Grupo_950241" data-name="Grupo 950241">
        <path id="Trazado_635986" data-name="Trazado 635986" d="M561.01,1457.91c9.863-8.07,11.14-21.644,9.743-33.635-.233-2-.183-4.137-1.294-5.818s-3.467-2.7-5.219-1.7c-1.453.826-1.97,2.615-2.7,4.119a11.885,11.885,0,0,1-4.4,4.89,4.6,4.6,0,0,1-4.146.717c-1.833-.811-2.235-3.186-2.386-5.185l-.843-11.168a18.434,18.434,0,0,0-1.1-5.88,6.241,6.241,0,0,0-4.286-3.862c-1.968-.373-4.259.919-4.505,2.906a18.293,18.293,0,0,0,.147,2.491,2.109,2.109,0,0,1-1.084,2.08,2.472,2.472,0,0,1-2.3-.734,26.6,26.6,0,0,1-5.418-6.8,36.819,36.819,0,0,0-5.111-7.054,11,11,0,0,0-7.747-3.492c-2.911.076-5.852,2.1-6.355,4.964s1.394,5.594,3.39,7.723a45.014,45.014,0,0,0,10.125,8.07,3.7,3.7,0,0,1,1.709,1.539c.548,1.295-.622,2.722-1.917,3.27a23.884,23.884,0,0,1-4.678.914c-1.563.314-3.216,1.141-3.692,2.66-.661,2.11,1.243,4.106,3.059,5.367a38.935,38.935,0,0,0,11.982,5.578,13.177,13.177,0,0,1,4.42,1.69,3.679,3.679,0,0,1,1.546,4.134c-.611,1.468-2.435,2.072-4.017,1.915a27.212,27.212,0,0,1-4.576-1.308c-2.865-.806-6.439-.321-8.026,2.2a6.271,6.271,0,0,0-.225,5.643,14.577,14.577,0,0,0,3.47,4.681,39,39,0,0,0,17.55,10.152c6.63,1.675,12.654,1.78,18.873-1.062" transform="translate(-511.933 -1389.781)" fill="#ebebeb"/>
      </g>
      <g id="Grupo_950243" data-name="Grupo 950243" transform="translate(2.78 1.987)">
        <g id="Grupo_950242" data-name="Grupo 950242">
          <path id="Trazado_635987" data-name="Trazado 635987" d="M562.995,1467.618a87.022,87.022,0,0,0-4.656-16.175,178.308,178.308,0,0,0-8.772-18.664L547.012,1428c-.841-1.566-1.675-3.117-2.587-4.585a89.393,89.393,0,0,0-5.725-8.14c-1.949-2.5-3.89-4.806-5.722-6.948s-3.586-4.1-5.257-5.82a71.944,71.944,0,0,0-8.492-7.532c-1.07-.809-1.92-1.41-2.5-1.811l-.664-.452c-.15-.1-.232-.145-.232-.145s.069.061.214.17l.647.476c.569.417,1.407,1.033,2.464,1.855a75.148,75.148,0,0,1,8.409,7.588c1.659,1.726,3.4,3.692,5.222,5.835s3.753,4.455,5.692,6.957a89.923,89.923,0,0,1,5.693,8.123c.905,1.463,1.732,3,2.574,4.573s1.69,3.162,2.552,4.774a181.87,181.87,0,0,1,8.779,18.624,88.353,88.353,0,0,1,4.707,16.112" transform="translate(-515.833 -1392.569)" fill="#e0e0e0"/>
        </g>
      </g>
      <g id="Grupo_950245" data-name="Grupo 950245" transform="translate(31.278 10.603)">
        <g id="Grupo_950244" data-name="Grupo 950244">
          <path id="Trazado_635988" data-name="Trazado 635988" d="M555.827,1426.865a4.85,4.85,0,0,0,.114-.869c.057-.561.114-1.375.172-2.38.117-2.012.188-4.795.257-7.864s.189-5.846.349-7.85c.077-1,.15-1.813.208-2.372a4.788,4.788,0,0,0,.055-.875,4.91,4.91,0,0,0-.172.86c-.095.556-.2,1.366-.3,2.368-.216,2.005-.369,4.789-.439,7.862-.065,3.042-.124,5.8-.168,7.862-.031.963-.056,1.764-.076,2.382A4.849,4.849,0,0,0,555.827,1426.865Z" transform="translate(-555.811 -1404.655)" fill="#e0e0e0"/>
        </g>
      </g>
      <g id="Grupo_950247" data-name="Grupo 950247" transform="translate(4.895 29.999)">
        <g id="Grupo_950246" data-name="Grupo 950246">
          <path id="Trazado_635989" data-name="Trazado 635989" d="M518.8,1432.025a.97.97,0,0,0,.272.021l.776,0c.672,0,1.645-.005,2.847.031,2.4.051,5.721.241,9.37.612s6.937.865,9.3,1.287c1.185.2,2.139.394,2.8.523l.761.145a.951.951,0,0,0,.271.031.924.924,0,0,0-.257-.091l-.75-.2c-.653-.165-1.6-.389-2.785-.62-2.362-.477-5.654-1-9.313-1.376s-6.988-.53-9.4-.526c-1.2-.008-2.18.028-2.853.066l-.774.054A.911.911,0,0,0,518.8,1432.025Z" transform="translate(-518.799 -1431.865)" fill="#e0e0e0"/>
        </g>
      </g>
      <g id="Grupo_950249" data-name="Grupo 950249" transform="translate(44.955 26.539)">
        <g id="Grupo_950248" data-name="Grupo 950248">
          <path id="Trazado_635990" data-name="Trazado 635990" d="M575,1460.875a1.616,1.616,0,0,0,.145-.33c.095-.251.215-.572.364-.967.312-.841.734-2.069,1.237-3.592,1.008-3.045,2.271-7.294,3.6-12s2.564-8.961,3.519-12.02c.475-1.5.863-2.727,1.145-3.618.127-.4.229-.729.309-.985a.181.181,0,1,0-.058-.02l-.363.967c-.313.841-.734,2.069-1.237,3.592-1.009,3.045-2.272,7.294-3.606,12s-2.563,8.959-3.518,12.018c-.475,1.5-.863,2.727-1.146,3.618-.126.4-.229.729-.309.986A1.587,1.587,0,0,0,575,1460.875Z" transform="translate(-574.997 -1427.011)" fill="#e0e0e0"/>
        </g>
      </g>
      <g id="Grupo_950251" data-name="Grupo 950251" transform="translate(9.498 52.256)">
        <g id="Grupo_950250" data-name="Grupo 950250">
          <path id="Trazado_635991" data-name="Trazado 635991" d="M525.257,1463.091a1.82,1.82,0,0,0,.356.1l1.032.242,3.8.868c3.207.736,7.625,1.808,12.5,3s9.31,2.236,12.532,2.92c1.611.342,2.916.607,3.822.773l1.044.188a1.74,1.74,0,0,0,.369.045,1.658,1.658,0,0,0-.356-.1l-1.032-.242-3.8-.868c-3.208-.736-7.627-1.809-12.507-3s-9.308-2.235-12.529-2.919c-1.611-.342-2.918-.607-3.823-.774l-1.044-.187A1.65,1.65,0,0,0,525.257,1463.091Z" transform="translate(-525.257 -1463.087)" fill="#e0e0e0"/>
        </g>
      </g>
    </g>
    <g id="Grupo_950256" data-name="Grupo 950256" transform="translate(602.894 1199.336)">
      <g id="Grupo_950254" data-name="Grupo 950254" transform="translate(0)">
        <rect id="Rectángulo_44857" data-name="Rectángulo 44857" width="53.821" height="36.277" transform="translate(0.231 15.692) rotate(-16.745)" fill="#fff"/>
        <g id="Grupo_950253" data-name="Grupo 950253">
          <path id="Trazado_635992" data-name="Trazado 635992" d="M701.758,1234.26s-.077-.219-.207-.634-.323-1.039-.57-1.836c-.5-1.617-1.218-3.973-2.141-6.985l-7.676-25.241.185.1L639.825,1215.2h0l.125-.231c3.72,12.384,7.257,24.157,10.437,34.743l-.212-.113L687.3,1238.52l10.628-3.15,2.834-.831.736-.211c.166-.046.257-.067.257-.067s-.074.029-.232.081l-.711.224-2.79.861-10.564,3.226-37.192,11.277-.163.049-.049-.163-10.467-34.735-.053-.177.177-.053h0l51.546-15.469.143-.043.043.143c3.156,10.6,5.747,19.308,7.552,25.374.887,3.008,1.583,5.361,2.059,6.975q.345,1.184.53,1.818C701.707,1234.056,701.758,1234.26,701.758,1234.26Z" transform="translate(-639.536 -1199.336)" fill="#e0e0e0"/>
        </g>
      </g>
      <g id="Grupo_950255" data-name="Grupo 950255" transform="translate(0.231 0.185)">
        <path id="Trazado_635993" data-name="Trazado 635993" d="M691.4,1199.6a.644.644,0,0,1-.071.157l-.242.442-.959,1.684-3.6,6.179-12.078,20.484-.08.135-.147-.057-1.578-.611-23.214-9.055-7.019-2.784-1.9-.774-.491-.21a.092.092,0,1,1,.014-.036l.5.176,1.927.709,7.062,2.674,23.253,8.953,1.578.612-.227.078,12.177-20.425,3.7-6.121,1.017-1.649.272-.423A.62.62,0,0,1,691.4,1199.6Z" transform="translate(-639.86 -1199.596)" fill="#e0e0e0"/>
      </g>
    </g>
    <g id="Grupo_950264" data-name="Grupo 950264" transform="translate(747.536 1337.623)">
      <path id="Trazado_635994" data-name="Trazado 635994" d="M899.519,1393.984s-3.34-3.309-9.861,4.956a121.874,121.874,0,0,0-9.355,13.216s-1.623,1.681-2.7.157-2.174-5.459-4.552-5.264c-2.467.2-3.755,2.654-4.072,6.57s-1.329,12.471-1.423,13.244-.741,1.776-1.638.855-5.55-8.772-9.143-6.341-2.685,13.486-2.61,14.7-.247,1.657-.849,1.833-1.918-2.611-3.333-4.79-3.437-4.457-5.393-2.881-4.025,9.324.9,23.56l2.716,6.447,6.957.99c15.016,1.21,22-2.732,23.036-5.02s-1.675-3.676-4.139-4.5-5.49-1.4-5.47-2.028.37-1.052,1.561-1.281,12.122-2.117,13.577-6.2-7.312-6.628-8.428-7.266-.294-1.52.418-1.8,8.755-3.4,12.467-4.692,5.764-3.148,5.342-5.586c-.406-2.352-4.492-2.434-6.235-3.091s-.523-2.65-.523-2.65a121.822,121.822,0,0,0,10.455-12.365c6.371-8.382,2.217-10.827,2.217-10.827" transform="translate(-842.445 -1393.33)" fill="#ebebeb"/>
      <g id="Grupo_950257" data-name="Grupo 950257" transform="translate(0.68 8.046)">
        <path id="Trazado_635995" data-name="Trazado 635995" d="M893.939,1404.618a.916.916,0,0,1-.114.181l-.364.508-1.427,1.934c-1.244,1.676-3.065,4.085-5.329,7.051-4.526,5.934-10.858,14.07-17.889,23.024l-17.977,22.959-5.421,6.978-1.482,1.891-.393.486a.84.84,0,0,1-.145.157.933.933,0,0,1,.114-.18l.364-.509,1.427-1.933c1.243-1.676,3.065-4.085,5.329-7.051,4.526-5.934,10.858-14.071,17.892-23.028l17.974-22.955,5.422-6.979,1.482-1.891.393-.486A.88.88,0,0,1,893.939,1404.618Z" transform="translate(-843.398 -1404.618)" fill="#e0e0e0"/>
      </g>
      <g id="Grupo_950258" data-name="Grupo 950258" transform="translate(31.893 19.287)">
        <path id="Trazado_635996" data-name="Trazado 635996" d="M887.22,1420.387a8.862,8.862,0,0,1,.263,1.867c.106,1.158.2,2.763.265,4.534.046,1.7.088,3.246.123,4.535a11.707,11.707,0,0,1,0,1.882,8.012,8.012,0,0,1-.26-1.868c-.095-1.16-.169-2.764-.232-4.535l-.155-4.531A10.171,10.171,0,0,1,887.22,1420.387Z" transform="translate(-887.186 -1420.387)" fill="#e0e0e0"/>
      </g>
      <g id="Grupo_950259" data-name="Grupo 950259" transform="translate(33.183 31.095)">
        <path id="Trazado_635997" data-name="Trazado 635997" d="M888.995,1438.21a147.671,147.671,0,0,1,14.752-1.231c.008.1-3.287.461-7.361.8S889,1438.312,888.995,1438.21Z" transform="translate(-888.995 -1436.952)" fill="#e0e0e0"/>
      </g>
      <g id="Grupo_950260" data-name="Grupo 950260" transform="translate(21.354 46.091)">
        <path id="Trazado_635998" data-name="Trazado 635998" d="M872.4,1458a10.8,10.8,0,0,1,1.9.3c1.163.22,2.769.527,4.552.811s3.4.5,4.578.654a10.98,10.98,0,0,1,1.9.3,8.986,8.986,0,0,1-1.925-.044c-1.185-.086-2.819-.259-4.611-.548s-3.4-.635-4.549-.921A9.078,9.078,0,0,1,872.4,1458Z" transform="translate(-872.402 -1457.988)" fill="#e0e0e0"/>
      </g>
      <g id="Grupo_950261" data-name="Grupo 950261" transform="translate(17.609 34.533)">
        <path id="Trazado_635999" data-name="Trazado 635999" d="M867.156,1441.775a8.479,8.479,0,0,1,.691,1.639c.381,1.027.885,2.455,1.419,4.039s1,3.026,1.317,4.075a8.425,8.425,0,0,1,.442,1.722,8.491,8.491,0,0,1-.691-1.638c-.382-1.027-.885-2.455-1.42-4.04s-1-3.025-1.316-4.074A8.472,8.472,0,0,1,867.156,1441.775Z" transform="translate(-867.148 -1441.775)" fill="#e0e0e0"/>
      </g>
      <g id="Grupo_950262" data-name="Grupo 950262" transform="translate(5.627 45.345)">
        <path id="Trazado_636000" data-name="Trazado 636000" d="M850.344,1456.942a13.748,13.748,0,0,1,.871,2.1c.493,1.315,1.15,3.141,1.854,5.165s1.322,3.864,1.752,5.2a13.814,13.814,0,0,1,.623,2.19,13.786,13.786,0,0,1-.87-2.1c-.493-1.315-1.151-3.141-1.855-5.165s-1.322-3.863-1.751-5.2A13.828,13.828,0,0,1,850.344,1456.942Z" transform="translate(-850.338 -1456.942)" fill="#e0e0e0"/>
      </g>
      <g id="Grupo_950263" data-name="Grupo 950263" transform="translate(10.709 59.608)">
        <path id="Trazado_636001" data-name="Trazado 636001" d="M857.468,1476.961a17.474,17.474,0,0,1,2.417.319c1.486.23,3.536.55,5.809.85s4.335.531,5.83.694a17.474,17.474,0,0,1,2.416.322,14.442,14.442,0,0,1-2.439-.061c-1.5-.1-3.576-.284-5.856-.587s-4.329-.662-5.806-.959A14.465,14.465,0,0,1,857.468,1476.961Z" transform="translate(-857.468 -1476.95)" fill="#e0e0e0"/>
      </g>
    </g>
    <g id="Grupo_950276" data-name="Grupo 950276" transform="translate(763.878 1268.179)">
      <rect id="Rectángulo_44858" data-name="Rectángulo 44858" width="55.307" height="40.417" transform="matrix(0.031, -1, 1, 0.031, 7.598, 55.281)" fill="#f5f5f5"/>
      <g id="Grupo_950275" data-name="Grupo 950275" transform="translate(0 7.152)">
        <g id="Grupo_950266" data-name="Grupo 950266">
          <rect id="Rectángulo_44859" data-name="Rectángulo 44859" width="55.307" height="40.417" transform="matrix(0.031, -1, 1, 0.031, 0.156, 55.473)" fill="#fff"/>
          <g id="Grupo_950265" data-name="Grupo 950265">
            <path id="Trazado_636002" data-name="Trazado 636002" d="M905.924,1362.651s0-.1,0-.271.009-.446.014-.782c.016-.7.041-1.709.072-3.02.071-2.644.172-6.49.3-11.356.277-9.729.669-23.527,1.133-39.857l.163.173-40.394-1.216h0l.191-.18c-.644,20.649-1.239,39.766-1.722,55.281l-.147-.156,29.337.974,8.161.288,2.149.083c.488.021.746.04.746.04s-.237,0-.715-.006l-2.122-.048-8.129-.21-29.436-.82-.151,0,0-.152c.464-15.516,1.036-34.633,1.653-55.282l.006-.186.186.006h0l40.393,1.251.169.005-.006.168c-.534,16.373-.985,30.208-1.3,39.962-.167,4.849-.3,8.68-.39,11.315-.048,1.3-.086,2.3-.112,2.985-.014.328-.025.58-.033.763S905.924,1362.651,905.924,1362.651Z" transform="translate(-865.37 -1305.944)" fill="#e0e0e0"/>
          </g>
        </g>
        <g id="Grupo_950267" data-name="Grupo 950267" transform="translate(6.833 12.334)">
          <path id="Trazado_636003" data-name="Trazado 636003" d="M894.587,1323.9c0,.1-4.4.051-9.822-.114s-9.814-.383-9.811-.485,4.4-.051,9.822.114S894.59,1323.8,894.587,1323.9Z" transform="translate(-874.955 -1323.247)" fill="#e0e0e0"/>
        </g>
        <g id="Grupo_950268" data-name="Grupo 950268" transform="translate(6.686 17.155)">
          <path id="Trazado_636004" data-name="Trazado 636004" d="M905,1330.969c0,.1-6.778-.021-15.13-.276s-15.123-.545-15.119-.647,6.776.021,15.131.276S905,1330.867,905,1330.969Z" transform="translate(-874.75 -1330.01)" fill="#e0e0e0"/>
        </g>
        <g id="Grupo_950269" data-name="Grupo 950269" transform="translate(6.533 22.166)">
          <path id="Trazado_636005" data-name="Trazado 636005" d="M904.784,1338c0,.1-6.778-.021-15.129-.277s-15.123-.545-15.12-.647,6.776.021,15.131.277S904.787,1337.9,904.784,1338Z" transform="translate(-874.535 -1337.039)" fill="#e0e0e0"/>
        </g>
        <g id="Grupo_950270" data-name="Grupo 950270" transform="translate(6.38 27.177)">
          <path id="Trazado_636006" data-name="Trazado 636006" d="M904.569,1345.029c0,.1-6.778-.021-15.129-.277s-15.123-.545-15.12-.647,6.776.021,15.132.277S904.573,1344.927,904.569,1345.029Z" transform="translate(-874.32 -1344.069)" fill="#e0e0e0"/>
        </g>
        <g id="Grupo_950271" data-name="Grupo 950271" transform="translate(6.227 32.189)">
          <path id="Trazado_636007" data-name="Trazado 636007" d="M904.356,1352.059c0,.1-6.778-.021-15.13-.277s-15.123-.545-15.119-.647,6.776.021,15.131.276S904.358,1351.957,904.356,1352.059Z" transform="translate(-874.106 -1351.1)" fill="#e0e0e0"/>
        </g>
        <g id="Grupo_950272" data-name="Grupo 950272" transform="translate(6.074 37.2)">
          <path id="Trazado_636008" data-name="Trazado 636008" d="M904.141,1359.089c0,.1-6.778-.021-15.129-.277s-15.123-.545-15.12-.647,6.776.021,15.131.277S904.143,1358.987,904.141,1359.089Z" transform="translate(-873.891 -1358.13)" fill="#e0e0e0"/>
        </g>
        <g id="Grupo_950273" data-name="Grupo 950273" transform="translate(5.921 42.212)">
          <path id="Trazado_636009" data-name="Trazado 636009" d="M903.926,1366.12c0,.1-6.778-.021-15.129-.276s-15.123-.545-15.12-.648,6.776.021,15.132.277S903.929,1366.017,903.926,1366.12Z" transform="translate(-873.676 -1365.16)" fill="#e0e0e0"/>
        </g>
        <g id="Grupo_950274" data-name="Grupo 950274" transform="translate(5.768 47.197)">
          <path id="Trazado_636010" data-name="Trazado 636010" d="M889.721,1372.712c0,.1-3.646.074-8.135-.063s-8.128-.331-8.124-.433,3.645-.075,8.136.063S889.724,1372.61,889.721,1372.712Z" transform="translate(-873.462 -1372.154)" fill="#e0e0e0"/>
        </g>
      </g>
    </g>
    <g id="Grupo_950282" data-name="Grupo 950282" transform="translate(673.369 1238.695)">
      <g id="Grupo_950279" data-name="Grupo 950279">
        <g id="Grupo_950278" data-name="Grupo 950278">
          <rect id="Rectángulo_44860" data-name="Rectángulo 44860" width="34.171" height="42.742" transform="translate(0.094 31.831) rotate(-68.29)" fill="#fff"/>
          <g id="Grupo_950277" data-name="Grupo 950277">
            <path id="Trazado_636011" data-name="Trazado 636011" d="M790.846,1270.445l-.192-.073-.556-.217-2.156-.85-8.131-3.219-28.7-11.392.084-.036c-3.76,9.449-8.071,20.283-12.632,31.747v0l-.041-.094,39.706,15.823-.078.033c3.821-9.563,6.988-17.489,9.2-23.027l2.575-6.425c.3-.74.525-1.307.681-1.692s.239-.582.239-.582-.073.194-.222.575-.374.949-.664,1.686c-.586,1.483-1.446,3.655-2.541,6.424l-9.158,23.085-.022.056-.056-.022-39.715-15.8-.067-.026.027-.067v0c4.566-11.462,8.881-22.294,12.646-31.742l.023-.06.06.024,28.715,11.467,8.1,3.246,2.139.86.547.222C790.786,1270.418,790.846,1270.445,790.846,1270.445Z" transform="translate(-738.401 -1254.55)" fill="#e0e0e0"/>
          </g>
        </g>
      </g>
      <rect id="Rectángulo_44861" data-name="Rectángulo 44861" width="29.869" height="39.739" transform="matrix(0.37, -0.929, 0.929, 0.37, 2.234, 30.405)" fill="#ebebeb"/>
      <path id="Trazado_636012" data-name="Trazado 636012" d="M741.742,1292.443l19.763-12.115L765.2,1294.3l7.715-3.612,5.751,16.455Z" transform="translate(-739.36 -1261.953)" fill="#e0e0e0"/>
      <g id="Grupo_950281" data-name="Grupo 950281" transform="translate(28.328 16.506)">
        <g id="Grupo_950280" data-name="Grupo 950280">
          <path id="Trazado_636013" data-name="Trazado 636013" d="M784.178,1281.993a3.129,3.129,0,1,1-1.75-4.065A3.129,3.129,0,0,1,784.178,1281.993Z" transform="translate(-778.141 -1277.705)" fill="#e0e0e0"/>
        </g>
      </g>
    </g>
    <g id="Grupo_950284" data-name="Grupo 950284" transform="translate(561.505 1261.942)">
      <g id="Grupo_950283" data-name="Grupo 950283" transform="translate(0)">
        <path id="Trazado_636014" data-name="Trazado 636014" d="M602.517,1314.96a1.768,1.768,0,0,0,.847.14,1.52,1.52,0,0,0,.909-.454,8.76,8.76,0,0,0,.753-1.228l4.623-8.069,1.538-2.67.819-1.42a4.742,4.742,0,0,0,.376-.716,1.364,1.364,0,0,0,.021-.76,1.28,1.28,0,0,0-.41-.647,6.831,6.831,0,0,0-.736-.438l-1.585-.887-3.31-1.853-14.727-8.265a1.334,1.334,0,0,0-1.731.433l-1.106,1.89-2.168,3.724-4.1,7.036-.488.835a1.406,1.406,0,0,0-.229.814,1.28,1.28,0,0,0,.289.766,2.263,2.263,0,0,0,.706.5l3.114,1.762,5.586,3.167,8.076,4.609,2.186,1.27.565.339a.979.979,0,0,1,.185.126,1.039,1.039,0,0,1-.2-.093l-.582-.306-2.22-1.209-8.134-4.507-5.609-3.128-3.123-1.746a2.543,2.543,0,0,1-.8-.569,1.613,1.613,0,0,1-.369-.963,1.746,1.746,0,0,1,.271-1l.485-.837c1.3-2.247,2.668-4.6,4.085-7.048l2.163-3.726,1.119-1.915a1.706,1.706,0,0,1,2.219-.546l14.712,8.291,3.3,1.866,1.582.894a6.759,6.759,0,0,1,.782.476,1.58,1.58,0,0,1,.505.807,1.663,1.663,0,0,1-.031.932,4.724,4.724,0,0,1-.407.773l-.828,1.414-1.559,2.658-4.725,8.009a8.289,8.289,0,0,1-.8,1.234,1.588,1.588,0,0,1-.98.451,1.446,1.446,0,0,1-.657-.1A.788.788,0,0,1,602.517,1314.96Z" transform="translate(-581.474 -1287.162)" fill="#e0e0e0"/>
      </g>
      <path id="Trazado_636015" data-name="Trazado 636015" d="M603.447,1304.372l1.8,3.19-3.707.068-3.707.068,1.91-3.258,1.91-3.258Z" transform="translate(-586.171 -1291.188)" fill="#e0e0e0"/>
    </g>
    <g id="Grupo_950286" data-name="Grupo 950286" transform="translate(515.98 1410.841)">
      <g id="Grupo_950285" data-name="Grupo 950285" transform="translate(0)">
        <path id="Trazado_636016" data-name="Trazado 636016" d="M822.159,1496.24c0,.108-68.181.2-152.267.2-84.115,0-152.282-.088-152.282-.2s68.166-.2,152.282-.2C753.978,1496.042,822.159,1496.13,822.159,1496.24Z" transform="translate(-517.61 -1496.042)" fill="#263238"/>
      </g>
    </g>
    <g id="Grupo_950340" data-name="Grupo 950340" transform="translate(547.596 1233.869)">
      <g id="Grupo_950304" data-name="Grupo 950304" transform="translate(0 77.109)">
        <path id="Trazado_636017" data-name="Trazado 636017" d="M614.683,1410.722,593.158,1389.1l10.822-19.877c10.822-13.853,33.73-12.96,33.73-12.96a131.3,131.3,0,0,1,33.784,2.039c18.2,3.541,16.73,15.583,16.73,15.583l2.437,44.6,2.613,36.319-67.112,1.353-11.48-45.443" transform="translate(-570.921 -1355.952)" fill="#45bbcc"/>
        <path id="Trazado_636018" data-name="Trazado 636018" d="M641.878,1463.459l-60.11.736a19.54,19.54,0,0,1-17.9-27.9l25.7-47.666,23.412,15.826-15.97,33.144,48.662.868Z" transform="translate(-561.963 -1365.336)" fill="#45bbcc"/>
        <path id="Trazado_636019" data-name="Trazado 636019" d="M723.506,1370.959l48.239,74.477-28.142,1.84s-16.806-26.485-16.426-25.937C727.864,1422.331,723.506,1370.959,723.506,1370.959Z" transform="translate(-608.351 -1360.261)" fill="#45bbcc"/>
        <path id="Trazado_636020" data-name="Trazado 636020" d="M620.677,1437.276" transform="translate(-578.823 -1379.304)" fill="#ff4f5b"/>
        <g id="Grupo_950287" data-name="Grupo 950287" transform="translate(41.869 9.173)">
          <path id="Trazado_636021" data-name="Trazado 636021" d="M628.638,1403.048a1.566,1.566,0,0,1,.067-.383c.068-.287.153-.644.256-1.079.223-.937.547-2.291.887-3.977s.7-3.7.945-5.959a31.469,31.469,0,0,0,.026-7.345,19.358,19.358,0,0,0-2.491-6.856,27.593,27.593,0,0,0-3.581-4.82,33.931,33.931,0,0,0-2.921-2.825,14.794,14.794,0,0,1-1.127-.984,1.5,1.5,0,0,1,.328.208c.2.15.518.357.891.664a28.3,28.3,0,0,1,3.02,2.756,26.564,26.564,0,0,1,3.684,4.827,19.277,19.277,0,0,1,2.563,6.977,30.752,30.752,0,0,1-.053,7.435,60.44,60.44,0,0,1-1.027,5.976c-.374,1.685-.738,3.032-1,3.959-.133.463-.243.821-.323,1.062A1.525,1.525,0,0,1,628.638,1403.048Z" transform="translate(-620.698 -1368.82)" fill="#263238"/>
        </g>
        <g id="Grupo_950288" data-name="Grupo 950288" transform="translate(34.963 45.969)">
          <path id="Trazado_636022" data-name="Trazado 636022" d="M623.923,1420.439a6.793,6.793,0,0,1-.414,1.078c-.288.683-.72,1.667-1.265,2.875-1.089,2.419-2.64,5.74-4.423,9.374s-3.462,6.894-4.709,9.235c-.624,1.171-1.137,2.114-1.5,2.76a6.735,6.735,0,0,1-.6.986,6.9,6.9,0,0,1,.471-1.053l1.4-2.814,4.61-9.278,4.517-9.321c.557-1.148,1.019-2.1,1.371-2.826A6.994,6.994,0,0,1,623.923,1420.439Z" transform="translate(-611.01 -1420.439)" fill="#263238"/>
        </g>
        <g id="Grupo_950289" data-name="Grupo 950289" transform="translate(21.323 71.95)">
          <path id="Trazado_636023" data-name="Trazado 636023" d="M650.467,1483.059a.426.426,0,0,1,0-.125c.008-.1.018-.218.03-.366.034-.346.082-.818.143-1.421.139-1.266.338-3.074.588-5.348.532-4.607,1.282-11.1,2.166-18.747l.168.19-17.756.016-31.066-.054-9.414-.059-2.56-.035-.665-.018a.114.114,0,1,1,0-.038l.665-.018,2.56-.035,9.414-.059,31.066-.054,17.756.016h.192l-.023.19c-.938,7.642-1.734,14.128-2.3,18.731-.291,2.27-.522,4.073-.684,5.336-.083.6-.148,1.071-.2,1.415l-.057.363A.407.407,0,0,1,650.467,1483.059Z" transform="translate(-591.875 -1456.886)" fill="#263238"/>
        </g>
        <g id="Grupo_950290" data-name="Grupo 950290" transform="translate(25.59 64.426)">
          <path id="Trazado_636024" data-name="Trazado 636024" d="M607.741,1454.678a17.22,17.22,0,0,1-1.2-1.5,23.457,23.457,0,0,0-7-5.91,17.158,17.158,0,0,1-1.682-.931,7,7,0,0,1,1.8.7,19.268,19.268,0,0,1,7.086,5.984A6.989,6.989,0,0,1,607.741,1454.678Z" transform="translate(-597.861 -1446.331)" fill="#263238"/>
        </g>
        <g id="Grupo_950291" data-name="Grupo 950291" transform="translate(116.985 16.356)">
          <path id="Trazado_636025" data-name="Trazado 636025" d="M729.827,1440.03a3.853,3.853,0,0,1-.1-.616q-.074-.658-.2-1.774c-.165-1.541-.385-3.774-.624-6.535-.487-5.522-1.05-13.161-1.551-21.6s-.848-16.1-1.049-21.636c-.1-2.769-.169-5.011-.2-6.561q-.018-1.124-.03-1.785a4,4,0,0,1,.015-.623,3.818,3.818,0,0,1,.06.62q.037.661.1,1.782c.077,1.583.186,3.814.321,6.555.267,5.536.658,13.182,1.157,21.626s1.022,16.078,1.442,21.6c.212,2.737.384,4.963.506,6.544q.083,1.121.132,1.78A3.954,3.954,0,0,1,729.827,1440.03Z" transform="translate(-726.073 -1378.896)" fill="#263238"/>
        </g>
        <g id="Grupo_950292" data-name="Grupo 950292" transform="translate(59.354 17.642)">
          <path id="Trazado_636026" data-name="Trazado 636026" d="M652.953,1400.024a5.965,5.965,0,0,1,.077-.974c.082-.68.191-1.585.326-2.7l1.238-9.309.277.17-4.612,3.229-4.692,3.263-.339.235.062-.406c.567-3.7,1.055-6.895,1.411-9.226.182-1.1.329-1.99.44-2.661a5.939,5.939,0,0,1,.2-.95,5.969,5.969,0,0,1-.081.967c-.086.674-.2,1.572-.338,2.675-.324,2.337-.767,5.537-1.28,9.246l-.276-.17,4.682-3.278,4.622-3.215.336-.234-.059.4c-.549,3.725-1.023,6.942-1.369,9.29-.176,1.106-.319,2.006-.428,2.682A6.011,6.011,0,0,1,652.953,1400.024Z" transform="translate(-645.227 -1380.7)" fill="#e0e0e0"/>
        </g>
        <g id="Grupo_950293" data-name="Grupo 950293" transform="translate(75.456 29.758)">
          <path id="Trazado_636027" data-name="Trazado 636027" d="M686.266,1407.8a5.934,5.934,0,0,1-.7-.682l-1.865-1.974-6.368-6.9.307-.1c-.145,1.747-.3,3.643-.465,5.611-.172,2-.337,3.923-.49,5.694l-.035.411-.272-.307-6.193-6.983-1.765-2.039a5.961,5.961,0,0,1-.6-.759,6,6,0,0,1,.692.68l1.841,1.97,6.292,6.895-.308.1c.147-1.772.307-3.7.472-5.7.169-1.967.332-3.862.482-5.609l.035-.408.272.3,6.27,6.991,1.789,2.044A6.2,6.2,0,0,1,686.266,1407.8Z" transform="translate(-667.815 -1397.697)" fill="#e0e0e0"/>
        </g>
        <g id="Grupo_950294" data-name="Grupo 950294" transform="translate(99.877 38.902)">
          <path id="Trazado_636028" data-name="Trazado 636028" d="M709.607,1410.525a5.953,5.953,0,0,1-.484.848l-1.443,2.3-5.085,7.9-.177-.271,5.548-.957,5.636-.955.406-.068-.229.341-5.207,7.746-1.531,2.22a5.948,5.948,0,0,1-.584.774,5.971,5.971,0,0,1,.485-.84l1.446-2.277,5.1-7.819.177.272-5.632.972-5.551.94-.4.068.225-.34,5.2-7.823,1.529-2.244A6.116,6.116,0,0,1,709.607,1410.525Z" transform="translate(-702.074 -1410.525)" fill="#e0e0e0"/>
        </g>
        <g id="Grupo_950295" data-name="Grupo 950295" transform="translate(81.921 52.714)">
          <path id="Trazado_636029" data-name="Trazado 636029" d="M684.419,1429.9a5.929,5.929,0,0,1-.484.849l-1.444,2.3-5.085,7.9-.178-.272,5.548-.957,5.635-.954.406-.068-.229.34-5.207,7.746c-.632.915-1.146,1.66-1.531,2.221a5.962,5.962,0,0,1-.584.774,5.962,5.962,0,0,1,.485-.84l1.446-2.277,5.1-7.819.177.272-5.632.972-5.552.94-.4.068.226-.34,5.2-7.823,1.53-2.244A6.07,6.07,0,0,1,684.419,1429.9Z" transform="translate(-676.885 -1429.901)" fill="#e0e0e0"/>
        </g>
        <g id="Grupo_950296" data-name="Grupo 950296" transform="translate(120.716 38.706)">
          <path id="Trazado_636030" data-name="Trazado 636030" d="M738.841,1410.25a6.093,6.093,0,0,1-.484.849l-1.443,2.3-5.085,7.9-.178-.272,5.549-.957,5.635-.954.406-.068-.229.34-5.207,7.746-1.531,2.221a6.009,6.009,0,0,1-.583.774,5.917,5.917,0,0,1,.485-.84l1.446-2.277,5.1-7.819.177.272-5.632.972-5.551.94-.4.068.225-.34,5.2-7.823,1.529-2.244A6.037,6.037,0,0,1,738.841,1410.25Z" transform="translate(-731.307 -1410.25)" fill="#e0e0e0"/>
        </g>
        <g id="Grupo_950297" data-name="Grupo 950297" transform="translate(29.865 27.295)">
          <path id="Trazado_636031" data-name="Trazado 636031" d="M611.392,1394.243a5.927,5.927,0,0,1-.484.849l-1.443,2.3-5.085,7.9-.177-.272,5.548-.957,5.635-.954.406-.068-.229.34-5.207,7.746-1.531,2.22a5.922,5.922,0,0,1-.584.775,5.973,5.973,0,0,1,.485-.84l1.446-2.277,5.1-7.819.177.272-5.632.972-5.552.94-.4.068.226-.34,5.2-7.823,1.53-2.244A6,6,0,0,1,611.392,1394.243Z" transform="translate(-603.858 -1394.243)" fill="#e0e0e0"/>
        </g>
        <g id="Grupo_950298" data-name="Grupo 950298" transform="translate(9.216 79.148)">
          <path id="Trazado_636032" data-name="Trazado 636032" d="M574.893,1468.432a5.974,5.974,0,0,1,.656.724l1.739,2.086,5.924,7.287-.313.084c.253-1.735.528-3.617.814-5.571.3-1.984.582-3.894.844-5.653l.061-.407.252.324,5.745,7.356,1.635,2.145a5.984,5.984,0,0,1,.555.8,5.869,5.869,0,0,1-.647-.722l-1.715-2.082-5.849-7.273.314-.084-.827,5.655-.831,5.569-.061.4-.253-.32-5.82-7.369-1.658-2.151A5.974,5.974,0,0,1,574.893,1468.432Z" transform="translate(-574.892 -1466.983)" fill="#e0e0e0"/>
        </g>
        <g id="Grupo_950299" data-name="Grupo 950299" transform="translate(55.821 46.072)">
          <path id="Trazado_636033" data-name="Trazado 636033" d="M658.031,1420.6a6.074,6.074,0,0,1-.969.125l-2.706.234-9.365.7.109-.305,4.107,3.851,4.157,3.923.3.283-.41.022-9.319.511-2.695.115a5.865,5.865,0,0,1-.97,0,5.957,5.957,0,0,1,.962-.118l2.689-.218,9.311-.644-.11.305-4.169-3.91-4.095-3.864-.3-.281.407-.024,9.374-.566,2.713-.132A6.079,6.079,0,0,1,658.031,1420.6Z" transform="translate(-640.27 -1420.583)" fill="#e0e0e0"/>
        </g>
        <g id="Grupo_950300" data-name="Grupo 950300" transform="translate(57.785 80.375)">
          <path id="Trazado_636034" data-name="Trazado 636034" d="M643.027,1470.344a6.067,6.067,0,0,1,.671.711l1.779,2.053,6.066,7.168-.312.091c.22-1.74.458-3.627.706-5.586l.733-5.669.053-.408.259.319,5.888,7.242,1.676,2.112a5.834,5.834,0,0,1,.57.785,6.065,6.065,0,0,1-.661-.709L658.7,1476.4l-5.99-7.158.312-.09c-.222,1.764-.465,3.68-.716,5.671-.253,1.958-.5,3.844-.722,5.584l-.053.406-.259-.315-5.964-7.254-1.7-2.118A6,6,0,0,1,643.027,1470.344Z" transform="translate(-643.026 -1468.704)" fill="#e0e0e0"/>
        </g>
        <g id="Grupo_950301" data-name="Grupo 950301" transform="translate(11.795 55.651)">
          <path id="Trazado_636035" data-name="Trazado 636035" d="M596.27,1434.035a6.07,6.07,0,0,1-.969.125l-2.705.234-9.365.7.11-.306,4.106,3.852,4.157,3.923.3.282-.41.023-9.32.511-2.695.115a.486.486,0,1,1-.007-.118l2.688-.217,9.311-.644-.11.305-4.169-3.91-4.095-3.864-.3-.281.407-.025,9.374-.565,2.712-.132A5.988,5.988,0,0,1,596.27,1434.035Z" transform="translate(-578.509 -1434.021)" fill="#e0e0e0"/>
        </g>
        <g id="Grupo_950302" data-name="Grupo 950302" transform="translate(36.048 81.191)">
          <path id="Trazado_636036" data-name="Trazado 636036" d="M630.293,1469.864a6.09,6.09,0,0,1-.969.125l-2.706.234-9.365.7.109-.306c1.279,1.2,2.666,2.5,4.107,3.852l4.157,3.923.3.282-.41.023-9.319.51-2.694.116a.486.486,0,1,1-.008-.118l2.688-.217,9.312-.644-.111.305-4.169-3.91-4.095-3.864-.3-.281.407-.025L626.6,1470l2.713-.131A5.954,5.954,0,0,1,630.293,1469.864Z" transform="translate(-612.532 -1469.85)" fill="#e0e0e0"/>
        </g>
        <g id="Grupo_950303" data-name="Grupo 950303" transform="translate(90.801 16.21)">
          <path id="Trazado_636037" data-name="Trazado 636037" d="M707.1,1378.706a5.914,5.914,0,0,1-.969.125l-2.706.235-9.365.7.109-.305,4.107,3.852,4.157,3.923.3.283-.409.022-9.32.511-2.695.115a6.041,6.041,0,0,1-.97,0,5.9,5.9,0,0,1,.963-.119l2.688-.218,9.311-.643-.111.3-4.169-3.91-4.095-3.865-.3-.281.407-.024,9.373-.566,2.713-.131A6.077,6.077,0,0,1,707.1,1378.706Z" transform="translate(-689.342 -1378.692)" fill="#e0e0e0"/>
        </g>
      </g>
      <g id="Grupo_950308" data-name="Grupo 950308" transform="translate(80.31 153.816)">
        <path id="Trazado_636038" data-name="Trazado 636038" d="M676.245,1468.057s11.994-3.455,15.963-4.467c1.547-.4,8.172,3.1,12.747,6.006,0,0,6.3,3.736,5.792,4.887-.561,1.267-2.885,1.007-6.589-.735,0,0,1.292,3.754-1.245,3.673,0,0,1.259,4.057-1.12,4.477s-2.938-4.757-5.037-5.037-6.436-.559-6.436-.559-3.612,5.981-6.41,6.4-9.283-.336-9.283-.336Z" transform="translate(-674.625 -1463.559)" fill="#ffbf9d"/>
        <g id="Grupo_950305" data-name="Grupo 950305" transform="translate(22.089 5.319)">
          <path id="Trazado_636039" data-name="Trazado 636039" d="M705.613,1471.027a39.88,39.88,0,0,1,6.5,4.1,39.929,39.929,0,0,1-6.5-4.1Z" transform="translate(-705.612 -1471.021)" fill="#ff9a6c"/>
        </g>
        <g id="Grupo_950306" data-name="Grupo 950306" transform="translate(21.379 7.624)">
          <path id="Trazado_636040" data-name="Trazado 636040" d="M704.618,1474.262a49.8,49.8,0,0,1,7.8,3.6,49.744,49.744,0,0,1-7.8-3.6Z" transform="translate(-704.617 -1474.254)" fill="#ff9a6c"/>
        </g>
        <g id="Grupo_950307" data-name="Grupo 950307" transform="translate(22.664 13.18)">
          <path id="Trazado_636041" data-name="Trazado 636041" d="M706.419,1482.093a19.787,19.787,0,0,1,5.364.735,19.864,19.864,0,0,1-5.364-.735Z" transform="translate(-706.419 -1482.049)" fill="#ff9a6c"/>
        </g>
      </g>
      <g id="Grupo_950339" data-name="Grupo 950339" transform="translate(56.445)">
        <g id="Grupo_950333" data-name="Grupo 950333">
          <path id="Trazado_636042" data-name="Trazado 636042" d="M651.029,1282.379a2.465,2.465,0,0,1-3.472,2.915c-1.625-.824-1.831-3.066-1.511-4.86s.93-3.708.177-5.368c-.575-1.27-1.822-2.074-2.794-3.073a7.866,7.866,0,0,1-2.184-6.671,6.612,6.612,0,0,1,4.546-5.2c2.388-.667,5.33.066,7.108-1.662,1.288-1.252,1.367-3.306,2.364-4.8,1.548-2.321,4.82-2.689,7.583-2.312s5.578,1.265,8.285.591c2.261-.562,4.117-2.141,6.235-3.111a12.211,12.211,0,0,1,15.9,16.764,7.8,7.8,0,0,1-3.788,3.748" transform="translate(-641.146 -1247.78)" fill="#263238"/>
          <g id="Grupo_950324" data-name="Grupo 950324" transform="translate(9.063 14.404)">
            <g id="Grupo_950323" data-name="Grupo 950323">
              <g id="Grupo_950322" data-name="Grupo 950322">
                <g id="Grupo_950309" data-name="Grupo 950309">
                  <path id="Trazado_636043" data-name="Trazado 636043" d="M668.435,1347.061h0a13.743,13.743,0,0,0,13.727-13.932l-.181-13.106s11.009-1.1,11.738-12.009.2-36.073.2-36.073h0a37.988,37.988,0,0,0-38.376,2.714l-1.686,1.157.82,57.7A13.742,13.742,0,0,0,668.435,1347.061Z" transform="translate(-653.86 -1267.987)" fill="#ffbf9d"/>
                </g>
                <g id="Grupo_950313" data-name="Grupo 950313" transform="translate(33.791 18.521)">
                  <g id="Grupo_950310" data-name="Grupo 950310" transform="translate(1.933 1.932)">
                    <path id="Trazado_636044" data-name="Trazado 636044" d="M705.42,1299.937a1.633,1.633,0,0,1,.019-3.246.739.739,0,0,1,.265,0,1.633,1.633,0,0,1-.018,3.246A.727.727,0,0,1,705.42,1299.937Z" transform="translate(-703.974 -1296.679)" fill="#263238"/>
                  </g>
                  <g id="Grupo_950312" data-name="Grupo 950312">
                    <g id="Grupo_950311" data-name="Grupo 950311">
                      <path id="Trazado_636045" data-name="Trazado 636045" d="M706.782,1295.676c-.181.18-1.208-.7-2.71-.793-1.5-.111-2.637.628-2.792.426-.076-.09.113-.422.608-.758a3.712,3.712,0,0,1,4.392.293C706.726,1295.243,706.87,1295.6,706.782,1295.676Z" transform="translate(-701.263 -1293.968)" fill="#263238"/>
                    </g>
                  </g>
                </g>
                <g id="Grupo_950317" data-name="Grupo 950317" transform="translate(17.391 18.955)">
                  <g id="Grupo_950314" data-name="Grupo 950314" transform="translate(2.037 1.358)">
                    <path id="Trazado_636046" data-name="Trazado 636046" d="M683.606,1296.765a1.587,1.587,0,1,1-2.209.4A1.587,1.587,0,0,1,683.606,1296.765Z" transform="translate(-681.115 -1296.482)" fill="#263238"/>
                  </g>
                  <g id="Grupo_950316" data-name="Grupo 950316">
                    <g id="Grupo_950315" data-name="Grupo 950315">
                      <path id="Trazado_636047" data-name="Trazado 636047" d="M683.776,1296.285c-.182.18-1.208-.7-2.711-.792-1.5-.112-2.636.627-2.791.426-.077-.091.112-.422.608-.758a3.711,3.711,0,0,1,4.392.292C683.72,1295.852,683.863,1296.206,683.776,1296.285Z" transform="translate(-678.257 -1294.577)" fill="#263238"/>
                    </g>
                  </g>
                </g>
                <g id="Grupo_950319" data-name="Grupo 950319" transform="translate(28.059 20.275)">
                  <g id="Grupo_950318" data-name="Grupo 950318">
                    <path id="Trazado_636048" data-name="Trazado 636048" d="M693.425,1309.547a7.3,7.3,0,0,1,2.459-.383c.4-.021.709-.093.749-.3a2.139,2.139,0,0,0-.22-1.141l-1.023-3.12c-1.4-4.442-2.361-8.1-2.136-8.17s1.547,3.47,2.953,7.911c.33,1.083.646,2.118.958,3.14a2.513,2.513,0,0,1,.125,1.646,1.033,1.033,0,0,1-.711.591,2.523,2.523,0,0,1-.676.051A7.3,7.3,0,0,1,693.425,1309.547Z" transform="translate(-693.222 -1296.43)" fill="#263238"/>
                  </g>
                </g>
                <g id="Grupo_950320" data-name="Grupo 950320" transform="translate(23.16 34.787)">
                  <path id="Trazado_636049" data-name="Trazado 636049" d="M686.477,1316.787a28.21,28.21,0,0,0,7.255,2.544,4.16,4.16,0,0,1-4.992,1.386C685.539,1319.344,686.477,1316.787,686.477,1316.787Z" transform="translate(-686.349 -1316.787)" fill="#fff"/>
                </g>
                <g id="Grupo_950321" data-name="Grupo 950321" transform="translate(14.139 47.061)">
                  <path id="Trazado_636050" data-name="Trazado 636050" d="M687.7,1338.825a25.417,25.417,0,0,1-14.009-4.82s2.935,8.039,13.88,7.649Z" transform="translate(-673.694 -1334.006)" fill="#ff9a6c"/>
                </g>
              </g>
            </g>
          </g>
          <path id="Trazado_636051" data-name="Trazado 636051" d="M692.882,1273.543s-6.587,3.348-15.325-.8c-5.734-2.724-12.381-3.98-13.818-2.81s-1.631,7.028-7.224,8.846c0,0,.6,11.157-3.855,10.845s-2.014-17.657-2.014-17.657l10.787-5.53,11.84-2.476,11.228,1.362,8.709,2.2Z" transform="translate(-643.682 -1252.426)" fill="#263238"/>
          <g id="Grupo_950328" data-name="Grupo 950328" transform="translate(2.243 33.123)">
            <g id="Grupo_950325" data-name="Grupo 950325">
              <path id="Trazado_636052" data-name="Trazado 636052" d="M651.842,1294.732c-.182-.09-7.379-2.627-7.547,4.848s7.371,6.1,7.389,5.888S651.842,1294.732,651.842,1294.732Z" transform="translate(-644.292 -1294.246)" fill="#ffbf9d"/>
            </g>
            <g id="Grupo_950327" data-name="Grupo 950327" transform="translate(1.897 2.393)">
              <g id="Grupo_950326" data-name="Grupo 950326">
                <path id="Trazado_636053" data-name="Trazado 636053" d="M650.228,1303.549c-.032-.025-.132.089-.354.185a1.306,1.306,0,0,1-.974,0,3.223,3.223,0,0,1-1.426-2.924,4.29,4.29,0,0,1,.406-1.856,1.507,1.507,0,0,1,1-.978.663.663,0,0,1,.76.374c.1.212.045.36.084.374.021.019.163-.122.111-.432a.832.832,0,0,0-.284-.475.985.985,0,0,0-.716-.207,1.831,1.831,0,0,0-1.386,1.128,4.418,4.418,0,0,0-.5,2.074c.013,1.507.753,2.933,1.827,3.271a1.4,1.4,0,0,0,1.2-.171C650.211,1303.729,650.254,1303.563,650.228,1303.549Z" transform="translate(-646.953 -1297.603)" fill="#ff9a6c"/>
              </g>
            </g>
          </g>
          <g id="Grupo_950329" data-name="Grupo 950329" transform="translate(5.986 10.014)">
            <path id="Trazado_636054" data-name="Trazado 636054" d="M649.544,1262.022a4.125,4.125,0,0,1,4.616,1.722,7.041,7.041,0,0,0-4.616-1.722Z" transform="translate(-649.543 -1261.828)" fill="#263238"/>
          </g>
          <g id="Grupo_950330" data-name="Grupo 950330" transform="translate(10.208 5.731)">
            <path id="Trazado_636055" data-name="Trazado 636055" d="M655.741,1255.82c.131.008-.074,1.576.187,3.446a14.845,14.845,0,0,0,1.044,3.257c-.035.025-.308-.266-.627-.826a7.03,7.03,0,0,1-.784-2.376A7.783,7.783,0,0,1,655.741,1255.82Z" transform="translate(-655.465 -1255.82)" fill="#263238"/>
          </g>
          <g id="Grupo_950331" data-name="Grupo 950331" transform="translate(41.194 30)">
            <path id="Trazado_636056" data-name="Trazado 636056" d="M698.938,1290.908c-.04-.088.28-.345.887-.593a6.827,6.827,0,0,1,5,.05c.6.26.916.523.875.61-.092.2-1.531-.364-3.379-.368C700.476,1290.574,699.025,1291.107,698.938,1290.908Z" transform="translate(-698.934 -1289.865)" fill="#263238"/>
          </g>
          <g id="Grupo_950332" data-name="Grupo 950332" transform="translate(24.526 28.427)">
            <path id="Trazado_636057" data-name="Trazado 636057" d="M675.555,1288.7c-.039-.088.281-.345.888-.593a6.825,6.825,0,0,1,5,.05c.6.259.917.523.875.61-.092.2-1.532-.364-3.38-.368C677.094,1288.368,675.642,1288.9,675.555,1288.7Z" transform="translate(-675.551 -1287.659)" fill="#263238"/>
          </g>
        </g>
        <g id="Grupo_950338" data-name="Grupo 950338" transform="translate(8.804 31.675)">
          <g id="Grupo_950334" data-name="Grupo 950334" transform="translate(30.998 0.369)">
            <path id="Trazado_636058" data-name="Trazado 636058" d="M697.09,1292.906a3.112,3.112,0,0,1,.028.443c.01.317.021.716.036,1.206.011.53.024,1.155.038,1.871a7.1,7.1,0,0,0,.356,2.424,6.494,6.494,0,0,0,1.576,2.491,6.347,6.347,0,0,0,2.946,1.618,6,6,0,0,0,1.823.16,5.847,5.847,0,0,0,1.865-.393,6.284,6.284,0,0,0,3.074-2.487,6.4,6.4,0,0,0,1-3.649c0-1.275.006-2.507.009-3.683l.172.172-9.25-.084-2.686-.046-.727-.021a1.432,1.432,0,0,1-.264-.021,7.591,7.591,0,0,1,.916-.041l2.648-.047,9.365-.083.172,0v.175c0,1.176.006,2.407.01,3.683a6.747,6.747,0,0,1-1.054,3.85,6.619,6.619,0,0,1-3.259,2.627,6.2,6.2,0,0,1-1.974.407,6.365,6.365,0,0,1-1.923-.181,6.623,6.623,0,0,1-3.082-1.732,6.7,6.7,0,0,1-1.609-2.628,7.154,7.154,0,0,1-.314-2.524q.022-1.1.039-1.92c.014-.483.026-.877.036-1.19A2.115,2.115,0,0,1,697.09,1292.906Z" transform="translate(-696.982 -1292.732)" fill="#263238"/>
          </g>
          <g id="Grupo_950335" data-name="Grupo 950335" transform="translate(13.522)">
            <path id="Trazado_636059" data-name="Trazado 636059" d="M672.573,1292.389a3.226,3.226,0,0,1,.028.442l.036,1.206q.017.8.039,1.871a7.1,7.1,0,0,0,.356,2.425,6.494,6.494,0,0,0,1.575,2.491,6.349,6.349,0,0,0,2.947,1.618,6.047,6.047,0,0,0,1.823.16,5.87,5.87,0,0,0,1.865-.393,6.285,6.285,0,0,0,3.074-2.487,6.4,6.4,0,0,0,1-3.649c0-1.275.006-2.507.01-3.683l.172.173-9.251-.084-2.686-.046-.726-.021a1.476,1.476,0,0,1-.264-.021,7.579,7.579,0,0,1,.916-.041l2.647-.047,9.365-.084h.172v.174c0,1.176.006,2.408.01,3.683a6.737,6.737,0,0,1-1.054,3.85,6.621,6.621,0,0,1-3.258,2.627,6.187,6.187,0,0,1-1.974.406,6.3,6.3,0,0,1-1.923-.181,6.62,6.62,0,0,1-3.082-1.731,6.7,6.7,0,0,1-1.609-2.627,7.151,7.151,0,0,1-.313-2.524c.015-.735.028-1.377.039-1.92.015-.484.027-.877.036-1.19A2.033,2.033,0,0,1,672.573,1292.389Z" transform="translate(-672.465 -1292.215)" fill="#263238"/>
          </g>
          <g id="Grupo_950336" data-name="Grupo 950336" transform="translate(26.342 0.877)">
            <path id="Trazado_636060" data-name="Trazado 636060" d="M695.371,1293.63a16.372,16.372,0,0,1-4.922,0,16.425,16.425,0,0,1,4.922,0Z" transform="translate(-690.449 -1293.445)" fill="#263238"/>
          </g>
          <g id="Grupo_950337" data-name="Grupo 950337" transform="translate(0 0.953)">
            <path id="Trazado_636061" data-name="Trazado 636061" d="M653.5,1293.759a125.349,125.349,0,0,1,13.631-.041,125.021,125.021,0,0,1-13.631.041Z" transform="translate(-653.496 -1293.552)" fill="#263238"/>
          </g>
        </g>
      </g>
    </g>
    <g id="Grupo_950348" data-name="Grupo 950348" transform="translate(702.537 1267.939)">
      <g id="Grupo_950345" data-name="Grupo 950345">
        <g id="Grupo_950342" data-name="Grupo 950342">
          <g id="Grupo_950341" data-name="Grupo 950341">
            <path id="Trazado_636062" data-name="Trazado 636062" d="M826.59,1303.2l-21.221-7.62-21.014,7.518c-2.683,1.267-5.036,2.026-5.036,4.525v12.443a47.026,47.026,0,0,0,6.922,24.764,43.09,43.09,0,0,0,19.334,17.075c8.59-2.79,15-10.229,18.921-16.59a47.025,47.025,0,0,0,6.922-24.764v-11.19C831.419,1305.793,829.531,1304.052,826.59,1303.2Z" transform="translate(-779.319 -1295.575)" fill="#45bbcc"/>
          </g>
        </g>
        <g id="Grupo_950343" data-name="Grupo 950343" opacity="0.3">
          <path id="Trazado_636063" data-name="Trazado 636063" d="M805.576,1354.68a34.271,34.271,0,0,1-15.3-13.62,37.209,37.209,0,0,1-5.477-19.593v-8.728a5.5,5.5,0,0,1,3.561-4.935l17.01-6.36,0-5.868-21.014,7.518c-2.206.964-5.036,2.026-5.036,4.525v12.443a47.026,47.026,0,0,0,6.922,24.764,43.09,43.09,0,0,0,19.334,17.075Z" transform="translate(-779.319 -1295.575)"/>
        </g>
        <g id="Grupo_950344" data-name="Grupo 950344" transform="translate(26.05)" opacity="0.4">
          <path id="Trazado_636064" data-name="Trazado 636064" d="M816.07,1361.9a25.535,25.535,0,0,0,4.169-1.788,37.43,37.43,0,0,0,8.822-6.94,47.546,47.546,0,0,0,6.137-8.245,45.27,45.27,0,0,0,6.716-25l.013-10.273c-.013-5.115-2.636-5.493-4.842-6.456l-21.221-7.62,0,5.868,17.208,6.463a5.5,5.5,0,0,1,3.561,4.935v8.729a37.209,37.209,0,0,1-5.477,19.593,33.5,33.5,0,0,1-15.09,13.518Z" transform="translate(-815.863 -1295.575)"/>
        </g>
      </g>
      <path id="Trazado_636065" data-name="Trazado 636065" d="M818.263,1328.215l.024-1.679a5.51,5.51,0,0,0-11.019-.009l-.024,1.711a3.081,3.081,0,0,0-2.628,3.046v9.906a3.083,3.083,0,0,0,3.083,3.083h10.284a3.084,3.084,0,0,0,3.083-3.083v-9.906A3.083,3.083,0,0,0,818.263,1328.215Zm-4.017,10.509h-2.69l.42-1.943a1.638,1.638,0,1,1,1.777-.031C813.944,1337.5,814.246,1338.724,814.246,1338.724Zm2.83-10.523h-8.645l.024-1.665a4.322,4.322,0,0,1,8.645-.009Z" transform="translate(-786.583 -1302.883)" fill="#fff" opacity="0.5"/>
      <g id="Grupo_950346" data-name="Grupo 950346" transform="translate(8.418 14.008)">
        <path id="Trazado_636066" data-name="Trazado 636066" d="M791.632,1326.428a6.731,6.731,0,0,1-.319-1.723,29.63,29.63,0,0,1-.172-4.225c.023-.826.078-1.612.153-2.325a4.983,4.983,0,0,1,.475-1.878,2.154,2.154,0,0,1,.929-.934c.288-.133.468-.127.47-.107A2.4,2.4,0,0,0,792,1316.4a5.177,5.177,0,0,0-.369,1.792c-.056.707-.1,1.485-.123,2.3-.048,1.636,0,3.119.063,4.191A10.44,10.44,0,0,1,791.632,1326.428Z" transform="translate(-791.128 -1315.225)" fill="#fff"/>
      </g>
      <g id="Grupo_950347" data-name="Grupo 950347" transform="translate(9.024 28.336)">
        <path id="Trazado_636067" data-name="Trazado 636067" d="M792.188,1337.617c-.1,0-.2-.51-.208-1.142s.061-1.147.163-1.149.2.509.208,1.142S792.29,1337.615,792.188,1337.617Z" transform="translate(-791.978 -1335.326)" fill="#fff"/>
      </g>
    </g>
    <g id="Grupo_950349" data-name="Grupo 950349" transform="translate(623.053 1349.88)">
      <path id="Trazado_636068" data-name="Trazado 636068" d="M734.145,1410.525l-23.663,58.516H667.816v2.642H794.9l25.994-61.158Z" transform="translate(-667.816 -1410.525)" fill="#263238"/>
      <path id="Trazado_636069" data-name="Trazado 636069" d="M808.245,1456.317c-.858,2.945-3.354,4.807-5.577,4.161s-3.329-3.559-2.471-6.5,3.354-4.808,5.577-4.161S809.1,1453.372,808.245,1456.317Z" transform="translate(-705.747 -1421.77)" fill="#fafafa"/>
    </g>
  </g>
</svg>
