<svg id="Grupo_955662" data-name="Grupo 955662" xmlns="http://www.w3.org/2000/svg" width="67" height="73" viewBox="0 0 67 73">
  <rect id="Rectángulo_34185" data-name="Rectángulo 34185" width="67" height="73" rx="5" fill="#fff"/>
  <g id="hacking" transform="translate(6.05 8.793)">
    <g id="Grupo_955679" data-name="Grupo 955679" transform="translate(0.885 0.885)">
      <g id="Grupo_955666" data-name="Grupo 955666" transform="translate(12.397 42.504)">
        <path id="Trazado_656055" data-name="Trazado 656055" d="M20.313,56.969a2.653,2.653,0,0,0,2.656,2.656H19.224A4.217,4.217,0,0,1,15,55.4a4.125,4.125,0,0,1,.531-2.028,4.207,4.207,0,0,1,.992-1.213L20.313,49v7.969Z" transform="translate(-15 -49)" fill="#656d78"/>
      </g>
      <g id="Grupo_955667" data-name="Grupo 955667" transform="translate(32.763 42.504)">
        <path id="Trazado_656056" data-name="Trazado 656056" d="M45.438,53.374a4.125,4.125,0,0,1,.531,2.028,4.233,4.233,0,0,1-4.224,4.224H38a2.653,2.653,0,0,0,2.656-2.656V49l3.79,3.161a4.207,4.207,0,0,1,.992,1.213Z" transform="translate(-38 -49)" fill="#656d78"/>
      </g>
      <g id="Grupo_955668" data-name="Grupo 955668" transform="translate(26.565 28.336)">
        <path id="Trazado_656057" data-name="Trazado 656057" d="M41.582,34.744c.027.31.044.62.044.93a10.042,10.042,0,0,1-2.2,6.278l-1.337,1.674H31a7.082,7.082,0,0,0,7.084-7.084V33Z" transform="translate(-31 -33)" fill="#5b6570"/>
      </g>
      <g id="Grupo_955669" data-name="Grupo 955669" transform="translate(15.939 28.336)">
        <path id="Trazado_656058" data-name="Trazado 656058" d="M29.626,43.626H22.542L21.2,41.952A9.959,9.959,0,0,1,19.567,39,10.077,10.077,0,0,1,19,35.674c0-.31.018-.62.044-.93L22.542,33v3.542a7.074,7.074,0,0,0,7.084,7.084Z" transform="translate(-19 -33)" fill="#5b6570"/>
      </g>
      <g id="Grupo_955670" data-name="Grupo 955670" transform="translate(15.983 17.71)">
        <path id="Trazado_656059" data-name="Trazado 656059" d="M40.213,33.37l-3.5-1.744H22.548l-3.5,1.744a10.055,10.055,0,0,1,3.241-6.508l5.8-5.269a2.3,2.3,0,0,1,3.082,0l5.8,5.269A10.1,10.1,0,0,1,39.4,30.236a9.988,9.988,0,0,1,.815,3.135Z" transform="translate(-19.05 -21)" fill="#656d78"/>
      </g>
      <g id="Grupo_955671" data-name="Grupo 955671" transform="translate(17.71 49.587)">
        <path id="Trazado_656060" data-name="Trazado 656060" d="M38.71,57v.885a2.653,2.653,0,0,1-2.656,2.656h-12.4A2.653,2.653,0,0,1,21,57.885V57Z" transform="translate(-21 -57)" fill="#969faa"/>
      </g>
      <g id="Grupo_955672" data-name="Grupo 955672" transform="translate(17.71 38.962)">
        <path id="Trazado_656061" data-name="Trazado 656061" d="M38.71,48.542v7.084H21v-9.74A.888.888,0,0,1,21.885,45H37.824a.888.888,0,0,1,.885.885Z" transform="translate(-21 -45)" fill="#ccd1d9"/>
      </g>
      <g id="Grupo_955673" data-name="Grupo 955673" transform="translate(24.794 42.504)">
        <ellipse id="Elipse_5628" data-name="Elipse 5628" cx="1.5" cy="2" rx="1.5" ry="2" transform="translate(0.321 -0.489)" fill="#fcd770"/>
      </g>
      <g id="Grupo_955674" data-name="Grupo 955674" transform="translate(19.481 28.336)">
        <path id="Trazado_656062" data-name="Trazado 656062" d="M37.168,33v3.542a7.084,7.084,0,1,1-14.168,0V33Z" transform="translate(-23 -33)" fill="#e6e9ed"/>
      </g>
      <g id="Grupo_955675" data-name="Grupo 955675" transform="translate(0 28.336)">
        <path id="Trazado_656063" data-name="Trazado 656063" d="M2.771,33H10.74a.888.888,0,0,1,.885.885v7.084a.888.888,0,0,1-.885.885H1.885A.888.888,0,0,1,1,40.969V33.885A.888.888,0,0,1,1.885,33Z" transform="translate(-1 -33)" fill="#fcd770"/>
      </g>
      <g id="Grupo_955676" data-name="Grupo 955676" transform="translate(42.504 30.107)">
        <path id="Trazado_656064" data-name="Trazado 656064" d="M59.626,40.313v1.771H49V40.313A5.321,5.321,0,0,1,54.313,35,5.317,5.317,0,0,1,59.626,40.313Z" transform="translate(-49 -35)" fill="#fcd770"/>
      </g>
      <g id="Grupo_955677" data-name="Grupo 955677" transform="translate(44.275 23.023)">
        <path id="Trazado_656065" data-name="Trazado 656065" d="M55.746,27.213a3.378,3.378,0,0,0-1.2-.213,3.547,3.547,0,1,0,1.2.213Z" transform="translate(-51 -27)" fill="#fcd770"/>
      </g>
      <g id="Grupo_955678" data-name="Grupo 955678" transform="translate(17.71)">
        <path id="Trazado_656066" data-name="Trazado 656066" d="M38.515,8a8.314,8.314,0,0,0-.549-1.682,8.848,8.848,0,0,0-16.222,0A8.315,8.315,0,0,0,21.195,8,9.133,9.133,0,0,0,21,9.855a8.75,8.75,0,0,0,.744,3.542,8.848,8.848,0,0,0,16.222,0,8.75,8.75,0,0,0,.744-3.542A9.133,9.133,0,0,0,38.515,8Z" transform="translate(-21 -1)" fill="#4fc1e9"/>
      </g>
    </g>
    <g id="Grupo_955680" data-name="Grupo 955680" transform="translate(0 0)">
      <path id="Trazado_656067" data-name="Trazado 656067" d="M30.656,48a2.656,2.656,0,1,0,2.656,2.656A2.66,2.66,0,0,0,30.656,48Zm0,3.542a.885.885,0,1,1,.885-.885A.886.886,0,0,1,30.656,51.542Z" transform="translate(-3.206 -5.496)"/>
      <path id="Trazado_656068" data-name="Trazado 656068" d="M30.656,38.771H28v1.771h2.656A3.546,3.546,0,0,0,34.2,37H32.427A1.773,1.773,0,0,1,30.656,38.771Z" transform="translate(-3.206 -4.237)"/>
      <path id="Trazado_656069" data-name="Trazado 656069" d="M6,36H7.771v3.542H6Z" transform="translate(-0.687 -4.122)"/>
      <path id="Trazado_656070" data-name="Trazado 656070" d="M54.9,36.305a6.2,6.2,0,0,0-3.346-5.5A4.382,4.382,0,0,0,50.66,23.5,23.9,23.9,0,0,0,36.854,7.245a9.726,9.726,0,0,0-18.808,0A23.841,23.841,0,0,0,4.913,21.252H4.427a2.66,2.66,0,0,0-2.656,2.656v4.427A1.773,1.773,0,0,0,0,30.107v7.084a1.773,1.773,0,0,0,1.771,1.771H5.625a23.94,23.94,0,0,0,7.09,9.071A5.1,5.1,0,0,0,17.5,54.9H37.4a5.1,5.1,0,0,0,4.79-6.868,23.942,23.942,0,0,0,7.091-9.071H54.9Zm-8.692-7.969h4.986a2.64,2.64,0,0,1-4.986,0ZM51.2,26.565H46.209a2.64,2.64,0,0,1,4.986,0Zm-14,5.331a9.2,9.2,0,0,1-2.008,5.724l-1.074,1.342H32.449a7.956,7.956,0,0,0,2.971-6.2V30.654l1.751.876c.005.122.019.243.019.366ZM17.729,31.53l1.751-.876v2.109a7.956,7.956,0,0,0,2.971,6.2H20.792l-1.074-1.342A9.2,9.2,0,0,1,17.71,31.9c0-.123.014-.244.019-.366Zm9.721,7.432a6.206,6.206,0,0,1-6.2-6.2V30.107h12.4v2.656A6.206,6.206,0,0,1,27.45,38.962Zm-7.969,1.771H35.42v8.855H19.481Zm15.262-12.4H20.157l-2.082,1.04a9.165,9.165,0,0,1,2.633-4.261l5.8-5.269a1.44,1.44,0,0,1,1.891,0l5.8,5.269a9.165,9.165,0,0,1,2.633,4.261ZM19.481,9.74a7.913,7.913,0,0,1,.465-2.656h3.362a12.517,12.517,0,0,0,0,5.313H19.946a7.913,7.913,0,0,1-.465-2.656ZM27.45,2.482l.84,1.261a10.806,10.806,0,0,1,.863,1.57H25.747a10.806,10.806,0,0,1,.863-1.57Zm2.319,4.6a10.627,10.627,0,0,1,0,5.313H25.13a10.641,10.641,0,0,1,0-5.313ZM27.45,17l-.84-1.261a10.938,10.938,0,0,1-.863-1.57h3.407a10.806,10.806,0,0,1-.863,1.57Zm-3.621-2.831a12.591,12.591,0,0,0,1.307,2.553l.519.777a7.987,7.987,0,0,1-4.827-3.33Zm5.417,3.33.519-.777a12.591,12.591,0,0,0,1.307-2.553h3A7.989,7.989,0,0,1,29.246,17.5ZM35.42,9.74a7.913,7.913,0,0,1-.465,2.656H31.593a12.517,12.517,0,0,0,0-5.313h3.362A7.913,7.913,0,0,1,35.42,9.74ZM34.072,5.313h-3A12.591,12.591,0,0,0,29.764,2.76l-.519-.777A7.984,7.984,0,0,1,34.072,5.313Zm-8.417-3.33-.519.777a12.632,12.632,0,0,0-1.306,2.553h-3A7.985,7.985,0,0,1,25.654,1.983ZM3.542,23.908a.886.886,0,0,1,.885-.885H7.969a.886.886,0,0,1,.885.885v4.427H3.542Zm-1.771,6.2h8.855v7.084l-8.855,0Zm5.8,8.855h3.055A1.773,1.773,0,0,0,12.4,37.191V30.107a1.773,1.773,0,0,0-1.771-1.771V23.908a2.66,2.66,0,0,0-2.656-2.656H6.79A22.074,22.074,0,0,1,17.731,9.332c-.006.136-.021.27-.021.408a9.753,9.753,0,0,0,7,9.342l-5.2,4.722a10.937,10.937,0,0,0-1.183,14.921l.348.435a1.767,1.767,0,0,0-.972,1.572v2.242l-3.476,2.9a5.085,5.085,0,0,0-.615.62,22.194,22.194,0,0,1-6.047-7.529Zm6.6,10.831a3.332,3.332,0,0,1,1.2-2.563L17.71,45.28v6.079a3.506,3.506,0,0,0,.492,1.771h-.7a3.34,3.34,0,0,1-3.336-3.337Zm7.084,3.337a1.773,1.773,0,0,1-1.771-1.771H35.42a1.773,1.773,0,0,1-1.771,1.771Zm16.144,0h-.7a3.5,3.5,0,0,0,.493-1.771V45.28l2.342,1.951a3.337,3.337,0,0,1-2.137,5.9Zm3.886-6.639a5.1,5.1,0,0,0-.616-.621l-3.476-2.9V40.733a1.766,1.766,0,0,0-.973-1.572l.349-.436A10.935,10.935,0,0,0,35.383,23.8l-5.2-4.722a9.753,9.753,0,0,0,7-9.342c0-.138-.015-.273-.02-.409A22.136,22.136,0,0,1,48.708,23.024H48.7a4.408,4.408,0,0,0-2.852,7.785,6.2,6.2,0,0,0-3.346,5.5v2.656h4.826a22.184,22.184,0,0,1-6.047,7.529Zm11.847-9.3H44.275v-.885a4.427,4.427,0,0,1,8.855,0Z" transform="translate(0 0)"/>
    </g>
  </g>
</svg>
