<svg xmlns="http://www.w3.org/2000/svg" xmlns:xlink="http://www.w3.org/1999/xlink" width="96" height="96" viewBox="0 0 96 96">
  <defs>
    <clipPath id="clip-path">
      <rect id="Rectángulo_45232" data-name="Rectángulo 45232" width="96" height="96" transform="translate(620.089 12037.089)" fill="#2ff980"/>
    </clipPath>
  </defs>
  <g id="Enmascarar_grupo_132" data-name="Enmascarar grupo 132" transform="translate(-620.089 -12037.089)" clip-path="url(#clip-path)">
    <g id="confianza" transform="translate(622.698 12037)">
      <path id="Trazado_656091" data-name="Trazado 656091" d="M77.271,37.56q-.962.572-1.97,1.095a.937.937,0,0,1-.857,0c-8.471-4.375-14.557-11.431-15.836-21A37.738,37.738,0,0,0,7.385,66.022l3.939-3.939a1.353,1.353,0,0,1,1.914,0L34.289,83.134a1.353,1.353,0,0,1,0,1.914l-2.78,2.78a37.89,37.89,0,0,0,21.537,0l-2.78-2.78a1.353,1.353,0,0,1,0-1.914L71.316,62.083a1.353,1.353,0,0,1,1.914,0l3.939,3.939a37.823,37.823,0,0,0,.1-28.462Z" transform="translate(-2.104 1.819)" fill="#e0feec"/>
      <g id="Grupo_955733" data-name="Grupo 955733" transform="translate(2.451 15.765)">
        <path id="Trazado_656092" data-name="Trazado 656092" d="M11.324,62.083a1.353,1.353,0,0,1,1.914,0l.55.55a37.749,37.749,0,0,1,32.3-48.5A37.742,37.742,0,0,0,4.555,51.668a37.606,37.606,0,0,0,2.83,14.354Z" transform="translate(-4.555 -13.945)" fill="#b6fdd3"/>
      </g>
      <g id="Grupo_955747" data-name="Grupo 955747" transform="translate(1.406 28.915)">
        <path id="Trazado_656093" data-name="Trazado 656093" d="M65.41,58.406l-4.361-4.361-6.013,6.013a11.072,11.072,0,0,1-7.879,3.264h0q-.206,0-.412-.008l-2.679-.1c-.14-.005-.279-.008-.419-.008a11.261,11.261,0,0,0-5.736,1.556L48.482,75.334Z" transform="translate(0.842 -21.864)" fill="#ffe5c2"/>
        <path id="Trazado_656094" data-name="Trazado 656094" d="M54.317,68.423,48.189,62.3a11.2,11.2,0,0,1-1.457.044l-2.679-.1a11.238,11.238,0,0,0-6.081,1.525l10.5,10.5Z" transform="translate(0.85 -20.796)" fill="#fed2a4"/>
        <g id="Grupo_955734" data-name="Grupo 955734" transform="translate(46.359 34.591)">
          <path id="Trazado_656095" data-name="Trazado 656095" d="M52.454,86.956l-7.418-7.418a1.353,1.353,0,0,1,0-1.914L66.087,56.573a1.353,1.353,0,0,1,1.914,0l7.418,7.418a1.353,1.353,0,0,1,0,1.914L54.368,86.956a1.353,1.353,0,0,1-1.914,0Z" transform="translate(-44.639 -56.177)" fill="#462eb4"/>
        </g>
        <g id="Grupo_955735" data-name="Grupo 955735" transform="translate(46.359 34.591)">
          <path id="Trazado_656096" data-name="Trazado 656096" d="M52.917,79.538a1.353,1.353,0,0,1,0-1.914L70.984,59.557,68,56.573a1.353,1.353,0,0,0-1.914,0L45.036,77.624a1.353,1.353,0,0,0,0,1.914l7.418,7.418a1.353,1.353,0,0,0,1.914,0l2.984-2.984Z" transform="translate(-44.639 -56.177)" fill="#342287"/>
        </g>
        <path id="Trazado_656097" data-name="Trazado 656097" d="M71.068,45.314a4.054,4.054,0,0,0-5.829-.1,4.054,4.054,0,1,0-5.733-5.733,4.054,4.054,0,0,0-5.733-5.733,4.054,4.054,0,0,0-5.733-5.733l-34.2,34.2L30.3,78.68l8.536-8.536A11.238,11.238,0,0,1,47.2,66.86l2.679.1a11.239,11.239,0,0,0,8.362-3.284L70.9,51.022a4.123,4.123,0,0,0,.172-5.708Z" transform="translate(-2.298 -25.415)" fill="#d88a55"/>
        <path id="Trazado_656098" data-name="Trazado 656098" d="M26.559,59.232l28.4-28.4a4.052,4.052,0,0,0-6.918-2.818l-34.2,34.2L30.3,78.68l5.2-5.2L26.559,64.54A3.753,3.753,0,0,1,26.559,59.232Z" transform="translate(-2.298 -25.415)" fill="#c57a44"/>
        <g id="Grupo_955743" data-name="Grupo 955743" transform="translate(11.548 0.561)">
          <path id="Trazado_656099" data-name="Trazado 656099" d="M40.769,33.6l-.018.018H37.426a4.969,4.969,0,0,1-4.969-4.969v-.921a2.209,2.209,0,0,1,.5-1.405,4.051,4.051,0,0,0-4.265,6.667L38,42.3a4.137,4.137,0,0,0,5.69.217,4.054,4.054,0,0,0,.132-5.86Z" transform="translate(-12.063 -26.073)" fill="#ffe5c2"/>
          <g id="Grupo_955736" data-name="Grupo 955736" transform="translate(15.444)">
            <path id="Trazado_656100" data-name="Trazado 656100" d="M41.81,40.411l-9.3-9.3a4.053,4.053,0,0,1-.568-5.016,4.053,4.053,0,0,0-3.244,6.9L38,42.3a4.137,4.137,0,0,0,5.69.217,4.068,4.068,0,0,0,.721-.88,4.256,4.256,0,0,1-2.6-1.223Z" transform="translate(-27.507 -26.074)" fill="#fed2a4"/>
          </g>
          <g id="Grupo_955737" data-name="Grupo 955737" transform="translate(9.711 5.732)">
            <path id="Trazado_656101" data-name="Trazado 656101" d="M29.356,32.332a4.054,4.054,0,0,0-5.733,5.733L34.079,48.521a4.054,4.054,0,1,0,5.733-5.733Z" transform="translate(-22.436 -31.144)" fill="#ffe5c2"/>
          </g>
          <g id="Grupo_955738" data-name="Grupo 955738" transform="translate(9.711 5.734)">
            <path id="Trazado_656102" data-name="Trazado 656102" d="M38.009,46.547,27.553,36.091a4.052,4.052,0,0,1-.623-4.921,4.052,4.052,0,0,0-3.306,6.894L34.079,48.521a4.042,4.042,0,0,0,6.356-.811A4.038,4.038,0,0,1,38.009,46.547Z" transform="translate(-22.436 -31.146)" fill="#fed2a4"/>
          </g>
          <g id="Grupo_955739" data-name="Grupo 955739" transform="translate(3.978 11.465)">
            <path id="Trazado_656103" data-name="Trazado 656103" d="M24.285,37.4a4.054,4.054,0,1,0-5.733,5.733l8.585,8.585a4.054,4.054,0,1,0,5.733-5.733Z" transform="translate(-17.364 -36.215)" fill="#ffe5c2"/>
          </g>
          <g id="Grupo_955740" data-name="Grupo 955740" transform="translate(3.978 11.465)">
            <path id="Trazado_656104" data-name="Trazado 656104" d="M30.976,49.827l-8.585-8.585a4.053,4.053,0,0,1-.573-5.007,4.053,4.053,0,0,0-3.267,6.9l8.585,8.585a4.039,4.039,0,0,0,6.3-.726A4.035,4.035,0,0,1,30.976,49.827Z" transform="translate(-17.364 -36.216)" fill="#fed2a4"/>
          </g>
          <g id="Grupo_955741" data-name="Grupo 955741" transform="translate(0 18.952)">
            <path id="Trazado_656105" data-name="Trazado 656105" d="M20.765,44.026a4.054,4.054,0,0,0-5.733,5.733L19.6,54.331A4.054,4.054,0,1,0,25.337,48.6Z" transform="translate(-13.845 -42.839)" fill="#ffe5c2"/>
          </g>
          <g id="Grupo_955742" data-name="Grupo 955742" transform="translate(0 18.954)">
            <path id="Trazado_656106" data-name="Trazado 656106" d="M23.47,52.446,18.9,47.874a4.053,4.053,0,0,1-.57-5.011,4.052,4.052,0,0,0-3.3,6.9L19.6,54.33a4.039,4.039,0,0,0,6.3-.72,4.036,4.036,0,0,1-2.435-1.164Z" transform="translate(-13.845 -42.84)" fill="#fed2a4"/>
          </g>
        </g>
        <g id="Grupo_955744" data-name="Grupo 955744" transform="translate(31.942)">
          <path id="Trazado_656107" data-name="Trazado 656107" d="M41.342,25.578H34.1A2.218,2.218,0,0,0,31.886,27.8v.921a4.969,4.969,0,0,0,4.969,4.969H40.18L45.262,28.6a4.054,4.054,0,0,0-3.92-3.025Z" transform="translate(-31.886 -25.578)" fill="#ffe5c2"/>
        </g>
        <g id="Grupo_955745" data-name="Grupo 955745" transform="translate(0 34.591)">
          <path id="Trazado_656108" data-name="Trazado 656108" d="M34.41,79.538l-7.418,7.418a1.353,1.353,0,0,1-1.914,0L4.027,65.905a1.353,1.353,0,0,1,0-1.914l7.418-7.418a1.353,1.353,0,0,1,1.914,0L34.41,77.624a1.353,1.353,0,0,1,0,1.914Z" transform="translate(-3.63 -56.177)" fill="#97d729"/>
        </g>
        <g id="Grupo_955746" data-name="Grupo 955746" transform="translate(0 34.591)">
          <path id="Trazado_656109" data-name="Trazado 656109" d="M11.745,65.905a1.353,1.353,0,0,1,0-1.914l4.516-4.516-2.9-2.9a1.353,1.353,0,0,0-1.914,0L4.027,63.991a1.353,1.353,0,0,0,0,1.914L25.078,86.956a1.353,1.353,0,0,0,1.914,0l2.9-2.9Z" transform="translate(-3.63 -56.177)" fill="#8bc727"/>
        </g>
      </g>
      <g id="Grupo_955752" data-name="Grupo 955752" transform="translate(56.251 1.408)">
        <g id="Grupo_955748" data-name="Grupo 955748" transform="translate(0)">
          <path id="Trazado_656110" data-name="Trazado 656110" d="M68.663,1.245c-4.9,0-9.519,4.89-13.6,3.56a.938.938,0,0,0-1.163.583,29.808,29.808,0,0,0-1.756,10.106c0,11.529,6.528,19.88,16.089,24.818a.936.936,0,0,0,.857,0c9.561-4.937,16.089-13.289,16.089-24.818A29.808,29.808,0,0,0,83.425,5.388a.938.938,0,0,0-1.163-.583c-4.079,1.33-8.7-3.56-13.6-3.56Z" transform="translate(-52.146 -1.245)" fill="#fed402"/>
        </g>
        <path id="Trazado_656111" data-name="Trazado 656111" d="M64.762,27.553a9.734,9.734,0,0,1-4.541-13.769c-.018-.419-.03-.841-.03-1.268a29.815,29.815,0,0,1,1.482-9.3c-2.32,1.08-4.534,2.012-6.609,1.335a.938.938,0,0,0-1.163.583,29.808,29.808,0,0,0-1.756,10.106c0,11.529,6.528,19.88,16.089,24.818a.937.937,0,0,0,.857,0,35.458,35.458,0,0,0,5.615-3.583A30.463,30.463,0,0,1,64.762,27.553Z" transform="translate(-52.146 -0.988)" fill="#fac600"/>
        <g id="Grupo_955751" data-name="Grupo 955751" transform="translate(6.782 7.908)">
          <g id="Grupo_955749" data-name="Grupo 955749">
            <circle id="Elipse_5644" data-name="Elipse 5644" cx="9.736" cy="9.736" r="9.736" fill="#97d729"/>
          </g>
          <g id="Grupo_955750" data-name="Grupo 955750" transform="translate(0)">
            <path id="Trazado_656112" data-name="Trazado 656112" d="M65.044,17.977A9.738,9.738,0,0,1,71.33,8.871a9.736,9.736,0,1,0,0,18.21A9.738,9.738,0,0,1,65.044,17.977Z" transform="translate(-58.145 -8.241)" fill="#8bc727"/>
          </g>
        </g>
      </g>
      <g id="Grupo_955753" data-name="Grupo 955753" transform="translate(0 0)">
        <path id="Trazado_656113" data-name="Trazado 656113" d="M93.08,15.657A31.184,31.184,0,0,0,91.241,5.074a2.358,2.358,0,0,0-2.923-1.445c-1.685.55-3.806-.443-6.05-1.494C80.13,1.135,77.706,0,75.155,0S70.18,1.135,68.043,2.136c-2.244,1.051-4.364,2.043-6.05,1.494a2.358,2.358,0,0,0-2.923,1.445A31.184,31.184,0,0,0,57.23,15.657c0,.53.018,1.055.044,1.576A39.122,39.122,0,0,0,6.026,67.493L3.193,70.325a2.764,2.764,0,0,0,0,3.9L24.245,95.28a2.761,2.761,0,0,0,3.9,0l4.057-4.057a39.158,39.158,0,0,0,20.708,0l4.057,4.057a2.761,2.761,0,0,0,3.9,0l8.062-8.062a1.408,1.408,0,0,0-1.991-1.99l-8.023,8.023L51.581,85.91,72.556,64.935,79.9,72.277l-8.306,8.306a1.408,1.408,0,0,0,1.991,1.99l8.345-8.345a2.761,2.761,0,0,0,0-3.9l-2.832-2.832a39.078,39.078,0,0,0,.184-27.521c8.93-5.691,13.8-14.213,13.8-24.315ZM26.2,93.251,5.223,72.277l7.341-7.341L33.539,85.91ZM40.7,38.429h2.778L46.1,41.052a2.646,2.646,0,0,1-.088,3.826,2.741,2.741,0,0,1-3.744-.174l-9.3-9.3a2.649,2.649,0,0,1,0-3.742,2.622,2.622,0,0,1,1.37-.723c0,.066-.01.132-.01.2v.921A6.383,6.383,0,0,0,40.7,38.429Zm-3.561-6.376v-.921a.811.811,0,0,1,.81-.81H45.19A2.647,2.647,0,0,1,47.457,31.6l-4.012,4.012H40.7A3.566,3.566,0,0,1,37.142,32.053Zm4.291,15.793a2.646,2.646,0,0,1-.03,3.771,2.658,2.658,0,0,1-3.712-.029L27.234,41.132h0a2.646,2.646,0,0,1,3.742-3.742Zm-7.6,3.861a2.646,2.646,0,0,1-.03,3.771,2.658,2.658,0,0,1-3.712-.029l-6.83-6.83L21.5,46.865a2.646,2.646,0,0,1,3.742-3.743h0Zm-12.565-1.1,4.575,4.575a2.646,2.646,0,0,1-.031,3.77,2.658,2.658,0,0,1-3.712-.029l-4.572-4.572a2.646,2.646,0,0,1,3.74-3.744Zm2.7,11.9a5.443,5.443,0,0,0,5.309-4.172,5.491,5.491,0,0,0,6.482-.832,5.417,5.417,0,0,0,1.549-2.814,5.506,5.506,0,0,0,2.256.483,5.457,5.457,0,0,0,5.283-6.835,5.354,5.354,0,0,0,3.071-1.379,5.461,5.461,0,0,0,.177-7.893L46.036,37l4.493-4.493a2.646,2.646,0,0,1,3.746,3.739l0,0a1.408,1.408,0,0,0,1.991,1.99,2.646,2.646,0,0,1,3.745,3.739l0,0h0a1.407,1.407,0,0,0,1.99,1.99,2.646,2.646,0,1,1,3.742,3.742,1.407,1.407,0,0,0,1.99,1.99,2.646,2.646,0,0,1,3.806.066,2.723,2.723,0,0,1-.139,3.751l-10.1,10.1a1.408,1.408,0,0,0,1.991,1.99l2.464-2.463,2.3,2.3L53.116,80.394l-8.078-8.078a9.813,9.813,0,0,1,3.607-.55l2.679.1a12.614,12.614,0,0,0,6.741-1.659,1.408,1.408,0,0,0-1.4-2.444,9.821,9.821,0,0,1-5.24,1.29l-2.679-.1a12.678,12.678,0,0,0-9.409,3.695L31.8,80.189,17.325,65.715l3.927-3.927a5.484,5.484,0,0,0,2.715.716ZM42.56,89.8a36.248,36.248,0,0,1-8.031-.9l1.038-1.038a2.761,2.761,0,0,0,0-3.9L33.79,82.18l7.541-7.541a9.742,9.742,0,0,1,1.1-.947l8.693,8.693-1.573,1.573a2.764,2.764,0,0,0,0,3.9L50.591,88.9a36.24,36.24,0,0,1-8.031.9ZM78.875,53.487A36.154,36.154,0,0,1,76.9,65.3l-2.393-2.393a2.761,2.761,0,0,0-3.9,0l-.56.56-2.3-2.3,5.646-5.646a5.56,5.56,0,0,0,.2-7.665,5.42,5.42,0,0,0-3.9-1.732q-.187,0-.373.006a5.457,5.457,0,0,0-5.452-5.74q-.141,0-.281.007a5.454,5.454,0,0,0-5.733-5.73,5.458,5.458,0,0,0-8.283-4.95,5.459,5.459,0,0,0-4.379-2.206H37.953a3.6,3.6,0,0,0-2.086.665,5.448,5.448,0,0,0-6.479,5.635c-.093,0-.187-.007-.282-.007a5.462,5.462,0,0,0-5.461,5.461c0,.094,0,.188.007.282a5.463,5.463,0,0,0-5.309,7.582,5.459,5.459,0,0,0-2.809,9.219l3.592,3.592-3.79,3.79-.818-.818a2.76,2.76,0,0,0-3.9,0L8.22,65.3a36.307,36.307,0,0,1,49.4-44.853c1.476,9.042,7.191,16.489,16.465,21.278a2.344,2.344,0,0,0,2.149,0c.2-.1.387-.206.58-.31a36.162,36.162,0,0,1,2.065,12.072Zm-3.72-14.377a29.47,29.47,0,0,1-10.9-9.366,24.525,24.525,0,0,1-4.215-14.088,28.377,28.377,0,0,1,1.53-9.222c2.591.625,5.166-.581,7.661-1.749,1.964-.919,3.994-1.87,5.919-1.87s3.955.951,5.918,1.87c2.5,1.169,5.071,2.375,7.661,1.749a28.382,28.382,0,0,1,1.53,9.222A24.525,24.525,0,0,1,86.05,29.744,29.471,29.471,0,0,1,75.155,39.111Z" transform="translate(-2.386 0)"/>
        <path id="Trazado_656114" data-name="Trazado 656114" d="M77.757,16.571a1.408,1.408,0,0,0,.923-1.764,11.147,11.147,0,1,0-.308,7.518,1.408,1.408,0,0,0-2.609-1.058,8.326,8.326,0,1,1,.23-5.619,1.408,1.408,0,0,0,1.764.923Z" transform="translate(4.725 0.913)"/>
        <path id="Trazado_656115" data-name="Trazado 656115" d="M71.148,13.873,66.8,18.22l-3.03-3.03a1.408,1.408,0,0,0-1.991,1.99l4.025,4.025a1.408,1.408,0,0,0,1.991,0l5.342-5.342a1.408,1.408,0,0,0-1.991-1.99Z" transform="translate(5.308 1.756)"/>
      </g>
    </g>
  </g>
</svg>
