<svg xmlns="http://www.w3.org/2000/svg" xmlns:xlink="http://www.w3.org/1999/xlink" width="190" height="115" viewBox="0 0 190 115">
  <defs>
    <clipPath id="clip-path">
      <rect id="Rectángulo_45251" data-name="Rectángulo 45251" width="190" height="115" transform="translate(1020 9470)" fill="#2ff980"/>
    </clipPath>
  </defs>
  <g id="Enmascarar_grupo_139" data-name="Enmascarar grupo 139" transform="translate(-1020 -9470)" clip-path="url(#clip-path)">
    <g id="reporte" transform="translate(1002.942 9470)">
      <g id="Grupo_948188" data-name="Grupo 948188" transform="translate(69.771 1.634)">
        <path id="Trazado_633038" data-name="Trazado 633038" d="M147.677,115.758h-65.5a6.535,6.535,0,0,1-6.535-6.535V14.035A6.535,6.535,0,0,1,82.172,7.5h45.2l26.843,26.843v74.88a6.535,6.535,0,0,1-6.535,6.535Z" transform="translate(-75.637 -7.5)" fill="#f7f6f7"/>
        <path id="Trazado_633039" data-name="Trazado 633039" d="M382.9,130.732v74.88a6.535,6.535,0,0,1-6.535,6.535H382.9a6.535,6.535,0,0,0,6.535-6.535v-74.88Z" transform="translate(-310.858 -103.889)" fill="#edebed"/>
        <path id="Trazado_633040" data-name="Trazado 633040" d="M171.645,64.807h-47.5a2.178,2.178,0,0,1-2.178-2.178V54.678a2.178,2.178,0,0,1,2.178-2.178h47.5a2.178,2.178,0,0,1,2.178,2.178v7.951A2.178,2.178,0,0,1,171.645,64.807Z" transform="translate(-111.875 -42.698)" fill="#d3ced4"/>
        <path id="Trazado_633041" data-name="Trazado 633041" d="M339.974,64.343H319.666a6.535,6.535,0,0,1-6.535-6.535V37.5Z" transform="translate(-261.4 -30.965)" fill="#edebed"/>
        <path id="Trazado_633042" data-name="Trazado 633042" d="M339.974,34.343H319.666a6.535,6.535,0,0,1-6.535-6.535V7.5Z" transform="translate(-261.4 -7.5)" fill="#c4bcc6"/>
        <path id="Trazado_633043" data-name="Trazado 633043" d="M135.254,174.562H123.492a1.525,1.525,0,0,1-1.525-1.525V161.275a1.525,1.525,0,0,1,1.525-1.525h11.762a1.525,1.525,0,0,1,1.525,1.525v11.762A1.525,1.525,0,0,1,135.254,174.562Z" transform="translate(-111.875 -126.587)" fill="#b3e59f"/>
        <path id="Trazado_633044" data-name="Trazado 633044" d="M159.5,159.75h-6.535a1.525,1.525,0,0,1,1.525,1.525v11.762a1.525,1.525,0,0,1-1.525,1.525H159.5a1.525,1.525,0,0,0,1.525-1.525V161.275A1.525,1.525,0,0,0,159.5,159.75Z" transform="translate(-136.123 -126.587)" fill="#95d6a4"/>
        <path id="Trazado_633045" data-name="Trazado 633045" d="M135.254,287.562H123.492a1.525,1.525,0,0,1-1.525-1.525V274.275a1.525,1.525,0,0,1,1.525-1.525h11.762a1.525,1.525,0,0,1,1.525,1.525v11.762A1.525,1.525,0,0,1,135.254,287.562Z" transform="translate(-111.875 -214.973)" fill="#ff8086"/>
        <path id="Trazado_633046" data-name="Trazado 633046" d="M159.5,272.75h-6.535a1.525,1.525,0,0,1,1.525,1.525v11.762a1.525,1.525,0,0,1-1.525,1.525H159.5a1.525,1.525,0,0,0,1.525-1.525V274.275A1.525,1.525,0,0,0,159.5,272.75Z" transform="translate(-136.123 -214.973)" fill="#e5646e"/>
        <path id="Trazado_633047" data-name="Trazado 633047" d="M135.254,400.562H123.492a1.525,1.525,0,0,1-1.525-1.525V387.275a1.525,1.525,0,0,1,1.525-1.525h11.762a1.525,1.525,0,0,1,1.525,1.525v11.762A1.525,1.525,0,0,1,135.254,400.562Z" transform="translate(-111.875 -303.359)" fill="#ffe07d"/>
        <path id="Trazado_633048" data-name="Trazado 633048" d="M159.5,385.75h-6.535a1.525,1.525,0,0,1,1.525,1.525v11.762a1.525,1.525,0,0,1-1.525,1.525H159.5a1.525,1.525,0,0,0,1.525-1.525V387.275A1.525,1.525,0,0,0,159.5,385.75Z" transform="translate(-136.123 -303.359)" fill="#ffd064"/>
      </g>
      <path id="Trazado_633049" data-name="Trazado 633049" d="M137.391,64.312H104.476a1.634,1.634,0,1,0,0,3.267h32.914a1.634,1.634,0,0,0,0-3.267Zm0,24.614H104.476a1.634,1.634,0,1,0,0,3.267h32.914a1.634,1.634,0,0,0,0-3.267Zm0-6.535H104.476a1.634,1.634,0,1,0,0,3.267h32.914a1.634,1.634,0,1,0,0-3.267Zm0-24.614H104.476a1.634,1.634,0,1,0,0,3.267h32.914a1.634,1.634,0,0,0,0-3.267Zm10.954,5.874a1.634,1.634,0,0,0,1.634-1.634V28.476a1.658,1.658,0,0,0-.478-1.155L122.658.479A1.637,1.637,0,0,0,121.5,0h-45.2a8.177,8.177,0,0,0-8.168,8.168v95.188a8.177,8.177,0,0,0,8.168,8.168h65.505a8.177,8.177,0,0,0,8.168-8.168V69.641a1.634,1.634,0,0,0-3.267,0v33.716a4.907,4.907,0,0,1-4.9,4.9H76.305a4.907,4.907,0,0,1-4.9-4.9V8.168a4.907,4.907,0,0,1,4.9-4.9h43.563V9.8H82.041a3.816,3.816,0,0,0-3.812,3.812v7.951a3.816,3.816,0,0,0,3.812,3.812H114.2a1.634,1.634,0,1,0,0-3.267H82.041a.545.545,0,0,1-.545-.545V13.614a.545.545,0,0,1,.545-.545h37.827v8.872a8.177,8.177,0,0,0,8.168,8.168h18.674V62.017A1.634,1.634,0,0,0,148.345,63.651ZM128.037,26.843a4.907,4.907,0,0,1-4.9-4.9V5.578L144.4,26.842H128.037ZM93.15,82.391H81.387a3.162,3.162,0,0,0-3.158,3.158V97.312a3.162,3.162,0,0,0,3.158,3.158H93.15a3.162,3.162,0,0,0,3.158-3.158V85.55A3.162,3.162,0,0,0,93.15,82.391ZM93.041,97.2H81.5V85.659H93.041Zm3.267-60.881a3.162,3.162,0,0,0-3.158-3.158H81.387a3.162,3.162,0,0,0-3.158,3.158V48.084a3.162,3.162,0,0,0,3.158,3.158H93.15a3.162,3.162,0,0,0,3.158-3.158ZM93.041,47.975H81.5V36.431H93.041Zm44.35-14.812H104.476a1.634,1.634,0,1,0,0,3.267h32.914a1.634,1.634,0,0,0,0-3.267Zm0,6.535H104.476a1.634,1.634,0,1,0,0,3.267h32.914a1.634,1.634,0,0,0,0-3.267ZM96.308,60.936a3.162,3.162,0,0,0-3.158-3.158H81.387a3.162,3.162,0,0,0-3.158,3.158V72.7a3.162,3.162,0,0,0,3.158,3.158H93.15A3.162,3.162,0,0,0,96.308,72.7ZM93.041,72.589H81.5V61.045H93.041Z" transform="translate(0)"/>
    </g>
  </g>
</svg>
