<svg xmlns="http://www.w3.org/2000/svg" xmlns:xlink="http://www.w3.org/1999/xlink" width="190" height="115" viewBox="0 0 190 115">
  <defs>
    <clipPath id="clip-path">
      <rect id="Rectángulo_34137" data-name="Rectángulo 34137" width="190" height="115" transform="translate(1020 9470)" fill="#2ff980"/>
    </clipPath>
  </defs>
  <g id="Enmascarar_grupo_117" data-name="Enmascarar grupo 117" transform="translate(-1020 -9470)" clip-path="url(#clip-path)">
    <g id="proteger" transform="translate(934.414 9105.462)">
      <path id="Trazado_633845" data-name="Trazado 633845" d="M186.65,474.752l-4.993,2.624a2.748,2.748,0,0,1-2.552,0l-4.992-2.624c-27.415-14.409-44.3-41-44.3-69.771v-17.57a2.729,2.729,0,0,1,2.419-2.724c9.449-1,16.962-7.762,18.16-16.318a2.76,2.76,0,0,1,2.722-2.4h54.531a2.76,2.76,0,0,1,2.722,2.4c1.2,8.556,8.711,15.321,18.16,16.318a2.729,2.729,0,0,1,2.419,2.724v17.575C230.947,433.755,214.066,460.345,186.65,474.752Z" transform="translate(0.208 0.207)" fill="#e1e6e9"/>
      <path id="Trazado_633846" data-name="Trazado 633846" d="M222.221,384.686c-9.45-1-16.962-7.762-18.16-16.318a2.76,2.76,0,0,0-2.722-2.4h-3.713c.535,11.862,8.988,20.275,18.132,21.24a2.728,2.728,0,0,1,2.419,2.724V407.5c0,28.771-16.882,55.361-44.3,69.771l-.572.3a2.737,2.737,0,0,0,2.045-.2l4.993-2.624c27.415-14.409,44.3-41,44.3-69.771V387.41A2.73,2.73,0,0,0,222.221,384.686Z" transform="translate(6.511 0.207)" fill="#cbcbcb"/>
      <path id="Trazado_633847" data-name="Trazado 633847" d="M177.513,466.747a78.543,78.543,0,0,1-29.9-27.158,68.048,68.048,0,0,1-10.773-36.479v-9.976a3.522,3.522,0,0,1,2.217-3.277,30.915,30.915,0,0,0,16.624-15.278,3.515,3.515,0,0,1,3.177-1.992h41.014a3.516,3.516,0,0,1,3.177,1.992,30.907,30.907,0,0,0,16.624,15.278,3.523,3.523,0,0,1,2.219,3.278v9.976a68.047,68.047,0,0,1-10.773,36.479,78.562,78.562,0,0,1-29.9,27.158l-.207.109a3.528,3.528,0,0,1-3.287,0Z" transform="translate(1.226 1.167)" fill="#2ff980"/>
      <path id="Trazado_633848" data-name="Trazado 633848" d="M214.289,389.858l-.173-.071-.287-.114q-.246-.1-.488-.206l-.279-.122c-.173-.076-.345-.155-.515-.235l-.229-.108q-.369-.175-.734-.358l-.054-.029q-.337-.17-.669-.349l-.229-.128q-.24-.132-.48-.268l-.263-.152c-.153-.087-.3-.176-.448-.266l-.258-.158c-.156-.1-.309-.193-.458-.292l-.229-.144c-.21-.137-.417-.276-.623-.418l-.046-.031q-.331-.228-.655-.466l-.2-.15q-.223-.165-.443-.334l-.229-.183c-.135-.105-.27-.213-.4-.322l-.229-.19q-.206-.168-.406-.344l-.207-.177c-.167-.144-.331-.292-.493-.441l-.1-.092q-.294-.268-.572-.545l-.163-.16c-.135-.133-.269-.266-.4-.4l-.2-.208q-.179-.184-.353-.372l-.2-.22q-.175-.191-.343-.386l-.185-.211c-.134-.155-.266-.311-.4-.468l-.114-.136c-.167-.2-.332-.409-.493-.617l-.123-.16q-.18-.228-.355-.471c-.056-.076-.114-.152-.166-.229-.1-.139-.2-.278-.3-.419l-.169-.246q-.144-.211-.284-.426c-.053-.079-.1-.158-.156-.238-.1-.163-.206-.325-.307-.49-.037-.061-.076-.114-.114-.181-.136-.224-.269-.45-.4-.679-.027-.048-.054-.1-.08-.145q-.153-.271-.3-.546c-.044-.081-.085-.163-.127-.244q-.115-.228-.236-.458c-.045-.088-.088-.177-.131-.267-.033-.068-.068-.135-.1-.2a3.516,3.516,0,0,0-3.177-1.992H173.98v94.673a3.527,3.527,0,0,0,1.643-.405l.207-.109a78.543,78.543,0,0,0,29.9-27.158,68.047,68.047,0,0,0,10.773-36.479v-9.979A3.522,3.522,0,0,0,214.289,389.858Z" transform="translate(6.609 1.167)" fill="#25c766"/>
      <path id="Trazado_633849" data-name="Trazado 633849" d="M214.289,389.858l-.173-.071-.287-.114q-.246-.1-.488-.206l-.279-.122c-.173-.076-.345-.155-.515-.235l-.229-.108q-.369-.175-.734-.358l-.054-.029q-.337-.17-.669-.349l-.229-.128q-.24-.132-.48-.268l-.263-.152c-.153-.087-.3-.176-.448-.266l-.258-.158c-.156-.1-.309-.193-.458-.292l-.229-.144c-.21-.137-.417-.276-.623-.418l-.046-.031q-.331-.228-.655-.466l-.2-.15q-.223-.165-.443-.334l-.229-.183c-.135-.105-.27-.213-.4-.322l-.229-.19q-.206-.168-.406-.344l-.207-.177c-.167-.144-.331-.292-.493-.441l-.1-.092q-.294-.268-.572-.545l-.163-.16c-.135-.133-.269-.266-.4-.4l-.2-.208q-.179-.184-.353-.372l-.2-.22q-.175-.191-.343-.386l-.185-.211c-.134-.155-.266-.311-.4-.468l-.114-.136c-.167-.2-.332-.409-.493-.617l-.123-.16q-.18-.228-.355-.471c-.056-.076-.114-.152-.166-.229-.1-.139-.2-.278-.3-.419l-.169-.246q-.144-.211-.284-.426c-.053-.079-.1-.158-.156-.238-.1-.163-.206-.325-.307-.49-.037-.061-.076-.114-.114-.181-.136-.224-.269-.45-.4-.679-.027-.048-.054-.1-.08-.145q-.153-.271-.3-.546c-.044-.081-.085-.163-.127-.244q-.115-.228-.236-.458c-.045-.088-.088-.177-.131-.267-.033-.068-.068-.135-.1-.2a3.516,3.516,0,0,0-3.177-1.992h-5.675a31.552,31.552,0,0,1,2.495,3.763c.038.065.066.135.1.2l.131.267c.076.152.155.306.236.458l.127.244q.146.275.3.546c.027.048.053.1.08.145q.194.343.4.679c.037.061.074.12.114.181.1.165.2.327.307.49.052.08.1.158.156.238.094.143.188.285.284.426l.169.246q.146.211.3.419c.055.077.115.152.166.229.114.158.235.315.355.471.041.054.081.108.122.16.161.208.326.413.493.617l.114.136c.131.157.262.314.4.468.061.071.124.141.185.211l.343.386.2.22c.117.126.234.25.353.372l.2.208q.2.2.4.4l.163.16c.19.184.38.366.572.545l.1.092c.163.149.326.3.493.441l.207.177q.2.173.406.344l.229.19c.133.109.268.216.4.322l.229.183q.22.17.443.334l.2.15q.323.237.655.466l.046.031c.2.142.412.281.623.418l.229.144q.228.148.458.292l.258.158q.222.136.448.266l.263.152q.237.137.48.268l.229.128q.331.179.669.349l.054.029q.362.185.733.358l.229.108c.172.079.343.158.515.235l.279.123q.242.106.488.206l.287.114.173.071a3.523,3.523,0,0,1,2.219,3.278v9.976a68.048,68.048,0,0,1-10.773,36.479,83.809,83.809,0,0,1-25.4,25.807v.093a3.527,3.527,0,0,0,1.643-.405l.207-.109a78.543,78.543,0,0,0,29.9-27.158,68.047,68.047,0,0,0,10.773-36.479v-9.976A3.522,3.522,0,0,0,214.289,389.858Z" transform="translate(6.609 1.167)" fill="#1e9690"/>
      <path id="Trazado_633850" data-name="Trazado 633850" d="M195.535,432.215H158.17a3.568,3.568,0,0,1-3.569-3.569h0V405.214a3.569,3.569,0,0,1,3.569-3.569h37.366a3.569,3.569,0,0,1,3.569,3.569h0v23.433a3.569,3.569,0,0,1-3.57,3.568Z" transform="translate(3.8 5.378)" fill="#636a75"/>
      <path id="Trazado_633851" data-name="Trazado 633851" d="M191.17,401.645h-6.455a3.569,3.569,0,0,1,3.569,3.569h0v23.433a3.569,3.569,0,0,1-3.569,3.569h6.461a3.569,3.569,0,0,0,3.569-3.569h0V405.214a3.569,3.569,0,0,0-3.569-3.569Z" transform="translate(8.165 5.378)" fill="#515a66"/>
      <path id="Trazado_633852" data-name="Trazado 633852" d="M172.883,417.4v4.66a1.637,1.637,0,1,0,3.273.087V417.4a3.833,3.833,0,1,0-3.273,0Z" transform="translate(6.131 6.603)"/>
      <path id="Trazado_633853" data-name="Trazado 633853" d="M176.959,468.4h0l.206.109a5.168,5.168,0,0,0,4.809,0l.207-.115A80.2,80.2,0,0,0,212.7,440.67a69.688,69.688,0,0,0,11.027-37.357v-9.969a5.13,5.13,0,0,0-3.254-4.8,29.1,29.1,0,0,1-15.744-14.464,5.172,5.172,0,0,0-4.656-2.926H159.063a5.171,5.171,0,0,0-4.655,2.926,29.1,29.1,0,0,1-15.747,14.464,5.128,5.128,0,0,0-3.253,4.8v9.976a69.678,69.678,0,0,0,11.027,37.356A80.189,80.189,0,0,0,176.959,468.4Zm-38.277-65.086v-9.975a1.871,1.871,0,0,1,1.184-1.756,32.364,32.364,0,0,0,17.5-16.1,1.882,1.882,0,0,1,1.7-1.059h41.014a1.885,1.885,0,0,1,1.7,1.059,32.362,32.362,0,0,0,17.5,16.1,1.874,1.874,0,0,1,1.184,1.756v9.976a66.425,66.425,0,0,1-10.517,35.607,76.913,76.913,0,0,1-29.285,26.58l-.207.109a1.893,1.893,0,0,1-1.764,0l-.206-.109A76.919,76.919,0,0,1,149.2,438.921,66.41,66.41,0,0,1,138.681,403.319Z" transform="translate(1.018 0.959)"/>
      <path id="Trazado_633854" data-name="Trazado 633854" d="M229.478,412.826a1.636,1.636,0,0,0-1.957,1.235h0c-4.985,22.051-20.166,41.175-41.65,52.468l-4.993,2.628a1.108,1.108,0,0,1-1.03,0l-4.993-2.624c-21.519-11.311-36.708-30.467-41.676-52.558a1.636,1.636,0,1,0-3.193.718c5.174,23.029,20.972,42.981,43.341,54.738l4.993,2.624a4.376,4.376,0,0,0,4.075,0l4.993-2.624c22.334-11.739,38.126-31.656,43.321-54.643a1.637,1.637,0,0,0-1.231-1.961Z" transform="translate(0.227 6.98)"/>
      <path id="Trazado_633855" data-name="Trazado 633855" d="M228.908,383.266c-8.739-.922-15.611-7.056-16.716-14.917a4.422,4.422,0,0,0-4.337-3.81H153.323a4.42,4.42,0,0,0-4.342,3.81c-1.1,7.861-7.972,13.995-16.716,14.917a4.351,4.351,0,0,0-3.885,4.351v17.575a74.954,74.954,0,0,0,.394,7.671,1.637,1.637,0,0,0,1.626,1.469,1.677,1.677,0,0,0,.169-.009,1.636,1.636,0,0,0,1.461-1.794h0a71.734,71.734,0,0,1-.377-7.339V387.616a1.1,1.1,0,0,1,.955-1.1c10.241-1.08,18.305-8.366,19.61-17.718a1.119,1.119,0,0,1,1.1-.99h54.534a1.12,1.12,0,0,1,1.1.99c1.313,9.352,9.372,16.638,19.609,17.719a1.1,1.1,0,0,1,.955,1.1v17.575a72.245,72.245,0,0,1-.369,7.263,1.637,1.637,0,0,0,3.256.331,75.792,75.792,0,0,0,.385-7.594V387.616A4.352,4.352,0,0,0,228.908,383.266Z"/>
      <path id="Trazado_633856" data-name="Trazado 633856" d="M195.742,437.055a5.211,5.211,0,0,0,5.2-5.2V408.417a5.212,5.212,0,0,0-5.2-5.2h-2.691V395.4a15.992,15.992,0,0,0-31.984,0v7.812h-2.691a5.21,5.21,0,0,0-5.2,5.2v23.433a5.21,5.21,0,0,0,5.2,5.2ZM164.34,395.4a12.719,12.719,0,0,1,25.437,0v7.812H164.34Zm-7.9,36.45V408.417a1.934,1.934,0,0,1,1.932-1.931h37.366a1.934,1.934,0,0,1,1.931,1.931v23.433a1.934,1.934,0,0,1-1.931,1.931H158.376a1.934,1.934,0,0,1-1.932-1.931Z" transform="translate(3.593 2.175)"/>
    </g>
  </g>
</svg>
