<svg xmlns="http://www.w3.org/2000/svg" xmlns:xlink="http://www.w3.org/1999/xlink" width="190" height="115" viewBox="0 0 190 115">
  <defs>
    <clipPath id="clip-path">
      <rect id="Rectángulo_45252" data-name="Rectángulo 45252" width="190" height="115" transform="translate(1020 9470)" fill="#2ff980"/>
    </clipPath>
  </defs>
  <g id="Enmascarar_grupo_140" data-name="Enmascarar grupo 140" transform="translate(-1020 -9470)" clip-path="url(#clip-path)">
    <g id="vigilancia" transform="translate(1043.108 9454)">
      <path id="Trazado_632992" data-name="Trazado 632992" d="M80,27.833A3.833,3.833,0,0,1,83.833,24h90.083a3.833,3.833,0,0,1,3.833,3.833v63.25a3.833,3.833,0,0,1-3.833,3.833H80Z" transform="translate(-48.667 -6.083)" fill="#fff"/>
      <path id="Trazado_632993" data-name="Trazado 632993" d="M332.75,376.917,344.25,352H315.5L304,376.917Z" transform="translate(-219 -255.5)" fill="#8be0e8"/>
      <path id="Trazado_632994" data-name="Trazado 632994" d="M240,456h44.083v3.833a3.833,3.833,0,0,1-3.833,3.833H243.833A3.833,3.833,0,0,1,240,459.833Z" transform="translate(-170.333 -334.584)" fill="#548aff"/>
      <path id="Trazado_632995" data-name="Trazado 632995" d="M64,280H77.184v17.25H64Z" transform="translate(-36.5 -200.75)" fill="#ffceb6"/>
      <path id="Trazado_632996" data-name="Trazado 632996" d="M105.583,240v15.1a4.066,4.066,0,0,1-6.941,2.875L96,255.333V240Z" transform="translate(-60.833 -170.333)" fill="#ffceb6"/>
      <path id="Trazado_632997" data-name="Trazado 632997" d="M45.75,237.083l-4.467-7.445A9.005,9.005,0,0,1,40,225.006h0A9.006,9.006,0,0,1,49.006,216H63a3.833,3.833,0,0,1,0,7.667H57.25l-3.833,5.75v7.667Z" transform="translate(-18.25 -152.083)" fill="#c47220"/>
      <path id="Trazado_632998" data-name="Trazado 632998" d="M83.417,368.583H67.664a7.667,7.667,0,0,1-5.7-2.538l-7.3-8.11v16.4H24V347.5A11.5,11.5,0,0,1,35.5,336H48.309a13.417,13.417,0,0,1,10.384,4.921l13.224,16.163h11.5Z" transform="translate(-6.083 -243.333)" fill="#ffb401"/>
      <path id="Trazado_632999" data-name="Trazado 632999" d="M272,429.417v-11.5h3.833L283.5,416l8.541,5.125a2.146,2.146,0,0,1-1.525,3.945l-7.016-1.4-6.644,4.983a3.833,3.833,0,0,1-2.3.767Z" transform="translate(-194.667 -304.167)" fill="#ffceb6"/>
      <path id="Trazado_633000" data-name="Trazado 633000" d="M353.25,463.667H339.833A3.833,3.833,0,0,1,336,459.833V456h21.083v3.833A3.833,3.833,0,0,1,353.25,463.667Z" transform="translate(-243.333 -334.584)" fill="#4367e0"/>
      <path id="Trazado_633001" data-name="Trazado 633001" d="M192,248h11.5v9.583H192Z" transform="translate(-133.833 -176.417)" fill="#ffa100"/>
      <path id="Trazado_633002" data-name="Trazado 633002" d="M240,216h11.5v17.25H240Z" transform="translate(-170.333 -152.083)" fill="#ffb401"/>
      <path id="Trazado_633003" data-name="Trazado 633003" d="M288,176h11.5v26.833H288Z" transform="translate(-206.833 -121.667)" fill="#ffc431"/>
      <path id="Trazado_633004" data-name="Trazado 633004" d="M336,136h11.5v36.417H336Z" transform="translate(-243.333 -91.25)" fill="#ffcc4d"/>
      <path id="Trazado_633005" data-name="Trazado 633005" d="M384,104h11.5v44.083H384Z" transform="translate(-279.833 -66.917)" fill="#ffd873"/>
      <g id="Grupo_948176" data-name="Grupo 948176" transform="translate(55.893 25.568)">
        <circle id="Elipse_5351" data-name="Elipse 5351" cx="4.274" cy="4.274" r="4.274" transform="translate(0 25.645)" fill="#c5dafa"/>
        <ellipse id="Elipse_5352" data-name="Elipse 5352" cx="4.274" cy="2.849" rx="4.274" ry="2.849" transform="translate(19.946 14.247)" fill="#c5dafa"/>
        <circle id="Elipse_5353" data-name="Elipse 5353" cx="4.274" cy="4.274" r="4.274" transform="translate(37.043 0)" fill="#c5dafa"/>
      </g>
      <path id="Trazado_633006" data-name="Trazado 633006" d="M125.25,240.583H96.5a1.917,1.917,0,0,0-1.74,1.113L88.144,256.03l-7.214,1.8H66.742L54.093,242.374A15.27,15.27,0,0,0,42.6,236.76v-.327a5.992,5.992,0,0,0,4.066-5.666v-11.6A5.749,5.749,0,0,0,44.75,208H30.756a10.922,10.922,0,0,0-9.366,16.542l4.194,6.989v5.78A13.439,13.439,0,0,0,16,250.167V277h3.833V250.167a9.594,9.594,0,0,1,9.583-9.583H42.226a11.457,11.457,0,0,1,8.9,4.218L64.35,260.964a1.917,1.917,0,0,0,1.483.7h9.583v7.667H61.581a5.759,5.759,0,0,1-4.274-1.9L42.341,250.8l-2.849,2.564,7.175,7.972V277H50.5V265.6l3.958,4.4a9.6,9.6,0,0,0,7.123,3.172h6.5A5.759,5.759,0,0,0,73.5,277h36.417a5.756,5.756,0,0,0,5.75-5.75v-3.412L126.99,243.3a1.917,1.917,0,0,0-1.74-2.72Zm-84.566-7.667a2.136,2.136,0,0,1-1.52-.63l-2.081-2.081v-6.292l2.942-4.414h2.808v11.267a2.152,2.152,0,0,1-2.149,2.149ZM23.667,218.922a7.1,7.1,0,0,1,7.089-7.089H44.75a1.917,1.917,0,0,1,0,3.833H39a1.917,1.917,0,0,0-1.595.853l-3.833,5.75a1.916,1.916,0,0,0-.322,1.063v5.75H28.585l-3.908-6.514A7.091,7.091,0,0,1,23.667,218.922Zm5.75,13.994h4.956L36.454,235a5.956,5.956,0,0,0,2.314,1.438v.314H29.417Zm49.833,28.75h1.917a1.915,1.915,0,0,0,.465-.057l6.9-1.724,7.861,4.717a.229.229,0,0,1-.163.422l-7.016-1.4a1.917,1.917,0,0,0-1.526.346l-6.644,4.983a1.928,1.928,0,0,1-1.15.383H79.25Zm4.089,10.35,3.578-2.683H90.75v1.917a5.722,5.722,0,0,0,.33,1.917H79.889A5.787,5.787,0,0,0,83.339,272.017Zm28.495-.767a1.919,1.919,0,0,1-1.917,1.917H96.5a1.919,1.919,0,0,1-1.917-1.917v-1.917h17.25Zm.69-5.75H100.267a4.015,4.015,0,0,0-1.906-4.185l-6.6-3.963,5.97-12.935h24.528Z" transform="translate(0 -146)"/>
      <path id="Trazado_633007" data-name="Trazado 633007" d="M167.833,16H77.75A5.757,5.757,0,0,0,72,21.75V58.167h3.833V21.75a1.919,1.919,0,0,1,1.917-1.917h90.083a1.919,1.919,0,0,1,1.917,1.917V85a1.919,1.919,0,0,1-1.917,1.917H93.083V90.75h74.75a5.757,5.757,0,0,0,5.75-5.75V21.75a5.757,5.757,0,0,0-5.75-5.75Z" transform="translate(-42.583)"/>
      <circle id="Elipse_5354" data-name="Elipse 5354" cx="1.425" cy="1.425" r="1.425" transform="translate(35.947 22.72)"/>
      <circle id="Elipse_5355" data-name="Elipse 5355" cx="1.425" cy="1.425" r="1.425" transform="translate(41.646 22.72)"/>
      <circle id="Elipse_5356" data-name="Elipse 5356" cx="1.425" cy="1.425" r="1.425" transform="translate(47.344 22.72)"/>
      <path id="Trazado_633008" data-name="Trazado 633008" d="M231.25,96h-11.5a1.917,1.917,0,0,0-1.917,1.917v5.75H208.25a1.917,1.917,0,0,0-1.917,1.917v7.667H196.75a1.917,1.917,0,0,0-1.917,1.917v7.667H185.25a1.917,1.917,0,0,0-1.917,1.917v5.75H173.75a1.917,1.917,0,0,0-1.917,1.917v7.667H168v3.833h69v-3.833h-3.833V97.917A1.917,1.917,0,0,0,231.25,96Zm-55.583,38.333h7.667v5.75h-7.667Zm11.5-7.667h7.667v13.417h-7.667Zm11.5-9.583h7.667v23h-7.667Zm11.5-9.583h7.667v32.583h-7.667Zm19.167,32.583h-7.667V99.833h7.667Z" transform="translate(-115.583 -60.833)"/>
      <path id="Trazado_633009" data-name="Trazado 633009" d="M144,82.495h8a5.749,5.749,0,0,0,10.921-3.589l9.968-7.345a5.748,5.748,0,0,0,9-6.629l8.725-6.429a5.745,5.745,0,0,0,8.646-2.841h11.83V51.828h-11.83a5.749,5.749,0,0,0-10.921,3.589l-9.05,6.669a5.746,5.746,0,0,0-8.346,6.15l-10.293,7.585A5.745,5.745,0,0,0,152,78.661h-8Zm49.833-30.667a1.917,1.917,0,1,1-1.917,1.917A1.917,1.917,0,0,1,193.833,51.828Zm-17.25,13.417a1.917,1.917,0,1,1-1.917,1.917A1.917,1.917,0,0,1,176.583,65.245ZM157.417,78.661a1.917,1.917,0,1,1-1.917,1.917A1.917,1.917,0,0,1,157.417,78.661Z" transform="translate(-97.333 -24.328)"/>
      <path id="Trazado_633010" data-name="Trazado 633010" d="M440,64h3.833v3.833H440Z" transform="translate(-322.417 -36.5)"/>
      <path id="Trazado_633011" data-name="Trazado 633011" d="M112,176h3.833v3.833H112Z" transform="translate(-73 -121.667)"/>
    </g>
  </g>
</svg>
