<svg xmlns="http://www.w3.org/2000/svg" width="343.239" height="276.863" viewBox="0 0 343.239 276.863">
  <g id="Grupo_82341" data-name="Grupo 82341" transform="translate(-326.947 -109.242)">
    <g id="Grupo_82343" data-name="Grupo 82343" transform="translate(391.281 109.242)">
      <g id="Grupo_82342" data-name="Grupo 82342">
        <path id="Trazado_119600" data-name="Trazado 119600" d="M502.317,330.8,378.783,259.476c-4.878-2.816-4.266-7.736,1.366-10.988l70.108-40.477c5.633-3.251,14.154-3.6,19.033-.789l123.532,71.322c4.878,2.816,4.266,7.736-1.366,10.988L521.349,330.01C515.716,333.262,507.2,333.615,502.317,330.8Z" transform="translate(-375.49 -77.988)" fill="#92b4d1" opacity="0.2"/>
        <path id="Trazado_119601" data-name="Trazado 119601" d="M502.317,325.545,378.783,254.223c-2.173-1.255-3.258-2.928-3.292-4.685,0-.056,0-6.063,0-6.119.038-2.136,1.617,1.572,4.658-.184l70.108-40.477c5.633-3.252,14.154-3.6,19.033-.789l123.532,71.322c1.629.94,2.81-3.051,3.232-1.783.14.423.05,6.022.06,6.459.048,2.188-1.532,4.506-4.658,6.311l-70.107,40.476C515.716,328.007,507.2,328.361,502.317,325.545Z" transform="translate(-375.49 -79.697)" fill="#2672ab"/>
        <path id="Trazado_119602" data-name="Trazado 119602" d="M502.317,321.013,378.783,249.691c-4.878-2.816-4.266-7.736,1.366-10.988l70.108-40.477c5.633-3.252,14.154-3.6,19.033-.789l123.532,71.322c4.878,2.816,4.266,7.736-1.366,10.988l-70.107,40.476C515.716,323.475,507.2,323.829,502.317,321.013Z" transform="translate(-375.49 -81.172)" fill="#d1ebff"/>
        <path id="Trazado_119603" data-name="Trazado 119603" d="M471.187,296.414c4.878,2.816,13.4,2.462,19.033-.79v-6.006c-5.634,3.252-14.154,3.606-19.033.79Z" transform="translate(-344.36 -50.567)" fill="#3f92d1" opacity="0.5"/>
        <path id="Trazado_119604" data-name="Trazado 119604" d="M502.317,308.981,378.783,237.659c-2.359-1.362-3.422-3.216-3.267-5.136a2.5,2.5,0,0,0-.025.337c0,.057,0,6.065,0,6.12.034,1.757,1.119,3.43,3.292,4.685l123.534,71.322Z" transform="translate(-375.49 -69.139)" fill="#3f92d1"/>
        <path id="Trazado_119605" data-name="Trazado 119605" d="M591.456,266.745l-70.107,40.477c-5.634,3.252-14.154,3.6-19.032.789L378.783,236.689a5.83,5.83,0,0,1-3.255-4.323c-.254,1.993.811,3.932,3.255,5.344l123.534,71.322c4.878,2.816,13.4,2.462,19.032-.79l70.107-40.476c3.3-1.9,4.858-4.376,4.623-6.665C595.825,263.085,594.267,265.123,591.456,266.745Z" transform="translate(-375.49 -69.191)" fill="#fff"/>
        <path id="Trazado_119606" data-name="Trazado 119606" d="M460.906,280.589l-43.965-25.383c-.88-.509-.77-1.4.246-1.983l16.507-9.53a3.816,3.816,0,0,1,3.435-.142l43.964,25.382c.881.509.77,1.4-.246,1.984l-16.507,9.529A3.817,3.817,0,0,1,460.906,280.589Z" transform="translate(-362.2 -65.664)" fill="#fff" opacity="0.3"/>
        <path id="Trazado_119607" data-name="Trazado 119607" d="M417.185,254.265l16.507-9.53a3.824,3.824,0,0,1,3.435-.142l43.964,25.383a1.326,1.326,0,0,1,.407.357.92.92,0,0,0-.407-1.4l-43.964-25.382a3.816,3.816,0,0,0-3.435.142l-16.507,9.53c-.808.467-1.032,1.121-.652,1.626A1.913,1.913,0,0,1,417.185,254.265Z" transform="translate(-362.198 -65.664)" fill="#a8cff0"/>
        <path id="Trazado_119608" data-name="Trazado 119608" d="M450.6,204.48l7.577,4.373a3.842,3.842,0,0,0,3.478.007,1.06,1.06,0,0,0-.011-2.008l-7.577-4.375a3.845,3.845,0,0,0-3.479-.007A1.061,1.061,0,0,0,450.6,204.48Zm12.972,7.489,3.589,2.073a3.845,3.845,0,0,0,3.479.005,1.06,1.06,0,0,0-.011-2.008l-3.589-2.071a3.845,3.845,0,0,0-3.479-.007A1.06,1.06,0,0,0,463.571,211.97Zm8.986,5.187,3.589,2.073a3.845,3.845,0,0,0,3.479.007,1.061,1.061,0,0,0-.012-2.009l-3.589-2.071a3.842,3.842,0,0,0-3.478-.007A1.06,1.06,0,0,0,472.556,217.157Zm8.984,5.189,3.59,2.071a3.842,3.842,0,0,0,3.478.007,1.061,1.061,0,0,0-.011-2.009l-3.589-2.071a3.845,3.845,0,0,0-3.479-.007A1.061,1.061,0,0,0,481.541,222.345Zm8.986,5.187,3.589,2.071a3.845,3.845,0,0,0,3.479.007,1.06,1.06,0,0,0-.011-2.008l-3.59-2.073a3.842,3.842,0,0,0-3.478-.007A1.061,1.061,0,0,0,490.526,227.533Zm8.986,5.187,3.589,2.073a3.846,3.846,0,0,0,3.477.005,1.06,1.06,0,0,0-.01-2.008l-3.589-2.073a3.849,3.849,0,0,0-3.479-.005A1.06,1.06,0,0,0,499.512,232.72Zm8.984,5.187,3.589,2.073a3.849,3.849,0,0,0,3.479.007,1.061,1.061,0,0,0-.011-2.009l-3.589-2.071a3.845,3.845,0,0,0-3.479-.007A1.06,1.06,0,0,0,508.5,237.907Zm8.986,5.187,3.589,2.073a3.845,3.845,0,0,0,3.479.007,1.061,1.061,0,0,0-.012-2.009l-3.589-2.071a3.842,3.842,0,0,0-3.478-.007A1.06,1.06,0,0,0,517.481,243.094Zm8.986,5.189,3.589,2.071a3.842,3.842,0,0,0,3.478.007,1.06,1.06,0,0,0-.011-2.008l-3.589-2.073a3.845,3.845,0,0,0-3.479-.007A1.061,1.061,0,0,0,526.467,248.283Zm8.984,5.187,3.589,2.071a3.845,3.845,0,0,0,3.479.007,1.06,1.06,0,0,0-.011-2.008l-3.589-2.073a3.845,3.845,0,0,0-3.479-.007A1.061,1.061,0,0,0,535.451,253.47Zm8.986,5.187,3.589,2.073a3.845,3.845,0,0,0,3.479.005,1.06,1.06,0,0,0-.012-2.008l-3.589-2.071a3.842,3.842,0,0,0-3.478-.007A1.06,1.06,0,0,0,544.437,258.657Zm8.984,5.187,3.59,2.073a3.843,3.843,0,0,0,3.478.007,1.061,1.061,0,0,0-.011-2.009l-3.589-2.071a3.845,3.845,0,0,0-3.479-.007A1.06,1.06,0,0,0,553.421,263.844Zm9.172,5.3,3.589,2.073a3.849,3.849,0,0,0,3.479.005,1.06,1.06,0,0,0-.011-2.008l-3.59-2.073a3.846,3.846,0,0,0-3.478-.005A1.06,1.06,0,0,0,562.593,269.14ZM442.517,209.424l3.106,1.794a4.377,4.377,0,0,0,3.959.007l3.088-1.783a1.207,1.207,0,0,0-.012-2.286l-3.107-1.793a4.38,4.38,0,0,0-3.96-.008l-3.087,1.784A1.206,1.206,0,0,0,442.517,209.424Zm16.051,6.988,3.088-1.783a1.206,1.206,0,0,0-.012-2.285l-3.108-1.794a4.373,4.373,0,0,0-3.959-.007l-3.088,1.783a1.206,1.206,0,0,0,.012,2.285l3.108,1.794A4.373,4.373,0,0,0,458.568,216.412Zm1.919,3.387,3.108,1.793a4.373,4.373,0,0,0,3.959.007l3.088-1.783a1.206,1.206,0,0,0-.013-2.285l-3.107-1.794a4.373,4.373,0,0,0-3.959-.007l-3.088,1.783A1.207,1.207,0,0,0,460.487,219.8Zm8.986,5.187,3.106,1.793a4.377,4.377,0,0,0,3.959.008l3.088-1.783a1.207,1.207,0,0,0-.012-2.286l-3.108-1.794a4.377,4.377,0,0,0-3.959-.007l-3.088,1.783A1.207,1.207,0,0,0,469.473,224.987Zm19.125,2.92-3.107-1.793a4.373,4.373,0,0,0-3.959-.008l-3.088,1.783a1.207,1.207,0,0,0,.012,2.286l3.108,1.793a4.373,4.373,0,0,0,3.959.008l3.088-1.783A1.207,1.207,0,0,0,488.6,227.906Zm8.986,5.187-3.107-1.793a4.377,4.377,0,0,0-3.959-.008l-3.088,1.784a1.206,1.206,0,0,0,.012,2.285l3.108,1.794a4.377,4.377,0,0,0,3.959.007l3.087-1.783A1.206,1.206,0,0,0,497.583,233.094Zm8.986,5.189-3.108-1.794a4.373,4.373,0,0,0-3.959-.007l-3.088,1.783a1.206,1.206,0,0,0,.013,2.285l3.106,1.794a4.373,4.373,0,0,0,3.959.007l3.088-1.783A1.206,1.206,0,0,0,506.569,238.282Zm8.984,5.187-3.107-1.794a4.377,4.377,0,0,0-3.959-.007l-3.088,1.783a1.207,1.207,0,0,0,.012,2.286l3.108,1.793a4.377,4.377,0,0,0,3.959.008l3.088-1.784A1.206,1.206,0,0,0,515.553,243.469Zm8.986,5.187-3.107-1.794a4.38,4.38,0,0,0-3.96-.007l-3.087,1.783a1.206,1.206,0,0,0,.012,2.286l3.107,1.793a4.373,4.373,0,0,0,3.959.008l3.088-1.782A1.207,1.207,0,0,0,524.539,248.657Zm8.985,5.187-3.108-1.793a4.377,4.377,0,0,0-3.959-.008l-3.088,1.783a1.207,1.207,0,0,0,.012,2.286l3.108,1.794a4.377,4.377,0,0,0,3.959.007l3.088-1.783A1.207,1.207,0,0,0,533.524,253.844Zm-1.157,7.455,3.108,1.794a4.373,4.373,0,0,0,3.959.007l3.088-1.783a1.207,1.207,0,0,0-.013-2.286l-3.107-1.793a4.377,4.377,0,0,0-3.959-.008l-3.088,1.784A1.206,1.206,0,0,0,532.367,261.3Zm19.127,2.921-3.108-1.794a4.373,4.373,0,0,0-3.959-.007l-3.088,1.783a1.206,1.206,0,0,0,.013,2.285l3.107,1.794a4.377,4.377,0,0,0,3.959.008l3.088-1.784A1.206,1.206,0,0,0,551.494,264.22Zm13.159,7.6-7.094-4.1a4.377,4.377,0,0,0-3.959-.008l-3.088,1.784a1.206,1.206,0,0,0,.012,2.285l7.1,4.1a4.373,4.373,0,0,0,3.959.007l3.088-1.783A1.206,1.206,0,0,0,564.653,271.817ZM434.2,214.229l7.094,4.1a4.377,4.377,0,0,0,3.959.008l3.088-1.783a1.207,1.207,0,0,0-.012-2.286l-7.1-4.1a4.373,4.373,0,0,0-3.959-.007l-3.088,1.783A1.207,1.207,0,0,0,434.2,214.229Zm12.972,7.489,3.108,1.794a4.377,4.377,0,0,0,3.959.007l3.088-1.783a1.207,1.207,0,0,0-.013-2.286l-3.106-1.793a4.373,4.373,0,0,0-3.959-.008l-3.088,1.783A1.207,1.207,0,0,0,447.168,221.719ZM459.26,228.7a4.373,4.373,0,0,0,3.959.007l3.088-1.783a1.207,1.207,0,0,0-.012-2.286l-3.108-1.793a4.377,4.377,0,0,0-3.959-.008l-3.088,1.784a1.206,1.206,0,0,0,.013,2.285Zm8.986,5.187a4.373,4.373,0,0,0,3.959.007l3.088-1.783a1.206,1.206,0,0,0-.013-2.285l-3.106-1.794a4.373,4.373,0,0,0-3.959-.007l-3.088,1.783a1.206,1.206,0,0,0,.012,2.285Zm8.954-.675L474.111,235a1.206,1.206,0,0,0,.012,2.286l3.106,1.793a4.38,4.38,0,0,0,3.96.008l3.087-1.784a1.206,1.206,0,0,0-.012-2.285l-3.107-1.794A4.377,4.377,0,0,0,477.2,233.213Zm9.174,5.077-3.467,2a1.091,1.091,0,0,0,.011,2.066l3.49,2.014a3.954,3.954,0,0,0,3.578.005l3.467-2a1.091,1.091,0,0,0-.011-2.066l-3.489-2.014A3.955,3.955,0,0,0,486.373,238.29Zm8.986,5.188-3.467,2a1.09,1.09,0,0,0,.011,2.066l3.49,2.014a3.954,3.954,0,0,0,3.578.007l3.467-2a1.09,1.09,0,0,0-.012-2.065l-3.488-2.016A3.955,3.955,0,0,0,495.358,243.479Zm8.986,5.187-3.468,2a1.091,1.091,0,0,0,.012,2.066l3.49,2.014a3.952,3.952,0,0,0,3.577.007l3.468-2a1.09,1.09,0,0,0-.012-2.065l-3.49-2.014A3.952,3.952,0,0,0,504.344,248.666Zm8.984,5.187-3.467,2a1.09,1.09,0,0,0,.011,2.065l3.489,2.014a3.954,3.954,0,0,0,3.578.007l3.467-2a1.091,1.091,0,0,0-.011-2.066l-3.49-2.014A3.954,3.954,0,0,0,513.328,253.853Zm8.985,5.187-3.468,2a1.09,1.09,0,0,0,.012,2.065l3.49,2.016a3.952,3.952,0,0,0,3.577.005l3.468-2a1.091,1.091,0,0,0-.012-2.066l-3.488-2.014A3.954,3.954,0,0,0,522.313,259.04Zm12.6,11.277,3.467-2a1.09,1.09,0,0,0-.011-2.066l-3.489-2.014a3.956,3.956,0,0,0-3.577-.007l-3.468,2a1.091,1.091,0,0,0,.011,2.066l3.489,2.014A3.955,3.955,0,0,0,534.909,270.317Zm8.986,5.187,3.467-2a1.09,1.09,0,0,0-.011-2.065l-3.49-2.014a3.954,3.954,0,0,0-3.578-.007l-3.467,2a1.09,1.09,0,0,0,.011,2.066l3.489,2.014A3.954,3.954,0,0,0,543.895,275.5Zm12.627,1.227-3.49-2.014a3.952,3.952,0,0,0-3.577-.007l-3.468,2a1.09,1.09,0,0,0,.012,2.065l3.49,2.016a3.956,3.956,0,0,0,3.577.005l3.468-2A1.091,1.091,0,0,0,556.522,276.732Zm-130.84-57.808,11.265,6.5a3.954,3.954,0,0,0,3.578.007l3.467-2a1.091,1.091,0,0,0-.011-2.066l-11.266-6.5a3.956,3.956,0,0,0-3.577-.007l-3.468,2A1.091,1.091,0,0,0,425.682,218.924Zm16.761,9.676,3.49,2.016a3.958,3.958,0,0,0,3.578.007l3.467-2a1.091,1.091,0,0,0-.012-2.066l-3.488-2.014a3.954,3.954,0,0,0-3.578-.007l-3.467,2A1.089,1.089,0,0,0,442.443,228.6Zm8.986,5.189,3.49,2.014a3.952,3.952,0,0,0,3.577.007l3.468-2a1.09,1.09,0,0,0-.012-2.065l-3.49-2.016a3.951,3.951,0,0,0-3.577-.005l-3.468,2A1.091,1.091,0,0,0,451.429,233.788Zm8.984,5.187,3.49,2.014a3.954,3.954,0,0,0,3.578.007l3.467-2a1.09,1.09,0,0,0-.011-2.065l-3.49-2.014a3.954,3.954,0,0,0-3.578-.007l-3.467,2A1.091,1.091,0,0,0,460.413,238.975Zm16.052,7.208,3.468-2a1.091,1.091,0,0,0-.012-2.066l-3.489-2.014a3.952,3.952,0,0,0-3.577-.007l-3.468,2a1.09,1.09,0,0,0,.012,2.065l3.49,2.014A3.952,3.952,0,0,0,476.465,246.184Zm8.986,5.187,3.467-2a1.09,1.09,0,0,0-.011-2.066l-3.49-2.014a3.955,3.955,0,0,0-3.578-.007l-3.467,2a1.09,1.09,0,0,0,.012,2.065l3.488,2.014A3.954,3.954,0,0,0,485.45,251.371Zm8.986,5.189,3.467-2a1.091,1.091,0,0,0-.011-2.066l-3.49-2.014a3.959,3.959,0,0,0-3.578-.007l-3.467,2a1.091,1.091,0,0,0,.011,2.066l3.49,2.014A3.959,3.959,0,0,0,494.436,256.559Zm8.984,5.187,3.468-2a1.09,1.09,0,0,0-.012-2.065l-3.489-2.016a3.956,3.956,0,0,0-3.577-.005l-3.468,2a1.091,1.091,0,0,0,.012,2.066l3.49,2.014A3.952,3.952,0,0,0,503.42,261.747Zm8.986,5.187,3.467-2a1.09,1.09,0,0,0-.011-2.065l-3.49-2.014a3.955,3.955,0,0,0-3.578-.007l-3.467,2a1.091,1.091,0,0,0,.011,2.066l3.49,2.014A3.954,3.954,0,0,0,512.405,266.934Zm8.986,5.187,3.467-2a1.091,1.091,0,0,0-.012-2.066l-3.488-2.014a3.954,3.954,0,0,0-3.578-.007l-3.467,2a1.089,1.089,0,0,0,.011,2.065l3.49,2.014A3.954,3.954,0,0,0,521.391,272.121Zm1.918,3.167,3.49,2.014a3.951,3.951,0,0,0,3.577.005l3.468-2a1.091,1.091,0,0,0-.012-2.066l-3.49-2.014a3.952,3.952,0,0,0-3.577-.007l-3.468,2A1.091,1.091,0,0,0,523.309,275.288Zm24.892,6.249-8.873-5.124a3.958,3.958,0,0,0-3.578-.007l-3.467,2a1.091,1.091,0,0,0,.011,2.066l8.873,5.122a3.954,3.954,0,0,0,3.578.007l3.467-2A1.09,1.09,0,0,0,548.2,281.537Zm-130.807-57.56,15.986,9.228a4.467,4.467,0,0,0,4.041.008l3.006-1.735a1.232,1.232,0,0,0-.013-2.334l-15.984-9.229a4.47,4.47,0,0,0-4.042-.007l-3,1.735A1.232,1.232,0,0,0,417.394,223.977Zm21.946,12.67,3.024,1.745a4.466,4.466,0,0,0,4.042.008l3-1.735a1.232,1.232,0,0,0-.012-2.334l-3.024-1.745a4.469,4.469,0,0,0-4.042-.008l-3,1.735A1.232,1.232,0,0,0,439.339,236.647Zm8.986,5.187,3.024,1.747a4.467,4.467,0,0,0,4.041.007l3.006-1.735a1.232,1.232,0,0,0-.013-2.334l-3.023-1.745a4.469,4.469,0,0,0-4.042-.008l-3.006,1.736A1.231,1.231,0,0,0,448.325,241.834Zm8.986,5.187,3.023,1.747a4.466,4.466,0,0,0,4.042.007l3-1.735a1.231,1.231,0,0,0-.012-2.333l-3.024-1.747a4.466,4.466,0,0,0-4.042-.007l-3,1.735A1.231,1.231,0,0,0,457.31,247.021Zm8.984,5.189,3.024,1.745a4.47,4.47,0,0,0,4.042.008l3-1.736a1.231,1.231,0,0,0-.012-2.333l-3.024-1.747a4.47,4.47,0,0,0-4.042-.007l-3,1.735A1.232,1.232,0,0,0,466.294,252.21Zm8.986,5.187,3.024,1.745a4.466,4.466,0,0,0,4.041.008l3.006-1.735a1.232,1.232,0,0,0-.013-2.334l-3.024-1.747a4.467,4.467,0,0,0-4.041-.007l-3.006,1.735A1.232,1.232,0,0,0,475.28,257.4Zm8.984,5.187,3.024,1.747a4.47,4.47,0,0,0,4.042.007l3-1.735a1.232,1.232,0,0,0-.012-2.334l-3.024-1.745a4.469,4.469,0,0,0-4.042-.008l-3,1.735A1.232,1.232,0,0,0,484.264,262.584Zm8.986,5.187,3.024,1.747a4.467,4.467,0,0,0,4.041.007l3.006-1.735a1.232,1.232,0,0,0-.013-2.334l-3.023-1.745a4.465,4.465,0,0,0-4.042-.007l-3,1.735A1.231,1.231,0,0,0,493.25,267.771Zm8.986,5.189,3.023,1.745a4.469,4.469,0,0,0,4.042.008l3.006-1.736a1.231,1.231,0,0,0-.013-2.333l-3.024-1.747a4.463,4.463,0,0,0-4.041-.007l-3.006,1.735A1.232,1.232,0,0,0,502.235,272.96Zm8.984,5.187,3.024,1.745a4.47,4.47,0,0,0,4.042.008l3-1.736a1.231,1.231,0,0,0-.012-2.333l-3.024-1.747a4.469,4.469,0,0,0-4.042-.007l-3,1.735A1.232,1.232,0,0,0,511.219,278.147Zm8.986,5.187,3.024,1.745a4.463,4.463,0,0,0,4.041.008l3.006-1.735a1.232,1.232,0,0,0-.013-2.334l-3.024-1.745a4.462,4.462,0,0,0-4.041-.008L520.192,281A1.232,1.232,0,0,0,520.2,283.334Zm19.242,2.987-3.023-1.745a4.47,4.47,0,0,0-4.042-.008l-3.006,1.735a1.232,1.232,0,0,0,.013,2.334l3.024,1.745a4.462,4.462,0,0,0,4.041.008l3.006-1.735A1.232,1.232,0,0,0,539.447,286.321ZM423.118,228.769l-7.011-4.049a4.469,4.469,0,0,0-4.042-.008l-3.006,1.736a1.231,1.231,0,0,0,.013,2.333l7.012,4.049a4.462,4.462,0,0,0,4.041.007l3.006-1.735A1.231,1.231,0,0,0,423.118,228.769Zm8.986,5.187-3.024-1.747a4.467,4.467,0,0,0-4.041-.007l-3.006,1.735a1.232,1.232,0,0,0,.013,2.334l3.023,1.745a4.469,4.469,0,0,0,4.042.008l3.006-1.736A1.231,1.231,0,0,0,432.1,233.956Zm8.985,5.187-3.024-1.745a4.465,4.465,0,0,0-4.042-.008l-3,1.735a1.232,1.232,0,0,0,.012,2.334l3.024,1.745a4.466,4.466,0,0,0,4.042.008l3-1.735A1.232,1.232,0,0,0,441.089,239.144Zm62.895,36.312-56.935-32.87a4.467,4.467,0,0,0-4.041-.008L440,244.312a1.232,1.232,0,0,0,.013,2.334l56.933,32.871a4.465,4.465,0,0,0,4.042.007L504,277.789A1.232,1.232,0,0,0,503.983,275.455Zm8.986,5.189-3.024-1.747a4.469,4.469,0,0,0-4.042-.007l-3,1.735a1.232,1.232,0,0,0,.012,2.334l3.024,1.745a4.47,4.47,0,0,0,4.042.008l3-1.736A1.231,1.231,0,0,0,512.969,280.644Zm8.984,5.187-3.024-1.747a4.467,4.467,0,0,0-4.041-.007l-3.006,1.735a1.232,1.232,0,0,0,.013,2.334l3.024,1.745a4.467,4.467,0,0,0,4.041.008l3.006-1.735A1.232,1.232,0,0,0,521.953,285.831Zm9.172,5.3L528.1,289.38a4.463,4.463,0,0,0-4.041-.007l-3.006,1.735a1.232,1.232,0,0,0,.013,2.334l3.023,1.745a4.465,4.465,0,0,0,4.042.007l3.006-1.735A1.231,1.231,0,0,0,531.125,291.127Z" transform="translate(-364.84 -79.049)" fill="#72b5e8"/>
        <path id="Trazado_119609" data-name="Trazado 119609" d="M450.6,203.848l7.577,4.375a3.842,3.842,0,0,0,3.478.007,1.061,1.061,0,0,0-.011-2.009l-7.577-4.373a3.845,3.845,0,0,0-3.479-.007A1.06,1.06,0,0,0,450.6,203.848Zm12.972,7.491,3.589,2.071a3.845,3.845,0,0,0,3.479.007,1.06,1.06,0,0,0-.011-2.008l-3.589-2.073a3.845,3.845,0,0,0-3.479-.007A1.061,1.061,0,0,0,463.571,211.339Zm8.986,5.187,3.589,2.071a3.845,3.845,0,0,0,3.479.007,1.06,1.06,0,0,0-.012-2.008l-3.589-2.073a3.842,3.842,0,0,0-3.478-.005A1.06,1.06,0,0,0,472.556,216.526Zm8.984,5.187,3.59,2.073a3.846,3.846,0,0,0,3.478.005,1.06,1.06,0,0,0-.011-2.008l-3.589-2.073a3.849,3.849,0,0,0-3.479-.005A1.06,1.06,0,0,0,481.541,221.713Zm8.986,5.187,3.589,2.073a3.845,3.845,0,0,0,3.479.007,1.061,1.061,0,0,0-.011-2.009l-3.59-2.071a3.842,3.842,0,0,0-3.478-.007A1.06,1.06,0,0,0,490.526,226.9Zm8.986,5.189,3.589,2.071a3.842,3.842,0,0,0,3.477.007,1.06,1.06,0,0,0-.01-2.009l-3.589-2.071a3.845,3.845,0,0,0-3.479-.007A1.061,1.061,0,0,0,499.512,232.089Zm8.984,5.187,3.589,2.071a3.845,3.845,0,0,0,3.479.007,1.06,1.06,0,0,0-.011-2.008l-3.589-2.073a3.845,3.845,0,0,0-3.479-.007A1.061,1.061,0,0,0,508.5,237.276Zm8.986,5.187,3.589,2.073a3.849,3.849,0,0,0,3.479.005,1.06,1.06,0,0,0-.012-2.008l-3.589-2.073a3.846,3.846,0,0,0-3.478-.005A1.06,1.06,0,0,0,517.481,242.463Zm8.986,5.187,3.589,2.073a3.842,3.842,0,0,0,3.478.005,1.06,1.06,0,0,0-.011-2.008l-3.589-2.071a3.845,3.845,0,0,0-3.479-.007A1.06,1.06,0,0,0,526.467,247.65Zm8.984,5.187,3.589,2.073a3.845,3.845,0,0,0,3.479.007,1.061,1.061,0,0,0-.011-2.009l-3.589-2.071a3.845,3.845,0,0,0-3.479-.007A1.06,1.06,0,0,0,535.451,252.838Zm8.986,5.189,3.589,2.071a3.845,3.845,0,0,0,3.479.007,1.061,1.061,0,0,0-.012-2.009l-3.589-2.071a3.842,3.842,0,0,0-3.478-.007A1.061,1.061,0,0,0,544.437,258.026Zm8.984,5.187,3.59,2.071a3.842,3.842,0,0,0,3.478.007,1.06,1.06,0,0,0-.011-2.008l-3.589-2.073a3.845,3.845,0,0,0-3.479-.007A1.061,1.061,0,0,0,553.421,263.213Zm9.172,5.295,3.589,2.073a3.845,3.845,0,0,0,3.479.007,1.061,1.061,0,0,0-.011-2.009l-3.59-2.071a3.842,3.842,0,0,0-3.478-.007A1.06,1.06,0,0,0,562.593,268.508ZM442.517,208.793l3.106,1.793a4.377,4.377,0,0,0,3.959.008l3.088-1.784a1.206,1.206,0,0,0-.012-2.285l-3.107-1.794a4.38,4.38,0,0,0-3.96-.007l-3.087,1.783A1.206,1.206,0,0,0,442.517,208.793Zm16.051,6.988L461.656,214a1.207,1.207,0,0,0-.012-2.286l-3.108-1.794a4.377,4.377,0,0,0-3.959-.007l-3.088,1.783a1.207,1.207,0,0,0,.012,2.286l3.108,1.793A4.373,4.373,0,0,0,458.568,215.781Zm1.919,3.386,3.108,1.794a4.377,4.377,0,0,0,3.959.007l3.088-1.783a1.207,1.207,0,0,0-.013-2.286l-3.107-1.793a4.377,4.377,0,0,0-3.959-.008l-3.088,1.783A1.207,1.207,0,0,0,460.487,219.167Zm8.986,5.187,3.106,1.794a4.373,4.373,0,0,0,3.959.007l3.088-1.783a1.206,1.206,0,0,0-.012-2.285l-3.108-1.794a4.377,4.377,0,0,0-3.959-.008l-3.088,1.784A1.206,1.206,0,0,0,469.473,224.354Zm19.125,2.921-3.107-1.794a4.373,4.373,0,0,0-3.959-.007l-3.088,1.783a1.206,1.206,0,0,0,.012,2.285l3.108,1.794a4.373,4.373,0,0,0,3.959.007l3.088-1.783A1.206,1.206,0,0,0,488.6,227.275Zm8.986,5.187-3.107-1.794a4.377,4.377,0,0,0-3.959-.007l-3.088,1.783a1.207,1.207,0,0,0,.012,2.286l3.108,1.793a4.377,4.377,0,0,0,3.959.008l3.087-1.783A1.207,1.207,0,0,0,497.583,232.463Zm8.986,5.187-3.108-1.793a4.373,4.373,0,0,0-3.959-.008l-3.088,1.783a1.207,1.207,0,0,0,.013,2.286l3.106,1.793a4.373,4.373,0,0,0,3.959.008l3.088-1.783A1.207,1.207,0,0,0,506.569,237.65Zm8.984,5.187-3.107-1.793a4.377,4.377,0,0,0-3.959-.008L505.4,242.82a1.206,1.206,0,0,0,.012,2.285l3.108,1.794a4.377,4.377,0,0,0,3.959.007l3.088-1.783A1.207,1.207,0,0,0,515.553,242.837Zm8.986,5.189-3.107-1.794a4.376,4.376,0,0,0-3.96-.007l-3.087,1.783a1.206,1.206,0,0,0,.012,2.285l3.107,1.794a4.373,4.373,0,0,0,3.959.007l3.088-1.783A1.206,1.206,0,0,0,524.539,248.026Zm8.985,5.187-3.108-1.794a4.373,4.373,0,0,0-3.959-.007l-3.088,1.783a1.207,1.207,0,0,0,.012,2.286l3.108,1.793a4.373,4.373,0,0,0,3.959.007l3.088-1.783A1.206,1.206,0,0,0,533.524,253.213Zm-1.157,7.455,3.108,1.793a4.377,4.377,0,0,0,3.959.008l3.088-1.783a1.207,1.207,0,0,0-.013-2.286l-3.107-1.794a4.377,4.377,0,0,0-3.959-.007l-3.088,1.783A1.207,1.207,0,0,0,532.367,260.668Zm19.127,2.92-3.108-1.793a4.373,4.373,0,0,0-3.959-.008l-3.088,1.783a1.207,1.207,0,0,0,.013,2.286l3.107,1.794a4.377,4.377,0,0,0,3.959.007l3.088-1.783A1.207,1.207,0,0,0,551.494,263.587Zm13.159,7.6-7.094-4.1a4.377,4.377,0,0,0-3.959-.007l-3.088,1.783a1.207,1.207,0,0,0,.012,2.286l7.1,4.1a4.373,4.373,0,0,0,3.959.008l3.088-1.783A1.207,1.207,0,0,0,564.653,271.185ZM434.2,213.6l7.094,4.1a4.373,4.373,0,0,0,3.959.007l3.088-1.783a1.206,1.206,0,0,0-.012-2.285l-7.1-4.1a4.377,4.377,0,0,0-3.959-.008l-3.088,1.783A1.207,1.207,0,0,0,434.2,213.6Zm12.972,7.491,3.108,1.793a4.373,4.373,0,0,0,3.959.007l3.088-1.783a1.206,1.206,0,0,0-.013-2.285l-3.106-1.794a4.373,4.373,0,0,0-3.959-.007l-3.088,1.783A1.207,1.207,0,0,0,447.168,221.088Zm12.092,6.98a4.377,4.377,0,0,0,3.959.008l3.088-1.783a1.207,1.207,0,0,0-.012-2.286l-3.108-1.794a4.377,4.377,0,0,0-3.959-.007l-3.088,1.783a1.207,1.207,0,0,0,.013,2.286Zm8.986,5.187a4.373,4.373,0,0,0,3.959.008l3.088-1.783a1.207,1.207,0,0,0-.013-2.286l-3.106-1.793a4.373,4.373,0,0,0-3.959-.008l-3.088,1.783a1.207,1.207,0,0,0,.012,2.286Zm8.954-.675-3.088,1.784a1.206,1.206,0,0,0,.012,2.285l3.106,1.794a4.38,4.38,0,0,0,3.96.007l3.087-1.783a1.206,1.206,0,0,0-.012-2.286l-3.107-1.793A4.377,4.377,0,0,0,477.2,232.581Zm9.174,5.079-3.467,2a1.091,1.091,0,0,0,.011,2.066l3.49,2.014a3.954,3.954,0,0,0,3.578.007l3.467-2a1.09,1.09,0,0,0-.011-2.065l-3.489-2.014A3.955,3.955,0,0,0,486.373,237.659Zm8.986,5.187-3.467,2a1.089,1.089,0,0,0,.011,2.065l3.49,2.014a3.954,3.954,0,0,0,3.578.007l3.467-2a1.091,1.091,0,0,0-.012-2.066l-3.488-2.014A3.955,3.955,0,0,0,495.358,242.846Zm8.986,5.187-3.468,2a1.091,1.091,0,0,0,.012,2.066l3.49,2.014a3.952,3.952,0,0,0,3.577.005l3.468-2a1.091,1.091,0,0,0-.012-2.066l-3.49-2.014A3.952,3.952,0,0,0,504.344,248.033Zm8.984,5.187-3.467,2a1.091,1.091,0,0,0,.011,2.066l3.489,2.014a3.955,3.955,0,0,0,3.578.007l3.467-2a1.09,1.09,0,0,0-.011-2.065l-3.49-2.016A3.958,3.958,0,0,0,513.328,253.221Zm8.985,5.189-3.468,2a1.091,1.091,0,0,0,.012,2.066l3.49,2.014a3.952,3.952,0,0,0,3.577.007l3.468-2a1.09,1.09,0,0,0-.012-2.065l-3.488-2.014A3.954,3.954,0,0,0,522.313,258.409Zm12.6,11.276,3.467-2a1.09,1.09,0,0,0-.011-2.066l-3.489-2.014a3.952,3.952,0,0,0-3.577-.007l-3.468,2a1.09,1.09,0,0,0,.011,2.065l3.489,2.014A3.954,3.954,0,0,0,534.909,269.685Zm8.986,5.187,3.467-2a1.091,1.091,0,0,0-.011-2.066l-3.49-2.014a3.954,3.954,0,0,0-3.578-.007l-3.467,2a1.09,1.09,0,0,0,.011,2.065l3.489,2.014A3.954,3.954,0,0,0,543.895,274.872Zm12.627,1.229-3.49-2.014a3.951,3.951,0,0,0-3.577-.007l-3.468,2a1.091,1.091,0,0,0,.012,2.066l3.49,2.014a3.952,3.952,0,0,0,3.577.007l3.468-2A1.09,1.09,0,0,0,556.522,276.1Zm-130.84-57.809,11.265,6.5a3.954,3.954,0,0,0,3.578.007l3.467-2a1.09,1.09,0,0,0-.011-2.065l-11.266-6.5a3.952,3.952,0,0,0-3.577-.007l-3.468,2A1.09,1.09,0,0,0,425.682,218.291Zm16.761,9.677,3.49,2.014a3.954,3.954,0,0,0,3.578.007l3.467-2a1.09,1.09,0,0,0-.012-2.065l-3.488-2.014a3.954,3.954,0,0,0-3.578-.007l-3.467,2A1.09,1.09,0,0,0,442.443,227.969Zm8.986,5.187,3.49,2.014a3.952,3.952,0,0,0,3.577.007l3.468-2a1.091,1.091,0,0,0-.012-2.066l-3.49-2.014a3.952,3.952,0,0,0-3.577-.007l-3.468,2A1.09,1.09,0,0,0,451.429,233.156Zm8.984,5.187,3.49,2.016a3.954,3.954,0,0,0,3.578.005l3.467-2a1.091,1.091,0,0,0-.011-2.066l-3.49-2.014a3.954,3.954,0,0,0-3.578-.007l-3.467,2A1.09,1.09,0,0,0,460.413,238.343Zm16.052,7.21,3.468-2a1.091,1.091,0,0,0-.012-2.066l-3.489-2.014a3.952,3.952,0,0,0-3.577-.005l-3.468,2a1.091,1.091,0,0,0,.012,2.066l3.49,2.014A3.952,3.952,0,0,0,476.465,245.553Zm8.986,5.187,3.467-2a1.09,1.09,0,0,0-.011-2.065l-3.49-2.014a3.954,3.954,0,0,0-3.578-.007l-3.467,2a1.091,1.091,0,0,0,.012,2.066l3.488,2.014A3.954,3.954,0,0,0,485.45,250.74Zm8.986,5.187,3.467-2a1.09,1.09,0,0,0-.011-2.065l-3.49-2.014a3.954,3.954,0,0,0-3.578-.007l-3.467,2a1.091,1.091,0,0,0,.011,2.066l3.49,2.014A3.954,3.954,0,0,0,494.436,255.927Zm8.984,5.187,3.468-2a1.091,1.091,0,0,0-.012-2.066l-3.489-2.014a3.951,3.951,0,0,0-3.577-.007l-3.468,2a1.09,1.09,0,0,0,.012,2.065l3.49,2.014A3.952,3.952,0,0,0,503.42,261.114Zm8.986,5.189,3.467-2a1.091,1.091,0,0,0-.011-2.066l-3.49-2.014a3.959,3.959,0,0,0-3.578-.007l-3.467,2a1.091,1.091,0,0,0,.011,2.066l3.49,2.014A3.959,3.959,0,0,0,512.405,266.3Zm8.986,5.187,3.467-2a1.09,1.09,0,0,0-.012-2.065l-3.488-2.016a3.958,3.958,0,0,0-3.578-.005l-3.467,2a1.09,1.09,0,0,0,.011,2.066l3.49,2.014A3.954,3.954,0,0,0,521.391,271.49Zm1.918,3.166,3.49,2.014a3.952,3.952,0,0,0,3.577.007l3.468-2a1.09,1.09,0,0,0-.012-2.065l-3.49-2.014a3.951,3.951,0,0,0-3.577-.007l-3.468,2A1.091,1.091,0,0,0,523.309,274.656ZM548.2,280.9l-8.873-5.122a3.954,3.954,0,0,0-3.578-.007l-3.467,2a1.09,1.09,0,0,0,.011,2.065l8.873,5.124a3.954,3.954,0,0,0,3.578.005l3.467-2A1.091,1.091,0,0,0,548.2,280.9Zm-130.807-57.56,15.986,9.229a4.467,4.467,0,0,0,4.041.007l3.006-1.735a1.232,1.232,0,0,0-.013-2.334l-15.984-9.228a4.469,4.469,0,0,0-4.042-.008l-3,1.736A1.231,1.231,0,0,0,417.394,223.345Zm21.946,12.671,3.024,1.745a4.465,4.465,0,0,0,4.042.007l3-1.735a1.231,1.231,0,0,0-.012-2.333l-3.024-1.747a4.465,4.465,0,0,0-4.042-.007l-3,1.735A1.232,1.232,0,0,0,439.339,236.016Zm8.986,5.187,3.024,1.745a4.467,4.467,0,0,0,4.041.008l3.006-1.736a1.231,1.231,0,0,0-.013-2.333l-3.023-1.747a4.469,4.469,0,0,0-4.042-.007l-3.006,1.735A1.232,1.232,0,0,0,448.325,241.2Zm8.986,5.187,3.023,1.745a4.465,4.465,0,0,0,4.042.008l3-1.735a1.232,1.232,0,0,0-.012-2.334l-3.024-1.745a4.466,4.466,0,0,0-4.042-.008l-3,1.735A1.232,1.232,0,0,0,457.31,246.39Zm8.984,5.187,3.024,1.747a4.47,4.47,0,0,0,4.042.007l3-1.735a1.232,1.232,0,0,0-.012-2.334l-3.024-1.745a4.469,4.469,0,0,0-4.042-.008l-3,1.736A1.231,1.231,0,0,0,466.294,251.577Zm8.986,5.187,3.024,1.747a4.463,4.463,0,0,0,4.041.007l3.006-1.735a1.232,1.232,0,0,0-.013-2.334l-3.024-1.745a4.463,4.463,0,0,0-4.041-.007l-3.006,1.735A1.231,1.231,0,0,0,475.28,256.765Zm8.984,5.189,3.024,1.745a4.465,4.465,0,0,0,4.042.007l3-1.735a1.231,1.231,0,0,0-.012-2.333l-3.024-1.747a4.469,4.469,0,0,0-4.042-.007l-3,1.735A1.232,1.232,0,0,0,484.264,261.953Zm8.986,5.187,3.024,1.745a4.467,4.467,0,0,0,4.041.008l3.006-1.735a1.232,1.232,0,0,0-.013-2.334l-3.023-1.747a4.47,4.47,0,0,0-4.042-.007l-3,1.735A1.232,1.232,0,0,0,493.25,267.14Zm8.986,5.187,3.023,1.747a4.469,4.469,0,0,0,4.042.007l3.006-1.735a1.232,1.232,0,0,0-.013-2.334l-3.024-1.745a4.467,4.467,0,0,0-4.041-.008l-3.006,1.735A1.232,1.232,0,0,0,502.235,272.327Zm8.984,5.187,3.024,1.747a4.47,4.47,0,0,0,4.042.007l3-1.735a1.232,1.232,0,0,0-.012-2.334l-3.024-1.745a4.47,4.47,0,0,0-4.042-.008l-3,1.736A1.231,1.231,0,0,0,511.219,277.515ZM520.2,282.7l3.024,1.747a4.462,4.462,0,0,0,4.041.007l3.006-1.735a1.231,1.231,0,0,0-.013-2.333l-3.024-1.747a4.463,4.463,0,0,0-4.041-.007l-3.006,1.735A1.231,1.231,0,0,0,520.2,282.7Zm19.242,2.988-3.023-1.747a4.466,4.466,0,0,0-4.042-.007l-3.006,1.735a1.232,1.232,0,0,0,.013,2.334l3.024,1.745a4.462,4.462,0,0,0,4.041.007l3.006-1.735A1.231,1.231,0,0,0,539.447,285.69ZM423.118,228.137l-7.011-4.049a4.469,4.469,0,0,0-4.042-.007l-3.006,1.735a1.232,1.232,0,0,0,.013,2.334l7.012,4.047a4.463,4.463,0,0,0,4.041.008l3.006-1.735A1.232,1.232,0,0,0,423.118,228.137Zm8.986,5.187-3.024-1.745a4.467,4.467,0,0,0-4.041-.008l-3.006,1.735a1.232,1.232,0,0,0,.013,2.334l3.023,1.747a4.469,4.469,0,0,0,4.042.007l3.006-1.735A1.232,1.232,0,0,0,432.1,233.324Zm8.985,5.189-3.024-1.747a4.465,4.465,0,0,0-4.042-.007l-3,1.735a1.231,1.231,0,0,0,.012,2.333l3.024,1.747a4.466,4.466,0,0,0,4.042.007l3-1.735A1.231,1.231,0,0,0,441.089,238.513Zm62.895,36.312-56.935-32.871a4.467,4.467,0,0,0-4.041-.007L440,243.681a1.232,1.232,0,0,0,.013,2.334l56.933,32.87a4.465,4.465,0,0,0,4.042.008L504,277.158A1.232,1.232,0,0,0,503.983,274.824Zm8.986,5.187-3.024-1.745a4.469,4.469,0,0,0-4.042-.008l-3,1.736a1.231,1.231,0,0,0,.012,2.333l3.024,1.747a4.47,4.47,0,0,0,4.042.007l3-1.735A1.232,1.232,0,0,0,512.969,280.012Zm8.984,5.187-3.024-1.745a4.467,4.467,0,0,0-4.041-.008l-3.006,1.736a1.231,1.231,0,0,0,.013,2.333l3.024,1.747a4.463,4.463,0,0,0,4.041.007l3.006-1.735A1.232,1.232,0,0,0,521.953,285.2Zm9.172,5.3-3.024-1.745a4.463,4.463,0,0,0-4.041-.008l-3.006,1.735a1.232,1.232,0,0,0,.013,2.334l3.023,1.745a4.465,4.465,0,0,0,4.042.008l3.006-1.735A1.232,1.232,0,0,0,531.125,290.495Z" transform="translate(-364.84 -79.255)" fill="#a8cff0"/>
        <g id="Grupo_82341-2" data-name="Grupo 82341" transform="translate(88.008)">
          <path id="Trazado_119610" data-name="Trazado 119610" d="M569.264,295.574l-119.025-68.76c-4.608-2.66-8.343-9.8-8.343-15.942V117.5c0-6.144,3.735-8.968,8.343-6.307l119.025,68.759c4.608,2.661,8.344,9.8,8.344,15.942v93.372C577.608,295.409,573.872,298.234,569.264,295.574Z" transform="translate(-441.896 -108.934)" fill="#a8cff0"/>
          <path id="Trazado_119611" data-name="Trazado 119611" d="M569.189,289.455,451.433,221.437c-3.708-2.358-6-7.066-6-11.885V115.726a1.48,1.48,0,0,1,2.228-1.274c.115.068.205.121.262.152l117.848,68.083c4.414,2.546,6,7.066,6,11.885V288.18a1.6,1.6,0,0,1-2.388,1.386Z" transform="translate(-440.746 -107.614)" fill="#03336e"/>
          <path id="Trazado_119612" data-name="Trazado 119612" d="M565.769,182.688,447.921,114.6c-.057-.032-.147-.085-.262-.152a1.48,1.48,0,0,0-2.228,1.274v93.826c0,4.819,2.294,9.528,6,11.885l117.755,68.018.195.111a1.6,1.6,0,0,0,2.388-1.386V194.573C571.771,189.754,570.184,185.234,565.769,182.688Zm5.065,105.492a.663.663,0,0,1-.663.66.656.656,0,0,1-.325-.087L451.9,220.624c-3.349-2.128-5.533-6.483-5.533-11.073V115.726a.539.539,0,0,1,.816-.465L565.3,183.5c4.575,2.636,5.534,7.476,5.534,11.073Z" transform="translate(-440.746 -107.614)" fill="#022652"/>
          <path id="Trazado_119613" data-name="Trazado 119613" d="M570.855,179,451.829,110.244a5.638,5.638,0,0,0-4.881-.717c-.175.068-2.5,1.3-2.665,1.394l-.008.005c1.421-.69,3.225-.562,5.19.574L568.49,180.259c4.608,2.66,8.344,9.8,8.344,15.942v93.372c0,3.835-1.455,6.375-3.67,7.1a1.381,1.381,0,0,0,.732-.248c.1-.061,2.631-1.486,2.731-1.556,1.584-1.111,2.571-3.391,2.571-6.55V194.945C579.2,188.8,575.462,181.664,570.855,179Z" transform="translate(-441.122 -109.242)" fill="#3f92d1"/>
          <path id="Trazado_119614" data-name="Trazado 119614" d="M570.855,179,451.829,110.244a5.638,5.638,0,0,0-4.881-.717c-.175.068-2.5,1.3-2.665,1.394l-.008.005c1.421-.69,3.225-.562,5.19.574L568.49,180.259Z" transform="translate(-441.122 -109.242)" fill="#4f9fdb"/>
          <path id="Trazado_119615" data-name="Trazado 119615" d="M568.751,179.8,449.727,111.039a5.533,5.533,0,0,0-5.026-.643,6.162,6.162,0,0,1,4.025.942L567.751,180.1c4.608,2.66,8.344,9.8,8.344,15.942v93.372c0,3.625-1.307,6.08-3.318,6.95,2.574-.408,4.319-3.053,4.319-7.251V195.74C577.1,189.6,573.359,182.459,568.751,179.8Z" transform="translate(-440.984 -108.981)" fill="#fff" style="mix-blend-mode: screen;isolation: isolate"/>
        </g>
      </g>
    </g>
    <g id="Grupo_82344" data-name="Grupo 82344" transform="translate(326.947 250.66)">
      <path id="Trazado_119616" data-name="Trazado 119616" d="M369.9,275.649c-5.336,4.285-23.7,6.733-23.7,6.733s-1.618-12.274,3.719-16.558,10.089-1.67,15.607,1.043S375.233,271.364,369.9,275.649Z" transform="translate(-320.76 -200.463)" fill="#92b4d1" opacity="0.2"/>
      <path id="Trazado_119617" data-name="Trazado 119617" d="M377.351,247.951c-8.931-5.053-17.662-13.673-24.982-24.656l-.1-.057c-7.32,2.531-16.051,1.068-24.982-4.192l-.342-.2.482,16.687c1.695,25.868,10.518,37.128,24.718,61.177l.345.2c14.2-7.652,23.023-8.724,24.718-32.635l.482-16.131Z" transform="translate(-326.947 -215.007)" fill="#a8cff0"/>
      <path id="Trazado_119618" data-name="Trazado 119618" d="M382.366,245.054C373.434,240,364.7,231.382,357.383,220.4l-.1-.057c-7.318,2.531-16.051,1.068-24.982-4.192l-.342-.2-4.942,3.9.246.144c8.931,5.26,17.664,6.723,24.982,4.192l.1.057c7.32,10.983,16.051,19.6,24.983,24.656l.341.192-.482,16.132c-1.105,15.607-5.251,21.482-11.942,25.809,8.361-4.938,15.737-12.105,16.98-29.647l.482-16.131Z" transform="translate(-326.924 -215.949)" fill="#d1ebff"/>
      <path id="Trazado_119619" data-name="Trazado 119619" d="M376.514,244.169l-.341-.193c-8.933-5.052-17.664-13.672-24.983-24.654l-.1-.057-5.037,3.838.1.057c7.32,10.983,16.051,19.6,24.983,24.656l.341.192Z" transform="translate(-320.731 -214.871)" fill="#d1ebff"/>
      <path id="Trazado_119620" data-name="Trazado 119620" d="M368.287,241.894l-.482,16.131c-1.105,15.607-5.251,21.482-11.942,25.809,8.361-4.938,15.737-12.105,16.98-29.647l.482-16.131Z" transform="translate(-317.541 -208.758)" fill="#72b5e8"/>
      <path id="Trazado_119621" data-name="Trazado 119621" d="M348.993,281.479c-10.19-16.9-15.315-25.4-16.55-43.953l-.282-9.738c6.542,2.958,12.814,3.9,18.464,2.776a82.3,82.3,0,0,0,18.463,18.544l-.281,9.412c-1.237,17.125-6.361,19.71-16.552,24.847q-.8.4-1.63.824Q349.791,282.809,348.993,281.479Z" transform="translate(-325.251 -212.098)" fill="#084c94"/>
      <path id="Trazado_119622" data-name="Trazado 119622" d="M353.088,282.629l-1.629.824q-.833-1.382-1.633-2.71c-10.189-16.9-15.314-25.4-16.55-43.955l-.249-8.625c-.289-.123-.577-.245-.867-.376l.282,9.738c1.235,18.55,6.36,27.052,16.55,43.953q.8,1.328,1.631,2.712.831-.421,1.63-.824c4.157-2.1,7.471-3.768,10.022-6.175C359.849,279.218,356.808,280.755,353.088,282.629Z" transform="translate(-325.251 -212.098)" fill="#001a46"/>
      <path id="Trazado_119623" data-name="Trazado 119623" d="M377.588,247.66c-8.931-5.053-17.664-13.672-24.982-24.655l-.1-.057c-7.318,2.531-16.051,1.068-24.982-4.192l-.326.345c8.915,5.238,17.63,6.693,24.937,4.165l.1.057c7.318,10.983,16.051,19.6,24.982,24.656l.342.192-.482,16.132c-.918,12.951-3.928,19.2-8.75,23.426,5.039-4.23,8.18-10.465,9.122-23.744l.481-16.132Z" transform="translate(-326.865 -215.036)" fill="#fff"/>
    </g>
    <g id="Grupo_82348" data-name="Grupo 82348" transform="translate(444.934 305.212)">
      <path id="Trazado_119624" data-name="Trazado 119624" d="M449.043,323.751l-30.9-17.784c-3.215-1.857-2.812-5.1.9-7.243h0c3.712-2.143,16-2.155,19.21-.3l27.394,15.808c4.935,2.913.049,6.91-4.062,9h0C457.875,325.375,452.258,325.608,449.043,323.751Z" transform="translate(-415.974 -244.111)" fill="#92b4d1" opacity="0.2"/>
      <path id="Trazado_119625" data-name="Trazado 119625" d="M460.983,293.108l-44.674-16.66V309.58a2.916,2.916,0,0,0,1.743,2.887l30.21,17.5c2.617,1.511,7.188,1.321,10.21-.424h0c1.6-.922,2.443-2.1,2.5-3.22l.015.007Z" transform="translate(-415.873 -250.82)" fill="#a8cff0"/>
      <path id="Trazado_119626" data-name="Trazado 119626" d="M448.262,297.806l-30.21-17.5c-2.616-1.511-2.289-4.151.733-5.895h0c3.022-1.745,7.594-1.935,10.21-.424l30.21,17.5c2.617,1.511,2.289,4.149-.733,5.895h0C455.45,299.127,450.879,299.316,448.262,297.806Z" transform="translate(-415.873 -251.951)" fill="#d1ebff"/>
      <path id="Trazado_119627" data-name="Trazado 119627" d="M458.471,295.839c-3.022,1.744-7.593,1.934-10.21.423l-30.21-17.5a3.121,3.121,0,0,1-1.748-2.335,2.927,2.927,0,0,0,1.748,2.845l30.21,17.5c2.617,1.509,7.188,1.321,10.21-.424,1.761-1.017,2.6-2.335,2.482-3.56A4.443,4.443,0,0,1,458.471,295.839Z" transform="translate(-415.873 -250.826)" fill="#fff"/>
      <g id="Grupo_82347" data-name="Grupo 82347" transform="translate(6.776)">
        <path id="Trazado_119628" data-name="Trazado 119628" d="M440.06,258.819h0a12.655,12.655,0,0,0-18.973,10.966v13.726h0l0,.02c0,1.345,1.859,2.429,4.155,2.429s4.154-1.084,4.154-2.42c0-.016,0-.03,0-.048h.045V271.557a5.363,5.363,0,0,1,8.034-4.65h0a13.373,13.373,0,0,1,6.711,11.6v18.3h.044c.046,1.313,1.885,2.37,4.151,2.37s4.13-1.07,4.152-2.395h0V280.394A24.9,24.9,0,0,0,440.06,258.819Z" transform="translate(-421.087 -257.111)" fill="#084c94"/>
        <g id="Grupo_82345" data-name="Grupo 82345" transform="translate(17.954 7.658)">
          <path id="Trazado_119629" data-name="Trazado 119629" d="M435.408,263.277a7.426,7.426,0,0,0-.774-.388,14.582,14.582,0,0,1,6.434,12.068v21.476a5.038,5.038,0,0,0,1.622.6V275.874A14.573,14.573,0,0,0,435.408,263.277Z" transform="translate(-434.634 -262.889)" fill="#2672ab"/>
        </g>
        <g id="Grupo_82346" data-name="Grupo 82346" transform="translate(3.448 5.844)">
          <path id="Trazado_119630" data-name="Trazado 119630" d="M430.532,261.52a6.807,6.807,0,0,0-6.8,6.8v14.334l-.043,1.487a5.833,5.833,0,0,0,2.382-.285l.042-1.487V268.034a6.81,6.81,0,0,1,4.805-6.5C430.79,261.525,430.66,261.52,430.532,261.52Z" transform="translate(-423.689 -261.52)" fill="#03336e"/>
        </g>
        <path id="Trazado_119631" data-name="Trazado 119631" d="M435.108,259.665a13.147,13.147,0,0,1,6.179,1.549,23.485,23.485,0,0,0-2.29-1.508,11.064,11.064,0,0,0-5.585-1.517,11.271,11.271,0,0,0-11.246,11.245v.032A13.581,13.581,0,0,1,435.108,259.665Z" transform="translate(-420.736 -256.76)" fill="#2672ab"/>
        <path id="Trazado_119632" data-name="Trazado 119632" d="M442.394,278.1l0,16.061a5.131,5.131,0,0,0,2.079-.722,1.369,1.369,0,0,0,.143-.563V276.493C444.615,269.41,442.394,270.882,442.394,278.1Z" transform="translate(-414.157 -252.309)" fill="#03336e"/>
      </g>
      <path id="Trazado_119633" data-name="Trazado 119633" d="M435.395,298.007a9.023,9.023,0,0,0-4.1-7.065c-2.262-1.307-4.1-.261-4.1,2.335a8.911,8.911,0,0,0,2.071,5.279v8.222l4.05,2.339v-8.223C434.56,300.8,435.395,299.757,435.395,298.007Z" transform="translate(-412.321 -246.288)" fill="#084c94"/>
      <path id="Trazado_119634" data-name="Trazado 119634" d="M429.981,306.464V298.24a8.907,8.907,0,0,1-2.071-5.279,2.924,2.924,0,0,1,1.075-2.545c-1.076.227-1.781,1.238-1.781,2.848a8.911,8.911,0,0,0,2.071,5.279v8.222l4.05,2.339v-.712Z" transform="translate(-412.321 -246.276)" fill="#001a46"/>
    </g>
    <g id="Grupo_82351" data-name="Grupo 82351" transform="translate(505.475 173.345)">
      <path id="Trazado_119635" data-name="Trazado 119635" d="M524.8,203.776c0-5.345-3.776-11.857-8.434-14.546a7.973,7.973,0,0,0-3.419-1.138c0-.073.011-.139.011-.212,0-10.349-7.312-22.958-16.329-28.165-5.064-2.924-9.472-2.531-12.576-.459l-5.208,2.974c-2.943-1.528-5.574-1.517-7.428-.236l-7.007,4.2c1.9-.828,4.391-.559,7.124,1.018a16.135,16.135,0,0,1,1.7,1.154c2.13-6.277,8.27-8.161,15.522-3.975,9.017,5.207,16.329,17.816,16.329,28.165,0,.073-.009.139-.009.212a7.974,7.974,0,0,1,3.418,1.138c4.658,2.689,8.434,9.2,8.434,14.546a6.37,6.37,0,0,1-1.81,4.942l6.946-4.045-.009-.015C523.738,208.538,524.8,206.6,524.8,203.776Z" transform="translate(-460.761 -157.611)" fill="#72b5e8"/>
      <g id="Grupo_82349" data-name="Grupo 82349" transform="translate(3.947 4.266)">
        <path id="Trazado_119636" data-name="Trazado 119636" d="M505.721,192.584a8.013,8.013,0,0,0-3.419-1.138c0-.073.011-.138.011-.212,0-10.348-7.312-22.958-16.329-28.165-4.322-2.494-8.249-2.832-11.167-1.37,2.844-1.13,6.526-.68,10.551,1.645,9.019,5.207,16.329,17.816,16.329,28.165,0,.073-.009.139-.009.212a7.973,7.973,0,0,1,3.418,1.138c4.658,2.689,8.434,9.2,8.434,14.547,0,2.7-.967,4.589-2.526,5.446,1.915-.668,3.142-2.676,3.142-5.72C514.155,201.787,510.379,195.273,505.721,192.584Z" transform="translate(-461.321 -160.83)" fill="#fff"/>
        <path id="Trazado_119637" data-name="Trazado 119637" d="M471.453,165.283a16.131,16.131,0,0,1,1.7,1.154c.066-.194.135-.383.209-.569a15.368,15.368,0,0,0-1.3-.859c-2.885-1.666-5.5-1.873-7.436-.868C466.49,163.466,468.865,163.79,471.453,165.283Z" transform="translate(-464.633 -159.95)" fill="#fff"/>
      </g>
      <path id="Trazado_119638" data-name="Trazado 119638" d="M509.386,192.791a7.974,7.974,0,0,0-3.418-1.138c0-.073.009-.139.009-.212,0-10.349-7.31-22.958-16.329-28.165-7.252-4.187-13.392-2.3-15.522,3.975a16.142,16.142,0,0,0-1.7-1.154c-5.947-3.432-10.767-.684-10.767,6.139s4.82,15.138,10.767,18.57l36.964,21.341c4.658,2.689,8.434.537,8.434-4.808S514.044,195.48,509.386,192.791Z" transform="translate(-461.655 -156.497)" fill="#d1ebff"/>
      <path id="Trazado_119639" data-name="Trazado 119639" d="M512.5,209.919a4.965,4.965,0,0,1-2.427-.794l-36.967-21.343c-5.1-2.943-9.406-10.369-9.406-16.215,0-1.472.314-4.9,3.216-4.9a7.236,7.236,0,0,1,3.472,1.115,13.762,13.762,0,0,1,1.419.964l3.006,2.285,1.214-3.576c.676-1.993,2.2-4.368,5.627-4.368a12.313,12.313,0,0,1,5.96,1.875c8.115,4.684,14.969,16.5,14.969,25.81,0,0-.008.093-.009.179l-.03,2.574,2.568.172a5.4,5.4,0,0,1,2.241.779c3.834,2.213,7.073,7.8,7.073,12.193a4.431,4.431,0,0,1-.692,2.7,1.428,1.428,0,0,1-1.236.549Z" transform="translate(-460.988 -155.83)" fill="#3f92d1"/>
      <g id="Grupo_82350" data-name="Grupo 82350" transform="translate(2.718 8.018)">
        <path id="Trazado_119640" data-name="Trazado 119640" d="M472.908,170.166l1.213-3.576a7.17,7.17,0,0,1,1.781-2.929,6.52,6.52,0,0,0-2.686,3.609l-.844,2.488Z" transform="translate(-460.887 -163.661)" fill="#2672ab"/>
        <path id="Trazado_119641" data-name="Trazado 119641" d="M513.41,208.3a4.962,4.962,0,0,1-2.425-.794l-36.966-21.343c-5.1-2.943-9.406-10.369-9.406-16.215a6.474,6.474,0,0,1,1.112-3.969c-1.79.8-2.018,3.413-2.018,4.649,0,5.846,4.309,13.272,9.406,16.215l36.967,21.343a4.965,4.965,0,0,0,2.427.794,1.428,1.428,0,0,0,1.236-.549,1.912,1.912,0,0,0,.109-.179A1.961,1.961,0,0,1,513.41,208.3Z" transform="translate(-463.706 -162.907)" fill="#2672ab"/>
      </g>
    </g>
    <g id="Grupo_82356" data-name="Grupo 82356" transform="translate(374.692 163.493)">
      <path id="Trazado_119642" data-name="Trazado 119642" d="M409.014,207.745l-40.025-22.478c-2.191-1.264-1.915-3.474.614-4.933h0c2.529-1.46,10.9-1.468,13.085-.2l37.638,21.131c3.362,1.984.034,4.707-2.766,6.129h0C415.03,208.851,411.2,209.01,409.014,207.745Z" transform="translate(-361.497 -140.733)" fill="#92b4d1" opacity="0.2"/>
      <path id="Trazado_119643" data-name="Trazado 119643" d="M411.643,218.029l-44.116-25.511c-2.515-1.451-4.554-5.346-4.554-8.7V154.991c0-3.353,2.038-4.894,4.554-3.442l44.116,25.509c2.514,1.453,4.552,5.348,4.552,8.7v28.828C416.2,217.94,414.157,219.481,411.643,218.029Z" transform="translate(-362.973 -149.908)" fill="#a8cff0"/>
      <path id="Trazado_119644" data-name="Trazado 119644" d="M411.6,194.206,368.178,169.1a7.744,7.744,0,0,1-3.275-6.486v-7.493a.807.807,0,0,1,1.215-.694l.142.082,43.475,25.142c2.409,1.389,3.276,3.857,3.276,6.486v7.374a.871.871,0,0,1-1.3.755Z" transform="translate(-362.345 -148.831)" fill="#084c94"/>
      <path id="Trazado_119645" data-name="Trazado 119645" d="M411.6,208.59l-43.423-25.105A7.744,7.744,0,0,1,364.9,177v-7.493a.807.807,0,0,1,1.215-.694l.142.082,43.475,25.142c2.409,1.389,3.276,3.857,3.276,6.486V207.9a.871.871,0,0,1-1.3.755Z" transform="translate(-362.345 -144.152)" fill="#084c94"/>
      <path id="Trazado_119646" data-name="Trazado 119646" d="M412.436,193.671l-.106-.061L368.905,168.5a7.74,7.74,0,0,1-3.275-6.486v-7.492a.788.788,0,0,1,.028-.205.8.8,0,0,0-.755.8v7.493a7.744,7.744,0,0,0,3.275,6.486L411.6,194.2l.107.061a.87.87,0,0,0,1.259-.493A.852.852,0,0,1,412.436,193.671Z" transform="translate(-362.345 -148.829)" fill="#001a46"/>
      <path id="Trazado_119647" data-name="Trazado 119647" d="M412.436,208.055l-.106-.061-43.425-25.106a7.74,7.74,0,0,1-3.275-6.486v-7.492a.788.788,0,0,1,.028-.205.8.8,0,0,0-.755.8V177a7.744,7.744,0,0,0,3.275,6.486L411.6,208.589l.107.061a.87.87,0,0,0,1.259-.493A.851.851,0,0,1,412.436,208.055Z" transform="translate(-362.345 -144.15)" fill="#001a46"/>
      <path id="Trazado_119648" data-name="Trazado 119648" d="M413.365,176.234l-44.116-25.511a3.082,3.082,0,0,0-2.665-.391c-.1.037-2.219,1.12-2.307,1.169l-.005,0a2.98,2.98,0,0,1,2.833.314l44.116,25.509c2.514,1.453,4.554,5.348,4.554,8.7v28.828c0,2.093-.8,3.479-2,3.873a.762.762,0,0,0,.4-.135c.057-.033,2.289-1.219,2.344-1.258a4.206,4.206,0,0,0,1.4-3.574V184.933C417.919,181.58,415.879,177.685,413.365,176.234Z" transform="translate(-362.551 -150.177)" fill="#3f92d1"/>
      <path id="Trazado_119649" data-name="Trazado 119649" d="M413.365,176.234l-44.116-25.511a3.082,3.082,0,0,0-2.665-.391c-.1.037-2.219,1.12-2.307,1.169l-.005,0a2.98,2.98,0,0,1,2.833.314l44.116,25.509Z" transform="translate(-362.551 -150.177)" fill="#4f9fdb"/>
      <path id="Trazado_119650" data-name="Trazado 119650" d="M411.364,176.975l-44.118-25.511a3.02,3.02,0,0,0-2.742-.35,3.361,3.361,0,0,1,2.2.514l44.116,25.511c2.515,1.451,4.554,5.346,4.554,8.7v28.828c0,1.979-.713,3.319-1.81,3.793,1.4-.223,2.356-1.666,2.356-3.957V185.676C415.916,182.323,413.878,178.428,411.364,176.975Z" transform="translate(-362.475 -149.934)" fill="#fff" style="mix-blend-mode: screen;isolation: isolate"/>
      <g id="Grupo_82352" data-name="Grupo 82352" transform="translate(10.15 32.86)">
        <path id="Trazado_119651" data-name="Trazado 119651" d="M392,189.328a6.047,6.047,0,0,0,2.745,4.735c1.517.876,2.746.175,2.746-1.565a6.047,6.047,0,0,0-2.746-4.735C393.233,186.888,392,187.589,392,189.328Z" transform="translate(-363.68 -170.933)" fill="#001a46"/>
        <path id="Trazado_119652" data-name="Trazado 119652" d="M386.661,186.225a6.053,6.053,0,0,0,2.746,4.735c1.516.875,2.745.174,2.745-1.565a6.047,6.047,0,0,0-2.745-4.735C387.891,183.784,386.661,184.485,386.661,186.225Z" transform="translate(-365.418 -171.942)" fill="#001a46"/>
        <path id="Trazado_119653" data-name="Trazado 119653" d="M381.318,183.121a6.051,6.051,0,0,0,2.746,4.735c1.516.875,2.745.175,2.745-1.565a6.047,6.047,0,0,0-2.745-4.735C382.548,180.68,381.318,181.381,381.318,183.121Z" transform="translate(-367.156 -172.952)" fill="#001a46"/>
        <path id="Trazado_119654" data-name="Trazado 119654" d="M375.975,180.017a6.049,6.049,0,0,0,2.746,4.735c1.516.876,2.745.175,2.745-1.565a6.049,6.049,0,0,0-2.745-4.735C377.2,177.577,375.975,178.278,375.975,180.017Z" transform="translate(-368.894 -173.962)" fill="#001a46"/>
        <path id="Trazado_119655" data-name="Trazado 119655" d="M370.632,176.914a6.053,6.053,0,0,0,2.746,4.735c1.516.875,2.745.174,2.745-1.565a6.047,6.047,0,0,0-2.745-4.735C371.862,174.473,370.632,175.174,370.632,176.914Z" transform="translate(-370.632 -174.971)" fill="#001a46"/>
      </g>
      <g id="Grupo_82353" data-name="Grupo 82353" transform="translate(9.301 32.916)">
        <path id="Trazado_119656" data-name="Trazado 119656" d="M391.363,189.371a6.047,6.047,0,0,0,2.745,4.735c1.516.876,2.746.175,2.746-1.565a6.051,6.051,0,0,0-2.746-4.735C392.592,186.931,391.363,187.631,391.363,189.371Z" transform="translate(-363.039 -170.975)" fill="#a8cff0"/>
        <path id="Trazado_119657" data-name="Trazado 119657" d="M386.02,186.267A6.047,6.047,0,0,0,388.765,191c1.517.876,2.746.175,2.746-1.565a6.049,6.049,0,0,0-2.746-4.735C387.249,183.827,386.02,184.528,386.02,186.267Z" transform="translate(-364.777 -171.985)" fill="#a8cff0"/>
        <path id="Trazado_119658" data-name="Trazado 119658" d="M380.677,183.164a6.047,6.047,0,0,0,2.746,4.735c1.516.875,2.745.174,2.745-1.565a6.047,6.047,0,0,0-2.745-4.735C381.906,180.723,380.677,181.424,380.677,183.164Z" transform="translate(-366.515 -172.995)" fill="#a8cff0"/>
        <path id="Trazado_119659" data-name="Trazado 119659" d="M375.334,180.06a6.051,6.051,0,0,0,2.746,4.735c1.516.876,2.745.175,2.745-1.565a6.049,6.049,0,0,0-2.745-4.735C376.564,177.619,375.334,178.32,375.334,180.06Z" transform="translate(-368.253 -174.004)" fill="#a8cff0"/>
        <path id="Trazado_119660" data-name="Trazado 119660" d="M369.991,176.956a6.049,6.049,0,0,0,2.746,4.735c1.516.876,2.745.175,2.745-1.565a6.052,6.052,0,0,0-2.745-4.735C371.221,174.516,369.991,175.217,369.991,176.956Z" transform="translate(-369.991 -175.014)" fill="#a8cff0"/>
      </g>
      <g id="Grupo_82354" data-name="Grupo 82354" transform="translate(10.15 13.318)">
        <path id="Trazado_119661" data-name="Trazado 119661" d="M392,174.583a6.047,6.047,0,0,0,2.745,4.735c1.517.876,2.746.175,2.746-1.565a6.047,6.047,0,0,0-2.746-4.735C393.233,172.143,392,172.843,392,174.583Z" transform="translate(-363.68 -156.188)" fill="#001a46"/>
        <path id="Trazado_119662" data-name="Trazado 119662" d="M386.661,171.48a6.048,6.048,0,0,0,2.746,4.734c1.516.876,2.745.175,2.745-1.565a6.051,6.051,0,0,0-2.745-4.735C387.891,169.039,386.661,169.74,386.661,171.48Z" transform="translate(-365.418 -157.198)" fill="#001a46"/>
        <path id="Trazado_119663" data-name="Trazado 119663" d="M381.318,168.376a6.051,6.051,0,0,0,2.746,4.735c1.516.875,2.745.175,2.745-1.565a6.047,6.047,0,0,0-2.745-4.735C382.548,165.935,381.318,166.636,381.318,168.376Z" transform="translate(-367.156 -158.207)" fill="#001a46"/>
        <path id="Trazado_119664" data-name="Trazado 119664" d="M375.975,165.272a6.049,6.049,0,0,0,2.746,4.735c1.516.876,2.745.175,2.745-1.565a6.049,6.049,0,0,0-2.745-4.735C377.2,162.832,375.975,163.532,375.975,165.272Z" transform="translate(-368.894 -159.217)" fill="#001a46"/>
        <path id="Trazado_119665" data-name="Trazado 119665" d="M370.632,162.169a6.053,6.053,0,0,0,2.746,4.735c1.516.875,2.745.174,2.745-1.566a6.047,6.047,0,0,0-2.745-4.734C371.862,159.728,370.632,160.429,370.632,162.169Z" transform="translate(-370.632 -160.226)" fill="#001a46"/>
      </g>
      <g id="Grupo_82355" data-name="Grupo 82355" transform="translate(9.301 13.375)">
        <path id="Trazado_119666" data-name="Trazado 119666" d="M391.363,174.626a6.049,6.049,0,0,0,2.745,4.735c1.516.875,2.746.175,2.746-1.565a6.049,6.049,0,0,0-2.746-4.735C392.592,172.185,391.363,172.886,391.363,174.626Z" transform="translate(-363.039 -156.23)" fill="#a8cff0"/>
        <path id="Trazado_119667" data-name="Trazado 119667" d="M386.02,171.522a6.047,6.047,0,0,0,2.745,4.735c1.517.876,2.746.175,2.746-1.565a6.047,6.047,0,0,0-2.746-4.735C387.249,169.082,386.02,169.782,386.02,171.522Z" transform="translate(-364.777 -157.24)" fill="#a8cff0"/>
        <path id="Trazado_119668" data-name="Trazado 119668" d="M380.677,168.419a6.049,6.049,0,0,0,2.746,4.735c1.516.875,2.745.174,2.745-1.565a6.047,6.047,0,0,0-2.745-4.735C381.906,165.978,380.677,166.679,380.677,168.419Z" transform="translate(-366.515 -158.25)" fill="#a8cff0"/>
        <path id="Trazado_119669" data-name="Trazado 119669" d="M375.334,165.315a6.05,6.05,0,0,0,2.746,4.735c1.516.875,2.745.175,2.745-1.565a6.047,6.047,0,0,0-2.745-4.735C376.564,162.874,375.334,163.575,375.334,165.315Z" transform="translate(-368.253 -159.259)" fill="#a8cff0"/>
        <path id="Trazado_119670" data-name="Trazado 119670" d="M369.991,162.211a6.049,6.049,0,0,0,2.746,4.735c1.516.876,2.745.175,2.745-1.565a6.05,6.05,0,0,0-2.745-4.735C371.221,159.771,369.991,160.472,369.991,162.211Z" transform="translate(-369.991 -160.269)" fill="#a8cff0"/>
      </g>
    </g>
    <g id="Grupo_82367" data-name="Grupo 82367" transform="translate(622.833 196.132)">
      <g id="Grupo_82357" data-name="Grupo 82357">
        <path id="Trazado_119671" data-name="Trazado 119671" d="M590.862,256.466l-36.1-21.043c-2.514-1.451-4.552-5.346-4.552-8.7v-47.1c0-3.353,2.038-4.894,4.552-3.442l36.1,21.043c2.515,1.453,4.554,5.348,4.554,8.7v47.1C595.416,256.378,593.377,257.919,590.862,256.466Z" transform="translate(-550.207 -174.536)" fill="#a8cff0"/>
        <path id="Trazado_119672" data-name="Trazado 119672" d="M590.821,252.761l-35.409-20.639a7.743,7.743,0,0,1-3.276-6.486V179.75a.808.808,0,0,1,1.217-.694l.142.082,35.461,20.675c2.409,1.389,3.275,3.857,3.275,6.487v45.765a.871.871,0,0,1-1.3.757Z" transform="translate(-549.58 -173.459)" fill="#084c94"/>
        <path id="Trazado_119673" data-name="Trazado 119673" d="M591.655,252.224l-.106-.061L556.14,231.525a7.744,7.744,0,0,1-3.275-6.486V179.153a.793.793,0,0,1,.028-.205.8.8,0,0,0-.757.8v45.886a7.743,7.743,0,0,0,3.276,6.486l35.409,20.639.106.061a.871.871,0,0,0,1.26-.493A.849.849,0,0,1,591.655,252.224Z" transform="translate(-549.58 -173.457)" fill="#001a46"/>
        <path id="Trazado_119674" data-name="Trazado 119674" d="M592.584,196.394l-36.1-21.043a3.082,3.082,0,0,0-2.665-.391c-.1.037-2.219,1.12-2.309,1.169l0,0a2.973,2.973,0,0,1,2.832.313l36.1,21.043c2.516,1.453,4.554,5.348,4.554,8.7v47.1c0,2.093-.794,3.479-2,3.874a.755.755,0,0,0,.4-.137c.057-.033,2.29-1.219,2.344-1.258a4.2,4.2,0,0,0,1.4-3.574v-47.1C597.138,201.742,595.1,197.847,592.584,196.394Z" transform="translate(-549.785 -174.805)" fill="#3f92d1"/>
        <path id="Trazado_119675" data-name="Trazado 119675" d="M592.584,196.394l-36.1-21.043a3.082,3.082,0,0,0-2.665-.391c-.1.037-2.219,1.12-2.309,1.169l0,0a2.973,2.973,0,0,1,2.832.313l36.1,21.043Z" transform="translate(-549.785 -174.805)" fill="#4f9fdb"/>
        <path id="Trazado_119676" data-name="Trazado 119676" d="M590.582,197.137l-36.1-21.044a3.02,3.02,0,0,0-2.742-.35,3.363,3.363,0,0,1,2.2.514l36.1,21.043c2.514,1.453,4.554,5.348,4.554,8.7v47.1c0,1.979-.713,3.319-1.812,3.793,1.4-.223,2.358-1.666,2.358-3.956v-47.1C595.136,202.483,593.1,198.588,590.582,197.137Z" transform="translate(-549.709 -174.562)" fill="#fff" style="mix-blend-mode: screen;isolation: isolate"/>
      </g>
      <g id="Grupo_82358" data-name="Grupo 82358" transform="translate(22.19 38.382)">
        <path id="Trazado_119677" data-name="Trazado 119677" d="M567.746,219.261a.886.886,0,0,1-.176-.019.8.8,0,0,1-.6-.952,61.176,61.176,0,0,0,1.4-13.413v-.317a.8.8,0,1,1,1.59,0v.317a62.8,62.8,0,0,1-1.439,13.763A.8.8,0,0,1,567.746,219.261Z" transform="translate(-566.95 -203.766)" fill="#a8cff0"/>
      </g>
      <g id="Grupo_82359" data-name="Grupo 82359" transform="translate(16.519 32.975)">
        <path id="Trazado_119678" data-name="Trazado 119678" d="M563.467,225.964a.762.762,0,0,1-.187-.024.8.8,0,0,1-.587-.96,106,106,0,0,0,2.366-21.806,4.123,4.123,0,0,1,1.329-3.311.794.794,0,1,1,1,1.236,2.609,2.609,0,0,0-.738,2.074,107.724,107.724,0,0,1-2.409,22.181A.794.794,0,0,1,563.467,225.964Z" transform="translate(-562.671 -199.686)" fill="#a8cff0"/>
      </g>
      <g id="Grupo_82360" data-name="Grupo 82360" transform="translate(23.404 33.102)">
        <path id="Trazado_119679" data-name="Trazado 119679" d="M573.16,209.132a.794.794,0,0,1-.794-.8,9.186,9.186,0,0,0-4.1-7.07.8.8,0,1,1,.8-1.377,10.64,10.64,0,0,1,4.9,8.447A.8.8,0,0,1,573.16,209.132Z" transform="translate(-567.867 -199.782)" fill="#a8cff0"/>
      </g>
      <g id="Grupo_82361" data-name="Grupo 82361" transform="translate(24.658 47.312)">
        <path id="Trazado_119680" data-name="Trazado 119680" d="M569.608,228.345a.779.779,0,0,1-.182-.021.8.8,0,0,1-.594-.954,157.651,157.651,0,0,0,2.8-16.162.8.8,0,0,1,1.58.182,159.628,159.628,0,0,1-2.831,16.34A.793.793,0,0,1,569.608,228.345Z" transform="translate(-568.812 -210.504)" fill="#a8cff0"/>
      </g>
      <g id="Grupo_82362" data-name="Grupo 82362" transform="translate(8.614 21.443)">
        <path id="Trazado_119681" data-name="Trazado 119681" d="M583.082,236.2a.785.785,0,0,1-.2-.027.8.8,0,0,1-.565-.973,73.139,73.139,0,0,0,2.27-18.725v-.317c0-8.026-5.692-17.844-12.689-21.883-3.255-1.881-6.269-2.208-8.487-.928-2.2,1.268-3.407,4-3.407,7.7a77.106,77.106,0,0,1-1.722,16.679.8.8,0,1,1-1.553-.345,75.528,75.528,0,0,0,1.686-16.334c0-4.29,1.491-7.513,4.2-9.077,2.727-1.578,6.308-1.248,10.078.928,7.435,4.293,13.482,14.727,13.482,23.26v.317a74.7,74.7,0,0,1-2.322,19.133A.794.794,0,0,1,583.082,236.2Z" transform="translate(-556.707 -190.985)" fill="#a8cff0"/>
      </g>
      <g id="Grupo_82363" data-name="Grupo 82363" transform="translate(12.301 45.185)">
        <path id="Trazado_119682" data-name="Trazado 119682" d="M560.284,218.112a.8.8,0,0,1-.77-.994A69.148,69.148,0,0,0,561,209.581a.809.809,0,0,1,.9-.676.794.794,0,0,1,.675.9,70.683,70.683,0,0,1-1.517,7.711A.8.8,0,0,1,560.284,218.112Z" transform="translate(-559.489 -208.899)" fill="#a8cff0"/>
      </g>
      <g id="Grupo_82364" data-name="Grupo 82364" transform="translate(14.092 28.83)">
        <path id="Trazado_119683" data-name="Trazado 119683" d="M561.636,212.2a.671.671,0,0,1-.089-.005.8.8,0,0,1-.7-.877,87.21,87.21,0,0,0,.514-9.6,8.278,8.278,0,0,1,1.323-4.819.8.8,0,0,1,1.3.921,6.719,6.719,0,0,0-1.03,3.9,89.02,89.02,0,0,1-.524,9.779A.8.8,0,0,1,561.636,212.2Z" transform="translate(-560.84 -196.558)" fill="#a8cff0"/>
      </g>
      <g id="Grupo_82365" data-name="Grupo 82365" transform="translate(18.237 26.97)">
        <path id="Trazado_119684" data-name="Trazado 119684" d="M577.506,207.3a.8.8,0,0,1-.74-.5,18.48,18.48,0,0,0-7.233-8.951,6.219,6.219,0,0,0-4.57-.971.8.8,0,1,1-.4-1.54,7.747,7.747,0,0,1,5.764,1.134,19.849,19.849,0,0,1,7.916,9.741.8.8,0,0,1-.738,1.089Z" transform="translate(-563.968 -195.155)" fill="#a8cff0"/>
      </g>
      <g id="Grupo_82366" data-name="Grupo 82366" transform="translate(28.949 43.341)">
        <path id="Trazado_119685" data-name="Trazado 119685" d="M572.845,230.791a.786.786,0,0,1-.25-.041.8.8,0,0,1-.5-1.006l.176-.527a65.553,65.553,0,0,0,3.031-20.6V208.3a.794.794,0,1,1,1.589,0v.317a67.161,67.161,0,0,1-3.11,21.1l-.176.53A.8.8,0,0,1,572.845,230.791Z" transform="translate(-572.05 -207.508)" fill="#a8cff0"/>
      </g>
    </g>
  </g>
</svg>
