<svg xmlns="http://www.w3.org/2000/svg" width="177.536" height="178" viewBox="0 0 177.536 178">
  <g id="Grupo_955834" data-name="Grupo 955834" transform="translate(-558.077 -6568.443)">
    <g id="Grupo_82372" data-name="Grupo 82372" transform="translate(584.964 6568.443)">
      <path id="Trazado_119616" data-name="Trazado 119616" d="M397.964,289.834c-11.594,9.31-51.5,14.629-51.5,14.629s-3.516-26.669,8.081-35.98,21.923-3.628,33.912,2.266S409.561,280.524,397.964,289.834Z" transform="translate(-291.198 -126.463)" fill="#92b4d1" opacity="0.2"/>
      <path id="Trazado_119617" data-name="Trazado 119617" d="M436.469,282.088c-19.407-10.98-38.378-29.71-54.283-53.575l-.213-.124c-15.9,5.5-34.877,2.321-54.283-9.109l-.743-.435L328,255.1c3.683,56.21,22.854,80.676,53.71,132.932l.749.435c30.857-16.628,50.027-18.957,53.71-70.914l1.048-35.052Z" transform="translate(-326.947 -210.503)" fill="#a8cff0"/>
      <path id="Trazado_119618" data-name="Trazado 119618" d="M447.283,279.191C427.873,268.213,408.9,249.484,393,225.619l-.213-.124c-15.9,5.5-34.876,2.321-54.283-9.109l-.743-.438-10.738,8.464.536.314c19.407,11.43,38.381,14.609,54.283,9.109l.213.124c15.9,23.864,34.876,42.594,54.286,53.575l.74.418L436.029,323c-2.4,33.912-11.41,46.678-25.949,56.08,18.168-10.73,34.194-26.3,36.9-64.42l1.048-35.052Z" transform="translate(-326.812 -215.949)" fill="#d1ebff"/>
      <path id="Trazado_119619" data-name="Trazado 119619" d="M412.24,273.38l-.74-.42c-19.409-10.978-38.381-29.707-54.286-53.572l-.213-.124-10.946,8.34.213.124c15.9,23.864,34.876,42.594,54.286,53.575l.74.418Z" transform="translate(-291.029 -209.718)" fill="#d1ebff"/>
      <path id="Trazado_119620" data-name="Trazado 119620" d="M382.86,246.4l-1.048,35.052c-2.4,33.912-11.41,46.678-25.949,56.08,18.168-10.73,34.194-26.3,36.9-64.42l1.048-35.052Z" transform="translate(-272.594 -174.394)" fill="#72b5e8"/>
      <path id="Trazado_119621" data-name="Trazado 119621" d="M368.735,344.454c-22.142-36.725-33.278-55.2-35.962-95.507l-.613-21.16c14.214,6.428,27.844,8.478,40.12,6.033,12.276,16.619,25.9,30.306,40.118,40.293l-.611,20.452c-2.687,37.212-13.823,42.827-35.965,53.989q-1.741.877-3.542,1.791Q370.471,347.344,368.735,344.454Z" transform="translate(-317.148 -193.697)" fill="#084c94"/>
      <path id="Trazado_119622" data-name="Trazado 119622" d="M377.634,346.953c-1.158.587-2.335,1.181-3.539,1.791q-1.81-3-3.548-5.889c-22.139-36.725-33.275-55.2-35.962-95.509l-.541-18.741c-.628-.268-1.253-.533-1.883-.818l.613,21.16c2.684,40.308,13.82,58.781,35.962,95.507q1.737,2.885,3.545,5.892,1.806-.916,3.542-1.791c9.034-4.556,16.233-8.187,21.777-13.417C392.326,339.541,385.717,342.882,377.634,346.953Z" transform="translate(-317.148 -193.697)" fill="#001a46"/>
      <path id="Trazado_119623" data-name="Trazado 119623" d="M436.69,281.561c-19.407-10.98-38.381-29.707-54.283-53.572l-.216-.124c-15.9,5.5-34.877,2.321-54.283-9.109l-.708.749c19.372,11.381,38.309,14.543,54.185,9.051l.213.124c15.9,23.864,34.877,42.594,54.283,53.575l.743.418-1.048,35.052c-2,28.141-8.536,41.722-19.012,50.9,10.949-9.192,17.774-22.738,19.821-51.593l1.045-35.052Z" transform="translate(-326.473 -210.671)" fill="#fff"/>
    </g>
    <g id="Grupo_82373" data-name="Grupo 82373" transform="translate(574.501 6684.054)">
      <path id="Trazado_119624" data-name="Trazado 119624" d="M438.076,314.9l-20.651-11.886c-2.149-1.241-1.88-3.408.6-4.841h0c2.481-1.432,10.69-1.44,12.839-.2l18.309,10.565c3.3,1.947.033,4.618-2.715,6.014h0C443.978,315.988,440.225,316.144,438.076,314.9Z" transform="translate(-415.974 -261.676)" fill="#92b4d1" opacity="0.2"/>
      <path id="Trazado_119625" data-name="Trazado 119625" d="M446.159,287.583,416.3,276.448v22.144a1.949,1.949,0,0,0,1.165,1.929l20.191,11.694a7.583,7.583,0,0,0,6.824-.283h0a2.869,2.869,0,0,0,1.669-2.152l.01,0Z" transform="translate(-416.01 -259.32)" fill="#a8cff0"/>
      <path id="Trazado_119626" data-name="Trazado 119626" d="M437.657,289.569l-20.191-11.693c-1.749-1.01-1.53-2.774.49-3.94h0a7.583,7.583,0,0,1,6.824-.283l20.191,11.694c1.749,1.01,1.53,2.773-.49,3.94h0A7.586,7.586,0,0,1,437.657,289.569Z" transform="translate(-416.01 -258.923)" fill="#d1ebff"/>
      <path id="Trazado_119627" data-name="Trazado 119627" d="M444.481,289.4a7.586,7.586,0,0,1-6.824.283l-20.191-11.694a2.086,2.086,0,0,1-1.168-1.561,1.956,1.956,0,0,0,1.168,1.9l20.191,11.694a7.586,7.586,0,0,0,6.824-.283c1.177-.679,1.738-1.561,1.659-2.379A2.97,2.97,0,0,1,444.481,289.4Z" transform="translate(-416.01 -259.318)" fill="#fff"/>
      <g id="Grupo_82347" data-name="Grupo 82347" transform="translate(4.529)">
        <path id="Trazado_119628" data-name="Trazado 119628" d="M433.768,258.253h0a8.458,8.458,0,0,0-12.681,7.329v9.174h0l0,.013c0,.9,1.243,1.624,2.777,1.624s2.776-.725,2.776-1.617c0-.011,0-.02,0-.032h.03v-7.977a3.584,3.584,0,0,1,5.37-3.108h0a8.938,8.938,0,0,1,4.486,7.75v12.232h.029c.031.878,1.26,1.584,2.774,1.584s2.76-.715,2.775-1.6h0V272.672A16.641,16.641,0,0,0,433.768,258.253Z" transform="translate(-421.087 -257.111)" fill="#084c94"/>
        <g id="Grupo_82345" data-name="Grupo 82345" transform="translate(11.999 5.118)">
          <path id="Trazado_119629" data-name="Trazado 119629" d="M435.151,263.149a4.951,4.951,0,0,0-.517-.26,9.746,9.746,0,0,1,4.3,8.066v14.354a3.367,3.367,0,0,0,1.084.4V271.568A9.74,9.74,0,0,0,435.151,263.149Z" transform="translate(-434.634 -262.889)" fill="#2672ab"/>
        </g>
        <g id="Grupo_82346" data-name="Grupo 82346" transform="translate(2.305 3.906)">
          <path id="Trazado_119630" data-name="Trazado 119630" d="M428.262,261.52a4.55,4.55,0,0,0-4.545,4.545v9.58l-.028.994a3.9,3.9,0,0,0,1.592-.19l.028-.994v-9.581a4.552,4.552,0,0,1,3.212-4.345C428.435,261.524,428.348,261.52,428.262,261.52Z" transform="translate(-423.689 -261.52)" fill="#03336e"/>
        </g>
        <path id="Trazado_119631" data-name="Trazado 119631" d="M430.815,259.176a8.787,8.787,0,0,1,4.129,1.035,15.689,15.689,0,0,0-1.531-1.008,7.394,7.394,0,0,0-3.733-1.014,7.533,7.533,0,0,0-7.517,7.516v.021A9.077,9.077,0,0,1,430.815,259.176Z" transform="translate(-421.21 -257.234)" fill="#2672ab"/>
        <path id="Trazado_119632" data-name="Trazado 119632" d="M442.393,276.035l0,10.735a3.429,3.429,0,0,0,1.39-.483.915.915,0,0,0,.1-.376v-10.95C443.877,270.226,442.393,271.21,442.393,276.035Z" transform="translate(-423.521 -258.797)" fill="#03336e"/>
      </g>
      <path id="Trazado_119633" data-name="Trazado 119633" d="M432.678,295.478a6.031,6.031,0,0,0-2.737-4.722c-1.512-.873-2.738-.174-2.738,1.561a5.955,5.955,0,0,0,1.384,3.528v5.5l2.707,1.563v-5.5C432.12,297.343,432.678,296.647,432.678,295.478Z" transform="translate(-417.257 -260.911)" fill="#084c94"/>
      <path id="Trazado_119634" data-name="Trazado 119634" d="M429.06,301.142v-5.5a5.953,5.953,0,0,1-1.384-3.528,1.954,1.954,0,0,1,.718-1.7c-.719.152-1.19.827-1.19,1.9a5.955,5.955,0,0,0,1.384,3.528v5.5l2.707,1.563v-.476Z" transform="translate(-417.257 -260.915)" fill="#001a46"/>
    </g>
    <g id="Grupo_82374" data-name="Grupo 82374" transform="translate(558.077 6609.504)">
      <path id="Trazado_119642" data-name="Trazado 119642" d="M395.25,198.281,368.5,183.258c-1.464-.845-1.28-2.322.41-3.3h0c1.69-.976,7.282-.981,8.745-.136l25.156,14.123c2.247,1.326.023,3.146-1.849,4.1h0A6.348,6.348,0,0,1,395.25,198.281Z" transform="translate(-363.491 -153.493)" fill="#92b4d1" opacity="0.2"/>
      <path id="Trazado_119643" data-name="Trazado 119643" d="M395.5,195.8l-29.485-17.05a7.285,7.285,0,0,1-3.043-5.814V153.668c0-2.241,1.362-3.271,3.043-2.3L395.5,168.417a7.29,7.29,0,0,1,3.043,5.815V193.5C398.544,195.74,397.182,196.77,395.5,195.8Z" transform="translate(-362.973 -150.271)" fill="#a8cff0"/>
      <path id="Trazado_119644" data-name="Trazado 119644" d="M396.114,180.977,367.092,164.2a5.175,5.175,0,0,1-2.189-4.335v-5.008a.539.539,0,0,1,.812-.464l.095.055,29.057,16.8a4.68,4.68,0,0,1,2.19,4.335v4.928a.582.582,0,0,1-.871.5Z" transform="translate(-363.193 -150.65)" fill="#084c94"/>
      <path id="Trazado_119645" data-name="Trazado 119645" d="M396.114,195.361l-29.022-16.779a5.175,5.175,0,0,1-2.189-4.335v-5.008a.539.539,0,0,1,.812-.464l.095.055,29.057,16.8a4.68,4.68,0,0,1,2.19,4.335V194.9a.582.582,0,0,1-.871.5Z" transform="translate(-363.193 -152.293)" fill="#084c94"/>
      <path id="Trazado_119646" data-name="Trazado 119646" d="M396.672,180.62l-.071-.041L367.578,163.8a5.173,5.173,0,0,1-2.189-4.335v-5.007a.529.529,0,0,1,.019-.137.536.536,0,0,0-.5.535v5.008a5.175,5.175,0,0,0,2.189,4.335l29.022,16.779.072.041a.581.581,0,0,0,.841-.329A.569.569,0,0,1,396.672,180.62Z" transform="translate(-363.193 -150.65)" fill="#001a46"/>
      <path id="Trazado_119647" data-name="Trazado 119647" d="M396.672,195l-.071-.041-29.023-16.78a5.173,5.173,0,0,1-2.189-4.335v-5.007a.529.529,0,0,1,.019-.137.536.536,0,0,0-.5.535v5.008a5.175,5.175,0,0,0,2.189,4.335l29.022,16.779.072.041a.581.581,0,0,0,.841-.329A.569.569,0,0,1,396.672,195Z" transform="translate(-363.193 -152.293)" fill="#001a46"/>
      <path id="Trazado_119648" data-name="Trazado 119648" d="M397.083,167.592,367.6,150.542a2.06,2.06,0,0,0-1.781-.261c-.064.025-1.483.748-1.542.781l0,0a1.992,1.992,0,0,1,1.894.21l29.485,17.049a7.291,7.291,0,0,1,3.044,5.815v19.267c0,1.4-.531,2.325-1.338,2.588a.51.51,0,0,0,.267-.09c.038-.022,1.53-.815,1.567-.841a2.812,2.812,0,0,0,.938-2.389V173.406A7.288,7.288,0,0,0,397.083,167.592Z" transform="translate(-363.121 -150.177)" fill="#3f92d1"/>
      <path id="Trazado_119649" data-name="Trazado 119649" d="M397.083,167.592,367.6,150.542a2.06,2.06,0,0,0-1.781-.261c-.064.025-1.483.748-1.542.781l0,0a1.992,1.992,0,0,1,1.894.21l29.485,17.049Z" transform="translate(-363.121 -150.177)" fill="#4f9fdb"/>
      <path id="Trazado_119650" data-name="Trazado 119650" d="M395.823,168.335l-29.486-17.05a2.018,2.018,0,0,0-1.833-.234,2.246,2.246,0,0,1,1.468.344l29.485,17.05a7.286,7.286,0,0,1,3.044,5.814v19.267a2.557,2.557,0,0,1-1.21,2.535c.939-.149,1.575-1.113,1.575-2.645V174.151A7.29,7.29,0,0,0,395.823,168.335Z" transform="translate(-363.148 -150.262)" fill="#fff" style="mix-blend-mode: screen;isolation: isolate"/>
      <g id="Grupo_82352" data-name="Grupo 82352" transform="translate(6.784 21.962)">
        <path id="Trazado_119651" data-name="Trazado 119651" d="M392,188.684a4.042,4.042,0,0,0,1.834,3.165c1.014.585,1.835.117,1.835-1.046a4.042,4.042,0,0,0-1.835-3.165C392.825,187.053,392,187.521,392,188.684Z" transform="translate(-373.073 -176.389)" fill="#001a46"/>
        <path id="Trazado_119652" data-name="Trazado 119652" d="M386.661,185.581a4.045,4.045,0,0,0,1.835,3.165c1.013.585,1.834.116,1.834-1.046a4.042,4.042,0,0,0-1.834-3.165C387.483,183.949,386.661,184.418,386.661,185.581Z" transform="translate(-372.463 -176.035)" fill="#001a46"/>
        <path id="Trazado_119653" data-name="Trazado 119653" d="M381.318,182.477a4.044,4.044,0,0,0,1.835,3.165c1.013.585,1.834.117,1.834-1.046a4.042,4.042,0,0,0-1.834-3.165C382.14,180.845,381.318,181.314,381.318,182.477Z" transform="translate(-371.853 -175.68)" fill="#001a46"/>
        <path id="Trazado_119654" data-name="Trazado 119654" d="M375.975,179.373a4.043,4.043,0,0,0,1.835,3.165c1.013.585,1.834.117,1.834-1.046a4.043,4.043,0,0,0-1.834-3.165C376.8,177.742,375.975,178.211,375.975,179.373Z" transform="translate(-371.242 -175.326)" fill="#001a46"/>
        <path id="Trazado_119655" data-name="Trazado 119655" d="M370.632,176.27a4.045,4.045,0,0,0,1.835,3.165c1.013.585,1.834.116,1.834-1.046a4.042,4.042,0,0,0-1.834-3.165C371.454,174.638,370.632,175.107,370.632,176.27Z" transform="translate(-370.632 -174.971)" fill="#001a46"/>
      </g>
      <g id="Grupo_82353" data-name="Grupo 82353" transform="translate(6.216 22)">
        <path id="Trazado_119656" data-name="Trazado 119656" d="M391.363,188.727a4.042,4.042,0,0,0,1.834,3.165c1.013.585,1.835.117,1.835-1.046a4.044,4.044,0,0,0-1.835-3.165C392.184,187.1,391.363,187.564,391.363,188.727Z" transform="translate(-372.432 -176.432)" fill="#a8cff0"/>
        <path id="Trazado_119657" data-name="Trazado 119657" d="M386.02,185.623a4.042,4.042,0,0,0,1.834,3.165c1.014.585,1.835.117,1.835-1.046a4.043,4.043,0,0,0-1.835-3.165C386.841,183.992,386.02,184.461,386.02,185.623Z" transform="translate(-371.822 -176.078)" fill="#a8cff0"/>
        <path id="Trazado_119658" data-name="Trazado 119658" d="M380.677,182.52a4.042,4.042,0,0,0,1.835,3.165c1.013.585,1.834.116,1.834-1.046a4.042,4.042,0,0,0-1.834-3.165C381.5,180.888,380.677,181.357,380.677,182.52Z" transform="translate(-371.212 -175.723)" fill="#a8cff0"/>
        <path id="Trazado_119659" data-name="Trazado 119659" d="M375.334,179.416a4.044,4.044,0,0,0,1.835,3.165c1.013.585,1.834.117,1.834-1.046a4.043,4.043,0,0,0-1.834-3.165C376.156,177.784,375.334,178.253,375.334,179.416Z" transform="translate(-370.601 -175.368)" fill="#a8cff0"/>
        <path id="Trazado_119660" data-name="Trazado 119660" d="M369.991,176.312a4.043,4.043,0,0,0,1.835,3.165c1.013.585,1.834.117,1.834-1.046a4.044,4.044,0,0,0-1.834-3.165C370.813,174.681,369.991,175.15,369.991,176.312Z" transform="translate(-369.991 -175.014)" fill="#a8cff0"/>
      </g>
      <g id="Grupo_82354" data-name="Grupo 82354" transform="translate(6.784 8.901)">
        <path id="Trazado_119661" data-name="Trazado 119661" d="M392,173.939a4.042,4.042,0,0,0,1.834,3.165c1.014.585,1.835.117,1.835-1.046a4.042,4.042,0,0,0-1.835-3.165C392.825,172.308,392,172.776,392,173.939Z" transform="translate(-373.073 -161.644)" fill="#001a46"/>
        <path id="Trazado_119662" data-name="Trazado 119662" d="M386.661,170.836A4.042,4.042,0,0,0,388.5,174c1.013.585,1.834.117,1.834-1.046a4.044,4.044,0,0,0-1.834-3.165C387.483,169.2,386.661,169.673,386.661,170.836Z" transform="translate(-372.463 -161.29)" fill="#001a46"/>
        <path id="Trazado_119663" data-name="Trazado 119663" d="M381.318,167.732a4.044,4.044,0,0,0,1.835,3.165c1.013.585,1.834.117,1.834-1.046a4.042,4.042,0,0,0-1.834-3.165C382.14,166.1,381.318,166.569,381.318,167.732Z" transform="translate(-371.853 -160.935)" fill="#001a46"/>
        <path id="Trazado_119664" data-name="Trazado 119664" d="M375.975,164.628a4.043,4.043,0,0,0,1.835,3.165c1.013.586,1.834.117,1.834-1.046a4.043,4.043,0,0,0-1.834-3.165C376.8,163,375.975,163.465,375.975,164.628Z" transform="translate(-371.242 -160.581)" fill="#001a46"/>
        <path id="Trazado_119665" data-name="Trazado 119665" d="M370.632,161.525a4.045,4.045,0,0,0,1.835,3.165c1.013.585,1.834.116,1.834-1.047a4.042,4.042,0,0,0-1.834-3.164C371.454,159.893,370.632,160.362,370.632,161.525Z" transform="translate(-370.632 -160.226)" fill="#001a46"/>
      </g>
      <g id="Grupo_82355" data-name="Grupo 82355" transform="translate(6.216 8.939)">
        <path id="Trazado_119666" data-name="Trazado 119666" d="M391.363,173.982a4.043,4.043,0,0,0,1.834,3.165c1.013.585,1.835.117,1.835-1.046a4.043,4.043,0,0,0-1.835-3.165C392.184,172.35,391.363,172.819,391.363,173.982Z" transform="translate(-372.432 -161.687)" fill="#a8cff0"/>
        <path id="Trazado_119667" data-name="Trazado 119667" d="M386.02,170.878a4.042,4.042,0,0,0,1.834,3.165c1.014.585,1.835.117,1.835-1.046a4.042,4.042,0,0,0-1.835-3.165C386.841,169.247,386.02,169.715,386.02,170.878Z" transform="translate(-371.822 -161.332)" fill="#a8cff0"/>
        <path id="Trazado_119668" data-name="Trazado 119668" d="M380.677,167.775a4.043,4.043,0,0,0,1.835,3.165c1.013.585,1.834.116,1.834-1.046a4.042,4.042,0,0,0-1.834-3.165C381.5,166.143,380.677,166.612,380.677,167.775Z" transform="translate(-371.212 -160.978)" fill="#a8cff0"/>
        <path id="Trazado_119669" data-name="Trazado 119669" d="M375.334,164.671a4.044,4.044,0,0,0,1.835,3.165c1.013.585,1.834.117,1.834-1.046a4.042,4.042,0,0,0-1.834-3.165C376.156,163.039,375.334,163.508,375.334,164.671Z" transform="translate(-370.601 -160.623)" fill="#a8cff0"/>
        <path id="Trazado_119670" data-name="Trazado 119670" d="M369.991,161.567a4.043,4.043,0,0,0,1.835,3.165c1.013.585,1.834.117,1.834-1.046a4.043,4.043,0,0,0-1.834-3.165C370.813,159.936,369.991,160.4,369.991,161.567Z" transform="translate(-369.991 -160.269)" fill="#a8cff0"/>
      </g>
    </g>
    <g id="Grupo_82375" data-name="Grupo 82375" transform="translate(703.965 6574.741)">
      <g id="Grupo_82357" data-name="Grupo 82357">
        <path id="Trazado_119671" data-name="Trazado 119671" d="M577.379,229.657,553.25,215.593a7.288,7.288,0,0,1-3.043-5.815V178.3c0-2.241,1.362-3.271,3.043-2.3l24.129,14.064a7.288,7.288,0,0,1,3.043,5.815v31.482C580.422,229.6,579.06,230.628,577.379,229.657Z" transform="translate(-550.207 -174.899)" fill="#a8cff0"/>
        <path id="Trazado_119672" data-name="Trazado 119672" d="M577.992,228.279l-23.666-13.794a5.175,5.175,0,0,1-2.19-4.335V179.482a.54.54,0,0,1,.813-.464l.095.055,23.7,13.818a4.68,4.68,0,0,1,2.189,4.336v30.587a.582.582,0,0,1-.871.506Z" transform="translate(-550.427 -175.278)" fill="#084c94"/>
        <path id="Trazado_119673" data-name="Trazado 119673" d="M578.549,227.922l-.071-.041-23.666-13.793a5.175,5.175,0,0,1-2.189-4.335V179.085a.529.529,0,0,1,.019-.137.537.537,0,0,0-.506.535v30.668a5.175,5.175,0,0,0,2.19,4.335l23.666,13.794.071.041a.582.582,0,0,0,.842-.33A.567.567,0,0,1,578.549,227.922Z" transform="translate(-550.427 -175.278)" fill="#001a46"/>
        <path id="Trazado_119674" data-name="Trazado 119674" d="M578.96,189.234,554.832,175.17a2.06,2.06,0,0,0-1.781-.261c-.064.025-1.483.748-1.543.781l0,0a1.987,1.987,0,0,1,1.893.209l24.129,14.064a7.288,7.288,0,0,1,3.044,5.815v31.482c0,1.4-.531,2.325-1.338,2.589a.5.5,0,0,0,.267-.091c.038-.022,1.531-.815,1.567-.841a2.809,2.809,0,0,0,.938-2.389V195.049A7.288,7.288,0,0,0,578.96,189.234Z" transform="translate(-550.355 -174.805)" fill="#3f92d1"/>
        <path id="Trazado_119675" data-name="Trazado 119675" d="M578.96,189.234,554.832,175.17a2.06,2.06,0,0,0-1.781-.261c-.064.025-1.483.748-1.543.781l0,0a1.987,1.987,0,0,1,1.893.209l24.129,14.064Z" transform="translate(-550.355 -174.805)" fill="#4f9fdb"/>
        <path id="Trazado_119676" data-name="Trazado 119676" d="M577.7,189.978l-24.129-14.065a2.018,2.018,0,0,0-1.833-.234,2.248,2.248,0,0,1,1.468.344l24.129,14.064a7.291,7.291,0,0,1,3.044,5.815v31.482a2.556,2.556,0,0,1-1.211,2.535c.939-.149,1.576-1.113,1.576-2.644V195.793A7.286,7.286,0,0,0,577.7,189.978Z" transform="translate(-550.382 -174.89)" fill="#fff" style="mix-blend-mode: screen;isolation: isolate"/>
      </g>
      <g id="Grupo_82358" data-name="Grupo 82358" transform="translate(14.831 25.653)">
        <path id="Trazado_119677" data-name="Trazado 119677" d="M567.482,214.122a.591.591,0,0,1-.118-.012.532.532,0,0,1-.4-.636,40.887,40.887,0,0,0,.935-8.965V204.3a.531.531,0,1,1,1.063,0v.212a41.97,41.97,0,0,1-.962,9.2A.532.532,0,0,1,567.482,214.122Z" transform="translate(-566.95 -203.766)" fill="#a8cff0"/>
      </g>
      <g id="Grupo_82359" data-name="Grupo 82359" transform="translate(11.04 22.039)">
        <path id="Trazado_119678" data-name="Trazado 119678" d="M563.2,217.249a.509.509,0,0,1-.125-.016.531.531,0,0,1-.392-.641,70.843,70.843,0,0,0,1.581-14.574,2.755,2.755,0,0,1,.888-2.213.531.531,0,1,1,.667.826,1.744,1.744,0,0,0-.493,1.386,72,72,0,0,1-1.61,14.825A.531.531,0,0,1,563.2,217.249Z" transform="translate(-562.671 -199.686)" fill="#a8cff0"/>
      </g>
      <g id="Grupo_82360" data-name="Grupo 82360" transform="translate(15.642 22.124)">
        <path id="Trazado_119679" data-name="Trazado 119679" d="M571.4,206.031a.531.531,0,0,1-.531-.531,6.139,6.139,0,0,0-2.741-4.726.531.531,0,1,1,.531-.92,7.111,7.111,0,0,1,3.272,5.646A.531.531,0,0,1,571.4,206.031Z" transform="translate(-567.866 -199.782)" fill="#a8cff0"/>
      </g>
      <g id="Grupo_82361" data-name="Grupo 82361" transform="translate(16.48 31.621)">
        <path id="Trazado_119680" data-name="Trazado 119680" d="M569.344,222.428a.522.522,0,0,1-.121-.014.531.531,0,0,1-.4-.638,105.379,105.379,0,0,0,1.871-10.8.531.531,0,0,1,1.056.121,106.709,106.709,0,0,1-1.892,10.921A.53.53,0,0,1,569.344,222.428Z" transform="translate(-568.812 -210.504)" fill="#a8cff0"/>
      </g>
      <g id="Grupo_82362" data-name="Grupo 82362" transform="translate(5.757 14.332)">
        <path id="Trazado_119681" data-name="Trazado 119681" d="M574.335,221.2a.525.525,0,0,1-.136-.018.532.532,0,0,1-.377-.65,48.883,48.883,0,0,0,1.517-12.515v-.212c0-5.364-3.8-11.926-8.48-14.626-2.175-1.257-4.19-1.476-5.672-.62s-2.277,2.675-2.277,5.146a51.539,51.539,0,0,1-1.151,11.147.532.532,0,1,1-1.038-.23,50.479,50.479,0,0,0,1.127-10.917c0-2.867,1-5.021,2.808-6.067s4.216-.834,6.735.62c4.969,2.869,9.011,9.843,9.011,15.546v.212a49.925,49.925,0,0,1-1.552,12.788A.531.531,0,0,1,574.335,221.2Z" transform="translate(-556.707 -190.985)" fill="#a8cff0"/>
      </g>
      <g id="Grupo_82363" data-name="Grupo 82363" transform="translate(8.221 30.2)">
        <path id="Trazado_119682" data-name="Trazado 119682" d="M560.02,215.057a.531.531,0,0,1-.515-.664,46.2,46.2,0,0,0,.992-5.037.541.541,0,0,1,.6-.452.531.531,0,0,1,.451.6,47.229,47.229,0,0,1-1.014,5.153A.532.532,0,0,1,560.02,215.057Z" transform="translate(-559.489 -208.899)" fill="#a8cff0"/>
      </g>
      <g id="Grupo_82364" data-name="Grupo 82364" transform="translate(9.419 19.269)">
        <path id="Trazado_119683" data-name="Trazado 119683" d="M561.372,207.012a.447.447,0,0,1-.059,0,.531.531,0,0,1-.469-.586,58.289,58.289,0,0,0,.344-6.419,5.533,5.533,0,0,1,.884-3.221.532.532,0,0,1,.867.616A4.49,4.49,0,0,0,562.25,200a59.516,59.516,0,0,1-.35,6.536A.532.532,0,0,1,561.372,207.012Z" transform="translate(-560.84 -196.558)" fill="#a8cff0"/>
      </g>
      <g id="Grupo_82365" data-name="Grupo 82365" transform="translate(12.189 18.026)">
        <path id="Trazado_119684" data-name="Trazado 119684" d="M573.016,203.27a.533.533,0,0,1-.494-.336,12.352,12.352,0,0,0-4.834-5.982,4.157,4.157,0,0,0-3.054-.649.532.532,0,1,1-.267-1.029,5.178,5.178,0,0,1,3.852.758,13.266,13.266,0,0,1,5.291,6.51.533.533,0,0,1-.493.728Z" transform="translate(-563.968 -195.155)" fill="#a8cff0"/>
      </g>
      <g id="Grupo_82366" data-name="Grupo 82366" transform="translate(19.348 28.967)">
        <path id="Trazado_119685" data-name="Trazado 119685" d="M572.582,223.069a.526.526,0,0,1-.167-.027.532.532,0,0,1-.337-.672l.118-.353a43.813,43.813,0,0,0,2.026-13.766v-.212a.531.531,0,1,1,1.062,0v.212a44.887,44.887,0,0,1-2.079,14.1l-.118.354A.533.533,0,0,1,572.582,223.069Z" transform="translate(-572.05 -207.508)" fill="#a8cff0"/>
      </g>
    </g>
  </g>
</svg>
