<svg xmlns="http://www.w3.org/2000/svg" width="220.957" height="178.23" viewBox="0 0 220.957 178.23">
  <g id="Grupo_955836" data-name="Grupo 955836" transform="translate(-326.947 -109.242)">
    <g id="Grupo_82343" data-name="Grupo 82343" transform="translate(368.362 109.242)">
      <g id="Grupo_82342" data-name="Grupo 82342">
        <path id="Trazado_119600" data-name="Trazado 119600" d="M457.134,286.1,377.61,240.183c-3.14-1.813-2.746-4.98.88-7.073l45.132-26.057c3.626-2.093,9.112-2.321,12.252-.508L515.4,252.458c3.14,1.813,2.746,4.98-.88,7.073l-45.131,26.057C465.759,287.683,460.274,287.909,457.134,286.1Z" transform="translate(-375.49 -123.352)" fill="#92b4d1" opacity="0.2"/>
        <path id="Trazado_119601" data-name="Trazado 119601" d="M457.134,280.842,377.61,234.929a3.662,3.662,0,0,1-2.119-3.016c0-.036,0-3.9,0-3.939.025-1.375,1.041,1.012,3-.119L423.621,201.8c3.626-2.094,9.112-2.321,12.252-.508L515.4,247.2c1.049.6,1.809-1.964,2.081-1.147.091.272.033,3.877.038,4.158.031,1.409-.986,2.9-3,4.063l-45.131,26.056C465.759,282.428,460.274,282.655,457.134,280.842Z" transform="translate(-375.49 -122.58)" fill="#2672ab"/>
        <path id="Trazado_119602" data-name="Trazado 119602" d="M457.134,276.31,377.61,230.4c-3.14-1.813-2.746-4.98.88-7.073l45.132-26.057c3.626-2.094,9.112-2.321,12.252-.508L515.4,242.672c3.14,1.813,2.746,4.98-.88,7.073L469.386,275.8C465.759,277.9,460.274,278.123,457.134,276.31Z" transform="translate(-375.49 -121.914)" fill="#d1ebff"/>
        <path id="Trazado_119603" data-name="Trazado 119603" d="M471.187,293.993c3.14,1.813,8.625,1.585,12.252-.508v-3.866c-3.627,2.094-9.112,2.321-12.252.508Z" transform="translate(-389.543 -135.73)" fill="#3f92d1" opacity="0.5"/>
        <path id="Trazado_119604" data-name="Trazado 119604" d="M457.134,281.742,377.61,235.829a3.545,3.545,0,0,1-2.1-3.306,1.613,1.613,0,0,0-.016.217c0,.037,0,3.9,0,3.94a3.662,3.662,0,0,0,2.119,3.016l79.524,45.913Z" transform="translate(-375.49 -127.346)" fill="#3f92d1"/>
        <path id="Trazado_119605" data-name="Trazado 119605" d="M514.517,254.5l-45.131,26.057c-3.627,2.094-9.112,2.321-12.252.508L377.61,235.149a3.753,3.753,0,0,1-2.1-2.783c-.164,1.283.522,2.531,2.1,3.44l79.524,45.913c3.14,1.813,8.625,1.585,12.252-.508l45.131-26.056c2.122-1.225,3.128-2.817,2.976-4.29C517.33,252.141,516.327,253.453,514.517,254.5Z" transform="translate(-375.49 -127.323)" fill="#fff"/>
        <path id="Trazado_119606" data-name="Trazado 119606" d="M445.032,267.272l-28.3-16.34c-.566-.328-.5-.9.159-1.276l10.626-6.135a2.456,2.456,0,0,1,2.211-.091l28.3,16.34c.567.328.5.9-.159,1.277l-10.626,6.134A2.458,2.458,0,0,1,445.032,267.272Z" transform="translate(-381.49 -128.915)" fill="#fff" opacity="0.3"/>
        <path id="Trazado_119607" data-name="Trazado 119607" d="M416.889,250.326l10.626-6.135a2.462,2.462,0,0,1,2.211-.091l28.3,16.34a.853.853,0,0,1,.262.229.592.592,0,0,0-.262-.9l-28.3-16.34a2.456,2.456,0,0,0-2.211.091l-10.626,6.135c-.52.3-.665.722-.42,1.047A1.231,1.231,0,0,1,416.889,250.326Z" transform="translate(-381.491 -128.915)" fill="#a8cff0"/>
        <path id="Trazado_119608" data-name="Trazado 119608" d="M435.5,203.618l4.877,2.815a2.474,2.474,0,0,0,2.239,0,.682.682,0,0,0-.007-1.293l-4.877-2.816a2.475,2.475,0,0,0-2.24,0A.683.683,0,0,0,435.5,203.618Zm8.351,4.821,2.31,1.334a2.475,2.475,0,0,0,2.24,0,.682.682,0,0,0-.007-1.293l-2.31-1.333a2.475,2.475,0,0,0-2.24,0A.682.682,0,0,0,443.855,208.439Zm5.784,3.339,2.31,1.334a2.475,2.475,0,0,0,2.24,0,.683.683,0,0,0-.008-1.293l-2.31-1.333a2.473,2.473,0,0,0-2.239,0A.682.682,0,0,0,449.639,211.778Zm5.784,3.34,2.311,1.333a2.473,2.473,0,0,0,2.239,0,.683.683,0,0,0-.007-1.293l-2.31-1.333a2.475,2.475,0,0,0-2.24,0A.683.683,0,0,0,455.423,215.118Zm5.784,3.339,2.31,1.333a2.475,2.475,0,0,0,2.24,0,.682.682,0,0,0-.007-1.293l-2.311-1.334a2.473,2.473,0,0,0-2.239,0A.683.683,0,0,0,461.207,218.457Zm5.784,3.339,2.31,1.334a2.476,2.476,0,0,0,2.239,0,.682.682,0,0,0-.007-1.293l-2.31-1.334a2.478,2.478,0,0,0-2.24,0A.682.682,0,0,0,466.991,221.8Zm5.784,3.339,2.31,1.334a2.478,2.478,0,0,0,2.24,0,.683.683,0,0,0-.007-1.293l-2.31-1.333a2.475,2.475,0,0,0-2.24,0A.682.682,0,0,0,472.775,225.136Zm5.784,3.339,2.31,1.334a2.475,2.475,0,0,0,2.24,0,.683.683,0,0,0-.008-1.293l-2.31-1.333a2.473,2.473,0,0,0-2.239,0A.682.682,0,0,0,478.559,228.475Zm5.784,3.34,2.31,1.333a2.473,2.473,0,0,0,2.239,0,.682.682,0,0,0-.007-1.293l-2.31-1.334a2.475,2.475,0,0,0-2.24,0A.683.683,0,0,0,484.344,231.815Zm5.784,3.339,2.31,1.333a2.475,2.475,0,0,0,2.24,0,.682.682,0,0,0-.007-1.293l-2.31-1.334a2.475,2.475,0,0,0-2.24,0A.683.683,0,0,0,490.127,235.154Zm5.784,3.339,2.31,1.334a2.475,2.475,0,0,0,2.24,0,.682.682,0,0,0-.008-1.293l-2.31-1.333a2.473,2.473,0,0,0-2.239,0A.682.682,0,0,0,495.911,238.494Zm5.784,3.339,2.311,1.334a2.474,2.474,0,0,0,2.239,0,.683.683,0,0,0-.007-1.293l-2.31-1.333a2.475,2.475,0,0,0-2.24,0A.682.682,0,0,0,501.7,241.833Zm5.9,3.409,2.31,1.334a2.478,2.478,0,0,0,2.24,0,.682.682,0,0,0-.007-1.293l-2.311-1.334a2.476,2.476,0,0,0-2.239,0A.682.682,0,0,0,507.6,245.242ZM430.3,206.8l2,1.155a2.818,2.818,0,0,0,2.548,0l1.988-1.147a.777.777,0,0,0-.008-1.472l-2-1.154a2.819,2.819,0,0,0-2.549-.005l-1.987,1.148A.776.776,0,0,0,430.3,206.8Zm10.333,4.5,1.988-1.147a.776.776,0,0,0-.008-1.471l-2-1.155a2.815,2.815,0,0,0-2.548,0l-1.988,1.147a.776.776,0,0,0,.008,1.471l2,1.155A2.815,2.815,0,0,0,440.634,211.3Zm1.235,2.181,2,1.154a2.815,2.815,0,0,0,2.548,0l1.988-1.148a.776.776,0,0,0-.009-1.471l-2-1.155a2.815,2.815,0,0,0-2.548,0l-1.988,1.148A.777.777,0,0,0,441.87,213.479Zm5.784,3.339,2,1.154a2.818,2.818,0,0,0,2.548.005l1.988-1.147a.777.777,0,0,0-.008-1.472l-2-1.155a2.818,2.818,0,0,0-2.548,0l-1.988,1.147A.777.777,0,0,0,447.654,216.818Zm12.312,1.879-2-1.154a2.815,2.815,0,0,0-2.548-.005l-1.988,1.147a.777.777,0,0,0,.008,1.472l2,1.154a2.815,2.815,0,0,0,2.548.005l1.988-1.147A.777.777,0,0,0,459.966,218.7Zm5.784,3.339-2-1.154a2.817,2.817,0,0,0-2.548-.005l-1.988,1.148a.776.776,0,0,0,.008,1.471l2,1.155a2.818,2.818,0,0,0,2.548,0l1.987-1.147A.777.777,0,0,0,465.75,222.037Zm5.784,3.34-2-1.155a2.815,2.815,0,0,0-2.548,0L465,225.365a.776.776,0,0,0,.009,1.471l2,1.155a2.815,2.815,0,0,0,2.548,0l1.988-1.147A.776.776,0,0,0,471.534,225.377Zm5.784,3.339-2-1.155a2.817,2.817,0,0,0-2.548,0l-1.988,1.147a.777.777,0,0,0,.008,1.472l2,1.154a2.818,2.818,0,0,0,2.548.005l1.988-1.148A.776.776,0,0,0,477.318,228.716Zm5.784,3.339-2-1.155a2.819,2.819,0,0,0-2.549,0l-1.987,1.147a.777.777,0,0,0,.008,1.472l2,1.154a2.815,2.815,0,0,0,2.548.005l1.988-1.147A.777.777,0,0,0,483.1,232.056Zm5.784,3.339-2-1.154a2.818,2.818,0,0,0-2.548-.005l-1.988,1.148a.777.777,0,0,0,.008,1.472l2,1.155a2.818,2.818,0,0,0,2.548,0l1.988-1.147A.777.777,0,0,0,488.887,235.395Zm-.745,4.8,2,1.155a2.815,2.815,0,0,0,2.548,0l1.988-1.147a.777.777,0,0,0-.009-1.472l-2-1.154a2.818,2.818,0,0,0-2.548-.005l-1.988,1.148A.776.776,0,0,0,488.142,240.194Zm12.313,1.88-2-1.155a2.815,2.815,0,0,0-2.548,0l-1.988,1.147a.776.776,0,0,0,.009,1.471l2,1.155a2.818,2.818,0,0,0,2.548.005l1.988-1.148A.776.776,0,0,0,500.454,242.074Zm8.471,4.891-4.567-2.637a2.818,2.818,0,0,0-2.548-.005l-1.988,1.148a.776.776,0,0,0,.008,1.471l4.568,2.637a2.815,2.815,0,0,0,2.548,0l1.988-1.147A.776.776,0,0,0,508.925,246.965Zm-83.981-37.072,4.567,2.636a2.818,2.818,0,0,0,2.548.005l1.988-1.147a.777.777,0,0,0-.008-1.472l-4.568-2.637a2.815,2.815,0,0,0-2.548,0l-1.988,1.147A.777.777,0,0,0,424.945,209.893Zm8.351,4.821,2,1.155a2.817,2.817,0,0,0,2.548,0l1.988-1.147a.777.777,0,0,0-.009-1.472l-2-1.154a2.815,2.815,0,0,0-2.548-.005l-1.988,1.147A.777.777,0,0,0,433.3,214.715Zm7.784,4.494a2.815,2.815,0,0,0,2.548,0l1.988-1.147a.777.777,0,0,0-.008-1.472l-2-1.154a2.818,2.818,0,0,0-2.548-.005l-1.988,1.148a.776.776,0,0,0,.009,1.471Zm5.784,3.339a2.815,2.815,0,0,0,2.548,0L451.4,221.4a.776.776,0,0,0-.008-1.471l-2-1.155a2.815,2.815,0,0,0-2.548,0l-1.988,1.147a.776.776,0,0,0,.008,1.471Zm5.764-.434-1.988,1.148a.777.777,0,0,0,.008,1.472l2,1.154a2.819,2.819,0,0,0,2.549.005l1.987-1.148a.776.776,0,0,0-.008-1.471l-2-1.155A2.818,2.818,0,0,0,452.628,222.114Zm5.906,3.268-2.232,1.289a.7.7,0,0,0,.007,1.33l2.246,1.3a2.546,2.546,0,0,0,2.3,0l2.232-1.288a.7.7,0,0,0-.007-1.33l-2.246-1.3A2.546,2.546,0,0,0,458.533,225.382Zm5.784,3.34-2.232,1.288a.7.7,0,0,0,.007,1.33l2.246,1.3a2.546,2.546,0,0,0,2.3,0l2.232-1.289a.7.7,0,0,0-.008-1.329l-2.245-1.3A2.546,2.546,0,0,0,464.318,228.722Zm5.784,3.339-2.233,1.288a.7.7,0,0,0,.008,1.33l2.246,1.3a2.544,2.544,0,0,0,2.3,0l2.233-1.289a.7.7,0,0,0-.008-1.329l-2.246-1.3A2.544,2.544,0,0,0,470.1,232.062Zm5.784,3.339-2.232,1.289a.7.7,0,0,0,.007,1.329l2.246,1.3a2.546,2.546,0,0,0,2.3,0l2.232-1.288a.7.7,0,0,0-.007-1.33l-2.246-1.3A2.545,2.545,0,0,0,475.885,235.4Zm5.784,3.339-2.233,1.289a.7.7,0,0,0,.008,1.329l2.246,1.3a2.544,2.544,0,0,0,2.3,0l2.233-1.288a.7.7,0,0,0-.008-1.33l-2.246-1.3A2.546,2.546,0,0,0,481.67,238.74ZM489.778,246l2.232-1.289a.7.7,0,0,0-.007-1.33l-2.246-1.3a2.546,2.546,0,0,0-2.3,0l-2.233,1.289a.7.7,0,0,0,.007,1.33l2.246,1.3A2.546,2.546,0,0,0,489.778,246Zm5.784,3.339,2.232-1.289a.7.7,0,0,0-.007-1.329l-2.246-1.3a2.546,2.546,0,0,0-2.3,0l-2.232,1.288a.7.7,0,0,0,.007,1.33l2.246,1.3A2.546,2.546,0,0,0,495.563,249.339Zm8.129.79-2.246-1.3a2.544,2.544,0,0,0-2.3,0l-2.233,1.289a.7.7,0,0,0,.008,1.329l2.246,1.3a2.546,2.546,0,0,0,2.3,0l2.233-1.288A.7.7,0,0,0,503.691,250.129Zm-84.227-37.214,7.252,4.186a2.546,2.546,0,0,0,2.3,0l2.232-1.288a.7.7,0,0,0-.007-1.33l-7.253-4.187a2.547,2.547,0,0,0-2.3,0l-2.233,1.289A.7.7,0,0,0,419.464,212.915Zm10.79,6.229,2.246,1.3a2.548,2.548,0,0,0,2.3,0l2.232-1.289a.7.7,0,0,0-.008-1.33l-2.246-1.3a2.546,2.546,0,0,0-2.3,0l-2.232,1.289A.7.7,0,0,0,430.254,219.144Zm5.784,3.34,2.246,1.3a2.544,2.544,0,0,0,2.3,0l2.233-1.289a.7.7,0,0,0-.008-1.329l-2.246-1.3a2.544,2.544,0,0,0-2.3,0l-2.233,1.288A.7.7,0,0,0,436.038,222.484Zm5.784,3.339,2.246,1.3a2.546,2.546,0,0,0,2.3,0l2.232-1.289a.7.7,0,0,0-.007-1.329l-2.246-1.3a2.546,2.546,0,0,0-2.3,0l-2.232,1.288A.7.7,0,0,0,441.822,225.823Zm10.333,4.64,2.233-1.288a.7.7,0,0,0-.008-1.33l-2.246-1.3a2.544,2.544,0,0,0-2.3,0l-2.233,1.289a.7.7,0,0,0,.008,1.329l2.246,1.3A2.544,2.544,0,0,0,452.155,230.464Zm5.784,3.339,2.232-1.288a.7.7,0,0,0-.007-1.33l-2.246-1.3a2.546,2.546,0,0,0-2.3,0l-2.232,1.289a.7.7,0,0,0,.008,1.329l2.246,1.3A2.546,2.546,0,0,0,457.939,233.8Zm5.784,3.34,2.232-1.289a.7.7,0,0,0-.007-1.33l-2.246-1.3a2.548,2.548,0,0,0-2.3,0l-2.232,1.289a.7.7,0,0,0,.007,1.33l2.246,1.3A2.548,2.548,0,0,0,463.724,237.143Zm5.784,3.339,2.233-1.289a.7.7,0,0,0-.008-1.329l-2.246-1.3a2.546,2.546,0,0,0-2.3,0l-2.233,1.288a.7.7,0,0,0,.008,1.33l2.246,1.3A2.544,2.544,0,0,0,469.507,240.482Zm5.784,3.339,2.232-1.289a.7.7,0,0,0-.007-1.329l-2.246-1.3a2.546,2.546,0,0,0-2.3,0l-2.232,1.288a.7.7,0,0,0,.007,1.33l2.246,1.3A2.546,2.546,0,0,0,475.292,243.822Zm5.784,3.339,2.232-1.288a.7.7,0,0,0-.008-1.33l-2.246-1.3a2.546,2.546,0,0,0-2.3,0l-2.232,1.289a.7.7,0,0,0,.007,1.329l2.246,1.3A2.546,2.546,0,0,0,481.076,247.161Zm1.235,2.039,2.246,1.3a2.544,2.544,0,0,0,2.3,0l2.233-1.288a.7.7,0,0,0-.008-1.33l-2.246-1.3a2.544,2.544,0,0,0-2.3,0L482.3,247.87A.7.7,0,0,0,482.311,249.2Zm16.024,4.023-5.712-3.3a2.548,2.548,0,0,0-2.3,0l-2.232,1.289a.7.7,0,0,0,.007,1.33l5.712,3.3a2.545,2.545,0,0,0,2.3,0l2.232-1.289A.7.7,0,0,0,498.334,253.222Zm-84.206-37.054,10.291,5.94a2.875,2.875,0,0,0,2.6.005L428.955,221a.793.793,0,0,0-.009-1.5l-10.29-5.941a2.877,2.877,0,0,0-2.6,0l-1.934,1.117A.793.793,0,0,0,414.129,216.168Zm14.127,8.156,1.947,1.124a2.875,2.875,0,0,0,2.6.005l1.934-1.117a.793.793,0,0,0-.008-1.5l-1.947-1.124a2.877,2.877,0,0,0-2.6-.005l-1.934,1.117A.793.793,0,0,0,428.256,224.324Zm5.784,3.339,1.947,1.124a2.876,2.876,0,0,0,2.6,0l1.935-1.117a.793.793,0,0,0-.009-1.5l-1.946-1.124a2.877,2.877,0,0,0-2.6-.005l-1.935,1.118A.792.792,0,0,0,434.04,227.664ZM439.825,231l1.946,1.124a2.874,2.874,0,0,0,2.6,0l1.934-1.117a.792.792,0,0,0-.008-1.5l-1.947-1.124a2.875,2.875,0,0,0-2.6,0l-1.934,1.117A.792.792,0,0,0,439.825,231Zm5.783,3.34,1.947,1.124a2.877,2.877,0,0,0,2.6.005l1.934-1.118a.792.792,0,0,0-.008-1.5l-1.947-1.124a2.877,2.877,0,0,0-2.6,0l-1.934,1.117A.793.793,0,0,0,445.608,234.343Zm5.784,3.339,1.947,1.124a2.875,2.875,0,0,0,2.6.005l1.935-1.117a.793.793,0,0,0-.009-1.5l-1.947-1.124a2.876,2.876,0,0,0-2.6,0l-1.935,1.117A.793.793,0,0,0,451.392,237.682Zm5.784,3.339,1.947,1.124a2.877,2.877,0,0,0,2.6,0l1.934-1.117a.793.793,0,0,0-.008-1.5l-1.947-1.124a2.877,2.877,0,0,0-2.6-.005l-1.934,1.117A.793.793,0,0,0,457.176,241.021Zm5.784,3.339,1.947,1.124a2.875,2.875,0,0,0,2.6,0l1.935-1.117a.793.793,0,0,0-.009-1.5l-1.946-1.124a2.874,2.874,0,0,0-2.6,0l-1.934,1.117A.792.792,0,0,0,462.96,244.361Zm5.784,3.34,1.946,1.124a2.877,2.877,0,0,0,2.6.005l1.935-1.118a.793.793,0,0,0-.009-1.5l-1.947-1.124a2.873,2.873,0,0,0-2.6,0l-1.935,1.117A.793.793,0,0,0,468.745,247.7Zm5.784,3.339,1.947,1.124a2.877,2.877,0,0,0,2.6.005l1.934-1.118a.793.793,0,0,0-.008-1.5l-1.947-1.124a2.877,2.877,0,0,0-2.6,0l-1.934,1.117A.793.793,0,0,0,474.528,251.04Zm5.784,3.339,1.947,1.124a2.873,2.873,0,0,0,2.6.005l1.935-1.117a.793.793,0,0,0-.009-1.5l-1.947-1.124a2.873,2.873,0,0,0-2.6-.005l-1.935,1.117A.793.793,0,0,0,480.312,254.379ZM492.7,256.3l-1.946-1.124a2.877,2.877,0,0,0-2.6-.005l-1.935,1.117a.793.793,0,0,0,.009,1.5l1.947,1.124a2.873,2.873,0,0,0,2.6.005l1.935-1.117A.793.793,0,0,0,492.7,256.3Zm-74.886-37.049-4.513-2.606a2.877,2.877,0,0,0-2.6-.005l-1.935,1.118a.792.792,0,0,0,.009,1.5l4.514,2.606a2.873,2.873,0,0,0,2.6,0l1.935-1.117A.793.793,0,0,0,417.813,219.253Zm5.784,3.339-1.947-1.124a2.875,2.875,0,0,0-2.6,0l-1.935,1.117a.793.793,0,0,0,.009,1.5l1.946,1.124a2.877,2.877,0,0,0,2.6.005l1.935-1.118A.793.793,0,0,0,423.6,222.593Zm5.784,3.339-1.947-1.124a2.875,2.875,0,0,0-2.6-.005L422.9,225.92a.793.793,0,0,0,.008,1.5l1.947,1.124a2.875,2.875,0,0,0,2.6.005l1.934-1.117A.793.793,0,0,0,429.382,225.932Zm40.488,23.375-36.651-21.16a2.875,2.875,0,0,0-2.6-.005l-1.935,1.117a.793.793,0,0,0,.009,1.5l36.65,21.161a2.875,2.875,0,0,0,2.6,0l1.935-1.117A.793.793,0,0,0,469.87,249.307Zm5.784,3.34-1.947-1.124a2.877,2.877,0,0,0-2.6,0l-1.934,1.117a.793.793,0,0,0,.008,1.5l1.947,1.124a2.877,2.877,0,0,0,2.6.005l1.934-1.118A.792.792,0,0,0,475.654,252.647Zm5.783,3.339-1.947-1.124a2.875,2.875,0,0,0-2.6,0l-1.935,1.117a.793.793,0,0,0,.009,1.5l1.947,1.124a2.875,2.875,0,0,0,2.6.005l1.935-1.117A.793.793,0,0,0,481.438,255.987Zm5.9,3.409-1.947-1.124a2.873,2.873,0,0,0-2.6,0l-1.935,1.117a.793.793,0,0,0,.009,1.5l1.946,1.124a2.875,2.875,0,0,0,2.6,0l1.935-1.117A.793.793,0,0,0,487.342,259.4Z" transform="translate(-380.298 -122.872)" fill="#72b5e8"/>
        <path id="Trazado_119609" data-name="Trazado 119609" d="M435.5,202.986l4.877,2.816a2.473,2.473,0,0,0,2.239,0,.683.683,0,0,0-.007-1.293l-4.877-2.815a2.475,2.475,0,0,0-2.24,0A.682.682,0,0,0,435.5,202.986Zm8.351,4.822,2.31,1.333a2.475,2.475,0,0,0,2.24,0,.682.682,0,0,0-.007-1.293l-2.31-1.334a2.475,2.475,0,0,0-2.24,0A.683.683,0,0,0,443.855,207.808Zm5.784,3.339,2.31,1.333a2.475,2.475,0,0,0,2.24,0,.682.682,0,0,0-.008-1.292l-2.31-1.334a2.473,2.473,0,0,0-2.239,0A.682.682,0,0,0,449.639,211.147Zm5.784,3.339,2.311,1.334a2.476,2.476,0,0,0,2.239,0,.682.682,0,0,0-.007-1.293l-2.31-1.334a2.478,2.478,0,0,0-2.24,0A.682.682,0,0,0,455.423,214.486Zm5.784,3.339,2.31,1.334a2.475,2.475,0,0,0,2.24,0,.683.683,0,0,0-.007-1.293l-2.311-1.333a2.473,2.473,0,0,0-2.239,0A.682.682,0,0,0,461.207,217.826Zm5.784,3.34,2.31,1.333a2.473,2.473,0,0,0,2.239,0,.683.683,0,0,0-.007-1.293l-2.31-1.333a2.475,2.475,0,0,0-2.24,0A.683.683,0,0,0,466.991,221.166Zm5.784,3.339,2.31,1.333a2.475,2.475,0,0,0,2.24,0,.682.682,0,0,0-.007-1.293l-2.31-1.334a2.475,2.475,0,0,0-2.24,0A.683.683,0,0,0,472.775,224.5Zm5.784,3.339,2.31,1.334a2.478,2.478,0,0,0,2.24,0,.682.682,0,0,0-.008-1.293l-2.31-1.334a2.476,2.476,0,0,0-2.239,0A.682.682,0,0,0,478.559,227.844Zm5.784,3.339,2.31,1.334a2.473,2.473,0,0,0,2.239,0,.682.682,0,0,0-.007-1.293l-2.31-1.333a2.475,2.475,0,0,0-2.24,0A.682.682,0,0,0,484.344,231.183Zm5.784,3.339,2.31,1.334a2.475,2.475,0,0,0,2.24,0,.683.683,0,0,0-.007-1.293l-2.31-1.333a2.475,2.475,0,0,0-2.24,0A.682.682,0,0,0,490.127,234.523Zm5.784,3.34,2.31,1.333a2.475,2.475,0,0,0,2.24,0,.683.683,0,0,0-.008-1.293l-2.31-1.333a2.473,2.473,0,0,0-2.239,0A.683.683,0,0,0,495.911,237.863ZM501.7,241.2l2.311,1.333a2.473,2.473,0,0,0,2.239,0,.682.682,0,0,0-.007-1.293l-2.31-1.334a2.475,2.475,0,0,0-2.24,0A.683.683,0,0,0,501.7,241.2Zm5.9,3.408,2.31,1.334a2.475,2.475,0,0,0,2.24,0,.683.683,0,0,0-.007-1.293l-2.311-1.333a2.473,2.473,0,0,0-2.239,0A.682.682,0,0,0,507.6,244.61Zm-77.3-38.441,2,1.154a2.817,2.817,0,0,0,2.548.005l1.988-1.148a.776.776,0,0,0-.008-1.471l-2-1.155a2.819,2.819,0,0,0-2.549,0l-1.987,1.148A.777.777,0,0,0,430.3,206.169Zm10.333,4.5,1.988-1.147a.777.777,0,0,0-.008-1.472l-2-1.155a2.818,2.818,0,0,0-2.548,0l-1.988,1.148a.777.777,0,0,0,.008,1.472l2,1.154A2.815,2.815,0,0,0,440.634,210.668Zm1.235,2.18,2,1.155a2.818,2.818,0,0,0,2.548,0l1.988-1.148a.777.777,0,0,0-.009-1.472l-2-1.154a2.818,2.818,0,0,0-2.548-.005l-1.988,1.148A.777.777,0,0,0,441.87,212.847Zm5.784,3.339,2,1.155a2.815,2.815,0,0,0,2.548,0l1.988-1.147a.776.776,0,0,0-.008-1.471l-2-1.155a2.818,2.818,0,0,0-2.548-.005l-1.988,1.148A.776.776,0,0,0,447.654,216.187Zm12.312,1.88-2-1.155a2.815,2.815,0,0,0-2.548,0l-1.988,1.147a.776.776,0,0,0,.008,1.471l2,1.155a2.815,2.815,0,0,0,2.548,0l1.988-1.147A.776.776,0,0,0,459.966,218.067Zm5.784,3.339-2-1.155a2.818,2.818,0,0,0-2.548,0l-1.988,1.147a.777.777,0,0,0,.008,1.472l2,1.154a2.818,2.818,0,0,0,2.548.005l1.987-1.147A.777.777,0,0,0,465.75,221.406Zm5.784,3.339-2-1.154a2.815,2.815,0,0,0-2.548-.005L465,224.733a.777.777,0,0,0,.009,1.472l2,1.154a2.815,2.815,0,0,0,2.548.005l1.988-1.147A.777.777,0,0,0,471.534,224.745Zm5.784,3.339-2-1.154a2.817,2.817,0,0,0-2.548-.005l-1.988,1.148a.776.776,0,0,0,.008,1.471l2,1.155a2.818,2.818,0,0,0,2.548,0l1.988-1.147A.777.777,0,0,0,477.318,228.085Zm5.784,3.34-2-1.155a2.817,2.817,0,0,0-2.549,0l-1.987,1.147a.776.776,0,0,0,.008,1.471l2,1.155a2.815,2.815,0,0,0,2.548,0l1.988-1.147A.776.776,0,0,0,483.1,231.425Zm5.784,3.339-2-1.155a2.815,2.815,0,0,0-2.548,0l-1.988,1.148a.777.777,0,0,0,.008,1.472l2,1.154a2.815,2.815,0,0,0,2.548,0l1.988-1.148A.776.776,0,0,0,488.887,234.764Zm-.745,4.8,2,1.154a2.818,2.818,0,0,0,2.548.005l1.988-1.147a.777.777,0,0,0-.009-1.472l-2-1.155a2.818,2.818,0,0,0-2.548,0l-1.988,1.147A.777.777,0,0,0,488.142,239.563Zm12.313,1.879-2-1.154a2.815,2.815,0,0,0-2.548-.005l-1.988,1.147a.777.777,0,0,0,.009,1.472l2,1.155a2.818,2.818,0,0,0,2.548,0l1.988-1.147A.777.777,0,0,0,500.454,241.442Zm8.471,4.891-4.567-2.637a2.818,2.818,0,0,0-2.548,0l-1.988,1.147a.777.777,0,0,0,.008,1.472l4.568,2.636a2.815,2.815,0,0,0,2.548.005l1.988-1.147A.777.777,0,0,0,508.925,246.334Zm-83.981-37.072,4.567,2.637a2.815,2.815,0,0,0,2.548,0l1.988-1.147a.776.776,0,0,0-.008-1.471l-4.568-2.637a2.817,2.817,0,0,0-2.548-.005l-1.988,1.147A.777.777,0,0,0,424.945,209.262Zm8.351,4.822,2,1.154a2.815,2.815,0,0,0,2.548,0l1.988-1.147a.776.776,0,0,0-.009-1.471l-2-1.155a2.815,2.815,0,0,0-2.548,0l-1.988,1.147A.777.777,0,0,0,433.3,214.084Zm7.784,4.494a2.818,2.818,0,0,0,2.548.005l1.988-1.147a.777.777,0,0,0-.008-1.472l-2-1.155a2.818,2.818,0,0,0-2.548,0l-1.988,1.147a.777.777,0,0,0,.009,1.472Zm5.784,3.339a2.815,2.815,0,0,0,2.548.005l1.988-1.147a.777.777,0,0,0-.008-1.472l-2-1.154a2.815,2.815,0,0,0-2.548-.005l-1.988,1.147a.777.777,0,0,0,.008,1.472Zm5.764-.434-1.988,1.148a.776.776,0,0,0,.008,1.471l2,1.155a2.819,2.819,0,0,0,2.549,0l1.987-1.147a.777.777,0,0,0-.008-1.472l-2-1.154A2.818,2.818,0,0,0,452.628,221.482Zm5.906,3.269L456.3,226.04a.7.7,0,0,0,.007,1.33l2.246,1.3a2.546,2.546,0,0,0,2.3,0l2.232-1.289a.7.7,0,0,0-.007-1.329l-2.246-1.3A2.546,2.546,0,0,0,458.533,224.751Zm5.784,3.339-2.232,1.289a.7.7,0,0,0,.007,1.329l2.246,1.3a2.546,2.546,0,0,0,2.3,0l2.232-1.288a.7.7,0,0,0-.008-1.33l-2.245-1.3A2.546,2.546,0,0,0,464.318,228.091Zm5.784,3.339-2.233,1.289a.7.7,0,0,0,.008,1.33l2.246,1.3a2.544,2.544,0,0,0,2.3,0l2.233-1.288a.7.7,0,0,0-.008-1.33l-2.246-1.3A2.544,2.544,0,0,0,470.1,231.43Zm5.784,3.339-2.232,1.289a.7.7,0,0,0,.007,1.33l2.246,1.3a2.546,2.546,0,0,0,2.3,0l2.232-1.289a.7.7,0,0,0-.007-1.329l-2.246-1.3A2.548,2.548,0,0,0,475.885,234.769Zm5.784,3.34-2.233,1.288a.7.7,0,0,0,.008,1.33l2.246,1.3a2.544,2.544,0,0,0,2.3,0l2.233-1.289a.7.7,0,0,0-.008-1.329l-2.246-1.3A2.546,2.546,0,0,0,481.67,238.109Zm8.108,7.259,2.232-1.288a.7.7,0,0,0-.007-1.33l-2.246-1.3a2.544,2.544,0,0,0-2.3,0l-2.233,1.289a.7.7,0,0,0,.007,1.329l2.246,1.3A2.546,2.546,0,0,0,489.778,245.368Zm5.784,3.339,2.232-1.288a.7.7,0,0,0-.007-1.33l-2.246-1.3a2.546,2.546,0,0,0-2.3,0l-2.232,1.289a.7.7,0,0,0,.007,1.329l2.246,1.3A2.546,2.546,0,0,0,495.563,248.707Zm8.129.791-2.246-1.3a2.544,2.544,0,0,0-2.3,0l-2.233,1.288a.7.7,0,0,0,.008,1.33l2.246,1.3a2.544,2.544,0,0,0,2.3,0l2.233-1.289A.7.7,0,0,0,503.691,249.5Zm-84.227-37.214,7.252,4.187a2.546,2.546,0,0,0,2.3,0l2.232-1.289a.7.7,0,0,0-.007-1.329l-7.253-4.187a2.544,2.544,0,0,0-2.3,0l-2.233,1.289A.7.7,0,0,0,419.464,212.283Zm10.79,6.23,2.246,1.3a2.546,2.546,0,0,0,2.3,0l2.232-1.289a.7.7,0,0,0-.008-1.329l-2.246-1.3a2.545,2.545,0,0,0-2.3,0l-2.232,1.288A.7.7,0,0,0,430.254,218.513Zm5.784,3.339,2.246,1.3a2.544,2.544,0,0,0,2.3,0l2.233-1.288a.7.7,0,0,0-.008-1.33l-2.246-1.3a2.544,2.544,0,0,0-2.3,0l-2.233,1.289A.7.7,0,0,0,436.038,221.852Zm5.784,3.339,2.246,1.3a2.546,2.546,0,0,0,2.3,0L448.6,225.2a.7.7,0,0,0-.007-1.33l-2.246-1.3a2.545,2.545,0,0,0-2.3,0l-2.232,1.289A.7.7,0,0,0,441.822,225.192Zm10.333,4.641,2.233-1.289a.7.7,0,0,0-.008-1.33l-2.246-1.3a2.544,2.544,0,0,0-2.3,0L447.6,227.2a.7.7,0,0,0,.008,1.33l2.246,1.3A2.544,2.544,0,0,0,452.155,229.833Zm5.784,3.339,2.232-1.289a.7.7,0,0,0-.007-1.329l-2.246-1.3a2.546,2.546,0,0,0-2.3,0l-2.232,1.288a.7.7,0,0,0,.008,1.33l2.246,1.3A2.546,2.546,0,0,0,457.939,233.172Zm5.784,3.339,2.232-1.289a.7.7,0,0,0-.007-1.329l-2.246-1.3a2.546,2.546,0,0,0-2.3,0l-2.232,1.288a.7.7,0,0,0,.007,1.33l2.246,1.3A2.546,2.546,0,0,0,463.724,236.511Zm5.784,3.339,2.233-1.288a.7.7,0,0,0-.008-1.33l-2.246-1.3a2.544,2.544,0,0,0-2.3,0l-2.233,1.289a.7.7,0,0,0,.008,1.329l2.246,1.3A2.544,2.544,0,0,0,469.507,239.85Zm5.784,3.34,2.232-1.289a.7.7,0,0,0-.007-1.33l-2.246-1.3a2.548,2.548,0,0,0-2.3,0l-2.232,1.289a.7.7,0,0,0,.007,1.33l2.246,1.3A2.548,2.548,0,0,0,475.292,243.191Zm5.784,3.339,2.232-1.289a.7.7,0,0,0-.008-1.329l-2.246-1.3a2.548,2.548,0,0,0-2.3,0l-2.232,1.288a.7.7,0,0,0,.007,1.33l2.246,1.3A2.545,2.545,0,0,0,481.076,246.53Zm1.235,2.038,2.246,1.3a2.544,2.544,0,0,0,2.3,0l2.233-1.289a.7.7,0,0,0-.008-1.329l-2.246-1.3a2.544,2.544,0,0,0-2.3,0l-2.233,1.288A.7.7,0,0,0,482.311,248.568Zm16.024,4.023-5.712-3.3a2.546,2.546,0,0,0-2.3,0l-2.232,1.289a.7.7,0,0,0,.007,1.329l5.712,3.3a2.546,2.546,0,0,0,2.3,0l2.232-1.288A.7.7,0,0,0,498.334,252.591Zm-84.206-37.054,10.291,5.941a2.875,2.875,0,0,0,2.6,0l1.935-1.117a.793.793,0,0,0-.009-1.5l-10.29-5.94a2.877,2.877,0,0,0-2.6-.005l-1.934,1.118A.793.793,0,0,0,414.129,215.537Zm14.127,8.157,1.947,1.124a2.875,2.875,0,0,0,2.6,0l1.934-1.117a.792.792,0,0,0-.008-1.5l-1.947-1.124a2.875,2.875,0,0,0-2.6,0l-1.934,1.117A.793.793,0,0,0,428.256,223.693Zm5.784,3.339,1.947,1.124a2.876,2.876,0,0,0,2.6.005l1.935-1.118a.793.793,0,0,0-.009-1.5l-1.946-1.124a2.877,2.877,0,0,0-2.6,0l-1.935,1.117A.793.793,0,0,0,434.04,227.033Zm5.784,3.339,1.946,1.124a2.875,2.875,0,0,0,2.6.005l1.934-1.117a.793.793,0,0,0-.008-1.5l-1.947-1.124a2.875,2.875,0,0,0-2.6-.005l-1.934,1.117A.793.793,0,0,0,439.825,230.372Zm5.783,3.339,1.947,1.124a2.877,2.877,0,0,0,2.6,0l1.934-1.117a.793.793,0,0,0-.008-1.5l-1.947-1.124a2.877,2.877,0,0,0-2.6-.005L445.6,232.21A.792.792,0,0,0,445.608,233.711Zm5.784,3.339,1.947,1.124a2.873,2.873,0,0,0,2.6,0l1.935-1.117a.793.793,0,0,0-.009-1.5l-1.947-1.124a2.873,2.873,0,0,0-2.6,0l-1.935,1.117A.793.793,0,0,0,451.392,237.05Zm5.784,3.34,1.947,1.124a2.875,2.875,0,0,0,2.6,0l1.934-1.117a.792.792,0,0,0-.008-1.5l-1.947-1.124a2.877,2.877,0,0,0-2.6,0l-1.934,1.117A.793.793,0,0,0,457.176,240.39Zm5.784,3.339,1.947,1.124a2.876,2.876,0,0,0,2.6.005l1.935-1.117a.793.793,0,0,0-.009-1.5l-1.946-1.124a2.877,2.877,0,0,0-2.6,0l-1.934,1.117A.793.793,0,0,0,462.96,243.73Zm5.784,3.339,1.946,1.124a2.877,2.877,0,0,0,2.6,0l1.935-1.117a.793.793,0,0,0-.009-1.5l-1.947-1.124a2.875,2.875,0,0,0-2.6-.005l-1.935,1.117A.793.793,0,0,0,468.745,247.069Zm5.784,3.339,1.947,1.124a2.877,2.877,0,0,0,2.6,0l1.934-1.117a.793.793,0,0,0-.008-1.5l-1.947-1.124a2.877,2.877,0,0,0-2.6-.005l-1.934,1.118A.792.792,0,0,0,474.528,250.408Zm5.784,3.339,1.947,1.124a2.873,2.873,0,0,0,2.6,0l1.935-1.117a.793.793,0,0,0-.009-1.5l-1.947-1.124a2.873,2.873,0,0,0-2.6,0l-1.935,1.117A.792.792,0,0,0,480.312,253.747Zm12.387,1.924-1.946-1.124a2.875,2.875,0,0,0-2.6,0l-1.935,1.117a.793.793,0,0,0,.009,1.5l1.947,1.124a2.873,2.873,0,0,0,2.6,0l1.935-1.117A.793.793,0,0,0,492.7,255.671Zm-74.886-37.05-4.513-2.606a2.877,2.877,0,0,0-2.6,0l-1.935,1.117a.793.793,0,0,0,.009,1.5l4.514,2.606a2.873,2.873,0,0,0,2.6.005l1.935-1.117A.793.793,0,0,0,417.813,218.621Zm5.784,3.339-1.947-1.124a2.876,2.876,0,0,0-2.6-.005l-1.935,1.117a.793.793,0,0,0,.009,1.5l1.946,1.124a2.877,2.877,0,0,0,2.6,0l1.935-1.117A.793.793,0,0,0,423.6,221.961Zm5.784,3.34-1.947-1.124a2.874,2.874,0,0,0-2.6,0l-1.934,1.117a.792.792,0,0,0,.008,1.5l1.947,1.124a2.875,2.875,0,0,0,2.6,0l1.934-1.117A.792.792,0,0,0,429.382,225.3Zm40.488,23.375-36.651-21.161a2.875,2.875,0,0,0-2.6,0l-1.935,1.117a.793.793,0,0,0,.009,1.5l36.65,21.16a2.874,2.874,0,0,0,2.6.005l1.935-1.117A.793.793,0,0,0,469.87,248.676Zm5.784,3.339-1.947-1.124a2.877,2.877,0,0,0-2.6-.005L469.171,252a.792.792,0,0,0,.008,1.5l1.947,1.124a2.877,2.877,0,0,0,2.6,0l1.934-1.117A.793.793,0,0,0,475.654,252.016Zm5.783,3.339-1.947-1.124a2.875,2.875,0,0,0-2.6-.005l-1.935,1.118a.792.792,0,0,0,.009,1.5l1.947,1.124a2.873,2.873,0,0,0,2.6,0l1.935-1.117A.793.793,0,0,0,481.438,255.355Zm5.9,3.409L485.4,257.64a2.873,2.873,0,0,0-2.6-.005l-1.935,1.117a.793.793,0,0,0,.009,1.5l1.946,1.124a2.875,2.875,0,0,0,2.6.005l1.935-1.117A.793.793,0,0,0,487.342,258.764Z" transform="translate(-380.298 -122.78)" fill="#a8cff0"/>
        <g id="Grupo_82341" data-name="Grupo 82341" transform="translate(56.654)">
          <path id="Trazado_119610" data-name="Trazado 119610" d="M523.888,229.53l-76.621-44.264C444.3,183.553,441.9,178.958,441.9,175V114.9c0-3.955,2.4-5.773,5.371-4.06L523.888,155.1c2.966,1.713,5.371,6.307,5.371,10.263v60.108C529.259,229.424,526.854,231.242,523.888,229.53Z" transform="translate(-441.896 -109.381)" fill="#a8cff0"/>
          <path id="Trazado_119611" data-name="Trazado 119611" d="M525.1,227.036l-75.8-43.786a9.135,9.135,0,0,1-3.864-7.651V115.2a.953.953,0,0,1,1.434-.82l.169.1L522.9,158.305c2.842,1.639,3.864,4.549,3.864,7.651v60.259a1.028,1.028,0,0,1-1.537.892Z" transform="translate(-442.415 -109.977)" fill="#03336e"/>
          <path id="Trazado_119612" data-name="Trazado 119612" d="M522.9,158.305l-75.864-43.828-.169-.1a.953.953,0,0,0-1.434.82v60.4a9.135,9.135,0,0,0,3.864,7.651l75.8,43.786.125.072a1.028,1.028,0,0,0,1.537-.892V165.956C526.762,162.854,525.74,159.944,522.9,158.305Zm3.261,67.91a.424.424,0,0,1-.636.369L449.6,182.727a8.509,8.509,0,0,1-3.562-7.128V115.2a.347.347,0,0,1,.526-.3L522.6,158.828c2.945,1.7,3.563,4.813,3.563,7.128Z" transform="translate(-442.415 -109.977)" fill="#022652"/>
          <path id="Trazado_119613" data-name="Trazado 119613" d="M525.76,154.15l-76.622-44.263a3.629,3.629,0,0,0-3.142-.462c-.113.044-1.611.84-1.716.9l-.005,0a3.512,3.512,0,0,1,3.341.369l76.621,44.263c2.966,1.712,5.372,6.307,5.372,10.263v60.108c0,2.469-.937,4.1-2.362,4.569a.889.889,0,0,0,.471-.16c.067-.039,1.693-.956,1.758-1,1.019-.715,1.655-2.183,1.655-4.216V164.413C531.131,160.458,528.726,155.863,525.76,154.15Z" transform="translate(-442.245 -109.242)" fill="#3f92d1"/>
          <path id="Trazado_119614" data-name="Trazado 119614" d="M525.76,154.15l-76.622-44.263a3.629,3.629,0,0,0-3.142-.462c-.113.044-1.611.84-1.716.9l-.005,0a3.512,3.512,0,0,1,3.341.369l76.621,44.263Z" transform="translate(-442.245 -109.242)" fill="#4f9fdb"/>
          <path id="Trazado_119615" data-name="Trazado 119615" d="M524.557,154.948l-76.621-44.263a3.562,3.562,0,0,0-3.235-.414,3.967,3.967,0,0,1,2.591.607l76.621,44.264c2.966,1.712,5.371,6.307,5.371,10.263v60.108c0,2.333-.841,3.914-2.136,4.474,1.657-.263,2.78-1.966,2.78-4.668V165.211C529.929,161.255,527.524,156.661,524.557,154.948Z" transform="translate(-442.308 -109.36)" fill="#fff" style="mix-blend-mode: screen;isolation: isolate"/>
        </g>
      </g>
    </g>
    <g id="Grupo_82344" data-name="Grupo 82344" transform="translate(326.947 200.279)">
      <path id="Trazado_119616" data-name="Trazado 119616" d="M361.37,271.34c-3.435,2.758-15.257,4.334-15.257,4.334s-1.042-7.9,2.394-10.659,6.5-1.075,10.047.671S364.806,268.582,361.37,271.34Z" transform="translate(-329.74 -222.94)" fill="#92b4d1" opacity="0.2"/>
      <path id="Trazado_119617" data-name="Trazado 119617" d="M359.394,237.582c-5.749-3.253-11.37-8.8-16.082-15.872l-.063-.037c-4.712,1.63-10.333.688-16.082-2.7l-.22-.129.311,10.742c1.091,16.653,6.771,23.9,15.912,39.382l.222.129c9.142-4.926,14.821-5.616,15.912-21.009l.311-10.385Z" transform="translate(-326.947 -216.374)" fill="#a8cff0"/>
      <path id="Trazado_119618" data-name="Trazado 119618" d="M362.648,234.685c-5.75-3.252-11.371-8.8-16.083-15.871l-.063-.037c-4.711,1.63-10.332.688-16.082-2.7l-.22-.13-3.181,2.507.159.093c5.749,3.386,11.371,4.328,16.082,2.7l.063.037c4.712,7.07,10.332,12.619,16.083,15.872l.219.124-.311,10.385c-.712,10.047-3.38,13.829-7.688,16.614,5.383-3.179,10.13-7.793,10.931-19.085l.311-10.385Z" transform="translate(-326.958 -215.949)" fill="#d1ebff"/>
      <path id="Trazado_119619" data-name="Trazado 119619" d="M365.663,235.3l-.219-.125c-5.75-3.252-11.371-8.8-16.083-15.871l-.063-.037-3.243,2.471.063.037c4.712,7.07,10.332,12.619,16.083,15.872l.219.124Z" transform="translate(-329.753 -216.436)" fill="#d1ebff"/>
      <path id="Trazado_119620" data-name="Trazado 119620" d="M363.86,240.527l-.311,10.385c-.711,10.047-3.38,13.829-7.688,16.614,5.383-3.179,10.13-7.793,10.931-19.085l.311-10.385Z" transform="translate(-331.193 -219.195)" fill="#72b5e8"/>
      <path id="Trazado_119621" data-name="Trazado 119621" d="M343,262.351c-6.56-10.88-9.859-16.353-10.654-28.295l-.182-6.269a19.562,19.562,0,0,0,11.886,1.787,52.983,52.983,0,0,0,11.885,11.937l-.181,6.059c-.8,11.024-4.1,12.688-10.655,15.995l-1.049.531Q343.51,263.207,343,262.351Z" transform="translate(-327.713 -217.687)" fill="#084c94"/>
      <path id="Trazado_119622" data-name="Trazado 119622" d="M345.632,263.091l-1.048.531-1.051-1.745c-6.559-10.88-9.858-16.354-10.654-28.3l-.16-5.552c-.186-.079-.371-.158-.558-.242l.182,6.269c.8,11.942,4.094,17.415,10.654,28.295q.514.855,1.05,1.746l1.049-.531a26.844,26.844,0,0,0,6.452-3.975A30.9,30.9,0,0,1,345.632,263.091Z" transform="translate(-327.713 -217.687)" fill="#001a46"/>
      <path id="Trazado_119623" data-name="Trazado 119623" d="M359.637,237.363c-5.749-3.253-11.371-8.8-16.082-15.871l-.064-.037c-4.711,1.63-10.333.688-16.082-2.7l-.21.222c5.739,3.372,11.349,4.308,16.053,2.681l.063.037c4.711,7.07,10.333,12.619,16.082,15.872l.22.124-.311,10.385c-.591,8.337-2.529,12.36-5.633,15.08,3.244-2.723,5.266-6.736,5.872-15.285l.31-10.385Z" transform="translate(-326.984 -216.361)" fill="#fff"/>
    </g>
    <g id="Grupo_82348" data-name="Grupo 82348" transform="translate(402.9 235.396)">
      <path id="Trazado_119624" data-name="Trazado 119624" d="M437.262,314.247,417.372,302.8c-2.07-1.2-1.81-3.282.579-4.662h0c2.39-1.38,10.3-1.387,12.366-.193l17.635,10.176c3.177,1.875.032,4.448-2.615,5.793h0C442.947,315.292,439.332,315.442,437.262,314.247Z" transform="translate(-415.974 -262.979)" fill="#92b4d1" opacity="0.2"/>
      <path id="Trazado_119625" data-name="Trazado 119625" d="M445.059,287.173,416.3,276.448v21.329a1.877,1.877,0,0,0,1.122,1.858L436.87,310.9a7.3,7.3,0,0,0,6.573-.273h0a2.764,2.764,0,0,0,1.607-2.073l.009,0Z" transform="translate(-416.02 -259.95)" fill="#a8cff0"/>
      <path id="Trazado_119626" data-name="Trazado 119626" d="M436.87,288.958,417.422,277.7c-1.684-.973-1.473-2.672.472-3.795h0a7.3,7.3,0,0,1,6.573-.273l19.448,11.263c1.685.973,1.473,2.671-.472,3.795h0A7.306,7.306,0,0,1,436.87,288.958Z" transform="translate(-416.02 -259.44)" fill="#d1ebff"/>
      <path id="Trazado_119627" data-name="Trazado 119627" d="M443.443,288.924a7.307,7.307,0,0,1-6.573.272l-19.448-11.263a2.009,2.009,0,0,1-1.125-1.5,1.884,1.884,0,0,0,1.125,1.832l19.448,11.263a7.307,7.307,0,0,0,6.573-.273c1.134-.654,1.674-1.5,1.6-2.292A2.86,2.86,0,0,1,443.443,288.924Z" transform="translate(-416.02 -259.948)" fill="#fff"/>
      <g id="Grupo_82347" data-name="Grupo 82347" transform="translate(4.362)">
        <path id="Trazado_119628" data-name="Trazado 119628" d="M433.3,258.211h0a8.147,8.147,0,0,0-12.214,7.059v8.836h0l0,.013c0,.866,1.2,1.564,2.675,1.564s2.674-.7,2.674-1.558c0-.01,0-.02,0-.031h.029V266.41a3.452,3.452,0,0,1,5.172-2.994h0a8.609,8.609,0,0,1,4.32,7.465v11.782h.028c.03.845,1.213,1.525,2.672,1.525s2.658-.688,2.673-1.542h0V272.1A16.028,16.028,0,0,0,433.3,258.211Z" transform="translate(-421.087 -257.111)" fill="#084c94"/>
        <g id="Grupo_82345" data-name="Grupo 82345" transform="translate(11.558 4.93)">
          <path id="Trazado_119629" data-name="Trazado 119629" d="M435.132,263.139a4.776,4.776,0,0,0-.5-.25,9.387,9.387,0,0,1,4.142,7.769v13.825a3.243,3.243,0,0,0,1.044.383V271.248A9.382,9.382,0,0,0,435.132,263.139Z" transform="translate(-434.634 -262.889)" fill="#2672ab"/>
        </g>
        <g id="Grupo_82346" data-name="Grupo 82346" transform="translate(2.22 3.762)">
          <path id="Trazado_119630" data-name="Trazado 119630" d="M428.094,261.52a4.382,4.382,0,0,0-4.378,4.378v9.228l-.027.957a3.756,3.756,0,0,0,1.533-.183l.027-.957v-9.229a4.384,4.384,0,0,1,3.094-4.185C428.26,261.523,428.177,261.52,428.094,261.52Z" transform="translate(-423.689 -261.52)" fill="#03336e"/>
        </g>
        <path id="Trazado_119631" data-name="Trazado 119631" d="M430.5,259.139a8.463,8.463,0,0,1,3.977,1,15.1,15.1,0,0,0-1.474-.971,7.122,7.122,0,0,0-3.6-.977,7.256,7.256,0,0,0-7.24,7.239v.02A8.742,8.742,0,0,1,430.5,259.139Z" transform="translate(-421.245 -257.269)" fill="#2672ab"/>
        <path id="Trazado_119632" data-name="Trazado 119632" d="M442.393,275.882l0,10.339a3.3,3.3,0,0,0,1.339-.465.88.88,0,0,0,.092-.363V274.847C443.823,270.287,442.393,271.235,442.393,275.882Z" transform="translate(-424.216 -259.278)" fill="#03336e"/>
      </g>
      <path id="Trazado_119633" data-name="Trazado 119633" d="M432.476,295.29a5.809,5.809,0,0,0-2.636-4.548c-1.456-.841-2.637-.168-2.637,1.5a5.736,5.736,0,0,0,1.333,3.4v5.293l2.607,1.506v-5.294C431.939,297.086,432.476,296.416,432.476,295.29Z" transform="translate(-417.623 -261.996)" fill="#084c94"/>
      <path id="Trazado_119634" data-name="Trazado 119634" d="M428.991,300.747v-5.294a5.733,5.733,0,0,1-1.333-3.4,1.882,1.882,0,0,1,.692-1.638c-.693.146-1.147.8-1.147,1.833a5.736,5.736,0,0,0,1.333,3.4v5.293l2.607,1.506v-.458Z" transform="translate(-417.623 -262.002)" fill="#001a46"/>
    </g>
    <g id="Grupo_82351" data-name="Grupo 82351" transform="translate(441.873 150.508)">
      <path id="Trazado_119635" data-name="Trazado 119635" d="M503.28,187.33a11.962,11.962,0,0,0-5.429-9.364,5.132,5.132,0,0,0-2.2-.733c0-.047.007-.09.007-.137,0-6.662-4.707-14.779-10.512-18.131-3.26-1.882-6.1-1.63-8.1-.3l-3.353,1.914c-1.895-.984-3.588-.977-4.782-.152l-4.511,2.7a5.118,5.118,0,0,1,4.586.655,10.388,10.388,0,0,1,1.1.743c1.371-4.041,5.324-5.254,9.992-2.559,5.8,3.352,10.512,11.469,10.512,18.131,0,.047-.006.09-.006.137a5.132,5.132,0,0,1,2.2.733,11.962,11.962,0,0,1,5.429,9.364,4.1,4.1,0,0,1-1.165,3.181l4.471-2.6-.006-.009C502.6,190.4,503.28,189.15,503.28,187.33Z" transform="translate(-462.059 -157.611)" fill="#72b5e8"/>
      <g id="Grupo_82349" data-name="Grupo 82349" transform="translate(2.541 2.746)">
        <path id="Trazado_119636" data-name="Trazado 119636" d="M494.711,181.271a5.159,5.159,0,0,0-2.2-.733c0-.047.007-.089.007-.136,0-6.661-4.707-14.779-10.512-18.131-2.782-1.606-5.31-1.823-7.189-.882,1.831-.728,4.2-.438,6.792,1.059,5.806,3.352,10.512,11.469,10.512,18.131,0,.047-.006.09-.006.137a5.132,5.132,0,0,1,2.2.733,11.962,11.962,0,0,1,5.429,9.364,3.744,3.744,0,0,1-1.626,3.506c1.233-.43,2.023-1.723,2.023-3.682A11.963,11.963,0,0,0,494.711,181.271Z" transform="translate(-466.128 -160.83)" fill="#fff"/>
        <path id="Trazado_119637" data-name="Trazado 119637" d="M469.023,164.66a10.383,10.383,0,0,1,1.1.743c.043-.125.087-.247.135-.366a9.871,9.871,0,0,0-.835-.553c-1.857-1.072-3.543-1.206-4.787-.559A5.262,5.262,0,0,1,469.023,164.66Z" transform="translate(-464.633 -161.227)" fill="#fff"/>
      </g>
      <path id="Trazado_119638" data-name="Trazado 119638" d="M492.381,181.478a5.133,5.133,0,0,0-2.2-.733c0-.047.006-.09.006-.137,0-6.662-4.706-14.779-10.512-18.131-4.668-2.7-8.621-1.482-9.992,2.559a10.382,10.382,0,0,0-1.1-.743c-3.828-2.21-6.931-.44-6.931,3.952a15.271,15.271,0,0,0,6.931,11.954l23.8,13.738c3,1.731,5.429.346,5.429-3.1A11.962,11.962,0,0,0,492.381,181.478Z" transform="translate(-461.655 -158.114)" fill="#d1ebff"/>
      <path id="Trazado_119639" data-name="Trazado 119639" d="M495.12,193.235a3.2,3.2,0,0,1-1.562-.511l-23.8-13.739a13.564,13.564,0,0,1-6.055-10.438c0-.948.2-3.153,2.071-3.153a4.658,4.658,0,0,1,2.235.718,8.857,8.857,0,0,1,.914.62l1.935,1.471.781-2.3a3.707,3.707,0,0,1,3.622-2.812A7.926,7.926,0,0,1,479.1,164.3c5.224,3.015,9.636,10.624,9.636,16.615,0,0-.005.06-.006.115l-.02,1.657,1.653.111a3.474,3.474,0,0,1,1.443.5,10.2,10.2,0,0,1,4.553,7.849,2.853,2.853,0,0,1-.445,1.738.919.919,0,0,1-.8.353Z" transform="translate(-461.956 -158.415)" fill="#3f92d1"/>
      <g id="Grupo_82350" data-name="Grupo 82350" transform="translate(1.75 5.161)">
        <path id="Trazado_119640" data-name="Trazado 119640" d="M472.717,167.848l.781-2.3a4.616,4.616,0,0,1,1.147-1.885,4.2,4.2,0,0,0-1.729,2.323l-.543,1.6Z" transform="translate(-464.978 -163.661)" fill="#2672ab"/>
        <path id="Trazado_119641" data-name="Trazado 119641" d="M495.7,193.222a3.194,3.194,0,0,1-1.561-.511l-23.8-13.739a13.563,13.563,0,0,1-6.055-10.438,4.167,4.167,0,0,1,.716-2.555c-1.153.518-1.3,2.2-1.3,2.993a13.564,13.564,0,0,0,6.055,10.438l23.8,13.739a3.2,3.2,0,0,0,1.562.511.92.92,0,0,0,.8-.353,1.247,1.247,0,0,0,.07-.115A1.263,1.263,0,0,1,495.7,193.222Z" transform="translate(-463.706 -164.001)" fill="#2672ab"/>
      </g>
    </g>
    <g id="Grupo_82356" data-name="Grupo 82356" transform="translate(357.683 144.166)">
      <path id="Trazado_119642" data-name="Trazado 119642" d="M394.228,197.579l-25.766-14.47c-1.41-.814-1.233-2.236.395-3.175h0c1.628-.94,7.014-.945,8.423-.131l24.229,13.6c2.164,1.277.022,3.03-1.781,3.946h0A6.115,6.115,0,0,1,394.228,197.579Z" transform="translate(-363.639 -154.44)" fill="#92b4d1" opacity="0.2"/>
      <path id="Trazado_119643" data-name="Trazado 119643" d="M394.3,194.15l-28.4-16.422a7.017,7.017,0,0,1-2.931-5.6V153.57c0-2.158,1.312-3.151,2.931-2.216l28.4,16.421a7.022,7.022,0,0,1,2.931,5.6v18.558C397.235,194.093,395.922,195.085,394.3,194.15Z" transform="translate(-362.973 -150.298)" fill="#a8cff0"/>
      <path id="Trazado_119644" data-name="Trazado 119644" d="M394.965,179.995l-27.953-16.161a4.985,4.985,0,0,1-2.108-4.175v-4.824a.519.519,0,0,1,.782-.447l.091.053,27.987,16.185a4.508,4.508,0,0,1,2.109,4.175v4.747a.561.561,0,0,1-.839.486Z" transform="translate(-363.256 -150.785)" fill="#084c94"/>
      <path id="Trazado_119645" data-name="Trazado 119645" d="M394.965,194.379l-27.953-16.161a4.985,4.985,0,0,1-2.108-4.175v-4.824a.519.519,0,0,1,.782-.447l.091.053,27.987,16.185a4.508,4.508,0,0,1,2.109,4.175v4.747a.561.561,0,0,1-.839.486Z" transform="translate(-363.256 -152.897)" fill="#084c94"/>
      <path id="Trazado_119646" data-name="Trazado 119646" d="M395.5,179.652l-.068-.039L367.48,163.45a4.983,4.983,0,0,1-2.108-4.175v-4.823a.508.508,0,0,1,.018-.132.517.517,0,0,0-.486.515v4.824a4.985,4.985,0,0,0,2.108,4.175L394.965,180l.069.039a.56.56,0,0,0,.811-.317A.548.548,0,0,1,395.5,179.652Z" transform="translate(-363.256 -150.785)" fill="#001a46"/>
      <path id="Trazado_119647" data-name="Trazado 119647" d="M395.5,194.036l-.068-.039L367.48,177.834a4.983,4.983,0,0,1-2.108-4.175v-4.823a.508.508,0,0,1,.018-.132.517.517,0,0,0-.486.515v4.824a4.985,4.985,0,0,0,2.108,4.175l27.953,16.161.069.039a.56.56,0,0,0,.811-.317A.548.548,0,0,1,395.5,194.036Z" transform="translate(-363.256 -152.898)" fill="#001a46"/>
      <path id="Trazado_119648" data-name="Trazado 119648" d="M395.875,166.951l-28.4-16.422a1.984,1.984,0,0,0-1.716-.252c-.061.024-1.428.721-1.485.752l0,0a1.918,1.918,0,0,1,1.824.2l28.4,16.421a7.022,7.022,0,0,1,2.931,5.6v18.558c0,1.347-.512,2.24-1.289,2.493a.49.49,0,0,0,.257-.087c.037-.021,1.473-.785,1.509-.81a2.708,2.708,0,0,0,.9-2.3V172.551A7.019,7.019,0,0,0,395.875,166.951Z" transform="translate(-363.164 -150.177)" fill="#3f92d1"/>
      <path id="Trazado_119649" data-name="Trazado 119649" d="M395.875,166.951l-28.4-16.422a1.984,1.984,0,0,0-1.716-.252c-.061.024-1.428.721-1.485.752l0,0a1.918,1.918,0,0,1,1.824.2l28.4,16.421Z" transform="translate(-363.164 -150.177)" fill="#4f9fdb"/>
      <path id="Trazado_119650" data-name="Trazado 119650" d="M394.67,167.694l-28.4-16.422a1.944,1.944,0,0,0-1.765-.225,2.164,2.164,0,0,1,1.414.331l28.4,16.422a7.017,7.017,0,0,1,2.931,5.6v18.558a2.463,2.463,0,0,1-1.165,2.442c.9-.143,1.517-1.072,1.517-2.548V173.3A7.022,7.022,0,0,0,394.67,167.694Z" transform="translate(-363.198 -150.287)" fill="#fff" style="mix-blend-mode: screen;isolation: isolate"/>
      <g id="Grupo_82352" data-name="Grupo 82352" transform="translate(6.534 21.153)">
        <path id="Trazado_119651" data-name="Trazado 119651" d="M392,188.636a3.893,3.893,0,0,0,1.767,3.048c.977.564,1.768.113,1.768-1.008a3.893,3.893,0,0,0-1.768-3.048C392.795,187.065,392,187.517,392,188.636Z" transform="translate(-373.771 -176.794)" fill="#001a46"/>
        <path id="Trazado_119652" data-name="Trazado 119652" d="M386.661,185.533a3.9,3.9,0,0,0,1.768,3.048c.976.563,1.767.112,1.767-1.008a3.893,3.893,0,0,0-1.767-3.048C387.453,183.961,386.661,184.413,386.661,185.533Z" transform="translate(-372.986 -176.339)" fill="#001a46"/>
        <path id="Trazado_119653" data-name="Trazado 119653" d="M381.318,182.429a3.9,3.9,0,0,0,1.768,3.048c.976.563,1.767.113,1.767-1.008a3.893,3.893,0,0,0-1.767-3.048C382.11,180.857,381.318,181.309,381.318,182.429Z" transform="translate(-372.201 -175.883)" fill="#001a46"/>
        <path id="Trazado_119654" data-name="Trazado 119654" d="M375.975,179.325a3.894,3.894,0,0,0,1.768,3.048c.976.564,1.767.113,1.767-1.008a3.894,3.894,0,0,0-1.767-3.048C376.767,177.754,375.975,178.206,375.975,179.325Z" transform="translate(-371.417 -175.427)" fill="#001a46"/>
        <path id="Trazado_119655" data-name="Trazado 119655" d="M370.632,176.222a3.9,3.9,0,0,0,1.768,3.048c.976.563,1.767.112,1.767-1.008a3.893,3.893,0,0,0-1.767-3.048C371.424,174.65,370.632,175.1,370.632,176.222Z" transform="translate(-370.632 -174.971)" fill="#001a46"/>
      </g>
      <g id="Grupo_82353" data-name="Grupo 82353" transform="translate(5.987 21.19)">
        <path id="Trazado_119656" data-name="Trazado 119656" d="M391.363,188.679a3.893,3.893,0,0,0,1.767,3.048c.976.564,1.768.113,1.768-1.008a3.9,3.9,0,0,0-1.768-3.048C392.154,187.108,391.363,187.559,391.363,188.679Z" transform="translate(-373.13 -176.837)" fill="#a8cff0"/>
        <path id="Trazado_119657" data-name="Trazado 119657" d="M386.02,185.575a3.893,3.893,0,0,0,1.767,3.048c.977.564,1.768.113,1.768-1.008a3.894,3.894,0,0,0-1.768-3.048C386.811,184,386.02,184.456,386.02,185.575Z" transform="translate(-372.345 -176.381)" fill="#a8cff0"/>
        <path id="Trazado_119658" data-name="Trazado 119658" d="M380.677,182.472a3.893,3.893,0,0,0,1.768,3.048c.976.563,1.767.112,1.767-1.008a3.893,3.893,0,0,0-1.767-3.048C381.468,180.9,380.677,181.352,380.677,182.472Z" transform="translate(-371.56 -175.925)" fill="#a8cff0"/>
        <path id="Trazado_119659" data-name="Trazado 119659" d="M375.334,179.368a3.9,3.9,0,0,0,1.768,3.048c.976.564,1.767.113,1.767-1.008a3.894,3.894,0,0,0-1.767-3.048C376.126,177.8,375.334,178.248,375.334,179.368Z" transform="translate(-370.776 -175.47)" fill="#a8cff0"/>
        <path id="Trazado_119660" data-name="Trazado 119660" d="M369.991,176.264a3.894,3.894,0,0,0,1.768,3.048c.976.564,1.767.113,1.767-1.008a3.9,3.9,0,0,0-1.767-3.048C370.783,174.693,369.991,175.145,369.991,176.264Z" transform="translate(-369.991 -175.014)" fill="#a8cff0"/>
      </g>
      <g id="Grupo_82354" data-name="Grupo 82354" transform="translate(6.534 8.574)">
        <path id="Trazado_119661" data-name="Trazado 119661" d="M392,173.891a3.893,3.893,0,0,0,1.767,3.048c.977.564,1.768.113,1.768-1.008a3.893,3.893,0,0,0-1.768-3.048C392.795,172.32,392,172.771,392,173.891Z" transform="translate(-373.771 -162.049)" fill="#001a46"/>
        <path id="Trazado_119662" data-name="Trazado 119662" d="M386.661,170.788a3.893,3.893,0,0,0,1.768,3.047c.976.564,1.767.113,1.767-1.008a3.9,3.9,0,0,0-1.767-3.048C387.453,169.216,386.661,169.668,386.661,170.788Z" transform="translate(-372.986 -161.594)" fill="#001a46"/>
        <path id="Trazado_119663" data-name="Trazado 119663" d="M381.318,167.684a3.9,3.9,0,0,0,1.768,3.048c.976.563,1.767.113,1.767-1.008a3.893,3.893,0,0,0-1.767-3.048C382.11,166.112,381.318,166.564,381.318,167.684Z" transform="translate(-372.201 -161.138)" fill="#001a46"/>
        <path id="Trazado_119664" data-name="Trazado 119664" d="M375.975,164.58a3.894,3.894,0,0,0,1.768,3.048c.976.564,1.767.113,1.767-1.008a3.894,3.894,0,0,0-1.767-3.048C376.767,163.009,375.975,163.46,375.975,164.58Z" transform="translate(-371.417 -160.682)" fill="#001a46"/>
        <path id="Trazado_119665" data-name="Trazado 119665" d="M370.632,161.477a3.9,3.9,0,0,0,1.768,3.048c.976.563,1.767.112,1.767-1.008a3.893,3.893,0,0,0-1.767-3.047C371.424,159.905,370.632,160.357,370.632,161.477Z" transform="translate(-370.632 -160.226)" fill="#001a46"/>
      </g>
      <g id="Grupo_82355" data-name="Grupo 82355" transform="translate(5.987 8.61)">
        <path id="Trazado_119666" data-name="Trazado 119666" d="M391.363,173.934a3.894,3.894,0,0,0,1.767,3.048c.976.563,1.768.113,1.768-1.008a3.894,3.894,0,0,0-1.768-3.048C392.154,172.362,391.363,172.814,391.363,173.934Z" transform="translate(-373.13 -162.092)" fill="#a8cff0"/>
        <path id="Trazado_119667" data-name="Trazado 119667" d="M386.02,170.83a3.893,3.893,0,0,0,1.767,3.048c.977.564,1.768.113,1.768-1.008a3.893,3.893,0,0,0-1.768-3.048C386.811,169.259,386.02,169.71,386.02,170.83Z" transform="translate(-372.345 -161.636)" fill="#a8cff0"/>
        <path id="Trazado_119668" data-name="Trazado 119668" d="M380.677,167.727a3.894,3.894,0,0,0,1.768,3.048c.976.563,1.767.112,1.767-1.008a3.893,3.893,0,0,0-1.767-3.048C381.468,166.155,380.677,166.607,380.677,167.727Z" transform="translate(-371.56 -161.18)" fill="#a8cff0"/>
        <path id="Trazado_119669" data-name="Trazado 119669" d="M375.334,164.623a3.9,3.9,0,0,0,1.768,3.048c.976.563,1.767.113,1.767-1.008a3.893,3.893,0,0,0-1.767-3.048C376.126,163.051,375.334,163.5,375.334,164.623Z" transform="translate(-370.776 -160.725)" fill="#a8cff0"/>
        <path id="Trazado_119670" data-name="Trazado 119670" d="M369.991,161.519a3.894,3.894,0,0,0,1.768,3.048c.976.564,1.767.113,1.767-1.008a3.894,3.894,0,0,0-1.767-3.048C370.783,159.948,369.991,160.4,369.991,161.519Z" transform="translate(-369.991 -160.269)" fill="#a8cff0"/>
      </g>
    </g>
    <g id="Grupo_82367" data-name="Grupo 82367" transform="translate(517.421 165.177)">
      <g id="Grupo_82357" data-name="Grupo 82357">
        <path id="Trazado_119671" data-name="Trazado 119671" d="M576.378,227.668l-23.241-13.546a7.019,7.019,0,0,1-2.931-5.6V178.2c0-2.158,1.312-3.151,2.931-2.216l23.241,13.546a7.02,7.02,0,0,1,2.931,5.6v30.323C579.31,227.611,578,228.6,576.378,227.668Z" transform="translate(-550.207 -174.926)" fill="#a8cff0"/>
        <path id="Trazado_119672" data-name="Trazado 119672" d="M577.039,226.463l-22.795-13.286A4.985,4.985,0,0,1,552.136,209V179.463a.52.52,0,0,1,.783-.447l.091.053,22.828,13.309a4.508,4.508,0,0,1,2.108,4.176v29.461a.561.561,0,0,1-.839.487Z" transform="translate(-550.49 -175.413)" fill="#084c94"/>
        <path id="Trazado_119673" data-name="Trazado 119673" d="M577.576,226.119l-.068-.039-22.794-13.285a4.985,4.985,0,0,1-2.108-4.175V179.08a.509.509,0,0,1,.018-.132.517.517,0,0,0-.487.515V209a4.985,4.985,0,0,0,2.109,4.175l22.795,13.286.068.039a.561.561,0,0,0,.811-.317A.546.546,0,0,1,577.576,226.119Z" transform="translate(-550.49 -175.413)" fill="#001a46"/>
        <path id="Trazado_119674" data-name="Trazado 119674" d="M577.949,188.7l-23.24-13.546a1.984,1.984,0,0,0-1.716-.252c-.061.024-1.428.721-1.486.752l0,0a1.914,1.914,0,0,1,1.823.2l23.241,13.546a7.02,7.02,0,0,1,2.931,5.6v30.323c0,1.347-.511,2.24-1.289,2.494a.486.486,0,0,0,.257-.088c.037-.021,1.474-.785,1.509-.81a2.706,2.706,0,0,0,.9-2.3V194.3A7.02,7.02,0,0,0,577.949,188.7Z" transform="translate(-550.398 -174.805)" fill="#3f92d1"/>
        <path id="Trazado_119675" data-name="Trazado 119675" d="M577.949,188.7l-23.24-13.546a1.984,1.984,0,0,0-1.716-.252c-.061.024-1.428.721-1.486.752l0,0a1.914,1.914,0,0,1,1.823.2l23.241,13.546Z" transform="translate(-550.398 -174.805)" fill="#4f9fdb"/>
        <path id="Trazado_119676" data-name="Trazado 119676" d="M576.744,189.447,553.5,175.9a1.944,1.944,0,0,0-1.765-.225,2.165,2.165,0,0,1,1.414.331l23.241,13.546a7.022,7.022,0,0,1,2.931,5.6v30.323a2.462,2.462,0,0,1-1.166,2.442c.9-.143,1.518-1.072,1.518-2.547V195.047A7.017,7.017,0,0,0,576.744,189.447Z" transform="translate(-550.432 -174.915)" fill="#fff" style="mix-blend-mode: screen;isolation: isolate"/>
      </g>
      <g id="Grupo_82358" data-name="Grupo 82358" transform="translate(14.284 24.708)">
        <path id="Trazado_119677" data-name="Trazado 119677" d="M567.463,213.741a.571.571,0,0,1-.113-.012.513.513,0,0,1-.386-.613,39.38,39.38,0,0,0,.9-8.635v-.2a.512.512,0,1,1,1.024,0v.2a40.426,40.426,0,0,1-.926,8.86A.512.512,0,0,1,567.463,213.741Z" transform="translate(-566.95 -203.766)" fill="#a8cff0"/>
      </g>
      <g id="Grupo_82359" data-name="Grupo 82359" transform="translate(10.634 21.227)">
        <path id="Trazado_119678" data-name="Trazado 119678" d="M563.184,216.6a.489.489,0,0,1-.12-.015.511.511,0,0,1-.378-.618,68.234,68.234,0,0,0,1.523-14.038,2.654,2.654,0,0,1,.856-2.131.511.511,0,0,1,.642.8,1.68,1.68,0,0,0-.475,1.335,69.344,69.344,0,0,1-1.551,14.279A.511.511,0,0,1,563.184,216.6Z" transform="translate(-562.671 -199.686)" fill="#a8cff0"/>
      </g>
      <g id="Grupo_82360" data-name="Grupo 82360" transform="translate(15.066 21.309)">
        <path id="Trazado_119679" data-name="Trazado 119679" d="M571.274,205.8a.511.511,0,0,1-.511-.512,5.913,5.913,0,0,0-2.641-4.552.512.512,0,1,1,.512-.886,6.849,6.849,0,0,1,3.152,5.438A.512.512,0,0,1,571.274,205.8Z" transform="translate(-567.866 -199.782)" fill="#a8cff0"/>
      </g>
      <g id="Grupo_82361" data-name="Grupo 82361" transform="translate(15.873 30.457)">
        <path id="Trazado_119680" data-name="Trazado 119680" d="M569.325,221.989a.5.5,0,0,1-.117-.014.512.512,0,0,1-.382-.614,101.51,101.51,0,0,0,1.8-10.4.512.512,0,0,1,1.017.117,102.775,102.775,0,0,1-1.822,10.519A.511.511,0,0,1,569.325,221.989Z" transform="translate(-568.812 -210.504)" fill="#a8cff0"/>
      </g>
      <g id="Grupo_82362" data-name="Grupo 82362" transform="translate(5.545 13.804)">
        <path id="Trazado_119681" data-name="Trazado 119681" d="M573.685,220.09a.505.505,0,0,1-.131-.017.513.513,0,0,1-.363-.626,47.081,47.081,0,0,0,1.461-12.054v-.2c0-5.167-3.664-11.487-8.168-14.087-2.1-1.211-4.035-1.421-5.464-.6s-2.193,2.577-2.193,4.957a49.639,49.639,0,0,1-1.108,10.737.512.512,0,1,1-1-.222,48.622,48.622,0,0,0,1.085-10.515c0-2.762.96-4.837,2.7-5.843s4.061-.8,6.487.6c4.786,2.763,8.679,9.48,8.679,14.974v.2a48.081,48.081,0,0,1-1.495,12.317A.511.511,0,0,1,573.685,220.09Z" transform="translate(-556.707 -190.985)" fill="#a8cff0"/>
      </g>
      <g id="Grupo_82363" data-name="Grupo 82363" transform="translate(7.919 29.088)">
        <path id="Trazado_119682" data-name="Trazado 119682" d="M560,214.83a.512.512,0,0,1-.5-.64,44.488,44.488,0,0,0,.956-4.852.521.521,0,0,1,.578-.435.511.511,0,0,1,.434.578,45.509,45.509,0,0,1-.977,4.964A.512.512,0,0,1,560,214.83Z" transform="translate(-559.489 -208.899)" fill="#a8cff0"/>
      </g>
      <g id="Grupo_82364" data-name="Grupo 82364" transform="translate(9.072 18.559)">
        <path id="Trazado_119683" data-name="Trazado 119683" d="M561.353,206.627a.429.429,0,0,1-.057,0,.512.512,0,0,1-.452-.565,56.145,56.145,0,0,0,.331-6.183,5.329,5.329,0,0,1,.851-3.1.512.512,0,0,1,.835.593,4.325,4.325,0,0,0-.663,2.509,57.308,57.308,0,0,1-.337,6.3A.512.512,0,0,1,561.353,206.627Z" transform="translate(-560.84 -196.558)" fill="#a8cff0"/>
      </g>
      <g id="Grupo_82365" data-name="Grupo 82365" transform="translate(11.74 17.362)">
        <path id="Trazado_119684" data-name="Trazado 119684" d="M572.683,202.972a.513.513,0,0,1-.476-.323,11.9,11.9,0,0,0-4.656-5.762,4,4,0,0,0-2.942-.625.512.512,0,1,1-.257-.991,4.987,4.987,0,0,1,3.71.73,12.778,12.778,0,0,1,5.1,6.271.513.513,0,0,1-.475.7Z" transform="translate(-563.968 -195.155)" fill="#a8cff0"/>
      </g>
      <g id="Grupo_82366" data-name="Grupo 82366" transform="translate(18.636 27.901)">
        <path id="Trazado_119685" data-name="Trazado 119685" d="M572.562,222.5a.507.507,0,0,1-.161-.026.513.513,0,0,1-.324-.648l.114-.34a42.2,42.2,0,0,0,1.951-13.259v-.2a.511.511,0,1,1,1.023,0v.2a43.234,43.234,0,0,1-2,13.581l-.114.341A.513.513,0,0,1,572.562,222.5Z" transform="translate(-572.05 -207.508)" fill="#a8cff0"/>
      </g>
    </g>
  </g>
</svg>
