<svg xmlns="http://www.w3.org/2000/svg" xmlns:xlink="http://www.w3.org/1999/xlink" width="190" height="115" viewBox="0 0 190 115">
  <defs>
    <clipPath id="clip-path">
      <rect id="Rectángulo_45253" data-name="Rectángulo 45253" width="190" height="115" transform="translate(1020 9470)" fill="#2ff980"/>
    </clipPath>
  </defs>
  <g id="Enmascarar_grupo_141" data-name="Enmascarar grupo 141" transform="translate(-1020 -9470)" clip-path="url(#clip-path)">
    <g id="expediente" transform="translate(1036.292 9470)">
      <g id="Grupo_948156" data-name="Grupo 948156" transform="translate(29.598 2.246)">
        <g id="Grupo_948152" data-name="Grupo 948152" transform="translate(15.301 40.712)">
          <path id="Trazado_632975" data-name="Trazado 632975" d="M167.05,193.245a21.337,21.337,0,0,1-6.292-.943v50.738a5.928,5.928,0,0,1-5.928,5.928H105.476v6.155a5.928,5.928,0,0,0,5.928,5.928h58.727a5.928,5.928,0,0,0,5.928-5.928V191.256A21.262,21.262,0,0,1,167.05,193.245Z" transform="translate(-105.476 -191.256)" fill="#e6e1fb"/>
        </g>
        <g id="Grupo_948153" data-name="Grupo 948153" transform="translate(0 4.862)">
          <path id="Trazado_632976" data-name="Trazado 632976" d="M100.216,31.646H43.28a5.928,5.928,0,0,0-5.928,5.928v81.707a5.928,5.928,0,0,0,5.928,5.928h58.727a5.928,5.928,0,0,0,5.928-5.928V68.992" transform="translate(-37.352 -31.646)" fill="#faf7f5"/>
        </g>
        <g id="Grupo_948154" data-name="Grupo 948154" transform="translate(55.529)">
          <ellipse id="Elipse_5348" data-name="Elipse 5348" cx="21.346" cy="21.351" rx="21.346" ry="21.351" fill="#583ae2"/>
        </g>
        <g id="Grupo_948155" data-name="Grupo 948155" transform="translate(15.054 22.6)">
          <path id="Trazado_632977" data-name="Trazado 632977" d="M104.377,110.62h40.474v9.486H104.377Z" transform="translate(-104.377 -110.62)" fill="#ffe6b4"/>
        </g>
      </g>
      <g id="Grupo_948174" data-name="Grupo 948174" transform="translate(27.352)">
        <g id="Grupo_948158" data-name="Grupo 948158" transform="translate(76.885 18.408)">
          <g id="Grupo_948157" data-name="Grupo 948157">
            <path id="Trazado_632978" data-name="Trazado 632978" d="M371.9,101.807a2.246,2.246,0,0,1-2.246-2.246V84.2a2.246,2.246,0,0,1,4.492,0V99.561A2.246,2.246,0,0,1,371.9,101.807Z" transform="translate(-369.655 -81.956)"/>
          </g>
        </g>
        <g id="Grupo_948160" data-name="Grupo 948160" transform="translate(76.875 11.181)">
          <g id="Grupo_948159" data-name="Grupo 948159">
            <circle id="Elipse_5349" data-name="Elipse 5349" cx="2.246" cy="2.246" r="2.246"/>
          </g>
        </g>
        <g id="Grupo_948163" data-name="Grupo 948163" transform="translate(0)">
          <path id="Trazado_632979" data-name="Trazado 632979" d="M130.065,23.6A23.58,23.58,0,0,0,92.144,4.862H35.526a8.183,8.183,0,0,0-8.174,8.174V94.743a8.184,8.184,0,0,0,8.174,8.174h7.127v3.908A8.184,8.184,0,0,0,50.828,115h58.727a8.184,8.184,0,0,0,8.174-8.174V75.672a2.246,2.246,0,1,0-4.492,0v31.154a3.686,3.686,0,0,1-3.682,3.682H50.828a3.686,3.686,0,0,1-3.682-3.682v-3.908H94.253a8.184,8.184,0,0,0,8.174-8.174v-47.9a23.678,23.678,0,0,0,10.809-.641v9.159a2.246,2.246,0,1,0,4.492,0V44.331A23.618,23.618,0,0,0,130.065,23.6ZM97.935,94.743a3.686,3.686,0,0,1-3.682,3.682H35.526a3.686,3.686,0,0,1-3.682-3.682V13.036a3.686,3.686,0,0,1,3.682-3.682H87.674A23.473,23.473,0,0,0,82.9,22.6H44.653a2.246,2.246,0,0,0-2.246,2.246v9.486a2.246,2.246,0,0,0,2.246,2.246H85.127a2.236,2.236,0,0,0,1.359-.458,23.73,23.73,0,0,0,11.45,9.474ZM82.881,27.092v4.994H46.9V27.092ZM106.473,42.7a19.1,19.1,0,1,1,19.1-19.1A19.124,19.124,0,0,1,106.473,42.7Z" transform="translate(-27.352)"/>
          <g id="Grupo_948162" data-name="Grupo 948162" transform="translate(85.888 63.237)">
            <g id="Grupo_948161" data-name="Grupo 948161">
              <path id="Trazado_632980" data-name="Trazado 632980" d="M411.983,286.028a2.246,2.246,0,1,1,2.188-1.737A2.267,2.267,0,0,1,411.983,286.028Z" transform="translate(-409.742 -281.541)"/>
            </g>
          </g>
        </g>
        <g id="Grupo_948173" data-name="Grupo 948173" transform="translate(15.054 44.39)">
          <g id="Grupo_948172" data-name="Grupo 948172">
            <g id="Grupo_948165" data-name="Grupo 948165">
              <g id="Grupo_948164" data-name="Grupo 948164">
                <path id="Trazado_632981" data-name="Trazado 632981" d="M137.1,202.125H96.623a2.246,2.246,0,1,1,0-4.492H137.1a2.246,2.246,0,1,1,0,4.492Z" transform="translate(-94.377 -197.633)"/>
              </g>
            </g>
            <g id="Grupo_948167" data-name="Grupo 948167" transform="translate(0 10.653)">
              <g id="Grupo_948166" data-name="Grupo 948166">
                <path id="Trazado_632982" data-name="Trazado 632982" d="M137.1,249.555H96.623a2.246,2.246,0,0,1,0-4.492H137.1a2.246,2.246,0,0,1,0,4.492Z" transform="translate(-94.377 -245.063)"/>
              </g>
            </g>
            <g id="Grupo_948169" data-name="Grupo 948169" transform="translate(0 21.306)">
              <g id="Grupo_948168" data-name="Grupo 948168">
                <path id="Trazado_632983" data-name="Trazado 632983" d="M137.1,296.985H96.623a2.246,2.246,0,0,1,0-4.492H137.1a2.246,2.246,0,1,1,0,4.492Z" transform="translate(-94.377 -292.493)"/>
              </g>
            </g>
            <g id="Grupo_948171" data-name="Grupo 948171" transform="translate(0 31.96)">
              <g id="Grupo_948170" data-name="Grupo 948170">
                <path id="Trazado_632984" data-name="Trazado 632984" d="M137.1,344.415H96.623a2.246,2.246,0,0,1,0-4.492H137.1a2.246,2.246,0,0,1,0,4.492Z" transform="translate(-94.377 -339.923)"/>
              </g>
            </g>
          </g>
        </g>
      </g>
    </g>
  </g>
</svg>
