<svg xmlns="http://www.w3.org/2000/svg" width="93.975" height="108.377" viewBox="0 0 93.975 108.377">
  <g id="lista-de-verificacion_7_" data-name="lista-de-verificacion(7)" transform="translate(-34.02)">
    <g id="Grupo_955942" data-name="Grupo 955942" transform="translate(35.607 1.588)">
      <g id="Grupo_955941" data-name="Grupo 955941" transform="translate(0)">
        <g id="Grupo_955938" data-name="Grupo 955938">
          <g id="Grupo_955935" data-name="Grupo 955935">
            <path id="Trazado_656219" data-name="Trazado 656219" d="M112.416,144.937H45.4a3.886,3.886,0,0,1-3.886-3.886V52.277A3.886,3.886,0,0,1,45.4,48.391h67.015a3.886,3.886,0,0,1,3.886,3.886v88.774A3.886,3.886,0,0,1,112.416,144.937Z" transform="translate(-41.515 -39.735)" fill="#583ae2"/>
            <path id="Trazado_656220" data-name="Trazado 656220" d="M328.032,48.39H315.026a3.886,3.886,0,0,1,3.886,3.886V141.05a3.886,3.886,0,0,1-3.886,3.886h13.006a3.886,3.886,0,0,0,3.886-3.886V52.276a3.886,3.886,0,0,0-3.886-3.886Z" transform="translate(-257.131 -39.735)" fill="#342287"/>
            <path id="Trazado_656221" data-name="Trazado 656221" d="M71.522,160.852V79.787A1.389,1.389,0,0,1,72.911,78.4h59.306a1.389,1.389,0,0,1,1.389,1.389v81.065a1.389,1.389,0,0,1-1.389,1.389H72.911A1.389,1.389,0,0,1,71.522,160.852Z" transform="translate(-65.17 -63.391)" fill="#f5f5f5"/>
            <path id="Trazado_656222" data-name="Trazado 656222" d="M309.822,78.4H296.816a1.389,1.389,0,0,1,1.389,1.389v81.065a1.389,1.389,0,0,1-1.389,1.389h13.006a1.389,1.389,0,0,0,1.389-1.389V79.787A1.389,1.389,0,0,0,309.822,78.4Z" transform="translate(-242.776 -63.391)" fill="#eaeaea"/>
            <path id="Trazado_656223" data-name="Trazado 656223" d="M164.286,12.336V10.29A2.79,2.79,0,0,0,161.5,7.5h-10.93a2.79,2.79,0,0,0-2.79,2.79v2.046a1.141,1.141,0,0,1-1.141,1.141h-4.549a2.74,2.74,0,0,0-2.74,2.74v6.289h33.372V16.218a2.74,2.74,0,0,0-2.74-2.74h-4.549A1.141,1.141,0,0,1,164.286,12.336Z" transform="translate(-118.636 -7.5)" fill="#c2d0da"/>
          </g>
          <g id="Grupo_955937" data-name="Grupo 955937" transform="translate(14.432 22.871)">
            <g id="Grupo_955936" data-name="Grupo 955936">
              <path id="Trazado_656224" data-name="Trazado 656224" d="M109.694,130.236V118a2.454,2.454,0,0,1,2.454-2.454h12.233A2.454,2.454,0,0,1,126.836,118v12.233a2.454,2.454,0,0,1-2.454,2.454H112.148A2.454,2.454,0,0,1,109.694,130.236Z" transform="translate(-109.694 -115.548)" fill="#66b49d"/>
              <path id="Trazado_656225" data-name="Trazado 656225" d="M109.694,250.643V238.409a2.454,2.454,0,0,1,2.454-2.454h12.233a2.454,2.454,0,0,1,2.454,2.454v12.233a2.454,2.454,0,0,1-2.454,2.454H112.148A2.454,2.454,0,0,1,109.694,250.643Z" transform="translate(-109.694 -210.468)" fill="#66b49d"/>
              <path id="Trazado_656226" data-name="Trazado 656226" d="M109.694,371.048V358.814a2.454,2.454,0,0,1,2.454-2.454h12.233a2.454,2.454,0,0,1,2.454,2.454v12.233a2.454,2.454,0,0,1-2.454,2.454H112.148A2.454,2.454,0,0,1,109.694,371.048Z" transform="translate(-109.694 -305.387)" fill="#66b49d"/>
            </g>
          </g>
        </g>
        <g id="Grupo_955940" data-name="Grupo 955940" transform="translate(40.958 24.666)">
          <g id="Grupo_955939" data-name="Grupo 955939" transform="translate(2.607)">
            <path id="Trazado_656227" data-name="Trazado 656227" d="M288.39,180.59l-1.559-2.053L281,174.843l-2.242-.353-29.864,47.192a12.292,12.292,0,0,0-1.565,3.7,9.62,9.62,0,0,1,8.526,5.4,12.289,12.289,0,0,0,2.672-2.995Z" transform="translate(-247.328 -163.808)" fill="#fc8086"/>
            <path id="Trazado_656228" data-name="Trazado 656228" d="M421.607,126.277l-2.52-1.6a4.209,4.209,0,0,0-5.809,1.305l-2.311,3.652.737,1.486,7.013,4.441,1.883.173,2.312-3.654a4.209,4.209,0,0,0-1.3-5.807Z" transform="translate(-376.329 -124.027)" fill="#8c9ba6"/>
          </g>
          <path id="Trazado_656229" data-name="Trazado 656229" d="M0,0H6V11.4H0Z" transform="matrix(0.535, -0.845, 0.845, 0.535, 34.04, 10.668)" fill="#c9e2e7"/>
          <path id="Trazado_656230" data-name="Trazado 656230" d="M246.144,420.294l-8.5,6.852a1.614,1.614,0,0,1-2.581-1.634l2.559-10.617A9.62,9.62,0,0,1,246.144,420.294Z" transform="translate(-235.011 -353.326)" fill="#7c8b96"/>
        </g>
      </g>
    </g>
    <g id="Grupo_955945" data-name="Grupo 955945" transform="translate(34.02 0)">
      <g id="Grupo_955944" data-name="Grupo 955944" transform="translate(0 0)">
        <g id="Grupo_955943" data-name="Grupo 955943">
          <path id="Trazado_656231" data-name="Trazado 656231" d="M135.985,135.648a1.588,1.588,0,0,0-2.22.337l-3.142,4.269-1.074-1.476a1.588,1.588,0,1,0-2.567,1.869l1.854,2.546a2.215,2.215,0,0,0,1.778.908h.006a2.214,2.214,0,0,0,1.777-.9l3.927-5.335a1.589,1.589,0,0,0-.338-2.22Z" transform="translate(-107.063 -106.691)"/>
          <path id="Trazado_656232" data-name="Trazado 656232" d="M135.984,258.675a1.588,1.588,0,0,0-2.22.337l-3.142,4.269-1.074-1.476a1.588,1.588,0,1,0-2.568,1.869l1.854,2.546a2.214,2.214,0,0,0,1.778.908h.006a2.215,2.215,0,0,0,1.778-.9l3.927-5.335A1.588,1.588,0,0,0,135.984,258.675Z" transform="translate(-107.063 -203.676)"/>
          <path id="Trazado_656233" data-name="Trazado 656233" d="M135.984,376.459a1.588,1.588,0,0,0-2.22.337l-3.142,4.269-1.074-1.476a1.588,1.588,0,1,0-2.568,1.869L128.833,384a2.214,2.214,0,0,0,1.778.908h.006a2.215,2.215,0,0,0,1.778-.9l3.927-5.335A1.588,1.588,0,0,0,135.984,376.459Z" transform="translate(-107.063 -296.529)"/>
          <path id="Trazado_656234" data-name="Trazado 656234" d="M222.113,136.043h19.625a1.588,1.588,0,1,0,0-3.176H222.113a1.588,1.588,0,1,0,0,3.176Z" transform="translate(-181.047 -104.743)"/>
          <path id="Trazado_656235" data-name="Trazado 656235" d="M222.113,167.384h9.813a1.588,1.588,0,1,0,0-3.176h-9.813a1.588,1.588,0,0,0,0,3.176Z" transform="translate(-181.047 -129.45)"/>
          <path id="Trazado_656236" data-name="Trazado 656236" d="M222.113,256.448h13.168a1.588,1.588,0,1,0,0-3.176H222.113a1.588,1.588,0,1,0,0,3.176Z" transform="translate(-181.047 -199.661)"/>
          <path id="Trazado_656237" data-name="Trazado 656237" d="M231.926,287.79a1.588,1.588,0,1,0,0-3.176h-9.813a1.588,1.588,0,0,0,0,3.176Z" transform="translate(-181.047 -224.369)"/>
          <path id="Trazado_656238" data-name="Trazado 656238" d="M118.473,108.047H106.239a4.047,4.047,0,0,0-4.042,4.042v12.233a4.047,4.047,0,0,0,4.042,4.042h12.233a4.047,4.047,0,0,0,4.042-4.042V112.089A4.047,4.047,0,0,0,118.473,108.047Zm.866,16.276a.867.867,0,0,1-.866.866H106.239a.867.867,0,0,1-.866-.866V112.089a.867.867,0,0,1,.866-.866h12.233a.867.867,0,0,1,.866.866Z" transform="translate(-87.766 -85.176)"/>
          <path id="Trazado_656239" data-name="Trazado 656239" d="M118.473,228.453H106.239A4.047,4.047,0,0,0,102.2,232.5v12.233a4.047,4.047,0,0,0,4.042,4.042h12.233a4.047,4.047,0,0,0,4.042-4.042V232.5A4.047,4.047,0,0,0,118.473,228.453Zm.866,16.276a.867.867,0,0,1-.866.866H106.239a.867.867,0,0,1-.866-.866V232.5a.867.867,0,0,1,.866-.866h12.233a.867.867,0,0,1,.866.866Z" transform="translate(-87.766 -180.096)"/>
          <path id="Trazado_656240" data-name="Trazado 656240" d="M118.473,348.857H106.239A4.047,4.047,0,0,0,102.2,352.9v12.233a4.047,4.047,0,0,0,4.042,4.042h12.233a4.047,4.047,0,0,0,4.042-4.042V352.9A4.047,4.047,0,0,0,118.473,348.857Zm.866,16.276a.867.867,0,0,1-.866.866H106.239a.867.867,0,0,1-.866-.866V352.9a.867.867,0,0,1,.866-.866h12.233a.867.867,0,0,1,.866.866Z" transform="translate(-87.766 -275.013)"/>
          <path id="Trazado_656241" data-name="Trazado 656241" d="M125.3,27.161l-2.52-1.6a5.8,5.8,0,0,0-8,1.8l-2.311,3.652-3.209,5.071-3.629,5.734V17.984a2.98,2.98,0,0,0-2.977-2.977H91.275V11.831h15.233a2.3,2.3,0,0,1,2.3,2.3V27.881a1.588,1.588,0,0,0,3.176,0V14.129a5.48,5.48,0,0,0-5.474-5.474H90.947a4.334,4.334,0,0,0-4-2.678h-4.1v-1.6A4.383,4.383,0,0,0,78.467,0H67.536a4.383,4.383,0,0,0-4.378,4.378v1.6h-4.1a4.333,4.333,0,0,0-4,2.678H39.494A5.48,5.48,0,0,0,34.02,14.13V102.9a5.48,5.48,0,0,0,5.474,5.474h67.015a5.48,5.48,0,0,0,5.474-5.474V67.3a1.588,1.588,0,0,0-3.176,0v35.6a2.3,2.3,0,0,1-2.3,2.3H39.494a2.3,2.3,0,0,1-2.3-2.3V14.129a2.3,2.3,0,0,1,2.3-2.3H54.727v3.176H43.349a2.98,2.98,0,0,0-2.977,2.977V99.048a2.98,2.98,0,0,0,2.977,2.977h59.305a2.98,2.98,0,0,0,2.977-2.977V69.081l15.946-25.2h0l3.208-5.069L127.1,35.16a5.8,5.8,0,0,0-1.8-8Zm-6.2.744a2.6,2.6,0,0,1,1.977.343l2.52,1.6a2.624,2.624,0,0,1,.813,3.616l-1.463,2.312-6.95-4.4,1.462-2.31a2.6,2.6,0,0,1,1.64-1.156ZM89.029,89.377a10.691,10.691,0,0,1-1.006,1.341,11.162,11.162,0,0,0-1.688-1.807l29.589-46.726,2.119,1.342Zm-10.843,9.47a.214.214,0,0,0-.03-.011h0L80.4,89.52a7.994,7.994,0,0,1,5.243,3.32c-8.408,6.775-7.335,5.9-7.454,6.007ZM114.3,34.056l6.95,4.4-1.51,2.387-6.95-4.4ZM57.9,10.341c0-.019,0-.039,0-.059s0-.013,0-.02a1.153,1.153,0,0,1,1.15-1.109H63.6a2.732,2.732,0,0,0,2.729-2.729V4.378a1.2,1.2,0,0,1,1.2-1.2h10.93a1.2,1.2,0,0,1,1.2,1.2V6.424A2.732,2.732,0,0,0,82.4,9.153h4.549a1.153,1.153,0,0,1,1.15,1.109c0,.007,0,.013,0,.02s0,.039,0,.058v4.666H57.9ZM43.547,18.183h58.908V46.839L85.835,73.1a1.588,1.588,0,1,0,2.684,1.7l22.575-35.674,2.147,1.36L83.652,87.212a11.151,11.151,0,0,0-2.355-.753,10.739,10.739,0,0,1,.782-1.483l2.469-3.9a1.588,1.588,0,1,0-2.684-1.7l-2.468,3.9a13.854,13.854,0,0,0-1.767,4.173h0L75.07,98.067a3.3,3.3,0,0,0-.092.782H43.547Zm58.908,80.666H83.245l5.45-4.392a13.849,13.849,0,0,0,3.017-3.382L102.455,74.1Z" transform="translate(-34.02 0)"/>
        </g>
      </g>
    </g>
  </g>
</svg>
