<svg xmlns="http://www.w3.org/2000/svg" width="105.544" height="105.545" viewBox="0 0 105.544 105.545">
  <g id="notas" transform="translate(-1 -1)">
    <g id="Grupo_955958" data-name="Grupo 955958" transform="translate(2.702 2.702)">
      <g id="Grupo_955946" data-name="Grupo 955946" transform="translate(13.619 0)">
        <path id="Trazado_656242" data-name="Trazado 656242" d="M75.369,57.121,71.284,73.48V8.809H10V5.4A3.415,3.415,0,0,1,13.4,2H74.688a3.415,3.415,0,0,1,3.4,3.4V46.26Z" transform="translate(-10 -2)" fill="#f0d0b4"/>
      </g>
      <g id="Grupo_955947" data-name="Grupo 955947" transform="translate(6.997 95.33)">
        <path id="Trazado_656243" data-name="Trazado 656243" d="M74.016,63.107v1.7H12.732a3.427,3.427,0,0,1-2.724-1.362L6.6,58.9A3.574,3.574,0,0,1,6.11,58H72.875Z" transform="translate(-6.11 -58)" fill="#f0d0b4"/>
      </g>
      <g id="Grupo_955948" data-name="Grupo 955948" transform="translate(6.809 6.809)">
        <path id="Trazado_656244" data-name="Trazado 656244" d="M12.809,6H9.4A3.415,3.415,0,0,0,6,9.4V93.38a3.64,3.64,0,0,0,.187,1.141H72.952L70.858,85.09a3.737,3.737,0,0,1,.017-1.566l.1-.375,3.115-12.461V6Z" transform="translate(-6 -6)" fill="#e6e9ed"/>
      </g>
      <g id="Grupo_955949" data-name="Grupo 955949" transform="translate(0 20.428)">
        <path id="Trazado_656245" data-name="Trazado 656245" d="M15.619,15.7v3.4a1.707,1.707,0,0,1-1.7,1.7H3.7a1.707,1.707,0,0,1-1.7-1.7V15.7A1.707,1.707,0,0,1,3.7,14H13.916A1.707,1.707,0,0,1,15.619,15.7Z" transform="translate(-2 -14)" fill="#ef7385"/>
      </g>
      <g id="Grupo_955950" data-name="Grupo 955950" transform="translate(0 34.046)">
        <path id="Trazado_656246" data-name="Trazado 656246" d="M15.619,23.7v3.4a1.707,1.707,0,0,1-1.7,1.7H3.7a1.707,1.707,0,0,1-1.7-1.7V23.7A1.707,1.707,0,0,1,3.7,22H13.916A1.707,1.707,0,0,1,15.619,23.7Z" transform="translate(-2 -22)" fill="#ef7385"/>
      </g>
      <g id="Grupo_955951" data-name="Grupo 955951" transform="translate(0 47.665)">
        <path id="Trazado_656247" data-name="Trazado 656247" d="M15.619,31.7v3.4a1.707,1.707,0,0,1-1.7,1.7H3.7a1.707,1.707,0,0,1-1.7-1.7V31.7A1.707,1.707,0,0,1,3.7,30H13.916A1.707,1.707,0,0,1,15.619,31.7Z" transform="translate(-2 -30)" fill="#ef7385"/>
      </g>
      <g id="Grupo_955952" data-name="Grupo 955952" transform="translate(0 61.284)">
        <path id="Trazado_656248" data-name="Trazado 656248" d="M15.619,39.7v3.4a1.707,1.707,0,0,1-1.7,1.7H3.7a1.707,1.707,0,0,1-1.7-1.7V39.7A1.707,1.707,0,0,1,3.7,38H13.916A1.707,1.707,0,0,1,15.619,39.7Z" transform="translate(-2 -38)" fill="#ef7385"/>
      </g>
      <g id="Grupo_955953" data-name="Grupo 955953" transform="translate(0 74.902)">
        <path id="Trazado_656249" data-name="Trazado 656249" d="M15.619,47.7v3.4a1.707,1.707,0,0,1-1.7,1.7H3.7a1.707,1.707,0,0,1-1.7-1.7V47.7A1.707,1.707,0,0,1,3.7,46H13.916A1.707,1.707,0,0,1,15.619,47.7Z" transform="translate(-2 -46)" fill="#ef7385"/>
      </g>
      <g id="Grupo_955954" data-name="Grupo 955954" transform="translate(44.26 17.023)">
        <path id="Trazado_656250" data-name="Trazado 656250" d="M28,12H48.428V32.428H28Z" transform="translate(-28 -12)" fill="#69d6f4"/>
      </g>
      <g id="Grupo_955955" data-name="Grupo 955955" transform="translate(20.428 64.688)">
        <path id="Trazado_656251" data-name="Trazado 656251" d="M14,40H34.428V60.428H14Z" transform="translate(-14 -40)" fill="#fcd770"/>
      </g>
      <g id="Grupo_955956" data-name="Grupo 955956" transform="translate(71.787 21.909)">
        <path id="Trazado_656252" data-name="Trazado 656252" d="M73.058,18.241a8.409,8.409,0,0,0-6.724-3.371,8.539,8.539,0,0,0-2.673.443l-.051.017A8.434,8.434,0,0,0,58.078,21.3L44.17,76.92l15.117,4.12a1.944,1.944,0,0,0,.153-.443L74.284,24.522a7.735,7.735,0,0,0,.238-1.873A7.335,7.335,0,0,0,73.058,18.241Z" transform="translate(-44.17 -14.87)" fill="#fcd770"/>
      </g>
      <g id="Grupo_955957" data-name="Grupo 955957" transform="translate(71.593 83.959)">
        <path id="Trazado_656253" data-name="Trazado 656253" d="M44.25,51.32l15.117,4.12a3.41,3.41,0,0,1-.732,1.089L47.365,67.8l-1.141-5.107-2.094-9.431a3.737,3.737,0,0,1,.017-1.566Z" transform="translate(-44.056 -51.32)" fill="#aab2bd"/>
      </g>
    </g>
    <g id="Grupo_955959" data-name="Grupo 955959" transform="translate(1 1)">
      <path id="Trazado_656254" data-name="Trazado 656254" d="M50.833,11H27V34.833H50.833Zm-3.4,20.428H30.4V14.4H47.428Z" transform="translate(17.26 6.023)"/>
      <path id="Trazado_656255" data-name="Trazado 656255" d="M13,11h6.809v3.4H13Z" transform="translate(7.428 6.023)"/>
      <path id="Trazado_656256" data-name="Trazado 656256" d="M19,11H29.214v3.4H19Z" transform="translate(11.642 6.023)"/>
      <path id="Trazado_656257" data-name="Trazado 656257" d="M13,15H33.428v3.4H13Z" transform="translate(7.428 8.833)"/>
      <path id="Trazado_656258" data-name="Trazado 656258" d="M13,19H33.428v3.4H13Z" transform="translate(7.428 11.642)"/>
      <path id="Trazado_656259" data-name="Trazado 656259" d="M13,23H33.428v3.4H13Z" transform="translate(7.428 14.451)"/>
      <path id="Trazado_656260" data-name="Trazado 656260" d="M13,27H60.665v3.4H13Z" transform="translate(7.428 17.26)"/>
      <path id="Trazado_656261" data-name="Trazado 656261" d="M13,31H60.665v3.4H13Z" transform="translate(7.428 20.07)"/>
      <path id="Trazado_656262" data-name="Trazado 656262" d="M13,35H60.665v3.4H13Z" transform="translate(7.428 22.879)"/>
      <path id="Trazado_656263" data-name="Trazado 656263" d="M36.833,39H13V62.833H36.833Zm-3.4,20.428H16.4V42.4H33.428Z" transform="translate(7.428 25.688)"/>
      <path id="Trazado_656264" data-name="Trazado 656264" d="M29,43H49.428v3.4H29Z" transform="translate(18.665 28.498)"/>
      <path id="Trazado_656265" data-name="Trazado 656265" d="M29,47H49.428v3.4H29Z" transform="translate(18.665 31.307)"/>
      <path id="Trazado_656266" data-name="Trazado 656266" d="M104.734,26.959a10.179,10.179,0,0,0-17.992,3.679l-.626,2.5V6.107A5.113,5.113,0,0,0,81.009,1H19.726a5.113,5.113,0,0,0-5.107,5.107v1.7h-1.7a5.113,5.113,0,0,0-5.107,5.107v8.512H4.4a3.408,3.408,0,0,0-3.4,3.4v3.4a3.408,3.408,0,0,0,3.4,3.4h3.4v3.4H4.4a3.408,3.408,0,0,0-3.4,3.4v3.4a3.408,3.408,0,0,0,3.4,3.4h3.4v3.4H4.4A3.408,3.408,0,0,0,1,52.07v3.4a3.408,3.408,0,0,0,3.4,3.4h3.4v3.4H4.4a3.408,3.408,0,0,0-3.4,3.4v3.4a3.408,3.408,0,0,0,3.4,3.4h3.4v3.4H4.4a3.408,3.408,0,0,0-3.4,3.4v3.4a3.408,3.408,0,0,0,3.4,3.4h3.4V96.9a5.128,5.128,0,0,0,1.023,3.064l3.4,4.54a5.13,5.13,0,0,0,4.086,2.043H79.307v-2.7L90.076,93.075l0,0a5.086,5.086,0,0,0,1.323-2.3l14.843-56.066a9.054,9.054,0,0,0-1.508-7.747ZM18.023,6.107a1.7,1.7,0,0,1,1.7-1.7H81.009a1.7,1.7,0,0,1,1.7,1.7V46.755l-3.4,13.617V7.809H18.023ZM76.181,88.886l10.427,2.843-8.015,8.015ZM4.4,24.833H14.619l0,3.4H4.4Zm0,13.619H14.619l0,3.4H4.4Zm0,13.619H14.619l0,3.4H4.4Zm0,13.619H14.619l0,3.4H4.4Zm0,13.619H14.619l0,3.4H4.4Zm10.214,6.809a3.408,3.408,0,0,0,3.4-3.4v-3.4a3.408,3.408,0,0,0-3.4-3.4h-3.4V72.5h3.4a3.408,3.408,0,0,0,3.4-3.4v-3.4a3.408,3.408,0,0,0-3.4-3.4h-3.4v-3.4h3.4a3.408,3.408,0,0,0,3.4-3.4v-3.4a3.408,3.408,0,0,0-3.4-3.4h-3.4v-3.4h3.4a3.408,3.408,0,0,0,3.4-3.4v-3.4a3.408,3.408,0,0,0-3.4-3.4h-3.4v-3.4h3.4a3.408,3.408,0,0,0,3.4-3.4v-3.4a3.408,3.408,0,0,0-3.4-3.4h-3.4V12.916a1.7,1.7,0,0,1,1.7-1.7H75.9V73.987l-3.16,12.64a5.174,5.174,0,0,0-.031,2.346l1.636,7.357H11.214V86.116Zm.34,16.342-2.043-2.724H75.1l.756,3.4H16.321A1.708,1.708,0,0,1,14.959,102.458ZM88.428,88.7,76.544,85.456l6.382-25.528,12.235,3.337Zm14.524-54.864-6.92,26.141-12.279-3.35,6.29-25.16a6.845,6.845,0,0,1,6.605-5.148A6.7,6.7,0,0,1,102.011,29a5.651,5.651,0,0,1,.941,4.831Z" transform="translate(-1 -1)"/>
    </g>
  </g>
</svg>
