<svg xmlns="http://www.w3.org/2000/svg" width="268.262" height="248.804" viewBox="0 0 268.262 248.804">
  <g id="Grupo_958930" data-name="Grupo 958930" transform="translate(-607.983 -3793.093)">
    <rect id="Rectángulo_45554" data-name="Rectángulo 45554" width="268.262" height="45.17" transform="translate(607.983 3996.164)" fill="#e6e1fb"/>
    <g id="Grupo_958934" data-name="Grupo 958934" transform="translate(642.042 3924.829)">
      <g id="Grupo_958930-2" data-name="Grupo 958930" transform="translate(0 79.85)">
        <path id="Trazado_658535" data-name="Trazado 658535" d="M706.98,3942.682v23.737c0,2.056-17,3.727-37.96,3.727s-37.96-1.67-37.96-3.727v-23.737Z" transform="translate(-631.06 -3933.491)" fill="#b2bdca"/>
        <path id="Trazado_658536" data-name="Trazado 658536" d="M693.358,3945.207v17.3c0,1.5-12.384,2.714-27.66,2.714S638.04,3964,638.04,3962.5v-17.3Z" transform="translate(-627.738 -3932.29)" fill="#9aa9b7"/>
        <ellipse id="Elipse_5719" data-name="Elipse 5719" cx="37.958" cy="3.729" rx="37.958" ry="3.729" transform="translate(0.001 5.459)" fill="#c3cad1"/>
        <path id="Trazado_658537" data-name="Trazado 658537" d="M706.976,3942.68c0,2.061-16.993,3.73-37.957,3.73s-37.958-1.669-37.958-3.73" transform="translate(-631.059 -3933.492)" fill="none" stroke="#708699" stroke-linecap="round" stroke-miterlimit="10" stroke-width="1"/>
        <path id="Trazado_658538" data-name="Trazado 658538" d="M700.98,3938.681v3.948c0,1.81-14.966,3.281-33.423,3.281s-33.422-1.472-33.422-3.281v-3.948Z" transform="translate(-629.597 -3935.396)" fill="#8699ad"/>
        <ellipse id="Elipse_5720" data-name="Elipse 5720" cx="33.421" cy="3.283" rx="33.421" ry="3.283" transform="translate(4.539)" fill="#b2bdca"/>
        <circle id="Elipse_5721" data-name="Elipse 5721" cx="2.739" cy="2.739" r="2.739" transform="translate(59.865 20.183)" fill="#fff"/>
        <circle id="Elipse_5722" data-name="Elipse 5722" cx="2.739" cy="2.739" r="2.739" transform="translate(47.66 20.183)" fill="#fff"/>
        <circle id="Elipse_5723" data-name="Elipse 5723" cx="2.739" cy="2.739" r="2.739" transform="translate(35.456 20.183)" fill="#fff"/>
      </g>
      <g id="Grupo_958931" data-name="Grupo 958931" transform="translate(0 51.414)">
        <path id="Trazado_658539" data-name="Trazado 658539" d="M706.98,3923.415v23.736c0,2.056-17,3.727-37.96,3.727s-37.96-1.67-37.96-3.727v-23.736Z" transform="translate(-631.06 -3914.224)" fill="#b2bdca"/>
        <path id="Trazado_658540" data-name="Trazado 658540" d="M693.358,3925.939v17.295c0,1.5-12.384,2.715-27.66,2.715s-27.658-1.217-27.658-2.715v-17.295Z" transform="translate(-627.738 -3913.022)" fill="#9aa9b7"/>
        <ellipse id="Elipse_5724" data-name="Elipse 5724" cx="37.958" cy="3.729" rx="37.958" ry="3.729" transform="translate(0.001 5.459)" fill="#c3cad1"/>
        <path id="Trazado_658541" data-name="Trazado 658541" d="M706.976,3923.413c0,2.059-16.993,3.729-37.957,3.729s-37.958-1.67-37.958-3.729" transform="translate(-631.059 -3914.225)" fill="none" stroke="#708699" stroke-linecap="round" stroke-miterlimit="10" stroke-width="1"/>
        <path id="Trazado_658542" data-name="Trazado 658542" d="M700.98,3919.414v3.946c0,1.811-14.966,3.283-33.423,3.283s-33.422-1.472-33.422-3.283v-3.946Z" transform="translate(-629.597 -3916.128)" fill="#8699ad"/>
        <ellipse id="Elipse_5725" data-name="Elipse 5725" cx="33.421" cy="3.283" rx="33.421" ry="3.283" transform="translate(4.539)" fill="#b2bdca"/>
        <circle id="Elipse_5726" data-name="Elipse 5726" cx="2.739" cy="2.739" r="2.739" transform="translate(59.865 20.183)" fill="#fff"/>
        <circle id="Elipse_5727" data-name="Elipse 5727" cx="2.739" cy="2.739" r="2.739" transform="translate(47.66 20.183)" fill="#fff"/>
        <circle id="Elipse_5728" data-name="Elipse 5728" cx="2.739" cy="2.739" r="2.739" transform="translate(35.456 20.183)" fill="#fff"/>
      </g>
      <g id="Grupo_958932" data-name="Grupo 958932" transform="translate(0 22.977)">
        <path id="Trazado_658543" data-name="Trazado 658543" d="M706.98,3904.147v23.737c0,2.056-17,3.727-37.96,3.727s-37.96-1.671-37.96-3.727v-23.737Z" transform="translate(-631.06 -3894.956)" fill="#b2bdca"/>
        <path id="Trazado_658544" data-name="Trazado 658544" d="M693.358,3906.672v17.3c0,1.5-12.384,2.715-27.66,2.715s-27.658-1.217-27.658-2.715v-17.3Z" transform="translate(-627.738 -3893.755)" fill="#9aa9b7"/>
        <ellipse id="Elipse_5729" data-name="Elipse 5729" cx="37.958" cy="3.729" rx="37.958" ry="3.729" transform="translate(0.001 5.459)" fill="#c3cad1"/>
        <path id="Trazado_658545" data-name="Trazado 658545" d="M706.976,3904.146c0,2.059-16.993,3.728-37.957,3.728s-37.958-1.669-37.958-3.728" transform="translate(-631.059 -3894.958)" fill="none" stroke="#708699" stroke-linecap="round" stroke-miterlimit="10" stroke-width="1"/>
        <path id="Trazado_658546" data-name="Trazado 658546" d="M700.98,3900.146v3.948c0,1.811-14.966,3.281-33.423,3.281s-33.422-1.47-33.422-3.281v-3.948Z" transform="translate(-629.597 -3896.861)" fill="#8699ad"/>
        <ellipse id="Elipse_5730" data-name="Elipse 5730" cx="33.421" cy="3.283" rx="33.421" ry="3.283" transform="translate(4.539)" fill="#b2bdca"/>
        <circle id="Elipse_5731" data-name="Elipse 5731" cx="2.739" cy="2.739" r="2.739" transform="translate(59.865 20.183)" fill="#fff"/>
        <circle id="Elipse_5732" data-name="Elipse 5732" cx="2.739" cy="2.739" r="2.739" transform="translate(47.66 20.183)" fill="#fff"/>
        <circle id="Elipse_5733" data-name="Elipse 5733" cx="2.739" cy="2.739" r="2.739" transform="translate(35.456 20.183)" fill="#fff"/>
      </g>
      <g id="Grupo_958933" data-name="Grupo 958933">
        <path id="Trazado_658547" data-name="Trazado 658547" d="M706.98,3884.88v23.739c0,2.054-17,3.725-37.96,3.725s-37.96-1.671-37.96-3.725V3884.88Z" transform="translate(-631.06 -3881.149)" fill="#b2bdca"/>
        <path id="Trazado_658548" data-name="Trazado 658548" d="M693.358,3887.405v17.3c0,1.5-12.384,2.716-27.66,2.716s-27.658-1.218-27.658-2.716v-17.3Z" transform="translate(-627.738 -3879.947)" fill="#9aa9b7"/>
        <ellipse id="Elipse_5734" data-name="Elipse 5734" cx="37.958" cy="3.729" rx="37.958" ry="3.729" transform="translate(0.001)" fill="#c3cad1"/>
        <path id="Trazado_658549" data-name="Trazado 658549" d="M706.976,3884.879c0,2.059-16.993,3.729-37.957,3.729s-37.958-1.669-37.958-3.729" transform="translate(-631.059 -3881.149)" fill="none" stroke="#708699" stroke-linecap="round" stroke-miterlimit="10" stroke-width="1"/>
        <circle id="Elipse_5735" data-name="Elipse 5735" cx="2.739" cy="2.739" r="2.739" transform="translate(59.865 14.724)" fill="#fff"/>
        <circle id="Elipse_5736" data-name="Elipse 5736" cx="2.739" cy="2.739" r="2.739" transform="translate(47.66 14.724)" fill="#fff"/>
        <circle id="Elipse_5737" data-name="Elipse 5737" cx="2.739" cy="2.739" r="2.739" transform="translate(35.456 14.724)" fill="#fff"/>
      </g>
    </g>
    <g id="Grupo_958936" data-name="Grupo 958936" transform="translate(634.533 3799.464)">
      <g id="Grupo_958935" data-name="Grupo 958935">
        <path id="Rectángulo_45555" data-name="Rectángulo 45555" d="M0,0H68.223a9.072,9.072,0,0,1,9.072,9.072V43.128a8.216,8.216,0,0,1-8.216,8.216H8.216A8.216,8.216,0,0,1,0,43.128V0A0,0,0,0,1,0,0Z" transform="translate(0 7.907)" fill="#efa765"/>
        <path id="Trazado_658550" data-name="Trazado 658550" d="M699.641,3850.021H630.715a4.093,4.093,0,0,1-4-4.943l6.388-30.133a4.519,4.519,0,0,1,4.422-3.583h68.053a4.52,4.52,0,0,1,4.422,5.458l-6.351,29.958A4.092,4.092,0,0,1,699.641,3850.021Z" transform="translate(-625.663 -3790.771)" fill="#f7c272"/>
        <path id="Trazado_658551" data-name="Trazado 658551" d="M626.682,3845.078l6.388-30.133a4.519,4.519,0,0,1,4.422-3.583h68.053a4.52,4.52,0,0,1,4.422,5.458" transform="translate(-625.634 -3790.771)" fill="none" stroke="#c98839" stroke-linecap="round" stroke-miterlimit="10" stroke-width="1"/>
        <path id="Rectángulo_45556" data-name="Rectángulo 45556" d="M2.974,0H29.743A5.357,5.357,0,0,1,35.1,5.357V7.907a0,0,0,0,1,0,0H0a0,0,0,0,1,0,0V2.974A2.974,2.974,0,0,1,2.974,0Z" fill="#efa765"/>
        <line id="Línea_264" data-name="Línea 264" x2="26.071" transform="translate(9.029 7.907)" fill="none" stroke="#c98839" stroke-linecap="round" stroke-miterlimit="10" stroke-width="1"/>
      </g>
      <text id="SQL" transform="translate(28.64 44.143)" fill="#fff" font-size="16" font-family="Montserrat-Bold, Montserrat" font-weight="700"><tspan x="0" y="0">SQL</tspan></text>
    </g>
    <g id="Grupo_958937" data-name="Grupo 958937" transform="translate(663.172 3857.489)">
      <path id="Trazado_658552" data-name="Trazado 658552" d="M647.741,3839.088v17.492l31.441-.122v46.482" transform="translate(-644.252 -3835.6)" fill="none" stroke="#a8c5e2" stroke-miterlimit="10" stroke-width="1"/>
      <path id="Trazado_658553" data-name="Trazado 658553" d="M648.866,3843.7h0a3.488,3.488,0,0,1-3.489-3.489v-3.487h6.977v3.487A3.488,3.488,0,0,1,648.866,3843.7Z" transform="translate(-645.377 -3836.725)" fill="#5f799e"/>
      <path id="Trazado_658554" data-name="Trazado 658554" d="M673.656,3884.9H666.68v-2.493a3.489,3.489,0,0,1,3.489-3.487h0a3.488,3.488,0,0,1,3.487,3.487Z" transform="translate(-635.239 -3816.645)" fill="#5f799e"/>
    </g>
    <g id="Grupo_958939" data-name="Grupo 958939" transform="translate(687.291 3867.536)">
      <g id="Grupo_958938" data-name="Grupo 958938">
        <circle id="Elipse_5738" data-name="Elipse 5738" cx="8.987" cy="8.987" r="8.987" transform="translate(0 17.492) rotate(-76.717)" fill="none" stroke="#583ae2" stroke-miterlimit="10" stroke-width="1"/>
      </g>
      <circle id="Elipse_5739" data-name="Elipse 5739" cx="3.978" cy="3.978" r="3.978" transform="matrix(0.924, -0.383, 0.383, 0.924, 5.613, 8.658)" fill="#583ae2"/>
    </g>
    <g id="Grupo_958941" data-name="Grupo 958941" transform="translate(624.964 3887.615)">
      <rect id="Rectángulo_45557" data-name="Rectángulo 45557" width="43.234" height="56.7" fill="#e2eaf2"/>
      <g id="Grupo_958940" data-name="Grupo 958940" transform="translate(8.39 4.847)">
        <rect id="Rectángulo_45558" data-name="Rectángulo 45558" width="26.453" height="3.052" fill="#fff"/>
        <rect id="Rectángulo_45559" data-name="Rectángulo 45559" width="26.453" height="3.052" transform="translate(0 7.326)" fill="#fff"/>
        <rect id="Rectángulo_45560" data-name="Rectángulo 45560" width="26.453" height="3.052" transform="translate(0 14.651)" fill="#fff"/>
        <rect id="Rectángulo_45561" data-name="Rectángulo 45561" width="26.453" height="3.052" transform="translate(0 21.977)" fill="#fff"/>
        <rect id="Rectángulo_45562" data-name="Rectángulo 45562" width="26.453" height="3.052" transform="translate(0 29.302)" fill="#fff"/>
        <rect id="Rectángulo_45563" data-name="Rectángulo 45563" width="26.453" height="3.052" transform="translate(0 36.628)" fill="#fff"/>
        <rect id="Rectángulo_45564" data-name="Rectángulo 45564" width="26.453" height="3.052" transform="translate(0 43.953)" fill="#fff"/>
      </g>
    </g>
    <g id="Grupo_958944" data-name="Grupo 958944" transform="translate(733.082 3793.093)">
      <g id="Grupo_958942" data-name="Grupo 958942" transform="translate(27.267)">
        <path id="Trazado_658555" data-name="Trazado 658555" d="M739.883,3801.507a20.252,20.252,0,1,0,20.255,20.248A20.246,20.246,0,0,0,739.883,3801.507Zm0,33.4a13.15,13.15,0,1,1,13.153-13.154A13.15,13.15,0,0,1,739.883,3834.909Z" transform="translate(-707.216 -3789.089)" fill="#bcb7d1"/>
        <rect id="Rectángulo_45565" data-name="Rectángulo 45565" width="6.769" height="13.846" transform="translate(29.284)" fill="#bcb7d1"/>
        <rect id="Rectángulo_45566" data-name="Rectángulo 45566" width="6.769" height="13.846" transform="translate(7.175 11.962) rotate(-45)" fill="#bcb7d1"/>
        <rect id="Rectángulo_45567" data-name="Rectángulo 45567" width="6.769" height="13.846" transform="translate(0 36.053) rotate(-90)" fill="#bcb7d1"/>
        <rect id="Rectángulo_45568" data-name="Rectángulo 45568" width="6.769" height="13.846" transform="translate(11.962 58.162) rotate(-135)" fill="#bcb7d1"/>
        <rect id="Rectángulo_45569" data-name="Rectángulo 45569" width="6.769" height="13.846" transform="translate(36.053 65.338) rotate(180)" fill="#bcb7d1"/>
        <rect id="Rectángulo_45570" data-name="Rectángulo 45570" width="6.769" height="13.846" transform="translate(58.162 53.376) rotate(135)" fill="#bcb7d1"/>
        <rect id="Rectángulo_45571" data-name="Rectángulo 45571" width="6.769" height="13.846" transform="translate(65.338 29.284) rotate(90)" fill="#bcb7d1"/>
        <rect id="Rectángulo_45572" data-name="Rectángulo 45572" width="6.769" height="13.846" transform="translate(53.376 7.175) rotate(45)" fill="#bcb7d1"/>
        <circle id="Elipse_5740" data-name="Elipse 5740" cx="7.094" cy="7.094" r="7.094" transform="translate(25.577 25.575)" fill="#bcb7d1"/>
      </g>
      <g id="Grupo_958943" data-name="Grupo 958943" transform="translate(0 46.319)">
        <path id="Trazado_658556" data-name="Trazado 658556" d="M704.282,3827.864a8.151,8.151,0,1,0,8.153,8.15A8.149,8.149,0,0,0,704.282,3827.864Zm0,13.444a5.292,5.292,0,1,1,5.294-5.294A5.292,5.292,0,0,1,704.282,3841.308Z" transform="translate(-691.133 -3822.865)" fill="#bcb7d1"/>
        <rect id="Rectángulo_45573" data-name="Rectángulo 45573" width="2.725" height="5.573" transform="translate(11.787)" fill="#bcb7d1"/>
        <rect id="Rectángulo_45574" data-name="Rectángulo 45574" width="2.725" height="5.573" transform="translate(2.888 4.815) rotate(-45.001)" fill="#bcb7d1"/>
        <rect id="Rectángulo_45575" data-name="Rectángulo 45575" width="2.725" height="5.573" transform="translate(0 14.512) rotate(-90)" fill="#bcb7d1"/>
        <rect id="Rectángulo_45576" data-name="Rectángulo 45576" width="2.725" height="5.573" transform="translate(4.815 23.411) rotate(-134.999)" fill="#bcb7d1"/>
        <rect id="Rectángulo_45577" data-name="Rectángulo 45577" width="2.725" height="5.573" transform="translate(14.512 26.299) rotate(180)" fill="#bcb7d1"/>
        <rect id="Rectángulo_45578" data-name="Rectángulo 45578" width="2.725" height="5.573" transform="translate(23.411 21.484) rotate(134.999)" fill="#bcb7d1"/>
        <rect id="Rectángulo_45579" data-name="Rectángulo 45579" width="2.725" height="5.573" transform="translate(26.299 11.787) rotate(90)" fill="#bcb7d1"/>
        <rect id="Rectángulo_45580" data-name="Rectángulo 45580" width="2.725" height="5.573" transform="translate(21.484 2.888) rotate(45.001)" fill="#bcb7d1"/>
        <circle id="Elipse_5741" data-name="Elipse 5741" cx="2.855" cy="2.855" r="2.855" transform="translate(10.295 10.294)" fill="#bcb7d1"/>
      </g>
    </g>
    <g id="Grupo_958953" data-name="Grupo 958953" transform="translate(698.102 3825.762)">
      <path id="Trazado_658557" data-name="Trazado 658557" d="M674.825,3852.149c-.472,1.622-2.39,4.659-2.012,5.929s5.786,3.808,7.043,3.681,9.18-4.258,9.18-4.258l-2.264-7.292Z" transform="translate(-667.273 -3798.582)" fill="#f28b79"/>
      <path id="Trazado_658558" data-name="Trazado 658558" d="M676.4,3853.33a5.619,5.619,0,0,0,0,2.565l2.133,2.6" transform="translate(-665.622 -3797.096)" fill="none" stroke="#c95b4c" stroke-linecap="round" stroke-miterlimit="10" stroke-width="1"/>
      <path id="Trazado_658559" data-name="Trazado 658559" d="M678.847,3853.33v1.958l1.832,2.518" transform="translate(-664.379 -3797.096)" fill="none" stroke="#c95b4c" stroke-linecap="round" stroke-miterlimit="10" stroke-width="1"/>
      <path id="Trazado_658560" data-name="Trazado 658560" d="M718.323,3886.251l-2.574,4.927s-20.538-32.08-24.818-36.522l-7.071,9.115s12.87,52.522,28.874,56.005c16.825,3.663,22.71-10.743,26.7-29.75S718.323,3886.251,718.323,3886.251Z" transform="translate(-661.994 -3796.465)" fill="#fca697"/>
      <path id="Trazado_658561" data-name="Trazado 658561" d="M749.6,3846.038s-21.948,3.425-25.943,6.03-18.19,40.332-18.19,40.332l33.875,5.471,21.093-13.535Z" transform="translate(-651.711 -3800.566)" fill="#583ae2"/>
      <path id="Trazado_658562" data-name="Trazado 658562" d="M745.45,3844.263c14.923,1.471,29.426,4.718,32.332,10.341s13.439,50.5,13.439,50.5h-25.7l-26.141-51.851-.31-6.931Z" transform="translate(-635.717 -3801.411)" fill="#583ae2"/>
      <path id="Trazado_658563" data-name="Trazado 658563" d="M719.377,3853.6s38.834-7.83,63.884,0l-5.152,34.8-.931,38.285H726.116l-2.147-38.285Z" transform="translate(-645.091 -3798.622)" fill="#583ae2"/>
      <path id="Trazado_658564" data-name="Trazado 658564" d="M722.37,3868.837c11.6.859,48.127-2.618,48.127-2.618l3.582,17.426s-34.081,4.766-52.562.88Z" transform="translate(-644.073 -3790.962)" fill="#2ff980"/>
      <g id="Grupo_958945" data-name="Grupo 958945" transform="translate(77.875 66.98)">
        <path id="Trazado_658565" data-name="Trazado 658565" d="M753.547,3860.611c1.03,4.958,7.543,36.676,7.543,36.676" transform="translate(-706.705 -3860.611)" fill="none" stroke="#3a6599" stroke-linecap="round" stroke-miterlimit="10" stroke-width="1"/>
        <line id="Línea_265" data-name="Línea 265" x1="1.778" y2="12.971" transform="translate(0 4.409)" fill="none" stroke="#3a6599" stroke-linecap="round" stroke-miterlimit="10" stroke-width="1"/>
      </g>
      <path id="Trazado_658566" data-name="Trazado 658566" d="M758.558,3845.413s-3.333,14.275-16.934,14.009c-12.885-.252-11.99-11.112-11.99-11.112a64.218,64.218,0,0,1,14.1-3.945A39.188,39.188,0,0,1,758.558,3845.413Z" transform="translate(-640.217 -3801.513)" fill="#fff"/>
      <g id="Grupo_958950" data-name="Grupo 958950" transform="translate(82.123)">
        <g id="Grupo_958949" data-name="Grupo 958949" transform="translate(0 7.924)">
          <g id="Grupo_958948" data-name="Grupo 958948">
            <g id="Grupo_958946" data-name="Grupo 958946" transform="translate(13.608 22.247)">
              <path id="Trazado_658567" data-name="Trazado 658567" d="M733.907,3848.575v4.732c0,4.259,4.369,7.178,10.325,4.125,5.062-2.6,5.651-5.768,5.651-8.375v-13.385l-15.951,10.645Z" transform="translate(-733.907 -3835.671)" fill="#fca697"/>
              <path id="Trazado_658568" data-name="Trazado 658568" d="M745.258,3840.3c-.883,7.305-5.675,11.889-11.345,11.889-.006-.063-.006-.131-.006-.195v-13.317Z" transform="translate(-733.907 -3834.239)" fill="#fca695" opacity="0.46" style="mix-blend-mode: multiply;isolation: isolate"/>
            </g>
            <path id="Trazado_658569" data-name="Trazado 658569" d="M732.722,3821.042c-8.945,5.982-8.674,14.168-7.344,20.909,1.436,7.282,6.479,12.411,12.917,12.411,8.712,0,15.83-5.449,16.555-13.912s-1.26-18.406-7.722-19.408A61.468,61.468,0,0,0,732.722,3821.042Z" transform="translate(-724.687 -3820.597)" fill="#fca697"/>
            <path id="Trazado_658570" data-name="Trazado 658570" d="M730.205,3830.658c0,.795-.4,1.438-.894,1.438s-.893-.644-.893-1.438.4-1.438.893-1.438S730.205,3829.863,730.205,3830.658Z" transform="translate(-722.911 -3816.493)" fill="#5a2402"/>
            <path id="Trazado_658571" data-name="Trazado 658571" d="M737.155,3830.658c0,.795-.4,1.438-.893,1.438s-.893-.644-.893-1.438.4-1.438.893-1.438S737.155,3829.863,737.155,3830.658Z" transform="translate(-719.603 -3816.493)" fill="#5a2402"/>
            <path id="Trazado_658572" data-name="Trazado 658572" d="M735.328,3825.854c2.125-.915,5.421.151,5.729,1.542s-.232,2.086-.847,2.086-2.113-1.771-5-1.043C734.19,3828.7,733.442,3826.664,735.328,3825.854Z" transform="translate(-720.175 -3818.258)" fill="#5a2402"/>
            <path id="Trazado_658573" data-name="Trazado 658573" d="M731.9,3825.854c-1.77-.915-4.515.151-4.77,1.542s.192,2.086.7,2.086,1.761-1.771,4.164-1.043C732.847,3828.7,733.469,3826.664,731.9,3825.854Z" transform="translate(-723.56 -3818.258)" fill="#5a2402"/>
            <g id="Grupo_958947" data-name="Grupo 958947" transform="translate(27.39 13.034)">
              <path id="Trazado_658574" data-name="Trazado 658574" d="M744.77,3839.3c3.809-.379,5.926-5.6,4.91-8.159s-4.4-2.431-6.435,1.616" transform="translate(-743.245 -3829.428)" fill="#fca697"/>
              <path id="Trazado_658575" data-name="Trazado 658575" d="M747.549,3831.267c.748.446,1.411,1.994-.3,3.436a5.091,5.091,0,0,1-3.427,1.3,4.335,4.335,0,0,1,.8-3.173C745.708,3831.667,747.043,3830.927,747.549,3831.267Z" transform="translate(-742.985 -3828.594)" fill="#fca695" opacity="0.46" style="mix-blend-mode: multiply;isolation: isolate"/>
              <path id="Trazado_658576" data-name="Trazado 658576" d="M744.048,3833.535c1.779-3.06,3.555-2.548,3.9-1.779" transform="translate(-742.863 -3828.601)" fill="none" stroke="#db7665" stroke-linecap="round" stroke-miterlimit="10" stroke-width="1"/>
              <path id="Trazado_658577" data-name="Trazado 658577" d="M744.732,3831.992c1.361-.425,1.446,1.4.939,1.855" transform="translate(-742.537 -3828.239)" fill="none" stroke="#db7665" stroke-linecap="round" stroke-miterlimit="10" stroke-width="1"/>
            </g>
            <path id="Trazado_658578" data-name="Trazado 658578" d="M733.907,3846.194c7.484.242,13.553-4.944,14.967-8.432" transform="translate(-720.299 -3812.429)" fill="none" stroke="#db7665" stroke-linecap="round" stroke-miterlimit="10" stroke-width="1"/>
          </g>
          <path id="Trazado_658579" data-name="Trazado 658579" d="M734.689,3836.975c.612,0,2.267-1.243,2.466-.833s-.407,1.284-1,1.688S734.076,3836.977,734.689,3836.975Z" transform="translate(-719.996 -3813.239)" fill="#fca695"/>
          <path id="Trazado_658580" data-name="Trazado 658580" d="M741.248,3832.708a1.911,1.911,0,1,1-1.858-1.464A1.7,1.7,0,0,1,741.248,3832.708Z" transform="translate(-718.574 -3815.53)" fill="#fca695" opacity="0.46" style="mix-blend-mode: multiply;isolation: isolate"/>
          <path id="Trazado_658581" data-name="Trazado 658581" d="M730.221,3832.708a1.911,1.911,0,1,1-1.858-1.464A1.7,1.7,0,0,1,730.221,3832.708Z" transform="translate(-723.821 -3815.53)" fill="#fca695" opacity="0.46" style="mix-blend-mode: multiply;isolation: isolate"/>
        </g>
        <path id="Trazado_658582" data-name="Trazado 658582" d="M754.955,3836.351a7.123,7.123,0,0,0-3.837,5.443s-2.13-5.984-.818-10.511c0,0-3.7-2.338-5.052-5.638,0,0-5.3,3.988-10.75,3.576s-.76-4.4-.76-4.4-6.318,5.822-8.092,6.761c0,0-.95-5.113,0-6.761a6.309,6.309,0,0,1,2.282-2.338s-1.442-3.163,2.9-5.363,17.064-4.171,24.41,4.406,1.922,15.013,1.922,15.013Z" transform="translate(-724.432 -3815.228)" fill="#5a2402"/>
        <path id="Trazado_658583" data-name="Trazado 658583" d="M750.252,3831.85c-2.444,10.945-7.867,13.934-14.613,14.406-5.93.416-8.188-2.828-9.221-4.336a8.4,8.4,0,0,1-.679-1.165,4.318,4.318,0,0,1-.277-.862s-.347,12.306,9.339,14.033c6.715,1.2,9.914-1.019,13.869-4.927s5.613-9.445,4.564-9.393c0,0-1.83-1.213-2.23-4.507s1.589-6.013,1.511-6.3S750.252,3831.85,750.252,3831.85Z" transform="translate(-724.319 -3808.779)" fill="#5a2402"/>
        <path id="Trazado_658584" data-name="Trazado 658584" d="M744.195,3840.8c-4.4-4.15-13.606-4.165-15.715,1.9l-1.424-.463s2.657-8.448,9.667-7.9,8.929,5.945,8.929,5.945Z" transform="translate(-723.56 -3806.144)" fill="#5a2402"/>
        <path id="Trazado_658585" data-name="Trazado 658585" d="M732.6,3829.746c-.266,1.465-1.076,4.8-1.458,6.343a.74.74,0,0,0,.639.918,9.746,9.746,0,0,0,3.459-.861" transform="translate(-721.628 -3808.319)" fill="#fca697" stroke="#db7665" stroke-linecap="round" stroke-miterlimit="10" stroke-width="1"/>
        <path id="Trazado_658586" data-name="Trazado 658586" d="M732.135,3837.624a16.568,16.568,0,0,0,3.814-.639.358.358,0,0,1,.453.425,2.414,2.414,0,0,1-1.954,1.829,2.328,2.328,0,0,1-2.6-1.05A.361.361,0,0,1,732.135,3837.624Z" transform="translate(-721.307 -3804.883)" fill="#fff"/>
      </g>
      <path id="Trazado_658587" data-name="Trazado 658587" d="M791.349,3989.5H759.22l-8.812-54.717L747.4,3989.5H718.05c-1.628-32.462,4.8-68.168,7.583-81.79.75-3.646,1.235-5.709,1.235-5.709h51.066c.744,3.25,1.587,7.659,2.477,12.777C785.17,3942.048,791.349,3989.5,791.349,3989.5Z" transform="translate(-645.846 -3773.933)" fill="#c4ba8c"/>
      <g id="Grupo_958951" data-name="Grupo 958951" transform="translate(96.287 128.071)">
        <path id="Trazado_658588" data-name="Trazado 658588" d="M736.339,3902v27.082H740.7V3910.1" transform="translate(-733.306 -3902.004)" fill="none" stroke="#706536" stroke-linecap="round" stroke-miterlimit="10" stroke-width="1"/>
        <line id="Línea_266" data-name="Línea 266" x2="11.995" y2="86.794" transform="translate(32.202 0.706)" fill="none" stroke="#706536" stroke-linecap="round" stroke-miterlimit="10" stroke-width="1"/>
        <line id="Línea_267" data-name="Línea 267" x1="3.033" y2="60.418" transform="translate(0 27.082)" fill="none" stroke="#706536" stroke-linecap="round" stroke-miterlimit="10" stroke-width="1"/>
      </g>
      <path id="Trazado_658589" data-name="Trazado 658589" d="M777.882,3914.781l-.077.762-54.7-7.824-.006-.006c.75-3.646,1.235-5.709,1.235-5.709h51.066C776.149,3905.254,776.992,3909.663,777.882,3914.781Z" transform="translate(-643.317 -3773.933)" fill="#c4ba8c" opacity="0.57" style="mix-blend-mode: multiply;isolation: isolate"/>
      <g id="Grupo_958952" data-name="Grupo 958952" transform="translate(70.575 84.36)">
        <path id="Rectángulo_45581" data-name="Rectángulo 45581" d="M3.743,0H35.2a3.742,3.742,0,0,1,3.742,3.742V21.457A3.742,3.742,0,0,1,35.2,25.2H3.742A3.742,3.742,0,0,1,0,21.457V3.743A3.743,3.743,0,0,1,3.743,0Z" transform="translate(2.032)" fill="#e9eeff"/>
        <path id="Rectángulo_45582" data-name="Rectángulo 45582" d="M3.743,0H35.2a3.743,3.743,0,0,1,3.743,3.743V21.457A3.742,3.742,0,0,1,35.2,25.2H3.742A3.742,3.742,0,0,1,0,21.457V3.743A3.743,3.743,0,0,1,3.743,0Z" fill="#fff"/>
        <rect id="Rectángulo_45583" data-name="Rectángulo 45583" width="32.369" height="19.096" rx="3.742" transform="translate(3.285 3.052)" fill="#e9eeff"/>
      </g>
      <path id="Trazado_658590" data-name="Trazado 658590" d="M789.326,3885.523c1.467,5.563,4.177,23.279,0,28.011-7.462,8.453-55.042-11.852-55.042-11.852l3.051-12.532,33.193,1.294-.27-4.984Z" transform="translate(-637.997 -3781.805)" fill="#fca697"/>
      <path id="Trazado_658591" data-name="Trazado 658591" d="M743.135,3891.509s-.934-2.532-1.507-4.531-3.37-2.866-4.671-5.045-2.668.753-.995,3.192,1.274,2.134,1.274,2.134a23.3,23.3,0,0,1-8.417-6.089c-1.922-2.324-3.123,1.946-1.2,5.17,0,0-1.365-5.792-2.758-5.17s-1.593,5.486.734,8.392c0,0-2.576-4.313-3.364-3.246s2.028,8.694,5.388,10.511c0,0-4.6-6.46-5.388-5.319s5.623,10.2,18.794,12.482S743.135,3891.509,743.135,3891.509Z" transform="translate(-643.797 -3784.163)" fill="#fca697"/>
      <path id="Trazado_658592" data-name="Trazado 658592" d="M725.188,3882.376a11.716,11.716,0,0,0,3.058,5.727" transform="translate(-642.326 -3783.273)" fill="#fca697" stroke="#db7665" stroke-linecap="round" stroke-miterlimit="10" stroke-width="1"/>
      <path id="Trazado_658593" data-name="Trazado 658593" d="M723.67,3885.461a23.313,23.313,0,0,0,3.77,4.548" transform="translate(-643.048 -3781.805)" fill="#fca697" stroke="#db7665" stroke-linecap="round" stroke-miterlimit="10" stroke-width="1"/>
      <path id="Trazado_658594" data-name="Trazado 658594" d="M723.359,3888.542a6.975,6.975,0,0,0,3.564,2.8" transform="translate(-643.196 -3780.338)" fill="#fca697" stroke="#db7665" stroke-linecap="round" stroke-miterlimit="10" stroke-width="1"/>
      <path id="Trazado_658595" data-name="Trazado 658595" d="M697.98,3857.538c-.759-1.361-4.406-7.961-6.419-8.723s-9.6.756-9.6.756-10.517,1.783-12.907,1.275c0,0-.573,4.091,8.426,3.539a43.051,43.051,0,0,0,8.929-1.255l1.891,3.619s-1.891,3.362-4.029,3.743-7.168.254-7.294,2.158,8.677,2.41,8.677,2.41l5.259,1.593Z" transform="translate(-669.044 -3799.346)" fill="#fca697"/>
      <path id="Trazado_658596" data-name="Trazado 658596" d="M766.795,3895.878a18.289,18.289,0,0,0-7.954-7.04" transform="translate(-626.31 -3780.198)" fill="#fca697" stroke="#db7665" stroke-linecap="round" stroke-miterlimit="10" stroke-width="1"/>
      <path id="Trazado_658597" data-name="Trazado 658597" d="M705.466,3879.4c3.243,5.176,4.547,13.491,4.547,13.491" transform="translate(-651.711 -3784.688)" fill="#fca697" stroke="#db7665" stroke-linecap="round" stroke-miterlimit="10" stroke-width="1"/>
      <path id="Trazado_658598" data-name="Trazado 658598" d="M683.859,3862.41l3.8-4.894" transform="translate(-661.994 -3795.104)" fill="#fca697" stroke="#db7665" stroke-linecap="round" stroke-miterlimit="10" stroke-width="1"/>
    </g>
  </g>
</svg>
