<svg xmlns="http://www.w3.org/2000/svg" width="371.455" height="227.883" viewBox="0 0 371.455 227.883">
  <g id="Grupo_958926" data-name="Grupo 958926" transform="translate(-913.539 -3502.777)">
    <g id="floor">
      <path id="Trazado_658337" data-name="Trazado 658337" d="M1284.994,3714.207c0,1.727-6.668,3.363-18.558,4.818-30.1,3.686-93.643,6.227-167.169,6.227-77.614,0-144.109-2.831-171.875-6.851-8.929-1.294-13.853-2.71-13.853-4.194,0-.954,2.033-1.88,5.857-2.763,20.625-4.762,93.337-8.282,179.871-8.282,81.45,0,150.655,3.118,175.7,7.456C1281.468,3711.744,1284.994,3712.951,1284.994,3714.207Z" fill="#ccacff"/>
      <ellipse id="Elipse_5693" data-name="Elipse 5693" cx="35.99" cy="3.944" rx="35.99" ry="3.944" transform="translate(928.316 3711.151)" fill="#ccacff" opacity="0.5" style="mix-blend-mode: multiply;isolation: isolate"/>
      <ellipse id="Elipse_5694" data-name="Elipse 5694" cx="47.132" cy="3.944" rx="47.132" ry="3.944" transform="translate(1179.858 3710.263)" fill="#ccacff" opacity="0.5" style="mix-blend-mode: multiply;isolation: isolate"/>
      <ellipse id="Elipse_5695" data-name="Elipse 5695" cx="18.08" cy="1.972" rx="18.08" ry="1.972" transform="translate(1109.18 3709.627)" fill="#ccacff" opacity="0.5" style="mix-blend-mode: multiply;isolation: isolate"/>
      <g id="Grupo_958778" data-name="Grupo 958778">
        <path id="Trazado_658338" data-name="Trazado 658338" d="M1093.691,3730.66q-4.877,0-9.495-.014c-44.495-.13-79.453-1.111-79.8-1.121a.537.537,0,1,1,.031-1.073c.347.01,35.294.99,79.776,1.121,3.072.009,6.245.014,9.491.014,40.129,0,92.511-.759,131.565-4.035a.537.537,0,0,1,.09,1.07C1186.26,3729.9,1133.84,3730.66,1093.691,3730.66Z" fill="#ccacff"/>
      </g>
    </g>
    <g id="gears">
      <path id="Trazado_658339" data-name="Trazado 658339" d="M1047.57,3524.933h0a1.1,1.1,0,0,0-.988-1.085l-3.165-.334a.923.923,0,0,1-.778-.621c-.127-.376-.271-.747-.426-1.1-.129-.3-.272-.6-.426-.89a.923.923,0,0,1,.089-.991l1.944-2.52a1.1,1.1,0,0,0-.1-1.463l-3.079-3.01a1.1,1.1,0,0,0-1.466-.069l-2.475,2a.924.924,0,0,1-.989.112c-.292-.145-.595-.282-.9-.407-.364-.148-.738-.283-1.112-.4a.926.926,0,0,1-.638-.764l-.407-3.157a1.1,1.1,0,0,0-1.107-.963l-4.306.049a1.1,1.1,0,0,0-1.085.988l-.334,3.165a.928.928,0,0,1-.622.779c-.376.127-.747.27-1.1.425-.294.128-.593.272-.889.427a.924.924,0,0,1-.992-.09l-2.519-1.945a1.106,1.106,0,0,0-1.464.1l-3.01,3.079a1.105,1.105,0,0,0-.069,1.467l2,2.474a.926.926,0,0,1,.111.989c-.146.3-.283.6-.406.9-.149.365-.284.739-.4,1.112a.928.928,0,0,1-.764.639l-3.157.406a1.1,1.1,0,0,0-.962,1.108l.048,4.3a1.105,1.105,0,0,0,.989,1.085l3.164.335a.925.925,0,0,1,.779.621c.125.37.268.741.425,1.1.132.3.275.6.427.888a.927.927,0,0,1-.089.992l-1.945,2.519a1.106,1.106,0,0,0,.1,1.465l3.08,3.01a1.1,1.1,0,0,0,1.466.068l2.474-2a.925.925,0,0,1,.99-.112c.294.146.6.283.9.406.363.149.737.284,1.112.4a.924.924,0,0,1,.639.764l.406,3.156a1.1,1.1,0,0,0,1.095.963h.013l4.306-.049a1.1,1.1,0,0,0,1.085-.988l.334-3.165a.928.928,0,0,1,.621-.779c.368-.123.739-.267,1.1-.425.3-.133.6-.276.889-.426a.924.924,0,0,1,.992.088l2.519,1.945a1.1,1.1,0,0,0,1.464-.1l3.01-3.08a1.1,1.1,0,0,0,.069-1.466l-2-2.474a.924.924,0,0,1-.112-.989c.145-.292.282-.594.406-.9.15-.365.284-.739.4-1.112a.921.921,0,0,1,.764-.638l3.156-.407a1.105,1.105,0,0,0,.964-1.107Zm-17.755,8.766a6.411,6.411,0,0,1-.434-12.814l.222,0a6.41,6.41,0,0,1,.212,12.817Z" fill="#c299ff"/>
      <path id="Trazado_658340" data-name="Trazado 658340" d="M1016.68,3544.124h0a1.539,1.539,0,0,0-1.377-1.513l-4.412-.466a1.292,1.292,0,0,1-1.086-.866c-.177-.525-.377-1.042-.593-1.537-.18-.413-.38-.83-.595-1.24a1.288,1.288,0,0,1,.125-1.382l2.71-3.513a1.536,1.536,0,0,0-.142-2.04l-4.293-4.2a1.539,1.539,0,0,0-2.044-.1l-3.45,2.791a1.288,1.288,0,0,1-1.379.155c-.407-.2-.829-.392-1.253-.566-.508-.208-1.03-.4-1.55-.558a1.289,1.289,0,0,1-.891-1.065l-.566-4.4a1.539,1.539,0,0,0-1.544-1.343l-6,.069a1.538,1.538,0,0,0-1.513,1.377l-.466,4.413a1.289,1.289,0,0,1-.866,1.085c-.525.177-1.042.377-1.538.594-.409.178-.826.378-1.239.594a1.29,1.29,0,0,1-1.383-.124l-3.512-2.712a1.54,1.54,0,0,0-2.041.143l-4.2,4.294a1.54,1.54,0,0,0-.1,2.044l2.791,3.449a1.29,1.29,0,0,1,.155,1.38c-.2.411-.394.833-.565,1.253-.209.508-.4,1.03-.559,1.55a1.288,1.288,0,0,1-1.065.89l-4.4.567a1.538,1.538,0,0,0-1.342,1.544l.068,6a1.541,1.541,0,0,0,1.378,1.513l4.412.466a1.289,1.289,0,0,1,1.085.866c.175.516.374,1.033.594,1.537.183.42.383.836.6,1.239a1.29,1.29,0,0,1-.125,1.383l-2.711,3.512a1.54,1.54,0,0,0,.143,2.042l4.294,4.2a1.538,1.538,0,0,0,2.043.1l3.449-2.79a1.293,1.293,0,0,1,1.38-.156c.411.2.832.394,1.253.566.505.207,1.027.4,1.55.558a1.29,1.29,0,0,1,.891,1.065l.566,4.4a1.539,1.539,0,0,0,1.526,1.342h.018l6-.068a1.54,1.54,0,0,0,1.513-1.378l.465-4.411a1.293,1.293,0,0,1,.866-1.087c.513-.172,1.031-.371,1.538-.592.423-.185.84-.385,1.239-.595a1.292,1.292,0,0,1,1.383.124l3.513,2.711a1.538,1.538,0,0,0,2.04-.142l4.2-4.294a1.537,1.537,0,0,0,.1-2.043l-2.791-3.451a1.289,1.289,0,0,1-.156-1.378c.2-.407.392-.829.566-1.253.208-.509.4-1.03.559-1.551a1.286,1.286,0,0,1,1.065-.89l4.4-.567a1.539,1.539,0,0,0,1.342-1.544Zm-24.753,12.22a8.937,8.937,0,0,1-.6-17.864c.1,0,.206,0,.309,0a8.937,8.937,0,0,1,.3,17.869Z" fill="#c299ff"/>
      <path id="Trazado_658341" data-name="Trazado 658341" d="M1004.612,3593.065h0a1.065,1.065,0,0,0-1.378-.322l-2.7,1.465a.892.892,0,0,1-.958-.067c-.307-.23-.624-.446-.941-.643-.264-.165-.542-.324-.825-.474a.891.891,0,0,1-.471-.836l.166-3.065a1.062,1.062,0,0,0-.881-1.106l-4.092-.708a1.064,1.064,0,0,0-1.2.747l-.871,2.943a.892.892,0,0,1-.725.63c-.311.045-.626.1-.937.169-.37.081-.741.178-1.1.29a.892.892,0,0,1-.925-.258l-2.049-2.285a1.064,1.064,0,0,0-1.407-.159l-3.393,2.393a1.064,1.064,0,0,0-.322,1.378l1.465,2.7a.89.89,0,0,1-.068.958c-.229.307-.445.624-.643.941-.163.262-.322.54-.472.825a.892.892,0,0,1-.837.472l-3.065-.168a1.066,1.066,0,0,0-1.107.882l-.707,4.092a1.066,1.066,0,0,0,.747,1.2l2.943.87a.893.893,0,0,1,.63.726c.045.314.1.629.169.935.08.372.178.743.29,1.1a.893.893,0,0,1-.258.925l-2.285,2.049a1.063,1.063,0,0,0-.159,1.406l2.393,3.393a1.066,1.066,0,0,0,1.378.322l2.7-1.465a.892.892,0,0,1,.958.068c.3.226.618.442.941.643.269.167.546.326.825.473a.892.892,0,0,1,.471.837l-.167,3.064a1.065,1.065,0,0,0,.882,1.107l4.093.707a1.063,1.063,0,0,0,1.2-.747l.871-2.943a.894.894,0,0,1,.725-.63c.314-.045.629-.1.936-.169.369-.08.74-.177,1.1-.289a.887.887,0,0,1,.924.257l2.049,2.285a1.065,1.065,0,0,0,1.4.167l.01-.008,3.394-2.393a1.063,1.063,0,0,0,.322-1.378l-1.465-2.7a.894.894,0,0,1,.067-.958c.225-.3.441-.616.644-.941.168-.271.327-.549.473-.825a.894.894,0,0,1,.836-.472l3.065.167a1.064,1.064,0,0,0,1.107-.881l.707-4.092a1.064,1.064,0,0,0-.747-1.2l-2.943-.872a.89.89,0,0,1-.63-.724c-.044-.311-.1-.626-.169-.936-.081-.371-.178-.742-.29-1.1a.892.892,0,0,1,.258-.925l2.285-2.049a1.066,1.066,0,0,0,.16-1.407Zm-9.311,16.671a6.182,6.182,0,0,1-7.351-9.941c.057-.042.115-.084.174-.124a6.182,6.182,0,0,1,7.177,10.065Z" fill="#c299ff"/>
    </g>
    <g id="screen">
      <rect id="Rectángulo_45533" data-name="Rectángulo 45533" width="228.084" height="156.575" transform="translate(989.099 3524.045)" fill="#d4bdff"/>
      <rect id="Rectángulo_45534" data-name="Rectángulo 45534" width="228.084" height="12.54" transform="translate(989.099 3524.045)" fill="#3e1c82"/>
      <g id="Grupo_958780" data-name="Grupo 958780">
        <g id="Grupo_958779" data-name="Grupo 958779">
          <rect id="Rectángulo_45535" data-name="Rectángulo 45535" width="13.336" height="1.749" transform="translate(1005.735 3526.417)" fill="#fff"/>
          <rect id="Rectángulo_45536" data-name="Rectángulo 45536" width="13.336" height="1.749" transform="translate(1005.735 3529.44)" fill="#fff"/>
          <rect id="Rectángulo_45537" data-name="Rectángulo 45537" width="13.336" height="1.749" transform="translate(1005.735 3532.463)" fill="#fff"/>
        </g>
      </g>
      <rect id="Rectángulo_45538" data-name="Rectángulo 45538" width="152.508" height="9.023" transform="translate(1029.599 3525.803)" fill="#fff"/>
      <circle id="Elipse_5696" data-name="Elipse 5696" cx="4.067" cy="4.067" r="4.067" transform="translate(1192.081 3526.248)" fill="#fff"/>
      <g id="Grupo_958781" data-name="Grupo 958781">
        <circle id="Elipse_5697" data-name="Elipse 5697" cx="2.237" cy="2.237" r="2.237" transform="translate(1166.139 3548.943)" fill="#9668e2"/>
        <circle id="Elipse_5698" data-name="Elipse 5698" cx="2.237" cy="2.237" r="2.237" transform="translate(1172.391 3548.943)" fill="#9668e2"/>
        <circle id="Elipse_5699" data-name="Elipse 5699" cx="2.237" cy="2.237" r="2.237" transform="translate(1178.644 3548.844)" fill="#9668e2"/>
      </g>
      <rect id="Rectángulo_45539" data-name="Rectángulo 45539" width="113.85" height="72.061" transform="translate(1004.41 3554.687)" fill="#fff"/>
      <path id="Trazado_658342" data-name="Trazado 658342" d="M1087.775,3587.248h0a1.624,1.624,0,0,0-1.453-1.6l-4.657-.491a1.361,1.361,0,0,1-1.145-.914c-.187-.554-.4-1.1-.626-1.622-.19-.436-.4-.876-.628-1.309a1.359,1.359,0,0,1,.132-1.458l2.86-3.707a1.622,1.622,0,0,0-.15-2.153l-4.53-4.429a1.623,1.623,0,0,0-2.157-.1l-3.64,2.945a1.36,1.36,0,0,1-1.456.164c-.43-.213-.875-.414-1.323-.6-.535-.219-1.086-.417-1.635-.589a1.359,1.359,0,0,1-.94-1.124l-.6-4.643a1.624,1.624,0,0,0-1.629-1.418l-6.335.073a1.623,1.623,0,0,0-1.6,1.453l-.492,4.657a1.362,1.362,0,0,1-.914,1.145c-.554.187-1.1.4-1.622.626-.432.188-.872.4-1.308.628a1.359,1.359,0,0,1-1.459-.132l-3.706-2.861a1.625,1.625,0,0,0-2.154.151l-4.429,4.53a1.626,1.626,0,0,0-.1,2.158l2.945,3.64a1.362,1.362,0,0,1,.164,1.456c-.215.434-.416.879-.6,1.322-.22.536-.419,1.087-.59,1.636a1.359,1.359,0,0,1-1.123.939l-4.644.6a1.624,1.624,0,0,0-1.417,1.629l.072,6.335a1.625,1.625,0,0,0,1.454,1.6l4.656.493a1.358,1.358,0,0,1,1.145.913c.184.545.395,1.091.627,1.623.193.442.4.882.627,1.307a1.358,1.358,0,0,1-.132,1.459l-2.86,3.706a1.625,1.625,0,0,0,.15,2.155l4.531,4.428a1.623,1.623,0,0,0,2.157.1l3.64-2.944a1.362,1.362,0,0,1,1.456-.165c.433.215.878.416,1.322.6.533.219,1.083.417,1.636.59a1.357,1.357,0,0,1,.939,1.124l.6,4.644a1.625,1.625,0,0,0,1.61,1.416h.019l6.336-.072a1.625,1.625,0,0,0,1.6-1.454l.492-4.656a1.362,1.362,0,0,1,.913-1.146c.542-.182,1.088-.392,1.623-.625.446-.2.886-.407,1.308-.628a1.36,1.36,0,0,1,1.458.131l3.707,2.861a1.625,1.625,0,0,0,2.154-.15l4.428-4.531a1.623,1.623,0,0,0,.1-2.157l-2.944-3.64a1.361,1.361,0,0,1-.165-1.455c.213-.43.414-.874.6-1.323.219-.536.417-1.086.589-1.636a1.359,1.359,0,0,1,1.124-.939l4.644-.6a1.626,1.626,0,0,0,1.417-1.629Zm-26.121,12.9a9.431,9.431,0,1,1-.639-18.851c.109,0,.218,0,.326,0a9.431,9.431,0,0,1,.313,18.856Z" fill="#3e1c82"/>
      <g id="Grupo_958791" data-name="Grupo 958791">
        <g id="Grupo_958790" data-name="Grupo 958790">
          <g id="Grupo_958782" data-name="Grupo 958782">
            <path id="Trazado_658343" data-name="Trazado 658343" d="M1122.822,3631.593h-3.389a.339.339,0,1,1,0-.678h3.05v-3.05a.339.339,0,1,1,.678,0v3.389A.339.339,0,0,1,1122.822,3631.593Z" fill="#9668e2"/>
          </g>
          <g id="Grupo_958783" data-name="Grupo 958783">
            <path id="Trazado_658344" data-name="Trazado 658344" d="M1112.6,3631.593h-6.835a.339.339,0,1,1,0-.678h6.835a.339.339,0,1,1,0,.678Zm-13.67,0h-6.836a.339.339,0,0,1,0-.678h6.836a.339.339,0,0,1,0,.678Zm-13.671,0h-6.835a.339.339,0,1,1,0-.678h6.835a.339.339,0,1,1,0,.678Zm-13.67,0h-6.835a.339.339,0,1,1,0-.678h6.835a.339.339,0,1,1,0,.678Zm-13.67,0h-6.835a.339.339,0,1,1,0-.678h6.835a.339.339,0,1,1,0,.678Zm-13.67,0h-6.835a.339.339,0,1,1,0-.678h6.835a.339.339,0,1,1,0,.678Zm-13.67,0h-6.835a.339.339,0,1,1,0-.678h6.835a.339.339,0,1,1,0,.678Zm-13.67,0h-6.836a.339.339,0,0,1,0-.678h6.836a.339.339,0,0,1,0,.678Z" fill="#9668e2"/>
          </g>
          <g id="Grupo_958784" data-name="Grupo 958784">
            <path id="Trazado_658345" data-name="Trazado 658345" d="M1003.236,3631.593h-3.389a.339.339,0,0,1-.339-.339v-3.389a.339.339,0,1,1,.678,0v3.05h3.05a.339.339,0,1,1,0,.678Z" fill="#9668e2"/>
          </g>
          <g id="Grupo_958785" data-name="Grupo 958785">
            <path id="Trazado_658346" data-name="Trazado 658346" d="M999.847,3621.45a.339.339,0,0,1-.339-.339v-6.754a.339.339,0,0,1,.678,0v6.754A.339.339,0,0,1,999.847,3621.45Zm0-13.508a.339.339,0,0,1-.339-.339v-6.754a.339.339,0,1,1,.678,0v6.754A.339.339,0,0,1,999.847,3607.942Zm0-13.508a.339.339,0,0,1-.339-.339v-6.753a.339.339,0,1,1,.678,0v6.753A.338.338,0,0,1,999.847,3594.434Zm0-13.507a.339.339,0,0,1-.339-.339v-6.754a.339.339,0,0,1,.678,0v6.754A.339.339,0,0,1,999.847,3580.927Zm0-13.508a.339.339,0,0,1-.339-.339v-6.754a.339.339,0,0,1,.678,0v6.754A.339.339,0,0,1,999.847,3567.419Z" fill="#9668e2"/>
          </g>
          <g id="Grupo_958786" data-name="Grupo 958786">
            <path id="Trazado_658347" data-name="Trazado 658347" d="M999.847,3553.911a.339.339,0,0,1-.339-.339v-3.389a.339.339,0,0,1,.339-.339h3.389a.339.339,0,1,1,0,.678h-3.05v3.05A.338.338,0,0,1,999.847,3553.911Z" fill="#9668e2"/>
          </g>
          <g id="Grupo_958787" data-name="Grupo 958787">
            <path id="Trazado_658348" data-name="Trazado 658348" d="M1112.6,3550.522h-6.835a.339.339,0,1,1,0-.678h6.835a.339.339,0,1,1,0,.678Zm-13.67,0h-6.836a.339.339,0,0,1,0-.678h6.836a.339.339,0,0,1,0,.678Zm-13.671,0h-6.835a.339.339,0,1,1,0-.678h6.835a.339.339,0,1,1,0,.678Zm-13.67,0h-6.835a.339.339,0,1,1,0-.678h6.835a.339.339,0,1,1,0,.678Zm-13.67,0h-6.835a.339.339,0,1,1,0-.678h6.835a.339.339,0,1,1,0,.678Zm-13.67,0h-6.835a.339.339,0,1,1,0-.678h6.835a.339.339,0,1,1,0,.678Zm-13.67,0h-6.835a.339.339,0,1,1,0-.678h6.835a.339.339,0,1,1,0,.678Zm-13.67,0h-6.836a.339.339,0,0,1,0-.678h6.836a.339.339,0,0,1,0,.678Z" fill="#9668e2"/>
          </g>
          <g id="Grupo_958788" data-name="Grupo 958788">
            <path id="Trazado_658349" data-name="Trazado 658349" d="M1122.822,3553.911a.339.339,0,0,1-.339-.339v-3.05h-3.05a.339.339,0,1,1,0-.678h3.389a.339.339,0,0,1,.339.339v3.389A.339.339,0,0,1,1122.822,3553.911Z" fill="#9668e2"/>
          </g>
          <g id="Grupo_958789" data-name="Grupo 958789">
            <path id="Trazado_658350" data-name="Trazado 658350" d="M1122.822,3621.45a.339.339,0,0,1-.339-.339v-6.754a.339.339,0,0,1,.678,0v6.754A.339.339,0,0,1,1122.822,3621.45Zm0-13.508a.339.339,0,0,1-.339-.339v-6.754a.339.339,0,1,1,.678,0v6.754A.339.339,0,0,1,1122.822,3607.942Zm0-13.508a.339.339,0,0,1-.339-.339v-6.753a.339.339,0,1,1,.678,0v6.753A.339.339,0,0,1,1122.822,3594.434Zm0-13.507a.339.339,0,0,1-.339-.339v-6.754a.339.339,0,0,1,.678,0v6.754A.339.339,0,0,1,1122.822,3580.927Zm0-13.508a.339.339,0,0,1-.339-.339v-6.754a.339.339,0,0,1,.678,0v6.754A.339.339,0,0,1,1122.822,3567.419Z" fill="#9668e2"/>
          </g>
        </g>
        <circle id="Elipse_5700" data-name="Elipse 5700" cx="1.339" cy="1.339" r="1.339" transform="translate(1121.483 3548.844)" fill="#9668e2"/>
        <circle id="Elipse_5701" data-name="Elipse 5701" cx="1.339" cy="1.339" r="1.339" transform="translate(998.508 3548.506)" fill="#9668e2"/>
        <circle id="Elipse_5702" data-name="Elipse 5702" cx="1.339" cy="1.339" r="1.339" transform="translate(998.508 3629.576)" fill="#9668e2"/>
        <circle id="Elipse_5703" data-name="Elipse 5703" cx="1.339" cy="1.339" r="1.339" transform="translate(1121.483 3629.576)" fill="#9668e2"/>
        <circle id="Elipse_5704" data-name="Elipse 5704" cx="1.339" cy="1.339" r="1.339" transform="translate(1121.483 3589.38)" fill="#9668e2"/>
        <circle id="Elipse_5705" data-name="Elipse 5705" cx="1.339" cy="1.339" r="1.339" transform="translate(998.508 3589.379)" fill="#9668e2"/>
        <circle id="Elipse_5706" data-name="Elipse 5706" cx="1.339" cy="1.339" r="1.339" transform="translate(1059.996 3548.844)" fill="#9668e2"/>
        <circle id="Elipse_5707" data-name="Elipse 5707" cx="1.339" cy="1.339" r="1.339" transform="translate(1059.996 3629.915)" fill="#9668e2"/>
      </g>
      <rect id="Rectángulo_45540" data-name="Rectángulo 45540" width="118.413" height="5.376" transform="translate(999.847 3643.497)" fill="#3e1c82"/>
      <rect id="Rectángulo_45541" data-name="Rectángulo 45541" width="71.618" height="5.376" transform="translate(999.847 3653.157)" fill="#c299ff"/>
      <rect id="Rectángulo_45542" data-name="Rectángulo 45542" width="95.663" height="5.376" transform="translate(999.847 3662.817)" fill="#c299ff"/>
      <rect id="Rectángulo_45543" data-name="Rectángulo 45543" width="20.183" height="5.376" transform="translate(1075.327 3653.157)" fill="#c299ff"/>
      <g id="Grupo_958792" data-name="Grupo 958792">
        <rect id="Rectángulo_45544" data-name="Rectángulo 45544" width="42.811" height="5.376" transform="translate(1138.532 3559.996)" fill="#c299ff"/>
        <rect id="Rectángulo_45545" data-name="Rectángulo 45545" width="65.839" height="5.376" transform="translate(1138.532 3569.656)" fill="#c299ff"/>
        <rect id="Rectángulo_45546" data-name="Rectángulo 45546" width="46.673" height="5.376" transform="translate(1138.532 3579.634)" fill="#3e1c82"/>
        <rect id="Rectángulo_45547" data-name="Rectángulo 45547" width="19.166" height="5.376" transform="translate(1185.205 3559.969)" fill="#c299ff"/>
      </g>
      <g id="Grupo_958817" data-name="Grupo 958817">
        <rect id="Rectángulo_45548" data-name="Rectángulo 45548" width="65.839" height="72.838" transform="translate(1138.532 3595.355)" fill="#fff"/>
        <g id="Grupo_958816" data-name="Grupo 958816">
          <g id="Grupo_958793" data-name="Grupo 958793">
            <path id="Trazado_658351" data-name="Trazado 658351" d="M1146.427,3595.355l-7.9,3.125Z" fill="#c299ff"/>
            <path id="Trazado_658352" data-name="Trazado 658352" d="M1147.347,3595.355l-8.816,3.49v-.729l6.975-2.761Z" fill="#c299ff"/>
          </g>
          <g id="Grupo_958794" data-name="Grupo 958794">
            <path id="Trazado_658353" data-name="Trazado 658353" d="M1157.185,3595.355l-18.653,7.384Z" fill="#c299ff"/>
            <path id="Trazado_658354" data-name="Trazado 658354" d="M1158.107,3595.355l-19.575,7.749v-.729l17.734-7.021Z" fill="#c299ff"/>
          </g>
          <g id="Grupo_958795" data-name="Grupo 958795">
            <path id="Trazado_658355" data-name="Trazado 658355" d="M1167.944,3595.355,1138.532,3607Z" fill="#c299ff"/>
            <path id="Trazado_658356" data-name="Trazado 658356" d="M1168.865,3595.355l-30.334,12.008v-.729l28.493-11.28Z" fill="#c299ff"/>
          </g>
          <g id="Grupo_958796" data-name="Grupo 958796">
            <path id="Trazado_658357" data-name="Trazado 658357" d="M1178.983,3595.355l-40.451,16.012Z" fill="#c299ff"/>
            <path id="Trazado_658358" data-name="Trazado 658358" d="M1179.9,3595.355l-41.37,16.377V3611l39.53-15.648Z" fill="#c299ff"/>
          </g>
          <g id="Grupo_958797" data-name="Grupo 958797">
            <path id="Trazado_658359" data-name="Trazado 658359" d="M1189.74,3595.355l-51.208,20.271Z" fill="#c299ff"/>
            <path id="Trazado_658360" data-name="Trazado 658360" d="M1190.661,3595.355l-52.13,20.636v-.729l50.289-19.907Z" fill="#c299ff"/>
          </g>
          <g id="Grupo_958798" data-name="Grupo 958798">
            <path id="Trazado_658361" data-name="Trazado 658361" d="M1200.5,3595.355l-61.968,24.531Z" fill="#c299ff"/>
            <path id="Trazado_658362" data-name="Trazado 658362" d="M1201.421,3595.355l-62.889,24.9v-.729l61.047-24.167Z" fill="#c299ff"/>
          </g>
          <g id="Grupo_958799" data-name="Grupo 958799">
            <path id="Trazado_658363" data-name="Trazado 658363" d="M1204.371,3598.026l-65.839,26.064Z" fill="#c299ff"/>
            <path id="Trazado_658364" data-name="Trazado 658364" d="M1204.371,3597.662v.729l-65.839,26.063v-.729Z" fill="#c299ff"/>
          </g>
          <g id="Grupo_958800" data-name="Grupo 958800">
            <path id="Trazado_658365" data-name="Trazado 658365" d="M1204.371,3602.285l-65.839,26.064Z" fill="#c299ff"/>
            <path id="Trazado_658366" data-name="Trazado 658366" d="M1204.371,3601.921v.729l-65.839,26.063v-.729Z" fill="#c299ff"/>
          </g>
          <g id="Grupo_958801" data-name="Grupo 958801">
            <path id="Trazado_658367" data-name="Trazado 658367" d="M1204.371,3606.545l-65.839,26.063Z" fill="#c299ff"/>
            <path id="Trazado_658368" data-name="Trazado 658368" d="M1204.371,3606.18v.729l-65.839,26.063v-.729Z" fill="#c299ff"/>
          </g>
          <g id="Grupo_958802" data-name="Grupo 958802">
            <path id="Trazado_658369" data-name="Trazado 658369" d="M1204.371,3610.914l-65.839,26.063Z" fill="#c299ff"/>
            <path id="Trazado_658370" data-name="Trazado 658370" d="M1204.371,3610.55v.729l-65.839,26.063v-.729Z" fill="#c299ff"/>
          </g>
          <g id="Grupo_958803" data-name="Grupo 958803">
            <path id="Trazado_658371" data-name="Trazado 658371" d="M1204.371,3615.173l-65.839,26.064Z" fill="#c299ff"/>
            <path id="Trazado_658372" data-name="Trazado 658372" d="M1204.371,3614.809v.729l-65.839,26.064v-.729Z" fill="#c299ff"/>
          </g>
          <g id="Grupo_958804" data-name="Grupo 958804">
            <path id="Trazado_658373" data-name="Trazado 658373" d="M1204.371,3619.432l-65.839,26.064Z" fill="#c299ff"/>
            <path id="Trazado_658374" data-name="Trazado 658374" d="M1204.371,3619.068v.729l-65.839,26.063v-.729Z" fill="#c299ff"/>
          </g>
          <g id="Grupo_958805" data-name="Grupo 958805">
            <path id="Trazado_658375" data-name="Trazado 658375" d="M1204.371,3623.609l-65.839,26.063Z" fill="#c299ff"/>
            <path id="Trazado_658376" data-name="Trazado 658376" d="M1204.371,3623.245v.729l-65.839,26.063v-.729Z" fill="#c299ff"/>
          </g>
          <g id="Grupo_958806" data-name="Grupo 958806">
            <path id="Trazado_658377" data-name="Trazado 658377" d="M1204.371,3627.869l-65.839,26.062Z" fill="#c299ff"/>
            <path id="Trazado_658378" data-name="Trazado 658378" d="M1204.371,3627.5v.729l-65.839,26.063v-.729Z" fill="#c299ff"/>
          </g>
          <g id="Grupo_958807" data-name="Grupo 958807">
            <path id="Trazado_658379" data-name="Trazado 658379" d="M1204.371,3632.128l-65.839,26.062Z" fill="#c299ff"/>
            <path id="Trazado_658380" data-name="Trazado 658380" d="M1204.371,3631.763v.729l-65.839,26.064v-.729Z" fill="#c299ff"/>
          </g>
          <g id="Grupo_958808" data-name="Grupo 958808">
            <path id="Trazado_658381" data-name="Trazado 658381" d="M1204.371,3636.5l-65.839,26.063Z" fill="#c299ff"/>
            <path id="Trazado_658382" data-name="Trazado 658382" d="M1204.371,3636.132v.729l-65.839,26.063v-.729Z" fill="#c299ff"/>
          </g>
          <g id="Grupo_958809" data-name="Grupo 958809">
            <path id="Trazado_658383" data-name="Trazado 658383" d="M1204.371,3640.756l-65.839,26.063Z" fill="#c299ff"/>
            <path id="Trazado_658384" data-name="Trazado 658384" d="M1204.371,3640.391v.729l-65.839,26.063v-.729Z" fill="#c299ff"/>
          </g>
          <g id="Grupo_958810" data-name="Grupo 958810">
            <path id="Trazado_658385" data-name="Trazado 658385" d="M1204.371,3645.015l-58.549,23.177Z" fill="#c299ff"/>
            <path id="Trazado_658386" data-name="Trazado 658386" d="M1204.371,3644.65v.729l-57.628,22.813H1144.9Z" fill="#c299ff"/>
          </g>
          <g id="Grupo_958811" data-name="Grupo 958811">
            <path id="Trazado_658387" data-name="Trazado 658387" d="M1204.371,3649.22l-47.928,18.972Z" fill="#c299ff"/>
            <path id="Trazado_658388" data-name="Trazado 658388" d="M1204.371,3648.855v.729l-47.008,18.608h-1.841Z" fill="#c299ff"/>
          </g>
          <g id="Grupo_958812" data-name="Grupo 958812">
            <path id="Trazado_658389" data-name="Trazado 658389" d="M1204.371,3653.479l-37.17,14.713Z" fill="#c299ff"/>
            <path id="Trazado_658390" data-name="Trazado 658390" d="M1204.371,3653.115v.729l-36.249,14.349h-1.841Z" fill="#c299ff"/>
          </g>
          <g id="Grupo_958813" data-name="Grupo 958813">
            <path id="Trazado_658391" data-name="Trazado 658391" d="M1204.371,3657.738l-26.41,10.454Z" fill="#c299ff"/>
            <path id="Trazado_658392" data-name="Trazado 658392" d="M1204.371,3657.374v.729l-25.49,10.09h-1.84Z" fill="#c299ff"/>
          </g>
          <g id="Grupo_958814" data-name="Grupo 958814">
            <path id="Trazado_658393" data-name="Trazado 658393" d="M1204.371,3662.107,1189,3668.192Z" fill="#c299ff"/>
            <path id="Trazado_658394" data-name="Trazado 658394" d="M1204.371,3661.742v.729l-14.453,5.721h-1.84Z" fill="#c299ff"/>
          </g>
          <g id="Grupo_958815" data-name="Grupo 958815">
            <path id="Trazado_658395" data-name="Trazado 658395" d="M1204.371,3666.367l-4.613,1.825Z" fill="#c299ff"/>
            <path id="Trazado_658396" data-name="Trazado 658396" d="M1204.371,3666v.729l-3.695,1.462h-1.839Z" fill="#c299ff"/>
          </g>
        </g>
      </g>
    </g>
    <g id="person_1" data-name="person 1">
      <path id="Trazado_658397" data-name="Trazado 658397" d="M940.281,3703.515l-.419,5.483,1.546.47c.393.56-.3,1.094-.861,1.234a9.079,9.079,0,0,1-6.479-1.362c-.037-.984-.209-2.72-.384-4.316A9.65,9.65,0,0,0,940.281,3703.515Z" fill="#bfa75b"/>
      <path id="Trazado_658398" data-name="Trazado 658398" d="M933.684,3705.024c-.208-1.894-.421-3.59-.421-3.59h7.178l-.16,2.081A9.65,9.65,0,0,1,933.684,3705.024Z" fill="#8c7630"/>
      <path id="Trazado_658399" data-name="Trazado 658399" d="M934.073,3709.538c.023,1.161.02,3.2.012,4.669,0,1.023-.012,1.776-.012,1.776h20.646v-.665a2.43,2.43,0,0,0-1.727-2.33l-11.584-3.521c.393.561-.3,1.095-.861,1.235a9.084,9.084,0,0,1-6.48-1.363C934.07,3709.41,934.072,3709.477,934.073,3709.538Z" fill="#3e1c82"/>
      <path id="Trazado_658400" data-name="Trazado 658400" d="M934.073,3715.983h20.646v-.665a2.435,2.435,0,0,0-.267-1.111H934.085C934.081,3715.23,934.073,3715.983,934.073,3715.983Z" fill="#fefefe"/>
      <g id="Grupo_958818" data-name="Grupo 958818">
        <path id="Trazado_658401" data-name="Trazado 658401" d="M943.335,3712.2a.149.149,0,0,0,.127-.07l1.062-1.671a.151.151,0,1,0-.255-.162l-1.062,1.67a.152.152,0,0,0,.128.233Z" fill="#fefefe"/>
      </g>
      <g id="Grupo_958819" data-name="Grupo 958819">
        <path id="Trazado_658402" data-name="Trazado 658402" d="M944.586,3712.586a.15.15,0,0,0,.127-.07l1.062-1.671a.151.151,0,1,0-.255-.162l-1.062,1.671a.152.152,0,0,0,.128.232Z" fill="#fefefe"/>
      </g>
      <g id="Grupo_958820" data-name="Grupo 958820">
        <path id="Trazado_658403" data-name="Trazado 658403" d="M945.837,3712.952a.147.147,0,0,0,.127-.07l1.062-1.671a.151.151,0,0,0-.255-.162l-1.062,1.671a.152.152,0,0,0,.047.209A.148.148,0,0,0,945.837,3712.952Z" fill="#fefefe"/>
      </g>
      <g id="Grupo_958821" data-name="Grupo 958821">
        <path id="Trazado_658404" data-name="Trazado 658404" d="M937.752,3714.358a.15.15,0,0,0,.151-.144,2.356,2.356,0,0,0-.8-1.876,3.89,3.89,0,0,0-3.053-.889.151.151,0,1,0,.037.3,3.583,3.583,0,0,1,2.811.811,2.062,2.062,0,0,1,.7,1.641.151.151,0,0,0,.145.157Z" fill="#fefefe"/>
      </g>
      <path id="Trazado_658405" data-name="Trazado 658405" d="M977.785,3702.72l.587,6.278,1.546.47c.394.56-.3,1.094-.861,1.234a9.079,9.079,0,0,1-6.479-1.362c-.3-.834-.652-2.073-.979-3.323A10.316,10.316,0,0,0,977.785,3702.72Z" fill="#bfa75b"/>
      <path id="Trazado_658406" data-name="Trazado 658406" d="M977.665,3701.434l.12,1.286a10.316,10.316,0,0,1-6.186,3.3c-.595-2.271-1.112-4.583-1.112-4.583Z" fill="#8c7630"/>
      <path id="Trazado_658407" data-name="Trazado 658407" d="M972.584,3709.538c.022,1.161.019,3.2.012,4.669-.005,1.023-.012,1.776-.012,1.776H993.23v-.665a2.434,2.434,0,0,0-1.728-2.33l-11.583-3.521c.393.561-.3,1.095-.862,1.235a9.08,9.08,0,0,1-6.479-1.363C972.581,3709.41,972.582,3709.477,972.584,3709.538Z" fill="#3e1c82"/>
      <path id="Trazado_658408" data-name="Trazado 658408" d="M972.584,3715.983H993.23v-.665a2.436,2.436,0,0,0-.268-1.111H972.6C972.591,3715.23,972.584,3715.983,972.584,3715.983Z" fill="#fefefe"/>
      <g id="Grupo_958822" data-name="Grupo 958822">
        <path id="Trazado_658409" data-name="Trazado 658409" d="M981.845,3712.2a.152.152,0,0,0,.128-.07l1.061-1.671a.151.151,0,1,0-.255-.162l-1.061,1.67a.151.151,0,0,0,.127.233Z" fill="#fefefe"/>
      </g>
      <g id="Grupo_958823" data-name="Grupo 958823">
        <path id="Trazado_658410" data-name="Trazado 658410" d="M983.1,3712.586a.152.152,0,0,0,.128-.07l1.061-1.671a.151.151,0,1,0-.255-.162l-1.061,1.671a.151.151,0,0,0,.127.232Z" fill="#fefefe"/>
      </g>
      <g id="Grupo_958824" data-name="Grupo 958824">
        <path id="Trazado_658411" data-name="Trazado 658411" d="M984.347,3712.952a.15.15,0,0,0,.128-.07l1.061-1.671a.151.151,0,0,0-.255-.162l-1.061,1.671a.152.152,0,0,0,.046.209A.148.148,0,0,0,984.347,3712.952Z" fill="#fefefe"/>
      </g>
      <g id="Grupo_958825" data-name="Grupo 958825">
        <path id="Trazado_658412" data-name="Trazado 658412" d="M976.263,3714.358a.15.15,0,0,0,.15-.144,2.356,2.356,0,0,0-.8-1.876,3.89,3.89,0,0,0-3.053-.889.151.151,0,0,0,.037.3,3.582,3.582,0,0,1,2.811.811,2.059,2.059,0,0,1,.7,1.641.151.151,0,0,0,.145.157Z" fill="#fefefe"/>
      </g>
      <path id="Trazado_658413" data-name="Trazado 658413" d="M940.479,3546.819c-.772-2.573-6.068-4.5-7.821-.206C931.166,3550.266,939.913,3549.6,940.479,3546.819Z" fill="#3d2215"/>
      <g id="Grupo_958827" data-name="Grupo 958827">
        <g id="Grupo_958826" data-name="Grupo 958826">
          <path id="Trazado_658414" data-name="Trazado 658414" d="M937.286,3548.595a.151.151,0,0,0,.04-.3c-1.344-.366-2.23-1.1-2.37-1.955a2.255,2.255,0,0,1,1.264-2.134.151.151,0,0,0-.168-.252,2.538,2.538,0,0,0-1.4,2.435c.16.978,1.128,1.8,2.59,2.2A.135.135,0,0,0,937.286,3548.595Z" fill="#4d392f"/>
        </g>
      </g>
      <g id="Grupo_958829" data-name="Grupo 958829">
        <g id="Grupo_958828" data-name="Grupo 958828">
          <path id="Trazado_658415" data-name="Trazado 658415" d="M937.114,3548.9a.151.151,0,0,0,.151-.138.153.153,0,0,0-.138-.164c-1.779-.156-3.02-.819-3.319-1.775-.234-.748.147-1.585,1.074-2.357a.151.151,0,0,0-.194-.232,2.567,2.567,0,0,0-1.168,2.68c.337,1.076,1.675,1.818,3.581,1.985Z" fill="#4d392f"/>
        </g>
      </g>
      <path id="Trazado_658416" data-name="Trazado 658416" d="M956.262,3548.427c.811-1.582.065-4.078-4.154-5.158s-11.474-.36-12.246,3.241c-3.19.824-4.219,4.785-2.83,8.644s2.83,8.439.36,9.828-6.071-.257-6.483,1.389-.652,6.029,5.8,6.977,25.178.792,27.6-3.941-3.087-5.043-4.631-8.8-3.756-6.894-3.756-9.364S956.262,3548.427,956.262,3548.427Z" fill="#3d2215"/>
      <g id="Grupo_958831" data-name="Grupo 958831">
        <g id="Grupo_958830" data-name="Grupo 958830">
          <path id="Trazado_658417" data-name="Trazado 658417" d="M944.956,3551.138a.148.148,0,0,0,.058-.011.152.152,0,0,0,.081-.2,8.084,8.084,0,0,0-5.208-4.568.151.151,0,0,0-.051.3,7.756,7.756,0,0,1,4.98,4.387A.151.151,0,0,0,944.956,3551.138Z" fill="#4d392f"/>
        </g>
      </g>
      <g id="Grupo_958833" data-name="Grupo 958833">
        <g id="Grupo_958832" data-name="Grupo 958832">
          <path id="Trazado_658418" data-name="Trazado 658418" d="M960.368,3571.141a.151.151,0,0,0,.076-.021,3.586,3.586,0,0,0,1.526-3.569,4.92,4.92,0,0,0-3.339-4.2.151.151,0,0,0-.1.286,4.618,4.618,0,0,1,3.136,3.948,3.29,3.29,0,0,1-1.377,3.278.151.151,0,0,0,.076.282Z" fill="#4d392f"/>
        </g>
      </g>
      <g id="Grupo_958835" data-name="Grupo 958835">
        <g id="Grupo_958834" data-name="Grupo 958834">
          <path id="Trazado_658419" data-name="Trazado 658419" d="M959.465,3570.844a.151.151,0,0,0,.111-.048,2.53,2.53,0,0,0,.665-2.375c-.31-1.294-1.535-2.415-3.36-3.077a.151.151,0,1,0-.1.284,4.646,4.646,0,0,1,3.169,2.864,2.237,2.237,0,0,1-.592,2.1.151.151,0,0,0,.007.214A.15.15,0,0,0,959.465,3570.844Z" fill="#4d392f"/>
        </g>
      </g>
      <path id="Trazado_658420" data-name="Trazado 658420" d="M928.588,3593.6c.652-1.761,1.2-3.235,1.395-3.767l7.512,2.212s-.428.891-1.055,2.182A11.628,11.628,0,0,1,928.588,3593.6Z" fill="#8c7630"/>
      <path id="Trazado_658421" data-name="Trazado 658421" d="M944.956,3559.785c1.234,2.624.926,10.96.926,10.96l8.336.411s-.288-2.036-.519-3.711c-.078-.568-.151-1.1-.2-1.486,9.262,1.441,5.595-15.474,2.765-17.532-3.953-2.875-9.66-.579-11.306,2.56C947.734,3556.338,945.264,3558.962,944.956,3559.785Z" fill="#bfa75b"/>
      <path id="Trazado_658422" data-name="Trazado 658422" d="M947.82,3563.49a12.043,12.043,0,0,0,5.879,3.955c-.078-.568-.151-1.1-.2-1.486A17.444,17.444,0,0,1,947.82,3563.49Z" fill="#8c7630"/>
      <g id="Grupo_958836" data-name="Grupo 958836">
        <path id="Trazado_658423" data-name="Trazado 658423" d="M955.812,3559.072a.124.124,0,0,0,.032,0c.283-.06,1.705-.394,1.871-1a.539.539,0,0,0-.205-.556c-.173-.162-.345-.3-.527-.441a7.781,7.781,0,0,1-1.828-1.968.151.151,0,1,0-.25.171,8.05,8.05,0,0,0,1.891,2.034c.177.139.343.271.508.425s.128.227.12.255c-.087.315-1.014.648-1.644.783a.151.151,0,0,0,.032.3Z" fill="#826c27"/>
      </g>
      <path id="Trazado_658424" data-name="Trazado 658424" d="M952.935,3552.853a1.844,1.844,0,0,0-1.1-.487,2.442,2.442,0,0,0-1.215.2,2.9,2.9,0,0,0-.988.691,2.787,2.787,0,0,0-.6.99.157.157,0,0,0,.1.2.162.162,0,0,0,.142-.019l.005,0c.3-.21.573-.407.851-.575a4.535,4.535,0,0,1,.84-.406,5.081,5.081,0,0,1,.874-.21c.3-.049.615-.068.987-.095h.009a.164.164,0,0,0,.152-.175A.167.167,0,0,0,952.935,3552.853Z" fill="#3d2215"/>
      <path id="Trazado_658425" data-name="Trazado 658425" d="M954.967,3552.585a6.245,6.245,0,0,1,.753-.4,3.455,3.455,0,0,1,.711-.223,3.892,3.892,0,0,1,.8-.058c.286.006.584.032.912.047h.007a.16.16,0,0,0,.166-.153.158.158,0,0,0-.051-.124,2.511,2.511,0,0,0-.89-.527,2.448,2.448,0,0,0-1.082-.119,1.943,1.943,0,0,0-1.05.434,1.474,1.474,0,0,0-.54.966.167.167,0,0,0,.251.159Z" fill="#3d2215"/>
      <path id="Trazado_658426" data-name="Trazado 658426" d="M951.959,3555.763c.188.408.519.656.738.555s.244-.515.055-.922-.519-.656-.739-.555S951.77,3555.356,951.959,3555.763Z" fill="#241f0d"/>
      <path id="Trazado_658427" data-name="Trazado 658427" d="M956.433,3554.273c.188.408.519.656.738.555s.244-.515.055-.922-.519-.656-.739-.555S956.244,3553.866,956.433,3554.273Z" fill="#241f0d"/>
      <g id="Grupo_958838" data-name="Grupo 958838">
        <g id="Grupo_958837" data-name="Grupo 958837">
          <path id="Trazado_658428" data-name="Trazado 658428" d="M943.841,3549.317h.007a.152.152,0,0,0,.145-.158c-.061-1.357.052-5.813,4.064-6.2a.151.151,0,0,0-.029-.3c-4.278.413-4.4,5.091-4.337,6.515A.15.15,0,0,0,943.841,3549.317Z" fill="#4d392f"/>
        </g>
      </g>
      <g id="Grupo_958840" data-name="Grupo 958840">
        <g id="Grupo_958839" data-name="Grupo 958839">
          <path id="Trazado_658429" data-name="Trazado 658429" d="M944.642,3550.494a.153.153,0,0,0,.145-.108,7.986,7.986,0,0,1,4.776-5.093,7.314,7.314,0,0,1,6.017-.036.151.151,0,0,0,.147-.264,7.622,7.622,0,0,0-6.278.02,8.319,8.319,0,0,0-4.952,5.287.151.151,0,0,0,.1.188A.163.163,0,0,0,944.642,3550.494Z" fill="#4d392f"/>
        </g>
      </g>
      <g id="Grupo_958842" data-name="Grupo 958842">
        <g id="Grupo_958841" data-name="Grupo 958841">
          <path id="Trazado_658430" data-name="Trazado 658430" d="M942.095,3570.611a.152.152,0,0,0,.131-.075c4.142-7.035,2.025-11.2.157-14.872-1.434-2.82-2.672-5.255-.806-8.474a.151.151,0,1,0-.262-.152c-1.948,3.361-.614,5.985.8,8.762,1.833,3.6,3.911,7.69-.148,14.583a.152.152,0,0,0,.13.228Z" fill="#4d392f"/>
        </g>
      </g>
      <g id="Grupo_958844" data-name="Grupo 958844">
        <g id="Grupo_958843" data-name="Grupo 958843">
          <path id="Trazado_658431" data-name="Trazado 658431" d="M935.246,3570.16a5.414,5.414,0,0,0,3.37-1.2c4.6-3.558,3.021-8.372,1.623-12.619-1.2-3.647-2.334-7.091.339-9.408a.151.151,0,1,0-.2-.228c-2.825,2.448-1.661,5.985-.428,9.731,1.433,4.354,2.916,8.858-1.52,12.285-3.26,2.519-6.747.226-7.581-.848a.151.151,0,0,0-.239.186A6.459,6.459,0,0,0,935.246,3570.16Z" fill="#4d392f"/>
        </g>
      </g>
      <path id="Trazado_658432" data-name="Trazado 658432" d="M971.119,3584.971l3.01-5.943,2.432,1.161a11.567,11.567,0,0,1-2.15,7.919q-.774-.327-1.512-.663Z" fill="#8c7630"/>
      <path id="Trazado_658433" data-name="Trazado 658433" d="M976.561,3580.189c2.774,1.326,6.99,3.076,9.4,4.243a44.361,44.361,0,0,1,4.3-7.952A83.516,83.516,0,0,0,996,3565.223c2.161-4.708,4.3,1.3,4.3,1.3a73.409,73.409,0,0,0-4.3,12.5c-1.775,7.178-5.506,12.195-8.207,12.581-2.448.349-8.384-1.393-13.379-3.5A11.567,11.567,0,0,0,976.561,3580.189Z" fill="#bfa75b"/>
      <path id="Trazado_658434" data-name="Trazado 658434" d="M924.272,3586.284c2.238,6.559,14.509,7.717,14.509,7.717a48.291,48.291,0,0,0,.919,6.437c.634,2.893,1.667,5.916,3.325,7.069,3.551,2.47,9.8,3.7,9.8,3.7s7.486-3.7,8.643-4.862,1.081-10.341,2.239-11.73,2.392-2.934,1.774-5.712c1.329.588,2.1.913,4.013,1.6,3.242-2.445,6.484-5.223,7.332-14.175-6.483-1-13.352-4.4-17.365-5.635a16.685,16.685,0,0,0-2.5-.524c-3.494-.159-8.819.29-13.123.038-1.07.131-2.076.293-2.976.486C935.462,3571.851,930.061,3583.66,924.272,3586.284Z" fill="#91f859"/>
      <g id="Grupo_958845" data-name="Grupo 958845">
        <path id="Trazado_658435" data-name="Trazado 658435" d="M949.946,3597.6a.17.17,0,0,0,.038-.005,11.416,11.416,0,0,0,3.508-1.761,15.966,15.966,0,0,1,1.431-.883,8.064,8.064,0,0,1,6.12-.491c.261.086.4.193.419.317s-.07.246-.256.393a3.765,3.765,0,0,1-1.961.782.151.151,0,1,0,.028.3,4.064,4.064,0,0,0,2.12-.846.75.75,0,0,0,.368-.672c-.052-.373-.482-.515-.623-.562a8.262,8.262,0,0,0-6.354.509,16.336,16.336,0,0,0-1.46.9,11.178,11.178,0,0,1-3.415,1.72.151.151,0,0,0,.037.3Z" fill="#eff447"/>
      </g>
      <g id="Grupo_958846" data-name="Grupo 958846">
        <path id="Trazado_658436" data-name="Trazado 658436" d="M965.485,3589.059l.026,0a.15.15,0,0,0,.123-.174c-.445-2.573-2.789-7.58-3.887-9.566a.151.151,0,1,0-.264.146c1.089,1.971,3.414,6.934,3.853,9.471A.152.152,0,0,0,965.485,3589.059Z" fill="#eff447"/>
      </g>
      <path id="Trazado_658437" data-name="Trazado 658437" d="M939.7,3600.438v0c2.065-7,3.764-15.643,3.043-20.326A36.345,36.345,0,0,1,938.781,3594,48.291,48.291,0,0,0,939.7,3600.438Z" fill="#eff447"/>
      <path id="Trazado_658438" data-name="Trazado 658438" d="M943.842,3570.207a13.875,13.875,0,0,0,3.994,4.242,11.072,11.072,0,0,0,6.4,2.031,4.237,4.237,0,0,0,2.977-.908,3.4,3.4,0,0,0,.735-3.254,7.565,7.565,0,0,0-.98-2.149A55.264,55.264,0,0,0,943.842,3570.207Z" fill="#bfa75b"/>
      <path id="Trazado_658439" data-name="Trazado 658439" d="M930.871,3701.01c4.977,4.4,12.271,1.274,12.271,1.274s4.631-25.354,5.325-30.332,1.969-8.335,3.127-12.271,2.43-15.977,2.43-15.977,1.406,3.514,2.95,7.553c1.527,3.99,3.189,8.494,3.765,10.623,1.158,4.284-1.157,7.293.733,13.661s4.244,18.986,6.908,27.669a11.615,11.615,0,0,0,11.229-2.779s-3.7-32.183-5.209-40.75-5.789-36.584-12.928-53.332c-4.759,2.47-14.586,2.007-18.447,1.158-2.379,3.2-8.726,15.339-8.226,18.775a.507.507,0,0,0,.007.057c.118.682.34,2,.62,3.729,1.094,6.786,3.062,19.934,2.97,26.024-.116,7.64-3.242,7.061-4.4,15.282S931.681,3688.276,930.871,3701.01Z" fill="#3e1c82"/>
      <g id="Grupo_958848" data-name="Grupo 958848">
        <g id="Grupo_958847" data-name="Grupo 958847">
          <path id="Trazado_658440" data-name="Trazado 658440" d="M951.326,3612.578q.426,0,.854-.009c4.793-.1,8.733-1.009,10.812-2.491a.151.151,0,0,0-.175-.247c-4.344,3.1-16.683,3.1-21.768.773a.15.15,0,0,0-.2.074.152.152,0,0,0,.074.2C943.243,3611.942,947.171,3612.578,951.326,3612.578Z" fill="#1e1824"/>
        </g>
      </g>
      <g id="Grupo_958850" data-name="Grupo 958850">
        <g id="Grupo_958849" data-name="Grupo 958849">
          <path id="Trazado_658441" data-name="Trazado 658441" d="M972.084,3703.8a.155.155,0,0,0,.031,0,.152.152,0,0,0,.117-.179c-.008-.038-.816-3.934-1.817-8.7a.15.15,0,0,0-.179-.117.152.152,0,0,0-.117.179c1,4.761,1.809,8.656,1.817,8.7A.152.152,0,0,0,972.084,3703.8Z" fill="#1e1824"/>
        </g>
      </g>
      <g id="Grupo_958852" data-name="Grupo 958852">
        <g id="Grupo_958851" data-name="Grupo 958851">
          <path id="Trazado_658442" data-name="Trazado 658442" d="M969.815,3692.956a.158.158,0,0,0,.032,0,.153.153,0,0,0,.117-.179l-.346-1.637a.151.151,0,1,0-.3.063l.346,1.636A.151.151,0,0,0,969.815,3692.956Z" fill="#1e1824"/>
        </g>
      </g>
      <g id="Grupo_958854" data-name="Grupo 958854">
        <g id="Grupo_958853" data-name="Grupo 958853">
          <path id="Trazado_658443" data-name="Trazado 658443" d="M968.982,3689.017a.179.179,0,0,0,.032,0,.15.15,0,0,0,.116-.179c-.792-3.733-1.424-6.658-1.876-8.7a46.382,46.382,0,0,1-.849-11.938c.019-.735.036-1.429.042-2.115a.151.151,0,0,0-.149-.152h0a.151.151,0,0,0-.151.15c-.006.683-.023,1.376-.042,2.11a46.642,46.642,0,0,0,.855,12.01c.453,2.037,1.084,4.961,1.877,8.693A.151.151,0,0,0,968.982,3689.017Z" fill="#1e1824"/>
        </g>
      </g>
      <g id="Grupo_958856" data-name="Grupo 958856">
        <g id="Grupo_958855" data-name="Grupo 958855">
          <path id="Trazado_658444" data-name="Trazado 658444" d="M964.875,3657.336a.165.165,0,0,0,.044-.006.152.152,0,0,0,.1-.189,114.816,114.816,0,0,0-8.413-19.762.151.151,0,0,0-.265.145,114.572,114.572,0,0,1,8.389,19.705A.151.151,0,0,0,964.875,3657.336Z" fill="#1e1824"/>
        </g>
      </g>
      <path id="Trazado_658445" data-name="Trazado 658445" d="M934.8,3626.282a.507.507,0,0,0,.007.057c.118.682.34,2,.62,3.729l5.964-.913-3.15-2.739Z" fill="#1e1824"/>
      <g id="Grupo_958858" data-name="Grupo 958858">
        <g id="Grupo_958857" data-name="Grupo 958857">
          <path id="Trazado_658446" data-name="Trazado 658446" d="M935.914,3703.412a.151.151,0,0,0,.151-.14c0-.048.341-4.818.618-10.127a.151.151,0,0,0-.143-.159.149.149,0,0,0-.159.143c-.276,5.306-.615,10.074-.618,10.121a.152.152,0,0,0,.14.162Z" fill="#1e1824"/>
        </g>
      </g>
      <g id="Grupo_958860" data-name="Grupo 958860">
        <g id="Grupo_958859" data-name="Grupo 958859">
          <path id="Trazado_658447" data-name="Trazado 658447" d="M936.63,3691.319a.151.151,0,0,0,.151-.144c.028-.58.054-1.161.079-1.738a.152.152,0,0,0-.145-.158.15.15,0,0,0-.157.145c-.025.577-.051,1.158-.079,1.737a.152.152,0,0,0,.144.158Z" fill="#1e1824"/>
        </g>
      </g>
      <g id="Grupo_958862" data-name="Grupo 958862">
        <g id="Grupo_958861" data-name="Grupo 958861">
          <path id="Trazado_658448" data-name="Trazado 658448" d="M936.811,3686.923a.152.152,0,0,0,.151-.146c.015-.474.029-.939.041-1.392.192-7.374,3.446-17.365,4.439-20.251a.151.151,0,1,0-.286-.1c-1,2.9-4.262,12.924-4.455,20.341q-.018.68-.042,1.39a.153.153,0,0,0,.147.156Z" fill="#1e1824"/>
        </g>
      </g>
      <g id="Grupo_958864" data-name="Grupo 958864">
        <g id="Grupo_958863" data-name="Grupo 958863">
          <path id="Trazado_658449" data-name="Trazado 658449" d="M943.713,3657.066a.15.15,0,0,0,.15-.135c.826-7.4-.505-19.608-2.191-28.42a.151.151,0,1,0-.3.056c1.681,8.79,3.01,20.959,2.188,28.331a.151.151,0,0,0,.133.167Z" fill="#1e1824"/>
        </g>
      </g>
      <g id="Grupo_958866" data-name="Grupo 958866">
        <g id="Grupo_958865" data-name="Grupo 958865">
          <path id="Trazado_658450" data-name="Trazado 658450" d="M942.633,3661.134a8.02,8.02,0,0,0,4.326-.944c.354-.222.524-.46.519-.729-.006-.307-.257-.576-.673-.718a4.389,4.389,0,0,0-2-.1,13.606,13.606,0,0,0-3.813,1.091.151.151,0,1,0,.124.276,13.307,13.307,0,0,1,3.729-1.067,4.108,4.108,0,0,1,1.861.082c.224.076.465.232.469.437,0,.152-.124.309-.377.467a8.934,8.934,0,0,1-5,.886.152.152,0,0,0-.008.3C942.068,3661.129,942.35,3661.134,942.633,3661.134Z" fill="#1e1824"/>
        </g>
      </g>
      <g id="Grupo_958868" data-name="Grupo 958868">
        <g id="Grupo_958867" data-name="Grupo 958867">
          <path id="Trazado_658451" data-name="Trazado 658451" d="M942.1,3662.817a3.434,3.434,0,0,0,1.854-.375.654.654,0,0,0,.276-.438.709.709,0,0,0-.326-.634,3.715,3.715,0,0,0-2.11-.551.148.148,0,0,0-.153.15.152.152,0,0,0,.149.153,3.432,3.432,0,0,1,1.924.483c.072.058.238.211.217.356a.359.359,0,0,1-.158.239c-.525.392-2.117.372-3.374.188a.151.151,0,1,0-.044.3A13.1,13.1,0,0,0,942.1,3662.817Z" fill="#1e1824"/>
        </g>
      </g>
      <g id="Grupo_958870" data-name="Grupo 958870">
        <g id="Grupo_958869" data-name="Grupo 958869">
          <path id="Trazado_658452" data-name="Trazado 658452" d="M967.883,3662.606a5.465,5.465,0,0,0,1.526-.205c.4-.116.63-.3.7-.558a.852.852,0,0,0-.45-.876,4.38,4.38,0,0,0-1.9-.64,13.554,13.554,0,0,0-3.966,0,.151.151,0,1,0,.044.3,13.3,13.3,0,0,1,3.878,0,4.113,4.113,0,0,1,1.767.589c.2.136.383.351.331.55-.039.146-.2.263-.491.345a8.949,8.949,0,0,1-5.055-.521.151.151,0,1,0-.09.288A12.677,12.677,0,0,0,967.883,3662.606Z" fill="#1e1824"/>
        </g>
      </g>
      <g id="Grupo_958872" data-name="Grupo 958872">
        <g id="Grupo_958871" data-name="Grupo 958871">
          <path id="Trazado_658453" data-name="Trazado 658453" d="M965.363,3663.823a1.521,1.521,0,0,0,.537-.082.66.66,0,0,0,.386-.345.711.711,0,0,0-.14-.7,3.71,3.71,0,0,0-1.878-1.109.151.151,0,0,0-.086.29,3.436,3.436,0,0,1,1.716.992c.054.076.172.268.112.4a.36.36,0,0,1-.218.185c-.613.234-2.138-.223-3.3-.745a.151.151,0,1,0-.124.275A9.323,9.323,0,0,0,965.363,3663.823Z" fill="#1e1824"/>
        </g>
      </g>
      <g id="Grupo_958874" data-name="Grupo 958874">
        <g id="Grupo_958873" data-name="Grupo 958873">
          <path id="Trazado_658454" data-name="Trazado 658454" d="M951.13,3612.578a.152.152,0,0,0,.15-.13,10.462,10.462,0,0,0-.2-4.293.151.151,0,0,0-.3.062,10.194,10.194,0,0,1,.191,4.188.152.152,0,0,0,.128.172Z" fill="#1e1824"/>
        </g>
      </g>
      <g id="Grupo_958876" data-name="Grupo 958876">
        <g id="Grupo_958875" data-name="Grupo 958875">
          <path id="Trazado_658455" data-name="Trazado 658455" d="M948.814,3612.5a.152.152,0,0,0,.149-.128,11.448,11.448,0,0,0-.2-4.22.151.151,0,1,0-.293.071,11.132,11.132,0,0,1,.189,4.1.152.152,0,0,0,.126.173Z" fill="#1e1824"/>
        </g>
      </g>
      <circle id="Elipse_5708" data-name="Elipse 5708" cx="0.724" cy="0.724" r="0.724" transform="translate(956.783 3608.859)" fill="#1e1824"/>
      <g id="Grupo_958878" data-name="Grupo 958878">
        <g id="Grupo_958877" data-name="Grupo 958877">
          <path id="Trazado_658456" data-name="Trazado 658456" d="M957.047,3625.846a.151.151,0,0,0,.136-.085,8.9,8.9,0,0,1,2.193-2.486,1.116,1.116,0,0,0,.389-1.019c-.268-1.8-1.19-7.852-1.793-10.441a.151.151,0,0,0-.294.069c.6,2.577,1.52,8.624,1.788,10.416a.805.805,0,0,1-.283.743,9.147,9.147,0,0,0-2.272,2.587.149.149,0,0,0,.136.216Z" fill="#1e1824"/>
        </g>
      </g>
      <g id="Grupo_958880" data-name="Grupo 958880">
        <g id="Grupo_958879" data-name="Grupo 958879">
          <path id="Trazado_658457" data-name="Trazado 658457" d="M942.376,3623.431h.017c4.459-.5,4.4-4.519,4.317-9.6-.008-.551-.017-1.116-.021-1.694a.151.151,0,0,0-.151-.15h0a.151.151,0,0,0-.15.152c0,.579.013,1.145.021,1.7.08,5.124.137,8.826-4.049,9.3a.152.152,0,0,0,.017.3Z" fill="#1e1824"/>
        </g>
      </g>
      <rect id="Rectángulo_45549" data-name="Rectángulo 45549" width="27.064" height="16.516" transform="matrix(-0.986, -0.165, 0.165, -0.986, 941.391, 3629.155)" fill="#1e1824"/>
      <path id="Trazado_658458" data-name="Trazado 658458" d="M928.588,3593.6a11.628,11.628,0,0,0,7.852.627c-1.1,2.262-3.678,6.578-4.759,8.675,0,2.932,1.19,17.7.727,20.377s-2.425.255-2.425.255-2.167-.953-2.373-2.548c-.173-1.342-.989-11.885-1.827-16.617a7.975,7.975,0,0,1,.357-4.113C926.8,3598.429,927.777,3595.792,928.588,3593.6Z" fill="#bfa75b"/>
      <path id="Trazado_658459" data-name="Trazado 658459" d="M931.505,3619.357c1.6,1.274,3.17,2.045,3.289,4.652s.451,4.02,1.425,4.691-.788,1.142-1.662.642a3.373,3.373,0,0,1-1.6-3.318c.177-1.689-3.378-5.363-3.378-5.363Z" fill="#bfa75b"/>
      <path id="Trazado_658460" data-name="Trazado 658460" d="M925.782,3626.248c.116-1.343.8-5.261,2.215-6.445s3.048.295,3.048.295,2.445,4.563,1.838,6.882h0c-.012.067-.023.135-.031.206-.075.647-.127,1.292-.25,1.934a1.16,1.16,0,0,1-.513.9.807.807,0,0,1-.983-.43,2.367,2.367,0,0,1-.241-.809c-.018.113-.035.227-.057.34a1.156,1.156,0,0,1-.512.9.809.809,0,0,1-.984-.43,2.672,2.672,0,0,1-.266-1.246c-.023.155-.048.31-.078.465a1.156,1.156,0,0,1-.512.9.809.809,0,0,1-.984-.429,2.237,2.237,0,0,1-.2-.58.75.75,0,0,1-.358.384.808.808,0,0,1-.983-.429A3.826,3.826,0,0,1,925.782,3626.248Z" fill="#bfa75b"/>
      <g id="Grupo_958881" data-name="Grupo 958881">
        <path id="Trazado_658461" data-name="Trazado 658461" d="M930.705,3627.538a.152.152,0,0,0,.092-.031l.622-.474a.151.151,0,0,0-.183-.241l-.623.475a.151.151,0,0,0,.092.271Z" fill="#917b34"/>
      </g>
      <g id="Grupo_958882" data-name="Grupo 958882">
        <path id="Trazado_658462" data-name="Trazado 658462" d="M928.846,3627.3a.152.152,0,0,0,.092-.031l.622-.474a.151.151,0,0,0-.183-.241l-.623.474a.152.152,0,0,0,.092.272Z" fill="#917b34"/>
      </g>
      <g id="Grupo_958883" data-name="Grupo 958883">
        <path id="Trazado_658463" data-name="Trazado 658463" d="M926.988,3627.064a.147.147,0,0,0,.091-.031l.623-.474a.152.152,0,0,0-.184-.241l-.622.474a.151.151,0,0,0-.028.212A.149.149,0,0,0,926.988,3627.064Z" fill="#917b34"/>
      </g>
      <path id="Trazado_658464" data-name="Trazado 658464" d="M995.94,3566.833c-1.072-2.143-1.97-4.808-1.478-6.256s2.607-9.82,3.737-11.3,1.622.376,1.3,1.853-1.448,5.446-1.448,5.446a1.881,1.881,0,0,1,1.738,1.3c.347.012,1.564-.145,1.68,1.593.985-.522,2.173.405,1.767,1.912s-1.82,6.187-3.893,6.627A3.659,3.659,0,0,1,995.94,3566.833Z" fill="#bfa75b"/>
      <path id="Trazado_658465" data-name="Trazado 658465" d="M999.966,3557.3c1.245.087,1.192,1.111.463,1.706-.94.769-2.462,1.046-3.041,2,.869.869,2.785,1.427,1.651,4.212l-4.619-4.5C995.215,3559.36,998.72,3557.216,999.966,3557.3Z" fill="#bfa75b"/>
      <g id="Grupo_958884" data-name="Grupo 958884">
        <path id="Trazado_658466" data-name="Trazado 658466" d="M999.039,3565.375a.151.151,0,0,0,.14-.095c.956-2.348-.185-3.207-1.1-3.9-.179-.134-.349-.262-.494-.394a4.074,4.074,0,0,1,1.583-1.073,6.916,6.916,0,0,0,1.358-.789,1.294,1.294,0,0,0,.533-1.312c-.072-.224-.307-.608-1.082-.662-1.311-.087-4.869,2.093-5.687,3.489a.151.151,0,0,0,.261.153c.763-1.3,4.2-3.432,5.405-3.341.442.031.732.192.815.453a1,1,0,0,1-.436.985,6.632,6.632,0,0,1-1.3.752,3.977,3.977,0,0,0-1.776,1.289.151.151,0,0,0,.022.185,5.887,5.887,0,0,0,.615.507c.877.66,1.871,1.409,1,3.541a.152.152,0,0,0,.083.2A.145.145,0,0,0,999.039,3565.375Z" fill="#917b34"/>
      </g>
      <g id="Grupo_958885" data-name="Grupo 958885">
        <path id="Trazado_658467" data-name="Trazado 658467" d="M1001.252,3564.994a.949.949,0,0,0,.3-.049c.731-.242,1.142-1.313,1.25-1.635a.151.151,0,1,0-.286-.1c-.069.2-.445,1.241-1.059,1.444a.78.78,0,0,1-.711-.15c-.84-.585-.04-2.637.545-4.136.117-.3.228-.583.322-.845a.151.151,0,0,0-.284-.1c-.093.258-.2.54-.32.838-.655,1.681-1.472,3.773-.435,4.494A1.188,1.188,0,0,0,1001.252,3564.994Z" fill="#917b34"/>
      </g>
      <g id="Grupo_958886" data-name="Grupo 958886">
        <path id="Trazado_658468" data-name="Trazado 658468" d="M999.385,3563.933h.006c.024,0,.588-.033,1.044-.939a.152.152,0,0,0-.271-.136c-.367.732-.783.772-.787.773a.151.151,0,0,0-.141.159A.149.149,0,0,0,999.385,3563.933Z" fill="#917b34"/>
      </g>
      <g id="Grupo_958887" data-name="Grupo 958887">
        <path id="Trazado_658469" data-name="Trazado 658469" d="M997.683,3558.24a.151.151,0,0,0,.147-.115l.371-1.51a.151.151,0,0,0-.294-.072l-.371,1.509a.153.153,0,0,0,.147.188Z" fill="#917b34"/>
      </g>
      <g id="Grupo_958888" data-name="Grupo 958888">
        <path id="Trazado_658470" data-name="Trazado 658470" d="M998.462,3562.029a.151.151,0,0,0,.143-.1l.71-2.132a.151.151,0,1,0-.287-.095l-.71,2.132a.152.152,0,0,0,.1.191A.165.165,0,0,0,998.462,3562.029Z" fill="#917b34"/>
      </g>
      <path id="Trazado_658471" data-name="Trazado 658471" d="M946.044,3557.369c-.62,1.545-1.155.976-2.2-.362a1.924,1.924,0,0,0-3.363,1.543c.367,2.367,3.363,3.911,4.825,2.267a10.323,10.323,0,0,0,2.276-3.45Z" fill="#bfa75b"/>
      <path id="Trazado_658472" data-name="Trazado 658472" d="M956.974,3651.257c-.9-6.187-.492-19.9.073-25.562-.617,1.184-1.183,2.008-1.492,6.02s-.926,7.771-1.531,11.989C954.024,3643.7,955.43,3647.218,956.974,3651.257Z" fill="#1e1824"/>
      <g id="Grupo_958889" data-name="Grupo 958889">
        <path id="Trazado_658473" data-name="Trazado 658473" d="M955.538,3562.045a2.709,2.709,0,0,0,.97-.169,1.937,1.937,0,0,0,1.221-1.333.152.152,0,0,0-.3-.065,1.629,1.629,0,0,1-1.033,1.115,2.8,2.8,0,0,1-1.62.06,8.755,8.755,0,0,1-1.594-.593.151.151,0,1,0-.123.276,9.04,9.04,0,0,0,1.65.612A3.709,3.709,0,0,0,955.538,3562.045Z" fill="#826c27"/>
      </g>
      <g id="Grupo_958890" data-name="Grupo 958890">
        <path id="Trazado_658474" data-name="Trazado 658474" d="M956.121,3563.124a1.771,1.771,0,0,0,.95-.281.151.151,0,1,0-.164-.254,1.466,1.466,0,0,1-.786.233h0a.151.151,0,1,0,0,.3Z" fill="#917b34"/>
      </g>
    </g>
    <g id="person_2" data-name="person 2">
      <g id="big_lamp" data-name="big lamp">
        <path id="Trazado_658475" data-name="Trazado 658475" d="M1244.888,3676.487a13.484,13.484,0,0,1-4.423-6.072,32.09,32.09,0,0,0-20.721-20.065c-17.156-5.3-35.508,4.794-40.989,22.542s3.983,36.431,21.139,41.73a32.126,32.126,0,0,0,28.927-5.256,13.261,13.261,0,0,1,7.31-2.651,49.074,49.074,0,0,1,9.786.477,13.328,13.328,0,0,0,14.676-9.282h0a13.379,13.379,0,0,0-6.97-15.978A49.121,49.121,0,0,1,1244.888,3676.487Z" fill="#fff"/>
        <g id="Grupo_958891" data-name="Grupo 958891">
          <path id="Trazado_658476" data-name="Trazado 658476" d="M1267.389,3696.141a1.572,1.572,0,0,1-.073.193,1.647,1.647,0,0,1-2.178.824,264.641,264.641,0,0,1-26.062-13.551c-4.129-2.448-8.246-5.044-12.238-7.716l-.944-.638c-3.05-2.071-5.255-3.567-8.942-3.3a6.166,6.166,0,0,0-4.432,2.1,5.142,5.142,0,0,0-.89,3.877,13.443,13.443,0,0,1,6.381-.249,11.59,11.59,0,0,1,8.1,6.36c.937,2.089.774,4.109-.44,5.4-.975,1.041-2.88,1.944-6.418.336-3.268-1.489-6.6-3.284-8.839-6.32a10.8,10.8,0,0,1-.73-1.142c-2.078,1.247-4.307,3.616-4.369,6.553a7.667,7.667,0,0,0,2.569,5.535c3.185,3,8.088,3.722,12.91,4.059,14.386,1,29.055.042,43.24-.888a1.646,1.646,0,1,1,.215,3.286c-14.294.938-29.075,1.906-43.684.888-5.431-.38-11-1.241-14.938-4.947a10.846,10.846,0,0,1-3.6-8c.074-3.6,2.38-7.176,6.016-9.337.158-.094.316-.183.475-.271a8.594,8.594,0,0,1,1.4-7.16,9.358,9.358,0,0,1,6.8-3.366c4.826-.343,7.837,1.7,11.025,3.864l.928.627c3.942,2.639,8.008,5.2,12.084,7.62a261.633,261.633,0,0,0,25.738,13.382A1.646,1.646,0,0,1,1267.389,3696.141Zm-54.641-15.11c.1.163.208.32.318.47,1.792,2.43,4.688,3.972,7.551,5.276,1.571.714,2.41.667,2.651.41s.181-1.039-.161-1.8a8.247,8.247,0,0,0-5.784-4.489A10.054,10.054,0,0,0,1212.748,3681.031Z" fill="#9668e2"/>
        </g>
        <path id="Trazado_658477" data-name="Trazado 658477" d="M1261.189,3693.953a13.418,13.418,0,0,1-2.354,7.571,13.411,13.411,0,0,0-6.2-6.164,49.019,49.019,0,0,1-8.735-5.445,13.476,13.476,0,0,1-4.423-6.071,32.087,32.087,0,0,0-20.721-20.065c-17.156-5.3-35.508,4.793-40.99,22.541-.107.35-.21.7-.305,1.048a34.482,34.482,0,0,1,1.29-14.5c5.481-17.748,23.833-27.841,40.989-22.543a32.1,32.1,0,0,1,20.722,20.065,13.471,13.471,0,0,0,4.422,6.072,49.01,49.01,0,0,0,8.735,5.445A13.407,13.407,0,0,1,1261.189,3693.953Z" fill="#c39dff" opacity="0.5" style="mix-blend-mode: multiply;isolation: isolate"/>
        <path id="Trazado_658478" data-name="Trazado 658478" d="M1270.7,3683.538c-.522-.3-1.066-.567-1.6-.827l-8.986-4.366c-1.9-.924-4.965-2.87-7.155-2.668-2.25.208-3.363,2.779-3.99,4.95-1.606,5.567-2.712,11.155-4.441,16.753-.857,2.774-2.921,6.276-2.885,9.153.075,5.929,9.463,7.357,13.981,8.271,4.282.866,9.224.587,11.382-3.634a66.978,66.978,0,0,0,5.754-15.336C1273.774,3691.586,1275.581,3686.332,1270.7,3683.538Z" fill="#3e1c82"/>
      </g>
      <g id="man">
        <g id="Grupo_958904" data-name="Grupo 958904">
          <g id="Grupo_958901" data-name="Grupo 958901">
            <g id="Grupo_958899" data-name="Grupo 958899">
              <path id="Trazado_658479" data-name="Trazado 658479" d="M1241.23,3613.936l.836-3.318s-.957,0-1.222-1.728-1.094-4.137-.4-4.919,2.281-.3,2.281-.3-1.037-8.433-.518-9.193,1.417-.553,1.555.5.968,6.757.968,6.757a1.329,1.329,0,0,1,1.188-.692.981.981,0,0,1,.851.9,1.3,1.3,0,0,1,1.382.138.943.943,0,0,1,.484,1.141s1-.277,1.382.242.519,1.1-.207,2.592-1.651,3.636-2.031,4.707a1.946,1.946,0,0,1-1.439,1.237l-.677,3.319Z" fill="#ffe497"/>
              <g id="Grupo_958892" data-name="Grupo 958892">
                <path id="Trazado_658480" data-name="Trazado 658480" d="M1243.431,3607.737a.909.909,0,0,1-.236-.03.892.892,0,0,1-.558-.464,1.486,1.486,0,0,1-.134-.647v-.009c-.008-.154-.021-.312-.034-.48-.015-.192-.03-.391-.04-.591a.1.1,0,0,1,.1-.106.1.1,0,0,1,.106.1c.01.2.025.394.04.585.013.169.025.329.033.486v.008a1.3,1.3,0,0,0,.109.56.7.7,0,0,0,.432.366,1.27,1.27,0,0,0,.945-.235.1.1,0,1,1,.106.173A1.712,1.712,0,0,1,1243.431,3607.737Z" fill="#b39959"/>
              </g>
              <g id="Grupo_958893" data-name="Grupo 958893">
                <path id="Trazado_658481" data-name="Trazado 658481" d="M1242.835,3603.8a.1.1,0,0,1-.051-.013.1.1,0,0,1-.037-.139c.014-.024.028-.047.043-.071a10.762,10.762,0,0,1,1.628-1.7l.2-.189a.1.1,0,1,1,.139.149l-.2.189a10.62,10.62,0,0,0-1.6,1.66l-.037.061A.1.1,0,0,1,1242.835,3603.8Z" fill="#b39959"/>
              </g>
              <g id="Grupo_958894" data-name="Grupo 958894">
                <path id="Trazado_658482" data-name="Trazado 658482" d="M1245.17,3607.863h-.017a1.084,1.084,0,0,1-.934-.519,5.073,5.073,0,0,1-.3-1.885.1.1,0,0,1,.1-.1h0a.1.1,0,0,1,.1.1,5.036,5.036,0,0,0,.27,1.779.873.873,0,0,0,.763.42.914.914,0,0,0,.8-.4.1.1,0,0,1,.172.109A1.12,1.12,0,0,1,1245.17,3607.863Z" fill="#b39959"/>
              </g>
              <g id="Grupo_958895" data-name="Grupo 958895">
                <path id="Trazado_658483" data-name="Trazado 658483" d="M1244.5,3604.241a.1.1,0,0,1-.076-.169,19.176,19.176,0,0,1,2.278-2.209.1.1,0,0,1,.123.162,18.829,18.829,0,0,0-2.248,2.181A.1.1,0,0,1,1244.5,3604.241Z" fill="#b39959"/>
              </g>
              <g id="Grupo_958896" data-name="Grupo 958896">
                <path id="Trazado_658484" data-name="Trazado 658484" d="M1246.943,3608.088h-.008a.989.989,0,0,1-1-.76c-.032-.319-.173-1.929.183-2.324a9.7,9.7,0,0,1,2.462-1.87.1.1,0,0,1,.1.177,9.484,9.484,0,0,0-2.411,1.829,4.726,4.726,0,0,0-.132,2.168c.033.336.447.574.8.577a.5.5,0,0,0,.54-.458c.1-.887.17-1.676.171-1.684a.1.1,0,0,1,.044-.076l1.246-.835a.1.1,0,1,1,.113.168l-1.205.809c-.017.185-.079.878-.167,1.642A.691.691,0,0,1,1246.943,3608.088Z" fill="#b39959"/>
              </g>
              <g id="Grupo_958897" data-name="Grupo 958897">
                <path id="Trazado_658485" data-name="Trazado 658485" d="M1244.717,3610.932l-.022,0a.1.1,0,0,1-.077-.122,5.466,5.466,0,0,0,.171-1.774,2.1,2.1,0,0,0-.791-1.492.1.1,0,1,1,.118-.165,2.3,2.3,0,0,1,.874,1.634,5.6,5.6,0,0,1-.174,1.842A.1.1,0,0,1,1244.717,3610.932Z" fill="#b39959"/>
              </g>
              <g id="Grupo_958898" data-name="Grupo 958898">
                <path id="Trazado_658486" data-name="Trazado 658486" d="M1243.163,3605.635c-.079,0-.161,0-.245,0-.138,0-.27-.01-.394-.018-1.428-.1-1.777-.435-1.812-.473a.1.1,0,0,1,.148-.139c.009.009.342.32,1.678.409.121.008.251.014.386.018a4.72,4.72,0,0,0,1.077-.068c.692-.143.777-.471.808-.824.007-.078-.025-.182-.343-.3a7.829,7.829,0,0,0-.844-.229c-.247-.058-.527-.124-.815-.2l-.093-.026-.02-.006a.1.1,0,0,1,.056-.2l.02.006.091.026c.284.079.562.144.807.2a7.7,7.7,0,0,1,.87.236c.216.082.5.223.474.51-.038.425-.181.842-.97,1.005A4.321,4.321,0,0,1,1243.163,3605.635Z" fill="#b39959"/>
              </g>
            </g>
            <path id="Trazado_658487" data-name="Trazado 658487" d="M1223.312,3607.314a10.086,10.086,0,0,1,2.612,1.516,11.323,11.323,0,0,1,3.338,4.794,68.789,68.789,0,0,0,6.52,11.467c.2-.577.493-1.443.839-2.5.772-2.361,1.14-3.72,1.538-4.93.482-1.467,1.193-3.512,2.172-5.967,1.043.328,2.168.643,3.37.927,1.4.33,2.726.575,3.96.758-.187,1.059-.466,2.572-.842,4.381-.35,1.684-1.033,4.82-2.275,9.352-1.671,6.1-2.557,8.16-4.128,10.2-1.486,1.924-2.441,2.341-3.2,2.443-2.511.338-5.124-2.455-5.365-2.718-.2-.222-.349-.4-.386-.451l-11.184-16.967Z" fill="#91f859"/>
            <g id="Grupo_958900" data-name="Grupo 958900">
              <path id="Trazado_658488" data-name="Trazado 658488" d="M1233.623,3630.719a.106.106,0,0,1-.04-.007.121.121,0,0,1-.077-.157c.1-.256,1.325-3.765,2.144-5.377a.124.124,0,0,1,.223.108c-.872,2.108-2.048,5.351-2.133,5.35C1233.685,3630.635,1233.674,3630.719,1233.623,3630.719Z" fill="#eff447"/>
            </g>
          </g>
          <path id="Trazado_658489" data-name="Trazado 658489" d="M1223.554,3607.456a116.151,116.151,0,0,0-17.069-4.329c-2.643-.343-16.323,2.811-18.812,5.162-2.8,2.643-13.048,23.1-12.749,25.342.622,4.665,15.547,16.791,15.547,16.791l2.022-8.4s-7.93-9.017-7.308-10.572,5.753-8.707,5.753-8.707l2.332,14.615,29.073.155.311-15.547s.193.361.507.955C1223.92,3617.792,1223.429,3612.589,1223.554,3607.456Z" fill="#91f859"/>
          <g id="Grupo_958902" data-name="Grupo 958902">
            <path id="Trazado_658490" data-name="Trazado 658490" d="M1190.95,3622.747a.229.229,0,0,1-.228-.215,37.364,37.364,0,0,0-3.333-13.449.228.228,0,1,1,.415-.189,37.8,37.8,0,0,1,3.374,13.612.228.228,0,0,1-.215.241Z" fill="#eff447"/>
          </g>
          <g id="Grupo_958903" data-name="Grupo 958903">
            <path id="Trazado_658491" data-name="Trazado 658491" d="M1222.4,3622.2a.228.228,0,0,1-.228-.228,38.136,38.136,0,0,1,2.656-13.411.228.228,0,0,1,.423.172,37.654,37.654,0,0,0-2.622,13.239A.228.228,0,0,1,1222.4,3622.2Z" fill="#eff447"/>
          </g>
        </g>
        <g id="Grupo_958909" data-name="Grupo 958909">
          <g id="Grupo_958905" data-name="Grupo 958905">
            <rect id="Rectángulo_45550" data-name="Rectángulo 45550" width="36.02" height="20.989" rx="8.349" transform="translate(1189.273 3632.232)" fill="#1e1824"/>
            <ellipse id="Elipse_5709" data-name="Elipse 5709" cx="3.731" cy="1.632" rx="3.731" ry="1.632" transform="translate(1203.552 3641.094)" fill="#fff"/>
          </g>
          <g id="Grupo_958908" data-name="Grupo 958908">
            <path id="Trazado_658492" data-name="Trazado 658492" d="M1195.907,3648.724l23.272.258,13.474.129a12.187,12.187,0,0,1-2.715,6.954c-2.943,3.47-7.186,3.925-9.572,4.255C1207.6,3662.084,1197.193,3650.231,1195.907,3648.724Z" fill="#371873"/>
            <g id="Grupo_958906" data-name="Grupo 958906">
              <path id="Trazado_658493" data-name="Trazado 658493" d="M1236.017,3662.4c2.311,1.355,5.238,3.953,4.68,5.263-.591,1.387-4.864.81-5.758.689-3.465-.469-4.85-1.578-8.292-2.55a27.638,27.638,0,0,0-7.286-1.016l3.177-2.023,4.349-2.355A15.916,15.916,0,0,1,1236.017,3662.4Z" fill="#1e1824"/>
            </g>
            <path id="Trazado_658494" data-name="Trazado 658494" d="M1215.5,3656.582l-1.564,1.545-1.661,1.64-2.153,2.124-1.662,1.641-1.867,1.842-1.286-.109c-1.67-.143-4.735-.415-7.765-.732s-6.02-.674-7.561-.993c-3.827-.794-12.081-3.959-16-6.724a7.133,7.133,0,0,1-2.127-2.275,6.053,6.053,0,0,1-.791-2.6,6.886,6.886,0,0,1,.388-2.81,7.308,7.308,0,0,1,.986-1.889l.009-.011a5.982,5.982,0,0,1,3.292-1.68,23.648,23.648,0,0,1,4.308-.612,27.187,27.187,0,0,1,8.768.8C1193.928,3647.277,1206.065,3654.271,1215.5,3656.582Z" fill="#3e1c82"/>
            <path id="Trazado_658495" data-name="Trazado 658495" d="M1200.281,3664.468l-.77-2.241,11.481-7.367.933.657-9.573,5.768-1.184,3.292Z" fill="#1e1824"/>
            <g id="Grupo_958907" data-name="Grupo 958907">
              <path id="Trazado_658496" data-name="Trazado 658496" d="M1205.6,3668.4c-2.077.744-5.139,1.917-8.747,3.6-6.067,2.834-9,4.931-10.142,3.926-1.017-.9-.035-3.792.886-5.462,3.5-6.345,12.7-6.974,14.478-7.066Z" fill="#1e1824"/>
            </g>
            <path id="Trazado_658497" data-name="Trazado 658497" d="M1200.029,3662.488l3.253,7.825a152.677,152.677,0,0,0,15.386-5.071c13.941-5.435,18.926-9.766,21.757-12.753.716-.755,1.28-1.409,1.659-1.863a6.053,6.053,0,0,0,.183-2.706,6.885,6.885,0,0,0-1.013-2.65,7.346,7.346,0,0,0-1.388-1.617l-.011-.009a5.992,5.992,0,0,0-3.587-.892,23.685,23.685,0,0,0-4.334.378,27.2,27.2,0,0,0-8.361,2.76C1218.94,3648.543,1208.7,3658.1,1200.029,3662.488Z" fill="#3e1c82"/>
          </g>
        </g>
        <g id="Grupo_958914" data-name="Grupo 958914">
          <path id="Trazado_658498" data-name="Trazado 658498" d="M1202.529,3596.675s.039,1.4.058,2.972a5.872,5.872,0,0,0,3.3,2.121,6.117,6.117,0,0,0,4.906-1.691c.057-2.095.074-4.161.074-4.161Z" fill="#dbc07c"/>
          <path id="Trazado_658499" data-name="Trazado 658499" d="M1205.89,3601.768a5.872,5.872,0,0,1-3.3-2.121c.018,1.507.016,3.178-.058,3.947-.152,1.573,2.376,3.342,4.3,3.089,1.5-.2,3.522-.96,3.758-2.679.1-.74.168-2.342.212-3.927A6.117,6.117,0,0,1,1205.89,3601.768Z" fill="#f9e2a6"/>
          <path id="Trazado_658500" data-name="Trazado 658500" d="M1196.362,3588.941c-.051-2.225-.607-8.493-.253-10.464s6.411-6.319,10.08-5.914,8.27,3.134,9.078,4.954,0,11.778,0,11.778Z" fill="#4d392f"/>
          <path id="Trazado_658501" data-name="Trazado 658501" d="M1199.951,3578.022c.2,1.618.4,2.147-.506,2.893a3.047,3.047,0,0,0-1.516,2.971c-.051,1.921.1,5,0,6.015s1.558,6.218,2.194,7.077,4.478,3.235,6.955,3.084,5.257-2.781,5.712-3.387,1.011-6.919,1.113-7.63-.86-1.318-.759-3.491a38.563,38.563,0,0,0-.05-5.611c-.455-1.466-8.706-.58-10.11-.4A3.107,3.107,0,0,1,1199.951,3578.022Z" fill="#f9e2a6"/>
          <ellipse id="Elipse_5710" data-name="Elipse 5710" cx="1.971" cy="2.654" rx="1.971" ry="2.654" transform="matrix(0.866, -0.5, 0.5, 0.866, 1193.732, 3588.412)" fill="#f9e2a6"/>
          <ellipse id="Elipse_5711" data-name="Elipse 5711" cx="2.654" cy="1.971" rx="2.654" ry="1.971" transform="matrix(0.5, -0.866, 0.866, 0.5, 1212.089, 3591.037)" fill="#f9e2a6"/>
          <g id="Grupo_958910" data-name="Grupo 958910">
            <path id="Trazado_658502" data-name="Trazado 658502" d="M1206.851,3592.82h-.007a4.709,4.709,0,0,1-1.47-.235.5.5,0,0,1-.253-.14c-.071-.108.013-.314.1-.5a6.412,6.412,0,0,0,.77-3.32,4,4,0,0,0-.447-1.55.244.244,0,0,0-.333.008.239.239,0,0,0-.026.27,3.541,3.541,0,0,1,.362,1.308,5.984,5.984,0,0,1-.725,3.087.961.961,0,0,0-.078.943.859.859,0,0,0,.486.318,5.149,5.149,0,0,0,1.609.258.225.225,0,0,0,.229-.223A.222.222,0,0,0,1206.851,3592.82Z" fill="#b39959"/>
          </g>
          <g id="Grupo_958912" data-name="Grupo 958912">
            <g id="Grupo_958911" data-name="Grupo 958911">
              <path id="Trazado_658503" data-name="Trazado 658503" d="M1207.014,3596.537a2.218,2.218,0,0,1-2.3-.988,1.842,1.842,0,0,1-.149-.278,11.593,11.593,0,0,0,3.947-.447,2.016,2.016,0,0,1-.083.3A2.253,2.253,0,0,1,1207.014,3596.537Z" fill="#fff"/>
            </g>
          </g>
          <path id="Trazado_658504" data-name="Trazado 658504" d="M1207.621,3585.58a3.785,3.785,0,0,1,1.061-.307,5.185,5.185,0,0,1,1.1-.043,5.69,5.69,0,0,1,1.086.169,4.329,4.329,0,0,1,1.026.4.23.23,0,0,1-.111.431h0c-.356.005-.7-.018-1.036-.03l-1.01-.047c-.335-.014-.67-.024-1.008-.044s-.679-.037-1.035-.089h0a.231.231,0,0,1-.2-.263A.234.234,0,0,1,1207.621,3585.58Z" fill="#4d392f"/>
          <path id="Trazado_658505" data-name="Trazado 658505" d="M1199.787,3585.661a3.913,3.913,0,0,1,1.09-.425,5.3,5.3,0,0,1,1.157-.142,4.527,4.527,0,0,1,1.16.122,3.164,3.164,0,0,1,1.081.471.24.24,0,0,1-.1.432h-.005a7.511,7.511,0,0,1-1.1.079c-.353,0-.7-.006-1.047-.018l-1.051-.028c-.355-.011-.713-.021-1.091-.058h0a.234.234,0,0,1-.21-.256A.237.237,0,0,1,1199.787,3585.661Z" fill="#4d392f"/>
          <g id="Grupo_958913" data-name="Grupo 958913">
            <ellipse id="Elipse_5712" data-name="Elipse 5712" cx="0.596" cy="0.989" rx="0.596" ry="0.989" transform="translate(1209.12 3587.899)" fill="#2c2824"/>
            <ellipse id="Elipse_5713" data-name="Elipse 5713" cx="0.596" cy="0.989" rx="0.596" ry="0.989" transform="translate(1201.412 3587.899)" fill="#2c2824"/>
          </g>
        </g>
      </g>
    </g>
    <g id="dandruff">
      <g id="Grupo_958919" data-name="Grupo 958919">
        <path id="Trazado_658506" data-name="Trazado 658506" d="M1138.625,3703.579h0a5.053,5.053,0,0,0-.779-7.1l-26.492-21.256-.972,1.212-12.456-9.673-4.3,5.355,12.341,9.817-.94,1.171,26.492,21.256A5.054,5.054,0,0,0,1138.625,3703.579Z" fill="#3e1c82"/>
        <path id="Trazado_658507" data-name="Trazado 658507" d="M1138.625,3703.579h0a5.053,5.053,0,0,0-.779-7.1l-26.492-21.256-.972,1.212-4.412,5.5-.94,1.171,26.492,21.256A5.054,5.054,0,0,0,1138.625,3703.579Z" fill="#3e1c82"/>
        <g id="Grupo_958918" data-name="Grupo 958918">
          <path id="Trazado_658508" data-name="Trazado 658508" d="M1098.368,3663.187a28.019,28.019,0,0,1-3.048,4.7q-.547.683-1.133,1.323c-10.46,11.458-29.572,12.839-41.779,3.045a29.07,29.07,0,0,1-3.247-3.045,29.842,29.842,0,0,1-4.265-6.023,30.947,30.947,0,0,1-2.083-4.8,31.859,31.859,0,0,1-1.4-6.023,31.476,31.476,0,0,1-.266-4.8,30.613,30.613,0,0,1,.723-6.023,28.488,28.488,0,0,1,5.569-11.685q.714-.89,1.494-1.715.335-.353.68-.694a30.11,30.11,0,0,1,6.155-4.668c9.9-5.7,22.938-6.077,32.578,0a26.2,26.2,0,0,1,2.452,1.746,29.8,29.8,0,0,1,10.224,17.016,33.428,33.428,0,0,1,.75,6.023A31.8,31.8,0,0,1,1098.368,3663.187Z" fill="#dac6ff"/>
          <path id="Trazado_658509" data-name="Trazado 658509" d="M1088.345,3622.781h-32.578C1065.666,3617.081,1078.7,3616.7,1088.345,3622.781Z" fill="#fff"/>
          <g id="Grupo_958917" data-name="Grupo 958917">
            <g id="Grupo_958916" data-name="Grupo 958916">
              <g id="Grupo_958915" data-name="Grupo 958915">
                <path id="Trazado_658510" data-name="Trazado 658510" d="M1072.114,3627.449h-7.658a.379.379,0,1,0,0,.758h7.658a.379.379,0,1,0,0-.758Zm15.315,0h-7.657a.379.379,0,1,0,0,.758h7.657a.379.379,0,1,0,0-.758Zm-30.629,0h-7.188q-.345.341-.68.694a.368.368,0,0,0,.209.064h7.659a.379.379,0,0,0,0-.758Z" fill="#9668e2"/>
              </g>
            </g>
            <circle id="Elipse_5714" data-name="Elipse 5714" cx="1.5" cy="1.5" r="1.5" transform="translate(1059.128 3626.328)" fill="#9668e2"/>
          </g>
          <path id="Trazado_658511" data-name="Trazado 658511" d="M1101.771,3647.566h-60.625a30.613,30.613,0,0,1,.723-6.023h59.152A33.428,33.428,0,0,1,1101.771,3647.566Z" fill="#3e1c82"/>
          <path id="Trazado_658512" data-name="Trazado 658512" d="M1071.977,3652.366v6.023h-29.164a31.859,31.859,0,0,1-1.4-6.023Z" fill="#c299ff"/>
          <path id="Trazado_658513" data-name="Trazado 658513" d="M1098.368,3663.187a28.019,28.019,0,0,1-3.048,4.7q-.547.683-1.133,1.323h-45.026a29.842,29.842,0,0,1-4.265-6.023Z" fill="#c299ff"/>
          <rect id="Rectángulo_45551" data-name="Rectángulo 45551" width="22.611" height="6.022" transform="translate(1076.304 3652.366)" fill="#c299ff"/>
        </g>
        <path id="Trazado_658514" data-name="Trazado 658514" d="M1050.881,3672.3l-6.943-11.214,25.988-41.139,12.619,2.229Z" fill="#fff" opacity="0.5"/>
        <rect id="Rectángulo_45552" data-name="Rectángulo 45552" width="59.741" height="4.463" transform="matrix(0.534, -0.845, 0.845, 0.534, 1054.259, 3673.991)" fill="#fff" opacity="0.5"/>
        <path id="Trazado_658515" data-name="Trazado 658515" d="M1051.435,3674.412c13.151,10.552,33.9,8.277,44.451-4.875s8.673-33.943-4.479-44.5-34.033-8.593-44.585,4.558S1038.283,3663.86,1051.435,3674.412Zm2.562-3.5c-11.3-9.068-13.505-26.541-4.436-37.844s27.4-13.827,38.7-4.758,13.107,27.4,4.038,38.7S1065.3,3679.978,1054,3670.91Z" fill="#1e1824"/>
      </g>
    </g>
    <g id="lamps">
      <g id="Grupo_958921" data-name="Grupo 958921">
        <ellipse id="Elipse_5715" data-name="Elipse 5715" cx="10.188" cy="9.849" rx="10.188" ry="9.849" transform="translate(1222.076 3572.704) rotate(-50.975)" fill="#c299ff"/>
        <path id="Trazado_658516" data-name="Trazado 658516" d="M1245.118,3569.9l-8.2,10.114a14.707,14.707,0,0,1,9.175,4.058l4.892-6.037A14.708,14.708,0,0,1,1245.118,3569.9Z" fill="#c299ff"/>
        <g id="Grupo_958920" data-name="Grupo 958920">
          <path id="Trazado_658517" data-name="Trazado 658517" d="M1250.652,3581.323a.6.6,0,0,1-.043.046.5.5,0,0,1-.7-.014,80.1,80.1,0,0,1-5.8-6.749c-.885-1.154-1.75-2.348-2.57-3.55l-.194-.286a3.945,3.945,0,0,0-2.141-1.937,1.864,1.864,0,0,0-1.483.09,1.555,1.555,0,0,0-.687.989,4.07,4.07,0,0,1,1.822.65,3.511,3.511,0,0,1,1.559,2.7,1.459,1.459,0,0,1-.733,1.469c-.391.183-1.029.222-1.842-.629a6.525,6.525,0,0,1-1.772-2.774,3.271,3.271,0,0,1-.076-.4,2.542,2.542,0,0,0-1.968,1.349,2.327,2.327,0,0,0,.1,1.846,6.261,6.261,0,0,0,3.172,2.6,97.589,97.589,0,0,0,12.256,4.628.5.5,0,0,1-.31.948,98.413,98.413,0,0,1-12.382-4.678,7.1,7.1,0,0,1-3.641-3.076,3.287,3.287,0,0,1-.111-2.656,3.51,3.51,0,0,1,2.745-1.946c.055-.009.109-.016.164-.023a2.6,2.6,0,0,1,1.2-1.854,2.833,2.833,0,0,1,2.292-.179,4.9,4.9,0,0,1,2.664,2.33l.19.28c.81,1.187,1.664,2.366,2.537,3.506a79.335,79.335,0,0,0,5.726,6.665A.5.5,0,0,1,1250.652,3581.323Zm-13.657-10.411q.015.085.036.168a5.668,5.668,0,0,0,1.528,2.335c.361.378.6.459.7.414s.168-.271.158-.525a2.5,2.5,0,0,0-1.12-1.914A3.049,3.049,0,0,0,1236.995,3570.912Z" fill="#fff"/>
        </g>
        <path id="Trazado_658518" data-name="Trazado 658518" d="M1253,3578.154c-.113-.143-.236-.28-.357-.413l-2.034-2.242c-.43-.474-1.072-1.367-1.71-1.557-.656-.195-1.259.4-1.68.942-1.08,1.384-2.021,2.83-3.138,4.209a10.564,10.564,0,0,0-1.844,2.248c-.648,1.675,1.83,3.135,3,3.9,1.106.726,2.526,1.205,3.609.262a20.277,20.277,0,0,0,3.348-3.662C1252.96,3580.763,1254.061,3579.49,1253,3578.154Z" fill="#3e1c82"/>
      </g>
      <g id="Grupo_958923" data-name="Grupo 958923">
        <ellipse id="Elipse_5716" data-name="Elipse 5716" cx="10.986" cy="11.365" rx="10.986" ry="11.365" transform="matrix(0.243, -0.97, 0.97, 0.243, 1253.516, 3546.308)" fill="#d4bdff"/>
        <path id="Trazado_658519" data-name="Trazado 658519" d="M1272.6,3547.109l-14.087-3.526a16.407,16.407,0,0,1,.217,11.188l8.409,2.1A16.405,16.405,0,0,1,1272.6,3547.109Z" fill="#d4bdff"/>
        <g id="Grupo_958922" data-name="Grupo 958922">
          <path id="Trazado_658520" data-name="Trazado 658520" d="M1263.657,3558.084c-.023-.006-.045-.013-.067-.021a.556.556,0,0,1-.318-.72,89.341,89.341,0,0,1,4.094-9.042c.75-1.438,1.55-2.874,2.379-4.27l.2-.331a4.4,4.4,0,0,0,.951-3.077,2.081,2.081,0,0,0-.79-1.457,1.737,1.737,0,0,0-1.324-.229,4.548,4.548,0,0,1,.2,2.148,3.917,3.917,0,0,1-2,2.85,1.63,1.63,0,0,1-1.831-.05c-.369-.309-.709-.936-.231-2.159a7.266,7.266,0,0,1,1.97-3.1,3.657,3.657,0,0,1,.371-.267,2.835,2.835,0,0,0-2.291-1.354,2.591,2.591,0,0,0-1.82.968c-.953,1.13-1.107,2.8-1.133,4.431a108.783,108.783,0,0,0,1.093,14.572.557.557,0,0,1-1.105.133,109.929,109.929,0,0,1-1.1-14.723c.029-1.839.218-3.734,1.4-5.13a3.662,3.662,0,0,1,2.633-1.363,3.914,3.914,0,0,1,3.261,1.858c.034.052.067.1.1.156a2.9,2.9,0,0,1,2.441.342,3.159,3.159,0,0,1,1.261,2.233,5.462,5.462,0,0,1-1.1,3.791l-.194.324c-.818,1.378-1.609,2.8-2.349,4.217a88.459,88.459,0,0,0-4.043,8.929A.556.556,0,0,1,1263.657,3558.084Zm4.095-18.713c-.053.037-.1.076-.153.116a6.312,6.312,0,0,0-1.641,2.644c-.212.544-.181.826-.09.9s.354.043.6-.087a2.784,2.784,0,0,0,1.409-2.034A3.406,3.406,0,0,0,1267.752,3539.371Z" fill="#fff"/>
        </g>
        <path id="Trazado_658521" data-name="Trazado 658521" d="M1267.97,3558.97c.091-.182.171-.37.249-.555l1.308-3.112a5.747,5.747,0,0,0,.769-2.464c-.111-.755-1-1.083-1.743-1.255-1.908-.44-3.813-.71-5.734-1.191a11.817,11.817,0,0,0-3.141-.805c-2,.134-2.309,3.327-2.534,4.869-.214,1.46-.029,3.122,1.435,3.773a22.612,22.612,0,0,0,5.28,1.66C1265.311,3560.154,1267.116,3560.668,1267.97,3558.97Z" fill="#9668e2"/>
      </g>
      <g id="Grupo_958925" data-name="Grupo 958925">
        <ellipse id="Elipse_5717" data-name="Elipse 5717" cx="9.686" cy="9.363" rx="9.686" ry="9.363" transform="translate(1217.957 3507.58) rotate(-14.355)" fill="#e6d7fe"/>
        <path id="Trazado_658522" data-name="Trazado 658522" d="M1237.233,3518.585l-11.991,3.069a13.989,13.989,0,0,1,4.7,8.3l7.157-1.831A13.98,13.98,0,0,1,1237.233,3518.585Z" fill="#e6d7fe"/>
        <g id="Grupo_958924" data-name="Grupo 958924">
          <path id="Trazado_658523" data-name="Trazado 658523" d="M1234.843,3530.44l-.059.011a.475.475,0,0,1-.53-.411,76.3,76.3,0,0,1-.6-8.439c-.02-1.382,0-2.783.052-4.166l.015-.328a3.751,3.751,0,0,0-.535-2.692,1.776,1.776,0,0,0-1.183-.773,1.486,1.486,0,0,0-1.086.365,3.868,3.868,0,0,1,1.022,1.53,3.338,3.338,0,0,1-.342,2.946,1.39,1.39,0,0,1-1.393.705c-.4-.082-.911-.414-1.048-1.525a6.186,6.186,0,0,1,.221-3.121,3.061,3.061,0,0,1,.17-.352,2.422,2.422,0,0,0-2.267-.086,2.212,2.212,0,0,0-.972,1.464,5.963,5.963,0,0,0,.947,3.781,92.806,92.806,0,0,0,6.728,10.482.474.474,0,1,1-.774.548,93.532,93.532,0,0,1-6.8-10.591,6.753,6.753,0,0,1-1.034-4.413,3.122,3.122,0,0,1,1.421-2.089,3.336,3.336,0,0,1,3.2.071c.047.024.093.05.138.076a2.473,2.473,0,0,1,1.97-.733,2.694,2.694,0,0,1,1.85,1.162,4.656,4.656,0,0,1,.711,3.289l-.014.322c-.054,1.365-.072,2.749-.051,4.114a75.156,75.156,0,0,0,.589,8.334A.476.476,0,0,1,1234.843,3530.44Zm-4.517-15.69c-.025.049-.047.1-.068.149a5.379,5.379,0,0,0-.158,2.648c.061.493.2.692.3.712s.283-.112.418-.31a2.376,2.376,0,0,0,.232-2.1A2.9,2.9,0,0,0,1230.326,3514.75Z" fill="#fff"/>
        </g>
        <path id="Trazado_658524" data-name="Trazado 658524" d="M1238.435,3529.355c-.005-.173-.115-1.3-.131-1.472l-.188-1.909a4.907,4.907,0,0,0-.422-2.159c-.39-.521-1.189-.407-1.816-.234-1.609.444-3.147,1.014-4.781,1.432a10.081,10.081,0,0,0-2.682.67c-1.444.911-.382,3.431.074,4.678.432,1.181,1.245,2.353,2.606,2.247a19.3,19.3,0,0,0,4.631-.9C1236.922,3531.321,1238.484,3530.974,1238.435,3529.355Z" fill="#d2b4ff"/>
      </g>
    </g>
  </g>
</svg>
