<svg xmlns="http://www.w3.org/2000/svg" width="126" height="112" viewBox="0 0 126 112">
  <g id="Grupo_957673" data-name="Grupo 957673" transform="translate(-265 -6305)">
    <rect id="Rectángulo_45468" data-name="Rectángulo 45468" width="126" height="112" transform="translate(265 6305)" fill="none"/>
    <g id="hacker_4_" data-name="hacker(4)" transform="translate(262.231 6312.026)">
      <path id="Trazado_656665" data-name="Trazado 656665" d="M151.939,48.491c0-.009,0-.018,0-.027,0-5.477-14.436-40.914-32.243-40.914S87.454,42.987,87.454,48.464c0,.009,0,.018,0,.027s0,.017,0,.025c0,5.1,21.74,31.924,32.243,31.924,10.277,0,32.243-26.822,32.243-31.924,0-.009,0-.017,0-.026Z" transform="translate(-53.928 -6.106)" fill="#e8e8e8"/>
      <g id="Grupo_956962" data-name="Grupo 956962" transform="translate(40.808 31.04)">
        <path id="Trazado_656666" data-name="Trazado 656666" d="M353.138,172.878h-3.662v-10.62h3.662a3.417,3.417,0,0,1,3.417,3.417v3.786A3.417,3.417,0,0,1,353.138,172.878Z" transform="translate(-306.633 -162.258)" fill="#f4c892"/>
        <path id="Trazado_656667" data-name="Trazado 656667" d="M128.94,172.878H132.6v-10.62H128.94a3.417,3.417,0,0,0-3.417,3.417v3.786A3.417,3.417,0,0,0,128.94,172.878Z" transform="translate(-125.523 -162.258)" fill="#f4c892"/>
      </g>
      <g id="Grupo_956963" data-name="Grupo 956963" transform="translate(46.018 10.791)">
        <path id="Trazado_656668" data-name="Trazado 656668" d="M215.743,286.053l-2.31-.464a3.51,3.51,0,0,1-2.818-3.441V278.82H195.506v3.412a3.51,3.51,0,0,1-2.818,3.441l-1.892.38v12.705h24.947Z" transform="translate(-183.519 -236.272)" fill="#ffdfb8"/>
        <path id="Trazado_656669" data-name="Trazado 656669" d="M172.506,101.461h0A19.751,19.751,0,0,1,152.755,81.71V76.159a19.751,19.751,0,0,1,19.751-19.751h0a19.751,19.751,0,0,1,19.751,19.751V81.71A19.751,19.751,0,0,1,172.506,101.461Z" transform="translate(-152.755 -56.408)" fill="#ffdfb8"/>
      </g>
      <path id="Trazado_656670" data-name="Trazado 656670" d="M234.222,56.408h0a19.772,19.772,0,0,0-5.152.68,19.758,19.758,0,0,1,14.6,19.071V81.71a19.759,19.759,0,0,1-14.6,19.071,19.773,19.773,0,0,0,5.152.68h0A19.751,19.751,0,0,0,253.973,81.71V76.159A19.751,19.751,0,0,0,234.222,56.408Z" transform="translate(-168.453 -45.617)" fill="#f4cfa6"/>
      <path id="Trazado_656671" data-name="Trazado 656671" d="M119.7,37.234c17.778,0,32.195,6.16,32.242,11.257,0-.009,0-.018,0-.027,0-5.477-14.436-40.914-32.243-40.914S87.454,42.987,87.454,48.464c0,.009,0,.018,0,.027C87.5,43.394,101.919,37.234,119.7,37.234Z" transform="translate(-53.928 -6.106)" fill="#fff"/>
      <path id="Trazado_656672" data-name="Trazado 656672" d="M236.481,7.551a14.493,14.493,0,0,0-4.618.781c11.5,3.85,21.041,21.078,25.274,31.892,7.06,2.251,11.56,5.425,11.586,8.269,0-.009,0-.018,0-.027C268.724,42.988,254.288,7.551,236.481,7.551Z" transform="translate(-170.711 -6.106)" fill="#e8e8e8"/>
      <path id="Trazado_656673" data-name="Trazado 656673" d="M115.411,350.73c-.859-6.314-4.349-24.624-16.336-29.434L85.4,317.033H58.342L44.67,321.3c-11.987,4.81-15.477,23.12-16.336,29.434a1.9,1.9,0,0,0,1.886,2.156h83.305A1.9,1.9,0,0,0,115.411,350.73Z" transform="translate(-6.103 -256.384)" fill="#fff"/>
      <path id="Trazado_656674" data-name="Trazado 656674" d="M312.236,350.73c-.859-6.314-4.349-24.624-16.336-29.434l-13.672-4.263H271.7l13.672,4.263c14.557,5.841,16.583,31.59,16.583,31.59h8.394A1.9,1.9,0,0,0,312.236,350.73Z" transform="translate(-202.928 -256.384)" fill="#e8e8e8"/>
      <path id="Trazado_656675" data-name="Trazado 656675" d="M155.028,313.418H100.966a3.249,3.249,0,0,0-3.249,3.249v30.806h60.56V316.667A3.249,3.249,0,0,0,155.028,313.418Z" transform="translate(-62.228 -253.461)" fill="#cfcfcf"/>
      <path id="Trazado_656676" data-name="Trazado 656676" d="M353.744,313.418h-10.3a3.249,3.249,0,0,1,3.249,3.249v30.806h10.3V316.667A3.249,3.249,0,0,0,353.744,313.418Z" transform="translate(-260.944 -253.461)" fill="#c2c4c6"/>
      <path id="Trazado_656677" data-name="Trazado 656677" d="M142.612,478.8H78.144a2.214,2.214,0,0,0-2.214,2.214v.479a2.214,2.214,0,0,0,2.214,2.214h64.469a2.214,2.214,0,0,0,2.214-2.214v-.479A2.213,2.213,0,0,0,142.612,478.8Z" transform="translate(-44.609 -387.208)" fill="#9c9da0"/>
      <path id="Trazado_656678" data-name="Trazado 656678" d="M390.03,478.8h-8.154v4.906h8.154a2.214,2.214,0,0,0,2.214-2.214v-.479A2.213,2.213,0,0,0,390.03,478.8Z" transform="translate(-292.027 -387.208)" fill="#8d8f93"/>
      <circle id="Elipse_5655" data-name="Elipse 5655" cx="4.545" cy="4.545" r="4.545" transform="translate(61.224 72.524)" fill="#fff"/>
      <g id="Grupo_956964" data-name="Grupo 956964" transform="translate(51.328 34.333)">
        <path id="Trazado_656679" data-name="Trazado 656679" d="M189.289,186.555h-7.316a1.459,1.459,0,0,1-1.459-1.459v-4.165a1.459,1.459,0,0,1,1.459-1.459h9.119a1.459,1.459,0,0,1,1.459,1.459v2.362A3.262,3.262,0,0,1,189.289,186.555Z" transform="translate(-180.514 -179.472)" fill="#4d4d4d"/>
        <path id="Trazado_656680" data-name="Trazado 656680" d="M271.825,186.555h7.316A1.459,1.459,0,0,0,280.6,185.1v-4.165a1.459,1.459,0,0,0-1.459-1.459h-9.119a1.459,1.459,0,0,0-1.459,1.459v2.362A3.262,3.262,0,0,0,271.825,186.555Z" transform="translate(-251.719 -179.472)" fill="#4d4d4d"/>
      </g>
      <path id="Trazado_656681" data-name="Trazado 656681" d="M230.681,371.558a5.99,5.99,0,1,0,5.99,5.99A6,6,0,0,0,230.681,371.558Zm0,9.091a3.1,3.1,0,1,1,3.1-3.1A3.1,3.1,0,0,1,230.681,380.649Z" transform="translate(-164.912 -300.478)"/>
      <path id="Trazado_656682" data-name="Trazado 656682" d="M110.739,94.151A67.578,67.578,0,0,0,107.311,80.2c-2.454-6.575-5.755-11.412-9.818-14.4v-2.6A4.7,4.7,0,0,0,92.8,58.513H89.26c5.356-6.208,10.2-13.185,10.2-16.1,0-.009,0-.019,0-.028s0-.017,0-.024c0-3-3.538-13.079-9.3-22.676a1.444,1.444,0,0,0-2.477,1.487,90.038,90.038,0,0,1,7.287,15.2,38.68,38.68,0,0,0-11.159-4.5l-.406-.1-.284-.069a71.954,71.954,0,0,0-13.948-1.933l-.3-.013c-.208-.008-.416-.017-.624-.023q-.494-.016-.99-.025l-.332-.005c-.383-.006-.766-.01-1.15-.01q-.607,0-1.212.01c-.2,0-.4.008-.6.013s-.369.008-.553.014q-.426.013-.851.031l-.213.009A71.34,71.34,0,0,0,47.615,31.9q-.4.1-.791.21l-.151.042a37.2,37.2,0,0,0-10.1,4.215q.107-.3.221-.6l.07-.187q.091-.242.187-.49l.079-.205c.087-.225.177-.454.27-.687A92.666,92.666,0,0,1,44.2,20.6C48.246,13.986,56.426,2.889,65.769,2.889c7.37,0,13.967,6.892,18.2,12.673a1.444,1.444,0,1,0,2.33-1.707,44.852,44.852,0,0,0-9.29-9.7C73.264,1.4,69.481,0,65.769,0,60.131,0,51.386,3.313,41.737,19.094c-5.982,9.785-9.656,20.145-9.656,23.264,0,.009,0,.019,0,.028s0,.017,0,.024c0,2.936,4.806,9.908,10.124,16.1H38.738a4.7,4.7,0,0,0-4.693,4.693v2.6c-3.686,2.708-6.754,6.955-9.126,12.643a1.444,1.444,0,1,0,2.666,1.112,28.96,28.96,0,0,1,6.46-10V90.152h-.51a3.662,3.662,0,0,0-3.658,3.658v.479a3.662,3.662,0,0,0,.02.382c0,.042.013.082.019.123.011.083.023.166.04.247,0,.005,0,.011,0,.016H24.116a.455.455,0,0,1-.347-.157.449.449,0,0,1-.108-.359A67.513,67.513,0,0,1,25.453,85.8a1.444,1.444,0,1,0-2.784-.77,70.49,70.49,0,0,0-1.869,9.12,3.346,3.346,0,0,0,3.317,3.8h83.305a3.346,3.346,0,0,0,3.317-3.8ZM86.6,39.99c.013-.069.026-.139.038-.209.017-.1.032-.19.047-.285.013-.08.026-.16.038-.24s.025-.175.037-.263.024-.174.035-.262.02-.169.029-.253.021-.181.03-.271.015-.171.023-.256.016-.179.023-.269c0-.048.006-.1.01-.144a1.445,1.445,0,0,0,.011-.169v0c0-.07.009-.141.013-.211.005-.107.009-.214.012-.321,0-.07.006-.139.008-.209q.007-.266.007-.532v-.276q.458.158.9.323c.486.179.959.363,1.416.552v1.552a1.975,1.975,0,0,1-1.972,1.972h-.75C86.577,40.141,86.59,40.065,86.6,39.99Zm.709,3.115a4.867,4.867,0,0,0,4.861-4.861v-.185c2.993,1.639,4.383,3.25,4.393,4.34,0,0,0,0,0,0s0,.022,0,.033c-.04,1.61-4.005,8.174-11.161,16.078h-9.7a2.071,2.071,0,0,1-1.147-1.846V55.378A21.31,21.31,0,0,0,85.771,43.1h1.542Zm-3.237-8.18v1H81.654v-.132a2.885,2.885,0,0,0-.476-1.589C82.238,34.44,83.206,34.684,84.076,34.925Zm-5.31.868v1.336a1.342,1.342,0,0,0,0,.48v2.349a.015.015,0,0,1-.015.015H71.434a1.82,1.82,0,0,1-1.818-1.818V35.792a.015.015,0,0,1,.015-.015h9.119A.015.015,0,0,1,78.765,35.792Zm-13-3.22c2.323,0,4.628.109,6.886.316H69.632a2.905,2.905,0,0,0-2.893,2.7H64.8a2.905,2.905,0,0,0-2.893-2.7H58.884C61.141,32.682,63.446,32.573,65.769,32.573Zm-13,3.22a.015.015,0,0,1,.015-.015h9.119a.015.015,0,0,1,.015.015v2.362A1.82,1.82,0,0,1,60.1,39.972H52.788a.015.015,0,0,1-.015-.015V35.792Zm.015,7.069H60.1A4.712,4.712,0,0,0,64.8,38.478H66.74a4.712,4.712,0,0,0,4.695,4.383h7.316a2.907,2.907,0,0,0,2.9-2.9V38.813h2.218c-.025.169-.052.337-.081.505-.008.046-.017.091-.026.137q-.039.211-.083.42-.026.122-.053.243c-.023.1-.047.2-.072.3q-.06.247-.127.491c-.019.068-.037.136-.056.2A18.39,18.39,0,0,1,72.257,53.21l-.271.1q-.224.081-.452.157-.2.067-.407.13c-.112.034-.225.068-.339.1q-.263.075-.528.141-.156.04-.313.077-.283.066-.568.123l-.276.053c-.205.038-.411.073-.618.1l-.227.032c-.225.031-.45.058-.677.08l-.164.015c-.247.022-.495.041-.743.053l-.089,0c-.272.012-.544.019-.817.019A18.34,18.34,0,0,1,48.164,41.119c-.019-.068-.037-.136-.056-.2q-.067-.244-.127-.491c-.025-.1-.049-.2-.072-.3q-.027-.121-.053-.243-.044-.21-.083-.42c-.009-.046-.018-.091-.026-.137-.03-.168-.056-.337-.081-.505h2.218v1.144A2.907,2.907,0,0,0,52.788,42.861ZM72.03,58.513H59.125a4.936,4.936,0,0,0,.325-1.762V56.33c.336.105.675.2,1.016.286l.052.013q.44.112.884.205l.142.03q.216.044.433.083l.231.04q.311.053.624.1c.117.016.234.032.351.046s.212.025.318.036q.271.029.545.051l.225.017q.29.02.581.033l.207.008c.236.008.473.013.711.013s.447,0,.669-.012l.208-.008q.24-.01.478-.025l.217-.014q.307-.023.611-.054c.091-.009.181-.021.271-.031.121-.014.241-.028.361-.045l.331-.046c.1-.014.192-.03.288-.046q.339-.055.676-.122l.181-.035c.139-.028.277-.059.415-.09l.168-.039c.344-.081.686-.168,1.026-.266v.212A4.917,4.917,0,0,0,72.03,58.513ZM47.463,34.925c.87-.241,1.838-.485,2.9-.721a2.885,2.885,0,0,0-.476,1.589v.132H47.463v-1Zm-5.21,1.767c.457-.189.93-.373,1.416-.552q.447-.165.9-.323v.276q0,.267.007.532c0,.07.005.139.008.209,0,.107.007.214.012.321,0,.084.01.168.015.252,0,.008,0,.016,0,.024,0,.032,0,.064.006.1,0,.052.006.1.01.156.007.09.015.179.023.269s.014.171.023.256.02.181.03.271.019.169.029.253.023.174.035.262.024.176.037.263.025.16.038.24c.015.1.031.191.047.285.012.07.026.139.038.209s.027.151.042.226h-.75a1.975,1.975,0,0,1-1.972-1.972V36.691h0Zm-7.282,5.74c0-.01,0-.019,0-.029s0,0,0,0c.01-1.09,1.4-2.7,4.393-4.34v.185A4.867,4.867,0,0,0,44.225,43.1h1.542A21.311,21.311,0,0,0,56.561,55.182v1.569a2.063,2.063,0,0,1-.995,1.762H46.05C39.2,50.91,35.006,44.084,34.971,42.431ZM38.738,61.4H92.8a1.806,1.806,0,0,1,1.8,1.8h0V90.151H36.934V63.206h0a1.806,1.806,0,0,1,1.8-1.8M98.773,94.288a.77.77,0,0,1-.769.769H33.535a.77.77,0,0,1-.769-.769V93.81a.77.77,0,0,1,.769-.769H98a.77.77,0,0,1,.769.769Zm9,.612a.456.456,0,0,1-.347.158H101.58c0-.005,0-.011,0-.016.017-.081.028-.164.04-.247.006-.041.015-.082.019-.123a3.661,3.661,0,0,0,.02-.382v-.479A3.662,3.662,0,0,0,98,90.151h-.51V69.567c7.4,7.046,9.8,20.663,10.383,24.974A.45.45,0,0,1,107.769,94.9Z"/>
    </g>
  </g>
</svg>
