<svg xmlns="http://www.w3.org/2000/svg" width="44.966" height="53.426" viewBox="0 0 44.966 53.426">
  <g id="Grupo_957290" data-name="Grupo 957290" transform="translate(-835.251 -892.727)">
    <g id="Grupo_957291" data-name="Grupo 957291" transform="translate(835.251 892.726)">
      <path id="Trazado_657214" data-name="Trazado 657214" d="M857.942,946.151c-7.551,0-13.3-2.153-17.081-6.4-3.723-4.178-5.61-10.617-5.61-19.134,0-9.682,1.8-16.567,5.49-21.051,3.74-4.539,9.527-6.84,17.2-6.84,6.226,0,11.32,1.563,15.141,4.645h0c3.951,3.188,5.955,7.721,5.955,13.47v2.03h-7.926a15.409,15.409,0,0,1,9.1,14.61c0,5.89-2.086,10.551-6.2,13.855C870.033,944.531,864.625,946.151,857.942,946.151Zm0-49.364c-6.493,0-11.094,1.754-14.068,5.362-3.028,3.674-4.563,9.888-4.563,18.468,0,7.492,1.542,13.021,4.582,16.433,2.98,3.345,7.707,5.04,14.049,5.04,5.736,0,10.289-1.319,13.532-3.921,3.151-2.53,4.683-6.026,4.683-10.688a11.384,11.384,0,0,0-7.075-11.073,19.25,19.25,0,0,0-7.812-1.525,15.124,15.124,0,0,0-4.642.8,11.206,11.206,0,0,0-4.056,2.284L849.186,921v-8.568a11.315,11.315,0,0,1,2.294-7.349,8.181,8.181,0,0,1,6.669-3,8.31,8.31,0,0,1,6.331,2.406,7.986,7.986,0,0,1,2.1,4.319h8.292a11.745,11.745,0,0,0-4.338-8.28h0C867.453,898.046,863.216,896.787,857.942,896.787Zm.208,9.36a4.2,4.2,0,0,0-3.523,1.506,7.418,7.418,0,0,0-1.38,4.783v.243a16.411,16.411,0,0,1,2.125-.856,19.172,19.172,0,0,1,5.9-1q.691,0,1.367.034v-.5a4.276,4.276,0,0,0-1.113-3.081A4.408,4.408,0,0,0,858.15,906.147Zm-.208,30.644a8.642,8.642,0,0,1-6.442-2.377,10.079,10.079,0,0,1,.049-12.909h0a8.771,8.771,0,0,1,6.462-2.362A8.622,8.622,0,0,1,864.5,921.6a9.027,9.027,0,0,1,2.336,6.5,8.521,8.521,0,0,1-2.392,6.421A9.035,9.035,0,0,1,857.942,936.791Zm.069-13.589a4.846,4.846,0,0,0-3.591,1.173h0a4.841,4.841,0,0,0-1.173,3.59,4.925,4.925,0,0,0,1.152,3.6,4.73,4.73,0,0,0,3.542,1.16,5.189,5.189,0,0,0,3.689-1.132,4.619,4.619,0,0,0,1.144-3.493,5.077,5.077,0,0,0-1.2-3.688A4.7,4.7,0,0,0,858.011,923.2Z" transform="translate(-835.251 -892.726)" fill="#261e49"/>
    </g>
    <g id="Grupo_957292" data-name="Grupo 957292" transform="translate(837.281 894.756)">
      <path id="Trazado_657215" data-name="Trazado 657215" d="M874.107,901.251q5.2,4.2,5.2,11.89H866.966v-.485a6.268,6.268,0,0,0-1.664-4.472,6.35,6.35,0,0,0-4.853-1.768,6.215,6.215,0,0,0-5.1,2.253,9.316,9.316,0,0,0-1.837,6.066v4.022a13.163,13.163,0,0,1,4.784-2.7,17.082,17.082,0,0,1,5.269-.9,21.161,21.161,0,0,1,8.632,1.7,13.408,13.408,0,0,1,8.285,12.93q0,7.9-5.442,12.272t-14.8,4.368q-10.47,0-15.565-5.72t-5.1-17.783q0-13.657,5.027-19.759t15.634-6.1Q868.907,897.056,874.107,901.251Zm-18.823,23.989a6.8,6.8,0,0,0-1.768,5.026,6.878,6.878,0,0,0,1.733,5.026,6.678,6.678,0,0,0,4.992,1.768,7.067,7.067,0,0,0,5.1-1.7A6.559,6.559,0,0,0,867.1,930.4a7.048,7.048,0,0,0-1.768-5.1,6.655,6.655,0,0,0-5.026-1.837A6.8,6.8,0,0,0,855.284,925.239Z" transform="translate(-839.58 -897.056)" fill="#c4baf5"/>
    </g>
  </g>
</svg>
