<svg xmlns="http://www.w3.org/2000/svg" width="300.668" height="289.526" viewBox="0 0 300.668 289.526">
  <g id="Grupo_961266" data-name="Grupo 961266" transform="translate(-512.038 -1073.002)">
    <path id="Trazado_660070" data-name="Trazado 660070" d="M0,0,1,54" transform="translate(647.5 1308.5)" fill="none" stroke="#000" stroke-width="3"/>
    <path id="Trazado_657722" data-name="Trazado 657722" d="M604.985,3229.821H385.04v-33.3a1.66,1.66,0,1,1,3.319,0V3226.5H601.666v-29.981a1.659,1.659,0,0,1,3.319,0Z" transform="translate(147.006 -1916.866)"/>
    <path id="Trazado_657723" data-name="Trazado 657723" d="M495.012,2989.868a129.981,129.981,0,1,0,129.981,129.98A129.98,129.98,0,0,0,495.012,2989.868Z" transform="translate(147.006 -1916.866)" fill="#45bbcc"/>
    <path id="Trazado_657724" data-name="Trazado 657724" d="M603.325,3198.18a1.659,1.659,0,0,1-1.659-1.659v-78.332h58.329a1.659,1.659,0,1,1,0,3.318h-55.01v75.014A1.659,1.659,0,0,1,603.325,3198.18Z" transform="translate(147.006 -1916.866)"/>
    <path id="Trazado_657725" data-name="Trazado 657725" d="M386.7,3198.18a1.659,1.659,0,0,1-1.66-1.659V3009.876H604.985v94.6a1.659,1.659,0,0,1-3.319,0V3013.2H388.359v183.326A1.659,1.659,0,0,1,386.7,3198.18Z" transform="translate(147.006 -1916.866)"/>
    <path id="Trazado_657726" data-name="Trazado 657726" d="M658.342,3135.748a1.659,1.659,0,0,1-1.074-2.924l15.3-12.976-15.3-12.975a1.659,1.659,0,1,1,2.146-2.531l18.286,15.506-18.286,15.507A1.655,1.655,0,0,1,658.342,3135.748Z" transform="translate(135.006 -1916.866)"/>
    <path id="Rect치ngulo_34831" data-name="Rect치ngulo 34831" d="M0,0H105V110H0Z" transform="translate(589.519 1127.279)" fill="none"/>
    <g id="alcance-social" transform="translate(587.474 1127.279)">
      <path id="Trazado_657735" data-name="Trazado 657735" d="M103,75.05a4.85,4.85,0,0,1-2.47,4.2S72,99.78,59.34,100.5C51.11,101,29,87.64,29,87.64V63.89s7.13-.21,15.51,0c6,.14,12.6,3.21,17.64,7.75H73.39a4.93,4.93,0,0,1,4.14,7.61l18.52-8.56A4.85,4.85,0,0,1,103,75.05Z" fill="#f4d0b5"/>
      <g id="Grupo_957522" data-name="Grupo 957522" opacity="0.1">
        <path id="Trazado_657736" data-name="Trazado 657736" d="M103,75.05a4.87,4.87,0,0,1-2.47,4.2S72,99.78,59.34,100.5C51.1,101,29,87.64,29,87.64V82.05S51.1,95.38,59.34,94.91c12.7-.71,41.19-21.25,41.19-21.25a4.79,4.79,0,0,0,1.57-1.43,4.86,4.86,0,0,1,.9,2.82Z"/>
      </g>
      <rect id="Rect치ngulo_45432" data-name="Rect치ngulo 45432" width="21.95" height="33.3" rx="3.84" transform="translate(7 59.11)" fill="#656d78"/>
      <g id="Grupo_957523" data-name="Grupo 957523" opacity="0.1">
        <path id="Trazado_657737" data-name="Trazado 657737" d="M29,63V88.57a3.85,3.85,0,0,1-3.85,3.84H20.4a3.85,3.85,0,0,0,3.85-3.84V63a3.85,3.85,0,0,0-3.85-3.84h4.71A3.85,3.85,0,0,1,29,63Z"/>
      </g>
      <path id="Trazado_657738" data-name="Trazado 657738" d="M58.93,101.52c-8.75,0-29.6-12.48-30.49-13a1,1,0,0,1-.49-.86V63.88a1,1,0,0,1,1-1c.07,0,7.25-.19,15.56,0,5.94.15,12.64,3,18,7.76H73.39a6,6,0,0,1,5.93,5.94,6.329,6.329,0,0,1,0,.76l16.37-7.56a5.83,5.83,0,0,1,5.43,10.31c-1.69,1.21-29,20.69-41.67,21.41ZM30,87.07C33.16,89,51.43,99.52,58.88,99.52h.41c12.25-.7,40.38-20.87,40.66-21.08l.09-.06A3.83,3.83,0,0,0,96.5,71.6L78,80.15a1,1,0,0,1-1.27-1.46,3.81,3.81,0,0,0,.63-2.11,3.94,3.94,0,0,0-3.93-3.94H62.1a1,1,0,0,1-.67-.25C56.37,67.82,50,65,44.43,64.88c-6.47-.15-12.25-.06-14.48,0Z"/>
      <path id="Trazado_657739" data-name="Trazado 657739" d="M73.39,82.5H51.58a1,1,0,0,1,0-2H73.39a3.93,3.93,0,0,0,3.93-3.93,1,1,0,0,1,2,0A5.94,5.94,0,0,1,73.39,82.5Z"/>
      <path id="Trazado_657740" data-name="Trazado 657740" d="M25.11,93.41H10.84A4.84,4.84,0,0,1,6,88.57V63a4.84,4.84,0,0,1,4.84-4.84H25.11A4.84,4.84,0,0,1,30,63V88.57a4.84,4.84,0,0,1-4.89,4.84ZM10.84,60.11A2.84,2.84,0,0,0,8,63V88.57a2.84,2.84,0,0,0,2.84,2.84H25.11A2.84,2.84,0,0,0,28,88.57V63a2.84,2.84,0,0,0-2.84-2.84Z"/>
      <path id="Trazado_657741" data-name="Trazado 657741" d="M76.35,9.48H103V35.11H76.35Z" fill="#f76c82"/>
      <path id="Trazado_657742" data-name="Trazado 657742" d="M96.98,9.48H103V35.12H96.98Z" fill="#eb5463"/>
      <path id="Trazado_657743" data-name="Trazado 657743" d="M89.67,48.5H20.33a1,1,0,0,1-1-1V35.12a1,1,0,0,1,2,0V46.5H88.67V35.12a1,1,0,1,1,2,0V47.5A1,1,0,0,1,89.67,48.5Z"/>
      <path id="Trazado_657744" data-name="Trazado 657744" d="M55.09,58.45a1,1,0,0,1-1-1V35.12a1,1,0,0,1,2,0V57.45a1,1,0,0,1-1,1Z"/>
      <path id="Trazado_657745" data-name="Trazado 657745" d="M103,36.12H76.35a1,1,0,0,1-1-1V9.48a1.007,1.007,0,0,1,1-1H103a.99.99,0,0,1,1,1V35.12A1,1,0,0,1,103,36.12Zm-25.65-2H102V10.49H77.35Z"/>
      <path id="Trazado_657746" data-name="Trazado 657746" d="M99.14,30.6v4.45H80.2V30.6a3.46,3.46,0,0,1,3.46-3.46h12a3.46,3.46,0,0,1,3.48,3.46Z" fill="#b3a4ee"/>
      <path id="Trazado_657747" data-name="Trazado 657747" d="M99.14,30.6v4.45H94.6V30.6a3.45,3.45,0,0,0-3.46-3.46h4.54a3.45,3.45,0,0,1,3.46,3.46Z" fill="#ac92ea"/>
      <path id="Trazado_657748" data-name="Trazado 657748" d="M99.14,36.05H80.2a1,1,0,0,1-1-1V30.6a4.46,4.46,0,0,1,4.46-4.46h12a4.46,4.46,0,0,1,4.46,4.46v4.45a1,1,0,0,1-.98,1Zm-17.94-2H98.14V30.6a2.46,2.46,0,0,0-2.46-2.46h-12A2.46,2.46,0,0,0,81.2,30.6Z"/>
      <path id="Trazado_657749" data-name="Trazado 657749" d="M94.53,36.05a1,1,0,0,1-1-1V31.93a1,1,0,0,1,2,0v3.12A1,1,0,0,1,94.53,36.05Z"/>
      <path id="Trazado_657750" data-name="Trazado 657750" d="M84.81,36.05a1,1,0,0,1-1-1V31.93a1,1,0,0,1,2,0v3.12A1,1,0,0,1,84.81,36.05Z"/>
      <path id="Trazado_657751" data-name="Trazado 657751" d="M94.6,18.1c0,2.73-2.2,6-4.93,6s-4.93-3.26-4.93-6a4.93,4.93,0,1,1,9.86,0Z" fill="#fff"/>
      <path id="Trazado_657752" data-name="Trazado 657752" d="M89.67,25.08c-3.34,0-5.93-3.75-5.93-7a5.93,5.93,0,0,1,11.86,0C95.6,21.33,93,25.08,89.67,25.08Zm0-10.91a3.94,3.94,0,0,0-3.93,3.93c0,2.25,1.81,5,3.93,5s3.93-2.73,3.93-5A3.94,3.94,0,0,0,89.67,14.17Z"/>
      <path id="Trazado_657753" data-name="Trazado 657753" d="M41.67,9.48H68.32V35.11H41.67Z" fill="#b4df80"/>
      <path id="Trazado_657754" data-name="Trazado 657754" d="M62.3,9.48h6.02V35.12H62.3Z" fill="#9ed26a"/>
      <path id="Trazado_657755" data-name="Trazado 657755" d="M68.32,36.12H41.67a1,1,0,0,1-1-1V9.48a1,1,0,0,1,1-1H68.32a1,1,0,0,1,1,1V35.12A1,1,0,0,1,68.32,36.12Zm-25.65-2H67.32V10.49H42.67Z"/>
      <path id="Trazado_657756" data-name="Trazado 657756" d="M64.47,30.6v4.45H45.53V30.6A3.46,3.46,0,0,1,49,27.14H61a3.46,3.46,0,0,1,3.47,3.46Z" fill="#66d4f1"/>
      <path id="Trazado_657757" data-name="Trazado 657757" d="M64.47,30.6v4.45H59.93V30.6a3.46,3.46,0,0,0-3.46-3.46H61a3.46,3.46,0,0,1,3.47,3.46Z" fill="#4fc0e8"/>
      <path id="Trazado_657758" data-name="Trazado 657758" d="M64.47,36.05H45.53a1,1,0,0,1-1-1V30.6A4.46,4.46,0,0,1,49,26.14H61a4.46,4.46,0,0,1,4.46,4.46v4.45a1,1,0,0,1-.99,1Zm-17.94-2H63.47V30.6A2.46,2.46,0,0,0,61,28.14H49a2.46,2.46,0,0,0-2.46,2.46Z"/>
      <path id="Trazado_657759" data-name="Trazado 657759" d="M59.86,36.05a1,1,0,0,1-1-1V31.93a1,1,0,0,1,2,0v3.12A1,1,0,0,1,59.86,36.05Z"/>
      <path id="Trazado_657760" data-name="Trazado 657760" d="M50.14,36.05a1,1,0,0,1-1-1V31.93a1,1,0,0,1,2,0v3.12A1,1,0,0,1,50.14,36.05Z"/>
      <path id="Trazado_657761" data-name="Trazado 657761" d="M59.93,18.1c0,2.73-2.21,6-4.93,6s-4.93-3.26-4.93-6a4.93,4.93,0,0,1,9.86,0Z" fill="#fff"/>
      <path id="Trazado_657762" data-name="Trazado 657762" d="M55,25.08c-3.34,0-5.93-3.75-5.93-7a5.93,5.93,0,0,1,11.86,0C60.93,21.33,58.34,25.08,55,25.08Zm0-10.91a3.94,3.94,0,0,0-3.93,3.93c0,2.25,1.81,5,3.93,5s3.93-2.73,3.93-5A3.94,3.94,0,0,0,55,14.17Z"/>
      <path id="Trazado_657763" data-name="Trazado 657763" d="M7,9.48H33.65V35.11H7Z" fill="#fbd277"/>
      <path id="Trazado_657764" data-name="Trazado 657764" d="M27.63,9.48h6.02V35.12H27.63Z" fill="#fdcd56"/>
      <path id="Trazado_657765" data-name="Trazado 657765" d="M33.65,36.12H7a1,1,0,0,1-1-1V9.48a1,1,0,0,1,1-1H33.65a1,1,0,0,1,1,1V35.12A1,1,0,0,1,33.65,36.12ZM8,34.12H32.65V10.49H8Z"/>
      <path id="Trazado_657766" data-name="Trazado 657766" d="M29.79,30.6v4.45H10.85V30.6a3.46,3.46,0,0,1,3.46-3.46h12a3.45,3.45,0,0,1,3.48,3.46Z" fill="#f76c82"/>
      <path id="Trazado_657767" data-name="Trazado 657767" d="M29.79,30.6v4.45H25.26V30.6a3.46,3.46,0,0,0-3.46-3.46h4.53a3.45,3.45,0,0,1,3.46,3.46Z" fill="#eb5463"/>
      <path id="Trazado_657768" data-name="Trazado 657768" d="M29.79,36.05H10.85a1,1,0,0,1-1-1V30.6a4.46,4.46,0,0,1,4.46-4.46h12a4.46,4.46,0,0,1,4.46,4.46v4.45a1,1,0,0,1-.98,1Zm-17.94-2H28.79V30.6a2.46,2.46,0,0,0-2.46-2.46h-12a2.46,2.46,0,0,0-2.46,2.46Z"/>
      <path id="Trazado_657769" data-name="Trazado 657769" d="M25.18,36.05a1,1,0,0,1-1-1V31.93a1,1,0,0,1,2,0v3.12A1,1,0,0,1,25.18,36.05Z"/>
      <path id="Trazado_657770" data-name="Trazado 657770" d="M15.46,36.05a1,1,0,0,1-1-1V31.93a1,1,0,1,1,2,0v3.12a1,1,0,0,1-1,1Z"/>
      <path id="Trazado_657771" data-name="Trazado 657771" d="M25.26,18.1c0,2.73-2.21,6-4.94,6s-4.93-3.26-4.93-6a4.94,4.94,0,0,1,9.87,0Z" fill="#fff"/>
      <path id="Trazado_657772" data-name="Trazado 657772" d="M20.32,25.08c-3.34,0-5.93-3.75-5.93-7a5.94,5.94,0,0,1,11.87,0c0,3.25-2.6,7-5.94,7Zm0-10.91a3.94,3.94,0,0,0-3.93,3.93c0,2.25,1.82,5,3.93,5s3.94-2.73,3.94-5A4,4,0,0,0,20.32,14.17Z"/>
    </g>
    <path id="Trazado_660071" data-name="Trazado 660071" d="M.967,0V-12.8H5.089a6.064,6.064,0,0,1,3.05.769,5.406,5.406,0,0,1,2.114,2.171,6.554,6.554,0,0,1,.769,3.142v.589a6.592,6.592,0,0,1-.743,3.151A5.429,5.429,0,0,1,8.187-.8a5.93,5.93,0,0,1-3.01.8ZM4.052-10.415v8.042H5.124a2.4,2.4,0,0,0,2.039-.945,4.63,4.63,0,0,0,.712-2.808V-6.68a4.592,4.592,0,0,0-.712-2.795,2.442,2.442,0,0,0-2.074-.94ZM17.068.176a4.889,4.889,0,0,1-3.542-1.305,4.507,4.507,0,0,1-1.354-3.4v-.246a5.84,5.84,0,0,1,.541-2.575,3.955,3.955,0,0,1,1.578-1.727,4.763,4.763,0,0,1,2.461-.611,4.117,4.117,0,0,1,3.164,1.244,4.887,4.887,0,0,1,1.16,3.467v1.151H15.188a2.135,2.135,0,0,0,.694,1.257,2.066,2.066,0,0,0,1.389.457,2.662,2.662,0,0,0,2.2-.984l1.354,1.6A3.784,3.784,0,0,1,19.252-.277,5.3,5.3,0,0,1,17.068.176ZM16.734-7.4q-1.3,0-1.547,1.723h2.988v-.229a1.467,1.467,0,0,0-.36-1.1A1.434,1.434,0,0,0,16.734-7.4ZM22.957,0V-7.453h-1.38V-9.51h1.38v-.316a3.631,3.631,0,0,1,1.248-2.909,4.987,4.987,0,0,1,3.243-.949,11.509,11.509,0,0,1,3.094.51l-.4,2.338-.492-.132a7.832,7.832,0,0,0-2.021-.255q-1.7,0-1.7,1.547v.167h1.863v2.057H25.928V0ZM31.9,0H28.925V-9.51H31.9Zm4.526-9.51.1,1.116a3.225,3.225,0,0,1,2.716-1.292,2.713,2.713,0,0,1,2.219.888,4.226,4.226,0,0,1,.76,2.672V0H39.252V-6a1.6,1.6,0,0,0-.29-1.059A1.342,1.342,0,0,0,37.907-7.4a1.413,1.413,0,0,0-1.292.686V0H33.653V-9.51ZM46.986,0H44.016V-9.51h2.971ZM43.84-11.962A1.322,1.322,0,0,1,44.3-13a1.724,1.724,0,0,1,1.187-.4,1.724,1.724,0,0,1,1.187.4,1.322,1.322,0,0,1,.457,1.037,1.322,1.322,0,0,1-.457,1.037,1.724,1.724,0,0,1-1.187.4,1.724,1.724,0,0,1-1.187-.4A1.322,1.322,0,0,1,43.84-11.962ZM54.563-6.829l-.976-.07a1.752,1.752,0,0,0-1.793.879V0H48.832V-9.51h2.777l.1,1.222a2.294,2.294,0,0,1,2.083-1.4,2.888,2.888,0,0,1,.826.105Zm10.151,7a4.889,4.889,0,0,1-3.542-1.305,4.507,4.507,0,0,1-1.354-3.4v-.246a5.84,5.84,0,0,1,.541-2.575,3.955,3.955,0,0,1,1.578-1.727A4.763,4.763,0,0,1,64.4-9.686a4.117,4.117,0,0,1,3.164,1.244,4.887,4.887,0,0,1,1.16,3.467v1.151H62.833a2.135,2.135,0,0,0,.694,1.257,2.066,2.066,0,0,0,1.389.457,2.662,2.662,0,0,0,2.2-.984l1.354,1.6A3.784,3.784,0,0,1,66.9-.277,5.3,5.3,0,0,1,64.714.176ZM64.38-7.4q-1.3,0-1.547,1.723h2.988v-.229a1.467,1.467,0,0,0-.36-1.1A1.434,1.434,0,0,0,64.38-7.4ZM73.037,0H70.066V-13.5h2.971ZM84.7,0a3.344,3.344,0,0,1-.281-.853A2.754,2.754,0,0,1,82.134.176a3.374,3.374,0,0,1-2.285-.813,2.588,2.588,0,0,1-.94-2.043,2.66,2.66,0,0,1,1.143-2.338,5.821,5.821,0,0,1,3.322-.791h.914v-.5q0-1.316-1.134-1.316A.927.927,0,0,0,82.1-6.587H79.137A2.655,2.655,0,0,1,80.31-8.825a4.931,4.931,0,0,1,2.993-.86,4.323,4.323,0,0,1,2.874.888,3.086,3.086,0,0,1,1.081,2.435v4.21a4.311,4.311,0,0,0,.4,2V0ZM82.846-1.934a1.652,1.652,0,0,0,.918-.237,1.487,1.487,0,0,0,.523-.536V-4.228h-.861q-1.547,0-1.547,1.389a.848.848,0,0,0,.272.655A.986.986,0,0,0,82.846-1.934ZM92.021,0H89.051V-13.5h2.971Zm5.845-2.109a1.317,1.317,0,0,0,.967-.338,1.241,1.241,0,0,0,.334-.945h2.777a3.288,3.288,0,0,1-1.121,2.566,4.168,4.168,0,0,1-2.887,1,4.22,4.22,0,0,1-3.27-1.3,5.125,5.125,0,0,1-1.2-3.6v-.123A5.792,5.792,0,0,1,94-7.4a3.872,3.872,0,0,1,1.534-1.7,4.573,4.573,0,0,1,2.373-.593,4.116,4.116,0,0,1,2.944,1.028,3.647,3.647,0,0,1,1.09,2.786H99.167A1.626,1.626,0,0,0,98.807-7a1.244,1.244,0,0,0-.967-.4q-1.151,0-1.345,1.468a10.357,10.357,0,0,0-.062,1.283,4.068,4.068,0,0,0,.343,1.986A1.187,1.187,0,0,0,97.866-2.109ZM108.554,0a3.344,3.344,0,0,1-.281-.853A2.754,2.754,0,0,1,105.987.176,3.374,3.374,0,0,1,103.7-.637a2.588,2.588,0,0,1-.94-2.043A2.66,2.66,0,0,1,103.9-5.019a5.821,5.821,0,0,1,3.322-.791h.914v-.5q0-1.316-1.134-1.316a.927.927,0,0,0-1.055,1.042H102.99a2.655,2.655,0,0,1,1.173-2.239,4.931,4.931,0,0,1,2.993-.86,4.323,4.323,0,0,1,2.874.888,3.086,3.086,0,0,1,1.081,2.435v4.21a4.311,4.311,0,0,0,.4,2V0ZM106.7-1.934a1.652,1.652,0,0,0,.918-.237,1.487,1.487,0,0,0,.523-.536V-4.228h-.861q-1.547,0-1.547,1.389a.848.848,0,0,0,.272.655A.986.986,0,0,0,106.7-1.934Zm8.771-7.576.1,1.116a3.225,3.225,0,0,1,2.716-1.292A2.713,2.713,0,0,1,120.5-8.8a4.226,4.226,0,0,1,.76,2.672V0h-2.971V-6A1.6,1.6,0,0,0,118-7.062a1.342,1.342,0,0,0-1.055-.338,1.413,1.413,0,0,0-1.292.686V0h-2.962V-9.51Zm11.452,7.4a1.317,1.317,0,0,0,.967-.338,1.241,1.241,0,0,0,.334-.945H131A3.288,3.288,0,0,1,129.88-.826a4.168,4.168,0,0,1-2.887,1,4.22,4.22,0,0,1-3.27-1.3,5.125,5.125,0,0,1-1.2-3.6v-.123A5.792,5.792,0,0,1,123.06-7.4a3.872,3.872,0,0,1,1.534-1.7,4.573,4.573,0,0,1,2.373-.593,4.116,4.116,0,0,1,2.944,1.028A3.647,3.647,0,0,1,131-5.871h-2.777A1.626,1.626,0,0,0,127.863-7a1.244,1.244,0,0,0-.967-.4q-1.151,0-1.345,1.468a10.357,10.357,0,0,0-.062,1.283,4.068,4.068,0,0,0,.343,1.986A1.187,1.187,0,0,0,126.923-2.109ZM136.854.176a4.889,4.889,0,0,1-3.542-1.305,4.507,4.507,0,0,1-1.354-3.4v-.246a5.84,5.84,0,0,1,.541-2.575,3.955,3.955,0,0,1,1.578-1.727,4.763,4.763,0,0,1,2.461-.611A4.117,4.117,0,0,1,139.7-8.442a4.887,4.887,0,0,1,1.16,3.467v1.151h-5.889a2.135,2.135,0,0,0,.694,1.257,2.066,2.066,0,0,0,1.389.457,2.662,2.662,0,0,0,2.2-.984l1.354,1.6a3.784,3.784,0,0,1-1.569,1.217A5.3,5.3,0,0,1,136.854.176ZM136.521-7.4q-1.3,0-1.547,1.723h2.988v-.229a1.467,1.467,0,0,0-.36-1.1A1.434,1.434,0,0,0,136.521-7.4Z" transform="translate(571.519 1269.354)" fill="#12263f"/>
  </g>
</svg>
