<svg xmlns="http://www.w3.org/2000/svg" width="400" height="338" viewBox="0 0 400 338">
  <g id="Grupo_961268" data-name="Grupo 961268" transform="translate(-1020 -3532)">
    <g id="Grupo_957543" data-name="Grupo 957543">
      <path id="hacker-working-in-the-darkness" d="M0,0H97.731c14.555,35.548,53.192,60.963,98.572,60.963a119.827,119.827,0,0,0,13.7-.785v83.778q-6.789.406-13.7.411C98.273,144.368,16.762,82.085,0,0Z" transform="translate(1420 3532) rotate(90)" fill="#2ff980" style="mix-blend-mode: multiply;isolation: isolate"/>
      <g id="Grupo_955693" data-name="Grupo 955693" transform="translate(0 -7387)">
        <g id="Elipse_5635" data-name="Elipse 5635" transform="translate(1020 11209)" fill="none" stroke="#c4baf5" stroke-width="15">
          <ellipse cx="23" cy="24" rx="23" ry="24" stroke="none"/>
          <ellipse cx="23" cy="24" rx="15.5" ry="16.5" fill="none"/>
        </g>
        <ellipse id="Elipse_5636" data-name="Elipse 5636" cx="7.5" cy="8" rx="7.5" ry="8" transform="translate(1062 11187)" fill="#342287"/>
      </g>
      <g id="Grupo_957542" data-name="Grupo 957542" transform="translate(845.825 3377.436)">
        <rect id="Rectángulo_45434" data-name="Rectángulo 45434" width="193.314" height="4.886" transform="translate(174.175 380.507)" fill="#8c8c8c"/>
        <path id="Trazado_657799" data-name="Trazado 657799" d="M196.685,240.345H339.13L367.489,268.7H174.175Z" transform="translate(0 111.807)" fill="#aaa"/>
        <rect id="Rectángulo_45435" data-name="Rectángulo 45435" width="108.014" height="15.132" transform="translate(260.916 317.56)" fill="#8c8c8c"/>
        <rect id="Rectángulo_45436" data-name="Rectángulo 45436" width="165.666" height="11.534" transform="translate(232.092 329.088)" fill="#aaa"/>
        <path id="Trazado_657800" data-name="Trazado 657800" d="M249.731,240.41l9.05,83.561s-26.44,55.212-38.692,54.6-1.246-143.751-3.382-149.864S236.293,226.739,249.731,240.41Z" transform="translate(86.226 80.81)" fill="#2b2b2b"/>
        <path id="Trazado_657801" data-name="Trazado 657801" d="M246.676,319.26l-9.05-83.561a50.15,50.15,0,0,0-9.653-7.555c-5,2.334-8.157,3.9-8.157,3.9s5.533,50.077,8.725,84.018c1.158,12.309-.205,26.3-2,39.383C236.935,339.59,246.676,319.26,246.676,319.26Z" transform="translate(98.331 85.521)" fill="#111010"/>
        <path id="Trazado_657802" data-name="Trazado 657802" d="M281.183,234.19c-8.785-.476-15.252,7.28-28.841,26.683-16.513,23.576-37.071,65.268-37.156,73.593-.35,32.891-4.117,40.238,30.926,29.216,12.23-3.848,43.765-43.1,74.284-100.636C330.846,243.338,287.662,234.54,281.183,234.19Z" transform="translate(87.747 98.502)" fill="#2b2b2b"/>
        <rect id="Rectángulo_45437" data-name="Rectángulo 45437" width="227.058" height="131.647" transform="translate(201.394 188.449)" fill="#aaa"/>
        <rect id="Rectángulo_45438" data-name="Rectángulo 45438" width="213.052" height="116.819" transform="translate(209.035 196.035)" fill="#8e8e8e"/>
        <rect id="Rectángulo_45439" data-name="Rectángulo 45439" width="208.482" height="114.014" transform="translate(210.682 197.265)" fill="#91ebf2"/>
        <rect id="Rectángulo_45440" data-name="Rectángulo 45440" width="162.33" height="99.015" transform="translate(256.705 205.904)" fill="#707070"/>
        <g id="Grupo_957539" data-name="Grupo 957539" transform="translate(302.933 220.899)">
          <path id="Trazado_657803" data-name="Trazado 657803" d="M281.741,232.11a33.374,33.374,0,1,1-33.374-33.374A33.375,33.375,0,0,1,281.741,232.11Z" transform="translate(-214.993 -198.736)" fill="#262626"/>
          <circle id="Elipse_5669" data-name="Elipse 5669" cx="21.542" cy="21.542" r="21.542" transform="translate(11.833 11.832)" fill="#515151"/>
          <circle id="Elipse_5670" data-name="Elipse 5670" cx="8.622" cy="8.622" r="8.622" transform="translate(24.752 24.751)" fill="#777"/>
          <circle id="Elipse_5671" data-name="Elipse 5671" cx="4.522" cy="4.522" r="4.522" transform="translate(28.852 28.851)" fill="#515151"/>
        </g>
        <path id="Trazado_657804" data-name="Trazado 657804" d="M249.552,202.61c-5.17,3.382-9.243,12.839-7.243,17.848,3.076,7.684-3.564,22.709-3.637,25.579s8.157-1.224,8.952.615-2.681,5.735-1.8,7.514c.593,1.205,4.959,1.6,4.959,1.6s-2.691,1.5-3.107,2.858c-1.259,4.113,3.5,3.861,3.028,5.81s-4.107,4.943,1.085,9.9,14.785.549,26.191-7.422S249.552,202.61,249.552,202.61Z" transform="translate(138.955 30.51)" fill="#ffb18f"/>
        <path id="Trazado_657805" data-name="Trazado 657805" d="M392.886,337.334c-2.561-3.46-20.091-16.192-23.939-17.772-8.132-4.006-11.315-16.122-11.315-16.122s-5.568-32.778,1.4-50.72c10.239-26.358-6.29-58.609-32-59.505-31.169-1.095-74.93,19.2-77.35,27.573-2.208,7.643,30.992,47.91,29.816,73.524-.978,21.365-20.229,19.535-22.661,23.217-13.208,1.779-16.744,7.924-25.317,13.958-8.618,6.069,56.651,117.238,54.774,125.758-.722,3.284,69.631,7.776,76.93,6.874,55.909-6.874,59.944-15.558,59.944-17.472C423.165,443.534,428.446,385.376,392.886,337.334Z" transform="translate(121.852 10.175)" fill="#2b2b2b"/>
        <rect id="Rectángulo_45441" data-name="Rectángulo 45441" width="0.821" height="6.762" transform="translate(336.308 232.731)" fill="#707070"/>
        <rect id="Rectángulo_45442" data-name="Rectángulo 45442" width="0.821" height="3.379" transform="translate(336.308 220.899)" fill="#707070"/>
        <rect id="Rectángulo_45443" data-name="Rectángulo 45443" width="0.819" height="3.382" transform="matrix(0.865, -0.501, 0.501, 0.865, 319.62, 225.37)" fill="#707070"/>
        <rect id="Rectángulo_45444" data-name="Rectángulo 45444" width="0.819" height="3.382" transform="matrix(0.498, -0.867, 0.867, 0.498, 307.403, 237.589)" fill="#707070"/>
        <rect id="Rectángulo_45445" data-name="Rectángulo 45445" width="0.821" height="3.382" transform="translate(302.932 254.273) rotate(-90)" fill="#707070"/>
        <rect id="Rectángulo_45446" data-name="Rectángulo 45446" width="0.82" height="3.381" transform="matrix(-0.501, -0.865, 0.865, -0.501, 307.406, 270.962)" fill="#707070"/>
        <rect id="Rectángulo_45447" data-name="Rectángulo 45447" width="0.819" height="3.382" transform="translate(319.621 283.177) rotate(-150.012)" fill="#707070"/>
        <rect id="Rectángulo_45448" data-name="Rectángulo 45448" width="0.821" height="3.383" transform="translate(336.308 287.647) rotate(180)" fill="#707070"/>
        <path id="Trazado_657806" data-name="Trazado 657806" d="M230.1,217.962l.708-.411,1.688,2.928-.708.41Z" transform="translate(120.495 62.697)" fill="#707070"/>
        <rect id="Rectángulo_45449" data-name="Rectángulo 45449" width="0.819" height="3.381" transform="translate(365.214 270.954) rotate(119.797)" fill="#707070"/>
        <rect id="Rectángulo_45450" data-name="Rectángulo 45450" width="0.821" height="3.382" transform="translate(369.682 254.273) rotate(90)" fill="#707070"/>
        <rect id="Rectángulo_45451" data-name="Rectángulo 45451" width="0.821" height="3.384" transform="translate(365.213 237.585) rotate(60.012)" fill="#707070"/>
        <path id="Trazado_657807" data-name="Trazado 657807" d="M231.037,203.493l-.708-.41,1.688-2.931.708.411Z" transform="translate(120.979 25.215)" fill="#707070"/>
        <path id="Trazado_657808" data-name="Trazado 657808" d="M226.248,209.131l-.707.407-3.383-5.854.71-.411Z" transform="translate(103.378 31.935)" fill="#707070"/>
        <path id="Trazado_657809" data-name="Trazado 657809" d="M225.928,209.058l-.411.71-5.857-3.382.407-.71Z" transform="translate(97.993 37.116)" fill="#707070"/>
        <rect id="Rectángulo_45452" data-name="Rectángulo 45452" width="0.821" height="6.765" transform="translate(314.766 254.273) rotate(-90)" fill="#707070"/>
        <rect id="Rectángulo_45453" data-name="Rectángulo 45453" width="0.82" height="6.765" transform="translate(317.651 265.044) rotate(-119.988)" fill="#707070"/>
        <rect id="Rectángulo_45454" data-name="Rectángulo 45454" width="0.82" height="6.765" transform="translate(325.534 272.927) rotate(-149.936)" fill="#707070"/>
        <rect id="Rectángulo_45455" data-name="Rectángulo 45455" width="0.821" height="6.762" transform="translate(336.308 275.815) rotate(180)" fill="#707070"/>
        <rect id="Rectángulo_45456" data-name="Rectángulo 45456" width="0.82" height="6.764" transform="translate(347.082 272.927) rotate(149.957)" fill="#707070"/>
        <rect id="Rectángulo_45457" data-name="Rectángulo 45457" width="0.82" height="6.768" transform="matrix(-0.5, 0.866, -0.866, -0.5, 354.966, 265.044)" fill="#707070"/>
        <rect id="Rectángulo_45458" data-name="Rectángulo 45458" width="0.821" height="6.765" transform="translate(357.85 254.273) rotate(90)" fill="#707070"/>
        <path id="Trazado_657810" data-name="Trazado 657810" d="M230.042,209.994l-.413-.71,5.862-3.382.407.71Z" transform="translate(119.474 37.601)" fill="#707070"/>
        <rect id="Rectángulo_45459" data-name="Rectángulo 45459" width="0.82" height="6.761" transform="matrix(0.866, 0.5, -0.5, 0.866, 347.081, 235.618)" fill="#707070"/>
        <path id="Trazado_657811" data-name="Trazado 657811" d="M210.71,216.8c2.274,0,5.158,19.873,8.8,20.479s-.685-27.491,4.779-29.917,2.839,29.819,5.344,29.734,3.789-32.241,9.359-33.33-3.382,31.5-.653,32.109,3.126-13.413,8.659-17.567c4.6-3.454,9.154-5.17,9.949-3.113s-4.325,5.189-7.659,10.649-3.6,23.179,2.99,22.961c1.356-.041,5.331-16.592,12.293-19.475,2.574-1.066,4.445-.669,2.959,5.217-2.1,8.318-9.208,23.059-9.044,26.094s4.606,29.043,4.52,30.866-30.535.6-33.374,0c-1.369-.3.36-10.148-4.691-21.409-5.719-12.741-11.018-28.2-12.908-30.715C208.392,234.53,206.247,216.8,210.71,216.8Z" transform="translate(73.303 32.947)" fill="#2b2b2b"/>
        <g id="Grupo_957540" data-name="Grupo 957540" transform="translate(219.563 203.388)">
          <rect id="Rectángulo_45460" data-name="Rectángulo 45460" width="17.574" height="11.281" transform="translate(0 2.517)" fill="#ffc931"/>
          <rect id="Rectángulo_45461" data-name="Rectángulo 45461" width="6.464" height="13.797" fill="#ffc931"/>
        </g>
        <g id="Grupo_957541" data-name="Grupo 957541" transform="translate(219.563 230.089)">
          <rect id="Rectángulo_45462" data-name="Rectángulo 45462" width="17.574" height="11.284" transform="translate(0 2.517)" fill="#ffc931"/>
          <rect id="Rectángulo_45463" data-name="Rectángulo 45463" width="6.464" height="13.801" fill="#ffc931"/>
        </g>
        <rect id="Rectángulo_45464" data-name="Rectángulo 45464" width="17.574" height="3.71" transform="translate(219.563 219.043)" fill="#69afb5"/>
        <rect id="Rectángulo_45465" data-name="Rectángulo 45465" width="17.574" height="3.712" transform="translate(219.563 245.668)" fill="#69afb5"/>
        <path id="Trazado_657812" data-name="Trazado 657812" d="M291.867,256.157s-6.489-15.283-18.122-17.662-27.28-2.565-27.28-2.565,24.195-9.3,33.475-2.735S291.867,256.157,291.867,256.157Z" transform="translate(155.745 91.352)" fill="#232222"/>
        <path id="Trazado_657813" data-name="Trazado 657813" d="M250.607,255.838s2.8,38.774,12.823,48.361a53.45,53.45,0,0,0,21.788,12.454s-20.914,1.927-30.5-13.76S250.607,255.838,250.607,255.838Z" transform="translate(161.318 145.186)" fill="#232222"/>
        <path id="Trazado_657814" data-name="Trazado 657814" d="M228.012,305.594s14.479-14.277,21.86-26.781,3.77-39.156,3.77-39.156,11.564,18.409,7.9,36.292S228.012,305.594,228.012,305.594Z" transform="translate(115.989 110.325)" fill="#232222"/>
        <path id="Trazado_657815" data-name="Trazado 657815" d="M227.175,291.369s3.419-7.217,6.221-14.293,23.848-19.132,23.848-19.132-6.322,7.854-11.757,21.835S227.175,291.369,227.175,291.369Z" transform="translate(114.186 149.725)" fill="#232222"/>
        <path id="Trazado_657816" data-name="Trazado 657816" d="M302.368,240.837c-1.161-17.668-12.34-35.427-26.882-45.623-20.147,6.419-37.191,16.034-38.673,21.173C234.6,224.03,267.8,264.3,266.628,289.91c-.666,14.495-9.731,18.308-16.258,20.415a135.214,135.214,0,0,0,17.119-2.7C291.005,302.118,304.232,269.173,302.368,240.837Z" transform="translate(134.721 14.575)" fill="#232222"/>
        <path id="Trazado_657817" data-name="Trazado 657817" d="M297.825,257.636s-12.747-17.315-25.021-22.311a29.978,29.978,0,0,0-23.012.347s14.627-14.372,30.91-7.217S297.825,257.636,297.825,257.636Z" transform="translate(162.912 81.889)" fill="#232222"/>
        <path id="Trazado_657818" data-name="Trazado 657818" d="M270.528,235.48c-4.905,4.1-10.365,11.4-18.188,22.57-16.513,23.576-37.071,65.268-37.156,73.593-.148,13.76-.883,23.04.871,28.384,2.189,1.823,3.9,2.833,4.861,2.71,7.145-.908,41.3-61.978,52.455-83.555C282.187,262.132,275.922,243.637,270.528,235.48Z" transform="translate(87.75 101.326)" fill="#1e1e1e"/>
        <path id="Trazado_657819" data-name="Trazado 657819" d="M249.949,229.332c-6.962,2.883-10.936,19.434-12.293,19.475-6.59.218-6.331-17.5-2.99-22.961s8.451-8.59,7.659-10.649-5.347-.341-9.949,3.113c-5.533,4.154-5.927,18.176-8.659,17.567s6.227-33.2.653-32.109-6.858,33.245-9.359,33.33l-.025-.006c.3,3.883,2.8,16.327,4.564,19.346,8.091,13.816,11.457,15.025,15.242,24.015,1.533,3.647,2.142,7.908,2.836,12.012,5.94.006,10.722-.237,10.757-.956.085-1.823-4.359-27.832-4.52-30.866s6.94-17.775,9.044-26.094C254.393,228.663,252.523,228.266,249.949,229.332Z" transform="translate(87.923 32.947)" fill="#111010"/>
        <path id="Trazado_657820" data-name="Trazado 657820" d="M250.979,397.215c-.722,3.284,69.631,7.776,76.93,6.874,55.909-6.874,59.944-15.558,59.944-17.472,0-3.11,5.281-61.269-30.279-109.311-2.561-3.46-20.091-16.192-23.939-17.772-8.132-4.006-11.315-16.122-11.315-16.122a177.213,177.213,0,0,1-2.057-22.378s-6.328,25.658,4.388,49.383,27.98,50.515,26.22,75.3-18.766,55.338-52.31,51.5c-17.7-2.025-37.071-7.132-51.436-11.507C249.78,391.67,251.285,395.828,250.979,397.215Z" transform="translate(157.164 70.203)" fill="#232222"/>
        <path id="Trazado_657821" data-name="Trazado 657821" d="M269.854,242.419s16.075,26.813,21.665,46.78,7.687,45.821,7.687,45.821,8.388-36.528-4.2-61.243S269.854,242.419,269.854,242.419Z" transform="translate(206.135 116.276)" fill="#232222"/>
        <path id="Trazado_657822" data-name="Trazado 657822" d="M239.631,267.051s2.621-14.2,15.208-12.914c14.514,1.479,9.725,39.446,9.725,39.446s-5.489-19.163-10.889-24.923C246.684,261.205,239.631,267.051,239.631,267.051Z" transform="translate(141.021 141.342)" fill="#232222"/>
        <path id="Trazado_657823" data-name="Trazado 657823" d="M303.52,303.44s-5.568-32.778,1.4-50.72c10.239-26.358-6.29-58.609-32-59.505a90.415,90.415,0,0,0-17.069,1.2c10.059,3.1,32.232,12.993,32.961,40.254.946,35.3,4.7,73.256,20.33,80.063A35.211,35.211,0,0,1,303.52,303.44Z" transform="translate(175.964 10.175)" fill="#232222"/>
        <path id="Trazado_657824" data-name="Trazado 657824" d="M238.329,201.166a6.717,6.717,0,0,0-1.517,2.4c-2.208,7.643,30.992,47.91,29.816,73.524-.328,7.192-2.747,11.716-5.877,14.75.022-.019.05-.019.073-.035,16.854-8.5,7.246-35.756-4.583-59.114C249.338,219.055,242.686,208.017,238.329,201.166Z" transform="translate(134.721 27.399)" fill="#5c7e7f"/>
      </g>
    </g>
  </g>
</svg>
