<svg xmlns="http://www.w3.org/2000/svg" width="312.669" height="289.554" viewBox="0 0 312.669 289.554">
  <g id="Grupo_961267" data-name="Grupo 961267" transform="translate(-830.038 -1073.002)">
    <path id="Trazado_660073" data-name="Trazado 660073" d="M0,0,2,54" transform="translate(962.5 1308.5)" fill="none" stroke="#000" stroke-width="3"/>
    <path id="Trazado_657727" data-name="Trazado 657727" d="M934.985,3229.821H715.041v-33.3a1.659,1.659,0,1,1,3.318,0V3226.5H931.667v-29.981a1.659,1.659,0,0,1,3.318,0Z" transform="translate(135.006 -1916.866)"/>
    <path id="Trazado_657728" data-name="Trazado 657728" d="M825.013,2989.868a129.981,129.981,0,1,0,129.981,129.98A129.981,129.981,0,0,0,825.013,2989.868Z" transform="translate(135.006 -1916.866)" fill="#45bbcc"/>
    <path id="Trazado_657729" data-name="Trazado 657729" d="M933.326,3198.18a1.659,1.659,0,0,1-1.659-1.659v-78.332h72.013a1.659,1.659,0,0,1,0,3.318h-68.7v75.014A1.659,1.659,0,0,1,933.326,3198.18Z" transform="translate(135.006 -1916.866)"/>
    <path id="Trazado_657730" data-name="Trazado 657730" d="M716.7,3198.18a1.659,1.659,0,0,1-1.659-1.659V3009.876H934.985v94.6a1.659,1.659,0,0,1-3.318,0V3013.2H718.359v183.326A1.659,1.659,0,0,1,716.7,3198.18Z" transform="translate(135.006 -1916.866)"/>
    <path id="Trazado_657731" data-name="Trazado 657731" d="M988.343,3135.748a1.659,1.659,0,0,1-1.074-2.924l15.3-12.976-15.3-12.975a1.659,1.659,0,1,1,2.146-2.531l18.286,15.506-18.286,15.507A1.655,1.655,0,0,1,988.343,3135.748Z" transform="translate(135.006 -1916.866)"/>
    <path id="Rectángulo_34831" data-name="Rectángulo 34831" d="M0,0H105V110H0Z" transform="translate(907.519 1127.279)" fill="none"/>
    <g id="flat_copy" transform="translate(895.359 1105.644)">
      <path id="Trazado_657773" data-name="Trazado 657773" d="M117.521,114.868H31.555a4.067,4.067,0,0,1-4.055-4.055V47.555A4.067,4.067,0,0,1,31.555,43.5h85.966a4.067,4.067,0,0,1,4.055,4.055v63.258A4.067,4.067,0,0,1,117.521,114.868Z" transform="translate(-9.168 -9.168)" fill="#e0feec"/>
      <path id="Trazado_657774" data-name="Trazado 657774" d="M115.021,353.732H29.055A4.067,4.067,0,0,1,25,349.677V344h94.076v5.677A4.067,4.067,0,0,1,115.021,353.732Z" transform="translate(-7.175 -248.742)" fill="#2ff980"/>
      <path id="Trazado_657775" data-name="Trazado 657775" d="M235.72,408.476H219.5l4.866-12.976h6.488Z" transform="translate(-162.241 -289.801)" fill="#1c954d"/>
      <path id="Trazado_657776" data-name="Trazado 657776" d="M204.684,446.488H169v-1.7A4.781,4.781,0,0,1,173.785,440h26.134a4.781,4.781,0,0,1,4.785,4.785v1.7Z" transform="translate(-121.979 -325.278)" fill="#25c766"/>
      <path id="Trazado_657777" data-name="Trazado 657777" d="M95.539,135,79.4,162.554l32.359.02Z" transform="translate(-50.546 -82.117)" fill="#f4c540"/>
      <path id="Trazado_657778" data-name="Trazado 657778" d="M314.732,173.2A9.734,9.734,0,0,1,305,163.464v-9.732a9.732,9.732,0,1,1,19.464,0v9.732A9.734,9.734,0,0,1,314.732,173.2Z" transform="translate(-230.406 -89.292)" fill="#f75e5e"/>
      <g id="Grupo_957524" data-name="Grupo 957524" transform="translate(16 32)">
        <path id="Trazado_657779" data-name="Trazado 657779" d="M108.454,32H20.866A4.88,4.88,0,0,0,16,36.866v64.88a4.88,4.88,0,0,0,4.866,4.866H59.084L56.651,113.1H50.832a5.65,5.65,0,0,0-5.636,5.636v2.474a1.627,1.627,0,0,0,1.622,1.622H82.5a1.627,1.627,0,0,0,1.622-1.622v-2.474a5.65,5.65,0,0,0-5.636-5.636H72.668l-2.433-6.488h38.218a4.88,4.88,0,0,0,4.866-4.866V36.866A4.88,4.88,0,0,0,108.454,32ZM78.487,116.344a2.4,2.4,0,0,1,2.392,2.392v.852H48.44v-.852a2.4,2.4,0,0,1,2.392-2.392ZM60.1,113.1l2.433-6.488h4.237L69.2,113.1Zm49.978-11.354a1.627,1.627,0,0,1-1.622,1.622H20.866a1.627,1.627,0,0,1-1.622-1.622V96.88h90.832Zm0-8.11H19.244V36.866a1.627,1.627,0,0,1,1.622-1.622h87.588a1.627,1.627,0,0,1,1.622,1.622Z" transform="translate(-16 -32)"/>
        <path id="Trazado_657780" data-name="Trazado 657780" d="M294.706,137.842a1.622,1.622,0,1,0,0-3.244h-6.488a12.963,12.963,0,0,0-.182-2.007l3.954-1.318a1.613,1.613,0,0,0,1.115-1.541v-3.244a1.622,1.622,0,0,0-3.244,0v2.068l-2.838.953a11.288,11.288,0,0,0-4.5-4.744l1.521-1.521h4.2a1.622,1.622,0,0,0,0-3.244h-4.866a1.642,1.642,0,0,0-1.156.466l-3.021,3.021a11.294,11.294,0,0,0-4.663,0l-3.021-3.021a1.607,1.607,0,0,0-1.156-.466H265.49a1.622,1.622,0,1,0,0,3.244h4.2l1.521,1.521a11.534,11.534,0,0,0-4.5,4.744l-2.839-.953v-2.068a1.622,1.622,0,1,0-3.244,0v3.244a1.632,1.632,0,0,0,1.115,1.541l3.954,1.318a10.868,10.868,0,0,0-.182,2.007h-6.488a1.622,1.622,0,0,0,0,3.244h6.488v3.244h-6.488a1.622,1.622,0,0,0,0,3.244h6.488a11.1,11.1,0,0,0,.243,2.332l-3.021,3.021a1.607,1.607,0,0,0-.466,1.156V155.7a1.622,1.622,0,1,0,3.244,0v-4.2l1.521-1.521a11.315,11.315,0,0,0,19.667,0l1.521,1.521v4.177a1.622,1.622,0,1,0,3.244,0v-4.866a1.642,1.642,0,0,0-.466-1.156l-3.021-3.021a11.1,11.1,0,0,0,.243-2.332h6.488a1.622,1.622,0,0,0,0-3.244h-6.488v-3.244h6.488Zm-19.464,14.436a8.132,8.132,0,0,1-6.488-7.948v-8.11h6.488Zm-6.326-19.3a8.112,8.112,0,0,1,15.9,0Zm16.058,11.354a8.132,8.132,0,0,1-6.488,7.948V136.22h6.488Z" transform="translate(-208.456 -102.158)"/>
        <path id="Trazado_657781" data-name="Trazado 657781" d="M91.17,128.791a1.634,1.634,0,0,0-1.4-.791,1.609,1.609,0,0,0-1.4.811L72.233,156.365a1.622,1.622,0,0,0,1.4,2.433l32.359.02a1.585,1.585,0,0,0,1.4-.811,1.651,1.651,0,0,0,0-1.622ZM76.45,155.554l13.3-22.728,13.381,22.748Z" transform="translate(-60.656 -108.536)"/>
        <path id="Trazado_657782" data-name="Trazado 657782" d="M152,177.622v6.488a1.622,1.622,0,0,0,3.244,0v-6.488a1.622,1.622,0,0,0-3.244,0Z" transform="translate(-124.426 -146.804)"/>
        <path id="Trazado_657783" data-name="Trazado 657783" d="M153.822,232a1.622,1.622,0,1,0,1.622,1.622A1.614,1.614,0,0,0,153.822,232Z" transform="translate(-124.586 -191.45)"/>
      </g>
    </g>
    <path id="Trazado_660072" data-name="Trazado 660072" d="M-32.317-4.526h-1.67V0h-3.085V-12.8h5.036a5.621,5.621,0,0,1,3.56,1.01,3.421,3.421,0,0,1,1.283,2.853,4.155,4.155,0,0,1-.541,2.213A3.837,3.837,0,0,1-29.426-5.3l2.672,5.167V0h-3.3ZM-33.987-6.9h1.951a1.751,1.751,0,0,0,1.323-.463,1.788,1.788,0,0,0,.444-1.291,1.809,1.809,0,0,0-.448-1.3,1.735,1.735,0,0,0-1.318-.471h-1.951ZM-20.865.176a4.889,4.889,0,0,1-3.542-1.305,4.507,4.507,0,0,1-1.354-3.4v-.246a5.84,5.84,0,0,1,.541-2.575,3.955,3.955,0,0,1,1.578-1.727,4.763,4.763,0,0,1,2.461-.611,4.117,4.117,0,0,1,3.164,1.244,4.887,4.887,0,0,1,1.16,3.467v1.151h-5.889a2.135,2.135,0,0,0,.694,1.257,2.066,2.066,0,0,0,1.389.457,2.662,2.662,0,0,0,2.2-.984l1.354,1.6A3.784,3.784,0,0,1-18.681-.277,5.3,5.3,0,0,1-20.865.176ZM-21.2-7.4q-1.3,0-1.547,1.723h2.988v-.229a1.467,1.467,0,0,0-.36-1.1A1.434,1.434,0,0,0-21.2-7.4ZM-6.838-4.685a5.735,5.735,0,0,1-1,3.538A3.2,3.2,0,0,1-10.529.176a2.742,2.742,0,0,1-2.153-.958V3.656h-2.962V-9.51h2.769l.088.879a2.742,2.742,0,0,1,2.241-1.055,3.224,3.224,0,0,1,2.733,1.3,5.805,5.805,0,0,1,.976,3.564ZM-9.8-4.869Q-9.8-7.4-11.276-7.4a1.394,1.394,0,0,0-1.406.756V-2.9a1.439,1.439,0,0,0,1.424.791q1.415,0,1.459-2.443Zm3.894.026a5.613,5.613,0,0,1,.554-2.536A3.96,3.96,0,0,1-3.762-9.088a4.791,4.791,0,0,1,2.435-.6A4.373,4.373,0,0,1,2.039-8.363a5.076,5.076,0,0,1,1.23,3.6v.105A4.925,4.925,0,0,1,2.035-1.129,4.384,4.384,0,0,1-1.31.176,4.434,4.434,0,0,1-4.57-1.042,4.761,4.761,0,0,1-5.9-4.342Zm2.962.185a3.538,3.538,0,0,0,.413,1.934,1.376,1.376,0,0,0,1.222.615q1.582,0,1.617-2.435v-.3Q.308-7.4-1.327-7.4q-1.485,0-1.608,2.206ZM10.327-6.829,9.352-6.9a1.752,1.752,0,0,0-1.793.879V0H4.6V-9.51H7.374l.1,1.222a2.294,2.294,0,0,1,2.083-1.4,2.888,2.888,0,0,1,.826.105Zm4.957-5.045V-9.51h1.564v2.057H15.284V-3.1a1.111,1.111,0,0,0,.193.747,1.037,1.037,0,0,0,.765.211A4.345,4.345,0,0,0,16.98-2.2V-.079a5.466,5.466,0,0,1-1.67.255,3.1,3.1,0,0,1-2.259-.721,2.954,2.954,0,0,1-.729-2.188v-4.72H11.109V-9.51h1.213v-2.364ZM23.37,0a3.344,3.344,0,0,1-.281-.853A2.754,2.754,0,0,1,20.8.176a3.374,3.374,0,0,1-2.285-.813,2.588,2.588,0,0,1-.94-2.043,2.66,2.66,0,0,1,1.143-2.338,5.821,5.821,0,0,1,3.322-.791h.914v-.5q0-1.316-1.134-1.316a.927.927,0,0,0-1.055,1.042H17.807A2.655,2.655,0,0,1,18.98-8.825a4.931,4.931,0,0,1,2.993-.86,4.323,4.323,0,0,1,2.874.888,3.086,3.086,0,0,1,1.081,2.435v4.21a4.311,4.311,0,0,0,.4,2V0ZM21.516-1.934a1.652,1.652,0,0,0,.918-.237,1.487,1.487,0,0,0,.523-.536V-4.228H22.1q-1.547,0-1.547,1.389a.848.848,0,0,0,.272.655A.986.986,0,0,0,21.516-1.934Zm11.8-4.9-.976-.07a1.752,1.752,0,0,0-1.793.879V0H27.589V-9.51h2.777l.1,1.222a2.294,2.294,0,0,1,2.083-1.4,2.888,2.888,0,0,1,.826.105Zm-95.827,28.3L-61,15.49h3.12l-3.1,9.51h-3.023l-3.1-9.51h3.129Zm11.171,2.5a3.054,3.054,0,0,1-2.54,1.2,3,3,0,0,1-2.369-.91,3.826,3.826,0,0,1-.8-2.615V15.49h2.962v6.179A1.065,1.065,0,0,0-52.9,22.891a1.548,1.548,0,0,0,1.45-.729V15.49h2.979V25h-2.777ZM-43.726,25H-46.7V11.5h2.971Zm4.544-9.51.1,1.116a3.225,3.225,0,0,1,2.716-1.292,2.713,2.713,0,0,1,2.219.888,4.226,4.226,0,0,1,.76,2.672V25H-36.36V19a1.6,1.6,0,0,0-.29-1.059,1.342,1.342,0,0,0-1.055-.338A1.413,1.413,0,0,0-39,18.285V25h-2.962V15.49Zm12.032,9.686a4.889,4.889,0,0,1-3.542-1.305,4.507,4.507,0,0,1-1.354-3.4v-.246a5.84,5.84,0,0,1,.541-2.575,3.955,3.955,0,0,1,1.578-1.727,4.763,4.763,0,0,1,2.461-.611A4.117,4.117,0,0,1-24.3,16.558a4.887,4.887,0,0,1,1.16,3.467v1.151H-29.03a2.135,2.135,0,0,0,.694,1.257,2.066,2.066,0,0,0,1.389.457,2.662,2.662,0,0,0,2.2-.984l1.354,1.6a3.784,3.784,0,0,1-1.569,1.217A5.3,5.3,0,0,1-27.149,25.176Zm-.334-7.576q-1.3,0-1.547,1.723h2.988v-.229a1.467,1.467,0,0,0-.36-1.1A1.434,1.434,0,0,0-27.483,17.6Zm11.285.571-.976-.07a1.752,1.752,0,0,0-1.793.879V25h-2.962V15.49h2.777l.1,1.222a2.294,2.294,0,0,1,2.083-1.4,2.888,2.888,0,0,1,.826.105ZM-10.037,25a3.344,3.344,0,0,1-.281-.853A2.754,2.754,0,0,1-12.6,25.176a3.374,3.374,0,0,1-2.285-.813,2.588,2.588,0,0,1-.94-2.043,2.66,2.66,0,0,1,1.143-2.338,5.821,5.821,0,0,1,3.322-.791h.914v-.5q0-1.316-1.134-1.316a.927.927,0,0,0-1.055,1.042H-15.6a2.655,2.655,0,0,1,1.173-2.239,4.931,4.931,0,0,1,2.993-.86,4.323,4.323,0,0,1,2.874.888,3.086,3.086,0,0,1,1.081,2.435v4.21a4.311,4.311,0,0,0,.4,2V25Zm-1.854-1.934a1.652,1.652,0,0,0,.918-.237,1.487,1.487,0,0,0,.523-.536V20.772h-.861q-1.547,0-1.547,1.389a.848.848,0,0,0,.272.655A.986.986,0,0,0-11.892,23.066Zm14.88-2.742a5.8,5.8,0,0,1-.967,3.595A3.238,3.238,0,0,1-.7,25.176a2.81,2.81,0,0,1-2.338-1.151L-3.164,25H-5.818V11.5h2.962v4.755a2.711,2.711,0,0,1,2.136-.94,3.239,3.239,0,0,1,2.742,1.274,5.826,5.826,0,0,1,.967,3.586ZM.018,20.135a3.866,3.866,0,0,0-.365-1.952A1.229,1.229,0,0,0-1.468,17.6a1.418,1.418,0,0,0-1.389.763v3.773a1.426,1.426,0,0,0,1.406.755A1.258,1.258,0,0,0-.123,21.873,7.309,7.309,0,0,0,.018,20.135ZM7.418,25H4.447V15.49H7.418ZM4.271,13.038A1.322,1.322,0,0,1,4.729,12a1.724,1.724,0,0,1,1.187-.4A1.724,1.724,0,0,1,7.1,12a1.405,1.405,0,0,1,0,2.074,1.724,1.724,0,0,1-1.187.4,1.724,1.724,0,0,1-1.187-.4A1.322,1.322,0,0,1,4.271,13.038ZM12.366,25H9.4V11.5h2.971Zm4.948,0H14.344V15.49h2.971ZM14.168,13.038A1.322,1.322,0,0,1,14.625,12,1.943,1.943,0,0,1,17,12a1.405,1.405,0,0,1,0,2.074,1.943,1.943,0,0,1-2.373,0A1.322,1.322,0,0,1,14.168,13.038Zm4.6,7.137a5.809,5.809,0,0,1,.976-3.56,3.211,3.211,0,0,1,2.725-1.3,2.731,2.731,0,0,1,2.145,1V11.5H27.58V25H24.917l-.149-1.02a2.8,2.8,0,0,1-2.32,1.2,3.205,3.205,0,0,1-2.689-1.3A5.993,5.993,0,0,1,18.765,20.175Zm2.962.185q0,2.531,1.477,2.531a1.458,1.458,0,0,0,1.406-.826V18.443a1.419,1.419,0,0,0-1.389-.844q-1.371,0-1.485,2.215ZM34.62,25a3.344,3.344,0,0,1-.281-.853,2.754,2.754,0,0,1-2.285,1.028,3.374,3.374,0,0,1-2.285-.813,2.588,2.588,0,0,1-.94-2.043,2.66,2.66,0,0,1,1.143-2.338,5.821,5.821,0,0,1,3.322-.791h.914v-.5q0-1.316-1.134-1.316a.927.927,0,0,0-1.055,1.042H29.057a2.655,2.655,0,0,1,1.173-2.239,4.931,4.931,0,0,1,2.993-.86A4.323,4.323,0,0,1,36.1,16.2a3.086,3.086,0,0,1,1.081,2.435v4.21a4.311,4.311,0,0,0,.4,2V25Zm-1.854-1.934a1.652,1.652,0,0,0,.918-.237,1.487,1.487,0,0,0,.523-.536V20.772h-.861q-1.547,0-1.547,1.389a.848.848,0,0,0,.272.655A.986.986,0,0,0,32.766,23.066Zm5.678-2.892a5.809,5.809,0,0,1,.976-3.56,3.211,3.211,0,0,1,2.725-1.3,2.731,2.731,0,0,1,2.145,1V11.5h2.971V25H44.6l-.149-1.02a2.8,2.8,0,0,1-2.32,1.2,3.205,3.205,0,0,1-2.689-1.3A5.993,5.993,0,0,1,38.443,20.175Zm2.962.185q0,2.531,1.477,2.531a1.458,1.458,0,0,0,1.406-.826V18.443A1.419,1.419,0,0,0,42.9,17.6q-1.371,0-1.485,2.215Zm12.138,4.816A4.889,4.889,0,0,1,50,23.871a4.507,4.507,0,0,1-1.354-3.4v-.246a5.84,5.84,0,0,1,.541-2.575,3.955,3.955,0,0,1,1.578-1.727,4.763,4.763,0,0,1,2.461-.611,4.117,4.117,0,0,1,3.164,1.244,4.887,4.887,0,0,1,1.16,3.467v1.151H51.662a2.135,2.135,0,0,0,.694,1.257,2.066,2.066,0,0,0,1.389.457,2.662,2.662,0,0,0,2.2-.984l1.354,1.6a3.784,3.784,0,0,1-1.569,1.217A5.3,5.3,0,0,1,53.543,25.176ZM53.209,17.6q-1.3,0-1.547,1.723H54.65v-.229a1.467,1.467,0,0,0-.36-1.1A1.434,1.434,0,0,0,53.209,17.6Zm10.512,4.729a.684.684,0,0,0-.4-.606,6.016,6.016,0,0,0-1.5-.475,6.853,6.853,0,0,1-1.828-.646,3.062,3.062,0,0,1-1.1-.971,2.319,2.319,0,0,1-.378-1.31A2.628,2.628,0,0,1,59.6,16.163a4.453,4.453,0,0,1,2.83-.848,4.934,4.934,0,0,1,3.023.853,2.666,2.666,0,0,1,1.143,2.241H63.624q0-1.143-1.2-1.143a1.194,1.194,0,0,0-.782.259.8.8,0,0,0-.316.646.737.737,0,0,0,.387.642,3.654,3.654,0,0,0,1.235.4,10.671,10.671,0,0,1,1.49.378,2.706,2.706,0,0,1,2.145,2.646,2.491,2.491,0,0,1-1.156,2.118,5.068,5.068,0,0,1-2.993.817,5.172,5.172,0,0,1-2.18-.439,3.645,3.645,0,0,1-1.494-1.2,2.707,2.707,0,0,1-.536-1.591h2.769a1.145,1.145,0,0,0,.439.962,1.808,1.808,0,0,0,1.081.3,1.422,1.422,0,0,0,.91-.246A.787.787,0,0,0,63.721,22.328Z" transform="translate(964 1260.318)" fill="#12263f"/>
  </g>
</svg>
