<svg xmlns="http://www.w3.org/2000/svg" width="400" height="192" viewBox="0 0 400 192">
  <g id="Grupo_960537" data-name="Grupo 960537" transform="translate(-180 -1708)">
    <rect id="Rectángulo_45747" data-name="Rectángulo 45747" width="400" height="107" rx="10" transform="translate(180 1793)" fill="#e6e1fb"/>
    <g id="Grupo_960505" data-name="Grupo 960505" transform="translate(-703.89 -3062.619)">
      <path id="Trazado_659479" data-name="Trazado 659479" d="M984.508,4826l6.536,5.378,4.5-5.471a15.951,15.951,0,0,0,3.355.82l1.47,7.285,8.237-1.507-1.395-6.917a15.359,15.359,0,0,0,2.7-1.5l5.286,4.35,5.281-6.417-5.286-4.351a15.334,15.334,0,0,0,.955-2.943l7.056.038-.107-8.374-7.431-.04a16.016,16.016,0,0,0-1.451-3.135l4.5-5.47-6.536-5.379-4.1,4.982a15.969,15.969,0,0,0-4.98-1.727l-1.374-6.817-8.238,1.508,1.24,6.148a15.345,15.345,0,0,0-3.225,1.717l-4.61-3.794-5.281,6.418,4.61,3.793a15.339,15.339,0,0,0-1.064,3.495l-6.272-.032.107,8.374,6.954.036a16,16,0,0,0,2.654,4.554Zm9.782-20.157a8.32,8.32,0,1,1,1.234,11.593A8.243,8.243,0,0,1,994.29,4805.839Z" transform="translate(2.411 1.599)" fill="#c4baf5"/>
      <path id="Trazado_659480" data-name="Trazado 659480" d="M987.619,4854.343l3.72,3.062,2.61-3.171a8.985,8.985,0,0,0,1.919.455l.805,4.184,4.729-.91-.764-3.973a8.89,8.89,0,0,0,1.558-.879l3.008,2.475,3.06-3.72-3.008-2.475a8.982,8.982,0,0,0,.563-1.7l4.045-.015-.017-4.818-4.26.017a9.056,9.056,0,0,0-.816-1.8l2.61-3.171-3.72-3.06-2.376,2.887a9,9,0,0,0-2.846-.967l-.753-3.916-4.73.911.679,3.531a8.979,8.979,0,0,0-1.857,1l-2.624-2.158-3.06,3.719,2.624,2.159a8.994,8.994,0,0,0-.629,2.017l-3.6.013.019,4.816,3.986-.014a8.986,8.986,0,0,0,1.5,2.605Zm5.713-11.646a4.734,4.734,0,1,1,.647,6.663A4.734,4.734,0,0,1,993.331,4842.7Z" transform="translate(2.903 5.473)" fill="#b8d0fc"/>
      <path id="Trazado_659481" data-name="Trazado 659481" d="M1031.459,4796.234l2.858,2.353,2.005-2.437a6.84,6.84,0,0,0,1.475.35l.619,3.215,3.635-.7-.587-3.053a6.912,6.912,0,0,0,1.2-.676l2.312,1.9,2.352-2.858-2.312-1.9a6.911,6.911,0,0,0,.433-1.3l3.108-.012-.014-3.7-3.273.012a6.922,6.922,0,0,0-.627-1.379l2.005-2.437-2.858-2.353-1.826,2.22a6.945,6.945,0,0,0-2.187-.745l-.579-3.008-3.635.7.521,2.713a6.942,6.942,0,0,0-1.427.771l-2.015-1.658-2.352,2.858,2.016,1.659a6.829,6.829,0,0,0-.483,1.55l-2.763.01.014,3.7,3.064-.01a6.906,6.906,0,0,0,1.151,2Zm4.39-8.949a3.638,3.638,0,1,1,.5,5.12A3.638,3.638,0,0,1,1035.849,4787.285Z" transform="translate(6.823 0.8)" fill="#fff"/>
      <g id="Grupo_960505-2" data-name="Grupo 960505" transform="translate(987.984 4820.847)">
        <path id="Rectángulo_45698" data-name="Rectángulo 45698" d="M2.276,0H169.722A2.275,2.275,0,0,1,172,2.275V125.627a2.276,2.276,0,0,1-2.276,2.276H2.276A2.276,2.276,0,0,1,0,125.627V2.276A2.276,2.276,0,0,1,2.276,0Z" transform="translate(16.986)" fill="#050521"/>
        <rect id="Rectángulo_45699" data-name="Rectángulo 45699" width="164.239" height="122.134" transform="translate(20.866 4.469)" fill="#fff"/>
        <rect id="Rectángulo_45700" data-name="Rectángulo 45700" width="205.971" height="8.188" transform="translate(0 122.933)" fill="#050521"/>
        <rect id="Rectángulo_45701" data-name="Rectángulo 45701" width="157.768" height="112.211" transform="translate(24.101 7.064)" fill="#e7eefd"/>
      </g>
      <path id="Trazado_659482" data-name="Trazado 659482" d="M1137.057,4834.281s-.5,3.537.757,5.305,3.874,4.295,3.2,4.969-8.168-3.116-8-3.958,1.347-4.294,1.094-6.315Z" transform="translate(15.965 5.599)" fill="#fb9391"/>
      <path id="Trazado_659483" data-name="Trazado 659483" d="M1133.469,4838.514c-.206.779-.394,1.411-.454,1.71-.169.842,7.326,4.631,8,3.958.5-.5-.807-2.019-2.031-3.491C1138.3,4841.124,1136.55,4841.584,1133.469,4838.514Z" transform="translate(15.965 5.971)" fill="#060633"/>
      <path id="Trazado_659484" data-name="Trazado 659484" d="M1130.258,4834.807s-.506,3.537.757,5.305,3.874,4.294,3.2,4.967-8.167-3.115-8-3.957,1.347-4.294,1.094-6.315Z" transform="translate(15.367 5.645)" fill="#fb9391"/>
      <path id="Trazado_659485" data-name="Trazado 659485" d="M1130.6,4778.3a6.138,6.138,0,0,1,2.1,5.84c-.349,1.736-1.467,3.379-1.187,5.127a14.971,14.971,0,0,0,.593,1.9,5.991,5.991,0,0,1,.009,3.376,3.452,3.452,0,0,1-1.267,1.93,4.455,4.455,0,0,1-1.5.567,10.35,10.35,0,0,1-3.453.345,4.552,4.552,0,0,1-3.051-1.5c-.5-.6-.841-1.417-1.574-1.693a2.714,2.714,0,0,0-.789-.131,11.222,11.222,0,0,0-3.1.083,19,19,0,0,1-3.205.827,3.509,3.509,0,0,1-1.723-6.631c1.115-.571,2.6-.6,3.328-1.612.615-.853.42-2.06.891-3,.817-1.633,3.127-1.738,4.529-2.909,1.358-1.134,1.98-2.826,3.711-3.55A6,6,0,0,1,1130.6,4778.3Z" transform="translate(13.99 0.555)" fill="#0b0755"/>
      <path id="Trazado_659486" data-name="Trazado 659486" d="M1113.659,4808.178s-1.772,8.613,1.051,9.827,12.314,3.349,12.882,5.086,0,15.908,0,15.908l4.516.134s1.412-16,1.281-17.557c-.3-3.571-1.292-4.463-1.292-4.463a6.794,6.794,0,0,1,2.664,4.407c.252,1.37.257,16.166.257,16.166l4.514.133s3.092-19.757-.36-22.473-12.911-6.652-12.911-6.652Z" transform="translate(14.215 3.303)" fill="#583ae2"/>
      <path id="Trazado_659487" data-name="Trazado 659487" d="M1130.173,4797.609l2.078,8.379-3.256.786a28.854,28.854,0,0,1-2.863-7.087C1125.4,4796.276,1130.173,4797.609,1130.173,4797.609Z" transform="translate(15.353 2.351)" fill="#fb9391"/>
      <path id="Trazado_659488" data-name="Trazado 659488" d="M1124.556,4789.608s3.621.843,5.221,2.948,2.61,6.653,2.61,6.653l-3.452,1.094s-.169,2.526-1.769,3.2a15.829,15.829,0,0,0,0,7.325s-8.5,2.526-13.724,0l-.421-11.452-3.2-1.347s1.684-7.325,5.641-8.421A14.935,14.935,0,0,1,1124.556,4789.608Z" transform="translate(13.926 1.608)" fill="#fff"/>
      <path id="Trazado_659489" data-name="Trazado 659489" d="M1110.613,4797.588l4.415,1.741s-1.051,3.6-.713,5.431c.537,2.913,4.568,5.863,6.547,5.737l-.09,1.747s-9.828-.622-10.923-6.136S1110.613,4797.588,1110.613,4797.588Z" transform="translate(13.898 2.372)" fill="#fb9391"/>
      <path id="Trazado_659490" data-name="Trazado 659490" d="M1127.48,4799.674h0a.059.059,0,0,1-.056-.062,6.139,6.139,0,0,0-1.042-2.786.056.056,0,0,1,.015-.08.058.058,0,0,1,.082.015,6.144,6.144,0,0,1,1.062,2.855A.058.058,0,0,1,1127.48,4799.674Z" transform="translate(15.381 2.297)" fill="#485f73"/>
      <path id="Trazado_659491" data-name="Trazado 659491" d="M1119.763,4800.845a4.811,4.811,0,0,1-3.165-1.3.056.056,0,0,1-.007-.082.057.057,0,0,1,.083-.006c2.835,2.425,5.249.633,5.273.614a.058.058,0,0,1,.071.093A4.029,4.029,0,0,1,1119.763,4800.845Z" transform="translate(14.52 2.535)" fill="#485f73"/>
      <path id="Trazado_659492" data-name="Trazado 659492" d="M1115.171,4799.79l-.021,0-.585-.21a.058.058,0,1,1,.04-.109l.528.189,1.292-4.194a.058.058,0,0,1,.073-.038.058.058,0,0,1,.038.073l-1.309,4.253a.058.058,0,0,1-.029.035A.058.058,0,0,1,1115.171,4799.79Z" transform="translate(14.34 2.181)" fill="#485f73"/>
      <path id="Trazado_659493" data-name="Trazado 659493" d="M1128.744,4785.134s.543-.394.737-.077c.494.806-.533,1.241-1.057,1.221Z" transform="translate(15.562 1.259)" fill="#ea6868"/>
      <path id="Trazado_659494" data-name="Trazado 659494" d="M1127.383,4777.772a4.558,4.558,0,0,0-5.868,4.633,19.661,19.661,0,0,0,.339,4.186,4.539,4.539,0,0,1-.4,3.3l-.221.4a.922.922,0,0,0,.207,1.142,3.3,3.3,0,0,0,2.42.965.892.892,0,0,0,.765-.578l.775-2.053h0c2.8.691,4.315-4.4,4.866-5.861h0c.023-.053.045-.107.066-.163A4.56,4.56,0,0,0,1127.383,4777.772Z" transform="translate(14.92 0.612)" fill="#fb9391"/>
      <path id="Trazado_659495" data-name="Trazado 659495" d="M1125.471,4782.03a19.345,19.345,0,0,0-2.077,1.177,4.925,4.925,0,0,0-1.864,1.665,5.869,5.869,0,0,1-.718-2.664,4.249,4.249,0,0,1,.033-1.287,4.762,4.762,0,0,1,.833-1.616,4.973,4.973,0,0,1,1.617-1.69,3.806,3.806,0,0,1,1.506-.376,6.416,6.416,0,0,1,3.532.693,4.618,4.618,0,0,1,2.264,2.738,8.064,8.064,0,0,1-.559,4.594,4.616,4.616,0,0,0-.335-1.959,3.9,3.9,0,0,0-.536-1.181,19.206,19.206,0,0,1-1.41-1.659A5.4,5.4,0,0,1,1125.471,4782.03Z" transform="translate(14.889 0.581)" fill="#0b0755"/>
      <path id="Trazado_659496" data-name="Trazado 659496" d="M1122.406,4783.632a.674.674,0,0,0-.219-.427,1.143,1.143,0,0,0-1.212-.333c-.721.326-.19,2.113,1.112,1.816C1122.087,4784.689,1122.5,4784.5,1122.406,4783.632Z" transform="translate(14.878 1.071)" fill="#fb9391"/>
      <path id="Trazado_659497" data-name="Trazado 659497" d="M1128.288,4785.32a.4.4,0,1,0-.533.182A.4.4,0,0,0,1128.288,4785.32Z" transform="translate(15.483 1.243)" fill="#050521"/>
      <path id="Trazado_659498" data-name="Trazado 659498" d="M1124.952,4784.256a.4.4,0,1,0-.532.181A.4.4,0,0,0,1124.952,4784.256Z" transform="translate(15.19 1.149)" fill="#050521"/>
      <path id="Trazado_659499" data-name="Trazado 659499" d="M1126.544,4787.151s-.248-.338-.458-.346a.586.586,0,0,0-.391.193.461.461,0,0,0-.277-.348,5.66,5.66,0,0,0-.953-.105s.295,1.2,1.054,1.244a1,1,0,0,0,1-.607Z" transform="translate(15.214 1.401)" fill="#dd4e4e"/>
      <path id="Trazado_659500" data-name="Trazado 659500" d="M1125.77,4787.37a2.352,2.352,0,0,1-1.469-.938.056.056,0,0,1,.092-.064c.039.057.973,1.371,2.185.718a.058.058,0,0,1,.076.023.057.057,0,0,1-.023.077A1.484,1.484,0,0,1,1125.77,4787.37Z" transform="translate(15.198 1.382)" fill="#050521"/>
      <path id="Trazado_659501" data-name="Trazado 659501" d="M1123.959,4783.465a.162.162,0,0,1-.093-.106.164.164,0,0,1,.112-.2,1.993,1.993,0,0,1,1.32.147.166.166,0,0,1,.075.222.169.169,0,0,1-.221.075,1.651,1.651,0,0,0-1.081-.126A.162.162,0,0,1,1123.959,4783.465Z" transform="translate(15.16 1.098)" fill="#0b0755"/>
      <path id="Trazado_659502" data-name="Trazado 659502" d="M1127.561,4784.385a.166.166,0,0,1,.076-.3,1.969,1.969,0,0,1,1.271.382.165.165,0,1,1-.2.266,1.635,1.635,0,0,0-1.041-.317A.165.165,0,0,1,1127.561,4784.385Z" transform="translate(15.479 1.184)" fill="#0b0755"/>
      <path id="Trazado_659503" data-name="Trazado 659503" d="M1125.944,4786.032a.993.993,0,0,1-.391-.09.058.058,0,1,1,.047-.107c.519.225.739-.084.788-.168a2.23,2.23,0,0,1,.111-1.448.058.058,0,1,1,.106.048,2.146,2.146,0,0,0-.1,1.388.063.063,0,0,1,0,.042A.633.633,0,0,1,1125.944,4786.032Z" transform="translate(15.306 1.193)" fill="#ea6868"/>
      <path id="Trazado_659504" data-name="Trazado 659504" d="M1119.861,4811.233a2.15,2.15,0,0,0,.963.3c.54.024,2.136-.122,2.395-.084a12.5,12.5,0,0,0,1.789.473c.248-.059-1.226-.947-1.226-.947s1.364.582,1.538.371-1.233-.963-1.233-.963,1.385.422,1.479.188-1.243-.657-1.243-.657,1.267.188,1.337,0a4.779,4.779,0,0,0-2.535-.822c-.775.048-3.172.4-3.172.4Z" transform="translate(14.809 3.383)" fill="#fb9391"/>
      <path id="Trazado_659505" data-name="Trazado 659505" d="M1126.67,4839.039c-.206.78-.394,1.411-.454,1.711-.169.842,7.325,4.632,8,3.957.5-.5-.806-2.018-2.03-3.49C1131.5,4841.65,1129.75,4842.11,1126.67,4839.039Z" transform="translate(15.367 6.017)" fill="#060633"/>
      <g id="Grupo_960506" data-name="Grupo 960506" transform="translate(1131.156 4805.956)">
        <path id="Trazado_659506" data-name="Trazado 659506" d="M1143.547,4804.408,1128.7,4803.1l-5.613,10.452,14.846,1.308Z" transform="translate(-1116.064 -4803.099)" fill="#060633"/>
        <rect id="Rectángulo_45702" data-name="Rectángulo 45702" width="9.978" height="0.66" transform="translate(0.058 9.176) rotate(5.037)" fill="#060633"/>
      </g>
      <g id="Grupo_960507" data-name="Grupo 960507" transform="translate(1136.895 4783.788)">
        <path id="Trazado_659507" data-name="Trazado 659507" d="M1123.951,4785.263a1.341,1.341,0,1,1,1.9-.871h0a1.339,1.339,0,0,1-1.628.973A1.405,1.405,0,0,1,1123.951,4785.263Zm1.166-2.324a1.31,1.31,0,0,0-.256-.095,1.258,1.258,0,0,0-1.388,1.866,1.258,1.258,0,0,0,2.3-.337h0A1.262,1.262,0,0,0,1125.117,4782.938Z" transform="translate(-1121.791 -4782.724)" fill="#060633"/>
        <path id="Trazado_659508" data-name="Trazado 659508" d="M1127.4,4786.3a1.34,1.34,0,1,1,1.9-.869h0a1.339,1.339,0,0,1-1.9.869Zm1.167-2.323a1.259,1.259,0,1,0-.873,2.345,1.258,1.258,0,0,0,1.528-.913h0a1.262,1.262,0,0,0-.655-1.433Z" transform="translate(-1121.488 -4782.633)" fill="#060633"/>
        <path id="Trazado_659509" data-name="Trazado 659509" d="M1121.906,4783.053l.029-.077,1.522.573-.029.077Z" transform="translate(-1121.906 -4782.702)" fill="#060633"/>
        <path id="Trazado_659510" data-name="Trazado 659510" d="M1125.566,4784.445l-.021-.08a1.18,1.18,0,0,1,1.326.381l-.068.045A1.084,1.084,0,0,0,1125.566,4784.445Z" transform="translate(-1121.586 -4782.584)" fill="#060633"/>
      </g>
      <path id="Trazado_659511" data-name="Trazado 659511" d="M1132.767,4808.426a.484.484,0,1,1,.326.649A.513.513,0,0,1,1132.767,4808.426Z" transform="translate(15.942 3.288)" fill="#fff"/>
      <g id="Grupo_960514" data-name="Grupo 960514" transform="translate(1017.527 4809.599)">
        <rect id="Rectángulo_45703" data-name="Rectángulo 45703" width="96.074" height="123.859" fill="#fff"/>
        <rect id="Rectángulo_45704" data-name="Rectángulo 45704" width="96.074" height="9.088" fill="#583ae2"/>
        <g id="Grupo_960508" data-name="Grupo 960508" transform="translate(3.885 3.402)">
          <path id="Trazado_659512" data-name="Trazado 659512" d="M1015.759,4810.662a1.086,1.086,0,1,1,1.087,1.087A1.087,1.087,0,0,1,1015.759,4810.662Z" transform="translate(-1015.759 -4809.575)" fill="#dde7fe"/>
          <path id="Trazado_659513" data-name="Trazado 659513" d="M1019.951,4810.662a1.086,1.086,0,1,1,1.086,1.087A1.087,1.087,0,0,1,1019.951,4810.662Z" transform="translate(-1015.39 -4809.575)" fill="#dde7fe"/>
          <path id="Trazado_659514" data-name="Trazado 659514" d="M1024.142,4810.662a1.087,1.087,0,1,1,1.087,1.087A1.087,1.087,0,0,1,1024.142,4810.662Z" transform="translate(-1015.022 -4809.575)" fill="#dde7fe"/>
        </g>
        <g id="Grupo_960510" data-name="Grupo 960510" transform="translate(7.614 16.298)">
          <rect id="Rectángulo_45705" data-name="Rectángulo 45705" width="27.234" height="27.234" fill="#dde7fe"/>
          <g id="Grupo_960509" data-name="Grupo 960509" transform="translate(2.045 5.456)">
            <path id="Trazado_659515" data-name="Trazado 659515" d="M1021.066,4844.774l8.044-14.5,5.915,8.068,2.954-3.228,6.259,9.663Z" transform="translate(-1021.066 -4826.107)" fill="#bdd1f9"/>
            <path id="Trazado_659516" data-name="Trazado 659516" d="M1031.984,4828.526a2.082,2.082,0,1,1,2.081,2.081A2.081,2.081,0,0,1,1031.984,4828.526Z" transform="translate(-1020.106 -4826.444)" fill="#bdd1f9"/>
          </g>
        </g>
        <rect id="Rectángulo_45706" data-name="Rectángulo 45706" width="19.342" height="2.918" transform="translate(68.399 16.27)" fill="#583ae2"/>
        <rect id="Rectángulo_45707" data-name="Rectángulo 45707" width="23.721" height="2.918" transform="translate(41.224 16.27)" fill="#583ae2"/>
        <g id="Grupo_960511" data-name="Grupo 960511" transform="translate(41.224 24.918)">
          <rect id="Rectángulo_45708" data-name="Rectángulo 45708" width="27.647" height="1.334" fill="#bdd1f9"/>
          <rect id="Rectángulo_45709" data-name="Rectángulo 45709" width="8.28" height="1.334" transform="translate(29.37)" fill="#bdd1f9"/>
          <rect id="Rectángulo_45710" data-name="Rectángulo 45710" width="11.262" height="1.334" transform="translate(0 4.137)" fill="#bdd1f9"/>
          <rect id="Rectángulo_45711" data-name="Rectángulo 45711" width="14.938" height="1.334" transform="translate(12.405 4.137)" fill="#bdd1f9"/>
          <rect id="Rectángulo_45712" data-name="Rectángulo 45712" width="8.28" height="1.334" transform="translate(29.37 4.137)" fill="#bdd1f9"/>
          <rect id="Rectángulo_45713" data-name="Rectángulo 45713" width="14.805" height="1.334" transform="translate(0 7.715)" fill="#bdd1f9"/>
          <rect id="Rectángulo_45714" data-name="Rectángulo 45714" width="23.367" height="1.334" transform="translate(17.163 7.715)" fill="#bdd1f9"/>
        </g>
        <g id="Grupo_960512" data-name="Grupo 960512" transform="translate(41.224 38.061)">
          <rect id="Rectángulo_45715" data-name="Rectángulo 45715" width="27.647" height="1.334" fill="#bdd1f9"/>
          <rect id="Rectángulo_45716" data-name="Rectángulo 45716" width="8.28" height="1.334" transform="translate(29.37)" fill="#bdd1f9"/>
          <rect id="Rectángulo_45717" data-name="Rectángulo 45717" width="11.262" height="1.334" transform="translate(0 4.137)" fill="#bdd1f9"/>
          <rect id="Rectángulo_45718" data-name="Rectángulo 45718" width="14.938" height="1.334" transform="translate(12.405 4.137)" fill="#bdd1f9"/>
        </g>
        <g id="Grupo_960513" data-name="Grupo 960513" transform="translate(7.393 58.689)">
          <rect id="Rectángulo_45719" data-name="Rectángulo 45719" width="46.153" height="1.759" fill="#bdd1f9"/>
          <rect id="Rectángulo_45720" data-name="Rectángulo 45720" width="13.823" height="1.759" transform="translate(49.03)" fill="#bdd1f9"/>
          <rect id="Rectángulo_45721" data-name="Rectángulo 45721" width="18.801" height="1.759" transform="translate(0 5.457)" fill="#bdd1f9"/>
          <rect id="Rectángulo_45722" data-name="Rectángulo 45722" width="24.938" height="1.759" transform="translate(20.708 5.457)" fill="#bdd1f9"/>
          <rect id="Rectángulo_45723" data-name="Rectángulo 45723" width="13.823" height="1.759" transform="translate(49.03 5.457)" fill="#bdd1f9"/>
          <rect id="Rectángulo_45724" data-name="Rectángulo 45724" width="24.716" height="1.759" transform="translate(0 10.175)" fill="#bdd1f9"/>
          <rect id="Rectángulo_45725" data-name="Rectángulo 45725" width="39.008" height="1.759" transform="translate(28.653 10.175)" fill="#bdd1f9"/>
        </g>
        <rect id="Rectángulo_45726" data-name="Rectángulo 45726" width="70.359" height="40.782" transform="translate(8.514 75.514)" fill="#dde7fe"/>
        <rect id="Rectángulo_45727" data-name="Rectángulo 45727" width="28.439" height="2.431" transform="translate(7.606 51.275)" fill="#7c9af2"/>
        <rect id="Rectángulo_45728" data-name="Rectángulo 45728" width="22.361" height="2.431" transform="translate(39.408 51.275)" fill="#7c9af2"/>
      </g>
      <g id="Grupo_960515" data-name="Grupo 960515" transform="translate(1127.836 4853.803)">
        <rect id="Rectángulo_45729" data-name="Rectángulo 45729" width="34.914" height="1.561" fill="#bdd1f9"/>
        <rect id="Rectángulo_45730" data-name="Rectángulo 45730" width="15.198" height="1.561" transform="translate(0 5.183)" fill="#bdd1f9"/>
        <rect id="Rectángulo_45731" data-name="Rectángulo 45731" width="17.457" height="1.561" transform="translate(17.457 5.183)" fill="#bdd1f9"/>
        <rect id="Rectángulo_45732" data-name="Rectángulo 45732" width="21.053" height="1.561" transform="translate(0 9.856)" fill="#bdd1f9"/>
        <rect id="Rectángulo_45733" data-name="Rectángulo 45733" width="11.397" height="1.561" transform="translate(23.517 9.856)" fill="#bdd1f9"/>
        <rect id="Rectángulo_45734" data-name="Rectángulo 45734" width="15.99" height="1.561" transform="translate(0 15.011)" fill="#bdd1f9"/>
        <rect id="Rectángulo_45735" data-name="Rectángulo 45735" width="14.842" height="1.561" transform="translate(20.072 15.011)" fill="#bdd1f9"/>
      </g>
      <rect id="Rectángulo_45736" data-name="Rectángulo 45736" width="35.179" height="20.391" transform="translate(1127.165 4874.603)" fill="#dde7fe"/>
      <path id="Trazado_659517" data-name="Trazado 659517" d="M1125.482,4870.767v10.448l7.94-5.224Z" transform="translate(15.303 8.808)" fill="#bdd1f9"/>
      <g id="Grupo_960516" data-name="Grupo 960516" transform="translate(1118.346 4911.712)">
        <rect id="Rectángulo_45737" data-name="Rectángulo 45737" width="46.542" height="1.561" fill="#bdd1f9"/>
        <rect id="Rectángulo_45738" data-name="Rectángulo 45738" width="20.26" height="1.561" transform="translate(0 5.183)" fill="#bdd1f9"/>
        <rect id="Rectángulo_45739" data-name="Rectángulo 45739" width="23.271" height="1.561" transform="translate(23.271 5.183)" fill="#bdd1f9"/>
        <rect id="Rectángulo_45740" data-name="Rectángulo 45740" width="28.065" height="1.561" transform="translate(0 9.856)" fill="#bdd1f9"/>
        <rect id="Rectángulo_45741" data-name="Rectángulo 45741" width="15.193" height="1.561" transform="translate(31.349 9.856)" fill="#bdd1f9"/>
        <rect id="Rectángulo_45742" data-name="Rectángulo 45742" width="21.315" height="1.561" transform="translate(0 15.011)" fill="#bdd1f9"/>
        <rect id="Rectángulo_45743" data-name="Rectángulo 45743" width="19.785" height="1.561" transform="translate(26.757 15.011)" fill="#bdd1f9"/>
      </g>
      <g id="Grupo_960520" data-name="Grupo 960520" transform="translate(951.48 4863.765)">
        <g id="Grupo_960517" data-name="Grupo 960517" transform="translate(0 47.227)">
          <path id="Trazado_659518" data-name="Trazado 659518" d="M986.181,4937.823s.147,5.254.19,5.328-.351.75-.351.75l-1.644.368-1.542-.632s-.074-4.888-.264-5.652,3.611-.161,3.611-.161Z" transform="translate(-948.746 -4896.306)" fill="#fb9391"/>
          <path id="Trazado_659519" data-name="Trazado 659519" d="M982.825,4943.194a4.313,4.313,0,0,0,3.523-.587s6.459,2.114,6.342,3.935c0,0,.294.528-2.466.528s-7.047.059-7.164,0-.644.255-.234-3.875Z" transform="translate(-948.736 -4895.866)" fill="#1c954d"/>
          <path id="Trazado_659520" data-name="Trazado 659520" d="M960.035,4933.67s-3.308,4.085-3.323,4.17-.755.34-.755.34l-1.488-.791-.759-1.483s3.127-3.76,3.479-4.464,2.846,2.228,2.846,2.228Z" transform="translate(-951.283 -4896.857)" fill="#fb9391"/>
          <path id="Trazado_659521" data-name="Trazado 659521" d="M953.906,4935.536a4.308,4.308,0,0,0,3.057,1.846s3.528,5.811,2.254,7.115c0,0-.121.593-2.216-1.2s-5.389-4.542-5.439-4.663-.655-.227,2.343-3.1Z" transform="translate(-951.48 -4896.487)" fill="#1c954d"/>
          <path id="Trazado_659522" data-name="Trazado 659522" d="M987.563,4901.875s4.345,15.855,4.58,18.909-1.644,21.139-1.644,21.139a17.692,17.692,0,0,1-2.936.821,13.939,13.939,0,0,1-3.311,0s-1.151-17.849-1.387-19.612-3.288-11.742-4.579-12.213-3.759,11.743-6.87,16.324-11.1,11.509-11.1,11.509-4.815-3.405-4.815-4.345,4.668-3.654,7.678-12.045,2.3-19.9,2.3-19.9l16.207-2.818,5.872,2.23Z" transform="translate(-951.126 -4899.645)" fill="#583ae2"/>
          <path id="Trazado_659523" data-name="Trazado 659523" d="M965.387,4910.2a3.685,3.685,0,0,1-.815-.08.155.155,0,0,1,.081-.3c.193.05,4.756,1.167,7.06-6.33a.153.153,0,0,1,.194-.1.156.156,0,0,1,.1.194c-1.808,5.884-5.1,6.617-6.622,6.617Z" transform="translate(-950.338 -4899.315)" fill="#060633"/>
          <path id="Trazado_659524" data-name="Trazado 659524" d="M986.948,4908.416a.121.121,0,0,1-.037,0,6.292,6.292,0,0,1-4.349-5.937.154.154,0,0,1,.145-.164.15.15,0,0,1,.163.144,5.892,5.892,0,0,0,4.116,5.658.152.152,0,0,1,.111.186.154.154,0,0,1-.149.118Z" transform="translate(-948.746 -4899.41)" fill="#060633"/>
        </g>
        <g id="Grupo_960518" data-name="Grupo 960518" transform="translate(6.152 14.782)">
          <path id="Trazado_659525" data-name="Trazado 659525" d="M996.792,4894.032a24.684,24.684,0,0,1,3.218.825c.827.36,1.9.094,1.859.616s-1.77.515-1.77.515,1.164,1.418,1.589,1.8,1.007,1.257.754,1.589-2.165-1.643-2.165-1.643,1.445,1.821,1.275,2.176-2.348-1.689-2.348-1.689a15.222,15.222,0,0,1,1.635,2.125c0,.258-.33.269-1.068-.252a8.5,8.5,0,0,1-1.361-1.241,19.33,19.33,0,0,1,1.117,1.609c.069.212.008.553-1.006-.334a13.9,13.9,0,0,1-3.37-4.678l1.641-1.416Z" transform="translate(-953.791 -4867.692)" fill="#fb9391"/>
          <path id="Trazado_659526" data-name="Trazado 659526" d="M977.312,4869.822s3.032,1.354,4.266,1.266,4.667,1.145,9.158,9.249a81.91,81.91,0,0,0,11.01,14.885l-2.994,3.875s-8.367-3-12.242-8.016c0,0,1.32,11.871,2.641,15.4a69.006,69.006,0,0,1-7.047,2.3c-3.7.969-13.124,0-13.124,0l-1.146-2.3-1.453,2.214-3.346-.749v-11.318s-9.2-4.053-4.624-13.389,11.678-13.42,18.9-13.42Z" transform="translate(-957.134 -4869.822)" fill="#2ff980"/>
          <path id="Trazado_659527" data-name="Trazado 659527" d="M984.51,4880.7l-4.1-.8a.114.114,0,0,0-.132.088l-1.7,8.729a.112.112,0,0,0,.088.132l4.1.8a.112.112,0,0,0,.132-.088l1.7-8.729a.113.113,0,0,0-.089-.13Z" transform="translate(-955.249 -4868.936)" fill="#050521"/>
          <path id="Trazado_659528" data-name="Trazado 659528" d="M976.007,4885.757a24.544,24.544,0,0,1,2.351-2.349c.731-.528,1.047-1.582,1.477-1.287s-.46,1.786-.46,1.786,1.815-.279,2.359-.449,1.595-.228,1.752.16-2.516,1.024-2.516,1.024,2.3-.314,2.522.013-2.65,1.159-2.65,1.159a15.214,15.214,0,0,1,2.662-.325c.222.132.063.421-.76.793a8.638,8.638,0,0,1-1.764.537s1.739-.192,1.955-.143.479.276-.8.7a13.894,13.894,0,0,1-5.742.515l-.384-2.132Z" transform="translate(-955.474 -4868.745)" fill="#fb9391"/>
          <path id="Trazado_659529" data-name="Trazado 659529" d="M964.564,4895.6a9.391,9.391,0,0,1-2.013-.185l.019-.074a12.009,12.009,0,0,0,4.962-.154c2.652-.6,6.555-2.314,10.092-7.09l-.52-2.622c-.461-.124-7.628-2-14.054-1.068l-.01-.076c6.626-.958,14.033,1.056,14.109,1.077l.022.006.005.023.532,2.68-.011.014c-3.556,4.807-7.484,6.532-10.152,7.133a13.562,13.562,0,0,1-2.981.337Z" transform="translate(-956.658 -4868.569)" fill="#060633"/>
          <path id="Trazado_659530" data-name="Trazado 659530" d="M967.335,4884.688l-.073-.026a49.561,49.561,0,0,1,3.084-7.056l.069.038a49.277,49.277,0,0,0-3.08,7.044Z" transform="translate(-956.244 -4869.137)" fill="#060633"/>
        </g>
        <g id="Grupo_960519" data-name="Grupo 960519" transform="translate(24.999)">
          <path id="Trazado_659531" data-name="Trazado 659531" d="M983.32,4864.118s.479-.523.749-.238c.683.728-.219,1.386-.766,1.477l.017-1.239Z" transform="translate(-973.68 -4855.569)" fill="#ea6868"/>
          <path id="Trazado_659532" data-name="Trazado 659532" d="M984.563,4862.6l-.005,0c.011-.062.024-.123.033-.186a4.821,4.821,0,1,0-9.416.511c.266,1.184.5,2.2.792,3.054a6.893,6.893,0,0,1-.02,4.372l-.373,1.115c2.682,2.017,4.244.777,4.244.777l.383-2.094a.538.538,0,0,1,.579-.436h0c3.666.333,3.522-5.48,3.78-7.117Z" transform="translate(-974.41 -4856.181)" fill="#fb9391"/>
          <path id="Trazado_659533" data-name="Trazado 659533" d="M982.721,4863.614a.35.35,0,1,0-.4.293.35.35,0,0,0,.4-.293Z" transform="translate(-973.792 -4855.622)" fill="#060633"/>
          <path id="Trazado_659534" data-name="Trazado 659534" d="M978.775,4863.811a.35.35,0,1,0-.4.291.349.349,0,0,0,.4-.291Z" transform="translate(-974.139 -4855.604)" fill="#060633"/>
          <path id="Trazado_659535" data-name="Trazado 659535" d="M977.576,4862.934a.262.262,0,0,1-.161-.427,1.41,1.41,0,0,1,1.968-.148.263.263,0,1,1-.3.428.891.891,0,0,0-1.26.056.257.257,0,0,1-.243.091Z" transform="translate(-974.203 -4855.725)" fill="#060633"/>
          <path id="Trazado_659536" data-name="Trazado 659536" d="M981.5,4862.9a.271.271,0,0,1-.127-.058.262.262,0,0,1-.034-.37,1.408,1.408,0,0,1,1.968-.148.263.263,0,0,1-.3.428.889.889,0,0,0-1.26.057.262.262,0,0,1-.243.091Z" transform="translate(-973.858 -4855.728)" fill="#060633"/>
          <path id="Trazado_659537" data-name="Trazado 659537" d="M981.168,4866.833a2.4,2.4,0,0,1-1.909-.448.079.079,0,0,1,.1-.126c.057.045,1.381,1.057,2.376.043a.078.078,0,0,1,.11,0,.075.075,0,0,1,0,.108,1.578,1.578,0,0,1-.673.424Z" transform="translate(-974.038 -4855.355)" fill="#060633"/>
          <path id="Trazado_659538" data-name="Trazado 659538" d="M975.148,4857.647a3.215,3.215,0,0,1,.51-.712,2.879,2.879,0,0,1,1.99-.7c.719-.014,1.437.105,2.156.085a7.732,7.732,0,0,1,2.178,0,1.049,1.049,0,0,1,.431.2,2.828,2.828,0,0,1,.308.381,2.8,2.8,0,0,0,1.842.765l1.168.171a1.641,1.641,0,0,1,.93.343,1.825,1.825,0,0,1,.39,1.04,1.275,1.275,0,0,0,.52.958c.112.061.255.1.309.216a.342.342,0,0,1,.019.184,1.083,1.083,0,0,1-1.112.936,2.012,2.012,0,0,0-.4-.026c-.478.063-.622.709-1.03.968a1.052,1.052,0,0,1-.858.065,6.742,6.742,0,0,1-.812-.365,3.91,3.91,0,0,0-1.012-.312,1.51,1.51,0,0,0-.745.022c-.124.042-.238.11-.362.152a1.537,1.537,0,0,1-1.3-.269c-.383-.25-.715-.58-1.116-.8a1.331,1.331,0,0,0-1.309-.071,5.088,5.088,0,0,0-.571.544,2.732,2.732,0,0,1-1.989.392.716.716,0,0,1-.409-.11.627.627,0,0,1-.167-.252,4.539,4.539,0,0,1,.439-3.808Z" transform="translate(-974.458 -4856.235)" fill="#342287"/>
          <path id="Trazado_659539" data-name="Trazado 659539" d="M974.636,4860.965l.769,3.349.894-.037,1.171-4.075-2.834.764Z" transform="translate(-974.442 -4855.886)" fill="#342287"/>
          <path id="Trazado_659540" data-name="Trazado 659540" d="M976.454,4863.926a.72.72,0,0,0-.318-.4,1.213,1.213,0,0,0-1.328-.083c-.677.494.258,2.229,1.542,1.641,0,0,.385-.28.1-1.162Z" transform="translate(-974.447 -4855.616)" fill="#fb9391"/>
          <path id="Trazado_659541" data-name="Trazado 659541" d="M980.848,4865.709a.891.891,0,0,1-.8-.151.078.078,0,1,1,.1-.118.734.734,0,0,0,.882.013c.077-.052.121-.1.13-.135s-.041-.131-.115-.24a2.289,2.289,0,0,1-.424-1.5.078.078,0,0,1,.157,0,2.129,2.129,0,0,0,.4,1.414c.09.134.162.239.139.357a.4.4,0,0,1-.2.234,1.026,1.026,0,0,1-.264.127Z" transform="translate(-973.969 -4855.596)" fill="#ea6868"/>
        </g>
      </g>
      <path id="Trazado_659542" data-name="Trazado 659542" d="M1133.966,4890.538l4.118-1.065-2.682-2-2.273-.475-1.1,1.316Z" transform="translate(15.878 10.235)" fill="#ff8b8d"/>
      <path id="Trazado_659543" data-name="Trazado 659543" d="M1150.1,4937.44s-1.019,5.966-1.059,6.04.372.712.372.712l1.61.289,1.47-.676s.849-4.81,1-5.558S1150.1,4937.44,1150.1,4937.44Z" transform="translate(17.375 14.671)" fill="#ff8b8d"/>
      <path id="Trazado_659544" data-name="Trazado 659544" d="M1152.979,4943.325a4.188,4.188,0,0,1-3.442-.426s-6.18,2.316-5.991,4.078c0,0-.263.524,2.414.412s6.839-.233,6.951-.294S1153.546,4947.315,1152.979,4943.325Z" transform="translate(16.891 15.152)" fill="#180c7a"/>
      <path id="Trazado_659545" data-name="Trazado 659545" d="M1166.883,4937.44s1.575,5.966,1.535,6.04.373.712.373.712l1.61.289,1.47-.676a45.112,45.112,0,0,1-.648-5.658C1171.377,4937.4,1166.883,4937.44,1166.883,4937.44Z" transform="translate(18.944 14.671)" fill="#ff8b8d"/>
      <path id="Trazado_659546" data-name="Trazado 659546" d="M1172.231,4943.325a4.189,4.189,0,0,1-3.442-.426s-6.181,2.316-5.991,4.078c0,0-.263.524,2.414.412s6.839-.233,6.951-.294S1172.8,4947.315,1172.231,4943.325Z" transform="translate(18.584 15.152)" fill="#180c7a"/>
      <path id="Trazado_659547" data-name="Trazado 659547" d="M1151.8,4903.246l-3.229,40.833h5.548s5.866-32.266,6.7-32.408,6.776,32.408,6.776,32.408h6.369l-3.255-41.89Z" transform="translate(17.334 11.571)" fill="#2ff980"/>
      <path id="Trazado_659548" data-name="Trazado 659548" d="M1164.087,4873.915s-6.867.239-9.649,2.352c-1.73,1.313-2.125,17.886-2.125,17.886l-1.039,12.36s11.133,3.772,20.19,0l.986-8.265s3.578-20.776.794-22A25.085,25.085,0,0,0,1164.087,4873.915Z" transform="translate(17.571 9.085)" fill="#2f3dbc"/>
      <g id="Grupo_960522" data-name="Grupo 960522" transform="translate(1176.046 4866.019)">
        <g id="Grupo_960521" data-name="Grupo 960521" transform="translate(0 2.237)">
          <path id="Trazado_659549" data-name="Trazado 659549" d="M1158.937,4866.551s-.333-.619-.659-.409c-.833.534-.126,1.383.376,1.6Z" transform="translate(-1157.893 -4859.859)" fill="#fa5d63"/>
          <path id="Trazado_659550" data-name="Trazado 659550" d="M1158.911,4864.888h0c0-.061.007-.123.012-.184a4.774,4.774,0,1,1,8.92,2.765c-.542,1.073-1.016,1.989-1.5,2.742a6.818,6.818,0,0,0-1.036,4.2l.06.874c-3.064,1.29-4.235.007-4.235.007l.137-2.1a.529.529,0,0,0-.449-.557h-.005C1157.218,4872.068,1158.762,4866.52,1158.911,4864.888Z" transform="translate(-1157.843 -4860.363)" fill="#ff8b8d"/>
          <path id="Trazado_659551" data-name="Trazado 659551" d="M1163.167,4867.259a.445.445,0,1,1,.4.483A.444.444,0,0,1,1163.167,4867.259Z" transform="translate(-1157.429 -4859.792)" fill="#060423"/>
          <path id="Trazado_659552" data-name="Trazado 659552" d="M1159.618,4866.206a.444.444,0,1,1,.4.483A.444.444,0,0,1,1159.618,4866.206Z" transform="translate(-1157.741 -4859.884)" fill="#060423"/>
          <path id="Trazado_659553" data-name="Trazado 659553" d="M1164.824,4866.814a.247.247,0,0,0,.136-.025.26.26,0,0,0,.122-.347,1.4,1.4,0,0,0-1.854-.617.261.261,0,0,0,.189.486.88.88,0,0,1,1.2.357A.26.26,0,0,0,1164.824,4866.814Z" transform="translate(-1157.438 -4859.895)" fill="#060423"/>
          <path id="Trazado_659554" data-name="Trazado 659554" d="M1161.068,4865.832a.247.247,0,0,0,.136-.025.26.26,0,0,0,.122-.347,1.4,1.4,0,0,0-1.854-.617.26.26,0,1,0,.189.484.882.882,0,0,1,1.2.359A.26.26,0,0,0,1161.068,4865.832Z" transform="translate(-1157.768 -4859.98)" fill="#060423"/>
          <path id="Trazado_659555" data-name="Trazado 659555" d="M1168.2,4865.6l-1.583,3.1-.849-.251-.141-4.2Z" transform="translate(-1157.212 -4860.022)" fill="#180c7a"/>
          <path id="Trazado_659556" data-name="Trazado 659556" d="M1165.665,4868.03a.705.705,0,0,1,.4-.3,1.194,1.194,0,0,1,1.294.239c.531.638-.785,2.079-1.876,1.2C1165.485,4869.171,1165.183,4868.809,1165.665,4868.03Z" transform="translate(-1157.233 -4859.723)" fill="#ff8b8d"/>
          <path id="Trazado_659557" data-name="Trazado 659557" d="M1160.971,4868.678a.887.887,0,0,0,.809.049.077.077,0,1,0-.07-.137.727.727,0,0,1-.849-.2c-.063-.069-.095-.124-.093-.16,0-.054.072-.116.168-.2a2.276,2.276,0,0,0,.771-1.342.078.078,0,0,0-.059-.092.077.077,0,0,0-.093.059,2.115,2.115,0,0,1-.723,1.261c-.12.106-.213.191-.219.309a.383.383,0,0,0,.133.272A1.033,1.033,0,0,0,1160.971,4868.678Z" transform="translate(-1157.653 -4859.816)" fill="#fa5d63"/>
          <path id="Trazado_659558" data-name="Trazado 659558" d="M1162.752,4869.447a6.609,6.609,0,0,1-2.921-.58s.158,1.414,1.2,1.621S1162.752,4869.447,1162.752,4869.447Z" transform="translate(-1157.722 -4859.615)" fill="#fff"/>
          <path id="Trazado_659559" data-name="Trazado 659559" d="M1159.825,4862.918s-.727.418-1.158,3.288c0,0,.061-3.238.451-3.559S1159.825,4862.918,1159.825,4862.918Z" transform="translate(-1157.824 -4860.17)" fill="#180c7a"/>
        </g>
        <path id="Trazado_659560" data-name="Trazado 659560" d="M1167.637,4860.151c-.95-1.064-2.7-.971-3.823-1.844a6.606,6.606,0,0,0,1.45,1.946l-5.022-1.456a11.041,11.041,0,0,0,1.693,1.412,21.378,21.378,0,0,1-3.921-.024.764.764,0,0,0,.046.685c.49,1.212,1.093,2.542,2.3,3.032a3.682,3.682,0,0,0,1.188.231c1.6.086,3.373-.307,4.7.6.615.42,1.376,1.875,2.251,1.665C1169.279,4866.208,1170.58,4863.449,1167.637,4860.151Z" transform="translate(-1157.888 -4858.307)" fill="#180c7a"/>
      </g>
      <path id="Trazado_659561" data-name="Trazado 659561" d="M1158.173,4875.028c-4.288.984-8.8,9.714-10.943,11.109-2.2,1.433-11.786,2.062-11.786,2.062l2.077,3.242s10.3,1.137,13.293.133a16.139,16.139,0,0,0,5.819-4.415A13.8,13.8,0,0,0,1158.173,4875.028Z" transform="translate(16.179 9.182)" fill="#2f3dbc"/>
      <rect id="Rectángulo_45744" data-name="Rectángulo 45744" width="2.613" height="58.126" transform="matrix(-0.395, 0.919, -0.919, -0.395, 1194.684, 4915.67)" fill="#060423"/>
      <path id="Trazado_659562" data-name="Trazado 659562" d="M1175.7,4907.327l1.2-2.866-20.82-8.952-1.2,2.866Z" transform="translate(17.888 10.984)" fill="#25c766"/>
      <circle id="Elipse_5764" data-name="Elipse 5764" cx="18.399" cy="18.399" r="18.399" transform="matrix(0.981, -0.193, 0.193, 0.981, 1103.002, 4871.765)" fill="#7798f8" opacity="0.3"/>
      <g id="Grupo_960523" data-name="Grupo 960523" transform="translate(1105.232 4866.901)">
        <path id="Trazado_659563" data-name="Trazado 659563" d="M1119.826,4860.692a19.371,19.371,0,1,0,10.144,25.448A19.394,19.394,0,0,0,1119.826,4860.692Zm8.8,24.87a17.908,17.908,0,1,1-9.378-23.526A17.908,17.908,0,0,1,1128.626,4885.563Z" transform="translate(-1092.803 -4859.118)" fill="#060423"/>
      </g>
      <path id="Trazado_659564" data-name="Trazado 659564" d="M1134.13,4890.658s1.261-2.636.914-2.86-1.79,1.595-1.778,1.559,1.2-2.179.843-2.635-1.921,1.709-1.921,1.709,1.261-1.928,1-2.228-1.67,1.414-1.791,1.32,1.2-1.474.893-1.86-2.248,1.49-2.13,2.035a.711.711,0,0,0,.687.547s.3.893.807.958c0,0,.813,1,1.318.728C1132.972,4889.932,1133.265,4891.019,1134.13,4890.658Z" transform="translate(15.714 10.113)" fill="#ff8b8d"/>
      <path id="Trazado_659565" data-name="Trazado 659565" d="M1167.476,4897.314s-2.537.3-3.435.479-1.9-.31-1.977.216,1.647.887,1.647.887-1.458,1.158-1.959,1.447-.936.747-.627,1.039c.6.566,2.037-.792,2.037-.792s-2.063.943-1.534,1.484c.44.449,2.495-.771,2.495-.771s-1.935.587-1.962,1.059c-.014.262.011.393.806.2l.843-.2a1.15,1.15,0,0,0-.613.6c-.095.293.1.608,1.151.188a11.029,11.029,0,0,0,4.344-3.653Z" transform="translate(18.429 11.142)" fill="#ff8b8d"/>
      <path id="Trazado_659566" data-name="Trazado 659566" d="M1171.665,4875.955c5.317,2.532,9.443,14.918,8.055,18.542-1.626,4.245-11.1,7.574-11.1,7.574l-2.263-4.035s7-4.175,7.025-4.972c.033-1.157-4.583-6.992-4.583-6.992Z" transform="translate(18.898 9.264)" fill="#2f3dbc"/>
      <g id="Grupo_960524" data-name="Grupo 960524" transform="translate(1185.193 4903.827)">
        <path id="Trazado_659567" data-name="Trazado 659567" d="M1168.626,4900.63a.063.063,0,0,1-.056-.033l-2.263-4.035a.063.063,0,0,1,.021-.083l5.307-3.41a.063.063,0,0,1,.068.106l-5.257,3.378,2.206,3.937,2.075-.83a.062.062,0,0,1,.082.035.061.061,0,0,1-.035.081l-2.126.851A.093.093,0,0,1,1168.626,4900.63Z" transform="translate(-1166.3 -4893.059)" fill="#060423"/>
      </g>
      <g id="Grupo_960525" data-name="Grupo 960525" transform="translate(1169.984 4894.395)">
        <path id="Trazado_659568" data-name="Trazado 659568" d="M1152.384,4889.022h-.006a.063.063,0,0,1-.057-.068l.443-4.509a.064.064,0,0,1,.068-.056.063.063,0,0,1,.057.068l-.443,4.509A.062.062,0,0,1,1152.384,4889.022Z" transform="translate(-1152.321 -4884.389)" fill="#060423"/>
      </g>
      <g id="Grupo_960530" data-name="Grupo 960530" transform="translate(1111.084 4875.195)">
        <g id="Grupo_960526" data-name="Grupo 960526">
          <path id="Trazado_659569" data-name="Trazado 659569" d="M1106.849,4869.035l-.334-.827a2.346,2.346,0,0,0-2.175-1.466h-6.158v20.59h25.475v-16.683h-14.416A2.58,2.58,0,0,1,1106.849,4869.035Z" transform="translate(-1098.182 -4866.741)" fill="#2f3dbc"/>
        </g>
        <g id="Grupo_960529" data-name="Grupo 960529" transform="translate(8.216 7.262)">
          <path id="Rectángulo_45745" data-name="Rectángulo 45745" d="M.959,0H7.816A1.228,1.228,0,0,1,9.044,1.228V2.475A4.026,4.026,0,0,1,5.017,6.5H4.286A4.286,4.286,0,0,1,0,2.215V.959A.959.959,0,0,1,.959,0Z" transform="translate(0 2.922)" fill="#fff"/>
          <g id="Grupo_960527" data-name="Grupo 960527" transform="translate(1.6)">
            <path id="Trazado_659570" data-name="Trazado 659570" d="M1110.126,4879.261a2.922,2.922,0,1,1,2.921-2.922A2.926,2.926,0,0,1,1110.126,4879.261Zm0-4.911a1.988,1.988,0,1,0,1.988,1.989A1.991,1.991,0,0,0,1110.126,4874.35Z" transform="translate(-1107.204 -4873.416)" fill="#fff"/>
          </g>
          <g id="Grupo_960528" data-name="Grupo 960528" transform="translate(3.343 3.98)">
            <path id="Trazado_659571" data-name="Trazado 659571" d="M1111.165,4878.254a1.179,1.179,0,1,1-1.179-1.18A1.18,1.18,0,0,1,1111.165,4878.254Z" transform="translate(-1108.806 -4877.074)" fill="#2f3dbc"/>
            <path id="Trazado_659572" data-name="Trazado 659572" d="M1109.911,4878.663h0a.257.257,0,0,1,.256.255v1.966a.257.257,0,0,1-.256.256h0a.257.257,0,0,1-.256-.256v-1.966A.257.257,0,0,1,1109.911,4878.663Z" transform="translate(-1108.731 -4876.935)" fill="#2f3dbc"/>
          </g>
        </g>
      </g>
      <g id="Grupo_960534" data-name="Grupo 960534" transform="translate(1036.288 4846.219)">
        <path id="Trazado_659573" data-name="Trazado 659573" d="M1032,4846.193a3.731,3.731,0,0,0-2.564,3.417v32.974a20.786,20.786,0,0,0,8.57,16.909l19.37,12.414a4.1,4.1,0,0,0,4.33,0l19.37-12.414a20.784,20.784,0,0,0,8.571-16.909V4849.7a3.761,3.761,0,0,0-2.693-3.462c-23.529-8.056-32.962-8.271-54.953-.042Z" transform="translate(-1029.432 -4840.107)" fill="#2ff980"/>
        <path id="Trazado_659574" data-name="Trazado 659574" d="M1084.516,4846.235c-11.453-3.921-19.566-5.979-27.413-6.115v72.4a4.038,4.038,0,0,0,2.165-.619l19.37-12.414a20.784,20.784,0,0,0,8.571-16.909V4849.7a3.761,3.761,0,0,0-2.693-3.461Z" transform="translate(-1026.998 -4840.106)" fill="#25c766"/>
        <g id="Grupo_960533" data-name="Grupo 960533" transform="translate(19.659 19.521)">
          <path id="Rectángulo_45746" data-name="Rectángulo 45746" d="M2.186,0H17.824a2.8,2.8,0,0,1,2.8,2.8V5.644a9.183,9.183,0,0,1-9.183,9.183H9.774A9.774,9.774,0,0,1,0,5.052V2.186A2.186,2.186,0,0,1,2.186,0Z" transform="translate(0 6.663)" fill="#fff"/>
          <g id="Grupo_960531" data-name="Grupo 960531" transform="translate(3.649)">
            <path id="Trazado_659575" data-name="Trazado 659575" d="M1057.519,4871.377a6.663,6.663,0,1,1,6.664-6.664A6.67,6.67,0,0,1,1057.519,4871.377Zm0-11.2a4.534,4.534,0,1,0,4.535,4.534A4.538,4.538,0,0,0,1057.519,4860.18Z" transform="translate(-1050.856 -4858.051)" fill="#fff"/>
          </g>
          <g id="Grupo_960532" data-name="Grupo 960532" transform="translate(7.623 9.075)">
            <path id="Trazado_659576" data-name="Trazado 659576" d="M1059.887,4869.08a2.689,2.689,0,1,1-2.689-2.688A2.689,2.689,0,0,1,1059.887,4869.08Z" transform="translate(-1054.509 -4866.392)" fill="#25c766"/>
            <path id="Trazado_659577" data-name="Trazado 659577" d="M1057.027,4870.017h0a.585.585,0,0,1,.583.583v4.481a.585.585,0,0,1-.583.583h0a.584.584,0,0,1-.582-.583V4870.6A.585.585,0,0,1,1057.027,4870.017Z" transform="translate(-1054.339 -4866.073)" fill="#25c766"/>
          </g>
        </g>
      </g>
      <g id="Grupo_960535" data-name="Grupo 960535" transform="translate(1014.335 4899.29)">
        <path id="Trazado_659578" data-name="Trazado 659578" d="M1019.84,4888.888a10.585,10.585,0,1,0,10.585,10.585A10.585,10.585,0,0,0,1019.84,4888.888Zm0,9.049a2.353,2.353,0,1,1,2.352-2.353A2.353,2.353,0,0,1,1019.84,4897.938Z" transform="translate(-1009.254 -4888.888)" fill="#25c766"/>
        <path id="Trazado_659579" data-name="Trazado 659579" d="M1019.735,4890.078a9.29,9.29,0,1,0,9.29,9.29A9.29,9.29,0,0,0,1019.735,4890.078Zm0,7.754a2.353,2.353,0,1,1,2.352-2.353A2.353,2.353,0,0,1,1019.735,4897.833Z" transform="translate(-1009.149 -4888.784)" fill="#2ff980"/>
        <path id="Trazado_659580" data-name="Trazado 659580" d="M1016.087,4905.524v24.317l4.876-2.368.629-1.874,1.838-2.131-1.363-2.35,1.293-2.553-2.182-3.1,1.939-2.623-1.525-2.306v-5.01Z" transform="translate(-1008.653 -4887.425)" fill="#2ff980"/>
        <path id="Trazado_659581" data-name="Trazado 659581" d="M1017.488,4929.062l-1.4.681v-23.09l1.4.548Z" transform="translate(-1008.653 -4887.326)" fill="#25c766"/>
      </g>
      <g id="Grupo_960536" data-name="Grupo 960536" transform="translate(1073.282 4770.619)">
        <path id="Trazado_659582" data-name="Trazado 659582" d="M1078.794,4788.964a3.092,3.092,0,1,0-3.093,3.092A3.093,3.093,0,0,0,1078.794,4788.964Z" transform="translate(-1062.629 -4769.277)" fill="#583ae2"/>
        <path id="Trazado_659583" data-name="Trazado 659583" d="M1081.516,4786.028a1.022,1.022,0,0,1-.706-.281,6.928,6.928,0,0,0-5-2.209,7.215,7.215,0,0,0-4.529,2.151,1.031,1.031,0,0,1-1.532-1.379,9.221,9.221,0,0,1,5.955-2.831,8.889,8.889,0,0,1,6.515,2.769,1.031,1.031,0,0,1-.707,1.781Z" transform="translate(-1062.903 -4769.664)" fill="#583ae2"/>
        <path id="Trazado_659584" data-name="Trazado 659584" d="M1084.983,4782.04a1.023,1.023,0,0,1-.706-.281c-2.7-2.542-5.513-3.776-8.359-3.662a12.039,12.039,0,0,0-7.58,3.6,1.031,1.031,0,0,1-1.533-1.379,13.954,13.954,0,0,1,9.007-4.281c3.431-.145,6.754,1.276,9.877,4.22a1.031,1.031,0,0,1-.707,1.781Z" transform="translate(-1063.163 -4770.143)" fill="#583ae2"/>
        <path id="Trazado_659585" data-name="Trazado 659585" d="M1088.635,4778.163a1.024,1.024,0,0,1-.706-.281c-3.83-3.608-7.835-5.357-11.9-5.192-6.318.254-10.751,5.083-10.8,5.132a1.031,1.031,0,0,1-1.533-1.378c.2-.226,5.03-5.512,12.222-5.812,4.651-.194,9.166,1.741,13.421,5.75a1.031,1.031,0,0,1-.707,1.781Z" transform="translate(-1063.436 -4770.619)" fill="#583ae2"/>
      </g>
    </g>
  </g>
</svg>
