<svg xmlns="http://www.w3.org/2000/svg" width="295" height="238.213" viewBox="0 0 295 238.213">
  <g id="Grupo_83775" data-name="Grupo 83775" transform="translate(-180 -3446)">
    <rect id="Rect치ngulo_34127" data-name="Rect치ngulo 34127" width="295" height="112" rx="20" transform="translate(180 3572.212)" fill="#ab9df1"/>
    <g id="Grupo_83087" data-name="Grupo 83087" transform="translate(213.932 3446)">
      <g id="Grupo_83004" data-name="Grupo 83004" transform="translate(0 20.648)">
        <g id="Grupo_82995" data-name="Grupo 82995">
          <g id="Grupo_82988" data-name="Grupo 82988">
            <g id="Grupo_82975" data-name="Grupo 82975" transform="translate(0.314 0.315)">
              <g id="Grupo_82974" data-name="Grupo 82974">
                <path id="Trazado_121013" data-name="Trazado 121013" d="M3054.482,621h143.582c3.276,0,2.036,10.224,2.492,13.478l26.977,192.3c.456,3.253-7.911,11.156-11.187,11.156H3072.763a6.815,6.815,0,0,1-6.594-5.957l-21.109-197.5C3044.711,631.206,3051.207,621,3054.482,621Z" transform="translate(-3045.048 -621.004)" fill="#583ae2" fill-rule="evenodd"/>
              </g>
            </g>
            <g id="Grupo_82977" data-name="Grupo 82977" transform="translate(0 0.001)">
              <g id="Grupo_82976" data-name="Grupo 82976">
                <path id="Trazado_121014" data-name="Trazado 121014" d="M3053.986,620.167h143.581c2.671,0,2.664,5.572,2.659,9.9a33.031,33.031,0,0,0,.118,3.826l26.976,192.3a2.466,2.466,0,0,1,.011.54c-.148,1.723-1.99,4.265-4.229,6.464s-4.872,4.06-6.643,4.454a3.1,3.1,0,0,1-.666.079H3072.211a7.094,7.094,0,0,1-6.878-6.209l-21.109-197.5a3.312,3.312,0,0,1,0-.631c.162-1.863,1.662-4.993,3.524-7.725h0c1.879-2.756,4.153-5.133,5.838-5.454a2.114,2.114,0,0,1,.4-.04Zm143.527.627H3053.931a1.545,1.545,0,0,0-.28.028c-1.494.284-3.6,2.534-5.394,5.157v0c-1.8,2.648-3.255,5.651-3.406,7.406a2.542,2.542,0,0,0,0,.514l21.108,197.5a6.4,6.4,0,0,0,2.107,4.026,6.318,6.318,0,0,0,4.2,1.675h143.582a2.477,2.477,0,0,0,.527-.063c1.646-.366,4.161-2.162,6.307-4.27s3.888-4.481,4.023-6.037a1.827,1.827,0,0,0-.008-.4l-26.975-192.3a32.718,32.718,0,0,1-.125-3.911C3199.6,626.04,3199.606,620.794,3197.512,620.794Z" transform="translate(-3044.209 -620.167)" fill="#40327b" fill-rule="evenodd"/>
              </g>
            </g>
            <g id="Grupo_82979" data-name="Grupo 82979" transform="translate(6.387 0.315)">
              <g id="Grupo_82978" data-name="Grupo 82978">
                <path id="Trazado_121015" data-name="Trazado 121015" d="M3066.627,621h143.582a6.813,6.813,0,0,1,6.593,5.956l21.108,197.5a5.266,5.266,0,0,1-5.32,5.956H3089.01a6.814,6.814,0,0,1-6.594-5.956l-21.108-197.5A5.266,5.266,0,0,1,3066.627,621Z" transform="translate(-3061.273 -621.004)" fill="#fff" fill-rule="evenodd"/>
              </g>
            </g>
            <g id="Grupo_82981" data-name="Grupo 82981" transform="translate(6.073)">
              <g id="Grupo_82980" data-name="Grupo 82980">
                <path id="Trazado_121016" data-name="Trazado 121016" d="M3066.13,620.163H3209.71a7.1,7.1,0,0,1,6.879,6.211l21.109,197.5a6.188,6.188,0,0,1,.013,1.186,5.562,5.562,0,0,1-4.536,5.036,6.148,6.148,0,0,1-1.137.106H3088.456a7.1,7.1,0,0,1-6.878-6.21l-21.108-197.5a6.148,6.148,0,0,1-.014-1.185,5.556,5.556,0,0,1,4.537-5.036,6.025,6.025,0,0,1,1.137-.107Zm143.527.628H3066.075a5.464,5.464,0,0,0-1.019.094,4.888,4.888,0,0,0-2.737,1.525,4.946,4.946,0,0,0-1.236,2.9,5.392,5.392,0,0,0,.012,1.068l21.108,197.5a6.385,6.385,0,0,0,2.108,4.024,6.311,6.311,0,0,0,4.2,1.677h143.582a5.447,5.447,0,0,0,1.018-.094,4.877,4.877,0,0,0,2.738-1.527,4.941,4.941,0,0,0,1.237-2.895,5.528,5.528,0,0,0-.012-1.068l-21.108-197.5a6.4,6.4,0,0,0-2.109-4.026A6.314,6.314,0,0,0,3209.656,620.791Z" transform="translate(-3060.434 -620.163)" fill="#40327b" fill-rule="evenodd"/>
              </g>
            </g>
            <g id="Grupo_82983" data-name="Grupo 82983" transform="translate(14.93 8.44)">
              <g id="Grupo_82982" data-name="Grupo 82982">
                <path id="Trazado_121017" data-name="Trazado 121017" d="M3084.1,642.71l20.645,193.165h138.942L3223.038,642.71Z" transform="translate(-3084.096 -642.71)" fill="#f3f1ff" fill-rule="evenodd"/>
              </g>
            </g>
            <g id="Grupo_82985" data-name="Grupo 82985" transform="translate(14.577 8.127)">
              <g id="Grupo_82984" data-name="Grupo 82984">
                <path id="Trazado_121018" data-name="Trazado 121018" d="M3083.153,641.874h139.18l1.141,12.905h-139.18Z" transform="translate(-3083.153 -641.874)" fill="#583ae2" fill-rule="evenodd"/>
              </g>
            </g>
            <g id="Grupo_82987" data-name="Grupo 82987" transform="translate(14.577 8.126)">
              <g id="Grupo_82986" data-name="Grupo 82986">
                <path id="Trazado_121019" data-name="Trazado 121019" d="M3083.858,642.5l4.258,39.843c-.2.1-.4.209-.6.319l-4.36-40.789h25.09q-.214.309-.419.627Zm9.018,84.382,11.561,108.156h36.7q0,.313.011.627h-37.288l-11.618-108.706c.212-.02.422-.047.63-.077Zm78.875,108.156h70.99l-9.012-84.333c.2-.115.4-.237.6-.362l9.118,85.321h-71.918c.079-.206.154-.416.224-.627Zm56.994-130.959-1.654-15.46c.2-.185.39-.375.577-.572l1.73,16.176c-.217-.054-.434-.1-.653-.144Zm-3.957-37.021-2.625-24.558h-35.97l-.171-.627h36.711l2.73,25.54C3225.242,667.287,3225.017,667.169,3224.788,667.057Z" transform="translate(-3083.153 -641.873)" fill="#40327b" fill-rule="evenodd"/>
              </g>
            </g>
          </g>
          <g id="Grupo_82990" data-name="Grupo 82990" transform="translate(22.85 11.227)">
            <g id="Grupo_82989" data-name="Grupo 82989">
              <path id="Trazado_121020" data-name="Trazado 121020" d="M3108.783,650.157a4.3,4.3,0,0,1,4.193,3.854,3.471,3.471,0,0,1-3.513,3.854,4.294,4.294,0,0,1-4.193-3.854A3.47,3.47,0,0,1,3108.783,650.157Z" transform="translate(-3105.255 -650.157)" fill="#fff" fill-rule="evenodd"/>
            </g>
          </g>
          <g id="Grupo_82992" data-name="Grupo 82992" transform="translate(33.01 11.227)">
            <g id="Grupo_82991" data-name="Grupo 82991">
              <path id="Trazado_121021" data-name="Trazado 121021" d="M3135.924,650.157a4.294,4.294,0,0,1,4.193,3.854,3.471,3.471,0,0,1-3.512,3.854,4.3,4.3,0,0,1-4.193-3.854A3.471,3.471,0,0,1,3135.924,650.157Z" transform="translate(-3132.396 -650.157)" fill="#fff" fill-rule="evenodd"/>
            </g>
          </g>
          <g id="Grupo_82994" data-name="Grupo 82994" transform="translate(43.169 11.227)">
            <g id="Grupo_82993" data-name="Grupo 82993">
              <path id="Trazado_121022" data-name="Trazado 121022" d="M3163.064,650.157a4.3,4.3,0,0,1,4.2,3.854,3.472,3.472,0,0,1-3.514,3.854,4.3,4.3,0,0,1-4.193-3.854A3.47,3.47,0,0,1,3163.064,650.157Z" transform="translate(-3159.537 -650.157)" fill="#fff" fill-rule="evenodd"/>
            </g>
          </g>
        </g>
        <g id="Grupo_82997" data-name="Grupo 82997" transform="translate(23.558 35.54)">
          <g id="Grupo_82996" data-name="Grupo 82996">
            <path id="Trazado_121023" data-name="Trazado 121023" d="M3107.146,715.111H3230.09l2.762,24.547H3109.909Z" transform="translate(-3107.146 -715.111)" fill="#d5cef8" fill-rule="evenodd"/>
          </g>
        </g>
        <g id="Grupo_82999" data-name="Grupo 82999" transform="translate(26.807 64.421)">
          <g id="Grupo_82998" data-name="Grupo 82998">
            <path id="Trazado_121024" data-name="Trazado 121024" d="M3115.826,792.267H3238.77l6.224,55.335H3122.051Z" transform="translate(-3115.826 -792.267)" fill="#d5cef8" fill-rule="evenodd"/>
          </g>
        </g>
        <g id="Grupo_83001" data-name="Grupo 83001" transform="translate(33.52 124.089)">
          <g id="Grupo_83000" data-name="Grupo 83000">
            <path id="Trazado_121025" data-name="Trazado 121025" d="M3133.761,951.674h122.945l2.34,20.8H3136.1Z" transform="translate(-3133.761 -951.674)" fill="#d5cef8" fill-rule="evenodd"/>
          </g>
        </g>
        <g id="Grupo_83003" data-name="Grupo 83003" transform="translate(36.349 149.226)">
          <g id="Grupo_83002" data-name="Grupo 83002">
            <path id="Trazado_121026" data-name="Trazado 121026" d="M3141.317,1018.828h122.943l2.34,20.8H3143.658Z" transform="translate(-3141.317 -1018.828)" fill="#d5cef8" fill-rule="evenodd"/>
          </g>
        </g>
      </g>
      <g id="Grupo_83081" data-name="Grupo 83081" transform="translate(75.449 87.874)">
        <g id="Grupo_83007" data-name="Grupo 83007" transform="translate(0)">
          <g id="Grupo_83005" data-name="Grupo 83005" transform="translate(0.124 0.128)">
            <path id="Trazado_121027" data-name="Trazado 121027" d="M3269.586,806.084c12.225,10.911,27.843,12.195,42.544,10.147l9.542-1.329,3.127.475-2.453,4.656.6,4.611c5.407,41.228,9.124,87.932-28.086,112.312-5.4,3.539-14.513,3.352-15.544,10.145l-.387,2.549-2.973-1.056-3.621-1.493c-6.666-2.746-11.309-6.605-17.333-10.145-41.5-24.379-46.013-71.083-47.869-112.312l-.439-9.741,9.777,1.329c15.062,2.047,30.453.764,40.758-10.147l5.649-5.982,2.774.509.847,2.724,3.082,2.749Zm-5.614,6.376q-15.97,16.911-47.931,12.565c1.906,42.367,6.7,83.074,42.977,104.384,5.214,3.064,9.852,6.957,16.093,9.528,5.788-2.571,9.738-6.464,14.415-9.528,32.523-21.31,30.147-62.017,24.59-104.384Q3282.919,829.37,3263.972,812.46Z" transform="translate(-3206.699 -800.102)" fill="#40327b" fill-rule="evenodd"/>
          </g>
          <g id="Grupo_83006" data-name="Grupo 83006">
            <path id="Trazado_121028" data-name="Trazado 121028" d="M3278.823,949.593l-3.108-1.1-3.626-1.495a67.52,67.52,0,0,1-11.647-6.551c-1.813-1.19-3.689-2.42-5.7-3.6-18.7-10.986-31.412-27.31-38.854-49.9-6.688-20.308-8.19-42.912-9.072-62.505l-.445-9.883,9.917,1.349a83.834,83.834,0,0,0,11.2.81c12.7,0,22.607-3.674,29.452-10.922l5.694-6.029.062.012,2.844.522.021.068.838,2.693,3.056,2.727c8.126,7.253,18.687,10.93,31.389,10.93h0a80.714,80.714,0,0,0,11.06-.81l9.559-1.333.016,0,3.29.5-2.512,4.768.6,4.574c2.57,19.594,5.051,42.2,1.939,62.507-3.464,22.6-13.3,38.927-30.076,49.918a28.517,28.517,0,0,1-6.337,2.744c-4.363,1.492-8.484,2.9-9.155,7.319Zm-72.206-134.77.433,9.6c1.968,43.727,7.282,88.409,47.812,112.216,2.015,1.184,3.893,2.415,5.71,3.607a67.3,67.3,0,0,0,11.607,6.531l3.621,1.493,2.833,1.006.366-2.408c.693-4.561,4.879-5.992,9.311-7.507a28.255,28.255,0,0,0,6.285-2.718c36.326-23.8,33.768-68.477,28.034-112.2l-.61-4.648.018-.032,2.377-4.51-2.948-.447-9.524,1.327a80.937,80.937,0,0,1-11.092.813h0c-12.761,0-23.375-3.7-31.546-10.989l-3.106-2.771-.009-.031-.827-2.656-2.642-.485-5.605,5.936c-6.891,7.3-16.858,11-29.623,11a84.085,84.085,0,0,1-11.236-.813Zm68.289,124.029-.046-.019a62.519,62.519,0,0,1-10.959-6.244c-1.67-1.112-3.4-2.262-5.149-3.292-16.538-9.715-27.8-24.225-34.43-44.359-5.672-17.227-7.541-36.492-8.6-60.12l-.006-.141.14.019a92.62,92.62,0,0,0,12.382.887c15.115,0,27.042-4.515,35.448-13.417l.078-.082.085.075c9.98,8.908,22.706,13.424,37.823,13.424a89.182,89.182,0,0,0,12.226-.887l.118-.016.015.118c3.1,23.627,4.622,42.893,1.985,60.122-3.084,20.14-11.793,34.657-26.627,44.376-1.573,1.03-3.1,2.182-4.573,3.293a49.594,49.594,0,0,1-9.859,6.244Zm-58.948-113.9c1.93,42.75,6.691,82.871,42.914,104.147,1.757,1.034,3.487,2.186,5.159,3.3a62.647,62.647,0,0,0,10.871,6.2,49.562,49.562,0,0,0,9.767-6.2c1.478-1.115,3.006-2.267,4.584-3.3,32.469-21.273,30.155-61.4,24.553-104.153a89.213,89.213,0,0,1-12.141.874c-15.134,0-27.883-4.511-37.894-13.408-8.449,8.9-20.405,13.407-35.541,13.408A92.545,92.545,0,0,1,3215.958,824.947Z" transform="translate(-3206.369 -799.76)" fill="#40327b"/>
          </g>
        </g>
        <g id="Grupo_83010" data-name="Grupo 83010" transform="translate(12.073 12.891)">
          <g id="Grupo_83008" data-name="Grupo 83008" transform="translate(0.287 0.38)">
            <path id="Trazado_121029" data-name="Trazado 121029" d="M3287.32,835.212q-15.969,16.911-47.931,12.565c1.906,42.367,6.7,83.074,42.977,104.384,5.214,3.064,9.852,6.957,16.093,9.528,5.788-2.571,9.74-6.464,14.415-9.528,32.523-21.31,30.146-62.017,24.589-104.384Q3306.268,852.122,3287.32,835.212Z" transform="translate(-3239.389 -835.212)" fill="#8bbae9" fill-rule="evenodd"/>
          </g>
          <g id="Grupo_83009" data-name="Grupo 83009">
            <path id="Trazado_121030" data-name="Trazado 121030" d="M3297.984,961.351l-.107-.045a62.675,62.675,0,0,1-10.986-6.258c-1.668-1.111-3.392-2.259-5.142-3.288-36.429-21.4-41.18-61.691-43.111-104.606l-.015-.325.323.045a92.568,92.568,0,0,0,12.362.885c15.07,0,26.959-4.5,35.335-13.369l.181-.193.2.177c9.951,8.881,22.643,13.385,37.72,13.385a89.131,89.131,0,0,0,12.206-.885l.27-.039.036.272c3.1,23.639,4.626,42.918,1.986,60.163-3.092,20.188-11.823,34.739-26.7,44.483-1.566,1.026-3.02,2.122-4.558,3.284a49.779,49.779,0,0,1-9.895,6.265ZM3239.2,847.456c1.932,42.636,6.726,82.63,42.828,103.837,1.762,1.036,3.493,2.189,5.167,3.3a62.829,62.829,0,0,0,10.783,6.163,49.756,49.756,0,0,0,9.681-6.154c1.478-1.116,3.006-2.269,4.589-3.307,32.354-21.2,30.085-61.2,24.5-103.848a89.535,89.535,0,0,1-12.008.853c-15.116,0-27.861-4.491-37.885-13.348-8.472,8.856-20.432,13.347-35.549,13.348A92.6,92.6,0,0,1,3239.2,847.456Z" transform="translate(-3238.623 -834.198)" fill="#373435"/>
          </g>
        </g>
        <g id="Grupo_83035" data-name="Grupo 83035" transform="translate(12.36 13.27)">
          <g id="Grupo_83012" data-name="Grupo 83012">
            <g id="Grupo_83011" data-name="Grupo 83011">
              <path id="Trazado_121031" data-name="Trazado 121031" d="M3245.115,897.635h47.7l-5.5-62.423q-15.969,16.911-47.931,12.565C3240.169,865.076,3241.428,882.1,3245.115,897.635Z" transform="translate(-3239.389 -835.212)" fill="#f3f1ff" fill-rule="evenodd"/>
            </g>
          </g>
          <g id="Grupo_83014" data-name="Grupo 83014" transform="translate(47.931)">
            <g id="Grupo_83013" data-name="Grupo 83013">
              <path id="Trazado_121032" data-name="Trazado 121032" d="M3367.44,835.212l5.5,62.423h47.7c.95-15.536-.789-32.559-3.058-49.857Q3386.388,852.122,3367.44,835.212Z" transform="translate(-3367.44 -835.212)" fill="#f3f1ff" fill-rule="evenodd"/>
            </g>
          </g>
          <g id="Grupo_83016" data-name="Grupo 83016" transform="translate(53.427 62.423)">
            <g id="Grupo_83015" data-name="Grupo 83015">
              <path id="Trazado_121033" data-name="Trazado 121033" d="M3429.828,1001.978h-47.7l5.643,64.054c5.788-2.571,9.74-6.464,14.415-9.528C3421.425,1043.895,3428.45,1024.5,3429.828,1001.978Z" transform="translate(-3382.123 -1001.978)" fill="#d5cef8" fill-rule="evenodd"/>
            </g>
          </g>
          <g id="Grupo_83018" data-name="Grupo 83018" transform="translate(5.726 62.423)">
            <g id="Grupo_83017" data-name="Grupo 83017">
              <path id="Trazado_121034" data-name="Trazado 121034" d="M3308.03,1066.032l-5.642-64.054h-47.7c5.344,22.518,15.785,41.917,37.251,54.526C3297.152,1059.568,3301.79,1063.461,3308.03,1066.032Z" transform="translate(-3254.687 -1001.978)" fill="#d5cef8" fill-rule="evenodd"/>
            </g>
          </g>
          <g id="Grupo_83020" data-name="Grupo 83020" transform="translate(1.499 12.758)" opacity="0.17">
            <g id="Grupo_83019" data-name="Grupo 83019">
              <path id="Trazado_121035" data-name="Trazado 121035" d="M3251.173,915.112c-3.383-14.251-4.721-29.749-5.521-45.566q-1.118-.11-2.258-.25c.785,16.778,2.076,33.26,5.655,48.344h2.749Q3251.474,916.382,3251.173,915.112Z" transform="translate(-3243.394 -869.296)" fill="#d2e5f7" fill-rule="evenodd"/>
            </g>
          </g>
          <g id="Grupo_83022" data-name="Grupo 83022" transform="translate(9.278 58.574)" opacity="0.17">
            <g id="Grupo_83021" data-name="Grupo 83021">
              <path id="Trazado_121036" data-name="Trazado 121036" d="M3307.987,991.7h-43.811q.3,1.271.625,2.529h43.409Z" transform="translate(-3264.176 -991.695)" fill="#d2e5f7" fill-rule="evenodd"/>
            </g>
          </g>
          <g id="Grupo_83024" data-name="Grupo 83024" transform="translate(49.601 1.431)" opacity="0.17">
            <g id="Grupo_83023" data-name="Grupo 83023">
              <path id="Trazado_121037" data-name="Trazado 121037" d="M3371.9,839.035l5.034,57.143h2.346l-4.862-55.2Q3373.138,840.048,3371.9,839.035Z" transform="translate(-3371.902 -839.035)" fill="#d2e5f7" fill-rule="evenodd"/>
            </g>
          </g>
          <g id="Grupo_83026" data-name="Grupo 83026" transform="translate(54.635 58.574)" opacity="0.17">
            <g id="Grupo_83025" data-name="Grupo 83025">
              <path id="Trazado_121038" data-name="Trazado 121038" d="M3387.7,991.7h-2.346l.224,2.528h2.344Z" transform="translate(-3385.35 -991.695)" fill="#d2e5f7" fill-rule="evenodd"/>
            </g>
          </g>
          <g id="Grupo_83028" data-name="Grupo 83028" transform="translate(56.981 58.574)" opacity="0.17">
            <g id="Grupo_83027" data-name="Grupo 83027">
              <path id="Trazado_121039" data-name="Trazado 121039" d="M3391.617,991.7l.222,2.529h44q.064-1.258.107-2.529Z" transform="translate(-3391.617 -991.695)" fill="#d2e5f7" fill-rule="evenodd"/>
            </g>
          </g>
          <g id="Grupo_83030" data-name="Grupo 83030" transform="translate(7.475 62.423)" opacity="0.17">
            <g id="Grupo_83029" data-name="Grupo 83029">
              <path id="Trazado_121040" data-name="Trazado 121040" d="M3298.413,1052.655c-20.231-11.886-30.672-29.8-36.279-50.677h-2.776c5.438,21.954,15.887,40.843,36.932,53.206,4.757,2.795,9.035,6.279,14.485,8.822l-.332-3.773C3306.109,1057.871,3302.433,1055.016,3298.413,1052.655Z" transform="translate(-3259.358 -1001.978)" fill="#d2e5f7" fill-rule="evenodd"/>
            </g>
          </g>
          <g id="Grupo_83032" data-name="Grupo 83032" transform="translate(54.975 62.423)" opacity="0.17">
            <g id="Grupo_83031" data-name="Grupo 83031">
              <path id="Trazado_121041" data-name="Trazado 121041" d="M3386.258,1001.978l5.2,59.1q1.182.584,2.443,1.108l-5.3-60.205Z" transform="translate(-3386.258 -1001.978)" fill="#d2e5f7" fill-rule="evenodd"/>
            </g>
          </g>
          <g id="Grupo_83034" data-name="Grupo 83034" transform="translate(60.179 105.772)" opacity="0.17">
            <g id="Grupo_83033" data-name="Grupo 83033">
              <path id="Trazado_121042" data-name="Trazado 121042" d="M3402.6,1134.644q-1.261-.52-2.443-1.108l.321,3.636c5.788-2.571,9.74-6.464,14.414-9.528a59.939,59.939,0,0,0,7.088-5.42,54.653,54.653,0,0,0,4.156-4.436,58.916,58.916,0,0,1-9.12,7.328C3412.341,1128.178,3408.391,1132.071,3402.6,1134.644Z" transform="translate(-3400.16 -1117.788)" fill="#d2e5f7" fill-rule="evenodd"/>
            </g>
          </g>
        </g>
        <g id="Grupo_83037" data-name="Grupo 83037" transform="translate(3.02 0.912)">
          <g id="Grupo_83036" data-name="Grupo 83036">
            <path id="Trazado_121043" data-name="Trazado 121043" d="M3277.323,808.178c12.226,10.912,27.843,12.195,42.544,10.147l9.542-1.33,1.278,9.742c5.407,41.228,9.124,87.932-28.086,112.313-5.4,3.538-9.364,7.4-15.544,10.145l-3.359,1.492-3.622-1.492c-6.666-2.747-11.31-6.607-17.333-10.145-41.5-24.381-46.012-71.085-47.867-112.313l-.438-9.742,9.775,1.33c15.061,2.047,30.452.765,40.757-10.147l5.649-5.982,6.7,5.982Zm-5.614,6.376q-15.969,16.911-47.931,12.565c1.906,42.367,6.7,83.074,42.977,104.384,5.214,3.064,9.851,6.957,16.093,9.528,5.788-2.571,9.74-6.464,14.414-9.528,32.524-21.31,30.146-62.017,24.59-104.384Q3290.657,831.464,3271.709,814.554Z" transform="translate(-3214.438 -802.196)" fill="#583ae2" fill-rule="evenodd"/>
          </g>
        </g>
        <g id="Grupo_83039" data-name="Grupo 83039" transform="translate(3.02 0.912)" opacity="0.1">
          <g id="Grupo_83038" data-name="Grupo 83038">
            <path id="Trazado_121044" data-name="Trazado 121044" d="M3277.323,808.178c12.226,10.912,27.843,12.195,42.544,10.147l9.542-1.33,1.278,9.742c5.219,39.791,8.857,84.678-24.345,109.68,30.9-25.3,27.311-69.085,22.207-108l-1.277-9.74-9.543,1.328c-14.7,2.047-30.317.765-42.544-10.147l-6.4-5.716,1.84-1.948,6.7,5.982Zm-62.8,10.8-.088-1.984,9.775,1.33c12.964,1.762,26.174,1.056,36.173-6.133-10.206,8.754-24.4,9.706-38.31,7.814l-7.55-1.027Zm55.278-2.539-.234-.206a40.484,40.484,0,0,1-3.33,3.148,39.954,39.954,0,0,0,3.564-2.942Zm-45.935,12.638q-1.105-.126-2.23-.279c1.906,42.367,6.7,83.074,42.977,104.384,5.216,3.064,9.854,6.957,16.093,9.528,5.788-2.571,9.74-6.464,14.416-9.528a61.039,61.039,0,0,0,5.342-3.93c-1.03.77-2.094,1.522-3.205,2.249-4.674,3.064-8.627,6.957-14.414,9.528-6.241-2.571-10.878-6.464-16.093-9.528C3231.036,910.522,3225.84,870.738,3223.869,829.079Z" transform="translate(-3214.438 -802.196)" fill="#e6e6e6" fill-rule="evenodd"/>
          </g>
        </g>
        <g id="Grupo_83041" data-name="Grupo 83041" transform="translate(12.36 13.27)" opacity="0.29">
          <g id="Grupo_83040" data-name="Grupo 83040">
            <path id="Trazado_121045" data-name="Trazado 121045" d="M3287.32,835.212q-.925.979-1.9,1.887,18.905,16.677,49.909,12.359c5.232,39.893,7.642,78.312-19.246,100.454,29.15-21.844,26.752-61.213,21.385-102.135q-31.194,4.345-50.143-12.565Zm-5.469,4.829q-15.572,11.391-42.462,7.737l.091,1.96Q3266.655,852.85,3281.851,840.041Z" transform="translate(-3239.389 -835.212)" fill="#e6e6e6" fill-rule="evenodd"/>
          </g>
        </g>
        <g id="Grupo_83043" data-name="Grupo 83043" transform="translate(2.733 0.535)">
          <g id="Grupo_83042" data-name="Grupo 83042">
            <path id="Trazado_121046" data-name="Trazado 121046" d="M3277.015,807.355a41.868,41.868,0,0,0,20.2,9.861,67.223,67.223,0,0,0,22.11.213l9.543-1.33.291-.042.039.3,1.279,9.742c2.7,20.633,4.987,42.639,1.937,62.55-3.056,19.94-11.458,37.772-30.131,50-1.788,1.172-3.437,2.394-5.061,3.6a53.837,53.837,0,0,1-10.519,6.566l-3.357,1.493-.1.045-.111-.045-3.623-1.493a67.854,67.854,0,0,1-11.674-6.566c-1.836-1.2-3.7-2.425-5.7-3.6-20.826-12.233-32.369-30.065-38.938-50-6.559-19.911-8.152-41.916-9.08-62.55l-.44-9.742-.013-.3.3.042,9.777,1.33c7.5,1.018,15.085,1.209,22.073-.213a34.023,34.023,0,0,0,18.465-9.861l5.649-5.982.172-.183.206.183,6.7,5.982Zm20.144,10.395a42.452,42.452,0,0,1-20.487-10.007l-6.5-5.8-5.477,5.8a34.5,34.5,0,0,1-18.724,10.007c-7.05,1.435-14.694,1.243-22.251.216l-9.479-1.288.425,9.443c.927,20.595,2.515,42.556,9.052,62.4,6.526,19.814,17.99,37.526,38.666,49.672,2.035,1.195,3.892,2.412,5.722,3.611a67.476,67.476,0,0,0,11.573,6.514l3.512,1.446,3.255-1.446a53.565,53.565,0,0,0,10.427-6.514c1.618-1.2,3.261-2.417,5.085-3.611,18.537-12.146,26.882-29.858,29.917-49.672,3.041-19.842.762-41.8-1.938-62.4l-1.238-9.443-9.252,1.288a67.709,67.709,0,0,1-22.289-.216Zm-25.9-3.448a41.454,41.454,0,0,1-19.909,11.483q-11.922,3.124-27.768,1.014c.954,21.062,2.64,41.7,8.572,59.716,5.948,18.071,16.176,33.518,34.241,44.128,1.758,1.033,3.456,2.165,5.173,3.308v0a62.608,62.608,0,0,0,10.77,6.157,49.564,49.564,0,0,0,9.687-6.157v0c1.515-1.143,3.015-2.275,4.592-3.308,16.2-10.61,23.7-26.057,26.468-44.128,2.758-18.018.808-38.654-1.947-59.716q-15.472,2.109-27.946-1.014A51.571,51.571,0,0,1,3271.26,814.3Zm-20.09,10.958q-11.93,3.129-27.859.962l-.3-.04.013.3c.955,21.2,2.631,41.994,8.614,60.164,5.992,18.2,16.3,33.764,34.514,44.463,1.756,1.031,3.442,2.155,5.145,3.289h0a62.73,62.73,0,0,0,10.985,6.258l.111.046.1-.046a49.738,49.738,0,0,0,9.883-6.258h0c1.5-1.134,2.99-2.258,4.566-3.289,16.328-10.7,23.894-26.261,26.681-44.463,2.781-18.17.8-38.96-1.984-60.164l-.04-.3-.29.04q-15.547,2.166-28.031-.962a50.955,50.955,0,0,1-21.882-11.529l-.205-.182-.172.182A40.951,40.951,0,0,1,3251.17,825.259Z" transform="translate(-3213.671 -801.19)" fill="#40327b" fill-rule="evenodd"/>
          </g>
        </g>
        <g id="Grupo_83045" data-name="Grupo 83045" transform="translate(7.845 20.579)" opacity="0.33">
          <g id="Grupo_83044" data-name="Grupo 83044">
            <path id="Trazado_121047" data-name="Trazado 121047" d="M3237.238,923.119a.773.773,0,0,1-.727-.51,123.551,123.551,0,0,1-4.632-17.087.771.771,0,0,1,1.512-.306,121.593,121.593,0,0,0,4.573,16.872.774.774,0,0,1-.466.987A.807.807,0,0,1,3237.238,923.119Zm-6.229-26.343a.773.773,0,0,1-.762-.658q-.263-1.781-.5-3.617a323.18,323.18,0,0,1-2.4-36.723l-.015-1.042,1,.29c11.855,3.438,23.371,1.484,27.769.484a.771.771,0,1,1,.341,1.5,59.014,59.014,0,0,1-27.538-.226,318.233,318.233,0,0,0,2.376,35.514q.236,1.823.5,3.591a.773.773,0,0,1-.65.876A.989.989,0,0,1,3231.009,896.776Z" transform="translate(-3227.326 -854.737)" fill="#fff"/>
          </g>
        </g>
        <g id="Grupo_83047" data-name="Grupo 83047" transform="translate(40.417 9.005)" opacity="0.33">
          <g id="Grupo_83046" data-name="Grupo 83046">
            <path id="Trazado_121048" data-name="Trazado 121048" d="M3315.118,836.378a.771.771,0,0,1-.247-1.5c7.589-2.565,13.484-6.378,16.6-10.734a.771.771,0,1,1,1.253.9c-3.3,4.617-9.465,8.629-17.359,11.3A.8.8,0,0,1,3315.118,836.378Z" transform="translate(-3314.347 -823.818)" fill="#fff"/>
          </g>
        </g>
        <g id="Grupo_83049" data-name="Grupo 83049" transform="translate(71.898 108.145)" opacity="0.33">
          <g id="Grupo_83048" data-name="Grupo 83048">
            <path id="Trazado_121049" data-name="Trazado 121049" d="M3399.221,1126.768a.771.771,0,0,1-.37-1.447c21.284-11.591,34.62-23.759,39.64-36.165a.771.771,0,1,1,1.429.579c-5.157,12.746-18.727,25.174-40.331,36.939A.76.76,0,0,1,3399.221,1126.768Z" transform="translate(-3398.449 -1088.675)" fill="#fff"/>
          </g>
        </g>
        <g id="Grupo_83054" data-name="Grupo 83054" transform="translate(49 46.479)">
          <g id="Grupo_83051" data-name="Grupo 83051">
            <g id="Grupo_83050" data-name="Grupo 83050">
              <path id="Trazado_121050" data-name="Trazado 121050" d="M3344.3,942.644h16.568q-.286-3.252-.574-6.507a9.266,9.266,0,0,0-9.013-8.284,7.49,7.49,0,0,0-7.554,8.284l.573,6.507Zm20.489,0,.006.06a4.66,4.66,0,0,1,3.812,4.092l1.693,19.218a3.753,3.753,0,0,1-3.786,4.153H3343.5a4.64,4.64,0,0,1-4.517-4.153l-1.693-19.218a3.745,3.745,0,0,1,3.093-4.092l-.58-6.567a11.024,11.024,0,0,1,11.132-12.2,13.633,13.633,0,0,1,13.282,12.2Q3364.5,939.391,3364.792,942.644Z" transform="translate(-3337.277 -923.932)" fill="#2ff980" fill-rule="evenodd"/>
            </g>
          </g>
          <g id="Grupo_83053" data-name="Grupo 83053" transform="translate(11.777 24.625)">
            <g id="Grupo_83052" data-name="Grupo 83052">
              <path id="Trazado_121051" data-name="Trazado 121051" d="M3372.793,989.719a4.933,4.933,0,0,1,4.816,4.427,3.983,3.983,0,0,1-2.739,4.227l.471,5.346a1.19,1.19,0,0,1-1.2,1.317h0a1.47,1.47,0,0,1-1.431-1.317l-.471-5.346a4.957,4.957,0,0,1-3.483-4.227A3.989,3.989,0,0,1,3372.793,989.719Z" transform="translate(-3368.74 -989.719)" fill="#583ae2" fill-rule="evenodd"/>
            </g>
          </g>
        </g>
        <g id="Grupo_83056" data-name="Grupo 83056" transform="translate(22.351 22.719)" opacity="0.31">
          <g id="Grupo_83055" data-name="Grupo 83055">
            <path id="Trazado_121052" data-name="Trazado 121052" d="M3338.439,864.674l-63.131,80.463a106.859,106.859,0,0,1-9.227-18.055l52.277-66.627a64.018,64.018,0,0,0,20.08,4.219Zm15.737-1.011a31.612,31.612,0,0,1-6.088.835q-1.6.132-3.17.2l-66.558,84.83q2.089,2.8,4.327,5.251l71.489-91.115Zm1.111,11.005-.407-4.035-68.758,87.634q1.037.973,2.1,1.877Z" transform="translate(-3266.082 -860.455)" fill="#fff" fill-rule="evenodd"/>
          </g>
        </g>
        <g id="Grupo_83088" data-name="Grupo 83088" transform="translate(21.941 25.496)">
          <g id="Grupo_83058" data-name="Grupo 83058" transform="translate(33.378)">
            <g id="Grupo_83057" data-name="Grupo 83057">
              <path id="Trazado_121053" data-name="Trazado 121053" d="M3363.343,875.469l1.938,4.695-4.249-2.9-3.738,2.9h0l1.112-4.695-4.247-2.9,0,0h4.937l1.1-4.668.006-.022v0l0,.006,1.936,4.689h4.936Z" transform="translate(-3354.157 -867.874)" fill="#583ae2" fill-rule="evenodd"/>
            </g>
          </g>
          <g id="Grupo_83060" data-name="Grupo 83060" transform="translate(52.711 5.792)">
            <g id="Grupo_83059" data-name="Grupo 83059">
              <path id="Trazado_121054" data-name="Trazado 121054" d="M3413.677,891.16l-.6,4.829-2.4-4.51-4.864.516h0l3.378-3.3-2.4-4.505v0l4.492,2.468,3.358-3.285.017-.016,0,0v.006l-.6,4.821,4.492,2.468Z" transform="translate(-3405.807 -883.348)" fill="#583ae2" fill-rule="evenodd"/>
            </g>
          </g>
          <g id="Grupo_83062" data-name="Grupo 83062" transform="translate(66.368 18.368)">
            <g id="Grupo_83061" data-name="Grupo 83061">
              <path id="Trazado_121055" data-name="Trazado 121055" d="M3449.874,926.129l-2.98,3.668.084-4.91-4.686-2.006h0l4.738-1.027.083-4.907v0l2.845,4.274,4.71-1.02.023,0,0,0,0,0-2.976,3.664,2.845,4.275Z" transform="translate(-3442.292 -916.945)" fill="#583ae2" fill-rule="evenodd"/>
            </g>
          </g>
          <g id="Grupo_83064" data-name="Grupo 83064" transform="translate(73.825 36.773)">
            <g id="Grupo_83063" data-name="Grupo 83063">
              <path id="Trazado_121056" data-name="Trazado 121056" d="M3467.478,975.044l-4.559,1.525,2.549-3.993-3.253-3.994h0l4.83,1.525,2.547-3.991v0l.434,4.935,4.8,1.518.024.007h0L3470.3,974.1l.435,4.936Z" transform="translate(-3462.214 -966.114)" fill="#583ae2" fill-rule="evenodd"/>
            </g>
          </g>
          <g id="Grupo_83066" data-name="Grupo 83066" transform="translate(69.701 55.247)">
            <g id="Grupo_83065" data-name="Grupo 83065">
              <path id="Trazado_121057" data-name="Trazado 121057" d="M3456.115,1023.413l-4.92-1.026,4.333-2.009-.947-4.908h0l3.626,3.67,4.329-2.006,0,0-2.091,4.274,3.6,3.648.018.018,0,0h-.008l-4.911-1.025-2.093,4.274Z" transform="translate(-3451.195 -1015.469)" fill="#583ae2" fill-rule="evenodd"/>
            </g>
          </g>
          <g id="Grupo_83068" data-name="Grupo 83068" transform="translate(57.782 68.036)">
            <g id="Grupo_83067" data-name="Grupo 83067">
              <path id="Trazado_121058" data-name="Trazado 121058" d="M3423.315,1056.931l-3.96-3.3,4.956.515,1.61-4.508h0l1.452,4.827,4.951.516h0l-4.057,2.468,1.443,4.8.006.023,0,.006-.008-.006-3.952-3.3-4.058,2.468Z" transform="translate(-3419.355 -1049.636)" fill="#583ae2" fill-rule="evenodd"/>
            </g>
          </g>
          <g id="Grupo_83070" data-name="Grupo 83070" transform="translate(40.166 74.176)">
            <g id="Grupo_83069" data-name="Grupo 83069">
              <path id="Trazado_121059" data-name="Trazado 121059" d="M3376.029,1070.738l-1.938-4.7,4.25,2.9,3.737-2.9h0l-1.112,4.7,4.247,2.9,0,0h-4.936l-1.1,4.666-.006.024v.006l0-.007-1.936-4.688h-4.936Z" transform="translate(-3372.292 -1066.041)" fill="#583ae2" fill-rule="evenodd"/>
            </g>
          </g>
          <g id="Grupo_83072" data-name="Grupo 83072" transform="translate(21.023 68.034)">
            <g id="Grupo_83071" data-name="Grupo 83071">
              <path id="Trazado_121060" data-name="Trazado 121060" d="M3326.012,1054.461l.6-4.829,2.406,4.51,4.863-.516h0l-3.377,3.3,2.4,4.507v0l-4.492-2.468-3.358,3.283-.016.016,0,0v-.009l.6-4.821-4.492-2.468Z" transform="translate(-3321.149 -1049.632)" fill="#583ae2" fill-rule="evenodd"/>
            </g>
          </g>
          <g id="Grupo_83074" data-name="Grupo 83074" transform="translate(7.695 55.245)">
            <g id="Grupo_83073" data-name="Grupo 83073">
              <path id="Trazado_121061" data-name="Trazado 121061" d="M3290.366,1019.135l2.98-3.67-.082,4.91,4.684,2.009h0l-4.737,1.025-.084,4.907v0l-2.844-4.274-4.711,1.019-.022.006h-.006l0-.006,2.975-3.662-2.844-4.274Z" transform="translate(-3285.545 -1015.465)" fill="#583ae2" fill-rule="evenodd"/>
            </g>
          </g>
          <g id="Grupo_83076" data-name="Grupo 83076" transform="translate(0 36.771)">
            <g id="Grupo_83075" data-name="Grupo 83075">
              <path id="Trazado_121062" data-name="Trazado 121062" d="M3272.364,970.1l4.561-1.525-2.549,4,3.252,3.992h0l-4.829-1.525-2.548,3.99,0,0-.433-4.935-4.8-1.516-.023-.009h0l.006,0,4.554-1.524-.434-4.936Z" transform="translate(-3264.986 -966.11)" fill="#583ae2" fill-rule="evenodd"/>
            </g>
          </g>
          <g id="Grupo_83078" data-name="Grupo 83078" transform="translate(3.887 18.368)">
            <g id="Grupo_83077" data-name="Grupo 83077">
              <path id="Trazado_121063" data-name="Trazado 121063" d="M3283.33,921.854l4.918,1.027-4.332,2.008.949,4.91h0l-3.627-3.668-4.329,2.006,0,0,2.092-4.275-3.6-3.648-.018-.018,0,0h.007l4.913,1.025,2.092-4.274Z" transform="translate(-3275.371 -916.945)" fill="#583ae2" fill-rule="evenodd"/>
            </g>
          </g>
          <g id="Grupo_83080" data-name="Grupo 83080" transform="translate(15.713 5.792)">
            <g id="Grupo_83079" data-name="Grupo 83079">
              <path id="Trazado_121064" data-name="Trazado 121064" d="M3315.977,888.692l3.959,3.3-4.954-.515-1.612,4.51h0l-1.45-4.829-4.953-.516h0l4.058-2.468-1.443-4.8-.007-.024v0l.006,0,3.954,3.3,4.057-2.468Z" transform="translate(-3306.965 -883.348)" fill="#583ae2" fill-rule="evenodd"/>
            </g>
          </g>
        </g>
      </g>
      <g id="Grupo_83086" data-name="Grupo 83086" transform="translate(136.26)">
        <g id="Grupo_83083" data-name="Grupo 83083" transform="translate(0 7.977)">
          <g id="Grupo_83082" data-name="Grupo 83082">
            <rect id="Rect치ngulo_34340" data-name="Rect치ngulo 34340" width="31.526" height="31.526" rx="5.611" fill="#ab9df1"/>
          </g>
        </g>
        <g id="Grupo_83085" data-name="Grupo 83085" transform="translate(1.98)">
          <g id="Grupo_83084" data-name="Grupo 83084">
            <path id="Trazado_121065" data-name="Trazado 121065" d="M3429.281,596.319l11.608-19.043,4.784-7.85a2.91,2.91,0,1,0-4.968-3.031l-4.364,7.16-9.827,16.122-7.72-10.615a2.912,2.912,0,0,0-4.716,3.418l10.287,14.15a2.916,2.916,0,0,0,4.07.648A2.867,2.867,0,0,0,3429.281,596.319Z" transform="translate(-3413.524 -565)" fill="#583ae2" fill-rule="evenodd"/>
          </g>
        </g>
      </g>
    </g>
  </g>
</svg>
