<svg xmlns="http://www.w3.org/2000/svg" width="203.956" height="206.215" viewBox="0 0 203.956 206.215">
  <g id="Grupo_957508" data-name="Grupo 957508" transform="translate(-845.739 -1789.726)">
    <path id="Trazado_657653" data-name="Trazado 657653" d="M1049.7,1891.706a101.978,101.978,0,1,1-101.978-101.98A101.979,101.979,0,0,1,1049.7,1891.706Z" transform="translate(0)" fill="#583ae2"/>
    <path id="Trazado_657654" data-name="Trazado 657654" d="M886.048,1942.656c2.418-17.366,45.473-40.216,74.874-36.919s56.878,22.63,63.91,36.919-3.3,65.726-3.3,65.726H897.558S881.859,1972.74,886.048,1942.656Z" transform="translate(-8.528 -24.914)" fill="#fff"/>
    <path id="Trazado_657655" data-name="Trazado 657655" d="M917.235,1897.287s-3.518-6.375,4.616-16.267,47.26-18.684,67.483-3.737,22.76,15.275,21.542,20-31.653,25.057-33.851,33.96-12.533,24.056-13.221,24.07-9.2-17.585-16.016-26.816S917.235,1897.287,917.235,1897.287Z" transform="translate(-15.234 -17.133)" fill="#afafaf"/>
    <path id="Trazado_657656" data-name="Trazado 657656" d="M936.2,1874.415c-.439,5.935,5.5,26.377,11.871,35.17s15.818,14.288,21.4,14.729,14.353-6.09,20.288-17.74,10.626-33.258,10.626-33.258Z" transform="translate(-19.477 -18.001)" fill="#ffb18f"/>
    <path id="Trazado_657657" data-name="Trazado 657657" d="M999.922,1875.388a12.562,12.562,0,0,0-1.9-2.021l-61.815,1.059c-.337,4.559,3.091,17.684,7.588,27.509,7.036-2.347,14.177-4.843,18.35-6.717,3.956-1.778,1.585-5.625,5.19-6.284s2.944,5.935,6.021,6.815c2.191.625,11.9,4.261,18.307,6.7C995.617,1892.982,998.771,1880.3,999.922,1875.388Z" transform="translate(-19.477 -18.012)" fill="#db826a"/>
    <path id="Trazado_657658" data-name="Trazado 657658" d="M918.327,1898.656s10.957-12.534,42.719-12.314,47.324,12.937,47.324,12.937-27.977-10.63-49.422-9.86C940.693,1890.074,918.327,1898.656,918.327,1898.656Z" transform="translate(-15.632 -20.806)" fill="#90ced6"/>
    <path id="Trazado_657659" data-name="Trazado 657659" d="M912.672,1886.327c-.763-.209,13.629-48.14,32.62-61.4,10.88-7.6,31.127-7.4,41.017.953,12.96,10.942,27.258,60.009,26.6,61.549s-17.022-12.766-50.644-13.629C927.973,1872.918,915.089,1886.986,912.672,1886.327Z" transform="translate(-14.408 -6.393)" fill="#f6f6f6"/>
    <path id="Trazado_657660" data-name="Trazado 657660" d="M912.68,1903.967s1.624-3.281,3.434-2.528c12.695,5.276,40.427,30.981,44.679,44.924,5.5,18.026,3.1,28.6,3.1,28.6s-8.571-23.3-21.321-39.566C932.4,1922.424,912.68,1903.967,912.68,1903.967Z" transform="translate(-14.416 -24.034)" fill="#f6f6f6"/>
    <path id="Trazado_657661" data-name="Trazado 657661" d="M1026.527,1905.042s-2.314-4.51-3.736-3.74c-11.845,6.415-39.887,31.241-44.125,45.146-5.5,18.023-1.159,28.494-1.159,28.494s6.417-22.462,19.166-38.728C1006.844,1923.238,1026.527,1905.042,1026.527,1905.042Z" transform="translate(-28.027 -24.009)" fill="#f6f6f6"/>
    <path id="Trazado_657662" data-name="Trazado 657662" d="M970.113,1906.967a21.98,21.98,0,0,1,4.276-2.088c1.026-.246,5.287,2.516,4.738,2.851S969.673,1907.737,970.113,1906.967Z" transform="translate(-26.781 -24.795)" fill="#db826a"/>
    <path id="Trazado_657663" data-name="Trazado 657663" d="M965.827,1920.051c-.238-.6,4.02-1.857,8.763-2.006s7.788.355,7.016.776c-.483.264-4.2.041-6.937.254S966.512,1921.762,965.827,1920.051Z" transform="translate(-25.859 -27.628)" fill="#7c4639"/>
    <path id="Trazado_657664" data-name="Trazado 657664" d="M964.476,1917.613c.99.578-1.864,2.2-.661,3.627,1.481,1.751,3.08.77,3.08,1.209s-2.244,1.461-4.176-1.209C961.564,1919.645,963.158,1916.843,964.476,1917.613Z" transform="translate(-25.106 -27.513)" fill="#db826a"/>
    <path id="Trazado_657665" data-name="Trazado 657665" d="M972.589,1825.2c-11.883,0-22.181,38.76-24.652,51.533a100.361,100.361,0,0,1,21.928-1.691,110.086,110.086,0,0,1,23.414,3.051C991.213,1864.5,988.536,1825.2,972.589,1825.2Z" transform="translate(-22.009 -7.64)" fill="#fff"/>
    <path id="Trazado_657666" data-name="Trazado 657666" d="M966.447,1976.718a69.455,69.455,0,0,0-17.766-39.176c-7.65-8.36-14.389-13.682-19.894-17.083a247.143,247.143,0,0,1,17.257,19.063C956.345,1952.663,963.915,1970.39,966.447,1976.718Z" transform="translate(-17.885 -28.154)" fill="#90ced6"/>
    <path id="Trazado_657667" data-name="Trazado 657667" d="M886.9,1936.1c-14.893,11.745-32.4,56.6-35.04,71.109s46.874,19.708,55.885,14.871-5.108-65.429-10.385-72.464S889.971,1933.674,886.9,1936.1Z" transform="translate(-1.297 -31.434)" fill="#fff"/>
    <path id="Trazado_657668" data-name="Trazado 657668" d="M997.415,1941.028a225.2,225.2,0,0,1,15.776-17.468,103.306,103.306,0,0,0-16.223,14.65,69.385,69.385,0,0,0-17.64,38.151C981.638,1969.478,987.676,1953.45,997.415,1941.028Z" transform="translate(-28.769 -28.822)" fill="#afafaf"/>
    <path id="Trazado_657669" data-name="Trazado 657669" d="M894.492,1969.4s-5.5,15.608-9.011,18.905-9.892.88-13.85,3.737-4.616,11.429-4.616,11.429,8.824-6.595,17.491-3.3,15.043-3.077,15.043-3.077Z" transform="translate(-4.582 -38.694)" fill="#e8e8e8"/>
    <path id="Trazado_657670" data-name="Trazado 657670" d="M897.319,2013.3s-12.553-3.251-17.7,1.368a10.189,10.189,0,0,0-3.57,7.26,18.455,18.455,0,0,1,6.849-4.87c5.7-1.963,18.473,5.9,13.317-.632Z" transform="translate(-6.528 -47.909)" fill="#e8e8e8"/>
    <path id="Trazado_657671" data-name="Trazado 657671" d="M1043.422,1936.1c14.89,11.745,32.4,56.6,35.038,71.109s-46.872,19.708-55.884,14.871,5.107-65.429,10.382-72.464S1040.351,1933.674,1043.422,1936.1Z" transform="translate(-37.45 -31.434)" fill="#fff"/>
    <path id="Trazado_657672" data-name="Trazado 657672" d="M1043.073,1969.4s5.494,15.608,9.012,18.905,9.891.88,13.847,3.737,4.617,11.429,4.617,11.429-8.822-6.595-17.491-3.3-15.041-3.077-15.041-3.077Z" transform="translate(-41.408 -38.694)" fill="#e8e8e8"/>
    <path id="Trazado_657673" data-name="Trazado 657673" d="M1043.311,2013.3s12.552-3.251,17.695,1.368a10.186,10.186,0,0,1,3.572,7.26,18.461,18.461,0,0,0-6.851-4.87c-5.7-1.963-18.473,5.9-13.317-.632Z" transform="translate(-42.526 -47.909)" fill="#e8e8e8"/>
    <path id="Trazado_657674" data-name="Trazado 657674" d="M1067.385,1988.646s-2.068-5.653-6.023-7.193-9.617-5.605-9.617-5.605,2.1,10.234,4.27,10.991A40.083,40.083,0,0,0,1067.385,1988.646Z" transform="translate(-44.364 -40.082)" fill="#e8e8e8"/>
    <rect id="Rectángulo_45423" data-name="Rectángulo 45423" width="123.976" height="71.881" transform="translate(888.591 1920.6)" fill="#aaa"/>
    <rect id="Rectángulo_45424" data-name="Rectángulo 45424" width="123.976" height="3.538" transform="translate(888.591 1992.402)" fill="#8c8c8c"/>
    <g id="Grupo_957506" data-name="Grupo 957506" transform="translate(910.838 1991.442)">
      <rect id="Rectángulo_45425" data-name="Rectángulo 45425" width="13.187" height="1.227" fill="#cecece"/>
      <rect id="Rectángulo_45426" data-name="Rectángulo 45426" width="13.19" height="1.227" transform="translate(66.294)" fill="#cecece"/>
    </g>
    <rect id="Rectángulo_45427" data-name="Rectángulo 45427" width="123.976" height="1.67" transform="translate(888.591 1920.769)" fill="#cecece"/>
    <path id="Trazado_657675" data-name="Trazado 657675" d="M874.817,1988.646s2.067-5.653,6.023-7.193,9.618-5.605,9.618-5.605-2.1,10.234-4.272,10.991A40.073,40.073,0,0,1,874.817,1988.646Z" transform="translate(-6.262 -40.082)" fill="#e8e8e8"/>
    <g id="Grupo_957507" data-name="Grupo 957507" transform="translate(942.831 1946.876)">
      <path id="Trazado_657676" data-name="Trazado 657676" d="M974.829,1990.007h-5.35v5.108h1.575v-3.694h3.775Z" transform="translate(-969.479 -1990.007)" fill="#474747"/>
      <path id="Trazado_657677" data-name="Trazado 657677" d="M982.412,1990.007h5.35v5.108h-1.573v-3.694h-3.777Z" transform="translate(-972.264 -1990.007)" fill="#474747"/>
      <path id="Trazado_657678" data-name="Trazado 657678" d="M982.412,2007.134h5.35v-5.105h-1.573v3.693h-3.777Z" transform="translate(-972.264 -1992.596)" fill="#474747"/>
      <path id="Trazado_657679" data-name="Trazado 657679" d="M974.829,2007.134h-5.35v-5.105h1.575v3.693h3.775Z" transform="translate(-969.479 -1992.596)" fill="#474747"/>
    </g>
  </g>
</svg>
