<svg xmlns="http://www.w3.org/2000/svg" xmlns:xlink="http://www.w3.org/1999/xlink" width="252.771" height="233.107" viewBox="0 0 252.771 233.107">
  <defs>
    <linearGradient id="linear-gradient" x1="0.268" y1="-0.039" x2="0.869" y2="1.501" gradientUnits="objectBoundingBox">
      <stop offset="0" stop-color="#ab9df1"/>
      <stop offset="1" stop-color="#fff"/>
    </linearGradient>
    <clipPath id="clip-path">
      <path id="Trazado_113596" data-name="Trazado 113596" d="M332.88,162.211l-53.2,94.117a30.308,30.308,0,0,0,9.437,40.039L370.6,351.33a30.305,30.305,0,0,0,23.788,4.4l110.509-25.6a30.308,30.308,0,0,0,23.469-29.473l.162-92.883a30.308,30.308,0,0,0-23.79-29.652l-138.955-30.6A30.31,30.31,0,0,0,332.88,162.211Z" fill="none"/>
    </clipPath>
  </defs>
  <g id="Grupo_80227" data-name="Grupo 80227" transform="translate(-275.757 -146.814)">
    <path id="Trazado_113559" data-name="Trazado 113559" d="M332.88,162.24l-53.2,94.118A30.308,30.308,0,0,0,289.12,296.4L370.6,351.36a30.313,30.313,0,0,0,23.788,4.4l110.509-25.6a30.308,30.308,0,0,0,23.469-29.473l.162-92.883a30.308,30.308,0,0,0-23.79-29.652l-138.955-30.6A30.308,30.308,0,0,0,332.88,162.24Z" fill="#ab9df1"/>
    <path id="Trazado_113560" data-name="Trazado 113560" d="M451.4,354.879l57.777-13.3a3.308,3.308,0,0,1,4.033,2.9l3.129,31.8a3.308,3.308,0,0,1-4.363,3.454l-60.786-20.8A2.115,2.115,0,0,1,451.4,354.879Z" fill="#2ff980"/>
    <path id="Trazado_113561" data-name="Trazado 113561" d="M310.862,177.833,321.9,158.738a4.719,4.719,0,0,0-3.136-6.985l-19.433-3.989a4.2,4.2,0,0,0-5.016,3.629l-2.644,22.757a4.2,4.2,0,0,0,3.769,4.664l11.384,1.1A4.2,4.2,0,0,0,310.862,177.833Z" fill="#40327b"/>
    <path id="Trazado_113562" data-name="Trazado 113562" d="M407.1,263.346l-97.572-56.333,22.6-32.952L446.94,240.347Z" fill="url(#linear-gradient)" style="mix-blend-mode: lighten;isolation: isolate"/>
    <g id="Grupo_80210" data-name="Grupo 80210">
      <g id="Grupo_80204" data-name="Grupo 80204">
        <path id="Trazado_113563" data-name="Trazado 113563" d="M412.181,321.937,346.42,283.975l52.256-30.17,65.76,37.962Z" fill="#40327b"/>
        <path id="Trazado_113564" data-name="Trazado 113564" d="M412.181,250.281,346.42,212.319l52.256-30.17,65.76,37.962Z" fill="#583ae2"/>
        <path id="Trazado_113565" data-name="Trazado 113565" d="M464.436,260.837V220.112l-52.255,30.17v40.725Z" fill="#4b2dd6"/>
        <path id="Trazado_113566" data-name="Trazado 113566" d="M346.42,212.319v40.725l65.761,37.962V250.281Z" fill="#6649e9"/>
      </g>
      <g id="Grupo_80209" data-name="Grupo 80209">
        <g id="Grupo_80205" data-name="Grupo 80205">
          <path id="Trazado_113567" data-name="Trazado 113567" d="M386.855,202.794,358.387,219.23v8.811l8.449,4.878v-8.811L395.3,207.672Z" fill="#fff"/>
          <path id="Trazado_113568" data-name="Trazado 113568" d="M404.94,213.23l-28.468,16.436v8.811l8.449,4.878v-8.811l28.468-16.436Z" fill="#fff"/>
          <path id="Trazado_113569" data-name="Trazado 113569" d="M423.044,223.68l-28.468,16.436v8.811l8.449,4.878v-8.811l28.468-16.436Z" fill="#fff"/>
        </g>
        <g id="Grupo_80206" data-name="Grupo 80206">
          <path id="Trazado_113570" data-name="Trazado 113570" d="M386.855,202.794v3.549l5.428,3.073,3.02-1.744Z" fill="#826be9"/>
          <path id="Trazado_113571" data-name="Trazado 113571" d="M361.449,226.22l-3.062,1.822,8.449,4.878v-3.667Z" fill="#826be9"/>
          <path id="Trazado_113572" data-name="Trazado 113572" d="M386.855,202.794,358.387,219.23v8.811l3.062-1.822v-5.2l25.421-14.677Z" fill="#40327b"/>
        </g>
        <g id="Grupo_80207" data-name="Grupo 80207">
          <path id="Trazado_113573" data-name="Trazado 113573" d="M404.94,213.23v3.549l5.428,3.073,3.021-1.744Z" fill="#826be9"/>
          <path id="Trazado_113574" data-name="Trazado 113574" d="M379.534,236.655l-3.062,1.822,8.449,4.878v-3.667Z" fill="#826be9"/>
          <path id="Trazado_113575" data-name="Trazado 113575" d="M404.94,213.23l-28.468,16.436v8.811l3.062-1.822v-5.2l25.421-14.677Z" fill="#40327b"/>
        </g>
        <g id="Grupo_80208" data-name="Grupo 80208">
          <path id="Trazado_113576" data-name="Trazado 113576" d="M423.044,223.68v3.549l5.428,3.073,3.021-1.744Z" fill="#826be9"/>
          <path id="Trazado_113577" data-name="Trazado 113577" d="M397.638,247.106l-3.062,1.822,8.449,4.878v-3.667Z" fill="#826be9"/>
          <path id="Trazado_113578" data-name="Trazado 113578" d="M423.044,223.68l-28.468,16.436v8.811l3.062-1.822v-5.2l25.421-14.677Z" fill="#40327b"/>
        </g>
      </g>
    </g>
    <g id="Grupo_80218" data-name="Grupo 80218">
      <g id="Grupo_80217" data-name="Grupo 80217" clip-path="url(#clip-path)">
        <g id="Grupo_80216" data-name="Grupo 80216">
          <g id="Grupo_80212" data-name="Grupo 80212">
            <g id="Grupo_80211" data-name="Grupo 80211">
              <path id="Trazado_113579" data-name="Trazado 113579" d="M454.751,294.263l34.281-19.792v-15.2L454.751,279.06Z" fill="#4b2dd6"/>
              <path id="Trazado_113580" data-name="Trazado 113580" d="M454.751,279.06l34.281-19.792-34.28-19.791-34.281,19.792Z" fill="#583ae2"/>
              <path id="Trazado_113581" data-name="Trazado 113581" d="M454.752,271.911l21.9-12.643-21.9-12.643-21.9,12.643Z" fill="#fff"/>
              <path id="Trazado_113582" data-name="Trazado 113582" d="M454.752,248.927l19.9,11.492,1.993-1.151-21.9-12.643-21.9,12.643,1.993,1.151Z" fill="#826be9"/>
              <path id="Trazado_113583" data-name="Trazado 113583" d="M454.753,240.225l33.631,19.417.648-.374-34.28-19.791-34.281,19.792.648.374Z" fill="#826be9"/>
              <path id="Trazado_113584" data-name="Trazado 113584" d="M420.471,274.471l34.281,19.792v-15.2l-34.281-19.792Z" fill="#4629cc"/>
            </g>
            <path id="Trazado_113585" data-name="Trazado 113585" d="M454.751,278.3l33.621-19.411.659.381L454.751,279.06l-34.28-19.791.659-.381Z" fill="#826be9"/>
          </g>
          <path id="Trazado_113586" data-name="Trazado 113586" d="M461.353,281.755l19.893-11.615L498,283.558l1.418,11.583V305.7l59.492,36.247,16.547,9.771-2.521,7.565-11.5,4.57-15.917-4.728-21.276-14.184L489.032,325.4l-9.861-7.565-.63-16.075-1.261-9.771Z" fill="#fff"/>
          <g id="Grupo_80213" data-name="Grupo 80213">
            <path id="Trazado_113587" data-name="Trazado 113587" d="M560.594,366.519a19.109,19.109,0,0,0,19.036-19.067V253.744a2.6,2.6,0,0,0-5.2,0v93.708a13.835,13.835,0,0,1-20.753,11.982l-67.348-38.883a9.837,9.837,0,0,1-4.9-8.495v-11.91a15.049,15.049,0,0,0-7.505-13l-9.676-5.587a2.6,2.6,0,1,0-2.6,4.5l9.676,5.587a9.837,9.837,0,0,1,4.9,8.495v11.91a15.051,15.051,0,0,0,7.5,13l67.349,38.884A18.99,18.99,0,0,0,560.594,366.519Z" fill="#fff"/>
          </g>
          <path id="Trazado_113588" data-name="Trazado 113588" d="M480.284,271.094a2.6,2.6,0,0,1,3.552-.951l9.676,5.587a15.048,15.048,0,0,1,7.5,13v11.911a9.839,9.839,0,0,0,4.9,8.495L577,350.172a13.878,13.878,0,0,0,5.649,1.808c-.18,1.72-.113,3.473-.255,5.206a19.07,19.07,0,0,1-7.994-2.511L503.32,313.636a15.049,15.049,0,0,1-7.5-13V288.727a9.836,9.836,0,0,0-4.9-8.494l-9.676-5.587A2.6,2.6,0,0,1,480.284,271.094Z" fill="#fff"/>
          <path id="Trazado_113589" data-name="Trazado 113589" d="M568.087,364.957l7.907-9.889,1.123-11.7V315l-.079-50.728,20.717,3.523v-9.637a2.6,2.6,0,0,1,5.2,0v80.032a18.844,18.844,0,0,1-9.518,16.487,19.469,19.469,0,0,1-3.319,1.519l-.007.007Z" fill="#826be9"/>
          <g id="Grupo_80214" data-name="Grupo 80214">
            <path id="Trazado_113590" data-name="Trazado 113590" d="M560.594,366.519a19.109,19.109,0,0,0,19.036-19.067V253.744a2.6,2.6,0,0,0-5.2,0v93.708a13.835,13.835,0,0,1-20.753,11.982l-67.348-38.883a9.837,9.837,0,0,1-4.9-8.495v-11.91a15.049,15.049,0,0,0-7.505-13l-9.676-5.587a2.6,2.6,0,1,0-2.6,4.5l9.676,5.587a9.837,9.837,0,0,1,4.9,8.495v11.91a15.051,15.051,0,0,0,7.5,13l67.349,38.884A18.99,18.99,0,0,0,560.594,366.519Z" fill="#ab9df1"/>
          </g>
          <g id="Grupo_80215" data-name="Grupo 80215">
            <path id="Trazado_113591" data-name="Trazado 113591" d="M447.517,286.971l3.5,2.02v-7.028l-3.5-2.02Z" fill="#fff" opacity="0.2"/>
            <path id="Trazado_113592" data-name="Trazado 113592" d="M441.69,283.607l3.5,2.02V278.6l-3.5-2.02Z" fill="#fff" opacity="0.4"/>
            <path id="Trazado_113593" data-name="Trazado 113593" d="M435.862,280.242l3.5,2.02v-7.028l-3.5-2.02Z" fill="#fff" opacity="0.8"/>
            <path id="Trazado_113594" data-name="Trazado 113594" d="M430.034,276.878l3.5,2.02V271.87l-3.5-2.02Z" fill="#fff"/>
            <path id="Trazado_113595" data-name="Trazado 113595" d="M424.207,273.513l3.5,2.02V268.5l-3.5-2.02Z" fill="#fff"/>
          </g>
        </g>
      </g>
    </g>
    <g id="Grupo_80219" data-name="Grupo 80219">
      <path id="Trazado_113597" data-name="Trazado 113597" d="M388.154,261.563a8.18,8.18,0,0,0,3.7,6.411c2.045,1.181,3.7.224,3.7-2.137a8.182,8.182,0,0,0-3.7-6.411C389.811,258.246,388.154,259.2,388.154,261.563Z" fill="#fff"/>
      <ellipse id="Elipse_4732" data-name="Elipse 4732" cx="3.022" cy="5.235" rx="3.022" ry="5.235" transform="matrix(0.866, -0.5, 0.5, 0.866, 373.14, 252.895)" fill="#fff"/>
      <path id="Trazado_113598" data-name="Trazado 113598" d="M361.192,246a8.181,8.181,0,0,0,3.7,6.411c2.044,1.18,3.7.223,3.7-2.137a8.183,8.183,0,0,0-3.7-6.411C362.85,242.68,361.192,243.637,361.192,246Z" fill="#fff"/>
      <path id="Trazado_113599" data-name="Trazado 113599" d="M390.03,258.949a3.562,3.562,0,0,0-.278,1.456,8.182,8.182,0,0,0,3.7,6.411,3.138,3.138,0,0,0,1.826.477c-.553,1.239-1.875,1.575-3.424.681a8.18,8.18,0,0,1-3.7-6.411C388.154,259.974,388.914,259.042,390.03,258.949Z" fill="#826be9"/>
      <path id="Trazado_113600" data-name="Trazado 113600" d="M376.549,251.166a3.562,3.562,0,0,0-.278,1.456,8.182,8.182,0,0,0,3.7,6.411,3.14,3.14,0,0,0,1.826.477c-.553,1.239-1.875,1.575-3.423.681a8.179,8.179,0,0,1-3.7-6.411C374.673,252.191,375.434,251.259,376.549,251.166Z" fill="#826be9"/>
      <path id="Trazado_113601" data-name="Trazado 113601" d="M363.068,243.383a3.562,3.562,0,0,0-.278,1.456,8.18,8.18,0,0,0,3.7,6.411,3.135,3.135,0,0,0,1.825.477c-.552,1.239-1.875,1.575-3.423.681a8.181,8.181,0,0,1-3.7-6.411C361.192,244.407,361.953,243.476,363.068,243.383Z" fill="#826be9"/>
    </g>
    <g id="Grupo_80226" data-name="Grupo 80226">
      <g id="Grupo_80220" data-name="Grupo 80220">
        <path id="Trazado_113602" data-name="Trazado 113602" d="M475.482,214.672l-30.6-17.664L469.2,182.969l30.6,17.664Z" fill="#40327b"/>
        <path id="Trazado_113603" data-name="Trazado 113603" d="M475.482,181.33l-30.6-17.664L469.2,149.627l30.6,17.665Z" fill="#583ae2"/>
        <path id="Trazado_113604" data-name="Trazado 113604" d="M499.8,186.241v-18.95L475.482,181.33v18.95Z" fill="#4b2dd6"/>
        <path id="Trazado_113605" data-name="Trazado 113605" d="M444.883,163.665v18.95l30.6,17.664V181.33Z" fill="#6649e9"/>
      </g>
      <g id="Grupo_80225" data-name="Grupo 80225">
        <g id="Grupo_80221" data-name="Grupo 80221">
          <path id="Trazado_113606" data-name="Trazado 113606" d="M463.7,159.233l-13.247,7.648v4.1l3.931,2.27v-4.1l13.247-7.648Z" fill="#fff"/>
          <path id="Trazado_113607" data-name="Trazado 113607" d="M472.113,164.089l-13.247,7.648v4.1l3.931,2.27v-4.1l13.247-7.648Z" fill="#fff"/>
          <path id="Trazado_113608" data-name="Trazado 113608" d="M480.537,168.952,467.29,176.6v4.1l3.931,2.27v-4.1l13.247-7.648Z" fill="#fff"/>
        </g>
        <g id="Grupo_80222" data-name="Grupo 80222">
          <path id="Trazado_113609" data-name="Trazado 113609" d="M463.7,159.233v1.651l2.526,1.43,1.405-.811Z" fill="#826be9"/>
          <path id="Trazado_113610" data-name="Trazado 113610" d="M451.876,170.133l-1.425.848,3.931,2.27v-1.706Z" fill="#826be9"/>
          <path id="Trazado_113611" data-name="Trazado 113611" d="M463.7,159.233l-13.247,7.648v4.1l1.425-.848v-2.42l11.829-6.829Z" fill="#40327b"/>
        </g>
        <g id="Grupo_80223" data-name="Grupo 80223">
          <path id="Trazado_113612" data-name="Trazado 113612" d="M472.113,164.089v1.651l2.526,1.43,1.405-.812Z" fill="#826be9"/>
          <path id="Trazado_113613" data-name="Trazado 113613" d="M460.291,174.989l-1.425.848,3.931,2.27V176.4Z" fill="#826be9"/>
          <path id="Trazado_113614" data-name="Trazado 113614" d="M472.113,164.089l-13.247,7.648v4.1l1.425-.848v-2.42l11.829-6.829Z" fill="#40327b"/>
        </g>
        <g id="Grupo_80224" data-name="Grupo 80224">
          <path id="Trazado_113615" data-name="Trazado 113615" d="M480.537,168.952V170.6l2.526,1.43,1.406-.811Z" fill="#826be9"/>
          <path id="Trazado_113616" data-name="Trazado 113616" d="M468.715,179.852l-1.425.848,3.931,2.27v-1.706Z" fill="#826be9"/>
          <path id="Trazado_113617" data-name="Trazado 113617" d="M480.537,168.952,467.29,176.6v4.1l1.425-.848v-2.42l11.829-6.829Z" fill="#40327b"/>
        </g>
      </g>
    </g>
  </g>
</svg>
