<svg xmlns="http://www.w3.org/2000/svg" width="310.307" height="289.504" viewBox="0 0 310.307 289.504">
  <g id="Grupo_961267" data-name="Grupo 961267" transform="translate(-1145.038 -1073.001)">
    <path id="Trazado_660076" data-name="Trazado 660076" d="M0,0,.183,54" transform="translate(1276.317 1308.5)" fill="none" stroke="#000" stroke-width="3"/>
    <path id="Trazado_660074" data-name="Trazado 660074" d="M933.326,3198.18a1.659,1.659,0,0,1-1.659-1.659v-78.332h72.013a1.659,1.659,0,0,1,0,3.318h-68.7v75.014A1.659,1.659,0,0,1,933.326,3198.18Z" transform="translate(450.006 -1916.866)" fill="#fff"/>
    <path id="Trazado_657732" data-name="Trazado 657732" d="M1263.327,3047.306a1.66,1.66,0,0,1-1.66-1.66V3013.2H1048.36v29.9a1.659,1.659,0,0,1-3.319,0v-33.218h219.945v35.77A1.659,1.659,0,0,1,1263.327,3047.306Z" transform="translate(120.005 -1916.866)"/>
    <path id="Trazado_657733" data-name="Trazado 657733" d="M1155.014,2989.867a129.981,129.981,0,1,0,129.98,129.981A129.981,129.981,0,0,0,1155.014,2989.867Z" transform="translate(120.005 -1916.866)" fill="#45bbcc"/>
    <path id="Trazado_657734" data-name="Trazado 657734" d="M1046.7,3095.608a1.659,1.659,0,0,1-1.66-1.659v-50.855a1.659,1.659,0,0,1,3.319,0v50.855A1.659,1.659,0,0,1,1046.7,3095.608Z" transform="translate(120.005 -1916.866)"/>
    <g id="Grupo_957521" data-name="Grupo 957521" transform="translate(120.005 -1916.866)">
      <path id="Trazado_657688" data-name="Trazado 657688" d="M1264.986,3229.821H1045.041v-84.074a1.659,1.659,0,0,1,3.319,0V3226.5h213.307V3045.646a1.659,1.659,0,0,1,3.319,0Z"/>
    </g>
    <path id="Trazado_660075" data-name="Trazado 660075" d="M-42.636-4.526h-1.67V0h-3.085V-12.8h5.036a5.621,5.621,0,0,1,3.56,1.01,3.421,3.421,0,0,1,1.283,2.853,4.155,4.155,0,0,1-.541,2.213A3.837,3.837,0,0,1-39.744-5.3l2.672,5.167V0h-3.3ZM-44.306-6.9h1.951a1.751,1.751,0,0,0,1.323-.463,1.788,1.788,0,0,0,.444-1.291,1.809,1.809,0,0,0-.448-1.3,1.735,1.735,0,0,0-1.318-.471h-1.951ZM-31.184.176a4.889,4.889,0,0,1-3.542-1.305,4.507,4.507,0,0,1-1.354-3.4v-.246a5.84,5.84,0,0,1,.541-2.575,3.955,3.955,0,0,1,1.578-1.727A4.763,4.763,0,0,1-31.5-9.686a4.117,4.117,0,0,1,3.164,1.244,4.887,4.887,0,0,1,1.16,3.467v1.151h-5.889a2.135,2.135,0,0,0,.694,1.257,2.066,2.066,0,0,0,1.389.457,2.662,2.662,0,0,0,2.2-.984l1.354,1.6A3.784,3.784,0,0,1-29-.277,5.3,5.3,0,0,1-31.184.176ZM-31.518-7.4q-1.3,0-1.547,1.723h2.988v-.229a1.467,1.467,0,0,0-.36-1.1A1.434,1.434,0,0,0-31.518-7.4Zm10.512,4.729a.684.684,0,0,0-.4-.606,6.016,6.016,0,0,0-1.5-.475A6.853,6.853,0,0,1-24.732-4.4a3.062,3.062,0,0,1-1.1-.971,2.319,2.319,0,0,1-.378-1.31,2.628,2.628,0,0,1,1.081-2.158,4.453,4.453,0,0,1,2.83-.848,4.934,4.934,0,0,1,3.023.853,2.666,2.666,0,0,1,1.143,2.241H-21.1q0-1.143-1.2-1.143a1.194,1.194,0,0,0-.782.259.8.8,0,0,0-.316.646.737.737,0,0,0,.387.642,3.654,3.654,0,0,0,1.235.4,10.671,10.671,0,0,1,1.49.378A2.706,2.706,0,0,1-18.149-2.76,2.491,2.491,0,0,1-19.305-.642,5.068,5.068,0,0,1-22.3.176a5.172,5.172,0,0,1-2.18-.439,3.645,3.645,0,0,1-1.494-1.2,2.707,2.707,0,0,1-.536-1.591h2.769a1.145,1.145,0,0,0,.439.962,1.808,1.808,0,0,0,1.081.3,1.422,1.422,0,0,0,.91-.246A.787.787,0,0,0-21.006-2.672ZM-7.937-4.685a5.735,5.735,0,0,1-1,3.538A3.2,3.2,0,0,1-11.628.176a2.742,2.742,0,0,1-2.153-.958V3.656h-2.962V-9.51h2.769l.088.879a2.742,2.742,0,0,1,2.241-1.055,3.224,3.224,0,0,1,2.733,1.3,5.805,5.805,0,0,1,.976,3.564ZM-10.9-4.869q0-2.531-1.477-2.531a1.394,1.394,0,0,0-1.406.756V-2.9a1.439,1.439,0,0,0,1.424.791q1.415,0,1.459-2.443ZM-2.03.176A4.889,4.889,0,0,1-5.572-1.129a4.507,4.507,0,0,1-1.354-3.4v-.246a5.84,5.84,0,0,1,.541-2.575A3.955,3.955,0,0,1-4.808-9.075a4.763,4.763,0,0,1,2.461-.611A4.117,4.117,0,0,1,.817-8.442a4.887,4.887,0,0,1,1.16,3.467v1.151H-3.911a2.135,2.135,0,0,0,.694,1.257,2.066,2.066,0,0,0,1.389.457,2.662,2.662,0,0,0,2.2-.984l1.354,1.6A3.784,3.784,0,0,1,.154-.277,5.3,5.3,0,0,1-2.03.176ZM-2.364-7.4q-1.3,0-1.547,1.723H-.923v-.229a1.467,1.467,0,0,0-.36-1.1A1.434,1.434,0,0,0-2.364-7.4Zm8.982-4.474V-9.51H8.183v2.057H6.618V-3.1a1.111,1.111,0,0,0,.193.747,1.037,1.037,0,0,0,.765.211A4.345,4.345,0,0,0,8.314-2.2V-.079a5.466,5.466,0,0,1-1.67.255A3.1,3.1,0,0,1,4.386-.545a2.954,2.954,0,0,1-.729-2.188v-4.72H2.443V-9.51H3.656v-2.364ZM14.7,0a3.344,3.344,0,0,1-.281-.853A2.754,2.754,0,0,1,12.138.176,3.374,3.374,0,0,1,9.853-.637a2.588,2.588,0,0,1-.94-2.043,2.66,2.66,0,0,1,1.143-2.338,5.821,5.821,0,0,1,3.322-.791h.914v-.5q0-1.316-1.134-1.316A.927.927,0,0,0,12.1-6.587H9.141a2.655,2.655,0,0,1,1.173-2.239,4.931,4.931,0,0,1,2.993-.86,4.323,4.323,0,0,1,2.874.888,3.086,3.086,0,0,1,1.081,2.435v4.21a4.311,4.311,0,0,0,.4,2V0ZM12.85-1.934a1.652,1.652,0,0,0,.918-.237,1.487,1.487,0,0,0,.523-.536V-4.228H13.43q-1.547,0-1.547,1.389a.848.848,0,0,0,.272.655A.986.986,0,0,0,12.85-1.934Zm11.8-4.9-.976-.07a1.752,1.752,0,0,0-1.793.879V0H18.923V-9.51H21.7l.1,1.222a2.294,2.294,0,0,1,2.083-1.4,2.888,2.888,0,0,1,.826.105ZM33.328,0H30.357V-13.5h2.971Zm7.181,0a3.344,3.344,0,0,1-.281-.853A2.754,2.754,0,0,1,37.942.176a3.374,3.374,0,0,1-2.285-.813,2.588,2.588,0,0,1-.94-2.043,2.66,2.66,0,0,1,1.143-2.338,5.821,5.821,0,0,1,3.322-.791H40.1v-.5q0-1.316-1.134-1.316a.927.927,0,0,0-1.055,1.042H34.945a2.655,2.655,0,0,1,1.173-2.239,4.931,4.931,0,0,1,2.993-.86,4.323,4.323,0,0,1,2.874.888,3.086,3.086,0,0,1,1.081,2.435v4.21a4.311,4.311,0,0,0,.4,2V0ZM38.654-1.934a1.652,1.652,0,0,0,.918-.237,1.487,1.487,0,0,0,.523-.536V-4.228h-.861q-1.547,0-1.547,1.389a.848.848,0,0,0,.272.655A.986.986,0,0,0,38.654-1.934ZM-64.731,17.891a1.317,1.317,0,0,0,.967-.338,1.241,1.241,0,0,0,.334-.945h2.777a3.288,3.288,0,0,1-1.121,2.566,4.168,4.168,0,0,1-2.887,1,4.22,4.22,0,0,1-3.27-1.3,5.125,5.125,0,0,1-1.2-3.6v-.123a5.792,5.792,0,0,1,.532-2.544,3.872,3.872,0,0,1,1.534-1.7,4.573,4.573,0,0,1,2.373-.593,4.116,4.116,0,0,1,2.944,1.028,3.647,3.647,0,0,1,1.09,2.786h-2.777A1.626,1.626,0,0,0-63.791,13a1.244,1.244,0,0,0-.967-.4q-1.151,0-1.345,1.468a10.357,10.357,0,0,0-.062,1.283,4.068,4.068,0,0,0,.343,1.986A1.187,1.187,0,0,0-64.731,17.891Zm4.957-2.733a5.613,5.613,0,0,1,.554-2.536,3.96,3.96,0,0,1,1.591-1.709,4.791,4.791,0,0,1,2.435-.6,4.373,4.373,0,0,1,3.366,1.323,5.076,5.076,0,0,1,1.23,3.6v.105a4.925,4.925,0,0,1-1.235,3.529,4.384,4.384,0,0,1-3.344,1.305,4.434,4.434,0,0,1-3.261-1.217,4.761,4.761,0,0,1-1.327-3.3Zm2.962.185a3.538,3.538,0,0,0,.413,1.934,1.376,1.376,0,0,0,1.222.615q1.582,0,1.617-2.435v-.3q0-2.558-1.635-2.558-1.485,0-1.608,2.206Zm10.239-4.852.1,1.116a3.225,3.225,0,0,1,2.716-1.292,2.713,2.713,0,0,1,2.219.888,4.226,4.226,0,0,1,.76,2.672V20h-2.971V14a1.6,1.6,0,0,0-.29-1.059A1.342,1.342,0,0,0-45.1,12.6a1.413,1.413,0,0,0-1.292.686V20h-2.962V10.49ZM-38.452,20V12.547h-1.38V10.49h1.38v-.316A3.631,3.631,0,0,1-37.2,7.265a4.987,4.987,0,0,1,3.243-.949,11.509,11.509,0,0,1,3.094.51l-.4,2.338-.492-.132a7.832,7.832,0,0,0-2.021-.255q-1.7,0-1.7,1.547v.167h1.863v2.057h-1.863V20Zm8.947,0h-2.979V10.49H-29.5Zm1.433-4.825a5.809,5.809,0,0,1,.976-3.56,3.211,3.211,0,0,1,2.725-1.3,2.731,2.731,0,0,1,2.145,1V6.5h2.971V20H-21.92l-.149-1.02a2.8,2.8,0,0,1-2.32,1.2,3.205,3.205,0,0,1-2.689-1.3A5.993,5.993,0,0,1-28.072,15.175Zm2.962.185q0,2.531,1.477,2.531a1.458,1.458,0,0,0,1.406-.826V13.443a1.419,1.419,0,0,0-1.389-.844q-1.371,0-1.485,2.215Zm12.138,4.816a4.889,4.889,0,0,1-3.542-1.305,4.507,4.507,0,0,1-1.354-3.4v-.246a5.84,5.84,0,0,1,.541-2.575,3.955,3.955,0,0,1,1.578-1.727,4.763,4.763,0,0,1,2.461-.611,4.117,4.117,0,0,1,3.164,1.244,4.887,4.887,0,0,1,1.16,3.467v1.151h-5.889a2.135,2.135,0,0,0,.694,1.257,2.066,2.066,0,0,0,1.389.457,2.662,2.662,0,0,0,2.2-.984l1.354,1.6a3.784,3.784,0,0,1-1.569,1.217A5.3,5.3,0,0,1-12.973,20.176Zm-.334-7.576q-1.3,0-1.547,1.723h2.988v-.229a1.467,1.467,0,0,0-.36-1.1A1.434,1.434,0,0,0-13.307,12.6Zm8.253-2.109.1,1.116a3.225,3.225,0,0,1,2.716-1.292A2.713,2.713,0,0,1-.022,11.2a4.226,4.226,0,0,1,.76,2.672V20H-2.232V14a1.6,1.6,0,0,0-.29-1.059A1.342,1.342,0,0,0-3.577,12.6a1.413,1.413,0,0,0-1.292.686V20H-7.831V10.49ZM6.4,17.891a1.317,1.317,0,0,0,.967-.338,1.241,1.241,0,0,0,.334-.945h2.777a3.288,3.288,0,0,1-1.121,2.566,4.168,4.168,0,0,1-2.887,1,4.22,4.22,0,0,1-3.27-1.3,5.125,5.125,0,0,1-1.2-3.6v-.123A5.792,5.792,0,0,1,2.536,12.6a3.872,3.872,0,0,1,1.534-1.7,4.573,4.573,0,0,1,2.373-.593,4.116,4.116,0,0,1,2.944,1.028,3.647,3.647,0,0,1,1.09,2.786H7.7A1.626,1.626,0,0,0,7.339,13a1.244,1.244,0,0,0-.967-.4q-1.151,0-1.345,1.468a10.357,10.357,0,0,0-.062,1.283,4.068,4.068,0,0,0,.343,1.986A1.187,1.187,0,0,0,6.4,17.891ZM14.854,20H11.883V10.49h2.971ZM11.707,8.038A1.322,1.322,0,0,1,12.164,7a1.724,1.724,0,0,1,1.187-.4,1.724,1.724,0,0,1,1.187.4,1.405,1.405,0,0,1,0,2.074,1.724,1.724,0,0,1-1.187.4,1.724,1.724,0,0,1-1.187-.4A1.322,1.322,0,0,1,11.707,8.038ZM22.034,20a3.344,3.344,0,0,1-.281-.853,2.754,2.754,0,0,1-2.285,1.028,3.374,3.374,0,0,1-2.285-.813,2.588,2.588,0,0,1-.94-2.043,2.66,2.66,0,0,1,1.143-2.338,5.821,5.821,0,0,1,3.322-.791h.914v-.5q0-1.316-1.134-1.316a.927.927,0,0,0-1.055,1.042H16.471a2.655,2.655,0,0,1,1.173-2.239,4.931,4.931,0,0,1,2.993-.86,4.323,4.323,0,0,1,2.874.888,3.086,3.086,0,0,1,1.081,2.435v4.21a4.311,4.311,0,0,0,.4,2V20ZM20.18,18.066a1.652,1.652,0,0,0,.918-.237,1.487,1.487,0,0,0,.523-.536V15.772H20.76q-1.547,0-1.547,1.389a.848.848,0,0,0,.272.655A.986.986,0,0,0,20.18,18.066ZM29.355,20H26.385V6.5h2.971ZM34.3,20H31.333V10.49H34.3ZM31.157,8.038A1.322,1.322,0,0,1,31.614,7a1.943,1.943,0,0,1,2.373,0,1.405,1.405,0,0,1,0,2.074,1.943,1.943,0,0,1-2.373,0A1.322,1.322,0,0,1,31.157,8.038Zm4.6,7.137a5.809,5.809,0,0,1,.976-3.56,3.211,3.211,0,0,1,2.725-1.3,2.731,2.731,0,0,1,2.145,1V6.5h2.971V20H41.906l-.149-1.02a2.8,2.8,0,0,1-2.32,1.2,3.205,3.205,0,0,1-2.689-1.3A5.993,5.993,0,0,1,35.754,15.175Zm2.962.185q0,2.531,1.477,2.531a1.458,1.458,0,0,0,1.406-.826V13.443A1.419,1.419,0,0,0,40.21,12.6q-1.371,0-1.485,2.215ZM51.609,20a3.344,3.344,0,0,1-.281-.853,2.754,2.754,0,0,1-2.285,1.028,3.374,3.374,0,0,1-2.285-.813,2.588,2.588,0,0,1-.94-2.043,2.66,2.66,0,0,1,1.143-2.338,5.821,5.821,0,0,1,3.322-.791H51.2v-.5q0-1.316-1.134-1.316a.927.927,0,0,0-1.055,1.042H46.046a2.655,2.655,0,0,1,1.173-2.239,4.931,4.931,0,0,1,2.993-.86,4.323,4.323,0,0,1,2.874.888,3.086,3.086,0,0,1,1.081,2.435v4.21a4.311,4.311,0,0,0,.4,2V20Zm-1.854-1.934a1.652,1.652,0,0,0,.918-.237,1.487,1.487,0,0,0,.523-.536V15.772h-.861q-1.547,0-1.547,1.389a.848.848,0,0,0,.272.655A.986.986,0,0,0,49.755,18.066Zm5.678-2.892a5.809,5.809,0,0,1,.976-3.56,3.211,3.211,0,0,1,2.725-1.3,2.731,2.731,0,0,1,2.145,1V6.5h2.971V20H61.585l-.149-1.02a2.8,2.8,0,0,1-2.32,1.2,3.205,3.205,0,0,1-2.689-1.3A5.993,5.993,0,0,1,55.433,15.175Zm2.962.185q0,2.531,1.477,2.531a1.458,1.458,0,0,0,1.406-.826V13.443a1.419,1.419,0,0,0-1.389-.844q-1.371,0-1.485,2.215ZM-48.586,35.175a5.809,5.809,0,0,1,.976-3.56,3.211,3.211,0,0,1,2.725-1.3,2.731,2.731,0,0,1,2.145,1V26.5h2.971V40h-2.663l-.149-1.02a2.8,2.8,0,0,1-2.32,1.2,3.205,3.205,0,0,1-2.689-1.3A5.993,5.993,0,0,1-48.586,35.175Zm2.962.185q0,2.531,1.477,2.531a1.458,1.458,0,0,0,1.406-.826V33.443A1.419,1.419,0,0,0-44.13,32.6q-1.371,0-1.485,2.215Zm12.138,4.816a4.889,4.889,0,0,1-3.542-1.305,4.507,4.507,0,0,1-1.354-3.4v-.246a5.84,5.84,0,0,1,.541-2.575,3.955,3.955,0,0,1,1.578-1.727,4.763,4.763,0,0,1,2.461-.611,4.117,4.117,0,0,1,3.164,1.244,4.887,4.887,0,0,1,1.16,3.467v1.151h-5.889a2.135,2.135,0,0,0,.694,1.257,2.066,2.066,0,0,0,1.389.457,2.662,2.662,0,0,0,2.2-.984l1.354,1.6A3.784,3.784,0,0,1-31.3,39.723,5.3,5.3,0,0,1-33.486,40.176ZM-33.82,32.6q-1.3,0-1.547,1.723h2.988v-.229a1.467,1.467,0,0,0-.36-1.1A1.434,1.434,0,0,0-33.82,32.6Zm13.14,7.4h-2.971V26.5h2.971Zm1.45-4.843a5.613,5.613,0,0,1,.554-2.536,3.96,3.96,0,0,1,1.591-1.709,4.791,4.791,0,0,1,2.435-.6,4.373,4.373,0,0,1,3.366,1.323,5.076,5.076,0,0,1,1.23,3.6v.105a4.925,4.925,0,0,1-1.235,3.529,4.384,4.384,0,0,1-3.344,1.305,4.434,4.434,0,0,1-3.261-1.217,4.761,4.761,0,0,1-1.327-3.3Zm2.962.185a3.538,3.538,0,0,0,.413,1.934,1.376,1.376,0,0,0,1.222.615q1.582,0,1.617-2.435v-.3q0-2.558-1.635-2.558-1.485,0-1.608,2.206Zm12.5,1.986a.684.684,0,0,0-.4-.606,6.016,6.016,0,0,0-1.5-.475A6.853,6.853,0,0,1-7.5,35.6a3.062,3.062,0,0,1-1.1-.971,2.319,2.319,0,0,1-.378-1.31,2.628,2.628,0,0,1,1.081-2.158,4.453,4.453,0,0,1,2.83-.848,4.934,4.934,0,0,1,3.023.853A2.666,2.666,0,0,1-.9,33.408H-3.867q0-1.143-1.2-1.143a1.194,1.194,0,0,0-.782.259.8.8,0,0,0-.316.646.737.737,0,0,0,.387.642,3.654,3.654,0,0,0,1.235.4,10.671,10.671,0,0,1,1.49.378A2.706,2.706,0,0,1-.914,37.24,2.491,2.491,0,0,1-2.07,39.358a5.068,5.068,0,0,1-2.993.817,5.172,5.172,0,0,1-2.18-.439,3.645,3.645,0,0,1-1.494-1.2,2.707,2.707,0,0,1-.536-1.591H-6.5a1.145,1.145,0,0,0,.439.962,1.808,1.808,0,0,0,1.081.3,1.422,1.422,0,0,0,.91-.246A.787.787,0,0,0-3.771,37.328Zm8.35-2.153a5.809,5.809,0,0,1,.976-3.56,3.211,3.211,0,0,1,2.725-1.3,2.731,2.731,0,0,1,2.145,1V26.5h2.971V40H10.731l-.149-1.02a2.8,2.8,0,0,1-2.32,1.2,3.205,3.205,0,0,1-2.689-1.3A5.993,5.993,0,0,1,4.579,35.175Zm2.962.185q0,2.531,1.477,2.531a1.458,1.458,0,0,0,1.406-.826V33.443A1.419,1.419,0,0,0,9.035,32.6q-1.371,0-1.485,2.215ZM20.435,40a3.344,3.344,0,0,1-.281-.853,2.754,2.754,0,0,1-2.285,1.028,3.374,3.374,0,0,1-2.285-.813,2.588,2.588,0,0,1-.94-2.043,2.66,2.66,0,0,1,1.143-2.338,5.821,5.821,0,0,1,3.322-.791h.914v-.5q0-1.316-1.134-1.316a.927.927,0,0,0-1.055,1.042H14.871a2.655,2.655,0,0,1,1.173-2.239,4.931,4.931,0,0,1,2.993-.86,4.323,4.323,0,0,1,2.874.888,3.086,3.086,0,0,1,1.081,2.435v4.21a4.311,4.311,0,0,0,.4,2V40ZM18.58,38.066a1.652,1.652,0,0,0,.918-.237,1.487,1.487,0,0,0,.523-.536V35.772H19.16q-1.547,0-1.547,1.389a.848.848,0,0,0,.272.655A.986.986,0,0,0,18.58,38.066Zm9.5-9.94V30.49h1.564v2.057H28.081V36.9a1.111,1.111,0,0,0,.193.747,1.037,1.037,0,0,0,.765.211,4.345,4.345,0,0,0,.738-.053v2.118a5.466,5.466,0,0,1-1.67.255,3.1,3.1,0,0,1-2.259-.721,2.954,2.954,0,0,1-.729-2.188v-4.72H23.906V30.49h1.213V28.126Zm2.092,7.031a5.613,5.613,0,0,1,.554-2.536,3.96,3.96,0,0,1,1.591-1.709,4.791,4.791,0,0,1,2.435-.6,4.373,4.373,0,0,1,3.366,1.323,5.076,5.076,0,0,1,1.23,3.6v.105a4.925,4.925,0,0,1-1.235,3.529,4.384,4.384,0,0,1-3.344,1.305,4.434,4.434,0,0,1-3.261-1.217,4.761,4.761,0,0,1-1.327-3.3Zm2.962.185a3.538,3.538,0,0,0,.413,1.934,1.376,1.376,0,0,0,1.222.615q1.582,0,1.617-2.435v-.3q0-2.558-1.635-2.558-1.485,0-1.608,2.206Zm12.5,1.986a.684.684,0,0,0-.4-.606,6.016,6.016,0,0,0-1.5-.475,6.853,6.853,0,0,1-1.828-.646,3.062,3.062,0,0,1-1.1-.971,2.319,2.319,0,0,1-.378-1.31,2.628,2.628,0,0,1,1.081-2.158,4.453,4.453,0,0,1,2.83-.848,4.934,4.934,0,0,1,3.023.853,2.666,2.666,0,0,1,1.143,2.241H45.536q0-1.143-1.2-1.143a1.194,1.194,0,0,0-.782.259.8.8,0,0,0-.316.646.737.737,0,0,0,.387.642,3.654,3.654,0,0,0,1.235.4,10.671,10.671,0,0,1,1.49.378,2.706,2.706,0,0,1,2.145,2.646,2.491,2.491,0,0,1-1.156,2.118,5.068,5.068,0,0,1-2.993.817,5.172,5.172,0,0,1-2.18-.439,3.645,3.645,0,0,1-1.494-1.2,2.707,2.707,0,0,1-.536-1.591H42.9a1.145,1.145,0,0,0,.439.962,1.808,1.808,0,0,0,1.081.3,1.422,1.422,0,0,0,.91-.246A.787.787,0,0,0,45.633,37.328Z" transform="translate(1276.317 1257.28)" fill="#12263f"/>
    <g id="Grupo_948513" data-name="Grupo 948513" transform="translate(120.005 -1916.866)">
      <rect id="Rectángulo_34831" data-name="Rectángulo 34831" width="105" height="110" transform="translate(1098.54 3044.187)" fill="none"/>
      <g id="big-data" transform="translate(1100.477 3048.392)">
        <g id="Grupo_957534" data-name="Grupo 957534" transform="translate(1.591 1.589)">
          <g id="Grupo_957525" data-name="Grupo 957525" transform="translate(41.321)">
            <path id="Trazado_657784" data-name="Trazado 657784" d="M50.157,51.841l-.016.016a25.347,25.347,0,0,0-21.169-5.976l-.064-.413a1.586,1.586,0,0,0,1.271-1.557V28.018a1.594,1.594,0,0,0-1.589-1.589H27V20.071H28.59a1.594,1.594,0,0,0,1.589-1.589V9.614A25.427,25.427,0,1,1,50.157,51.841Z" transform="translate(-27.001 -1)" fill="#e0feec"/>
          </g>
          <g id="Grupo_957526" data-name="Grupo 957526" transform="translate(3.179 19.071)">
            <path id="Trazado_657785" data-name="Trazado 657785" d="M3,13H41.144v6.357H3Z" transform="translate(-3.001 -13)" fill="#b6fdd3"/>
          </g>
          <g id="Grupo_957527" data-name="Grupo 957527">
            <path id="Trazado_657786" data-name="Trazado 657786" d="M45.5,9.614v8.868a1.594,1.594,0,0,1-1.589,1.589H2.59A1.594,1.594,0,0,1,1,18.482V2.589A1.594,1.594,0,0,1,2.59,1H43.912A1.594,1.594,0,0,1,45.5,2.589Z" transform="translate(-1.001 -1)" fill="#2ff980"/>
          </g>
          <g id="Grupo_957528" data-name="Grupo 957528" transform="translate(0 25.428)">
            <path id="Trazado_657787" data-name="Trazado 657787" d="M43.912,17A1.594,1.594,0,0,1,45.5,18.589V34.482a1.586,1.586,0,0,1-1.271,1.557,1.957,1.957,0,0,1-.318.032H2.59A1.594,1.594,0,0,1,1,34.482V18.589A1.594,1.594,0,0,1,2.59,17H43.912Z" transform="translate(-1.001 -17)" fill="#2ff980"/>
          </g>
          <g id="Grupo_957529" data-name="Grupo 957529" transform="translate(3.179 44.468)">
            <path id="Trazado_657788" data-name="Trazado 657788" d="M42.733,29.012a1.957,1.957,0,0,0,.318-.032l.064.413A25.111,25.111,0,0,0,30.7,35.385l-.016-.016H3V29.012Z" transform="translate(-3.001 -28.98)" fill="#b6fdd3"/>
          </g>
          <g id="Grupo_957530" data-name="Grupo 957530" transform="translate(0 50.857)">
            <path id="Trazado_657789" data-name="Trazado 657789" d="M14.844,45.841A15.761,15.761,0,0,0,4.227,52.1l-.048-.032H2.59A1.594,1.594,0,0,1,1,50.482V34.589A1.594,1.594,0,0,1,2.59,33H31.865l.016.016a25.329,25.329,0,0,0-8.169,14.256,15.788,15.788,0,0,0-8.868-1.43Z" transform="translate(-1.001 -33)" fill="#2ff980"/>
          </g>
          <g id="Grupo_957531" data-name="Grupo 957531" transform="translate(0.002 44.5)">
            <path id="Trazado_657790" data-name="Trazado 657790" d="M96.277,62.375A15.9,15.9,0,0,1,80.464,79.857H16.893A15.9,15.9,0,0,1,1.08,62.375,15.364,15.364,0,0,1,4.226,54.46a15.715,15.715,0,0,1,19.485-4.831A25.539,25.539,0,0,1,44.292,29.381a25.347,25.347,0,0,1,21.169,5.976,25.3,25.3,0,0,1,8.185,14.272,15.788,15.788,0,0,1,8.868-1.43A16,16,0,0,1,96.277,62.375Z" transform="translate(-1.002 -29)" fill="#e6e9ed"/>
          </g>
          <g id="Grupo_957532" data-name="Grupo 957532" transform="translate(50.855 60.393)">
            <path id="Trazado_657791" data-name="Trazado 657791" d="M45.714,54.893l-6.357,9.536L33,54.893h3.179V39h6.357V54.893Z" transform="translate(-33 -39)" fill="#ff826e"/>
          </g>
          <g id="Grupo_957533" data-name="Grupo 957533" transform="translate(31.786 60.393)">
            <path id="Trazado_657792" data-name="Trazado 657792" d="M27.358,39l6.357,9.536H30.537V64.428H24.18V48.536H21Z" transform="translate(-21.001 -39)" fill="#ff826e"/>
          </g>
        </g>
        <g id="Grupo_957535" data-name="Grupo 957535" transform="translate(0 0)">
          <path id="Trazado_657793" data-name="Trazado 657793" d="M45.226,38H35.69V53.893H31.132l9.326,13.99,9.327-13.99h-4.56ZM40.458,62.152l-3.387-5.081h1.8V41.179h3.179V57.071h1.8Z" transform="translate(18.346 22.393)"/>
          <path id="Trazado_657794" data-name="Trazado 657794" d="M19.132,51.187H23.69V67.08h9.536V51.187h4.558L28.458,37.2Zm10.917-3.179V63.9H26.87V48.009h-1.8l3.388-5.081,3.387,5.081Z" transform="translate(11.275 21.919)"/>
          <path id="Trazado_657795" data-name="Trazado 657795" d="M98.451,79.313A17.456,17.456,0,0,0,75.362,64.537,26.878,26.878,0,0,0,69.51,53.667a27.006,27.006,0,1,0-21.832-47.2V3.179A3.182,3.182,0,0,0,44.5,0H3.179A3.182,3.182,0,0,0,0,3.179V19.071A3.182,3.182,0,0,0,3.179,22.25v3.179A3.182,3.182,0,0,0,0,28.607V44.5a3.182,3.182,0,0,0,3.179,3.179v3.179A3.182,3.182,0,0,0,0,54.035V69.928a3.178,3.178,0,0,0,2.05,2.962A17.135,17.135,0,0,0,.086,79.315,17.33,17.33,0,0,0,4.534,92.8a17.526,17.526,0,0,0,12.949,5.734H81.055A17.518,17.518,0,0,0,94,92.8,17.34,17.34,0,0,0,98.451,79.313ZM47.68,19.071V15.893h7.787a42.56,42.56,0,0,0-1.376,9.536H44.5V22.25A3.183,3.183,0,0,0,47.68,19.071Zm23.855-3.179a38.747,38.747,0,0,1,1.519,9.536H57.271a38.634,38.634,0,0,1,1.53-9.536ZM59.9,12.714A31.486,31.486,0,0,1,65.165,3.9a31.106,31.106,0,0,1,5.27,8.819ZM88.92,25.428H76.232a42.56,42.56,0,0,0-1.376-9.536H86.23A23.645,23.645,0,0,1,88.92,25.428ZM54.075,28.607a42.168,42.168,0,0,0,1.4,9.536h-7.8V28.607Zm3.179,0H73.059a38.555,38.555,0,0,1-1.532,9.536H58.77A38.842,38.842,0,0,1,57.254,28.607Zm18.986,0H88.924a23.825,23.825,0,0,1-2.645,9.536H74.849a42.353,42.353,0,0,0,1.391-9.536ZM47.68,44.5V41.321h8.8A37.664,37.664,0,0,0,58.649,46.2a26.856,26.856,0,0,0-9.38-1.7c-.537,0-1.066.037-1.6.067,0-.022.006-.043.006-.067Zm16.6,4.579a32.055,32.055,0,0,1-4.4-7.757H70.42a31.807,31.807,0,0,1-5.024,8.55C65.03,49.6,64.657,49.333,64.279,49.079Zm4.65,1.465a35.39,35.39,0,0,0,4.936-9.223H84.249A23.672,23.672,0,0,1,68.929,50.544Zm15.259-37.83H73.856a35.493,35.493,0,0,0-4.909-9.205A23.822,23.822,0,0,1,84.187,12.714ZM61.37,3.517a35.468,35.468,0,0,0-4.9,9.2H47.68V10.845A23.815,23.815,0,0,1,61.37,3.517ZM3.18,3.179H44.5l0,15.893H3.18ZM6.359,22.25H41.323v3.179H6.359ZM3.18,28.607H44.5V44.5H3.18ZM6.359,47.678H36.582a27.142,27.142,0,0,0-4.672,3.179H6.359ZM3.18,69.928V54.035H28.709a26.855,26.855,0,0,0-5.532,10.5A17.384,17.384,0,0,0,4.029,69.928ZM91.649,90.664a14.336,14.336,0,0,1-10.6,4.693H17.482a14.3,14.3,0,1,1,6.139-27.205l1.858.887.388-2.022a23.828,23.828,0,0,1,46.8,0l.388,2.022,1.858-.887A14.295,14.295,0,0,1,91.649,90.664Z" transform="translate(0 0)"/>
          <path id="Trazado_657796" data-name="Trazado 657796" d="M52,34h3.179v3.179H52Z" transform="translate(30.643 20.035)"/>
          <path id="Trazado_657797" data-name="Trazado 657797" d="M56,34h3.179v3.179H56Z" transform="translate(33 20.035)"/>
          <path id="Trazado_657798" data-name="Trazado 657798" d="M60,34h3.179v3.179H60Z" transform="translate(35.357 20.035)"/>
        </g>
      </g>
    </g>
  </g>
</svg>
