<svg xmlns="http://www.w3.org/2000/svg" width="126" height="112" viewBox="0 0 126 112">
  <g id="Grupo_960677" data-name="Grupo 960677" transform="translate(-265 -6305)">
    <rect id="Rectángulo_45468" data-name="Rectángulo 45468" width="126" height="112" transform="translate(265 6305)" fill="none"/>
    <g id="desarrollo-de-estrategias" transform="translate(276.268 6309.54)">
      <path id="Trazado_659670" data-name="Trazado 659670" d="M3,55H22.692v9.846H3Z" transform="translate(0.641 33.975)" fill="#f95f5f"/>
      <path id="Trazado_659671" data-name="Trazado 659671" d="M26,55H45.692v9.846H26Z" transform="translate(15.384 33.975)" fill="#efbd50"/>
      <path id="Trazado_659672" data-name="Trazado 659672" d="M49,55H68.692v9.846H49Z" transform="translate(30.128 33.975)" fill="#7fc675"/>
      <path id="Trazado_659673" data-name="Trazado 659673" d="M40.128,21.048V12.826H43.41L35.205,2.98,27,12.826h3.282v8.221" transform="translate(16.025 0.629)" fill="#72769b"/>
      <path id="Trazado_659674" data-name="Trazado 659674" d="M28.128,34.253V17.842H31.41L23.205,7.98,15,17.842h3.282v16.41" transform="translate(8.333 3.834)" fill="#cfd2d3"/>
      <path id="Trazado_659675" data-name="Trazado 659675" d="M52.128,34.253V17.842H55.41L47.205,7.98,39,17.842h3.282v16.41" transform="translate(23.717 3.834)" fill="#cfd2d3"/>
      <path id="Trazado_659676" data-name="Trazado 659676" d="M48,42.118H59.487V45.4L69.333,37.2,59.487,28.99v3.282H48" transform="translate(29.487 17.302)" fill="#7fc675"/>
      <path id="Trazado_659677" data-name="Trazado 659677" d="M24.333,32.272H12.846V28.99L3,37.2,12.846,45.4V42.118H24.333" transform="translate(0.641 17.302)" fill="#f95f5f"/>
      <path id="Trazado_659678" data-name="Trazado 659678" d="M61.666,47.256V37.41H57.7a18.708,18.708,0,0,0-1.641-3.873l2.806-2.806L51.9,23.757,49.1,26.579a17.854,17.854,0,0,0-3.873-1.641V21H35.41v3.971a17.854,17.854,0,0,0-3.873,1.641L28.731,23.79l-6.958,6.974,2.806,2.806a18.707,18.707,0,0,0-1.641,3.873H19v9.846h3.971a18.707,18.707,0,0,0,1.641,3.873l-2.806,2.806,6.958,6.974,2.806-2.806a18.659,18.659,0,0,0,3.873,1.641v3.889h9.846V59.679a18.659,18.659,0,0,0,3.873-1.641l2.806,2.806,6.958-6.974-2.839-2.757a18.708,18.708,0,0,0,1.641-3.873Z" transform="translate(10.897 12.18)" fill="#99aece"/>
      <circle id="Elipse_5765" data-name="Elipse 5765" cx="10" cy="10" r="10" transform="translate(41.462 44.46)" fill="#f2f2f2"/>
      <path id="Trazado_659679" data-name="Trazado 659679" d="M42.411,15.129h1.641a1.641,1.641,0,0,0,1.264-2.691L37.111,2.592a1.641,1.641,0,0,0-2.527,0l-8.205,9.846a1.641,1.641,0,0,0,1.264,2.691h1.641v6.564h3.282V13.488a1.641,1.641,0,0,0-1.428-1.641l4.71-5.678,4.71,5.678a1.641,1.641,0,0,0-1.428,1.641v8.205h3.282Z" transform="translate(15.383)"/>
      <path id="Trazado_659680" data-name="Trazado 659680" d="M28,15.99h3.282v3.282H28Z" transform="translate(16.666 8.969)"/>
      <path id="Trazado_659681" data-name="Trazado 659681" d="M34,15.99h3.282v3.282H34Z" transform="translate(20.512 8.969)"/>
      <path id="Trazado_659682" data-name="Trazado 659682" d="M60.537,28.369a1.641,1.641,0,0,0-2.691,1.28V31.29H48v3.282H59.487a1.641,1.641,0,0,0,1.641-1.428l5.645,4.71-5.645,4.693a1.641,1.641,0,0,0-1.641-1.411H48v3.282h9.846v1.641a1.643,1.643,0,0,0,2.691,1.264l9.846-8.205a1.641,1.641,0,0,0,0-2.527Z" transform="translate(29.487 16.66)"/>
      <path id="Trazado_659683" data-name="Trazado 659683" d="M2,37.847a1.641,1.641,0,0,0,.591,1.264l9.846,8.205a1.64,1.64,0,0,0,2.691-1.264V44.411h9.846V41.129H13.487a1.641,1.641,0,0,0-1.641,1.428L6.2,37.847l5.645-4.726a1.641,1.641,0,0,0,1.641,1.444H24.974V31.283H15.128V29.642a1.641,1.641,0,0,0-2.691-1.264L2.591,36.584A1.641,1.641,0,0,0,2,37.847Z" transform="translate(0 16.666)"/>
      <path id="Trazado_659684" data-name="Trazado 659684" d="M16,25.99h3.282v3.282H16Z" transform="translate(8.974 15.379)"/>
      <path id="Trazado_659685" data-name="Trazado 659685" d="M46,25.99h3.282v3.282H46Z" transform="translate(28.204 15.379)"/>
      <path id="Trazado_659686" data-name="Trazado 659686" d="M47.974,38.487A11.487,11.487,0,1,0,36.487,49.974,11.487,11.487,0,0,0,47.974,38.487Zm-19.692,0a8.205,8.205,0,1,1,8.205,8.205A8.205,8.205,0,0,1,28.282,38.487Z" transform="translate(14.743 16.027)"/>
      <path id="Trazado_659687" data-name="Trazado 659687" d="M98.82,84.129H90.615V79.206a1.641,1.641,0,0,0-1.641-1.641h-36.1V74.283h3.282a1.641,1.641,0,0,0,1.641-1.641v-2.79a19.689,19.689,0,0,0,1.92-.788L61.667,71A1.641,1.641,0,0,0,64,71l6.925-6.941a1.641,1.641,0,0,0,0-2.314L68.97,59.776c.279-.624.558-1.264.788-1.92h2.806A1.641,1.641,0,0,0,74.2,56.215v-9.83a1.641,1.641,0,0,0-1.641-1.641H69.79c-.23-.656-.509-1.3-.788-1.92l1.92-1.969a1.641,1.641,0,0,0,0-2.33L67.64,35.243V18.488a1.641,1.641,0,0,0-1.428-1.641l4.71-5.661,4.71,5.661A1.641,1.641,0,0,0,74.2,18.488V34.9h3.282V20.129h1.641a1.64,1.64,0,0,0,1.264-2.691L72.186,7.592a1.641,1.641,0,0,0-2.527,0l-8.205,9.846a1.64,1.64,0,0,0,1.264,2.691h1.641V31.945L64,31.616a1.641,1.641,0,0,0-2.33,0l-1.953,1.953a19.7,19.7,0,0,0-1.92-.837V29.975a1.641,1.641,0,0,0-1.641-1.641H46.307a1.641,1.641,0,0,0-1.641,1.641v2.773a19.69,19.69,0,0,0-1.92.788l-1.953-1.92a1.641,1.641,0,0,0-2.33,0l-.361.361V20.129h1.641a1.64,1.64,0,0,0,1.264-2.691L32.8,7.592a1.641,1.641,0,0,0-2.527,0L22.07,17.438a1.64,1.64,0,0,0,1.264,2.691h1.641V34.9h3.282V18.488a1.641,1.641,0,0,0-1.428-1.641l4.71-5.661,4.71,5.661a1.641,1.641,0,0,0-1.428,1.641V35.227l-3.282,3.282a1.641,1.641,0,0,0,0,2.33l1.953,1.953c-.279.624-.558,1.264-.788,1.92H29.9a1.641,1.641,0,0,0-1.641,1.641V56.2A1.641,1.641,0,0,0,29.9,57.84H32.67c.23.656.509,1.3.788,1.92l-1.92,1.986a1.641,1.641,0,0,0,0,2.314L38.463,71a1.641,1.641,0,0,0,2.33,0l1.953-1.969a19.694,19.694,0,0,0,1.92.821v2.79a1.641,1.641,0,0,0,1.641,1.641h3.282v3.282h-36.1a1.641,1.641,0,0,0-1.641,1.641v4.923H3.641A1.641,1.641,0,0,0,2,85.77v9.846a1.641,1.641,0,0,0,1.641,1.641H23.333a1.641,1.641,0,0,0,1.641-1.641V85.77a1.641,1.641,0,0,0-1.641-1.641H15.128V80.847H49.589v3.282H41.384a1.641,1.641,0,0,0-1.641,1.641v9.846a1.641,1.641,0,0,0,1.641,1.641H61.076a1.641,1.641,0,0,0,1.641-1.641V85.77a1.641,1.641,0,0,0-1.641-1.641H52.871V80.847H87.333v3.282H79.128a1.641,1.641,0,0,0-1.641,1.641v9.846a1.641,1.641,0,0,0,1.641,1.641H98.82a1.641,1.641,0,0,0,1.641-1.641V85.77A1.641,1.641,0,0,0,98.82,84.129ZM46.75,67.079a15.836,15.836,0,0,1-3.512-1.46,1.641,1.641,0,0,0-1.969.279l-1.641,1.641L34.984,62.91l1.641-1.641a1.641,1.641,0,0,0,.263-1.969,15.8,15.8,0,0,1-1.444-3.512,1.641,1.641,0,0,0-1.641-1.2H31.538V48.027h2.33a1.641,1.641,0,0,0,1.641-1.2,16.131,16.131,0,0,1,1.444-3.512,1.641,1.641,0,0,0-.263-1.969L35.05,39.707l4.644-4.644L41.335,36.7a1.641,1.641,0,0,0,1.969.279,15.8,15.8,0,0,1,3.512-1.444,1.641,1.641,0,0,0,1.2-1.641V31.616h6.564v2.33a1.641,1.641,0,0,0,1.2,1.641,15.8,15.8,0,0,1,3.512,1.444,1.641,1.641,0,0,0,1.969-.279L62.9,35.112l4.644,4.644L65.9,41.4a1.641,1.641,0,0,0-.263,1.969,16.131,16.131,0,0,1,1.444,3.512,1.641,1.641,0,0,0,1.641,1.2h2.2V54.64h-2.33a1.641,1.641,0,0,0-1.641,1.2,15.8,15.8,0,0,1-1.444,3.512,1.641,1.641,0,0,0,.263,1.969l1.641,1.641-4.644,4.628-1.641-1.641a1.641,1.641,0,0,0-1.969-.279,15.836,15.836,0,0,1-3.512,1.46,1.641,1.641,0,0,0-1.2,1.641V71h-6.5V68.654a1.641,1.641,0,0,0-1.2-1.575Zm-25.058,26.9H5.282V87.411h16.41Zm37.743,0H43.025V87.411h16.41Zm37.743,0H80.769V87.411h16.41Z" transform="translate(0 3.205)"/>
    </g>
  </g>
</svg>
