<svg id="Grupo_949774" data-name="Grupo 949774" xmlns="http://www.w3.org/2000/svg" width="208.062" height="221" viewBox="0 0 208.062 221">
  <path id="Trazado_635107" data-name="Trazado 635107" d="M844.279,661.944c13.279-17.087,22.615-32.767,11.683-46.313-11.683-14.476-2.921-40.249,22.61-35.48s50.637,19.484,87.279-5.122c16.4-11.177,33.558-6.212,39.044,4.25,12.837,24.481-33.419,43.719-15.8,62.541,21.92,23.418,20.428,41.162,1.741,60.6-14.285,14.857,8.441,23.9-6.1,45.449-14.943,22.148-84.292,23.94-116.235,2.666C836.413,729.159,825.839,685.673,844.279,661.944Z" transform="translate(-822.569 -557.979)" fill="#e6e1fb"/>
  <g id="Grupo_949774-2" data-name="Grupo 949774" transform="translate(0 98.581)">
    <path id="Rectángulo_42085" data-name="Rectángulo 42085" d="M19.822,0H77.048a0,0,0,0,1,0,0V40.209a0,0,0,0,1,0,0H19.822A19.822,19.822,0,0,1,0,20.387v-.565A19.822,19.822,0,0,1,19.822,0Z" transform="translate(0.343 0.343)" fill="#c4baf5"/>
    <path id="Trazado_635108" data-name="Trazado 635108" d="M887.95,783.173H820.583a10.39,10.39,0,0,1-10.366-10.389V752.666a10.389,10.389,0,0,1,10.366-10.388H887.95Zm-67.367-40.209a9.7,9.7,0,0,0-9.681,9.7v20.119a9.7,9.7,0,0,0,9.681,9.7h66.682V742.964Z" transform="translate(-810.217 -742.278)" fill="#32293a"/>
  </g>
  <g id="Grupo_949775" data-name="Grupo 949775" transform="translate(49.679 111.049)">
    <path id="Rectángulo_42086" data-name="Rectángulo 42086" d="M3.185,0H25.742a.8.8,0,0,1,.8.8V5.571a.8.8,0,0,1-.8.8H3.184A3.184,3.184,0,0,1,0,3.185v0A3.185,3.185,0,0,1,3.185,0Z" transform="translate(0.343 0.343)" fill="#fffdf7"/>
    <path id="Trazado_635109" data-name="Trazado 635109" d="M934.44,773.964H911.874a3.528,3.528,0,0,1,0-7.055H934.44a1.141,1.141,0,0,1,1.138,1.141v4.774A1.141,1.141,0,0,1,934.44,773.964Zm-22.566-6.369a2.841,2.841,0,0,0,0,5.683H934.44a.455.455,0,0,0,.454-.454v-4.774a.455.455,0,0,0-.454-.455Z" transform="translate(-908.354 -766.909)" fill="#32293a"/>
  </g>
  <g id="Grupo_949776" data-name="Grupo 949776" transform="translate(49.679 120.982)">
    <path id="Rectángulo_42087" data-name="Rectángulo 42087" d="M3.185,0H25.742a.8.8,0,0,1,.8.8V5.571a.8.8,0,0,1-.8.8H3.184A3.184,3.184,0,0,1,0,3.185v0A3.185,3.185,0,0,1,3.185,0Z" transform="translate(0.343 0.343)" fill="#fff5d7"/>
    <path id="Trazado_635110" data-name="Trazado 635110" d="M934.44,793.585H911.874a3.527,3.527,0,0,1,0-7.055H934.44a1.141,1.141,0,0,1,1.138,1.141v4.773A1.141,1.141,0,0,1,934.44,793.585Zm-22.566-6.369a2.841,2.841,0,0,0,0,5.683H934.44a.455.455,0,0,0,.454-.455v-4.773a.455.455,0,0,0-.454-.455Z" transform="translate(-908.354 -786.53)" fill="#32293a"/>
  </g>
  <g id="Grupo_949777" data-name="Grupo 949777" transform="translate(140.99 10.495)">
    <path id="Trazado_635111" data-name="Trazado 635111" d="M1155.8,568.947V613.29a6.236,6.236,0,0,1-6.226,6.245h-53.935a6.236,6.236,0,0,1-6.227-6.245V568.947Z" transform="translate(-1089.067 -568.604)" fill="#fffdf7"/>
    <path id="Trazado_635112" data-name="Trazado 635112" d="M1149.237,619.544H1095.3a6.586,6.586,0,0,1-6.569-6.588V568.27h67.072v44.685A6.586,6.586,0,0,1,1149.237,619.544Zm-59.819-50.588v44a5.9,5.9,0,0,0,5.884,5.9h53.935a5.9,5.9,0,0,0,5.884-5.9v-44Z" transform="translate(-1088.733 -568.27)" fill="#32293a"/>
  </g>
  <rect id="Rectángulo_42088" data-name="Rectángulo 42088" width="54.301" height="17.612" rx="6.029" transform="translate(147.504 15.681)" fill="#e6e1fb"/>
  <path id="Rectángulo_42089" data-name="Rectángulo 42089" d="M6.029,0H48.272A6.029,6.029,0,0,1,54.3,6.029v5.554a6.029,6.029,0,0,1-6.029,6.029H6.03A6.03,6.03,0,0,1,0,11.582V6.029A6.029,6.029,0,0,1,6.029,0Z" transform="translate(147.504 38.196)" fill="#e6e1fb"/>
  <path id="Trazado_635113" data-name="Trazado 635113" d="M1155.8,554.461v4.249h-66.388v-4.249a6.236,6.236,0,0,1,6.227-6.245h53.935A6.236,6.236,0,0,1,1155.8,554.461Z" transform="translate(-948.077 -547.873)" fill="#583ae2"/>
  <path id="Trazado_635114" data-name="Trazado 635114" d="M1155.805,558.719h-67.072v-4.592a6.586,6.586,0,0,1,6.569-6.588h53.935a6.586,6.586,0,0,1,6.569,6.588Zm-66.388-.686h65.7v-3.906a5.9,5.9,0,0,0-5.884-5.9H1095.3a5.9,5.9,0,0,0-5.884,5.9Z" transform="translate(-947.743 -547.538)" fill="#32293a"/>
  <g id="Grupo_949778" data-name="Grupo 949778" transform="translate(144.905 3.636)">
    <path id="Rectángulo_42090" data-name="Rectángulo 42090" d="M1.745,0H37.286a1.745,1.745,0,0,1,1.745,1.745v0A1.745,1.745,0,0,1,37.286,3.49H1.745A1.745,1.745,0,0,1,0,1.745v0A1.745,1.745,0,0,1,1.745,0Z" transform="translate(0.342 0.343)" fill="#fffdf7"/>
    <path id="Trazado_635115" data-name="Trazado 635115" d="M1134.1,558.9h-35.549a2.088,2.088,0,0,1,0-4.176H1134.1a2.088,2.088,0,0,1,0,4.176Zm-35.549-3.49a1.4,1.4,0,0,0,0,2.8H1134.1a1.4,1.4,0,0,0,0-2.8Z" transform="translate(-1096.468 -554.72)" fill="#32293a"/>
  </g>
  <g id="Grupo_949779" data-name="Grupo 949779" transform="translate(198.728 3.461)">
    <path id="Trazado_635116" data-name="Trazado 635116" d="M1203.467,556.971a1.913,1.913,0,1,1,1.913,1.917A1.915,1.915,0,0,1,1203.467,556.971Z" transform="translate(-1203.125 -554.71)" fill="#fffdf7"/>
    <path id="Trazado_635117" data-name="Trazado 635117" d="M1205.047,558.9a2.26,2.26,0,1,1,2.255-2.26A2.26,2.26,0,0,1,1205.047,558.9Zm0-3.834a1.574,1.574,0,1,0,1.57,1.574A1.574,1.574,0,0,0,1205.047,555.062Z" transform="translate(-1202.792 -554.376)" fill="#32293a"/>
  </g>
  <g id="Grupo_949780" data-name="Grupo 949780" transform="translate(194.04 4.129)">
    <path id="Trazado_635118" data-name="Trazado 635118" d="M1194.206,557.622a1.246,1.246,0,1,1,1.246,1.249A1.248,1.248,0,0,1,1194.206,557.622Z" transform="translate(-1193.864 -556.03)" fill="#fffdf7"/>
    <path id="Trazado_635119" data-name="Trazado 635119" d="M1195.118,558.88a1.592,1.592,0,1,1,1.589-1.592A1.592,1.592,0,0,1,1195.118,558.88Zm0-2.5a.906.906,0,1,0,.9.907A.906.906,0,0,0,1195.118,556.381Z" transform="translate(-1193.53 -555.695)" fill="#32293a"/>
  </g>
  <path id="Trazado_635120" data-name="Trazado 635120" d="M968.22,610.462a2.5,2.5,0,0,1-3.576-2.347c-.207-2.724-2.7-1.779-2.735-3.967s2.117-1.306,2.858-4.734,3.912-2.469,5.3-3.5,3.616-5.362,7.216-4.148,4.615,5.8,2.812,9.209-7.418,9.081-7.418,9.081Z" transform="translate(-885.119 -569.274)" fill="#32293a"/>
  <g id="Grupo_949787" data-name="Grupo 949787" transform="translate(100.989 188.327)">
    <path id="Trazado_635121" data-name="Trazado 635121" d="M1027.709,931.692h-14.135L1017,919.565h14.135Z" transform="translate(-1011.621 -919.565)" fill="#f4c7a8"/>
    <path id="Trazado_635122" data-name="Trazado 635122" d="M1010.141,932.959v-1.007a1.988,1.988,0,0,1,1.986-1.99h.661a1.986,1.986,0,0,1,1.771,1.09l.937,1.852a1.985,1.985,0,0,0,1.771,1.09h5.715a1.985,1.985,0,0,0,1.614-.831l3.162-4.42a1.985,1.985,0,0,1,1.614-.831h0a2.44,2.44,0,0,1,1.46.641c5.482,4.23,11.395,8.417,17.135,12.16a4.733,4.733,0,0,1,2.22,2.242l1.422,4.217h-41.342Z" transform="translate(-1009.925 -923.687)" fill="#583ae2"/>
    <g id="Grupo_949781" data-name="Grupo 949781" transform="translate(0 23.143)">
      <path id="Trazado_635123" data-name="Trazado 635123" d="M1050.121,971.213h-38.786a1.624,1.624,0,0,1-1.62-1.623v-3.964a.342.342,0,1,1,.684,0v3.964a.937.937,0,0,0,.935.937h38.786a.937.937,0,0,0,.935-.937v-3.964a.342.342,0,1,1,.685,0v3.964A1.624,1.624,0,0,1,1050.121,971.213Z" transform="translate(-1009.715 -965.283)" fill="#32293a"/>
    </g>
    <g id="Grupo_949782" data-name="Grupo 949782" transform="translate(0.215 14.97)">
      <path id="Trazado_635124" data-name="Trazado 635124" d="M1018.289,957.84l-4.229-6.5a3.311,3.311,0,0,0-2.785-1.513h-1.135v-.686h1.135a4,4,0,0,1,3.359,1.824l4.229,6.5Z" transform="translate(-1010.14 -949.137)" fill="#32293a"/>
    </g>
    <g id="Grupo_949783" data-name="Grupo 949783" transform="translate(20.426 6.681)">
      <path id="Trazado_635125" data-name="Trazado 635125" d="M1060.241,944.835a2,2,0,0,1-1.1-.33l-8.165-5.352a2.02,2.02,0,0,1-.522-2.883l2.565-3.508.552.406-2.565,3.508a1.335,1.335,0,0,0,.344,1.9l8.165,5.352a1.328,1.328,0,0,0,1.845-.391l2.1-3.249.574.373-2.1,3.25a2.022,2.022,0,0,1-1.695.921Z" transform="translate(-1050.064 -932.763)" fill="#32293a"/>
    </g>
    <g id="Grupo_949784" data-name="Grupo 949784" transform="translate(22.668 8.559)">
      <path id="Trazado_635126" data-name="Trazado 635126" d="M1058.368,937.149l-3.2,4.565Z" transform="translate(-1054.827 -936.806)" fill="#ffcc38"/>
      <path id="Trazado_635127" data-name="Trazado 635127" d="M1054.836,941.723a.34.34,0,0,1-.2-.062.344.344,0,0,1-.084-.478l3.2-4.565a.342.342,0,1,1,.56.394l-3.2,4.565A.34.34,0,0,1,1054.836,941.723Z" transform="translate(-1054.493 -936.472)" fill="#32293a"/>
    </g>
    <g id="Grupo_949785" data-name="Grupo 949785" transform="translate(25.23 10.366)">
      <path id="Trazado_635128" data-name="Trazado 635128" d="M1063.428,940.72l-3.2,4.565Z" transform="translate(-1059.888 -940.377)" fill="#ffcc38"/>
      <path id="Trazado_635129" data-name="Trazado 635129" d="M1059.9,945.293a.343.343,0,0,1-.28-.54l3.2-4.565a.342.342,0,1,1,.56.394l-3.2,4.565A.341.341,0,0,1,1059.9,945.293Z" transform="translate(-1059.555 -940.043)" fill="#32293a"/>
    </g>
    <g id="Grupo_949786" data-name="Grupo 949786" transform="translate(27.839 12.064)">
      <path id="Trazado_635130" data-name="Trazado 635130" d="M1068.584,944.074l-3.2,4.565Z" transform="translate(-1065.044 -943.731)" fill="#ffcc38"/>
      <path id="Trazado_635131" data-name="Trazado 635131" d="M1065.052,948.647a.343.343,0,0,1-.28-.54l3.2-4.564a.343.343,0,1,1,.561.394l-3.2,4.564A.341.341,0,0,1,1065.052,948.647Z" transform="translate(-1064.71 -943.397)" fill="#32293a"/>
    </g>
  </g>
  <g id="Grupo_949793" data-name="Grupo 949793" transform="translate(74.885 188.568)">
    <rect id="Rectángulo_42091" data-name="Rectángulo 42091" width="14.135" height="14.781" transform="translate(4.12)" fill="#f4c7a8"/>
    <path id="Trazado_635132" data-name="Trazado 635132" d="M977.572,933.283h-.551a1.73,1.73,0,0,0-1.528.921l-1.108,2.09H964.311L963.2,934.2a1.73,1.73,0,0,0-1.528-.921h-.55a2.442,2.442,0,0,0-2.44,2.446v15.859a2.834,2.834,0,0,0,2.831,2.838h15.667a2.834,2.834,0,0,0,2.831-2.838V935.729A2.442,2.442,0,0,0,977.572,933.283Z" transform="translate(-958.412 -926.58)" fill="#583ae2"/>
    <path id="Trazado_635133" data-name="Trazado 635133" d="M970.661,933.451v-1.316a4.606,4.606,0,0,1,4.6-4.611h0a4.606,4.606,0,0,1,4.6,4.611v1.316Z" transform="translate(-964.327 -923.736)" fill="#583ae2"/>
    <g id="Grupo_949788" data-name="Grupo 949788" transform="translate(5.992 9.372)">
      <path id="Trazado_635134" data-name="Trazado 635134" d="M979.864,939.232l-1.446,10.229a2.175,2.175,0,0,1-2.152,1.873h-2.007a2.175,2.175,0,0,1-2.152-1.873l-1.446-10.229Z" transform="translate(-970.319 -938.889)" fill="#583ae2"/>
      <path id="Trazado_635135" data-name="Trazado 635135" d="M975.931,951.342h-2.007a2.53,2.53,0,0,1-2.491-2.168l-1.446-10.229a.342.342,0,1,1,.677-.1l1.446,10.228a1.843,1.843,0,0,0,1.814,1.578h2.007a1.842,1.842,0,0,0,1.814-1.578l1.445-10.228a.342.342,0,1,1,.677.1l-1.445,10.229A2.53,2.53,0,0,1,975.931,951.342Z" transform="translate(-969.985 -938.555)" fill="#32293a"/>
    </g>
    <g id="Grupo_949789" data-name="Grupo 949789" transform="translate(6.547 12.295)">
      <path id="Trazado_635136" data-name="Trazado 635136" d="M971.758,945.008h0Z" transform="translate(-971.415 -944.665)" fill="#ffcc38"/>
      <path id="Trazado_635137" data-name="Trazado 635137" d="M979.658,945.016h-8.235a.343.343,0,0,1,0-.686h8.235a.343.343,0,0,1,0,.686Z" transform="translate(-971.081 -944.33)" fill="#32293a"/>
    </g>
    <g id="Grupo_949790" data-name="Grupo 949790" transform="translate(7.297 15.416)">
      <path id="Trazado_635138" data-name="Trazado 635138" d="M973.239,951.174h0Z" transform="translate(-972.897 -950.831)" fill="#ffcc38"/>
      <path id="Trazado_635139" data-name="Trazado 635139" d="M979.64,951.182h-6.735a.343.343,0,0,1,0-.686h6.735a.343.343,0,0,1,0,.686Z" transform="translate(-972.563 -950.496)" fill="#32293a"/>
    </g>
    <g id="Grupo_949791" data-name="Grupo 949791" transform="translate(7.605 18.581)">
      <path id="Trazado_635140" data-name="Trazado 635140" d="M973.848,957.424h0Z" transform="translate(-973.506 -957.081)" fill="#ffcc38"/>
      <path id="Trazado_635141" data-name="Trazado 635141" d="M979.633,957.433h-6.119a.343.343,0,0,1,0-.686h6.119a.343.343,0,0,1,0,.686Z" transform="translate(-973.172 -956.747)" fill="#32293a"/>
    </g>
    <g id="Grupo_949792" data-name="Grupo 949792" transform="translate(0 24.824)">
      <path id="Trazado_635142" data-name="Trazado 635142" d="M976.988,976.688H961.322a3.18,3.18,0,0,1-3.174-3.18v-4.085a.342.342,0,1,1,.684,0v4.085a2.5,2.5,0,0,0,2.49,2.494h15.666a2.5,2.5,0,0,0,2.49-2.494v-4.085a.342.342,0,1,1,.684,0v4.085A3.18,3.18,0,0,1,976.988,976.688Z" transform="translate(-958.148 -969.08)" fill="#32293a"/>
    </g>
  </g>
  <path id="Trazado_635143" data-name="Trazado 635143" d="M957.841,732.531v96.493a.944.944,0,0,0,.943.945H979.96a.945.945,0,0,0,.944-.945V764.152l15.97,23L984.328,828.78a.945.945,0,0,0,.88,1.218l20.242.481a.944.944,0,0,0,.921-.659l12.552-39.57a13.9,13.9,0,0,0-1.583-11.765l-21.209-32.732a5.1,5.1,0,0,1-.82-2.717l-.122-10.505Z" transform="translate(-883.111 -638.884)" fill="#32293a"/>
  <path id="Trazado_635144" data-name="Trazado 635144" d="M1059.479,616.034H1069.7l3.01-23.771a5.693,5.693,0,0,1,3.827-4.682l17.689-5.924a.448.448,0,0,1,.567.27l.161.437,3.448-1.125a.4.4,0,0,1,.485.217,2.976,2.976,0,0,1-.014,2.255c.981,1.683-.392,3.614-1.281,4.127a2.444,2.444,0,0,1-1.079,2.922c-1.117.646-9.273,5.768-9.273,5.768.264,1.956-3.219,4.031-4.29,4.263.084,1.694.515,16.487.781,25.716a7.2,7.2,0,0,1-7.166,7.416l-17.087.063Z" transform="translate(-933.298 -564.169)" fill="#f4c7a8"/>
  <g id="Grupo_949794" data-name="Grupo 949794" transform="translate(135.685 16.707)">
    <path id="Trazado_635145" data-name="Trazado 635145" d="M1092.868,621.829a.343.343,0,0,1-.342-.333c-.372-12.82-.589-19.893-.644-21.024a.341.341,0,0,1,.269-.352c.426-.093,4.163-.991,4.046-4a.34.34,0,0,1,.159-.3c.326-.206,8-5.048,9.1-5.69a2.087,2.087,0,0,0,.916-2.556.343.343,0,0,1,.186-.378,2.849,2.849,0,0,0,1.277-3.669.343.343,0,0,1-.011-.275,2.689,2.689,0,0,0,.02-1.989l-3.514,1.095a.342.342,0,0,1-.428-.209l-.16-.437a.107.107,0,0,0-.134-.064l-17.692,5.925a5.382,5.382,0,0,0-3.6,4.4l-3.387,26.966a.342.342,0,1,1-.678-.086l3.387-26.967a6.07,6.07,0,0,1,4.056-4.964L1103.391,581a.8.8,0,0,1,1,.476l.046.128,3.134-1.024a.738.738,0,0,1,.9.4,3.276,3.276,0,0,1,.043,2.385,3.584,3.584,0,0,1-1.422,4.323,2.707,2.707,0,0,1-1.291,3.033c-1.009.585-7.777,4.853-8.918,5.573-.021,3.028-3.254,4.144-4.307,4.427.072,1.761.284,8.733.634,20.755a.343.343,0,0,1-.332.353Z" transform="translate(-1078.254 -580.541)" fill="#32293a"/>
  </g>
  <path id="Trazado_635146" data-name="Trazado 635146" d="M926.058,656.548,916.626,675.6l15.25,5.506,5.613-9.685v20.358h37.35V667.944h14.1V649.993l-52.584.136A11.529,11.529,0,0,0,926.058,656.548Z" transform="translate(-862.76 -598.128)" fill="#45bbcc"/>
  <path id="Trazado_635147" data-name="Trazado 635147" d="M974.809,628.959c0,3.47,2.992,8.9,10.008,8.9s7.574-5.593,7.473-8.939l-2.791-2.053a4.032,4.032,0,0,1-1.3-1.621l-1.858-4.213s4.58-.885,4.038-5.065-4.691-8.788-4.691-8.788c-1.125,2.18-7.535,1.52-7.535,1.52-.17,2.018-2.444,1.869-2.225,3.25s1.476,4.416-.848,4.4-4.082,2.675-2.49,4.116a3.123,3.123,0,0,0,4.159.275c.2.721.485,1.727.746,2.644a4.037,4.037,0,0,1-1.064,3.992Z" transform="translate(-890.092 -576.987)" fill="#f4c7a8"/>
  <path id="Trazado_635148" data-name="Trazado 635148" d="M998.408,710.6l-6.237,2.183a3.6,3.6,0,0,1-4.585-2.217L981.047,691.8a3.609,3.609,0,0,1,2.212-4.6l6.236-2.183a3.6,3.6,0,0,1,4.586,2.217L1000.62,706A3.609,3.609,0,0,1,998.408,710.6Z" transform="translate(-894.47 -615.323)" fill="#32293a"/>
  <g id="Grupo_949795" data-name="Grupo 949795" transform="translate(93.102 89.604)">
    <path id="Trazado_635149" data-name="Trazado 635149" d="M996.938,733.216a2.953,2.953,0,0,1-2.786-1.981.342.342,0,1,1,.646-.226,2.262,2.262,0,0,0,2.883,1.394l8.113-2.839a2.273,2.273,0,0,0,1.392-2.891L1006.6,725a.342.342,0,1,1,.646-.226l.583,1.673a2.956,2.956,0,0,1-1.812,3.763l-8.113,2.839A2.942,2.942,0,0,1,996.938,733.216Z" transform="translate(-994.133 -724.545)" fill="#faf5ff"/>
  </g>
  <path id="Trazado_635150" data-name="Trazado 635150" d="M910.558,697.8l-5.219,11.965a11.663,11.663,0,0,0,13.877,15.9l29.1-8.348s12.666-6.162,14-6.879c2.128-1.141,1.362-4.824-.96-3.874,2.382-1.05.867-4.552-1.036-3.935a1.9,1.9,0,0,0-.895-3.657c1.884-.8.225-4.5-1.558-3.957.023.047-13.578,4.717-13.578,4.717l-1.105-3.171-6.038,7.992-13.254,3.661,1.918-4.9Z" transform="translate(-856.692 -620.33)" fill="#f4c7a8"/>
  <g id="Grupo_949796" data-name="Grupo 949796" transform="translate(62.377 74.283)">
    <path id="Trazado_635151" data-name="Trazado 635151" d="M936.836,724.737a.343.343,0,0,1-.094-.673l25.845-7.415c.071-.04,12.62-6.146,13.936-6.852a2.127,2.127,0,0,0,.892-2.708,1.1,1.1,0,0,0-1.562-.546.343.343,0,0,1-.267-.631,1.656,1.656,0,0,0,.878-2.233,1.435,1.435,0,0,0-1.672-1.062.343.343,0,0,1-.226-.647,1.476,1.476,0,0,0,.931-1.853,1.441,1.441,0,0,0-1.649-1.145.339.339,0,0,1-.385-.242.342.342,0,0,1,.195-.412c.74-.316.714-1.222.467-1.9-.316-.868-1.078-1.635-1.792-1.412l-.008-.024c-.616.291-3.079,1.138-13.56,4.738a.343.343,0,0,1-.434-.212l-.894-2.567-5.651,7.481a.347.347,0,0,1-.182.124l-17.734,4.9a.343.343,0,0,1-.182-.662l17.622-4.867,5.967-7.9a.347.347,0,0,1,.326-.132.342.342,0,0,1,.27.226l.992,2.849c5.194-1.784,12.722-4.382,13.2-4.582a.368.368,0,0,1,.066-.028c1.152-.348,2.217.682,2.634,1.833a2.412,2.412,0,0,1-.1,2.155,2.324,2.324,0,0,1,1.068,3.643,2.6,2.6,0,0,1,1.111,3.8,1.76,1.76,0,0,1,1.19,1.019,2.831,2.831,0,0,1-1.189,3.6c-1.328.712-13.5,6.634-14.016,6.886l-25.9,7.436A.33.33,0,0,1,936.836,724.737Z" transform="translate(-933.439 -694.28)" fill="#32293a"/>
  </g>
  <g id="Grupo_949797" data-name="Grupo 949797" transform="translate(94.361 78.295)">
    <path id="Trazado_635152" data-name="Trazado 635152" d="M996.963,706.265a.343.343,0,0,1-.133-.659l8.029-3.374a.343.343,0,0,1,.265.632l-8.029,3.375A.348.348,0,0,1,996.963,706.265Z" transform="translate(-996.621 -702.205)" fill="#32293a"/>
  </g>
  <g id="Grupo_949798" data-name="Grupo 949798" transform="translate(95.502 81.951)">
    <path id="Trazado_635153" data-name="Trazado 635153" d="M999.216,713.207a.343.343,0,0,1-.126-.662l7.783-3.093a.343.343,0,0,1,.252.637l-7.783,3.094A.335.335,0,0,1,999.216,713.207Z" transform="translate(-998.874 -709.427)" fill="#32293a"/>
  </g>
  <g id="Grupo_949799" data-name="Grupo 949799" transform="translate(96.535 85.887)">
    <path id="Trazado_635154" data-name="Trazado 635154" d="M1001.257,720.939a.343.343,0,0,1-.125-.662l7.787-3.051a.342.342,0,0,1,.249.638l-7.787,3.052A.338.338,0,0,1,1001.257,720.939Z" transform="translate(-1000.915 -717.202)" fill="#32293a"/>
  </g>
  <g id="Grupo_949800" data-name="Grupo 949800" transform="translate(74.388 66.569)">
    <path id="Trazado_635155" data-name="Trazado 635155" d="M957.507,698.592a.342.342,0,0,1-.342-.343V679.383a.342.342,0,1,1,.684,0v18.866A.342.342,0,0,1,957.507,698.592Z" transform="translate(-957.165 -679.04)" fill="#32293a"/>
  </g>
  <g id="Grupo_949801" data-name="Grupo 949801" transform="translate(111.53 66.569)">
    <path id="Trazado_635156" data-name="Trazado 635156" d="M1030.881,698.592a.343.343,0,0,1-.343-.343V679.383a.342.342,0,1,1,.685,0v18.866A.343.343,0,0,1,1030.881,698.592Z" transform="translate(-1030.538 -679.04)" fill="#32293a"/>
  </g>
  <g id="Grupo_949802" data-name="Grupo 949802" transform="translate(53.524 65.24)">
    <path id="Trazado_635157" data-name="Trazado 635157" d="M931.542,694.492a.343.343,0,0,1-.116-.02l-15.251-5.506a.342.342,0,0,1-.19-.475l5.885-11.885a.342.342,0,1,1,.612.3l-5.715,11.541,14.622,5.278,5.47-9.437a.343.343,0,0,1,.592.345l-5.613,9.685A.343.343,0,0,1,931.542,694.492Z" transform="translate(-915.95 -676.416)" fill="#32293a"/>
  </g>
  <g id="Grupo_949803" data-name="Grupo 949803" transform="translate(152.313 17.556)">
    <path id="Trazado_635158" data-name="Trazado 635158" d="M1111.443,589.945a.343.343,0,0,1-.138-.657c1.569-.689,5.41-2.384,7.22-3.242,2.066-.98,1.823-2.525,1.494-3.359a.342.342,0,1,1,.637-.252,3.139,3.139,0,0,1-1.839,4.23c-1.817.862-5.666,2.56-7.237,3.251A.348.348,0,0,1,1111.443,589.945Z" transform="translate(-1111.101 -582.218)" fill="#32293a"/>
  </g>
  <g id="Grupo_949804" data-name="Grupo 949804" transform="translate(158.583 18.212)">
    <path id="Trazado_635159" data-name="Trazado 635159" d="M1123.829,589.675a.343.343,0,0,1-.163-.645c1.433-.776,3.982-2.169,4.944-2.767a3.518,3.518,0,0,0,1.759-2.468.342.342,0,1,1,.672.128,4.245,4.245,0,0,1-2.069,2.923c-.978.608-3.54,2.008-4.979,2.788A.346.346,0,0,1,1123.829,589.675Z" transform="translate(-1123.486 -583.515)" fill="#32293a"/>
  </g>
  <g id="Grupo_949805" data-name="Grupo 949805" transform="translate(158.941 23.197)">
    <path id="Trazado_635160" data-name="Trazado 635160" d="M1124.538,597.042a.343.343,0,0,1-.173-.639l5.094-2.993a.342.342,0,1,1,.346.591l-5.093,2.994A.343.343,0,0,1,1124.538,597.042Z" transform="translate(-1124.196 -593.362)" fill="#32293a"/>
  </g>
  <g id="Grupo_949806" data-name="Grupo 949806" transform="translate(147.539 24.067)">
    <path id="Trazado_635161" data-name="Trazado 635161" d="M1108.1,603.992l-.038,0a.342.342,0,0,1-.3-.378,10.041,10.041,0,0,0-.11-3.032.344.344,0,0,1,.25-.391c.028-.008,2.8-.757,3.853-2.036a1.9,1.9,0,0,0-.039-2.281.212.212,0,0,0-.241-.1l-9.353,2.951a.343.343,0,0,1-.207-.654l9.353-2.95a.888.888,0,0,1,1.032.393,2.548,2.548,0,0,1-.018,3.073,9.1,9.1,0,0,1-3.906,2.175,10.545,10.545,0,0,1,.065,2.922A.343.343,0,0,1,1108.1,603.992Z" transform="translate(-1101.671 -595.081)" fill="#32293a"/>
  </g>
  <g id="Grupo_949807" data-name="Grupo 949807" transform="translate(125.838 51.522)">
    <path id="Trazado_635162" data-name="Trazado 635162" d="M1059.144,667.953a.343.343,0,0,1-.342-.343V649.659a.343.343,0,0,1,.342-.343h10.225a.343.343,0,0,1,0,.686h-9.882V667.61A.343.343,0,0,1,1059.144,667.953Z" transform="translate(-1058.802 -649.316)" fill="#32293a"/>
  </g>
  <g id="Grupo_949808" data-name="Grupo 949808" transform="translate(109.667 51.522)">
    <path id="Trazado_635163" data-name="Trazado 635163" d="M1043.37,650H1027.2a.343.343,0,0,1,0-.686h16.171a.343.343,0,0,1,0,.686Z" transform="translate(-1026.857 -649.316)" fill="#32293a"/>
  </g>
  <g id="Grupo_949809" data-name="Grupo 949809" transform="translate(97.45 115.828)">
    <path id="Trazado_635164" data-name="Trazado 635164" d="M1003.065,798.552a.342.342,0,0,1-.342-.343l.038-12.578,4.683-9.1a.342.342,0,1,1,.608.314l-4.645,9.023v12.338A.342.342,0,0,1,1003.065,798.552Z" transform="translate(-1002.723 -776.349)" fill="#faf5ff"/>
  </g>
  <g id="Grupo_949810" data-name="Grupo 949810" transform="translate(109.86 142.798)">
    <path id="Trazado_635165" data-name="Trazado 635165" d="M1033.35,838.547a.342.342,0,0,1-.28-.146l-5.769-8.236a.342.342,0,1,1,.56-.394l5.77,8.236a.343.343,0,0,1-.28.54Z" transform="translate(-1027.238 -829.625)" fill="#faf5ff"/>
  </g>
  <g id="Grupo_949811" data-name="Grupo 949811" transform="translate(81.22 103.622)">
    <path id="Trazado_635166" data-name="Trazado 635166" d="M971,760.249a.343.343,0,0,1,0-.686c4.487,0,6.969-4.129,6.969-6.983a.342.342,0,1,1,.684,0A7.869,7.869,0,0,1,971,760.249Z" transform="translate(-970.662 -752.237)" fill="#faf5ff"/>
  </g>
  <g id="Grupo_949812" data-name="Grupo 949812" transform="translate(94.361 72.245)">
    <path id="Trazado_635167" data-name="Trazado 635167" d="M998.216,693.451a1.6,1.6,0,1,1,1.6-1.6A1.6,1.6,0,0,1,998.216,693.451Zm0-2.512a.913.913,0,1,0,.911.913A.913.913,0,0,0,998.216,690.939Z" transform="translate(-996.621 -690.253)" fill="#faf5ff"/>
  </g>
  <g id="Grupo_949813" data-name="Grupo 949813" transform="translate(95.951 31.451)">
    <path id="Trazado_635168" data-name="Trazado 635168" d="M1002.084,615.3a.335.335,0,0,1-.1-.016.342.342,0,0,1-.226-.428l.261-.849a.182.182,0,0,0-.025-.159.16.16,0,0,0-.123-.071,2.242,2.242,0,0,1-1.73-.823,1.989,1.989,0,0,1-.34-1.579,2.559,2.559,0,0,1,1.115-1.656.343.343,0,0,1,.361.583,1.877,1.877,0,0,0-.8,1.2,1.3,1.3,0,0,0,.217,1.041,1.624,1.624,0,0,0,1.225.548.843.843,0,0,1,.642.367.864.864,0,0,1,.115.75l-.261.849A.343.343,0,0,1,1002.084,615.3Z" transform="translate(-999.761 -609.667)" fill="#32293a"/>
  </g>
  <g id="Grupo_949814" data-name="Grupo 949814" transform="translate(94.493 40.316)">
    <path id="Trazado_635169" data-name="Trazado 635169" d="M998.106,631.248a4.9,4.9,0,0,1-.95-.094.343.343,0,0,1,.132-.673,4.515,4.515,0,0,0,4.955-3.071.342.342,0,1,1,.646.224A5.357,5.357,0,0,1,998.106,631.248Z" transform="translate(-996.881 -627.179)" fill="#32293a"/>
  </g>
  <g id="Grupo_949815" data-name="Grupo 949815" transform="translate(90.124 34.44)">
    <path id="Trazado_635170" data-name="Trazado 635170" d="M988.594,618.181a.33.33,0,0,1-.05,0,.342.342,0,0,1-.29-.388,2.691,2.691,0,0,1,1.108-1.809,2.287,2.287,0,0,1,1.841-.346.343.343,0,0,1-.149.669,1.613,1.613,0,0,0-1.3.241,2.027,2.027,0,0,0-.819,1.342A.341.341,0,0,1,988.594,618.181Z" transform="translate(-988.251 -615.573)" fill="#32293a"/>
  </g>
  <path id="Trazado_635171" data-name="Trazado 635171" d="M993.867,619.536a.69.69,0,1,1-1.02-.347A.774.774,0,0,1,993.867,619.536Z" transform="translate(-900.262 -582.875)" fill="#32293a"/>
  <path id="Trazado_635172" data-name="Trazado 635172" d="M1002.532,613.983a.69.69,0,1,1-1.02-.347A.774.774,0,0,1,1002.532,613.983Z" transform="translate(-904.541 -580.133)" fill="#32293a"/>
  <g id="Grupo_949816" data-name="Grupo 949816" transform="translate(96.492 38.372)">
    <path id="Trazado_635173" data-name="Trazado 635173" d="M1001.569,624.752a1.4,1.4,0,0,1-.524-.1.343.343,0,0,1,.257-.635.685.685,0,0,0,.578-.024.523.523,0,0,0,.271-.374.339.339,0,0,1,.4-.271.343.343,0,0,1,.271.4,1.208,1.208,0,0,1-.617.846A1.342,1.342,0,0,1,1001.569,624.752Z" transform="translate(-1000.831 -623.339)" fill="#32293a"/>
  </g>
  <g id="Grupo_949817" data-name="Grupo 949817" transform="translate(84.375 43.41)">
    <path id="Trazado_635174" data-name="Trazado 635174" d="M977.237,642.2a.343.343,0,0,1-.242-.586L979,639.595a3.01,3.01,0,0,0,.74-3.048l-.892-2.808a.342.342,0,1,1,.652-.208l.892,2.808a3.7,3.7,0,0,1-.907,3.74l-2.009,2.017A.343.343,0,0,1,977.237,642.2Z" transform="translate(-976.895 -633.291)" fill="#32293a"/>
  </g>
  <g id="Grupo_949818" data-name="Grupo 949818" transform="translate(94.684 43.701)">
    <path id="Trazado_635175" data-name="Trazado 635175" d="M997.6,651.378h0a.343.343,0,0,1,0-.686h0a5.985,5.985,0,0,0,4.464-1.738c2.163-2.213,2.35-5.885,2.365-6.691l-2.952-2.305a3.673,3.673,0,0,1-1.091-1.4l-1.875-4.213a.342.342,0,1,1,.624-.279l1.876,4.213a3,3,0,0,0,.887,1.135l3.085,2.409a.342.342,0,0,1,.132.263c0,.189.067,4.656-2.56,7.345A6.649,6.649,0,0,1,997.6,651.378Z" transform="translate(-997.259 -633.866)" fill="#32293a"/>
  </g>
  <g id="Grupo_949822" data-name="Grupo 949822" transform="translate(164.252 19.475)">
    <g id="Grupo_949819" data-name="Grupo 949819" transform="translate(0 9.157)">
      <path id="Trazado_635176" data-name="Trazado 635176" d="M1156.325,615.275a10.481,10.481,0,1,1-17.29-7.979,10.357,10.357,0,0,1,3.239-1.9,10.536,10.536,0,0,1,7.139,0,10.359,10.359,0,0,1,3.239,1.9A10.471,10.471,0,0,1,1156.325,615.275Z" transform="translate(-1135.02 -604.43)" fill="#3795a3"/>
      <path id="Trazado_635177" data-name="Trazado 635177" d="M1145.509,625.791a10.848,10.848,0,0,1-7.031-19.088,10.658,10.658,0,0,1,3.345-1.963,10.919,10.919,0,0,1,7.371,0,10.662,10.662,0,0,1,3.347,1.965,10.847,10.847,0,0,1-7.032,19.086Zm0-21.009a10.13,10.13,0,0,0-3.453.6,9.958,9.958,0,0,0-3.131,1.839,10.14,10.14,0,1,0,13.171,0,9.959,9.959,0,0,0-3.133-1.841A10.141,10.141,0,0,0,1145.509,604.782Z" transform="translate(-1134.686 -604.099)" fill="#32293a"/>
    </g>
    <g id="Grupo_949820" data-name="Grupo 949820" transform="translate(3.673)">
      <path id="Trazado_635178" data-name="Trazado 635178" d="M1156.235,593.5v4.863a10.353,10.353,0,0,0-3.239-1.9V593.5a3.57,3.57,0,1,0-7.139,0v2.96a10.353,10.353,0,0,0-3.239,1.9V593.5a6.808,6.808,0,1,1,13.617,0Z" transform="translate(-1142.275 -586.344)" fill="#45bbcc"/>
      <path id="Trazado_635179" data-name="Trazado 635179" d="M1156.243,598.78l-.567-.49a9.955,9.955,0,0,0-3.131-1.839l-.226-.082v-3.2a3.227,3.227,0,1,0-6.454,0v3.2l-.226.082a9.967,9.967,0,0,0-3.131,1.84l-.566.489v-5.611a7.151,7.151,0,1,1,14.3,0Zm-7.151-12.085a6.477,6.477,0,0,0-6.466,6.474v4.146a10.621,10.621,0,0,1,2.554-1.423v-2.723a3.912,3.912,0,1,1,7.824,0v2.723a10.609,10.609,0,0,1,2.554,1.423v-4.146A6.477,6.477,0,0,0,1149.092,586.695Z" transform="translate(-1141.941 -586.009)" fill="#32293a"/>
    </g>
    <g id="Grupo_949821" data-name="Grupo 949821" transform="translate(8.717 16.395)">
      <path id="Trazado_635180" data-name="Trazado 635180" d="M1156.11,620.841a1.769,1.769,0,0,1-.67,1.391v3.015a1.1,1.1,0,0,1-1.872.779,1.109,1.109,0,0,1-.321-.779v-3.019a1.767,1.767,0,1,1,2.863-1.386Z" transform="translate(-1152.239 -618.73)" fill="#32293a"/>
      <path id="Trazado_635181" data-name="Trazado 635181" d="M1154.012,626.356a1.432,1.432,0,0,1-1.019-.422,1.459,1.459,0,0,1-.422-1.022v-2.863a2.106,2.106,0,1,1,2.877.006v2.858A1.442,1.442,0,0,1,1154.012,626.356Zm0-7.274a1.427,1.427,0,0,0-.884,2.544.343.343,0,0,1,.128.267v3.019a.766.766,0,0,0,.221.537.755.755,0,0,0,1.288-.537V621.9a.344.344,0,0,1,.129-.268,1.428,1.428,0,0,0-.881-2.547Z" transform="translate(-1151.905 -618.396)" fill="#32293a"/>
    </g>
  </g>
  <g id="Grupo_949825" data-name="Grupo 949825" transform="translate(9.756 108.207)">
    <g id="Grupo_949823" data-name="Grupo 949823">
      <path id="Trazado_635182" data-name="Trazado 635182" d="M856.949,772.689v-.126a5.431,5.431,0,0,0-9.407-3.72v-1.422a5.439,5.439,0,1,0-10.878,0v5.249H835.6a5.451,5.451,0,0,0,0,10.9h20.969a5.448,5.448,0,0,0,.377-10.882Z" transform="translate(-829.823 -761.628)" fill="#462eb4"/>
      <path id="Trazado_635183" data-name="Trazado 635183" d="M856.239,783.579H835.27a5.794,5.794,0,0,1,0-11.587h.719v-4.905a5.781,5.781,0,1,1,11.562,0v.634a5.7,5.7,0,0,1,3.626-1.286,8.941,8.941,0,0,1,5.062,17.145Zm-20.969-10.9a5.108,5.108,0,0,0,0,10.215h20.969a5.105,5.105,0,0,0,.353-10.2.342.342,0,0,1-.318-.342v-.126a5.108,5.108,0,0,0-5.1-5.107,5.04,5.04,0,0,0-3.718,1.622.342.342,0,0,1-.592-.234v-1.422a5.1,5.1,0,1,0-10.193,0v5.248a.342.342,0,0,1-.342.343Z" transform="translate(-829.489 -761.293)" fill="#32293a"/>
    </g>
    <ellipse id="Elipse_5439" data-name="Elipse 5439" cx="3.819" cy="3.827" rx="3.819" ry="3.827" transform="translate(11.954 10.832)" fill="#fffdf7"/>
    <g id="Grupo_949824" data-name="Grupo 949824" transform="translate(13.707 9.887)">
      <path id="Trazado_635184" data-name="Trazado 635184" d="M858.6,787.468a.344.344,0,0,1-.243-.1l-1.689-1.693a.342.342,0,0,1,.483-.485l1.448,1.451,5.7-5.715a.343.343,0,0,1,.484.485l-5.944,5.957A.343.343,0,0,1,858.6,787.468Z" transform="translate(-856.567 -780.824)" fill="#32293a"/>
    </g>
  </g>
  <g id="Grupo_949826" data-name="Grupo 949826" transform="translate(170.19 118.685)">
    <path id="Trazado_635185" data-name="Trazado 635185" d="M1150.022,840.944a.351.351,0,0,1-.1-.015.344.344,0,0,1-.225-.43c1.208-3.9.1-6.729-1.174-10-1.339-3.429-2.857-7.315-1.686-13.106.839-4.149,3.634-7.066,6.869-10.444,5.129-5.356,10.943-11.427,10.943-24.612a.342.342,0,1,1,.684,0c0,13.461-6.173,19.907-11.134,25.087-3.161,3.3-5.891,6.152-6.691,10.105-1.131,5.593.284,9.216,1.652,12.72,1.271,3.252,2.47,6.324,1.191,10.455A.343.343,0,0,1,1150.022,840.944Z" transform="translate(-1146.416 -781.993)" fill="#32293a"/>
  </g>
  <g id="Grupo_949827" data-name="Grupo 949827" transform="translate(21.538 15.338)">
    <path id="Trazado_635186" data-name="Trazado 635186" d="M862.666,634.14l-.033,0a.343.343,0,0,1-.308-.374c.451-4.768-1.819-8.9-4.223-13.277-3.361-6.119-7.17-13.055-4.36-23.3,4.124-15.032,17.619-18.54,23.23-19.35a.343.343,0,0,1,.1.678c-5.477.791-18.65,4.212-22.667,18.854-2.737,9.973,1,16.779,4.3,22.784,2.456,4.471,4.776,8.694,4.3,13.671A.343.343,0,0,1,862.666,634.14Z" transform="translate(-852.764 -577.837)" fill="#32293a"/>
  </g>
  <g id="Grupo_949828" data-name="Grupo 949828" transform="translate(72.016 3.238)">
    <path id="Trazado_635187" data-name="Trazado 635187" d="M956.2,561.4a3.732,3.732,0,1,1,3.724-3.732A3.733,3.733,0,0,1,956.2,561.4Zm0-6.779a3.046,3.046,0,1,0,3.039,3.046A3.046,3.046,0,0,0,956.2,554.621Z" transform="translate(-952.479 -553.935)" fill="#32293a"/>
  </g>
  <g id="Grupo_949829" data-name="Grupo 949829" transform="translate(82.671 10.916)">
    <path id="Trazado_635188" data-name="Trazado 635188" d="M975.654,573.362a2.13,2.13,0,1,1,2.125-2.13A2.13,2.13,0,0,1,975.654,573.362Zm0-3.574a1.444,1.444,0,1,0,1.441,1.444A1.444,1.444,0,0,0,975.654,569.788Z" transform="translate(-973.529 -569.102)" fill="#32293a"/>
  </g>
  <g id="Grupo_949830" data-name="Grupo 949830" transform="translate(28.057 175.691)">
    <path id="Trazado_635189" data-name="Trazado 635189" d="M869.024,901.383a3.389,3.389,0,1,1,3.382-3.39A3.39,3.39,0,0,1,869.024,901.383Zm0-6.093a2.7,2.7,0,1,0,2.7,2.7A2.7,2.7,0,0,0,869.024,895.29Z" transform="translate(-865.642 -894.604)" fill="#32293a"/>
  </g>
  <g id="Grupo_949831" data-name="Grupo 949831" transform="translate(16.237 172.838)">
    <path id="Trazado_635190" data-name="Trazado 635190" d="M844.295,892.983a2.007,2.007,0,1,1,2-2.007A2.007,2.007,0,0,1,844.295,892.983Zm0-3.328a1.321,1.321,0,1,0,1.319,1.321A1.321,1.321,0,0,0,844.295,889.655Z" transform="translate(-842.292 -888.969)" fill="#32293a"/>
  </g>
  <g id="Grupo_949832" data-name="Grupo 949832" transform="translate(183.554 87.181)">
    <path id="Trazado_635191" data-name="Trazado 635191" d="M1174.819,723.773a2.007,2.007,0,1,1,2-2.007A2.007,2.007,0,0,1,1174.819,723.773Zm0-3.328a1.321,1.321,0,1,0,1.319,1.321A1.321,1.321,0,0,0,1174.819,720.445Z" transform="translate(-1172.817 -719.759)" fill="#32293a"/>
  </g>
</svg>
