<svg xmlns="http://www.w3.org/2000/svg" width="300.262" height="289.554" viewBox="0 0 300.262 289.554">
  <g id="Grupo_961265" data-name="Grupo 961265" transform="translate(-192.407 -1073.002)">
    <path id="Trazado_660068" data-name="Trazado 660068" d="M2,0,0,54" transform="translate(314.5 1308.5)" fill="none" stroke="#000" stroke-width="3"/>
    <path id="Trazado_657699" data-name="Trazado 657699" d="M284.947,3229.821H65v-33.3a1.66,1.66,0,1,1,3.319,0V3226.5H281.629v-29.981a1.659,1.659,0,0,1,3.318,0Z" transform="translate(147.413 -1916.866)"/>
    <path id="Trazado_657700" data-name="Trazado 657700" d="M174.975,2989.868a129.981,129.981,0,1,0,129.981,129.98A129.981,129.981,0,0,0,174.975,2989.868Z" transform="translate(147.413 -1916.866)" fill="#45bbcc"/>
    <path id="Trazado_657701" data-name="Trazado 657701" d="M283.288,3198.18a1.659,1.659,0,0,1-1.659-1.659v-78.332h57.83a1.659,1.659,0,0,1,0,3.318H284.947v75.014A1.659,1.659,0,0,1,283.288,3198.18Z" transform="translate(147.413 -1916.866)"/>
    <path id="Trazado_657702" data-name="Trazado 657702" d="M66.662,3198.18A1.659,1.659,0,0,1,65,3196.521V3009.876H284.947v94.6a1.659,1.659,0,0,1-3.318,0V3013.2H68.322v183.326A1.659,1.659,0,0,1,66.662,3198.18Z" transform="translate(147.413 -1916.866)"/>
    <path id="Trazado_657703" data-name="Trazado 657703" d="M338.3,3135.748a1.659,1.659,0,0,1-1.074-2.924l15.3-12.976-15.3-12.975a1.659,1.659,0,1,1,2.146-2.531l18.286,15.506-18.286,15.507A1.655,1.655,0,0,1,338.3,3135.748Z" transform="translate(135.006 -1916.866)"/>
    <path id="Rectángulo_34831" data-name="Rectángulo 34831" d="M0,0H105V110H0Z" transform="translate(269.888 1127.279)" fill="none"/>
    <g id="ley_1_" data-name="ley(1)" transform="translate(272.725 1109.012)">
      <g id="Grupo_957517" data-name="Grupo 957517" transform="translate(1.455 30.737)">
        <g id="Grupo_957513" data-name="Grupo 957513" transform="translate(0 34.319)">
          <g id="Grupo_957511" data-name="Grupo 957511" transform="translate(0 11.424)">
            <path id="Trazado_657699-2" data-name="Trazado 657699" d="M46.815,277.385l-4.821-4.821-32.821,30.3a5.2,5.2,0,1,0,7.344,7.344Z" transform="translate(-7.5 -272.564)" fill="#873f30"/>
            <path id="Trazado_657700-2" data-name="Trazado 657700" d="M17.432,316.518a5.2,5.2,0,0,1-7.348,0,5.146,5.146,0,0,1-1.268-2.071,5.189,5.189,0,0,0,5.274-1.263c.05-.05.1-.1.148-.154l30.3-32.822,3.339,3.339-30.3,32.822C17.528,316.419,17.48,316.47,17.432,316.518Z" transform="translate(-8.561 -278.724)" fill="#6c3328"/>
          </g>
          <path id="Trazado_657701-2" data-name="Trazado 657701" d="M188.5,213.677,177.4,226.92l4.535,4.535,13.243-11.1Z" transform="translate(-144.44 -213.677)" fill="#873f30"/>
          <path id="Trazado_657702-2" data-name="Trazado 657702" d="M195.924,213.677l-3.588,4.279,1.076,1.076a2.029,2.029,0,0,1,0,2.869l-6.8,6.8,2.749,2.749,13.243-11.1Z" transform="translate(-151.862 -213.677)" fill="#6c3328"/>
          <g id="Grupo_957512" data-name="Grupo 957512" transform="translate(29.441 10.376)">
            <path id="Trazado_657703-2" data-name="Trazado 657703" d="M164.619,277.129l-4.4-4.4a3.259,3.259,0,1,1,4.609-4.609l4.4,4.4a3.259,3.259,0,1,1-4.609,4.609Z" transform="translate(-159.262 -267.162)" fill="#ba5d4f"/>
            <path id="Trazado_657704" data-name="Trazado 657704" d="M177.615,285.522a3.26,3.26,0,0,1-4.609,0l-3.337-3.337a3.259,3.259,0,0,0,4.609-4.609l3.337,3.337A3.257,3.257,0,0,1,177.615,285.522Z" transform="translate(-167.65 -275.556)" fill="#a34f41"/>
          </g>
        </g>
        <g id="Grupo_957514" data-name="Grupo 957514" transform="translate(34.468 4.05)">
          <path id="Trazado_657705" data-name="Trazado 657705" d="M0,0H13.827V21.707H0Z" transform="translate(15.347 0) rotate(45)" fill="#ba5d4f"/>
          <path id="Trazado_657706" data-name="Trazado 657706" d="M0,0H13.827V21.707H0Z" transform="translate(31.187 46.549) rotate(-135)" fill="#a34f41"/>
        </g>
        <g id="Grupo_957516" data-name="Grupo 957516" transform="translate(30.413)">
          <path id="Trazado_657707" data-name="Trazado 657707" d="M165.573,59.539l-.339-.339a3.3,3.3,0,0,1,0-4.663l16.8-16.8a3.3,3.3,0,0,1,4.663,0l.339.339a3.3,3.3,0,0,1,0,4.663l-16.8,16.8A3.3,3.3,0,0,1,165.573,59.539Z" transform="translate(-164.268 -36.772)" fill="#873f30"/>
          <path id="Trazado_657708" data-name="Trazado 657708" d="M324.581,218.547l.339.34a3.3,3.3,0,0,0,4.663,0l16.8-16.8a3.3,3.3,0,0,0,0-4.663l-.339-.34a3.3,3.3,0,0,0-4.663,0l-16.8,16.8A3.3,3.3,0,0,0,324.581,218.547Z" transform="translate(-292.702 -165.207)" fill="#6c3328"/>
          <g id="Grupo_957515" data-name="Grupo 957515" transform="translate(8.49 8.49)">
            <path id="Trazado_657709" data-name="Trazado 657709" d="M0,0H15.527V32.784H0Z" transform="translate(24.931 1.745) rotate(45)" fill="#fcc16d"/>
            <path id="Trazado_657710" data-name="Trazado 657710" d="M0,0H32.784V7.859H0Z" transform="translate(7.166 30.358) rotate(-45)" fill="#fca62f"/>
            <path id="Trazado_657711" data-name="Trazado 657711" d="M233.014,81.817l-2.69-1.1a2.473,2.473,0,0,0-2.684.54l-18.886,18.886a2.473,2.473,0,0,0-.54,2.684l1.1,2.69a1.648,1.648,0,0,0,2.692.542l21.55-21.55A1.649,1.649,0,0,0,233.014,81.817Z" transform="translate(-208.03 -80.534)" fill="#873f30"/>
            <path id="Trazado_657712" data-name="Trazado 657712" d="M292.843,141.647l1.1,2.69a2.473,2.473,0,0,1-.54,2.684l-18.885,18.885a2.473,2.473,0,0,1-2.684.54l-2.69-1.1a1.649,1.649,0,0,1-.542-2.692l21.55-21.55a1.649,1.649,0,0,1,2.692.542Z" transform="translate(-256.46 -128.965)" fill="#6c3328"/>
          </g>
        </g>
      </g>
      <g id="Grupo_957520" data-name="Grupo 957520" transform="translate(0 29.285)">
        <g id="Grupo_957518" data-name="Grupo 957518" transform="translate(46.652 67.759)">
          <path id="Trazado_657713" data-name="Trazado 657713" d="M280.521,386.284H240.477v-5.62a2.1,2.1,0,0,1,2.1-2.1H278.42a2.1,2.1,0,0,1,2.1,2.1Z" transform="translate(-240.477 -378.564)" fill="#ba5d4f"/>
          <path id="Trazado_657714" data-name="Trazado 657714" d="M419.9,380.667v5.619h-4.394v-5.619a2.1,2.1,0,0,0-2.1-2.1H417.8A2.1,2.1,0,0,1,419.9,380.667Z" transform="translate(-379.86 -378.566)" fill="#a34f41"/>
        </g>
        <path id="Trazado_657715" data-name="Trazado 657715" d="M243.943,418.047H186.248a2.1,2.1,0,0,1-1.91-2.975l2.039-4.453a10.848,10.848,0,0,1,9.863-6.331H233.95a10.848,10.848,0,0,1,9.863,6.331l2.04,4.453A2.1,2.1,0,0,1,243.943,418.047Z" transform="translate(-148.422 -331.537)" fill="#873f30"/>
        <path id="Trazado_657716" data-name="Trazado 657716" d="M427.534,418.044h-5.617a2.1,2.1,0,0,0,1.91-2.974l-2.04-4.455a10.85,10.85,0,0,0-9.862-6.331h5.615a10.851,10.851,0,0,1,9.864,6.331l2.04,4.455A2.1,2.1,0,0,1,427.534,418.044Z" transform="translate(-332.012 -331.534)" fill="#6c3328"/>
        <g id="Grupo_957519" data-name="Grupo 957519" transform="translate(0 0)">
          <path id="Trazado_657717" data-name="Trazado 657717" d="M67.76,41.424a3.1,3.1,0,0,0-1.868-2.26l-2.69-1.1a3.919,3.919,0,0,0-4.264.858l-.739.739-2.247-2.247a4.757,4.757,0,0,0-.289-6.4l-.34-.34a4.758,4.758,0,0,0-6.721,0l-16.8,16.8a4.758,4.758,0,0,0,0,6.721l.34.339a4.751,4.751,0,0,0,6.4.29l2.246,2.246-.739.739a3.919,3.919,0,0,0-.858,4.264l1.1,2.689a3.1,3.1,0,0,0,2.049,1.817L35.867,74.3a4.707,4.707,0,0,0-6.153,5.952L2.14,105.709a6.652,6.652,0,0,0,4.508,11.54h.137a6.6,6.6,0,0,0,4.755-2.139l13.808-14.958a1.455,1.455,0,0,0-2.138-1.974L9.4,113.136a3.742,3.742,0,1,1-5.288-5.288L31.43,82.632l3.189,3.189-6.749,7.311a1.455,1.455,0,1,0,2.138,1.974l6.983-7.564a4.717,4.717,0,0,0,5.962-6.162l7.721-6.472a3.1,3.1,0,0,0,1.817,2.049l2.69,1.1a3.92,3.92,0,0,0,4.264-.858l.739-.739L62.429,78.7a4.757,4.757,0,0,0,.289,6.4l.339.34a4.758,4.758,0,0,0,6.721,0l16.8-16.8a4.758,4.758,0,0,0,0-6.721l-.339-.339a4.757,4.757,0,0,0-6.4-.289L77.589,59.05l.739-.739a3.919,3.919,0,0,0,.858-4.264l-1.1-2.69a3.1,3.1,0,0,0-2.26-1.868c-.06-.1-7.966-8.006-8.067-8.066ZM44.466,68.575l4.209,4.209L41.19,79.059l-3-3Zm38.41-5.47a1.831,1.831,0,0,1,1.3.54l.339.339a1.845,1.845,0,0,1,0,2.605l-16.8,16.8a1.844,1.844,0,0,1-2.605,0l-.34-.34a1.845,1.845,0,0,1,0-2.605l16.8-16.8a1.832,1.832,0,0,1,1.3-.539Zm-5.113.235L64.471,76.632,62.239,74.4,75.531,61.109ZM76.27,56.254,57.384,75.14a1.016,1.016,0,0,1-1.105.222l-2.69-1.1a.194.194,0,0,1-.064-.316L75.076,52.4a.18.18,0,0,1,.132-.057.222.222,0,0,1,.043,0,.181.181,0,0,1,.141.117l1.1,2.69a1.015,1.015,0,0,1-.222,1.1Zm-3.464-5.7L51.682,71.676l-6.107-6.107L66.7,44.444ZM35.5,53.014a1.829,1.829,0,0,1-1.3-.54h0l-.339-.339a1.844,1.844,0,0,1,0-2.605l16.8-16.8a1.844,1.844,0,0,1,2.605,0l.34.34a1.842,1.842,0,0,1,0,2.605l-16.8,16.8A1.831,1.831,0,0,1,35.5,53.014Zm6.606,6.851L52.5,49.479a1.455,1.455,0,1,0-2.058-2.058l-7.59,7.59-2.232-2.232L53.91,39.487l2.232,2.232-.847.847a1.455,1.455,0,0,0,2.058,2.058L61,40.98a1.015,1.015,0,0,1,1.105-.222l2.69,1.1a.194.194,0,0,1,.064.316L43.3,63.724a.194.194,0,0,1-.316-.064l-1.1-2.69a1.015,1.015,0,0,1,.222-1.1Zm-9.23,17.55a1.806,1.806,0,0,1,2.551,0l4.4,4.4a1.8,1.8,0,0,1-2.552,2.551l-4.4-4.4A1.807,1.807,0,0,1,32.88,77.416Z" transform="translate(0 -29.285)"/>
          <path id="Trazado_657718" data-name="Trazado 657718" d="M239.092,383.235a12.341,12.341,0,0,0-8.563-6.9v-1.72a3.56,3.56,0,0,0-3.556-3.556H202.045a1.455,1.455,0,0,0,0,2.91h24.928a.646.646,0,0,1,.646.646v1.435H190.484V374.62a.646.646,0,0,1,.646-.646h4.048a1.455,1.455,0,0,0,0-2.91H191.13a3.56,3.56,0,0,0-3.556,3.556v1.72a12.341,12.341,0,0,0-8.563,6.9l-2.04,4.453a3.556,3.556,0,0,0,3.233,5.036H237.9a3.556,3.556,0,0,0,3.233-5.036Zm-.65,6.283a.629.629,0,0,1-.543.3H180.2a.645.645,0,0,1-.587-.914l2.04-4.453a9.417,9.417,0,0,1,8.54-5.482h37.709a9.417,9.417,0,0,1,8.54,5.482l2.04,4.453A.628.628,0,0,1,238.442,389.517Z" transform="translate(-142.377 -304.759)"/>
          <path id="Trazado_657719" data-name="Trazado 657719" d="M470.567,342.042a1.451,1.451,0,0,0,1.026-.423l1.574-1.565a1.455,1.455,0,1,0-2.052-2.064l-1.574,1.565a1.455,1.455,0,0,0,1.026,2.487Z" transform="translate(-378.105 -277.761)"/>
          <path id="Trazado_657720" data-name="Trazado 657720" d="M446.026,318.735l-.546,2.177a1.455,1.455,0,1,0,2.823.708l.546-2.177a1.455,1.455,0,0,0-2.823-.708Z" transform="translate(-359.022 -261.694)"/>
          <path id="Trazado_657721" data-name="Trazado 657721" d="M485.8,368.983a1.453,1.453,0,0,0,1.759,1.068l2.181-.533a1.455,1.455,0,0,0-.691-2.827l-2.181.534A1.455,1.455,0,0,0,485.8,368.983Z" transform="translate(-391.52 -301.2)"/>
        </g>
      </g>
    </g>
    <path id="Trazado_660069" data-name="Trazado 660069" d="M5.019-12.8l2.856,8.9,2.848-8.9h4.061V0H11.689V-2.988l.3-6.117L8.895,0H6.855l-3.1-9.114.3,6.126V0H.967V-12.8ZM21.964,0a3.344,3.344,0,0,1-.281-.853A2.754,2.754,0,0,1,19.4.176a3.374,3.374,0,0,1-2.285-.813,2.588,2.588,0,0,1-.94-2.043,2.66,2.66,0,0,1,1.143-2.338,5.821,5.821,0,0,1,3.322-.791h.914v-.5q0-1.316-1.134-1.316a.927.927,0,0,0-1.055,1.042H16.4a2.655,2.655,0,0,1,1.173-2.239,4.931,4.931,0,0,1,2.993-.86A4.323,4.323,0,0,1,23.44-8.8a3.086,3.086,0,0,1,1.081,2.435v4.21a4.311,4.311,0,0,0,.4,2V0ZM20.109-1.934a1.652,1.652,0,0,0,.918-.237,1.487,1.487,0,0,0,.523-.536V-4.228h-.861q-1.547,0-1.547,1.389a.848.848,0,0,0,.272.655A.986.986,0,0,0,20.109-1.934ZM28.881-9.51l.1,1.116a3.225,3.225,0,0,1,2.716-1.292,2.713,2.713,0,0,1,2.219.888,4.226,4.226,0,0,1,.76,2.672V0H31.7V-6a1.6,1.6,0,0,0-.29-1.059A1.342,1.342,0,0,0,30.357-7.4a1.413,1.413,0,0,0-1.292.686V0H26.1V-9.51Zm10.881-2.364V-9.51h1.564v2.057H39.762V-3.1a1.111,1.111,0,0,0,.193.747,1.037,1.037,0,0,0,.765.211,4.345,4.345,0,0,0,.738-.053V-.079a5.466,5.466,0,0,1-1.67.255,3.1,3.1,0,0,1-2.259-.721A2.954,2.954,0,0,1,36.8-2.733v-4.72H35.587V-9.51H36.8v-2.364ZM47.092.176A4.889,4.889,0,0,1,43.55-1.129a4.507,4.507,0,0,1-1.354-3.4v-.246a5.84,5.84,0,0,1,.541-2.575,3.955,3.955,0,0,1,1.578-1.727,4.763,4.763,0,0,1,2.461-.611,4.117,4.117,0,0,1,3.164,1.244A4.887,4.887,0,0,1,51.1-4.975v1.151H45.211a2.135,2.135,0,0,0,.694,1.257,2.066,2.066,0,0,0,1.389.457,2.662,2.662,0,0,0,2.2-.984l1.354,1.6A3.784,3.784,0,0,1,49.276-.277,5.3,5.3,0,0,1,47.092.176ZM46.758-7.4q-1.3,0-1.547,1.723H48.2v-.229a1.467,1.467,0,0,0-.36-1.1A1.434,1.434,0,0,0,46.758-7.4ZM55.011-9.51l.1,1.116a3.225,3.225,0,0,1,2.716-1.292,2.713,2.713,0,0,1,2.219.888,4.226,4.226,0,0,1,.76,2.672V0H57.832V-6a1.6,1.6,0,0,0-.29-1.059A1.342,1.342,0,0,0,56.487-7.4a1.413,1.413,0,0,0-1.292.686V0H52.233V-9.51ZM67.043.176A4.889,4.889,0,0,1,63.5-1.129a4.507,4.507,0,0,1-1.354-3.4v-.246a5.84,5.84,0,0,1,.541-2.575,3.955,3.955,0,0,1,1.578-1.727,4.763,4.763,0,0,1,2.461-.611,4.117,4.117,0,0,1,3.164,1.244,4.887,4.887,0,0,1,1.16,3.467v1.151H65.162a2.135,2.135,0,0,0,.694,1.257,2.066,2.066,0,0,0,1.389.457,2.662,2.662,0,0,0,2.2-.984l1.354,1.6A3.784,3.784,0,0,1,69.227-.277,5.3,5.3,0,0,1,67.043.176ZM66.709-7.4q-1.3,0-1.547,1.723H68.15v-.229a1.467,1.467,0,0,0-.36-1.1A1.434,1.434,0,0,0,66.709-7.4Zm11.285.571-.976-.07a1.752,1.752,0,0,0-1.793.879V0H72.264V-9.51h2.777l.1,1.222a2.294,2.294,0,0,1,2.083-1.4,2.888,2.888,0,0,1,.826.105Zm6.047,4.157a.684.684,0,0,0-.4-.606,6.016,6.016,0,0,0-1.5-.475A6.853,6.853,0,0,1,80.314-4.4a3.062,3.062,0,0,1-1.1-.971,2.319,2.319,0,0,1-.378-1.31,2.628,2.628,0,0,1,1.081-2.158,4.453,4.453,0,0,1,2.83-.848,4.934,4.934,0,0,1,3.023.853,2.666,2.666,0,0,1,1.143,2.241H83.944q0-1.143-1.2-1.143a1.194,1.194,0,0,0-.782.259.8.8,0,0,0-.316.646.737.737,0,0,0,.387.642,3.654,3.654,0,0,0,1.235.4,10.671,10.671,0,0,1,1.49.378A2.706,2.706,0,0,1,86.9-2.76,2.491,2.491,0,0,1,85.742-.642a5.068,5.068,0,0,1-2.993.817,5.172,5.172,0,0,1-2.18-.439,3.645,3.645,0,0,1-1.494-1.2,2.707,2.707,0,0,1-.536-1.591h2.769a1.145,1.145,0,0,0,.439.962,1.808,1.808,0,0,0,1.081.3,1.422,1.422,0,0,0,.91-.246A.787.787,0,0,0,84.041-2.672ZM92.883.176a4.889,4.889,0,0,1-3.542-1.305,4.507,4.507,0,0,1-1.354-3.4v-.246a5.84,5.84,0,0,1,.541-2.575,3.955,3.955,0,0,1,1.578-1.727,4.763,4.763,0,0,1,2.461-.611A4.117,4.117,0,0,1,95.73-8.442a4.887,4.887,0,0,1,1.16,3.467v1.151H91A2.135,2.135,0,0,0,91.7-2.566a2.066,2.066,0,0,0,1.389.457,2.662,2.662,0,0,0,2.2-.984l1.354,1.6A3.784,3.784,0,0,1,95.067-.277,5.3,5.3,0,0,1,92.883.176ZM92.549-7.4q-1.3,0-1.547,1.723H93.99v-.229a1.467,1.467,0,0,0-.36-1.1A1.434,1.434,0,0,0,92.549-7.4ZM105.688,0h-2.971V-13.5h2.971Zm6.425.176a4.889,4.889,0,0,1-3.542-1.305,4.507,4.507,0,0,1-1.354-3.4v-.246a5.84,5.84,0,0,1,.541-2.575,3.955,3.955,0,0,1,1.578-1.727,4.763,4.763,0,0,1,2.461-.611,4.117,4.117,0,0,1,3.164,1.244,4.887,4.887,0,0,1,1.16,3.467v1.151h-5.889a2.135,2.135,0,0,0,.694,1.257,2.066,2.066,0,0,0,1.389.457,2.662,2.662,0,0,0,2.2-.984l1.354,1.6A3.784,3.784,0,0,1,114.3-.277,5.3,5.3,0,0,1,112.113.176ZM111.779-7.4q-1.3,0-1.547,1.723h2.988v-.229a1.467,1.467,0,0,0-.36-1.1A1.434,1.434,0,0,0,111.779-7.4Zm5.186,2.575a6.421,6.421,0,0,1,.475-2.549A3.821,3.821,0,0,1,118.8-9.083a3.591,3.591,0,0,1,2.065-.6,2.855,2.855,0,0,1,2.32,1l.105-.826h2.689V-.36a4.009,4.009,0,0,1-.584,2.184,3.75,3.75,0,0,1-1.692,1.424,6.219,6.219,0,0,1-2.566.5,5.365,5.365,0,0,1-2.026-.4,3.657,3.657,0,0,1-1.5-1.028L118.854.58a2.716,2.716,0,0,0,2.18.976A1.764,1.764,0,0,0,123-.466v-.3a2.781,2.781,0,0,1-2.153.94,3.437,3.437,0,0,1-2.812-1.332,5.517,5.517,0,0,1-1.072-3.564Zm2.971.185a3.383,3.383,0,0,0,.439,1.85,1.386,1.386,0,0,0,1.23.681,1.573,1.573,0,0,0,1.4-.642v-4a1.534,1.534,0,0,0-1.38-.65,1.4,1.4,0,0,0-1.239.708A3.858,3.858,0,0,0,119.936-4.641ZM133.022,0a3.344,3.344,0,0,1-.281-.853A2.754,2.754,0,0,1,130.456.176a3.374,3.374,0,0,1-2.285-.813,2.588,2.588,0,0,1-.94-2.043,2.66,2.66,0,0,1,1.143-2.338A5.821,5.821,0,0,1,131.7-5.81h.914v-.5q0-1.316-1.134-1.316a.927.927,0,0,0-1.055,1.042h-2.962a2.655,2.655,0,0,1,1.173-2.239,4.931,4.931,0,0,1,2.993-.86A4.323,4.323,0,0,1,134.5-8.8a3.086,3.086,0,0,1,1.081,2.435v4.21a4.311,4.311,0,0,0,.4,2V0Zm-1.854-1.934a1.652,1.652,0,0,0,.918-.237,1.487,1.487,0,0,0,.523-.536V-4.228h-.861q-1.547,0-1.547,1.389a.848.848,0,0,0,.272.655A.986.986,0,0,0,131.168-1.934ZM140.344,0h-2.971V-13.5h2.971Z" transform="translate(258.352 1269.354)" fill="#12263f"/>
  </g>
</svg>
