<svg xmlns="http://www.w3.org/2000/svg" width="399.375" height="431.146" viewBox="0 0 399.375 431.146">
  <g id="Grupo_960502" data-name="Grupo 960502" transform="translate(-625.097 -4082.022)">
    <path id="Trazado_659384" data-name="Trazado 659384" d="M726.481,4137.625c3.269-25.816,24.435-67.343,69.686-52.471,30.689,10.086,36.287,35.152,80.809,38.738,45.794,3.688,64.589,31.914,56.482,79.11-7.137,41.548,51.246,39.683,49.058,79.421-2.266,41.121-29.493,35.166-35.977,66.469-6.161,29.741,21.669,44.459,7.06,78.4-36.181,84.058-157.79,76.56-217.589,19.989-62-58.648-14.9-101.737-18.474-129.089s-67.283-47.387-56.568-88.445S721.626,4175.947,726.481,4137.625Z" transform="translate(0.984 -0.001)" fill="#e0feec"/>
    <g id="Grupo_960467" data-name="Grupo 960467" transform="translate(889.043 4184.013)">
      <rect id="Rectángulo_45690" data-name="Rectángulo 45690" width="96.619" height="55.18" rx="26.799" transform="translate(0.695 0.696)" fill="#fffdf7"/>
      <path id="Trazado_659385" data-name="Trazado 659385" d="M951.54,4237.771H909.979a28.287,28.287,0,0,1,0-56.573H951.54a28.287,28.287,0,0,1,0,56.573Zm-41.561-55.18a26.893,26.893,0,0,0,0,53.787H951.54a26.893,26.893,0,0,0,0-53.787Z" transform="translate(-881.755 -4181.197)" fill="#32293a"/>
    </g>
    <rect id="Rectángulo_45691" data-name="Rectángulo 45691" width="43.481" height="9.087" rx="4.413" transform="translate(916.307 4199.747)" fill="#e6e1fb"/>
    <path id="Trazado_659386" data-name="Trazado 659386" d="M947.233,4206.3H912.819a5.241,5.241,0,0,1,0-10.482h34.413a5.241,5.241,0,0,1,0,10.482Zm-34.413-9.089a3.847,3.847,0,0,0,0,7.695h34.413a3.847,3.847,0,0,0,0-7.695Z" transform="translate(8.022 3.231)" fill="#32293a"/>
    <g id="Grupo_960468" data-name="Grupo 960468" transform="translate(915.613 4215.068)">
      <path id="Rectángulo_45692" data-name="Rectángulo 45692" d="M4.413,0H39.067a4.413,4.413,0,0,1,4.413,4.413v.26a4.414,4.414,0,0,1-4.414,4.414H4.413A4.413,4.413,0,0,1,0,4.674V4.413A4.413,4.413,0,0,1,4.413,0Z" transform="translate(0.695 0.696)" fill="#fffdf7"/>
      <path id="Trazado_659387" data-name="Trazado 659387" d="M947.233,4221.875H912.819a5.24,5.24,0,0,1,0-10.48h34.413a5.24,5.24,0,0,1,0,10.48Zm-34.413-9.087a3.847,3.847,0,0,0,0,7.693h34.413a3.847,3.847,0,0,0,0-7.693Z" transform="translate(-907.591 -4211.394)" fill="#32293a"/>
    </g>
    <path id="Trazado_659388" data-name="Trazado 659388" d="M757.648,4467.223H728.932l8.108-30.029h28.715Z" transform="translate(2.948 10.085)" fill="#f4c7a8"/>
    <path id="Trazado_659389" data-name="Trazado 659389" d="M763.44,4450.437h-1.119a3.517,3.517,0,0,0-3.1,1.87l-2.251,4.248H736.5l-2.252-4.248a3.516,3.516,0,0,0-3.1-1.87h-1.119a4.961,4.961,0,0,0-4.957,4.969v32.219a5.759,5.759,0,0,0,5.753,5.765h31.827a5.759,5.759,0,0,0,5.752-5.765v-32.219A4.961,4.961,0,0,0,763.44,4450.437Z" transform="translate(2.839 10.461)" fill="#583ae2"/>
    <path id="Trazado_659390" data-name="Trazado 659390" d="M737.043,4456.717v-2.672a9.359,9.359,0,0,1,9.348-9.369h0a9.359,9.359,0,0,1,9.348,9.369v2.672Z" transform="translate(3.179 10.297)" fill="#583ae2"/>
    <path id="Trazado_659391" data-name="Trazado 659391" d="M755.739,4456.385l-2.938,20.78a4.418,4.418,0,0,1-4.372,3.805h-4.076a4.42,4.42,0,0,1-4.373-3.805l-2.937-20.78Z" transform="translate(3.179 10.63)" fill="#583ae2"/>
    <path id="Trazado_659392" data-name="Trazado 659392" d="M748.448,4481.686h-4.077a5.137,5.137,0,0,1-5.06-4.4l-2.937-20.778a.694.694,0,1,1,1.375-.2l2.938,20.779a3.739,3.739,0,0,0,3.684,3.206h4.077a3.743,3.743,0,0,0,3.687-3.206l2.936-20.779a.694.694,0,1,1,1.375.2l-2.936,20.779A5.14,5.14,0,0,1,748.448,4481.686Z" transform="translate(3.16 10.611)" fill="#32293a"/>
    <g id="Grupo_960469" data-name="Grupo 960469" transform="translate(740.654 4472.259)">
      <path id="Trazado_659393" data-name="Trazado 659393" d="M738.14,4462.161h0Z" transform="translate(-737.444 -4461.465)" fill="#ffcc38"/>
      <path id="Trazado_659394" data-name="Trazado 659394" d="M754.887,4462.877H738.159a.7.7,0,0,1,0-1.393h16.728a.7.7,0,0,1,0,1.393Z" transform="translate(-737.463 -4461.484)" fill="#32293a"/>
    </g>
    <g id="Grupo_960470" data-name="Grupo 960470" transform="translate(742.178 4478.599)">
      <path id="Trazado_659395" data-name="Trazado 659395" d="M739.621,4468.327h0Z" transform="translate(-738.926 -4467.63)" fill="#ffcc38"/>
      <path id="Trazado_659396" data-name="Trazado 659396" d="M753.322,4469.043H739.64a.7.7,0,0,1,0-1.394h13.682a.7.7,0,0,1,0,1.394Z" transform="translate(-738.945 -4467.649)" fill="#32293a"/>
    </g>
    <g id="Grupo_960471" data-name="Grupo 960471" transform="translate(742.804 4485.028)">
      <path id="Trazado_659397" data-name="Trazado 659397" d="M740.23,4474.577h0Z" transform="translate(-739.535 -4473.881)" fill="#ffcc38"/>
      <path id="Trazado_659398" data-name="Trazado 659398" d="M752.678,4475.293H740.249a.7.7,0,0,1,0-1.394h12.429a.7.7,0,0,1,0,1.394Z" transform="translate(-739.554 -4473.9)" fill="#32293a"/>
    </g>
    <g id="Grupo_960472" data-name="Grupo 960472" transform="translate(727.354 4497.711)">
      <path id="Trazado_659399" data-name="Trazado 659399" d="M762.8,4501.69H730.977a6.463,6.463,0,0,1-6.447-6.461v-8.3a.7.7,0,1,1,1.391,0v8.3a5.068,5.068,0,0,0,5.056,5.068H762.8a5.068,5.068,0,0,0,5.057-5.068v-8.3a.7.7,0,1,1,1.39,0v8.3A6.462,6.462,0,0,1,762.8,4501.69Z" transform="translate(-724.53 -4486.233)" fill="#32293a"/>
    </g>
    <g id="Grupo_960473" data-name="Grupo 960473" transform="translate(644.421 4270.749)">
      <rect id="Rectángulo_45693" data-name="Rectángulo 45693" width="130.716" height="103.634" rx="20.273" transform="translate(0.695 0.697)" fill="#fffdf7"/>
      <path id="Trazado_659400" data-name="Trazado 659400" d="M754.471,4370.566H665.407A21.569,21.569,0,0,1,643.887,4349v-61.891a21.57,21.57,0,0,1,21.52-21.569h89.064a21.57,21.57,0,0,1,21.522,21.569V4349A21.569,21.569,0,0,1,754.471,4370.566Zm-89.064-103.633a20.173,20.173,0,0,0-20.13,20.174V4349a20.174,20.174,0,0,0,20.13,20.174h89.064A20.176,20.176,0,0,0,774.6,4349v-61.891a20.175,20.175,0,0,0-20.132-20.174Z" transform="translate(-643.887 -4265.538)" fill="#32293a"/>
    </g>
    <path id="Trazado_659401" data-name="Trazado 659401" d="M870.813,4467.223h28.715l-8.108-30.029H862.705Z" transform="translate(6.747 10.085)" fill="#f4c7a8"/>
    <path id="Trazado_659402" data-name="Trazado 659402" d="M865.2,4450.437h1.119a3.517,3.517,0,0,1,3.1,1.87l2.251,4.248h20.467l2.252-4.248a3.515,3.515,0,0,1,3.1-1.87h1.118a4.961,4.961,0,0,1,4.958,4.969v32.219a5.759,5.759,0,0,1-5.753,5.765H866a5.759,5.759,0,0,1-5.752-5.765v-32.219A4.961,4.961,0,0,1,865.2,4450.437Z" transform="translate(6.677 10.461)" fill="#583ae2"/>
    <path id="Trazado_659403" data-name="Trazado 659403" d="M890.917,4456.717v-2.672a9.359,9.359,0,0,0-9.348-9.369h0a9.359,9.359,0,0,0-9.348,9.369v2.672Z" transform="translate(7.017 10.297)" fill="#583ae2"/>
    <path id="Trazado_659404" data-name="Trazado 659404" d="M872.221,4456.385l2.937,20.78a4.42,4.42,0,0,0,4.373,3.805h4.077a4.42,4.42,0,0,0,4.373-3.805l2.937-20.78Z" transform="translate(7.017 10.63)" fill="#583ae2"/>
    <path id="Trazado_659405" data-name="Trazado 659405" d="M883.627,4481.686H879.55a5.135,5.135,0,0,1-5.06-4.4l-2.938-20.778a.694.694,0,1,1,1.375-.2l2.938,20.779a3.74,3.74,0,0,0,3.685,3.206h4.077a3.743,3.743,0,0,0,3.686-3.206l2.936-20.779a.694.694,0,1,1,1.375.2l-2.936,20.779A5.139,5.139,0,0,1,883.627,4481.686Z" transform="translate(6.998 10.611)" fill="#32293a"/>
    <g id="Grupo_960474" data-name="Grupo 960474" transform="translate(879.383 4472.259)">
      <path id="Trazado_659406" data-name="Trazado 659406" d="M889.766,4462.161h0Z" transform="translate(-872.343 -4461.465)" fill="#ffcc38"/>
      <path id="Trazado_659407" data-name="Trazado 659407" d="M889.784,4462.877H873.057a.7.7,0,0,1,0-1.393h16.727a.7.7,0,0,1,0,1.393Z" transform="translate(-872.362 -4461.484)" fill="#32293a"/>
    </g>
    <g id="Grupo_960475" data-name="Grupo 960475" transform="translate(880.905 4478.599)">
      <path id="Trazado_659408" data-name="Trazado 659408" d="M888.2,4468.327h0Z" transform="translate(-873.823 -4467.63)" fill="#ffcc38"/>
      <path id="Trazado_659409" data-name="Trazado 659409" d="M888.221,4469.043H874.537a.7.7,0,0,1,0-1.394h13.684a.7.7,0,0,1,0,1.394Z" transform="translate(-873.842 -4467.649)" fill="#32293a"/>
    </g>
    <g id="Grupo_960476" data-name="Grupo 960476" transform="translate(881.532 4485.028)">
      <path id="Trazado_659410" data-name="Trazado 659410" d="M887.557,4474.577h0Z" transform="translate(-874.432 -4473.881)" fill="#ffcc38"/>
      <path id="Trazado_659411" data-name="Trazado 659411" d="M887.576,4475.293H875.147a.7.7,0,0,1,0-1.394h12.429a.7.7,0,0,1,0,1.394Z" transform="translate(-874.451 -4473.9)" fill="#32293a"/>
    </g>
    <g id="Grupo_960477" data-name="Grupo 960477" transform="translate(866.08 4497.711)">
      <path id="Trazado_659412" data-name="Trazado 659412" d="M897.7,4501.69H865.875a6.462,6.462,0,0,1-6.449-6.461v-8.3a.7.7,0,1,1,1.39,0v8.3a5.069,5.069,0,0,0,5.059,5.068H897.7a5.069,5.069,0,0,0,5.058-5.068v-8.3a.7.7,0,1,1,1.39,0v8.3A6.462,6.462,0,0,1,897.7,4501.69Z" transform="translate(-859.426 -4486.233)" fill="#32293a"/>
    </g>
    <path id="Trazado_659413" data-name="Trazado 659413" d="M772.891,4288.782l-46.779,157.186a1.825,1.825,0,0,0,1.746,2.347h42.327a1.823,1.823,0,0,0,1.743-1.294l46.981-154.711Z" transform="translate(2.866 5.871)" fill="#32293a"/>
    <path id="Trazado_659414" data-name="Trazado 659414" d="M857.606,4288.8l46.78,157.186a1.826,1.826,0,0,1-1.746,2.348H860.312a1.82,1.82,0,0,1-1.742-1.294l-46.982-154.712Z" transform="translate(5.295 5.872)" fill="#32293a"/>
    <path id="Trazado_659415" data-name="Trazado 659415" d="M732.077,4197.8l28.755-23.834a21.234,21.234,0,0,1,13.354-4.751l80.374-.112a20.157,20.157,0,0,1,11.652,3.865c8.321,6.266,32.583,24.843,32.583,24.843l-24.637,23.44-22.791-19.013v56.237H779.647v-55.717l-22.932,18.484Z" transform="translate(3.038 2.472)" fill="#462eb4"/>
    <path id="Trazado_659416" data-name="Trazado 659416" d="M854.424,4307.922l-34.358,26.663a9.031,9.031,0,0,1-11.047.022l-34.68-26.686a9.073,9.073,0,0,1-3.537-7.19v-68.151a9.055,9.055,0,0,1,9.046-9.065h69.037a9.055,9.055,0,0,1,9.045,9.065v68.174A9.072,9.072,0,0,1,854.424,4307.922Z" transform="translate(4.137 4.017)" fill="#2ff980"/>
    <path id="Trazado_659417" data-name="Trazado 659417" d="M814.547,4337.2a9.72,9.72,0,0,1-5.933-2.017l-34.68-26.686a9.83,9.83,0,0,1-3.807-7.743V4232.6a9.763,9.763,0,0,1,9.741-9.762h69.036a9.763,9.763,0,0,1,9.741,9.762v68.172a9.834,9.834,0,0,1-3.778,7.719h0l-34.358,26.662A9.7,9.7,0,0,1,814.547,4337.2Zm-34.679-112.964a8.368,8.368,0,0,0-8.351,8.368v68.151a8.429,8.429,0,0,0,3.264,6.638l34.679,26.684a8.341,8.341,0,0,0,10.2-.021l34.357-26.662a8.435,8.435,0,0,0,3.238-6.618V4232.6a8.368,8.368,0,0,0-8.351-8.368Z" transform="translate(4.118 3.999)" fill="#32293a"/>
    <path id="Trazado_659418" data-name="Trazado 659418" d="M795.411,4144.247c-2.875-4.187-7.095-19.14,3.239-22.889,7.9-2.866,16.436,1.26,16.436,1.26s9.846-2.718,13.949,4.69c4.177,7.543-2.976,20.3-3.688,19.014Z" transform="translate(4.741 1.088)" fill="#32293a"/>
    <path id="Trazado_659419" data-name="Trazado 659419" d="M831.539,4170.274c0,3.332-3.315,23.164-19.107,23.164s-18.177-15.579-18.177-23.205l6.636-1.332a5.233,5.233,0,0,0,3.608-4.858l.09-3.976s-5.578-4.017-5.58-10.072c-5.344.8-8.753-6.04-2.074-8.137,2.426-.058,2.45-7.467,1.955-9.857,2.994,4.2,16.721,8.611,26.124,3.063.032.2-.11,3.25-.21,5.3a1.471,1.471,0,0,0,1.363,1.57c3.957.139,7.392,7.113-.672,8.527.325,6.927-4.236,9.541-4.23,9.918.048.042.1,1.684.145,3.411a5.234,5.234,0,0,0,3.963,4.949Z" transform="translate(4.775 1.418)" fill="#f4c7a8"/>
    <g id="Grupo_960479" data-name="Grupo 960479" transform="translate(708.35 4200.269)">
      <path id="Trazado_659420" data-name="Trazado 659420" d="M732.816,4197l-18.631,16.923c-10.081,9.024-11.392,23.751-.528,31.811l50.323,37.332s13.918,4.495,23.69,5.863c4.13.579,5.344-5.787,1.519-7.163-2.364-.853-9.379-3.623-10.859-3.7.945-.035,16.184.3,17.158.309,4.411.048,4.556-6.3,1.234-6.846-3.739-.612-14.034-2.059-16-2.079,0,0,17.434-.366,19.6-.919,3.647-.931,3.907-6.909-1.141-7.375-6.231-.574-16.7-1.437-16.7-1.437s16.629-.687,19.043-1.338,3.627-6.736-3.919-6.747c-5.2-.008-24.981-1.332-24.981-1.332l-.06-9.359-8.481,7.459-20.713-15.659,14.083-12.3Z" transform="translate(-706.051 -4197.004)" fill="#f4c7a8"/>
      <g id="Grupo_960478" data-name="Grupo 960478" transform="translate(18.202 32.238)">
        <path id="Trazado_659421" data-name="Trazado 659421" d="M787.7,4288.776a4.473,4.473,0,0,1-.629-.044,148.671,148.671,0,0,1-18.967-4.418,27.85,27.85,0,0,1-8.828-4.385l-35.245-26.145a.7.7,0,0,1,.829-1.12l35.244,26.146a26.484,26.484,0,0,0,8.388,4.166,147.339,147.339,0,0,0,18.772,4.377,2.609,2.609,0,0,0,2.932-2.149,2.984,2.984,0,0,0-1.744-3.67c-.516-.186-1.257-.464-2.111-.786-2.621-.984-7.5-2.819-8.548-2.875a.7.7,0,0,1,.011-1.392c.64-.02,6.981.1,13.428.235,1.991.041,3.478.071,3.762.075h.04a2.706,2.706,0,0,0,2.783-2.643c.108-1.244-.445-2.612-1.709-2.819-3.98-.654-14.058-2.052-15.9-2.071a.7.7,0,0,1-.007-1.392c4.827-.1,17.729-.46,19.443-.9a2.994,2.994,0,0,0,2.166-3.181c-.127-1.6-1.321-2.652-3.2-2.825-6.228-.574-16.691-1.437-16.691-1.437a.7.7,0,0,1,.028-1.39c4.6-.19,16.971-.8,18.889-1.314a2.408,2.408,0,0,0,1.309-2.6c-.23-1.762-2.072-2.775-5.049-2.779-5.159-.007-24.217-1.278-25.026-1.333a.7.7,0,0,1-.648-.69l-.05-7.835-7.338,6.454a.7.7,0,0,1-.877.032L738.737,4229.6a.7.7,0,0,1,.838-1.111l23.973,18.125,8.057-7.086a.7.7,0,0,1,1.153.519l.055,8.713c3.448.227,19.7,1.281,24.292,1.286,5.476.008,6.3,3.057,6.424,3.991a3.78,3.78,0,0,1-2.324,4.127,77.983,77.983,0,0,1-8.9.837c2.263.2,4.545.4,6.439.571a4.525,4.525,0,0,1,4.456,4.1,4.374,4.374,0,0,1-3.209,4.641,96.016,96.016,0,0,1-10.181.667c2.611.366,5.1.736,6.524.969,2.1.345,3.033,2.431,2.87,4.315a4.069,4.069,0,0,1-4.166,3.916h-.06c-.284,0-1.776-.034-3.775-.075-2.439-.049-5.725-.117-8.431-.167,1.229.441,2.606.956,4.057,1.5.847.319,1.581.594,2.093.779a4.382,4.382,0,0,1,2.623,5.314A4,4,0,0,1,787.7,4288.776Z" transform="translate(-723.751 -4228.353)" fill="#32293a"/>
      </g>
    </g>
    <g id="Grupo_960481" data-name="Grupo 960481" transform="translate(830.584 4200.279)">
      <path id="Trazado_659422" data-name="Trazado 659422" d="M896.139,4197.013l18.631,16.923c10.081,9.024,11.393,23.75.528,31.81l-50.323,37.333s-13.918,4.5-23.69,5.862c-4.13.579-5.344-5.787-1.519-7.164,2.364-.852,9.379-3.622,10.859-3.7-.945-.034-16.185.3-17.158.31-4.411.047-4.556-6.3-1.234-6.846,3.739-.612,14.034-2.059,16-2.079,0,0-17.434-.367-19.6-.919-3.647-.931-3.906-6.91,1.141-7.375,6.231-.573,16.7-1.437,16.7-1.437s-16.629-.687-19.043-1.337-3.626-6.737,3.92-6.748c5.2-.008,24.98-1.332,24.98-1.332l.06-9.359,8.481,7.458,20.713-15.659-14.083-12.3Z" transform="translate(-824.891 -4197.013)" fill="#f4c7a8"/>
      <g id="Grupo_960480" data-name="Grupo 960480" transform="translate(0 32.239)">
        <path id="Trazado_659423" data-name="Trazado 659423" d="M840.773,4288.787a4,4,0,0,1-3.847-3.238,4.388,4.388,0,0,1,2.623-5.316c.517-.186,1.26-.465,2.118-.788,1.443-.542,2.812-1.052,4.033-1.492-2.665.049-5.884.115-8.282.164-2.073.042-3.636.074-3.926.076h-.06a4.066,4.066,0,0,1-4.164-3.913c-.162-1.885.772-3.973,2.87-4.317,1.43-.234,3.914-.6,6.527-.969a96.308,96.308,0,0,1-10.185-.667,4.372,4.372,0,0,1-3.209-4.64,4.527,4.527,0,0,1,4.457-4.1c1.892-.175,4.175-.375,6.438-.571a77.832,77.832,0,0,1-8.9-.838,3.778,3.778,0,0,1-2.325-4.126c.121-.934.948-3.983,6.423-3.991,4.59-.006,20.845-1.059,24.293-1.287l.053-8.713a.7.7,0,0,1,1.154-.518l8.056,7.085L888.9,4228.5a.7.7,0,0,1,.837,1.113L865.31,4248.08a.693.693,0,0,1-.876-.032l-7.339-6.453-.048,7.834a.7.7,0,0,1-.648.691c-.81.054-19.867,1.325-25.028,1.333-2.978,0-4.817,1.016-5.048,2.778a2.4,2.4,0,0,0,1.31,2.6c1.917.517,14.285,1.124,18.889,1.314a.7.7,0,0,1,.029,1.391s-10.463.861-16.692,1.436c-1.876.173-3.072,1.229-3.2,2.825a2.993,2.993,0,0,0,2.166,3.181c1.712.437,14.617.8,19.443.9a.7.7,0,0,1-.006,1.393c-1.833.02-11.914,1.417-15.9,2.069-1.266.208-1.817,1.576-1.711,2.822a2.722,2.722,0,0,0,2.824,2.641c.29,0,1.847-.035,3.914-.078,6.366-.128,12.662-.253,13.276-.232a.7.7,0,0,1,.011,1.392c-1.047.055-5.911,1.884-8.523,2.865-.866.326-1.615.608-2.138.8a2.984,2.984,0,0,0-1.742,3.671,2.608,2.608,0,0,0,2.932,2.148,147.331,147.331,0,0,0,18.771-4.377,26.466,26.466,0,0,0,8.388-4.167l35.245-26.145a.7.7,0,0,1,.828,1.119L869.2,4279.938a27.871,27.871,0,0,1-8.829,4.383,148.55,148.55,0,0,1-18.967,4.419A4.464,4.464,0,0,1,840.773,4288.787Z" transform="translate(-824.91 -4228.362)" fill="#32293a"/>
      </g>
    </g>
    <g id="Grupo_960482" data-name="Grupo 960482" transform="translate(853.292 4192.693)">
      <path id="Trazado_659424" data-name="Trazado 659424" d="M847.686,4219.824a.7.7,0,0,1-.7-.7v-28.792a.7.7,0,1,1,1.391,0v28.792A.7.7,0,0,1,847.686,4219.824Z" transform="translate(-846.991 -4189.637)" fill="#32293a"/>
    </g>
    <g id="Grupo_960483" data-name="Grupo 960483" transform="translate(781.705 4192.693)">
      <path id="Trazado_659425" data-name="Trazado 659425" d="M778.076,4219.824a.7.7,0,0,1-.7-.7v-28.792a.7.7,0,1,1,1.39,0v28.792A.7.7,0,0,1,778.076,4219.824Z" transform="translate(-777.381 -4189.637)" fill="#32293a"/>
    </g>
    <path id="Trazado_659426" data-name="Trazado 659426" d="M808.433,4264.366l-14.414,25.02a5.965,5.965,0,0,0,5.168,8.942h28.829a5.964,5.964,0,0,0,5.167-8.942l-14.414-25.02A5.964,5.964,0,0,0,808.433,4264.366Z" transform="translate(4.774 5.093)" fill="#1c954d"/>
    <path id="Trazado_659427" data-name="Trazado 659427" d="M828.035,4299.044H799.206a6.667,6.667,0,0,1-5.761-10l14.415-25.02a6.645,6.645,0,0,1,11.522,0l14.412,25.02a6.666,6.666,0,0,1-5.759,10Zm-18.972-34.325-14.415,25.021a5.275,5.275,0,0,0,4.558,7.911h28.829a5.274,5.274,0,0,0,4.556-7.911l-14.412-25.021a5.257,5.257,0,0,0-9.116,0Z" transform="translate(4.755 5.073)" fill="#32293a"/>
    <path id="Trazado_659428" data-name="Trazado 659428" d="M810.854,4287.72a2.376,2.376,0,1,1,2.376,2.381A2.378,2.378,0,0,1,810.854,4287.72Z" transform="translate(5.275 5.772)" fill="#583ae2"/>
    <path id="Trazado_659429" data-name="Trazado 659429" d="M813.25,4290.816a3.077,3.077,0,1,1,3.072-3.077A3.079,3.079,0,0,1,813.25,4290.816Zm0-4.761a1.684,1.684,0,1,0,1.68,1.684A1.685,1.685,0,0,0,813.25,4286.055Z" transform="translate(5.256 5.754)" fill="#32293a"/>
    <rect id="Rectángulo_45694" data-name="Rectángulo 45694" width="3.838" height="11.204" rx="0.488" transform="translate(816.586 4277.289)" fill="#583ae2"/>
    <path id="Trazado_659430" data-name="Trazado 659430" d="M814.654,4283.817h-2.836a1.2,1.2,0,0,1-1.195-1.2v-10.2a1.2,1.2,0,0,1,1.195-1.2h2.836a1.2,1.2,0,0,1,1.2,1.2v10.2A1.2,1.2,0,0,1,814.654,4283.817Zm-2.641-1.394h2.448v-9.81h-2.448Zm2.641-9.81h0Z" transform="translate(5.268 5.372)" fill="#32293a"/>
    <path id="Trazado_659431" data-name="Trazado 659431" d="M756.714,4221.237l-24.637-23.44,31.885-26.45a9.748,9.748,0,0,1,6.226-2.248h20.936Z" transform="translate(3.038 2.472)" fill="#462eb4"/>
    <path id="Trazado_659432" data-name="Trazado 659432" d="M756.733,4221.953a.686.686,0,0,1-.477-.192l-24.637-23.44a.7.7,0,0,1,.035-1.041l31.885-26.45a10.468,10.468,0,0,1,6.668-2.41h20.937a.7.7,0,0,1,0,1.4H770.207a9.078,9.078,0,0,0-5.781,2.087l-31.283,25.95,24.069,22.9a.7.7,0,0,1-.479,1.2Z" transform="translate(3.019 2.453)" fill="#32293a"/>
    <g id="Grupo_960484" data-name="Grupo 960484" transform="translate(853.396 4199.582)">
      <path id="Trazado_659433" data-name="Trazado 659433" d="M870.89,4221.169a.691.691,0,0,1-.448-.165l-23.1-19.6a.7.7,0,0,1,.9-1.063l22.629,19.2,24.186-23.01a.7.7,0,1,1,.956,1.009l-24.638,23.44A.689.689,0,0,1,870.89,4221.169Z" transform="translate(-847.092 -4196.336)" fill="#32293a"/>
    </g>
    <path id="Trazado_659434" data-name="Trazado 659434" d="M733.083,4340.225h-47.67a4.358,4.358,0,0,1-4.352-4.363V4310.4a4.365,4.365,0,0,1,1.678-3.441l23.9-18.653a4.344,4.344,0,0,1,5.357.006l23.769,18.647a4.365,4.365,0,0,1,1.67,3.435v25.471A4.358,4.358,0,0,1,733.083,4340.225Z" transform="translate(1.589 5.831)" fill="#462eb4"/>
    <path id="Trazado_659435" data-name="Trazado 659435" d="M733.1,4340.94h-47.67a5.06,5.06,0,0,1-5.048-5.059v-25.464a5.035,5.035,0,0,1,1.945-3.99l23.9-18.654a5.036,5.036,0,0,1,6.214.007l23.767,18.648a5.026,5.026,0,0,1,1.938,3.983v25.471A5.06,5.06,0,0,1,733.1,4340.94ZM709.334,4288.1a3.651,3.651,0,0,0-2.248.775l-23.9,18.653a3.648,3.648,0,0,0-1.41,2.892v25.464a3.666,3.666,0,0,0,3.658,3.665H733.1a3.665,3.665,0,0,0,3.658-3.665v-25.471a3.645,3.645,0,0,0-1.4-2.886l-23.768-18.647A3.648,3.648,0,0,0,709.334,4288.1Z" transform="translate(1.57 5.812)" fill="#32293a"/>
    <path id="Trazado_659436" data-name="Trazado 659436" d="M681.735,4307.467l25.843,19.368a3.189,3.189,0,0,0,3.848-.017l25.32-19.322Z" transform="translate(1.608 6.402)" fill="#c4baf5"/>
    <path id="Trazado_659437" data-name="Trazado 659437" d="M709.51,4328.184a3.871,3.871,0,0,1-2.328-.772l-25.843-19.368a.7.7,0,0,1,.415-1.254h0l55.011.028a.7.7,0,0,1,.421,1.251l-25.32,19.322A3.881,3.881,0,0,1,709.51,4328.184Zm-25.666-20,24.168,18.112a2.51,2.51,0,0,0,3.013-.013l23.682-18.073Z" transform="translate(1.589 6.382)" fill="#32293a"/>
    <g id="Grupo_960485" data-name="Grupo 960485" transform="translate(683.614 4327.869)">
      <path id="Trazado_659438" data-name="Trazado 659438" d="M682.693,4338.887a.69.69,0,0,1-.5-.215.7.7,0,0,1,.021-.985l17.113-16.412a.7.7,0,0,1,.963,1.007l-17.112,16.412A.693.693,0,0,1,682.693,4338.887Z" transform="translate(-681.998 -4321.082)" fill="#32293a"/>
    </g>
    <g id="Grupo_960486" data-name="Grupo 960486" transform="translate(719.58 4327.869)">
      <path id="Trazado_659439" data-name="Trazado 659439" d="M734.85,4338.954a.7.7,0,0,1-.481-.193l-17.181-16.479a.7.7,0,1,1,.96-1.007l17.183,16.478a.7.7,0,0,1,.022.985A.687.687,0,0,1,734.85,4338.954Z" transform="translate(-716.971 -4321.082)" fill="#32293a"/>
    </g>
    <g id="Grupo_960487" data-name="Grupo 960487" transform="translate(673.447 4104.989)">
      <ellipse id="Elipse_5763" data-name="Elipse 5763" cx="35.03" cy="35.107" rx="35.03" ry="35.107" transform="translate(0.695 0.697)" fill="#fffdf7"/>
      <path id="Trazado_659440" data-name="Trazado 659440" d="M707.836,4175.963a35.8,35.8,0,1,1,35.727-35.8A35.8,35.8,0,0,1,707.836,4175.963Zm0-70.214a34.41,34.41,0,1,0,34.336,34.411A34.411,34.411,0,0,0,707.836,4105.749Z" transform="translate(-672.112 -4104.355)" fill="#32293a"/>
    </g>
    <path id="Trazado_659441" data-name="Trazado 659441" d="M722.051,4146.39v9.183a1.637,1.637,0,0,1-1.627,1.643H694.108a1.64,1.64,0,0,1-1.64-1.643v-9.183a14.777,14.777,0,0,1,5.121-11.2,14.264,14.264,0,0,1,4-2.486,14.548,14.548,0,0,1,5.669-1.137,14.82,14.82,0,0,1,5.668,1.124,14.664,14.664,0,0,1,4,2.485A14.826,14.826,0,0,1,722.051,4146.39Z" transform="translate(1.913 1.407)" fill="#462eb4"/>
    <path id="Trazado_659442" data-name="Trazado 659442" d="M720.442,4157.932H694.128a2.341,2.341,0,0,1-2.335-2.34v-9.183a15.5,15.5,0,0,1,5.362-11.729,14.94,14.94,0,0,1,4.193-2.6,15.547,15.547,0,0,1,11.865-.014,15.33,15.33,0,0,1,4.195,2.607,15.561,15.561,0,0,1,5.36,11.739v9.183A2.335,2.335,0,0,1,720.442,4157.932Zm-13.165-25.651a13.86,13.86,0,0,0-5.4,1.082,13.589,13.589,0,0,0-3.812,2.369,14.109,14.109,0,0,0-4.885,10.678v9.183a.947.947,0,0,0,.945.947h26.315a.942.942,0,0,0,.934-.947v-9.183a14.17,14.17,0,0,0-4.884-10.689,13.885,13.885,0,0,0-3.813-2.369A14.063,14.063,0,0,0,707.278,4132.281Z" transform="translate(1.894 1.387)" fill="#32293a"/>
    <g id="Grupo_960488" data-name="Grupo 960488" transform="translate(706.588 4142.537)">
      <path id="Trazado_659443" data-name="Trazado 659443" d="M708.8,4143.439a1.9,1.9,0,0,1-.719,1.49v3.23a1.175,1.175,0,0,1-2.006.836,1.192,1.192,0,0,1-.345-.836v-3.235a1.895,1.895,0,1,1,3.07-1.485Z" transform="translate(-704.319 -4140.848)" fill="#32293a"/>
      <path id="Trazado_659444" data-name="Trazado 659444" d="M706.924,4150.055a1.861,1.861,0,0,1-1.326-.548,1.9,1.9,0,0,1-.547-1.329v-2.932a2.586,2.586,0,1,1,3.74.007v2.925A1.874,1.874,0,0,1,706.924,4150.055Zm0-7.795a1.2,1.2,0,0,0-.742,2.14l.259.21v3.569a.492.492,0,0,0,.141.344.5.5,0,0,0,.819-.344v-3.566l.262-.209a1.2,1.2,0,0,0-.739-2.143Z" transform="translate(-704.338 -4140.866)" fill="#32293a"/>
    </g>
    <path id="Trazado_659445" data-name="Trazado 659445" d="M716.788,4123.646v11.924a14.664,14.664,0,0,0-4-2.485v-9.438a2.007,2.007,0,0,0-2-2h-7.336a2.008,2.008,0,0,0-2,2v9.451a14.264,14.264,0,0,0-4,2.486v-11.937a6.01,6.01,0,0,1,6-6.015h7.336A6.01,6.01,0,0,1,716.788,4123.646Z" transform="translate(2.054 1.011)" fill="#583ae2"/>
    <path id="Trazado_659446" data-name="Trazado 659446" d="M696.772,4137.138v-13.473a6.713,6.713,0,0,1,6.7-6.711h7.336a6.713,6.713,0,0,1,6.7,6.711v13.46l-1.153-1.012a13.893,13.893,0,0,0-3.812-2.367l-.428-.181v-9.9a1.305,1.305,0,0,0-1.3-1.307H703.47a1.306,1.306,0,0,0-1.3,1.307v9.918l-.432.177a13.562,13.562,0,0,0-3.807,2.366Zm6.7-18.791a5.319,5.319,0,0,0-5.307,5.317v10.5a14.937,14.937,0,0,1,2.611-1.506v-8.99a2.7,2.7,0,0,1,2.7-2.7h7.336a2.7,2.7,0,0,1,2.7,2.7v8.981a15.409,15.409,0,0,1,2.611,1.5v-10.486a5.318,5.318,0,0,0-5.307-5.317Z" transform="translate(2.035 0.992)" fill="#32293a"/>
    <g id="Grupo_960489" data-name="Grupo 960489" transform="translate(806.378 4157.105)">
      <path id="Trazado_659447" data-name="Trazado 659447" d="M812.529,4164.244c-2.913,0-6.962-1.252-11.014-6.572a.7.7,0,1,1,1.107-.846c3.214,4.222,6.9,6.295,10.609,6,3.819-.306,7.484-3.081,9.8-7.422a.695.695,0,1,1,1.225.657c-2.543,4.762-6.625,7.809-10.917,8.154C813.082,4164.232,812.811,4164.244,812.529,4164.244Z" transform="translate(-801.373 -4155.033)" fill="#32293a"/>
    </g>
    <g id="Grupo_960490" data-name="Grupo 960490" transform="translate(816.853 4140.147)">
      <path id="Trazado_659448" data-name="Trazado 659448" d="M812.39,4151.105a.7.7,0,0,1-.395-1.27l1.246-.866a1.09,1.09,0,0,0,.461-.795.979.979,0,0,0-.275-.794c-2.033-2.07-2.422-4.449-1.1-6.7a4.8,4.8,0,0,1,3.684-2.073,7.712,7.712,0,0,1,6.169,1.785.7.7,0,0,1-.981.989,6.347,6.347,0,0,0-5.011-1.39,3.513,3.513,0,0,0-2.664,1.4c-1,1.7-.7,3.39.892,5.014a2.392,2.392,0,0,1,.668,1.9,2.474,2.474,0,0,1-1.053,1.809l-1.248.866A.679.679,0,0,1,812.39,4151.105Z" transform="translate(-811.558 -4138.543)" fill="#32293a"/>
    </g>
    <path id="Trazado_659449" data-name="Trazado 659449" d="M806.541,4146.836a1.4,1.4,0,1,1-1.439-1.652A1.57,1.57,0,0,1,806.541,4146.836Z" transform="translate(5.075 1.794)" fill="#32293a"/>
    <path id="Trazado_659450" data-name="Trazado 659450" d="M820.611,4146.487a1.4,1.4,0,1,1-1.438-1.651A1.568,1.568,0,0,1,820.611,4146.487Z" transform="translate(5.474 1.783)" fill="#32293a"/>
    <g id="Grupo_960491" data-name="Grupo 960491" transform="translate(805.962 4140.368)">
      <path id="Trazado_659451" data-name="Trazado 659451" d="M801.664,4142.075a.7.7,0,0,1-.547-1.126,5.759,5.759,0,0,1,6.556-1.8.7.7,0,0,1-.518,1.292,4.367,4.367,0,0,0-4.945,1.363A.694.694,0,0,1,801.664,4142.075Z" transform="translate(-800.968 -4138.757)" fill="#32293a"/>
    </g>
    <g id="Grupo_960492" data-name="Grupo 960492" transform="translate(814.532 4155.109)">
      <path id="Trazado_659452" data-name="Trazado 659452" d="M812.731,4155.705c-.074,0-.147,0-.222,0a3.8,3.8,0,0,1-3.1-1.537.695.695,0,1,1,1.168-.752,2.513,2.513,0,0,0,1.988.9,2.7,2.7,0,0,0,2.251-.852.7.7,0,1,1,1.1.851A3.974,3.974,0,0,1,812.731,4155.705Z" transform="translate(-809.301 -4153.091)" fill="#32293a"/>
    </g>
    <g id="Grupo_960493" data-name="Grupo 960493" transform="translate(818.674 4160.73)">
      <path id="Trazado_659453" data-name="Trazado 659453" d="M814.024,4193.489a.7.7,0,0,1,0-1.394c13.024,0,16.046-16.592,16.239-22.032-2.19-.546-5.494-1.383-5.494-1.383a6.141,6.141,0,0,1-4.624-5.79l-.09-3.618a.7.7,0,1,1,1.39-.035l.091,3.619a4.747,4.747,0,0,0,3.573,4.474s3.895.985,6.026,1.515a.694.694,0,0,1,.528.675C831.663,4174.583,828.67,4193.489,814.024,4193.489Z" transform="translate(-813.329 -4158.559)" fill="#32293a"/>
    </g>
    <g id="Grupo_960494" data-name="Grupo 960494" transform="translate(802.82 4161.368)">
      <path id="Trazado_659454" data-name="Trazado 659454" d="M798.608,4169.562a.7.7,0,0,1-.277-1.335l3.478-1.515a3.224,3.224,0,0,0,1.938-2.96v-3.876a.7.7,0,1,1,1.39,0v3.876a4.618,4.618,0,0,1-2.775,4.239l-3.478,1.513A.677.677,0,0,1,798.608,4169.562Z" transform="translate(-797.913 -4159.178)" fill="#32293a"/>
    </g>
    <g id="Grupo_960495" data-name="Grupo 960495" transform="translate(847.744 4096.575)">
      <path id="Trazado_659455" data-name="Trazado 659455" d="M942.194,4164.433a.7.7,0,0,1-.7-.7c0-.293-.36-29.525-29.188-46.241-12.2-7.077-27.183-9.512-40.4-11.663-11.68-1.9-22.713-3.694-30-8.377a.7.7,0,0,1,.75-1.173c7.039,4.526,17.935,6.3,29.471,8.175,13.333,2.168,28.445,4.627,40.87,11.832,29.541,17.131,29.882,47.146,29.882,47.447a.7.7,0,0,1-.7.7Z" transform="translate(-841.596 -4096.173)" fill="#32293a"/>
    </g>
    <g id="Grupo_960496" data-name="Grupo 960496" transform="translate(959.071 4300.975)">
      <path id="Trazado_659456" data-name="Trazado 659456" d="M961.9,4408.923a.672.672,0,0,1-.141-.015.7.7,0,0,1-.541-.823c2.679-12.968-1.586-23.906-5.711-34.483-2.906-7.457-5.653-14.5-5.659-21.675-.011-12.583,7.228-19.6,14.892-27.024,7.321-7.093,15.616-15.132,19.266-29.45a.7.7,0,1,1,1.347.345c-3.746,14.7-12.194,22.885-19.646,30.105-7.771,7.529-14.481,14.03-14.47,26.021.006,6.913,2.707,13.837,5.565,21.169,4.2,10.768,8.538,21.9,5.778,35.271A.7.7,0,0,1,961.9,4408.923Z" transform="translate(-949.849 -4294.929)" fill="#32293a"/>
    </g>
    <g id="Grupo_960497" data-name="Grupo 960497" transform="translate(638.681 4197.664)">
      <path id="Trazado_659457" data-name="Trazado 659457" d="M642.366,4202.617a4.065,4.065,0,1,1,1.432-.262h0A4.07,4.07,0,0,1,642.366,4202.617Zm1.187-.915h0Zm-1.183-5.838a2.648,2.648,0,0,0-.939.174,2.679,2.679,0,0,0-.167,4.944,2.647,2.647,0,0,0,2.042.068h0a2.679,2.679,0,0,0-.937-5.186Z" transform="translate(-638.306 -4194.471)" fill="#32293a"/>
    </g>
    <g id="Grupo_960498" data-name="Grupo 960498" transform="translate(705.109 4406.825)">
      <path id="Trazado_659458" data-name="Trazado 659458" d="M706.961,4406a4.069,4.069,0,1,1,1.432-.263h0A4.044,4.044,0,0,1,706.961,4406Zm0-6.752a2.678,2.678,0,1,0,.938,5.185h0a2.679,2.679,0,0,0-.939-5.185Z" transform="translate(-702.9 -4397.856)" fill="#32293a"/>
    </g>
    <g id="Grupo_960499" data-name="Grupo 960499" transform="translate(1002.17 4260.741)">
      <path id="Trazado_659459" data-name="Trazado 659459" d="M995.824,4263.947a4.055,4.055,0,1,1,1.425-.26h0A4.069,4.069,0,0,1,995.824,4263.947Zm-.008-6.747a2.642,2.642,0,0,0-.937.171,2.677,2.677,0,0,0,1.88,5.013h0a2.683,2.683,0,0,0,1.561-3.449A2.679,2.679,0,0,0,995.816,4257.2Z" transform="translate(-991.758 -4255.807)" fill="#32293a"/>
    </g>
    <g id="Grupo_960500" data-name="Grupo 960500" transform="translate(1011.781 4224.549)">
      <path id="Trazado_659460" data-name="Trazado 659460" d="M1007.446,4233.334a6.352,6.352,0,1,1,2.235-.409h0A6.353,6.353,0,0,1,1007.446,4233.334Zm.005-11.326a4.983,4.983,0,0,0-1.745.319,4.962,4.962,0,0,0,3.484,9.292h0a4.965,4.965,0,0,0-1.741-9.611Z" transform="translate(-1001.104 -4220.614)" fill="#32293a"/>
    </g>
    <g id="Grupo_960501" data-name="Grupo 960501" transform="translate(625.097 4172.623)">
      <path id="Trazado_659461" data-name="Trazado 659461" d="M632.676,4185.288a7.575,7.575,0,1,1,2.652-.485A7.58,7.58,0,0,1,632.676,4185.288Zm-.006-13.774a6.184,6.184,0,1,0,2.548.556A6.18,6.18,0,0,0,632.67,4171.514Z" transform="translate(-625.097 -4170.121)" fill="#32293a"/>
    </g>
  </g>
</svg>
