<svg xmlns="http://www.w3.org/2000/svg" width="178" height="178" viewBox="0 0 178 178">
  <g id="capacitacion" transform="translate(-1 -1)">
    <path id="Trazado_657586" data-name="Trazado 657586" d="M49,48H66.226V62.355H49Z" transform="translate(89.806 87.935)" fill="#eeb8ab"/>
    <path id="Trazado_657587" data-name="Trazado 657587" d="M54.742,51.3A9.286,9.286,0,0,1,49,49.3V59.917H66.226V49.3a9.286,9.286,0,0,1-5.742,2Z" transform="translate(89.806 90.373)" fill="#ffe1d3"/>
    <path id="Trazado_657588" data-name="Trazado 657588" d="M9,48H26.226V62.355H9Z" transform="translate(14.968 87.935)" fill="#eeb8ab"/>
    <path id="Trazado_657589" data-name="Trazado 657589" d="M14.742,51.3A9.286,9.286,0,0,1,9,49.3V59.917H26.226V49.3a9.286,9.286,0,0,1-5.742,2Z" transform="translate(14.968 90.373)" fill="#ffe1d3"/>
    <path id="Trazado_657590" data-name="Trazado 657590" d="M20,40H88.9v66.032H20Z" transform="translate(35.548 72.968)" fill="#893b1b"/>
    <path id="Trazado_657591" data-name="Trazado 657591" d="M83.29,41H23V84.065A11.484,11.484,0,0,0,34.484,95.548H83.29Z" transform="translate(41.161 74.839)" fill="#a44b2f"/>
    <path id="Trazado_657592" data-name="Trazado 657592" d="M72.677,69.935V52.71l6.1,6.1a8.579,8.579,0,0,0,10.175,1.464l25.583-13.953a7.822,7.822,0,0,0,4.077-6.87,6.84,6.84,0,0,0-10.163-5.98l-24.291,13.5L78.606,33.081c-.123-.313-.261-.617-.413-.919a12.091,12.091,0,0,0-8.446-6.451L61.194,24H43.968L32.142,26.957A14.707,14.707,0,0,0,21,41.226v28.71" transform="translate(37.419 43.032)" fill="#b4b4b4"/>
    <path id="Trazado_657593" data-name="Trazado 657593" d="M106.161,32.61a6.839,6.839,0,0,0-3.325.861l-24.291,13.5L72.993,33.081c-.123-.313-.261-.617-.413-.919a12.091,12.091,0,0,0-8.446-6.451L55.581,24H38.355L26.529,26.957a14.812,14.812,0,0,0-1.591.543A14.633,14.633,0,0,0,24,32.613v20.1a8.612,8.612,0,0,0,8.613,8.613H67.065V52.71l6.1,6.1A8.579,8.579,0,0,0,83.34,60.275l25.583-13.953A7.822,7.822,0,0,0,113,39.452a6.841,6.841,0,0,0-6.839-6.842Z" transform="translate(43.032 43.032)" fill="#c8c8c8"/>
    <path id="Trazado_657594" data-name="Trazado 657594" d="M40.613,35.484l9.477-9.477c-.313-.089-.6-.233-.922-.3L40.613,24,32,26.871Z" transform="translate(58 43.032)" fill="#b4b4b4"/>
    <path id="Trazado_657595" data-name="Trazado 657595" d="M43.6,26.871,34.987,24,25.8,26.3l9.187,9.187Z" transform="translate(46.4 43.032)" fill="#b4b4b4"/>
    <path id="Trazado_657596" data-name="Trazado 657596" d="M42.432,31.316l-3.445,5.168H33.245L29.8,31.316,36.116,25Z" transform="translate(53.884 44.903)" fill="#e66967"/>
    <path id="Trazado_657597" data-name="Trazado 657597" d="M29,21.2v8.047l8.613,2.871,8.613-2.871V21.2Z" transform="translate(52.387 37.788)" fill="#eeb8ab"/>
    <path id="Trazado_657598" data-name="Trazado 657598" d="M24,30.853v-14.5A14.356,14.356,0,0,1,38.355,2H52.71a8.612,8.612,0,0,1,8.613,8.613,8.612,8.612,0,0,1,8.613,8.613V30.853" transform="translate(43.032 1.871)" fill="#3f4042"/>
    <path id="Trazado_657599" data-name="Trazado 657599" d="M66.194,19.226a8.612,8.612,0,0,0-8.613-8.613A8.612,8.612,0,0,0,48.968,2H34.613a14.259,14.259,0,0,0-8.257,2.641A14.335,14.335,0,0,0,26,7.742a14.5,14.5,0,0,0,14.5,14.5h25.7Z" transform="translate(46.774 1.871)" fill="#5a5b5d"/>
    <g id="Grupo_957505" data-name="Grupo 957505" transform="translate(61.29 21.097)">
      <path id="Trazado_657600" data-name="Trazado 657600" d="M60.452,16.613V30.968a17.226,17.226,0,0,1-34.452,0V16.613h9.744A19.346,19.346,0,0,0,51.839,8Z" transform="translate(-14.516 -8)" fill="#eeb8ab"/>
      <path id="Trazado_657601" data-name="Trazado 657601" d="M33.484,12H29.177a7.177,7.177,0,1,0,0,14.355h4.545" transform="translate(-22 -0.516)" fill="#eeb8ab"/>
      <path id="Trazado_657602" data-name="Trazado 657602" d="M38.155,12h4.306a7.177,7.177,0,1,1,0,14.355H37.917" transform="translate(7.78 -0.516)" fill="#eeb8ab"/>
    </g>
    <path id="Trazado_657603" data-name="Trazado 657603" d="M41.484,60.581,38.613,29H32.871L30,60.581Z" transform="translate(54.258 52.387)" fill="#e66967"/>
    <path id="Trazado_657604" data-name="Trazado 657604" d="M42.79,48.122a17.22,17.22,0,0,0,15.79-17.154V16.613L49.968,8a19.346,19.346,0,0,1-16.095,8.613H27V30.968A17.22,17.22,0,0,0,42.79,48.122Z" transform="translate(48.645 13.097)" fill="#ffe1d3"/>
    <path id="Trazado_657605" data-name="Trazado 657605" d="M44.355,22.191A17.061,17.061,0,0,1,30,23.512v3.873l7.177,2.392,7.177-2.392Z" transform="translate(54.258 39.648)" fill="#ffe1d3"/>
    <path id="Trazado_657606" data-name="Trazado 657606" d="M33.871,29,31,60.581h8.613L36.742,29Z" transform="translate(56.129 52.387)" fill="#ee8382"/>
    <path id="Trazado_657607" data-name="Trazado 657607" d="M24,32h5.742V54.968H24Z" transform="translate(43.032 58)" fill="#959595"/>
    <path id="Trazado_657608" data-name="Trazado 657608" d="M18.484,71.452a9.29,9.29,0,0,1-8.309-5.136L9.44,64.848A23.118,23.118,0,0,1,7,54.51V47.281A10.285,10.285,0,0,1,17.281,37h8.148A10.285,10.285,0,0,1,35.71,47.281V54.51a23.118,23.118,0,0,1-2.44,10.338l-.732,1.467a9.3,9.3,0,0,1-8.311,5.136Z" transform="translate(11.226 67.355)" fill="#893b1b"/>
    <path id="Trazado_657609" data-name="Trazado 657609" d="M29,48H46.226V62.355H29Z" transform="translate(52.387 87.935)" fill="#eeb8ab"/>
    <path id="Trazado_657610" data-name="Trazado 657610" d="M51.742,7H86.194a5.74,5.74,0,0,1,5.742,5.742V35.71a5.74,5.74,0,0,1-5.742,5.742H68.968L51.742,55.806l2.871-14.355H51.742A5.74,5.74,0,0,1,46,35.71V12.742A5.74,5.74,0,0,1,51.742,7Z" transform="translate(84.194 11.226)" fill="#6ac4e8"/>
    <path id="Trazado_657611" data-name="Trazado 657611" d="M82.452,7H48V27.1a8.612,8.612,0,0,0,8.613,8.613H88.194V12.742A5.74,5.74,0,0,0,82.452,7Z" transform="translate(87.935 11.226)" fill="#8edff8"/>
    <path id="Trazado_657612" data-name="Trazado 657612" d="M57,14h5.742v5.742H57Z" transform="translate(104.774 24.323)" fill="#fff"/>
    <path id="Trazado_657613" data-name="Trazado 657613" d="M53,14h5.742v5.742H53Z" transform="translate(97.29 24.323)" fill="#fff"/>
    <path id="Trazado_657614" data-name="Trazado 657614" d="M49,14h5.742v5.742H49Z" transform="translate(89.806 24.323)" fill="#fff"/>
    <path id="Trazado_657615" data-name="Trazado 657615" d="M58.846,27a6.839,6.839,0,0,0-3.325.861l-6.233,3.462L56.306,43.6l5.3-2.891a7.822,7.822,0,0,0,4.077-6.87A6.841,6.841,0,0,0,58.846,27Z" transform="translate(90.347 48.643)" fill="#ffe1d3"/>
    <path id="Trazado_657616" data-name="Trazado 657616" d="M26.808,37.528A10.248,10.248,0,0,0,23.558,37H15.41a10.268,10.268,0,0,0-7.289,3.037A9.994,9.994,0,0,0,8,41.539v7.229a23.118,23.118,0,0,0,2.44,10.338l.732,1.467a9.3,9.3,0,0,0,8.311,5.136h5.742a9.271,9.271,0,0,0,7.309-3.592,23.142,23.142,0,0,0,1.3-7.608V47.281a10.278,10.278,0,0,0-7.031-9.753Z" transform="translate(13.097 67.355)" fill="#a44b2f"/>
    <path id="Trazado_657617" data-name="Trazado 657617" d="M38.484,71.452a9.29,9.29,0,0,1-8.309-5.136l-.735-1.467A23.118,23.118,0,0,1,27,54.51V47.281A10.285,10.285,0,0,1,37.281,37h8.148A10.285,10.285,0,0,1,55.71,47.281V54.51a23.118,23.118,0,0,1-2.44,10.338l-.732,1.467a9.3,9.3,0,0,1-8.311,5.136Z" transform="translate(48.645 67.355)" fill="#3f4042"/>
    <path id="Trazado_657618" data-name="Trazado 657618" d="M58.484,71.452a9.29,9.29,0,0,1-8.309-5.136l-.735-1.467A23.118,23.118,0,0,1,47,54.51V47.281A10.285,10.285,0,0,1,57.281,37h8.148A10.285,10.285,0,0,1,75.71,47.281V54.51a23.119,23.119,0,0,1-2.44,10.338l-.732,1.467a9.3,9.3,0,0,1-8.311,5.136Z" transform="translate(86.065 67.355)" fill="#c99728"/>
    <path id="Trazado_657619" data-name="Trazado 657619" d="M66.808,37.528A10.248,10.248,0,0,0,63.558,37H55.41a10.268,10.268,0,0,0-7.289,3.037,9.993,9.993,0,0,0-.121,1.5v7.229a23.118,23.118,0,0,0,2.44,10.338l.732,1.467a9.3,9.3,0,0,0,8.311,5.136h5.742a9.271,9.271,0,0,0,7.309-3.592,23.142,23.142,0,0,0,1.3-7.608V47.281a10.278,10.278,0,0,0-7.031-9.753Z" transform="translate(87.935 67.355)" fill="#e7b532"/>
    <path id="Trazado_657620" data-name="Trazado 657620" d="M46.808,37.528A10.248,10.248,0,0,0,43.558,37H35.41a10.268,10.268,0,0,0-7.289,3.037,9.995,9.995,0,0,0-.121,1.5v7.229a23.118,23.118,0,0,0,2.44,10.338l.732,1.467a9.3,9.3,0,0,0,8.311,5.136h5.742a9.271,9.271,0,0,0,7.309-3.592,23.142,23.142,0,0,0,1.3-7.608V47.281a10.278,10.278,0,0,0-7.031-9.753Z" transform="translate(50.516 67.355)" fill="#5a5b5d"/>
    <path id="Trazado_657621" data-name="Trazado 657621" d="M4,81.71v-20.1A8.612,8.612,0,0,1,12.613,53h28.71a8.612,8.612,0,0,1,8.613,8.613v20.1" transform="translate(5.613 97.29)" fill="#6bb566"/>
    <path id="Trazado_657622" data-name="Trazado 657622" d="M15.613,73.1h28.71V61.613A8.612,8.612,0,0,0,35.71,53H7V64.484A8.612,8.612,0,0,0,15.613,73.1Z" transform="translate(11.226 97.29)" fill="#89c683"/>
    <path id="Trazado_657623" data-name="Trazado 657623" d="M24,81.71v-20.1A8.612,8.612,0,0,1,32.613,53h28.71a8.612,8.612,0,0,1,8.613,8.613v20.1" transform="translate(43.032 97.29)" fill="#6bb566"/>
    <path id="Trazado_657624" data-name="Trazado 657624" d="M35.613,73.1h28.71V61.613A8.612,8.612,0,0,0,55.71,53H27V64.484A8.612,8.612,0,0,0,35.613,73.1Z" transform="translate(48.645 97.29)" fill="#89c683"/>
    <path id="Trazado_657625" data-name="Trazado 657625" d="M44,81.71v-20.1A8.612,8.612,0,0,1,52.613,53h28.71a8.612,8.612,0,0,1,8.613,8.613v20.1" transform="translate(80.452 97.29)" fill="#6bb566"/>
    <path id="Trazado_657626" data-name="Trazado 657626" d="M55.613,73.1h28.71V61.613A8.612,8.612,0,0,0,75.71,53H47V64.484A8.612,8.612,0,0,0,55.613,73.1Z" transform="translate(86.065 97.29)" fill="#89c683"/>
    <path id="Trazado_657627" data-name="Trazado 657627" d="M34.742,51.3A9.286,9.286,0,0,1,29,49.3V59.917H46.226V49.3a9.286,9.286,0,0,1-5.742,2Z" transform="translate(52.387 90.373)" fill="#ffe1d3"/>
    <path id="Trazado_657628" data-name="Trazado 657628" d="M42.194,2H7.742A5.74,5.74,0,0,0,2,7.742V30.71a5.74,5.74,0,0,0,5.742,5.742H24.968L42.194,50.806,39.323,36.452h2.871a5.74,5.74,0,0,0,5.742-5.742V7.742A5.74,5.74,0,0,0,42.194,2Z" transform="translate(1.871 1.871)" fill="#6ac4e8"/>
    <path id="Trazado_657629" data-name="Trazado 657629" d="M38.452,2H4V22.1a8.612,8.612,0,0,0,8.613,8.613H44.194V7.742A5.74,5.74,0,0,0,38.452,2Z" transform="translate(5.613 1.871)" fill="#8edff8"/>
    <path id="Trazado_657630" data-name="Trazado 657630" d="M5,9h5.742v5.742H5Z" transform="translate(7.484 14.968)" fill="#fff"/>
    <path id="Trazado_657631" data-name="Trazado 657631" d="M9,9h5.742v5.742H9Z" transform="translate(14.968 14.968)" fill="#fff"/>
    <path id="Trazado_657632" data-name="Trazado 657632" d="M13,9h5.742v5.742H13Z" transform="translate(22.452 14.968)" fill="#fff"/>
    <path id="Trazado_657633" data-name="Trazado 657633" d="M48.935,149.016a11.366,11.366,0,0,0-5.742-1.6H40.323V138.08a12.2,12.2,0,0,0,2.265-3.126l.732-1.467a26.123,26.123,0,0,0,2.745-11.622v-7.229a13.153,13.153,0,0,0-13.152-13.152H24.765a13.15,13.15,0,0,0-13.152,13.152v7.229a26.123,26.123,0,0,0,2.745,11.622l.732,1.467a12.15,12.15,0,0,0,2.265,3.126v9.339H14.484A11.5,11.5,0,0,0,3,158.9V179H8.742V158.9a5.748,5.748,0,0,1,5.742-5.742h28.71a5.748,5.748,0,0,1,5.742,5.742V179h5.742V115.839H69.032v6.026a26.123,26.123,0,0,0,2.745,11.622l.732,1.467a12.2,12.2,0,0,0,2.265,3.126v9.339H71.9A11.5,11.5,0,0,0,60.419,158.9V179h5.742V158.9a5.748,5.748,0,0,1,5.742-5.742h28.71a5.748,5.748,0,0,1,5.742,5.742V179H112.1V158.9a11.5,11.5,0,0,0-11.484-11.484H97.742V138.08a12.2,12.2,0,0,0,2.265-3.126l.732-1.467a26.123,26.123,0,0,0,2.745-11.622v-6.026h14.355V179h5.742V158.9a5.748,5.748,0,0,1,5.742-5.742h28.71a5.748,5.748,0,0,1,5.742,5.742V179h5.742V158.9a11.5,11.5,0,0,0-11.484-11.484h-2.871V138.08a12.2,12.2,0,0,0,2.265-3.126l.732-1.467a26.123,26.123,0,0,0,2.745-11.622v-7.229a13.153,13.153,0,0,0-13.152-13.152H139.6a13.15,13.15,0,0,0-13.152,13.152v7.229a26.123,26.123,0,0,0,2.745,11.622l.732,1.467a12.2,12.2,0,0,0,2.265,3.126v9.339h-2.871a11.366,11.366,0,0,0-5.742,1.6V112.968a2.872,2.872,0,0,0-2.871-2.871H109.226v-7.424l1.2,1.2A11.662,11.662,0,0,0,124,105.828l25.583-13.953a10.691,10.691,0,0,0,5.575-9.391,9.712,9.712,0,0,0-14.429-8.489l-21.44,11.912-4.338-10.847c-.155-.388-.324-.769-.514-1.148a14.872,14.872,0,0,0-10.45-7.981l-6.247-1.252V60.532a20.154,20.154,0,0,0,7.766-10.726h2.282A10.025,10.025,0,0,0,112.1,30.717V21.1a11.5,11.5,0,0,0-8.906-11.191A11.5,11.5,0,0,0,92,1H77.645A17.243,17.243,0,0,0,60.419,18.226V30.717a10.025,10.025,0,0,0,4.306,19.089h2.282a20.143,20.143,0,0,0,7.766,10.726V64.79L65.122,67.2A17.561,17.561,0,0,0,51.806,84.258V110.1a2.872,2.872,0,0,0-2.871,2.871Zm-31.581-34.38a7.406,7.406,0,0,1,7.41-7.41h8.148a7.406,7.406,0,0,1,7.41,7.41v7.229a20.317,20.317,0,0,1-2.139,9.055l-.732,1.467a6.384,6.384,0,0,1-5.742,3.549H25.968a6.384,6.384,0,0,1-5.742-3.549l-.732-1.467a20.317,20.317,0,0,1-2.139-9.055ZM23.1,141.313a12.214,12.214,0,0,0,2.871.365H31.71a12.214,12.214,0,0,0,2.871-.365v6.107H23.1Zm109.1-26.677a7.406,7.406,0,0,1,7.41-7.41h8.148a7.406,7.406,0,0,1,7.41,7.41v7.229a20.317,20.317,0,0,1-2.139,9.055l-.732,1.467a6.384,6.384,0,0,1-5.742,3.549h-5.742a6.384,6.384,0,0,1-5.742-3.549l-.732-1.467a20.317,20.317,0,0,1-2.139-9.055Zm5.742,26.677a12.214,12.214,0,0,0,2.871.365h5.742a12.214,12.214,0,0,0,2.871-.365v6.107H137.935ZM92,147.419H80.516v-6.107a12.214,12.214,0,0,0,2.871.365h5.742A12.214,12.214,0,0,0,92,141.313Zm5.742-25.554A20.317,20.317,0,0,1,95.6,130.92l-.732,1.467a6.384,6.384,0,0,1-5.742,3.549H83.387a6.384,6.384,0,0,1-5.742-3.549l-.732-1.467a20.317,20.317,0,0,1-2.139-9.055v-7.229a7.406,7.406,0,0,1,7.41-7.41h8.148a7.406,7.406,0,0,1,7.41,7.41ZM77.53,70.021l3.414,1.137-3.3,3.3-3.571-3.571ZM95.058,70l3.563.712-3.749,3.747-3.3-3.3Zm-9.049,14.26h.5l1.565,17.226H84.441Zm.25-10.3,2.621,2.621-1.286,1.932h-2.67l-1.289-1.932Zm57.264,5.05a3.969,3.969,0,0,1,5.9,3.471,4.956,4.956,0,0,1-2.581,4.35l-2.831,1.545-4.18-7.312ZM109.3,76.472c.112.23.218.459.316.706l5.552,13.887a2.87,2.87,0,0,0,1.705,1.639,2.905,2.905,0,0,0,2.357-.2l15.578-8.656,4.157,7.272-17.708,9.661a5.808,5.808,0,0,1-6.773-.976l-6.1-6.1a2.87,2.87,0,0,0-4.9,2.033V110.1h-.835a13.113,13.113,0,0,0-8.159-7.938c-.2-.066-.4-.092-.6-.149L92.08,82.136l.968-1.453a2.795,2.795,0,0,0,3.853-.138l8.205-8.205a9.16,9.16,0,0,1,4.194,4.131Zm-1.51-32.407h-1.435V35.452h1.435a4.306,4.306,0,0,1,0,8.613ZM66.161,18.226A11.5,11.5,0,0,1,77.645,6.742H92a5.748,5.748,0,0,1,5.742,5.742,2.872,2.872,0,0,0,2.871,2.871,5.748,5.748,0,0,1,5.742,5.742V29.71a2.863,2.863,0,0,0-.841-2.03L96.9,19.067a2.871,2.871,0,0,0-4.418.436,16.434,16.434,0,0,1-13.7,7.335H69.032a2.872,2.872,0,0,0-2.871,2.871ZM64.726,44.065a4.306,4.306,0,1,1,0-8.613h1.435v8.613Zm7.177,0V32.581h6.876a22.158,22.158,0,0,0,16.347-7.172l5.486,5.489V44.065a14.355,14.355,0,1,1-28.71,0Zm14.355,20.1A19.97,19.97,0,0,0,92,63.314v1.648l-5.742,1.915-5.742-1.915V63.314A19.971,19.971,0,0,0,86.258,64.161Zm-28.71,20.1a11.819,11.819,0,0,1,8.966-11.484l1.062-.267,8.039,8.039a2.795,2.795,0,0,0,3.853.138l.968,1.453L78.63,102.009c-.2.057-.4.083-.6.149a13.115,13.115,0,0,0-8.156,7.938h-.838V90H63.29v20.1H57.548Z" transform="translate(3.742 0)"/>
    <path id="Trazado_657634" data-name="Trazado 657634" d="M9.613,41.194H25.8L42.227,54.882a2.87,2.87,0,0,0,4.651-2.77L44.69,41.168a8.619,8.619,0,0,0,7.987-8.587V9.613A8.623,8.623,0,0,0,44.065,1H9.613A8.623,8.623,0,0,0,1,9.613V32.581a8.623,8.623,0,0,0,8.613,8.613ZM6.742,9.613A2.876,2.876,0,0,1,9.613,6.742H44.065a2.876,2.876,0,0,1,2.871,2.871V32.581a2.876,2.876,0,0,1-2.871,2.871H41.194a2.87,2.87,0,0,0-2.814,3.434l1.275,6.379L28.676,36.118a2.868,2.868,0,0,0-1.837-.666H9.613a2.876,2.876,0,0,1-2.871-2.871Z" transform="translate(0)"/>
    <path id="Trazado_657635" data-name="Trazado 657635" d="M5,9h5.742v5.742H5Z" transform="translate(7.484 14.968)"/>
    <path id="Trazado_657636" data-name="Trazado 657636" d="M9,9h5.742v5.742H9Z" transform="translate(14.968 14.968)"/>
    <path id="Trazado_657637" data-name="Trazado 657637" d="M13,9h5.742v5.742H13Z" transform="translate(22.452 14.968)"/>
    <path id="Trazado_657638" data-name="Trazado 657638" d="M88.065,6H53.613A8.623,8.623,0,0,0,45,14.613V37.581a8.623,8.623,0,0,0,7.987,8.59L50.8,57.115a2.869,2.869,0,0,0,4.651,2.768L71.878,46.194H88.065a8.623,8.623,0,0,0,8.613-8.613V14.613A8.623,8.623,0,0,0,88.065,6Zm2.871,31.581a2.876,2.876,0,0,1-2.871,2.871H70.839A2.868,2.868,0,0,0,69,41.118L58.023,50.265,59.3,43.885a2.87,2.87,0,0,0-2.814-3.434H53.613a2.876,2.876,0,0,1-2.871-2.871V14.613a2.876,2.876,0,0,1,2.871-2.871H88.065a2.876,2.876,0,0,1,2.871,2.871Z" transform="translate(82.323 9.355)"/>
    <path id="Trazado_657639" data-name="Trazado 657639" d="M57,14h5.742v5.742H57Z" transform="translate(104.774 24.323)"/>
    <path id="Trazado_657640" data-name="Trazado 657640" d="M53,14h5.742v5.742H53Z" transform="translate(97.29 24.323)"/>
    <path id="Trazado_657641" data-name="Trazado 657641" d="M49,14h5.742v5.742H49Z" transform="translate(89.806 24.323)"/>
  </g>
</svg>
