<svg xmlns="http://www.w3.org/2000/svg" width="105" height="105" viewBox="0 0 105 105">
  <g id="Grupo_956951" data-name="Grupo 956951" transform="translate(-509 -32334)">
    <g id="Grupo_956943" data-name="Grupo 956943" transform="translate(509 32334)">
      <g id="_240_F_321763424_EUgnpmBP81OrR6HvnHsT5Mthjtk0JLcN" data-name="240_F_321763424_EUgnpmBP81OrR6HvnHsT5Mthjtk0JLcN" fill="#fff" stroke="#332862" stroke-width="6">
        <circle cx="52.5" cy="52.5" r="52.5" stroke="none"/>
        <circle cx="52.5" cy="52.5" r="49.5" fill="none"/>
      </g>
    </g>
    <g id="Grupo_956953" data-name="Grupo 956953" transform="translate(77.796 -91.133)">
      <path id="Elipse_5653" data-name="Elipse 5653" d="M39.151,13.328A25.823,25.823,0,1,0,64.974,39.151,25.852,25.852,0,0,0,39.151,13.328M39.151,0A39.151,39.151,0,1,1,0,39.151,39.151,39.151,0,0,1,39.151,0Z" transform="translate(445 32439)" fill="#e6e1fb"/>
      <path id="Sustracción_2" data-name="Sustracción 2" d="M5.53,78.3A39.561,39.561,0,0,1,0,77.913l1.325-13.28a26.148,26.148,0,0,0,4.206.342,25.825,25.825,0,0,0,0-51.649V0A38.9,38.9,0,0,1,33.217,11.465a39.151,39.151,0,0,1,0,55.369A38.9,38.9,0,0,1,5.53,78.3Z" transform="translate(478.618 32439.002)" fill="#342287"/>
      <text id="_52_" data-name="52 %" transform="translate(463.964 32485.152)" fill="#12263f" font-size="18" font-family="Roboto-Black, Roboto" font-weight="800"><tspan x="0" y="0">52 %</tspan></text>
    </g>
  </g>
</svg>
