<svg xmlns="http://www.w3.org/2000/svg" width="295" height="168.344" viewBox="0 0 295 168.344">
  <g id="Grupo_956891" data-name="Grupo 956891" transform="translate(-1125 -28465.656)">
    <rect id="Rectángulo_45379" data-name="Rectángulo 45379" width="295" height="87" rx="10" transform="translate(1125 28547)" fill="#daf1f5"/>
    <g id="Grupo_956883" data-name="Grupo 956883" transform="translate(276.57 23571.83)">
      <g id="Grupo_956890" data-name="Grupo 956890" transform="translate(918.205 4896.434)">
        <g id="Grupo_956884" data-name="Grupo 956884" transform="translate(43.817)">
          <rect id="Rectángulo_45369" data-name="Rectángulo 45369" width="87.979" height="156.473" rx="4.433" fill="#242d3c" stroke="#252425" stroke-miterlimit="10" stroke-width="5.214"/>
          <rect id="Rectángulo_45370" data-name="Rectángulo 45370" width="87.979" height="130.198" transform="translate(0 14.648)" fill="#fff" stroke="#252425" stroke-miterlimit="10" stroke-width="5.556"/>
          <g id="Grupo_956883-2" data-name="Grupo 956883" transform="translate(32.133 4.733)">
            <path id="Trazado_656523" data-name="Trazado 656523" d="M1046.815,4905.151a1.294,1.294,0,0,1-1.293,1.295h-16.813a1.3,1.3,0,0,1-1.3-1.295h0a1.3,1.3,0,0,1,1.3-1.293h16.813a1.294,1.294,0,0,1,1.293,1.293Z" transform="translate(-1027.414 -4903.427)" fill="#fff"/>
            <path id="Trazado_656524" data-name="Trazado 656524" d="M1060.189,4904.748a1.509,1.509,0,1,1-1.509-1.509A1.509,1.509,0,0,1,1060.189,4904.748Z" transform="translate(-1036.476 -4903.239)" fill="#fff"/>
          </g>
          <path id="Trazado_656525" data-name="Trazado 656525" d="M981.21,4917.5v130.2h87.979Z" transform="translate(-981.21 -4902.848)" fill="#c6c6c5" style="mix-blend-mode: multiply;isolation: isolate"/>
        </g>
        <g id="Grupo_956885" data-name="Grupo 956885" transform="translate(53.146 53.604)">
          <path id="Rectángulo_45371" data-name="Rectángulo 45371" d="M10.634,0H58.686A10.635,10.635,0,0,1,69.321,10.635V38.63A10.635,10.635,0,0,1,58.686,49.265H10.635A10.635,10.635,0,0,1,0,38.63v-28A10.634,10.634,0,0,1,10.634,0Z" fill="#583ae2" stroke="#252425" stroke-linecap="round" stroke-miterlimit="10" stroke-width="2.354"/>
          <rect id="Rectángulo_45372" data-name="Rectángulo 45372" width="69.321" height="9.03" transform="translate(0 14.151)" fill="#252425"/>
          <rect id="Rectángulo_45373" data-name="Rectángulo 45373" width="38.733" height="1.768" transform="translate(5.87 28.913)" fill="#fff"/>
          <rect id="Rectángulo_45374" data-name="Rectángulo 45374" width="26.86" height="1.767" transform="translate(5.87 33.286)" fill="#fff"/>
          <rect id="Rectángulo_45375" data-name="Rectángulo 45375" width="45.934" height="1.768" transform="translate(5.87 37.744)" fill="#fff"/>
        </g>
        <g id="Grupo_956888" data-name="Grupo 956888" transform="translate(99.841 83.495)">
          <path id="Trazado_656526" data-name="Trazado 656526" d="M1117.375,5044.295a27.8,27.8,0,1,1-27.8-27.8A27.8,27.8,0,0,1,1117.375,5044.295Z" transform="translate(-1061.767 -5016.491)" fill="#bee7ed" stroke="#252425" stroke-linecap="round" stroke-miterlimit="10" stroke-width="2.354"/>
          <g id="Grupo_956887" data-name="Grupo 956887" transform="translate(14.171 6.847)">
            <g id="Grupo_956886" data-name="Grupo 956886" transform="translate(3.064)">
              <path id="Trazado_656527" data-name="Trazado 656527" d="M1107.688,5042.252h-21.141v-6.058a9.87,9.87,0,0,1,9.858-9.859h1.425a9.869,9.869,0,0,1,9.857,9.859Zm-18.053-1.069H1104.6v-4.989a6.779,6.779,0,0,0-6.77-6.77h-1.425a6.779,6.779,0,0,0-6.771,6.77Z" transform="translate(-1086.548 -5026.335)" fill="#353c45" stroke="#252425" stroke-miterlimit="10" stroke-width="1.436"/>
            </g>
            <path id="Rectángulo_45376" data-name="Rectángulo 45376" d="M3.43,0H23.837a3.429,3.429,0,0,1,3.429,3.429V23.838a3.429,3.429,0,0,1-3.429,3.429H3.43A3.43,3.43,0,0,1,0,23.838V3.43A3.43,3.43,0,0,1,3.43,0Z" transform="translate(0 14.647)" fill="#00b0c2" stroke="#252425" stroke-miterlimit="10" stroke-width="1.436"/>
            <path id="Trazado_656528" data-name="Trazado 656528" d="M1104.486,5062.7a11.089,11.089,0,0,0,8.318,1.806c.019,0,.038-.006.058-.009v-11.517a1.875,1.875,0,0,0-1.876-1.875h-7.828C1100.2,5054.3,1100.87,5060.08,1104.486,5062.7Z" transform="translate(-1087.977 -5033.877)" fill="#fff" opacity="0.5" style="mix-blend-mode: soft-light;isolation: isolate"/>
            <path id="Trazado_656529" data-name="Trazado 656529" d="M1103.872,5072.859a17.382,17.382,0,0,1-10.626-2.388,14.13,14.13,0,0,1-6.166-9.008c-.8-3.7-.816-10.323,1.7-14.066h-4.255a2.386,2.386,0,0,0-2.385,2.385v22.5a2.386,2.386,0,0,0,2.385,2.386h22.5a2.385,2.385,0,0,0,2.385-2.386v-.613A20.6,20.6,0,0,1,1103.872,5072.859Z" transform="translate(-1082.143 -5032.75)" fill="#c6c6c5" style="mix-blend-mode: multiply;isolation: isolate"/>
            <path id="Trazado_656530" data-name="Trazado 656530" d="M1103.171,5061.934a2.534,2.534,0,1,0-3.343,2.4l-.871,5.636h3.358l-.929-5.615A2.534,2.534,0,0,0,1103.171,5061.934Z" transform="translate(-1087.004 -5036.406)" fill="#005a62" stroke="#252425" stroke-miterlimit="10" stroke-width="1.436"/>
          </g>
        </g>
        <g id="Grupo_956889" data-name="Grupo 956889" transform="translate(0 22.248)">
          <rect id="Rectángulo_45377" data-name="Rectángulo 45377" width="13.6" height="8.845" transform="translate(20.409 81.028) rotate(-71.023)" fill="#364359" stroke="#252425" stroke-miterlimit="10" stroke-width="4.772"/>
          <path id="Trazado_656531" data-name="Trazado 656531" d="M989.956,4977.423a26.589,26.589,0,1,1-16.5-33.791A26.589,26.589,0,0,1,989.956,4977.423Z" transform="translate(-924.299 -4932.613)" fill="#8acfe4" opacity="0.5"/>
          <path id="Trazado_656532" data-name="Trazado 656532" d="M972.377,4930.4a36.154,36.154,0,1,0,22.434,45.944A36.154,36.154,0,0,0,972.377,4930.4Zm-20.4,59.332a26.588,26.588,0,1,1,33.79-16.5A26.588,26.588,0,0,1,951.976,4989.731Z" transform="translate(-920.11 -4928.425)" fill="#364359" stroke="#252425" stroke-miterlimit="10" stroke-width="4.772"/>
          <path id="Trazado_656533" data-name="Trazado 656533" d="M934.988,5095.227a3,3,0,0,1-3.813,1.862l-10.944-3.763a3,3,0,0,1-1.862-3.813l15.623-45.437a3,3,0,0,1,3.813-1.862l10.944,3.763a3,3,0,0,1,1.862,3.813Z" transform="translate(-918.205 -4963.028)" fill="#45bbcc" stroke="#252425" stroke-miterlimit="10" stroke-width="4.772"/>
          <path id="Trazado_656534" data-name="Trazado 656534" d="M927.295,5078.737c1.151-5.679,3.267-11,5.277-16.413,1.141-3.073,2.17-6.2,3.539-9.182,1.592-3.463,3.564-6.9,6.381-9.317l-4.687-1.612a3,3,0,0,0-3.813,1.862l-15.623,45.438a3,3,0,0,0,1.862,3.813l10.462,3.6C926.882,5091.552,925.973,5085.255,927.295,5078.737Z" transform="translate(-918.205 -4963.028)" fill="#c6c6c5" style="mix-blend-mode: multiply;isolation: isolate"/>
          <path id="Trazado_656535" data-name="Trazado 656535" d="M996,4968.978a7.676,7.676,0,1,1-4.763-9.756A7.676,7.676,0,0,1,996,4968.978Z" transform="translate(-937.349 -4937.676)" fill="#fff" stroke="#252425" stroke-linecap="round" stroke-miterlimit="10" stroke-width="2.766"/>
        </g>
      </g>
    </g>
  </g>
</svg>
