<svg xmlns="http://www.w3.org/2000/svg" width="105" height="105" viewBox="0 0 105 105">
  <g id="Grupo_956871" data-name="Grupo 956871" transform="translate(2796 8425)">
    <circle id="_240_F_321763424_EUgnpmBP81OrR6HvnHsT5Mthjtk0JLcN" data-name="240_F_321763424_EUgnpmBP81OrR6HvnHsT5Mthjtk0JLcN" cx="52.5" cy="52.5" r="52.5" transform="translate(-2796 -8425)" fill="#583ae2"/>
    <g id="lista-de-la-compra" transform="translate(-2776 -8398.957)">
      <path id="Trazado_656457" data-name="Trazado 656457" d="M428.41,112.894H419.5V70h8.91a1.909,1.909,0,0,1,1.909,1.909v39.076A1.909,1.909,0,0,1,428.41,112.894Zm0,0" transform="translate(-366.105 -60.654)" fill="#e8e8e8"/>
      <path id="Trazado_656458" data-name="Trazado 656458" d="M165.3,58.786a1.909,1.909,0,0,0,1.909-1.909V9.909A1.909,1.909,0,0,0,165.3,8H129.409A1.909,1.909,0,0,0,127.5,9.909V49.43l4.582-.016v9.371Zm0,0" transform="translate(-111.272 -6.545)" fill="#e8e8e8"/>
      <path id="Trazado_656459" data-name="Trazado 656459" d="M75.446,226.183H60.773A1.273,1.273,0,0,1,59.5,224.91V209H87.12a1.273,1.273,0,0,1,1.273,1.273v3.673a3.819,3.819,0,0,1-1.23,2.807l-9.129,8.419a3.819,3.819,0,0,1-2.589,1.011Zm0,0" transform="translate(-51.927 -181.962)" fill="#2ff980"/>
      <path id="Trazado_656460" data-name="Trazado 656460" d="M63.2,376.1a2.1,2.1,0,1,1-2.1-2.1A2.1,2.1,0,0,1,63.2,376.1Zm0,0" transform="translate(-51.491 -325.96)" fill="#515759"/>
      <path id="Trazado_656461" data-name="Trazado 656461" d="M151.2,376.1a2.1,2.1,0,1,1-2.1-2.1A2.1,2.1,0,0,1,151.2,376.1Zm0,0" transform="translate(-128.29 -325.96)" fill="#515759"/>
      <path id="Trazado_656462" data-name="Trazado 656462" d="M13.246,149.818H8.409a1.909,1.909,0,1,1,0-3.818h2.927a1.909,1.909,0,0,1,1.909,1.909Zm0,0" transform="translate(-5.673 -126.98)" fill="#ff8c64"/>
      <g id="Grupo_956873" data-name="Grupo 956873" transform="translate(43.976 16.347)">
        <path id="Trazado_656463" data-name="Trazado 656463" d="M349.191,129.964h-2.418a1.273,1.273,0,0,1-1.273-1.273v-2.418A1.273,1.273,0,0,1,346.773,125h2.418a1.273,1.273,0,0,1,1.273,1.273v2.418A1.273,1.273,0,0,1,349.191,129.964Zm0,0" transform="translate(-345.5 -125)" fill="#edaf54"/>
        <path id="Trazado_656464" data-name="Trazado 656464" d="M349.191,213.964h-2.418a1.273,1.273,0,0,1-1.273-1.273v-2.418A1.273,1.273,0,0,1,346.773,209h2.418a1.273,1.273,0,0,1,1.273,1.273v2.418A1.273,1.273,0,0,1,349.191,213.964Zm0,0" transform="translate(-345.5 -198.308)" fill="#edaf54"/>
        <path id="Trazado_656465" data-name="Trazado 656465" d="M349.191,297.964h-2.418a1.273,1.273,0,0,1-1.273-1.273v-2.418A1.273,1.273,0,0,1,346.773,293h2.418a1.273,1.273,0,0,1,1.273,1.273v2.418A1.273,1.273,0,0,1,349.191,297.964Zm0,0" transform="translate(-345.5 -271.617)" fill="#edaf54"/>
      </g>
      <path id="Trazado_656466" data-name="Trazado 656466" d="M171.563,210.273v3.673a3.818,3.818,0,0,1-1.23,2.807l-9.129,8.419a3.819,3.819,0,0,1-2.589,1.012H154.8a3.819,3.819,0,0,0,2.589-1.012l9.129-8.419a3.818,3.818,0,0,0,1.23-2.807v-3.673A1.273,1.273,0,0,0,166.471,209h3.818A1.273,1.273,0,0,1,171.563,210.273Zm0,0" transform="translate(-135.094 -181.962)" fill="#28af5f"/>
      <path id="Trazado_656467" data-name="Trazado 656467" d="M465.228,71.909v39.076a1.91,1.91,0,0,1-1.909,1.909H459.5a1.91,1.91,0,0,0,1.909-1.909V71.909A1.91,1.91,0,0,0,459.5,70h3.818A1.91,1.91,0,0,1,465.228,71.909Zm0,0" transform="translate(-401.014 -60.654)" fill="#ccc"/>
      <path id="Trazado_656468" data-name="Trazado 656468" d="M400.228,9.909V56.876a1.91,1.91,0,0,1-1.909,1.909H394.5a1.91,1.91,0,0,0,1.909-1.909V9.909A1.91,1.91,0,0,0,394.5,8h3.818A1.91,1.91,0,0,1,400.228,9.909Zm0,0" transform="translate(-344.287 -6.545)" fill="#ccc"/>
      <path id="Trazado_656469" data-name="Trazado 656469" d="M94.955,241.074a.955.955,0,0,0,.955-.955v-9.164a.955.955,0,1,0-1.909,0v9.164A.955.955,0,0,0,94.955,241.074Zm0,0" transform="translate(-82.036 -200.289)"/>
      <path id="Trazado_656470" data-name="Trazado 656470" d="M135.955,241.074a.955.955,0,0,0,.955-.955v-9.164a.955.955,0,0,0-1.909,0v9.164A.955.955,0,0,0,135.955,241.074Zm0,0" transform="translate(-117.817 -200.289)"/>
      <path id="Trazado_656471" data-name="Trazado 656471" d="M175.955,241.074a.955.955,0,0,0,.955-.955v-9.164a.955.955,0,0,0-1.909,0v9.164A.955.955,0,0,0,175.955,241.074Zm0,0" transform="translate(-152.726 -200.289)"/>
      <path id="Trazado_656472" data-name="Trazado 656472" d="M216.955,236.491a.955.955,0,0,0,.955-.955v-4.582a.955.955,0,0,0-1.909,0v4.582A.955.955,0,0,0,216.955,236.491Zm0,0" transform="translate(-188.507 -200.289)"/>
      <path id="Trazado_656473" data-name="Trazado 656473" d="M62.3,8.392H60.4a.955.955,0,1,0,0,1.909H62.3a.956.956,0,0,1,.955.955V50.331a.956.956,0,0,1-.955.955H56.731a2.852,2.852,0,0,0,.164-.955V47.085a.955.955,0,0,0-1.909,0v3.246a.956.956,0,0,1-.955.955H23.642a3.052,3.052,0,0,0-1.876-4.047V45.176h1.754a4.758,4.758,0,0,0,3.236-1.264l9.129-8.419a4.786,4.786,0,0,0,1.537-3.509V28.311a2.23,2.23,0,0,0-2.227-2.227H17.183V3.364a.956.956,0,0,1,.955-.955H54.031a.956.956,0,0,1,.955.955V42.63a.955.955,0,1,0,1.909,0V3.364A2.867,2.867,0,0,0,54.031.5H18.138a2.867,2.867,0,0,0-2.864,2.864v22.72H8.528V20.929a2.867,2.867,0,0,0-2.864-2.864h-2.8a2.864,2.864,0,0,0,0,5.728H6.618V42.949a2.229,2.229,0,0,0,2.037,2.218v2.073a3.054,3.054,0,1,0,3.856,3.856h5.4a3.06,3.06,0,0,0,2.9,2.1H62.3a2.867,2.867,0,0,0,2.864-2.864V11.255A2.867,2.867,0,0,0,62.3,8.392ZM19.856,47.239a3.067,3.067,0,0,0-1.947,1.947h-5.4a3.067,3.067,0,0,0-1.947-1.947V45.176h9.292ZM1.909,20.929a.956.956,0,0,1,.955-.955h2.8a.956.956,0,0,1,.955.955v.955H2.864A.956.956,0,0,1,1.909,20.929Zm6.619,22.02V27.993H35.193a.319.319,0,0,1,.318.318v3.673a2.873,2.873,0,0,1-.922,2.106L25.46,42.508a2.856,2.856,0,0,1-1.942.759H8.846a.319.319,0,0,1-.318-.318ZM9.61,51.286a1.146,1.146,0,1,1,1.146-1.146A1.147,1.147,0,0,1,9.61,51.286Zm11.2-2.291a1.146,1.146,0,1,1-1.146,1.146A1.147,1.147,0,0,1,20.81,48.995Zm0,0"/>
      <path id="Trazado_656474" data-name="Trazado 656474" d="M344.873,119.727a2.23,2.23,0,0,0-2.227-2.227h-2.418A2.23,2.23,0,0,0,338,119.727v2.418a2.23,2.23,0,0,0,2.227,2.227h2.418a2.23,2.23,0,0,0,2.227-2.227Zm-1.909,2.418a.318.318,0,0,1-.318.318h-2.418a.318.318,0,0,1-.318-.318v-2.418a.319.319,0,0,1,.318-.318h2.418a.319.319,0,0,1,.318.318Zm0,0" transform="translate(-294.979 -102.108)"/>
      <path id="Trazado_656475" data-name="Trazado 656475" d="M344.873,203.727a2.23,2.23,0,0,0-2.227-2.227h-2.418A2.23,2.23,0,0,0,338,203.727v2.418a2.23,2.23,0,0,0,2.227,2.227h2.418a2.23,2.23,0,0,0,2.227-2.227Zm-1.909,2.418a.319.319,0,0,1-.318.318h-2.418a.319.319,0,0,1-.318-.318v-2.418a.319.319,0,0,1,.318-.318h2.418a.319.319,0,0,1,.318.318Zm0,0" transform="translate(-294.979 -175.416)"/>
      <path id="Trazado_656476" data-name="Trazado 656476" d="M342.646,285.5h-2.418A2.23,2.23,0,0,0,338,287.727v2.418a2.23,2.23,0,0,0,2.227,2.227h2.418a2.23,2.23,0,0,0,2.227-2.227v-2.418A2.23,2.23,0,0,0,342.646,285.5Zm.318,4.646a.318.318,0,0,1-.318.318h-2.418a.318.318,0,0,1-.318-.318v-2.418a.319.319,0,0,1,.318-.318h2.418a.319.319,0,0,1,.318.318Zm0,0" transform="translate(-294.979 -248.725)"/>
      <path id="Trazado_656477" data-name="Trazado 656477" d="M191.747,122H175.455a.955.955,0,1,0,0,1.909h16.292a.955.955,0,1,0,0-1.909Zm0,0" transform="translate(-152.289 -106.035)"/>
      <path id="Trazado_656478" data-name="Trazado 656478" d="M175.455,152a.955.955,0,0,0,0,1.909h5.134a.955.955,0,0,0,0-1.909Zm0,0" transform="translate(-152.289 -132.217)"/>
      <path id="Trazado_656479" data-name="Trazado 656479" d="M245.787,152a.955.955,0,1,0,0,1.909h3.522a.955.955,0,1,0,0-1.909Zm0,0" transform="translate(-213.669 -132.217)"/>
      <path id="Trazado_656480" data-name="Trazado 656480" d="M288.618,290h-2.164a.955.955,0,1,0,0,1.909h2.164a.955.955,0,1,0,0-1.909Zm0,0" transform="translate(-249.161 -252.652)"/>
      <path id="Trazado_656481" data-name="Trazado 656481" d="M266.8,320h-5.346a.955.955,0,1,0,0,1.909H266.8a.955.955,0,1,0,0-1.909Zm0,0" transform="translate(-227.343 -278.833)"/>
    </g>
  </g>
</svg>
