<svg xmlns="http://www.w3.org/2000/svg" width="400.001" height="388.098" viewBox="0 0 400.001 388.098">
  <g id="Grupo_957345" data-name="Grupo 957345" transform="translate(-980.983 -86.293)">
    <g id="Grupo_957295" data-name="Grupo 957295" transform="translate(980.983 289.118)">
      <path id="Trazado_657216" data-name="Trazado 657216" d="M998.742,392.4c-.023,0-.046,0-.069,0a.648.648,0,0,1-.575-.713c1.343-12.8,7.672-21.873,12.758-29.162.714-1.024,1.4-1.973,2.04-2.866,3.7-5.139,5.93-8.242,5.058-12.924-.73-3.915-2.631-6.647-11.462-11.59-10.179-5.7-25.56-14.311-25.51-36.236a.649.649,0,0,1,.647-.647h0a.649.649,0,0,1,.645.65c-.051,21.163,14.932,29.551,24.846,35.1,9.227,5.164,11.314,8.256,12.1,12.484.974,5.228-1.514,8.686-5.281,13.92-.638.888-1.319,1.831-2.028,2.852-5,7.165-11.222,16.083-12.532,28.554A.648.648,0,0,1,998.742,392.4Z" transform="translate(-980.983 -298.257)" fill="#32293a"/>
    </g>
    <g id="Grupo_957296" data-name="Grupo 957296" transform="translate(1331.921 259.085)">
      <path id="Trazado_657217" data-name="Trazado 657217" d="M1342.905,376.293a.574.574,0,0,1-.126-.013.645.645,0,0,1-.507-.762c5.8-29.15-7.828-50.232-18.782-67.171-11.366-17.574-17-27.382-10.8-41.1a.647.647,0,1,1,1.178.534c-5.926,13.1-.4,22.672,10.706,39.853,11.083,17.14,24.871,38.467,18.965,68.133A.647.647,0,0,1,1342.905,376.293Z" transform="translate(-1310.129 -266.87)" fill="#32293a"/>
    </g>
    <path id="Trazado_657218" data-name="Trazado 657218" d="M1186.4,456.4c-50.425,3.619-143.3-.9-165.551-43.839s16.5-48.488,15.394-74.607-41.143-19.819-41.071-47.181c.062-23.426,54.356-32.463,39.974-64.567s-16.9-85.981,21.523-103.309c27.407-12.362,67.108,28.065,115.081,17.748,42.316-9.1,94.5-46.129,137.074-25.515,39.29,19.024,50.273,83.967,12.158,139.425-22.2,42.115,46.446,63.378,30.286,116.4C1323.523,462,1223.811,453.717,1186.4,456.4Z" transform="translate(-0.612 -0.978)" fill="#e0feec"/>
    <g id="Grupo_957297" data-name="Grupo 957297" transform="translate(996.651 110.753)">
      <path id="Trazado_657219" data-name="Trazado 657219" d="M1118.25,112.533v90.643a11.292,11.292,0,0,1-11.275,11.308h-97.666a11.292,11.292,0,0,1-11.275-11.308V112.533Z" transform="translate(-997.386 -111.884)" fill="#fffdf7"/>
      <path id="Trazado_657220" data-name="Trazado 657220" d="M1106.946,215.1H1009.28a11.954,11.954,0,0,1-11.923-11.956V111.855h121.511v91.293A11.953,11.953,0,0,1,1106.946,215.1ZM998.652,113.152v90a10.656,10.656,0,0,0,10.628,10.66h97.666a10.656,10.656,0,0,0,10.628-10.66v-90Z" transform="translate(-997.357 -111.855)" fill="#32293a"/>
    </g>
    <path id="Trazado_657221" data-name="Trazado 657221" d="M1118.25,103.981v7.7H998.034v-7.7a11.293,11.293,0,0,1,11.275-11.309h97.666A11.293,11.293,0,0,1,1118.25,103.981Z" transform="translate(-0.735 -0.275)" fill="#25c766"/>
    <path id="Trazado_657222" data-name="Trazado 657222" d="M1118.868,112.3H997.357v-8.344A11.954,11.954,0,0,1,1009.28,92h97.666a11.953,11.953,0,0,1,11.922,11.956ZM998.652,111h118.923v-7.047a10.656,10.656,0,0,0-10.628-10.66H1009.28a10.656,10.656,0,0,0-10.628,10.66Z" transform="translate(-0.706 -0.246)" fill="#32293a"/>
    <g id="Grupo_957298" data-name="Grupo 957298" transform="translate(1003.743 98.333)">
      <rect id="Rectángulo_45410" data-name="Rectángulo 45410" width="70.678" height="6.32" rx="3.16" transform="translate(0.647 0.648)" fill="#fffdf7"/>
      <path id="Trazado_657223" data-name="Trazado 657223" d="M1072.939,106.492h-64.372a3.808,3.808,0,0,1,0-7.617h64.372a3.808,3.808,0,0,1,0,7.617Zm-64.372-6.32a2.512,2.512,0,0,0,0,5.024h64.372a2.512,2.512,0,0,0,0-5.024Z" transform="translate(-1004.768 -98.875)" fill="#32293a"/>
    </g>
    <g id="Grupo_957299" data-name="Grupo 957299" transform="translate(1113.364 98.017)">
      <path id="Trazado_657224" data-name="Trazado 657224" d="M1107.3,102.694a3.464,3.464,0,1,1,3.464,3.472A3.467,3.467,0,0,1,1107.3,102.694Z" transform="translate(-1106.651 -98.574)" fill="#fffdf7"/>
      <path id="Trazado_657225" data-name="Trazado 657225" d="M1110.733,106.785a4.12,4.12,0,1,1,4.112-4.12A4.12,4.12,0,0,1,1110.733,106.785Zm0-6.943a2.823,2.823,0,1,0,2.817,2.823A2.822,2.822,0,0,0,1110.733,99.842Z" transform="translate(-1106.622 -98.545)" fill="#32293a"/>
    </g>
    <g id="Grupo_957300" data-name="Grupo 957300" transform="translate(1103.94 99.226)">
      <path id="Trazado_657226" data-name="Trazado 657226" d="M1098.426,102.748a2.257,2.257,0,1,1,2.257,2.262A2.259,2.259,0,0,1,1098.426,102.748Z" transform="translate(-1097.78 -99.838)" fill="#fffdf7"/>
      <path id="Trazado_657227" data-name="Trazado 657227" d="M1100.654,105.63a2.91,2.91,0,1,1,2.9-2.911A2.91,2.91,0,0,1,1100.654,105.63Zm0-4.524a1.614,1.614,0,1,0,1.609,1.613A1.613,1.613,0,0,0,1100.654,101.106Z" transform="translate(-1097.751 -99.809)" fill="#32293a"/>
    </g>
    <path id="Rectángulo_45411" data-name="Rectángulo 45411" d="M8.451,0H85.838a8.45,8.45,0,0,1,8.45,8.45V25.368a8.45,8.45,0,0,1-8.45,8.45H8.45A8.45,8.45,0,0,1,0,25.368V8.451A8.451,8.451,0,0,1,8.451,0Z" transform="translate(1010.263 122.333)" fill="#e0feec"/>
    <path id="Rectángulo_45412" data-name="Rectángulo 45412" d="M8.451,0H85.838a8.45,8.45,0,0,1,8.45,8.45V25.368a8.451,8.451,0,0,1-8.451,8.451H8.451A8.451,8.451,0,0,1,0,25.368V8.451A8.451,8.451,0,0,1,8.451,0Z" transform="translate(1010.263 167.044)" fill="#e0feec"/>
    <g id="Grupo_957301" data-name="Grupo 957301" transform="translate(1009.616 185.819)">
      <path id="Trazado_657228" data-name="Trazado 657228" d="M1085.518,206H1017.4a6.509,6.509,0,0,1-6.494-6.508v-8.536a.647.647,0,1,1,1.294,0v8.536a5.213,5.213,0,0,0,5.2,5.211h68.118a.648.648,0,0,1,0,1.3Z" transform="translate(-1010.906 -190.303)" fill="#32293a"/>
    </g>
    <g id="Grupo_957302" data-name="Grupo 957302" transform="translate(1280.831 167.755)">
      <path id="Rectángulo_45413" data-name="Rectángulo 45413" d="M0,0H73.344A25.515,25.515,0,0,1,98.859,25.515v0A25.515,25.515,0,0,1,73.344,51.031H11.822A11.822,11.822,0,0,1,0,39.209V0A0,0,0,0,1,0,0Z" transform="translate(0.647 0.649)" fill="#fffdf7"/>
      <path id="Trazado_657229" data-name="Trazado 657229" d="M1330.784,223.752h-61.6a12.471,12.471,0,0,1-12.443-12.47V171.425h74.047a26.164,26.164,0,0,1,0,52.327Zm-72.753-51.031v38.561a11.174,11.174,0,0,0,11.15,11.174h61.6a24.867,24.867,0,0,0,0-49.734Z" transform="translate(-1256.737 -171.425)" fill="#32293a"/>
    </g>
    <path id="Trazado_657230" data-name="Trazado 657230" d="M1169,389.87h26.719L1181.7,366.946h-26.718Z" transform="translate(11.03 -12.1)" fill="#f4c7a8"/>
    <path id="Trazado_657231" data-name="Trazado 657231" d="M1194.072,384.833v-1.9a3.758,3.758,0,0,0-3.754-3.762h-1.249a3.752,3.752,0,0,0-3.348,2.06l-1.771,3.5a3.753,3.753,0,0,1-3.348,2.061h-10.8a3.752,3.752,0,0,1-3.052-1.57l-5.976-8.356a3.755,3.755,0,0,0-3.052-1.57h0a4.613,4.613,0,0,0-2.76,1.211c-10.363,8-21.54,15.91-32.39,22.985-1.754,1.143-3.526,2.252-4.2,4.239l-2.689,7.971h78.147Z" transform="translate(10.43 -12.46)" fill="#25c766"/>
    <g id="Grupo_957303" data-name="Grupo 957303" transform="translate(1125.449 398.593)">
      <path id="Trazado_657232" data-name="Trazado 657232" d="M1193.834,413.341v7.493a2.417,2.417,0,0,1-2.415,2.42H1118.1a2.417,2.417,0,0,1-2.415-2.42v-7.493Z" transform="translate(-1115.04 -412.693)" fill="#fffdf7"/>
      <path id="Trazado_657233" data-name="Trazado 657233" d="M1191.391,423.874h-73.318a3.069,3.069,0,0,1-3.062-3.069v-7.492a.647.647,0,1,1,1.295,0v7.492a1.771,1.771,0,0,0,1.767,1.772h73.318a1.771,1.771,0,0,0,1.767-1.772v-7.492a.647.647,0,1,1,1.294,0v7.492A3.068,3.068,0,0,1,1191.391,423.874Z" transform="translate(-1115.011 -412.664)" fill="#32293a"/>
    </g>
    <g id="Grupo_957304" data-name="Grupo 957304" transform="translate(1191.532 383.144)">
      <path id="Trazado_657234" data-name="Trazado 657234" d="M1181.459,412.971l-1.085-.708,7.994-12.3a7.553,7.553,0,0,1,6.351-3.448h2.143v1.3h-2.143a6.262,6.262,0,0,0-5.267,2.859Z" transform="translate(-1180.374 -396.519)" fill="#32293a"/>
    </g>
    <g id="Grupo_957305" data-name="Grupo 957305" transform="translate(1138.859 367.475)">
      <path id="Trazado_657235" data-name="Trazado 657235" d="M1137.254,402.964a3.877,3.877,0,0,1-.8-.083,3.782,3.782,0,0,1-2.407-1.658l-3.97-6.142,1.084-.705,3.971,6.142a2.513,2.513,0,0,0,3.489.738l15.433-10.115a2.527,2.527,0,0,0,.652-3.6l-4.849-6.629,1.044-.766,4.849,6.63a3.823,3.823,0,0,1-.987,5.449l-15.435,10.116A3.771,3.771,0,0,1,1137.254,402.964Z" transform="translate(-1130.081 -380.144)" fill="#32293a"/>
    </g>
    <g id="Grupo_957306" data-name="Grupo 957306" transform="translate(1154.374 371.025)">
      <path id="Trazado_657236" data-name="Trazado 657236" d="M1146.257,384.53l6.046,8.628Z" transform="translate(-1145.611 -383.883)" fill="#ffcc38"/>
      <path id="Trazado_657237" data-name="Trazado 657237" d="M1152.273,393.778a.645.645,0,0,1-.529-.277l-6.045-8.627a.647.647,0,1,1,1.058-.744l6.045,8.627a.649.649,0,0,1-.157.9A.643.643,0,0,1,1152.273,393.778Z" transform="translate(-1145.582 -383.854)" fill="#32293a"/>
    </g>
    <g id="Grupo_957307" data-name="Grupo 957307" transform="translate(1149.043 374.441)">
      <path id="Trazado_657238" data-name="Trazado 657238" d="M1141.2,388.1l6.046,8.628Z" transform="translate(-1140.549 -387.454)" fill="#ffcc38"/>
      <path id="Trazado_657239" data-name="Trazado 657239" d="M1147.213,397.349a.646.646,0,0,1-.529-.277l-6.046-8.628a.647.647,0,1,1,1.058-.744l6.046,8.628a.648.648,0,0,1-.529,1.021Z" transform="translate(-1140.52 -387.425)" fill="#32293a"/>
    </g>
    <g id="Grupo_957308" data-name="Grupo 957308" transform="translate(1143.612 377.651)">
      <path id="Trazado_657240" data-name="Trazado 657240" d="M1136.041,391.455l6.046,8.628Z" transform="translate(-1135.395 -390.808)" fill="#ffcc38"/>
      <path id="Trazado_657241" data-name="Trazado 657241" d="M1142.058,400.7a.644.644,0,0,1-.529-.276l-6.046-8.628a.647.647,0,1,1,1.058-.744l6.046,8.628a.647.647,0,0,1-.529,1.02Z" transform="translate(-1135.365 -390.779)" fill="#32293a"/>
    </g>
    <g id="Grupo_957309" data-name="Grupo 957309" transform="translate(1295.239 181.411)">
      <path id="Trazado_657242" data-name="Trazado 657242" d="M1299.92,195.1h-21.191a.648.648,0,0,1,0-1.3h21.191a3.406,3.406,0,0,0,0-6.812h-27.479a.649.649,0,0,1,0-1.3h27.479a4.7,4.7,0,0,1,0,9.406Z" transform="translate(-1271.794 -185.697)" fill="#32293a"/>
    </g>
    <g id="Grupo_957310" data-name="Grupo 957310" transform="translate(1305.567 196.376)">
      <path id="Trazado_657243" data-name="Trazado 657243" d="M1300.385,210.742h-11.716a.648.648,0,0,1,0-1.3h11.716a3.407,3.407,0,0,0,0-6.813h-17.15a.648.648,0,0,1,0-1.3h17.15a4.7,4.7,0,0,1,0,9.406Z" transform="translate(-1282.588 -201.336)" fill="#32293a"/>
    </g>
    <g id="Grupo_957316" data-name="Grupo 957316" transform="translate(1220.148 412.816)">
      <rect id="Rectángulo_45414" data-name="Rectángulo 45414" width="26.719" height="27.94" transform="translate(7.261)" fill="#f4c7a8"/>
      <path id="Trazado_657244" data-name="Trazado 657244" d="M1211.26,440.77h1.041a3.271,3.271,0,0,1,2.889,1.741l2.095,3.952h19.044l2.1-3.952a3.27,3.27,0,0,1,2.889-1.741h1.041a4.616,4.616,0,0,1,4.612,4.624v29.978a5.358,5.358,0,0,1-5.353,5.364H1212a5.359,5.359,0,0,1-5.353-5.364V445.394A4.617,4.617,0,0,1,1211.26,440.77Z" transform="translate(-1205.865 -428.099)" fill="#25c766"/>
      <path id="Trazado_657245" data-name="Trazado 657245" d="M1236.021,446.214v-2.487a8.707,8.707,0,0,0-8.7-8.716h0a8.707,8.707,0,0,0-8.7,8.716v2.487Z" transform="translate(-1206.382 -427.851)" fill="#25c766"/>
      <g id="Grupo_957311" data-name="Grupo 957311" transform="translate(11.598 17.714)">
        <path id="Trazado_657246" data-name="Trazado 657246" d="M1218.625,446.719l2.733,19.335a4.113,4.113,0,0,0,4.069,3.54h3.793a4.112,4.112,0,0,0,4.069-3.54l2.733-19.335Z" transform="translate(-1217.979 -446.07)" fill="#25c766"/>
        <path id="Trazado_657247" data-name="Trazado 657247" d="M1229.191,470.214H1225.4a4.78,4.78,0,0,1-4.708-4.1l-2.733-19.334a.646.646,0,1,1,1.279-.182l2.733,19.334a3.481,3.481,0,0,0,3.429,2.984h3.793a3.481,3.481,0,0,0,3.428-2.983l2.733-19.335a.646.646,0,1,1,1.279.182l-2.733,19.335A4.778,4.778,0,0,1,1229.191,470.214Z" transform="translate(-1217.95 -446.04)" fill="#32293a"/>
      </g>
      <g id="Grupo_957312" data-name="Grupo 957312" transform="translate(12.377 23.242)">
        <path id="Trazado_657248" data-name="Trazado 657248" d="M1235.007,452.495h0Z" transform="translate(-1218.794 -451.847)" fill="#ffcc38"/>
        <path id="Trazado_657249" data-name="Trazado 657249" d="M1234.978,453.115h-15.566a.648.648,0,0,1,0-1.3h15.566a.648.648,0,0,1,0,1.3Z" transform="translate(-1218.765 -451.818)" fill="#32293a"/>
      </g>
      <g id="Grupo_957313" data-name="Grupo 957313" transform="translate(13.795 29.141)">
        <path id="Trazado_657250" data-name="Trazado 657250" d="M1233.654,458.661h0Z" transform="translate(-1220.276 -458.012)" fill="#ffcc38"/>
        <path id="Trazado_657251" data-name="Trazado 657251" d="M1233.625,459.281h-12.731a.649.649,0,0,1,0-1.3h12.731a.649.649,0,0,1,0,1.3Z" transform="translate(-1220.247 -457.983)" fill="#32293a"/>
      </g>
      <g id="Grupo_957314" data-name="Grupo 957314" transform="translate(14.378 35.123)">
        <path id="Trazado_657252" data-name="Trazado 657252" d="M1233.1,464.911h0Z" transform="translate(-1220.885 -464.263)" fill="#ffcc38"/>
        <path id="Trazado_657253" data-name="Trazado 657253" d="M1233.069,465.531H1221.5a.648.648,0,0,1,0-1.3h11.566a.648.648,0,0,1,0,1.3Z" transform="translate(-1220.856 -464.234)" fill="#32293a"/>
      </g>
      <g id="Grupo_957315" data-name="Grupo 957315" transform="translate(0 46.924)">
        <path id="Trazado_657254" data-name="Trazado 657254" d="M1241.443,490.949h-29.615a6.013,6.013,0,0,1-6-6.013v-7.72a.647.647,0,1,1,1.294,0v7.72a4.717,4.717,0,0,0,4.7,4.717h29.615a4.716,4.716,0,0,0,4.7-4.717v-7.72a.647.647,0,1,1,1.294,0v7.72A6.013,6.013,0,0,1,1241.443,490.949Z" transform="translate(-1205.83 -476.567)" fill="#32293a"/>
      </g>
    </g>
    <path id="Trazado_657255" data-name="Trazado 657255" d="M1182.547,237.517v13.017a4.776,4.776,0,0,1-4.771,4.781h-54.711a23.533,23.533,0,0,0-20.056,35.77l43.421,71.409a3.587,3.587,0,0,0,3.066,1.727h36.6a2.527,2.527,0,0,0,2.172-3.808L1150.878,297.1h51.234V419.772a3.593,3.593,0,0,0,3.589,3.6h33.263a3.592,3.592,0,0,0,3.589-3.618L1241.5,237.517Z" transform="translate(13.359 -6.52)" fill="#32293a"/>
    <path id="Trazado_657256" data-name="Trazado 657256" d="M1144.306,179.417l-11.325,9.992-18.926-20.665,1.175-12.967a13.663,13.663,0,0,0-8.307-13.835l-27.557-11.716,1.043,39.057,41.512,47.271a21.019,21.019,0,0,0,30.194,1.457l13.865-13.018Z" transform="translate(7.97 -1.894)" fill="#f4c7a8"/>
    <g id="Grupo_957317" data-name="Grupo 957317" transform="translate(1242.519 243.739)">
      <path id="Trazado_657257" data-name="Trazado 657257" d="M1242.578,266.645l-.032,0a15.022,15.022,0,0,1-9.425-4.357,14.073,14.073,0,0,1-4.307-10.838.684.684,0,0,1,.677-.615.648.648,0,0,1,.614.679,12.788,12.788,0,0,0,3.921,9.848,13.7,13.7,0,0,0,8.583,3.988.648.648,0,0,1-.032,1.3Z" transform="translate(-1228.796 -250.833)" fill="#faf5ff"/>
    </g>
    <g id="Grupo_957318" data-name="Grupo 957318" transform="translate(1084.877 127.683)">
      <path id="Trazado_657258" data-name="Trazado 657258" d="M1112,205.913a.651.651,0,0,1-.486-.22l-31.623-36.01a.654.654,0,0,1-.162-.411l-1.042-39.057a.648.648,0,0,1,.9-.614l27.559,11.717a14.256,14.256,0,0,1,8.7,14.489l-1.15,12.682,4.37,4.771a.648.648,0,0,1-.953.877l-4.564-4.984a.651.651,0,0,1-.168-.5l1.176-12.967a12.965,12.965,0,0,0-7.911-13.177l-26.635-11.325L1081.019,169l31.469,35.833a.651.651,0,0,1-.058.916A.642.642,0,0,1,1112,205.913Z" transform="translate(-1078.69 -129.548)" fill="#32293a"/>
    </g>
    <g id="Grupo_957319" data-name="Grupo 957319" transform="translate(1021.404 86.293)">
      <path id="Trazado_657259" data-name="Trazado 657259" d="M1093.041,131.542a21.193,21.193,0,0,0-21.305-5.49L1033.569,87.8a2.823,2.823,0,0,0-4.7,1.179l-4.844,15.984a2.838,2.838,0,0,0,.706,2.826l5.4,5.416a1.671,1.671,0,0,0,1.315.485l4.2-.334a1.673,1.673,0,0,1,1.786,1.917l-.553,3.73a1.675,1.675,0,0,0,.472,1.432l6.466,6.481a1.671,1.671,0,0,0,1.39.477l2.417-.3a1.674,1.674,0,0,1,1.862,1.91l-.343,2.3a1.678,1.678,0,0,0,.472,1.432l7.84,7.857a21.246,21.246,0,1,0,35.589-9.044Zm-8.846,18.907a5.939,5.939,0,1,1,5.927-5.94A5.934,5.934,0,0,1,1084.194,150.449Z" transform="translate(-1023.255 -86.322)" fill="#ff9b38"/>
      <path id="Trazado_657260" data-name="Trazado 657260" d="M1077.818,168.328a21.642,21.642,0,0,1-15.454-6.424,21.987,21.987,0,0,1-5.665-21.157l-7.574-7.591a2.33,2.33,0,0,1-.653-1.986l.342-2.295a1.018,1.018,0,0,0-.28-.87,1,1,0,0,0-.859-.3l-2.42.3a2.356,2.356,0,0,1-1.927-.662l-6.468-6.481a2.344,2.344,0,0,1-.653-1.986l.554-3.73a1.016,1.016,0,0,0-.264-.852,1,1,0,0,0-.833-.323l-4.194.334a2.311,2.311,0,0,1-1.825-.673l-5.4-5.416a3.482,3.482,0,0,1-.868-3.472l4.844-15.985A3.471,3.471,0,0,1,1034,87.315l37.9,37.979a21.8,21.8,0,0,1,21.582,5.765h0a21.987,21.987,0,0,1,.646,29.989,21.7,21.7,0,0,1-15.708,7.271C1078.214,168.325,1078.015,168.328,1077.818,168.328Zm-30.01-41.929a2.321,2.321,0,0,1,2.285,2.669l-.342,2.294a1.031,1.031,0,0,0,.288.878l7.841,7.858a.645.645,0,0,1,.166.635,20.692,20.692,0,0,0,5.233,20.255,20.559,20.559,0,0,0,29.879-.808,20.943,20.943,0,0,0-.609-28.216,20.517,20.517,0,0,0-20.656-5.321.651.651,0,0,1-.644-.163l-38.166-38.251a2.176,2.176,0,0,0-3.625.91l-4.845,15.984a2.181,2.181,0,0,0,.544,2.178l5.4,5.417a.988.988,0,0,0,.8.3l4.2-.333a2.321,2.321,0,0,1,2.477,2.657l-.554,3.731a1.028,1.028,0,0,0,.29.877l6.467,6.481a1,1,0,0,0,.851.292l2.419-.3A2.381,2.381,0,0,1,1047.808,126.4Zm36.357,24.669a6.588,6.588,0,1,1,6.573-6.588A6.587,6.587,0,0,1,1084.165,151.067Zm0-11.879a5.291,5.291,0,1,0,5.279,5.291A5.291,5.291,0,0,0,1084.165,139.189Z" transform="translate(-1023.225 -86.293)" fill="#32293a"/>
    </g>
    <path id="Trazado_657261" data-name="Trazado 657261" d="M1193.386,156.621c-.354.235-8.368.169-14.079.092a14.462,14.462,0,0,0-9.913,3.752l-22.162,20.09,21.674,25.577,15.7-13.664v41.562h58.955V205.164l1.6,2.364,25.657-13.745L1250,163.077a14.488,14.488,0,0,0-11.96-6.363Z" transform="translate(16.64 -3.032)" fill="#25c766"/>
    <path id="Trazado_657262" data-name="Trazado 657262" d="M1195.378,119.57c-3.724-6.207-2.322-16.347,12.784-17.086s15.469,7.782,15.469,7.782c4.4-.781,14.477,11.848.589,21.691s-20.268-4.723-20.268-4.723Z" transform="translate(13.267 -0.696)" fill="#32293a"/>
    <path id="Trazado_657263" data-name="Trazado 657263" d="M1197.091,155.011c0,5.227,5.134,14.177,16.15,14.177s12.045-12.428,12.045-14.286c0,.079-3.255-3.361-5-5.217a3.976,3.976,0,0,1-1.083-2.735v-7.242c8.806.849,8.292-13.177-2.957-9.3a16.514,16.514,0,0,1-3.9-3.185,5.519,5.519,0,0,1-.37-6.726,10,10,0,0,1,4.269-3.763c-5.12,1.42-16.69,3.96-21.651,1.208-1.093,6.49-3.074,22.268,7.436,25.754,0,.82-.138,2.854-.236,4.173a4,4,0,0,1-.828,2.149Z" transform="translate(12.862 -1.313)" fill="#f4c7a8"/>
    <g id="Grupo_957320" data-name="Grupo 957320" transform="translate(1204.826 119.954)">
      <path id="Trazado_657264" data-name="Trazado 657264" d="M1196.066,133.348l-1.719-1.233a1.533,1.533,0,0,1-.636-1.019,2.035,2.035,0,0,1,.41-1.494c1.3-1.772,1.889-3.852,1.509-5.3a2.3,2.3,0,0,0-1.325-1.592.648.648,0,0,1,.532-1.183,3.6,3.6,0,0,1,2.045,2.446c.482,1.838-.176,4.29-1.717,6.395a.767.767,0,0,0-.176.523.243.243,0,0,0,.112.17l1.719,1.232Z" transform="translate(-1193.691 -121.471)" fill="#32293a"/>
    </g>
    <g id="Grupo_957321" data-name="Grupo 957321" transform="translate(1214.568 122.066)">
      <path id="Trazado_657265" data-name="Trazado 657265" d="M1208.206,127.435a.645.645,0,0,1-.571-.345c-1.178-2.23-2.45-2.374-4.006-1.908a.64.64,0,0,1-.806-.434.648.648,0,0,1,.433-.807c2.463-.737,4.216.069,5.52,2.542a.649.649,0,0,1-.269.877A.638.638,0,0,1,1208.206,127.435Z" transform="translate(-1202.796 -123.678)" fill="#32293a"/>
    </g>
    <path id="Trazado_657266" data-name="Trazado 657266" d="M1206.338,130.118a1.3,1.3,0,1,1-.987-1.785A1.459,1.459,0,0,1,1206.338,130.118Z" transform="translate(11.619 -1.812)" fill="#32293a"/>
    <path id="Trazado_657267" data-name="Trazado 657267" d="M1196.046,127.927a1.3,1.3,0,1,1-.987-1.785A1.458,1.458,0,0,1,1196.046,127.927Z" transform="translate(11.082 -1.717)" fill="#32293a"/>
    <g id="Grupo_957322" data-name="Grupo 957322" transform="translate(1208.277 138.211)">
      <path id="Trazado_657268" data-name="Trazado 657268" d="M1204,145.35a8.94,8.94,0,0,1-7.44-3.781.647.647,0,1,1,1.061-.74c.825,1.187,4.03,4.863,10.7,2.356a.648.648,0,0,1,.454,1.214A13.55,13.55,0,0,1,1204,145.35Z" transform="translate(-1196.447 -140.551)" fill="#32293a"/>
    </g>
    <g id="Grupo_957323" data-name="Grupo 957323" transform="translate(1208.021 141.74)">
      <path id="Trazado_657269" data-name="Trazado 657269" d="M1197.215,156.845a.638.638,0,0,1-.427-.164.649.649,0,0,1-.058-.914l3.806-4.327a3.507,3.507,0,0,0,.871-2.232l.1-4.337a.647.647,0,1,1,1.295.029l-.1,4.337a4.817,4.817,0,0,1-1.193,3.06l-3.807,4.327A.644.644,0,0,1,1197.215,156.845Z" transform="translate(-1196.569 -144.238)" fill="#32293a"/>
    </g>
    <g id="Grupo_957324" data-name="Grupo 957324" transform="translate(1207.683 134.069)">
      <path id="Trazado_657270" data-name="Trazado 657270" d="M1199.275,138.519a3.6,3.6,0,0,1-2.819-1.246.648.648,0,0,1,1.014-.806,2.474,2.474,0,0,0,2.837.509.647.647,0,0,1,.692,1.095A3.259,3.259,0,0,1,1199.275,138.519Z" transform="translate(-1196.316 -136.222)" fill="#32293a"/>
    </g>
    <g id="Grupo_957325" data-name="Grupo 957325" transform="translate(1089.925 141.723)">
      <path id="Trazado_657271" data-name="Trazado 657271" d="M1106.23,153.877s-16.082-7.82-18.469-8.775-3.928,1.634-2.652,4.424,8.962,11.722,8.962,11.722a8,8,0,0,0,3.275,11.04Z" transform="translate(-1084 -144.25)" fill="#f4c7a8"/>
      <path id="Trazado_657272" data-name="Trazado 657272" d="M1097.317,172.906a.638.638,0,0,1-.293-.071,8.381,8.381,0,0,1-4.323-5.246,8.84,8.84,0,0,1,.555-6.294c-1.45-1.7-7.594-8.974-8.762-11.53a4.282,4.282,0,0,1,.373-4.734,2.7,2.7,0,0,1,3.106-.562c2.38.953,17.852,8.474,18.509,8.794a.647.647,0,0,1-.564,1.165c-.162-.077-16.088-7.821-18.426-8.755a1.431,1.431,0,0,0-1.688.252,3.028,3.028,0,0,0-.137,3.3c1.225,2.674,8.787,11.481,8.865,11.57a.652.652,0,0,1,.061.763,7.363,7.363,0,0,0-.647,5.681,7,7,0,0,0,3.662,4.442.648.648,0,0,1-.292,1.226Z" transform="translate(-1083.971 -144.22)" fill="#32293a"/>
    </g>
    <g id="Grupo_957326" data-name="Grupo 957326" transform="translate(1196.166 175.877)">
      <path id="Trazado_657273" data-name="Trazado 657273" d="M1186.213,222.736a.648.648,0,0,1-.647-.649V180.561a.647.647,0,1,1,1.294,0v41.526A.648.648,0,0,1,1186.213,222.736Z" transform="translate(-1185.566 -179.913)" fill="#32293a"/>
    </g>
    <g id="Grupo_957327" data-name="Grupo 957327" transform="translate(1157.131 153.137)">
      <path id="Trazado_657274" data-name="Trazado 657274" d="M1168.218,206.76a.644.644,0,0,1-.5-.236l-21.014-25.577a.648.648,0,0,1,.078-.9l23.691-20.475a14.046,14.046,0,0,1,9.179-3.419h8.414a.648.648,0,0,1,0,1.3h-8.414a12.758,12.758,0,0,0-8.336,3.1l-23.211,20.062,20.612,25.088a.648.648,0,0,1-.5,1.06Z" transform="translate(-1146.557 -156.149)" fill="#32293a"/>
    </g>
    <g id="Grupo_957328" data-name="Grupo 957328" transform="translate(1135.882 179.691)">
      <path id="Trazado_657275" data-name="Trazado 657275" d="M1138.36,195.694a.643.643,0,0,1-.471-.2l-9.831-10.5a.647.647,0,1,1,.942-.888l9.831,10.5a.648.648,0,0,1-.029.916A.639.639,0,0,1,1138.36,195.694Z" transform="translate(-1127.883 -183.899)" fill="#32293a"/>
    </g>
    <g id="Grupo_957329" data-name="Grupo 957329" transform="translate(1031.8 98.796)">
      <path id="Trazado_657276" data-name="Trazado 657276" d="M1066.749,131.838a.64.64,0,0,1-.451-.184l-32.013-31.182a.647.647,0,0,1,.9-.929l32.012,31.182a.648.648,0,0,1-.45,1.113Z" transform="translate(-1034.09 -99.36)" fill="#32293a"/>
    </g>
    <path id="Trazado_657277" data-name="Trazado 657277" d="M1247.948,209.2l11.89,16.955-21.34,34.552s-17.719,1.817-21.448,1.808-1.31,5.43,3.134,6.329a76.45,76.45,0,0,0,9.781,1.15s-15,18.72-17.439,22.458,2.554,6.588,6.322,2.7S1233.909,277,1233.909,277s-10.205,19.631-11.722,23.019c-1.105,2.467,3.761,6.842,6.98,2.071s12.1-20.652,12.1-20.652-7.28,17.447-7.775,19.808,3.963,4.7,6.089,1.6,9.876-19.081,9.876-19.081-2.571,11.464-3.219,14.331,4.107,3.118,5.355-.16,11.874-27.4,11.874-27.4l25.172-40.42a12.135,12.135,0,0,0-.307-13.3L1273.6,195.457Z" transform="translate(17.898 -4.707)" fill="#f4c7a8"/>
    <g id="Grupo_957330" data-name="Grupo 957330" transform="translate(1269.195 224.766)">
      <path id="Trazado_657278" data-name="Trazado 657278" d="M1252.818,301.047a.647.647,0,0,1-.518-1.036,3.247,3.247,0,0,0,.423-.774c1.24-3.254,11.452-26.442,11.885-27.426l25.217-40.5a.647.647,0,1,1,1.1.687l-25.173,40.419c-.062.16-10.588,24.06-11.817,27.285a4.548,4.548,0,0,1-.6,1.088A.644.644,0,0,1,1252.818,301.047Z" transform="translate(-1252.171 -231.005)" fill="#32293a"/>
    </g>
    <g id="Grupo_957331" data-name="Grupo 957331" transform="translate(1261.176 278.916)">
      <path id="Trazado_657279" data-name="Trazado 657279" d="M1249.753,304.941a3.264,3.264,0,0,1-1.365-.281,2.273,2.273,0,0,1-1.266-2.734l3.217-14.331,1.262.284-3.218,14.333a1,1,0,0,0,.547,1.271,2.8,2.8,0,0,0,3.149-1.033.647.647,0,1,1,1.035.777A4.231,4.231,0,0,1,1249.753,304.941Z" transform="translate(-1247.045 -287.595)" fill="#32293a"/>
    </g>
    <g id="Grupo_957332" data-name="Grupo 957332" transform="translate(1247.765 276.081)">
      <path id="Trazado_657280" data-name="Trazado 657280" d="M1237.807,308.821a4.467,4.467,0,0,1-1.745-.361,3.3,3.3,0,0,1-2.262-3.505c.5-2.393,7.513-19.21,7.81-19.925a.647.647,0,1,1,1.192.5c-2.51,6.015-7.357,17.872-7.738,19.692-.176.842.625,1.668,1.507,2.047a2.682,2.682,0,0,0,3.417-.944c.988-1.441,4.382-8.025,7.225-13.706a.648.648,0,1,1,1.158.582c-1.39,2.775-6.026,11.978-7.319,13.86A3.826,3.826,0,0,1,1237.807,308.821Z" transform="translate(-1233.749 -284.633)" fill="#32293a"/>
    </g>
    <g id="Grupo_957333" data-name="Grupo 957333" transform="translate(1235.199 271.644)">
      <path id="Trazado_657281" data-name="Trazado 657281" d="M1226.21,308.512a4.272,4.272,0,0,1-2.079-.557c-1.83-1.02-2.774-3.066-2.105-4.559,1.507-3.365,11.321-22.251,11.738-23.054a.647.647,0,1,1,1.146.6c-.1.2-10.213,19.654-11.7,22.985-.387.865.34,2.218,1.555,2.9.727.406,2.6,1.073,4.3-1.454,1.256-1.863,3.524-5.639,6.74-11.222a.647.647,0,1,1,1.12.648c-3.23,5.61-5.515,9.412-6.79,11.3A4.739,4.739,0,0,1,1226.21,308.512Z" transform="translate(-1221.81 -279.995)" fill="#32293a"/>
    </g>
    <g id="Grupo_957334" data-name="Grupo 957334" transform="translate(1225.413 242.94)">
      <path id="Trazado_657282" data-name="Trazado 657282" d="M1214.922,300.021a4.04,4.04,0,0,1-2.538-.843c-1.4-1.123-1.57-2.98-.429-4.728,2.134-3.273,13.553-17.6,16.7-21.533a73.112,73.112,0,0,1-8.626-1.085c-3.284-.664-5.68-3.671-5.473-5.716a2.17,2.17,0,0,1,2.456-1.9h.045c3.445,0,18.638-1.529,21.031-1.772l7.5-12.142a.647.647,0,1,1,1.1.682l-7.668,12.413a.644.644,0,0,1-.484.3c-.723.074-17.688,1.81-21.48,1.81h-.045c-1.095,0-1.148.531-1.169.731-.132,1.317,1.716,3.763,4.444,4.315a75.974,75.974,0,0,0,9.684,1.138.65.65,0,0,1,.475,1.054c-.15.188-15.011,18.737-17.4,22.407-.772,1.185-.716,2.308.155,3.007,1.111.893,3.3.808,5.161-1.115,1.65-1.7,5.094-5.779,9.957-11.788a.647.647,0,1,1,1,.816c-3.408,4.21-7.915,9.689-10.034,11.875A6.137,6.137,0,0,1,1214.922,300.021Z" transform="translate(-1211.204 -249.998)" fill="#32293a"/>
    </g>
    <g id="Grupo_957335" data-name="Grupo 957335" transform="translate(1261.355 230.718)">
      <path id="Trazado_657283" data-name="Trazado 657283" d="M1247.681,250.745a.648.648,0,0,1-.55-.989l7.548-12.222a.647.647,0,1,1,1.1.682l-7.547,12.222A.645.645,0,0,1,1247.681,250.745Z" transform="translate(-1247.034 -237.225)" fill="#32293a"/>
    </g>
    <g id="Grupo_957336" data-name="Grupo 957336" transform="translate(1250.867 182.653)">
      <path id="Trazado_657284" data-name="Trazado 657284" d="M1248.936,209.485a.65.65,0,0,1-.553-.311c-4.7-7.718-12.482-20.255-13.363-21.042a.654.654,0,0,1-.061-.913.641.641,0,0,1,.9-.071c1.19,1.019,10.677,16.515,13.307,20.829l25.117-13.456a.648.648,0,0,1,.61,1.143l-25.656,13.744A.642.642,0,0,1,1248.936,209.485Z" transform="translate(-1234.802 -186.995)" fill="#32293a"/>
    </g>
    <g id="Grupo_957337" data-name="Grupo 957337" transform="translate(1206.087 273.243)">
      <path id="Trazado_657285" data-name="Trazado 657285" d="M1205.863,318.851a.647.647,0,0,1-.647-.648V292.8l-10.605-10.013a.647.647,0,1,1,.887-.943l11.012,10.4V318.2A.648.648,0,0,1,1205.863,318.851Z" transform="translate(-1194.408 -281.666)" fill="#faf5ff"/>
    </g>
    <g id="Grupo_957338" data-name="Grupo 957338" transform="translate(1063.881 408.506)">
      <path id="Rectángulo_45415" data-name="Rectángulo 45415" d="M7.037,0h97.4a7.038,7.038,0,0,1,7.038,7.038V57.547a7.038,7.038,0,0,1-7.038,7.038H7.037A7.037,7.037,0,0,1,0,57.547V7.037A7.037,7.037,0,0,1,7.037,0Z" transform="translate(0.647 0.648)" fill="#fffdf7"/>
      <path id="Trazado_657286" data-name="Trazado 657286" d="M1162.156,488.9h-98.019a7.39,7.39,0,0,1-7.375-7.389v-51.1a7.391,7.391,0,0,1,7.375-7.39h98.019a7.39,7.39,0,0,1,7.374,7.39v51.1A7.389,7.389,0,0,1,1162.156,488.9Zm-98.019-64.584a6.094,6.094,0,0,0-6.08,6.093v51.1a6.092,6.092,0,0,0,6.08,6.092h98.019a6.092,6.092,0,0,0,6.08-6.092v-51.1a6.094,6.094,0,0,0-6.08-6.093Z" transform="translate(-1056.763 -423.024)" fill="#32293a"/>
    </g>
    <g id="Grupo_957339" data-name="Grupo 957339" transform="translate(1224.665 137.975)">
      <path id="Trazado_657287" data-name="Trazado 657287" d="M1212.5,170.792a.648.648,0,0,1,0-1.3c8.008,0,12.823-4.97,12.922-13.313l-4.724-4.78a4.4,4.4,0,0,1-1.265-3.152l.123-7.31a.648.648,0,0,1,.647-.637h.011a.648.648,0,0,1,.635.658l-.124,7.31a3.1,3.1,0,0,0,.89,2.218l4.913,4.971a.649.649,0,0,1,.188.455C1226.716,165.092,1221.269,170.792,1212.5,170.792Z" transform="translate(-1211.852 -140.304)" fill="#32293a"/>
    </g>
    <path id="Trazado_657288" data-name="Trazado 657288" d="M1317.8,197.766a14.76,14.76,0,1,1,14.76,14.792A14.776,14.776,0,0,1,1317.8,197.766Z" transform="translate(21.461 -4.168)" fill="#1c954d"/>
    <path id="Trazado_657289" data-name="Trazado 657289" d="M1332.535,213.177a15.44,15.44,0,1,1,15.408-15.44A15.441,15.441,0,0,1,1332.535,213.177Zm0-29.584a14.144,14.144,0,1,0,14.113,14.144A14.144,14.144,0,0,0,1332.535,183.593Z" transform="translate(21.49 -4.139)" fill="#32293a"/>
    <g id="Grupo_957340" data-name="Grupo 957340" transform="translate(1348.559 181.078)">
      <path id="Trazado_657290" data-name="Trazado 657290" d="M1333.189,202.516l-5.482-5.494a.647.647,0,1,1,.913-.917l4.569,4.579,15.11-15.146a.648.648,0,0,1,.917.916Z" transform="translate(-1327.517 -185.348)" fill="#32293a"/>
    </g>
    <g id="Grupo_957341" data-name="Grupo 957341" transform="translate(1296.793 105.487)">
      <path id="Trazado_657291" data-name="Trazado 657291" d="M1286.331,118.184a5.916,5.916,0,1,1,2.079-.381A5.883,5.883,0,0,1,1286.331,118.184Zm0-10.536a4.618,4.618,0,1,0,1.627,8.941h0a4.619,4.619,0,0,0-1.627-8.941Z" transform="translate(-1280.43 -106.352)" fill="#32293a"/>
    </g>
    <g id="Grupo_957342" data-name="Grupo 957342" transform="translate(1330.257 398.278)">
      <path id="Trazado_657292" data-name="Trazado 657292" d="M1316.809,429.217a8.439,8.439,0,1,1,2.965-.544h0A8.388,8.388,0,0,1,1316.809,429.217Zm2.739-1.151h0Zm-2.73-14.434a7.141,7.141,0,1,0,2.5,13.827h0a7.144,7.144,0,0,0-2.5-13.827Z" transform="translate(-1308.391 -412.335)" fill="#32293a"/>
    </g>
    <g id="Grupo_957343" data-name="Grupo 957343" transform="translate(995.498 246.838)">
      <path id="Trazado_657293" data-name="Trazado 657293" d="M1000.87,263.514a4.721,4.721,0,0,1-1.661-9.137,4.7,4.7,0,0,1,6.062,2.758,4.727,4.727,0,0,1-2.749,6.078h0A4.679,4.679,0,0,1,1000.87,263.514Zm1.424-.908h0Zm-1.428-7.236a3.425,3.425,0,0,0-3.2,4.629,3.416,3.416,0,1,0,3.2-4.629Z" transform="translate(-996.152 -254.072)" fill="#32293a"/>
    </g>
    <g id="Grupo_957344" data-name="Grupo 957344" transform="translate(1280.481 88.791)">
      <path id="Trazado_657294" data-name="Trazado 657294" d="M1268.906,96.116a3.6,3.6,0,1,1,1.263-.23h0A3.567,3.567,0,0,1,1268.906,96.116Zm0-5.916a2.278,2.278,0,0,0-.809.148,2.309,2.309,0,0,0,1.619,4.324h0a2.311,2.311,0,0,0-.812-4.472Z" transform="translate(-1265.304 -88.904)" fill="#32293a"/>
    </g>
  </g>
</svg>
