<svg xmlns="http://www.w3.org/2000/svg" xmlns:xlink="http://www.w3.org/1999/xlink" width="190" height="115" viewBox="0 0 190 115">
  <defs>
    <clipPath id="clip-path">
      <rect id="Rectángulo_45475" data-name="Rectángulo 45475" width="190" height="115" transform="translate(1020 9470)" fill="#2ff980"/>
    </clipPath>
  </defs>
  <g id="Enmascarar_grupo_150" data-name="Enmascarar grupo 150" transform="translate(-1020 -9470)" clip-path="url(#clip-path)">
    <g id="Grupo_957659" data-name="Grupo 957659" transform="translate(1646.853 15760)">
      <g id="Grupo_957659-2" data-name="Grupo 957659" transform="translate(-589.517 -6283.599)">
        <path id="Trazado_657955" data-name="Trazado 657955" d="M29.964,61.669h71.3V53.113a5.721,5.721,0,0,0-5.7-5.7H44.224L40.8,40.72C39.194,37.572,36.916,36,33.28,36H15.7A5.721,5.721,0,0,0,10,41.7v72.6a5.721,5.721,0,0,0,5.7,5.7h2.852a5.72,5.72,0,0,0,5.7-5.7V67.373A5.721,5.721,0,0,1,29.964,61.669Z" transform="translate(-10 -36.001)" fill="#ffda8f" fill-rule="evenodd"/>
        <path id="Trazado_657956" data-name="Trazado 657956" d="M129.374,146h-71.3a5.721,5.721,0,0,0-5.7,5.7v46.928a5.721,5.721,0,0,1-5.7,5.7h88.411a5.721,5.721,0,0,0,5.7-5.7V151.7a5.721,5.721,0,0,0-5.7-5.7Z" transform="translate(-38.111 -120.332)" fill="#ffc144" fill-rule="evenodd"/>
        <circle id="Elipse_5676" data-name="Elipse 5676" cx="28.001" cy="28.001" r="28.001" transform="translate(58.803 46.669)" fill="#ff5d7d"/>
        <path id="Trazado_657957" data-name="Trazado 657957" d="M357.936,318.735a9.334,9.334,0,1,0,2.734,6.6A9.3,9.3,0,0,0,357.936,318.735Z" transform="translate(-264.531 -250.665)" fill="#8690af" fill-rule="evenodd"/>
        <path id="Trazado_657958" data-name="Trazado 657958" d="M312.9,321.5a9.334,9.334,0,1,1,2.734,6.6,9.334,9.334,0,0,1-2.734-6.6Zm17.978-8.644a21.02,21.02,0,0,0-26.835,8.644,21.007,21.007,0,0,0,36.381,0A21.091,21.091,0,0,0,330.881,312.857Z" transform="translate(-235.432 -246.832)" fill="#fff" fill-rule="evenodd"/>
      </g>
      <path id="Trazado_657959" data-name="Trazado 657959" d="M62.382,114.672H8.037A8.047,8.047,0,0,1,0,106.634v-72.6A8.046,8.046,0,0,1,8.037,26H25.613c4.4,0,7.54,1.959,9.6,5.99l2.77,5.417H87.892a8.047,8.047,0,0,1,8.038,8.037v7.389a2.333,2.333,0,0,1-4.667,0V45.446a3.374,3.374,0,0,0-3.371-3.37H36.557A2.333,2.333,0,0,1,34.48,40.8l-3.42-6.688c-1.269-2.482-2.8-3.448-5.446-3.448H8.037a3.374,3.374,0,0,0-3.37,3.37v72.6A3.374,3.374,0,0,0,8.037,110h7.429c-.894-.486-1.306-1.454-1.225-2.886.008-.149.019-.316.019-.485V59.706A8.046,8.046,0,0,1,22.3,51.669h28a2.333,2.333,0,0,1,1.982,3.566C39.931,75.1,32.085,87.9,27.108,96.016c-5.848,9.54-7.936,12.946-9.232,13.989H62.382a2.333,2.333,0,1,1,0,4.667ZM22.3,56.336a3.374,3.374,0,0,0-3.37,3.37V100.42c1.129-1.829,2.522-4.1,4.2-6.843C27.805,85.948,35.011,74.193,46.1,56.336ZM105,81.784a2.334,2.334,0,0,1-2.275-1.823l-5.7-25.449A2.333,2.333,0,0,1,99.3,51.669a8.047,8.047,0,0,1,8.037,8.038V79.451A2.335,2.335,0,0,1,105,81.784Z" transform="translate(-591.851 -6311.934)"/>
      <path id="Elipse_5677" data-name="Elipse 5677" d="M30.335,0A30.335,30.335,0,1,1,0,30.335,30.369,30.369,0,0,1,30.335,0Zm0,56A25.668,25.668,0,1,0,4.667,30.335,25.7,25.7,0,0,0,30.335,56Z" transform="matrix(-0.017, -1, 1, -0.017, -532.514, -6178.07)"/>
      <path id="Línea_260" data-name="Línea 260" transform="translate(-531.051 -6257.932)"/>
      <path id="Trazado_657960" data-name="Trazado 657960" d="M314.57,301a23.421,23.421,0,0,1,20.21,11.665,2.333,2.333,0,0,1,0,2.337,23.34,23.34,0,0,1-40.421,0,2.333,2.333,0,0,1,0-2.337A23.421,23.421,0,0,1,314.57,301Zm15.436,12.834a18.67,18.67,0,0,0-30.871,0,18.67,18.67,0,0,0,30.871,0Z" transform="translate(-817.283 -6522.764)"/>
      <path id="Elipse_5678" data-name="Elipse 5678" d="M11.667,0A11.667,11.667,0,1,1,0,11.667,11.68,11.68,0,0,1,11.667,0Zm0,18.668a7,7,0,1,0-7-7A7.008,7.008,0,0,0,11.667,18.668Z" transform="translate(-519.214 -6208.929) rotate(-45)"/>
      <path id="Línea_261" data-name="Línea 261" d="M-7.667,20.335a2.326,2.326,0,0,1-1.65-.683,2.333,2.333,0,0,1,0-3.3L16.352-9.317a2.333,2.333,0,0,1,3.3,0,2.333,2.333,0,0,1,0,3.3L-6.017,19.651A2.326,2.326,0,0,1-7.667,20.335Z" transform="translate(-507.88 -6214.097)"/>
    </g>
  </g>
</svg>
