<svg xmlns="http://www.w3.org/2000/svg" width="295" height="266" viewBox="0 0 295 266">
  <g id="Grupo_957045" data-name="Grupo 957045" transform="translate(-1125 -33344)">
    <g id="Grupo_957044" data-name="Grupo 957044" transform="translate(-232.774 33391.105)">
      <path id="Trazado_656716" data-name="Trazado 656716" d="M1396.265,139.192c3.278-21.246,39.829-25.517,33.118-63.958C1424.332,46.3,1464.215-6.173,1491.8-.859c20.959,4.038,10.626,27.01,25.676,33.946,9.369,4.318,13.639-7.888,25.992-3.351,14.539,5.34,8.519,35.843,33.881,49.95,23.327,12.975,40.953,8.248,47.156,25.1,7.013,19.053-13.944,23.64-10.447,36.66,4.341,16.156,19.961,14.646,16.674,33.034-6.517,36.463-75.341,49.324-118.1,49.324S1390.159,178.758,1396.265,139.192Z" transform="translate(-5.34 -18.249)" fill="#e6e1fb"/>
      <g id="Grupo_956978" data-name="Grupo 956978" transform="translate(1561.826 -11.309)">
        <rect id="Rectángulo_45399" data-name="Rectángulo 45399" width="33.136" height="33.209" rx="15.157" transform="translate(0.407 0.408)" fill="#fffdf7"/>
        <path id="Trazado_656717" data-name="Trazado 656717" d="M1704.714,46.365h-14.9a9.545,9.545,0,0,1-9.524-9.545V21.885a9.545,9.545,0,0,1,9.524-9.545h14.9a9.546,9.546,0,0,1,9.525,9.545V36.82A9.546,9.546,0,0,1,1704.714,46.365Zm-14.9-33.209a8.729,8.729,0,0,0-8.709,8.729V36.82a8.729,8.729,0,0,0,8.709,8.729h14.9a8.73,8.73,0,0,0,8.711-8.729V21.885a8.73,8.73,0,0,0-8.711-8.729Z" transform="translate(-1680.288 -12.34)" fill="#32293a"/>
      </g>
      <path id="Trazado_656718" data-name="Trazado 656718" d="M1640.5,82.142c-2.54-3.26-.03-8.3,4.726-9s9.32,3.328,10.481,7.7c3.309-.836,6.258,4.168,5,7.011,2.638,5.452-5.563,9.75-5.563,9.75s-7.876-1.041-7.926-1.242S1640.5,82.142,1640.5,82.142Z" transform="translate(-102.233 -47.804)" fill="#32293a"/>
      <g id="Grupo_957001" data-name="Grupo 957001" transform="translate(1390.448 -9.476)">
        <g id="Grupo_956979" data-name="Grupo 956979" transform="translate(11.24)">
          <path id="Trazado_656719" data-name="Trazado 656719" d="M1482.971,19.924,1480.144,48.7a57.8,57.8,0,0,1-24.356,40.357l-4.9,3.407a3.425,3.425,0,0,1-3.918-.006l-4.854-3.4A57.8,57.8,0,0,1,1417.9,48.807l-2.841-28.882a3.435,3.435,0,0,1,3.4-3.861c3.468,0,56.619.185,61.1,0A3.4,3.4,0,0,1,1482.971,19.924Z" transform="translate(-1414.628 -15.653)" fill="#583ae2"/>
          <path id="Trazado_656720" data-name="Trazado 656720" d="M1448.663,93.213a3.829,3.829,0,0,1-2.2-.689l-4.854-3.4a58.3,58.3,0,0,1-24.383-40.539L1414.388,19.7a3.842,3.842,0,0,1,3.809-4.309c.619,0,2.818.006,6.041.014,15.372.041,51.369.138,55.044-.014a3.644,3.644,0,0,1,2.822,1.19,3.906,3.906,0,0,1,1,3.124l-2.827,28.773a58.283,58.283,0,0,1-24.529,40.651l-4.9,3.407A3.826,3.826,0,0,1,1448.663,93.213ZM1418.2,16.2a3.027,3.027,0,0,0-3,3.4l2.842,28.893a57.476,57.476,0,0,0,24.04,39.962l4.854,3.4a3.032,3.032,0,0,0,3.454,0l4.9-3.407a57.466,57.466,0,0,0,24.184-40.071L1482.3,19.6a3.1,3.1,0,0,0-.793-2.476,2.788,2.788,0,0,0-2.191-.927c-3.693.152-39.7.056-55.08.015C1421.014,16.208,1418.816,16.2,1418.2,16.2Z" transform="translate(-1414.359 -15.384)" fill="#32293a"/>
        </g>
        <g id="Grupo_956980" data-name="Grupo 956980" transform="translate(0 24.207)">
          <rect id="Rectángulo_45400" data-name="Rectángulo 45400" width="90.444" height="19.876" rx="9.938" transform="translate(0.407 0.408)" fill="#342287"/>
          <path id="Trazado_656721" data-name="Trazado 656721" d="M1476.627,76.277h-70.611a10.346,10.346,0,0,1,0-20.693h70.611a10.346,10.346,0,0,1,0,20.693ZM1406.016,56.4a9.53,9.53,0,0,0,0,19.06h70.611a9.53,9.53,0,0,0,0-19.06Z" transform="translate(-1395.693 -55.584)" fill="#32293a"/>
        </g>
        <g id="Grupo_957000" data-name="Grupo 957000" transform="translate(6.725 32.003)">
          <g id="Grupo_956981" data-name="Grupo 956981" transform="translate(0.355 0.355)">
            <path id="Trazado_656722" data-name="Trazado 656722" d="M1407.449,71.44a2.316,2.316,0,1,1,2.316,2.321A2.319,2.319,0,0,1,1407.449,71.44Z" transform="translate(-1407.449 -69.119)" fill="#fffdf7"/>
            <path id="Trazado_656723" data-name="Trazado 656723" d="M1424.617,71.44a2.316,2.316,0,1,1,2.316,2.321A2.319,2.319,0,0,1,1424.617,71.44Z" transform="translate(-1414.279 -69.119)" fill="#fffdf7"/>
            <path id="Trazado_656724" data-name="Trazado 656724" d="M1441.785,71.44a2.316,2.316,0,1,1,2.317,2.321A2.319,2.319,0,0,1,1441.785,71.44Z" transform="translate(-1421.109 -69.119)" fill="#fffdf7"/>
            <path id="Trazado_656725" data-name="Trazado 656725" d="M1458.953,71.44a2.316,2.316,0,1,1,2.317,2.321A2.319,2.319,0,0,1,1458.953,71.44Z" transform="translate(-1427.938 -69.119)" fill="#fffdf7"/>
            <path id="Trazado_656726" data-name="Trazado 656726" d="M1476.121,71.44a2.316,2.316,0,1,1,2.317,2.321A2.319,2.319,0,0,1,1476.121,71.44Z" transform="translate(-1434.768 -69.119)" fill="#fffdf7"/>
            <path id="Trazado_656727" data-name="Trazado 656727" d="M1493.29,71.44a2.316,2.316,0,1,1,2.316,2.321A2.319,2.319,0,0,1,1493.29,71.44Z" transform="translate(-1441.598 -69.119)" fill="#fffdf7"/>
            <path id="Trazado_656728" data-name="Trazado 656728" d="M1510.458,71.44a2.316,2.316,0,1,1,2.316,2.321A2.319,2.319,0,0,1,1510.458,71.44Z" transform="translate(-1448.428 -69.119)" fill="#fffdf7"/>
            <ellipse id="Elipse_5660" data-name="Elipse 5660" cx="2.316" cy="2.321" rx="2.316" ry="2.321" transform="translate(72.368 0)" fill="#fffdf7"/>
          </g>
          <g id="Grupo_956990" data-name="Grupo 956990" transform="translate(0 0)">
            <g id="Grupo_956982" data-name="Grupo 956982">
              <path id="Trazado_656729" data-name="Trazado 656729" d="M1407.449,71.44a2.316,2.316,0,1,1,2.316,2.321A2.319,2.319,0,0,1,1407.449,71.44Z" transform="translate(-1407.094 -68.764)" fill="#fffdf7"/>
              <path id="Trazado_656730" data-name="Trazado 656730" d="M1409.531,73.882a2.677,2.677,0,1,1,2.67-2.677A2.676,2.676,0,0,1,1409.531,73.882Zm0-4.643a1.966,1.966,0,1,0,1.962,1.966A1.966,1.966,0,0,0,1409.531,69.24Z" transform="translate(-1406.86 -68.529)" fill="#32293a"/>
            </g>
            <g id="Grupo_956983" data-name="Grupo 956983" transform="translate(10.339)">
              <path id="Trazado_656731" data-name="Trazado 656731" d="M1424.617,71.44a2.316,2.316,0,1,1,2.316,2.321A2.319,2.319,0,0,1,1424.617,71.44Z" transform="translate(-1424.264 -68.764)" fill="#fffdf7"/>
              <path id="Trazado_656732" data-name="Trazado 656732" d="M1426.7,73.882a2.677,2.677,0,1,1,2.671-2.677A2.676,2.676,0,0,1,1426.7,73.882Zm0-4.643a1.966,1.966,0,1,0,1.963,1.966A1.966,1.966,0,0,0,1426.7,69.24Z" transform="translate(-1424.03 -68.529)" fill="#32293a"/>
            </g>
            <g id="Grupo_956984" data-name="Grupo 956984" transform="translate(20.677)">
              <path id="Trazado_656733" data-name="Trazado 656733" d="M1441.785,71.44a2.316,2.316,0,1,1,2.317,2.321A2.319,2.319,0,0,1,1441.785,71.44Z" transform="translate(-1441.431 -68.764)" fill="#fffdf7"/>
              <path id="Trazado_656734" data-name="Trazado 656734" d="M1443.867,73.882a2.677,2.677,0,1,1,2.67-2.677A2.676,2.676,0,0,1,1443.867,73.882Zm0-4.643a1.966,1.966,0,1,0,1.962,1.966A1.966,1.966,0,0,0,1443.867,69.24Z" transform="translate(-1441.197 -68.529)" fill="#32293a"/>
            </g>
            <g id="Grupo_956985" data-name="Grupo 956985" transform="translate(31.015)">
              <path id="Trazado_656735" data-name="Trazado 656735" d="M1458.953,71.44a2.316,2.316,0,1,1,2.317,2.321A2.319,2.319,0,0,1,1458.953,71.44Z" transform="translate(-1458.599 -68.764)" fill="#fffdf7"/>
              <path id="Trazado_656736" data-name="Trazado 656736" d="M1461.036,73.882a2.677,2.677,0,1,1,2.67-2.677A2.677,2.677,0,0,1,1461.036,73.882Zm0-4.643A1.966,1.966,0,1,0,1463,71.206,1.966,1.966,0,0,0,1461.036,69.24Z" transform="translate(-1458.365 -68.529)" fill="#32293a"/>
            </g>
            <g id="Grupo_956986" data-name="Grupo 956986" transform="translate(41.353)">
              <path id="Trazado_656737" data-name="Trazado 656737" d="M1476.121,71.44a2.316,2.316,0,1,1,2.317,2.321A2.319,2.319,0,0,1,1476.121,71.44Z" transform="translate(-1475.767 -68.764)" fill="#fffdf7"/>
              <path id="Trazado_656738" data-name="Trazado 656738" d="M1478.2,73.882a2.677,2.677,0,1,1,2.67-2.677A2.676,2.676,0,0,1,1478.2,73.882Zm0-4.643a1.966,1.966,0,1,0,1.962,1.966A1.966,1.966,0,0,0,1478.2,69.24Z" transform="translate(-1475.533 -68.529)" fill="#32293a"/>
            </g>
            <g id="Grupo_956987" data-name="Grupo 956987" transform="translate(51.692)">
              <path id="Trazado_656739" data-name="Trazado 656739" d="M1493.29,71.44a2.316,2.316,0,1,1,2.316,2.321A2.319,2.319,0,0,1,1493.29,71.44Z" transform="translate(-1492.936 -68.764)" fill="#fffdf7"/>
              <path id="Trazado_656740" data-name="Trazado 656740" d="M1495.372,73.882a2.677,2.677,0,1,1,2.671-2.677A2.676,2.676,0,0,1,1495.372,73.882Zm0-4.643a1.966,1.966,0,1,0,1.963,1.966A1.966,1.966,0,0,0,1495.372,69.24Z" transform="translate(-1492.702 -68.529)" fill="#32293a"/>
            </g>
            <g id="Grupo_956988" data-name="Grupo 956988" transform="translate(62.031)">
              <path id="Trazado_656741" data-name="Trazado 656741" d="M1510.458,71.44a2.316,2.316,0,1,1,2.316,2.321A2.319,2.319,0,0,1,1510.458,71.44Z" transform="translate(-1510.104 -68.764)" fill="#fffdf7"/>
              <path id="Trazado_656742" data-name="Trazado 656742" d="M1512.539,73.882a2.677,2.677,0,1,1,2.671-2.677A2.676,2.676,0,0,1,1512.539,73.882Zm0-4.643a1.966,1.966,0,1,0,1.963,1.966A1.966,1.966,0,0,0,1512.539,69.24Z" transform="translate(-1509.87 -68.529)" fill="#32293a"/>
            </g>
            <g id="Grupo_956989" data-name="Grupo 956989" transform="translate(72.368)">
              <ellipse id="Elipse_5661" data-name="Elipse 5661" cx="2.316" cy="2.321" rx="2.316" ry="2.321" transform="translate(0.355 0.355)" fill="#fffdf7"/>
              <path id="Trazado_656743" data-name="Trazado 656743" d="M1529.708,73.882a2.677,2.677,0,1,1,2.67-2.677A2.677,2.677,0,0,1,1529.708,73.882Zm0-4.643a1.966,1.966,0,1,0,1.961,1.966A1.966,1.966,0,0,0,1529.708,69.24Z" transform="translate(-1527.037 -68.529)" fill="#32293a"/>
            </g>
          </g>
          <g id="Grupo_956999" data-name="Grupo 956999" transform="translate(0 0)">
            <g id="Grupo_956991" data-name="Grupo 956991">
              <path id="Trazado_656744" data-name="Trazado 656744" d="M1407.449,71.44a2.316,2.316,0,1,1,2.316,2.321A2.319,2.319,0,0,1,1407.449,71.44Z" transform="translate(-1407.094 -68.764)" fill="#fffdf7"/>
              <path id="Trazado_656745" data-name="Trazado 656745" d="M1409.531,73.882a2.677,2.677,0,1,1,2.67-2.677A2.676,2.676,0,0,1,1409.531,73.882Zm0-4.643a1.966,1.966,0,1,0,1.962,1.966A1.966,1.966,0,0,0,1409.531,69.24Z" transform="translate(-1406.86 -68.529)" fill="#32293a"/>
            </g>
            <g id="Grupo_956992" data-name="Grupo 956992" transform="translate(10.339)">
              <path id="Trazado_656746" data-name="Trazado 656746" d="M1424.617,71.44a2.316,2.316,0,1,1,2.316,2.321A2.319,2.319,0,0,1,1424.617,71.44Z" transform="translate(-1424.264 -68.764)" fill="#fffdf7"/>
              <path id="Trazado_656747" data-name="Trazado 656747" d="M1426.7,73.882a2.677,2.677,0,1,1,2.671-2.677A2.676,2.676,0,0,1,1426.7,73.882Zm0-4.643a1.966,1.966,0,1,0,1.963,1.966A1.966,1.966,0,0,0,1426.7,69.24Z" transform="translate(-1424.03 -68.529)" fill="#32293a"/>
            </g>
            <g id="Grupo_956993" data-name="Grupo 956993" transform="translate(20.677)">
              <path id="Trazado_656748" data-name="Trazado 656748" d="M1441.785,71.44a2.316,2.316,0,1,1,2.317,2.321A2.319,2.319,0,0,1,1441.785,71.44Z" transform="translate(-1441.431 -68.764)" fill="#fffdf7"/>
              <path id="Trazado_656749" data-name="Trazado 656749" d="M1443.867,73.882a2.677,2.677,0,1,1,2.67-2.677A2.676,2.676,0,0,1,1443.867,73.882Zm0-4.643a1.966,1.966,0,1,0,1.962,1.966A1.966,1.966,0,0,0,1443.867,69.24Z" transform="translate(-1441.197 -68.529)" fill="#32293a"/>
            </g>
            <g id="Grupo_956994" data-name="Grupo 956994" transform="translate(31.015)">
              <path id="Trazado_656750" data-name="Trazado 656750" d="M1458.953,71.44a2.316,2.316,0,1,1,2.317,2.321A2.319,2.319,0,0,1,1458.953,71.44Z" transform="translate(-1458.599 -68.764)" fill="#fffdf7"/>
              <path id="Trazado_656751" data-name="Trazado 656751" d="M1461.036,73.882a2.677,2.677,0,1,1,2.67-2.677A2.677,2.677,0,0,1,1461.036,73.882Zm0-4.643A1.966,1.966,0,1,0,1463,71.206,1.966,1.966,0,0,0,1461.036,69.24Z" transform="translate(-1458.365 -68.529)" fill="#32293a"/>
            </g>
            <g id="Grupo_956995" data-name="Grupo 956995" transform="translate(41.353)">
              <path id="Trazado_656752" data-name="Trazado 656752" d="M1476.121,71.44a2.316,2.316,0,1,1,2.317,2.321A2.319,2.319,0,0,1,1476.121,71.44Z" transform="translate(-1475.767 -68.764)" fill="#fffdf7"/>
              <path id="Trazado_656753" data-name="Trazado 656753" d="M1478.2,73.882a2.677,2.677,0,1,1,2.67-2.677A2.676,2.676,0,0,1,1478.2,73.882Zm0-4.643a1.966,1.966,0,1,0,1.962,1.966A1.966,1.966,0,0,0,1478.2,69.24Z" transform="translate(-1475.533 -68.529)" fill="#32293a"/>
            </g>
            <g id="Grupo_956996" data-name="Grupo 956996" transform="translate(51.692)">
              <path id="Trazado_656754" data-name="Trazado 656754" d="M1493.29,71.44a2.316,2.316,0,1,1,2.316,2.321A2.319,2.319,0,0,1,1493.29,71.44Z" transform="translate(-1492.936 -68.764)" fill="#fffdf7"/>
              <path id="Trazado_656755" data-name="Trazado 656755" d="M1495.372,73.882a2.677,2.677,0,1,1,2.671-2.677A2.676,2.676,0,0,1,1495.372,73.882Zm0-4.643a1.966,1.966,0,1,0,1.963,1.966A1.966,1.966,0,0,0,1495.372,69.24Z" transform="translate(-1492.702 -68.529)" fill="#32293a"/>
            </g>
            <g id="Grupo_956997" data-name="Grupo 956997" transform="translate(62.031)">
              <path id="Trazado_656756" data-name="Trazado 656756" d="M1510.458,71.44a2.316,2.316,0,1,1,2.316,2.321A2.319,2.319,0,0,1,1510.458,71.44Z" transform="translate(-1510.104 -68.764)" fill="#fffdf7"/>
              <path id="Trazado_656757" data-name="Trazado 656757" d="M1512.539,73.882a2.677,2.677,0,1,1,2.671-2.677A2.676,2.676,0,0,1,1512.539,73.882Zm0-4.643a1.966,1.966,0,1,0,1.963,1.966A1.966,1.966,0,0,0,1512.539,69.24Z" transform="translate(-1509.87 -68.529)" fill="#32293a"/>
            </g>
            <g id="Grupo_956998" data-name="Grupo 956998" transform="translate(72.368)">
              <ellipse id="Elipse_5662" data-name="Elipse 5662" cx="2.316" cy="2.321" rx="2.316" ry="2.321" transform="translate(0.355 0.355)" fill="#fffdf7"/>
              <path id="Trazado_656758" data-name="Trazado 656758" d="M1529.708,73.882a2.677,2.677,0,1,1,2.67-2.677A2.677,2.677,0,0,1,1529.708,73.882Zm0-4.643a1.966,1.966,0,1,0,1.961,1.966A1.966,1.966,0,0,0,1529.708,69.24Z" transform="translate(-1527.037 -68.529)" fill="#32293a"/>
            </g>
          </g>
        </g>
      </g>
      <g id="Grupo_957002" data-name="Grupo 957002" transform="translate(1492.393 151.904)">
        <rect id="Rectángulo_45401" data-name="Rectángulo 45401" width="123.083" height="66.169" rx="6" transform="translate(0.407 0.408)" fill="#e3f5f8"/>
        <path id="Trazado_656759" data-name="Trazado 656759" d="M1679.893,350.363H1573.977a9.011,9.011,0,0,1-8.991-9.01V292.387a9.011,9.011,0,0,1,8.991-9.009h105.917a9.01,9.01,0,0,1,8.99,9.009v48.966A9.011,9.011,0,0,1,1679.893,350.363Zm-105.917-66.169a8.194,8.194,0,0,0-8.176,8.193v48.966a8.194,8.194,0,0,0,8.176,8.194h105.917a8.194,8.194,0,0,0,8.176-8.194V292.387a8.194,8.194,0,0,0-8.176-8.193Z" transform="translate(-1564.986 -283.378)" fill="#32293a"/>
      </g>
      <g id="Grupo_957009" data-name="Grupo 957009" transform="translate(1382.509 137.398)">
        <path id="Trazado_656760" data-name="Trazado 656760" d="M1440.183,273.974l12.327,11.46,9.79-10.576-12.327-11.46Z" transform="translate(-1405.453 -260.923)" fill="#f4c7a8"/>
        <path id="Trazado_656761" data-name="Trazado 656761" d="M1436.809,283.437l.812-.878a2.371,2.371,0,0,0-.125-3.346l-.576-.536a2.359,2.359,0,0,0-2.425-.485l-2.312.856a2.36,2.36,0,0,1-2.425-.485l-4.984-4.634a2.371,2.371,0,0,1-.738-2.033l.811-6.419a2.37,2.37,0,0,0-.737-2.033h0a2.905,2.905,0,0,0-1.791-.624c-8.2-.756-16.732-1.9-24.759-3.288a5.615,5.615,0,0,0-3.746.156l-4.645,2.524,36.055,33.519Z" transform="translate(-1385.159 -259.288)" fill="#583ae2"/>
        <g id="Grupo_957003" data-name="Grupo 957003" transform="translate(0 2.516)">
          <path id="Trazado_656762" data-name="Trazado 656762" d="M1418.26,301.743a1.916,1.916,0,0,1-1.31-.514l-33.826-31.448a1.937,1.937,0,0,1-.1-2.728l3.2-3.457a.407.407,0,0,1,.6.555l-3.2,3.458a1.117,1.117,0,0,0,.06,1.576l33.824,31.447a1.115,1.115,0,0,0,1.574-.059l3.2-3.458a.408.408,0,0,1,.6.555l-3.2,3.457A1.919,1.919,0,0,1,1418.26,301.743Z" transform="translate(-1382.509 -263.466)" fill="#32293a"/>
        </g>
        <g id="Grupo_957004" data-name="Grupo 957004" transform="translate(32.72 26.922)">
          <path id="Trazado_656763" data-name="Trazado 656763" d="M1437.044,307.175l-.2-.791,8.939-2.244a4.748,4.748,0,0,1,4.4,1.133l.989.919-.553.6-.989-.92a3.942,3.942,0,0,0-3.651-.939Z" transform="translate(-1436.846 -303.995)" fill="#32293a"/>
        </g>
        <g id="Grupo_957005" data-name="Grupo 957005" transform="translate(16.726 1.066)">
          <path id="Trazado_656764" data-name="Trazado 656764" d="M1424.13,270.363a2.434,2.434,0,0,1-.41-.035l-11.441-1.953a2.4,2.4,0,0,1-1.958-2.781l.791-4.537.8.14-.79,4.537a1.585,1.585,0,0,0,1.293,1.837l11.441,1.953a1.583,1.583,0,0,0,1.837-1.381l.6-5.138.809.094-.595,5.138a2.4,2.4,0,0,1-2.373,2.126Z" transform="translate(-1410.285 -261.058)" fill="#32293a"/>
        </g>
        <g id="Grupo_957006" data-name="Grupo 957006" transform="translate(27.978 2.343)">
          <path id="Trazado_656765" data-name="Trazado 656765" d="M1430.542,263.856l-.9,6.574Z" transform="translate(-1429.24 -263.448)" fill="#ffcc38"/>
          <path id="Trazado_656766" data-name="Trazado 656766" d="M1429.379,270.569a.423.423,0,0,1-.055,0,.408.408,0,0,1-.349-.459l.9-6.573a.407.407,0,1,1,.807.11l-.9,6.573A.408.408,0,0,1,1429.379,270.569Z" transform="translate(-1428.971 -263.178)" fill="#32293a"/>
        </g>
        <g id="Grupo_957007" data-name="Grupo 957007" transform="translate(24.285 1.842)">
          <path id="Trazado_656767" data-name="Trazado 656767" d="M1424.41,263.025l-.9,6.574Z" transform="translate(-1423.107 -262.616)" fill="#ffcc38"/>
          <path id="Trazado_656768" data-name="Trazado 656768" d="M1423.246,269.737a.349.349,0,0,1-.056,0,.407.407,0,0,1-.348-.459l.894-6.574a.407.407,0,1,1,.807.11l-.894,6.574A.408.408,0,0,1,1423.246,269.737Z" transform="translate(-1422.839 -262.346)" fill="#32293a"/>
        </g>
        <g id="Grupo_957008" data-name="Grupo 957008" transform="translate(20.638 1.207)">
          <path id="Trazado_656769" data-name="Trazado 656769" d="M1418.354,261.97l-.9,6.574Z" transform="translate(-1417.051 -261.562)" fill="#ffcc38"/>
          <path id="Trazado_656770" data-name="Trazado 656770" d="M1417.19,268.682a.345.345,0,0,1-.056,0,.408.408,0,0,1-.349-.459l.9-6.573a.411.411,0,0,1,.459-.349.407.407,0,0,1,.348.459l-.9,6.574A.409.409,0,0,1,1417.19,268.682Z" transform="translate(-1416.782 -261.292)" fill="#32293a"/>
        </g>
      </g>
      <g id="Grupo_957016" data-name="Grupo 957016" transform="translate(1419.795 184.31)">
        <path id="Trazado_656771" data-name="Trazado 656771" d="M1491.138,351.618h16.814l2.958-14.426H1494.1Z" transform="translate(-1463.01 -337.192)" fill="#f4c7a8"/>
        <path id="Trazado_656772" data-name="Trazado 656772" d="M1494.432,351.542v-1.2a2.365,2.365,0,0,0-2.363-2.368h-.785a2.363,2.363,0,0,0-2.108,1.3l-1.114,2.2a2.362,2.362,0,0,1-2.107,1.3h-6.8a2.363,2.363,0,0,1-1.92-.989l-3.761-5.258a2.36,2.36,0,0,0-1.92-.989h0a2.909,2.909,0,0,0-1.737.762c-6.522,5.033-13.555,10.013-20.383,14.465a5.638,5.638,0,0,0-2.641,2.668l-1.692,5.017h49.179Z" transform="translate(-1444.697 -340.513)" fill="#583ae2"/>
        <g id="Grupo_957010" data-name="Grupo 957010" transform="translate(0 27.53)">
          <path id="Trazado_656773" data-name="Trazado 656773" d="M1492.494,389.964h-46.139a1.931,1.931,0,0,1-1.927-1.931v-4.716a.407.407,0,1,1,.814,0v4.716a1.115,1.115,0,0,0,1.113,1.115h46.139a1.115,1.115,0,0,0,1.113-1.115v-4.716a.407.407,0,1,1,.814,0v4.716A1.931,1.931,0,0,1,1492.494,389.964Z" transform="translate(-1444.428 -382.909)" fill="#32293a"/>
        </g>
        <g id="Grupo_957011" data-name="Grupo 957011" transform="translate(39.36 17.808)">
          <path id="Trazado_656774" data-name="Trazado 656774" d="M1510.473,377.117l-.682-.446,5.031-7.737a4.75,4.75,0,0,1,4-2.17h1.349v.816h-1.349a3.939,3.939,0,0,0-3.314,1.8Z" transform="translate(-1509.791 -366.764)" fill="#32293a"/>
        </g>
        <g id="Grupo_957012" data-name="Grupo 957012" transform="translate(9.074 7.947)">
          <path id="Trazado_656775" data-name="Trazado 656775" d="M1464.012,364.75a2.456,2.456,0,0,1-.5-.052,2.379,2.379,0,0,1-1.514-1.044l-2.5-3.865.683-.444,2.5,3.865a1.583,1.583,0,0,0,2.2.465l9.712-6.366a1.59,1.59,0,0,0,.409-2.265l-3.051-4.172.657-.482,3.051,4.173a2.406,2.406,0,0,1-.622,3.429l-9.712,6.366A2.377,2.377,0,0,1,1464.012,364.75Z" transform="translate(-1459.497 -350.389)" fill="#32293a"/>
        </g>
        <g id="Grupo_957013" data-name="Grupo 957013" transform="translate(18.408 10.181)">
          <path id="Trazado_656776" data-name="Trazado 656776" d="M1475.673,354.776l3.8,5.43Z" transform="translate(-1475.266 -354.368)" fill="#ffcc38"/>
          <path id="Trazado_656777" data-name="Trazado 656777" d="M1479.209,360.345a.408.408,0,0,1-.334-.174l-3.805-5.43a.408.408,0,1,1,.667-.469l3.805,5.43a.408.408,0,0,1-.333.643Z" transform="translate(-1474.996 -354.099)" fill="#32293a"/>
        </g>
        <g id="Grupo_957014" data-name="Grupo 957014" transform="translate(15.361 12.331)">
          <path id="Trazado_656778" data-name="Trazado 656778" d="M1470.613,358.347l3.8,5.43Z" transform="translate(-1470.206 -357.939)" fill="#ffcc38"/>
          <path id="Trazado_656779" data-name="Trazado 656779" d="M1474.148,363.915a.4.4,0,0,1-.332-.173l-3.8-5.43a.407.407,0,1,1,.666-.469l3.8,5.43a.408.408,0,0,1-.1.568A.4.4,0,0,1,1474.148,363.915Z" transform="translate(-1469.937 -357.67)" fill="#32293a"/>
        </g>
        <g id="Grupo_957015" data-name="Grupo 957015" transform="translate(12.257 14.351)">
          <path id="Trazado_656780" data-name="Trazado 656780" d="M1465.457,361.7l3.8,5.43Z" transform="translate(-1465.05 -361.292)" fill="#ffcc38"/>
          <path id="Trazado_656781" data-name="Trazado 656781" d="M1468.993,367.268a.406.406,0,0,1-.333-.173l-3.8-5.43a.407.407,0,1,1,.666-.469l3.8,5.43a.408.408,0,0,1-.333.642Z" transform="translate(-1464.781 -361.023)" fill="#32293a"/>
        </g>
      </g>
      <path id="Trazado_656782" data-name="Trazado 656782" d="M1537.326,194.822l-3.614,11.024-28.2-14.41a18.772,18.772,0,0,0-22.764,3.512L1447.41,232.3a1.323,1.323,0,0,0,.084,1.9l18.17,16.075a1.316,1.316,0,0,0,1.89-.151l12.215-14.868-9.163,45.128a1.32,1.32,0,0,0,1.271,1.584l24.821.382a1.32,1.32,0,0,0,1.31-1.045l7.532-35.366,48.162.008a15.558,15.558,0,0,0,14.458-9.835l8-26.166Z" transform="translate(-25.675 -93.956)" fill="#32293a"/>
      <path id="Trazado_656783" data-name="Trazado 656783" d="M1673.233,200.023l20.533,39.054-8.99,8.258h13.111s1.9,12.722,2.533,16.624,5.22,4.12,5.223.591c0,1.923,1.6,3.533,3.008,3.1,1.1-.339,2.081-1.931,2.079-5.606-.117,2.6,5.1,2.081,4.575-2.5.346,1.985,3.989,1.976,4.071-1.951.047-2.241-.039-5.63-.11-7.842a7.15,7.15,0,0,0-1.369-3.982l-6.156-8.447-19.025-45.575Z" transform="translate(-115.656 -95.023)" fill="#f4c7a8"/>
      <g id="Grupo_957017" data-name="Grupo 957017" transform="translate(1564.239 112.173)">
        <path id="Trazado_656784" data-name="Trazado 656784" d="M1712.791,277.879a3.23,3.23,0,0,1-2.185-.832,2.928,2.928,0,0,1-.536-.654,2.47,2.47,0,0,1-1.98,1.259c-1.531.122-3.277-1.013-3.671-3.423-.571-3.5-2.173-14.212-2.482-16.282h-12.76a.408.408,0,0,1-.276-.709l8.76-8.046-13.318-25.33a.407.407,0,1,1,.719-.381l13.465,25.608a.409.409,0,0,1-.084.491l-8.22,7.549h12.064a.408.408,0,0,1,.4.348c.019.126,1.9,12.763,2.533,16.618.314,1.923,1.623,2.845,2.8,2.742.779-.063,1.611-.644,1.612-2.085a.408.408,0,0,1,.407-.408h0a.408.408,0,0,1,.407.408,2.229,2.229,0,0,0,.7,1.692,2.47,2.47,0,0,0,1.861.608,1.513,1.513,0,0,0,1.089-.554c.6-.724.817-2.181.622-4.214a.409.409,0,0,1,.364-.445.422.422,0,0,1,.446.363,1.521,1.521,0,0,0,.831,1.319,1.809,1.809,0,0,0,1.769-.307,3.584,3.584,0,0,0,1.165-3.417.407.407,0,0,1,.806-.117,1.2,1.2,0,0,0,1.359.961c.852-.064,1.863-.85,1.9-2.851.048-2.321-.049-5.9-.111-7.82a6.712,6.712,0,0,0-1.29-3.754l-6.157-8.447a.369.369,0,0,1-.046-.084l-12.407-29.723a.406.406,0,1,1,.75-.314l12.389,29.678,6.128,8.408a7.526,7.526,0,0,1,1.448,4.209c.062,1.932.159,5.523.111,7.864-.051,2.384-1.371,3.549-2.657,3.647a2.151,2.151,0,0,1-1.411-.364,3.922,3.922,0,0,1-1.5,2.781,2.617,2.617,0,0,1-2.579.4,2.108,2.108,0,0,1-.437-.258,4.929,4.929,0,0,1-.872,3.01,2.324,2.324,0,0,1-1.643.845C1712.987,277.875,1712.888,277.879,1712.791,277.879Z" transform="translate(-1684.296 -217.399)" fill="#32293a"/>
      </g>
      <path id="Trazado_656785" data-name="Trazado 656785" d="M1536.983,101.038l-37.9-14.012s-8.23-5.656-9.522-6.067-3.55.155-3.6,1.388c-2.394-1.545-4.809-.419-5.022.961-2.353-1.13-4.668.609-4.648,2.182,0,0-9.094-5.352-10.722-6.358s-5.226,1.208-3.281,3.216c2.8,2.9,14.967,12.147,14.967,12.147l-3.5,3.829s-1.722-2.23-3.756-2.1a5.206,5.206,0,0,0-2.2.611.85.85,0,0,0-.268,1.275c1.226,1.532,3.76,4.184,5.385,5.853a3.216,3.216,0,0,0,3.458.759l8.33-3.185,45.4,19.372Z" transform="translate(-31.512 -50.12)" fill="#f4c7a8"/>
      <g id="Grupo_957018" data-name="Grupo 957018" transform="translate(1429.801 28.346)">
        <path id="Trazado_656786" data-name="Trazado 656786" d="M1492.724,105.209a.405.405,0,0,1-.16-.033l-8.147-3.476-8.175,3.127a3.625,3.625,0,0,1-3.9-.856c-1.8-1.853-4.209-4.378-5.412-5.883a1.242,1.242,0,0,1-.248-1.019,1.274,1.274,0,0,1,.638-.868,5.613,5.613,0,0,1,2.374-.661,5.208,5.208,0,0,1,3.79,1.9l2.89-3.162c-2.061-1.574-12.1-9.277-14.656-11.917a2.012,2.012,0,0,1-.172-2.839c.872-1.09,2.75-1.755,3.958-1.008,1.381.854,8.25,4.9,10.2,6.05a3.18,3.18,0,0,1,1.36-1.694,3.831,3.831,0,0,1,3.342-.378,2.629,2.629,0,0,1,1.34-1.244,4.258,4.258,0,0,1,3.69.216,1.889,1.889,0,0,1,.613-.673,4.261,4.261,0,0,1,3.36-.491c1.292.411,8.563,5.388,9.587,6.091l15.432,5.705a.408.408,0,0,1-.281.765l-15.48-5.723a.447.447,0,0,1-.09-.046c-3.289-2.259-8.509-5.727-9.415-6.015a3.453,3.453,0,0,0-2.646.382.85.85,0,0,0-.427.635.407.407,0,0,1-.627.326,3.579,3.579,0,0,0-3.383-.428,1.632,1.632,0,0,0-1.017,1.109.407.407,0,0,1-.578.305,3.014,3.014,0,0,0-2.983.152,2.119,2.119,0,0,0-1.082,1.657.41.41,0,0,1-.2.358.405.405,0,0,1-.41,0c-.092-.054-9.117-5.366-10.73-6.363a2.577,2.577,0,0,0-2.9.825,1.2,1.2,0,0,0,.121,1.759c2.751,2.84,14.8,12.013,14.92,12.106a.4.4,0,0,1,.159.288.412.412,0,0,1-.1.313l-3.5,3.829a.4.4,0,0,1-.316.131.406.406,0,0,1-.306-.157c-.016-.021-1.609-2.07-3.408-1.945a4.808,4.808,0,0,0-2.034.561.463.463,0,0,0-.232.313.422.422,0,0,0,.086.35c1.245,1.557,3.892,4.316,5.359,5.823a2.813,2.813,0,0,0,3.021.664l8.329-3.186a.4.4,0,0,1,.3.006l8.3,3.54a.408.408,0,0,1-.159.783Z" transform="translate(-1461.044 -78.194)" fill="#32293a"/>
      </g>
      <path id="Trazado_656787" data-name="Trazado 656787" d="M1632.1,165.791l-4.931,14.956-38.831-15.122,6.351-22.428-19.42-7.653,6.888-19.868,51.025,15.951a16.233,16.233,0,0,1,9.652,8.2l10.912,21.666-19.483,8.271Z" transform="translate(-76.682 -64.758)" fill="#2ff980"/>
      <path id="Trazado_656788" data-name="Trazado 656788" d="M1648.812,118.968c-1.488,3.81-8.168,9.352-14.04,6.864s-6.839-7.341-5-12.958l2.913-.76a5.747,5.747,0,0,0,4.079-4l.543-1.922s-3.656-.161-3.46-5.438,2.452-12.609,2.452-12.609a16.691,16.691,0,0,0,8.715,2.866c-1.194,2.936.857,4.134,1.867,4.527-.6,2.262-.629,4.06,2.04,5.032,3.4-.959,4.451,1.23,4.152,3.034-.24,1.447-1.763,3.392-4.66,1.909l-1.637,6.19a5.763,5.763,0,0,0,.425,4.068Z" transform="translate(-98.031 -53.806)" fill="#f4c7a8"/>
      <g id="Grupo_957019" data-name="Grupo 957019" transform="translate(1513.849 69.655)">
        <path id="Trazado_656789" data-name="Trazado 656789" d="M1601.023,169.214a.39.39,0,0,1-.107-.014.409.409,0,0,1-.285-.5l5.9-21.606a.407.407,0,1,1,.785.216l-5.9,21.606A.407.407,0,0,1,1601.023,169.214Z" transform="translate(-1600.616 -146.793)" fill="#32293a"/>
      </g>
      <g id="Grupo_957020" data-name="Grupo 957020" transform="translate(1547.779 78.874)">
        <path id="Trazado_656790" data-name="Trazado 656790" d="M1666.76,188.635a.41.41,0,0,1-.354-.207l-9.391-16.542a.407.407,0,1,1,.708-.4l9.213,16.226,18.741-7.956-8.992-17.054a.407.407,0,1,1,.719-.382l9.2,17.448a.407.407,0,0,1-.2.566l-19.483,8.272A.407.407,0,0,1,1666.76,188.635Z" transform="translate(-1656.961 -162.1)" fill="#32293a"/>
      </g>
      <g id="Grupo_957021" data-name="Grupo 957021" transform="translate(1498.07 50.416)">
        <path id="Trazado_656791" data-name="Trazado 656791" d="M1594.346,143.274a.408.408,0,0,1-.149-.028l-19.783-7.8,7.144-20.605,12.752,3.8a.408.408,0,0,1-.233.782l-12.006-3.583-6.633,19.129,19.057,7.51a.408.408,0,0,1-.149.788Z" transform="translate(-1574.414 -114.843)" fill="#32293a"/>
      </g>
      <g id="Grupo_957022" data-name="Grupo 957022" transform="translate(1453.775 31.664)">
        <path id="Trazado_656792" data-name="Trazado 656792" d="M1507.1,88.371a.411.411,0,0,1-.224-.067l-5.838-3.853a.408.408,0,0,1,.449-.681l5.837,3.852a.409.409,0,0,1-.224.749Z" transform="translate(-1500.855 -83.702)" fill="#32293a"/>
      </g>
      <g id="Grupo_957023" data-name="Grupo 957023" transform="translate(1449.014 32.781)">
        <path id="Trazado_656793" data-name="Trazado 656793" d="M1499.828,90.8a.4.4,0,0,1-.229-.072l-6.471-4.433a.407.407,0,1,1,.459-.673l6.472,4.432a.408.408,0,0,1-.23.745Z" transform="translate(-1492.95 -85.557)" fill="#32293a"/>
      </g>
      <g id="Grupo_957024" data-name="Grupo 957024" transform="translate(1443.459 34.428)">
        <path id="Trazado_656794" data-name="Trazado 656794" d="M1490.6,93.7a.408.408,0,0,1-.235-.075l-6.467-4.594a.407.407,0,0,1,.47-.666l6.468,4.595a.408.408,0,0,1-.235.741Z" transform="translate(-1483.724 -88.292)" fill="#32293a"/>
      </g>
      <g id="Grupo_957025" data-name="Grupo 957025" transform="translate(1453.686 125.472)">
        <path id="Trazado_656795" data-name="Trazado 656795" d="M1577.28,265.969h-2.427a14.22,14.22,0,0,1-6.734-1.7L1555.168,258,1526.491,242.5a18.392,18.392,0,0,0-8.656-2.2h-.049a16.006,16.006,0,0,0-15.613,12.338l-.662,2.768a.408.408,0,1,1-.793-.19l.663-2.768a16.819,16.819,0,0,1,16.405-12.963h.051a19.2,19.2,0,0,1,9.04,2.3l28.661,15.484,12.951,6.27a13.417,13.417,0,0,0,6.364,1.613h2.427a11.934,11.934,0,0,0,11.289-8.084l2.313-6.772a.407.407,0,1,1,.77.264l-2.313,6.772A12.747,12.747,0,0,1,1577.28,265.969Z" transform="translate(-1500.707 -239.484)" fill="#faf5ff"/>
      </g>
      <g id="Grupo_957026" data-name="Grupo 957026" transform="translate(1532.365 116.157)">
        <path id="Trazado_656796" data-name="Trazado 656796" d="M1636.749,236.415a.408.408,0,0,1-.172-.039,9.379,9.379,0,0,1-4.392-12.128.407.407,0,1,1,.738.346c-2.26,4.845.929,9.605,4,11.043a.408.408,0,0,1-.172.777Z" transform="translate(-1631.364 -224.014)" fill="#faf5ff"/>
      </g>
      <g id="Grupo_957027" data-name="Grupo 957027" transform="translate(1598.456 154.13)">
        <path id="Trazado_656797" data-name="Trazado 656797" d="M1742.31,297.877a.407.407,0,0,1-.405-.376l-.786-9.987a.407.407,0,0,1,.373-.439.392.392,0,0,1,.437.375l.786,9.987a.407.407,0,0,1-.373.439Z" transform="translate(-1741.118 -287.074)" fill="#32293a"/>
      </g>
      <g id="Grupo_957028" data-name="Grupo 957028" transform="translate(1593.608 154.281)">
        <path id="Trazado_656798" data-name="Trazado 656798" d="M1734.532,300.472a.408.408,0,0,1-.4-.373l-1.059-12.332a.407.407,0,1,1,.811-.069l1.058,12.331a.407.407,0,0,1-.37.441Z" transform="translate(-1733.067 -287.325)" fill="#32293a"/>
      </g>
      <g id="Grupo_957029" data-name="Grupo 957029" transform="translate(1588.405 154.13)">
        <path id="Trazado_656799" data-name="Trazado 656799" d="M1726.01,302.879a.407.407,0,0,1-.406-.376l-1.176-14.989a.408.408,0,0,1,.373-.439.4.4,0,0,1,.438.375l1.175,14.989a.408.408,0,0,1-.373.439Z" transform="translate(-1724.427 -287.074)" fill="#32293a"/>
      </g>
      <g id="Grupo_957030" data-name="Grupo 957030" transform="translate(1535.612 48.581)">
        <path id="Trazado_656800" data-name="Trazado 656800" d="M1642.881,116.482c-3.428,0-5.484-1.406-6.113-4.187a.407.407,0,0,1,.307-.488.4.4,0,0,1,.487.307c.588,2.6,2.587,3.749,6.146,3.525a.408.408,0,0,1,.051.814C1643.456,116.473,1643.163,116.482,1642.881,116.482Z" transform="translate(-1636.757 -111.796)" fill="#32293a"/>
      </g>
      <g id="Grupo_957031" data-name="Grupo 957031" transform="translate(1530.376 52.258)">
        <path id="Trazado_656801" data-name="Trazado 656801" d="M1631.308,136.26a.405.405,0,0,1-.267-.1c-5.2-4.55-2.015-11.549-1.982-11.618a.405.405,0,0,1,.273-.223l2.9-.707a4.827,4.827,0,0,0,3.412-3.084l.838-2.353a.407.407,0,1,1,.767.274l-.838,2.354a5.642,5.642,0,0,1-3.987,3.6l-2.7.659c-.453,1.08-2.5,6.674,1.857,10.483a.408.408,0,0,1-.267.715Z" transform="translate(-1628.062 -117.902)" fill="#32293a"/>
      </g>
      <g id="Grupo_957032" data-name="Grupo 957032" transform="translate(1536.377 37.834)">
        <path id="Trazado_656802" data-name="Trazado 656802" d="M1639.222,100.662a.407.407,0,0,1-.334-.174l-.69-.989a.952.952,0,0,1-.118-.857.92.92,0,0,1,.615-.589c.515-.153,1.41-.5,1.616-1.094a1.444,1.444,0,0,0-.108-1.138,2.227,2.227,0,0,0-1.282-1.072.408.408,0,0,1,.233-.782,3.038,3.038,0,0,1,1.773,1.482,2.228,2.228,0,0,1,.153,1.777,3.076,3.076,0,0,1-2.154,1.61.114.114,0,0,0-.077.075.136.136,0,0,0,.017.12l.691.989a.409.409,0,0,1-.1.568A.4.4,0,0,1,1639.222,100.662Z" transform="translate(-1638.028 -93.949)" fill="#32293a"/>
      </g>
      <g id="Grupo_957033" data-name="Grupo 957033" transform="translate(1542.18 40.731)">
        <path id="Trazado_656803" data-name="Trazado 656803" d="M1650.873,101.508a.408.408,0,0,1-.394-.306,2.068,2.068,0,0,0-2.321-1.587.408.408,0,0,1-.172-.8,2.873,2.873,0,0,1,3.282,2.181.409.409,0,0,1-.293.5A.428.428,0,0,1,1650.873,101.508Z" transform="translate(-1647.665 -98.76)" fill="#32293a"/>
      </g>
      <path id="Trazado_656804" data-name="Trazado 656804" d="M1640.08,99.222a.82.82,0,1,1-.457-1.2A.918.918,0,0,1,1640.08,99.222Z" transform="translate(-101.837 -57.723)" fill="#32293a"/>
      <path id="Trazado_656805" data-name="Trazado 656805" d="M1648.966,103.212a.82.82,0,1,1-.457-1.2A.917.917,0,0,1,1648.966,103.212Z" transform="translate(-105.373 -59.311)" fill="#32293a"/>
      <g id="Grupo_957034" data-name="Grupo 957034" transform="translate(1570.089 -2.597)">
        <path id="Trazado_656806" data-name="Trazado 656806" d="M1702.518,42.277a2.345,2.345,0,0,1-1.748-.783l-5.486-6.135a2.35,2.35,0,1,1,3.5-3.14l3.6,4.03,6.043-7.847a2.349,2.349,0,1,1,3.717,2.874l-7.766,10.086a2.348,2.348,0,0,1-1.772.914Z" transform="translate(-1694.279 -27.077)" fill="#2ff980"/>
        <path id="Trazado_656807" data-name="Trazado 656807" d="M1702.251,42.415a2.755,2.755,0,0,1-2.051-.919l-5.487-6.135a2.768,2.768,0,0,1,.213-3.9,2.692,2.692,0,0,1,1.99-.7,2.73,2.73,0,0,1,1.9.914l3.276,3.664,5.745-7.459a2.757,2.757,0,0,1,4.36,3.373l-7.767,10.085a2.743,2.743,0,0,1-2.079,1.072Zm-5.488-10.841a1.921,1.921,0,0,0-1.293.5,1.949,1.949,0,0,0-.151,2.745l5.487,6.136a1.94,1.94,0,0,0,1.445.647v.408l.068-.409a1.934,1.934,0,0,0,1.468-.755l7.767-10.085a1.942,1.942,0,1,0-3.073-2.377l-6.043,7.848a.407.407,0,0,1-.308.158.42.42,0,0,1-.317-.135l-3.6-4.03a1.926,1.926,0,0,0-1.339-.644C1696.835,31.575,1696.8,31.574,1696.763,31.574Z" transform="translate(-1694.011 -26.808)" fill="#32293a"/>
      </g>
      <g id="Grupo_957035" data-name="Grupo 957035" transform="translate(1536.747 46.303)">
        <path id="Trazado_656808" data-name="Trazado 656808" d="M1640.591,110.052a1.96,1.96,0,0,1-1.213-.419,1.765,1.765,0,0,1-.736-1.22.409.409,0,0,1,.408-.4h.007a.407.407,0,0,1,.4.407,1.208,1.208,0,0,0,.486.618,1.176,1.176,0,0,0,1.017.145.408.408,0,0,1,.222.785A2.18,2.18,0,0,1,1640.591,110.052Z" transform="translate(-1638.642 -108.012)" fill="#32293a"/>
      </g>
      <g id="Grupo_957036" data-name="Grupo 957036" transform="translate(1592.186 62.249)">
        <path id="Trazado_656809" data-name="Trazado 656809" d="M1760.39,200.223a.4.4,0,0,1-.287-.12c-5.7-5.708-6.261-10.345-1.889-15.506,8.821-10.412,10.712-20.655,5.782-31.315-5.389-11.653-21.628-15.37-30.353-17.367-.992-.227-1.879-.43-2.629-.618a.408.408,0,0,1,.2-.791c.745.187,1.626.388,2.613.615,8.86,2.028,25.354,5.8,30.911,17.819,5.007,10.827,3.022,21.655-5.9,32.186-4.085,4.822-3.552,8.994,1.844,14.4a.408.408,0,0,1-.288.7Z" transform="translate(-1730.705 -134.493)" fill="#32293a"/>
      </g>
      <g id="Grupo_957037" data-name="Grupo 957037" transform="translate(1483.605 -26.157)">
        <path id="Trazado_656810" data-name="Trazado 656810" d="M1581.043,20.97a.4.4,0,0,1-.159-.033c-4.469-1.9-6.287-7.531-8.392-14.051-.44-1.36-.895-2.769-1.391-4.2-3.749-10.826-9.989-15.145-20.257-14a.4.4,0,0,1-.449-.361.407.407,0,0,1,.359-.45c10.7-1.191,17.22,3.293,21.115,14.546.5,1.439.955,2.853,1.4,4.219,2.043,6.33,3.808,11.8,7.936,13.551a.409.409,0,0,1-.16.784Z" transform="translate(-1550.393 12.316)" fill="#32293a"/>
      </g>
      <g id="Grupo_957038" data-name="Grupo 957038" transform="translate(1407.285 93.575)">
        <path id="Trazado_656811" data-name="Trazado 656811" d="M1426.584,192.389a2.937,2.937,0,1,1,2.931-2.937A2.937,2.937,0,0,1,1426.584,192.389Zm0-5.058a2.121,2.121,0,1,0,2.116,2.121A2.121,2.121,0,0,0,1426.584,187.331Z" transform="translate(-1423.653 -186.515)" fill="#32293a"/>
      </g>
      <g id="Grupo_957039" data-name="Grupo 957039" transform="translate(1610.038 41.274)">
        <path id="Trazado_656812" data-name="Trazado 656812" d="M1762.73,104.429a2.383,2.383,0,1,1,2.378-2.383A2.384,2.384,0,0,1,1762.73,104.429Zm0-3.951a1.567,1.567,0,1,0,1.563,1.567A1.568,1.568,0,0,0,1762.73,100.478Z" transform="translate(-1760.351 -99.662)" fill="#32293a"/>
      </g>
      <g id="Grupo_957040" data-name="Grupo 957040" transform="translate(1468.003 -35.646)">
        <path id="Trazado_656813" data-name="Trazado 656813" d="M1526.862-23.307a2.384,2.384,0,0,1-2.379-2.383,2.384,2.384,0,0,1,2.379-2.383,2.384,2.384,0,0,1,2.378,2.383A2.384,2.384,0,0,1,1526.862-23.307Zm0-3.951a1.568,1.568,0,0,0-1.565,1.567,1.568,1.568,0,0,0,1.565,1.567,1.568,1.568,0,0,0,1.564-1.567A1.568,1.568,0,0,0,1526.862-27.258Z" transform="translate(-1524.483 28.074)" fill="#32293a"/>
      </g>
      <g id="Grupo_957041" data-name="Grupo 957041" transform="translate(1478.618 -47.107)">
        <path id="Trazado_656814" data-name="Trazado 656814" d="M1546.541-38.228a4.441,4.441,0,0,1-4.43-4.44,4.44,4.44,0,0,1,4.43-4.439,4.439,4.439,0,0,1,4.429,4.439A4.44,4.44,0,0,1,1546.541-38.228Zm0-8.063a3.624,3.624,0,0,0-3.615,3.623,3.624,3.624,0,0,0,3.615,3.624,3.624,3.624,0,0,0,3.615-3.624A3.623,3.623,0,0,0,1546.541-46.291Z" transform="translate(-1542.111 47.107)" fill="#32293a"/>
      </g>
      <g id="Grupo_957042" data-name="Grupo 957042" transform="translate(1394.947 79.619)">
        <path id="Trazado_656815" data-name="Trazado 656815" d="M1408.062,173.155a4.908,4.908,0,1,1,4.9-4.908A4.908,4.908,0,0,1,1408.062,173.155Zm0-9a4.092,4.092,0,1,0,4.082,4.092A4.092,4.092,0,0,0,1408.062,164.155Z" transform="translate(-1403.164 -163.339)" fill="#32293a"/>
      </g>
      <g id="Grupo_957043" data-name="Grupo 957043" transform="translate(1500.685 107.932)">
        <path id="Trazado_656816" data-name="Trazado 656816" d="M1597.589,220.269a.414.414,0,0,1-.18-.042l-18.426-9.1a.408.408,0,0,1,.361-.732l18.425,9.1a.408.408,0,0,1-.18.774Z" transform="translate(-1578.756 -210.356)" fill="#faf5ff"/>
      </g>
    </g>
    <rect id="Rectángulo_45402" data-name="Rectángulo 45402" width="295" height="266" transform="translate(1125 33344)" fill="none"/>
  </g>
</svg>
