<svg xmlns="http://www.w3.org/2000/svg" width="371.365" height="303.976" viewBox="0 0 371.365 303.976">
  <g id="Grupo_961158" data-name="Grupo 961158" transform="translate(-970.481 -4110.552)">
    <g id="Grupo_961123" data-name="Grupo 961123">
      <rect id="Rectángulo_45824" data-name="Rectángulo 45824" width="86.84" height="51.933" rx="3.076" transform="translate(1141.572 4128.988)" fill="#bee7ed"/>
      <rect id="Rectángulo_45825" data-name="Rectángulo 45825" width="86.84" height="8.961" transform="translate(1228.412 4147.757) rotate(-180)" fill="#3795a3"/>
      <path id="Trazado_659891" data-name="Trazado 659891" d="M1208.521,4170.957h12.768a1.47,1.47,0,0,1,1.47,1.47h0a1.47,1.47,0,0,1-1.47,1.469h-12.768a1.47,1.47,0,0,1-1.47-1.469h0A1.47,1.47,0,0,1,1208.521,4170.957Z" fill="#45bbcc"/>
      <path id="Trazado_659892" data-name="Trazado 659892" d="M1188.886,4170.957h12.768a1.47,1.47,0,0,1,1.47,1.47h0a1.47,1.47,0,0,1-1.47,1.469h-12.768a1.47,1.47,0,0,1-1.47-1.469h0A1.47,1.47,0,0,1,1188.886,4170.957Z" fill="#45bbcc"/>
      <path id="Trazado_659893" data-name="Trazado 659893" d="M1169.251,4170.957h12.768a1.47,1.47,0,0,1,1.47,1.47h0a1.47,1.47,0,0,1-1.47,1.469h-12.768a1.47,1.47,0,0,1-1.47-1.469h0A1.47,1.47,0,0,1,1169.251,4170.957Z" fill="#45bbcc"/>
      <path id="Trazado_659894" data-name="Trazado 659894" d="M1149.616,4170.957h12.768a1.47,1.47,0,0,1,1.47,1.47h0a1.47,1.47,0,0,1-1.47,1.469h-12.768a1.47,1.47,0,0,1-1.47-1.469h0A1.47,1.47,0,0,1,1149.616,4170.957Z" fill="#45bbcc"/>
      <path id="Trazado_659895" data-name="Trazado 659895" d="M1221.877,4131.623h0a1.622,1.622,0,0,1,1.622,1.622v.57a1.622,1.622,0,0,1-1.622,1.622h0a1.622,1.622,0,0,1-1.622-1.622v-.57A1.622,1.622,0,0,1,1221.877,4131.623Z" fill="#45bbcc"/>
      <path id="Trazado_659896" data-name="Trazado 659896" d="M1218.383,4133.53h0a1.907,1.907,0,0,1-1.907,1.907h-6.758a1.907,1.907,0,0,1-1.907-1.907h0a1.907,1.907,0,0,1,1.907-1.907h6.758A1.907,1.907,0,0,1,1218.383,4133.53Z" fill="#45bbcc"/>
      <rect id="Rectángulo_45826" data-name="Rectángulo 45826" width="13.795" height="12.592" rx="6.296" transform="translate(1221.803 4165.169) rotate(180)" fill="#ffbd73"/>
    </g>
    <g id="Grupo_961124" data-name="Grupo 961124">
      <path id="Trazado_659897" data-name="Trazado 659897" d="M997.505,4207.815a21.582,21.582,0,0,0-3.859,7.442l2.276.663a19.467,19.467,0,0,0-.651,7.584l-2.349.266a21.649,21.649,0,0,0,2.53,7.992l.464-.251,1.614-.887a19.237,19.237,0,0,0,4.907,5.816l-1.479,1.857a21.416,21.416,0,0,0,7.448,3.852l.663-2.276a19.281,19.281,0,0,0,7.579.657l.266,2.35a21.686,21.686,0,0,0,8-2.537l-.007-.006-.324-.6-.807-1.469a19.215,19.215,0,0,0,5.811-4.9l1.856,1.479a21.46,21.46,0,0,0,3.858-7.455l-2.276-.663a19.269,19.269,0,0,0,.652-7.572l2.35-.266a21.687,21.687,0,0,0-2.537-8l-2.079,1.137a19.236,19.236,0,0,0-4.9-5.81l1.478-1.856a21.459,21.459,0,0,0-7.454-3.858l-.664,2.276a19.265,19.265,0,0,0-7.571-.652l-.266-2.35a21.577,21.577,0,0,0-8,2.537l.009.019.75,1.367.379.693a19.227,19.227,0,0,0-5.81,4.9Zm8.769,6.984a10.486,10.486,0,1,1,1.662,14.736A10.481,10.481,0,0,1,1006.274,4214.8Z" fill="none" stroke="#3795a3" stroke-miterlimit="10" stroke-width="4.435"/>
    </g>
    <g id="Grupo_961125" data-name="Grupo 961125">
      <path id="Trazado_659898" data-name="Trazado 659898" d="M1164.721,4315.759a24.9,24.9,0,0,0-4.453,8.588l2.626.766a22.455,22.455,0,0,0-.751,8.752l-2.711.307a24.975,24.975,0,0,0,2.92,9.222l.535-.29,1.863-1.023a22.2,22.2,0,0,0,5.662,6.712l-1.706,2.142a24.708,24.708,0,0,0,8.594,4.445l.766-2.626a22.259,22.259,0,0,0,8.745.759l.307,2.711a25.033,25.033,0,0,0,9.229-2.928l-.009-.006-.374-.7-.93-1.7a22.15,22.15,0,0,0,6.7-5.654l2.142,1.707a24.767,24.767,0,0,0,4.452-8.6l-2.626-.766a22.236,22.236,0,0,0,.752-8.737l2.712-.307a25.047,25.047,0,0,0-2.928-9.229l-2.4,1.313a22.184,22.184,0,0,0-5.654-6.705l1.706-2.142a24.766,24.766,0,0,0-8.6-4.452l-.765,2.627a22.223,22.223,0,0,0-8.738-.753l-.307-2.711a24.875,24.875,0,0,0-9.228,2.927l.01.021.865,1.578.438.8a22.192,22.192,0,0,0-6.706,5.654Zm10.119,8.06a12.1,12.1,0,1,1,1.919,17.005A12.094,12.094,0,0,1,1174.84,4323.819Z" fill="#bee7ed"/>
    </g>
    <path id="Trazado_659899" data-name="Trazado 659899" d="M1139.542,4131.463a4.127,4.127,0,0,1,4.126-4.127h15.247a5.953,5.953,0,0,0,.076-.748h0a6,6,0,0,0-5.545-5.964,8.87,8.87,0,0,0-16.96-4.649,6.193,6.193,0,0,0-10.318,4.626h-1.157a6,6,0,0,0-5.987,5.987h0a6,6,0,0,0,5.987,5.986h14.531Z" fill="#bee7ed"/>
    <g id="Grupo_961133" data-name="Grupo 961133">
      <path id="Trazado_659900" data-name="Trazado 659900" d="M1052.265,4159.94c2.124-12.578,21.493-18.256,21.114-10.047l88.794.521c6.15.036,11.136,5.568,11.142,12.364l.184,233.527c.006,7.04-5.068,12.8-11.336,12.849l-90.644.778a7.265,7.265,0,0,1-3.275,3.154c-10.4.221-15.381-4.912-17.2-10.716a13.979,13.979,0,0,1-.9-5.094C1050.5,4394.236,1051.608,4162.89,1052.265,4159.94Z" fill="#3795a3"/>
      <path id="Trazado_659901" data-name="Trazado 659901" d="M1069.213,4413.123l104.047-.671c6.492-.042,11.744-5.953,11.732-13.2l-.39-240.162c-.012-6.985-5.18-12.659-11.547-12.68l-102.026-.331c-6.417-.021-11.665,5.645-11.719,12.661l-1.849,241.273C1057.405,4407.294,1062.668,4413.165,1069.213,4413.123Z" fill="#fff"/>
      <path id="Trazado_659902" data-name="Trazado 659902" d="M1067.777,4411.376a9.273,9.273,0,0,0,1.314.082l104.015-.787c5.579-.042,10.139-5.224,10.13-11.547l-.36-239.9c-.009-6.1-4.5-11.074-9.969-11.1l-102.019-.444c-.159,0-.32,0-.479.01a9.659,9.659,0,0,0-6.76,3.29,11.537,11.537,0,0,0-2.874,7.638l-1.825,241.517C1058.907,4405.863,1062.688,4410.694,1067.777,4411.376Z"/>
      <path id="Trazado_659903" data-name="Trazado 659903" d="M1064.353,4159.836l-1.755,240.676,117.177-.7-.3-239.975Z" fill="#45bbcc"/>
      <g id="login">
        <rect id="Rectángulo_45827" data-name="Rectángulo 45827" width="37.873" height="8.911" rx="4.456" transform="translate(1138.169 4282.979) rotate(-180)" fill="#ff9f34"/>
        <path id="Trazado_659904" data-name="Trazado 659904" d="M1082.719,4249.9h74.887a4.468,4.468,0,0,0,4.456-4.455h0a4.469,4.469,0,0,0-4.456-4.456h-74.887a4.469,4.469,0,0,0-4.455,4.456h0A4.468,4.468,0,0,0,1082.719,4249.9Z" fill="#fff"/>
        <rect id="Rectángulo_45828" data-name="Rectángulo 45828" width="83.798" height="8.911" rx="4.456" transform="translate(1162.062 4264.254) rotate(180)" fill="#fff"/>
        <g id="Grupo_961126" data-name="Grupo 961126">
          <circle id="Elipse_5791" data-name="Elipse 5791" cx="1.569" cy="1.569" r="1.569" transform="translate(1143.623 4258.625)" fill="#80b2ff"/>
          <circle id="Elipse_5792" data-name="Elipse 5792" cx="1.569" cy="1.569" r="1.569" transform="translate(1138.245 4258.625)" fill="#80b2ff"/>
          <circle id="Elipse_5793" data-name="Elipse 5793" cx="1.569" cy="1.569" r="1.569" transform="translate(1132.866 4258.625)" fill="#80b2ff"/>
          <circle id="Elipse_5794" data-name="Elipse 5794" cx="1.569" cy="1.569" r="1.569" transform="translate(1127.488 4258.625)" fill="#80b2ff"/>
          <circle id="Elipse_5795" data-name="Elipse 5795" cx="1.569" cy="1.569" r="1.569" transform="translate(1122.11 4258.625)" fill="#80b2ff"/>
          <circle id="Elipse_5796" data-name="Elipse 5796" cx="1.569" cy="1.569" r="1.569" transform="translate(1116.732 4258.625)" fill="#80b2ff"/>
          <circle id="Elipse_5797" data-name="Elipse 5797" cx="1.569" cy="1.569" r="1.569" transform="translate(1111.353 4258.625)" fill="#80b2ff"/>
          <circle id="Elipse_5798" data-name="Elipse 5798" cx="1.569" cy="1.569" r="1.569" transform="translate(1105.975 4258.625)" fill="#80b2ff"/>
          <circle id="Elipse_5799" data-name="Elipse 5799" cx="1.569" cy="1.569" r="1.569" transform="translate(1100.597 4258.625)" fill="#80b2ff"/>
        </g>
        <g id="Grupo_961129" data-name="Grupo 961129">
          <circle id="Elipse_5800" data-name="Elipse 5800" cx="17.215" cy="17.215" r="17.215" transform="translate(1102.923 4194.095)" fill="#fff"/>
          <g id="Grupo_961128" data-name="Grupo 961128">
            <g id="Grupo_961127" data-name="Grupo 961127">
              <path id="Trazado_659905" data-name="Trazado 659905" d="M1120.113,4210.617a5.44,5.44,0,0,1-4.223-2.068,5.3,5.3,0,0,1-1.164-3.362,5.409,5.409,0,1,1,10.817,0,5.3,5.3,0,0,1-1.163,3.362A5.461,5.461,0,0,1,1120.113,4210.617Z" fill="#45bbcc"/>
            </g>
            <path id="Trazado_659906" data-name="Trazado 659906" d="M1110.571,4220.293c0,3.427,19.137,3.427,19.137,0l-.007-3.993c-.756-5.459-17.574-5.689-19.133,0Z" fill="#45bbcc"/>
          </g>
        </g>
        <path id="Trazado_659907" data-name="Trazado 659907" d="M1153.615,4258.977v3.159c0,.546,4.05.546,4.05,0v-3.159h-.267v-.239a1.753,1.753,0,0,0-3.506,0v.239Zm3.158,0h-2.268v-.239a1.134,1.134,0,1,1,2.268,0Zm-1.683,1.123a.562.562,0,1,1,1.123,0,.53.53,0,0,1-.281.468v.913a.271.271,0,0,1-.281.281.29.29,0,0,1-.3-.281v-.913A.561.561,0,0,1,1155.09,4260.1Z" fill="#4d4d4d"/>
        <g id="Grupo_961132" data-name="Grupo 961132">
          <g id="Grupo_961131" data-name="Grupo 961131">
            <g id="Grupo_961130" data-name="Grupo 961130">
              <path id="Trazado_659908" data-name="Trazado 659908" d="M1155.641,4245.125a1.145,1.145,0,0,1-.891-.437,1.115,1.115,0,0,1-.246-.709,1.141,1.141,0,1,1,2.283,0,1.115,1.115,0,0,1-.246.709A1.15,1.15,0,0,1,1155.641,4245.125Z" fill="#4d4d4d"/>
            </g>
            <path id="Trazado_659909" data-name="Trazado 659909" d="M1153.627,4247.166c0,.724,4.059.724,4.059,0l-.022-.842c-.159-1.152-3.708-1.2-4.037,0Z" fill="#4d4d4d"/>
          </g>
          <path id="Trazado_659910" data-name="Trazado 659910" d="M1129.41,4246.755h16.411a1.311,1.311,0,0,0,1.307-1.307h0a1.311,1.311,0,0,0-1.307-1.308H1129.41a1.312,1.312,0,0,0-1.308,1.308h0A1.311,1.311,0,0,0,1129.41,4246.755Z" fill="#80b2ff"/>
          <path id="Trazado_659911" data-name="Trazado 659911" d="M1107.765,4246.755h16.411a1.311,1.311,0,0,0,1.308-1.307h0a1.312,1.312,0,0,0-1.308-1.308h-16.411a1.311,1.311,0,0,0-1.307,1.308h0A1.311,1.311,0,0,0,1107.765,4246.755Z" fill="#80b2ff"/>
        </g>
      </g>
    </g>
    <g id="key">
      <path id="Trazado_659912" data-name="Trazado 659912" d="M1142.358,4331.255v33.231c0,3.693-48.232,3.693-48.232,0v-33.231Z" fill="#fff"/>
      <g id="Grupo_961134" data-name="Grupo 961134">
        <ellipse id="Elipse_5801" data-name="Elipse 5801" cx="5.955" cy="5.579" rx="5.955" ry="5.579" transform="translate(1112.287 4338.229)" fill="#45bbcc"/>
        <path id="Rectángulo_45829" data-name="Rectángulo 45829" d="M2.441,0h0A2.441,2.441,0,0,1,4.881,2.441V15.081a0,0,0,0,1,0,0H0a0,0,0,0,1,0,0V2.441A2.441,2.441,0,0,1,2.441,0Z" transform="translate(1120.683 4360.607) rotate(180)" fill="#45bbcc"/>
      </g>
      <path id="Trazado_659913" data-name="Trazado 659913" d="M1098.353,4328.887h4.882v-2.237c0-7.753,6.732-14.06,15.006-14.06s15.008,6.307,15.008,14.06v2.237h4.882v-2.237c0-10.275-8.923-18.633-19.89-18.633s-19.888,8.358-19.888,18.633Z" fill="#fff"/>
    </g>
    <path id="Trazado_659914" data-name="Trazado 659914" d="M1001.456,4414.528h335.385a1,1,0,0,0,1-1h0a1,1,0,0,0-1-1H1001.456a1,1,0,0,0-1,1h0A1,1,0,0,0,1001.456,4414.528Z" fill="#29707a"/>
    <g id="Grupo_961138" data-name="Grupo 961138">
      <g id="Grupo_961136" data-name="Grupo 961136">
        <g id="Grupo_961135" data-name="Grupo 961135">
          <path id="Trazado_659915" data-name="Trazado 659915" d="M970.481,4288.329h0v0Z" fill="#d9ffff"/>
          <path id="Trazado_659916" data-name="Trazado 659916" d="M970.481,4288.329h0v0Z" fill="#d9ffff"/>
          <path id="Trazado_659917" data-name="Trazado 659917" d="M1081.83,4288.827l0-.288,0,.288Z" fill="#d9ffff"/>
          <path id="Trazado_659918" data-name="Trazado 659918" d="M1081.83,4288.827l0-.288,0,.288Z" fill="#d9ffff"/>
          <path id="Trazado_659919" data-name="Trazado 659919" d="M1026.362,4262.164c-12.326,13.2-32,24.024-53.041,28.634-.007,1.406-.041,9.194-.2,45.089-.214,47.884,45.357,71.284,52.432,74.875,6.856-3.155,53-26.518,53.216-74.4.16-35.9.2-43.683.2-45.089C1057.964,4286.472,1038.569,4275.477,1026.362,4262.164Z" fill="#fff"/>
        </g>
      </g>
      <g id="Grupo_961137" data-name="Grupo 961137">
        <path id="Trazado_659920" data-name="Trazado 659920" d="M1026.251,4267.357c-12.707,11.656-30.311,20.818-49.668,25.812l-.191,42.71c-.088,19.543,7.676,37.222,23.076,52.549a110.387,110.387,0,0,0,26.156,19.124c.232-.117.487-.25.738-.381V4267.456C1026.325,4267.423,1026.287,4267.391,1026.251,4267.357Z" fill="#45bbcc"/>
        <path id="Trazado_659921" data-name="Trazado 659921" d="M1026.362,4267.456v139.715a110.434,110.434,0,0,0,25.588-18.509c15.536-15.188,23.457-32.8,23.544-52.34l.191-42.711C1056.428,4288.46,1038.955,4279.178,1026.362,4267.456Z" fill="#3795a3"/>
      </g>
      <path id="Trazado_659922" data-name="Trazado 659922" d="M1065.148,4310.266c-14.737,2.273-34.8,15.714-47.465,31.876-1.776-7.621-9.748-14.578-13.918-16.1l-12.636,12.7c7.889,3.556,16.511,13.63,17.654,23.943l12.623,1.956c5.322-10.512,19.066-35.658,46.41-49.179A20.716,20.716,0,0,0,1065.148,4310.266Z" fill="#29707a"/>
    </g>
    <g id="Grupo_961157" data-name="Grupo 961157">
      <g id="Grupo_961140" data-name="Grupo 961140">
        <path id="Trazado_659923" data-name="Trazado 659923" d="M1273.1,4229.146l35.741-.238,30.74-.319.133,4.664c-10.684,4.127-19.07,5.374-29.711,6.165-10.78,3.58-25.053,5.947-36.095,6.724C1264.2,4246.6,1263.394,4229.608,1273.1,4229.146Z" fill="#f7a594"/>
        <path id="Trazado_659924" data-name="Trazado 659924" d="M1288.947,4228.132c-4.291-.082-16.988-1.426-24.9-.494-7.16,2.941-5.384,15.429-2.1,17.393-.009.353,13.892,4.232,27.957.106C1292.015,4242.658,1291.3,4230.6,1288.947,4228.132Z" fill="#112e59"/>
        <path id="Trazado_659925" data-name="Trazado 659925" d="M1291.794,4245.628c-2.228.794-4.323,1.3-5.889.656-.929.044-1.961-18.664-1.033-18.708l5.85-.278C1292.579,4227.209,1293.651,4245.54,1291.794,4245.628Z" fill="#1d498c"/>
        <g id="Grupo_961139" data-name="Grupo 961139">
          <path id="Trazado_659926" data-name="Trazado 659926" d="M1336.031,4228.676c1.041-4.815,2.7-11.662,4.722-11.758.435-.02.5.26.477,1.542-1,8.558,1.307,10.879.19,13.3-1.228,2.344-4.609,2.3-4.609,2.3C1334.915,4233.207,1334.76,4230.038,1336.031,4228.676Z" fill="#f7a594"/>
          <path id="Trazado_659927" data-name="Trazado 659927" d="M1338.44,4227.638l2.105-6.215a1.466,1.466,0,0,1,1.086,1.883c-.29,1.644-.64,3.412-.64,3.412s1.646,3.558.336,5.031S1337.757,4231.782,1338.44,4227.638Z" fill="#f7a594"/>
          <path id="Trazado_659928" data-name="Trazado 659928" d="M1341.616,4231.486l-.16-.051a6.919,6.919,0,0,0-.539-4.678l-.014-.026.006-.029c0-.018.353-1.787.639-3.41a1.488,1.488,0,0,0-.406-1.48,1.443,1.443,0,0,0-.542-.29l-2.081,6.143-.159-.054,2.129-6.284.071.013a1.567,1.567,0,0,1,.691.345,1.634,1.634,0,0,1,.463,1.636c-.267,1.512-.589,3.151-.635,3.385A7.044,7.044,0,0,1,1341.616,4231.486Z" fill="#d97b69"/>
          <path id="Trazado_659929" data-name="Trazado 659929" d="M1337.517,4224.675l-.163-.041c.074-.3,1.847-7.255,3.371-7.795l.056.158C1339.341,4217.508,1337.535,4224.6,1337.517,4224.675Z" fill="#d97b69"/>
        </g>
      </g>
      <g id="Grupo_961142" data-name="Grupo 961142">
        <g id="Grupo_961141" data-name="Grupo 961141">
          <path id="Trazado_659930" data-name="Trazado 659930" d="M1228.588,4413.387h16.444a1.833,1.833,0,0,0,.705-.661,149.975,149.975,0,0,1,1.2-18.118l-11.475-.466-2.157,9.1C1229.594,4405.863,1225.289,4411.488,1228.588,4413.387Z" fill="#231f20"/>
          <path id="Trazado_659931" data-name="Trazado 659931" d="M1246.289,4413.607h-19.495c-.495,0-.458-2.711.036-2.711l19.384.109C1246.723,4411,1246.8,4413.607,1246.289,4413.607Z" fill="#231f20"/>
        </g>
        <path id="Trazado_659932" data-name="Trazado 659932" d="M1244.27,4285.063c-1.164,9.054-6.139,31.417-5.6,56.009-5.388,31.342-5.981,38.245-6.635,57.576l16.436.615c2.631-13.5,8.03-34.807,10.476-55.6,5.312-16.381,8.792-39.729,10.5-58.266C1271.171,4269.423,1248.585,4262.964,1244.27,4285.063Z" fill="#112e59"/>
        <path id="Trazado_659933" data-name="Trazado 659933" d="M1240.067,4399.412l-.336,0c.03-2.229,6.709-77.6,13.493-108.161l.329.073C1246.772,4321.858,1240.1,4397.184,1240.067,4399.412Z" fill="#231f20"/>
      </g>
      <g id="Grupo_961143" data-name="Grupo 961143">
        <path id="Trazado_659934" data-name="Trazado 659934" d="M1260.788,4286.167a368.532,368.532,0,0,0,9.141,57.669c-1.335,21.275,2.438,41.7,5.121,55.676l15.636-.14c.906-13.68-1.029-87.734-5.074-112.849C1283.683,4264.316,1258,4263.128,1260.788,4286.167Z" fill="#112e59"/>
        <path id="Trazado_659935" data-name="Trazado 659935" d="M1278.01,4399.512c-.7,5.039-1.187,8.97-.574,13.531l25.571.5s2.411-2.463-.945-6.157-9.292-1.557-13.511-8.012Z" fill="#231f20"/>
        <path id="Trazado_659936" data-name="Trazado 659936" d="M1304.171,4413.607h-27.143c-.494,0-.494-2.711,0-2.711l27.033.109C1304.57,4411,1304.679,4413.607,1304.171,4413.607Z" fill="#231f20"/>
        <rect id="Rectángulo_45830" data-name="Rectángulo 45830" width="0.336" height="107.818" transform="translate(1281.527 4291.526) rotate(-2.847)" fill="#231f20"/>
      </g>
      <path id="Trazado_659937" data-name="Trazado 659937" d="M1285.556,4282.624l-40.645,3.1c.369-25.449-11.123-43.021-8.73-49.575,3.287-9,27.243-9.067,36.367-5.556,3.623,1.394,9.516,9.456,10.21,19.6a68.121,68.121,0,0,1-.218,11.73C1282.08,4265.694,1285.556,4282.624,1285.556,4282.624Z" fill="#112e59"/>
      <path id="Trazado_659938" data-name="Trazado 659938" d="M1261.262,4235.657c-1.889-1.5-9.426-3.816-11.431-5.457l.453-13.083,7.41-.722a22.014,22.014,0,0,1,6.147,1.423l1.668,8.615.368,1.868C1266.716,4230.14,1265.053,4232.357,1261.262,4235.657Z" fill="#f7a594"/>
      <path id="Trazado_659939" data-name="Trazado 659939" d="M1252.777,4220.079a16.558,16.558,0,0,0,12.732,6.354l-1.443-7.453Z" fill="#e6836f"/>
      <g id="Grupo_961146" data-name="Grupo 961146">
        <g id="Grupo_961144" data-name="Grupo 961144">
          <path id="Trazado_659940" data-name="Trazado 659940" d="M1269.179,4202.844c.581,2.578,1.779,8.236,1.583,10.843-.3,3.967-4,8.368-7.236,8.946-3.741.381-8.784-.733-11.523-3.086a37.756,37.756,0,0,1-5.831-9.731c-2.832-7.736,2.635-14.52,9.569-16.086S1267.368,4194.808,1269.179,4202.844Z" fill="#f7a594"/>
          <path id="Trazado_659941" data-name="Trazado 659941" d="M1248.495,4214.926c-1.446-2.545.475-3.576,2.582-1.6-.36-1.921-2.55-7.548-.611-9.414,2.191-2.165,11.831-1.223,17.01-6.623,0,0-3.86-8.463-16.53-3.465C1236.637,4201.411,1248.495,4214.926,1248.495,4214.926Z" fill="#4d261c"/>
          <ellipse id="Elipse_5802" data-name="Elipse 5802" cx="2.427" cy="3.123" rx="2.427" ry="3.123" transform="translate(1244.545 4213.19) rotate(-39.724)" fill="#f7a594"/>
        </g>
        <path id="Trazado_659942" data-name="Trazado 659942" d="M1267.594,4197.64c-1.61-.493-20.784,7.127-20.28,8.551,0,0,13.883.064,23.428-4.282C1275.952,4199.537,1267.594,4197.64,1267.594,4197.64Z" fill="#112e59"/>
        <path id="Trazado_659943" data-name="Trazado 659943" d="M1244.423,4207.416l23.292-9.817-.8-3.3-24.674,10.18A7.26,7.26,0,0,0,1244.423,4207.416Z" fill="#1d498c"/>
        <path id="Trazado_659944" data-name="Trazado 659944" d="M1241.571,4205.215c-2.548.971-3.913-.585-1.339-3.547,3.969-4.567,6.68-16.251,12.576-18.37,4.063-1.46,7.138,3.3,12.532,6.254,2.446,1.34,3.815,2.742,2.9,4.388C1265.452,4196.027,1244.239,4204.2,1241.571,4205.215Z" fill="#112e59"/>
        <g id="Grupo_961145" data-name="Grupo 961145">
          <path id="Trazado_659945" data-name="Trazado 659945" d="M1257.744,4187.7l-.049-.131a6.2,6.2,0,0,1-1.722,0,4.959,4.959,0,0,1-1.51-.45h0l0,.006a4.374,4.374,0,0,1-.352.674,5.6,5.6,0,0,1-.674.857c-.129.137-.264.271-.408.4a6.059,6.059,0,0,1-.691.525l.292.778.146.388.087.233.33.877a3.775,3.775,0,0,0,.68,1.151c.092.1.187.2.286.3a4.425,4.425,0,0,0,.946.67,5.559,5.559,0,0,0,.95.4,6.018,6.018,0,0,0,.98.222c.117.016.205.025.256.029a6.443,6.443,0,0,0,.6-.759c.107-.158.217-.336.323-.532.052-.1.1-.2.153-.306a4.04,4.04,0,0,0,.181-3.175C1258.039,4188.487,1257.828,4187.926,1257.744,4187.7Z" fill="#f7bd0c"/>
          <path id="Trazado_659946" data-name="Trazado 659946" d="M1257.617,4190.224a1.861,1.861,0,1,1-2.39-1.092A1.856,1.856,0,0,1,1257.617,4190.224Z" fill="#fff"/>
        </g>
      </g>
      <g id="Grupo_961147" data-name="Grupo 961147">
        <path id="Trazado_659947" data-name="Trazado 659947" d="M1261.092,4232.04l1.225,2.567.188-2.728,1.652,4.385a4.894,4.894,0,0,0-1.811-1.366,5.056,5.056,0,0,0-2.265,2.365Z" fill="#231f20"/>
        <path id="Trazado_659948" data-name="Trazado 659948" d="M1249.92,4227.052c1.829,2.359,7.78,3.975,11.172,4.988l-1.011,5.223c-4.076-1.376-9.345-2.939-11.707-7.815C1247.84,4228.121,1248.478,4227.384,1249.92,4227.052Z" fill="#1d498c"/>
        <path id="Trazado_659949" data-name="Trazado 659949" d="M1265.535,4226.228c-.182.859-.321,4.227-3.03,5.651l1.652,4.385c3.734-2.137,3.93-4.116,3.355-7.22C1267.277,4227.809,1266.865,4226.486,1265.535,4226.228Z" fill="#1d498c"/>
      </g>
      <path id="Trazado_659950" data-name="Trazado 659950" d="M1268.767,4284.955a.168.168,0,0,1-.167-.15c-.417-3.878-.756-8.5-1.115-13.4-.976-13.341-2.084-28.461-5.3-36.445a.168.168,0,0,1,.312-.125c3.231,8.032,4.34,23.18,5.319,36.545.358,4.894.7,9.517,1.114,13.389a.17.17,0,0,1-.15.186Z" fill="#231f20"/>
      <path id="Trazado_659951" data-name="Trazado 659951" d="M1244.919,4281.553c7.945,2.129,39.1,1.315,40.337.365,1.9-.426,2.323,6.388,1.223,8.03-1.681,2.51-41.7,2.11-42.966.3S1242.674,4280.951,1244.919,4281.553Z" fill="#231f20"/>
      <g id="Grupo_961149" data-name="Grupo 961149">
        <g id="Grupo_961148" data-name="Grupo 961148">
          <path id="Trazado_659952" data-name="Trazado 659952" d="M1275.693,4244.695l-.015-.135a6.058,6.058,0,0,1-1.626-.4,4.821,4.821,0,0,1-1.32-.778h0l0,0a4.328,4.328,0,0,1-.491.554,5.461,5.461,0,0,1-.837.652c-.154.1-.312.194-.479.28a5.91,5.91,0,0,1-.775.334l.093.8.047.4.028.241.106.905a3.674,3.674,0,0,0,.372,1.246,3.757,3.757,0,0,0,.2.347,4.244,4.244,0,0,0,.736.855,5.351,5.351,0,0,0,.8.6,6.033,6.033,0,0,0,.874.439c.106.043.187.071.235.086a6.067,6.067,0,0,0,.749-.575,5.941,5.941,0,0,0,.429-.426c.073-.08.145-.165.217-.254a3.928,3.928,0,0,0,.914-2.956C1275.788,4245.507,1275.721,4244.928,1275.693,4244.695Z" fill="#f7bd0c"/>
        </g>
        <rect id="Rectángulo_45831" data-name="Rectángulo 45831" width="7.869" height="1.443" transform="translate(1269.815 4253.125) rotate(-5.561)" fill="#1d498c"/>
      </g>
      <path id="Trazado_659953" data-name="Trazado 659953" d="M1269,4307.981h-2.405l.049-.206c1.08-4.567,1.228-15.677,1.229-15.788l.336,0c0,.11-.145,10.933-1.19,15.654h1.707a70.8,70.8,0,0,0,1.34-15.373l.336-.02c.408,6.9-1.356,15.509-1.374,15.6Z" fill="#231f20"/>
      <g id="Grupo_961150" data-name="Grupo 961150">
        <path id="Trazado_659954" data-name="Trazado 659954" d="M1229.743,4256.424s-3.163,17.9.061,24.218c3.332,6.525,34.1,7.944,34.1,7.944l1.1-9.259-21.2-5.379,4.6-13.712Z" fill="#f7a594"/>
        <path id="Trazado_659955" data-name="Trazado 659955" d="M1237.719,4233.4a47.222,47.222,0,0,0-9.3,26.527c11.649,8.493,19.325,2.374,19.325,2.374s5.908-15.613,4.6-23.21S1240.364,4230.64,1237.719,4233.4Z" fill="#112e59"/>
        <path id="Trazado_659956" data-name="Trazado 659956" d="M1228.818,4255.244c1.577,1.92,19.683,5.666,20.057,3.558a5.94,5.94,0,0,1-1.227,5.81c-.461,2.927-20.09-.155-19.629-3.083Q1226.308,4258.811,1228.818,4255.244Z" fill="#1d498c"/>
        <path id="Trazado_659957" data-name="Trazado 659957" d="M1248.875,4258.97a.164.164,0,0,1-.085-.023.168.168,0,0,1-.06-.23,27.5,27.5,0,0,0,3.008-8.206.168.168,0,1,1,.329.066,27.816,27.816,0,0,1-3.047,8.31A.167.167,0,0,1,1248.875,4258.97Z" fill="#231f20"/>
      </g>
      <g id="Grupo_961156" data-name="Grupo 961156">
        <g id="Grupo_961154" data-name="Grupo 961154">
          <g id="Grupo_961152" data-name="Grupo 961152">
            <g id="Grupo_961151" data-name="Grupo 961151">
              <path id="Trazado_659958" data-name="Trazado 659958" d="M1251.048,4257.6h0l0-.164Z" fill="#d9ffff"/>
              <path id="Trazado_659959" data-name="Trazado 659959" d="M1251.048,4257.6h0l0-.164Z" fill="#d9ffff"/>
              <path id="Trazado_659960" data-name="Trazado 659960" d="M1314.909,4258.308l0-.165,0,.165Z" fill="#d9ffff"/>
              <path id="Trazado_659961" data-name="Trazado 659961" d="M1314.909,4258.308l0-.165,0,.165Z" fill="#d9ffff"/>
              <path id="Trazado_659962" data-name="Trazado 659962" d="M1283.224,4240.64c-7.495,7.887-19.413,14.312-32.139,17-.009.844-.061,5.525-.3,27.1-.32,28.778,27.1,43.022,31.359,45.208,4.152-1.869,32.107-15.728,32.427-44.5.24-21.573.292-26.253.3-27.1C1302.208,4255.375,1290.542,4248.69,1283.224,4240.64Z" fill="#fff"/>
            </g>
          </g>
          <g id="Grupo_961153" data-name="Grupo 961153">
            <path id="Trazado_659963" data-name="Trazado 659963" d="M1283.113,4245.841c-7.331,6.607-17.463,11.771-28.584,14.549l-.271,24.383c-.124,11.156,4.262,21.279,13.037,30.087a63.307,63.307,0,0,0,14.929,11.017l.424-.215.529-79.764C1283.156,4245.879,1283.134,4245.861,1283.113,4245.841Z" fill="#007880"/>
            <path id="Trazado_659964" data-name="Trazado 659964" d="M1283.177,4245.9l-.529,79.764a63.316,63.316,0,0,0,14.746-10.471c8.968-8.612,13.578-18.636,13.7-29.792l.271-24.383C1300.341,4258,1290.355,4252.638,1283.177,4245.9Z" fill="#008f99"/>
          </g>
        </g>
        <g id="Grupo_961155" data-name="Grupo 961155">
          <path id="Trazado_659965" data-name="Trazado 659965" d="M1270.044,4280.958l-.125,18.89c-.014,2.1,25.786,2.272,25.8.17l.125-18.89Zm14.139,10.125-.036,5.354a1.305,1.305,0,0,1-2.61-.018l.035-5.365a3.175,3.175,0,1,1,2.611.029Z" fill="#fff"/>
          <path id="Trazado_659966" data-name="Trazado 659966" d="M1293.595,4279.767l-2.612-.018.008-1.271a8.029,8.029,0,0,0-16.058-.106l-.009,1.272-2.611-.017.008-1.272a10.641,10.641,0,0,1,21.282.14Z" fill="#fff"/>
        </g>
      </g>
    </g>
  </g>
</svg>
