<svg xmlns="http://www.w3.org/2000/svg" xmlns:xlink="http://www.w3.org/1999/xlink" width="190" height="115" viewBox="0 0 190 115">
  <defs>
    <clipPath id="clip-path">
      <rect id="Rectángulo_45474" data-name="Rectángulo 45474" width="190" height="115" transform="translate(1020 9470)" fill="#2ff980"/>
    </clipPath>
  </defs>
  <g id="Enmascarar_grupo_149" data-name="Enmascarar grupo 149" transform="translate(-1020 -9470)" clip-path="url(#clip-path)">
    <g id="mantenimiento_1_" data-name="mantenimiento(1)" transform="translate(1047.606 9443.757)">
      <g id="Grupo_957653" data-name="Grupo 957653" transform="translate(9.916 31.63)">
        <g id="Grupo_957650" data-name="Grupo 957650" transform="translate(0 0)">
          <path id="Trazado_657927" data-name="Trazado 657927" d="M180.571,352.69H216.7v20.115H180.571Z" transform="translate(-141.158 -277.257)" fill="#a79ba7" fill-rule="evenodd"/>
          <path id="Trazado_657928" data-name="Trazado 657928" d="M321.428,352.69h2.395v20.115h-2.395Z" transform="translate(-248.281 -277.257)" fill="#837683" fill-rule="evenodd"/>
          <path id="Trazado_657929" data-name="Trazado 657929" d="M94.611,436.043h74.752a1.68,1.68,0,0,0,1.676-1.676v-4.345c0-3.312-3.391-6.021-7.536-6.021H100.471c-4.145,0-7.536,2.71-7.536,6.021v4.345A1.68,1.68,0,0,0,94.611,436.043Z" transform="translate(-74.51 -331.488)" fill="#eceff1" fill-rule="evenodd"/>
          <path id="Trazado_657930" data-name="Trazado 657930" d="M94.615,441.363h74.752a1.68,1.68,0,0,0,1.676-1.676v-4.345A5.516,5.516,0,0,0,168.71,431a5.029,5.029,0,0,1,.832,2.741v4.345a1.68,1.68,0,0,1-1.676,1.676H93.113a1.65,1.65,0,0,1-.173-.009,1.68,1.68,0,0,0,1.675,1.614Z" transform="translate(-74.514 -336.808)" fill="#d1d1d6" fill-rule="evenodd"/>
          <path id="Trazado_657931" data-name="Trazado 657931" d="M24.837,37.714h97.28a8.864,8.864,0,0,1,8.837,8.837v60.8a8.864,8.864,0,0,1-8.837,8.837H24.837A8.863,8.863,0,0,1,16,107.348v-60.8a8.863,8.863,0,0,1,8.837-8.837Z" transform="translate(-16 -37.714)" fill="#eceff1" fill-rule="evenodd"/>
          <path id="Trazado_657932" data-name="Trazado 657932" d="M131.851,44.031a8.848,8.848,0,0,1,3.908,7.325v60.8a8.864,8.864,0,0,1-8.837,8.837H29.641a8.847,8.847,0,0,1-7.324-3.908,8.773,8.773,0,0,0,4.929,1.513h97.28a8.863,8.863,0,0,0,8.837-8.837v-60.8a8.774,8.774,0,0,0-1.513-4.93Z" transform="translate(-20.804 -42.518)" fill="#d1d1d6" fill-rule="evenodd"/>
          <path id="Trazado_657933" data-name="Trazado 657933" d="M48.082,68.571h97.724a1.229,1.229,0,0,1,1.226,1.226v58.164H46.857V69.8A1.229,1.229,0,0,1,48.082,68.571Z" transform="translate(-39.467 -61.181)" fill="#d8ecfe" fill-rule="evenodd"/>
          <path id="Trazado_657934" data-name="Trazado 657934" d="M446.04,68.571h3.349a1.229,1.229,0,0,1,1.226,1.226v58.164H446.04Z" transform="translate(-343.05 -61.181)" fill="#c4e2ff" fill-rule="evenodd"/>
        </g>
        <g id="Grupo_957651" data-name="Grupo 957651" transform="translate(27.746 12.18)">
          <path id="Trazado_657935" data-name="Trazado 657935" d="M167.507,93.5a25.37,25.37,0,0,1,7.43,3.08l4.828-2.144,5.69,5.69-2.144,4.826a25.371,25.371,0,0,1,3.081,7.432l4.926,1.9v8.047l-4.927,1.9a25.373,25.373,0,0,1-3.08,7.43l2.144,4.828-5.69,5.69-4.826-2.144a25.378,25.378,0,0,1-7.432,3.081l-1.9,4.926h-8.047l-1.9-4.927a25.367,25.367,0,0,1-7.43-3.08l-4.828,2.144-5.69-5.69,2.144-4.826a25.371,25.371,0,0,1-3.081-7.432l-4.926-1.9v-8.047l4.926-1.9a25.362,25.362,0,0,1,3.081-7.43l-2.144-4.827,5.69-5.69,4.828,2.144a25.38,25.38,0,0,1,7.43-3.08l1.9-4.927h8.048Z" transform="translate(-131.856 -88.571)" fill="#ffe177" fill-rule="evenodd"/>
          <path id="Trazado_657936" data-name="Trazado 657936" d="M212.455,95.171l1.658-.737,5.69,5.69-2.144,4.826a25.372,25.372,0,0,1,3.081,7.432l4.926,1.9v8.047l-4.927,1.9a25.374,25.374,0,0,1-3.08,7.43l2.144,4.828-5.69,5.69-1.658-.737,4.954-4.954-2.144-4.828a25.38,25.38,0,0,0,3.08-7.43l4.927-1.9v-8.047l-4.926-1.9a25.371,25.371,0,0,0-3.081-7.432l2.144-4.826Zm-29.869,44.855-4.828,2.144-.737-.737,4.529-2.012q.511.315,1.035.6Zm-5.565-44.855.736-.737,4.828,2.144q-.524.29-1.035.6ZM201.856,93.5a25.37,25.37,0,0,1,7.43,3.08l-1.36.6a33.383,33.383,0,0,0-8.465-3.684l-1.9-4.927h2.395Zm7.432,46.528a25.378,25.378,0,0,1-7.432,3.081l-1.9,4.926h-2.395l1.9-4.926a33.389,33.389,0,0,0,8.467-3.685Z" transform="translate(-166.205 -88.572)" fill="#ffd064" fill-rule="evenodd"/>
          <circle id="Elipse_5674" data-name="Elipse 5674" cx="17.863" cy="17.863" r="17.863" transform="translate(7.465 41.662) rotate(-73.142)" fill="#eceff1"/>
          <path id="Trazado_657937" data-name="Trazado 657937" d="M199.276,138.127a17.863,17.863,0,0,0,0,35.726c.368,0,.732-.012,1.094-.034a17.862,17.862,0,0,1,0-35.657C200.008,138.139,199.643,138.127,199.276,138.127Z" transform="translate(-169.545 -126.259)" fill="#d1d1d6" fill-rule="evenodd"/>
        </g>
        <g id="Grupo_957652" data-name="Grupo 957652" transform="translate(45.855 30.109)">
          <path id="Trazado_657938" data-name="Trazado 657938" d="M222.057,163.815a11.9,11.9,0,0,1,8.809,9.8l24.605,6.376a12.06,12.06,0,0,1,12.444-4.327,11.726,11.726,0,0,1,8.655,8.965l-11.584-2.982-4.343,4.43,1.665,5.977,11.584,2.982a11.727,11.727,0,0,1-11.908,3.671,12.06,12.06,0,0,1-8.809-9.8l-24.605-6.376a11.9,11.9,0,0,1-21.1-4.638l11.584,2.982,4.344-4.43-1.665-5.977-11.584-2.982a11.9,11.9,0,0,1,11.908-3.671Z" transform="translate(-207.47 -163.437)" fill="#837683" fill-rule="evenodd"/>
          <path id="Trazado_657939" data-name="Trazado 657939" d="M230.307,180.5q.119.336.218.678l-.1-.027Q230.374,180.828,230.307,180.5Zm45.8,11.66a12.446,12.446,0,0,1,.468,1.6l-11.584-2.982-4.343,4.43-.444-1.593,4.343-4.43Zm-3.836,11.587,1.625.418a11.727,11.727,0,0,1-11.908,3.671,12.072,12.072,0,0,1-8.7-9.2,12.079,12.079,0,0,0,8.26,7.605A11.679,11.679,0,0,0,272.267,203.751Zm-19.092-5.706-24.605-6.377a11.9,11.9,0,0,1-21.1-4.638l.03.008a11.9,11.9,0,0,0,20.626,3.037l24.7,6.4A11.471,11.471,0,0,0,253.175,198.044Zm-30.221-14.056-1.221-4.384-11.584-2.982a11.879,11.879,0,0,1,1.188-1.173l9.953,2.562Z" transform="translate(-207.47 -172.573)" fill="#685e68" fill-rule="evenodd"/>
        </g>
      </g>
      <path id="Trazado_657940" data-name="Trazado 657940" d="M103.371,86.88a1.918,1.918,0,0,0-1.415-1.576L77.351,78.93a1.951,1.951,0,0,0-.48-.062,1.918,1.918,0,0,0-1.526.756,9.992,9.992,0,0,1-16.382-.678l7.915,2.036a1.912,1.912,0,0,0,1.846-.512l4.343-4.43a1.917,1.917,0,0,0,.478-1.857l-1.665-5.976a1.914,1.914,0,0,0-1.368-1.341L62.6,64.828a9.993,9.993,0,0,1,14.674,7.314,1.91,1.91,0,0,0,1.415,1.576L103.291,80.1a1.914,1.914,0,0,0,2.006-.7,10.094,10.094,0,0,1,10.441-3.629,9.831,9.831,0,0,1,5.965,4.314l-7.938-2.043a1.918,1.918,0,0,0-1.846.514l-4.343,4.431a1.912,1.912,0,0,0-.478,1.853l1.665,5.978a1.916,1.916,0,0,0,1.368,1.341l7.937,2.043a9.817,9.817,0,0,1-7.306.9,10.1,10.1,0,0,1-7.391-8.222ZM93.012,90.89a1.919,1.919,0,0,1-.4,2.134l-.276.275h9.586a13.826,13.826,0,0,1-2.094-4.587l-8.341-2.16c-.074.137-.146.276-.223.413ZM56.619,66.3a1.916,1.916,0,0,1,.392-1.829,13.818,13.818,0,0,1,23.8,5.838l2.314.6A15.945,15.945,0,1,0,79.79,83.521l-2.229-.581A13.815,13.815,0,0,1,53.9,76.558a1.915,1.915,0,0,1,2.348-2.268L66.762,77l2.795-2.85L68.485,70.3,57.973,67.594A1.911,1.911,0,0,1,56.619,66.3ZM45.81,91.244l3.83,3.829,3.625-1.609a1.917,1.917,0,0,1,1.783.117,23.366,23.366,0,0,0,6.869,2.85,1.909,1.909,0,0,1,1.344,1.176l1.424,3.7H70.1l1.424-3.7a1.913,1.913,0,0,1,1.344-1.176,23.394,23.394,0,0,0,6.87-2.848,1.911,1.911,0,0,1,1.783-.12l3.624,1.609,3.83-3.829-1.61-3.626a1.914,1.914,0,0,1,.119-1.781c.057-.094.111-.187.166-.281l-3.865-1A19.785,19.785,0,1,1,87.1,71.943l8.1,2.1v-3.26l-3.7-1.423a1.919,1.919,0,0,1-1.176-1.346,23.414,23.414,0,0,0-2.848-6.868,1.92,1.92,0,0,1-.12-1.784l1.61-3.623-3.83-3.83-3.626,1.61a1.911,1.911,0,0,1-1.782-.12A23.543,23.543,0,0,0,72.87,50.55a1.913,1.913,0,0,1-1.344-1.176l-1.424-3.7H64.685l-1.424,3.7a1.914,1.914,0,0,1-1.344,1.176A23.475,23.475,0,0,0,55.047,53.4a1.911,1.911,0,0,1-1.782.12l-3.626-1.61-3.83,3.83,1.61,3.625a1.916,1.916,0,0,1-.119,1.782,23.453,23.453,0,0,0-2.848,6.868,1.916,1.916,0,0,1-1.175,1.346l-3.7,1.423V76.2l3.7,1.423a1.915,1.915,0,0,1,1.176,1.344A23.389,23.389,0,0,0,47.3,85.836a1.921,1.921,0,0,1,.119,1.784Zm69.754-19.423V40.937H19.222V93.3H42.446l-.276-.275a1.918,1.918,0,0,1-.4-2.134l1.743-3.923a27.226,27.226,0,0,1-2.538-6.124L36.974,79.3a1.918,1.918,0,0,1-1.228-1.789V69.466a1.915,1.915,0,0,1,1.228-1.788l4.006-1.541a27.2,27.2,0,0,1,2.538-6.121l-1.744-3.925a1.917,1.917,0,0,1,.4-2.134l5.69-5.69a1.915,1.915,0,0,1,2.133-.4l3.926,1.744a27.2,27.2,0,0,1,6.12-2.539l1.543-4.006a1.916,1.916,0,0,1,1.788-1.226h8.047a1.917,1.917,0,0,1,1.788,1.226l1.542,4.006a27.21,27.21,0,0,1,6.12,2.539l3.926-1.744a1.919,1.919,0,0,1,2.133.4l5.69,5.69a1.915,1.915,0,0,1,.4,2.132l-1.743,3.925a27.264,27.264,0,0,1,2.538,6.123l4,1.541a1.915,1.915,0,0,1,1.228,1.788v5.569l4.045,1.049A14.015,14.015,0,0,1,115.565,71.821Zm7.391,19.71V84.363l-9.075-2.335-2.795,2.85,1.071,3.846,10.513,2.706A1.723,1.723,0,0,1,122.955,91.531Zm-6.922,16.654a6.93,6.93,0,0,0,6.922-6.921v-6a13.5,13.5,0,0,1-9.589,4,14.282,14.282,0,0,1-3.56-.456,13.6,13.6,0,0,1-3.874-1.682H88.508l-1.583,1.584a1.915,1.915,0,0,1-2.132.394l-3.925-1.744a27.2,27.2,0,0,1-6.122,2.54L73.2,103.911a1.919,1.919,0,0,1-1.788,1.226H63.37a1.918,1.918,0,0,1-1.788-1.226L60.039,99.9a27.231,27.231,0,0,1-6.12-2.54l-3.926,1.744a1.917,1.917,0,0,1-2.132-.394l-1.583-1.584H17.306a1.915,1.915,0,0,1-1.916-1.916V40.245a3.145,3.145,0,0,1,3.142-3.14h97.724a3.144,3.144,0,0,1,3.141,3.14V73.05a13.45,13.45,0,0,1,3.559,2.5V40.468a6.93,6.93,0,0,0-6.922-6.922H18.753a6.929,6.929,0,0,0-6.921,6.922v60.8a6.929,6.929,0,0,0,6.921,6.921ZM83.542,122.226h-32.3V112.017h32.3Zm20.988,7.937v4.106H30.257v-4.106c0-2.224,2.574-4.1,5.621-4.1H98.909C101.956,126.059,104.529,127.939,104.529,130.163Zm11.5-100.449H18.753A10.765,10.765,0,0,0,8,40.468v60.8a10.764,10.764,0,0,0,10.753,10.753h28.66v10.209H35.878c-5.212,0-9.453,3.559-9.453,7.937v6.021a1.916,1.916,0,0,0,1.916,1.916h78.1a1.916,1.916,0,0,0,1.916-1.916v-6.021c0-4.378-4.24-7.937-9.452-7.937H87.374V112.017h28.66a10.765,10.765,0,0,0,10.754-10.753v-60.8a10.766,10.766,0,0,0-10.754-10.754Z" transform="translate(0 0)" fill-rule="evenodd"/>
    </g>
  </g>
</svg>
