<svg xmlns="http://www.w3.org/2000/svg" width="348.639" height="271.508" viewBox="0 0 348.639 271.508">
  <g id="Grupo_957494" data-name="Grupo 957494" transform="translate(-127.635 -2153.753)">
    <g id="Grupo_957351" data-name="Grupo 957351" transform="translate(127.635 2167.304)">
      <path id="Trazado_657296" data-name="Trazado 657296" d="M281.523,2215.367c-12.5-45.356-68.847-59.967-101.136-26.07q-.7.731-1.39,1.485c-46.292,50.322-24.423,174.329,72.186,205.759s197.1-25.964,202.745-77.271-38.927-67.428-108.1-53.082C306.753,2274.292,289.306,2243.6,281.523,2215.367Z" transform="translate(-133.239 -2170.69)" fill="#d8d2f2"/>
      <path id="Trazado_657297" data-name="Trazado 657297" d="M410.351,2235.874c-12.925,2.1-16.508,13.556-6.528,21.681,3.3,2.685,8.01,4.916,14.722,6.03,25.566,4.241,39.132-7.071,28.885-21.736C441.1,2232.8,423.161,2233.788,410.351,2235.874Z" transform="translate(-181.701 -2183.438)" fill="#d8d2f2"/>
      <path id="Trazado_657298" data-name="Trazado 657298" d="M150.183,2349.147c-8.036-10.34-19.805-8-22.16,4.649-.778,4.181-.481,9.386,1.755,15.811,8.516,24.476,24.942,30.972,32.912,14.954C167.608,2374.674,158.147,2359.4,150.183,2349.147Z" transform="translate(-127.635 -2205.067)" fill="#d8d2f2"/>
      <path id="Trazado_657299" data-name="Trazado 657299" d="M539.8,2360.105c-1.191,6.233,3.956,10.649,9.789,8.247a12.337,12.337,0,0,0,5.6-5.016c6.59-10.251,3.252-19.044-5.923-18.142C543.6,2345.751,540.976,2353.927,539.8,2360.105Z" transform="translate(-209.997 -2205.563)" fill="#d8d2f2"/>
      <path id="Trazado_657300" data-name="Trazado 657300" d="M495.3,2276.893c6.213,1.3,10.715-3.775,8.412-9.646a12.338,12.338,0,0,0-4.919-5.687c-10.138-6.763-18.987-3.576-18.24,5.613C481.014,2272.844,489.145,2275.608,495.3,2276.893Z" transform="translate(-198.179 -2188.132)" fill="#d8d2f2"/>
      <path id="Trazado_657301" data-name="Trazado 657301" d="M308,2193.007c4.919,4.01,11.25,1.58,11.909-4.694a12.34,12.34,0,0,0-1.751-7.313c-5.888-10.67-15.21-11.912-18.777-3.411C297.179,2182.837,303.125,2189.033,308,2193.007Z" transform="translate(-161.875 -2170.952)" fill="#d8d2f2"/>
    </g>
    <g id="Grupo_957386" data-name="Grupo 957386" transform="translate(146.768 2190.977)">
      <g id="Grupo_957352" data-name="Grupo 957352" transform="translate(66.135 186.662)">
        <path id="Trazado_657302" data-name="Trazado 657302" d="M234.413,2459.076c.045,3.016.1,6.155.165,9.329h29.091c.055-3.475.1-6.8.13-9.929.088-8.467.1-15.435.091-19.766,0-3.072-.017-4.815-.017-4.815l-29.664-.314s0,2.563.022,6.754C234.251,2444.993,234.3,2451.663,234.413,2459.076Z" transform="translate(-234.209 -2433.58)" fill="#42335b"/>
        <path id="Trazado_657303" data-name="Trazado 657303" d="M234.237,2441.616c.02,4.659.072,11.328.182,18.741a145.735,145.735,0,0,0,29.386-.6c.088-8.467.1-15.435.091-19.766Z" transform="translate(-234.215 -2434.862)" fill="#190c29"/>
      </g>
      <g id="Grupo_957353" data-name="Grupo 957353" transform="translate(29.637 186.662)">
        <path id="Trazado_657304" data-name="Trazado 657304" d="M188.632,2452.386c.033,4.742.089,10.174.183,16.019h29.094c.072-3.422.13-6.8.177-10.033.1-6.933.152-13.174.178-17.661.022-4.415.022-7.13.022-7.13l-29.677.314s-.023,3.147-.017,8.442C188.593,2445.135,188.606,2448.532,188.632,2452.386Z" transform="translate(-188.592 -2433.58)" fill="#42335b"/>
        <path id="Trazado_657305" data-name="Trazado 657305" d="M188.593,2444.118c0,2.8.014,6.2.039,10.05a181.833,181.833,0,0,0,29.454,5.985c.1-6.933.152-13.174.178-17.661Z" transform="translate(-188.592 -2435.362)" fill="#190c29"/>
      </g>
      <g id="Grupo_957362" data-name="Grupo 957362" transform="translate(41.111)">
        <path id="Trazado_657306" data-name="Trazado 657306" d="M240.245,2230.864s4.676-4.5,4.66-8.948-3.038-3.132-4.66-7.275-6.44-6.669-9.083-6.164-8.222-9.8-15.79-7.983-6.91,11.52-10.169,12.934-2.351,7.175-.633,8.488,2.445,6.593,3.412,6.474S240.245,2230.864,240.245,2230.864Z" transform="translate(-202.95 -2200.278)" fill="#42335b"/>
        <g id="Grupo_957356" data-name="Grupo 957356" transform="translate(0 28.518)">
          <path id="Trazado_657307" data-name="Trazado 657307" d="M208.765,2237.883s-2.939-3.919-5.125-.678.9,12.811,6.255,10.475Z" transform="translate(-202.932 -2235.922)" fill="#f9b68c"/>
          <g id="Grupo_957354" data-name="Grupo 957354" transform="translate(1.148 3.431)">
            <path id="Trazado_657308" data-name="Trazado 657308" d="M209.015,2245.579a.452.452,0,0,1-.435-.33,6.992,6.992,0,0,0-3.921-4.165.452.452,0,0,1,.32-.846A7.785,7.785,0,0,1,209.45,2245a.452.452,0,0,1-.313.558A.44.44,0,0,1,209.015,2245.579Z" transform="translate(-204.366 -2240.21)" fill="#ea8661"/>
          </g>
          <g id="Grupo_957355" data-name="Grupo 957355" transform="translate(2.254 5.208)">
            <path id="Trazado_657309" data-name="Trazado 657309" d="M206.2,2244.535a.452.452,0,0,1-.38-.7,4.124,4.124,0,0,1,1.7-1.368.452.452,0,1,1,.37.825,3.275,3.275,0,0,0-1.307,1.032A.451.451,0,0,1,206.2,2244.535Z" transform="translate(-205.749 -2242.43)" fill="#ea8661"/>
          </g>
        </g>
        <g id="Grupo_957360" data-name="Grupo 957360" transform="translate(34.992 28.518)">
          <path id="Trazado_657310" data-name="Trazado 657310" d="M247.8,2237.883s2.94-3.919,5.125-.678-.9,12.811-6.254,10.475Z" transform="translate(-246.668 -2235.922)" fill="#f9b68c"/>
          <g id="Grupo_957357" data-name="Grupo 957357" transform="translate(0.715 3.431)">
            <path id="Trazado_657311" data-name="Trazado 657311" d="M248.015,2245.579a.452.452,0,0,0,.435-.33,6.988,6.988,0,0,1,3.921-4.165.452.452,0,0,0-.321-.846,7.787,7.787,0,0,0-4.472,4.765.452.452,0,0,0,.314.558A.432.432,0,0,0,248.015,2245.579Z" transform="translate(-247.562 -2240.21)" fill="#ea8661"/>
          </g>
          <g id="Grupo_957359" data-name="Grupo 957359" transform="translate(2.304 5.208)">
            <g id="Grupo_957358" data-name="Grupo 957358">
              <path id="Trazado_657312" data-name="Trazado 657312" d="M251.5,2244.535a.447.447,0,0,0,.244-.072.453.453,0,0,0,.136-.625,4.13,4.13,0,0,0-1.7-1.368.452.452,0,0,0-.369.825,3.269,3.269,0,0,1,1.306,1.032A.451.451,0,0,0,251.5,2244.535Z" transform="translate(-249.547 -2242.43)" fill="#ea8661"/>
            </g>
          </g>
        </g>
        <path id="Trazado_657313" data-name="Trazado 657313" d="M234.716,2260.764v9.519s-2.838,4.847-6.677,5.177-7.242-4.174-7.242-4.174v-9.852Z" transform="translate(-206.504 -2212.37)" fill="#ffd0ad"/>
        <path id="Trazado_657314" data-name="Trazado 657314" d="M234.716,2260.764v4.224c-2.575,2.858-7.15,3.573-13.919,2.573v-6.127Z" transform="translate(-206.504 -2212.37)" fill="#f9b68c"/>
        <path id="Trazado_657315" data-name="Trazado 657315" d="M242.2,2227.226a92.794,92.794,0,0,1-1.235,12.023c-.177.923-.375,1.791-.6,2.568-2,7.013-7.014,19.041-21.04,14.03-6.194-2.211-9.066-9.111-10.345-16.128a67.869,67.869,0,0,1-.936-13.023,9.938,9.938,0,0,1,5.041-8.456c8.279-4.693,17.015-2.943,22.767-.732A9.9,9.9,0,0,1,242.2,2227.226Z" transform="translate(-203.952 -2203.275)" fill="#ffd0ad"/>
        <path id="Trazado_657316" data-name="Trazado 657316" d="M209.222,2245.673s1.361,8.11,2.647,11.065,4.8,3.513,6.118,6.011c1.881,3.563,4.749,6.385,9.465,4.665,3.924-1.431,3.747-3.438,5.945-4.99,3.766-2.66,5.633-5.586,5.785-8.011a76.906,76.906,0,0,1,2.023-9.21l-2.023-.142a52.618,52.618,0,0,1-2.847,5.014c-1.7-3.735-9.895-1.018-9.895-1.018l-1.564.506-1.607-.506s-8.291-2.6-9.928,1.315a14.768,14.768,0,0,1-2.188-5.087Zm15.655,5.153c9.4-1.612,7.718,3.89,7.658,4.087v0l0,0a9.311,9.311,0,0,1-1.931,1.464c-3.641,1.968-4.035,1.67-5.472,1.734a10.809,10.809,0,0,1-5.524-1.506,15.726,15.726,0,0,1-2.631-2S215.5,2249.563,224.877,2250.826Z" transform="translate(-204.19 -2209.23)" fill="#42335b"/>
        <path id="Trazado_657317" data-name="Trazado 657317" d="M221.144,2239.466c0,1.016-.523,1.84-1.169,1.84s-1.17-.823-1.17-1.84.523-1.839,1.17-1.839S221.144,2238.45,221.144,2239.466Z" transform="translate(-206.105 -2207.744)" fill="#42335b"/>
        <path id="Trazado_657318" data-name="Trazado 657318" d="M238.522,2239.466c0,1.016-.524,1.84-1.17,1.84s-1.17-.823-1.17-1.84.523-1.839,1.17-1.839S238.522,2238.45,238.522,2239.466Z" transform="translate(-209.579 -2207.744)" fill="#42335b"/>
        <path id="Trazado_657319" data-name="Trazado 657319" d="M241.262,2232.118s-4.833-1.91-8.555-.3l.373,2.07s5.461-.462,8.213.654A3.591,3.591,0,0,0,241.262,2232.118Z" transform="translate(-208.885 -2206.454)" fill="#42335b"/>
        <path id="Trazado_657320" data-name="Trazado 657320" d="M214.621,2232.128s4.869-1.924,8.617-.3l-.374,2.085s-5.5-.465-8.274.658A3.618,3.618,0,0,1,214.621,2232.128Z" transform="translate(-205.223 -2206.455)" fill="#42335b"/>
        <g id="Grupo_957361" data-name="Grupo 957361" transform="translate(19.454 30.586)">
          <path id="Trazado_657321" data-name="Trazado 657321" d="M228.928,2247.352a4.828,4.828,0,0,0,1.637-.345.452.452,0,0,0-.342-.837,2.711,2.711,0,0,1-1.813.171.488.488,0,0,1-.222-.421,68.372,68.372,0,0,1,.273-6.925.452.452,0,1,0-.9-.074,66.915,66.915,0,0,0-.271,7.092,1.38,1.38,0,0,0,.657,1.1A1.905,1.905,0,0,0,228.928,2247.352Z" transform="translate(-227.247 -2238.506)" fill="#f9b68c"/>
        </g>
        <path id="Trazado_657322" data-name="Trazado 657322" d="M222.143,2253.4c.343,1.727,1.484,4.9,5.328,4.9s4.933-2.9,5.305-4.9Z" transform="translate(-206.773 -2210.897)" fill="#fff"/>
        <path id="Trazado_657323" data-name="Trazado 657323" d="M242.2,2227.226a92.794,92.794,0,0,1-1.235,12.023l-2.021-.143s.49-3.123.715-5.158.61-5.837-1.126-6.313-.716-4.809-3.126-6.689-7.763-3.545-11.318-1.357-7.6.977-9.233,1.357-3.866,2.636-3.264,4.748-1.2,3.39-1.642,5.575.963,8.063.963,8.063l-1.931.389a67.869,67.869,0,0,1-.936-13.023,9.938,9.938,0,0,1,5.041-8.456c8.279-4.693,17.015-2.943,22.767-.732A9.9,9.9,0,0,1,242.2,2227.226Z" transform="translate(-203.952 -2203.275)" fill="#42335b"/>
      </g>
      <g id="Grupo_957383" data-name="Grupo 957383" transform="translate(23.48 58.027)">
        <g id="Grupo_957363" data-name="Grupo 957363">
          <path id="Trazado_657324" data-name="Trazado 657324" d="M259.363,2416.056a160.839,160.839,0,0,1-27.453,4.505c-.415.03-.826.061-1.242.089q-1.888.127-3.775.209a155.791,155.791,0,0,1-18.685-.317q-1.885-.145-3.767-.337-.6-.056-1.207-.126a163.662,163.662,0,0,1-22.314-4.024c-.074-6.856.01-28.531.431-52.038.049-2.825.1-5.677.166-8.531.659-30.98,1.931-62.428,4.22-65.578,2.194-3.015,8.807-6.846,15.128-10.3l1.129-.615c1.422-.772,2.811-1.52,4.118-2.23,2.8-1.525,5.217-2.88,6.709-3.927v.862s3.4,4.5,7.24,4.172c3.5-.3,6.158-4.34,6.609-5.063a88.8,88.8,0,0,0,8.046,4.577c.955.507,1.943,1.024,2.952,1.559l1.119.593c6.992,3.708,14.53,7.889,16.792,11a3.869,3.869,0,0,1,.484,1.143c1.339,4.533,2.169,19.577,2.675,37.794l.006.2q.032,1.1.058,2.224c0,.1.006.2.008.295.165,6.39.29,13.117.387,19.876.008.537.018,1.073.024,1.61,0,.27.006.536.008.806.022,1.331.036,2.662.049,3.987q.02,1.466.034,2.932C259.566,2385.826,259.464,2408.873,259.363,2416.056Z" transform="translate(-180.896 -2272.804)" fill="#7342de"/>
        </g>
        <g id="Grupo_957364" data-name="Grupo 957364" transform="translate(67.423 42.614)">
          <path id="Trazado_657325" data-name="Trazado 657325" d="M275.651,2342.536c-2.2-3.6-4.565-7.266-6.792-10.512a.15.15,0,0,1-.016-.024c-.936-1.363-1.845-2.65-2.711-3.825a.461.461,0,0,0-.044-.061c-.27-.369-.538-.728-.8-1.077a.668.668,0,0,1-.094-.19h0a.608.608,0,0,1,1.067-.539c2.674,3.543,6.093,8.637,9.328,13.807l.006.2Q275.625,2341.416,275.651,2342.536Z" transform="translate(-265.166 -2326.066)" fill="#895fbe"/>
        </g>
        <path id="Trazado_657326" data-name="Trazado 657326" d="M273.818,2294.333s13.8,25.278,22.208,38.089c0,0,4.783-4.394,11-10.271,6.744-6.374,15.969-17.026,15.969-17.026l5.1,6.053s-20.725,37.3-30.021,41.984-26.426-28.49-26.426-28.49Z" transform="translate(-199.04 -2277.108)" fill="#7342de"/>
        <g id="Grupo_957365" data-name="Grupo 957365" transform="translate(5.463 87.954)">
          <path id="Trazado_657327" data-name="Trazado 657327" d="M198.619,2411.632H198.6a.623.623,0,0,1-.6-.646c.723-20.414-9.862-27.029-9.969-27.092a.624.624,0,0,1,.64-1.072,19,19,0,0,1,5.626,6.126c2.475,3.977,5.341,11.035,4.949,22.082A.623.623,0,0,1,198.619,2411.632Z" transform="translate(-187.723 -2382.734)" fill="#895fbe"/>
        </g>
        <g id="Grupo_957366" data-name="Grupo 957366" transform="translate(60.847 63.008)">
          <path id="Trazado_657328" data-name="Trazado 657328" d="M257.617,2386.167a.625.625,0,0,1-.622-.576c-.334-4.3,1.081-7.434,2.874-11.4.525-1.161,1.067-2.362,1.622-3.708,3.48-8.439,1.731-18.087,1.713-18.184a.624.624,0,0,1,1.227-.23c.077.409,1.834,10.112-1.785,18.889-.563,1.366-1.11,2.575-1.639,3.746-1.787,3.956-3.077,6.814-2.767,10.794a.624.624,0,0,1-.574.67Z" transform="translate(-256.946 -2351.555)" fill="#895fbe"/>
        </g>
        <g id="Grupo_957379" data-name="Grupo 957379" transform="translate(25.216)">
          <path id="Trazado_657329" data-name="Trazado 657329" d="M212.412,2276.76c.267,2.01.658,4.617,1.086,7.579.13.879.261,1.791.394,2.728.434,3.059.883,6.387,1.264,9.752.1.9.2,1.81.291,2.713.337,3.332.591,6.642.682,9.719.03.93.042,1.84.036,2.723a43.249,43.249,0,0,1-.421,6.354q-.274,1.751-.486,3.423-.178,1.387-.318,2.728c-.363,3.471-.546,6.7-.6,9.749q-.023,1.387-.009,2.719c.027,3.459.224,6.681.509,9.749.085.918.179,1.822.276,2.713.373,3.353.827,6.545,1.255,9.7q.186,1.355.363,2.7c.185,1.443.361,2.886.513,4.338.16,1.54.263,3.341.312,5.338.024.873.036,1.786.039,2.729.012,2.986-.064,6.293-.2,9.752q-.054,1.355-.121,2.743c-.155,3.213-.358,6.518-.586,9.779q-.1,1.378-.2,2.74c-.252,3.4-.531,6.7-.813,9.78q-.127,1.4-.254,2.731c-.325,3.387-.64,6.4-.915,8.8a155.7,155.7,0,0,0,18.686.315c.145-2.556.542-6.678.934-11.532.073-.888.142-1.8.212-2.737.234-3.087.446-6.385.585-9.713q.059-1.369.1-2.741c.094-3.322.1-6.623-.045-9.719q-.064-1.409-.17-2.752-.109-1.373-.266-2.668a54.414,54.414,0,0,1-.4-7.075c0-.915.027-1.825.07-2.737.142-3.165.488-6.336.888-9.7.106-.894.218-1.8.33-2.731.361-2.995.737-6.172,1.034-9.649.079-.891.149-1.8.215-2.737.206-2.983.346-6.188.367-9.679q.008-1.351-.01-2.759c-.033-3.023-.16-6.258-.406-9.74-.022-.31-.043-.622-.067-.937-.046-.61-.085-1.225-.112-1.84a92.5,92.5,0,0,1,.061-9.7q.072-1.374.178-2.747c.252-3.262.618-6.493,1.043-9.592.124-.922.254-1.834.388-2.731.509-3.4,1.058-6.59,1.561-9.447.167-.939.327-1.843.479-2.7.342-1.928.639-3.647.858-5.1a89.07,89.07,0,0,1-8.046-4.577c-.452.724-3.113,4.762-6.612,5.062-3.835.334-7.239-4.171-7.239-4.171v-.862C217.629,2273.88,215.213,2275.235,212.412,2276.76Z" transform="translate(-212.412 -2272.804)" fill="#fff"/>
          <g id="Grupo_957378" data-name="Grupo 957378" transform="translate(1.086 9.102)">
            <g id="Grupo_957367" data-name="Grupo 957367">
              <path id="Trazado_657330" data-name="Trazado 657330" d="M213.769,2286.613c.13.879.261,1.792.394,2.729a50.65,50.65,0,0,0,12.351-1.562,32.906,32.906,0,0,1,13.438-.318c.167-.939.327-1.843.479-2.7a35.631,35.631,0,0,0-14.53.366A47.417,47.417,0,0,1,213.769,2286.613Z" transform="translate(-213.769 -2284.181)" fill="#e3e3e3"/>
            </g>
            <g id="Grupo_957368" data-name="Grupo 957368" transform="translate(1.658 12.464)">
              <path id="Trazado_657331" data-name="Trazado 657331" d="M215.841,2302.208c.1.9.2,1.81.291,2.713a54.965,54.965,0,0,0,10.8-1.559,32.853,32.853,0,0,1,11.489-.609c.124-.921.254-1.834.388-2.731a35.811,35.811,0,0,0-12.49.682A52.469,52.469,0,0,1,215.841,2302.208Z" transform="translate(-215.841 -2299.758)" fill="#e3e3e3"/>
            </g>
            <g id="Grupo_957369" data-name="Grupo 957369" transform="translate(2.631 24.933)">
              <path id="Trazado_657332" data-name="Trazado 657332" d="M217.058,2317.755c.03.931.042,1.84.036,2.723a57.222,57.222,0,0,0,10.077-1.531,33.038,33.038,0,0,1,10.268-.739q.072-1.374.178-2.747a35.945,35.945,0,0,0-11.059.827A55.625,55.625,0,0,1,217.058,2317.755Z" transform="translate(-217.058 -2315.343)" fill="#e3e3e3"/>
            </g>
            <g id="Grupo_957370" data-name="Grupo 957370" transform="translate(1.443 37.402)">
              <path id="Trazado_657333" data-name="Trazado 657333" d="M215.572,2336.1a53.782,53.782,0,0,0,11.3-1.567,32.951,32.951,0,0,1,10.386-.727c-.022-.31-.043-.622-.067-.937-.046-.61-.085-1.225-.112-1.84a35.946,35.946,0,0,0-10.82.845,52.629,52.629,0,0,1-10.371,1.5Q215.713,2334.757,215.572,2336.1Z" transform="translate(-215.572 -2330.927)" fill="#e3e3e3"/>
            </g>
            <g id="Grupo_957371" data-name="Grupo 957371" transform="translate(0.831 49.87)">
              <path id="Trazado_657334" data-name="Trazado 657334" d="M214.814,2351.682a51.906,51.906,0,0,0,11.908-1.568,33.02,33.02,0,0,1,10.8-.7q.008-1.351-.01-2.759a35.918,35.918,0,0,0-11.4.8,49.866,49.866,0,0,1-11.286,1.507Q214.8,2350.35,214.814,2351.682Z" transform="translate(-214.808 -2346.511)" fill="#e3e3e3"/>
            </g>
            <g id="Grupo_957372" data-name="Grupo 957372" transform="translate(1.346 62.338)">
              <path id="Trazado_657335" data-name="Trazado 657335" d="M215.451,2364.546c.085.918.179,1.822.276,2.713a54.176,54.176,0,0,0,11.123-1.561,32.958,32.958,0,0,1,10.219-.749c.079-.891.149-1.8.215-2.737a35.857,35.857,0,0,0-11.047.827A51.574,51.574,0,0,1,215.451,2364.546Z" transform="translate(-215.451 -2362.095)" fill="#e3e3e3"/>
            </g>
            <g id="Grupo_957373" data-name="Grupo 957373" transform="translate(2.877 74.806)">
              <path id="Trazado_657336" data-name="Trazado 657336" d="M217.365,2380.076q.186,1.355.363,2.7a59.073,59.073,0,0,0,9.5-1.5,33.2,33.2,0,0,1,8.855-.837c.106-.894.218-1.8.33-2.731a36.12,36.12,0,0,0-9.8.91A56.807,56.807,0,0,1,217.365,2380.076Z" transform="translate(-217.365 -2377.678)" fill="#e3e3e3"/>
            </g>
            <g id="Grupo_957374" data-name="Grupo 957374" transform="translate(4.065 87.276)">
              <path id="Trazado_657337" data-name="Trazado 657337" d="M218.85,2395.572c.024.873.036,1.786.039,2.728a61.359,61.359,0,0,0,8.64-1.437,33.537,33.537,0,0,1,7.9-.861c0-.915.027-1.825.07-2.737a36.347,36.347,0,0,0-8.579.942A61.083,61.083,0,0,1,218.85,2395.572Z" transform="translate(-218.85 -2393.264)" fill="#e3e3e3"/>
            </g>
            <g id="Grupo_957375" data-name="Grupo 957375" transform="translate(3.78 99.744)">
              <path id="Trazado_657338" data-name="Trazado 657338" d="M218.494,2413.912a61.35,61.35,0,0,0,8.964-1.464,33.1,33.1,0,0,1,8.734-.833q-.064-1.409-.17-2.752a36.225,36.225,0,0,0-9.176.927,59.525,59.525,0,0,1-8.23,1.379Q218.561,2412.523,218.494,2413.912Z" transform="translate(-218.494 -2408.847)" fill="#e3e3e3"/>
            </g>
            <g id="Grupo_957376" data-name="Grupo 957376" transform="translate(2.992 112.209)">
              <path id="Trazado_657339" data-name="Trazado 657339" d="M217.509,2429.546a58.526,58.526,0,0,0,9.752-1.515,33.215,33.215,0,0,1,8.682-.842c.039-.913.073-1.828.1-2.741a36.24,36.24,0,0,0-9.391.925,57.177,57.177,0,0,1-8.937,1.434Q217.612,2428.183,217.509,2429.546Z" transform="translate(-217.509 -2424.426)" fill="#e3e3e3"/>
            </g>
            <g id="Grupo_957377" data-name="Grupo 957377" transform="translate(1.925 124.68)">
              <path id="Trazado_657340" data-name="Trazado 657340" d="M216.175,2445.173a55,55,0,0,0,10.82-1.558,33.206,33.206,0,0,1,7.885-.861c.073-.888.142-1.8.212-2.737a36.141,36.141,0,0,0-8.71.939,54.292,54.292,0,0,1-9.952,1.486C216.345,2443.376,216.26,2444.288,216.175,2445.173Z" transform="translate(-216.175 -2440.013)" fill="#e3e3e3"/>
            </g>
          </g>
        </g>
        <g id="Grupo_957382" data-name="Grupo 957382" transform="translate(19.969 6.135)">
          <g id="Grupo_957380" data-name="Grupo 957380" transform="translate(29.802)">
            <path id="Trazado_657341" data-name="Trazado 657341" d="M243.1,2422.183c.415-.027.827-.058,1.243-.088,2.455-14.436,1.04-35.626.513-42.12-.546-6.742.5-15.412,2.876-23.778,1.843-6.5.713-21.57-.194-33.677-.254-3.4-.5-6.609-.639-9.246-.464-8.525,2.622-24.3,4.323-32.207l-1.119-.594c-1.7,7.827-4.9,23.961-4.416,32.868.146,2.65.388,5.866.642,9.271.9,12.014,2.022,26.962.239,33.252-2.413,8.5-3.476,17.327-2.919,24.209C244.176,2386.575,245.6,2407.9,243.1,2422.183Z" transform="translate(-243.103 -2280.472)" fill="#895fbe"/>
          </g>
          <g id="Grupo_957381" data-name="Grupo 957381" transform="translate(0 0.052)">
            <path id="Trazado_657342" data-name="Trazado 657342" d="M210.5,2363.457c1.443,8.876.988,14.642.461,21.314-.17,2.159-.346,4.387-.47,6.848-.385,7.724-1.692,23.279-2.271,30.006.4.046.8.088,1.207.127.578-6.727,1.888-22.321,2.276-30.072.122-2.443.3-4.665.467-6.812.53-6.751.991-12.584-.476-21.605-.312-1.937-.646-3.9-.976-5.857-1.634-9.673-3.326-19.677-2.525-24.47.194-1.171.442-2.5.709-3.9,1.086-5.784,2.44-12.981,2.013-19.226-.424-6.19-2.962-22.951-3.935-29.269q-.564.3-1.131.615c1.015,6.606,3.444,22.724,3.856,28.735.415,6.09-.922,13.205-1.995,18.919-.266,1.413-.518,2.747-.715,3.929-.83,4.992.8,14.648,2.528,24.873C209.858,2359.562,210.189,2361.523,210.5,2363.457Z" transform="translate(-205.854 -2280.537)" fill="#895fbe"/>
          </g>
        </g>
      </g>
      <g id="Grupo_957385" data-name="Grupo 957385" transform="translate(0 75.8)">
        <path id="Trazado_657343" data-name="Trazado 657343" d="M175.786,2307.027s-12.351,41.188-15.41,55.866-3.3,45.192-3.3,45.192-5.4,11.209-5.527,16.2c-.136,5.318,2.655,9.549,2.337,13.029s3.918,1.591,2.721-5.458,2.2-13.433,3.664-13.228-1.212,7.7.089,10.4,2.986-2.544,4.661-5.727c1.739-3.3,1.637-10.512.846-15.658s8.538-36.4,8.583-45.461l11.812-39.916S182.364,2305.6,175.786,2307.027Z" transform="translate(-151.549 -2297.401)" fill="#ffd0ad"/>
        <path id="Trazado_657344" data-name="Trazado 657344" d="M188.913,2318.873c-.418,2.647-1.883,7.191-3.774,12.909v0c-.161.482-.325.973-.488,1.473a.393.393,0,0,0-.024.07c-.474,1.422-.967,2.91-1.477,4.45l-.009.028c-2.095,6.36-4.414,13.635-6.36,21.111-.67,2.559-1.295,5.145-1.85,7.721-.709,3.289-1.309,6.57-1.749,9.78-1.579,11.565-4.6,26.213-4.6,26.213-4.428,1.819-11.352-.582-11.352-.582s-.179-21.1.809-29.294a219.578,219.578,0,0,1,4.705-25.631c5.3-22.794,14.642-45.1,17.2-51.011.2-.473.364-.84.476-1.094h2.2C186.966,2297.773,190.043,2311.743,188.913,2318.873Z" transform="translate(-152.682 -2295.018)" fill="#7342de"/>
        <path id="Trazado_657345" data-name="Trazado 657345" d="M156.784,2423.511l.347,4.854s6.583,2.14,11.518.633l1.3-4.329C165.2,2424.92,160.812,2424.8,156.784,2423.511Z" transform="translate(-152.596 -2320.705)" fill="#724af8"/>
        <g id="Grupo_957384" data-name="Grupo 957384" transform="translate(22.249 36.162)">
          <path id="Trazado_657346" data-name="Trazado 657346" d="M189.565,2340.817v0a.616.616,0,0,1-.037.209c-.148.41-.3.831-.451,1.264a.4.4,0,0,0-.024.07c-.486,1.376-.979,2.874-1.477,4.45l-.009.028a239.218,239.218,0,0,0-6.409,25.1q.018-1.987.049-3.986c-.671,2.559-1.295,5.145-1.85,7.721a93.142,93.142,0,0,1,1.883-10.137,237.363,237.363,0,0,1,7.149-24.922.607.607,0,0,1,1.176.2Z" transform="translate(-179.357 -2340.215)" fill="#895fbe"/>
        </g>
      </g>
    </g>
    <g id="Grupo_957422" data-name="Grupo 957422" transform="translate(309.588 2190.135)">
      <g id="Grupo_957390" data-name="Grupo 957390" transform="translate(89.336 199.742)">
        <g id="Grupo_957388" data-name="Grupo 957388">
          <g id="Grupo_957387" data-name="Grupo 957387">
            <path id="Trazado_657347" data-name="Trazado 657347" d="M467.944,2471.462H497.12c-.1-2.023-.193-3.964-.286-5.795-.509-9.99-.941-16.792-.941-16.792l-23.727,1.053-1.967.089-3.49.157s.337,6.082.861,14.994C467.686,2467.138,467.812,2469.249,467.944,2471.462Z" transform="translate(-466.709 -2448.875)" fill="#42335b"/>
          </g>
        </g>
        <path id="Trazado_657348" data-name="Trazado 657348" d="M470.2,2450.017l-3.49.157s.337,6.082.861,14.994a212.073,212.073,0,0,0,29.264.5c-.509-9.99-.941-16.792-.941-16.792l-23.727,1.053Z" transform="translate(-466.709 -2448.875)" fill="#190c29"/>
        <g id="Grupo_957389" data-name="Grupo 957389" transform="translate(3.488 1.055)">
          <path id="Trazado_657349" data-name="Trazado 657349" d="M474.247,2471.726c-.533-9.247-.971-17.147-1.211-21.532l-1.967.088c.239,4.366.674,12.229,1.207,21.444Z" transform="translate(-471.069 -2450.194)" fill="#190c29"/>
        </g>
      </g>
      <g id="Grupo_957394" data-name="Grupo 957394" transform="translate(52.837 199.742)">
        <g id="Grupo_957392" data-name="Grupo 957392">
          <g id="Grupo_957391" data-name="Grupo 957391">
            <path id="Trazado_657350" data-name="Trazado 657350" d="M450.265,2471.462c.15-2.5.291-4.88.42-7.07.5-8.488.818-14.218.818-14.218l-3.787-.169-1.964-.089-23.436-1.042s-.258,4.054-.61,10.5c-.186,3.434-.4,7.549-.616,12.089Z" transform="translate(-421.09 -2448.875)" fill="#42335b"/>
          </g>
        </g>
        <path id="Trazado_657351" data-name="Trazado 657351" d="M421.86,2459.373a257.975,257.975,0,0,0,28.979,5.02c.5-8.488.818-14.218.818-14.218l-3.787-.169-1.964-.089-23.436-1.042S422.212,2452.929,421.86,2459.373Z" transform="translate(-421.244 -2448.875)" fill="#190c29"/>
        <g id="Grupo_957393" data-name="Grupo 957393" transform="translate(23.449 1.042)">
          <path id="Trazado_657352" data-name="Trazado 657352" d="M452.368,2471.723c.532-9.224.967-17.093,1.206-21.457l-1.964-.089c-.24,4.384-.678,12.289-1.211,21.546Z" transform="translate(-450.398 -2450.177)" fill="#190c29"/>
        </g>
      </g>
      <g id="Grupo_957401" data-name="Grupo 957401" transform="translate(49.834 59.369)">
        <g id="Grupo_957396" data-name="Grupo 957396">
          <g id="Grupo_957395" data-name="Grupo 957395">
            <path id="Trazado_657353" data-name="Trazado 657353" d="M490.259,2418.349a140.045,140.045,0,0,1-17.828,3.7q-3.1.436-6.2.722-4.176.386-8.352.518a132.042,132.042,0,0,1-13.814-.3,140,140,0,0,1-26.709-4.638c-.082-8.3.042-38.074.666-66.79.03-1.288.058-2.577.09-3.859,0-.272.012-.544.018-.817.006-.3.014-.593.022-.888.021-.911.045-1.818.067-2.722q.07-2.768.147-5.485.048-1.624.1-3.226c.006-.222.014-.442.02-.662q.032-1.056.066-2.1h0c.008-.216.014-.432.022-.647.02-.642.042-1.279.062-1.91.02-.539.038-1.069.056-1.6.69-19.371,1.7-34.65,3.142-36.8,2.448-3.652,10.787-8.5,17.493-12.446,2.39-1.4,5.244-2.864,6.877-3.946,2.382,1.918,4.11,3.65,7.641,3.531,3.95-.135,4.925-2.511,6.43-4.547.92.6,3.255,2.512,4.468,3.224,1.039.613,2.164,1.263,3.338,1.938,1.815,1.038,3.744,2.142,5.656,3.267,2.834,1.667,5.626,3.388,7.943,5.031a20.958,20.958,0,0,1,5.06,4.576c1.311,1.968,2.159,14.71,2.706,31.48.022.586.038,1.182.061,1.78,0,.073,0,.146,0,.22.022.609.041,1.235.054,1.86q.082,2.831.158,5.775c.01.414.02.831.026,1.247.008.312.018.627.02.935.018.807.036,1.615.054,2.432,0,.164.006.327.01.49.044,2.152.086,4.334.125,6.534.012.643.022,1.289.032,1.934C490.489,2376.34,490.374,2409.428,490.259,2418.349Z" transform="translate(-417.337 -2273.429)" fill="#7342de"/>
          </g>
        </g>
        <path id="Trazado_657354" data-name="Trazado 657354" d="M490.2,2359.862l-9.411,9.547-8.768-8.889-8.766,8.889-8.8-8.925-8.8,8.925-8.859-8.983-8.861,8.983-9.567-9.7c.021-.911.045-1.819.067-2.722q.07-2.768.147-5.486l9.352-9.485,8.861,8.985,8.859-8.985,8.8,8.925,8.8-8.925,8.766,8.888,8.768-8.888,9.254,9.38c.044,2.152.086,4.334.125,6.533Q490.181,2358.893,490.2,2359.862Z" transform="translate(-417.541 -2287.14)" fill="#895fbe"/>
        <g id="Grupo_957397" data-name="Grupo 957397" transform="translate(14.241 99.833)">
          <path id="Trazado_657355" data-name="Trazado 657355" d="M477.3,2420.3h0c-12.6-.055-23.357-5.79-30.161-10.59a69.078,69.078,0,0,1-11.862-10.505.606.606,0,1,1,.928-.781,67.851,67.851,0,0,0,11.661,10.315c6.656,4.691,17.166,10.295,29.439,10.348a.606.606,0,0,1,0,1.213Z" transform="translate(-435.136 -2398.206)" fill="#895fbe"/>
        </g>
        <g id="Grupo_957398" data-name="Grupo 957398" transform="translate(27.685 102.706)">
          <path id="Trazado_657356" data-name="Trazado 657356" d="M472.8,2413.563c-10.729-2.109-20.227-10.327-20.657-10.7a.606.606,0,0,1,.8-.913c.112.1,11.288,9.762,22.678,10.8a.606.606,0,1,1-.11,1.207A26.454,26.454,0,0,1,472.8,2413.563Z" transform="translate(-451.939 -2401.797)" fill="#895fbe"/>
        </g>
        <g id="Grupo_957399" data-name="Grupo 957399" transform="translate(26.456 6.765)">
          <path id="Trazado_657357" data-name="Trazado 657357" d="M451.009,2296.342a.607.607,0,0,1-.113-1.2c15.363-2.915,19.994-12.8,20.039-12.9a.606.606,0,1,1,1.1.5c-.194.429-4.941,10.558-20.918,13.589A.6.6,0,0,1,451.009,2296.342Z" transform="translate(-450.403 -2281.884)" fill="#895fbe"/>
        </g>
        <g id="Grupo_957400" data-name="Grupo 957400" transform="translate(1.15 47.095)">
          <path id="Trazado_657358" data-name="Trazado 657358" d="M425.94,2333.022v0a.591.591,0,0,1-.082.193c-.23.369-.47.75-.71,1.139-.012.022-.026.04-.037.064-.768,1.242-1.569,2.6-2.393,4.033a.044.044,0,0,1-.014.024c-1.289,2.257-2.623,4.7-3.93,7.187q.032-1.056.066-2.1h0c.008-.216.014-.432.022-.647,2.107-3.912,4.208-7.572,5.971-10.347a.607.607,0,0,1,1.107.45Z" transform="translate(-418.774 -2332.291)" fill="#895fbe"/>
        </g>
      </g>
      <g id="Grupo_957404" data-name="Grupo 957404" transform="translate(104.356 0)">
        <path id="Trazado_657359" data-name="Trazado 657359" d="M522.229,2289.915s19.646-6.313,25.46-19.205c1.682-3.734-12.171-41.641-12.171-41.641l-6.686.323s1.906,13.153,3.06,20.6c.95,6.123,2.484,13.44,3,15.849.113.523.176.814.176.814-.328.056-.657.119-.992.187-9.179,1.864-20.9,7.843-20.9,7.843Z" transform="translate(-491.019 -2205.191)" fill="#ffd0ad"/>
        <g id="Grupo_957403" data-name="Grupo 957403" transform="translate(43.059 60.649)">
          <g id="Grupo_957402" data-name="Grupo 957402">
            <path id="Trazado_657360" data-name="Trazado 657360" d="M545.226,2279.474a.63.63,0,0,0,.879-.138.618.618,0,0,0-.138-.879,49.483,49.483,0,0,0-5.852-3.429c.113.523.176.813.176.813-.328.056-.657.119-.992.187A49.57,49.57,0,0,1,545.226,2279.474Z" transform="translate(-539.299 -2275.028)" fill="#f9b68c"/>
          </g>
        </g>
        <path id="Trazado_657361" data-name="Trazado 657361" d="M486.632,2282.194s-5.942,13.945,9.186,21.709c10.47,5.373,34.321-8.655,34.321-8.655l-8.5-18.054S499.813,2286.2,486.632,2282.194Z" transform="translate(-485.481 -2214.812)" fill="#7342de"/>
        <path id="Trazado_657362" data-name="Trazado 657362" d="M533.731,2201.789c-.592.414-.47,2.976-.21,5.389-.083.012-.169.026-.254.042-.7-3.22-2.1-8.7-3.3-7.651-.784.684.266,5.406.981,8.23q-.222.068-.444.141c-.9-3.353-2.846-9.811-4.14-8.554-.862.837.794,6.524,1.715,9.424l-.377.149c-.88-2.814-2.76-8.137-4.048-6.887-1.167,1.132,2.175,9.18,2.175,9.18h0l.876,3.159s-1.041.449-2.666-1.389-3.569-2.162-2.219.5c1.526,3.006,3.784,5.162,4.777,7.288s4.121,2.83,4.121,2.83l6.278-.3s1.218-10.612-1.125-15.67h0C535.468,2204.657,534.762,2201.067,533.731,2201.789Z" transform="translate(-492.655 -2199.225)" fill="#ffd0ad"/>
      </g>
      <g id="Grupo_957420" data-name="Grupo 957420" transform="translate(64.256 7.689)">
        <path id="Trazado_657363" data-name="Trazado 657363" d="M439.731,2228.183c0,10.694,6.584,18.063,17.273,18.063s18.149-7.922,18.149-18.616a22.918,22.918,0,0,0-1.407-8.139c-.054-.146-.109-.29-.168-.431-.114-.277-.231-.554-.358-.821-.186-.414-.394-.817-.613-1.208-2.786-5.009-7.776-8.194-14.482-8.194C445.3,2208.836,439.731,2217.489,439.731,2228.183Z" transform="translate(-436.235 -2208.836)" fill="#42335b"/>
        <g id="Grupo_957407" data-name="Grupo 957407" transform="translate(0 21.969)">
          <path id="Trazado_657364" data-name="Trazado 657364" d="M441.259,2238.277s-2.971-3.961-5.181-.686.915,12.949,6.323,10.588Z" transform="translate(-435.362 -2236.294)" fill="#f9b68c"/>
          <g id="Grupo_957405" data-name="Grupo 957405" transform="translate(1.16 3.468)">
            <path id="Trazado_657365" data-name="Trazado 657365" d="M441.51,2246.056a.458.458,0,0,1-.44-.334,7.064,7.064,0,0,0-3.964-4.209.457.457,0,0,1,.324-.855,7.872,7.872,0,0,1,4.52,4.817.458.458,0,0,1-.317.564A.466.466,0,0,1,441.51,2246.056Z" transform="translate(-436.812 -2240.628)" fill="#ea8661"/>
          </g>
          <g id="Grupo_957406" data-name="Grupo 957406" transform="translate(2.278 5.263)">
            <path id="Trazado_657366" data-name="Trazado 657366" d="M438.666,2245a.457.457,0,0,1-.384-.7,4.176,4.176,0,0,1,1.715-1.382.457.457,0,1,1,.374.833,3.307,3.307,0,0,0-1.32,1.044A.458.458,0,0,1,438.666,2245Z" transform="translate(-438.209 -2242.873)" fill="#ea8661"/>
          </g>
        </g>
        <g id="Grupo_957411" data-name="Grupo 957411" transform="translate(35.37 21.969)">
          <path id="Trazado_657367" data-name="Trazado 657367" d="M480.713,2238.277s2.971-3.961,5.18-.686-.915,12.949-6.323,10.588Z" transform="translate(-479.57 -2236.294)" fill="#f9b68c"/>
          <g id="Grupo_957408" data-name="Grupo 957408" transform="translate(0.724 3.468)">
            <path id="Trazado_657368" data-name="Trazado 657368" d="M480.933,2246.056a.457.457,0,0,0,.439-.334,7.064,7.064,0,0,1,3.964-4.209.457.457,0,0,0-.324-.855,7.87,7.87,0,0,0-4.521,4.817.458.458,0,0,0,.317.564A.476.476,0,0,0,480.933,2246.056Z" transform="translate(-480.475 -2240.628)" fill="#ea8661"/>
          </g>
          <g id="Grupo_957410" data-name="Grupo 957410" transform="translate(2.33 5.263)">
            <g id="Grupo_957409" data-name="Grupo 957409">
              <path id="Trazado_657369" data-name="Trazado 657369" d="M484.457,2245a.457.457,0,0,0,.383-.7,4.161,4.161,0,0,0-1.715-1.382.457.457,0,1,0-.373.833,3.307,3.307,0,0,1,1.32,1.044A.457.457,0,0,0,484.457,2245Z" transform="translate(-482.482 -2242.873)" fill="#ea8661"/>
            </g>
          </g>
        </g>
        <path id="Trazado_657370" data-name="Trazado 657370" d="M467.49,2261.405v9.621s-2.869,4.9-6.75,5.233-7.321-4.219-7.321-4.219v-9.959Z" transform="translate(-438.972 -2219.345)" fill="#ffd0ad"/>
        <path id="Trazado_657371" data-name="Trazado 657371" d="M467.49,2261.405v4.269c-2.6,2.889-7.228,3.611-14.07,2.6v-6.193Z" transform="translate(-438.972 -2219.345)" fill="#f9b68c"/>
        <path id="Trazado_657372" data-name="Trazado 657372" d="M475.055,2227.5a93.648,93.648,0,0,1-1.248,12.153c-.178.933-.379,1.811-.6,2.6-2.025,7.089-7.089,19.247-21.267,14.182-6.261-2.235-9.164-9.21-10.457-16.3a68.569,68.569,0,0,1-.947-13.163,10.044,10.044,0,0,1,5.1-8.546c8.369-4.745,17.2-2.976,23.013-.741A10.013,10.013,0,0,1,475.055,2227.5Z" transform="translate(-436.393 -2210.152)" fill="#ffd0ad"/>
        <path id="Trazado_657373" data-name="Trazado 657373" d="M453.676,2239.876c0,1.027-.53,1.859-1.183,1.859s-1.182-.832-1.182-1.859.529-1.859,1.182-1.859S453.676,2238.849,453.676,2239.876Z" transform="translate(-438.551 -2214.67)" fill="#42335b"/>
        <path id="Trazado_657374" data-name="Trazado 657374" d="M471.092,2239.828c0,1.027-.529,1.859-1.182,1.859s-1.183-.832-1.183-1.859.53-1.859,1.183-1.859S471.092,2238.8,471.092,2239.828Z" transform="translate(-442.032 -2214.66)" fill="#42335b"/>
        <path id="Trazado_657375" data-name="Trazado 657375" d="M473.373,2232.123s-3.73-1.474-6.6-.234l.287,1.6s4.215-.357,6.339.5A2.771,2.771,0,0,0,473.373,2232.123Z" transform="translate(-441.641 -2213.345)" fill="#42335b"/>
        <path id="Trazado_657376" data-name="Trazado 657376" d="M447.815,2232.123s3.73-1.474,6.6-.234l-.287,1.6s-4.216-.357-6.34.5A2.776,2.776,0,0,1,447.815,2232.123Z" transform="translate(-437.817 -2213.345)" fill="#42335b"/>
        <g id="Grupo_957412" data-name="Grupo 957412" transform="translate(19.664 24.058)">
          <path id="Trazado_657377" data-name="Trazado 657377" d="M461.639,2247.848a4.867,4.867,0,0,0,1.655-.349.457.457,0,0,0-.346-.846,2.744,2.744,0,0,1-1.834.174.5.5,0,0,1-.225-.426,69.118,69.118,0,0,1,.277-7,.457.457,0,0,0-.911-.075,67.768,67.768,0,0,0-.274,7.17,1.4,1.4,0,0,0,.665,1.115A1.925,1.925,0,0,0,461.639,2247.848Z" transform="translate(-459.939 -2238.906)" fill="#f9b68c"/>
        </g>
        <path id="Trazado_657378" data-name="Trazado 657378" d="M454.393,2252.983c.76,2.636,2.919,5.268,5.9,5.3,2.972-.036,5.132-2.667,5.892-5.3Z" transform="translate(-439.166 -2217.661)" fill="#fff"/>
        <g id="Grupo_957413" data-name="Grupo 957413" transform="translate(18.506 42.017)">
          <path id="Trazado_657379" data-name="Trazado 657379" d="M460.852,2262.825a4.77,4.77,0,0,0,2.228-.625.457.457,0,1,0-.473-.782,3.9,3.9,0,0,1-1.755.492,3.706,3.706,0,0,1-1.663-.49.457.457,0,0,0-.481.777A4.568,4.568,0,0,0,460.852,2262.825Z" transform="translate(-458.492 -2261.352)" fill="#f9b68c"/>
        </g>
        <path id="Trazado_657380" data-name="Trazado 657380" d="M474.571,2234.185H472.5c.229-2.08.557-5.742-1.151-6.267-5.4-1.658,1.6-5.472-.839-7.374s-8.5-1.089-12.717-1.226c-4.243-.137-11.063-.078-12.717.306s-.75,3.134-.142,5.269-2.034,4.49-2.477,6.7a9.734,9.734,0,0,0,0,2.595h-1.727c-.2-2.687-.235-5.188-.2-7.216a10.044,10.044,0,0,1,5.1-8.546c8.369-4.745,17.2-2.976,23.013-.741a10.013,10.013,0,0,1,6.413,9.823C474.957,2229.552,474.805,2231.882,474.571,2234.185Z" transform="translate(-436.393 -2210.152)" fill="#42335b"/>
        <g id="Grupo_957419" data-name="Grupo 957419" transform="translate(3.199 20.243)">
          <g id="Grupo_957414" data-name="Grupo 957414" transform="translate(5.362)">
            <path id="Trazado_657381" data-name="Trazado 657381" d="M451.236,2244.485a5.174,5.174,0,1,1,5.174-5.174A5.18,5.18,0,0,1,451.236,2244.485Zm0-9.542a4.368,4.368,0,1,0,4.368,4.368A4.373,4.373,0,0,0,451.236,2234.943Z" transform="translate(-446.062 -2234.137)" fill="#fff"/>
          </g>
          <g id="Grupo_957415" data-name="Grupo 957415" transform="translate(19.505)">
            <path id="Trazado_657382" data-name="Trazado 657382" d="M468.913,2244.485a5.174,5.174,0,1,1,5.174-5.174A5.18,5.18,0,0,1,468.913,2244.485Zm0-9.542a4.368,4.368,0,1,0,4.368,4.368A4.373,4.373,0,0,0,468.913,2234.943Z" transform="translate(-463.739 -2234.137)" fill="#fff"/>
          </g>
          <g id="Grupo_957416" data-name="Grupo 957416" transform="translate(0 0.856)">
            <path id="Trazado_657383" data-name="Trazado 657383" d="M445.6,2237.858a.4.4,0,0,1-.284-.117h0a6.355,6.355,0,0,0-5.457-1.584.4.4,0,0,1-.183-.786,7.059,7.059,0,0,1,6.209,1.8.4.4,0,0,1-.284.689Z" transform="translate(-439.36 -2235.207)" fill="#fff"/>
          </g>
          <g id="Grupo_957417" data-name="Grupo 957417" transform="translate(28.67 0.744)">
            <path id="Trazado_657384" data-name="Trazado 657384" d="M475.6,2237.831a.4.4,0,0,1-.221-.741c.154-.1,3.816-2.463,6.931-1.95a.4.4,0,0,1-.131.8c-2.8-.462-6.324,1.806-6.359,1.829A.4.4,0,0,1,475.6,2237.831Z" transform="translate(-475.194 -2235.067)" fill="#fff"/>
          </g>
          <g id="Grupo_957418" data-name="Grupo 957418" transform="translate(14.764 1.897)">
            <path id="Trazado_657385" data-name="Trazado 657385" d="M462.839,2238.623a3.264,3.264,0,0,0-2.227-1.308,2.973,2.973,0,0,0-2.122,1.306l-.675-.441a3.735,3.735,0,0,1,2.8-1.672,4.027,4.027,0,0,1,2.882,1.643Z" transform="translate(-457.814 -2236.508)" fill="#fff"/>
          </g>
        </g>
      </g>
      <g id="Grupo_957421" data-name="Grupo 957421" transform="translate(0 76.778)">
        <path id="Trazado_657386" data-name="Trazado 657386" d="M411.5,2324.844a146.8,146.8,0,0,1-11.869,18.915,49.346,49.346,0,0,1-5.817,6.5c-3.156,2.849-6.233,4.339-8.739,3.075-9.3-4.686-30.02-41.982-30.02-41.982l5.1-6.053s9.223,10.652,15.969,17.026c6.221,5.877,11,10.271,11,10.271.861-1.311,1.779-2.746,2.732-4.267,1.014-1.613,2.067-3.321,3.137-5.077,7.768-12.753,16.387-28.062,16.387-28.062Z" transform="translate(-355.051 -2295.187)" fill="#ffd0ad"/>
        <path id="Trazado_657387" data-name="Trazado 657387" d="M408.325,2350.771a49.346,49.346,0,0,1-5.817,6.5l-3.95-21.931c1.014-1.613,2.067-3.321,3.137-5.077Z" transform="translate(-363.749 -2302.199)" fill="#f9b68c"/>
        <path id="Trazado_657388" data-name="Trazado 657388" d="M418.305,2295.187l-18.629,29.3,6.253,25.77,15.415-25.1S423.214,2307.982,418.305,2295.187Z" transform="translate(-363.972 -2295.187)" fill="#7342de"/>
      </g>
    </g>
    <g id="Grupo_957445" data-name="Grupo 957445" transform="translate(261.466 2193.357)">
      <g id="Grupo_957428" data-name="Grupo 957428" transform="translate(2.453 54.044)">
        <path id="Trazado_657389" data-name="Trazado 657389" d="M374.549,2461.792c-1.331-7.374-2.642-15.689-3.834-23.765q-.392-2.679-.77-5.3c-.956-6.686-1.81-13.009-2.5-18.255-.262-1.993-.5-3.833-.709-5.475-.665-5.237-1.056-8.49-1.056-8.49l-29.418,1.113-29.509-1.113s-.761,6.438-1.979,15.769c-.222,1.7-.459,3.491-.709,5.361-.656,4.9-1.4,10.307-2.21,15.844l-.036.244c-.253,1.726-.508,3.464-.773,5.2a.688.688,0,0,1-.012.07v0c-.631,4.2-1.293,8.394-1.967,12.428-.276,1.666-.556,3.3-.839,4.894q-.131.745-.263,1.475Z" transform="translate(-297.972 -2296.729)" fill="#7342de"/>
        <g id="Grupo_957423" data-name="Grupo 957423" transform="translate(0.263 109.837)">
          <path id="Trazado_657390" data-name="Trazado 657390" d="M316.043,2410.854a2.773,2.773,0,1,1-2.772-2.773A2.772,2.772,0,0,1,316.043,2410.854Z" transform="translate(-300.739 -2408.081)" fill="#895fbe"/>
          <path id="Trazado_657391" data-name="Trazado 657391" d="M324.643,2424.279a2.773,2.773,0,1,1-2.772-2.772A2.773,2.773,0,0,1,324.643,2424.279Z" transform="translate(-302.459 -2410.765)" fill="#895fbe"/>
          <path id="Trazado_657392" data-name="Trazado 657392" d="M341.562,2417.349a2.773,2.773,0,1,1-2.772-2.773A2.772,2.772,0,0,1,341.562,2417.349Z" transform="translate(-305.841 -2409.379)" fill="#895fbe"/>
          <path id="Trazado_657393" data-name="Trazado 657393" d="M314.858,2438.538a2.773,2.773,0,1,1-2.772-2.773A2.772,2.772,0,0,1,314.858,2438.538Z" transform="translate(-300.502 -2413.615)" fill="#895fbe"/>
          <path id="Trazado_657394" data-name="Trazado 657394" d="M336,2437.056a2.773,2.773,0,1,1-2.773-2.773A2.773,2.773,0,0,1,336,2437.056Z" transform="translate(-304.729 -2413.319)" fill="#895fbe"/>
          <path id="Trazado_657395" data-name="Trazado 657395" d="M308.108,2422.813a2.768,2.768,0,0,1-2.513,2.76c.25-1.87.486-3.661.709-5.361A2.773,2.773,0,0,1,308.108,2422.813Z" transform="translate(-299.759 -2410.506)" fill="#895fbe"/>
          <path id="Trazado_657396" data-name="Trazado 657396" d="M370.454,2457.416a2.772,2.772,0,1,1-2.772-2.773A2.772,2.772,0,0,1,370.454,2457.416Z" transform="translate(-311.617 -2417.389)" fill="#895fbe"/>
          <path id="Trazado_657397" data-name="Trazado 657397" d="M368.816,2438.538a2.773,2.773,0,1,1-2.772-2.773A2.772,2.772,0,0,1,368.816,2438.538Z" transform="translate(-311.289 -2413.615)" fill="#895fbe"/>
          <path id="Trazado_657398" data-name="Trazado 657398" d="M387.926,2446.073a2.773,2.773,0,1,1-1.088-5.325,2.33,2.33,0,0,1,.318.021Q387.536,2443.39,387.926,2446.073Z" transform="translate(-315.446 -2414.612)" fill="#895fbe"/>
          <path id="Trazado_657399" data-name="Trazado 657399" d="M372.282,2471.251a2.773,2.773,0,1,1-2.773-2.773A2.773,2.773,0,0,1,372.282,2471.251Z" transform="translate(-311.982 -2420.155)" fill="#895fbe"/>
          <path id="Trazado_657400" data-name="Trazado 657400" d="M387.105,2465.718a2.773,2.773,0,1,1-2.773-2.772A2.773,2.773,0,0,1,387.105,2465.718Z" transform="translate(-314.945 -2419.049)" fill="#895fbe"/>
          <path id="Trazado_657401" data-name="Trazado 657401" d="M356.5,2476.8a2.764,2.764,0,0,0-4.569,0Z" transform="translate(-309.023 -2421.578)" fill="#895fbe"/>
          <path id="Trazado_657402" data-name="Trazado 657402" d="M312.578,2460.429a2.773,2.773,0,1,1-2.773-2.772A2.773,2.773,0,0,1,312.578,2460.429Z" transform="translate(-300.047 -2417.992)" fill="#895fbe"/>
          <path id="Trazado_657403" data-name="Trazado 657403" d="M304.218,2449.545a2.766,2.766,0,0,1-2.411,2.745.682.682,0,0,0,.012-.069c.265-1.738.52-3.476.773-5.2A2.778,2.778,0,0,1,304.218,2449.545Z" transform="translate(-299.002 -2415.865)" fill="#895fbe"/>
          <path id="Trazado_657404" data-name="Trazado 657404" d="M300.276,2471.382a2.779,2.779,0,0,1-1.975,2.657c.282-1.593.562-3.228.839-4.894A2.769,2.769,0,0,1,300.276,2471.382Z" transform="translate(-298.301 -2420.289)" fill="#895fbe"/>
          <path id="Trazado_657405" data-name="Trazado 657405" d="M321.178,2472.714a2.773,2.773,0,1,1-2.773-2.772A2.773,2.773,0,0,1,321.178,2472.714Z" transform="translate(-301.766 -2420.448)" fill="#895fbe"/>
          <path id="Trazado_657406" data-name="Trazado 657406" d="M339.466,2470a2.773,2.773,0,1,1-2.772-2.772A2.773,2.773,0,0,1,339.466,2470Z" transform="translate(-305.422 -2419.905)" fill="#895fbe"/>
          <path id="Trazado_657407" data-name="Trazado 657407" d="M326.419,2452.962a2.773,2.773,0,1,1-2.773-2.772A2.773,2.773,0,0,1,326.419,2452.962Z" transform="translate(-302.814 -2416.499)" fill="#895fbe"/>
          <path id="Trazado_657408" data-name="Trazado 657408" d="M345.028,2449.5a2.773,2.773,0,1,1-2.773-2.773A2.773,2.773,0,0,1,345.028,2449.5Z" transform="translate(-306.534 -2415.806)" fill="#895fbe"/>
          <path id="Trazado_657409" data-name="Trazado 657409" d="M353.4,2431.211a2.772,2.772,0,1,1-2.772-2.773A2.773,2.773,0,0,1,353.4,2431.211Z" transform="translate(-308.208 -2412.151)" fill="#895fbe"/>
          <path id="Trazado_657410" data-name="Trazado 657410" d="M383.969,2416.59a2.6,2.6,0,0,1-.6.066,2.772,2.772,0,0,1-.114-5.541C383.473,2412.757,383.707,2414.6,383.969,2416.59Z" transform="translate(-314.754 -2408.688)" fill="#895fbe"/>
          <path id="Trazado_657411" data-name="Trazado 657411" d="M365.351,2417.349a2.773,2.773,0,1,1-2.773-2.773A2.773,2.773,0,0,1,365.351,2417.349Z" transform="translate(-310.597 -2409.379)" fill="#895fbe"/>
          <path id="Trazado_657412" data-name="Trazado 657412" d="M378.044,2429.7a2.772,2.772,0,1,1-2.772-2.773A2.772,2.772,0,0,1,378.044,2429.7Z" transform="translate(-313.134 -2411.848)" fill="#895fbe"/>
          <path id="Trazado_657413" data-name="Trazado 657413" d="M356.87,2460.429a2.773,2.773,0,1,1-2.773-2.772A2.773,2.773,0,0,1,356.87,2460.429Z" transform="translate(-308.901 -2417.992)" fill="#895fbe"/>
        </g>
        <path id="Trazado_657414" data-name="Trazado 657414" d="M369.1,2375.3c-15.519,10.131-44.015,9.338-61.921,0,1.711-10.655,3.962-21.323,3.478-35.5q-.08-2.331-.2-4.629-.1-2-.231-3.963c-1.545-23.592-5.571-42.882-3.592-45.374a18.8,18.8,0,0,1,4.08-3.476q1.046-.713,2.231-1.437c1.858-1.134,3.924-2.276,6-3.388,4.921-2.627,9.918-5.066,12.422-6.731a15.925,15.925,0,0,0,6.594,1.662c.057,0,.12,0,.183-.006a1.719,1.719,0,0,0,.178.006,15.947,15.947,0,0,0,6.6-1.662c2.324,1.545,6.7,3.7,11.163,6.052a96.593,96.593,0,0,1,9.2,5.342,18.5,18.5,0,0,1,3.929,3.376c.98,1.235.568,6.654-.27,14.681-.83,7.9-2.071,18.328-2.823,29.791-.207,3.184-.378,6.445-.493,9.756C365.14,2353.979,367.389,2364.647,369.1,2375.3Z" transform="translate(-299.597 -2270.8)" fill="#724af8"/>
        <g id="Grupo_957424" data-name="Grupo 957424" transform="translate(18.192 70.809)">
          <path id="Trazado_657415" data-name="Trazado 657415" d="M362.53,2381.212h0c-12.5-.055-23.164-5.742-29.912-10.5a68.444,68.444,0,0,1-11.764-10.419.6.6,0,0,1,.92-.774,67.239,67.239,0,0,0,11.564,10.23c6.6,4.653,17.025,10.21,29.2,10.263a.6.6,0,0,1,0,1.2Z" transform="translate(-320.709 -2359.302)" fill="#7342de"/>
        </g>
        <g id="Grupo_957425" data-name="Grupo 957425" transform="translate(31.045 73.774)">
          <path id="Trazado_657416" data-name="Trazado 657416" d="M357.467,2374.677c-10.64-2.092-20.059-10.241-20.487-10.616a.6.6,0,0,1,.792-.906c.11.1,11.194,9.682,22.49,10.712a.6.6,0,0,1-.109,1.2A26.507,26.507,0,0,1,357.467,2374.677Z" transform="translate(-336.774 -2363.008)" fill="#7342de"/>
        </g>
        <g id="Grupo_957426" data-name="Grupo 957426" transform="translate(35.383 16.054)">
          <path id="Trazado_657417" data-name="Trazado 657417" d="M342.8,2305.2a.6.6,0,0,1-.112-1.193c15.236-2.891,19.829-12.692,19.873-12.791a.6.6,0,1,1,1.1.5c-.192.426-4.9,10.471-20.745,13.477A.608.608,0,0,1,342.8,2305.2Z" transform="translate(-342.197 -2290.865)" fill="#7342de"/>
        </g>
        <path id="Trazado_657418" data-name="Trazado 657418" d="M359.286,2276.852c-3.024,6.9-10.459,14.042-20.127,12.372-9.363-1.619-13.8-6.57-17.007-11.693,4.922-2.629,9.919-5.064,12.422-6.731a15.98,15.98,0,0,0,6.592,1.663,1.79,1.79,0,0,0,.183-.006,1.722,1.722,0,0,0,.181.006,16.006,16.006,0,0,0,6.6-1.663C350.448,2272.344,354.824,2274.5,359.286,2276.852Z" transform="translate(-302.806 -2270.8)" fill="#ffd0ad"/>
        <g id="Grupo_957427" data-name="Grupo 957427" transform="translate(26.94 0.506)">
          <path id="Trazado_657419" data-name="Trazado 657419" d="M353.1,2271.432a.475.475,0,0,0-.482.474c0,.388-.161,9.506-8.347,10.213-7.592.66-10.734-6.608-11.705-9.623a.426.426,0,0,0-.406-.3h-.09a.427.427,0,0,0-.406.562c1.036,3.11,4.345,10.622,12.08,10.347.2-.007.4-.019.61-.038,9.059-.782,9.22-11.055,9.221-11.159A.477.477,0,0,0,353.1,2271.432Z" transform="translate(-331.643 -2271.432)" fill="#fff"/>
        </g>
      </g>
      <g id="Grupo_957438" data-name="Grupo 957438" transform="translate(16.743 0)">
        <path id="Trazado_657420" data-name="Trazado 657420" d="M355.973,2210.856s7.315,11.331,6.513,23.133,1.079,25.427-9.483,24.827-29.4,4.234-35.385-4.958S355.973,2210.856,355.973,2210.856Z" transform="translate(-316.078 -2204.773)" fill="#42335b"/>
        <path id="Trazado_657421" data-name="Trazado 657421" d="M364.033,2236.847s1.9,17.108-6.219,21.818-13.993-.549-13.993-.549S360.932,2234.271,364.033,2236.847Z" transform="translate(-321.427 -2209.93)" fill="#190c29"/>
        <g id="Grupo_957437" data-name="Grupo 957437" transform="translate(3.101 8.507)">
          <g id="Grupo_957431" data-name="Grupo 957431" transform="translate(0 16.386)">
            <path id="Trazado_657422" data-name="Trazado 657422" d="M325.493,2236.31s-2.915-3.886-5.082-.672.9,12.705,6.2,10.388Z" transform="translate(-319.708 -2234.365)" fill="#f9b68c"/>
            <g id="Grupo_957429" data-name="Grupo 957429" transform="translate(1.138 3.403)">
              <path id="Trazado_657423" data-name="Trazado 657423" d="M325.74,2243.943a.45.45,0,0,1-.432-.328,6.936,6.936,0,0,0-3.889-4.13.448.448,0,0,1,.318-.838,7.726,7.726,0,0,1,4.435,4.727.449.449,0,0,1-.432.57Z" transform="translate(-321.13 -2238.618)" fill="#ea8661"/>
            </g>
            <g id="Grupo_957430" data-name="Grupo 957430" transform="translate(2.235 5.164)">
              <path id="Trazado_657424" data-name="Trazado 657424" d="M322.949,2242.907a.449.449,0,0,1-.377-.691,4.1,4.1,0,0,1,1.683-1.357.449.449,0,0,1,.366.819,3.242,3.242,0,0,0-1.3,1.024A.449.449,0,0,1,322.949,2242.907Z" transform="translate(-322.501 -2240.82)" fill="#ea8661"/>
            </g>
          </g>
          <g id="Grupo_957434" data-name="Grupo 957434" transform="translate(34.703 16.386)">
            <path id="Trazado_657425" data-name="Trazado 657425" d="M364.2,2236.31s2.916-3.886,5.083-.672-.9,12.705-6.2,10.388Z" transform="translate(-363.082 -2234.365)" fill="#f9b68c"/>
            <g id="Grupo_957432" data-name="Grupo 957432" transform="translate(0.71 3.403)">
              <path id="Trazado_657426" data-name="Trazado 657426" d="M364.418,2243.943a.45.45,0,0,0,.432-.328,6.938,6.938,0,0,1,3.888-4.13.448.448,0,0,0-.318-.838,7.725,7.725,0,0,0-4.435,4.727.449.449,0,0,0,.432.57Z" transform="translate(-363.969 -2238.618)" fill="#ea8661"/>
            </g>
            <g id="Grupo_957433" data-name="Grupo 957433" transform="translate(2.285 5.164)">
              <path id="Trazado_657427" data-name="Trazado 657427" d="M367.877,2242.907a.448.448,0,0,0,.376-.691,4.094,4.094,0,0,0-1.683-1.357.449.449,0,1,0-.366.819,3.242,3.242,0,0,1,1.3,1.024A.449.449,0,0,0,367.877,2242.907Z" transform="translate(-365.938 -2240.82)" fill="#ea8661"/>
            </g>
          </g>
          <path id="Trazado_657428" data-name="Trazado 657428" d="M351.23,2259v9.439s-2.816,4.807-6.622,5.134-7.182-4.139-7.182-4.139v-9.771Z" transform="translate(-323.25 -2222.905)" fill="#ffd0ad"/>
          <path id="Trazado_657429" data-name="Trazado 657429" d="M351.23,2259v4.188c-2.555,2.835-7.09,3.839-13.8,2.848v-6.373Z" transform="translate(-323.25 -2222.905)" fill="#f9b68c"/>
          <path id="Trazado_657430" data-name="Trazado 657430" d="M358.652,2225.741a91.829,91.829,0,0,1-1.225,11.924c-.174.915-.372,1.776-.591,2.547-1.987,6.955-6.955,18.884-20.866,13.914-6.143-2.192-8.991-9.035-10.26-16a67.269,67.269,0,0,1-.929-12.915,9.855,9.855,0,0,1,5-8.386c8.21-4.655,16.875-2.919,22.578-.726A9.824,9.824,0,0,1,358.652,2225.741Z" transform="translate(-320.719 -2213.885)" fill="#ffd0ad"/>
          <path id="Trazado_657431" data-name="Trazado 657431" d="M337.474,2237.033c0,1.007-.519,1.824-1.159,1.824s-1.16-.817-1.16-1.824.519-1.825,1.16-1.825S337.474,2236.025,337.474,2237.033Z" transform="translate(-322.796 -2218.148)" fill="#42335b"/>
          <path id="Trazado_657432" data-name="Trazado 657432" d="M355.377,2237.033c0,1.007-.519,1.824-1.16,1.824s-1.159-.817-1.159-1.824.519-1.825,1.159-1.825S355.377,2236.025,355.377,2237.033Z" transform="translate(-326.375 -2218.148)" fill="#42335b"/>
          <path id="Trazado_657433" data-name="Trazado 657433" d="M333.266,2230.514a19.361,19.361,0,0,1,4.962-.743.861.861,0,0,1,.858,1.01l0,.014a.858.858,0,0,1-.887.7,21.79,21.79,0,0,0-6.794.833,1.3,1.3,0,0,1,.394-.923A2.991,2.991,0,0,1,333.266,2230.514Z" transform="translate(-322.045 -2217.061)" fill="#42335b"/>
          <path id="Trazado_657434" data-name="Trazado 657434" d="M355.7,2230.56a19.4,19.4,0,0,0-4.962-.743.862.862,0,0,0-.858,1.011l0,.013a.858.858,0,0,0,.887.7,21.758,21.758,0,0,1,6.794.833,1.3,1.3,0,0,0-.394-.923A2.992,2.992,0,0,0,355.7,2230.56Z" transform="translate(-325.737 -2217.07)" fill="#42335b"/>
          <g id="Grupo_957435" data-name="Grupo 957435" transform="translate(19.293 18.436)">
            <path id="Trazado_657435" data-name="Trazado 657435" d="M345.489,2245.7a1.894,1.894,0,0,1-.975-.233,1.371,1.371,0,0,1-.652-1.095,66.33,66.33,0,0,1,.27-7.033.448.448,0,1,1,.894.073,67.844,67.844,0,0,0-.271,6.867.484.484,0,0,0,.221.417,2.689,2.689,0,0,0,1.8-.169.448.448,0,0,1,.338.831A4.786,4.786,0,0,1,345.489,2245.7Z" transform="translate(-343.821 -2236.928)" fill="#f9b68c"/>
          </g>
          <path id="Trazado_657436" data-name="Trazado 657436" d="M338.788,2251.432c.339,1.706,1.466,4.844,5.261,4.844s4.873-2.867,5.239-4.844Z" transform="translate(-323.522 -2221.391)" fill="#fff"/>
          <g id="Grupo_957436" data-name="Grupo 957436" transform="translate(18.157 36.056)">
            <path id="Trazado_657437" data-name="Trazado 657437" d="M344.717,2260.4a4.482,4.482,0,0,1-2.1-.615.449.449,0,0,1,.471-.763h0a3.606,3.606,0,0,0,1.632.482,3.815,3.815,0,0,0,1.723-.484.449.449,0,0,1,.464.768A4.69,4.69,0,0,1,344.717,2260.4Z" transform="translate(-342.401 -2258.951)" fill="#f9b68c"/>
          </g>
        </g>
        <path id="Trazado_657438" data-name="Trazado 657438" d="M360.177,2222.884a1.481,1.481,0,0,1-1.079.827,28.45,28.45,0,0,1-.162,3.319c-.553,6.482-2.188,7.619-2.558,6.017a74.946,74.946,0,0,1-.112-9.159,21.134,21.134,0,0,1-2.375-.3l-1.5-6.293-.526,6.215c-2.255.784-7.517-.472-7.517-.472l-1.764-6.2-1.092,5.968c-3.382,1.647-7.609.55-7.609.55l-.971-6.437-2.243,6.437s-7.216,2.589-7.294,0c-.048-1.506,1.055-5.748,1.987-9.035a13.59,13.59,0,0,1,6.554-8.319c8.951-4.8,18.415-2.249,21.662-.31C360.461,2209.8,360.177,2222.884,360.177,2222.884Z" transform="translate(-317.339 -2203.253)" fill="#42335b"/>
        <path id="Trazado_657439" data-name="Trazado 657439" d="M325.839,2211.455s-5.941,7.064-7.894,19.683-4.661,21.941,2.944,26.108c8.229,4.509,7.517-4.739,7.4-7.253s-7.118-9.384-2.447-28.735C327.348,2215.01,325.839,2211.455,325.839,2211.455Z" transform="translate(-315.832 -2204.893)" fill="#42335b"/>
        <path id="Trazado_657440" data-name="Trazado 657440" d="M326.6,2244.045v.015c0,.093.01.6.046,1.38.018.486.048,1.078.093,1.752.28,4.251,1.107,11.593,3.536,14.14.959,1.006,2.808,1.512,4.985,1.716v-3.341a13.227,13.227,0,0,1-5.469-5.077,31.233,31.233,0,0,1-3.024-9.327Z" transform="translate(-317.985 -2211.408)" fill="#190c29"/>
        <path id="Trazado_657441" data-name="Trazado 657441" d="M366.727,2248.944a1.051,1.051,0,1,1-1.051-1.051A1.051,1.051,0,0,1,366.727,2248.944Z" transform="translate(-325.586 -2212.177)" fill="#fff"/>
      </g>
      <g id="Grupo_957444" data-name="Grupo 957444" transform="translate(0 68.813)">
        <path id="Trazado_657442" data-name="Trazado 657442" d="M380.113,2336.36c-2.976,8.519-16.3,7.9-31.483,3.241-.022-.005-.043-.013-.066-.02-.048-.014-.094-.03-.142-.044l-2.088-.666c-.288-.094-.578-.19-.866-.288q-2.454-.822-4.938-1.767a169.5,169.5,0,0,1-16.043-7.106l.036-.09,1.552-4.031.53-1.372s28.14,3.066,42.289.108c.24-.05.474-.1.7-.153a8.823,8.823,0,0,0-.162-.935c-7.5-25.522.7-30.416,3.446-33.976C372.884,2289.26,385.731,2320.276,380.113,2336.36Z" transform="translate(-300.82 -2289.26)" fill="#724af8"/>
        <g id="Grupo_957439" data-name="Grupo 957439" transform="translate(68.076 33.976)">
          <path id="Trazado_657443" data-name="Trazado 657443" d="M386.623,2336.949a.609.609,0,0,1-.262.06.6.6,0,0,1-.54-.336c-1.072-2.2-4.712-3.5-5.829-3.86.24-.05.474-.1.7-.153q-.084-.472-.162-.935c1.422.47,5.136,1.9,6.365,4.422A.6.6,0,0,1,386.623,2336.949Z" transform="translate(-379.992 -2331.725)" fill="#7342de"/>
        </g>
        <g id="Grupo_957440" data-name="Grupo 957440" transform="translate(23.924 34.662)">
          <path id="Trazado_657444" data-name="Trazado 657444" d="M336.178,2336.051c-5.744,0-10.407-.33-10.813-.36a.6.6,0,1,1,.087-1.2c.212.016,21.321,1.509,29.643-1.867a.6.6,0,0,1,.451,1.112C350.94,2335.608,342.834,2336.051,336.178,2336.051Z" transform="translate(-324.808 -2332.583)" fill="#7342de"/>
        </g>
        <g id="Grupo_957441" data-name="Grupo 957441" transform="translate(45.516 38.131)">
          <path id="Trazado_657445" data-name="Trazado 657445" d="M351.794,2348.4h0c4.816-1.328,9.194-2.622,11.722-3.432,3.509-1.126,6.414-4.674,7.733-7.69a.6.6,0,0,1,1.1.482c-1.427,3.262-4.6,7.109-8.467,8.352-1.835.588-4.636,1.428-7.874,2.352a7.294,7.294,0,0,1-4.215-.064Z" transform="translate(-351.794 -2336.918)" fill="#7342de"/>
        </g>
        <g id="Grupo_957443" data-name="Grupo 957443" transform="translate(1.124 0.262)">
          <path id="Trazado_657446" data-name="Trazado 657446" d="M353.684,2334.81c-43.49,14.647-56.869,5.062-56.869,5.062-2.928-26.477,7.861-50.286,7.861-50.286a120.458,120.458,0,0,1,6.792,14.43l.952,20.295-.072.564-.034.265-.18,1.388,0,.028.28.06c13.156,2.776,37.214-.326,37.214-.326Z" transform="translate(-296.311 -2289.587)" fill="#724af8"/>
          <g id="Grupo_957442" data-name="Grupo 957442" transform="translate(8.454 35.554)">
            <path id="Trazado_657447" data-name="Trazado 657447" d="M314.522,2335.5a42.857,42.857,0,0,0-6.565,6.841.6.6,0,0,1-.958-.726l0,0a44.025,44.025,0,0,1,7.426-7.59l-.18,1.388,0,.028Z" transform="translate(-306.878 -2334.025)" fill="#7342de"/>
          </g>
          <path id="Trazado_657448" data-name="Trazado 657448" d="M362.945,2332.958s4.815-10.937,12.134-9.964l2.208,7.908c-4.007,1.7-4.593,8.572-10.282,10.575Z" transform="translate(-309.632 -2296.253)" fill="#ffd0ad"/>
        </g>
        <path id="Trazado_657449" data-name="Trazado 657449" d="M320.694,2330.5a17.426,17.426,0,0,0-11.043-9.208c-8-2.072-13.1,1.7-13.637,3.122s3.018.063,3.018.063a6.9,6.9,0,0,0-3.644,2.831c-1.328,2.176,3.233-.171,3.233-.171s-3.271,1.433-3.687,2.762,3.9-.916,4.709-.874c0,0-3.852,1.531-3.827,2.9s4.425-.865,7.71-.688a51.819,51.819,0,0,1,8.322,1.538,55.292,55.292,0,0,0,7.582,1Z" transform="translate(-294.906 -2295.542)" fill="#ffd0ad"/>
      </g>
    </g>
    <g id="Grupo_957491" data-name="Grupo 957491" transform="translate(133.734 2153.753)">
      <g id="Grupo_957484" data-name="Grupo 957484" transform="translate(0 7.453)">
        <g id="Grupo_957464" data-name="Grupo 957464" transform="translate(225.421 5.085)">
          <g id="Grupo_957463" data-name="Grupo 957463">
            <g id="Grupo_957446" data-name="Grupo 957446" transform="translate(0 9.126)">
              <path id="Trazado_657450" data-name="Trazado 657450" d="M422.375,2191.573a5.372,5.372,0,1,1,5.372-5.372A5.378,5.378,0,0,1,422.375,2191.573Zm0-9.058a3.686,3.686,0,1,0,3.686,3.686A3.69,3.69,0,0,0,422.375,2182.515Z" transform="translate(-417.003 -2180.829)" fill="#7342de"/>
            </g>
            <g id="Grupo_957447" data-name="Grupo 957447" transform="translate(46.865)">
              <path id="Trazado_657451" data-name="Trazado 657451" d="M480.95,2180.166a5.371,5.371,0,1,1,5.372-5.371A5.377,5.377,0,0,1,480.95,2180.166Zm0-9.058a3.686,3.686,0,1,0,3.686,3.687A3.69,3.69,0,0,0,480.95,2171.108Z" transform="translate(-475.578 -2169.423)" fill="#724af8"/>
            </g>
            <g id="Grupo_957454" data-name="Grupo 957454" transform="translate(52.815 22.798)">
              <g id="Grupo_957450" data-name="Grupo 957450" transform="translate(5.216)">
                <g id="Grupo_957448" data-name="Grupo 957448">
                  <path id="Trazado_657452" data-name="Trazado 657452" d="M490.376,2203.318a.843.843,0,0,1-.842-.843v-3.716a.842.842,0,1,1,1.685,0v3.716A.842.842,0,0,1,490.376,2203.318Z" transform="translate(-489.534 -2197.917)" fill="#7342de"/>
                </g>
                <g id="Grupo_957449" data-name="Grupo 957449" transform="translate(0 6.502)">
                  <path id="Trazado_657453" data-name="Trazado 657453" d="M490.376,2211.445a.843.843,0,0,1-.842-.843v-3.716a.842.842,0,1,1,1.685,0v3.716A.843.843,0,0,1,490.376,2211.445Z" transform="translate(-489.534 -2206.044)" fill="#7342de"/>
                </g>
              </g>
              <g id="Grupo_957453" data-name="Grupo 957453" transform="translate(0 5.109)">
                <g id="Grupo_957451" data-name="Grupo 957451" transform="translate(7.094)">
                  <path id="Trazado_657454" data-name="Trazado 657454" d="M496.061,2205.988h-3.338a.842.842,0,1,1,0-1.685h3.338a.842.842,0,1,1,0,1.685Z" transform="translate(-491.881 -2204.303)" fill="#7342de"/>
                </g>
                <g id="Grupo_957452" data-name="Grupo 957452">
                  <path id="Trazado_657455" data-name="Trazado 657455" d="M487.2,2205.988h-3.338a.842.842,0,1,1,0-1.685H487.2a.842.842,0,1,1,0,1.685Z" transform="translate(-483.015 -2204.303)" fill="#7342de"/>
                </g>
              </g>
            </g>
            <g id="Grupo_957462" data-name="Grupo 957462" transform="translate(24.443 0.287)">
              <g id="Grupo_957461" data-name="Grupo 957461">
                <g id="Grupo_957457" data-name="Grupo 957457" transform="translate(5.216)">
                  <g id="Grupo_957455" data-name="Grupo 957455">
                    <path id="Trazado_657456" data-name="Trazado 657456" d="M454.914,2175.183a.843.843,0,0,1-.842-.843v-3.716a.842.842,0,1,1,1.685,0v3.716A.843.843,0,0,1,454.914,2175.183Z" transform="translate(-454.072 -2169.782)" fill="#8952b5"/>
                  </g>
                  <g id="Grupo_957456" data-name="Grupo 957456" transform="translate(0 6.502)">
                    <path id="Trazado_657457" data-name="Trazado 657457" d="M454.914,2183.31a.843.843,0,0,1-.842-.843v-3.716a.842.842,0,1,1,1.685,0v3.716A.843.843,0,0,1,454.914,2183.31Z" transform="translate(-454.072 -2177.909)" fill="#8952b5"/>
                  </g>
                </g>
                <g id="Grupo_957460" data-name="Grupo 957460" transform="translate(0 5.109)">
                  <g id="Grupo_957458" data-name="Grupo 957458" transform="translate(7.094)">
                    <path id="Trazado_657458" data-name="Trazado 657458" d="M460.6,2177.853h-3.338a.843.843,0,0,1,0-1.685H460.6a.843.843,0,0,1,0,1.685Z" transform="translate(-456.419 -2176.168)" fill="#8952b5"/>
                  </g>
                  <g id="Grupo_957459" data-name="Grupo 957459">
                    <path id="Trazado_657459" data-name="Trazado 657459" d="M451.733,2177.853H448.4a.843.843,0,0,1,0-1.685h3.338a.843.843,0,0,1,0,1.685Z" transform="translate(-447.553 -2176.168)" fill="#8952b5"/>
                  </g>
                </g>
              </g>
            </g>
          </g>
        </g>
        <g id="Grupo_957483" data-name="Grupo 957483">
          <g id="Grupo_957482" data-name="Grupo 957482">
            <g id="Grupo_957465" data-name="Grupo 957465" transform="translate(38.798 0.58)">
              <path id="Trazado_657460" data-name="Trazado 657460" d="M183.75,2169.165a5.372,5.372,0,1,1,5.372,5.372A5.378,5.378,0,0,1,183.75,2169.165Zm1.685,0a3.686,3.686,0,1,0,3.687-3.686A3.691,3.691,0,0,0,185.435,2169.165Z" transform="translate(-183.75 -2163.793)" fill="#7342de"/>
            </g>
            <g id="Grupo_957466" data-name="Grupo 957466" transform="translate(17.226 21.055)">
              <path id="Trazado_657461" data-name="Trazado 657461" d="M156.788,2194.756a5.372,5.372,0,1,1,5.372,5.371A5.378,5.378,0,0,1,156.788,2194.756Zm1.686,0a3.686,3.686,0,1,0,3.686-3.687A3.69,3.69,0,0,0,158.474,2194.756Z" transform="translate(-156.788 -2189.384)" fill="#724af8"/>
            </g>
            <g id="Grupo_957473" data-name="Grupo 957473" transform="translate(0 28.563)">
              <g id="Grupo_957469" data-name="Grupo 957469" transform="translate(5.216)">
                <g id="Grupo_957467" data-name="Grupo 957467">
                  <path id="Trazado_657462" data-name="Trazado 657462" d="M142.619,2204.169a.842.842,0,0,0,.842-.843v-3.716a.842.842,0,1,0-1.685,0v3.716A.843.843,0,0,0,142.619,2204.169Z" transform="translate(-141.777 -2198.768)" fill="#7342de"/>
                </g>
                <g id="Grupo_957468" data-name="Grupo 957468" transform="translate(0 6.503)">
                  <path id="Trazado_657463" data-name="Trazado 657463" d="M142.619,2212.3a.842.842,0,0,0,.842-.842v-3.716a.842.842,0,0,0-1.685,0v3.716A.842.842,0,0,0,142.619,2212.3Z" transform="translate(-141.777 -2206.896)" fill="#7342de"/>
                </g>
              </g>
              <g id="Grupo_957472" data-name="Grupo 957472" transform="translate(0 5.109)">
                <g id="Grupo_957470" data-name="Grupo 957470">
                  <path id="Trazado_657464" data-name="Trazado 657464" d="M136.1,2206.84h3.338a.843.843,0,0,0,0-1.686H136.1a.843.843,0,0,0,0,1.686Z" transform="translate(-135.258 -2205.154)" fill="#7342de"/>
                </g>
                <g id="Grupo_957471" data-name="Grupo 957471" transform="translate(7.094)">
                  <path id="Trazado_657465" data-name="Trazado 657465" d="M144.966,2206.84H148.3a.843.843,0,0,0,0-1.686h-3.338a.843.843,0,0,0,0,1.686Z" transform="translate(-144.124 -2205.154)" fill="#7342de"/>
                </g>
              </g>
            </g>
            <g id="Grupo_957481" data-name="Grupo 957481" transform="translate(19.415)">
              <g id="Grupo_957480" data-name="Grupo 957480">
                <g id="Grupo_957476" data-name="Grupo 957476" transform="translate(5.216)">
                  <g id="Grupo_957474" data-name="Grupo 957474">
                    <path id="Trazado_657466" data-name="Trazado 657466" d="M166.886,2168.469a.843.843,0,0,0,.842-.843v-3.716a.843.843,0,0,0-1.686,0v3.716A.843.843,0,0,0,166.886,2168.469Z" transform="translate(-166.043 -2163.068)" fill="#8952b5"/>
                  </g>
                  <g id="Grupo_957475" data-name="Grupo 957475" transform="translate(0 6.503)">
                    <path id="Trazado_657467" data-name="Trazado 657467" d="M166.886,2176.6a.843.843,0,0,0,.842-.843v-3.716a.843.843,0,0,0-1.686,0v3.716A.843.843,0,0,0,166.886,2176.6Z" transform="translate(-166.043 -2171.196)" fill="#8952b5"/>
                  </g>
                </g>
                <g id="Grupo_957479" data-name="Grupo 957479" transform="translate(0 5.109)">
                  <g id="Grupo_957477" data-name="Grupo 957477">
                    <path id="Trazado_657468" data-name="Trazado 657468" d="M160.367,2171.139h3.338a.843.843,0,0,0,0-1.685h-3.338a.843.843,0,1,0,0,1.685Z" transform="translate(-159.524 -2169.454)" fill="#8952b5"/>
                  </g>
                  <g id="Grupo_957478" data-name="Grupo 957478" transform="translate(7.094)">
                    <path id="Trazado_657469" data-name="Trazado 657469" d="M169.232,2171.139h3.338a.843.843,0,1,0,0-1.685h-3.338a.843.843,0,0,0,0,1.685Z" transform="translate(-168.39 -2169.454)" fill="#8952b5"/>
                  </g>
                </g>
              </g>
            </g>
          </g>
        </g>
      </g>
      <g id="Grupo_957490" data-name="Grupo 957490" transform="translate(156.636)">
        <g id="Grupo_957487" data-name="Grupo 957487" transform="translate(27.143 11.946)">
          <g id="Grupo_957485" data-name="Grupo 957485">
            <path id="Trazado_657470" data-name="Trazado 657470" d="M367.289,2170.529a.6.6,0,0,1-.3-.044c-1.023-.432-1.622-.633-1.628-.635a.6.6,0,0,1,.379-1.135c.026.009.643.215,1.715.667a.6.6,0,0,1-.17,1.147Z" transform="translate(-364.957 -2168.685)" fill="#d8d2f2"/>
          </g>
          <g id="Grupo_957486" data-name="Grupo 957486" transform="translate(4.889 2.156)">
            <path id="Trazado_657471" data-name="Trazado 657471" d="M405.971,2210.9c.406,1.086.788,2.205,1.133,3.328a.6.6,0,0,0,.634.419.562.562,0,0,0,.113-.023.6.6,0,0,0,.4-.747c-.351-1.146-.741-2.288-1.156-3.4a.6.6,0,0,0-1.12.42Z" transform="translate(-378.038 -2179.118)" fill="#d8d2f2"/>
            <path id="Trazado_657472" data-name="Trazado 657472" d="M408.558,2219.309c.274,1.124.522,2.281.737,3.44a.6.6,0,0,0,.651.486l.046-.006a.6.6,0,0,0,.479-.7c-.218-1.18-.471-2.36-.75-3.505a.6.6,0,0,0-1.163.284Z" transform="translate(-378.559 -2180.813)" fill="#d8d2f2"/>
            <path id="Trazado_657473" data-name="Trazado 657473" d="M411.544,2240.89a.6.6,0,0,0,.534-.585c.018-1.2.01-2.405-.026-3.581a.6.6,0,0,0-1.2.036c.035,1.157.043,2.344.026,3.526a.6.6,0,0,0,.589.607A.651.651,0,0,0,411.544,2240.89Z" transform="translate(-379.022 -2184.327)" fill="#d8d2f2"/>
            <path id="Trazado_657474" data-name="Trazado 657474" d="M410.68,2227.3a.6.6,0,0,0-.516.67c.07.541.134,1.087.191,1.624.066.619.123,1.252.173,1.879a.6.6,0,0,0,.643.55h.016a.6.6,0,0,0,.534-.642c-.05-.638-.11-1.282-.176-1.911-.058-.547-.122-1.1-.194-1.653a.6.6,0,0,0-.656-.518Z" transform="translate(-378.882 -2182.557)" fill="#d8d2f2"/>
            <path id="Trazado_657475" data-name="Trazado 657475" d="M403.912,2206.026a.6.6,0,0,0,.609.352.609.609,0,0,0,.182-.05.6.6,0,0,0,.3-.791c-.487-1.089-1.015-2.176-1.569-3.229a.6.6,0,0,0-1.059.557C402.918,2203.9,403.434,2204.96,403.912,2206.026Z" transform="translate(-377.313 -2177.499)" fill="#d8d2f2"/>
            <path id="Trazado_657476" data-name="Trazado 657476" d="M371.393,2172.51c1.027.525,2.064,1.1,3.082,1.7a.6.6,0,0,0,.61-1.03c-1.039-.615-2.1-1.2-3.148-1.735a.6.6,0,0,0-.544,1.066Z" transform="translate(-371.067 -2171.379)" fill="#d8d2f2"/>
            <path id="Trazado_657477" data-name="Trazado 657477" d="M381.839,2179.048a.6.6,0,1,0,.726-.95c-.947-.723-1.928-1.428-2.916-2.094a.6.6,0,1,0-.669.991C379.948,2177.648,380.91,2178.339,381.839,2179.048Z" transform="translate(-372.596 -2172.283)" fill="#d8d2f2"/>
            <path id="Trazado_657478" data-name="Trazado 657478" d="M394.575,2191.159a.6.6,0,1,0,.934-.747c-.743-.929-1.527-1.847-2.331-2.731a.6.6,0,0,0-.886.8C393.079,2189.351,393.847,2190.25,394.575,2191.159Z" transform="translate(-375.279 -2174.599)" fill="#d8d2f2"/>
            <path id="Trazado_657479" data-name="Trazado 657479" d="M388.576,2184.719a.6.6,0,1,0,.835-.857c-.851-.828-1.742-1.644-2.648-2.425a.6.6,0,0,0-.781.907C386.87,2183.108,387.743,2183.907,388.576,2184.719Z" transform="translate(-374.008 -2173.361)" fill="#d8d2f2"/>
            <path id="Trazado_657480" data-name="Trazado 657480" d="M399.719,2198.3a.6.6,0,0,0,.574.283.59.59,0,0,0,.249-.085.6.6,0,0,0,.2-.822c-.621-1.017-1.283-2.028-1.967-3a.6.6,0,0,0-.98.687C398.463,2196.311,399.111,2197.3,399.719,2198.3Z" transform="translate(-376.388 -2175.984)" fill="#d8d2f2"/>
          </g>
        </g>
        <g id="Grupo_957489" data-name="Grupo 957489">
          <g id="Grupo_957488" data-name="Grupo 957488">
            <path id="Trazado_657481" data-name="Trazado 657481" d="M360.5,2163.451l2.618-9.7-32.082.276Z" transform="translate(-331.032 -2153.753)" fill="#724af8"/>
            <path id="Trazado_657482" data-name="Trazado 657482" d="M331.032,2154.1l27.906,11.764.074.032,1.2,1.989.283-4.362Z" transform="translate(-331.032 -2153.822)" fill="#7342de"/>
            <path id="Trazado_657483" data-name="Trazado 657483" d="M366.854,2170.828l-2.6-.41,1.4-1.579Z" transform="translate(-337.673 -2156.769)" fill="#7342de"/>
            <path id="Trazado_657484" data-name="Trazado 657484" d="M355.5,2164.412l3.512,1.48-7.233,8.149L331.032,2154.1Z" transform="translate(-331.032 -2153.822)" fill="#724af8"/>
          </g>
        </g>
      </g>
    </g>
    <g id="Grupo_957492" data-name="Grupo 957492" transform="translate(138.347 2412.464)">
      <rect id="Rectngulo_45417" data-name="Rectngulo 45417" width="329.007" height="12.797" rx="6.398" transform="translate(0 0)" fill="#8952b5"/>
      <path id="Trazado_657485" data-name="Trazado 657485" d="M470.03,2483.212v.292H141.023v-.292a6.106,6.106,0,0,1,6.106-6.106H463.922A6.108,6.108,0,0,1,470.03,2483.212Z" transform="translate(-141.023 -2477.106)" fill="#7342de"/>
    </g>
    <g id="Grupo_957493" data-name="Grupo 957493" transform="translate(247.507 2332.576)">
      <rect id="Rectngulo_45418" data-name="Rectngulo 45418" width="108.13" height="60.677" rx="5.381" fill="#42335b"/>
      <rect id="Rectngulo_45419" data-name="Rectngulo 45419" width="16.746" height="19.09" transform="translate(45.692 60.609)" fill="#190c29"/>
      <circle id="Elipse_5664" data-name="Elipse 5664" cx="8.311" cy="8.311" r="8.311" transform="translate(45.567 22.771)" fill="#52427e"/>
      <path id="Rectngulo_45420" data-name="Rectngulo 45420" d="M6.646,0h29.9a6.645,6.645,0,0,1,6.645,6.645v.127a0,0,0,0,1,0,0H0a0,0,0,0,1,0,0V6.646A6.646,6.646,0,0,1,6.646,0Z" transform="translate(32.2 72.927)" fill="#42335b"/>
    </g>
  </g>
</svg>
