<svg xmlns="http://www.w3.org/2000/svg" xmlns:xlink="http://www.w3.org/1999/xlink" width="190" height="138" viewBox="0 0 190 138">
  <defs>
    <clipPath id="clip-path">
      <rect id="Rectángulo_44905" data-name="Rectángulo 44905" width="146" height="127" transform="translate(180.55 1157.921)" fill="#fff" stroke="#707070" stroke-width="1"/>
    </clipPath>
    <clipPath id="clip-path-2">
      <rect id="Rectángulo_44904" data-name="Rectángulo 44904" width="90" height="90" transform="translate(0.066 0.311)" fill="#fff" stroke="#707070" stroke-width="1"/>
    </clipPath>
  </defs>
  <g id="Grupo_951873" data-name="Grupo 951873" transform="translate(-180 -4402)">
    <rect id="Rectángulo_44903" data-name="Rectángulo 44903" width="190" height="138" transform="translate(180 4402)" fill="none"/>
    <g id="Enmascarar_grupo_100" data-name="Enmascarar grupo 100" transform="translate(21.45 3250.078)" clip-path="url(#clip-path)">
      <g id="Grupo_951872" data-name="Grupo 951872" transform="translate(180.016 1158)">
        <path id="hacker-working-in-the-darkness" d="M0,0H57.589a61.754,61.754,0,0,0,58.085,40.789,62.291,62.291,0,0,0,8.071-.525V96.318q-4,.272-8.071.275A117.569,117.569,0,0,1,0,0Z" transform="translate(96.593) rotate(90)" fill="#45bbcc" style="mix-blend-mode: multiply;isolation: isolate"/>
        <g id="Enmascarar_grupo_99" data-name="Enmascarar grupo 99" transform="translate(43.468 21.61)" clip-path="url(#clip-path-2)">
          <g id="Filled_outline" data-name="Filled outline" transform="translate(0.072 0.293)">
            <path id="Trazado_636525" data-name="Trazado 636525" d="M17.007,9h60.07a6.007,6.007,0,0,1,6.007,6.007V61.561a4.505,4.505,0,0,1-4.505,4.505H15.505A4.505,4.505,0,0,1,11,61.561V15.007A6.007,6.007,0,0,1,17.007,9Z" transform="translate(2.516 1.512)" fill="#4db7e5"/>
            <path id="Trazado_636526" data-name="Trazado 636526" d="M55.5,9H54V66.066h3V9.189A6.019,6.019,0,0,0,55.5,9Z" transform="translate(24.091 1.512)" fill="#48add9"/>
            <path id="Trazado_636527" data-name="Trazado 636527" d="M67.059,3H22.007A6.007,6.007,0,0,0,16,9.007V72.08H73.066V9.007A6.007,6.007,0,0,0,67.059,3Z" transform="translate(5.024 -1.498)" fill="#348fd9"/>
            <path id="Trazado_636528" data-name="Trazado 636528" d="M72.314,12.5,17.5,67.314H72.314Z" transform="translate(5.777 3.268)" fill="#3086cd"/>
            <path id="Trazado_636529" data-name="Trazado 636529" d="M61.045,34.523q0,.757-.056,1.5A19.5,19.5,0,0,1,44.241,53.856c-.4.058-.807.1-1.216.133q-.743.056-1.5.056t-1.5-.056c-.409-.032-.815-.075-1.216-.133a19.274,19.274,0,0,1-4.547-1.207,19.521,19.521,0,0,1-12.2-16.624Q22,35.281,22,34.523t.056-1.5a19.5,19.5,0,0,1,16.536-17.8q.707-.107,1.429-.163.743-.056,1.5-.056t1.5.056c.409.032.815.075,1.216.133a19.264,19.264,0,0,1,4.543,1.205,19.589,19.589,0,0,1,10.062,9.117,19.366,19.366,0,0,1,2.144,7.509Q61.045,33.764,61.045,34.523Z" transform="translate(8.035 4.523)" fill="#4db7e5"/>
            <path id="Trazado_636530" data-name="Trazado 636530" d="M60.989,36.024q.056-.743.056-1.5t-.056-1.5H53.508a38.2,38.2,0,0,0-1.029-7.509h6.366a19.407,19.407,0,0,0-1.933-3h-5.3a30.884,30.884,0,0,0-2.827-6.114,19.264,19.264,0,0,0-4.543-1.205l1.047,1.352a26.306,26.306,0,0,1,3.133,5.968h-5.4V15.056Q42.281,15,41.523,15t-1.5.056v7.452h-5.4a26.209,26.209,0,0,1,3.15-5.99c.019-.024.034-.051.051-.075l.768-1.224a19.333,19.333,0,0,0-4.331,1.175,30.786,30.786,0,0,0-2.827,6.114h-5.3a19.408,19.408,0,0,0-1.933,3h6.366a38.158,38.158,0,0,0-1.029,7.509H22.056q-.056.743-.056,1.5t.056,1.5h7.482a37.632,37.632,0,0,0,1.434,9.01H25.067a19.6,19.6,0,0,0,2.369,3H31.99a29.216,29.216,0,0,0,2.268,4.61A19.274,19.274,0,0,0,38.8,53.856L37.757,52.5a24.869,24.869,0,0,1-2.517-4.464h4.781v5.951q.743.056,1.5.056t1.5-.056V48.038h4.781A24.771,24.771,0,0,1,45.288,52.5l-1.047,1.353a19.274,19.274,0,0,0,4.547-1.207,29.053,29.053,0,0,0,2.268-4.61h4.554a19.6,19.6,0,0,0,2.369-3H52.072a37.692,37.692,0,0,0,1.434-9.01Zm-20.968,9.01H34.113a34.334,34.334,0,0,1-1.569-9.01h7.477Zm0-12.014H32.542a34.9,34.9,0,0,1,1.121-7.509h6.358Zm8.911,12.014H43.024v-9.01H50.5a34.4,34.4,0,0,1-1.569,9.01ZM43.024,33.021V25.512h6.358A34.951,34.951,0,0,1,50.5,33.021Z" transform="translate(8.035 4.523)" fill="#60d1e0"/>
            <path id="Trazado_636531" data-name="Trazado 636531" d="M57.935,46.5A5.127,5.127,0,0,1,54.31,48H42.038a5.128,5.128,0,0,1-3.625-1.5A5.127,5.127,0,0,0,34.787,45H9v4.505a4.505,4.505,0,0,0,4.505,4.505h69.08a4.505,4.505,0,0,0,4.505-4.505V45H61.561a5.128,5.128,0,0,0-3.625,1.5Z" transform="translate(1.512 19.575)" fill="#e0e0de"/>
            <path id="Trazado_636532" data-name="Trazado 636532" d="M58.505,45v4.505A4.505,4.505,0,0,1,54,54.01h6.007a4.505,4.505,0,0,0,4.505-4.505V45Z" transform="translate(24.091 19.575)" fill="#d6d6d4"/>
            <path id="Trazado_636533" data-name="Trazado 636533" d="M45.049,47.379V66.151a3.337,3.337,0,0,1-.462,1.7A3.373,3.373,0,0,1,41.67,69.53H6.379a3.373,3.373,0,0,1-2.917-1.676A3.337,3.337,0,0,1,3,66.151V47.379a3.337,3.337,0,0,1,.462-1.7A3.373,3.373,0,0,1,6.379,44H41.67a3.373,3.373,0,0,1,2.917,1.676,3.337,3.337,0,0,1,.462,1.7Z" transform="translate(-1.498 19.073)" fill="#ffb531"/>
            <path id="Trazado_636534" data-name="Trazado 636534" d="M44.433,45.676c-4.65,2.589-12.128,4.269-20.563,4.269S7.957,48.265,3.308,45.676A3.373,3.373,0,0,1,6.225,44H41.516A3.373,3.373,0,0,1,44.433,45.676Z" transform="translate(-1.344 19.073)" fill="#ffcb73"/>
            <path id="Trazado_636535" data-name="Trazado 636535" d="M44.433,61.31a3.373,3.373,0,0,1-2.917,1.676H6.225A3.373,3.373,0,0,1,3.308,61.31c4.65-2.589,12.128-4.269,20.563-4.269S39.783,58.721,44.433,61.31Z" transform="translate(-1.344 25.617)" fill="#ffa912"/>
            <path id="Trazado_636536" data-name="Trazado 636536" d="M22.519,27A16.519,16.519,0,0,0,6,43.519v9.01h6.007v-9.01a10.512,10.512,0,0,1,21.024,0v9.01h6.007v-9.01A16.519,16.519,0,0,0,22.519,27Z" transform="translate(0.007 10.544)" fill="#e0e0de"/>
            <path id="Trazado_636537" data-name="Trazado 636537" d="M23.011,53.512A4.505,4.505,0,1,0,17,57.74v3.28h3V57.74A4.5,4.5,0,0,0,23.011,53.512Z" transform="translate(4.021 21.575)" fill="#95573a"/>
            <path id="Trazado_636538" data-name="Trazado 636538" d="M86.589,65.073h-1.5V18.519a7.517,7.517,0,0,0-7.509-7.509v-1.5A7.517,7.517,0,0,0,70.07,2H25.017a7.517,7.517,0,0,0-7.509,7.509v1.5A7.517,7.517,0,0,0,10,18.519V36.54h3V18.519a4.51,4.51,0,0,1,4.505-4.505V35.038h3V9.509A4.51,4.51,0,0,1,25.017,5H70.07a4.51,4.51,0,0,1,4.505,4.505V60.568h3V14.014a4.51,4.51,0,0,1,4.505,4.505V65.073H61.059a6.577,6.577,0,0,0-4.681,1.942,3.612,3.612,0,0,1-2.572,1.062H46.042v3h7.764a6.6,6.6,0,0,0,4.7-1.942,3.594,3.594,0,0,1,2.557-1.062H85.087v3a3.007,3.007,0,0,1-3,3H46.042v3H82.084a6.014,6.014,0,0,0,6.007-6.007V66.575A1.5,1.5,0,0,0,86.589,65.073Z" transform="translate(2.014 -2)"/>
            <path id="Trazado_636539" data-name="Trazado 636539" d="M15,34h3V44.512H15Z" transform="translate(4.523 14.056)"/>
            <path id="Trazado_636540" data-name="Trazado 636540" d="M20,6h3V9H20Z" transform="translate(7.031 0.007)"/>
            <path id="Trazado_636541" data-name="Trazado 636541" d="M24,6h3V9H24Z" transform="translate(9.038 0.007)"/>
            <path id="Trazado_636542" data-name="Trazado 636542" d="M28,6h3V9H28Z" transform="translate(11.045 0.007)"/>
            <path id="Trazado_636543" data-name="Trazado 636543" d="M20,10H65.052v3H20Z" transform="translate(7.031 2.014)"/>
            <path id="Trazado_636544" data-name="Trazado 636544" d="M37.24,52.447c-.318-.082-.638-.174-.952-.275l-.918,2.86c.37.119.747.228,1.112.322A21.022,21.022,0,1,0,24.129,23.7a20.76,20.76,0,0,0-2.754,6.474l2.923.691a17.749,17.749,0,0,1,1.937-4.851H30.88a38.366,38.366,0,0,0-1.057,9.01c0,1.04.042,2.091.124,3.123l2.994-.24c-.037-.458-.064-.92-.083-1.382h7.477v9.01H35.829v3h4.505v4.438a17.983,17.983,0,0,1-3.094-.531Zm16.5-3.907a18.092,18.092,0,0,1-3.418,2.374c.377-.768.729-1.558,1.045-2.374Zm2.724-3H52.384a37.768,37.768,0,0,0,1.436-9.01H59.8a17.7,17.7,0,0,1-3.331,9.01ZM37.783,17.467a17.938,17.938,0,0,1,2.551-.4v5.94H34.942a26.556,26.556,0,0,1,2.841-5.543Zm5.555-.4a17.972,17.972,0,0,1,2.551.4,26.552,26.552,0,0,1,2.842,5.543H43.338Zm6.356,8.943a34.928,34.928,0,0,1,1.121,7.509H43.338V26.014Zm10.1,7.509H53.822a38.106,38.106,0,0,0-1.028-7.509h4.644a17.85,17.85,0,0,1,2.355,7.509ZM55.261,23.01H51.922a32.269,32.269,0,0,0-1.612-3.9,17.854,17.854,0,0,1,4.95,3.9Zm-21.9-3.9a32.268,32.268,0,0,0-1.612,3.9H28.412a17.852,17.852,0,0,1,4.951-3.9Zm-.505,14.41a34.915,34.915,0,0,1,1.12-7.509h6.357v7.509Zm10.48,3h7.477a34.4,34.4,0,0,1-1.572,9.01H43.338ZM48.116,48.54a25.043,25.043,0,0,1-2.223,4.04,17.913,17.913,0,0,1-2.555.4V48.54Z" transform="translate(7.721 4.021)"/>
            <path id="Trazado_636545" data-name="Trazado 636545" d="M42.547,51.559V44.021a18.021,18.021,0,1,0-36.042,0v7.539A5.057,5.057,0,0,0,2,56.579V75.013a5.056,5.056,0,0,0,5.05,5.05H42a5.056,5.056,0,0,0,5.05-5.05V56.579a5.057,5.057,0,0,0-4.505-5.02ZM24.526,29A15.035,15.035,0,0,1,39.544,44.021V51.53h-3V44.021a12.014,12.014,0,1,0-24.028,0V51.53h-3V44.021A15.035,15.035,0,0,1,24.526,29Zm9.01,22.526H15.516V44.021a9.01,9.01,0,1,1,18.021,0ZM44.049,75.013A2.049,2.049,0,0,1,42,77.059H7.05A2.049,2.049,0,0,1,5,75.013V56.579A2.049,2.049,0,0,1,7.05,54.533H42a2.049,2.049,0,0,1,2.046,2.046Z" transform="translate(-2 10.042)"/>
            <path id="Trazado_636546" data-name="Trazado 636546" d="M18.5,49A4.505,4.505,0,0,0,17,57.752v3.262h3V57.752A4.505,4.505,0,0,0,18.5,49Zm0,6.007a1.5,1.5,0,1,1,1.5-1.5A1.5,1.5,0,0,1,18.5,55.007Z" transform="translate(4.021 21.582)"/>
          </g>
        </g>
      </g>
    </g>
  </g>
</svg>
