<svg id="Grupo_956896" data-name="Grupo 956896" xmlns="http://www.w3.org/2000/svg" xmlns:xlink="http://www.w3.org/1999/xlink" width="92" height="92" viewBox="0 0 92 92">
  <defs>
    <clipPath id="clip-path">
      <rect id="Rect치ngulo_45380" data-name="Rect치ngulo 45380" width="78" height="78" transform="translate(1284.752 12980.752)" fill="#fff" stroke="#707070" stroke-width="1"/>
    </clipPath>
  </defs>
  <rect id="Rect치ngulo_34429" data-name="Rect치ngulo 34429" width="92" height="92" fill="none"/>
  <g id="Enmascarar_grupo_145" data-name="Enmascarar grupo 145" transform="translate(-1277.752 -12973.752)" clip-path="url(#clip-path)">
    <g id="gusano" transform="translate(1285.085 12981)">
      <path id="Trazado_656536" data-name="Trazado 656536" d="M82.187,70.451H72.033V77.5H82.187a2.745,2.745,0,0,1,2.742,2.742v7.964a3.525,3.525,0,1,0,7.051,0V80.244a9.8,9.8,0,0,0-9.793-9.793Zm0,0" transform="translate(-15.536 -15.121)" fill="#2ff980"/>
      <path id="Trazado_656537" data-name="Trazado 656537" d="M8.6,64.98V56.557a.8.8,0,0,1,.8-.8H16.01V48.7H9.4a7.862,7.862,0,0,0-7.853,7.853V64.98A7.862,7.862,0,0,0,9.4,72.834H25.254V65.783H9.4a.8.8,0,0,1-.8-.8Zm0,0" transform="translate(-0.408 -10.453)" fill="#2ff980"/>
      <path id="Trazado_656538" data-name="Trazado 656538" d="M73.382,28.12V48.657c0,13.6-21.679,26.7-26.876,29.646a2.249,2.249,0,0,1-2.222,0A101.111,101.111,0,0,1,31.925,70c-4.369-3.46-8.807-7.689-11.6-12.26a17.56,17.56,0,0,1-2.914-9.084V28.12a2.247,2.247,0,0,1,2.083-2.25c4.852-.326,6.542-2.016,6.87-6.868a2.248,2.248,0,0,1,2.248-2.086H62.18A2.247,2.247,0,0,1,64.428,19c.328,4.852,2.018,6.542,6.87,6.868a2.247,2.247,0,0,1,2.083,2.25Zm0,0" transform="translate(-3.812 -3.631)" fill="#e3f4ff"/>
      <path id="Trazado_656539" data-name="Trazado 656539" d="M45.776,74.247a99.533,99.533,0,0,1-8.227-5.733c-1.248-.969-2.452-1.963-3.576-2.954-3.377-2.973-7.738-7.436-9.326-11.817a8.451,8.451,0,0,1-.579-2.865V34.268A1.975,1.975,0,0,1,25.3,32.44a12.7,12.7,0,0,0,7.2-7.2,1.974,1.974,0,0,1,1.828-1.229H59.321a1.973,1.973,0,0,1,1.828,1.229,12.7,12.7,0,0,0,7.2,7.2,1.973,1.973,0,0,1,1.229,1.828V50.877a10.848,10.848,0,0,1-1.656,5.183,38.534,38.534,0,0,1-8.249,9.5,93.494,93.494,0,0,1-11.8,8.687,1.974,1.974,0,0,1-2.1,0Zm0,0" transform="translate(-5.241 -5.153)" fill="#bddff4"/>
      <path id="Trazado_656540" data-name="Trazado 656540" d="M68.146,34.808V51.417c0,1.189-.667,5.657-9.236,13.2a91.036,91.036,0,0,1-11.546,8.5A98.091,98.091,0,0,1,39.3,67.5c-1.164-.9-2.338-1.867-3.484-2.878-5.785-5.09-7.968-8.782-8.775-11.009a6.521,6.521,0,0,1-.461-2.192V34.808a14.608,14.608,0,0,0,8.286-8.284H59.86a14.608,14.608,0,0,0,8.286,8.284Zm0,0" transform="translate(-5.781 -5.693)" fill="#583ae2"/>
      <path id="Trazado_656541" data-name="Trazado 656541" d="M47.619,50.923c0-4.588-2.111-8.307-4.715-8.307s-4.715,3.719-4.715,8.307S40.3,59.229,42.9,59.229,47.619,55.51,47.619,50.923Zm0,0" transform="translate(-8.272 -9.147)" fill="#364ec6"/>
      <path id="Trazado_656542" data-name="Trazado 656542" d="M65.665,4.976A3.527,3.527,0,0,1,62.14,8.5H58.864V35.808a9.814,9.814,0,0,1-9.8,9.8H38.634a14.19,14.19,0,0,1,0-7.051H49.06a2.756,2.756,0,0,0,2.753-2.753V8.086A6.645,6.645,0,0,1,58.45,1.451h3.69a3.525,3.525,0,0,1,3.525,3.525Zm0,0" transform="translate(-8.272 -0.311)" fill="#2ff980"/>
      <path id="Trazado_656543" data-name="Trazado 656543" d="M73.361,54.264a18.333,18.333,0,0,0,2.818-9.237V24.488A3.393,3.393,0,0,0,73.033,21.1c-4.273-.288-5.522-1.537-5.809-5.809a3.394,3.394,0,0,0-3.385-3.146H57.2V9.329h2.136a4.664,4.664,0,1,0,0-9.329H55.647a7.785,7.785,0,0,0-7.776,7.776v4.372H40.656a1.139,1.139,0,1,0,0,2.278h7.216v5.266H34.556A1.139,1.139,0,0,0,33.5,20.4a13.5,13.5,0,0,1-7.66,7.66,1.139,1.139,0,0,0-.709,1.055V45.724c0,1.679.938,6.411,9.622,14.056a92.934,92.934,0,0,0,11.694,8.607,1.14,1.14,0,0,0,1.21,0A92.976,92.976,0,0,0,59.351,59.78c8.684-7.645,9.622-12.377,9.622-14.056V39.979a1.139,1.139,0,1,0-2.278,0v5.745c0,.76-.427,4.932-8.849,12.347a89.525,89.525,0,0,1-10.794,8,89.476,89.476,0,0,1-10.794-8c-8.422-7.414-8.849-11.586-8.849-12.347V29.864A15.574,15.574,0,0,0,35.3,21.97H47.872V35.5a1.616,1.616,0,0,1-1.614,1.614H45.215c-1.017-2.957-2.958-4.781-5.114-4.781-3.283,0-5.854,4.149-5.854,9.446s2.572,9.446,5.854,9.446c2.17,0,4.1-1.817,5.113-4.781h1.043A10.955,10.955,0,0,0,57.2,35.5V21.97h1.6A15.572,15.572,0,0,0,66.7,29.863v4.873a1.139,1.139,0,1,0,2.278,0V29.115a1.139,1.139,0,0,0-.709-1.055A13.5,13.5,0,0,1,60.6,20.4a1.138,1.138,0,0,0-1.054-.709H57.2V14.425h6.637a1.109,1.109,0,0,1,1.112,1.021c.365,5.415,2.514,7.564,7.929,7.929A1.109,1.109,0,0,1,73.9,24.488V45.026c0,7.732-7.744,15.455-14.239,20.572a1.139,1.139,0,1,0,1.409,1.79q2.458-1.937,4.537-3.867h6.512a1.6,1.6,0,0,1,1.6,1.6v7.964a4.664,4.664,0,1,0,9.329,0V65.123a10.945,10.945,0,0,0-9.691-10.859ZM54.923,16.976H50.15V12.124h4.773Zm0,7.129H50.15V19.253h4.773ZM50.15,26.383h4.773v4.851H50.15Zm5.5-24.1h3.689a2.386,2.386,0,1,1,0,4.773H56.062A1.139,1.139,0,0,0,54.923,8.19V9.847H50.15V7.776A5.5,5.5,0,0,1,55.647,2.278ZM36.74,44.163a13.4,13.4,0,0,1,0-4.773h5.207v4.773ZM40.1,34.609c.984,0,1.978.956,2.667,2.5H37.431C38.135,35.542,39.149,34.609,40.1,34.609Zm0,14.335c-.953,0-1.966-.934-2.67-2.5h5.337C42.08,47.976,41.079,48.944,40.1,48.944Zm4.123-4.781V39.39h2.033a3.868,3.868,0,0,0,1.753-.419l3.451,3.45a8.617,8.617,0,0,1-5.2,1.742Zm8.861-3.339-3.43-3.43a3.861,3.861,0,0,0,.495-1.9V33.512h4.773V35.5A8.62,8.62,0,0,1,53.085,40.824Zm27.689,24.3v2.295H76V65.123a3.856,3.856,0,0,0-.445-1.8l3.062-3.905A8.615,8.615,0,0,1,80.775,65.123ZM67.93,61.243a43.888,43.888,0,0,0,3.388-3.936q.317-.419.613-.837h.189A8.6,8.6,0,0,1,76.9,57.915L73.937,61.7a3.854,3.854,0,0,0-1.817-.453ZM78.388,75.474A2.389,2.389,0,0,1,76,73.088V69.7h4.773v3.391a2.389,2.389,0,0,1-2.386,2.386Zm0,0" transform="translate(-5.47 0)"/>
      <path id="Trazado_656544" data-name="Trazado 656544" d="M50.09,72.029C46.668,74.419,43.7,76.171,42.229,77a1.107,1.107,0,0,1-1.1,0c-4.391-2.488-26.3-15.565-26.3-28.656V27.808A1.109,1.109,0,0,1,15.852,26.7c5.415-.365,7.564-2.514,7.929-7.929a1.109,1.109,0,0,1,1.113-1.021H30.04a1.139,1.139,0,1,0,0-2.278H24.894a3.393,3.393,0,0,0-3.385,3.146c-.288,4.272-1.537,5.521-5.809,5.809a3.393,3.393,0,0,0-3.146,3.385V40.431H9.089A9,9,0,0,0,.1,49.424v8.423a9,9,0,0,0,8.992,8.992H23.121q.635.589,1.307,1.182A98.3,98.3,0,0,0,40.007,78.984a3.409,3.409,0,0,0,3.344,0c1.5-.851,4.545-2.644,8.043-5.087a1.139,1.139,0,0,0-1.3-1.868Zm-33.3-12.241a42.138,42.138,0,0,0,4,4.773H13.861V59.788ZM15.321,57.51h-5.9V49.76h3.2A19.214,19.214,0,0,0,15.321,57.51Zm-2.768-14.8v4.773H9.089a1.925,1.925,0,0,0-.424.048L5.136,44a6.679,6.679,0,0,1,3.953-1.291Zm-9,2.926,3.607,3.607c-.005.06-.009.12-.009.181V52.5H2.374V49.424a6.674,6.674,0,0,1,1.175-3.788ZM2.374,57.847V54.774H7.147v3.073a1.9,1.9,0,0,0,.03.326L3.618,61.731a6.674,6.674,0,0,1-1.243-3.885Zm2.858,5.491,3.573-3.573a1.931,1.931,0,0,0,.283.023h2.494v4.773H9.089a6.675,6.675,0,0,1-3.856-1.223Zm0,0" transform="translate(-0.097 -3.32)"/>
    </g>
  </g>
</svg>
