<svg id="_025---Private-Password" data-name="025---Private-Password" xmlns="http://www.w3.org/2000/svg" width="98.166" height="98.166" viewBox="0 0 98.166 98.166">
  <path id="Path" d="M63.385,33.722H87.713a8.181,8.181,0,0,0,8.18-8.181V9.181A8.181,8.181,0,0,0,87.713,1H9.181A8.181,8.181,0,0,0,1,9.181V25.542a8.181,8.181,0,0,0,8.181,8.181Z" transform="translate(0.636 0.636)" fill="#2ff980"/>
  <path id="Path-2" data-name="Path" d="M50.45,32.725v8.18H43.905v-8.18a8.181,8.181,0,1,0-16.361,0v8.18H21v-8.18a14.725,14.725,0,1,1,29.45,0Z" transform="translate(13.358 11.45)" fill="#5c626b"/>
  <rect id="Rectangle" width="46" height="45" rx="2" transform="translate(26.166 51.166)" fill="#fcb544"/>
  <path id="Path-3" data-name="Path" d="M41.361,46.176a8.228,8.228,0,0,1-4.908,7.51v3.943a3.272,3.272,0,1,1-6.544,0V53.686a8.181,8.181,0,1,1,11.453-7.51Z" transform="translate(15.902 24.176)" fill="#d88e2e"/>
  <g id="Grupo_956976" data-name="Grupo 956976">
    <path id="Shape" d="M88.349,0H9.817A9.826,9.826,0,0,0,0,9.817V26.178a9.826,9.826,0,0,0,9.817,9.817H34.936a16.243,16.243,0,0,0-2.214,8.181v4.908H29.45a4.908,4.908,0,0,0-4.908,4.908V93.258a4.908,4.908,0,0,0,4.908,4.908H68.716a4.908,4.908,0,0,0,4.908-4.908V53.991a4.908,4.908,0,0,0-4.908-4.908H65.444V44.175a16.23,16.23,0,0,0-2.2-8.181H88.349a9.826,9.826,0,0,0,9.817-9.817V9.817A9.826,9.826,0,0,0,88.349,0Zm-18,53.991V93.258a1.636,1.636,0,0,1-1.636,1.636H29.45a1.636,1.636,0,0,1-1.636-1.636V53.991a1.636,1.636,0,0,1,1.636-1.636H68.716A1.636,1.636,0,0,1,70.352,53.991ZM55.627,49.083H42.539V44.175a6.544,6.544,0,1,1,13.089,0Zm3.272,0V44.175a9.817,9.817,0,1,0-19.633,0v4.908H35.994V44.175a13.089,13.089,0,1,1,26.178,0v4.908ZM94.894,26.178a6.544,6.544,0,0,1-6.544,6.544h-27.6c-.034-.034-.064-.072-.1-.106a16.32,16.32,0,0,0-23.233.106H9.817a6.544,6.544,0,0,1-6.544-6.544V9.817A6.544,6.544,0,0,1,9.817,3.272H88.349a6.544,6.544,0,0,1,6.544,6.544Z"/>
    <path id="Path-4" data-name="Path" d="M33.821,37a9.817,9.817,0,0,0-4.908,18.324v2.945a4.908,4.908,0,1,0,9.817,0V54.326a1.636,1.636,0,1,0-3.272,0v3.943a1.636,1.636,0,1,1-3.272,0V54.326a1.636,1.636,0,0,0-.973-1.5,6.544,6.544,0,1,1,9.154-6.014,1.636,1.636,0,1,0,3.272,0A9.826,9.826,0,0,0,33.821,37Z" transform="translate(15.262 23.536)"/>
    <path id="Path-5" data-name="Path" d="M20.814,9.364a1.636,1.636,0,0,0-2.269-.453l-2.364,1.577V8.636a1.636,1.636,0,0,0-3.272,0v1.852L10.544,8.911a1.636,1.636,0,0,0-1.816,2.722L11.6,13.544,8.728,15.455a1.636,1.636,0,0,0,1.816,2.722L12.908,16.6v1.852a1.636,1.636,0,0,0,3.272,0V16.6l2.364,1.577a1.636,1.636,0,0,0,1.816-2.722L17.49,13.544l2.866-1.911a1.636,1.636,0,0,0,.458-2.269Z" transform="translate(5.089 4.453)"/>
    <path id="Path-6" data-name="Path" d="M32.814,9.364a1.636,1.636,0,0,0-2.269-.453l-2.364,1.577V8.636a1.636,1.636,0,0,0-3.272,0v1.852L22.544,8.911a1.636,1.636,0,1,0-1.816,2.722L23.6,13.544l-2.866,1.911a1.636,1.636,0,0,0,1.816,2.722L24.908,16.6v1.852a1.636,1.636,0,0,0,3.272,0V16.6l2.364,1.577a1.636,1.636,0,0,0,1.816-2.722l-2.871-1.911,2.866-1.911a1.636,1.636,0,0,0,.458-2.269Z" transform="translate(12.722 4.453)"/>
    <path id="Path-7" data-name="Path" d="M44.814,9.364a1.636,1.636,0,0,0-2.269-.453l-2.364,1.577V8.636a1.636,1.636,0,0,0-3.272,0v1.852L34.544,8.911a1.636,1.636,0,1,0-1.816,2.722L35.6,13.544l-2.866,1.911a1.636,1.636,0,0,0,1.816,2.722L36.908,16.6v1.852a1.636,1.636,0,1,0,3.272,0V16.6l2.364,1.577a1.636,1.636,0,0,0,1.816-2.722L41.49,13.544l2.866-1.911a1.636,1.636,0,0,0,.458-2.269Z" transform="translate(20.355 4.453)"/>
    <path id="Path-8" data-name="Path" d="M56.814,9.364a1.636,1.636,0,0,0-2.269-.453l-2.364,1.577V8.636a1.636,1.636,0,0,0-3.272,0v1.852L46.544,8.911a1.636,1.636,0,1,0-1.816,2.722L47.6,13.544l-2.866,1.911a1.636,1.636,0,1,0,1.816,2.722L48.908,16.6v1.852a1.636,1.636,0,0,0,3.272,0V16.6l2.364,1.577a1.636,1.636,0,0,0,1.816-2.722L53.49,13.544l2.866-1.911a1.636,1.636,0,0,0,.458-2.269Z" transform="translate(27.988 4.453)"/>
  </g>
</svg>
