<svg xmlns="http://www.w3.org/2000/svg" xmlns:xlink="http://www.w3.org/1999/xlink" width="190" height="115" viewBox="0 0 190 115">
  <defs>
    <clipPath id="clip-path">
      <rect id="Rect치ngulo_45471" data-name="Rect치ngulo 45471" width="190" height="115" transform="translate(1020 9470)" fill="#2ff980"/>
    </clipPath>
  </defs>
  <g id="Enmascarar_grupo_148" data-name="Enmascarar grupo 148" transform="translate(-1020 -9470)" clip-path="url(#clip-path)">
    <g id="control-de-acceso" transform="translate(1040.054 9470)">
      <g id="Grupo_957645" data-name="Grupo 957645" transform="translate(24.185 1.685)">
        <path id="Trazado_657901" data-name="Trazado 657901" d="M30,195v43.8a3.379,3.379,0,0,0,3.369,3.369H74.941a28.686,28.686,0,0,1,15.7-32.186V195Zm24.366,17.628,4.765,4.765,7.147-7.147,4.765,4.765L59.131,226.92l-9.53-9.529Z" transform="translate(-30 -152.884)" fill="#ffc464" fill-rule="evenodd"/>
        <path id="Trazado_657902" data-name="Trazado 657902" d="M205.089,274.9h5.157a28.687,28.687,0,0,1,15.7-32.186v-5.5A33.721,33.721,0,0,0,205.089,274.9Z" transform="translate(-165.306 -185.621)" fill="#ff8d4c" fill-rule="evenodd"/>
        <path id="Trazado_657903" data-name="Trazado 657903" d="M117.27,270.022l9.529,9.529,11.912-11.912-4.765-4.765-7.147,7.147-4.765-4.765Z" transform="translate(-97.668 -205.515)" fill="#b5efbc" fill-rule="evenodd"/>
        <path id="Trazado_657904" data-name="Trazado 657904" d="M45,49.614h6.738V34.453a20.215,20.215,0,1,1,40.43,0v6.738h6.738V34.453a26.953,26.953,0,0,0-53.906,0Z" transform="translate(-41.631 -7.5)" fill="#6e91ef" fill-rule="evenodd"/>
        <path id="Trazado_657905" data-name="Trazado 657905" d="M227,278.137a28.577,28.577,0,0,0,10.107,21.835v-3.305c0-3.705,3.144-5.84,6.738-6.738l6.738-1.685v-4.732a10.13,10.13,0,0,1-5.054-8.744v-5.054a10.107,10.107,0,1,1,20.215,0v5.054a10.128,10.128,0,0,1-5.054,8.744v4.733l6.738,1.684c3.594.9,6.738,3.032,6.738,6.738v3.305A28.638,28.638,0,1,0,227,278.137Z" transform="translate(-182.752 -195.144)" fill="#fff" fill-rule="evenodd"/>
        <path id="Trazado_657906" data-name="Trazado 657906" d="M319.607,294.5A10.137,10.137,0,0,0,309.5,304.607v5.054a5.069,5.069,0,0,1,5.054-5.054h10.107a5.068,5.068,0,0,1,5.054,5.054v-5.054A10.137,10.137,0,0,0,319.607,294.5Z" transform="translate(-246.722 -230.036)" fill="#6e91ef" fill-rule="evenodd"/>
        <path id="Trazado_657907" data-name="Trazado 657907" d="M324.661,339.5H314.554a5.069,5.069,0,0,0-5.054,5.054,10.13,10.13,0,0,0,5.054,8.744,10.05,10.05,0,0,0,10.107,0,10.13,10.13,0,0,0,5.054-8.744A5.069,5.069,0,0,0,324.661,339.5Z" transform="translate(-246.722 -264.929)" fill="#fbf2e2" fill-rule="evenodd"/>
        <path id="Trazado_657908" data-name="Trazado 657908" d="M337.054,402.293A10.024,10.024,0,0,1,332,400.93v4.733a5.054,5.054,0,1,0,10.107,0V400.93A10.023,10.023,0,0,1,337.054,402.293Z" transform="translate(-264.168 -312.562)" fill="#f7e0ba" fill-rule="evenodd"/>
        <path id="Trazado_657909" data-name="Trazado 657909" d="M290.53,427.054A5.053,5.053,0,0,1,285.477,422l-6.738,1.684c-3.594.9-6.738,3.033-6.738,6.738v3.305a28.64,28.64,0,0,0,37.061,0v-3.305c0-3.706-3.144-5.84-6.738-6.738L295.584,422A5.054,5.054,0,0,1,290.53,427.054Z" transform="translate(-217.644 -328.899)" fill="#b5efbc" fill-rule="evenodd"/>
        <rect id="Rect치ngulo_45472" data-name="Rect치ngulo 45472" width="6.738" height="5.054" transform="translate(3.369 37.06)" fill="#3d6dea"/>
        <path id="Trazado_657910" data-name="Trazado 657910" d="M227,278.142a28.577,28.577,0,0,0,10.107,21.836v-3.305a5.834,5.834,0,0,1,.294-1.861,28.641,28.641,0,0,1,20.765-45.194A28.639,28.639,0,0,0,227,278.142Z" transform="translate(-182.752 -195.148)" fill="#b6e6fa" fill-rule="evenodd"/>
        <path id="Trazado_657911" data-name="Trazado 657911" d="M272.293,451.213a5.838,5.838,0,0,0-.294,1.861v3.305a28.574,28.574,0,0,0,21.07,6.691A28.635,28.635,0,0,1,272.293,451.213Z" transform="translate(-217.644 -351.551)" fill="#6ee0bc" fill-rule="evenodd"/>
        <path id="Trazado_657912" data-name="Trazado 657912" d="M319.607,294.5A10.137,10.137,0,0,0,309.5,304.607v5.054a5.069,5.069,0,0,1,5.054-5.054,10.148,10.148,0,0,1,7.581-9.786A10.034,10.034,0,0,0,319.607,294.5Z" transform="translate(-246.722 -230.036)" fill="#3d6dea" fill-rule="evenodd"/>
        <path id="Trazado_657913" data-name="Trazado 657913" d="M314.553,339.5a5.069,5.069,0,0,0-5.054,5.054,10.129,10.129,0,0,0,5.054,8.744,10.058,10.058,0,0,0,7.582,1.041,10.145,10.145,0,0,1-7.582-9.785V339.5Z" transform="translate(-246.721 -264.929)" fill="#f7e0ba" fill-rule="evenodd"/>
        <path id="Trazado_657914" data-name="Trazado 657914" d="M235.869,220.866H232.5V217.5h3.369Z" transform="translate(-187.017 -170.33)" fill="#fff"/>
      </g>
      <g id="Grupo_957646" data-name="Grupo 957646" transform="translate(22.5 0)">
        <path id="Trazado_657915" data-name="Trazado 657915" d="M69.127,238.035H27.554a5.059,5.059,0,0,1-5.054-5.054V187.5H86.514v16.669H83.145v-13.3H25.869v42.114a1.686,1.686,0,0,0,1.685,1.685H69.127Z" transform="translate(-22.5 -145.384)"/>
        <path id="Trazado_657916" data-name="Trazado 657916" d="M47.259,42.153H43.931c0-1.773.519-17.013.918-18.664l1.232-10.169a25.179,25.179,0,0,0-5.212,15.319V43.8H37.5V28.638A28.572,28.572,0,0,1,44.648,9.76L45.7,8.589l1.079-1.017.482-.424a28.6,28.6,0,0,1,47.516,21.49V37.06H84.668V28.638a18.532,18.532,0,0,0-36.5-4.537Zm40.778-8.462h3.369V28.638A25.231,25.231,0,0,0,49.966,9.264l-.65,5.366A21.891,21.891,0,0,1,88.037,28.638Z" transform="translate(-34.131 0)"/>
        <path id="Trazado_657917" data-name="Trazado 657917" d="M125.722,252.268l7.147,7.147L118.575,273.71,106.663,261.8l7.147-7.147,4.765,4.765Zm2.382,7.147-2.382-2.382-7.147,7.147-4.765-4.765-2.382,2.382,7.147,7.147Z" transform="translate(-87.759 -195.607)"/>
        <path id="Trazado_657918" data-name="Trazado 657918" d="M372.869,405.661H369.5v-4.733h3.369Z" transform="translate(-291.56 -310.876)"/>
        <path id="Trazado_657919" data-name="Trazado 657919" d="M313.792,287a11.805,11.805,0,0,1,11.792,11.792v5.054a11.792,11.792,0,1,1-23.584,0v-5.054A11.805,11.805,0,0,1,313.792,287Zm0,25.269a8.432,8.432,0,0,0,8.423-8.423v-5.054a8.423,8.423,0,0,0-16.846,0v5.054A8.432,8.432,0,0,0,313.792,312.268Z" transform="translate(-239.222 -222.536)"/>
        <path id="Trazado_657920" data-name="Trazado 657920" d="M331.238,428.738A6.746,6.746,0,0,1,324.5,422h3.369a3.369,3.369,0,0,0,6.738,0h3.369A6.746,6.746,0,0,1,331.238,428.738Z" transform="translate(-256.668 -327.215)"/>
        <path id="Trazado_657921" data-name="Trazado 657921" d="M325.584,338.737h-3.369a3.373,3.373,0,0,0-3.369-3.369H308.738a3.373,3.373,0,0,0-3.369,3.369H302A6.746,6.746,0,0,1,308.738,332h10.107A6.746,6.746,0,0,1,325.584,338.737Z" transform="translate(-239.222 -257.429)"/>
        <path id="Trazado_657922" data-name="Trazado 657922" d="M249.822,302.645a30.306,30.306,0,1,1,12.163-2.541l-1.353-3.086a26.863,26.863,0,1,0-3.074,1.129l.966,3.228A30.346,30.346,0,0,1,249.822,302.645Z" transform="translate(-175.252 -187.644)"/>
        <path id="Trazado_657923" data-name="Trazado 657923" d="M266.211,429.255l-1.711-4.474c0-4.048,2.921-7.1,8.014-8.373l4.246-1.061Zm38.719-1.169h-3.369v-3.305c0-3.253-3.422-4.594-5.462-5.1l-6.738-1.684.817-3.269,6.738,1.684c5.093,1.273,8.014,4.325,8.014,8.373Z" transform="translate(-210.144 -321.573)"/>
      </g>
    </g>
  </g>
</svg>
