<svg xmlns="http://www.w3.org/2000/svg" xmlns:xlink="http://www.w3.org/1999/xlink" width="190" height="115" viewBox="0 0 190 115">
  <defs>
    <clipPath id="clip-path">
      <rect id="Rectángulo_45470" data-name="Rectángulo 45470" width="190" height="115" transform="translate(1020 9470)" fill="#2ff980"/>
    </clipPath>
  </defs>
  <g id="Enmascarar_grupo_147" data-name="Enmascarar grupo 147" transform="translate(-1020 -9470)" clip-path="url(#clip-path)">
    <g id="hacker_5_" data-name="hacker(5)" transform="translate(1057.369 9468.95)">
      <g id="Grupo_957624" data-name="Grupo 957624" transform="translate(30.292 3.124)">
        <path id="Trazado_657861" data-name="Trazado 657861" d="M172.139,16.133l-5.453-5.254a6.9,6.9,0,0,0-9.575,0l-5.453,5.254a55.857,55.857,0,0,0-17.1,40.222V79.711h54.677V56.355a55.858,55.858,0,0,0-17.1-40.222Z" transform="translate(-134.56 -8.948)" fill="#736e6e"/>
      </g>
      <g id="Grupo_957625" data-name="Grupo 957625" transform="translate(53.975 3.125)">
        <path id="Trazado_657862" data-name="Trazado 657862" d="M253.656,16.136,248.2,10.882A6.9,6.9,0,0,0,239.759,10a6.923,6.923,0,0,1,1.131.883l5.453,5.254a55.857,55.857,0,0,1,17.1,40.222V79.714h7.312V56.358A55.859,55.859,0,0,0,253.656,16.136Z" transform="translate(-239.759 -8.952)" fill="#595454"/>
      </g>
      <g id="Grupo_957626" data-name="Grupo 957626" transform="translate(1.681 69.411)">
        <path id="Trazado_657863" data-name="Trazado 657863" d="M78.025,303.4H48.81A41.342,41.342,0,0,0,7.468,344.739v2.489a1.126,1.126,0,0,0,1.126,1.126H118.243a1.126,1.126,0,0,0,1.126-1.126v-2.489A41.343,41.343,0,0,0,78.025,303.4Z" transform="translate(-7.468 -303.397)" fill="#736e6e"/>
      </g>
      <g id="Grupo_957627" data-name="Grupo 957627" transform="translate(62.959 69.411)">
        <path id="Trazado_657864" data-name="Trazado 657864" d="M289.128,303.4h-9.46a41.162,41.162,0,0,1,41.162,41.162v2.675a1.121,1.121,0,0,1-1.121,1.121h9.46a1.121,1.121,0,0,0,1.121-1.121v-2.675A41.162,41.162,0,0,0,289.128,303.4Z" transform="translate(-279.668 -303.397)" fill="#595454"/>
      </g>
      <g id="Grupo_957628" data-name="Grupo 957628" transform="translate(40.393 28.55)">
        <path id="Trazado_657865" data-name="Trazado 657865" d="M196.664,163.039A17.238,17.238,0,0,1,179.426,145.8V121.891H213.9V145.8A17.238,17.238,0,0,1,196.664,163.039Z" transform="translate(-179.426 -121.891)" fill="#ffcbbe"/>
      </g>
      <g id="Grupo_957629" data-name="Grupo 957629" transform="translate(48.171 28.55)">
        <path id="Trazado_657866" data-name="Trazado 657866" d="M235.332,121.891v21.578a17.239,17.239,0,0,1-21.354,16.74,17.236,17.236,0,0,0,26.7-14.408V121.891Z" transform="translate(-213.978 -121.891)" fill="#fdad9d"/>
      </g>
      <g id="Grupo_957630" data-name="Grupo 957630" transform="translate(30.427 3.124)">
        <path id="Trazado_657867" data-name="Trazado 657867" d="M189.567,52.523A55.855,55.855,0,0,0,172.6,16.134l-5.453-5.254a6.9,6.9,0,0,0-9.575,0l-5.453,5.254A55.856,55.856,0,0,0,135.16,52.523l20.57-6.933a20.77,20.77,0,0,1,13.266,0Z" transform="translate(-135.16 -8.949)" fill="#736e6e"/>
      </g>
      <g id="Grupo_957631" data-name="Grupo 957631" transform="translate(50.42 3.124)">
        <path id="Trazado_657868" data-name="Trazado 657868" d="M224.142,13.376l5.453,5.254a55.844,55.844,0,0,1,16.074,29.607l12.712,4.285a55.855,55.855,0,0,0-16.963-36.388l-5.453-5.254a6.9,6.9,0,0,0-9.575,0l-2.424,2.336c.059.053.118.106.176.161Z" transform="translate(-223.966 -8.948)" fill="#595454"/>
      </g>
      <g id="Grupo_957632" data-name="Grupo 957632" transform="translate(16.81 65.286)">
        <path id="Trazado_657869" data-name="Trazado 657869" d="M151.136,285.073H79.85a5.178,5.178,0,0,0-5.178,5.178v38.727a5.178,5.178,0,0,0,5.178,5.178h71.286a5.178,5.178,0,0,0,5.178-5.178V290.251A5.178,5.178,0,0,0,151.136,285.073Z" transform="translate(-74.672 -285.073)" fill="#efe7e4"/>
      </g>
      <g id="Grupo_957633" data-name="Grupo 957633" transform="translate(16.81 65.286)">
        <path id="Trazado_657870" data-name="Trazado 657870" d="M151.159,285.073h-3.341V320.5a5.155,5.155,0,0,1-5.155,5.155H74.672V329a5.155,5.155,0,0,0,5.155,5.155h71.332A5.155,5.155,0,0,0,156.314,329V290.228A5.155,5.155,0,0,0,151.159,285.073Z" transform="translate(-74.672 -285.073)" fill="#eadfda"/>
      </g>
      <path id="Trazado_657871" data-name="Trazado 657871" d="M100.2,77.965l-.071-7.524A6.844,6.844,0,0,0,93.3,63.6H86.651V50.531A57.584,57.584,0,0,0,72.892,13.195a1.681,1.681,0,0,0-2.558,2.182,54.223,54.223,0,0,1,12.59,28.9L64.8,38.172a22.579,22.579,0,0,0-14.34,0L32.345,44.278A54.49,54.49,0,0,1,48.557,11.52L54.01,6.266a5.2,5.2,0,0,1,7.242,0L64.97,9.848A1.681,1.681,0,1,0,67.3,7.427L63.585,3.845a8.552,8.552,0,0,0-11.908,0L46.224,9.1A57.538,57.538,0,0,0,28.612,50.532V63.6H21.965a6.844,6.844,0,0,0-6.836,6.836V77.9A42.752,42.752,0,0,0,0,110.573v2.675a2.8,2.8,0,0,0,2.8,2.8H9.294a1.681,1.681,0,0,0,0-3.362H3.362v-2.115a39.384,39.384,0,0,1,11.767-28.12v26.761a6.844,6.844,0,0,0,6.836,6.836h90.5a2.8,2.8,0,0,0,2.8-2.8v-2.675A42.749,42.749,0,0,0,100.2,77.965ZM83.289,63.6H72.914a18.974,18.974,0,0,0,3.637-11.145V45.68l6.674,2.249C83.266,48.795,83.289,63.6,83.289,63.6ZM63.727,41.358l.038.013a2.915,2.915,0,1,0,5.283,1.78l4.14,1.4v7.912A15.6,15.6,0,0,1,68.478,63.6H46.785a15.612,15.612,0,0,1-4.711-11.145V44.547l3.745-1.262a2.915,2.915,0,1,0,5.352-1.8l.364-.123a19.2,19.2,0,0,1,12.192,0ZM32.039,47.929l6.673-2.249v6.779A18.987,18.987,0,0,0,42.349,63.6H31.973s.023-14.81.065-15.675ZM111.9,112.688H99.181a6.794,6.794,0,0,0,.952-3.474v-6.578a1.681,1.681,0,1,0-3.362,0v6.578a3.478,3.478,0,0,1-3.474,3.474H21.965a3.478,3.478,0,0,1-3.474-3.474V70.441a3.478,3.478,0,0,1,3.474-3.474H93.3a3.482,3.482,0,0,1,3.474,3.49L97,94.327a1.681,1.681,0,0,0,1.681,1.665h.016a1.681,1.681,0,0,0,1.665-1.7l-.109-11.726a39.381,39.381,0,0,1,11.652,28v2.115Z"/>
      <path id="Trazado_657872" data-name="Trazado 657872" d="M231.95,240.467h8.223a1.681,1.681,0,1,0,0-3.362H231.95a1.681,1.681,0,1,0,0,3.362Z" transform="translate(-178.43 -182.618)"/>
      <path id="Trazado_657873" data-name="Trazado 657873" d="M447.827,121.35h.868v10.243a1.681,1.681,0,1,0,3.362,0V119.669a1.681,1.681,0,0,0-1.681-1.681h-2.549a1.681,1.681,0,1,0,0,3.362Z" transform="translate(-345.709 -90.317)"/>
      <path id="Trazado_657874" data-name="Trazado 657874" d="M402.4,170.236a1.681,1.681,0,0,0,1.681,1.681h.868V182.16a1.681,1.681,0,1,0,3.362,0V170.236a1.681,1.681,0,0,0-1.681-1.681h-2.549A1.681,1.681,0,0,0,402.4,170.236Z" transform="translate(-311.809 -129.5)"/>
      <path id="Trazado_657875" data-name="Trazado 657875" d="M25.081,262.019a1.681,1.681,0,0,0,1.681-1.681V248.414a1.681,1.681,0,0,0-1.681-1.681H22.532a1.681,1.681,0,1,0,0,3.362H23.4v10.243A1.681,1.681,0,0,0,25.081,262.019Z" transform="translate(-16.157 -190.078)"/>
      <path id="Trazado_657876" data-name="Trazado 657876" d="M86.388,24.88h.868V35.123a1.681,1.681,0,1,0,3.362,0V23.2a1.681,1.681,0,0,0-1.681-1.681H86.388a1.681,1.681,0,0,0,0,3.362Z" transform="translate(-65.638 -15.564)"/>
      <path id="Trazado_657877" data-name="Trazado 657877" d="M379.407,33.457a5.135,5.135,0,0,0,5.129-5.129V22.813a5.129,5.129,0,1,0-10.259,0v5.515a5.135,5.135,0,0,0,5.129,5.129ZM377.64,22.813a1.767,1.767,0,0,1,3.534,0v5.515a1.767,1.767,0,0,1-3.534,0Z" transform="translate(-290.02 -12.593)"/>
      <path id="Trazado_657878" data-name="Trazado 657878" d="M466.223,238.811v5.515a5.129,5.129,0,0,0,10.259,0v-5.515a5.129,5.129,0,0,0-10.259,0Zm3.362,0a1.767,1.767,0,0,1,3.534,0v5.515a1.767,1.767,0,0,1-3.534,0Z" transform="translate(-361.266 -179.965)"/>
      <path id="Trazado_657879" data-name="Trazado 657879" d="M5.31,87.663a5.135,5.135,0,0,0,5.129-5.129V77.019a5.129,5.129,0,0,0-10.259,0v5.515A5.135,5.135,0,0,0,5.31,87.663ZM3.543,77.019a1.767,1.767,0,0,1,3.534,0v5.515a1.767,1.767,0,0,1-3.534,0Z" transform="translate(-0.14 -54.596)"/>
      <path id="Trazado_657880" data-name="Trazado 657880" d="M57.91,150a5.135,5.135,0,0,0,5.129-5.129v-5.515a5.129,5.129,0,1,0-10.259,0v5.515A5.135,5.135,0,0,0,57.91,150Zm-1.767-10.644a1.767,1.767,0,1,1,3.534,0v5.515a1.767,1.767,0,1,1-3.534,0Z" transform="translate(-40.899 -102.902)"/>
    </g>
  </g>
</svg>
