<svg xmlns="http://www.w3.org/2000/svg" xmlns:xlink="http://www.w3.org/1999/xlink" width="190" height="115" viewBox="0 0 190 115">
  <defs>
    <clipPath id="clip-path">
      <rect id="Rectángulo_45469" data-name="Rectángulo 45469" width="190" height="115" transform="translate(1020 9470)" fill="#2ff980"/>
    </clipPath>
  </defs>
  <g id="Enmascarar_grupo_146" data-name="Enmascarar grupo 146" transform="translate(-1020 -9470)" clip-path="url(#clip-path)">
    <g id="buscar_2_" data-name="buscar(2)" transform="translate(1040.584 9452.037)">
      <g id="Grupo_957587" data-name="Grupo 957587" transform="translate(18.131 19.406)">
        <g id="Grupo_957561" data-name="Grupo 957561" transform="translate(76.493 14.623)">
          <g id="Grupo_957556" data-name="Grupo 957556" transform="translate(0)">
            <g id="Grupo_957555" data-name="Grupo 957555">
              <path id="Trazado_657825" data-name="Trazado 657825" d="M165.924,48.746h29.008V83.507H165.924Z" transform="translate(-165.924 -48.746)" fill="#4e7db9"/>
            </g>
          </g>
          <g id="Grupo_957558" data-name="Grupo 957558" transform="translate(4.052 20.662)">
            <g id="Grupo_957557" data-name="Grupo 957557">
              <path id="Trazado_657826" data-name="Trazado 657826" d="M194.586,102.4h-20.9V96.812a8.508,8.508,0,0,1,8.508-8.508h3.889a8.508,8.508,0,0,1,8.508,8.508V102.4Z" transform="translate(-173.681 -88.304)" fill="#48bbad"/>
            </g>
          </g>
          <g id="Grupo_957560" data-name="Grupo 957560" transform="translate(10.059 8.23)">
            <g id="Grupo_957559" data-name="Grupo 957559">
              <path id="Trazado_657827" data-name="Trazado 657827" d="M189.8,76.275a4.619,4.619,0,0,1-4.619-4.619V69.12a4.619,4.619,0,1,1,9.237,0v2.536A4.619,4.619,0,0,1,189.8,76.275Z" transform="translate(-185.183 -64.502)" fill="#f6a337"/>
            </g>
          </g>
        </g>
        <g id="Grupo_957574" data-name="Grupo 957574" transform="translate(15.889 0)">
          <g id="Grupo_957571" data-name="Grupo 957571">
            <g id="Grupo_957563" data-name="Grupo 957563">
              <g id="Grupo_957562" data-name="Grupo 957562">
                <path id="Trazado_657828" data-name="Trazado 657828" d="M49.9,20.75h51.4V57.581H49.9Z" transform="translate(-49.896 -20.75)" fill="#4e7db9"/>
              </g>
            </g>
            <g id="Grupo_957570" data-name="Grupo 957570" transform="translate(0.32 16.149)">
              <g id="Grupo_957565" data-name="Grupo 957565" transform="translate(0 3.96)">
                <g id="Grupo_957564" data-name="Grupo 957564">
                  <path id="Trazado_657829" data-name="Trazado 657829" d="M50.508,75.971l8.817-15.72a2.253,2.253,0,0,1,3.747,0l9.8,15.72Z" transform="translate(-50.508 -59.249)" fill="#f6a337"/>
                </g>
              </g>
              <g id="Grupo_957567" data-name="Grupo 957567" transform="translate(26.437 2.629)">
                <g id="Grupo_957566" data-name="Grupo 957566">
                  <path id="Trazado_657830" data-name="Trazado 657830" d="M101.123,74.754l10.582-16.972a2.432,2.432,0,0,1,4.045,0l9.6,16.972Z" transform="translate(-101.123 -56.701)" fill="#f6a337"/>
                </g>
              </g>
              <g id="Grupo_957569" data-name="Grupo 957569" transform="translate(9.811 0)">
                <g id="Grupo_957568" data-name="Grupo 957568">
                  <path id="Trazado_657831" data-name="Trazado 657831" d="M69.291,72.35,81.414,52.906a2.786,2.786,0,0,1,4.634,0L98.172,72.35Z" transform="translate(-69.291 -51.668)" fill="#ffd160"/>
                </g>
              </g>
            </g>
          </g>
          <g id="Grupo_957573" data-name="Grupo 957573" transform="translate(29.728 5.623)">
            <g id="Grupo_957572" data-name="Grupo 957572">
              <path id="Trazado_657832" data-name="Trazado 657832" d="M114.352,38.283a4.207,4.207,0,1,1,0-5.125A4.208,4.208,0,0,1,114.352,38.283Z" transform="translate(-106.812 -31.515)" fill="#ffd160"/>
            </g>
          </g>
        </g>
        <g id="Grupo_957579" data-name="Grupo 957579" transform="translate(0 45.035)">
          <g id="Grupo_957576" data-name="Grupo 957576">
            <g id="Grupo_957575" data-name="Grupo 957575">
              <path id="Trazado_657833" data-name="Trazado 657833" d="M19.476,106.97H69.245v67.052H19.476Z" transform="translate(-19.476 -106.97)" fill="#b6fdd3"/>
            </g>
          </g>
          <g id="Grupo_957578" data-name="Grupo 957578" transform="translate(5.615 25.783)">
            <g id="Grupo_957577" data-name="Grupo 957577">
              <path id="Trazado_657834" data-name="Trazado 657834" d="M30.227,156.333H43.863v17.411H30.227Z" transform="translate(-30.227 -156.333)" fill="#b6fdd3"/>
            </g>
          </g>
        </g>
        <g id="Grupo_957586" data-name="Grupo 957586" transform="translate(11.079 10.611)">
          <g id="Grupo_957581" data-name="Grupo 957581" transform="translate(60.19 60.175)">
            <g id="Grupo_957580" data-name="Grupo 957580">
              <path id="Trazado_657835" data-name="Trazado 657835" d="M194.988,195.336a7.635,7.635,0,0,1-10.8,0l-28.268-28.268,10.8-10.8,28.268,28.268A7.634,7.634,0,0,1,194.988,195.336Z" transform="translate(-155.922 -156.27)" fill="#34495e"/>
            </g>
          </g>
          <g id="Grupo_957583" data-name="Grupo 957583" transform="translate(0)">
            <g id="Grupo_957582" data-name="Grupo 957582">
              <circle id="Elipse_5672" data-name="Elipse 5672" cx="35.213" cy="35.213" r="35.213" transform="translate(0 49.792) rotate(-45)" fill="#34495e"/>
            </g>
          </g>
          <g id="Grupo_957585" data-name="Grupo 957585" transform="translate(12.186 12.186)">
            <g id="Grupo_957584" data-name="Grupo 957584" transform="translate(0 0)">
              <circle id="Elipse_5673" data-name="Elipse 5673" cx="26.595" cy="26.595" r="26.595" transform="translate(0 37.605) rotate(-45)" fill="#e0feec"/>
            </g>
          </g>
        </g>
      </g>
      <g id="Grupo_957588" data-name="Grupo 957588" transform="translate(16.661 17.936)">
        <path id="Trazado_657836" data-name="Trazado 657836" d="M109.783,39.78a5.509,5.509,0,0,0,4.377-2.153h0a5.568,5.568,0,0,0,0-6.742,5.527,5.527,0,0,0-8.755,0,5.568,5.568,0,0,0,0,6.742A5.509,5.509,0,0,0,109.783,39.78Zm-2.314-7.293a2.912,2.912,0,1,1,0,3.539A2.916,2.916,0,0,1,107.468,32.487Z" transform="translate(-58.509 -23.093)"/>
        <path id="Trazado_657837" data-name="Trazado 657837" d="M67.2,207.188H29.206a1.306,1.306,0,0,0,0,2.612H67.2a1.306,1.306,0,0,0,0-2.612Z" transform="translate(-22.03 -108.338)"/>
        <path id="Trazado_657838" data-name="Trazado 657838" d="M67.2,217.467H29.206a1.306,1.306,0,1,0,0,2.612H67.2a1.306,1.306,0,0,0,0-2.612Z" transform="translate(-22.03 -113.248)"/>
        <path id="Trazado_657839" data-name="Trazado 657839" d="M29.543,174.05H42.755a1.306,1.306,0,0,0,1.306-1.306V155.566a1.306,1.306,0,0,0-1.306-1.306H29.543a1.306,1.306,0,0,0-1.306,1.306v17.178a1.306,1.306,0,0,0,1.306,1.306Zm1.306-17.178h10.6v14.567h-10.6Z" transform="translate(-22.191 -83.055)"/>
        <path id="Trazado_657840" data-name="Trazado 657840" d="M129.546,117.662,110.486,98.6a36.393,36.393,0,0,0,5.166-18.781,36.792,36.792,0,0,0-1.315-9.746h9.439a1.306,1.306,0,0,0,1.306-1.306V33.908a1.306,1.306,0,0,0-1.306-1.306H94.683a1.306,1.306,0,0,0-1.306,1.306v12.2a36.211,36.211,0,0,0-6.616-2.091V19.242a1.306,1.306,0,0,0-1.306-1.306H33.9A1.306,1.306,0,0,0,32.6,19.242V56.181A1.306,1.306,0,0,0,33.9,57.486H50.014A36.422,36.422,0,0,0,46.438,63.1H17.967a1.306,1.306,0,0,0-1.306,1.306v67.248a1.306,1.306,0,0,0,1.306,1.306H67.881a1.306,1.306,0,0,0,1.306-1.306V115.1a36.786,36.786,0,0,0,9.844,1.342,36.393,36.393,0,0,0,18.781-5.166l19.06,19.06a8.962,8.962,0,1,0,12.674-12.675Zm-11.14-50.2h-4.882a36.355,36.355,0,0,0-6.725-11.5c.159-.01.317-.024.479-.024h3.9a7.235,7.235,0,0,1,7.227,7.227Zm-12.5-18.2V46.724a3.326,3.326,0,1,1,6.652,0v2.543a3.326,3.326,0,1,1-6.652,0ZM95.989,35.214H122.47v32.25h-1.452v-4.3a9.851,9.851,0,0,0-7.7-9.6,5.916,5.916,0,0,0,1.852-4.3V46.724a5.938,5.938,0,1,0-11.876,0v2.543a5.916,5.916,0,0,0,1.852,4.3c-.159.035-.314.078-.47.121a36.7,36.7,0,0,0-8.685-6.336V35.214ZM35.208,20.548H84.15v23.01a37.143,37.143,0,0,0-4.957-.355L76.562,38.55l-.018-.031c-.01-.017-.019-.034-.03-.051a3.653,3.653,0,0,0-3.135-1.7h0a3.656,3.656,0,0,0-3.136,1.7l-3.36,5.389-.266-.426,0-.006L61.977,35.99a4,4,0,0,0-3.432-1.858,4.31,4.31,0,0,0-.526.032,3.963,3.963,0,0,0-2.905,1.825l-4.755,7.625-2.427-3.892a3.565,3.565,0,0,0-5.974,0c-.011.018-.022.037-.033.055l-.017.031-6.7,11.946Zm40.7,22.165-1.132-.8a1.306,1.306,0,0,0-1.58.059l-.735.6-.08-.132a1.288,1.288,0,0,0-1.151-.626l1.228-1.97a1.139,1.139,0,0,1,1.828-.019Zm-13.39-.919-.166-.053a1.309,1.309,0,0,0-1.264.268L59.743,43.2l-1.932-1.189a1.3,1.3,0,0,0-1.335-.02l-2.77,1.591-.181-.113,3.8-6.1a1.492,1.492,0,0,1,2.432,0Zm-13.7,4.29-.083.134-.384-.239a1.306,1.306,0,0,0-1.483.074L45.152,47.37l-1.526-.855a1.305,1.305,0,0,0-1.348.042l-1.708,1.1-.042-.017,3.658-6.56a.96.96,0,0,1,1.529.02Zm-5.482,8.792H36.452l2.771-4.94,1,.4a1.306,1.306,0,0,0,1.2-.114l1.616-1.045,1.59.891a1.306,1.306,0,0,0,1.434-.1l.651-.5Zm3.077,0,5.728-9.187.842.527a1.306,1.306,0,0,0,1.343.025L57.1,44.645l2.1,1.291a1.3,1.3,0,0,0,1.552-.136l1.513-1.345,2.385.761.448.718a36.562,36.562,0,0,0-11.964,7.992c-.31.31-.607.63-.9.949H46.415Zm20.16,75.476h-47.3V65.714H45.216a36.226,36.226,0,0,0-2.044,6.64H31.654a1.306,1.306,0,0,0,0,2.612H42.736c-.146,1.11-.245,2.231-.29,3.362H23.837a1.306,1.306,0,0,0,0,2.612h18.6c.027.919.083,1.834.177,2.74H23.837a1.306,1.306,0,1,0,0,2.612H42.986q.306,1.725.773,3.4H43.1a1.306,1.306,0,1,0,0,2.612h1.482c.336.929.715,1.841,1.126,2.74H43.1a1.306,1.306,0,1,0,0,2.612h3.936q.79,1.412,1.7,2.757H43.1a1.306,1.306,0,0,0,0,2.612h7.592q1.147,1.395,2.441,2.69l.052.05H43.1a1.306,1.306,0,0,0,0,2.612h13a36.568,36.568,0,0,0,4.421,3.057H23.837a1.306,1.306,0,0,0,0,2.612H61.831a1.3,1.3,0,0,0,1.3-1.222,36.112,36.112,0,0,0,3.447,1.453v16.073ZM79.03,113.831a34.01,34.01,0,1,1,24.049-9.961,33.787,33.787,0,0,1-24.049,9.961ZM127.7,128.49a6.359,6.359,0,0,1-8.981,0l-18.677-18.677a36.531,36.531,0,0,0,8.982-8.982L127.7,119.509a6.351,6.351,0,0,1,0,8.982Z" transform="translate(-16.661 -17.936)"/>
        <path id="Trazado_657841" data-name="Trazado 657841" d="M130.265,91.059a27.977,27.977,0,1,0,8.195,19.783A28.009,28.009,0,0,0,130.265,91.059Zm-1.846,37.72a25.366,25.366,0,1,1,7.43-17.937A25.4,25.4,0,0,1,128.419,128.779Z" transform="translate(-48.112 -48.957)"/>
        <path id="Trazado_657842" data-name="Trazado 657842" d="M105.885,109.326a1.305,1.305,0,0,0-1.847,0,19.752,19.752,0,0,0,0,27.935,1.306,1.306,0,0,0,1.847-1.847,17.141,17.141,0,0,1,0-24.242,1.305,1.305,0,0,0,0-1.846Z" transform="translate(-55.636 -61.408)"/>
      </g>
    </g>
  </g>
</svg>
