<svg id="Grupo_956920" data-name="Grupo 956920" xmlns="http://www.w3.org/2000/svg" width="107" height="116.582" viewBox="0 0 107 116.582">
  <rect id="Rectángulo_34185" data-name="Rectángulo 34185" width="107" height="116.582" rx="5" fill="#fff"/>
  <g id="proteger" transform="translate(-113.291 -346.563)">
    <path id="Trazado_633845" data-name="Trazado 633845" d="M171.632,446.005l-3.674,1.931a2.022,2.022,0,0,1-1.878,0l-3.673-1.931c-20.171-10.6-32.592-30.165-32.592-51.334V381.744a2.007,2.007,0,0,1,1.78-2c6.952-.734,12.48-5.711,13.361-12.006a2.031,2.031,0,0,1,2-1.769h40.121a2.031,2.031,0,0,1,2,1.769c.881,6.3,6.409,11.273,13.361,12.006a2.007,2.007,0,0,1,1.78,2v12.931C204.223,415.842,191.8,435.405,171.632,446.005Z" transform="translate(-0.226 -0.225)" fill="#e1e6e9"/>
    <path id="Trazado_633846" data-name="Trazado 633846" d="M209.3,379.739c-6.953-.734-12.48-5.711-13.361-12.006a2.031,2.031,0,0,0-2-1.769H191.2c.393,8.727,6.613,14.917,13.341,15.627a2.008,2.008,0,0,1,1.78,2v12.931c0,21.168-12.421,40.732-32.592,51.334l-.421.223a2.014,2.014,0,0,0,1.5-.147l3.674-1.931c20.171-10.6,32.592-30.165,32.592-51.334V381.743A2.008,2.008,0,0,0,209.3,379.739Z" transform="translate(-7.081 -0.225)" fill="#cbcbcb"/>
    <path id="Trazado_633847" data-name="Trazado 633847" d="M166.764,441.866a57.789,57.789,0,0,1-22-19.981,50.067,50.067,0,0,1-7.926-26.839v-7.34a2.591,2.591,0,0,1,1.631-2.411A22.746,22.746,0,0,0,150.7,374.054a2.586,2.586,0,0,1,2.338-1.466h30.176a2.587,2.587,0,0,1,2.338,1.466,22.74,22.74,0,0,0,12.231,11.241,2.592,2.592,0,0,1,1.633,2.412v7.34a50.066,50.066,0,0,1-7.926,26.839,57.8,57.8,0,0,1-22,19.981l-.152.08a2.6,2.6,0,0,1-2.418,0Z" transform="translate(-1.333 -1.269)" fill="#2ff980"/>
    <path id="Trazado_633848" data-name="Trazado 633848" d="M203.637,385.3l-.127-.052-.211-.084q-.181-.075-.359-.152l-.206-.09c-.127-.056-.254-.114-.379-.173l-.168-.079q-.272-.129-.54-.264l-.04-.021q-.248-.125-.492-.257l-.168-.094q-.177-.1-.353-.2l-.194-.112c-.113-.064-.222-.13-.329-.2l-.19-.116c-.115-.071-.227-.142-.337-.215l-.168-.106c-.154-.1-.307-.2-.458-.307l-.034-.023q-.244-.168-.482-.343l-.148-.11q-.164-.121-.326-.246l-.169-.135c-.1-.077-.2-.157-.3-.237l-.168-.14q-.152-.124-.3-.253l-.152-.131c-.123-.106-.243-.215-.363-.324l-.075-.067q-.216-.2-.421-.4l-.12-.118c-.1-.1-.2-.2-.3-.295l-.148-.153q-.131-.135-.259-.274l-.15-.162q-.129-.14-.253-.284l-.136-.155c-.1-.114-.2-.229-.291-.345l-.084-.1c-.123-.15-.244-.3-.363-.454l-.09-.118q-.133-.168-.261-.346c-.041-.056-.084-.112-.122-.168-.074-.1-.147-.2-.219-.308l-.125-.181q-.106-.155-.209-.313c-.039-.058-.077-.116-.115-.175-.077-.12-.152-.239-.226-.361-.027-.045-.056-.084-.084-.133-.1-.165-.2-.331-.293-.5-.02-.035-.04-.072-.059-.107q-.112-.2-.221-.4c-.032-.06-.062-.12-.094-.179-.056-.112-.115-.224-.174-.337-.033-.065-.065-.131-.1-.2-.024-.05-.05-.1-.073-.149a2.587,2.587,0,0,0-2.338-1.466h-15.1v69.656a2.6,2.6,0,0,0,1.209-.3l.152-.08a57.788,57.788,0,0,0,22-19.981,50.066,50.066,0,0,0,7.926-26.839v-7.342A2.591,2.591,0,0,0,203.637,385.3Z" transform="translate(-7.187 -1.269)" fill="#25c766"/>
    <path id="Trazado_633849" data-name="Trazado 633849" d="M203.637,385.3l-.127-.052-.211-.084q-.181-.075-.359-.152l-.206-.09c-.127-.056-.254-.114-.379-.173l-.168-.079q-.272-.129-.54-.264l-.04-.021q-.248-.125-.492-.257l-.168-.094q-.177-.1-.353-.2l-.194-.112c-.113-.064-.222-.13-.329-.2l-.19-.116c-.115-.071-.227-.142-.337-.215l-.168-.106c-.154-.1-.307-.2-.458-.307l-.034-.023q-.244-.168-.482-.343l-.148-.11q-.164-.121-.326-.246l-.169-.135c-.1-.077-.2-.157-.3-.237l-.168-.14q-.152-.124-.3-.253l-.152-.131c-.123-.106-.243-.215-.363-.324l-.075-.067q-.216-.2-.421-.4l-.12-.118c-.1-.1-.2-.2-.3-.295l-.148-.153q-.131-.135-.259-.274l-.15-.162q-.129-.14-.253-.284l-.136-.155c-.1-.114-.2-.229-.291-.345l-.084-.1c-.123-.15-.244-.3-.363-.454l-.09-.118q-.133-.168-.261-.346c-.041-.056-.084-.112-.122-.168-.074-.1-.147-.2-.219-.308l-.125-.181q-.106-.155-.209-.313c-.039-.058-.077-.116-.115-.175-.077-.12-.152-.239-.226-.361-.027-.045-.056-.084-.084-.133-.1-.165-.2-.331-.293-.5-.02-.035-.04-.072-.059-.107q-.112-.2-.221-.4c-.032-.06-.062-.12-.094-.179-.056-.112-.115-.224-.174-.337-.033-.065-.065-.131-.1-.2-.024-.05-.05-.1-.073-.149a2.587,2.587,0,0,0-2.338-1.466h-4.176a23.213,23.213,0,0,1,1.836,2.769c.028.048.049.1.073.149l.1.2c.056.112.114.225.174.337l.094.179q.107.2.221.4c.02.035.039.072.059.107q.143.253.293.5c.027.045.055.088.084.133.074.121.149.241.226.361l.115.175c.069.105.138.21.209.313l.125.181q.107.155.219.308c.04.056.084.112.122.169.084.116.173.232.261.346l.09.118c.119.153.24.3.363.454l.084.1c.1.115.193.231.291.345.045.052.091.1.136.155l.253.284.15.162c.086.093.172.184.259.274l.148.153q.147.149.3.295l.12.118c.14.136.28.27.421.4l.075.067c.12.109.24.217.363.324l.152.131q.148.128.3.253l.168.14c.1.08.2.159.3.237l.168.135q.162.125.326.246l.148.11q.238.174.482.343l.034.023c.151.1.3.206.458.307l.168.106q.168.109.337.215l.19.116c.109.067.218.131.329.2l.194.112q.174.1.353.2l.168.094q.244.131.492.257l.04.021q.267.136.539.264l.168.079c.126.058.253.116.379.173l.206.09q.178.078.359.152l.211.084.127.052a2.592,2.592,0,0,1,1.633,2.412v7.34a50.066,50.066,0,0,1-7.926,26.839,61.662,61.662,0,0,1-18.685,18.987v.068a2.6,2.6,0,0,0,1.209-.3l.152-.08a57.788,57.788,0,0,0,22-19.981,50.066,50.066,0,0,0,7.926-26.839v-7.34A2.591,2.591,0,0,0,203.637,385.3Z" transform="translate(-7.187 -1.269)" fill="#1e9690"/>
    <path id="Trazado_633850" data-name="Trazado 633850" d="M184.718,424.137H157.227a2.625,2.625,0,0,1-2.626-2.626h0v-17.24a2.626,2.626,0,0,1,2.626-2.626h27.492a2.626,2.626,0,0,1,2.626,2.626h0v17.241a2.626,2.626,0,0,1-2.627,2.625Z" transform="translate(-4.133 -5.849)" fill="#636a75"/>
    <path id="Trazado_633851" data-name="Trazado 633851" d="M189.464,401.645h-4.749a2.626,2.626,0,0,1,2.626,2.626h0v17.241a2.626,2.626,0,0,1-2.626,2.626h4.754a2.626,2.626,0,0,0,2.626-2.626h0V404.271a2.626,2.626,0,0,0-2.626-2.626Z" transform="translate(-8.879 -5.849)" fill="#515a66"/>
    <path id="Trazado_633852" data-name="Trazado 633852" d="M172.3,415.468V418.9a1.2,1.2,0,1,0,2.408.064v-3.493a2.82,2.82,0,1,0-2.408,0Z" transform="translate(-6.668 -7.181)"/>
    <path id="Trazado_633853" data-name="Trazado 633853" d="M165.979,442.706h0l.152.08a3.8,3.8,0,0,0,3.538,0l.152-.084a59,59,0,0,0,22.458-20.4,51.274,51.274,0,0,0,8.113-27.485V387.48A3.775,3.775,0,0,0,198,383.949a21.412,21.412,0,0,1-11.584-10.642,3.805,3.805,0,0,0-3.426-2.153H152.813a3.8,3.8,0,0,0-3.425,2.153A21.413,21.413,0,0,1,137.8,383.949a3.773,3.773,0,0,0-2.393,3.531v7.34a51.266,51.266,0,0,0,8.113,27.485A59,59,0,0,0,165.979,442.706Zm-28.163-47.887V387.48a1.377,1.377,0,0,1,.871-1.292,23.812,23.812,0,0,0,12.874-11.842,1.385,1.385,0,0,1,1.251-.779h30.176a1.387,1.387,0,0,1,1.251.779,23.81,23.81,0,0,0,12.874,11.843,1.379,1.379,0,0,1,.871,1.292v7.34a48.873,48.873,0,0,1-7.738,26.2A56.588,56.588,0,0,1,168.7,440.575l-.152.08a1.393,1.393,0,0,1-1.3,0l-.152-.08a56.593,56.593,0,0,1-21.543-19.561A48.861,48.861,0,0,1,137.816,394.819Z" transform="translate(-1.108 -1.043)"/>
    <path id="Trazado_633854" data-name="Trazado 633854" d="M203.176,412.792a1.2,1.2,0,0,0-1.44.909h0C198.069,429.925,186.9,444,171.092,452.3l-3.674,1.933a.815.815,0,0,1-.758,0l-3.674-1.931c-15.833-8.322-27.008-22.416-30.663-38.67a1.2,1.2,0,1,0-2.349.528c3.807,16.944,15.43,31.623,31.889,40.274l3.674,1.931a3.22,3.22,0,0,0,3,0l3.674-1.931c16.432-8.637,28.051-23.291,31.873-40.2a1.2,1.2,0,0,0-.906-1.443Z" transform="translate(-0.247 -7.591)"/>
    <path id="Trazado_633855" data-name="Trazado 633855" d="M202.344,378.317c-6.43-.678-11.486-5.192-12.3-10.975a3.253,3.253,0,0,0-3.191-2.8H146.732a3.252,3.252,0,0,0-3.194,2.8c-.81,5.784-5.866,10.3-12.3,10.975a3.2,3.2,0,0,0-2.858,3.2v12.931a55.141,55.141,0,0,0,.29,5.644,1.2,1.2,0,0,0,1.2,1.081,1.228,1.228,0,0,0,.125-.007,1.2,1.2,0,0,0,1.075-1.32h0a52.781,52.781,0,0,1-.277-5.4V381.518a.807.807,0,0,1,.7-.807c7.535-.794,13.468-6.155,14.428-13.036a.824.824,0,0,1,.81-.729h40.124a.824.824,0,0,1,.81.729c.966,6.881,6.9,12.242,14.428,13.037a.808.808,0,0,1,.7.807v12.931a53.151,53.151,0,0,1-.271,5.344,1.2,1.2,0,0,0,2.4.243,55.757,55.757,0,0,0,.283-5.587V381.518A3.2,3.2,0,0,0,202.344,378.317Z" transform="translate(0 0)"/>
    <path id="Trazado_633856" data-name="Trazado 633856" d="M184.493,421.858a3.834,3.834,0,0,0,3.829-3.829V400.787a3.835,3.835,0,0,0-3.829-3.829h-1.98v-5.748a11.766,11.766,0,0,0-23.532,0v5.748H157a3.833,3.833,0,0,0-3.829,3.829v17.241A3.833,3.833,0,0,0,157,421.857Zm-23.1-30.648a9.358,9.358,0,0,1,18.715,0v5.748H161.389Zm-5.812,26.818V400.787A1.423,1.423,0,0,1,157,399.366h27.492a1.423,1.423,0,0,1,1.421,1.421v17.241a1.423,1.423,0,0,1-1.421,1.421H157a1.423,1.423,0,0,1-1.421-1.421Z" transform="translate(-3.907 -2.365)"/>
  </g>
</svg>
