<svg xmlns="http://www.w3.org/2000/svg" width="92" height="92" viewBox="0 0 92 92">
  <g id="Grupo_951801" data-name="Grupo 951801" transform="translate(-421 -2618)">
    <rect id="Rectángulo_34429" data-name="Rectángulo 34429" width="92" height="92" transform="translate(421 2618)" fill="none"/>
    <g id="proteccion_1_" data-name="proteccion(1)" transform="translate(433.036 2624.603)">
      <path id="Trazado_636307" data-name="Trazado 636307" d="M112.931,10.008,93.16,14.415V28.936a30.034,30.034,0,0,0,19.771,28.227A30.034,30.034,0,0,0,132.7,28.936V14.415Zm0,0" transform="translate(-78.472 -8.474)" fill="#2ff980"/>
      <path id="Trazado_636308" data-name="Trazado 636308" d="M130.168,51.07l14.1-3.144,14.1,3.144v9.978a24.373,24.373,0,0,1-14.1,22.1,24.372,24.372,0,0,1-14.1-22.1Zm0,0" transform="translate(-109.813 -40.586)" fill="#e1f4fd"/>
      <path id="Trazado_636309" data-name="Trazado 636309" d="M37.012,250.331V239.714a10.772,10.772,0,0,0-2.2-6.522l-6.181-8.124a3.383,3.383,0,1,0-5.375,4.109l2.586,3.368-5.806-7.562a4.521,4.521,0,0,1-.936-2.755V208.415a3.587,3.587,0,0,0-7.158-.339L10.3,225.36a4.524,4.524,0,0,0,.9,3.159l13.331,17.359v4.454Zm0,0" transform="translate(-8.284 -173.464)" fill="#e8c499"/>
      <path id="Trazado_636310" data-name="Trazado 636310" d="M269.39,250.332v-4.454l13.331-17.359a4.524,4.524,0,0,0,.9-3.159l-1.639-17.284a3.587,3.587,0,0,0-7.158.339v13.813a4.525,4.525,0,0,1-.935,2.755l-5.807,7.562,2.586-3.368a3.383,3.383,0,1,0-5.376-4.109l-6.181,8.124a10.771,10.771,0,0,0-2.2,6.522v10.618Zm0,0" transform="translate(-217.149 -173.464)" fill="#e8c499"/>
      <path id="Trazado_636311" data-name="Trazado 636311" d="M120.272,38.571a31.413,31.413,0,0,0,5.711-18.11V5.94a1.532,1.532,0,0,0-1.2-1.495L105.014.038a1.545,1.545,0,0,0-.666,0L84.577,4.446a1.531,1.531,0,0,0-1.2,1.495V20.461a31.567,31.567,0,0,0,20.779,29.666,1.531,1.531,0,0,0,1.046,0,31.414,31.414,0,0,0,15.068-11.556Zm-15.591,8.482A28.505,28.505,0,0,1,86.441,20.461V7.168L104.681,3.1l18.24,4.066V20.461a28.5,28.5,0,0,1-18.24,26.591Zm0,0" transform="translate(-70.188 0)"/>
      <path id="Trazado_636312" data-name="Trazado 636312" d="M151.657,42.594a1.531,1.531,0,0,0-1.2-1.495l-14.1-3.144a1.548,1.548,0,0,0-.667,0l-14.1,3.144a1.531,1.531,0,0,0,.666,2.989l13.771-3.07,12.573,2.8v8.751a22.844,22.844,0,0,1-12.573,20.4,22.85,22.85,0,0,1-12.5-18.585c-.027-.337-.046-.678-.057-1.014a1.531,1.531,0,1,0-3.061.105c.013.381.035.768.065,1.15a25.909,25.909,0,0,0,14.912,21.433,1.53,1.53,0,0,0,1.287,0,25.9,25.9,0,0,0,14.992-23.492V42.594Zm0,0" transform="translate(-101.529 -32.111)"/>
      <path id="Trazado_636313" data-name="Trazado 636313" d="M170.685,116.046a1.529,1.529,0,0,0,1.067.539q.051,0,.1,0a1.531,1.531,0,0,0,1.027-.4l11.1-10.043a1.531,1.531,0,1,0-2.055-2.271L172,112.859l-2.833-3.351a1.531,1.531,0,0,0-2.339,1.977Zm0,0" transform="translate(-140.554 -87.637)"/>
      <path id="Trazado_636314" data-name="Trazado 636314" d="M21.6,215.664a4.907,4.907,0,0,0-8.15.5l-.45-.586a3.005,3.005,0,0,1-.619-1.822V199.938a5.118,5.118,0,0,0-10.213-.483L.528,216.739a6.045,6.045,0,0,0,1.207,4.236L14.75,237.921v3.933a1.531,1.531,0,0,0,3.062,0V237.4a1.532,1.532,0,0,0-.317-.932L4.17,219.117a2.984,2.984,0,0,1-.593-2.09l1.639-17.283a2.055,2.055,0,0,1,4.1.194v13.813a6.083,6.083,0,0,0,1.253,3.687l3.205,4.174.014.02L16.377,225a1.531,1.531,0,0,0,2.429-1.866l-2.595-3.379a1.861,1.861,0,0,1,.325-2.566,1.851,1.851,0,0,1,2.626.328l6.181,8.124a9.291,9.291,0,0,1,1.886,5.595v10.618a1.531,1.531,0,0,0,3.062,0V231.237a12.371,12.371,0,0,0-2.511-7.449Zm0,0" transform="translate(0 -164.988)"/>
      <path id="Trazado_636315" data-name="Trazado 636315" d="M276.891,216.739l-1.639-17.284a5.118,5.118,0,0,0-10.213.483v13.813a3.009,3.009,0,0,1-.619,1.822l-.45.586a4.91,4.91,0,0,0-8.149-.5l-6.181,8.124a12.372,12.372,0,0,0-2.512,7.449v10.617a1.531,1.531,0,0,0,3.062,0V231.237a9.291,9.291,0,0,1,1.886-5.595l6.181-8.124a1.852,1.852,0,0,1,2.951,2.238l-2.594,3.379A1.531,1.531,0,0,0,261.042,225l2.586-3.368.014-.018,3.206-4.175a6.089,6.089,0,0,0,1.252-3.688V199.939a2.056,2.056,0,0,1,4.1-.194l1.639,17.283a2.981,2.981,0,0,1-.588,2.082l-13.331,17.359a1.533,1.533,0,0,0-.316.933v4.453a1.531,1.531,0,0,0,3.062,0v-3.933l13.02-16.955a6.042,6.042,0,0,0,1.2-4.228Zm0,0" transform="translate(-208.862 -164.989)"/>
      <path id="Trazado_636316" data-name="Trazado 636316" d="M121.09,96.587a1.532,1.532,0,1,0-.572-1.836,1.544,1.544,0,0,0,.572,1.836Zm0,0" transform="translate(-101.551 -79.422)"/>
    </g>
  </g>
</svg>
