<svg xmlns="http://www.w3.org/2000/svg" width="236.875" height="255.722" viewBox="0 0 236.875 255.722">
  <g id="Grupo_961242" data-name="Grupo 961242" transform="translate(1377.728 47.107)">
    <path id="Trazado_659967" data-name="Trazado 659967" d="M-1363.986,133.765c3.152-20.425,38.29-24.531,31.838-61.486C-1337,44.468-1298.661-5.982-1272.141-.873c20.149,3.882,10.216,25.966,24.684,32.634,9.007,4.151,13.112-7.583,24.988-3.222,13.976,5.133,8.189,34.458,32.572,48.02,22.425,12.473,39.371,7.929,45.334,24.133,6.741,18.317-13.406,22.726-10.043,35.243,4.173,15.532,19.19,14.08,16.03,31.758-6.266,35.054-72.428,47.418-113.54,47.418S-1369.855,171.8-1363.986,133.765Z" transform="translate(-5.653 -19.317)" fill="#e6e1fb"/>
    <g id="Grupo_961176" data-name="Grupo 961176" transform="translate(-1205.342 -12.693)">
      <rect id="Rectángulo_45848" data-name="Rectángulo 45848" width="31.856" height="31.925" rx="9" transform="translate(0.391 0.392)" fill="#fffdf7"/>
      <path id="Trazado_659968" data-name="Trazado 659968" d="M-1056.468,45.05h-14.326a9.177,9.177,0,0,1-9.155-9.176V21.516a9.177,9.177,0,0,1,9.155-9.176h14.326a9.177,9.177,0,0,1,9.156,9.176V35.874A9.177,9.177,0,0,1-1056.468,45.05Zm-14.326-31.926a8.392,8.392,0,0,0-8.373,8.392V35.874a8.392,8.392,0,0,0,8.373,8.392h14.326a8.393,8.393,0,0,0,8.374-8.392V21.516a8.393,8.393,0,0,0-8.374-8.392Z" transform="translate(1079.95 -12.34)" fill="#32293a"/>
    </g>
    <path id="Trazado_659969" data-name="Trazado 659969" d="M-1119.776,81.791c-2.441-3.134-.028-7.974,4.545-8.656s8.96,3.2,10.076,7.4c3.181-.8,6.017,4.007,4.811,6.74,2.536,5.241-5.349,9.373-5.349,9.373s-7.572-1-7.619-1.194S-1119.776,81.791-1119.776,81.791Z" transform="translate(-108.214 -50.6)" fill="#32293a"/>
    <g id="Grupo_961199" data-name="Grupo 961199" transform="translate(-1370.096 -10.93)">
      <g id="Grupo_961177" data-name="Grupo 961177" transform="translate(10.806)">
        <path id="Trazado_659970" data-name="Trazado 659970" d="M-1279.892,19.775l-2.718,27.665a55.57,55.57,0,0,1-23.415,38.8l-4.711,3.275a3.291,3.291,0,0,1-3.766-.006l-4.667-3.265a55.572,55.572,0,0,1-23.276-38.7l-2.73-27.766a3.3,3.3,0,0,1,3.272-3.712c3.334,0,54.43.178,58.74,0A3.264,3.264,0,0,1-1279.892,19.775Z" transform="translate(1345.593 -15.669)" fill="#583ae2"/>
        <path id="Trazado_659971" data-name="Trazado 659971" d="M-1312.9,90.206a3.682,3.682,0,0,1-2.112-.662l-4.666-3.265a56.05,56.05,0,0,1-23.44-38.973l-2.732-27.777a3.7,3.7,0,0,1,.9-2.893,3.686,3.686,0,0,1,2.765-1.249c.595,0,2.709.006,5.807.014,14.778.039,49.384.133,52.917-.014a3.5,3.5,0,0,1,2.712,1.144,3.754,3.754,0,0,1,.964,3l-2.717,27.661a56.036,56.036,0,0,1-23.581,39.08l-4.713,3.275A3.678,3.678,0,0,1-1312.9,90.206Zm-29.289-74.035a2.9,2.9,0,0,0-2.178.984,2.918,2.918,0,0,0-.706,2.287l2.732,27.777a55.257,55.257,0,0,0,23.111,38.417l4.666,3.265a2.914,2.914,0,0,0,3.32,0l4.711-3.275a55.243,55.243,0,0,0,23.249-38.523l2.718-27.666a2.975,2.975,0,0,0-.763-2.38,2.68,2.68,0,0,0-2.106-.892c-3.55.146-38.17.054-52.952.014C-1339.48,16.176-1341.594,16.171-1342.189,16.171Z" transform="translate(1345.878 -15.384)" fill="#32293a"/>
      </g>
      <g id="Grupo_961178" data-name="Grupo 961178" transform="translate(0 23.272)">
        <rect id="Rectángulo_45849" data-name="Rectángulo 45849" width="86.948" height="19.108" rx="9.554" transform="translate(0.392 0.393)" fill="#342287"/>
        <path id="Trazado_659972" data-name="Trazado 659972" d="M-1286.739,75.477h-67.882a9.947,9.947,0,0,1-9.924-9.946,9.947,9.947,0,0,1,9.924-9.947h67.882a9.947,9.947,0,0,1,9.925,9.947A9.947,9.947,0,0,1-1286.739,75.477Zm-67.882-19.109a9.162,9.162,0,0,0-9.142,9.162,9.162,9.162,0,0,0,9.142,9.161h67.882a9.163,9.163,0,0,0,9.143-9.161,9.163,9.163,0,0,0-9.143-9.162Z" transform="translate(1364.545 -55.584)" fill="#32293a"/>
      </g>
      <g id="Grupo_961198" data-name="Grupo 961198" transform="translate(6.465 30.766)">
        <g id="Grupo_961179" data-name="Grupo 961179" transform="translate(0.34 0.342)">
          <path id="Trazado_659973" data-name="Trazado 659973" d="M-1352.789,71.351a2.229,2.229,0,0,1,2.227-2.232,2.229,2.229,0,0,1,2.226,2.232,2.229,2.229,0,0,1-2.226,2.232A2.229,2.229,0,0,1-1352.789,71.351Z" transform="translate(1352.789 -69.119)" fill="#fffdf7"/>
          <path id="Trazado_659974" data-name="Trazado 659974" d="M-1335.621,71.351a2.23,2.23,0,0,1,2.227-2.232,2.229,2.229,0,0,1,2.227,2.232,2.229,2.229,0,0,1-2.227,2.232A2.23,2.23,0,0,1-1335.621,71.351Z" transform="translate(1345.56 -69.119)" fill="#fffdf7"/>
          <path id="Trazado_659975" data-name="Trazado 659975" d="M-1318.453,71.351a2.23,2.23,0,0,1,2.227-2.232A2.229,2.229,0,0,1-1314,71.351a2.229,2.229,0,0,1-2.226,2.232A2.23,2.23,0,0,1-1318.453,71.351Z" transform="translate(1338.33 -69.119)" fill="#fffdf7"/>
          <path id="Trazado_659976" data-name="Trazado 659976" d="M-1301.284,71.351a2.229,2.229,0,0,1,2.227-2.232,2.23,2.23,0,0,1,2.227,2.232,2.23,2.23,0,0,1-2.227,2.232A2.229,2.229,0,0,1-1301.284,71.351Z" transform="translate(1331.101 -69.119)" fill="#fffdf7"/>
          <path id="Trazado_659977" data-name="Trazado 659977" d="M-1284.116,71.351a2.229,2.229,0,0,1,2.226-2.232,2.229,2.229,0,0,1,2.227,2.232,2.229,2.229,0,0,1-2.227,2.232A2.229,2.229,0,0,1-1284.116,71.351Z" transform="translate(1323.871 -69.119)" fill="#fffdf7"/>
          <path id="Trazado_659978" data-name="Trazado 659978" d="M-1266.948,71.351a2.229,2.229,0,0,1,2.226-2.232,2.229,2.229,0,0,1,2.227,2.232,2.229,2.229,0,0,1-2.227,2.232A2.229,2.229,0,0,1-1266.948,71.351Z" transform="translate(1316.642 -69.119)" fill="#fffdf7"/>
          <path id="Trazado_659979" data-name="Trazado 659979" d="M-1249.78,71.351a2.229,2.229,0,0,1,2.227-2.232,2.229,2.229,0,0,1,2.227,2.232,2.229,2.229,0,0,1-2.227,2.232A2.229,2.229,0,0,1-1249.78,71.351Z" transform="translate(1309.413 -69.119)" fill="#fffdf7"/>
          <ellipse id="Elipse_5803" data-name="Elipse 5803" cx="2.227" cy="2.232" rx="2.227" ry="2.232" transform="translate(69.572 0)" fill="#fffdf7"/>
        </g>
        <g id="Grupo_961188" data-name="Grupo 961188">
          <g id="Grupo_961180" data-name="Grupo 961180">
            <path id="Trazado_659980" data-name="Trazado 659980" d="M-1352.789,71.351a2.229,2.229,0,0,1,2.227-2.232,2.229,2.229,0,0,1,2.226,2.232,2.229,2.229,0,0,1-2.226,2.232A2.229,2.229,0,0,1-1352.789,71.351Z" transform="translate(1353.129 -68.777)" fill="#fffdf7"/>
            <path id="Trazado_659981" data-name="Trazado 659981" d="M-1350.81,73.675a2.573,2.573,0,0,1-2.567-2.573,2.573,2.573,0,0,1,2.567-2.573,2.573,2.573,0,0,1,2.566,2.573A2.573,2.573,0,0,1-1350.81,73.675Zm0-4.463a1.89,1.89,0,0,0-1.887,1.89,1.89,1.89,0,0,0,1.887,1.89,1.89,1.89,0,0,0,1.885-1.89A1.89,1.89,0,0,0-1350.81,69.212Z" transform="translate(1353.377 -68.529)" fill="#32293a"/>
          </g>
          <g id="Grupo_961181" data-name="Grupo 961181" transform="translate(9.939)">
            <path id="Trazado_659982" data-name="Trazado 659982" d="M-1335.621,71.351a2.23,2.23,0,0,1,2.227-2.232,2.229,2.229,0,0,1,2.227,2.232,2.229,2.229,0,0,1-2.227,2.232A2.23,2.23,0,0,1-1335.621,71.351Z" transform="translate(1335.961 -68.777)" fill="#fffdf7"/>
            <path id="Trazado_659983" data-name="Trazado 659983" d="M-1333.641,73.675a2.573,2.573,0,0,1-2.567-2.573,2.573,2.573,0,0,1,2.567-2.573,2.573,2.573,0,0,1,2.568,2.573A2.573,2.573,0,0,1-1333.641,73.675Zm0-4.463a1.89,1.89,0,0,0-1.886,1.89,1.891,1.891,0,0,0,1.886,1.89,1.89,1.89,0,0,0,1.886-1.89A1.89,1.89,0,0,0-1333.641,69.212Z" transform="translate(1336.208 -68.529)" fill="#32293a"/>
          </g>
          <g id="Grupo_961182" data-name="Grupo 961182" transform="translate(19.877)">
            <path id="Trazado_659984" data-name="Trazado 659984" d="M-1318.453,71.351a2.23,2.23,0,0,1,2.227-2.232A2.229,2.229,0,0,1-1314,71.351a2.229,2.229,0,0,1-2.226,2.232A2.23,2.23,0,0,1-1318.453,71.351Z" transform="translate(1318.793 -68.777)" fill="#fffdf7"/>
            <path id="Trazado_659985" data-name="Trazado 659985" d="M-1316.474,73.675a2.573,2.573,0,0,1-2.567-2.573,2.573,2.573,0,0,1,2.567-2.573,2.573,2.573,0,0,1,2.567,2.573A2.573,2.573,0,0,1-1316.474,73.675Zm0-4.463a1.89,1.89,0,0,0-1.885,1.89,1.89,1.89,0,0,0,1.885,1.89,1.89,1.89,0,0,0,1.887-1.89A1.89,1.89,0,0,0-1316.474,69.212Z" transform="translate(1319.041 -68.529)" fill="#32293a"/>
          </g>
          <g id="Grupo_961183" data-name="Grupo 961183" transform="translate(29.816)">
            <path id="Trazado_659986" data-name="Trazado 659986" d="M-1301.284,71.351a2.229,2.229,0,0,1,2.227-2.232,2.23,2.23,0,0,1,2.227,2.232,2.23,2.23,0,0,1-2.227,2.232A2.229,2.229,0,0,1-1301.284,71.351Z" transform="translate(1301.625 -68.777)" fill="#fffdf7"/>
            <path id="Trazado_659987" data-name="Trazado 659987" d="M-1299.305,73.675a2.573,2.573,0,0,1-2.568-2.573,2.573,2.573,0,0,1,2.568-2.573,2.573,2.573,0,0,1,2.567,2.573A2.573,2.573,0,0,1-1299.305,73.675Zm0-4.463a1.89,1.89,0,0,0-1.887,1.89,1.891,1.891,0,0,0,1.887,1.89,1.89,1.89,0,0,0,1.886-1.89A1.89,1.89,0,0,0-1299.305,69.212Z" transform="translate(1301.873 -68.529)" fill="#32293a"/>
          </g>
          <g id="Grupo_961184" data-name="Grupo 961184" transform="translate(39.755)">
            <path id="Trazado_659988" data-name="Trazado 659988" d="M-1284.116,71.351a2.229,2.229,0,0,1,2.226-2.232,2.229,2.229,0,0,1,2.227,2.232,2.229,2.229,0,0,1-2.227,2.232A2.229,2.229,0,0,1-1284.116,71.351Z" transform="translate(1284.457 -68.777)" fill="#fffdf7"/>
            <path id="Trazado_659989" data-name="Trazado 659989" d="M-1282.138,73.675A2.573,2.573,0,0,1-1284.7,71.1a2.573,2.573,0,0,1,2.567-2.573,2.573,2.573,0,0,1,2.567,2.573A2.573,2.573,0,0,1-1282.138,73.675Zm0-4.463a1.89,1.89,0,0,0-1.887,1.89,1.891,1.891,0,0,0,1.887,1.89,1.891,1.891,0,0,0,1.887-1.89A1.89,1.89,0,0,0-1282.138,69.212Z" transform="translate(1284.705 -68.529)" fill="#32293a"/>
          </g>
          <g id="Grupo_961185" data-name="Grupo 961185" transform="translate(49.694)">
            <path id="Trazado_659990" data-name="Trazado 659990" d="M-1266.948,71.351a2.229,2.229,0,0,1,2.226-2.232,2.229,2.229,0,0,1,2.227,2.232,2.229,2.229,0,0,1-2.227,2.232A2.229,2.229,0,0,1-1266.948,71.351Z" transform="translate(1267.288 -68.777)" fill="#fffdf7"/>
            <path id="Trazado_659991" data-name="Trazado 659991" d="M-1264.969,73.675a2.573,2.573,0,0,1-2.567-2.573,2.573,2.573,0,0,1,2.567-2.573A2.573,2.573,0,0,1-1262.4,71.1,2.573,2.573,0,0,1-1264.969,73.675Zm0-4.463a1.89,1.89,0,0,0-1.886,1.89,1.891,1.891,0,0,0,1.886,1.89,1.891,1.891,0,0,0,1.887-1.89A1.89,1.89,0,0,0-1264.969,69.212Z" transform="translate(1267.536 -68.529)" fill="#32293a"/>
          </g>
          <g id="Grupo_961186" data-name="Grupo 961186" transform="translate(59.633)">
            <path id="Trazado_659992" data-name="Trazado 659992" d="M-1249.78,71.351a2.229,2.229,0,0,1,2.227-2.232,2.229,2.229,0,0,1,2.227,2.232,2.229,2.229,0,0,1-2.227,2.232A2.229,2.229,0,0,1-1249.78,71.351Z" transform="translate(1250.12 -68.777)" fill="#fffdf7"/>
            <path id="Trazado_659993" data-name="Trazado 659993" d="M-1247.8,73.675a2.573,2.573,0,0,1-2.567-2.573,2.573,2.573,0,0,1,2.567-2.573,2.573,2.573,0,0,1,2.567,2.573A2.573,2.573,0,0,1-1247.8,73.675Zm0-4.463a1.89,1.89,0,0,0-1.886,1.89,1.891,1.891,0,0,0,1.886,1.89,1.891,1.891,0,0,0,1.886-1.89A1.89,1.89,0,0,0-1247.8,69.212Z" transform="translate(1250.368 -68.529)" fill="#32293a"/>
          </g>
          <g id="Grupo_961187" data-name="Grupo 961187" transform="translate(69.571)">
            <ellipse id="Elipse_5804" data-name="Elipse 5804" cx="2.227" cy="2.232" rx="2.227" ry="2.232" transform="translate(0.341 0.342)" fill="#fffdf7"/>
            <path id="Trazado_659994" data-name="Trazado 659994" d="M-1230.633,73.675A2.573,2.573,0,0,1-1233.2,71.1a2.573,2.573,0,0,1,2.567-2.573,2.572,2.572,0,0,1,2.566,2.573A2.572,2.572,0,0,1-1230.633,73.675Zm0-4.463a1.89,1.89,0,0,0-1.887,1.89,1.89,1.89,0,0,0,1.887,1.89,1.891,1.891,0,0,0,1.886-1.89A1.89,1.89,0,0,0-1230.633,69.212Z" transform="translate(1233.2 -68.529)" fill="#32293a"/>
          </g>
        </g>
        <g id="Grupo_961197" data-name="Grupo 961197">
          <g id="Grupo_961189" data-name="Grupo 961189">
            <path id="Trazado_659995" data-name="Trazado 659995" d="M-1352.789,71.351a2.229,2.229,0,0,1,2.227-2.232,2.229,2.229,0,0,1,2.226,2.232,2.229,2.229,0,0,1-2.226,2.232A2.229,2.229,0,0,1-1352.789,71.351Z" transform="translate(1353.129 -68.777)" fill="#fffdf7"/>
            <path id="Trazado_659996" data-name="Trazado 659996" d="M-1350.81,73.675a2.573,2.573,0,0,1-2.567-2.573,2.573,2.573,0,0,1,2.567-2.573,2.573,2.573,0,0,1,2.566,2.573A2.573,2.573,0,0,1-1350.81,73.675Zm0-4.463a1.89,1.89,0,0,0-1.887,1.89,1.89,1.89,0,0,0,1.887,1.89,1.89,1.89,0,0,0,1.885-1.89A1.89,1.89,0,0,0-1350.81,69.212Z" transform="translate(1353.377 -68.529)" fill="#32293a"/>
          </g>
          <g id="Grupo_961190" data-name="Grupo 961190" transform="translate(9.939)">
            <path id="Trazado_659997" data-name="Trazado 659997" d="M-1335.621,71.351a2.23,2.23,0,0,1,2.227-2.232,2.229,2.229,0,0,1,2.227,2.232,2.229,2.229,0,0,1-2.227,2.232A2.23,2.23,0,0,1-1335.621,71.351Z" transform="translate(1335.961 -68.777)" fill="#fffdf7"/>
            <path id="Trazado_659998" data-name="Trazado 659998" d="M-1333.641,73.675a2.573,2.573,0,0,1-2.567-2.573,2.573,2.573,0,0,1,2.567-2.573,2.573,2.573,0,0,1,2.568,2.573A2.573,2.573,0,0,1-1333.641,73.675Zm0-4.463a1.89,1.89,0,0,0-1.886,1.89,1.891,1.891,0,0,0,1.886,1.89,1.89,1.89,0,0,0,1.886-1.89A1.89,1.89,0,0,0-1333.641,69.212Z" transform="translate(1336.208 -68.529)" fill="#32293a"/>
          </g>
          <g id="Grupo_961191" data-name="Grupo 961191" transform="translate(19.877)">
            <path id="Trazado_659999" data-name="Trazado 659999" d="M-1318.453,71.351a2.23,2.23,0,0,1,2.227-2.232A2.229,2.229,0,0,1-1314,71.351a2.229,2.229,0,0,1-2.226,2.232A2.23,2.23,0,0,1-1318.453,71.351Z" transform="translate(1318.793 -68.777)" fill="#fffdf7"/>
            <path id="Trazado_660000" data-name="Trazado 660000" d="M-1316.474,73.675a2.573,2.573,0,0,1-2.567-2.573,2.573,2.573,0,0,1,2.567-2.573,2.573,2.573,0,0,1,2.567,2.573A2.573,2.573,0,0,1-1316.474,73.675Zm0-4.463a1.89,1.89,0,0,0-1.885,1.89,1.89,1.89,0,0,0,1.885,1.89,1.89,1.89,0,0,0,1.887-1.89A1.89,1.89,0,0,0-1316.474,69.212Z" transform="translate(1319.041 -68.529)" fill="#32293a"/>
          </g>
          <g id="Grupo_961192" data-name="Grupo 961192" transform="translate(29.816)">
            <path id="Trazado_660001" data-name="Trazado 660001" d="M-1301.284,71.351a2.229,2.229,0,0,1,2.227-2.232,2.23,2.23,0,0,1,2.227,2.232,2.23,2.23,0,0,1-2.227,2.232A2.229,2.229,0,0,1-1301.284,71.351Z" transform="translate(1301.625 -68.777)" fill="#fffdf7"/>
            <path id="Trazado_660002" data-name="Trazado 660002" d="M-1299.305,73.675a2.573,2.573,0,0,1-2.568-2.573,2.573,2.573,0,0,1,2.568-2.573,2.573,2.573,0,0,1,2.567,2.573A2.573,2.573,0,0,1-1299.305,73.675Zm0-4.463a1.89,1.89,0,0,0-1.887,1.89,1.891,1.891,0,0,0,1.887,1.89,1.89,1.89,0,0,0,1.886-1.89A1.89,1.89,0,0,0-1299.305,69.212Z" transform="translate(1301.873 -68.529)" fill="#32293a"/>
          </g>
          <g id="Grupo_961193" data-name="Grupo 961193" transform="translate(39.755)">
            <path id="Trazado_660003" data-name="Trazado 660003" d="M-1284.116,71.351a2.229,2.229,0,0,1,2.226-2.232,2.229,2.229,0,0,1,2.227,2.232,2.229,2.229,0,0,1-2.227,2.232A2.229,2.229,0,0,1-1284.116,71.351Z" transform="translate(1284.457 -68.777)" fill="#fffdf7"/>
            <path id="Trazado_660004" data-name="Trazado 660004" d="M-1282.138,73.675A2.573,2.573,0,0,1-1284.7,71.1a2.573,2.573,0,0,1,2.567-2.573,2.573,2.573,0,0,1,2.567,2.573A2.573,2.573,0,0,1-1282.138,73.675Zm0-4.463a1.89,1.89,0,0,0-1.887,1.89,1.891,1.891,0,0,0,1.887,1.89,1.891,1.891,0,0,0,1.887-1.89A1.89,1.89,0,0,0-1282.138,69.212Z" transform="translate(1284.705 -68.529)" fill="#32293a"/>
          </g>
          <g id="Grupo_961194" data-name="Grupo 961194" transform="translate(49.694)">
            <path id="Trazado_660005" data-name="Trazado 660005" d="M-1266.948,71.351a2.229,2.229,0,0,1,2.226-2.232,2.229,2.229,0,0,1,2.227,2.232,2.229,2.229,0,0,1-2.227,2.232A2.229,2.229,0,0,1-1266.948,71.351Z" transform="translate(1267.288 -68.777)" fill="#fffdf7"/>
            <path id="Trazado_660006" data-name="Trazado 660006" d="M-1264.969,73.675a2.573,2.573,0,0,1-2.567-2.573,2.573,2.573,0,0,1,2.567-2.573A2.573,2.573,0,0,1-1262.4,71.1,2.573,2.573,0,0,1-1264.969,73.675Zm0-4.463a1.89,1.89,0,0,0-1.886,1.89,1.891,1.891,0,0,0,1.886,1.89,1.891,1.891,0,0,0,1.887-1.89A1.89,1.89,0,0,0-1264.969,69.212Z" transform="translate(1267.536 -68.529)" fill="#32293a"/>
          </g>
          <g id="Grupo_961195" data-name="Grupo 961195" transform="translate(59.633)">
            <path id="Trazado_660007" data-name="Trazado 660007" d="M-1249.78,71.351a2.229,2.229,0,0,1,2.227-2.232,2.229,2.229,0,0,1,2.227,2.232,2.229,2.229,0,0,1-2.227,2.232A2.229,2.229,0,0,1-1249.78,71.351Z" transform="translate(1250.12 -68.777)" fill="#fffdf7"/>
            <path id="Trazado_660008" data-name="Trazado 660008" d="M-1247.8,73.675a2.573,2.573,0,0,1-2.567-2.573,2.573,2.573,0,0,1,2.567-2.573,2.573,2.573,0,0,1,2.567,2.573A2.573,2.573,0,0,1-1247.8,73.675Zm0-4.463a1.89,1.89,0,0,0-1.886,1.89,1.891,1.891,0,0,0,1.886,1.89,1.891,1.891,0,0,0,1.886-1.89A1.89,1.89,0,0,0-1247.8,69.212Z" transform="translate(1250.368 -68.529)" fill="#32293a"/>
          </g>
          <g id="Grupo_961196" data-name="Grupo 961196" transform="translate(69.571)">
            <ellipse id="Elipse_5805" data-name="Elipse 5805" cx="2.227" cy="2.232" rx="2.227" ry="2.232" transform="translate(0.341 0.342)" fill="#fffdf7"/>
            <path id="Trazado_660009" data-name="Trazado 660009" d="M-1230.633,73.675A2.573,2.573,0,0,1-1233.2,71.1a2.573,2.573,0,0,1,2.567-2.573,2.572,2.572,0,0,1,2.566,2.573A2.572,2.572,0,0,1-1230.633,73.675Zm0-4.463a1.89,1.89,0,0,0-1.887,1.89,1.89,1.89,0,0,0,1.887,1.89,1.891,1.891,0,0,0,1.886-1.89A1.89,1.89,0,0,0-1230.633,69.212Z" transform="translate(1233.2 -68.529)" fill="#32293a"/>
          </g>
        </g>
      </g>
    </g>
    <g id="Grupo_961200" data-name="Grupo 961200" transform="translate(-1272.091 144.213)">
      <rect id="Rectángulo_45850" data-name="Rectángulo 45850" width="118.326" height="63.612" rx="9" transform="translate(0.392 0.392)" fill="#e3f5f8"/>
      <path id="Trazado_660010" data-name="Trazado 660010" d="M-1084.785,347.774h-101.823a8.662,8.662,0,0,1-8.643-8.662V292.039a8.662,8.662,0,0,1,8.643-8.661h101.823a8.662,8.662,0,0,1,8.643,8.661v47.073A8.662,8.662,0,0,1-1084.785,347.774Zm-101.823-63.612a7.878,7.878,0,0,0-7.86,7.877v47.073a7.878,7.878,0,0,0,7.86,7.877h101.823a7.878,7.878,0,0,0,7.86-7.877V292.039a7.877,7.877,0,0,0-7.86-7.877Z" transform="translate(1195.252 -283.378)" fill="#32293a"/>
    </g>
    <g id="Grupo_961207" data-name="Grupo 961207" transform="translate(-1377.728 130.268)">
      <path id="Trazado_660011" data-name="Trazado 660011" d="M-1320.055,273.565l11.851,11.017,9.411-10.168-11.851-11.017Z" transform="translate(1353.442 -261.019)" fill="#f4c7a8"/>
      <path id="Trazado_660012" data-name="Trazado 660012" d="M-1325.27,282.5l.781-.844a2.28,2.28,0,0,0-.12-3.216l-.554-.515a2.268,2.268,0,0,0-2.331-.467l-2.222.823a2.269,2.269,0,0,1-2.332-.467l-4.791-4.455a2.277,2.277,0,0,1-.708-1.954l.779-6.171a2.278,2.278,0,0,0-.708-1.954h0a2.79,2.79,0,0,0-1.721-.6c-7.88-.727-16.086-1.825-23.8-3.161a5.4,5.4,0,0,0-3.6.15l-4.466,2.427,34.661,32.223Z" transform="translate(1374.923 -259.288)" fill="#583ae2"/>
      <g id="Grupo_961201" data-name="Grupo 961201" transform="translate(0 2.418)">
        <path id="Trazado_660013" data-name="Trazado 660013" d="M-1343.359,300.264a1.84,1.84,0,0,1-1.259-.494l-32.519-30.232a1.863,1.863,0,0,1-.1-2.623l3.077-3.323a.39.39,0,0,1,.552-.02.391.391,0,0,1,.021.553l-3.077,3.324a1.074,1.074,0,0,0,.057,1.515l32.518,30.232a1.071,1.071,0,0,0,1.513-.057l3.076-3.324a.39.39,0,0,1,.552-.02.392.392,0,0,1,.021.554l-3.076,3.323A1.847,1.847,0,0,1-1343.359,300.264Z" transform="translate(1377.728 -263.466)" fill="#32293a"/>
      </g>
      <g id="Grupo_961202" data-name="Grupo 961202" transform="translate(31.456 25.881)">
        <path id="Trazado_660014" data-name="Trazado 660014" d="M-1323.2,307.052l-.19-.761,8.593-2.157a4.564,4.564,0,0,1,4.232,1.089l.951.883-.531.575-.951-.884a3.791,3.791,0,0,0-3.511-.9Z" transform="translate(1323.392 -303.995)" fill="#32293a"/>
      </g>
      <g id="Grupo_961203" data-name="Grupo 961203" transform="translate(16.079 1.025)">
        <path id="Trazado_660015" data-name="Trazado 660015" d="M-1336.643,270a2.345,2.345,0,0,1-.394-.034l-11-1.877a2.284,2.284,0,0,1-1.495-.944,2.3,2.3,0,0,1-.388-1.73l.76-4.361.771.135-.76,4.362a1.519,1.519,0,0,0,.256,1.142,1.508,1.508,0,0,0,.988.624l11,1.877a1.5,1.5,0,0,0,1.168-.284,1.512,1.512,0,0,0,.6-1.044l.572-4.94.777.09-.572,4.939a2.288,2.288,0,0,1-.906,1.582A2.278,2.278,0,0,1-1336.643,270Z" transform="translate(1349.953 -261.058)" fill="#32293a"/>
      </g>
      <g id="Grupo_961204" data-name="Grupo 961204" transform="translate(26.897 2.252)">
        <path id="Trazado_660016" data-name="Trazado 660016" d="M-1329.73,263.856l-.861,6.32Z" transform="translate(1330.983 -263.464)" fill="#ffcc38"/>
        <path id="Trazado_660017" data-name="Trazado 660017" d="M-1330.875,270.283a.412.412,0,0,1-.054,0,.392.392,0,0,1-.335-.442l.861-6.319a.392.392,0,0,1,.441-.335.391.391,0,0,1,.335.441l-.861,6.319A.393.393,0,0,1-1330.875,270.283Z" transform="translate(1331.267 -263.179)" fill="#32293a"/>
      </g>
      <g id="Grupo_961205" data-name="Grupo 961205" transform="translate(23.347 1.77)">
        <path id="Trazado_660018" data-name="Trazado 660018" d="M-1335.863,263.025l-.861,6.32Z" transform="translate(1337.115 -262.632)" fill="#ffcc38"/>
        <path id="Trazado_660019" data-name="Trazado 660019" d="M-1337.007,269.452a.326.326,0,0,1-.053,0,.391.391,0,0,1-.335-.441l.86-6.32a.39.39,0,0,1,.441-.336.392.392,0,0,1,.335.441l-.86,6.32A.392.392,0,0,1-1337.007,269.452Z" transform="translate(1337.399 -262.346)" fill="#32293a"/>
      </g>
      <g id="Grupo_961206" data-name="Grupo 961206" transform="translate(19.84 1.16)">
        <path id="Trazado_660020" data-name="Trazado 660020" d="M-1341.918,261.97l-.861,6.32Z" transform="translate(1343.171 -261.578)" fill="#ffcc38"/>
        <path id="Trazado_660021" data-name="Trazado 660021" d="M-1343.064,268.4a.336.336,0,0,1-.054,0,.392.392,0,0,1-.335-.441l.861-6.319a.4.4,0,0,1,.441-.336.392.392,0,0,1,.335.441l-.861,6.32A.393.393,0,0,1-1343.064,268.4Z" transform="translate(1343.456 -261.292)" fill="#32293a"/>
      </g>
    </g>
    <g id="Grupo_961214" data-name="Grupo 961214" transform="translate(-1341.883 175.367)">
      <path id="Trazado_660022" data-name="Trazado 660022" d="M-1269.1,351.061h16.165l2.843-13.869h-16.164Z" transform="translate(1296.141 -337.192)" fill="#f4c7a8"/>
      <path id="Trazado_660023" data-name="Trazado 660023" d="M-1267.712,351.31v-1.151a2.274,2.274,0,0,0-2.271-2.276h-.755a2.27,2.27,0,0,0-2.026,1.247l-1.071,2.117a2.27,2.27,0,0,1-2.026,1.248h-6.536a2.27,2.27,0,0,1-1.846-.951l-3.616-5.054a2.269,2.269,0,0,0-1.846-.951h0a2.792,2.792,0,0,0-1.669.733c-6.27,4.839-13.031,9.626-19.6,13.906a5.416,5.416,0,0,0-2.538,2.565l-1.627,4.823h47.278Z" transform="translate(1315.525 -340.707)" fill="#583ae2"/>
      <g id="Grupo_961208" data-name="Grupo 961208" transform="translate(0 26.466)">
        <path id="Trazado_660024" data-name="Trazado 660024" d="M-1269.6,389.691h-44.356a1.856,1.856,0,0,1-1.853-1.856V383.3a.392.392,0,0,1,.391-.393.392.392,0,0,1,.391.393v4.533a1.072,1.072,0,0,0,1.07,1.072h44.356a1.072,1.072,0,0,0,1.07-1.072V383.3a.392.392,0,0,1,.391-.393.392.392,0,0,1,.391.393v4.533A1.857,1.857,0,0,1-1269.6,389.691Z" transform="translate(1315.81 -382.909)" fill="#32293a"/>
      </g>
      <g id="Grupo_961209" data-name="Grupo 961209" transform="translate(37.839 17.12)">
        <path id="Trazado_660025" data-name="Trazado 660025" d="M-1249.791,376.717l-.656-.428,4.836-7.438a4.568,4.568,0,0,1,3.842-2.086h1.3v.784h-1.3a3.788,3.788,0,0,0-3.186,1.73Z" transform="translate(1250.447 -366.764)" fill="#32293a"/>
      </g>
      <g id="Grupo_961210" data-name="Grupo 961210" transform="translate(8.724 7.64)">
        <path id="Trazado_660026" data-name="Trazado 660026" d="M-1296.4,364.195a2.353,2.353,0,0,1-.483-.05,2.289,2.289,0,0,1-1.456-1l-2.4-3.716.656-.427,2.4,3.716a1.512,1.512,0,0,0,.962.662,1.514,1.514,0,0,0,1.15-.215l9.337-6.12a1.507,1.507,0,0,0,.663-1,1.516,1.516,0,0,0-.269-1.174l-2.933-4.011.632-.464,2.933,4.012a2.292,2.292,0,0,1,.408,1.777,2.288,2.288,0,0,1-1.006,1.52l-9.337,6.12A2.282,2.282,0,0,1-1296.4,364.195Z" transform="translate(1300.741 -350.389)" fill="#32293a"/>
      </g>
      <g id="Grupo_961211" data-name="Grupo 961211" transform="translate(17.697 9.787)">
        <path id="Trazado_660027" data-name="Trazado 660027" d="M-1284.564,354.776l3.658,5.22Z" transform="translate(1284.956 -354.384)" fill="#ffcc38"/>
        <path id="Trazado_660028" data-name="Trazado 660028" d="M-1281.191,360.1a.39.39,0,0,1-.32-.167l-3.658-5.22a.393.393,0,0,1,.1-.546.392.392,0,0,1,.545.1l3.658,5.221a.393.393,0,0,1-.095.546A.391.391,0,0,1-1281.191,360.1Z" transform="translate(1285.241 -354.099)" fill="#32293a"/>
      </g>
      <g id="Grupo_961212" data-name="Grupo 961212" transform="translate(14.768 11.855)">
        <path id="Trazado_660029" data-name="Trazado 660029" d="M-1289.624,358.347l3.657,5.22Z" transform="translate(1290.016 -357.955)" fill="#ffcc38"/>
        <path id="Trazado_660030" data-name="Trazado 660030" d="M-1286.252,363.674a.39.39,0,0,1-.32-.167l-3.657-5.221a.393.393,0,0,1,.095-.546.392.392,0,0,1,.545.1l3.657,5.221a.393.393,0,0,1-.095.546A.39.39,0,0,1-1286.252,363.674Z" transform="translate(1290.301 -357.669)" fill="#32293a"/>
      </g>
      <g id="Grupo_961213" data-name="Grupo 961213" transform="translate(11.783 13.796)">
        <path id="Trazado_660031" data-name="Trazado 660031" d="M-1294.78,361.7l3.658,5.22Z" transform="translate(1295.171 -361.308)" fill="#ffcc38"/>
        <path id="Trazado_660032" data-name="Trazado 660032" d="M-1291.407,367.027a.391.391,0,0,1-.321-.167l-3.657-5.22a.392.392,0,0,1,.095-.546.391.391,0,0,1,.545.1l3.657,5.22a.393.393,0,0,1-.095.546A.391.391,0,0,1-1291.407,367.027Z" transform="translate(1295.456 -361.023)" fill="#32293a"/>
      </g>
    </g>
    <path id="Trazado_660033" data-name="Trazado 660033" d="M-1226.4,194.6l-3.474,10.6-27.106-13.853a18.048,18.048,0,0,0-21.885,3.376l-33.976,35.909a1.272,1.272,0,0,0,.081,1.826l17.467,15.453a1.266,1.266,0,0,0,1.817-.145l11.742-14.293-8.809,43.384a1.269,1.269,0,0,0,1.223,1.523l23.861.367a1.269,1.269,0,0,0,1.259-1.005l7.241-34,46.3.008a14.956,14.956,0,0,0,13.9-9.455l7.689-25.155Z" transform="translate(-27.177 -99.452)" fill="#32293a"/>
    <path id="Trazado_660034" data-name="Trazado 660034" d="M-1087.005,199.7l19.74,37.544-8.642,7.939h12.6s1.824,12.23,2.435,15.982,5.019,3.96,5.021.568c0,1.849,1.541,3.4,2.892,2.98,1.058-.326,2-1.857,2-5.389-.113,2.5,4.9,2,4.4-2.4.332,1.908,3.835,1.9,3.914-1.876.044-2.154-.038-5.412-.106-7.539a6.869,6.869,0,0,0-1.316-3.828l-5.918-8.12-18.289-43.814Z" transform="translate(-122.421 -100.582)" fill="#f4c7a8"/>
    <g id="Grupo_961215" data-name="Grupo 961215" transform="translate(-1203.021 106.018)">
      <path id="Trazado_660035" data-name="Trazado 660035" d="M-1048.549,275.542a3.1,3.1,0,0,1-2.1-.8,2.8,2.8,0,0,1-.514-.629,2.376,2.376,0,0,1-1.9,1.21c-1.473.118-3.151-.974-3.529-3.291-.549-3.365-2.089-13.663-2.386-15.653h-12.267a.392.392,0,0,1-.365-.251.392.392,0,0,1,.1-.431l8.421-7.735-12.8-24.351a.392.392,0,0,1,.164-.53.39.39,0,0,1,.528.164l12.944,24.619a.392.392,0,0,1-.081.472l-7.9,7.258h11.6a.392.392,0,0,1,.387.335c.019.122,1.83,12.269,2.435,15.976.3,1.848,1.56,2.735,2.694,2.636.749-.06,1.549-.619,1.55-2a.392.392,0,0,1,.391-.392h0a.392.392,0,0,1,.391.392,2.144,2.144,0,0,0,.676,1.627,2.374,2.374,0,0,0,1.789.585,1.456,1.456,0,0,0,1.047-.533c.578-.7.785-2.1.6-4.051a.393.393,0,0,1,.35-.428.406.406,0,0,1,.428.349,1.463,1.463,0,0,0,.8,1.268,1.738,1.738,0,0,0,1.7-.3,3.445,3.445,0,0,0,1.121-3.285.392.392,0,0,1,.332-.433.393.393,0,0,1,.442.321,1.158,1.158,0,0,0,1.307.924c.819-.062,1.79-.817,1.831-2.741.046-2.232-.047-5.668-.107-7.518a6.453,6.453,0,0,0-1.241-3.609l-5.919-8.12a.385.385,0,0,1-.045-.08l-11.927-28.574a.392.392,0,0,1,.21-.513.391.391,0,0,1,.512.211l11.909,28.532,5.892,8.083a7.23,7.23,0,0,1,1.391,4.047c.06,1.857.153,5.31.106,7.56-.049,2.292-1.318,3.412-2.554,3.506a2.069,2.069,0,0,1-1.358-.35,3.771,3.771,0,0,1-1.439,2.673,2.516,2.516,0,0,1-2.479.382,2.007,2.007,0,0,1-.419-.248,4.745,4.745,0,0,1-.839,2.894,2.234,2.234,0,0,1-1.58.812C-1048.36,275.538-1048.454,275.542-1048.549,275.542Z" transform="translate(1075.942 -217.399)" fill="#32293a"/>
    </g>
    <path id="Trazado_660036" data-name="Trazado 660036" d="M-1226.163,100.182-1262.6,86.711s-7.912-5.437-9.154-5.832-3.413.149-3.464,1.334c-2.3-1.485-4.623-.4-4.828.924-2.262-1.086-4.488.586-4.469,2.1,0,0-8.742-5.145-10.307-6.113s-5.023,1.161-3.154,3.091c2.7,2.783,14.388,11.677,14.388,11.677l-3.363,3.681s-1.655-2.144-3.611-2.021a5.006,5.006,0,0,0-2.119.588.817.817,0,0,0-.258,1.226c1.179,1.473,3.615,4.022,5.177,5.626a3.092,3.092,0,0,0,3.324.73l8.007-3.062,43.646,18.623Z" transform="translate(-33.355 -53.052)" fill="#f4c7a8"/>
    <g id="Grupo_961216" data-name="Grupo 961216" transform="translate(-1332.264 25.43)">
      <path id="Trazado_660037" data-name="Trazado 660037" d="M-1268.739,104.165a.387.387,0,0,1-.153-.032l-7.832-3.341-7.859,3.006a3.484,3.484,0,0,1-3.744-.823c-1.736-1.781-4.046-4.209-5.2-5.655a1.193,1.193,0,0,1-.238-.98,1.221,1.221,0,0,1,.613-.835,5.389,5.389,0,0,1,2.283-.635,5.008,5.008,0,0,1,3.643,1.823l2.778-3.04c-1.982-1.513-11.631-8.918-14.09-11.456a1.934,1.934,0,0,1-.166-2.729c.839-1.048,2.644-1.687,3.805-.969,1.328.821,7.932,4.712,9.805,5.816a3.061,3.061,0,0,1,1.308-1.628,3.683,3.683,0,0,1,3.212-.364,2.527,2.527,0,0,1,1.289-1.2,4.094,4.094,0,0,1,3.548.207,1.819,1.819,0,0,1,.591-.647,4.1,4.1,0,0,1,3.23-.472c1.242.4,8.231,5.179,9.216,5.856l14.836,5.485a.393.393,0,0,1,.231.5.391.391,0,0,1-.5.232l-14.882-5.5a.424.424,0,0,1-.086-.045c-3.161-2.172-8.18-5.505-9.051-5.783a3.321,3.321,0,0,0-2.545.367.818.818,0,0,0-.41.611.392.392,0,0,1-.211.332.392.392,0,0,1-.392-.019,3.44,3.44,0,0,0-3.252-.412,1.569,1.569,0,0,0-.978,1.066.392.392,0,0,1-.2.287.39.39,0,0,1-.351.006,2.9,2.9,0,0,0-2.869.146,2.039,2.039,0,0,0-1.04,1.593.392.392,0,0,1-.2.344.389.389,0,0,1-.394,0c-.088-.052-8.765-5.159-10.316-6.117a2.477,2.477,0,0,0-2.784.793,1.152,1.152,0,0,0,.116,1.691c2.645,2.73,14.227,11.549,14.344,11.638a.391.391,0,0,1,.153.277.4.4,0,0,1-.1.3l-3.363,3.681a.387.387,0,0,1-.3.126.39.39,0,0,1-.293-.151c-.016-.02-1.547-1.99-3.277-1.87a4.622,4.622,0,0,0-1.956.54.444.444,0,0,0-.222.3.405.405,0,0,0,.082.336c1.2,1.5,3.741,4.15,5.152,5.6a2.7,2.7,0,0,0,2.905.638l8.007-3.062a.389.389,0,0,1,.293.006l7.977,3.4a.392.392,0,0,1,.207.514A.39.39,0,0,1-1268.739,104.165Z" transform="translate(1299.194 -78.194)" fill="#32293a"/>
    </g>
    <path id="Trazado_660038" data-name="Trazado 660038" d="M-1130.338,163.854l-4.741,14.378-37.331-14.538,6.106-21.561-18.669-7.357,6.622-19.1,49.053,15.334a15.605,15.605,0,0,1,9.279,7.878l10.491,20.829-18.731,7.951Z" transform="translate(-81.168 -68.547)" fill="#2ff980"/>
    <path id="Trazado_660039" data-name="Trazado 660039" d="M-1112.194,117.777c-1.43,3.663-7.852,8.991-13.5,6.6s-6.574-7.057-4.806-12.457l2.8-.731a5.527,5.527,0,0,0,3.922-3.847l.521-1.847s-3.515-.155-3.327-5.228,2.358-12.122,2.358-12.122a16.042,16.042,0,0,0,8.378,2.756,3.01,3.01,0,0,0,1.795,4.352c-.573,2.175-.6,3.9,1.961,4.838,3.266-.922,4.279,1.182,3.991,2.917-.23,1.391-1.695,3.261-4.479,1.835l-1.574,5.951a5.545,5.545,0,0,0,.409,3.911Z" transform="translate(-103.766 -56.953)" fill="#f4c7a8"/>
    <g id="Grupo_961217" data-name="Grupo 961217" transform="translate(-1251.464 65.143)">
      <path id="Trazado_660040" data-name="Trazado 660040" d="M-1159.23,168.348a.367.367,0,0,1-.1-.014.392.392,0,0,1-.274-.482l5.671-20.771a.389.389,0,0,1,.48-.274.392.392,0,0,1,.274.482l-5.67,20.771A.392.392,0,0,1-1159.23,168.348Z" transform="translate(1159.621 -146.793)" fill="#32293a"/>
    </g>
    <g id="Grupo_961218" data-name="Grupo 961218" transform="translate(-1218.846 74.005)">
      <path id="Trazado_660041" data-name="Trazado 660041" d="M-1093.857,187.61a.393.393,0,0,1-.34-.2l-9.029-15.9a.394.394,0,0,1,.146-.535.393.393,0,0,1,.534.147l8.856,15.6,18.017-7.649-8.644-16.4a.392.392,0,0,1,.163-.53.39.39,0,0,1,.529.163l8.845,16.773a.392.392,0,0,1,.023.314.392.392,0,0,1-.217.23l-18.73,7.952A.393.393,0,0,1-1093.857,187.61Z" transform="translate(1103.277 -162.1)" fill="#32293a"/>
    </g>
    <g id="Grupo_961219" data-name="Grupo 961219" transform="translate(-1266.633 46.647)">
      <path id="Trazado_660042" data-name="Trazado 660042" d="M-1166.662,142.175a.39.39,0,0,1-.143-.027l-19.018-7.5,6.868-19.809,12.26,3.658a.393.393,0,0,1,.263.488.393.393,0,0,1-.487.264l-11.542-3.445-6.377,18.39,18.32,7.22a.394.394,0,0,1,.221.509A.393.393,0,0,1-1166.662,142.175Z" transform="translate(1185.823 -114.843)" fill="#32293a"/>
    </g>
    <g id="Grupo_961220" data-name="Grupo 961220" transform="translate(-1309.217 28.62)">
      <path id="Trazado_660043" data-name="Trazado 660043" d="M-1253.38,88.19a.4.4,0,0,1-.215-.065l-5.612-3.7a.392.392,0,0,1-.111-.543.391.391,0,0,1,.542-.112l5.612,3.7a.392.392,0,0,1,.11.543A.388.388,0,0,1-1253.38,88.19Z" transform="translate(1259.382 -83.702)" fill="#32293a"/>
    </g>
    <g id="Grupo_961221" data-name="Grupo 961221" transform="translate(-1313.794 29.693)">
      <path id="Trazado_660044" data-name="Trazado 660044" d="M-1260.675,90.6a.391.391,0,0,1-.221-.069l-6.221-4.261a.392.392,0,0,1-.1-.545.391.391,0,0,1,.544-.1l6.221,4.261a.392.392,0,0,1,.1.545A.39.39,0,0,1-1260.675,90.6Z" transform="translate(1267.288 -85.557)" fill="#32293a"/>
    </g>
    <g id="Grupo_961222" data-name="Grupo 961222" transform="translate(-1319.134 31.277)">
      <path id="Trazado_660045" data-name="Trazado 660045" d="M-1269.9,93.493a.392.392,0,0,1-.226-.072L-1276.348,89a.392.392,0,0,1-.093-.546.392.392,0,0,1,.545-.094l6.217,4.417a.392.392,0,0,1,.094.546A.393.393,0,0,1-1269.9,93.493Z" transform="translate(1276.514 -88.292)" fill="#32293a"/>
    </g>
    <g id="Grupo_961223" data-name="Grupo 961223" transform="translate(-1309.302 118.803)">
      <path id="Trazado_660046" data-name="Trazado 660046" d="M-1185.917,264.945h-2.333a13.669,13.669,0,0,1-6.474-1.637l-12.449-6.028-27.569-14.894a17.677,17.677,0,0,0-8.321-2.118h-.047a15.387,15.387,0,0,0-15.009,11.861l-.637,2.661a.39.39,0,0,1-.472.29.393.393,0,0,1-.289-.473l.637-2.661a16.17,16.17,0,0,1,15.771-12.462h.049a18.463,18.463,0,0,1,8.691,2.212l27.554,14.885,12.45,6.028a12.9,12.9,0,0,0,6.117,1.551h2.333a11.472,11.472,0,0,0,10.852-7.772l2.224-6.51a.393.393,0,0,1,.5-.244.394.394,0,0,1,.244.5l-2.224,6.51A12.255,12.255,0,0,1-1185.917,264.945Z" transform="translate(1259.53 -239.484)" fill="#faf5ff"/>
    </g>
    <g id="Grupo_961224" data-name="Grupo 961224" transform="translate(-1233.664 109.847)">
      <path id="Trazado_660047" data-name="Trazado 660047" d="M-1123.7,235.936a.392.392,0,0,1-.165-.037,9.017,9.017,0,0,1-4.222-11.659.392.392,0,0,1,.52-.189.393.393,0,0,1,.189.522c-2.173,4.658.894,9.234,3.844,10.617a.392.392,0,0,1,.189.521A.393.393,0,0,1-1123.7,235.936Z" transform="translate(1128.873 -224.014)" fill="#faf5ff"/>
    </g>
    <g id="Grupo_961225" data-name="Grupo 961225" transform="translate(-1170.127 146.353)">
      <path id="Trazado_660048" data-name="Trazado 660048" d="M-1017.973,297.459a.391.391,0,0,1-.39-.361l-.756-9.6a.392.392,0,0,1,.359-.422.377.377,0,0,1,.42.36l.755,9.6a.391.391,0,0,1-.358.422Z" transform="translate(1019.12 -287.074)" fill="#32293a"/>
    </g>
    <g id="Grupo_961226" data-name="Grupo 961226" transform="translate(-1174.787 146.498)">
      <path id="Trazado_660049" data-name="Trazado 660049" d="M-1025.762,299.964a.391.391,0,0,1-.388-.359l-1.018-11.855a.391.391,0,0,1,.357-.424.392.392,0,0,1,.423.357l1.018,11.855a.392.392,0,0,1-.357.424Z" transform="translate(1027.171 -287.325)" fill="#32293a"/>
    </g>
    <g id="Grupo_961227" data-name="Grupo 961227" transform="translate(-1179.79 146.353)">
      <path id="Trazado_660050" data-name="Trazado 660050" d="M-1034.29,302.268a.391.391,0,0,1-.39-.361l-1.131-14.41a.392.392,0,0,1,.359-.422.383.383,0,0,1,.42.36l1.13,14.41a.391.391,0,0,1-.359.422Z" transform="translate(1035.811 -287.074)" fill="#32293a"/>
    </g>
    <g id="Grupo_961228" data-name="Grupo 961228" transform="translate(-1230.542 44.883)">
      <path id="Trazado_660051" data-name="Trazado 660051" d="M-1117.594,116.3c-3.3,0-5.271-1.352-5.877-4.025a.392.392,0,0,1,.3-.469.387.387,0,0,1,.468.3c.566,2.5,2.487,3.6,5.908,3.388a.391.391,0,0,1,.416.366.393.393,0,0,1-.366.416Q-1117.186,116.3-1117.594,116.3Z" transform="translate(1123.481 -111.796)" fill="#32293a"/>
    </g>
    <g id="Grupo_961229" data-name="Grupo 961229" transform="translate(-1235.576 48.418)">
      <path id="Trazado_660052" data-name="Trazado 660052" d="M-1129.056,135.551a.389.389,0,0,1-.257-.1c-5-4.374-1.937-11.1-1.906-11.169a.392.392,0,0,1,.262-.215l2.785-.68a4.643,4.643,0,0,0,3.281-2.965l.805-2.262a.39.39,0,0,1,.5-.237.393.393,0,0,1,.237.5l-.806,2.263a5.425,5.425,0,0,1-3.834,3.462l-2.6.634c-.435,1.039-2.4,6.416,1.785,10.078a.391.391,0,0,1,.038.553A.388.388,0,0,1-1129.056,135.551Z" transform="translate(1132.176 -117.902)" fill="#32293a"/>
    </g>
    <g id="Grupo_961230" data-name="Grupo 961230" transform="translate(-1229.806 34.552)">
      <path id="Trazado_660053" data-name="Trazado 660053" d="M-1121.062,100.4a.392.392,0,0,1-.321-.167l-.663-.951a.92.92,0,0,1-.114-.824.885.885,0,0,1,.592-.566c.5-.147,1.355-.479,1.553-1.052a1.39,1.39,0,0,0-.1-1.094,2.142,2.142,0,0,0-1.232-1.031.393.393,0,0,1-.263-.487.39.39,0,0,1,.487-.265,2.921,2.921,0,0,1,1.7,1.425,2.143,2.143,0,0,1,.147,1.708,2.957,2.957,0,0,1-2.071,1.548.109.109,0,0,0-.073.072.127.127,0,0,0,.016.115l.664.951a.394.394,0,0,1-.1.546A.388.388,0,0,1-1121.062,100.4Z" transform="translate(1122.21 -93.949)" fill="#32293a"/>
    </g>
    <g id="Grupo_961231" data-name="Grupo 961231" transform="translate(-1224.228 37.336)">
      <path id="Trazado_660054" data-name="Trazado 660054" d="M-1109.489,101.4a.391.391,0,0,1-.379-.295,1.989,1.989,0,0,0-2.232-1.525.394.394,0,0,1-.465-.3.392.392,0,0,1,.3-.467,2.761,2.761,0,0,1,3.155,2.1.392.392,0,0,1-.281.478A.407.407,0,0,1-1109.489,101.4Z" transform="translate(1112.573 -98.76)" fill="#32293a"/>
    </g>
    <path id="Trazado_660055" data-name="Trazado 660055" d="M-1120.219,99.175a.882.882,0,0,1-1.025.684.884.884,0,0,1-.439-1.153.882.882,0,0,1,1.025-.684A.885.885,0,0,1-1120.219,99.175Z" transform="translate(-107.794 -61.1)" fill="#32293a"/>
    <path id="Trazado_660056" data-name="Trazado 660056" d="M-1111.333,103.165a.881.881,0,0,1-1.025.684.885.885,0,0,1-.439-1.153.882.882,0,0,1,1.025-.684A.885.885,0,0,1-1111.333,103.165Z" transform="translate(-111.536 -62.78)" fill="#32293a"/>
    <g id="Grupo_961232" data-name="Grupo 961232" transform="translate(-1197.397 -4.317)">
      <path id="Trazado_660057" data-name="Trazado 660057" d="M-1058.022,41.7a2.255,2.255,0,0,1-1.681-.753l-5.274-5.9a2.264,2.264,0,0,1,.175-3.193,2.253,2.253,0,0,1,3.186.174l3.464,3.874,5.81-7.544a2.253,2.253,0,0,1,3.165-.409,2.264,2.264,0,0,1,.408,3.172l-7.467,9.7a2.256,2.256,0,0,1-1.7.878Z" transform="translate(1065.943 -27.093)" fill="#2ff980"/>
      <path id="Trazado_660058" data-name="Trazado 660058" d="M-1058.3,41.812a2.649,2.649,0,0,1-1.972-.883l-5.274-5.9a2.66,2.66,0,0,1,.205-3.747,2.587,2.587,0,0,1,1.913-.674,2.627,2.627,0,0,1,1.826.879l3.15,3.523,5.523-7.171a2.627,2.627,0,0,1,1.757-1.01,2.621,2.621,0,0,1,1.956.531,2.643,2.643,0,0,1,1.009,1.762,2.641,2.641,0,0,1-.531,1.961l-7.467,9.695a2.638,2.638,0,0,1-2,1.031Zm-5.277-10.422a1.848,1.848,0,0,0-1.243.478,1.875,1.875,0,0,0-.145,2.639l5.275,5.9a1.866,1.866,0,0,0,1.39.622v.393l.064-.394a1.859,1.859,0,0,0,1.411-.726l7.468-9.7a1.859,1.859,0,0,0,.373-1.381,1.857,1.857,0,0,0-.711-1.242,1.845,1.845,0,0,0-1.377-.374,1.854,1.854,0,0,0-1.239.711l-5.809,7.544a.39.39,0,0,1-.3.152.4.4,0,0,1-.3-.13l-3.464-3.874a1.853,1.853,0,0,0-1.287-.619C-1063.512,31.391-1063.548,31.39-1063.582,31.39Z" transform="translate(1066.226 -26.808)" fill="#32293a"/>
    </g>
    <g id="Grupo_961233" data-name="Grupo 961233" transform="translate(-1229.451 42.693)">
      <path id="Trazado_660059" data-name="Trazado 660059" d="M-1119.722,109.973a1.886,1.886,0,0,1-1.167-.4,1.7,1.7,0,0,1-.707-1.173.392.392,0,0,1,.391-.386h.007a.391.391,0,0,1,.384.391,1.162,1.162,0,0,0,.468.594,1.13,1.13,0,0,0,.977.14.39.39,0,0,1,.483.271.392.392,0,0,1-.27.483A2.094,2.094,0,0,1-1119.722,109.973Z" transform="translate(1121.595 -108.012)" fill="#32293a"/>
    </g>
    <g id="Grupo_961234" data-name="Grupo 961234" transform="translate(-1176.155 58.023)">
      <path id="Trazado_660060" data-name="Trazado 660060" d="M-1001,197.683a.388.388,0,0,1-.276-.115c-5.476-5.488-6.019-9.946-1.816-14.907,8.48-10.009,10.3-19.857,5.558-30.1-5.181-11.2-20.793-14.776-29.18-16.7-.954-.218-1.806-.413-2.528-.594a.391.391,0,0,1-.284-.475.388.388,0,0,1,.474-.285c.717.18,1.563.373,2.512.591,8.518,1.949,24.374,5.578,29.717,17.13,4.813,10.408,2.9,20.818-5.673,30.943-3.927,4.636-3.414,8.647,1.773,13.845a.394.394,0,0,1,0,.555A.391.391,0,0,1-1001,197.683Z" transform="translate(1029.532 -134.493)" fill="#32293a"/>
    </g>
    <g id="Grupo_961235" data-name="Grupo 961235" transform="translate(-1280.539 -26.966)">
      <path id="Trazado_660061" data-name="Trazado 660061" d="M-1180.379,19.684a.389.389,0,0,1-.153-.032c-4.3-1.826-6.044-7.24-8.068-13.508-.423-1.308-.86-2.662-1.337-4.04-3.6-10.408-9.6-14.56-19.474-13.461a.389.389,0,0,1-.432-.347.392.392,0,0,1,.346-.432c10.287-1.145,16.555,3.165,20.3,13.984.479,1.384.918,2.743,1.342,4.056,1.964,6.085,3.661,11.34,7.629,13.027a.392.392,0,0,1,.207.514A.39.39,0,0,1-1180.379,19.684Z" transform="translate(1209.845 12.316)" fill="#32293a"/>
    </g>
    <g id="Grupo_961236" data-name="Grupo 961236" transform="translate(-1353.91 88.139)">
      <path id="Trazado_660062" data-name="Trazado 660062" d="M-1333.767,192.162a2.824,2.824,0,0,1-2.818-2.824,2.824,2.824,0,0,1,2.818-2.823,2.824,2.824,0,0,1,2.818,2.823A2.824,2.824,0,0,1-1333.767,192.162Zm0-4.863a2.039,2.039,0,0,0-2.035,2.039,2.04,2.04,0,0,0,2.035,2.04,2.039,2.039,0,0,0,2.035-2.04A2.039,2.039,0,0,0-1333.767,187.3Z" transform="translate(1336.585 -186.515)" fill="#32293a"/>
    </g>
    <g id="Grupo_961237" data-name="Grupo 961237" transform="translate(-1158.993 37.859)">
      <path id="Trazado_660063" data-name="Trazado 660063" d="M-997.6,104.245a2.292,2.292,0,0,1-2.287-2.291,2.292,2.292,0,0,1,2.287-2.291,2.292,2.292,0,0,1,2.286,2.291A2.292,2.292,0,0,1-997.6,104.245Zm0-3.8a1.507,1.507,0,0,0-1.5,1.507,1.507,1.507,0,0,0,1.5,1.507,1.507,1.507,0,0,0,1.5-1.507A1.507,1.507,0,0,0-997.6,100.446Z" transform="translate(999.887 -99.662)" fill="#32293a"/>
    </g>
    <g id="Grupo_961238" data-name="Grupo 961238" transform="translate(-1295.538 -36.089)">
      <path id="Trazado_660064" data-name="Trazado 660064" d="M-1233.467-23.491a2.291,2.291,0,0,1-2.287-2.291,2.291,2.291,0,0,1,2.287-2.291,2.291,2.291,0,0,1,2.286,2.291A2.291,2.291,0,0,1-1233.467-23.491Zm0-3.8a1.508,1.508,0,0,0-1.5,1.507,1.508,1.508,0,0,0,1.5,1.507,1.507,1.507,0,0,0,1.5-1.507A1.507,1.507,0,0,0-1233.467-27.29Z" transform="translate(1235.754 28.074)" fill="#32293a"/>
    </g>
    <g id="Grupo_961239" data-name="Grupo 961239" transform="translate(-1285.333 -47.107)">
      <path id="Trazado_660065" data-name="Trazado 660065" d="M-1213.867-38.571a4.269,4.269,0,0,1-4.259-4.268,4.268,4.268,0,0,1,4.259-4.268,4.268,4.268,0,0,1,4.258,4.268A4.268,4.268,0,0,1-1213.867-38.571Zm0-7.752a3.484,3.484,0,0,0-3.476,3.483,3.484,3.484,0,0,0,3.476,3.484,3.483,3.483,0,0,0,3.475-3.484A3.483,3.483,0,0,0-1213.867-46.323Z" transform="translate(1218.126 47.107)" fill="#32293a"/>
    </g>
    <g id="Grupo_961240" data-name="Grupo 961240" transform="translate(-1365.771 74.722)">
      <path id="Trazado_660066" data-name="Trazado 660066" d="M-1352.366,172.776a4.719,4.719,0,0,1-4.708-4.718,4.719,4.719,0,0,1,4.708-4.719,4.719,4.719,0,0,1,4.708,4.719A4.719,4.719,0,0,1-1352.366,172.776Zm0-8.652a3.934,3.934,0,0,0-3.926,3.934,3.934,3.934,0,0,0,3.926,3.934,3.934,3.934,0,0,0,3.925-3.934A3.934,3.934,0,0,0-1352.366,164.123Z" transform="translate(1357.074 -163.339)" fill="#32293a"/>
    </g>
    <g id="Grupo_961241" data-name="Grupo 961241" transform="translate(-1264.119 101.941)">
      <path id="Trazado_660067" data-name="Trazado 660067" d="M-1163.376,219.886a.4.4,0,0,1-.174-.041l-17.713-8.746a.392.392,0,0,1-.178-.525.391.391,0,0,1,.524-.178l17.713,8.746a.393.393,0,0,1,.178.525A.391.391,0,0,1-1163.376,219.886Z" transform="translate(1181.481 -210.356)" fill="#faf5ff"/>
    </g>
  </g>
</svg>
