<svg xmlns="http://www.w3.org/2000/svg" width="76.196" height="74.926" viewBox="0 0 76.196 74.926">
  <g id="sugerencia" transform="translate(-2 -3)">
    <path id="Trazado_656444" data-name="Trazado 656444" d="M3,76.386V70.225A25.223,25.223,0,0,1,6.175,57.972,25.223,25.223,0,0,0,9.35,45.72V26.859a22.859,22.859,0,1,1,45.718,0V45.72a25.223,25.223,0,0,0,3.175,12.252,25.223,25.223,0,0,1,3.175,12.252v6.162Z" transform="translate(0.27 0.27)" fill="#e55648"/>
    <path id="Trazado_656445" data-name="Trazado 656445" d="M24.589,49,10.833,52.237A10.159,10.159,0,0,0,3,62.126v2.113H61.417V62.126a10.159,10.159,0,0,0-7.833-9.889L39.828,49Z" transform="translate(0.27 12.417)" fill="#4ac3ed"/>
    <path id="Trazado_656446" data-name="Trazado 656446" d="M20,49l3.81,15.239h7.62L35.239,49Z" transform="translate(4.859 12.417)" fill="#eae8e5"/>
    <path id="Trazado_656447" data-name="Trazado 656447" d="M35.239,42v8.89A7.62,7.62,0,1,1,20,50.89V42Z" transform="translate(4.859 10.528)" fill="#edc3ae"/>
    <path id="Trazado_656448" data-name="Trazado 656448" d="M13.08,33.16a5.08,5.08,0,1,1,0-10.16Z" transform="translate(1.62 5.399)" fill="#edc3ae"/>
    <path id="Trazado_656449" data-name="Trazado 656449" d="M40,33.16A5.08,5.08,0,0,0,40,23Z" transform="translate(10.258 5.399)" fill="#edc3ae"/>
    <path id="Trazado_656450" data-name="Trazado 656450" d="M29.779,54.988A17.779,17.779,0,0,1,12,37.209V25.779a17.779,17.779,0,0,1,35.558,0V37.209A17.779,17.779,0,0,1,29.779,54.988Z" transform="translate(2.699 1.35)" fill="#f4d4be"/>
    <circle id="Elipse_5647" data-name="Elipse 5647" cx="2.5" cy="2.5" r="2.5" transform="translate(22.197 31.926)" fill="#304b68"/>
    <circle id="Elipse_5648" data-name="Elipse 5648" cx="2.5" cy="2.5" r="2.5" transform="translate(37.197 31.926)" fill="#304b68"/>
    <path id="Trazado_656451" data-name="Trazado 656451" d="M12.27,27.319s15.239,0,22.859-11.429c2.54,10.16,12.7,11.429,12.7,11.429H49.1v-1.27a19.049,19.049,0,1,0-38.1,0v1.27Z" transform="translate(2.429 1.08)" fill="#e55648"/>
    <path id="Trazado_656452" data-name="Trazado 656452" d="M47.7,51.426,37.423,49l-3.81,15.239,11.429-5.08-1.27-3.81Zm-35.787,0,3.924,3.924-1.27,3.81,11.429,5.08L22.184,49Z" transform="translate(2.675 12.417)" fill="#31a9d4"/>
    <path id="Trazado_656453" data-name="Trazado 656453" d="M63.969,30a5.08,5.08,0,0,0-5.08,5.08v2.54H52.54a2.54,2.54,0,1,0,0,5.08,2.54,2.54,0,1,0,0,5.08,2.54,2.54,0,1,0,0,5.08,2.54,2.54,0,1,0,0,5.08h2.54V69.368h8.89Z" transform="translate(12.957 7.288)" fill="#f4d4be"/>
    <path id="Trazado_656454" data-name="Trazado 656454" d="M54,52h5.08L54,60.89Z" transform="translate(14.037 13.227)" fill="#edc3ae"/>
    <g id="Grupo_956872" data-name="Grupo 956872" transform="translate(2 3)">
      <circle id="Elipse_5649" data-name="Elipse 5649" cx="2.5" cy="2.5" r="2.5" transform="translate(20.197 28.926)"/>
      <circle id="Elipse_5650" data-name="Elipse 5650" cx="2.5" cy="2.5" r="2.5" transform="translate(35.197 28.926)"/>
      <path id="Trazado_656455" data-name="Trazado 656455" d="M27.288,37.982a7.833,7.833,0,0,1-6.058-3l1.954-1.62a5.086,5.086,0,0,0,8.205,0l1.954,1.62A7.829,7.829,0,0,1,27.288,37.982Z" transform="translate(3.191 5.196)"/>
      <path id="Trazado_656456" data-name="Trazado 656456" d="M76.926,36.018a6.352,6.352,0,0,0-6.35,6.35v1.27H65.5a3.821,3.821,0,0,0-3.81,3.81,3.766,3.766,0,0,0,.978,2.54,3.787,3.787,0,0,0,0,5.08,3.787,3.787,0,0,0,0,5.08,3.768,3.768,0,0,0-.965,2.235,26.414,26.414,0,0,0-2.083-4.762,24.018,24.018,0,0,1-3.01-11.633V27.129a24.129,24.129,0,1,0-48.258,0V45.987A24.018,24.018,0,0,1,5.34,57.62,26.588,26.588,0,0,0,2,70.5v6.159a1.274,1.274,0,0,0,1.27,1.27H61.687a1.274,1.274,0,0,0,1.27-1.27V70.5a27.332,27.332,0,0,0-.61-5.664A3.811,3.811,0,0,0,65.5,66.5h1.27v10.16a1.274,1.274,0,0,0,1.27,1.27h8.89a1.274,1.274,0,0,0,1.27-1.27V37.288a1.274,1.274,0,0,0-1.27-1.27ZM57.407,58.865a23.882,23.882,0,0,1,2.756,8.178,11.458,11.458,0,0,0-6.02-3.619l-12.776-3.01V55.4A19.053,19.053,0,0,0,51.489,39.714a6.425,6.425,0,0,0,2.578-1.156v7.429a26.588,26.588,0,0,0,3.34,12.877ZM37.114,19.687c2.845,6.9,9.283,9.118,11.874,9.74v9.131a16.509,16.509,0,1,1-33.018,0v-8.94c3.657-.254,14.3-1.676,21.144-9.931ZM15.969,27.053a16.5,16.5,0,0,1,33.006-.229A13.951,13.951,0,0,1,38.79,16.665a1.261,1.261,0,0,0-2.286-.394C30.6,25.11,19.678,26.761,15.969,27.053ZM51.528,37.06V29.9a3.795,3.795,0,0,1,0,7.162ZM10.89,27.129a21.589,21.589,0,0,1,43.178,0V28.4a6.246,6.246,0,0,0-2.54-1.143v-.127a19.049,19.049,0,1,0-38.1,0v.127A6.246,6.246,0,0,0,10.89,28.4Zm2.54,2.768V37.06a3.795,3.795,0,0,1,0-7.162ZM7.55,58.865a26.588,26.588,0,0,0,3.34-12.877V38.558a6.425,6.425,0,0,0,2.578,1.156A19.053,19.053,0,0,0,23.589,55.4v5.016l-12.776,3.01a11.458,11.458,0,0,0-6.02,3.619A23.882,23.882,0,0,1,7.55,58.865ZM4.54,75.386v-.838A8.861,8.861,0,0,1,11.4,65.887l2.781-.648,2.883,2.87L16.033,71.17a1.272,1.272,0,0,0,.686,1.562l5.969,2.654Zm14.274-4.5.9-2.718a1.305,1.305,0,0,0-.3-1.308l-2.324-2.324,6.845-1.6L26.8,74.434Zm16.484,4.5H29.659L28.1,69.151a8.841,8.841,0,0,0,8.763-.013Zm-2.819-7.62a6.261,6.261,0,0,1-4.5-1.88,5.927,5.927,0,0,1-1.029-1.333l-.013-.013-.813-3.276v-4.75a19,19,0,0,0,12.7,0v4.75l-.813,3.251a6.313,6.313,0,0,1-5.537,3.251Zm8.547-4.826,6.845,1.6-2.324,2.324a1.305,1.305,0,0,0-.3,1.308l.9,2.718-7.988,3.543ZM60.417,75.386H42.27l5.969-2.654a1.272,1.272,0,0,0,.686-1.562L47.9,68.11l2.883-2.87,2.781.648a8.861,8.861,0,0,1,6.858,8.661Zm15.239,0h-6.35V65.227a1.274,1.274,0,0,0-1.27-1.27H65.5a1.27,1.27,0,0,1,0-2.54,1.27,1.27,0,0,0,0-2.54,1.27,1.27,0,0,1,0-2.54,1.27,1.27,0,0,0,0-2.54,1.27,1.27,0,0,1,0-2.54,1.27,1.27,0,0,0,0-2.54,1.27,1.27,0,0,1,0-2.54h6.35a1.274,1.274,0,0,0,1.27-1.27v-2.54a3.827,3.827,0,0,1,2.54-3.594Z" transform="translate(-2 -3)"/>
    </g>
  </g>
</svg>
