<svg xmlns="http://www.w3.org/2000/svg" width="264.896" height="274.979" viewBox="0 0 264.896 274.979">
  <g id="Grupo_956938" data-name="Grupo 956938" transform="translate(-26.815 -144.436)">
    <g id="Grupo_956927" data-name="Grupo 956927" transform="translate(26.815 152.892)">
      <path id="Trazado_656551" data-name="Trazado 656551" d="M56.564,213.676l-.533,7.929c2.253,1.906,4.435,3.526,6.091,3.422,3.418,6.221,9.055,10.418,14.138,11.344,5.4.157,7.366-1.966,7.1-5.036-1.248-7.434-11.061-10.7-12.75-15.855Z" transform="translate(4.313 -79.119)" fill="#3a144a"/>
      <path id="Trazado_656552" data-name="Trazado 656552" d="M77.506,264.29c-2.952,1.462-6.591,2.813-9.836,2.64a7.332,7.332,0,0,1-5.874-3.053s-.3-10.931-1.223-14.368c-2.768-10.36-2.611-19.194-1.913-28.572L50.69,193.967l.938-3.511c.01-.01,6.1-22.706,6.1-22.706l13.494,2.472c4.23,15.553,7.2,30.86,3.484,46.424l-.386,9.367C74.757,240.711,75.4,257.9,77.506,264.29Z" transform="translate(-1.378 -128.052)" fill="#2d759c"/>
      <path id="Trazado_656553" data-name="Trazado 656553" d="M67.67,257.949A7.332,7.332,0,0,1,61.8,254.9s-.3-10.931-1.223-14.367c-2.768-10.36-2.611-19.194-1.913-28.572L50.69,184.986l.938-3.511c.01-.01,10.094-5.3,10.094-5.3-2.16,11.106-1.985,21.906,2.363,32.184C61.1,223.567,63.267,240.409,67.67,257.949Z" transform="translate(-1.378 -119.071)" fill="#662483" opacity="0.3" style="mix-blend-mode: multiply;isolation: isolate"/>
      <path id="Trazado_656554" data-name="Trazado 656554" d="M38.93,223.3l-.82,9.784a11.38,11.38,0,0,0,4.689,4.746c3.208,6.213,7.648,9.417,13.174,9.968,4.9.436,7.952-1.245,8.307-4.271-.475-6.7-10.914-10.747-11.982-16.2Z" transform="translate(-14.781 -68.864)" fill="#3a144a"/>
      <path id="Trazado_656555" data-name="Trazado 656555" d="M83.928,173.441l-1.921,4.753L80.6,181.668c-2.16,6.085-5.994,9.4-11.335,10.268-1.324,15.214-2.757,30.272-8.126,40.145-.562,5.2-3.218,8.384-4.587,13.366C54.117,259.594,52.287,274.4,52.718,288a11.416,11.416,0,0,1-10.747,1.186l-.8-.4a4.754,4.754,0,0,1-2.555-3.549c.459-22.677-4.744-34.776,5.672-54.539-.919-17.468.3-24.178,2.2-40.909-2.2-10.02-.624-17.079,3.724-21.989a20.217,20.217,0,0,1,1.433-1.452l5.37,1.177Z" transform="translate(-15.2 -129.541)" fill="#2d759c"/>
      <path id="Trazado_656556" data-name="Trazado 656556" d="M93.211,181.739c-3.466,5.286-8.5,9.569-14.708,13.1a24.772,24.772,0,0,1-2.731,2.344c-9.985,7.529-22.32,5.661-28.415-.487a12.31,12.31,0,0,1-3.788-8.751c.138-.386.277-.772.4-1.15,1.1-3.061,2.086-6.021,3.042-8.842,3.274-9.735,6.039-17.807,10.645-22.642,4.294-3.218,13.265-5.314,18.081-3.218,8.394-4.715,15.987-4.78,22.753,0C102.247,165.118,96.842,173.289,93.211,181.739Z" transform="translate(-8.965 -148.53)" fill="#662483"/>
      <path id="Trazado_656557" data-name="Trazado 656557" d="M67.427,160.566c-3.991,4.257-7.8,8.549-10.414,13.128A24.723,24.723,0,0,0,53.6,183.871c-3.732,3.272-4.468,7.529-1.985,12.851-2.169,16.464-5.746,35.5-.781,41.136-11.133,7.878-8.6,33.388-8.863,57.493l-.8-.4a4.754,4.754,0,0,1-2.555-3.549c.459-22.677-4.744-34.776,5.672-54.539-.919-17.468.3-24.178,2.2-40.909-2.2-10.02-.624-17.079,3.724-21.989,1.1-3.061,2.086-6.021,3.042-8.842Z" transform="translate(-15.2 -135.706)" fill="#662483" opacity="0.3" style="mix-blend-mode: multiply;isolation: isolate"/>
      <path id="Trazado_656558" data-name="Trazado 656558" d="M32.406,180.634l-3.1,5.63L27.12,191.55l-.287,4.54c-.155,1.035.756,1.766.919.516l-.628,4.811c-.291,1.376.973,1.989,1.431.762l1.609-5.975-.058,9.193c.019,1.38,1.361,2.14,1.743.461l1.417-9.365.461,5.686,1.091,4.195c.556,1.514,2.165,1.59,2.125,0l-.688-5.457s.382-3.831.688-5.575a34.538,34.538,0,0,1,2.127-2.929l4.538,5.918c1.38,1.283,2.681.171,1.725-1.551l-3.563-8.159-2.757-4.137-.231-.345.4-3.16-5.918-2.241Z" transform="translate(-26.815 -116.344)" fill="#3a144a"/>
      <path id="Trazado_656559" data-name="Trazado 656559" d="M72.788,151.812c-9.745,3.953-19.86,11.583-30.183,21.3-5.765,9.249-9.642,22.528-13.229,36.759,1.411,1.791,3.716,2.03,6.793,2,4.29-9.807,11.275-18.548,14.785-28.652,6.622-.832,16.078-7.793,25.358-13.329C83.18,159.312,84.016,153.425,72.788,151.812Z" transform="translate(-24.087 -145.033)" fill="#662483"/>
    </g>
    <g id="Grupo_956936" data-name="Grupo 956936" transform="translate(28.426 166.188)">
      <g id="Grupo_956932" data-name="Grupo 956932">
        <g id="Grupo_956930" data-name="Grupo 956930" transform="translate(33.932 115.366)">
          <path id="Trazado_656560" data-name="Trazado 656560" d="M273.376,235.674,44.023,265.389v5.445L273.376,241.12Z" transform="translate(-44.023 -184.341)" fill="#3c3c3b"/>
          <g id="Grupo_956929" data-name="Grupo 956929">
            <path id="Trazado_656561" data-name="Trazado 656561" d="M272.7,265.765,134.625,345.486a3.609,3.609,0,0,1-3.266,0L44.7,295.452a1,1,0,0,1,0-1.886l138.075-79.719a3.6,3.6,0,0,1,3.266,0L272.7,263.879A1,1,0,0,1,272.7,265.765Z" transform="translate(-44.023 -208.015)" fill="#3c3c3b"/>
            <path id="Trazado_656562" data-name="Trazado 656562" d="M272.7,263.133,134.625,342.852a3.609,3.609,0,0,1-3.266,0L44.7,292.818a1,1,0,0,1,0-1.886l138.075-79.719a3.6,3.6,0,0,1,3.266,0L272.7,261.247A1,1,0,0,1,272.7,263.133Z" transform="translate(-44.023 -210.821)" fill="#878787"/>
            <path id="Trazado_656563" data-name="Trazado 656563" d="M157.773,225.05l-2.459,1.419-7.169,4.14-2.459,1.419-7.168,4.139-2.458,1.42-7.169,4.139-2.458,1.42-7.169,4.139L116.8,248.7l-7.169,4.139-2.458,1.419-7.169,4.139-2.459,1.42-7.168,4.139-2.459,1.42-7.169,4.14-2.459,1.419-7.169,4.139L68.667,276.5l-7.169,4.14-2.459,1.42-9.627,5.558,9.319,5.381,2.46,1.42,6.861,3.962,2.459,1.419,6.862,3.962,2.458,1.419,6.863,3.962,2.457,1.419,6.863,3.962,2.458,1.419,9.32,5.381,9.628-5.558,2.457-1.419,16.8-9.7,2.458-1.419,55.308-31.934,2.458-1.419,7.169-4.14,2.459-1.419,7.169-4.14,2.458-1.419,7.169-4.141,2.459-1.419,9.628-5.558-9.321-5.382-2.458-1.419-6.863-3.962-2.458-1.42-16.182-9.343-2.458-1.419-6.862-3.962-2.459-1.419-9.32-5.382Z" transform="translate(-38.282 -207.506)" fill="#3c3c3b"/>
            <g id="Grupo_956928" data-name="Grupo 956928" transform="translate(14.816 8.555)">
              <path id="Trazado_656564" data-name="Trazado 656564" d="M59.6,247.258l-8.4,4.849,8.092,4.672,8.4-4.848Z" transform="translate(-51.197 -180.554)" fill="#706f6f"/>
              <path id="Trazado_656565" data-name="Trazado 656565" d="M64.257,244.566l-8.4,4.849,8.092,4.672,8.4-4.849Z" transform="translate(-46.23 -183.422)" fill="#dadada"/>
              <path id="Trazado_656566" data-name="Trazado 656566" d="M68.61,251.4l8.4-4.849-8.091-4.672-8.4,4.848Z" transform="translate(-41.264 -186.289)" fill="#dadada"/>
              <path id="Trazado_656567" data-name="Trazado 656567" d="M73.58,239.184l-8.4,4.849,8.092,4.672,8.4-4.849Z" transform="translate(-36.297 -189.156)" fill="#dadada"/>
              <path id="Trazado_656568" data-name="Trazado 656568" d="M78.241,236.493l-8.4,4.849,8.092,4.672,8.4-4.849Z" transform="translate(-31.331 -192.024)" fill="#dadada"/>
              <path id="Trazado_656569" data-name="Trazado 656569" d="M82.9,233.8l-8.4,4.849,8.092,4.672,8.4-4.849Z" transform="translate(-26.364 -194.891)" fill="#dadada"/>
              <path id="Trazado_656570" data-name="Trazado 656570" d="M87.563,231.111l-8.4,4.849,8.092,4.672,8.4-4.849Z" transform="translate(-21.398 -197.758)" fill="#dadada"/>
              <path id="Trazado_656571" data-name="Trazado 656571" d="M92.224,228.419l-8.4,4.849,8.092,4.671,8.4-4.849Z" transform="translate(-16.432 -200.626)" fill="#dadada"/>
              <path id="Trazado_656572" data-name="Trazado 656572" d="M96.578,235.249l8.4-4.849-8.091-4.672-8.4,4.85Z" transform="translate(-11.466 -203.494)" fill="#dadada"/>
              <path id="Trazado_656573" data-name="Trazado 656573" d="M101.239,232.557l8.4-4.849-8.09-4.672-8.4,4.848Z" transform="translate(-6.499 -206.361)" fill="#dadada"/>
              <path id="Trazado_656574" data-name="Trazado 656574" d="M105.9,229.867l8.4-4.85-8.091-4.672-8.4,4.849Z" transform="translate(-1.533 -209.228)" fill="#dadada"/>
              <path id="Trazado_656575" data-name="Trazado 656575" d="M102.47,225.371l8.092,4.672,18.026-10.407-8.091-4.672Z" transform="translate(3.434 -214.963)" fill="#706f6f"/>
              <path id="Trazado_656576" data-name="Trazado 656576" d="M64.108,249.863l-8.4,4.849,8.092,4.672,8.4-4.849Z" transform="translate(-46.389 -177.778)" fill="#dadada"/>
              <path id="Trazado_656577" data-name="Trazado 656577" d="M68.769,247.171l-8.4,4.85,8.092,4.672,8.4-4.85Z" transform="translate(-41.423 -180.646)" fill="#dadada"/>
              <path id="Trazado_656578" data-name="Trazado 656578" d="M73.123,254l8.4-4.85-8.091-4.671-8.4,4.849Z" transform="translate(-36.456 -183.513)" fill="#dadada"/>
              <path id="Trazado_656579" data-name="Trazado 656579" d="M78.091,241.789l-8.4,4.85,8.092,4.671,8.4-4.85Z" transform="translate(-31.49 -186.381)" fill="#dadada"/>
              <path id="Trazado_656580" data-name="Trazado 656580" d="M82.753,239.1l-8.4,4.849,8.092,4.672,8.4-4.85Z" transform="translate(-26.523 -189.248)" fill="#dadada"/>
              <path id="Trazado_656581" data-name="Trazado 656581" d="M87.414,236.407l-8.4,4.85,8.092,4.671,8.4-4.849Z" transform="translate(-21.557 -192.116)" fill="#dadada"/>
              <path id="Trazado_656582" data-name="Trazado 656582" d="M92.075,233.715l-8.4,4.85,8.092,4.672,8.4-4.85Z" transform="translate(-16.59 -194.983)" fill="#dadada"/>
              <path id="Trazado_656583" data-name="Trazado 656583" d="M96.736,231.024l-8.4,4.849,8.091,4.672,8.4-4.85Z" transform="translate(-11.624 -197.85)" fill="#dadada"/>
              <path id="Trazado_656584" data-name="Trazado 656584" d="M101.09,237.855l8.4-4.85-8.091-4.672-8.4,4.85Z" transform="translate(-6.658 -200.718)" fill="#dadada"/>
              <path id="Trazado_656585" data-name="Trazado 656585" d="M105.751,235.163l8.4-4.849-8.091-4.672-8.4,4.849Z" transform="translate(-1.691 -203.585)" fill="#dadada"/>
              <path id="Trazado_656586" data-name="Trazado 656586" d="M110.413,232.472l8.4-4.85-8.091-4.672-8.4,4.85Z" transform="translate(3.275 -206.453)" fill="#dadada"/>
              <path id="Trazado_656587" data-name="Trazado 656587" d="M115.381,220.26l-8.4,4.849,8.091,4.672,8.4-4.85Z" transform="translate(8.242 -209.32)" fill="#dadada"/>
              <path id="Trazado_656588" data-name="Trazado 656588" d="M119.735,227.089l8.4-4.849-8.091-4.672-8.4,4.85Z" transform="translate(13.208 -212.188)" fill="#dadada"/>
              <path id="Trazado_656589" data-name="Trazado 656589" d="M68.62,252.468l-8.4,4.849,8.091,4.672,8.4-4.849Z" transform="translate(-41.581 -175.002)" fill="#dadada"/>
              <path id="Trazado_656590" data-name="Trazado 656590" d="M73.282,249.777l-8.4,4.849,8.092,4.671,8.4-4.849Z" transform="translate(-36.614 -177.87)" fill="#dadada"/>
              <path id="Trazado_656591" data-name="Trazado 656591" d="M77.635,256.607l8.4-4.85-8.091-4.672-8.4,4.849Z" transform="translate(-31.648 -180.737)" fill="#dadada"/>
              <path id="Trazado_656592" data-name="Trazado 656592" d="M82.6,244.394l-8.4,4.849,8.091,4.672,8.4-4.849Z" transform="translate(-26.682 -183.605)" fill="#dadada"/>
              <path id="Trazado_656593" data-name="Trazado 656593" d="M87.265,241.7l-8.4,4.849,8.091,4.672,8.4-4.849Z" transform="translate(-21.715 -186.472)" fill="#dadada"/>
              <path id="Trazado_656594" data-name="Trazado 656594" d="M91.927,239.012l-8.4,4.848,8.092,4.672,8.4-4.849Z" transform="translate(-16.749 -189.34)" fill="#dadada"/>
              <path id="Trazado_656595" data-name="Trazado 656595" d="M96.587,236.321l-8.4,4.849,8.091,4.672,8.4-4.849Z" transform="translate(-11.782 -192.207)" fill="#dadada"/>
              <path id="Trazado_656596" data-name="Trazado 656596" d="M101.249,233.63l-8.4,4.848,8.092,4.672,8.4-4.849Z" transform="translate(-6.816 -195.074)" fill="#dadada"/>
              <path id="Trazado_656597" data-name="Trazado 656597" d="M105.6,240.459l8.4-4.849-8.091-4.672-8.4,4.849Z" transform="translate(-1.85 -197.942)" fill="#dadada"/>
              <path id="Trazado_656598" data-name="Trazado 656598" d="M110.264,237.768l8.4-4.85-8.09-4.671-8.4,4.849Z" transform="translate(3.117 -200.809)" fill="#dadada"/>
              <path id="Trazado_656599" data-name="Trazado 656599" d="M114.924,235.076l8.4-4.848-8.091-4.672-8.4,4.85Z" transform="translate(8.083 -203.677)" fill="#dadada"/>
              <path id="Trazado_656600" data-name="Trazado 656600" d="M119.894,222.865l-8.4,4.85,8.092,4.672,8.4-4.849Z" transform="translate(13.049 -206.544)" fill="#dadada"/>
              <path id="Trazado_656601" data-name="Trazado 656601" d="M125.634,230.4l-9.627,5.558,8.09,4.672,18.025-10.408s-.9-.523-17.41-10.053l-8.4,4.848Z" transform="translate(17.857 -209.411)" fill="#706f6f"/>
              <path id="Trazado_656602" data-name="Trazado 656602" d="M82.76,252.382,64.734,262.79l8.092,4.672,18.026-10.408Z" transform="translate(-36.773 -175.094)" fill="#706f6f"/>
              <path id="Trazado_656603" data-name="Trazado 656603" d="M82.148,259.212l8.4-4.849-8.091-4.672-8.4,4.849Z" transform="translate(-26.84 -177.961)" fill="#dadada"/>
              <path id="Trazado_656604" data-name="Trazado 656604" d="M87.116,247l-8.4,4.848,8.091,4.672,8.4-4.849Z" transform="translate(-21.874 -180.829)" fill="#dadada"/>
              <path id="Trazado_656605" data-name="Trazado 656605" d="M91.777,244.309l-8.4,4.849,8.091,4.671,8.4-4.849Z" transform="translate(-16.907 -183.696)" fill="#dadada"/>
              <path id="Trazado_656606" data-name="Trazado 656606" d="M96.438,241.618l-8.4,4.849,8.09,4.672,8.4-4.849Z" transform="translate(-11.941 -186.563)" fill="#dadada"/>
              <path id="Trazado_656607" data-name="Trazado 656607" d="M101.1,238.926l-8.4,4.849,8.091,4.672,8.4-4.849Z" transform="translate(-6.974 -189.431)" fill="#dadada"/>
              <path id="Trazado_656608" data-name="Trazado 656608" d="M105.761,236.235l-8.4,4.849,8.09,4.672,8.4-4.85Z" transform="translate(-2.008 -192.299)" fill="#dadada"/>
              <path id="Trazado_656609" data-name="Trazado 656609" d="M110.115,243.064l8.4-4.848-8.091-4.672-8.4,4.849Z" transform="translate(2.958 -195.166)" fill="#dadada"/>
              <path id="Trazado_656610" data-name="Trazado 656610" d="M114.775,240.374l8.4-4.849-8.091-4.672-8.4,4.849Z" transform="translate(7.925 -198.033)" fill="#dadada"/>
              <path id="Trazado_656611" data-name="Trazado 656611" d="M119.437,237.682l8.4-4.849-8.091-4.672-8.4,4.849Z" transform="translate(12.891 -200.901)" fill="#dadada"/>
              <path id="Trazado_656612" data-name="Trazado 656612" d="M90.243,262.616l5.12-2.957-8.09-4.672L69.247,265.4l8.09,4.672,9.628-5.558Z" transform="translate(-31.965 -172.318)" fill="#706f6f"/>
              <path id="Trazado_656613" data-name="Trazado 656613" d="M86.659,261.817l8.4-4.849L86.967,252.3l-8.4,4.849Z" transform="translate(-22.032 -175.185)" fill="#dadada"/>
              <path id="Trazado_656614" data-name="Trazado 656614" d="M91.628,249.605l-8.4,4.849,8.091,4.672,8.4-4.85Z" transform="translate(-17.066 -178.053)" fill="#dadada"/>
              <path id="Trazado_656615" data-name="Trazado 656615" d="M96.289,246.914l-8.4,4.849,8.09,4.672,8.4-4.849Z" transform="translate(-12.099 -180.92)" fill="#dadada"/>
              <path id="Trazado_656616" data-name="Trazado 656616" d="M100.951,244.223l-8.4,4.85,8.091,4.672,8.4-4.849Z" transform="translate(-7.133 -183.788)" fill="#dadada"/>
              <path id="Trazado_656617" data-name="Trazado 656617" d="M105.611,241.532l-8.4,4.848,8.09,4.672,8.4-4.848Z" transform="translate(-2.166 -186.655)" fill="#dadada"/>
              <path id="Trazado_656618" data-name="Trazado 656618" d="M110.273,238.84l-8.4,4.849,8.091,4.672,8.4-4.85Z" transform="translate(2.8 -189.523)" fill="#dadada"/>
              <path id="Trazado_656619" data-name="Trazado 656619" d="M114.626,245.67l8.4-4.849-8.092-4.672-8.4,4.849Z" transform="translate(7.766 -192.39)" fill="#dadada"/>
              <path id="Trazado_656620" data-name="Trazado 656620" d="M119.288,242.978l8.4-4.849-8.092-4.672-8.4,4.85Z" transform="translate(12.733 -195.257)" fill="#dadada"/>
              <path id="Trazado_656621" data-name="Trazado 656621" d="M123.949,240.287l8.4-4.849-8.092-4.671-8.4,4.849Z" transform="translate(17.699 -198.125)" fill="#dadada"/>
              <path id="Trazado_656622" data-name="Trazado 656622" d="M128.61,240.464l18.026-10.408-8.092-4.672-18.025,10.408Z" transform="translate(22.665 -203.86)" fill="#706f6f"/>
              <path id="Trazado_656623" data-name="Trazado 656623" d="M81.85,269.8l8.4-4.848-8.091-4.672-8.4,4.849Z" transform="translate(-27.157 -166.674)" fill="#dadada"/>
              <path id="Trazado_656624" data-name="Trazado 656624" d="M88.047,259.751l-9.627,5.559,8.091,4.672,9.628-5.559,3.072-1.774,5.326-3.075L96.446,254.9l-5.325,3.075Z" transform="translate(-22.19 -172.409)" fill="#dadada"/>
              <path id="Trazado_656625" data-name="Trazado 656625" d="M95.833,276.068l56.536-32.643-8.093-4.67L87.743,271.4Z" transform="translate(-12.257 -189.614)" fill="#706f6f"/>
              <path id="Trazado_656626" data-name="Trazado 656626" d="M123.8,245.584l8.4-4.849-8.092-4.672-8.4,4.849Z" transform="translate(17.54 -192.481)" fill="#dadada"/>
              <path id="Trazado_656627" data-name="Trazado 656627" d="M128.462,242.893l8.4-4.849-8.092-4.672-8.4,4.849Z" transform="translate(22.507 -195.349)" fill="#dadada"/>
              <path id="Trazado_656628" data-name="Trazado 656628" d="M133.123,240.2l8.4-4.849-8.092-4.672-8.4,4.849Z" transform="translate(27.473 -198.216)" fill="#dadada"/>
              <path id="Trazado_656629" data-name="Trazado 656629" d="M137.784,237.511l8.4-4.849-8.092-4.672-8.4,4.849Z" transform="translate(32.439 -201.084)" fill="#dadada"/>
            </g>
            <path id="Trazado_656630" data-name="Trazado 656630" d="M143.585,250.919l-9.724-5.614a3.614,3.614,0,0,0-3.268,0l-26.845,15.5a1,1,0,0,0,0,1.886l9.724,5.614Z" transform="translate(18.893 -174.495)" fill="#706f6f"/>
            <path id="Trazado_656631" data-name="Trazado 656631" d="M108.5,260.815,112.289,263a3.61,3.61,0,0,0,3.266,0l12.963-7.485-5.418-3.127Z" transform="translate(24.681 -166.533)" fill="#dadada"/>
            <path id="Trazado_656632" data-name="Trazado 656632" d="M116.017,256.476l5.418,3.129L134.4,252.12a1,1,0,0,0,0-1.886l-3.784-2.183Z" transform="translate(32.684 -171.154)" fill="#dadada"/>
          </g>
        </g>
        <g id="Grupo_956931" data-name="Grupo 956931">
          <path id="Trazado_656633" data-name="Trazado 656633" d="M171.193,155.644,169.33,155a1.667,1.667,0,0,0-1.241.235L28.485,235.9c-.8.494-1.122,1.743-.711,3.323l28,107.4c.669,2.559,4.133,4.852,6.3,4.038l.857-.5L41.467,259.272l132.852-76.811-1.681-9.332,24,92.085c.574,2.206,2.353,4.214,3.97,4.478l.8-1.4Z" transform="translate(-27.595 -154.967)" fill="#3c3c3b"/>
          <path id="Trazado_656634" data-name="Trazado 656634" d="M170.511,156.722l29.008,111.271a2.181,2.181,0,0,1-1.018,2.437L60.18,350.363a.981.981,0,0,1-1.438-.6l-29.3-112.387a2.384,2.384,0,0,1,1.115-2.669l137.049-79.2A1.975,1.975,0,0,1,170.511,156.722Z" transform="translate(-25.707 -154.673)" fill="#3c3c3b"/>
          <path id="Trazado_656635" data-name="Trazado 656635" d="M190.148,262.917,59.486,338.477l-.363-1.376L32.372,234.468,161.9,159.576l1.136-.66Z" transform="translate(-22.505 -150.76)" fill="#fff"/>
          <path id="Trazado_656636" data-name="Trazado 656636" d="M188.65,261.859,59.124,336.76,32.372,234.128,161.9,159.235Z" transform="translate(-22.505 -150.42)" fill="#007a96"/>
        </g>
      </g>
      <g id="Grupo_956935" data-name="Grupo 956935" transform="translate(55.502 59.128)">
        <path id="Trazado_656637" data-name="Trazado 656637" d="M123.771,228.56,67.627,260.932a1.615,1.615,0,0,1-2.53-.965L54.542,219.5a3.091,3.091,0,0,1,1.431-3.249l56.144-32.372a1.615,1.615,0,0,1,2.53.965L125.2,225.311A3.09,3.09,0,0,1,123.771,228.56Z" transform="translate(-54.466 -183.594)" fill="#64d2d6" style="mix-blend-mode: multiply;isolation: isolate"/>
        <path id="Trazado_656638" data-name="Trazado 656638" d="M108.283,202.469,62.89,228.643a1.3,1.3,0,0,1-2.041-.779l-2.757-10.571a2.492,2.492,0,0,1,1.155-2.621L104.639,188.5a1.3,1.3,0,0,1,2.041.779l2.757,10.571A2.5,2.5,0,0,1,108.283,202.469Z" transform="translate(-50.669 -178.617)" fill="#fff"/>
        <path id="Trazado_656639" data-name="Trazado 656639" d="M110.417,210.833l-45.4,26.174a1.3,1.3,0,0,1-2.041-.779l-2.757-10.569a2.5,2.5,0,0,1,1.155-2.621l45.393-26.174a1.3,1.3,0,0,1,2.043.779l2.755,10.571A2.49,2.49,0,0,1,110.417,210.833Z" transform="translate(-48.396 -169.703)" fill="#fff"/>
        <g id="Grupo_956933" data-name="Grupo 956933" transform="translate(20.838 20.899)">
          <path id="Trazado_656640" data-name="Trazado 656640" d="M66.72,206.825a.33.33,0,0,1-.211.048.171.171,0,0,1-.143-.147l-1.8-6.9a.274.274,0,0,1,.048-.244.661.661,0,0,1,.2-.182.5.5,0,0,1,.229-.068c.076,0,.126.043.151.132l1.706,6.545,2.716-1.566a.148.148,0,0,1,.182.006.345.345,0,0,1,.107.178.528.528,0,0,1,0,.248.266.266,0,0,1-.132.186Z" transform="translate(-64.555 -187.725)"/>
          <path id="Trazado_656641" data-name="Trazado 656641" d="M70.255,205.4a3.021,3.021,0,0,1-.812.335,1.369,1.369,0,0,1-.727-.014,1.224,1.224,0,0,1-.593-.426,2.439,2.439,0,0,1-.415-.921l-.82-3.142a3.177,3.177,0,0,1-.107-1.086,2.568,2.568,0,0,1,.775-1.648,3.763,3.763,0,0,1,.752-.568,3.08,3.08,0,0,1,.812-.333,1.342,1.342,0,0,1,.725.012,1.247,1.247,0,0,1,.595.428,2.43,2.43,0,0,1,.413.911l.818,3.14a3.161,3.161,0,0,1,.112,1.1A2.556,2.556,0,0,1,71,204.828,3.731,3.731,0,0,1,70.255,205.4Zm-.033-6.091a1.261,1.261,0,0,0-.661-.96,1.293,1.293,0,0,0-1.093.2,2.083,2.083,0,0,0-.9.948,2.044,2.044,0,0,0-.054,1.372l.82,3.142a1.051,1.051,0,0,0,1.758.77,1.9,1.9,0,0,0,.948-2.33Z" transform="translate(-62.195 -189.624)"/>
          <path id="Trazado_656642" data-name="Trazado 656642" d="M72.687,197.523a1.052,1.052,0,0,0-.632-.68,1.341,1.341,0,0,0-1.041.233,1.9,1.9,0,0,0-.952,2.32l.82,3.142a1.054,1.054,0,0,0,1.758.77,1.915,1.915,0,0,0,.948-2.33l-.314-1.206L72,200.508a.169.169,0,0,1-.19.006.276.276,0,0,1-.116-.167.411.411,0,0,1,.01-.233.312.312,0,0,1,.145-.182l1.677-.967a.194.194,0,0,1,.19-.025.239.239,0,0,1,.107.157l.4,1.518a3.207,3.207,0,0,1,.109,1.1,2.567,2.567,0,0,1-.775,1.648,3.686,3.686,0,0,1-.752.568,3.011,3.011,0,0,1-.812.333,1.35,1.35,0,0,1-.727-.012,1.225,1.225,0,0,1-.593-.428,2.429,2.429,0,0,1-.415-.919l-.82-3.142a3.177,3.177,0,0,1-.107-1.086,2.649,2.649,0,0,1,.244-.911,2.722,2.722,0,0,1,.527-.735,3.7,3.7,0,0,1,.746-.564,2.844,2.844,0,0,1,.859-.343,1.615,1.615,0,0,1,.725,0,1.076,1.076,0,0,1,.545.326,1.451,1.451,0,0,1,.32.62.433.433,0,0,1-.014.324.569.569,0,0,1-.211.2.459.459,0,0,1-.229.068C72.768,197.661,72.718,197.614,72.687,197.523Z" transform="translate(-59.482 -191.188)"/>
          <path id="Trazado_656643" data-name="Trazado 656643" d="M71.669,195.728a.274.274,0,0,1,.045-.242.642.642,0,0,1,.2-.182.466.466,0,0,1,.229-.068q.115,0,.149.13l1.8,6.9a.3.3,0,0,1-.05.256.613.613,0,0,1-.2.19.408.408,0,0,1-.238.06.168.168,0,0,1-.147-.143Z" transform="translate(-56.986 -192.088)"/>
          <path id="Trazado_656644" data-name="Trazado 656644" d="M78.24,201.189a.3.3,0,0,1-.269.021.818.818,0,0,1-.252-.165l-4.079-3.955,1.462,5.6a.311.311,0,0,1-.048.256.6.6,0,0,1-.2.19.386.386,0,0,1-.235.06.164.164,0,0,1-.147-.143l-1.8-6.89a.289.289,0,0,1,.043-.254.668.668,0,0,1,.2-.182.326.326,0,0,1,.322-.027,1.094,1.094,0,0,1,.3.209l3.98,3.908L76.055,194.2a.276.276,0,0,1,.048-.242.643.643,0,0,1,.2-.182.488.488,0,0,1,.229-.068q.115,0,.149.13l1.8,6.9a.3.3,0,0,1-.05.256A.634.634,0,0,1,78.24,201.189Z" transform="translate(-55.915 -193.712)"/>
        </g>
        <g id="Grupo_956934" data-name="Grupo 956934" transform="translate(16.066 32.512)">
          <path id="Trazado_656645" data-name="Trazado 656645" d="M62.256,211.43c-.039-.149.029-.281.2-.4l1.754-1.01a2.988,2.988,0,0,1,.8-.328,1.347,1.347,0,0,1,.721.01,1.214,1.214,0,0,1,.587.423,2.4,2.4,0,0,1,.413.911l.027.1a3.182,3.182,0,0,1,.109,1.086,2.65,2.65,0,0,1-.246.911,2.618,2.618,0,0,1-.531.737,3.686,3.686,0,0,1-.752.568l-1.371.791.715,2.735a.3.3,0,0,1-.05.256.593.593,0,0,1-.2.19.4.4,0,0,1-.235.06.168.168,0,0,1-.149-.143Zm.727.012.837,3.214,1.371-.791a1.92,1.92,0,0,0,.95-2.332l-.033-.12q-.2-.793-.661-.96a1.291,1.291,0,0,0-1.093.2Z" transform="translate(-62.245 -188.342)"/>
          <path id="Trazado_656646" data-name="Trazado 656646" d="M65.549,217.221a.462.462,0,0,1-.264.064.173.173,0,0,1-.174-.138c-.008-.076.188-8.1.188-8.1a.444.444,0,0,1,.1-.26.735.735,0,0,1,.213-.188.512.512,0,0,1,.256-.076.223.223,0,0,1,.188.091l3.776,5.738a.347.347,0,0,1-.045.335.681.681,0,0,1-.233.233c-.122.07-.215.058-.283-.033l-.847-1.31-2.638,1.522-.031,1.813a.289.289,0,0,1-.056.184A.516.516,0,0,1,65.549,217.221Zm2.559-4.133-2.218-3.42-.1,4.755Z" transform="translate(-59.191 -189.55)"/>
          <path id="Trazado_656647" data-name="Trazado 656647" d="M70.185,214.426a2.326,2.326,0,0,0,.952-.95,1.755,1.755,0,0,0,.1-1.268,1.15,1.15,0,0,0-.463-.742,1.355,1.355,0,0,0-.721-.178,4.363,4.363,0,0,0-.851.1,3.771,3.771,0,0,1-.855.085,1.339,1.339,0,0,1-.733-.229,1.4,1.4,0,0,1-.487-.839,2.206,2.206,0,0,1-.048-1.022,2.571,2.571,0,0,1,.339-.843,2.973,2.973,0,0,1,.578-.665,4.488,4.488,0,0,1,.669-.479,4.744,4.744,0,0,1,.564-.273,3.358,3.358,0,0,1,.554-.173,1.126,1.126,0,0,1,.432-.021.231.231,0,0,1,.213.163.622.622,0,0,1-.01.279.354.354,0,0,1-.167.254.322.322,0,0,1-.184.035,2.608,2.608,0,0,0-.287.014,2.346,2.346,0,0,0-.411.085,2.524,2.524,0,0,0-.554.25,3.257,3.257,0,0,0-.5.353,2.058,2.058,0,0,0-.392.446,1.561,1.561,0,0,0-.215.545,1.457,1.457,0,0,0,.033.628.8.8,0,0,0,.421.591,1.509,1.509,0,0,0,.7.091,6.327,6.327,0,0,0,.845-.124,2.8,2.8,0,0,1,.863-.05,1.433,1.433,0,0,1,.758.32,1.82,1.82,0,0,1,.525.975,2.98,2.98,0,0,1,.1,1.018,2.622,2.622,0,0,1-.244.892,2.745,2.745,0,0,1-.539.748,3.846,3.846,0,0,1-.779.591,3.052,3.052,0,0,1-.851.349,2.435,2.435,0,0,1-.69.066,1.062,1.062,0,0,1-.479-.132.439.439,0,0,1-.219-.252.564.564,0,0,1,.025-.3.416.416,0,0,1,.163-.24.222.222,0,0,1,.225.023,1.408,1.408,0,0,0,.343.136,1.539,1.539,0,0,0,.523.029A1.97,1.97,0,0,0,70.185,214.426Z" transform="translate(-57.133 -191.256)"/>
          <path id="Trazado_656648" data-name="Trazado 656648" d="M72.462,213.112a2.3,2.3,0,0,0,.952-.95,1.748,1.748,0,0,0,.1-1.266,1.148,1.148,0,0,0-.461-.744,1.382,1.382,0,0,0-.723-.178,4.507,4.507,0,0,0-.849.1,3.671,3.671,0,0,1-.855.085,1.334,1.334,0,0,1-.733-.229,1.382,1.382,0,0,1-.487-.839,2.178,2.178,0,0,1-.048-1.022,2.473,2.473,0,0,1,.339-.841,2.982,2.982,0,0,1,.576-.667,4.611,4.611,0,0,1,.671-.479,4.751,4.751,0,0,1,.564-.273,3.4,3.4,0,0,1,.551-.173,1.179,1.179,0,0,1,.434-.021.236.236,0,0,1,.213.163.653.653,0,0,1-.01.279.353.353,0,0,1-.169.254.331.331,0,0,1-.182.037,2.124,2.124,0,0,0-.287.012,2.765,2.765,0,0,0-.411.085,2.689,2.689,0,0,0-.554.25,3.407,3.407,0,0,0-.5.353,1.977,1.977,0,0,0-.395.448,1.494,1.494,0,0,0-.213.543,1.424,1.424,0,0,0,.031.628.8.8,0,0,0,.423.591,1.509,1.509,0,0,0,.7.093,6.453,6.453,0,0,0,.845-.126,2.8,2.8,0,0,1,.863-.05,1.436,1.436,0,0,1,.758.322,1.811,1.811,0,0,1,.523.975,2.922,2.922,0,0,1,.1,1.018,2.565,2.565,0,0,1-.244.89,2.669,2.669,0,0,1-.539.75,3.855,3.855,0,0,1-.779.589,3.1,3.1,0,0,1-.851.351,2.42,2.42,0,0,1-.69.064,1.053,1.053,0,0,1-.477-.132.444.444,0,0,1-.221-.252.548.548,0,0,1,.027-.3.394.394,0,0,1,.163-.238.213.213,0,0,1,.223.021,1.388,1.388,0,0,0,.865.165A1.882,1.882,0,0,0,72.462,213.112Z" transform="translate(-54.705 -192.656)"/>
          <path id="Trazado_656649" data-name="Trazado 656649" d="M78.312,211.437a.476.476,0,0,1-.1.266.727.727,0,0,1-.221.2.579.579,0,0,1-.248.079.188.188,0,0,1-.188-.11l-1.838-3.055.029,4.1a.406.406,0,0,1-.087.258.708.708,0,0,1-.221.2.6.6,0,0,1-.254.081A.207.207,0,0,1,75,213.35l-3.668-5.79a.344.344,0,0,1,.031-.339.679.679,0,0,1,.229-.219.306.306,0,0,1,.167-.045.148.148,0,0,1,.124.074l3.272,5.273-.033-4.329a.369.369,0,0,1,.076-.254.65.65,0,0,1,.2-.171.411.411,0,0,1,.213-.064.206.206,0,0,1,.171.109l1.939,3.232.025-7.173a.3.3,0,0,1,.058-.18.453.453,0,0,1,.145-.136.46.46,0,0,1,.269-.066.165.165,0,0,1,.165.132C78.389,203.489,78.312,211.437,78.312,211.437Z" transform="translate(-52.597 -195.139)"/>
          <path id="Trazado_656650" data-name="Trazado 656650" d="M78.807,210.075a3.021,3.021,0,0,1-.812.335,1.369,1.369,0,0,1-.727-.014,1.233,1.233,0,0,1-.593-.426,2.439,2.439,0,0,1-.415-.921l-.82-3.142a3.177,3.177,0,0,1-.107-1.086,2.568,2.568,0,0,1,.775-1.648,3.736,3.736,0,0,1,.752-.566,3.02,3.02,0,0,1,.812-.335,1.349,1.349,0,0,1,.727.012,1.252,1.252,0,0,1,.593.428,2.43,2.43,0,0,1,.413.911l.82,3.142a3.2,3.2,0,0,1,.109,1.095,2.6,2.6,0,0,1-.244.911,2.66,2.66,0,0,1-.531.737A3.687,3.687,0,0,1,78.807,210.075Zm-.033-6.091q-.2-.79-.661-.958a1.284,1.284,0,0,0-1.093.2,2.084,2.084,0,0,0-.9.948,2.062,2.062,0,0,0-.054,1.374l.82,3.142c.14.533.361.857.665.969a1.292,1.292,0,0,0,1.093-.2,1.905,1.905,0,0,0,.948-2.332Z" transform="translate(-48.311 -196.251)"/>
          <path id="Trazado_656651" data-name="Trazado 656651" d="M77.726,202.513a.336.336,0,0,1,.176-.38l1.685-.973a3.8,3.8,0,0,1,.816-.359,1.5,1.5,0,0,1,.739-.047,1.145,1.145,0,0,1,.609.361,1.992,1.992,0,0,1,.415.855,2.768,2.768,0,0,1,.1.882,2.469,2.469,0,0,1-.163.76,2.3,2.3,0,0,1-.374.64,3.728,3.728,0,0,1-.537.531l2.249,2.154a.16.16,0,0,1,.072.109.431.431,0,0,1-.052.3.585.585,0,0,1-.219.25.206.206,0,0,1-.227,0,1.076,1.076,0,0,1-.2-.159l-2.26-2.194-1.21.7.812,3.111a.3.3,0,0,1-.048.256.618.618,0,0,1-.2.19.386.386,0,0,1-.235.06.168.168,0,0,1-.147-.143Zm.727.012.739,2.838,1.3-.748a2.424,2.424,0,0,0,.946-.923,1.745,1.745,0,0,0,.109-1.328c-.132-.506-.359-.793-.677-.857a1.635,1.635,0,0,0-1.119.273Z" transform="translate(-45.762 -197.85)"/>
          <path id="Trazado_656652" data-name="Trazado 656652" d="M82.072,199.712a3.074,3.074,0,0,1,.812-.335,1.417,1.417,0,0,1,.733.01,1.22,1.22,0,0,1,.6.423,2.457,2.457,0,0,1,.413.913l.8,3.08a3.207,3.207,0,0,1,.112,1.1,2.587,2.587,0,0,1-.25.913,2.706,2.706,0,0,1-.535.739,3.8,3.8,0,0,1-.752.568l-1.687.973a.274.274,0,0,1-.229.043.176.176,0,0,1-.122-.132l-1.8-6.913a.312.312,0,0,1,.031-.215.465.465,0,0,1,.192-.192ZM80.891,201.1l1.611,6.172,1.343-.773a2.09,2.09,0,0,0,.9-.958,2.054,2.054,0,0,0,.058-1.38l-.8-3.08c-.138-.527-.359-.847-.667-.956a1.312,1.312,0,0,0-1.1.2Z" transform="translate(-43.16 -199.334)"/>
        </g>
      </g>
    </g>
    <path id="Trazado_656653" data-name="Trazado 656653" d="M104.952,225.553c-.014-.153-3.774-10.313-4.441-12.11-6.872-22.619-10.2-29.119-15.65-37.86-1.59-4.753-1.289-4.534-3.2-8.842l-12.029,6.95a92.19,92.19,0,0,0,5.661,8.258c3.883,9.439,12.428,19.343,18.308,29.943a12.573,12.573,0,0,0,.787,1.452c.242.461.483.921.715,1.386-.8,2.152-1.578,4.243-2.322,6.244a30.107,30.107,0,0,1-3.125,8.6c-.37,1.987.675,2.092,2.574,1.062l3.627-5.806a11.287,11.287,0,0,1,2.976,4.577l-.386,8.989c.43,1.745,1.136,1.586,1.956.613l.985-8.15.857,8.766c.7.75,1.208.5,1.543-.671l.328-2.512c.525.921.973.758,1.363-.167C105.482,236.273,104.968,225.721,104.952,225.553Z" transform="translate(45.622 23.766)" fill="#662483" opacity="0.2" style="mix-blend-mode: multiply;isolation: isolate"/>
    <g id="Grupo_956937" data-name="Grupo 956937" transform="translate(91.392 144.436)">
      <path id="Trazado_656654" data-name="Trazado 656654" d="M86.567,191.723c-1.031,2.26-2.03,4.451-2.989,6.55a34.752,34.752,0,0,1-3.964,8.849c-.564,2.045.471,2.152,2.47,1.091l4.195-5.975a10.316,10.316,0,0,1,2.528,4.711L87.544,216.2c.258,1.795.979,1.632,1.9.632l1.78-8.388v9.02c.626.773,1.161.518,1.609-.69l.574-2.586c.436.95.9.781,1.38-.171,0,0,.516-10.86.516-11.032s-3.332-12.744-3.332-12.744l-1.322-2.712-5.434,1.417Z" transform="translate(-35.298 -98.522)" fill="#3a144a"/>
      <path id="Trazado_656655" data-name="Trazado 656655" d="M69.938,172.58c1.807,7.326,6.556,16.028,12.405,25.246,3.249,10.66,12.064,21.89,16.72,34.014.731,1.179,5.67-.359,5.42-1.609-4.664-23.27-7.355-29.96-11.951-38.955a164.7,164.7,0,0,0-10.65-30.91c-1.851-5.579-4.761-9.235-9.191-10.113C67.8,158.117,66,165.654,69.938,172.58Z" transform="translate(-47.736 -138.237)" fill="#662483"/>
      <path id="Trazado_656656" data-name="Trazado 656656" d="M65.191,182.282c5.112,1.1,9.728-9.193,9.728-9.193l6.512-10.381-9.576-12.639-11.337,5.209.382,14.479S60.081,181.185,65.191,182.282Z" transform="translate(-55.481 -138.434)" fill="#662483" opacity="0.3" style="mix-blend-mode: multiply;isolation: isolate"/>
      <path id="Trazado_656657" data-name="Trazado 656657" d="M75.988,161.5l-7.163,7.469c-7.394,2.206-7.764-6.7-8.733-11.375l8.5-4.623Z" transform="translate(-55.936 -135.345)" fill="#ffbb7d"/>
      <path id="Trazado_656658" data-name="Trazado 656658" d="M74.174,161.762l-5.8,5.573c-3.53,1.227-5.878-.721-7.851-3.677l1.807-9.16Z" transform="translate(-55.481 -133.715)" fill="#662483" opacity="0.3" style="mix-blend-mode: multiply;isolation: isolate"/>
      <path id="Trazado_656659" data-name="Trazado 656659" d="M62.4,162.116c-.762-8.791,1.964-17.141,13.021-17.172,5.364-.017,10.7,7.6,10.652,15.948-.4,4.015-.981,6.612-3.257,8.7a62.983,62.983,0,0,0-5.093,4.709c-1.981,1.431-2.272,2.363-4.519,2.222a13.539,13.539,0,0,1-7.584-4.9A21.492,21.492,0,0,1,62.4,162.116Z" transform="translate(-53.607 -143.895)" fill="#ffbb7d"/>
      <path id="Trazado_656660" data-name="Trazado 656660" d="M83.508,150.8c-4.019-5.911-10.42-5.29-18.079-1.225l-5.672,4.286,1.142,6.752,2.4,14.171c13.985-12.325,23.85-10.561,20.936-5.486,2.272-1.171,1.97-1,3.693-3.482C90.012,161.745,87.375,158.107,83.508,150.8Z" transform="translate(-56.293 -142.302)" fill="#662483" opacity="0.3" style="mix-blend-mode: multiply;isolation: isolate"/>
      <path id="Trazado_656661" data-name="Trazado 656661" d="M63.347,179.681c5.331-6.492,15.041-15.72,23.518-15.491,4.069,1.367.878,3.679-1.613,8.192a16.672,16.672,0,0,0,5.98-5.511c2.088-4.067.343-10.767-3.524-18.079-4.017-5.909-10.42-5.29-18.079-1.225L58.58,155.918C56.686,161.763,60.59,167.485,63.347,179.681Z" transform="translate(-58.08 -144.436)" fill="#662483"/>
    </g>
  </g>
</svg>
