<svg xmlns="http://www.w3.org/2000/svg" width="190" height="123.224" viewBox="0 0 190 123.224">
  <g id="Grupo_80619" data-name="Grupo 80619" transform="translate(-2055.108 -301.626)">
    <path id="Trazado_114041" data-name="Trazado 114041" d="M2262.766,820c0,5.708-40.181,8.085-90.575,8.085s-92.61-3.091-92.61-8.8,42.809-8.738,93.2-8.738S2262.766,814.293,2262.766,820Z" transform="translate(-19.246 -403.236)" fill="#ab9df1"/>
    <g id="Grupo_80585" data-name="Grupo 80585" transform="translate(2055.108 301.627)">
      <g id="Grupo_80584" data-name="Grupo 80584" transform="translate(0 0)">
        <g id="Grupo_80582" data-name="Grupo 80582" transform="translate(0 0.283)">
          <path id="Trazado_114042" data-name="Trazado 114042" d="M2056.055,355.258h0c0-8.893,9.74-16.1,21.756-16.1h4.472a6.778,6.778,0,0,1-3.455-5.588h0c0-4.081,4.47-7.39,9.985-7.39h15.055a4.772,4.772,0,0,1-2.447-3.936c0-2.87,3.144-5.2,7.021-5.2h37.824c3.946,0,7.144,2.367,7.144,5.287s-3.2,5.287-7.144,5.287H2132.1c-2.6,1.312-4.3,3.52-4.3,6.024h0a6.686,6.686,0,0,0,3.407,5.511h23.227c12.016,0,21.756,7.209,21.756,16.1h0c0,8.893-9.74,16.1-21.756,16.1h30.812c5.56,0,10.066,3.335,10.066,7.45s-4.507,7.45-10.066,7.45h13.209c13.547,0,24.792,7.269,27.024,16.822h4.342c8.447,0,15.294,5.068,15.294,11.319v1.672c0,6.363-6.97,11.522-15.568,11.522H2083.034c-15.423,0-27.926-9.253-27.926-20.667h0c0-11.414,12.5-20.667,27.926-20.667h49.511c-5.559,0-10.066-3.336-10.066-7.45s4.507-7.45,10.066-7.45h-54.735C2065.795,371.359,2056.055,364.15,2056.055,355.258Z" transform="translate(-2055.108 -317.047)" fill="#d5cef8"/>
        </g>
        <g id="Grupo_80583" data-name="Grupo 80583" transform="translate(118.774)">
          <path id="Trazado_114043" data-name="Trazado 114043" d="M2616.917,327.137a5.708,5.708,0,1,1,5.708-5.708A5.708,5.708,0,0,1,2616.917,327.137Z" transform="translate(-2611.209 -315.721)" fill="#d5cef8"/>
        </g>
      </g>
    </g>
    <g id="Grupo_80596" data-name="Grupo 80596" transform="translate(2107.383 310.518)">
      <g id="Grupo_80586" data-name="Grupo 80586" transform="translate(0 0)">
        <path id="Trazado_114044" data-name="Trazado 114044" d="M2301.4,360.88l1.811-2.023-.574,2.455Z" transform="translate(-2301.074 -358.535)" fill="#562e8e"/>
        <path id="Trazado_114045" data-name="Trazado 114045" d="M2533.89,412.634l-1.709,1.907-.227-2.5Z" transform="translate(-2482.383 -400.359)" fill="#562e8e"/>
        <rect id="Rectángulo_33917" data-name="Rectángulo 33917" width="50.311" height="12.804" rx="6.402" transform="translate(1.567)" fill="#583ae2"/>
        <path id="Rectángulo_33918" data-name="Rectángulo 33918" d="M6.4,0H43.909a6.4,6.4,0,0,1,6.4,6.4v0a6.4,6.4,0,0,1-6.4,6.4H6.4A6.4,6.4,0,0,1,0,6.4v0A6.4,6.4,0,0,1,6.4,0Z" transform="translate(0 1.76)" fill="#ab9df1"/>
      </g>
      <g id="Grupo_80587" data-name="Grupo 80587" transform="translate(10.857 5.292)">
        <path id="Trazado_114046" data-name="Trazado 114046" d="M2355.365,382.66l-1.484,1.952v.032l2.357-.313v1.062l-2.357-.281v.032l1.5,1.873-.984.562-.937-2.185h-.031l-1.016,2.2-.89-.562,1.484-1.906V385.1l-2.311.3v-1.062l2.3.3V384.6l-1.468-1.906.953-.546.968,2.17h.032l.952-2.187Z" transform="translate(-2350.695 -382.129)" fill="#fff"/>
      </g>
      <g id="Grupo_80588" data-name="Grupo 80588" transform="translate(18.472 5.292)">
        <path id="Trazado_114047" data-name="Trazado 114047" d="M2391.016,382.66l-1.484,1.952v.032l2.357-.313v1.062l-2.357-.281v.032l1.5,1.873-.984.562-.937-2.185h-.031l-1.016,2.2-.89-.562,1.484-1.906V385.1l-2.312.3v-1.062l2.3.3V384.6l-1.468-1.906.954-.546.968,2.17h.031l.952-2.187Z" transform="translate(-2386.346 -382.129)" fill="#fff"/>
      </g>
      <g id="Grupo_80589" data-name="Grupo 80589" transform="translate(26.087 5.292)">
        <path id="Trazado_114048" data-name="Trazado 114048" d="M2426.669,382.66l-1.484,1.952v.032l2.357-.313v1.062l-2.357-.281v.032l1.5,1.873-.984.562-.937-2.185h-.031l-1.016,2.2-.89-.562,1.484-1.906V385.1l-2.312.3v-1.062l2.3.3V384.6l-1.469-1.906.954-.546.968,2.17h.032l.952-2.187Z" transform="translate(-2421.999 -382.129)" fill="#fff"/>
      </g>
      <g id="Grupo_80590" data-name="Grupo 80590" transform="translate(33.701 5.292)">
        <path id="Trazado_114049" data-name="Trazado 114049" d="M2462.322,382.66l-1.484,1.952v.032l2.357-.313v1.062l-2.357-.281v.032l1.5,1.873-.984.562-.937-2.185h-.03l-1.016,2.2-.89-.562,1.483-1.906V385.1l-2.311.3v-1.062l2.3.3V384.6l-1.469-1.906.954-.546.967,2.17h.032l.952-2.187Z" transform="translate(-2457.652 -382.129)" fill="#fff"/>
      </g>
      <g id="Grupo_80591" data-name="Grupo 80591" transform="translate(41.316 5.292)">
        <path id="Trazado_114050" data-name="Trazado 114050" d="M2497.974,382.66l-1.484,1.952v.032l2.357-.313v1.062l-2.357-.281v.032l1.5,1.873-.984.562-.937-2.185h-.03l-1.016,2.2-.89-.562,1.484-1.906V385.1l-2.312.3v-1.062l2.3.3V384.6l-1.468-1.906.954-.546.967,2.17h.031l.952-2.187Z" transform="translate(-2493.304 -382.129)" fill="#fff"/>
      </g>
      <g id="Grupo_80595" data-name="Grupo 80595" transform="translate(3.122 4.321)">
        <g id="Grupo_80594" data-name="Grupo 80594" transform="translate(0.607)">
          <g id="Grupo_80593" data-name="Grupo 80593">
            <g id="Grupo_80592" data-name="Grupo 80592">
              <path id="Trazado_114051" data-name="Trazado 114051" d="M2320.238,381.414l-2.153-.014a.477.477,0,0,1-.451-.5l.009-1.34a1.537,1.537,0,1,1,3.061.02l-.008,1.341A.477.477,0,0,1,2320.238,381.414Zm-2.14-.521,2.134.014.008-1.33a1.071,1.071,0,1,0-2.134-.014Z" transform="translate(-2317.567 -377.827)" fill="#fff"/>
              <path id="Trazado_114052" data-name="Trazado 114052" d="M2319.99,381.233l-2.153-.014a.545.545,0,0,1-.517-.568l.009-1.34a1.6,1.6,0,1,1,3.195.021l-.009,1.341A.544.544,0,0,1,2319.99,381.233Zm-1.054-3.519a1.542,1.542,0,0,0-1.474,1.6l-.009,1.34a.41.41,0,0,0,.384.432l2.153.014a.41.41,0,0,0,.39-.427l.009-1.341A1.543,1.543,0,0,0,2318.937,377.714Zm1.115,3.013-2.268-.015.009-1.4a1.138,1.138,0,1,1,2.268.015Zm-2.133-.149,2,.013.008-1.263a1,1,0,1,0-2-.013Z" transform="translate(-2317.32 -377.579)" fill="#fff"/>
            </g>
          </g>
        </g>
        <path id="Trazado_114053" data-name="Trazado 114053" d="M2318.867,390.934a.337.337,0,0,0-.357-.315l-3.644-.015a.341.341,0,0,0-.362.312l-.027,3.09a.336.336,0,0,0,.356.315l3.644.015a.341.341,0,0,0,.362-.312Zm-1.9,2.221-.637,0,.116-.6a.461.461,0,0,1-.157-.362.409.409,0,0,1,.372-.436.4.4,0,0,1,.365.439.466.466,0,0,1-.163.36Z" transform="translate(-2314.478 -387.822)" fill="#fff"/>
      </g>
    </g>
    <g id="Grupo_80601" data-name="Grupo 80601" transform="translate(2068.756 354.765)">
      <rect id="Rectángulo_33919" data-name="Rectángulo 33919" width="41.151" height="57.772" rx="2" transform="translate(0)" fill="#40327b"/>
      <rect id="Rectángulo_33920" data-name="Rectángulo 33920" width="23.32" height="1.151" transform="translate(8.916 53.876)" fill="#806db0"/>
      <g id="Grupo_80597" data-name="Grupo 80597" transform="translate(1.324 14.737)">
        <rect id="Rectángulo_33921" data-name="Rectángulo 33921" width="38.503" height="11.343" fill="#2c2a6e"/>
        <rect id="Rectángulo_33922" data-name="Rectángulo 33922" width="36.238" height="9.55" transform="translate(1.132 0.896)" fill="#806db0"/>
        <path id="Trazado_114054" data-name="Trazado 114054" d="M2271.159,650.339a2.609,2.609,0,1,1-2.609-2.644A2.626,2.626,0,0,1,2271.159,650.339Z" transform="translate(-2235.883 -644.667)" fill="#2c2a6e"/>
        <rect id="Rectángulo_33923" data-name="Rectángulo 33923" width="1.384" height="5.244" transform="translate(5.411 3.05)" fill="#2c2a6e"/>
        <rect id="Rectángulo_33924" data-name="Rectángulo 33924" width="1.384" height="5.244" transform="translate(8.053 3.05)" fill="#2c2a6e"/>
        <rect id="Rectángulo_33925" data-name="Rectángulo 33925" width="1.384" height="5.244" transform="translate(10.695 3.05)" fill="#2c2a6e"/>
        <rect id="Rectángulo_33926" data-name="Rectángulo 33926" width="1.384" height="5.244" transform="translate(13.338 3.05)" fill="#2c2a6e"/>
        <rect id="Rectángulo_33927" data-name="Rectángulo 33927" width="1.384" height="5.244" transform="translate(15.98 3.05)" fill="#2c2a6e"/>
        <rect id="Rectángulo_33928" data-name="Rectángulo 33928" width="1.531" height="1.556" transform="translate(19.44 4.894)" fill="#2c2a6e"/>
        <rect id="Rectángulo_33929" data-name="Rectángulo 33929" width="1.531" height="1.556" transform="translate(22.072 4.894)" fill="#2c2a6e"/>
        <rect id="Rectángulo_33930" data-name="Rectángulo 33930" width="1.531" height="1.556" transform="translate(24.704 4.894)" fill="#2c2a6e"/>
      </g>
      <g id="Grupo_80598" data-name="Grupo 80598" transform="translate(1.324 1.9)">
        <rect id="Rectángulo_33931" data-name="Rectángulo 33931" width="38.503" height="11.343" fill="#2c2a6e"/>
        <rect id="Rectángulo_33932" data-name="Rectángulo 33932" width="36.238" height="9.55" transform="translate(1.132 0.896)" fill="#806db0"/>
        <path id="Trazado_114055" data-name="Trazado 114055" d="M2271.159,590.235a2.609,2.609,0,1,1-2.609-2.643A2.626,2.626,0,0,1,2271.159,590.235Z" transform="translate(-2235.883 -584.564)" fill="#2c2a6e"/>
        <rect id="Rectángulo_33933" data-name="Rectángulo 33933" width="1.384" height="5.244" transform="translate(5.411 3.05)" fill="#2c2a6e"/>
        <rect id="Rectángulo_33934" data-name="Rectángulo 33934" width="1.384" height="5.244" transform="translate(8.053 3.05)" fill="#2c2a6e"/>
        <rect id="Rectángulo_33935" data-name="Rectángulo 33935" width="1.384" height="5.244" transform="translate(10.695 3.05)" fill="#2c2a6e"/>
        <rect id="Rectángulo_33936" data-name="Rectángulo 33936" width="1.384" height="5.244" transform="translate(13.338 3.05)" fill="#2c2a6e"/>
        <rect id="Rectángulo_33937" data-name="Rectángulo 33937" width="1.384" height="5.244" transform="translate(15.98 3.05)" fill="#2c2a6e"/>
        <rect id="Rectángulo_33938" data-name="Rectángulo 33938" width="1.531" height="1.556" transform="translate(19.44 4.894)" fill="#2c2a6e"/>
        <rect id="Rectángulo_33939" data-name="Rectángulo 33939" width="1.531" height="1.556" transform="translate(22.072 4.894)" fill="#2c2a6e"/>
        <rect id="Rectángulo_33940" data-name="Rectángulo 33940" width="1.531" height="1.556" transform="translate(24.704 4.894)" fill="#2c2a6e"/>
      </g>
      <g id="Grupo_80599" data-name="Grupo 80599" transform="translate(1.324 27.474)">
        <rect id="Rectángulo_33941" data-name="Rectángulo 33941" width="38.503" height="11.343" fill="#2c2a6e"/>
        <rect id="Rectángulo_33942" data-name="Rectángulo 33942" width="36.238" height="9.55" transform="translate(1.132 0.896)" fill="#806db0"/>
        <ellipse id="Elipse_4773" data-name="Elipse 4773" cx="2.609" cy="2.643" rx="2.609" ry="2.643" transform="translate(30.058 3.028)" fill="#2c2a6e"/>
        <rect id="Rectángulo_33943" data-name="Rectángulo 33943" width="1.384" height="5.244" transform="translate(5.411 3.05)" fill="#2c2a6e"/>
        <rect id="Rectángulo_33944" data-name="Rectángulo 33944" width="1.384" height="5.244" transform="translate(8.053 3.05)" fill="#2c2a6e"/>
        <rect id="Rectángulo_33945" data-name="Rectángulo 33945" width="1.384" height="5.244" transform="translate(10.695 3.05)" fill="#2c2a6e"/>
        <rect id="Rectángulo_33946" data-name="Rectángulo 33946" width="1.384" height="5.244" transform="translate(13.338 3.05)" fill="#2c2a6e"/>
        <rect id="Rectángulo_33947" data-name="Rectángulo 33947" width="1.384" height="5.244" transform="translate(15.98 3.05)" fill="#2c2a6e"/>
        <rect id="Rectángulo_33948" data-name="Rectángulo 33948" width="1.531" height="1.556" transform="translate(19.44 4.894)" fill="#2c2a6e"/>
        <rect id="Rectángulo_33949" data-name="Rectángulo 33949" width="1.531" height="1.556" transform="translate(22.072 4.894)" fill="#2c2a6e"/>
        <rect id="Rectángulo_33950" data-name="Rectángulo 33950" width="1.531" height="1.556" transform="translate(24.704 4.894)" fill="#2c2a6e"/>
      </g>
      <g id="Grupo_80600" data-name="Grupo 80600" transform="translate(1.324 40.212)">
        <rect id="Rectángulo_33951" data-name="Rectángulo 33951" width="38.503" height="11.343" fill="#2c2a6e"/>
        <rect id="Rectángulo_33952" data-name="Rectángulo 33952" width="36.238" height="9.55" transform="translate(1.132 0.896)" fill="#806db0"/>
        <ellipse id="Elipse_4774" data-name="Elipse 4774" cx="2.609" cy="2.643" rx="2.609" ry="2.643" transform="translate(30.058 3.028)" fill="#2c2a6e"/>
        <rect id="Rectángulo_33953" data-name="Rectángulo 33953" width="1.384" height="5.244" transform="translate(5.411 3.05)" fill="#2c2a6e"/>
        <rect id="Rectángulo_33954" data-name="Rectángulo 33954" width="1.384" height="5.244" transform="translate(8.053 3.05)" fill="#2c2a6e"/>
        <rect id="Rectángulo_33955" data-name="Rectángulo 33955" width="1.384" height="5.244" transform="translate(10.695 3.05)" fill="#2c2a6e"/>
        <rect id="Rectángulo_33956" data-name="Rectángulo 33956" width="1.384" height="5.244" transform="translate(13.338 3.05)" fill="#2c2a6e"/>
        <rect id="Rectángulo_33957" data-name="Rectángulo 33957" width="1.384" height="5.244" transform="translate(15.98 3.05)" fill="#2c2a6e"/>
        <rect id="Rectángulo_33958" data-name="Rectángulo 33958" width="1.531" height="1.556" transform="translate(19.44 4.894)" fill="#2c2a6e"/>
        <rect id="Rectángulo_33959" data-name="Rectángulo 33959" width="1.531" height="1.556" transform="translate(22.072 4.894)" fill="#2c2a6e"/>
        <rect id="Rectángulo_33960" data-name="Rectángulo 33960" width="1.531" height="1.556" transform="translate(24.704 4.894)" fill="#2c2a6e"/>
      </g>
    </g>
    <g id="Grupo_80602" data-name="Grupo 80602" transform="translate(2085.829 308.887)">
      <rect id="Rectángulo_33961" data-name="Rectángulo 33961" width="26.82" height="4.612" rx="2.306" transform="translate(11.666) rotate(90)" fill="#f7981d"/>
      <path id="Trazado_114056" data-name="Trazado 114056" d="M2208.168,486.61a9.226,9.226,0,1,0-9.226-9.226A9.226,9.226,0,0,0,2208.168,486.61Zm.184-2.453a2.631,2.631,0,1,1,2.631-2.631A2.631,2.631,0,0,1,2208.352,484.157Z" transform="translate(-2198.942 -442.861)" fill="#fbb225"/>
      <path id="Trazado_114057" data-name="Trazado 114057" d="M2212.39,489.686a8.079,8.079,0,1,0-8.079-8.079A8.079,8.079,0,0,0,2212.39,489.686Zm.184-1.306a2.631,2.631,0,1,1,2.631-2.631A2.631,2.631,0,0,1,2212.574,488.38Z" transform="translate(-2203.164 -447.084)" fill="#ee7222"/>
      <path id="Trazado_114058" data-name="Trazado 114058" d="M2253.563,360.292h4.8V362.9H2255.5v1.9h2.867v1.473H2255.5v1.9h2.293v2.278h-4.231Z" transform="translate(-2241.897 -358.033)" fill="#c85728"/>
      <path id="Trazado_114059" data-name="Trazado 114059" d="M2255.966,368.569v.845h-.465v1.9h.465v1.473h-.465v1.9h.465v2.277h-2.4v-8.4Z" transform="translate(-2241.897 -364.543)" fill="#a23f23"/>
      <rect id="Rectángulo_33962" data-name="Rectángulo 33962" width="20.537" height="0.938" rx="0.469" transform="translate(9.226 1.998) rotate(90)" fill="#fbb225"/>
      <path id="Trazado_114060" data-name="Trazado 114060" d="M2229.2,521.22a2.789,2.789,0,0,1,2.789-2.789c.027,0,.052.007.079.008a2.627,2.627,0,1,0,2.7,2.7c0,.027.008.052.008.079a2.789,2.789,0,1,1-5.577,0Z" transform="translate(-2222.74 -482.396)" fill="#a23f23"/>
    </g>
    <path id="Trazado_114061" data-name="Trazado 114061" d="M2468.479,728.329s1.658,5.691-2.606,20.175h27.719s-4.975-5.691-3.791-20.175Z" transform="translate(-323.033 -338.576)" fill="#583ae2"/>
    <path id="Rectángulo_33963" data-name="Rectángulo 33963" d="M22.119,0h43.71A22.118,22.118,0,0,1,87.947,22.118V50.766a0,0,0,0,1,0,0H0a0,0,0,0,1,0,0V22.119A22.119,22.119,0,0,1,22.119,0Z" transform="translate(2111.779 332.832)" fill="#f2a7c9"/>
    <path id="Trazado_114062" data-name="Trazado 114062" d="M2393.843,507.179H2297.3a2.253,2.253,0,0,1-2.253-2.253V447.014a2.252,2.252,0,0,1,2.253-2.252h94.474a2.068,2.068,0,0,1,2.068,2.068v60.349Z" transform="translate(-188.693 -115.574)" fill="#583ae2"/>
    <path id="Trazado_114063" data-name="Trazado 114063" d="M2296,505.883V447.971a2.252,2.252,0,0,1,2.252-2.253h94.474a2.046,2.046,0,0,1,.911.22,2.062,2.062,0,0,0-1.859-1.178H2297.3a2.252,2.252,0,0,0-2.253,2.253v57.912a2.244,2.244,0,0,0,1.206,1.983A2.228,2.228,0,0,1,2296,505.883Z" transform="translate(-188.693 -115.574)" fill="#826be9"/>
    <path id="Trazado_114064" data-name="Trazado 114064" d="M2408.39,514.852h-87.947V461.824h87.947v53.027Z" transform="translate(-208.664 -128.993)" fill="#f3f1ff"/>
    <path id="Trazado_114065" data-name="Trazado 114065" d="M2320.444,461.824v49.954l87.947-48.887v-1.067h-87.947Z" transform="translate(-208.664 -128.993)" fill="#d5cef8" opacity="0.34"/>
    <path id="Trazado_114066" data-name="Trazado 114066" d="M2392.007,810.7l-2.031,4.717a.256.256,0,0,0,.235.357h56.556a.256.256,0,0,0,.235-.357l-2.03-4.717a.256.256,0,0,0-.235-.155h-52.5A.256.256,0,0,0,2392.007,810.7Z" transform="translate(-263.33 -403.236)" fill="#826be9"/>
    <path id="Trazado_114067" data-name="Trazado 114067" d="M2526.972,717.4a1.414,1.414,0,1,1-1.414-1.452A1.433,1.433,0,0,1,2526.972,717.4Z" transform="translate(-368.859 -328.842)" fill="#28306f"/>
    <path id="Rectángulo_33964" data-name="Rectángulo 33964" d="M22.119,0h43.71A22.118,22.118,0,0,1,87.947,22.118V50.766a0,0,0,0,1,0,0H0a0,0,0,0,1,0,0V22.119A22.119,22.119,0,0,1,22.119,0Z" transform="translate(2111.779 332.832)" fill="none"/>
    <circle id="Elipse_4775" data-name="Elipse 4775" cx="20.797" cy="20.797" r="20.797" transform="translate(2135.215 340.681)" fill="#fff"/>
    <g id="Grupo_80604" data-name="Grupo 80604" transform="translate(2144.622 345.322)">
      <rect id="Rectángulo_33965" data-name="Rectángulo 33965" width="9.296" height="10.427" transform="translate(6.302 17.408)" fill="#201b40"/>
      <g id="Grupo_80603" data-name="Grupo 80603" transform="translate(0 0)">
        <path id="Trazado_114068" data-name="Trazado 114068" d="M2495.28,533.509l-1.194,0,.035-4.927a8.344,8.344,0,0,0-16.687-.1l-.036,4.963-1.151,0a1.726,1.726,0,0,0-1.89,1.473l-.141,14.592a1.7,1.7,0,0,0,1.862,1.487l19.032.07a1.725,1.725,0,0,0,1.89-1.473l.14-14.592A1.7,1.7,0,0,0,2495.28,533.509Zm-9.465-10.175A5.207,5.207,0,0,1,2491,528.56l-.035,4.933-10.447-.038.036-4.956A5.223,5.223,0,0,1,2485.815,523.334Zm1.394,22.149-3.33-.012.607-2.847a2.094,2.094,0,0,1-.822-1.707,2.013,2.013,0,0,1,1.943-2.058,1.983,1.983,0,0,1,1.9,2.072,2.12,2.12,0,0,1-.854,1.7Z" transform="translate(-2474.217 -520.302)" fill="#2ff980"/>
        <path id="Trazado_114069" data-name="Trazado 114069" d="M2497.553,520.3a8.308,8.308,0,0,0-8.4,8.178l-.035,4.877h3.12l.035-4.859a5.223,5.223,0,0,1,10.446.061l-.034,4.8h3.12l.034-4.779A8.283,8.283,0,0,0,2497.553,520.3Z" transform="translate(-2485.934 -520.302)" fill="#2ff980"/>
      </g>
    </g>
    <path id="Trazado_114070" data-name="Trazado 114070" d="M2408.39,465.768h-87.947v-3.943h87.947v3.943Z" transform="translate(-208.664 -128.993)" fill="#40327b"/>
    <g id="Grupo_80605" data-name="Grupo 80605" transform="translate(2116.062 333.905)">
      <path id="Trazado_114071" data-name="Trazado 114071" d="M2342.291,467.748a.9.9,0,1,1-.9-.9A.9.9,0,0,1,2342.291,467.748Z" transform="translate(-2340.494 -466.849)" fill="#fff"/>
      <path id="Trazado_114072" data-name="Trazado 114072" d="M2354.23,467.748a.9.9,0,1,1-.9-.9A.9.9,0,0,1,2354.23,467.748Z" transform="translate(-2349.884 -466.849)" fill="#fff"/>
      <path id="Trazado_114073" data-name="Trazado 114073" d="M2366.17,467.748a.9.9,0,1,1-.9-.9A.9.9,0,0,1,2366.17,467.748Z" transform="translate(-2359.274 -466.849)" fill="#fff"/>
    </g>
    <g id="Grupo_80607" data-name="Grupo 80607" transform="translate(2182.684 350.549)">
      <g id="Grupo_80606" data-name="Grupo 80606" transform="translate(0)">
        <path id="Trazado_114074" data-name="Trazado 114074" d="M2706.915,553.012c-12.906-.372-27.1-8.235-27.1-8.235s-14.19,7.863-27.1,8.235c0,0-5.124,39.853,27.1,53.758C2712.039,592.865,2706.915,553.012,2706.915,553.012Z" transform="translate(-2652.423 -544.777)" fill="#0a8cc9"/>
        <path id="Trazado_114075" data-name="Trazado 114075" d="M2706.915,552.635c-12.906-.355-27.1-7.858-27.1-7.858s-14.19,7.5-27.1,7.858c0,0-5.124,38.025,27.1,51.292C2712.039,590.66,2706.915,552.635,2706.915,552.635Z" transform="translate(-2652.423 -544.777)" fill="#583ae2"/>
        <path id="Trazado_114076" data-name="Trazado 114076" d="M2713.755,564.946c-11.71-.322-24.584-7.117-24.584-7.117s-12.874,6.8-24.584,7.117c0,0-4.65,34.441,24.584,46.458C2718.4,599.387,2713.755,564.946,2713.755,564.946Z" transform="translate(-2661.776 -555.041)" fill="#826be9"/>
        <path id="Trazado_114077" data-name="Trazado 114077" d="M2718.055,572.548c-10.957-.3-23-6.66-23-6.66s-12.047,6.358-23,6.66c0,0-4.351,32.228,23,43.472C2722.406,604.776,2718.055,572.548,2718.055,572.548Z" transform="translate(-2667.656 -561.379)" fill="#ab9df1" opacity="0.54"/>
        <path id="Trazado_114078" data-name="Trazado 114078" d="M2721.348,576.183c-10.381-.291-21.8-6.441-21.8-6.441s-11.414,6.15-21.8,6.441c0,0-4.122,31.17,21.8,42.045C2725.47,607.352,2721.348,576.183,2721.348,576.183Z" transform="translate(-2672.157 -564.41)" fill="#fff"/>
        <path id="Trazado_114079" data-name="Trazado 114079" d="M2726.161,582.541c-9.539-.274-20.028-6.059-20.028-6.059s-10.488,5.785-20.027,6.059c0,0-3.788,29.318,20.027,39.548C2729.949,611.859,2726.161,582.541,2726.161,582.541Z" transform="translate(-2678.739 -569.711)" fill="#a5ffc9"/>
        <path id="Trazado_114080" data-name="Trazado 114080" d="M2780.687,576.483v45.606c23.815-10.23,20.027-39.548,20.027-39.548C2791.175,582.267,2780.688,576.483,2780.687,576.483Z" transform="translate(-2753.292 -569.711)" fill="#2ff980"/>
      </g>
      <path id="Trazado_114081" data-name="Trazado 114081" d="M2760.55,633.337a23.9,23.9,0,0,0-4.706,2.673,47.6,47.6,0,0,0-4.268,3.449c-1.374,1.221-2.688,2.515-3.976,3.845-.784.816-1.547,1.644-2.305,2.49l-6.381-6.476-.714.653,5.663,10.233,1.09,1.969,1.979-2.011h0c.909-1.5,1.938-3.041,2.971-4.516s2.121-2.935,3.26-4.325a47.963,47.963,0,0,1,3.582-3.986,23.919,23.919,0,0,1,4.08-3.305Z" transform="translate(-2719.879 -614.422)" fill="#fff"/>
    </g>
    <g id="Grupo_80613" data-name="Grupo 80613" transform="translate(2217.105 358.33)">
      <path id="Trazado_114101" data-name="Trazado 114101" d="M2862.6,779.929s-.272,3.428-.319,5.641-.01,8.812.159,9.394l-.009,2.174h-.385v-.854a1.1,1.1,0,0,0-.377.7c0,.382-1.46.926-1.978.848s.377-1.242.377-1.242,1.052-1.32,1-1.864-1.785-9.053-1.832-10.179-.534-5.029-.534-5.029Z" transform="translate(-2849.065 -737.166)" fill="#eebaa7"/>
      <path id="Trazado_114102" data-name="Trazado 114102" d="M2856.956,582.025s1.111-.583,1.952,1.677a15.428,15.428,0,0,1,.569,6.984s2.45,2.663.44,4.411c0,0-2.771,2.941-2.956,3.7-.071-.177-1.252-2.331-3.175-2.446s-6.649-5.129-4.121-5.915c0,0-.19.813.673.616s.326-3.192.337-4.252.649-3.672,2.49-4.784S2857.123,580.973,2856.956,582.025Z" transform="translate(-2841.387 -581.207)" fill="#131025"/>
      <path id="Trazado_114103" data-name="Trazado 114103" d="M2868.691,622.378s-3.979.272-5.262.573c0,0,.484,5.386,1.279,5.446s3.956.139,3.984-.735S2869.392,622.972,2868.691,622.378Z" transform="translate(-2852.782 -613.585)" fill="#eaa87a"/>
      <path id="Trazado_114104" data-name="Trazado 114104" d="M2868.588,617.018a16.964,16.964,0,0,1-.686,1.748s-.273.711.531,2.721,2.839.888,3.164.339,1.044-1.6.388-2.642a1.78,1.78,0,0,1-.429-2.069S2868.73,616.545,2868.588,617.018Z" transform="translate(-2856.265 -609.222)" fill="#eaa87a"/>
      <path id="Trazado_114105" data-name="Trazado 114105" d="M2869.3,593.77s-1.337,1.439-2.459,1.255c-1.211-.2-2.152-1.621-2.442-2.664a5.245,5.245,0,0,1,.91-3.886c.72-.747,3.392-1.242,4.14-.273S2870.7,592.652,2869.3,593.77Z" transform="translate(-2853.476 -586.286)" fill="#fcc596"/>
      <path id="Trazado_114106" data-name="Trazado 114106" d="M2816.176,621.968a5.907,5.907,0,0,1,.122-1.637c.18-.444-.113-1.11-.374-.886s-.266.953-.38.833-.427-2.144-.579-2.243-.336.083-.192.781c0,0-.11-.823-.287-.743s-.247.356-.083,1.109c0,0-.179-.885-.328-.853s-.181.131-.065.877c0,0-.16-.8-.263-.74a2.64,2.64,0,0,0,.05,1.961,12.442,12.442,0,0,1,.851,1.877S2815.872,622.433,2816.176,621.968Z" transform="translate(-2813.582 -610.149)" fill="#facc9a"/>
      <path id="Trazado_114107" data-name="Trazado 114107" d="M2885.907,777.7s.609,7.322-.513,10.694c-1.147,3.449-.886,4.669.988,6.432,0,0,1.271.745.589.9a3.124,3.124,0,0,1-3.083-.656c-.913-1.044-.59-1.02-.59-1.02l.009,1.29-.426-.06a9.722,9.722,0,0,1,.2-2.308c.233-.656-.434-6.188-.251-6.8s-.534-7.218-.043-7.994S2885.907,777.7,2885.907,777.7Z" transform="translate(-2867.868 -735.684)" fill="#f0b9a7"/>
      <path id="Trazado_114108" data-name="Trazado 114108" d="M2860.68,696.524s1.756,11.243.049,17.083c0,0-8.315,1.465-9.772.406,0,0-2.622-12.5.531-18.163Z" transform="translate(-2842.169 -671.364)" fill="#4e4e4e"/>
      <path id="Trazado_114109" data-name="Trazado 114109" d="M2886.376,851.474c1.2.3.285-.909.285-.909h0c.207.218.44.446.709.7,0,0,1.272.745.589.9a3.125,3.125,0,0,1-3.083-.657,4.47,4.47,0,0,1-.588-.782l.008,1.053-.426-.06a9.718,9.718,0,0,1,.2-2.308C2884.453,849.552,2885.182,851.17,2886.376,851.474Z" transform="translate(-2868.857 -792.126)" fill="#131025"/>
      <path id="Trazado_114110" data-name="Trazado 114110" d="M2862.754,854.69c-.518-.078.377-1.242.377-1.242s.107-.134.25-.334c-.045.361.009.682.331.728.78.111,1.791-2.025,1.791-2.025l-.01,2.174h-.385v-.854a1.1,1.1,0,0,0-.377.7C2864.731,854.224,2863.272,854.767,2862.754,854.69Z" transform="translate(-2852.125 -794.019)" fill="#131025"/>
      <path id="Trazado_114111" data-name="Trazado 114111" d="M2872.555,645.077l-3.6.118,1.277,5.107S2872.3,645.875,2872.555,645.077Z" transform="translate(-2857.124 -631.435)" fill="#f7f8f9"/>
      <path id="Trazado_114112" data-name="Trazado 114112" d="M2832.59,622.378s4.063,1.269,4.918,2.009,5.773,7.931,5.239,9.2-5.289,5.462-5.289,5.462l-1.34-1.444s2.993-4.441,3.314-4.653c0,0-3.127-3.966-3.849-3.86s.348,7.823.118,13.186c-.01.223-5.063.931-6.052.535l-.454-2.829-.722,2.968-4.437-.192s.968-5.182,1.369-5.658.422-5.5.422-5.5l-.829-.82s-3.435,3.646-3.943,3.646a1.809,1.809,0,0,1-2.2-1.24,31.493,31.493,0,0,1-1.318-7.437,8.292,8.292,0,0,1,1.907-.574,43.414,43.414,0,0,1,1.336,5.1s.481-.053.534-.132,3.368-5.816,4.116-6.371a4.565,4.565,0,0,1,2.42-.9l1.937,9.572S2833.552,624.546,2832.59,622.378Z" transform="translate(-2816.681 -613.585)" fill="#1dafab"/>
      <g id="Grupo_80612" data-name="Grupo 80612" transform="translate(3.475 8.793)">
        <path id="Trazado_114113" data-name="Trazado 114113" d="M2897.384,633.588c.535-1.269-4.383-8.46-5.239-9.2a18.107,18.107,0,0,0-3.982-1.7,1.625,1.625,0,0,0-.094-.306s4.063,1.269,4.918,2.009,5.773,7.931,5.239,9.2-5.289,5.462-5.289,5.462l-.382-.411C2893.761,637.552,2896.952,634.614,2897.384,633.588Z" transform="translate(-2875.635 -622.378)" fill="#14958f"/>
        <path id="Trazado_114114" data-name="Trazado 114114" d="M2864.275,633.758l-2.217-8.889a4.887,4.887,0,0,1,.813-.144l1.937,9.572C2864.5,634.7,2864.275,633.758,2864.275,633.758Z" transform="translate(-2855.179 -624.223)" fill="#14958f"/>
        <path id="Trazado_114115" data-name="Trazado 114115" d="M2882.092,667c.23-5.364-.84-13.08-.118-13.186.141-.021.374.115.657.344a65.452,65.452,0,0,0,.242,7.632c.015.338.024.543.024.543l.017.429c.055,1.456.077,2.918.021,4.237a19.475,19.475,0,0,1-5.351.644A17.847,17.847,0,0,0,2882.092,667Z" transform="translate(-2867.388 -647.096)" fill="#14958f"/>
        <path id="Trazado_114116" data-name="Trazado 114116" d="M2829.91,665.387c.508,0,3.942-3.646,3.942-3.646h.842c-.926.963-3.543,3.646-3.943,3.646a4.029,4.029,0,0,1-.9,0Z" transform="translate(-2829.851 -653.334)" fill="#14958f"/>
        <path id="Trazado_114117" data-name="Trazado 114117" d="M2866.061,706.27l.349-.643-.679,2.8-.833-.036Z" transform="translate(-2857.412 -687.847)" fill="#14958f"/>
      </g>
      <path id="Trazado_114118" data-name="Trazado 114118" d="M2896.4,692.473a5.76,5.76,0,0,1-1.5.635c-.473.04-.927.606-.611.739s.962-.193.908-.037-1.7,1.359-1.715,1.54.227.264.776-.182c0,0-.676.473-.525.6s.427.06,1.016-.43c0,0-.7.563-.6.683s.2.1.8-.34c0,0-.636.51-.533.573a2.583,2.583,0,0,0,1.708-.936,12.346,12.346,0,0,1,1.269-1.618S2896.952,692.534,2896.4,692.473Z" transform="translate(-2876.418 -668.708)" fill="#facc9a"/>
      <path id="Trazado_114119" data-name="Trazado 114119" d="M2905.038,690.82l-.45.61,1.34,1.444s.521-.321.57-.535Z" transform="translate(-2885.151 -667.408)" fill="#14958f"/>
      <path id="Trazado_114120" data-name="Trazado 114120" d="M2886.564,595.483a1.485,1.485,0,0,0,1.681-.42c.611-.836-.41-1.336-.41-1.336s.663.843-.306.951-.972-1.533-.629-2.44a6.329,6.329,0,0,0-.03-5.273,5.614,5.614,0,0,0-1.26-1.62l-.553-.311-.386.951a11.808,11.808,0,0,1,1.046,2.065,4.7,4.7,0,0,1-.333,3.91C2884.554,593.6,2884.343,595.219,2886.564,595.483Z" transform="translate(-2869.488 -584.217)" fill="#1c183c"/>
      <path id="Trazado_114121" data-name="Trazado 114121" d="M2884.09,585.737l.386-.951h0s1.111-.583,1.952,1.677a9.5,9.5,0,0,1,.5,2.645,39.666,39.666,0,0,1-2.051,4.407c-.743,1.739,1.521,1.27,1.521,1.27a1.177,1.177,0,0,1-1.888.3c-1.245-1.088-.153-2.89.325-3.833a5.191,5.191,0,0,0-.052-3.742A17.662,17.662,0,0,1,2884.09,585.737Z" transform="translate(-2868.907 -583.969)" fill="#232147"/>
      <path id="Trazado_114122" data-name="Trazado 114122" d="M2863.658,582.975s-2.531-.672-3.81,2.425.544,4.519.221,5.474-1.186,1.094-1.924.114c0,0,.909.59,1.046-.079s-1.373-1.646-1.23-4.2a11.273,11.273,0,0,1,.364-2.293,5.058,5.058,0,0,1,1.929-2.406c1.841-1.112,3.958-1.039,3.791.012Z" transform="translate(-2848.475 -581.207)" fill="#1c183c"/>
    </g>
    <g id="Grupo_80618" data-name="Grupo 80618" transform="translate(2119.557 357.562)">
      <path id="Trazado_114123" data-name="Trazado 114123" d="M2388.37,618.267l-3.953-.132a.239.239,0,0,1-.224-.3l.738-3.011a.238.238,0,0,1,.24-.182l2.583-.016a.239.239,0,0,1,.228.2l.634,3.16A.239.239,0,0,1,2388.37,618.267Z" transform="translate(-2378.35 -606.724)" fill="#fccaa6"/>
      <path id="Trazado_114124" data-name="Trazado 114124" d="M2389.573,614.584a.219.219,0,0,0-.209-.184l-1.19-.04-1.306-.044a.219.219,0,0,0-.22.167l-.371,1.148-.066.222a25.2,25.2,0,0,0,2.418.735c.313.173.816-.278,1.211-.667Z" transform="translate(-2379.943 -606.477)" fill="#cd9696"/>
      <path id="Trazado_114125" data-name="Trazado 114125" d="M2376.851,605.351s-.566-.342-.606.277.47,1.432.98,1.135S2376.851,605.351,2376.851,605.351Z" transform="translate(-2372.103 -599.352)" fill="#fccaa6"/>
      <path id="Trazado_114126" data-name="Trazado 114126" d="M2377.861,607.663s-.364-.312-.334-.563S2377.126,607.363,2377.861,607.663Z" transform="translate(-2373.036 -600.749)" fill="#13162d"/>
      <path id="Trazado_114127" data-name="Trazado 114127" d="M2406.771,604.934s.556-.357.613.261-.43,1.444-.948,1.162S2406.771,604.934,2406.771,604.934Z" transform="translate(-2395.717 -599.017)" fill="#fccaa6"/>
      <path id="Trazado_114128" data-name="Trazado 114128" d="M2408.377,607.251s.355-.322.317-.572S2409.1,606.931,2408.377,607.251Z" transform="translate(-2397.374 -600.417)" fill="#13162d"/>
      <path id="Trazado_114129" data-name="Trazado 114129" d="M2377.885,595.473s.307,3.785,2.056,4.8c1.771,1.033,2.788.467,3.531-.547a8.956,8.956,0,0,0,1.222-4.217C2384.523,595.089,2378.592,594.192,2377.885,595.473Z" transform="translate(-2373.395 -591.137)" fill="#fccaa6"/>
      <path id="Trazado_114130" data-name="Trazado 114130" d="M2380.269,601.568c-1.55-.9-1.968-3.978-2.042-4.667a.556.556,0,0,0-.342.216s.323,3.852,2.072,4.872c1.669.974,2.653.459,3.385-.445C2382.642,602.192,2381.7,602.4,2380.269,601.568Z" transform="translate(-2373.395 -592.781)" fill="#cd9696"/>
      <path id="Trazado_114131" data-name="Trazado 114131" d="M2377.614,583.065c.093,0,.8-.07,1.218-1.4a.015.015,0,0,1,.028,0,1.994,1.994,0,0,0,.495.606.016.016,0,0,0,.022-.018c-.046-.16-.234-.853-.043-.84.216.014.921.98,4.108.227a.016.016,0,0,1,.019.018,1.328,1.328,0,0,0,.711,1.486.015.015,0,0,0,.02-.008c.088-.193,1.072-2.423.148-3.9-.965-1.545-4.278-2.574-5.943-.27a.014.014,0,0,1-.012.006c-.085,0-.863.029-.978,1.27a7.063,7.063,0,0,0,.193,2.822A.015.015,0,0,0,2377.614,583.065Z" transform="translate(-2372.983 -577.61)" fill="#1a1941"/>
      <g id="Grupo_80614" data-name="Grupo 80614" transform="translate(4.378 0)" opacity="0.19">
        <path id="Trazado_114132" data-name="Trazado 114132" d="M2377.433,580.455c.115-1.241.893-1.271.978-1.27a.016.016,0,0,0,.013-.006c1.665-2.3,4.978-1.275,5.943.27a2.585,2.585,0,0,1,.351.978,2.686,2.686,0,0,0-.378-1.2c-.966-1.545-4.278-2.574-5.943-.27a.014.014,0,0,1-.012.006c-.085,0-.863.029-.978,1.27a9.745,9.745,0,0,0,.028,2.148A10.121,10.121,0,0,1,2377.433,580.455Z" transform="translate(-2377.361 -577.61)" fill="#bab9b7"/>
      </g>
      <path id="Trazado_114133" data-name="Trazado 114133" d="M2384.172,592.313a.015.015,0,0,0,.02-.008,6.706,6.706,0,0,0,.479-1.621c-.6.7-.865-.159-.865-.159a3.881,3.881,0,0,1-3.677-1,4.155,4.155,0,0,0,.955,1.128c-.682.124-1.948-.692-1.948-.692-.552,1.068-1.322.006-1.715-.683-.006.043-.011.086-.016.132a7.063,7.063,0,0,0,.193,2.822.015.015,0,0,0,.014.009c.093,0,.8-.071,1.218-1.4a.015.015,0,0,1,.028,0,1.992,1.992,0,0,0,.495.606.016.016,0,0,0,.022-.018c-.046-.16-.234-.853-.043-.84.216.014.921.98,4.108.227a.016.016,0,0,1,.019.018A1.328,1.328,0,0,0,2384.172,592.313Z" transform="translate(-2372.983 -586.786)" fill="#14143a"/>
      <path id="Trazado_114134" data-name="Trazado 114134" d="M2368.59,715.577s-.825,28.708-.521,28.708a11.114,11.114,0,0,0,1.946,0c0-.112,4.522-23.336,4.522-23.336s1.693,8.078,1.929,8.7,1.392,12.665,2.729,14.691h2.371s-.8-28.115-2.25-31.071l-10.821.785Z" transform="translate(-2365.623 -684.29)" fill="#1a1941"/>
      <path id="Trazado_114135" data-name="Trazado 114135" d="M2364.271,622.815l-.9.715a14.91,14.91,0,0,0-4.87,3.095s-.682,7.042,1.385,9.352a2.56,2.56,0,0,0,1.617.462s.031,3.369-.577,4.1-.693,3.233-.693,3.233l.577.577s1.969.708,3-.751l6.927-.115s.486,1.13,2.309.462c0,0-.519-5.308-1.674-6.523l.231-2.194s3.259.722,3.32-1.284-2.067-8.043-2.858-8.53a30.421,30.421,0,0,0-3.164-1.4l-.729-.73S2366.094,626.341,2364.271,622.815Z" transform="translate(-2358.064 -613.16)" fill="#fff"/>
      <g id="Grupo_80616" data-name="Grupo 80616" transform="translate(0 10.37)">
        <g id="Grupo_80615" data-name="Grupo 80615">
          <path id="Trazado_114136" data-name="Trazado 114136" d="M2411.088,629.713a16.7,16.7,0,0,0-3.26-1.046h0c-.783,3.316,1.011,19.406,1.011,19.406a2.966,2.966,0,0,0,3.1.73s-.426-5.532-1.581-6.748l.182-1.884s3.389.728,3.45-1.279S2411.879,630.2,2411.088,629.713Z" transform="translate(-2396.787 -628.133)" fill="#0d72b9"/>
          <path id="Trazado_114137" data-name="Trazado 114137" d="M2358.64,639.053a1.235,1.235,0,0,0,1.239.487s.038,2.553-.57,3.283-.79,4.134-.79,4.134l.912.486s2.432.243,3.465-1.216c2.1-6.793-.729-20.062-.729-20.062a11.419,11.419,0,0,0-4.214,1.982,2.64,2.64,0,0,0-1.09,2.149C2356.875,632.588,2357.1,637.328,2358.64,639.053Z" transform="translate(-2356.862 -626.165)" fill="#0d72b9"/>
        </g>
      </g>
      <path id="Trazado_114138" data-name="Trazado 114138" d="M2384.476,624.528s.912-.239,1.277.328,1.079.764,1.223-1.249l-.479-.479s-2.06,2.689-3.9-.516l-.9.759.226,1.157A1.578,1.578,0,0,0,2384.476,624.528Z" transform="translate(-2376.391 -613)" fill="#c2d5e6"/>
      <path id="Trazado_114139" data-name="Trazado 114139" d="M2367.945,858.507a2.65,2.65,0,0,0,.213,1.963s1.413-.083,1.368-1.914Z" transform="translate(-2365.498 -798.512)" fill="#14143a"/>
      <path id="Trazado_114140" data-name="Trazado 114140" d="M2420.133,858.74s-.167.834,0,.932a5.363,5.363,0,0,0,1.261,0v-.28s.9.056,1.109.28,1.809.044,1.809.044-.091-.288-.866-.453-.942-.522-.942-.522Z" transform="translate(-2406.561 -798.695)" fill="#14143a"/>
      <g id="Grupo_80617" data-name="Grupo 80617" transform="translate(1.642 17.615)">
        <path id="Trazado_114141" data-name="Trazado 114141" d="M2367.685,674.282s.014-.129.03-.695c-2.088-.755-2.875.205-3.167.908a3.229,3.229,0,0,0,.586,1.852S2364.605,673.382,2367.685,674.282Z" transform="translate(-2364.548 -670.486)" fill="#fff"/>
        <path id="Trazado_114142" data-name="Trazado 114142" d="M2378.752,660.757c-.365.337-.833,1.235-1.211,1.674,0,0-1.046,1.86-4.188,1.876s-3.747.1-3.747.1-3.1-1.209-2.552,2.065c0,0,.386.819,2.448.786s7.394-.344,7.981-1.688c.506-1.157,1.381-2.789,2.312-3.258A9.247,9.247,0,0,1,2378.752,660.757Z" transform="translate(-2366.468 -660.613)" fill="#ea8f8f"/>
        <path id="Trazado_114143" data-name="Trazado 114143" d="M2395.118,664.988a5.516,5.516,0,0,1-4.522.233,17.45,17.45,0,0,0-5.811-1.125s-.093-1.781,1.124-1.844a2.562,2.562,0,0,1,1.815.49,29.509,29.509,0,0,0,4.159-.652,5.2,5.2,0,0,1,.894-1.626C2393.168,660.175,2395.646,662.371,2395.118,664.988Z" transform="translate(-2380.461 -660.363)" fill="#fabb9b"/>
        <path id="Trazado_114144" data-name="Trazado 114144" d="M2372.025,677.841s-2.183-.134-1.94,1.194c.267,1.462,1.6,1.231,2.911,1.273s6.008-.534,6.208-.9S2375.177,677.934,2372.025,677.841Z" transform="translate(-2368.888 -674.045)" fill="#fabb9b"/>
        <path id="Trazado_114145" data-name="Trazado 114145" d="M2397.712,667.428a4.218,4.218,0,0,1,.328,2.676c-.487,1.3-4.521.461-5.589-.114a9.686,9.686,0,0,0-3.432-.325,18.046,18.046,0,0,1,4.651.955c.083.03.165.061.247.093l.01,0a5.494,5.494,0,0,0,1.551.358c.138.011.274.017.405.018s.26,0,.385-.011q.093-.006.183-.015c.18-.017.352-.042.512-.073q.161-.03.307-.067c.2-.048.37-.1.521-.156.076-.027.146-.053.209-.079a3.581,3.581,0,0,0,.448-.21A5.43,5.43,0,0,0,2397.712,667.428Z" transform="translate(-2383.792 -665.859)" fill="#ea8f8f"/>
        <path id="Trazado_114146" data-name="Trazado 114146" d="M2424.772,662.394a4.105,4.105,0,0,0-2.71-2.312c-.006.073-.008.114-.008.114,2.646,1.287,2.375,4.511,2.375,4.511A8.156,8.156,0,0,0,2424.772,662.394Z" transform="translate(-2409.771 -660.082)" fill="#f3f2f3"/>
        <path id="Trazado_114147" data-name="Trazado 114147" d="M2427.538,664.617a2.2,2.2,0,0,0-.966-.919,5.146,5.146,0,0,1,1.409,3.853,8.146,8.146,0,0,0,.344-2.314C2428.194,666.985,2427.83,665.335,2427.538,664.617Z" transform="translate(-2413.325 -662.926)" fill="#a6adcb" opacity="0.61"/>
        <path id="Trazado_114148" data-name="Trazado 114148" d="M2367.811,675.411c-1.333-1.069-2.073-.293-2.178.63a1.507,1.507,0,0,1-.308.708,2.271,2.271,0,0,0,.42.842S2365.276,674.953,2367.811,675.411Z" transform="translate(-2365.159 -671.73)" fill="#a6adcb" opacity="0.61"/>
      </g>
    </g>
  </g>
</svg>
