<svg xmlns="http://www.w3.org/2000/svg" width="151.8" height="178.001" viewBox="0 0 151.8 178.001">
  <g id="escudo-seguro_1_" data-name="escudo-seguro(1)" transform="translate(-37.681 0)">
    <g id="Grupo_957503" data-name="Grupo 957503" transform="translate(41.426 3.743)">
      <path id="Trazado_657578" data-name="Trazado 657578" d="M160.7,78.908l-46.156,46.155a8.431,8.431,0,0,1-11.923,0L80.515,102.954A8.432,8.432,0,0,1,92.438,91.03l16.148,16.147,40.193-40.193A8.431,8.431,0,1,1,160.7,78.908Zm-40.1-68.14a292.719,292.719,0,0,1-72.154,30.6V79.63c0,71.776,62.076,101.65,72.154,101.65s72.158-29.874,72.158-101.65V41.373A301.858,301.858,0,0,1,120.606,10.768Z" transform="translate(-48.452 -10.768)" fill="#2ff980"/>
      <path id="Trazado_657579" data-name="Trazado 657579" d="M170.077,225.914l46.156-46.155a8.431,8.431,0,0,0-11.924-11.924l-40.193,40.193-16.148-16.147a8.432,8.432,0,1,0-11.924,11.925l22.109,22.108A8.431,8.431,0,0,0,170.077,225.914Z" transform="translate(-103.982 -111.619)" fill="#fff"/>
    </g>
    <g id="Grupo_957504" data-name="Grupo 957504" transform="translate(37.681 0)">
      <path id="Trazado_657580" data-name="Trazado 657580" d="M186.726,30.737A296.093,296.093,0,0,1,115.486.52a3.743,3.743,0,0,0-3.807,0A287.985,287.985,0,0,1,40.436,30.737a3.744,3.744,0,0,0-2.755,3.611V72.606c0,39.4,18.175,65.476,33.423,80.415C87.519,169.106,106.64,178,113.582,178s26.063-8.895,42.478-24.979c15.247-14.939,33.421-41.018,33.421-80.415V34.348A3.744,3.744,0,0,0,186.726,30.737Zm-4.734,41.869c0,36.8-16.952,61.131-31.174,75.066-16.142,15.817-33.4,22.839-37.236,22.839s-21.1-7.023-37.238-22.839C62.123,133.737,45.17,109.4,45.17,72.606V37.19A294.885,294.885,0,0,0,113.583,8.083a304.219,304.219,0,0,0,68.41,29.106Z" transform="translate(-37.681 0)" fill="#000003"/>
      <path id="Trazado_657581" data-name="Trazado 657581" d="M108.213,101.316a3.744,3.744,0,0,0-4.856-2.111c-6.689,2.636-13.554,5.062-20.406,7.211a3.745,3.745,0,0,0-2.624,3.573v14.459a3.744,3.744,0,0,0,7.489,0V112.725c6.146-1.989,12.286-4.188,18.286-6.553A3.743,3.743,0,0,0,108.213,101.316Z" transform="translate(-65.501 -64.545)" fill="#000003"/>
      <path id="Trazado_657582" data-name="Trazado 657582" d="M173.955,93.717a3.746,3.746,0,0,0,1.5-.315l.069-.03a3.744,3.744,0,1,0-3.024-6.851l-.06.026a3.743,3.743,0,0,0,1.514,7.169Z" transform="translate(-124.13 -56.235)" fill="#000003"/>
      <path id="Trazado_657583" data-name="Trazado 657583" d="M331.488,346.138a3.745,3.745,0,0,0-5.183,1.086,91.135,91.135,0,0,1-10.76,13.44,95.643,95.643,0,0,1-10.74,9.555,3.744,3.744,0,1,0,4.541,5.955,103.2,103.2,0,0,0,11.583-10.305,98.528,98.528,0,0,0,11.646-14.549A3.744,3.744,0,0,0,331.488,346.138Z" transform="translate(-210.976 -225.403)" fill="#000003"/>
      <path id="Trazado_657584" data-name="Trazado 657584" d="M278.647,432.479l-.215.127a3.744,3.744,0,1,0,3.751,6.48l.248-.146a3.744,3.744,0,1,0-3.784-6.461Z" transform="translate(-193.514 -281.79)" fill="#000003"/>
      <path id="Trazado_657585" data-name="Trazado 657585" d="M143.6,182.21a12.176,12.176,0,0,0-17.219,17.22l22.11,22.109a12.179,12.179,0,0,0,17.219,0l46.155-46.156a12.176,12.176,0,0,0-17.22-17.218L157.1,195.709Zm56.341-18.75a4.687,4.687,0,1,1,6.629,6.628l-46.155,46.155a4.691,4.691,0,0,1-6.629,0l-22.109-22.108a4.687,4.687,0,0,1,6.629-6.629l16.147,16.147a3.745,3.745,0,0,0,5.294,0Z" transform="translate(-93.222 -100.852)" fill="#000003"/>
    </g>
  </g>
</svg>
