<svg xmlns="http://www.w3.org/2000/svg" width="105" height="105" viewBox="0 0 105 105">
  <g id="Grupo_956952" data-name="Grupo 956952" transform="translate(-509 -32334)">
    <g id="Grupo_956943" data-name="Grupo 956943" transform="translate(509 32334)">
      <g id="_240_F_321763424_EUgnpmBP81OrR6HvnHsT5Mthjtk0JLcN" data-name="240_F_321763424_EUgnpmBP81OrR6HvnHsT5Mthjtk0JLcN" fill="#fff" stroke="#332862" stroke-width="6">
        <circle cx="52.5" cy="52.5" r="52.5" stroke="none"/>
        <circle cx="52.5" cy="52.5" r="49.5" fill="none"/>
      </g>
    </g>
    <g id="Grupo_956954" data-name="Grupo 956954" transform="translate(78.002 -173.994)">
      <path id="Elipse_5654" data-name="Elipse 5654" d="M38.99,13.273A25.717,25.717,0,1,0,64.708,38.99,25.746,25.746,0,0,0,38.99,13.273M38.99,0A38.99,38.99,0,1,1,0,38.99,38.99,38.99,0,0,1,38.99,0Z" transform="translate(445 32522)" fill="#e6e1fb"/>
      <path id="Sustracción_3" data-name="Sustracción 3" d="M23.788,29.219v0A25.659,25.659,0,0,0,0,13.274V0A38.946,38.946,0,0,1,34.447,20.71L23.789,29.217Z" transform="translate(483.991 32521.996)" fill="#342287"/>
      <text id="_17_" data-name="17 %" transform="translate(463.67 32565.627)" fill="#12263f" font-size="19" font-family="Roboto-Black, Roboto" font-weight="800"><tspan x="0" y="0">17 %</tspan></text>
    </g>
  </g>
</svg>
