<svg xmlns="http://www.w3.org/2000/svg" width="280.583" height="262.106" viewBox="0 0 280.583 262.106">
  <g id="Grupo_953600" data-name="Grupo 953600" transform="translate(-800.268 -2572.736)">
    <g id="Grupo_953609" data-name="Grupo 953609">
      <g id="Grupo_953608" data-name="Grupo 953608">
        <path id="Trazado_636831" data-name="Trazado 636831" d="M803.353,2817.3v16.119h3.723a22.633,22.633,0,0,1,0-5.111c.357-1.9,4.4-6.8,4.279-11.008Z" fill="#ebebeb"/>
        <path id="Trazado_636832" data-name="Trazado 636832" d="M833.134,2817.3v16.119h3.723a22.572,22.572,0,0,1,0-5.111c.357-1.9,4.4-6.8,4.279-11.008Z" fill="#e0e0e0"/>
        <path id="Trazado_636833" data-name="Trazado 636833" d="M862.281,2817.3v16.119h-3.722a22.637,22.637,0,0,0,0-5.111c-.357-1.9-4.4-6.8-4.279-11.008Z" fill="#ebebeb"/>
        <path id="Trazado_636834" data-name="Trazado 636834" d="M888.06,2817.3v16.119h-3.723a22.572,22.572,0,0,0,0-5.111c-.356-1.9-4.4-6.8-4.279-11.008Z" fill="#e0e0e0"/>
        <rect id="Rectángulo_44958" data-name="Rectángulo 44958" width="89.19" height="80.096" transform="translate(800.821 2737.723)" fill="#f5f5f5"/>
        <path id="Trazado_636835" data-name="Trazado 636835" d="M865.984,2737.723l.664,80.1h23.364v-80.1Z" fill="#e0e0e0"/>
        <rect id="Rectángulo_44959" data-name="Rectángulo 44959" width="57.263" height="20.38" transform="translate(804.835 2743.615)" fill="#ebebeb"/>
        <rect id="Rectángulo_44960" data-name="Rectángulo 44960" width="57.263" height="20.38" transform="translate(804.835 2768.059)" fill="#ebebeb"/>
        <rect id="Rectángulo_44961" data-name="Rectángulo 44961" width="57.263" height="20.38" transform="translate(804.835 2792.503)" fill="#ebebeb"/>
        <g id="Grupo_953607" data-name="Grupo 953607">
          <g id="Grupo_953602" data-name="Grupo 953602">
            <g id="Grupo_953601" data-name="Grupo 953601">
              <path id="Trazado_636836" data-name="Trazado 636836" d="M826.786,2714.708l-2.47,22.921h31.646l2.625-22.921Z" fill="#e0e0e0"/>
            </g>
          </g>
          <g id="Grupo_953604" data-name="Grupo 953604">
            <g id="Grupo_953603" data-name="Grupo 953603">
              <path id="Trazado_636837" data-name="Trazado 636837" d="M828.087,2716.354l-2.4,20.057h28.56l2.311-20.057Z" fill="#fff"/>
            </g>
          </g>
          <g id="Grupo_953606" data-name="Grupo 953606">
            <g id="Grupo_953605" data-name="Grupo 953605">
              <path id="Trazado_636838" data-name="Trazado 636838" d="M832.893,2719.728l-1.479,13.31h18.023l.925-13.31Z" fill="#ebebeb"/>
            </g>
          </g>
        </g>
        <path id="Trazado_636839" data-name="Trazado 636839" d="M857.456,2724.579l6.537,13.142-8.031-.092,1.494-13.05" fill="#ebebeb"/>
      </g>
      <path id="Trazado_636840" data-name="Trazado 636840" d="M835.561,2754.871a2.094,2.094,0,1,1-2.095-2.1A2.1,2.1,0,0,1,835.561,2754.871Z" fill="#e0e0e0"/>
      <path id="Trazado_636841" data-name="Trazado 636841" d="M835.561,2779.557a2.094,2.094,0,1,1-2.095-2.095A2.094,2.094,0,0,1,835.561,2779.557Z" fill="#e0e0e0"/>
      <path id="Trazado_636842" data-name="Trazado 636842" d="M835.561,2804.243a2.094,2.094,0,1,1-2.095-2.095A2.095,2.095,0,0,1,835.561,2804.243Z" fill="#e0e0e0"/>
    </g>
    <g id="Grupo_953618" data-name="Grupo 953618">
      <g id="Grupo_953611" data-name="Grupo 953611">
        <g id="Grupo_953610" data-name="Grupo 953610">
          <path id="Trazado_636843" data-name="Trazado 636843" d="M862.008,2607.52l-50.573-.492,1.412,65.907,50.566.186Z" fill="#e0e0e0"/>
        </g>
      </g>
      <g id="Grupo_953613" data-name="Grupo 953613">
        <g id="Grupo_953612" data-name="Grupo 953612">
          <path id="Trazado_636844" data-name="Trazado 636844" d="M858.746,2610.46l-44.27-1.15,1.281,59.774,44.257.545Z" fill="#fafafa"/>
        </g>
      </g>
      <g id="Grupo_953615" data-name="Grupo 953615">
        <g id="Grupo_953614" data-name="Grupo 953614">
          <path id="Trazado_636845" data-name="Trazado 636845" d="M851.189,2619.389l-29.372-.489.9,41.779,29.348-.629Z" fill="#ebebeb"/>
        </g>
      </g>
      <g id="Grupo_953617" data-name="Grupo 953617">
        <g id="Grupo_953616" data-name="Grupo 953616">
          <path id="Trazado_636846" data-name="Trazado 636846" d="M822.712,2660.68l28.888-22.093L821.817,2618.9Z" fill="#f5f5f5"/>
        </g>
      </g>
    </g>
    <g id="Grupo_953627" data-name="Grupo 953627">
      <g id="Grupo_953620" data-name="Grupo 953620">
        <g id="Grupo_953619" data-name="Grupo 953619">
          <path id="Trazado_636847" data-name="Trazado 636847" d="M1079.617,2573.168l-44.366-.431,1.239,57.818,44.36.163Z" fill="#e0e0e0"/>
        </g>
      </g>
      <g id="Grupo_953622" data-name="Grupo 953622">
        <g id="Grupo_953621" data-name="Grupo 953621">
          <path id="Trazado_636848" data-name="Trazado 636848" d="M1076.755,2575.747l-38.836-1.009,1.124,52.438,38.825.478Z" fill="#fafafa"/>
        </g>
      </g>
      <g id="Grupo_953624" data-name="Grupo 953624">
        <g id="Grupo_953623" data-name="Grupo 953623">
          <path id="Trazado_636849" data-name="Trazado 636849" d="M1070.126,2583.58l-25.767-.428.785,36.651,25.746-.552Z" fill="#ebebeb"/>
        </g>
      </g>
      <g id="Grupo_953626" data-name="Grupo 953626">
        <g id="Grupo_953625" data-name="Grupo 953625">
          <path id="Trazado_636850" data-name="Trazado 636850" d="M1045.144,2619.8l25.343-19.381-26.128-17.27Z" fill="#f5f5f5"/>
        </g>
      </g>
    </g>
    <g id="Grupo_953634" data-name="Grupo 953634">
      <g id="Grupo_953628" data-name="Grupo 953628">
        <path id="Trazado_636851" data-name="Trazado 636851" d="M1029.919,2790.554c-.189.567,6.43,25.72,6.43,25.72l4.539-.946-6.241-24.774Z" fill="#ebebeb"/>
      </g>
      <g id="Grupo_953629" data-name="Grupo 953629">
        <path id="Trazado_636852" data-name="Trazado 636852" d="M1065.095,2786.961l-9.078,29.313h5.3l8.7-27.233Z" fill="#f5f5f5"/>
      </g>
      <g id="Grupo_953630" data-name="Grupo 953630">
        <path id="Trazado_636853" data-name="Trazado 636853" d="M1073.416,2782.422l-10.4,33.852h5.3l10.023-31.771Z" fill="#ebebeb"/>
      </g>
      <g id="Grupo_953631" data-name="Grupo 953631">
        <path id="Trazado_636854" data-name="Trazado 636854" d="M1033.134,2814.193l5.3,18.344h26.666l4.917-18.344Z" fill="#e0e0e0"/>
      </g>
      <g id="Grupo_953633" data-name="Grupo 953633">
        <g id="Grupo_953632" data-name="Grupo 953632">
          <path id="Trazado_636855" data-name="Trazado 636855" d="M1046.889,2814.193a.918.918,0,0,1-.059-.188l-.141-.561c-.122-.516-.293-1.241-.512-2.166-.436-1.909-1.06-4.637-1.832-8.012-1.525-6.806-3.632-16.213-5.985-26.714l.163.131h-4.669l.163-.2,6.021,26.737c.747,3.384,1.35,6.121,1.772,8.034.2.931.354,1.661.464,2.18l.113.568a.851.851,0,0,1,.027.2.934.934,0,0,1-.059-.188l-.144-.561c-.125-.515-.3-1.241-.524-2.166l-1.873-8.011-6.123-26.714-.047-.2h5.014l.028.131c2.313,10.51,4.385,19.924,5.884,26.736.729,3.384,1.318,6.121,1.73,8.034.194.931.345,1.661.453,2.18l.11.568A.9.9,0,0,1,1046.889,2814.193Z" fill="#e0e0e0"/>
        </g>
      </g>
    </g>
    <g id="Grupo_953636" data-name="Grupo 953636">
      <g id="Grupo_953635" data-name="Grupo 953635">
        <path id="Trazado_636856" data-name="Trazado 636856" d="M1072.945,2833.3c0,.092-61.046.167-136.332.167-75.312,0-136.345-.075-136.345-.167s61.033-.168,136.345-.168C1011.9,2833.137,1072.945,2833.212,1072.945,2833.3Z" fill="#263238"/>
      </g>
    </g>
    <g id="Grupo_953653" data-name="Grupo 953653">
      <g id="Grupo_953638" data-name="Grupo 953638">
        <g id="Grupo_953637" data-name="Grupo 953637">
          <path id="Trazado_636857" data-name="Trazado 636857" d="M1055.393,2657.811a2.442,2.442,0,0,0-.456-.14,3.171,3.171,0,0,0-1.394.02,5.049,5.049,0,0,0-2.028,1.041,10.8,10.8,0,0,0-2.057,2.4,43.092,43.092,0,0,0-3.563,8.062,118.127,118.127,0,0,0-3.626,11.335l0,.015-.005.009a3.328,3.328,0,0,1-.75.928,1.481,1.481,0,0,1-1.169.373,2.167,2.167,0,0,1-1.076-.621c-.3-.279-.582-.575-.866-.873a19.842,19.842,0,0,0-1.782-1.739,3.283,3.283,0,0,0-2.253-.921,3.046,3.046,0,0,0-2.066,1.377,5.176,5.176,0,0,0-.711,2.553,25.7,25.7,0,0,0,.744,5.621q.537,2.885,1.1,5.907.281,1.511.569,3.056.142.773.289,1.553a2.017,2.017,0,0,1-.184,1.646.813.813,0,0,1-.859.292,2.153,2.153,0,0,1-.76-.4l-1.305-.977a29.143,29.143,0,0,0-2.724-1.834,10.393,10.393,0,0,0-3.048-1.269,3.581,3.581,0,0,0-1.622.011,2.4,2.4,0,0,0-1.321.887,5.449,5.449,0,0,0-.866,3.213,18.024,18.024,0,0,0,.337,3.485,44.458,44.458,0,0,0,1.96,6.93,9.18,9.18,0,0,1,.562,1.788,1.305,1.305,0,0,1-.238.992,1.214,1.214,0,0,1-.186.187.624.624,0,0,1-.25.147.77.77,0,0,1-.56-.123,9.6,9.6,0,0,1-1.487-1.183l-1.378-1.278a20.457,20.457,0,0,0-2.924-2.354,6.147,6.147,0,0,0-1.687-.768,2.094,2.094,0,0,0-1.719.213,2.489,2.489,0,0,0-.972,1.49,7.548,7.548,0,0,0-.23,1.881,15.891,15.891,0,0,0,.484,3.84,33.425,33.425,0,0,0,2.792,7.39,55.93,55.93,0,0,0,4.162,6.914,39.494,39.494,0,0,0,2.5,3.234l2.611,3.2.03.037-.154-.06,4.087-.594a37.9,37.9,0,0,0,4.033-.7,55.865,55.865,0,0,0,7.733-2.32,33.416,33.416,0,0,0,7.039-3.592,15.9,15.9,0,0,0,2.943-2.518,7.6,7.6,0,0,0,1.1-1.547,2.5,2.5,0,0,0,.284-1.757,2.1,2.1,0,0,0-1.128-1.315,6.148,6.148,0,0,0-1.766-.566,20.439,20.439,0,0,0-3.748-.224l-1.88.02a9.617,9.617,0,0,1-1.9-.125.765.765,0,0,1-.5-.286.625.625,0,0,1-.085-.277,1.15,1.15,0,0,1-.012-.264,1.307,1.307,0,0,1,.492-.894,9.227,9.227,0,0,1,1.619-.945,44.473,44.473,0,0,0,6.111-3.813,18.023,18.023,0,0,0,2.593-2.354,5.442,5.442,0,0,0,1.517-2.962,2.4,2.4,0,0,0-.384-1.544,3.582,3.582,0,0,0-1.2-1.1,10.359,10.359,0,0,0-3.109-1.108,29.275,29.275,0,0,0-3.25-.474l-1.623-.154a2.151,2.151,0,0,1-.829-.221.81.81,0,0,1-.433-.8,2.029,2.029,0,0,1,.975-1.339l1.258-.955,2.475-1.879,4.786-3.632a25.65,25.65,0,0,0,4.329-3.66,5.178,5.178,0,0,0,1.189-2.369,3.048,3.048,0,0,0-.606-2.407,2.213,2.213,0,0,0-1.053-.628,5.1,5.1,0,0,0-1.235-.2,19.945,19.945,0,0,0-2.487.089c-.41.03-.818.06-1.228.064a2.158,2.158,0,0,1-1.214-.265,1.48,1.48,0,0,1-.613-1.062,3.3,3.3,0,0,1,.069-1.19l0-.01.007-.014a117.84,117.84,0,0,0,4.93-10.809,44.307,44.307,0,0,0,2.794-8.344,10.861,10.861,0,0,0,.128-3.152,5.119,5.119,0,0,0-.748-2.149,3.078,3.078,0,0,0-1-.971,2.414,2.414,0,0,0-.428-.208,1.72,1.72,0,0,1,.442.184,3.015,3.015,0,0,1,1.028.964,5.124,5.124,0,0,1,.784,2.169,10.9,10.9,0,0,1-.1,3.181,43.865,43.865,0,0,1-2.756,8.385,116.388,116.388,0,0,1-4.9,10.849l.01-.023a3.1,3.1,0,0,0-.061,1.108,1.277,1.277,0,0,0,.525.918,1.977,1.977,0,0,0,1.1.226c.4-.006.8-.036,1.212-.068a20.1,20.1,0,0,1,2.516-.1,5.284,5.284,0,0,1,1.291.21,2.438,2.438,0,0,1,1.155.689,3.266,3.266,0,0,1,.671,2.6,5.412,5.412,0,0,1-1.234,2.485,25.82,25.82,0,0,1-4.367,3.714l-4.775,3.638-2.47,1.882-1.256.957a2.9,2.9,0,0,0-.571.5,1.294,1.294,0,0,0-.3.642.524.524,0,0,0,.293.528,1.881,1.881,0,0,0,.723.184l1.618.152a29.416,29.416,0,0,1,3.283.473,10.652,10.652,0,0,1,3.2,1.14,3.88,3.88,0,0,1,1.293,1.188,2.7,2.7,0,0,1,.433,1.728,5.72,5.72,0,0,1-1.587,3.139,18.244,18.244,0,0,1-2.634,2.4,44.813,44.813,0,0,1-6.152,3.847,9.12,9.12,0,0,0-1.556.9.986.986,0,0,0-.385.677.837.837,0,0,0,.01.2c.007.051.026.173.045.162a.549.549,0,0,0,.3.138,9.546,9.546,0,0,0,1.821.114l1.877-.021a20.74,20.74,0,0,1,3.809.226,6.457,6.457,0,0,1,1.862.6,2.418,2.418,0,0,1,1.29,1.523,2.819,2.819,0,0,1-.308,1.98,7.9,7.9,0,0,1-1.143,1.619,16.251,16.251,0,0,1-3,2.571,33.757,33.757,0,0,1-7.107,3.632,56.31,56.31,0,0,1-7.782,2.336,37.632,37.632,0,0,1-4.048.7l-4.094.6-.094.013-.06-.073-.03-.037-2.614-3.2a39.649,39.649,0,0,1-2.514-3.245,56.227,56.227,0,0,1-4.187-6.959,33.771,33.771,0,0,1-2.816-7.465,16.17,16.17,0,0,1-.49-3.919,7.888,7.888,0,0,1,.242-1.966,2.813,2.813,0,0,1,1.106-1.671,2.417,2.417,0,0,1,1.978-.258,6.427,6.427,0,0,1,1.78.809,20.674,20.674,0,0,1,2.97,2.393l1.376,1.277a9.463,9.463,0,0,0,1.423,1.14.556.556,0,0,0,.315.1c.007.02.1-.057.142-.09a.8.8,0,0,0,.14-.14.988.988,0,0,0,.172-.76,9.131,9.131,0,0,0-.543-1.715,44.8,44.8,0,0,1-1.967-6.982,18.355,18.355,0,0,1-.338-3.546,5.728,5.728,0,0,1,.934-3.391,2.7,2.7,0,0,1,1.48-.99,3.876,3.876,0,0,1,1.756-.013,10.641,10.641,0,0,1,3.135,1.308,29.293,29.293,0,0,1,2.749,1.856l1.3.976a1.891,1.891,0,0,0,.659.351.522.522,0,0,0,.573-.189,1.278,1.278,0,0,0,.216-.673,2.879,2.879,0,0,0-.084-.756q-.142-.78-.286-1.551-.283-1.545-.563-3.055-.556-3.021-1.088-5.9a25.891,25.891,0,0,1-.737-5.686,5.426,5.426,0,0,1,.756-2.67,3.273,3.273,0,0,1,2.244-1.477,2.444,2.444,0,0,1,1.32.265,5.314,5.314,0,0,1,1.1.712,20.01,20.01,0,0,1,1.8,1.763c.282.3.561.593.852.866a1.968,1.968,0,0,0,.964.57,1.269,1.269,0,0,0,1.006-.325,3.121,3.121,0,0,0,.7-.861l-.009.023a117.026,117.026,0,0,1,3.676-11.344,42.668,42.668,0,0,1,3.62-8.067,10.786,10.786,0,0,1,2.1-2.4,5.059,5.059,0,0,1,2.068-1.031,3.1,3.1,0,0,1,1.412.007A1.771,1.771,0,0,1,1055.393,2657.811Z" fill="#263238"/>
        </g>
      </g>
      <g id="Grupo_953640" data-name="Grupo 953640">
        <g id="Grupo_953639" data-name="Grupo 953639">
          <path id="Trazado_636858" data-name="Trazado 636858" d="M1052.02,2666.558a1.136,1.136,0,0,1-.065.21l-.221.6c-.21.548-.505,1.323-.883,2.312l-3.271,8.491-10.679,28.057c-4.156,10.966-7.957,20.879-10.773,28.029-1.407,3.575-2.559,6.464-3.371,8.453l-.941,2.288-.252.592a1.127,1.127,0,0,1-.1.2,1.094,1.094,0,0,1,.065-.21l.222-.6c.209-.548.5-1.323.882-2.311l3.271-8.491c2.74-7.2,6.512-17.11,10.681-28.062s7.955-20.874,10.771-28.024c1.407-3.575,2.559-6.464,3.371-8.453.4-.979.718-1.746.941-2.289l.252-.592A1.083,1.083,0,0,1,1052.02,2666.558Z" fill="#263238"/>
        </g>
      </g>
      <g id="Grupo_953642" data-name="Grupo 953642">
        <g id="Grupo_953641" data-name="Grupo 953641">
          <path id="Trazado_636859" data-name="Trazado 636859" d="M1052.366,2688.746a11.291,11.291,0,0,1-1.608.955l-3.939,2.191c-1.539.855-2.941,1.618-3.975,2.136a8.668,8.668,0,0,1-1.718.749,13,13,0,0,1,1.606-.958l3.925-2.22c1.54-.856,2.952-1.6,3.991-2.108A9.587,9.587,0,0,1,1052.366,2688.746Z" fill="#263238"/>
        </g>
      </g>
      <g id="Grupo_953644" data-name="Grupo 953644">
        <g id="Grupo_953643" data-name="Grupo 953643">
          <path id="Trazado_636860" data-name="Trazado 636860" d="M1040.6,2694.388c-.083.041-1.612-2.876-3.415-6.516s-3.2-6.625-3.115-6.666,1.612,2.876,3.415,6.517S1040.688,2694.347,1040.6,2694.388Z" fill="#263238"/>
        </g>
      </g>
      <g id="Grupo_953646" data-name="Grupo 953646">
        <g id="Grupo_953645" data-name="Grupo 953645">
          <path id="Trazado_636861" data-name="Trazado 636861" d="M1034.983,2711.514a9.873,9.873,0,0,1-1.414-1.288c-.834-.836-1.954-2.023-3.117-3.4s-2.153-2.676-2.837-3.638a9.738,9.738,0,0,1-1.036-1.607,12.1,12.1,0,0,1,1.225,1.465c.73.923,1.743,2.194,2.9,3.563s2.245,2.579,3.033,3.454A12.072,12.072,0,0,1,1034.983,2711.514Z" fill="#263238"/>
        </g>
      </g>
      <g id="Grupo_953648" data-name="Grupo 953648">
        <g id="Grupo_953647" data-name="Grupo 953647">
          <path id="Trazado_636862" data-name="Trazado 636862" d="M1046.744,2708.751a9.117,9.117,0,0,1-1.7.5c-1.056.265-2.521.608-4.143.968s-3.1.666-4.165.872a.886.886,0,1,1-.051-.232c1.056-.265,2.521-.608,4.144-.967s3.094-.666,4.164-.872A9.287,9.287,0,0,1,1046.744,2708.751Z" fill="#263238"/>
        </g>
      </g>
      <g id="Grupo_953650" data-name="Grupo 953650">
        <g id="Grupo_953649" data-name="Grupo 953649">
          <path id="Trazado_636863" data-name="Trazado 636863" d="M1043.7,2724.5a15.25,15.25,0,0,1-2.186.583c-1.359.318-3.241.735-5.325,1.176s-3.974.821-5.346,1.08a15.055,15.055,0,0,1-2.234.351,15.1,15.1,0,0,1,2.185-.583c1.36-.318,3.242-.735,5.326-1.176s3.974-.821,5.345-1.08A14.959,14.959,0,0,1,1043.7,2724.5Z" fill="#263238"/>
        </g>
      </g>
      <g id="Grupo_953652" data-name="Grupo 953652">
        <g id="Grupo_953651" data-name="Grupo 953651">
          <path id="Trazado_636864" data-name="Trazado 636864" d="M1028.95,2727.513a2.415,2.415,0,0,1-.483-.439c-.3-.3-.711-.737-1.217-1.289-1.008-1.1-2.368-2.664-3.794-4.449s-2.655-3.45-3.511-4.677c-.429-.613-.766-1.117-.991-1.469a2.426,2.426,0,0,1-.322-.568,2.481,2.481,0,0,1,.428.492l1.076,1.405c.9,1.19,2.157,2.829,3.582,4.608s2.749,3.359,3.71,4.5A19.177,19.177,0,0,1,1028.95,2727.513Z" fill="#263238"/>
        </g>
      </g>
    </g>
    <g id="Grupo_953673" data-name="Grupo 953673">
      <g id="Grupo_953655" data-name="Grupo 953655">
        <g id="Grupo_953654" data-name="Grupo 953654">
          <path id="Trazado_636865" data-name="Trazado 636865" d="M1022.519,2770.583c-11.165-9-12.782-24.387-11.381-38.025.234-2.276.148-4.7,1.371-6.627s3.85-3.122,5.827-2.02c1.64.914,2.243,2.936,3.079,4.631a13.374,13.374,0,0,0,5,5.478c1.4.854,3.167,1.438,4.656.746,2.043-.951,2.461-3.655,2.6-5.925q.394-6.348.791-12.7a21.234,21.234,0,0,1,1.147-6.693,7.057,7.057,0,0,1,4.751-4.457c2.2-.456,4.785.972,5.089,3.225a21.027,21.027,0,0,1-.13,2.83,2.4,2.4,0,0,0,1.243,2.343,2.752,2.752,0,0,0,2.564-.871,30.275,30.275,0,0,0,5.978-7.807,41.973,41.973,0,0,1,5.632-8.094c2.3-2.353,5.373-4.132,8.635-4.093s6.589,2.282,7.191,5.529-1.485,6.374-3.694,8.825a50.766,50.766,0,0,1-11.237,9.33,4.192,4.192,0,0,0-1.9,1.776c-.6,1.48.734,3.081,2.194,3.68,1.653.68,3.5.63,5.256.96s3.618,1.242,4.173,2.96c.771,2.383-1.336,4.682-3.354,6.143a43.494,43.494,0,0,1-13.352,6.533,14.67,14.67,0,0,0-4.932,1.992c-1.427,1.081-2.379,3.065-1.676,4.719s2.757,2.311,4.528,2.106a30.386,30.386,0,0,0,5.111-1.56c3.2-.964,7.212-.472,9.025,2.36a7.2,7.2,0,0,1,.329,6.4,16.585,16.585,0,0,1-3.826,5.372,43.747,43.747,0,0,1-19.531,11.817c-7.406,2.012-14.157,2.231-21.166-.892" fill="#4fd7ff"/>
        </g>
      </g>
      <g id="Grupo_953657" data-name="Grupo 953657" opacity="0.1">
        <g id="Grupo_953656" data-name="Grupo 953656">
          <path id="Trazado_636866" data-name="Trazado 636866" d="M1022.519,2770.583c-11.165-9-12.782-24.387-11.381-38.025.234-2.276.148-4.7,1.371-6.627s3.85-3.122,5.827-2.02c1.64.914,2.243,2.936,3.079,4.631a13.374,13.374,0,0,0,5,5.478c1.4.854,3.167,1.438,4.656.746,2.043-.951,2.461-3.655,2.6-5.925q.394-6.348.791-12.7a21.234,21.234,0,0,1,1.147-6.693,7.057,7.057,0,0,1,4.751-4.457c2.2-.456,4.785.972,5.089,3.225a21.027,21.027,0,0,1-.13,2.83,2.4,2.4,0,0,0,1.243,2.343,2.752,2.752,0,0,0,2.564-.871,30.275,30.275,0,0,0,5.978-7.807,41.973,41.973,0,0,1,5.632-8.094c2.3-2.353,5.373-4.132,8.635-4.093s6.589,2.282,7.191,5.529-1.485,6.374-3.694,8.825a50.766,50.766,0,0,1-11.237,9.33,4.192,4.192,0,0,0-1.9,1.776c-.6,1.48.734,3.081,2.194,3.68,1.653.68,3.5.63,5.256.96s3.618,1.242,4.173,2.96c.771,2.383-1.336,4.682-3.354,6.143a43.494,43.494,0,0,1-13.352,6.533,14.67,14.67,0,0,0-4.932,1.992c-1.427,1.081-2.379,3.065-1.676,4.719s2.757,2.311,4.528,2.106a30.386,30.386,0,0,0,5.111-1.56c3.2-.964,7.212-.472,9.025,2.36a7.2,7.2,0,0,1,.329,6.4,16.585,16.585,0,0,1-3.826,5.372,43.747,43.747,0,0,1-19.531,11.817c-7.406,2.012-14.157,2.231-21.166-.892"/>
        </g>
      </g>
      <g id="Grupo_953660" data-name="Grupo 953660">
        <g id="Grupo_953659" data-name="Grupo 953659">
          <g id="Grupo_953658" data-name="Grupo 953658">
            <path id="Trazado_636867" data-name="Trazado 636867" d="M1021.644,2780.706a99.88,99.88,0,0,1,4.991-18.45,203.742,203.742,0,0,1,9.574-21.34q1.418-2.767,2.8-5.465c.922-1.792,1.837-3.568,2.839-5.251a101.62,101.62,0,0,1,6.31-9.338c2.15-2.873,4.3-5.521,6.32-7.983s3.966-4.713,5.818-6.694a80.688,80.688,0,0,1,9.426-8.685c1.189-.936,2.134-1.63,2.782-2.093l.74-.521a1.7,1.7,0,0,1,.26-.165,1.609,1.609,0,0,1-.235.2c-.178.138-.415.321-.715.555-.631.484-1.56,1.2-2.732,2.153a85.307,85.307,0,0,0-9.31,8.761c-1.833,1.988-3.751,4.249-5.767,6.713s-4.144,5.122-6.281,7.994a103.069,103.069,0,0,0-6.265,9.315c-.993,1.675-1.9,3.437-2.821,5.233s-1.85,3.619-2.794,5.463a208.805,208.805,0,0,0-9.586,21.284,101.61,101.61,0,0,0-5.059,18.363" fill="#263238"/>
          </g>
        </g>
      </g>
      <g id="Grupo_953663" data-name="Grupo 953663">
        <g id="Grupo_953662" data-name="Grupo 953662">
          <g id="Grupo_953661" data-name="Grupo 953661">
            <path id="Trazado_636868" data-name="Trazado 636868" d="M1041.965,2730.192a4.627,4.627,0,0,1-.155-.983c-.077-.636-.156-1.558-.238-2.7-.166-2.282-.288-5.441-.408-8.924s-.287-6.632-.487-8.905c-.1-1.137-.185-2.056-.254-2.691a4.617,4.617,0,0,1-.059-.994,4.464,4.464,0,0,1,.22.971c.119.629.252,1.546.386,2.683.277,2.273.491,5.432.611,8.92.111,3.437.21,6.547.286,8.923.041,1.073.077,1.977.105,2.7A4.526,4.526,0,0,1,1041.965,2730.192Z" fill="#263238"/>
          </g>
        </g>
      </g>
      <g id="Grupo_953666" data-name="Grupo 953666">
        <g id="Grupo_953665" data-name="Grupo 953665">
          <g id="Grupo_953664" data-name="Grupo 953664">
            <path id="Trazado_636869" data-name="Trazado 636869" d="M1071.517,2726.741a6.346,6.346,0,0,1-1.173.059c-.753.016-1.844.032-3.189.095-2.693.1-6.406.381-10.49.864s-7.762,1.092-10.41,1.6c-1.326.246-2.393.474-3.132.628a.59.59,0,1,1-.038-.161c.729-.2,1.79-.476,3.112-.761,2.64-.589,6.323-1.239,10.42-1.731a103.118,103.118,0,0,1,10.53-.742c1.351-.025,2.445,0,3.2.04A6.152,6.152,0,0,1,1071.517,2726.741Z" fill="#263238"/>
          </g>
        </g>
      </g>
      <g id="Grupo_953669" data-name="Grupo 953669">
        <g id="Grupo_953668" data-name="Grupo 953668">
          <g id="Grupo_953667" data-name="Grupo 953667">
            <path id="Trazado_636870" data-name="Trazado 636870" d="M1027.031,2761.744a1.462,1.462,0,0,1-.176-.37l-.426-1.09c-.367-.948-.861-2.333-1.449-4.053-1.178-3.439-2.656-8.241-4.216-13.562s-2.992-10.132-4.1-13.59l-1.321-4.094c-.141-.446-.258-.814-.353-1.116a1.492,1.492,0,0,1-.1-.4,1.6,1.6,0,0,1,.175.37c.116.295.256.654.427,1.089.366.948.86,2.334,1.448,4.054,1.179,3.439,2.657,8.241,4.217,13.564s2.992,10.13,4.1,13.589c.543,1.681.989,3.065,1.32,4.093.142.446.258.814.354,1.116A1.511,1.511,0,0,1,1027.031,2761.744Z" fill="#263238"/>
          </g>
        </g>
      </g>
      <g id="Grupo_953672" data-name="Grupo 953672">
        <g id="Grupo_953671" data-name="Grupo 953671">
          <g id="Grupo_953670" data-name="Grupo 953670">
            <path id="Trazado_636871" data-name="Trazado 636871" d="M1066.661,2751.907a1.518,1.518,0,0,1-.4.133l-1.152.3-4.244,1.06c-3.584.9-8.519,2.192-13.97,3.63s-10.406,2.69-14.009,3.512c-1.8.412-3.263.731-4.276.93-.469.089-.855.162-1.169.223a1.557,1.557,0,0,1-.414.049,1.534,1.534,0,0,1,.4-.133l1.151-.3,4.244-1.06c3.584-.9,8.52-2.192,13.973-3.63s10.4-2.69,14.006-3.512c1.8-.412,3.263-.73,4.277-.93l1.169-.223A1.567,1.567,0,0,1,1066.661,2751.907Z" fill="#263238"/>
          </g>
        </g>
      </g>
    </g>
    <g id="Grupo_953732" data-name="Grupo 953732">
      <g id="Grupo_953674" data-name="Grupo 953674">
        <rect id="Rectángulo_44962" data-name="Rectángulo 44962" width="155.925" height="213.661" transform="translate(869.19 2593.091)" fill="#455a64"/>
      </g>
      <g id="Grupo_953675" data-name="Grupo 953675">
        <path id="Trazado_636872" data-name="Trazado 636872" d="M1018.952,2794.045H882.174V2601.727h136.778v192.318Z" fill="#e0e0e0"/>
      </g>
      <g id="Grupo_953676" data-name="Grupo 953676">
        <path id="Trazado_636873" data-name="Trazado 636873" d="M1016.791,2790.477H881.246V2599.184h135.546v191.293Z" fill="#ebebeb"/>
      </g>
      <g id="Grupo_953680" data-name="Grupo 953680">
        <g id="Grupo_953677" data-name="Grupo 953677">
          <path id="Trazado_636874" data-name="Trazado 636874" d="M1002.226,2775.59,986.614,2788.3h-107.9V2599.669h136.778v165.167Z" fill="#fafafa"/>
        </g>
        <g id="Grupo_953679" data-name="Grupo 953679">
          <g id="Grupo_953678" data-name="Grupo 953678">
            <path id="Trazado_636875" data-name="Trazado 636875" d="M1002.226,2775.59s.277-.236.834-.693l2.5-2.045c2.221-1.809,5.532-4.5,9.9-8.058l-.02.041c-.016-27.131-.052-87.416-.1-165.166l.151.151-135.584.016h-1.194l.167-.167c-.012,70.917-.024,136.339-.033,188.634l-.134-.134,107.9.077-.036.012,11.724-9.51,2.938-2.374c.654-.526.986-.784.986-.784s-.319.273-.967.807l-2.92,2.4q-3.9,3.19-11.689,9.554l-.015.013h-.021l-107.9.077h-.134v-.134c-.009-52.295-.021-117.717-.034-188.634v-.168h1.362l135.584.017h.152v.151c-.047,77.75-.082,138.036-.1,165.166v.026l-.02.016-9.932,8.018q-1.669,1.341-2.518,2.023C1002.514,2775.369,1002.226,2775.59,1002.226,2775.59Z" fill="#263238"/>
          </g>
        </g>
      </g>
      <g id="Grupo_953681" data-name="Grupo 953681">
        <path id="Rectángulo_44963" data-name="Rectángulo 44963" d="M14.757,0H41.825A14.154,14.154,0,0,1,55.98,14.154v5.036a0,0,0,0,1,0,0H0a0,0,0,0,1,0,0V14.757A14.757,14.757,0,0,1,14.757,0Z" transform="translate(919.163 2586.486)" fill="#4fd7ff"/>
      </g>
      <g id="Grupo_953682" data-name="Grupo 953682">
        <path id="Trazado_636876" data-name="Trazado 636876" d="M932.874,2586.486l-2.046-10.351h32.232l-1.791,10.351Z" fill="#4fd7ff"/>
      </g>
      <g id="Grupo_953692" data-name="Grupo 953692">
        <g id="Grupo_953683" data-name="Grupo 953683">
          <path id="Trazado_636877" data-name="Trazado 636877" d="M916.064,2652.765H893.021v-23.043h23.043Zm-22.4-.643h21.757v-21.757H893.664Z" fill="#4fd7ff"/>
        </g>
        <g id="Grupo_953685" data-name="Grupo 953685">
          <g id="Grupo_953684" data-name="Grupo 953684">
            <path id="Trazado_636878" data-name="Trazado 636878" d="M997.492,2635.286c0,.093-16.04.168-35.822.168s-35.825-.075-35.825-.168,16.037-.167,35.825-.167S997.492,2635.194,997.492,2635.286Z" fill="#263238"/>
          </g>
        </g>
        <g id="Grupo_953687" data-name="Grupo 953687">
          <g id="Grupo_953686" data-name="Grupo 953686">
            <path id="Trazado_636879" data-name="Trazado 636879" d="M997.492,2640.075c0,.092-16.04.167-35.822.167s-35.825-.075-35.825-.167,16.037-.168,35.825-.168S997.492,2639.982,997.492,2640.075Z" fill="#263238"/>
          </g>
        </g>
        <g id="Grupo_953689" data-name="Grupo 953689">
          <g id="Grupo_953688" data-name="Grupo 953688">
            <path id="Trazado_636880" data-name="Trazado 636880" d="M997.492,2644.863c0,.092-16.04.167-35.822.167s-35.825-.075-35.825-.167,16.037-.167,35.825-.167S997.492,2644.771,997.492,2644.863Z" fill="#263238"/>
          </g>
        </g>
        <g id="Grupo_953691" data-name="Grupo 953691">
          <g id="Grupo_953690" data-name="Grupo 953690">
            <path id="Trazado_636881" data-name="Trazado 636881" d="M997.492,2649.651c0,.093-16.04.168-35.822.168s-35.825-.075-35.825-.168,16.037-.167,35.825-.167S997.492,2649.559,997.492,2649.651Z" fill="#263238"/>
          </g>
        </g>
      </g>
      <g id="Grupo_953703" data-name="Grupo 953703">
        <g id="Grupo_953693" data-name="Grupo 953693">
          <path id="Trazado_636882" data-name="Trazado 636882" d="M916.064,2688.278H893.021v-23.043h23.043Zm-22.4-.643h21.757v-21.757H893.664Z" fill="#4fd7ff"/>
        </g>
        <g id="Grupo_953694" data-name="Grupo 953694">
          <path id="Trazado_636883" data-name="Trazado 636883" d="M897.6,2677.231l3.059-3.286,5.1,4.079,11.67-11.33,2.8,3.295-14.692,14.493Z" fill="#4fd7ff"/>
        </g>
        <g id="Grupo_953696" data-name="Grupo 953696">
          <g id="Grupo_953695" data-name="Grupo 953695">
            <path id="Trazado_636884" data-name="Trazado 636884" d="M997.492,2670.8c0,.092-16.04.167-35.822.167s-35.825-.075-35.825-.167,16.037-.168,35.825-.168S997.492,2670.707,997.492,2670.8Z" fill="#263238"/>
          </g>
        </g>
        <g id="Grupo_953698" data-name="Grupo 953698">
          <g id="Grupo_953697" data-name="Grupo 953697">
            <path id="Trazado_636885" data-name="Trazado 636885" d="M997.492,2675.588c0,.092-16.04.167-35.822.167s-35.825-.075-35.825-.167,16.037-.167,35.825-.167S997.492,2675.5,997.492,2675.588Z" fill="#263238"/>
          </g>
        </g>
        <g id="Grupo_953700" data-name="Grupo 953700">
          <g id="Grupo_953699" data-name="Grupo 953699">
            <path id="Trazado_636886" data-name="Trazado 636886" d="M997.492,2680.376c0,.093-16.04.168-35.822.168s-35.825-.075-35.825-.168,16.037-.167,35.825-.167S997.492,2680.284,997.492,2680.376Z" fill="#263238"/>
          </g>
        </g>
        <g id="Grupo_953702" data-name="Grupo 953702">
          <g id="Grupo_953701" data-name="Grupo 953701">
            <path id="Trazado_636887" data-name="Trazado 636887" d="M997.492,2685.165c0,.092-16.04.167-35.822.167s-35.825-.075-35.825-.167,16.037-.168,35.825-.168S997.492,2685.072,997.492,2685.165Z" fill="#263238"/>
          </g>
        </g>
      </g>
      <g id="Grupo_953714" data-name="Grupo 953714">
        <g id="Grupo_953704" data-name="Grupo 953704">
          <path id="Trazado_636888" data-name="Trazado 636888" d="M916.064,2722.644H893.021V2699.6h23.043Zm-22.4-.643h21.757v-21.758H893.664Z" fill="#4fd7ff"/>
        </g>
        <g id="Grupo_953705" data-name="Grupo 953705">
          <path id="Trazado_636889" data-name="Trazado 636889" d="M897.6,2711.6l3.059-3.286,5.1,4.079,11.67-11.33,2.8,3.295-14.692,14.493Z" fill="#4fd7ff"/>
        </g>
        <g id="Grupo_953707" data-name="Grupo 953707">
          <g id="Grupo_953706" data-name="Grupo 953706">
            <path id="Trazado_636890" data-name="Trazado 636890" d="M997.492,2705.165c0,.093-16.04.168-35.822.168s-35.825-.075-35.825-.168,16.037-.167,35.825-.167S997.492,2705.073,997.492,2705.165Z" fill="#263238"/>
          </g>
        </g>
        <g id="Grupo_953709" data-name="Grupo 953709">
          <g id="Grupo_953708" data-name="Grupo 953708">
            <path id="Trazado_636891" data-name="Trazado 636891" d="M997.492,2709.954c0,.092-16.04.167-35.822.167s-35.825-.075-35.825-.167,16.037-.168,35.825-.168S997.492,2709.861,997.492,2709.954Z" fill="#263238"/>
          </g>
        </g>
        <g id="Grupo_953711" data-name="Grupo 953711">
          <g id="Grupo_953710" data-name="Grupo 953710">
            <path id="Trazado_636892" data-name="Trazado 636892" d="M997.492,2714.742c0,.092-16.04.167-35.822.167s-35.825-.075-35.825-.167,16.037-.167,35.825-.167S997.492,2714.65,997.492,2714.742Z" fill="#263238"/>
          </g>
        </g>
        <g id="Grupo_953713" data-name="Grupo 953713">
          <g id="Grupo_953712" data-name="Grupo 953712">
            <path id="Trazado_636893" data-name="Trazado 636893" d="M997.492,2719.53c0,.093-16.04.168-35.822.168s-35.825-.075-35.825-.168,16.037-.167,35.825-.167S997.492,2719.438,997.492,2719.53Z" fill="#263238"/>
          </g>
        </g>
      </g>
      <g id="Grupo_953725" data-name="Grupo 953725">
        <g id="Grupo_953715" data-name="Grupo 953715">
          <path id="Trazado_636894" data-name="Trazado 636894" d="M916.064,2755.824H893.021v-23.043h23.043Zm-22.4-.642h21.757v-21.758H893.664Z" fill="#4fd7ff"/>
        </g>
        <g id="Grupo_953716" data-name="Grupo 953716">
          <path id="Trazado_636895" data-name="Trazado 636895" d="M897.6,2744.777l3.059-3.286,5.1,4.079,11.67-11.33,2.8,3.295-14.692,14.493Z" fill="#4fd7ff"/>
        </g>
        <g id="Grupo_953718" data-name="Grupo 953718">
          <g id="Grupo_953717" data-name="Grupo 953717">
            <path id="Trazado_636896" data-name="Trazado 636896" d="M997.492,2738.346c0,.093-16.04.167-35.822.167s-35.825-.074-35.825-.167,16.037-.167,35.825-.167S997.492,2738.254,997.492,2738.346Z" fill="#263238"/>
          </g>
        </g>
        <g id="Grupo_953720" data-name="Grupo 953720">
          <g id="Grupo_953719" data-name="Grupo 953719">
            <path id="Trazado_636897" data-name="Trazado 636897" d="M997.492,2743.134c0,.093-16.04.168-35.822.168s-35.825-.075-35.825-.168,16.037-.167,35.825-.167S997.492,2743.042,997.492,2743.134Z" fill="#263238"/>
          </g>
        </g>
        <g id="Grupo_953722" data-name="Grupo 953722">
          <g id="Grupo_953721" data-name="Grupo 953721">
            <path id="Trazado_636898" data-name="Trazado 636898" d="M997.492,2747.923c0,.092-16.04.167-35.822.167s-35.825-.075-35.825-.167,16.037-.168,35.825-.168S997.492,2747.83,997.492,2747.923Z" fill="#263238"/>
          </g>
        </g>
        <g id="Grupo_953724" data-name="Grupo 953724">
          <g id="Grupo_953723" data-name="Grupo 953723">
            <path id="Trazado_636899" data-name="Trazado 636899" d="M997.492,2752.711c0,.093-16.04.168-35.822.168s-35.825-.075-35.825-.168,16.037-.167,35.825-.167S997.492,2752.619,997.492,2752.711Z" fill="#263238"/>
          </g>
        </g>
      </g>
      <g id="Grupo_953726" data-name="Grupo 953726">
        <path id="Trazado_636900" data-name="Trazado 636900" d="M990.9,2757.072l-15,31.056h10.706Z" fill="#e0e0e0"/>
      </g>
      <g id="Grupo_953730" data-name="Grupo 953730">
        <g id="Grupo_953727" data-name="Grupo 953727">
          <path id="Trazado_636901" data-name="Trazado 636901" d="M986.614,2788.3l4.289-31.056,24.59,7.589Z" fill="#fafafa"/>
        </g>
        <g id="Grupo_953729" data-name="Grupo 953729">
          <g id="Grupo_953728" data-name="Grupo 953728">
            <path id="Trazado_636902" data-name="Trazado 636902" d="M986.614,2788.3l8.269-6.806,20.507-16.788.055.283-9.494-2.926-15.094-4.669.2-.129c-1.286,9.021-2.387,16.748-3.169,22.242-.776,5.34-1.176,8.1-1.277,8.793,0,0,0-.043.014-.138l.054-.43c.053-.4.127-.967.221-1.691.2-1.508.486-3.677.845-6.4.741-5.536,1.783-13.325,3-22.417l.025-.184.178.055,15.1,4.65,9.491,2.933.294.091-.239.193L994.841,2781.7l-6.06,4.87-1.617,1.3-.414.329C986.658,2788.272,986.612,2788.307,986.614,2788.3Z" fill="#263238"/>
          </g>
        </g>
      </g>
      <g id="Grupo_953731" data-name="Grupo 953731" opacity="0.3">
        <path id="Trazado_636903" data-name="Trazado 636903" d="M960.832,2576.135l-1.777,10.351h2.213l1.791-10.351H960.24"/>
      </g>
    </g>
    <g id="Grupo_953940" data-name="Grupo 953940">
      <g id="Grupo_953747" data-name="Grupo 953747">
        <g id="Grupo_953738" data-name="Grupo 953738">
          <g id="Grupo_953737" data-name="Grupo 953737">
            <g id="Grupo_953736" data-name="Grupo 953736">
              <g id="Grupo_953735" data-name="Grupo 953735">
                <g id="Grupo_953734" data-name="Grupo 953734">
                  <g id="Grupo_953733" data-name="Grupo 953733">
                    <path id="Trazado_636904" data-name="Trazado 636904" d="M866.422,2685.314h0a5.784,5.784,0,0,0,6.222-5.546c.121-3.148.227-6.331.227-6.331s4.771-.447,5.117-5.169.188-15.622.188-15.622h0a16.453,16.453,0,0,0-16.628,1.069l.294,16.618v8.94C861.874,2682.272,863.432,2685.085,866.422,2685.314Z" fill="#ffbf9d"/>
                  </g>
                </g>
              </g>
            </g>
          </g>
        </g>
        <g id="Grupo_953739" data-name="Grupo 953739">
          <path id="Trazado_636905" data-name="Trazado 636905" d="M873.282,2662.5a2.421,2.421,0,0,0-3.227-.7,2.744,2.744,0,0,0-.914,3.431,3.618,3.618,0,0,0,2.316,1.752,1.812,1.812,0,0,1,1.42,1.952,6.049,6.049,0,0,1-1.657,3.288,8.716,8.716,0,0,1-5.466,2.59c-2.011.237-4.315-.182-5.485-1.835a7.5,7.5,0,0,1-.943-4.248q-.108-5.221-.216-10.444a14.952,14.952,0,0,1,.238-3.747,5.031,5.031,0,0,1,1.976-3.1c1.149-.756,2.6-.82,3.912-1.243a32.319,32.319,0,0,0,4.554-2.4c1.53-.782,3.406-1.25,4.942-.479,1.1.553,1.842,1.654,2.914,2.263,1.526.869,3.6.672,4.346,2.916a3.807,3.807,0,0,1-.026,2.4,5.548,5.548,0,0,1-7.543,2.966,7.477,7.477,0,0,1-.089,3.3c-.174.523-.236,1.319-1.052,1.334" fill="#263238"/>
        </g>
        <g id="Grupo_953740" data-name="Grupo 953740">
          <path id="Trazado_636906" data-name="Trazado 636906" d="M860.252,2652.784a16.072,16.072,0,0,0,1.517-4.743,5.433,5.433,0,0,0-1.488-4.584,4.473,4.473,0,0,0-3.113-1.1,5.261,5.261,0,0,0-4.744,3.76,5.669,5.669,0,0,0,1.908,5.808,6.147,6.147,0,0,0,6.117.8" fill="#263238"/>
        </g>
        <g id="Grupo_953742" data-name="Grupo 953742">
          <g id="Grupo_953741" data-name="Grupo 953741">
            <path id="Trazado_636907" data-name="Trazado 636907" d="M861.18,2651.062a2.326,2.326,0,0,1-2.238,2.186c-.023-.1.692-.285,1.307-.9S861.084,2651.038,861.18,2651.062Z" fill="#4fd7ff"/>
          </g>
        </g>
        <g id="Grupo_953744" data-name="Grupo 953744">
          <g id="Grupo_953743" data-name="Grupo 953743">
            <path id="Trazado_636908" data-name="Trazado 636908" d="M859.626,2652.216a4.422,4.422,0,0,1-1.282.938,3.71,3.71,0,0,1-1.689.478,2.35,2.35,0,0,1-1.971-.884,2.629,2.629,0,0,1-.35-2.135,4.152,4.152,0,0,1,.8-1.563,4.936,4.936,0,0,1,1.117-1.127,14.807,14.807,0,0,1-.926,1.266,4.244,4.244,0,0,0-.684,1.491,2.383,2.383,0,0,0,.318,1.87,2.087,2.087,0,0,0,1.7.774,3.716,3.716,0,0,0,1.585-.382C859.1,2652.526,859.595,2652.166,859.626,2652.216Z" fill="#263238"/>
          </g>
        </g>
        <g id="Grupo_953746" data-name="Grupo 953746">
          <g id="Grupo_953745" data-name="Grupo 953745">
            <path id="Trazado_636909" data-name="Trazado 636909" d="M851.6,2657.549a2.045,2.045,0,0,1,.231.524,5.4,5.4,0,0,0,.7,1.345,1.949,1.949,0,0,0,1.849.85,2.535,2.535,0,0,0,1.779-1.791,18.454,18.454,0,0,0,.484-2.743,4.238,4.238,0,0,1,.9-2.164,2.322,2.322,0,0,1,1.375-.783.906.906,0,0,1,.578.049c0,.032-.209-.009-.554.079a2.337,2.337,0,0,0-1.219.81,4.177,4.177,0,0,0-.777,2.058,16.336,16.336,0,0,1-.471,2.8,2.81,2.81,0,0,1-2.042,1.987,1.885,1.885,0,0,1-1.28-.248,2.67,2.67,0,0,1-.813-.765,4.644,4.644,0,0,1-.629-1.446A1.787,1.787,0,0,1,851.6,2657.549Z" fill="#263238"/>
          </g>
        </g>
      </g>
      <g id="Grupo_953748" data-name="Grupo 953748">
        <path id="Trazado_636910" data-name="Trazado 636910" d="M849.281,2697.216s-2.407,17.63,0,19.865a5.031,5.031,0,0,0,4.723,1.493l4.582-3.832.9-17.526Z" fill="#ffbf9d"/>
      </g>
      <g id="Grupo_953751" data-name="Grupo 953751">
        <g id="Grupo_953749" data-name="Grupo 953749">
          <path id="Trazado_636911" data-name="Trazado 636911" d="M899.082,2647.724l3.059-3.286,5.1,4.079,11.67-11.33,2.8,3.3-14.692,14.493Z" fill="#4fd7ff"/>
        </g>
        <g id="Grupo_953750" data-name="Grupo 953750">
          <path id="Trazado_636912" data-name="Trazado 636912" d="M913.457,2648.618l-4.436,2.847c-.2-1.753-1.54-3.491-1.471-2.61s.009,5.451.009,5.451l-7.912,16.647a7.883,7.883,0,0,1-4.882,4.687l-7.385,2.2,2.887,9.763,10.264-3.4a8.852,8.852,0,0,0,5.626-5.642L913.232,2657a33.391,33.391,0,0,0,1.144-4.247A8.106,8.106,0,0,0,913.457,2648.618Z" fill="#ffbf9d"/>
        </g>
      </g>
      <g id="Grupo_953823" data-name="Grupo 953823">
        <g id="Grupo_953822" data-name="Grupo 953822">
          <g id="Grupo_953758" data-name="Grupo 953758">
            <g id="Grupo_953754" data-name="Grupo 953754">
              <g id="Grupo_953753" data-name="Grupo 953753">
                <g id="Grupo_953752" data-name="Grupo 953752">
                  <path id="Trazado_636913" data-name="Trazado 636913" d="M877.107,2830.691l-.11-4.936-9.248.147.085,7.224.574.028c2.554.1,12.994.333,14.692-.212C884.993,2832.335,877.107,2830.691,877.107,2830.691Z" fill="#4fd7ff"/>
                </g>
              </g>
            </g>
            <g id="Grupo_953757" data-name="Grupo 953757" opacity="0.5">
              <g id="Grupo_953756" data-name="Grupo 953756">
                <g id="Grupo_953755" data-name="Grupo 953755">
                  <path id="Trazado_636914" data-name="Trazado 636914" d="M871.186,2833a3.2,3.2,0,0,0-1.212-1.953,3.117,3.117,0,0,0-2.172-.638l.039,2.585Z" fill="#fff"/>
                </g>
              </g>
            </g>
          </g>
          <g id="Grupo_953761" data-name="Grupo 953761" opacity="0.4">
            <g id="Grupo_953760" data-name="Grupo 953760">
              <g id="Grupo_953759" data-name="Grupo 953759">
                <path id="Trazado_636915" data-name="Trazado 636915" d="M880.963,2831.631s2.766.751,2.43,1.21-10.9.621-15.559.285l.011-.207,12.318-.084S880.425,2831.662,880.963,2831.631Z" fill="#fff"/>
              </g>
            </g>
          </g>
          <g id="Grupo_953765" data-name="Grupo 953765">
            <g id="Grupo_953764" data-name="Grupo 953764">
              <g id="Grupo_953763" data-name="Grupo 953763">
                <g id="Grupo_953762" data-name="Grupo 953762">
                  <path id="Trazado_636916" data-name="Trazado 636916" d="M867.7,2832.916a.8.8,0,0,0,.159.014l.457.021L870,2833c1.421.029,3.384.043,5.552.012s4.13-.1,5.549-.175l1.68-.095.456-.034a.829.829,0,0,0,.159-.02.8.8,0,0,0-.16,0l-.457.013-1.681.06c-1.42.051-3.381.11-5.548.142s-4.128.029-5.549.02l-1.682-.011h-.457A.794.794,0,0,0,867.7,2832.916Z" fill="#263238"/>
                </g>
              </g>
            </g>
          </g>
          <g id="Grupo_953769" data-name="Grupo 953769">
            <g id="Grupo_953768" data-name="Grupo 953768">
              <g id="Grupo_953767" data-name="Grupo 953767">
                <g id="Grupo_953766" data-name="Grupo 953766">
                  <path id="Trazado_636917" data-name="Trazado 636917" d="M880.163,2832.978a2.444,2.444,0,0,1,.865-1.459,1.493,1.493,0,0,0-.865,1.459Z" fill="#263238"/>
                </g>
              </g>
            </g>
          </g>
          <g id="Grupo_953773" data-name="Grupo 953773">
            <g id="Grupo_953772" data-name="Grupo 953772">
              <g id="Grupo_953771" data-name="Grupo 953771">
                <g id="Grupo_953770" data-name="Grupo 953770">
                  <path id="Trazado_636918" data-name="Trazado 636918" d="M877.413,2831.636c.026.016.155-.145.286-.359s.217-.4.191-.418-.155.144-.286.359S877.387,2831.62,877.413,2831.636Z" fill="#263238"/>
                </g>
              </g>
            </g>
          </g>
          <g id="Grupo_953777" data-name="Grupo 953777">
            <g id="Grupo_953776" data-name="Grupo 953776">
              <g id="Grupo_953775" data-name="Grupo 953775">
                <g id="Grupo_953774" data-name="Grupo 953774">
                  <path id="Trazado_636919" data-name="Trazado 636919" d="M876.658,2831.252c.021.022.166-.077.323-.223s.267-.282.246-.3-.165.077-.322.223S876.637,2831.229,876.658,2831.252Z" fill="#263238"/>
                </g>
              </g>
            </g>
          </g>
          <g id="Grupo_953781" data-name="Grupo 953781">
            <g id="Grupo_953780" data-name="Grupo 953780">
              <g id="Grupo_953779" data-name="Grupo 953779">
                <g id="Grupo_953778" data-name="Grupo 953778">
                  <path id="Trazado_636920" data-name="Trazado 636920" d="M876.171,2830.386a2.11,2.11,0,1,0,.483-.058A1.095,1.095,0,0,0,876.171,2830.386Z" fill="#263238"/>
                </g>
              </g>
            </g>
          </g>
          <g id="Grupo_953785" data-name="Grupo 953785">
            <g id="Grupo_953784" data-name="Grupo 953784">
              <g id="Grupo_953783" data-name="Grupo 953783">
                <g id="Grupo_953782" data-name="Grupo 953782">
                  <path id="Trazado_636921" data-name="Trazado 636921" d="M876,2829.773a.936.936,0,0,0,.541.148.947.947,0,0,0,.555-.082,2.884,2.884,0,0,0-.548-.03A3.025,3.025,0,0,0,876,2829.773Z" fill="#263238"/>
                </g>
              </g>
            </g>
          </g>
          <g id="Grupo_953789" data-name="Grupo 953789">
            <g id="Grupo_953788" data-name="Grupo 953788">
              <g id="Grupo_953787" data-name="Grupo 953787">
                <g id="Grupo_953786" data-name="Grupo 953786">
                  <path id="Trazado_636922" data-name="Trazado 636922" d="M877.714,2830.824a1.7,1.7,0,0,0,.6-.013,3.4,3.4,0,0,0,.63-.149,1.706,1.706,0,0,0,.36-.155.319.319,0,0,0,.144-.186.237.237,0,0,0-.093-.237,1.09,1.09,0,0,0-1.343.34,1.061,1.061,0,0,0-.188.4c-.022.1-.02.159-.013.16a1.7,1.7,0,0,1,.263-.511,1.085,1.085,0,0,1,.5-.338.924.924,0,0,1,.709.038c.095.068.06.18-.044.244a1.77,1.77,0,0,1-.332.148,4.027,4.027,0,0,1-.609.168C877.941,2830.8,877.714,2830.806,877.714,2830.824Z" fill="#263238"/>
                </g>
              </g>
            </g>
          </g>
          <g id="Grupo_953793" data-name="Grupo 953793">
            <g id="Grupo_953792" data-name="Grupo 953792">
              <g id="Grupo_953791" data-name="Grupo 953791">
                <g id="Grupo_953790" data-name="Grupo 953790">
                  <path id="Trazado_636923" data-name="Trazado 636923" d="M877.869,2830.851a.585.585,0,0,0,.062-.413.97.97,0,0,0-.169-.432.6.6,0,0,0-.5-.3.235.235,0,0,0-.179.277.634.634,0,0,0,.105.264,1.748,1.748,0,0,0,.286.355.866.866,0,0,0,.344.236c.01-.015-.12-.1-.287-.291a2.078,2.078,0,0,1-.254-.353c-.084-.124-.143-.349.005-.378s.3.129.4.246a.99.99,0,0,1,.174.384A2.209,2.209,0,0,1,877.869,2830.851Z" fill="#263238"/>
                </g>
              </g>
            </g>
          </g>
          <g id="Grupo_953797" data-name="Grupo 953797">
            <g id="Grupo_953796" data-name="Grupo 953796">
              <g id="Grupo_953795" data-name="Grupo 953795">
                <g id="Grupo_953794" data-name="Grupo 953794">
                  <path id="Trazado_636924" data-name="Trazado 636924" d="M867.85,2830.382c0,.021.264-.029.683.014a2.9,2.9,0,0,1,2.452,1.893c.147.4.165.661.186.658a.534.534,0,0,0,0-.187,2.409,2.409,0,0,0-.108-.5,2.812,2.812,0,0,0-2.52-1.946,2.448,2.448,0,0,0-.509.021A.576.576,0,0,0,867.85,2830.382Z" fill="#263238"/>
                </g>
              </g>
            </g>
          </g>
          <g id="Grupo_953801" data-name="Grupo 953801">
            <g id="Grupo_953800" data-name="Grupo 953800">
              <g id="Grupo_953799" data-name="Grupo 953799">
                <g id="Grupo_953798" data-name="Grupo 953798">
                  <path id="Trazado_636925" data-name="Trazado 636925" d="M868.749,2826.519a31.982,31.982,0,0,0,.011,3.8,16.51,16.51,0,0,0,.05-1.9A15.976,15.976,0,0,0,868.749,2826.519Z" fill="#263238"/>
                </g>
              </g>
            </g>
          </g>
          <g id="Grupo_953805" data-name="Grupo 953805">
            <g id="Grupo_953804" data-name="Grupo 953804">
              <g id="Grupo_953803" data-name="Grupo 953803">
                <g id="Grupo_953802" data-name="Grupo 953802">
                  <path id="Trazado_636926" data-name="Trazado 636926" d="M872.336,2832.08a7.6,7.6,0,0,0,2.7-.016c0-.032-.607.014-1.352.017S872.339,2832.048,872.336,2832.08Z" fill="#263238"/>
                </g>
              </g>
            </g>
          </g>
          <g id="Grupo_953809" data-name="Grupo 953809">
            <g id="Grupo_953808" data-name="Grupo 953808">
              <g id="Grupo_953807" data-name="Grupo 953807">
                <g id="Grupo_953806" data-name="Grupo 953806">
                  <path id="Trazado_636927" data-name="Trazado 636927" d="M870.523,2832.1c-.022.023.052.128.115.265s.1.26.132.258.045-.147-.03-.306S870.543,2832.083,870.523,2832.1Z" fill="#263238"/>
                </g>
              </g>
            </g>
          </g>
          <g id="Grupo_953813" data-name="Grupo 953813">
            <g id="Grupo_953812" data-name="Grupo 953812">
              <g id="Grupo_953811" data-name="Grupo 953811">
                <g id="Grupo_953810" data-name="Grupo 953810">
                  <path id="Trazado_636928" data-name="Trazado 636928" d="M869.827,2831.266c-.022.022.039.117.137.213s.193.155.215.133-.04-.118-.137-.213S869.849,2831.244,869.827,2831.266Z" fill="#263238"/>
                </g>
              </g>
            </g>
          </g>
          <g id="Grupo_953817" data-name="Grupo 953817">
            <g id="Grupo_953816" data-name="Grupo 953816">
              <g id="Grupo_953815" data-name="Grupo 953815">
                <g id="Grupo_953814" data-name="Grupo 953814">
                  <path id="Trazado_636929" data-name="Trazado 636929" d="M868.844,2830.892c.007.032.129.029.266.075s.236.116.259.095-.055-.148-.225-.2S868.834,2830.864,868.844,2830.892Z" fill="#263238"/>
                </g>
              </g>
            </g>
          </g>
          <g id="Grupo_953821" data-name="Grupo 953821">
            <g id="Grupo_953820" data-name="Grupo 953820">
              <g id="Grupo_953819" data-name="Grupo 953819">
                <g id="Grupo_953818" data-name="Grupo 953818">
                  <path id="Trazado_636930" data-name="Trazado 636930" d="M868.145,2830.72c-.011.029.043.076.12.1s.149.028.16,0-.044-.075-.121-.1S868.156,2830.691,868.145,2830.72Z" fill="#263238"/>
                </g>
              </g>
            </g>
          </g>
        </g>
      </g>
      <g id="Grupo_953895" data-name="Grupo 953895">
        <g id="Grupo_953894" data-name="Grupo 953894">
          <g id="Grupo_953830" data-name="Grupo 953830">
            <g id="Grupo_953826" data-name="Grupo 953826">
              <g id="Grupo_953825" data-name="Grupo 953825">
                <g id="Grupo_953824" data-name="Grupo 953824">
                  <path id="Trazado_636931" data-name="Trazado 636931" d="M844.472,2829.112l3.136-3.814-7.107-5.92-4.647,5.532.417.4c1.87,1.742,9.633,8.727,11.275,9.422C849.378,2835.5,844.472,2829.112,844.472,2829.112Z" fill="#4fd7ff"/>
                </g>
              </g>
            </g>
            <g id="Grupo_953829" data-name="Grupo 953829" opacity="0.5">
              <g id="Grupo_953828" data-name="Grupo 953828">
                <g id="Grupo_953827" data-name="Grupo 953827">
                  <path id="Trazado_636932" data-name="Trazado 636932" d="M838.477,2827a3.2,3.2,0,0,0,.355-2.27,3.116,3.116,0,0,0-1.23-1.9l-1.656,1.985Z" fill="#fff"/>
                </g>
              </g>
            </g>
          </g>
          <g id="Grupo_953833" data-name="Grupo 953833" opacity="0.4">
            <g id="Grupo_953832" data-name="Grupo 953832">
              <g id="Grupo_953831" data-name="Grupo 953831">
                <path id="Trazado_636933" data-name="Trazado 636933" d="M846.781,2832.339s1.608,2.373,1.054,2.5-8.665-6.635-11.981-9.931l.144-.149,9.393,7.969S846.353,2832.012,846.781,2832.339Z" fill="#fff"/>
              </g>
            </g>
          </g>
          <g id="Grupo_953837" data-name="Grupo 953837">
            <g id="Grupo_953836" data-name="Grupo 953836">
              <g id="Grupo_953835" data-name="Grupo 953835">
                <g id="Grupo_953834" data-name="Grupo 953834">
                  <path id="Trazado_636934" data-name="Trazado 636934" d="M835.89,2824.663a.732.732,0,0,0,.111.115l.333.314,1.245,1.132c1.057.949,2.536,2.24,4.2,3.63s3.2,2.615,4.32,3.487l1.336,1.023.368.271a.841.841,0,0,0,.133.089.942.942,0,0,0-.119-.106l-.355-.289q-.535-.428-1.313-1.051c-1.109-.887-2.635-2.121-4.3-3.51s-3.149-2.67-4.22-3.6l-1.268-1.106-.347-.3A.84.84,0,0,0,835.89,2824.663Z" fill="#263238"/>
                </g>
              </g>
            </g>
          </g>
          <g id="Grupo_953841" data-name="Grupo 953841">
            <g id="Grupo_953840" data-name="Grupo 953840">
              <g id="Grupo_953839" data-name="Grupo 953839">
                <g id="Grupo_953838" data-name="Grupo 953838">
                  <path id="Trazado_636935" data-name="Trazado 636935" d="M845.3,2832.839a3.732,3.732,0,0,1,.755-.415,3.863,3.863,0,0,1,.852-.128,1.5,1.5,0,0,0-1.607.543Z" fill="#263238"/>
                </g>
              </g>
            </g>
          </g>
          <g id="Grupo_953845" data-name="Grupo 953845">
            <g id="Grupo_953844" data-name="Grupo 953844">
              <g id="Grupo_953843" data-name="Grupo 953843">
                <g id="Grupo_953842" data-name="Grupo 953842">
                  <path id="Trazado_636936" data-name="Trazado 636936" d="M844.087,2830.028a.987.987,0,0,0,.452-.086c.239-.077.426-.163.417-.193a.985.985,0,0,0-.452.086C844.265,2829.912,844.078,2830,844.087,2830.028Z" fill="#263238"/>
                </g>
              </g>
            </g>
          </g>
          <g id="Grupo_953849" data-name="Grupo 953849">
            <g id="Grupo_953848" data-name="Grupo 953848">
              <g id="Grupo_953847" data-name="Grupo 953847">
                <g id="Grupo_953846" data-name="Grupo 953846">
                  <path id="Trazado_636937" data-name="Trazado 636937" d="M843.766,2829.244c0,.031.176.05.39.042s.386-.04.385-.071-.175-.049-.39-.041S843.765,2829.213,843.766,2829.244Z" fill="#263238"/>
                </g>
              </g>
            </g>
          </g>
          <g id="Grupo_953853" data-name="Grupo 953853">
            <g id="Grupo_953852" data-name="Grupo 953852">
              <g id="Grupo_953851" data-name="Grupo 953851">
                <g id="Grupo_953850" data-name="Grupo 953850">
                  <path id="Trazado_636938" data-name="Trazado 636938" d="M843.961,2828.27c-.02.024.129.183.332.357s.383.294.4.27-.129-.182-.332-.356S843.981,2828.247,843.961,2828.27Z" fill="#263238"/>
                </g>
              </g>
            </g>
          </g>
          <g id="Grupo_953857" data-name="Grupo 953857">
            <g id="Grupo_953856" data-name="Grupo 953856">
              <g id="Grupo_953855" data-name="Grupo 953855">
                <g id="Grupo_953854" data-name="Grupo 953854">
                  <path id="Trazado_636939" data-name="Trazado 636939" d="M844.231,2827.693a1.355,1.355,0,0,0,.788.765c.016-.028-.183-.171-.4-.38S844.258,2827.676,844.231,2827.693Z" fill="#263238"/>
                </g>
              </g>
            </g>
          </g>
          <g id="Grupo_953861" data-name="Grupo 953861">
            <g id="Grupo_953860" data-name="Grupo 953860">
              <g id="Grupo_953859" data-name="Grupo 953859">
                <g id="Grupo_953858" data-name="Grupo 953858">
                  <path id="Trazado_636940" data-name="Trazado 636940" d="M844.845,2829.609a1.733,1.733,0,0,0,.459.378,3.6,3.6,0,0,0,.575.3,1.767,1.767,0,0,0,.374.117.322.322,0,0,0,.231-.047.233.233,0,0,0,.083-.24,1.09,1.09,0,0,0-1.239-.619,1.058,1.058,0,0,0-.4.181c-.083.062-.119.108-.115.113a1.686,1.686,0,0,1,.533-.216,1.065,1.065,0,0,1,.6.072.919.919,0,0,1,.513.49c.028.115-.071.176-.192.157a1.815,1.815,0,0,1-.348-.1,4.109,4.109,0,0,1-.572-.27C845.031,2829.74,844.857,2829.595,844.845,2829.609Z" fill="#263238"/>
                </g>
              </g>
            </g>
          </g>
          <g id="Grupo_953865" data-name="Grupo 953865">
            <g id="Grupo_953864" data-name="Grupo 953864">
              <g id="Grupo_953863" data-name="Grupo 953863">
                <g id="Grupo_953862" data-name="Grupo 953862">
                  <path id="Trazado_636941" data-name="Trazado 636941" d="M844.945,2829.73c0,.011.166-.05.316-.273a.975.975,0,0,0,.154-.437.6.6,0,0,0-.186-.55.238.238,0,0,0-.317.094.655.655,0,0,0-.092.268,1.846,1.846,0,0,0-.015.456.871.871,0,0,0,.107.4c.018,0-.022-.158-.028-.407a2.125,2.125,0,0,1,.038-.434c.017-.148.119-.357.251-.283a.536.536,0,0,1,.139.445,1,1,0,0,1-.118.4A2.28,2.28,0,0,1,844.945,2829.73Z" fill="#263238"/>
                </g>
              </g>
            </g>
          </g>
          <g id="Grupo_953869" data-name="Grupo 953869">
            <g id="Grupo_953868" data-name="Grupo 953868">
              <g id="Grupo_953867" data-name="Grupo 953867">
                <g id="Grupo_953866" data-name="Grupo 953866">
                  <path id="Trazado_636942" data-name="Trazado 636942" d="M837.656,2822.841c-.012.017.219.15.509.455a2.9,2.9,0,0,1,.623,3.035c-.145.4-.305.608-.288.62s.051-.045.12-.144a2.45,2.45,0,0,0,.242-.447,2.81,2.81,0,0,0-.641-3.119,2.451,2.451,0,0,0-.4-.316A.528.528,0,0,0,837.656,2822.841Z" fill="#263238"/>
                </g>
              </g>
            </g>
          </g>
          <g id="Grupo_953873" data-name="Grupo 953873">
            <g id="Grupo_953872" data-name="Grupo 953872">
              <g id="Grupo_953871" data-name="Grupo 953871">
                <g id="Grupo_953870" data-name="Grupo 953870">
                  <path id="Trazado_636943" data-name="Trazado 636943" d="M840.857,2820.5a16.144,16.144,0,0,0-1.278,1.408,16.339,16.339,0,0,0-1.194,1.481,32.068,32.068,0,0,0,2.472-2.889Z" fill="#263238"/>
                </g>
              </g>
            </g>
          </g>
          <g id="Grupo_953877" data-name="Grupo 953877">
            <g id="Grupo_953876" data-name="Grupo 953876">
              <g id="Grupo_953875" data-name="Grupo 953875">
                <g id="Grupo_953874" data-name="Grupo 953874">
                  <path id="Trazado_636944" data-name="Trazado 636944" d="M839.949,2827.053a7.588,7.588,0,0,0,2.059,1.751c.019-.027-.469-.385-1.036-.869S839.972,2827.031,839.949,2827.053Z" fill="#263238"/>
                </g>
              </g>
            </g>
          </g>
          <g id="Grupo_953881" data-name="Grupo 953881">
            <g id="Grupo_953880" data-name="Grupo 953880">
              <g id="Grupo_953879" data-name="Grupo 953879">
                <g id="Grupo_953878" data-name="Grupo 953878">
                  <path id="Trazado_636945" data-name="Trazado 636945" d="M838.558,2825.89c-.032,0-.044.13-.085.276s-.094.262-.069.281.131-.082.177-.251S838.588,2825.886,838.558,2825.89Z" fill="#263238"/>
                </g>
              </g>
            </g>
          </g>
          <g id="Grupo_953885" data-name="Grupo 953885">
            <g id="Grupo_953884" data-name="Grupo 953884">
              <g id="Grupo_953883" data-name="Grupo 953883">
                <g id="Grupo_953882" data-name="Grupo 953882">
                  <path id="Trazado_636946" data-name="Trazado 636946" d="M838.578,2824.8c-.031,0-.047.114-.035.25s.045.244.076.241.047-.114.036-.25S838.609,2824.8,838.578,2824.8Z" fill="#263238"/>
                </g>
              </g>
            </g>
          </g>
          <g id="Grupo_953889" data-name="Grupo 953889">
            <g id="Grupo_953888" data-name="Grupo 953888">
              <g id="Grupo_953887" data-name="Grupo 953887">
                <g id="Grupo_953886" data-name="Grupo 953886">
                  <path id="Trazado_636947" data-name="Trazado 636947" d="M838.076,2823.875c-.015.028.08.106.154.23s.1.242.134.241.055-.148-.039-.3S838.087,2823.847,838.076,2823.875Z" fill="#263238"/>
                </g>
              </g>
            </g>
          </g>
          <g id="Grupo_953893" data-name="Grupo 953893">
            <g id="Grupo_953892" data-name="Grupo 953892">
              <g id="Grupo_953891" data-name="Grupo 953891">
                <g id="Grupo_953890" data-name="Grupo 953890">
                  <path id="Trazado_636948" data-name="Trazado 636948" d="M837.659,2823.289c-.027.015-.017.085.023.157s.094.118.121.1.017-.086-.023-.158S837.686,2823.274,837.659,2823.289Z" fill="#263238"/>
                </g>
              </g>
            </g>
          </g>
        </g>
      </g>
      <g id="Grupo_953908" data-name="Grupo 953908">
        <g id="Grupo_953896" data-name="Grupo 953896">
          <path id="Trazado_636949" data-name="Trazado 636949" d="M863.718,2725.8s-3.079,13.028-2.208,15.606,6.513,4.068,6.513,4.068l-.191,35.676-31.2,38.565,11.522,9.426s33.775-38.637,36.752-45.634-1.9-58.284-1.9-58.284Z" fill="#263238"/>
        </g>
        <g id="Grupo_953897" data-name="Grupo 953897">
          <path id="Trazado_636950" data-name="Trazado 636950" d="M879.654,2720.486l1.527,108.358-15.873.08-7.965-88.251h0c-1.684-1.607-4.052-4.36-3.726-10.5l.387-7.132Z" fill="#263238"/>
        </g>
        <g id="Grupo_953899" data-name="Grupo 953899">
          <g id="Grupo_953898" data-name="Grupo 953898">
            <path id="Trazado_636951" data-name="Trazado 636951" d="M862.918,2787.18a.632.632,0,0,1,.092-.161l.3-.444,1.18-1.669,4.306-5.961-.027.082c-.345-3.761-.764-8.323-1.216-13.24-.576-6.445-1.043-12.284-1.318-16.515-.14-2.116-.232-3.829-.283-5.014-.019-.566-.035-1.02-.046-1.365a2.639,2.639,0,0,1,.006-.477,2.555,2.555,0,0,1,.061.474q.042.515.109,1.36c.095,1.219.227,2.919.39,5,.334,4.225.838,10.06,1.414,16.5.433,4.935.874,9.488,1.159,13.269l0,.042-.03.04-4.4,5.891-1.24,1.625-.334.42C862.967,2787.138,862.924,2787.184,862.918,2787.18Z" fill="#455a64"/>
          </g>
        </g>
        <g id="Grupo_953901" data-name="Grupo 953901">
          <g id="Grupo_953900" data-name="Grupo 953900">
            <path id="Trazado_636952" data-name="Trazado 636952" d="M867.79,2742.416a35.844,35.844,0,0,1-8.3-1.743,107.722,107.722,0,0,1,8.3,1.743Z" fill="#455a64"/>
          </g>
        </g>
        <g id="Grupo_953903" data-name="Grupo 953903">
          <g id="Grupo_953902" data-name="Grupo 953902">
            <path id="Trazado_636953" data-name="Trazado 636953" d="M878.661,2779.412a12.665,12.665,0,0,0-8.7-.69,3.636,3.636,0,0,1,1.237-.484,9.744,9.744,0,0,1,6.313.5A3.582,3.582,0,0,1,878.661,2779.412Z" fill="#455a64"/>
          </g>
        </g>
        <g id="Grupo_953905" data-name="Grupo 953905">
          <g id="Grupo_953904" data-name="Grupo 953904">
            <path id="Trazado_636954" data-name="Trazado 636954" d="M884.26,2784.433c.073.056-4.391,6.048-9.971,13.383S864.124,2811.054,864.05,2811s4.391-6.048,9.972-13.385S884.186,2784.377,884.26,2784.433Z" fill="#455a64"/>
          </g>
        </g>
        <g id="Grupo_953907" data-name="Grupo 953907">
          <g id="Grupo_953906" data-name="Grupo 953906">
            <path id="Trazado_636955" data-name="Trazado 636955" d="M882.11,2728.536a2.659,2.659,0,0,1-.894,1.178,4.42,4.42,0,0,1-6.469-.682,2.674,2.674,0,0,1-.628-1.339,14.143,14.143,0,0,0,.812,1.19,4.41,4.41,0,0,0,6.137.647A14.053,14.053,0,0,0,882.11,2728.536Z" fill="#455a64"/>
          </g>
        </g>
      </g>
      <g id="Grupo_953909" data-name="Grupo 953909">
        <path id="Trazado_636956" data-name="Trazado 636956" d="M860.423,2672.784a13.843,13.843,0,0,1-.751-19.3" fill="#263238"/>
      </g>
      <g id="Grupo_953939" data-name="Grupo 953939">
        <g id="Grupo_953920" data-name="Grupo 953920">
          <g id="Grupo_953910" data-name="Grupo 953910">
            <path id="Trazado_636957" data-name="Trazado 636957" d="M851.509,2682.891s-3.448,3.895-4.163,18.794c0,0,9.821,1.863,10,1.328S851.509,2682.891,851.509,2682.891Z" fill="#4fd7ff"/>
          </g>
          <g id="Grupo_953911" data-name="Grupo 953911" opacity="0.3">
            <path id="Trazado_636958" data-name="Trazado 636958" d="M851.509,2682.891s-3.448,3.895-4.163,18.794c0,0,9.821,1.863,10,1.328S851.509,2682.891,851.509,2682.891Z"/>
          </g>
          <g id="Grupo_953917" data-name="Grupo 953917">
            <g id="Grupo_953916" data-name="Grupo 953916">
              <g id="Grupo_953915" data-name="Grupo 953915">
                <g id="Grupo_953912" data-name="Grupo 953912">
                  <path id="Trazado_636959" data-name="Trazado 636959" d="M854.285,2701.685" fill="#455a64"/>
                </g>
                <g id="Grupo_953913" data-name="Grupo 953913">
                  <path id="Trazado_636960" data-name="Trazado 636960" d="M853.1,2726.281h30.148l-.487-4.709s-3.445-17.917-3.42-18.153l.543-1.141a11.367,11.367,0,0,0,.133-9.481h0l14.762-5.048-3.615-12.181c-6.7,1.132-16.824,2.393-16.824,2.393l-1.507.127s-10.452.544-10.676.572c-4.372.528-9.459.864-11.319,5.543-.994,2.5-.05,6.259,1.573,10.131l3.865,11.893c1.543,6.537-.919,6.226-2.271,12.806C853.8,2720.028,853.079,2725.369,853.1,2726.281Z" fill="#4fd7ff"/>
                </g>
                <g id="Grupo_953914" data-name="Grupo 953914" opacity="0.3">
                  <path id="Trazado_636961" data-name="Trazado 636961" d="M853.1,2726.281h30.148l-.487-4.709s-3.445-17.917-3.42-18.153l.543-1.141a11.367,11.367,0,0,0,.133-9.481h0l14.762-5.048-3.615-12.181c-6.7,1.132-16.824,2.393-16.824,2.393l-1.507.127s-10.452.544-10.676.572c-4.372.528-9.459.864-11.319,5.543-.994,2.5-.05,6.259,1.573,10.131l3.865,11.893c1.543,6.537-.919,6.226-2.271,12.806C853.8,2720.028,853.079,2725.369,853.1,2726.281Z"/>
                </g>
              </g>
            </g>
          </g>
          <g id="Grupo_953919" data-name="Grupo 953919">
            <g id="Grupo_953918" data-name="Grupo 953918">
              <path id="Trazado_636962" data-name="Trazado 636962" d="M894.639,2687.947a2.882,2.882,0,0,1-.655.275c-.428.156-1.051.372-1.823.632-1.544.522-3.687,1.213-6.053,1.969s-4.482,1.509-5.984,2.13c-.754.3-1.353.575-1.772.754a3,3,0,0,1-.66.26,2.828,2.828,0,0,1,.6-.377c.4-.216.989-.521,1.735-.855a56.87,56.87,0,0,1,5.975-2.23c2.369-.758,4.522-1.413,6.084-1.877.782-.231,1.416-.412,1.856-.53A2.812,2.812,0,0,1,894.639,2687.947Z" fill="#263238"/>
            </g>
          </g>
        </g>
        <g id="Grupo_953922" data-name="Grupo 953922">
          <g id="Grupo_953921" data-name="Grupo 953921">
            <path id="Trazado_636963" data-name="Trazado 636963" d="M892.887,2681.461c0,.093-8.913.168-19.906.168s-19.908-.075-19.908-.168,8.911-.167,19.908-.167S892.887,2681.369,892.887,2681.461Z" fill="#fafafa"/>
          </g>
        </g>
        <g id="Grupo_953924" data-name="Grupo 953924">
          <g id="Grupo_953923" data-name="Grupo 953923">
            <path id="Trazado_636964" data-name="Trazado 636964" d="M893.806,2687.382c0,.093-9.919.168-22.152.168s-22.154-.075-22.154-.168,9.917-.167,22.154-.167S893.806,2687.29,893.806,2687.382Z" fill="#fafafa"/>
          </g>
        </g>
        <g id="Grupo_953926" data-name="Grupo 953926">
          <g id="Grupo_953925" data-name="Grupo 953925">
            <path id="Trazado_636965" data-name="Trazado 636965" d="M851.967,2694.12a10.272,10.272,0,1,1-1.846-.167A5.22,5.22,0,0,1,851.967,2694.12Z" fill="#fafafa"/>
          </g>
        </g>
        <g id="Grupo_953928" data-name="Grupo 953928">
          <g id="Grupo_953927" data-name="Grupo 953927">
            <path id="Trazado_636966" data-name="Trazado 636966" d="M880.943,2694.324c0,.093-6.487.168-14.487.168s-14.489-.075-14.489-.168,6.485-.167,14.489-.167S880.943,2694.232,880.943,2694.324Z" fill="#fafafa"/>
          </g>
        </g>
        <g id="Grupo_953930" data-name="Grupo 953930">
          <g id="Grupo_953929" data-name="Grupo 953929">
            <path id="Trazado_636967" data-name="Trazado 636967" d="M880.3,2701.266c0,.093-5.822.168-13,.168s-13-.075-13-.168,5.821-.167,13-.167S880.3,2701.174,880.3,2701.266Z" fill="#fafafa"/>
          </g>
        </g>
        <g id="Grupo_953932" data-name="Grupo 953932">
          <g id="Grupo_953931" data-name="Grupo 953931">
            <path id="Trazado_636968" data-name="Trazado 636968" d="M880.116,2707.7c0,.092-5.278.167-11.786.167s-11.786-.075-11.786-.167,5.276-.167,11.786-.167S880.116,2707.606,880.116,2707.7Z" fill="#fafafa"/>
          </g>
        </g>
        <g id="Grupo_953934" data-name="Grupo 953934">
          <g id="Grupo_953933" data-name="Grupo 953933">
            <path id="Trazado_636969" data-name="Trazado 636969" d="M881.147,2712.9c0,.093-5.645.168-12.607.168s-12.609-.075-12.609-.168,5.644-.167,12.609-.167S881.147,2712.812,881.147,2712.9Z" fill="#fafafa"/>
          </g>
        </g>
        <g id="Grupo_953936" data-name="Grupo 953936">
          <g id="Grupo_953935" data-name="Grupo 953935">
            <path id="Trazado_636970" data-name="Trazado 636970" d="M882.78,2719.54c0,.093-6.422.168-14.342.168s-14.344-.075-14.344-.168,6.421-.167,14.344-.167S882.78,2719.448,882.78,2719.54Z" fill="#fafafa"/>
          </g>
        </g>
        <g id="Grupo_953938" data-name="Grupo 953938">
          <g id="Grupo_953937" data-name="Grupo 953937">
            <path id="Trazado_636971" data-name="Trazado 636971" d="M856.095,2705.671a2.456,2.456,0,0,1-.267-.593l-.634-1.645c-.53-1.391-1.277-3.307-2.054-5.445s-1.421-4.1-1.826-5.533c-.2-.719-.353-1.3-.439-1.712a2.4,2.4,0,0,1-.1-.642,24.009,24.009,0,0,1,.771,2.285c.461,1.413,1.135,3.354,1.914,5.488s1.488,4.065,1.962,5.479c.239.706.42,1.282.534,1.683A2.42,2.42,0,0,1,856.095,2705.671Z" fill="#263238"/>
          </g>
        </g>
      </g>
    </g>
  </g>
</svg>
