<svg xmlns="http://www.w3.org/2000/svg" width="400" height="283" viewBox="0 0 400 283">
  <g id="Grupo_951869" data-name="Grupo 951869" transform="translate(-180 -3709)">
    <rect id="Rectángulo_44902" data-name="Rectángulo 44902" width="400" height="283" transform="translate(180 3709)" fill="none"/>
    <g id="Grupo_951807" data-name="Grupo 951807" transform="translate(78.695 1769.572)">
      <path id="Trazado_636338" data-name="Trazado 636338" d="M420.78,2236.74l-27.539,10.4,16.388-11.669c-10.049-1.022-21.426-1.876-33.8-2.525L352.6,2247.137l13.238-14.664c-14.62-.611-30.409-.944-46.879-.944-75.4,0-136.519,6.988-136.519,15.608,0,3.813,11.961,7.307,31.828,10.017l17.019-13.554-12.581,14.131c6.37.788,13.439,1.5,21.1,2.124l31.186-12.717-13.727,13.926c6.156.357,12.58.662,19.23.911l36.109-12.365-11.318,13.006q8.679.128,17.676.13c75.4,0,136.519-6.989,136.519-15.608C455.478,2243.143,442.36,2239.5,420.78,2236.74Z" transform="translate(-5.114 -49.09)" fill="#e2e0eb"/>
      <g id="Grupo_951817" data-name="Grupo 951817" transform="translate(262.172 1985.123)">
        <path id="Trazado_636339" data-name="Trazado 636339" d="M373.943,1994.754l-88.875,25.781,1.119,138.276,87.756,10.449Z" transform="translate(-285.068 -1993.188)" fill="#afc2f8"/>
        <g id="Grupo_951816" data-name="Grupo 951816" transform="translate(88.834)">
          <g id="Grupo_951810" data-name="Grupo 951810">
            <g id="Grupo_951807-2" data-name="Grupo 951807" transform="translate(0 1.565)">
              <rect id="Rectángulo_44893" data-name="Rectángulo 44893" width="6.292" height="174.507" fill="#6ea3f3"/>
            </g>
            <g id="Grupo_951808" data-name="Grupo 951808" transform="translate(57.223 1.565)">
              <rect id="Rectángulo_44894" data-name="Rectángulo 44894" width="6.291" height="174.507" fill="#6ea3f3"/>
            </g>
            <g id="Grupo_951809" data-name="Grupo 951809" transform="translate(6.292)">
              <path id="Trazado_636340" data-name="Trazado 636340" d="M451.061,1994.426v174.507H400.129V1994.426l14.645-1.566h20.363Z" transform="translate(-400.129 -1992.86)" fill="#afc2f8"/>
            </g>
          </g>
          <g id="Grupo_951813" data-name="Grupo 951813" transform="translate(18.581 128.145)">
            <g id="Grupo_951811" data-name="Grupo 951811">
              <ellipse id="Elipse_5458" data-name="Elipse 5458" cx="13.174" cy="11.182" rx="13.174" ry="11.182" fill="#c6c6c6"/>
            </g>
            <g id="Grupo_951812" data-name="Grupo 951812" transform="translate(4.116 3.495)">
              <path id="Trazado_636341" data-name="Trazado 636341" d="M438.089,2159.776c0,4.245-4.055,7.688-9.057,7.688s-9.058-3.443-9.058-7.688,4.055-7.688,9.058-7.688S438.089,2155.53,438.089,2159.776Z" transform="translate(-419.974 -2152.088)" fill="#263238"/>
            </g>
          </g>
          <g id="Grupo_951814" data-name="Grupo 951814" transform="translate(11.982 28.998)">
            <rect id="Rectángulo_44895" data-name="Rectángulo 44895" width="39.547" height="84.014" fill="#fff"/>
          </g>
          <g id="Grupo_951815" data-name="Grupo 951815" transform="translate(11.982 14.048)">
            <path id="Trazado_636342" data-name="Trazado 636342" d="M446.559,2014.645V2024.8H407.012v-10.158c0-2.646,3.9-4.792,8.7-4.792h22.138C442.662,2009.853,446.559,2012,446.559,2014.645Z" transform="translate(-407.012 -2009.853)" fill="#263238"/>
          </g>
        </g>
      </g>
      <g id="Grupo_951831" data-name="Grupo 951831" transform="translate(229.401 1995.052)">
        <path id="Trazado_636343" data-name="Trazado 636343" d="M368.7,2184.933a6.4,6.4,0,0,1-6.627,6.3H251.287a6.019,6.019,0,0,1-5.856-5.959l5.632-161.284a3.464,3.464,0,0,1,3.585-3.406H368.976a5.427,5.427,0,0,1,5.279,5.373Z" transform="translate(-245.428 -2007.593)" fill="#2e5375"/>
        <path id="Trazado_636344" data-name="Trazado 636344" d="M364.146,2184.811H252.619l5.392-154.406H369.538Z" transform="translate(-246.674 -2009.295)" fill="#fff"/>
        <g id="Grupo_951830" data-name="Grupo 951830" transform="translate(8.503 24.844)">
          <g id="Grupo_951818" data-name="Grupo 951818">
            <path id="Trazado_636345" data-name="Trazado 636345" d="M359.739,2179.782l-101.037-.341a2.487,2.487,0,0,1-2.476-2.586l5.57-139.163a2.487,2.487,0,0,1,2.493-2.387l101.036.341a2.487,2.487,0,0,1,2.477,2.586l-5.57,139.163A2.488,2.488,0,0,1,359.739,2179.782Z" transform="translate(-255.802 -2034.987)" fill="#fff"/>
            <path id="Trazado_636346" data-name="Trazado 636346" d="M255.713,2179.674l5.794-144.753h.308l106.323.358-.012.309-5.781,144.445h-.309Zm6.387-144.133-5.743,143.518,105.4.354L367.5,2035.9Z" transform="translate(-255.713 -2034.921)"/>
          </g>
          <path id="Trazado_636347" data-name="Trazado 636347" d="M374.455,2056.039l-42.312-.143.155-3.862,42.312.143Z" transform="translate(-268.955 -2037.886)" fill="#afc2f8"/>
          <g id="Grupo_951819" data-name="Grupo 951819" transform="translate(62.447 22.25)">
            <path id="Trazado_636348" data-name="Trazado 636348" d="M376.127,2062.5l-44.214-.149.021-.513,44.214.149Z" transform="translate(-331.362 -2061.834)" fill="#afc2f8"/>
            <path id="Trazado_636349" data-name="Trazado 636349" d="M375.994,2065.828l-44.214-.149.021-.513,44.214.149Z" transform="translate(-331.339 -2062.411)" fill="#afc2f8"/>
            <path id="Trazado_636350" data-name="Trazado 636350" d="M375.86,2069.16l-44.214-.149.021-.514,44.214.149Z" transform="translate(-331.316 -2062.989)" fill="#afc2f8"/>
            <path id="Trazado_636351" data-name="Trazado 636351" d="M375.727,2072.49l-44.214-.149.021-.514,44.214.149Z" transform="translate(-331.293 -2063.566)" fill="#afc2f8"/>
            <path id="Trazado_636352" data-name="Trazado 636352" d="M375.594,2075.822l-44.214-.149.021-.514,44.214.149Z" transform="translate(-331.27 -2064.143)" fill="#afc2f8"/>
            <path id="Trazado_636353" data-name="Trazado 636353" d="M375.46,2079.153,331.247,2079l.021-.514,44.214.149Z" transform="translate(-331.247 -2064.72)" fill="#afc2f8"/>
          </g>
          <g id="Grupo_951824" data-name="Grupo 951824" transform="translate(10.239 64.057)">
            <g id="Grupo_951820" data-name="Grupo 951820" transform="translate(2.049)">
              <path id="Trazado_636354" data-name="Trazado 636354" d="M311.471,2113.051l-40.228-.136.021-.513,40.228.136Z" transform="translate(-270.692 -2112.402)" fill="#afc2f8"/>
              <path id="Trazado_636355" data-name="Trazado 636355" d="M311.338,2116.382l-40.228-.135.021-.514,40.228.135Z" transform="translate(-270.669 -2112.979)" fill="#afc2f8"/>
              <path id="Trazado_636356" data-name="Trazado 636356" d="M311.2,2119.713l-40.228-.135.021-.514,40.228.135Z" transform="translate(-270.646 -2113.556)" fill="#afc2f8"/>
              <path id="Trazado_636357" data-name="Trazado 636357" d="M311.072,2123.045l-40.228-.136.021-.513,40.228.135Z" transform="translate(-270.623 -2114.134)" fill="#afc2f8"/>
              <path id="Trazado_636358" data-name="Trazado 636358" d="M310.938,2126.376l-40.228-.136.021-.513,40.228.136Z" transform="translate(-270.6 -2114.711)" fill="#afc2f8"/>
              <path id="Trazado_636359" data-name="Trazado 636359" d="M310.8,2129.706l-40.228-.135.021-.513,40.228.136Z" transform="translate(-270.577 -2115.288)" fill="#afc2f8"/>
            </g>
            <g id="Grupo_951821" data-name="Grupo 951821" transform="translate(1.367 17.046)">
              <path id="Trazado_636360" data-name="Trazado 636360" d="M310.646,2133.669l-40.228-.135.021-.514,40.228.135Z" transform="translate(-269.867 -2133.02)" fill="#afc2f8"/>
              <path id="Trazado_636361" data-name="Trazado 636361" d="M310.513,2137l-40.228-.136.021-.513,40.228.135Z" transform="translate(-269.844 -2133.597)" fill="#afc2f8"/>
              <path id="Trazado_636362" data-name="Trazado 636362" d="M310.38,2140.331l-40.228-.135.021-.513,40.228.135Z" transform="translate(-269.821 -2134.174)" fill="#afc2f8"/>
              <path id="Trazado_636363" data-name="Trazado 636363" d="M310.246,2143.662l-40.228-.135.021-.514,40.228.135Z" transform="translate(-269.798 -2134.752)" fill="#afc2f8"/>
              <path id="Trazado_636364" data-name="Trazado 636364" d="M310.113,2146.993l-40.228-.136.021-.514,40.228.136Z" transform="translate(-269.774 -2135.328)" fill="#afc2f8"/>
              <path id="Trazado_636365" data-name="Trazado 636365" d="M309.98,2150.325l-40.228-.135.021-.513,40.228.135Z" transform="translate(-269.751 -2135.906)" fill="#afc2f8"/>
            </g>
            <g id="Grupo_951822" data-name="Grupo 951822" transform="translate(0.682 34.153)">
              <path id="Trazado_636366" data-name="Trazado 636366" d="M309.818,2154.363l-40.228-.136.021-.513,40.228.135Z" transform="translate(-269.039 -2153.713)" fill="#afc2f8"/>
              <path id="Trazado_636367" data-name="Trazado 636367" d="M309.685,2157.693l-40.228-.135.021-.514,40.228.135Z" transform="translate(-269.016 -2154.291)" fill="#afc2f8"/>
              <path id="Trazado_636368" data-name="Trazado 636368" d="M309.551,2161.024l-40.228-.135.021-.514,40.228.136Z" transform="translate(-268.992 -2154.867)" fill="#afc2f8"/>
              <path id="Trazado_636369" data-name="Trazado 636369" d="M309.418,2164.355l-40.228-.136.021-.513,40.228.136Z" transform="translate(-268.969 -2155.445)" fill="#afc2f8"/>
              <path id="Trazado_636370" data-name="Trazado 636370" d="M309.285,2167.687l-40.228-.135.021-.514,40.228.135Z" transform="translate(-268.946 -2156.022)" fill="#afc2f8"/>
              <path id="Trazado_636371" data-name="Trazado 636371" d="M309.152,2171.018l-40.228-.135.021-.514,40.228.135Z" transform="translate(-268.923 -2156.599)" fill="#afc2f8"/>
            </g>
            <g id="Grupo_951823" data-name="Grupo 951823" transform="translate(0 51.199)">
              <path id="Trazado_636372" data-name="Trazado 636372" d="M308.993,2174.98l-40.228-.136.021-.513,40.228.135Z" transform="translate(-268.214 -2174.331)" fill="#afc2f8"/>
              <path id="Trazado_636373" data-name="Trazado 636373" d="M308.86,2178.311l-40.228-.135.021-.514,40.228.135Z" transform="translate(-268.19 -2174.908)" fill="#afc2f8"/>
              <path id="Trazado_636374" data-name="Trazado 636374" d="M308.726,2181.642l-40.228-.135.021-.513,40.228.135Z" transform="translate(-268.167 -2175.485)" fill="#afc2f8"/>
              <path id="Trazado_636375" data-name="Trazado 636375" d="M308.593,2184.973l-40.228-.135.021-.513,40.228.135Z" transform="translate(-268.144 -2176.063)" fill="#afc2f8"/>
              <path id="Trazado_636376" data-name="Trazado 636376" d="M308.46,2188.3l-40.228-.136.021-.513,40.228.135Z" transform="translate(-268.121 -2176.64)" fill="#afc2f8"/>
              <path id="Trazado_636377" data-name="Trazado 636377" d="M308.326,2191.635,268.1,2191.5l.021-.514,40.228.135Z" transform="translate(-268.098 -2177.217)" fill="#afc2f8"/>
            </g>
          </g>
          <g id="Grupo_951829" data-name="Grupo 951829" transform="translate(54.943 64.052)">
            <g id="Grupo_951825" data-name="Grupo 951825" transform="translate(2.049)">
              <path id="Trazado_636378" data-name="Trazado 636378" d="M365.544,2113.045l-40.228-.135.021-.513,40.228.135Z" transform="translate(-324.765 -2112.396)" fill="#afc2f8"/>
              <path id="Trazado_636379" data-name="Trazado 636379" d="M365.411,2116.376l-40.228-.135.021-.514,40.228.136Z" transform="translate(-324.742 -2112.973)" fill="#afc2f8"/>
              <path id="Trazado_636380" data-name="Trazado 636380" d="M365.278,2119.707l-40.228-.135.021-.514,40.228.135Z" transform="translate(-324.719 -2113.55)" fill="#afc2f8"/>
              <path id="Trazado_636381" data-name="Trazado 636381" d="M365.144,2123.039l-40.228-.136.021-.513,40.228.135Z" transform="translate(-324.696 -2114.128)" fill="#afc2f8"/>
              <path id="Trazado_636382" data-name="Trazado 636382" d="M365.011,2126.37l-40.228-.135.021-.514,40.228.135Z" transform="translate(-324.672 -2114.705)" fill="#afc2f8"/>
              <path id="Trazado_636383" data-name="Trazado 636383" d="M364.878,2129.7l-40.228-.135.021-.514,40.228.135Z" transform="translate(-324.649 -2115.282)" fill="#afc2f8"/>
            </g>
            <g id="Grupo_951826" data-name="Grupo 951826" transform="translate(1.367 17.046)">
              <path id="Trazado_636384" data-name="Trazado 636384" d="M364.719,2133.663l-40.228-.136.021-.513,40.228.135Z" transform="translate(-323.94 -2133.014)" fill="#afc2f8"/>
              <path id="Trazado_636385" data-name="Trazado 636385" d="M364.586,2136.994l-40.228-.135.021-.514,40.228.136Z" transform="translate(-323.917 -2133.591)" fill="#afc2f8"/>
              <path id="Trazado_636386" data-name="Trazado 636386" d="M364.453,2140.325l-40.228-.135.021-.513,40.228.135Z" transform="translate(-323.894 -2134.168)" fill="#afc2f8"/>
              <path id="Trazado_636387" data-name="Trazado 636387" d="M364.319,2143.656l-40.228-.136.021-.513,40.228.136Z" transform="translate(-323.87 -2134.745)" fill="#afc2f8"/>
              <path id="Trazado_636388" data-name="Trazado 636388" d="M364.186,2146.987l-40.228-.135.021-.514,40.228.135Z" transform="translate(-323.847 -2135.323)" fill="#afc2f8"/>
              <path id="Trazado_636389" data-name="Trazado 636389" d="M364.053,2150.319l-40.228-.136.021-.514,40.228.135Z" transform="translate(-323.824 -2135.9)" fill="#afc2f8"/>
            </g>
            <g id="Grupo_951827" data-name="Grupo 951827" transform="translate(0.682 34.154)">
              <path id="Trazado_636390" data-name="Trazado 636390" d="M363.891,2154.356l-40.228-.135.02-.513,40.228.135Z" transform="translate(-323.112 -2153.707)" fill="#afc2f8"/>
              <path id="Trazado_636391" data-name="Trazado 636391" d="M363.758,2157.688l-40.228-.135.021-.513,40.228.135Z" transform="translate(-323.088 -2154.285)" fill="#afc2f8"/>
              <path id="Trazado_636392" data-name="Trazado 636392" d="M363.624,2161.019l-40.228-.136.021-.514,40.228.136Z" transform="translate(-323.065 -2154.861)" fill="#afc2f8"/>
              <path id="Trazado_636393" data-name="Trazado 636393" d="M363.491,2164.35l-40.228-.136.021-.513,40.228.135Z" transform="translate(-323.042 -2155.439)" fill="#afc2f8"/>
              <path id="Trazado_636394" data-name="Trazado 636394" d="M363.358,2167.68l-40.228-.135.021-.513,40.228.136Z" transform="translate(-323.019 -2156.016)" fill="#afc2f8"/>
              <path id="Trazado_636395" data-name="Trazado 636395" d="M363.224,2171.011,323,2170.876l.021-.514,40.228.135Z" transform="translate(-322.996 -2156.593)" fill="#afc2f8"/>
            </g>
            <g id="Grupo_951828" data-name="Grupo 951828" transform="translate(0 51.199)">
              <path id="Trazado_636396" data-name="Trazado 636396" d="M363.066,2174.974l-40.228-.135.021-.513,40.228.135Z" transform="translate(-322.286 -2174.325)" fill="#afc2f8"/>
              <path id="Trazado_636397" data-name="Trazado 636397" d="M362.933,2178.305l-40.228-.136.021-.513,40.228.135Z" transform="translate(-322.263 -2174.903)" fill="#afc2f8"/>
              <path id="Trazado_636398" data-name="Trazado 636398" d="M362.8,2181.636l-40.228-.135.021-.514,40.228.135Z" transform="translate(-322.24 -2175.479)" fill="#afc2f8"/>
              <path id="Trazado_636399" data-name="Trazado 636399" d="M362.666,2184.968l-40.228-.135.021-.513,40.228.135Z" transform="translate(-322.217 -2176.057)" fill="#afc2f8"/>
              <path id="Trazado_636400" data-name="Trazado 636400" d="M362.533,2188.3l-40.228-.136.021-.513,40.228.135Z" transform="translate(-322.194 -2176.634)" fill="#afc2f8"/>
              <path id="Trazado_636401" data-name="Trazado 636401" d="M362.4,2191.63l-40.228-.135.021-.513,40.228.135Z" transform="translate(-322.171 -2177.211)" fill="#afc2f8"/>
            </g>
          </g>
        </g>
        <path id="Trazado_636402" data-name="Trazado 636402" d="M347.517,2040.833h-.169l-65.968-1.214a7.026,7.026,0,0,1-5.129-2.475,5.541,5.541,0,0,1-1.292-5.072l3.016-10.45a6.016,6.016,0,0,1,6.052-4.194h3.9l.2,1.258h-3.9a4.915,4.915,0,0,0-4.945,3.427l-3.016,10.45a4.2,4.2,0,0,0,.992,3.9,5.322,5.322,0,0,0,3.939,1.9l65.968,1.215c3.5.063,6.129-2.228,6.259-5.451l.467-11.489a3.654,3.654,0,0,0-1.193-2.743,4.267,4.267,0,0,0-2.918-1.206h-8.358l-.2-1.258h8.358a5.883,5.883,0,0,1,4.022,1.662,5.039,5.039,0,0,1,1.645,3.781l-.468,11.489C354.626,2038.133,351.583,2040.833,347.517,2040.833Z" transform="translate(-250.513 -2007.046)" fill="#103d52"/>
        <path id="Trazado_636403" data-name="Trazado 636403" d="M345.869,2021.3h-56.79l2.388-9.055c1.149-4.355,5.17-7.211,10.156-7.211l37.968-.165c8.638,0,8.4,8.38,6.411,15.927Z" transform="translate(-252.991 -2004.871)" fill="#6ea3f3"/>
        <path id="Trazado_636404" data-name="Trazado 636404" d="M332.767,2045.022H304.1a2.661,2.661,0,0,1-2.583-2.108l-.007-.043a1.8,1.8,0,0,1,1.9-2.109h28.671a2.66,2.66,0,0,1,2.583,2.109l.007.043A1.8,1.8,0,0,1,332.767,2045.022Z" transform="translate(-255.14 -2011.09)" fill="#2e5375"/>
      </g>
      <g id="Grupo_951855" data-name="Grupo 951855" transform="translate(152.923 2048.613)">
        <g id="Grupo_951832" data-name="Grupo 951832">
          <path id="Trazado_636405" data-name="Trazado 636405" d="M158.1,2081.4a19.915,19.915,0,0,0-4.356,8c-1.59,5.687-.416,11.425-.254,17.191q.469,16.592.941,33.17.872,30.42,1.756,60.792.151,5.152.3,10.3c.084,2.873,3.1,4.966,6.73,4.673l100.913-8.256c3.634-.3,6.466-2.7,6.323-5.352q-.96-17.915-1.916-35.852-1.665-31.419-3.316-62.9c-.441-8.455.892-17.376-8.083-24.064-7.6-5.744-18.9-7.143-28.817-8.206a197.539,197.539,0,0,0-44.222,0C173.732,2072.082,163.873,2074.945,158.1,2081.4Z" transform="translate(-152.923 -2069.656)" fill="#263238"/>
        </g>
        <g id="Grupo_951833" data-name="Grupo 951833" transform="translate(8.141 0.481)">
          <path id="Trazado_636406" data-name="Trazado 636406" d="M167.67,2081.929a19.872,19.872,0,0,0-4.106,7.819c-1.508,5.552-.428,11.14-.3,16.762q.382,16.176.768,32.342.712,29.668,1.433,59.3l.246,10.053c.069,2.8,2.881,4.848,6.282,4.564l94.465-7.956c3.4-.289,6.061-2.634,5.939-5.237q-.823-17.567-1.642-35.15-1.43-30.8-2.846-61.636c-.379-8.282.9-17.026-7.474-23.541-7.092-5.591-17.674-6.909-26.957-7.9a177.331,177.331,0,0,0-41.42.21C182.342,2072.768,173.1,2075.61,167.67,2081.929Z" transform="translate(-162.77 -2070.238)" fill="#2e5375"/>
        </g>
        <g id="Grupo_951834" data-name="Grupo 951834" transform="translate(10.642 10.984)">
          <path id="Trazado_636407" data-name="Trazado 636407" d="M213.638,2208.13l-38.113,3.3c-.2.017-.4.026-.6.026h0a5.516,5.516,0,0,1-4.273-1.833,3.843,3.843,0,0,1-.892-2.38l-.093-4.245c-.408-18.644-.82-37.621-1.224-56.4q-.381-17.758-.758-35.53c-.029-1.349-.188-2.88-.355-4.5-.456-4.39-.972-9.365.94-12.466,1.99-3.221,5.49-6.124,10-8.332-.188-.315-.381-.635-.587-.951-4.653,2.3-8.277,5.325-10.362,8.7-2.111,3.423-1.573,8.6-1.1,13.166.166,1.6.322,3.106.35,4.41q.378,17.77.758,35.53c.405,18.783.817,37.76,1.225,56.4l.093,4.246a4.946,4.946,0,0,0,1.145,3.061,6.545,6.545,0,0,0,5.132,2.239h0c.228,0,.461-.01.691-.03l38.022-3.3C213.638,2208.875,213.637,2208.5,213.638,2208.13Z" transform="translate(-165.795 -2083.267)" fill="#6ea3f3"/>
          <path id="Trazado_636408" data-name="Trazado 636408" d="M283.025,2101.16c-.053,1.245-.1,2.422-.059,3.494.38,9.112.762,18.264,1.145,27.4q.557,0,1.114,0c-.383-9.155-.766-18.323-1.147-27.45-.043-1.026.007-2.179.059-3.4.176-4.147.376-8.847-2.782-11.738a33.6,33.6,0,0,0-11.254-6.527c-.13.348-.269.693-.413,1.033a32.508,32.508,0,0,1,10.913,6.313C283.38,2092.831,283.191,2097.256,283.025,2101.16Z" transform="translate(-183.796 -2082.942)" fill="#6ea3f3"/>
          <path id="Trazado_636409" data-name="Trazado 636409" d="M285.262,2195.882q-.554.089-1.1.207.468,11.051.938,22.1a3.79,3.79,0,0,1-.828,2.456,6.606,6.606,0,0,1-4.706,2.421l-20.4,1.769q.032.555.069,1.11l20.431-1.771a7.728,7.728,0,0,0,5.5-2.86,4.881,4.881,0,0,0,1.051-3.173Q285.734,2207.012,285.262,2195.882Z" transform="translate(-181.971 -2102.51)" fill="#6ea3f3"/>
        </g>
        <g id="Grupo_951837" data-name="Grupo 951837" transform="translate(14.992 22.43)">
          <g id="Grupo_951835" data-name="Grupo 951835" transform="translate(1.536 1.215)">
            <path id="Trazado_636410" data-name="Trazado 636410" d="M174.89,2098.588l82.98-.331a1.936,1.936,0,0,1,2.088,1.585l.735,16.828a1.8,1.8,0,0,1-1.956,1.633l-83.3,1.549a1.9,1.9,0,0,1-2.069-1.659l-.451-17.9A1.832,1.832,0,0,1,174.89,2098.588Z" transform="translate(-172.914 -2098.257)" fill="#afc2f8"/>
          </g>
          <g id="Grupo_951836" data-name="Grupo 951836">
            <path id="Trazado_636411" data-name="Trazado 636411" d="M171.058,2100.043l.446,17.92a3.347,3.347,0,0,0,3.642,2.922l83.322-1.623c1.968-.04,3.513-1.33,3.445-2.875l-.741-16.809c-.068-1.546-1.717-2.8-3.677-2.791l-82.961.257A3.223,3.223,0,0,0,171.058,2100.043Zm1.535-.007a1.832,1.832,0,0,1,1.975-1.7l82.98-.331a1.936,1.936,0,0,1,2.088,1.585l.735,16.829a1.8,1.8,0,0,1-1.956,1.632l-83.3,1.549a1.9,1.9,0,0,1-2.069-1.659Z" transform="translate(-171.057 -2096.787)" fill="#fff"/>
          </g>
        </g>
        <g id="Grupo_951838" data-name="Grupo 951838" transform="translate(92.595 68.861)">
          <path id="Trazado_636412" data-name="Trazado 636412" d="M267.342,2162.6l10.314-.455a2.02,2.02,0,0,0,2.029-2l-.239-5.366a2.035,2.035,0,0,0-2.2-1.829l-10.3.386a2.019,2.019,0,0,0-2.031,2.007l.224,5.423A2.022,2.022,0,0,0,267.342,2162.6Z" transform="translate(-264.923 -2152.949)" fill="#77aeca"/>
        </g>
        <g id="Grupo_951839" data-name="Grupo 951839" transform="translate(93.296 86.205)">
          <path id="Trazado_636413" data-name="Trazado 636413" d="M267.568,2183.775l11.655-.659a1.422,1.422,0,0,0,1.409-1.4l-.292-6.538a1.391,1.391,0,0,0-1.524-1.246l-11.636.582a1.419,1.419,0,0,0-1.41,1.407l.274,6.607A1.383,1.383,0,0,0,267.568,2183.775Z" transform="translate(-265.771 -2173.927)" fill="#77aeca"/>
        </g>
        <g id="Grupo_951840" data-name="Grupo 951840" transform="translate(94.023 103.561)">
          <path id="Trazado_636414" data-name="Trazado 636414" d="M268.454,2204.911l11.694-.805a1.446,1.446,0,0,0,1.414-1.42l-.294-6.535a1.373,1.373,0,0,0-1.529-1.227l-11.674.728a1.444,1.444,0,0,0-1.414,1.425l.274,6.6A1.364,1.364,0,0,0,268.454,2204.911Z" transform="translate(-266.651 -2194.921)" fill="#77aeca"/>
        </g>
        <g id="Grupo_951841" data-name="Grupo 951841" transform="translate(73.495 69.576)">
          <path id="Trazado_636415" data-name="Trazado 636415" d="M244.213,2163.591l10.313-.451a2.041,2.041,0,0,0,2.036-2.027l-.219-5.441a2.038,2.038,0,0,0-2.188-1.857l-10.295.383a2.039,2.039,0,0,0-2.038,2.034l.2,5.5A2.025,2.025,0,0,0,244.213,2163.591Z" transform="translate(-241.82 -2153.813)" fill="#77aeca"/>
        </g>
        <g id="Grupo_951842" data-name="Grupo 951842" transform="translate(74.134 87.162)">
          <path id="Trazado_636416" data-name="Trazado 636416" d="M244.361,2185.056l11.655-.656a1.435,1.435,0,0,0,1.414-1.42l-.269-6.629a1.391,1.391,0,0,0-1.519-1.265l-11.634.577a1.435,1.435,0,0,0-1.415,1.425l.25,6.7A1.384,1.384,0,0,0,244.361,2185.056Z" transform="translate(-242.593 -2175.084)" fill="#77aeca"/>
        </g>
        <g id="Grupo_951843" data-name="Grupo 951843" transform="translate(74.798 104.759)">
          <path id="Trazado_636417" data-name="Trazado 636417" d="M245.17,2206.484l11.693-.8a1.459,1.459,0,0,0,1.418-1.437l-.27-6.626a1.374,1.374,0,0,0-1.524-1.246l-11.673.724a1.458,1.458,0,0,0-1.419,1.443l.25,6.694A1.366,1.366,0,0,0,245.17,2206.484Z" transform="translate(-243.396 -2196.37)" fill="#77aeca"/>
        </g>
        <g id="Grupo_951844" data-name="Grupo 951844" transform="translate(54.398 70.284)">
          <path id="Trazado_636418" data-name="Trazado 636418" d="M221.085,2164.572l10.313-.448a2.06,2.06,0,0,0,2.042-2.053l-.2-5.514a2.039,2.039,0,0,0-2.18-1.884l-10.295.38a2.058,2.058,0,0,0-2.044,2.059l.184,5.572A2.027,2.027,0,0,0,221.085,2164.572Z" transform="translate(-218.721 -2154.67)" fill="#77aeca"/>
        </g>
        <g id="Grupo_951845" data-name="Grupo 951845" transform="translate(54.974 88.111)">
          <path id="Trazado_636419" data-name="Trazado 636419" d="M221.157,2186.328l11.653-.651a1.451,1.451,0,0,0,1.418-1.439l-.244-6.72a1.392,1.392,0,0,0-1.514-1.284l-11.633.573a1.448,1.448,0,0,0-1.419,1.443l.226,6.789A1.384,1.384,0,0,0,221.157,2186.328Z" transform="translate(-219.418 -2176.233)" fill="#77aeca"/>
        </g>
        <g id="Grupo_951846" data-name="Grupo 951846" transform="translate(55.574 105.951)">
          <path id="Trazado_636420" data-name="Trazado 636420" d="M221.888,2208.049l11.693-.8A1.476,1.476,0,0,0,235,2205.8l-.245-6.716a1.376,1.376,0,0,0-1.519-1.265l-11.672.72a1.474,1.474,0,0,0-1.424,1.46l.227,6.786A1.367,1.367,0,0,0,221.888,2208.049Z" transform="translate(-220.143 -2197.811)" fill="#77aeca"/>
        </g>
        <g id="Grupo_951847" data-name="Grupo 951847" transform="translate(35.293 70.986)">
          <path id="Trazado_636421" data-name="Trazado 636421" d="M197.919,2164.229l10.309-.435a1.971,1.971,0,0,0,2.058-1.805l-.155-4.829a1.935,1.935,0,0,0-2.165-1.639l-10.293.376a1.968,1.968,0,0,0-2.059,1.811l.142,4.876A1.923,1.923,0,0,0,197.919,2164.229Z" transform="translate(-195.612 -2155.519)" fill="#5598d2"/>
        </g>
        <g id="Grupo_951848" data-name="Grupo 951848" transform="translate(35.738 86.588)">
          <path id="Trazado_636422" data-name="Trazado 636422" d="M197.826,2183.275l11.644-.617a1.384,1.384,0,0,0,1.428-1.265l-.189-5.883a1.324,1.324,0,0,0-1.5-1.117l-11.626.55a1.382,1.382,0,0,0-1.429,1.268l.174,5.942A1.317,1.317,0,0,0,197.826,2183.275Z" transform="translate(-196.15 -2174.391)" fill="#5598d2"/>
        </g>
        <g id="Grupo_951849" data-name="Grupo 951849" transform="translate(16.2 71.681)">
          <path id="Trazado_636423" data-name="Trazado 636423" d="M174.8,2165.176l10.308-.431a1.987,1.987,0,0,0,2.064-1.828l-.138-4.893a1.933,1.933,0,0,0-2.158-1.663l-10.292.372a1.984,1.984,0,0,0-2.065,1.833l.125,4.941A1.923,1.923,0,0,0,174.8,2165.176Z" transform="translate(-172.517 -2156.359)" fill="#5598d2"/>
        </g>
        <g id="Grupo_951850" data-name="Grupo 951850" transform="translate(16.591 87.492)">
          <path id="Trazado_636424" data-name="Trazado 636424" d="M174.64,2184.475l11.644-.614a1.4,1.4,0,0,0,1.432-1.28l-.169-5.962a1.323,1.323,0,0,0-1.5-1.134l-11.626.546a1.393,1.393,0,0,0-1.433,1.284l.153,6.021A1.317,1.317,0,0,0,174.64,2184.475Z" transform="translate(-172.991 -2175.483)" fill="#5598d2"/>
        </g>
        <g id="Grupo_951851" data-name="Grupo 951851" transform="translate(16.998 103.318)">
          <path id="Trazado_636425" data-name="Trazado 636425" d="M175.137,2203.74l11.677-.739a1.416,1.416,0,0,0,1.436-1.3l-.169-5.958a1.31,1.31,0,0,0-1.5-1.118l-11.66.672a1.413,1.413,0,0,0-1.436,1.3l.154,6.018A1.3,1.3,0,0,0,175.137,2203.74Z" transform="translate(-173.483 -2194.626)" fill="#5598d2"/>
        </g>
        <g id="Grupo_951852" data-name="Grupo 951852" transform="translate(17.42 119.178)">
          <path id="Trazado_636426" data-name="Trazado 636426" d="M176.3,2222.957l10.4-.769a2.079,2.079,0,0,0,2.082-1.9l-.14-4.885a1.876,1.876,0,0,0-2.178-1.591l-10.381.709a2.075,2.075,0,0,0-2.083,1.9l.126,4.933A1.864,1.864,0,0,0,176.3,2222.957Z" transform="translate(-173.993 -2213.811)" fill="#5598d2"/>
        </g>
        <g id="Grupo_951853" data-name="Grupo 951853" transform="translate(15.785 55.012)">
          <path id="Trazado_636427" data-name="Trazado 636427" d="M177.343,2145.681l40.871-1.283c2.842-.091,5.127-.689,5.1-1.338l-.208-5.816c-.023-.648-2.342-1.114-5.18-1.04l-40.809,1.047c-2.837.071-5.123.674-5.107,1.346l.151,6.027C172.185,2145.3,174.5,2145.769,177.343,2145.681Z" transform="translate(-172.016 -2136.197)" fill="#5598d2"/>
        </g>
        <g id="Grupo_951854" data-name="Grupo 951854" transform="translate(36.28 102.491)">
          <path id="Trazado_636428" data-name="Trazado 636428" d="M202.133,2218.284l5.224-.389c2.606-.2,4.664-2.052,4.6-4.148l-.538-16.585c-.068-2.1-2.226-3.676-4.822-3.525l-5.2.3c-2.594.151-4.647,1.99-4.585,4.109l.494,16.754C197.363,2216.919,199.527,2218.479,202.133,2218.284Z" transform="translate(-196.805 -2193.627)" fill="#5598d2"/>
        </g>
      </g>
      <g id="Grupo_951865" data-name="Grupo 951865" transform="translate(414.521 1984.773)">
        <g id="Grupo_951859" data-name="Grupo 951859">
          <g id="Grupo_951856" data-name="Grupo 951856" transform="translate(0 2.266)">
            <rect id="Rectángulo_44896" data-name="Rectángulo 44896" width="3.464" height="174.507" fill="#263238"/>
          </g>
          <g id="Grupo_951857" data-name="Grupo 951857" transform="translate(31.504 2.266)">
            <rect id="Rectángulo_44897" data-name="Rectángulo 44897" width="3.464" height="174.507" fill="#263238"/>
          </g>
          <g id="Grupo_951858" data-name="Grupo 951858" transform="translate(3.464)">
            <path id="Trazado_636429" data-name="Trazado 636429" d="M501.575,1994.7v174.507h-28.04V1994.7l6.039-1.688a15.626,15.626,0,0,1,4.206-.577h7.991a15.594,15.594,0,0,1,4.521.669Z" transform="translate(-473.535 -1992.437)" fill="#3f4a4f"/>
          </g>
        </g>
        <g id="Grupo_951862" data-name="Grupo 951862" transform="translate(8.687 127.455)">
          <g id="Grupo_951860" data-name="Grupo 951860">
            <circle id="Elipse_5459" data-name="Elipse 5459" cx="8.797" cy="8.797" r="8.797" fill="#c6c6c6"/>
          </g>
          <g id="Grupo_951861" data-name="Grupo 951861" transform="translate(2.749 2.749)">
            <path id="Trazado_636430" data-name="Trazado 636430" d="M495.273,2155.976a6.048,6.048,0,1,1-6.048-6.048A6.048,6.048,0,0,1,495.273,2155.976Z" transform="translate(-483.177 -2149.928)" fill="#263238"/>
          </g>
        </g>
        <g id="Grupo_951863" data-name="Grupo 951863" transform="translate(6.597 29.698)">
          <rect id="Rectángulo_44898" data-name="Rectángulo 44898" width="21.772" height="84.014" fill="#fff"/>
        </g>
        <g id="Grupo_951864" data-name="Grupo 951864" transform="translate(6.597 14.748)">
          <path id="Trazado_636431" data-name="Trazado 636431" d="M499.1,2014.673v10.553H477.324v-10.553a4.4,4.4,0,0,1,4.4-4.4H494.7A4.4,4.4,0,0,1,499.1,2014.673Z" transform="translate(-477.324 -2010.276)" fill="#263238"/>
        </g>
      </g>
      <g id="Grupo_951866" data-name="Grupo 951866" transform="translate(303.107 2106.897)">
        <path id="Trazado_636432" data-name="Trazado 636432" d="M459.991,2220.964l.053-.1a5.415,5.415,0,0,0-2.547-7.386l-54.736-26.335-3.576,6.774,53.215,29.216A5.553,5.553,0,0,0,459.991,2220.964Z" transform="translate(-345.775 -2148.297)" fill="#263238"/>
        <path id="Trazado_636433" data-name="Trazado 636433" d="M391.156,2183.1c7.527-14.254,1.7-31.948-13.015-39.521s-32.744-2.154-40.27,12.1-1.7,31.948,13.016,39.521S383.631,2197.352,391.156,2183.1Zm-38.207,8.193c-12.488-6.427-17.433-21.441-11.046-33.539s21.688-16.694,34.175-10.268,17.433,21.442,11.045,33.538S365.437,2197.716,352.95,2191.29Z" transform="translate(-334.582 -2140.156)" fill="#263238"/>
      </g>
      <path id="Trazado_636434" data-name="Trazado 636434" d="M332.143,2132.429l21.233,35.968,51.38-63.852-51.38,46.152Z" transform="translate(-31.052 -27.089)" fill="#e5475e"/>
      <g id="Grupo_951868" data-name="Grupo 951868" transform="translate(172.374 1948.201)">
        <g id="Grupo_951867" data-name="Grupo 951867">
          <path id="Trazado_636435" data-name="Trazado 636435" d="M236.08,2166.325a2.469,2.469,0,0,1-2.319.054c-2.512-.935-4.429-2.99-6.079-5.1-1-1.278-1.306-4.6.47-5.517,1.71-.884,4.7,1.422,5.724,2.574a13.013,13.013,0,0,1,2.618,5.028C236.793,2164.383,236.929,2165.684,236.08,2166.325Z" transform="translate(-185.188 -1984.128)" fill="#263238"/>
          <path id="Trazado_636436" data-name="Trazado 636436" d="M247.274,2035.031a6.369,6.369,0,0,1-3.767-.377c-2.029-1.062-2.556-3.681-2.794-5.959a130.537,130.537,0,0,1-.284-24.047c.3-3.689.775-7.5,2.362-10.887.89-1.9,1.29-3.121,3.218-2.433,1.455.519,3.128,3.2,3.741,4.526a17.136,17.136,0,0,1,.814,2.316c2.5,8.379,4.442,16.756,7.218,25.085.8,2.543,1.528,5.572-.12,7.669a7.155,7.155,0,0,1-2.74,1.916A26.356,26.356,0,0,1,247.274,2035.031Z" transform="translate(-187.463 -1955.639)" fill="#583ae2"/>
          <path id="Trazado_636437" data-name="Trazado 636437" d="M229.15,1970.05a7.15,7.15,0,0,0-.2-2.512,4.578,4.578,0,0,0-2.667-2.61,5.349,5.349,0,0,0-6,1.1c-1.116,1.289-1.35,3.1-1.536,4.792a58.721,58.721,0,0,1-1.136,9.145.479.479,0,0,1-.458.452l-2.092.468a.73.73,0,0,0-.46.23c-.194.273.055.635.292.871a76.463,76.463,0,0,0,8.167,7.079,16.332,16.332,0,0,0,4.289,2.515q2.474-3.453,4.682-7.087a.872.872,0,0,0,.132-.292c.061-.328-.24-.6-.517-.788-.763-.51-1.651-.982-1.99-1.835a3.767,3.767,0,0,1-.2-.96A70.95,70.95,0,0,1,229.15,1970.05Z" transform="translate(-183.05 -1951.02)" fill="#f7ac9a"/>
          <path id="Trazado_636438" data-name="Trazado 636438" d="M233.916,1969.314a1.144,1.144,0,0,1-.208-.719c-.009-1.114.714-2.152.634-3.264a5.946,5.946,0,0,0-.346-1.344,5.961,5.961,0,0,1-.264-2.949,3.284,3.284,0,0,1,1.692-2.339,3.647,3.647,0,0,1,1.912-.274,2.071,2.071,0,0,1,.715.172,2.5,2.5,0,0,1,.751.673,7.674,7.674,0,0,1,1.476,2.218,2.6,2.6,0,0,1-.294,2.539c-.228.269-.53.474-.735.763a6.757,6.757,0,0,0-.556,2c-.417,1.337-1.8,2.095-3.106,2.61C235.03,1969.62,234.294,1969.779,233.916,1969.314Z" transform="translate(-186.361 -1949.968)" fill="#2e5375"/>
          <path id="Trazado_636439" data-name="Trazado 636439" d="M259.133,2116.838a4.589,4.589,0,0,0-3.472.971c-1.926,1.639-1.623,4.588-1.623,6.857q0,6.891.6,13.766a1.264,1.264,0,0,0,1.218,1.37,82.4,82.4,0,0,0,12.4,2.345,20.407,20.407,0,0,1-5-13.63c.055-3.509,1.024-6.945,1.258-10.448A41.971,41.971,0,0,0,259.133,2116.838Z" transform="translate(-189.891 -1977.416)" fill="#f7ac9a"/>
          <path id="Trazado_636440" data-name="Trazado 636440" d="M245.645,2168.642c-1.312-.345-1.054-1.329-1.366-2.337a11.777,11.777,0,0,0-2.562-4.167c-.328-.356-.7-.67-1.021-1.033-2.641-3.011-2.271-9.39-1.464-12.995.466-2.079.938-5.5-1.435-6.7a3.763,3.763,0,0,0-1.634-.28c-1.849-.039-6.107-.471-7.515,1.079-1.242,1.368-.3,4.965-.14,6.608q.449,4.689.68,9.4a3.239,3.239,0,0,0,.319,1.506,3.09,3.09,0,0,0,.686.738A40.525,40.525,0,0,0,245.645,2168.642Z" transform="translate(-185.385 -1981.614)" fill="#f7ac9a"/>
          <path id="Trazado_636441" data-name="Trazado 636441" d="M209.926,2034.979a7.615,7.615,0,0,0-4.738.6c-2.983,1.7-4.533,5.539-5.369,8.654a105.961,105.961,0,0,0-2.69,13.444,10,10,0,0,0-.078,3.059c.64,3.612,4.456,5.681,6.487,8.427,2.886,3.9,5.6,7.941,8.4,11.906a16.247,16.247,0,0,1,2.918,5.546c3.24,14.234,4.1,29.222,5.9,43.716,4.2.883,8.6,1.31,12.734-.143a1.811,1.811,0,0,0,.787-.446,1.924,1.924,0,0,0,.317-1.325c-.139-13.938-.622-27.92-.191-41.853a14.381,14.381,0,0,0-2.151-9.539q-4.029-7.568-8.059-15.137a29.918,29.918,0,0,1-3.085-7.281c-1.172-5.156.287-11.146-2.87-15.388C216.332,2036.655,213.1,2035.385,209.926,2034.979Z" transform="translate(-180.005 -1963.217)" fill="#332862"/>
          <path id="Trazado_636442" data-name="Trazado 636442" d="M218.556,2054.04a18.607,18.607,0,0,0,4.326,4.369,116.123,116.123,0,0,0,23.784,14.575c.371.169-.978,9.7-1.052,10.706-.256,3.472-.222,6.831-.217,10.278q.019,11.3.828,22.571a.588.588,0,0,0,.7.686q5.377.118,10.757-.021c-.065,0,1.589-13.019,1.723-13.929,1.137-7.722,1.956-15.4,3.638-23.061.67-3.051,1.4-6.086,2.116-9.128.524-2.24,1.639-5.328.246-7.431-4.34-6.547-12.216-9.771-19.184-12.836a34.677,34.677,0,0,1-7.45-3.921,9.857,9.857,0,0,1-4.137-7.052c-.018-.422-.037-.923-.393-1.151a1.236,1.236,0,0,0-.966-.023l-14.138,3.573a4.861,4.861,0,0,0-2.389,1.1c-1.136,1.171-.816,3.072-.419,4.654A20.209,20.209,0,0,0,218.556,2054.04Z" transform="translate(-183.297 -1963.861)" fill="#332862"/>
          <path id="Trazado_636443" data-name="Trazado 636443" d="M239.89,1989.951a8.323,8.323,0,0,1,.652,3.115c.289,4.863-.666,9.7-1.616,14.483q-1.972,9.911-3.942,19.821a45.547,45.547,0,0,0-1.2,9.517c0-1.247-13.7-.275-14.876-.209-2.472.139-23.043,3.62-23.05,4.6q.175-21.977.35-43.954a33.736,33.736,0,0,1,.8-8.562c1.615-5.969,5.265-8.741,11.241-8.144l10.869,1.087c6.641.664,13.736,1.515,18.8,5.862A7.522,7.522,0,0,1,239.89,1989.951Z" transform="translate(-179.813 -1953.804)" fill="#583ae2"/>
          <path id="Trazado_636444" data-name="Trazado 636444" d="M197.193,1983.535c-9.716,8.382-14.843,20.759-19.639,32.661a10.183,10.183,0,0,0-1.071,4.817c.308,2.78,2.774,4.758,5.091,6.324a119.769,119.769,0,0,0,32.093,15.312,2.738,2.738,0,0,0,1.668.14,2.78,2.78,0,0,0,1.366-1.6l4.209-8.823a177.752,177.752,0,0,0-26.406-16.6,108.278,108.278,0,0,0,8.593-14.1c1.543-3.027,2.966-6.214,3.2-9.6s-.918-7.054-3.673-9.043a4.115,4.115,0,0,0-2.905-.905A5.217,5.217,0,0,0,197.193,1983.535Z" transform="translate(-176.451 -1954.073)" fill="#583ae2"/>
          <path id="Trazado_636445" data-name="Trazado 636445" d="M224.7,2044.367a6.07,6.07,0,0,0-.687.04c-1.171.142-1.472.609-2.15,1.665a10.792,10.792,0,0,0-1.722,6.187c2.8.492,5.838,1.121,7.644,3.313,1.321,1.605,1.978,2.913,4.27,2.527a26.376,26.376,0,0,0,4.77-1.272,5.464,5.464,0,0,0,1.891-1.034,2.15,2.15,0,0,0,.723-1.945,3.106,3.106,0,0,0-.871-1.379C235.009,2048.648,230.192,2044.331,224.7,2044.367Z" transform="translate(-184.02 -1964.863)" fill="#f7ac9a"/>
          <path id="Trazado_636446" data-name="Trazado 636446" d="M230.5,2025.813h32.974a2.912,2.912,0,0,1,2.889,2.354l4.625,25.462H233.549l-4.7-25.9A1.646,1.646,0,0,1,230.5,2025.813Z" transform="translate(-185.524 -1961.648)" fill="#6ea3f3"/>
          <path id="Trazado_636447" data-name="Trazado 636447" d="M271.165,2054.236H234.818l-4.567-25.9a1.631,1.631,0,0,1,1.606-1.915h32.012a2.849,2.849,0,0,1,2.806,2.355Z" transform="translate(-185.768 -1961.753)" fill="#263238"/>
          <path id="Trazado_636448" data-name="Trazado 636448" d="M229.842,1970.05a7.149,7.149,0,0,0-.2-2.512,4.579,4.579,0,0,0-2.667-2.61,5.349,5.349,0,0,0-6,1.1c-1.116,1.289-1.35,3.1-1.536,4.792-.152,1.672-.25,3.347-.432,5.017-.149,1.357-.775,2.98-.322,4.279a8.325,8.325,0,0,0,4.835,5.175,4.845,4.845,0,0,0,4.643-.37,4.932,4.932,0,0,0,1.081-1.253c1.309-2.048.76-4,.633-6.272C229.747,1974.95,229.759,1972.5,229.842,1970.05Z" transform="translate(-183.741 -1951.02)" fill="#f7ac9a"/>
          <path id="Trazado_636449" data-name="Trazado 636449" d="M228.681,1970.371a6.369,6.369,0,0,0-2.44-1.181c-2.759-.52-3.718,2.228-3.629,4.46a7.919,7.919,0,0,0,1.993,4.875c1.126,1.471,2.8,2.921,4.75,2.961a3.333,3.333,0,0,0,1.454-.242c-.008-.972-.162-1.973-.222-3.043-.115-2.066-.123-4.137-.073-6.206A15.973,15.973,0,0,0,228.681,1970.371Z" transform="translate(-184.448 -1951.826)" fill="#263238"/>
          <path id="Trazado_636450" data-name="Trazado 636450" d="M234.552,1969.641a36.4,36.4,0,0,0,1.184-6.7,6.154,6.154,0,0,0-.756-4.269,9.032,9.032,0,0,0-3.334-3.2,10.021,10.021,0,0,0-4.991-.832,9.033,9.033,0,0,0-4.023,1.108,8.229,8.229,0,0,0-3.644,5.534,16.114,16.114,0,0,0,.344,6.766c1.148,4.932,5.531,11.4,11.376,7.822C232.839,1974.562,233.888,1972.051,234.552,1969.641Z" transform="translate(-183.782 -1949.311)" fill="#f7ac9a"/>
          <path id="Trazado_636451" data-name="Trazado 636451" d="M233.27,1961.292a2.271,2.271,0,0,0-.3.083c-.665.225-1.508.4-1.98-.117a2.251,2.251,0,0,0-.341-.388,1.224,1.224,0,0,0-.748-.1,3.056,3.056,0,0,1-2.122-.724c-.4-.365-.56-1.037-1.236-.89a1.329,1.329,0,0,0-.766.658c-.985,1.547-1.205,3.5-2.827,4.625-.832.575-1.916.8-2.638,1.533a1.51,1.51,0,0,0-.469,1.246,7.3,7.3,0,0,1-.432,1.653c-.122.571.048,1.1-.464,1.489a1.757,1.757,0,0,1-1.79-.015c-.667-.512-.342-1.382-.265-2.073.117-1.039.227-2.079.31-3.122a35.057,35.057,0,0,0,.019-6.249c-.142-1.432-.365-3.037.526-4.168.512-.651,1.364-1.089,1.55-1.9a3.988,3.988,0,0,0,.05-.764,2.917,2.917,0,0,1,.7-1.9,1.857,1.857,0,0,1,1.877-.559c.227.075.436.2.668.256a2.192,2.192,0,0,0,1.817-.768,2.554,2.554,0,0,1,1.778-.9,5.841,5.841,0,0,1,1.265.472c1.391.469,3.075-.58,4.324.192.522.323.832.9,1.307,1.291.858.7,2.1.686,3.088,1.188a3.237,3.237,0,0,1,1.675,2.18,4.532,4.532,0,0,0,.32,1.318c.121.214.3.39.438.591.524.75.126,1.479.375,2.247.239.736.81,1.292-.068,1.862a10.728,10.728,0,0,0-1.127.643c-.715.6-.157,1.7-1.2,1.743-.349.014-.869.089-.8.432a1.924,1.924,0,0,1-1.764-.688,1.2,1.2,0,0,0-.324-.34A.638.638,0,0,0,233.27,1961.292Z" transform="translate(-183.433 -1948.201)" fill="#2e5375"/>
          <path id="Trazado_636452" data-name="Trazado 636452" d="M221.763,1962.746a5.641,5.641,0,0,1,1.265,3.287,3.5,3.5,0,0,1-1.43,3.109,1.467,1.467,0,0,1-.918.275,1.685,1.685,0,0,1-1.105-.768,5.13,5.13,0,0,1-.845-4.278,2.649,2.649,0,0,1,.7-1.312c.432-.4,1.532-1.007,2.095-.576A1.262,1.262,0,0,1,221.763,1962.746Z" transform="translate(-183.75 -1950.65)" fill="#f7ac9a"/>
          <path id="Trazado_636453" data-name="Trazado 636453" d="M220.988,1966.011a3.252,3.252,0,0,1,1.029,1,2.416,2.416,0,0,0-.966-2.527c-.247-.165.05-.518.294-.354a3.041,3.041,0,0,1,.985,3.573.232.232,0,0,1-.443.037,2.7,2.7,0,0,0-1.091-1.307C220.547,1966.274,220.737,1965.855,220.988,1966.011Z" transform="translate(-184.114 -1950.953)" fill="#f4846b"/>
          <path id="Trazado_636454" data-name="Trazado 636454" d="M233.624,1956.738a4.249,4.249,0,0,1,.527,2.59c-.039.294-.492.213-.453-.08a3.87,3.87,0,0,0-.508-2.355C233.057,1956.628,233.491,1956.476,233.624,1956.738Z" transform="translate(-186.277 -1949.656)" fill="#263238"/>
          <path id="Trazado_636455" data-name="Trazado 636455" d="M231.564,1960.974a2.4,2.4,0,0,0,.293-1.847.23.23,0,0,1,.459-.038,2.823,2.823,0,0,1-.4,2.178C231.74,1961.506,231.387,1961.211,231.564,1960.974Z" transform="translate(-185.992 -1950.052)" fill="#263238"/>
          <path id="Trazado_636456" data-name="Trazado 636456" d="M240.678,1962.3a2.579,2.579,0,0,0,.121-1.848c-.039-.293.419-.331.458-.037a2.933,2.933,0,0,1-.224,2.178C240.871,1962.839,240.519,1962.542,240.678,1962.3Z" transform="translate(-187.572 -1950.281)" fill="#263238"/>
          <path id="Trazado_636457" data-name="Trazado 636457" d="M238.728,1962.415a1.849,1.849,0,0,0,.293-1.618c-.06-.289.4-.325.459-.037a2.257,2.257,0,0,1-.4,1.948A.23.23,0,0,1,238.728,1962.415Z" transform="translate(-187.232 -1950.342)" fill="#263238"/>
          <path id="Trazado_636458" data-name="Trazado 636458" d="M225.968,1957.013a.23.23,0,0,1,.355.294,3.872,3.872,0,0,0-.756,1.906.23.23,0,0,1-.453-.079A4.337,4.337,0,0,1,225.968,1957.013Z" transform="translate(-184.882 -1949.713)" fill="#263238"/>
          <path id="Trazado_636459" data-name="Trazado 636459" d="M224.333,1956.529c.213-.2.57.09.355.293a3.16,3.16,0,0,0-.928,2.193c-.03.3-.483.214-.453-.079A3.52,3.52,0,0,1,224.333,1956.529Z" transform="translate(-184.569 -1949.632)" fill="#263238"/>
          <path id="Trazado_636460" data-name="Trazado 636460" d="M220.343,1957.041c.253-.152.518.223.264.377-.8.481-.815,1.432-.883,2.267-.024.3-.476.214-.453-.08C219.349,1958.639,219.428,1957.593,220.343,1957.041Z" transform="translate(-183.87 -1949.726)" fill="#263238"/>
          <path id="Trazado_636461" data-name="Trazado 636461" d="M230.192,1967.928a2.611,2.611,0,0,0,1.33.581c.293.009.334.468.037.458a3.135,3.135,0,0,1-1.661-.685C229.65,1968.12,229.947,1967.767,230.192,1967.928Z" transform="translate(-185.695 -1951.612)" fill="#263238"/>
          <path id="Trazado_636462" data-name="Trazado 636462" d="M235.87,1970.033a3.3,3.3,0,0,0,1.151.172c.294,0,.335.456.037.458a3.932,3.932,0,0,1-1.38-.212C235.4,1970.351,235.593,1969.934,235.87,1970.033Z" transform="translate(-186.689 -1951.981)" fill="#263238"/>
          <path id="Trazado_636463" data-name="Trazado 636463" d="M232.589,1965.629c-.013.264-.121.581-.381.625a.736.736,0,0,1-.335-.05,3.229,3.229,0,0,0-.7-.122c-.255-.015-.513,0-.768-.019a2.747,2.747,0,0,1-.761-.173.4.4,0,0,1-.275-.234.39.39,0,0,1,.117-.323,2.173,2.173,0,0,1,1.862-.774,3.542,3.542,0,0,1,.9.322A.687.687,0,0,1,232.589,1965.629Z" transform="translate(-185.619 -1951.031)" fill="#263238"/>
          <path id="Trazado_636464" data-name="Trazado 636464" d="M238.492,1968.129a4.251,4.251,0,0,0-1.681-.513.759.759,0,0,1-.513-.2.454.454,0,0,1-.028-.488.85.85,0,0,1,.376-.343,1.623,1.623,0,0,1,1.921.385.709.709,0,0,1,.116.591A4.072,4.072,0,0,1,238.492,1968.129Z" transform="translate(-186.805 -1951.358)" fill="#263238"/>
          <path id="Trazado_636465" data-name="Trazado 636465" d="M230.934,1968.848c.294,0,.336.459.038.459S230.637,1968.848,230.934,1968.848Z" transform="translate(-185.856 -1951.778)" fill="#263238"/>
          <path id="Trazado_636466" data-name="Trazado 636466" d="M236.453,1970.495c.294,0,.335.459.038.459S236.156,1970.495,236.453,1970.495Z" transform="translate(-186.812 -1952.063)" fill="#263238"/>
          <path id="Trazado_636467" data-name="Trazado 636467" d="M230.547,1968.769a.471.471,0,0,1,.3-.191.277.277,0,0,1,.284.267.5.5,0,0,1,0,.078.269.269,0,0,1,.011.2.844.844,0,0,1-.12.243.233.233,0,0,1-.158.135.309.309,0,0,1-.329-.045A.509.509,0,0,1,230.547,1968.769Z" transform="translate(-185.799 -1951.731)" fill="#263238"/>
          <path id="Trazado_636468" data-name="Trazado 636468" d="M235.988,1970.974l0-.016c.047-.247.185-.58.487-.469.353.129.246.524.079.757a.486.486,0,0,1-.175.167C236.048,1971.577,235.95,1971.213,235.988,1970.974Z" transform="translate(-186.765 -1952.059)" fill="#263238"/>
          <path id="Trazado_636469" data-name="Trazado 636469" d="M231.909,1965.97a6.068,6.068,0,0,0,.594-.536.231.231,0,0,1,.321.056.235.235,0,0,1-.057.321,6.1,6.1,0,0,1-.594.537C231.923,1966.506,231.658,1966.13,231.909,1965.97Z" transform="translate(-186.042 -1951.179)" fill="#2e5375"/>
          <path id="Trazado_636470" data-name="Trazado 636470" d="M230.706,1965.634c.279-.229.609-.383.9-.594.241-.175.5.2.265.377-.292.212-.621.365-.9.594C230.74,1966.2,230.477,1965.82,230.706,1965.634Z" transform="translate(-185.836 -1951.11)" fill="#2e5375"/>
          <path id="Trazado_636471" data-name="Trazado 636471" d="M237.754,1967.578c.2-.145.347-.343.537-.5a.231.231,0,0,1,.32.057.233.233,0,0,1-.056.32c-.189.156-.339.352-.537.5C237.779,1968.132,237.516,1967.755,237.754,1967.578Z" transform="translate(-187.056 -1951.464)" fill="#2e5375"/>
          <path id="Trazado_636472" data-name="Trazado 636472" d="M236.966,1967.37a3.945,3.945,0,0,1,.649-.412.231.231,0,0,1,.294.14.237.237,0,0,1-.14.294,3.3,3.3,0,0,0-.54.355C237,1967.93,236.733,1967.552,236.966,1967.37Z" transform="translate(-186.92 -1951.448)" fill="#2e5375"/>
          <path id="Trazado_636473" data-name="Trazado 636473" d="M229.891,1971.4c.294,0,.335.459.037.459S229.594,1971.4,229.891,1971.4Z" transform="translate(-185.675 -1952.22)" fill="#f4846b"/>
          <path id="Trazado_636474" data-name="Trazado 636474" d="M228.778,1971.538c.294,0,.335.459.037.459S228.481,1971.538,228.778,1971.538Z" transform="translate(-185.482 -1952.244)" fill="#f4846b"/>
          <path id="Trazado_636475" data-name="Trazado 636475" d="M229.218,1970.7c.294,0,.336.459.038.459S228.922,1970.7,229.218,1970.7Z" transform="translate(-185.558 -1952.099)" fill="#f4846b"/>
          <path id="Trazado_636476" data-name="Trazado 636476" d="M228.291,1970.333c.294,0,.335.458.037.458S227.994,1970.333,228.291,1970.333Z" transform="translate(-185.398 -1952.036)" fill="#f4846b"/>
          <path id="Trazado_636477" data-name="Trazado 636477" d="M228.291,1970.982c.294,0,.335.458.037.458S227.994,1970.982,228.291,1970.982Z" transform="translate(-185.398 -1952.148)" fill="#f4846b"/>
          <path id="Trazado_636478" data-name="Trazado 636478" d="M227.2,1971c.294,0,.335.459.038.459S226.9,1971,227.2,1971Z" transform="translate(-185.209 -1952.152)" fill="#f4846b"/>
          <path id="Trazado_636479" data-name="Trazado 636479" d="M227.155,1969.846c.294,0,.335.458.037.458S226.858,1969.846,227.155,1969.846Z" transform="translate(-185.201 -1951.951)" fill="#f4846b"/>
          <path id="Trazado_636480" data-name="Trazado 636480" d="M226.2,1969.567c.294,0,.335.459.037.459S225.907,1969.567,226.2,1969.567Z" transform="translate(-185.036 -1951.903)" fill="#f4846b"/>
          <path id="Trazado_636481" data-name="Trazado 636481" d="M230.54,1970.982c.294,0,.335.458.038.458S230.243,1970.982,230.54,1970.982Z" transform="translate(-185.787 -1952.148)" fill="#f4846b"/>
          <path id="Trazado_636482" data-name="Trazado 636482" d="M236.314,1973.44c.294,0,.335.458.037.458S236.017,1973.44,236.314,1973.44Z" transform="translate(-186.788 -1952.574)" fill="#f4846b"/>
          <path id="Trazado_636483" data-name="Trazado 636483" d="M235.41,1973.045c.294,0,.335.459.037.459S235.113,1973.045,235.41,1973.045Z" transform="translate(-186.631 -1952.505)" fill="#f4846b"/>
          <path id="Trazado_636484" data-name="Trazado 636484" d="M235.526,1974c.293,0,.335.459.037.459S235.229,1974,235.526,1974Z" transform="translate(-186.651 -1952.67)" fill="#f4846b"/>
          <path id="Trazado_636485" data-name="Trazado 636485" d="M236.778,1972.976c.294,0,.335.459.037.459S236.481,1972.976,236.778,1972.976Z" transform="translate(-186.868 -1952.493)" fill="#f4846b"/>
          <path id="Trazado_636486" data-name="Trazado 636486" d="M235.317,1972.628c.294,0,.335.459.037.459S235.02,1972.628,235.317,1972.628Z" transform="translate(-186.615 -1952.433)" fill="#f4846b"/>
          <path id="Trazado_636487" data-name="Trazado 636487" d="M218.527,1964.594c.427-1.466,1.357-3.1,3.137-2.426,1.453.555,2.064,2.812,1.879,4.192-.04.294-.493.213-.453-.08a4.16,4.16,0,0,0-1.184-3.41c-1.448-1.37-2.579.609-2.926,1.8C218.9,1964.956,218.444,1964.879,218.527,1964.594Z" transform="translate(-183.739 -1950.594)" fill="#263238"/>
          <path id="Trazado_636488" data-name="Trazado 636488" d="M217.987,1981.36a11.839,11.839,0,0,0,.842-4,35.7,35.7,0,0,1,.75-4.612c.079-.284.532-.207.453.079a39.069,39.069,0,0,0-.808,5.031,10.763,10.763,0,0,1-.819,3.691C218.259,1981.807,217.839,1981.616,217.987,1981.36Z" transform="translate(-183.642 -1952.423)" fill="#263238"/>
          <path id="Trazado_636489" data-name="Trazado 636489" d="M221.947,1984.372a21.229,21.229,0,0,0,3.249,2.854.331.331,0,0,0,.212.071.338.338,0,0,0,.179-.112q1.38-1.344,2.632-2.812a3.453,3.453,0,0,0,.881-1.335,1.672,1.672,0,0,0,.038-.385c0-.352-.251-1.265.221-1.293.488-.03.694.732.836,1.066a12.087,12.087,0,0,0,.987,2.222,19.852,19.852,0,0,1,1.669,2.312.558.558,0,0,1,.126.259.546.546,0,0,1-.1.3c-1.2,2.161-3.022,3.855-4.483,5.825.257-.588-.971-1.963-1.23-2.524a17.308,17.308,0,0,1-4.352-.4c-.022-.006-.764,1.128-.862,1.225a15.442,15.442,0,0,1-1.749,1.4c-.443.322-5.214-7.044-5.566-7.622a8.117,8.117,0,0,1-.814-1.609.461.461,0,0,1-.025-.319.466.466,0,0,1,.207-.2,10.393,10.393,0,0,0,1.692-1,6.09,6.09,0,0,0,1.135-1.482,14.623,14.623,0,0,0,.806-1.6c.11-.257.253-.552.527-.605.041,2.079,1.577,3.6,2.975,4.974Q221.543,1983.984,221.947,1984.372Z" transform="translate(-182.919 -1953.471)" fill="#fff"/>
          <path id="Trazado_636490" data-name="Trazado 636490" d="M213.8,1983.484a2.388,2.388,0,0,1,.747-.631,6.515,6.515,0,0,0,1.4-1.257c.823-.931,1.036-2.238,1.878-3.174a.222.222,0,0,1,.16-.076.228.228,0,0,1,.4.127c.1,1.944,1.337,3.5,2.543,4.932a15.438,15.438,0,0,0,4.225,3.581.207.207,0,0,1,.055.044,11.221,11.221,0,0,0,2.354-2.131c.934-.958,1.75-1.839,1.561-3.284-.039-.294.42-.332.459-.037a3.715,3.715,0,0,1-1.185,3.131,12.391,12.391,0,0,1-3.015,2.75.246.246,0,0,1-.28-.037.2.2,0,0,1-.14-.019,16.723,16.723,0,0,1-4.41-3.734,9.361,9.361,0,0,1-2.578-4.7c-.619.813-.927,1.809-1.482,2.67a6.121,6.121,0,0,1-1.086,1.142c-.394.356-.941.556-1.252.995C213.985,1984.02,213.632,1983.725,213.8,1983.484Z" transform="translate(-182.915 -1953.411)" fill="#263238"/>
          <path id="Trazado_636491" data-name="Trazado 636491" d="M216.581,1989.641c.347.745,3.863,5.62,4.483,5.008s1.082-1.424,1.658-2.094c.8-.928,1.685-1.777,2.552-2.638.209-.208.565.084.355.293-.966.959-1.932,1.915-2.819,2.948a16.085,16.085,0,0,1-1.868,2.215.229.229,0,0,1-.279-.012,20.008,20.008,0,0,1-4.515-5.566C216.023,1989.527,216.457,1989.374,216.581,1989.641Z" transform="translate(-183.325 -1955.356)" fill="#263238"/>
          <path id="Trazado_636492" data-name="Trazado 636492" d="M228.338,1990.718c.352.808,1.1,1.319,1.53,2.073.166.288,1.033,2.05,1.473,1.613a20.373,20.373,0,0,0,1.557-2.154,22.673,22.673,0,0,0,2.145-3.047c.14-.26.558-.069.418.193a25.864,25.864,0,0,1-2.435,3.443c-.309.4-1.148,2.158-1.767,2.163-.709,0-1.148-.895-1.462-1.411a25.369,25.369,0,0,1-1.894-2.718C227.787,1990.6,228.221,1990.446,228.338,1990.718Z" transform="translate(-185.363 -1955.283)" fill="#263238"/>
          <path id="Trazado_636493" data-name="Trazado 636493" d="M224.766,1992.755a13.059,13.059,0,0,1,1.615.278,14.605,14.605,0,0,0,2.239-.048c.294,0,.336.456.038.458-.671.007-1.34.07-2.011.062-.633-.007-1.211-.276-1.842-.292C224.511,1993.206,224.47,1992.747,224.766,1992.755Z" transform="translate(-184.787 -1955.92)" fill="#263238"/>
          <path id="Trazado_636494" data-name="Trazado 636494" d="M236.152,1986.78c.547-.557.284-1.508.179-2.193-.045-.293.413-.33.458-.037.125.813.367,1.863-.282,2.523C236.3,1987.284,235.944,1986.992,236.152,1986.78Z" transform="translate(-186.784 -1954.464)" fill="#263238"/>
          <path id="Trazado_636495" data-name="Trazado 636495" d="M214.211,1983.173a9.615,9.615,0,0,0,.327-1.5.23.23,0,0,1,.453.08,10.32,10.32,0,0,1-.362,1.609C214.538,1983.647,214.121,1983.451,214.211,1983.173Z" transform="translate(-182.991 -1953.969)" fill="#263238"/>
          <path id="Trazado_636496" data-name="Trazado 636496" d="M191.842,2025.594a10.356,10.356,0,0,1,4.291-2.559c.423-.13.658.519.231.65a9.618,9.618,0,0,0-3.991,2.349C192.06,2026.345,191.526,2025.906,191.842,2025.594Z" transform="translate(-179.101 -1961.164)" fill="#263238"/>
          <path id="Trazado_636497" data-name="Trazado 636497" d="M200.868,2024.018c.993.994,2.419,1.423,3.555,2.235,1.615,1.155,3.192,2.363,4.794,3.534,3.256,2.383,6.535,4.735,9.9,6.959.371.246-.074.774-.441.532-3.366-2.225-6.644-4.579-9.9-6.959-1.491-1.09-2.965-2.2-4.455-3.29-1.234-.9-2.807-1.393-3.893-2.481C200.116,2024.237,200.554,2023.7,200.868,2024.018Z" transform="translate(-180.587 -1961.32)" fill="#263238"/>
          <path id="Trazado_636498" data-name="Trazado 636498" d="M220,2051.133a11.946,11.946,0,0,0,.326-2.735,5.534,5.534,0,0,1,.69-2.027,10.42,10.42,0,0,1,2.78-2.892c.344-.283.737.284.4.565a9.323,9.323,0,0,0-2.838,3.2c-.608,1.321-.266,2.819-.727,4.177C220.48,2051.843,219.855,2051.549,220,2051.133Z" transform="translate(-183.992 -1964.695)" fill="#263238"/>
          <path id="Trazado_636499" data-name="Trazado 636499" d="M242.969,2018.071c1.784-7.862,2.8-15.968,1.529-23.989-.069-.44.619-.495.688-.057,1.276,8.076.259,16.251-1.538,24.166C243.551,2018.624,242.871,2018.506,242.969,2018.071Z" transform="translate(-187.974 -1956.088)" fill="#263238"/>
          <path id="Trazado_636500" data-name="Trazado 636500" d="M198.708,2015.6a63.583,63.583,0,0,0,8.319-12.563c2.178-4.343,4.221-9.507,2.05-14.246-.185-.4.466-.634.651-.231,2.083,4.55.428,9.484-1.577,13.746a62.664,62.664,0,0,1-8.911,13.735A.345.345,0,0,1,198.708,2015.6Z" transform="translate(-180.293 -1955.157)" fill="#263238"/>
          <ellipse id="Elipse_5460" data-name="Elipse 5460" cx="27.145" cy="1.399" rx="27.145" ry="1.399" transform="translate(31.106 91.279)" fill="#261e49"/>
          <path id="Trazado_636501" data-name="Trazado 636501" d="M233.033,2032.168c.418,3.162,1.249,6.244,1.84,9.375.083.437-.606.49-.688.057-.591-3.131-1.422-6.212-1.84-9.374C232.287,2031.784,232.975,2031.728,233.033,2032.168Z" transform="translate(-186.135 -1962.697)" fill="#6ea3f3"/>
          <path id="Trazado_636502" data-name="Trazado 636502" d="M236.215,2048.427a11.612,11.612,0,0,1,.557,3c.119,1.382.391,2.73.554,4.105.052.441-.636.5-.688.056-.134-1.126-.383-2.231-.492-3.362a14.305,14.305,0,0,0-.582-3.567A.345.345,0,0,1,236.215,2048.427Z" transform="translate(-186.689 -1965.528)" fill="#6ea3f3"/>
          <ellipse id="Elipse_5461" data-name="Elipse 5461" cx="6.729" cy="1" rx="6.729" ry="1" transform="translate(58.747 69.168)" fill="#6ea3f3"/>
          <path id="Trazado_636503" data-name="Trazado 636503" d="M236.623,2059.913c0,.251,8.207.454,18.331.454s18.332-.2,18.332-.454-8.208-.454-18.332-.454S236.623,2059.662,236.623,2059.913Z" transform="translate(-186.877 -1967.478)" fill="#6ea3f3"/>
          <path id="Trazado_636504" data-name="Trazado 636504" d="M270.479,2059.871c.51-.762.165-1.89.152-2.742-.007-.443.681-.5.688-.057.017,1.092.345,2.264-.308,3.239C270.762,2060.681,270.234,2060.237,270.479,2059.871Z" transform="translate(-192.731 -1967.011)" fill="#263238"/>
          <path id="Trazado_636505" data-name="Trazado 636505" d="M269.5,2059.671c.464-.445.236-1.148.152-1.707-.066-.44.622-.5.688-.056.112.748.308,1.613-.308,2.2C269.711,2060.416,269.177,2059.979,269.5,2059.671Z" transform="translate(-192.555 -1967.156)" fill="#263238"/>
          <path id="Trazado_636506" data-name="Trazado 636506" d="M247.742,2060.421c.284-.118.365-.6.425-.857a10.457,10.457,0,0,0,.156-1.063c.054-.443.733-.321.68.12-.1.808-.146,2.084-1.029,2.45C247.562,2061.241,247.332,2060.591,247.742,2060.421Z" transform="translate(-188.766 -1967.264)" fill="#263238"/>
          <path id="Trazado_636507" data-name="Trazado 636507" d="M246.618,2060.5a3.993,3.993,0,0,0,.5-1.8c.064-.441.743-.32.68.12a4.612,4.612,0,0,1-.649,2.115C246.891,2061.308,246.361,2060.865,246.618,2060.5Z" transform="translate(-188.596 -1967.3)" fill="#263238"/>
          <path id="Trazado_636508" data-name="Trazado 636508" d="M226.816,2158.17l-1.709,5.667,7.787,5.252,6.579,7.434,12.294,1.524-1.609-6.707L242,2164.267l-4.666,2.616Z" transform="translate(-184.881 -1984.58)" fill="#263238"/>
          <path id="Trazado_636509" data-name="Trazado 636509" d="M253.235,2138.271l-.663,4.058.332,4.354,7.087.829,3.428.319,7.615,3.486,7.382-.472-1.065-3.009-7.992-4.4-3.865-3.54-5.006,2.431Z" transform="translate(-189.64 -1981.133)" fill="#263238"/>
          <path id="Trazado_636510" data-name="Trazado 636510" d="M248.7,2171.886a1.588,1.588,0,0,0-.308-1.476c-1.819-2.957-4.118-5.663-5.348-8.91-.191-.506-.432-1.1-.957-1.227a1.488,1.488,0,0,0-.926.162,9.382,9.382,0,0,0-3.553,2.689,21.94,21.94,0,0,0,5.487,7.558,8.142,8.142,0,0,0,2.339,1.719,3.115,3.115,0,0,0,2.808-.062A1.19,1.19,0,0,0,248.7,2171.886Z" transform="translate(-187.046 -1984.941)" fill="#263238"/>
          <path id="Trazado_636511" data-name="Trazado 636511" d="M225.145,2163.853v2.482l6.355,3.043,8.512,9.248,12.155,1.635-1.42-5.508,0,3.408-9.707-1.565-8.582-7.872Z" transform="translate(-184.888 -1985.565)" fill="#fff"/>
          <path id="Trazado_636512" data-name="Trazado 636512" d="M252.961,2148.487v2.336l9.5,0,7.79,3.738,8.262-.775v-1.141l-7.412-.032-7.615-3.014Z" transform="translate(-189.707 -1982.903)" fill="#fff"/>
          <path id="Trazado_636513" data-name="Trazado 636513" d="M240.9,2170.532l-.457-.364a13.026,13.026,0,0,1,4.718-3.7l.245.531A12.421,12.421,0,0,0,240.9,2170.532Z" transform="translate(-187.538 -1986.018)" fill="#fff"/>
          <path id="Trazado_636514" data-name="Trazado 636514" d="M243.164,2173.043l-.407-.419a16.575,16.575,0,0,1,5.012-3.343l.232.537A15.979,15.979,0,0,0,243.164,2173.043Z" transform="translate(-187.939 -1986.505)" fill="#fff"/>
          <path id="Trazado_636515" data-name="Trazado 636515" d="M266.763,2146.427l-.447-.375a18.877,18.877,0,0,1,3.531-3.257l.338.476A18.293,18.293,0,0,0,266.763,2146.427Z" transform="translate(-192.021 -1981.916)" fill="#fff"/>
          <path id="Trazado_636516" data-name="Trazado 636516" d="M270.082,2148.091l-.5-.31a14.549,14.549,0,0,1,2.9-3.361l.379.445A13.927,13.927,0,0,0,270.082,2148.091Z" transform="translate(-192.588 -1982.198)" fill="#fff"/>
          <path id="Trazado_636517" data-name="Trazado 636517" d="M224.6,2132.833l-6.452-46.025-15.177-24.139,1.147-9.361.58.071-1.122,9.154,15.133,24.07.009.062,6.46,46.087Z" transform="translate(-181.046 -1966.412)" fill="#261e49"/>
          <path id="Trazado_636518" data-name="Trazado 636518" d="M252.924,2072.9c-3.575-1.729-7.176-3.531-10.7-5.354-3.719-1.923-7.53-3.583-11.431-5.255l-2.236-.958.23-.537,2.236.958c3.912,1.676,7.732,3.341,11.47,5.273,3.522,1.821,7.118,3.62,10.688,5.347Z" transform="translate(-185.478 -1967.709)" fill="#261e49"/>
          <path id="Trazado_636519" data-name="Trazado 636519" d="M255.984,2122.806l-.208-33.609a35.685,35.685,0,0,1,1.794-10.273l.563.157a35.2,35.2,0,0,0-1.772,10.112l.207,33.61Z" transform="translate(-190.195 -1970.85)" fill="#261e49"/>
          <rect id="Rectángulo_44899" data-name="Rectángulo 44899" width="3.627" height="0.584" transform="translate(65.384 106.786) rotate(-29.018)" fill="#261e49"/>
          <rect id="Rectángulo_44900" data-name="Rectángulo 44900" width="4.453" height="0.584" transform="translate(66.101 108.203)" fill="#261e49"/>
          <rect id="Rectángulo_44901" data-name="Rectángulo 44901" width="0.584" height="4.259" transform="translate(42.768 120.937) rotate(-45.621)" fill="#261e49"/>
          <path id="Trazado_636520" data-name="Trazado 636520" d="M240.481,2095.747l-.584-.017a21.692,21.692,0,0,1,.393-3.557l.573.111A21.18,21.18,0,0,0,240.481,2095.747Z" transform="translate(-187.444 -1973.146)" fill="#261e49"/>
          <path id="Trazado_636521" data-name="Trazado 636521" d="M208.136,2048.524a91.336,91.336,0,0,1-27.566-13.865,16.6,16.6,0,0,1-3.963-3.731l.479-.333a16.137,16.137,0,0,0,3.829,3.594,90.755,90.755,0,0,0,27.391,13.777Z" transform="translate(-176.478 -1962.476)" fill="#103d52"/>
          <path id="Trazado_636522" data-name="Trazado 636522" d="M180.06,2012.24l-.57-.126a15.878,15.878,0,0,1,.842-2.5,99.722,99.722,0,0,1,4.281-9.229c3.8-7.189,7.689-12.555,12.232-16.886l.4.422c-4.5,4.287-8.347,9.6-12.119,16.737a99.465,99.465,0,0,0-4.255,9.174A15.4,15.4,0,0,0,180.06,2012.24Z" transform="translate(-176.978 -1954.316)" fill="#103d52"/>
        </g>
        <path id="Trazado_636523" data-name="Trazado 636523" d="M233.3,1973.765a.949.949,0,0,1-.226-.031,5.266,5.266,0,0,1-1.567-.67l.274-.431a4.753,4.753,0,0,0,1.415.6.513.513,0,0,0,.1.017c0-.021.009-.049.011-.063l.825-5.444.505.077-.824,5.444a.608.608,0,0,1-.164.368A.49.49,0,0,1,233.3,1973.765Z" transform="translate(-185.99 -1951.587)" fill="#103d52"/>
        <path id="Trazado_636524" data-name="Trazado 636524" d="M229.975,1977.557a4.211,4.211,0,0,1-1.3-1.722l.473-.194a3.7,3.7,0,0,0,1.143,1.514Z" transform="translate(-185.499 -1952.955)" fill="#103d52"/>
      </g>
    </g>
  </g>
</svg>
