<svg xmlns="http://www.w3.org/2000/svg" xmlns:xlink="http://www.w3.org/1999/xlink" width="190" height="112" viewBox="0 0 190 112">
  <defs>
    <clipPath id="clip-path">
      <rect id="Rectángulo_45380" data-name="Rectángulo 45380" width="96" height="96" transform="translate(-0.202 -0.202)" fill="#fff" stroke="#707070" stroke-width="1"/>
    </clipPath>
  </defs>
  <g id="Grupo_957546" data-name="Grupo 957546" transform="translate(-1230 -3991)">
    <g id="Grupo_957545" data-name="Grupo 957545" transform="translate(1264.622 3990.622)">
      <rect id="Rectángulo_34429" data-name="Rectángulo 34429" width="112" height="112" transform="translate(0.378 0.378)" fill="none"/>
      <g id="Enmascarar_grupo_145" data-name="Enmascarar grupo 145" transform="translate(8.579 8.579)" clip-path="url(#clip-path)">
        <g id="gusano" transform="translate(0.408 0.304)">
          <path id="Trazado_656536" data-name="Trazado 656536" d="M84.478,70.451H72.033v8.641H84.478a3.365,3.365,0,0,1,3.361,3.36v9.761a4.321,4.321,0,1,0,8.641,0V82.453a12.016,12.016,0,0,0-12-12Zm0,0" transform="translate(-2.79 -2.638)" fill="#2ff980"/>
          <path id="Trazado_656537" data-name="Trazado 656537" d="M10.188,68.652V58.329a.985.985,0,0,1,.984-.984h8.1V48.7h-8.1a9.636,9.636,0,0,0-9.625,9.625V68.652a9.636,9.636,0,0,0,9.625,9.625H30.6V69.636H11.172a.985.985,0,0,1-.984-.984Zm0,0" transform="translate(-0.151 -1.824)" fill="#2ff980"/>
          <path id="Trazado_656538" data-name="Trazado 656538" d="M86.01,30.647V55.818c0,16.671-26.569,32.723-32.939,36.334a2.756,2.756,0,0,1-2.723,0A123.923,123.923,0,0,1,35.2,81.978c-5.355-4.24-10.793-9.424-14.221-15.025a21.521,21.521,0,0,1-3.572-11.134V30.647A2.754,2.754,0,0,1,19.96,27.89c5.947-.4,8.018-2.47,8.42-8.418a2.755,2.755,0,0,1,2.755-2.556H72.281a2.754,2.754,0,0,1,2.755,2.556c.4,5.947,2.473,8.018,8.42,8.418a2.754,2.754,0,0,1,2.553,2.758Zm0,0" transform="translate(-0.745 -0.633)" fill="#e3f4ff"/>
          <path id="Trazado_656539" data-name="Trazado 656539" d="M50.673,85.581A121.989,121.989,0,0,1,40.59,78.554c-1.53-1.187-3-2.406-4.383-3.621-4.139-3.643-9.483-9.114-11.43-14.483a10.358,10.358,0,0,1-.71-3.512V36.582a2.42,2.42,0,0,1,1.506-2.24A15.565,15.565,0,0,0,34.4,25.516a2.419,2.419,0,0,1,2.241-1.506h30.63a2.418,2.418,0,0,1,2.24,1.506,15.567,15.567,0,0,0,8.829,8.826,2.418,2.418,0,0,1,1.506,2.24V56.938a13.3,13.3,0,0,1-2.03,6.352c-2.013,3.593-5.415,7.51-10.11,11.643A114.587,114.587,0,0,1,53.243,85.581a2.419,2.419,0,0,1-2.571,0Zm0,0" transform="translate(-0.994 -0.899)" fill="#bddff4"/>
          <path id="Trazado_656540" data-name="Trazado 656540" d="M77.523,36.677V57.033c0,1.458-.817,6.934-11.32,16.179A111.574,111.574,0,0,1,52.052,83.625a120.223,120.223,0,0,1-9.881-6.886c-1.427-1.108-2.866-2.289-4.27-3.527-7.09-6.239-9.765-10.763-10.755-13.492a7.992,7.992,0,0,1-.565-2.687V36.677A17.9,17.9,0,0,0,36.737,26.524h30.63A17.9,17.9,0,0,0,77.523,36.677Zm0,0" transform="translate(-1.088 -0.993)" fill="#583ae2"/>
          <path id="Trazado_656541" data-name="Trazado 656541" d="M49.746,52.8c0-5.623-2.587-10.181-5.778-10.181S38.189,47.174,38.189,52.8s2.587,10.181,5.779,10.181S49.746,58.419,49.746,52.8Zm0,0" transform="translate(-1.523 -1.596)" fill="#364ec6"/>
          <path id="Trazado_656542" data-name="Trazado 656542" d="M71.864,5.772a4.322,4.322,0,0,1-4.321,4.321H63.528V43.56A12.028,12.028,0,0,1,51.513,55.575H38.735a17.391,17.391,0,0,1,0-8.641H51.512a3.378,3.378,0,0,0,3.374-3.374V9.583a8.144,8.144,0,0,1,8.135-8.133h4.522a4.32,4.32,0,0,1,4.321,4.321Zm0,0" transform="translate(-1.523 -0.054)" fill="#2ff980"/>
          <path id="Trazado_656543" data-name="Trazado 656543" d="M84.242,66.506A22.469,22.469,0,0,0,87.7,55.185V30.012a4.158,4.158,0,0,0-3.856-4.148c-5.237-.353-6.767-1.884-7.12-7.12a4.159,4.159,0,0,0-4.149-3.856H64.436V11.433h2.617A5.717,5.717,0,1,0,67.053,0H62.532A9.541,9.541,0,0,0,53,9.53v5.358H44.158a1.4,1.4,0,0,0,0,2.792H53v6.455H36.682A1.4,1.4,0,0,0,35.389,25,16.547,16.547,0,0,1,26,34.391a1.4,1.4,0,0,0-.87,1.293V56.039c0,2.058,1.149,7.858,11.792,17.228A113.9,113.9,0,0,0,51.256,83.816a1.4,1.4,0,0,0,1.483,0A113.951,113.951,0,0,0,67.071,73.267C77.715,63.9,78.864,58.1,78.864,56.039V49a1.4,1.4,0,1,0-2.792,0v7.041c0,.932-.523,6.045-10.845,15.132A109.723,109.723,0,0,1,52,80.981a109.663,109.663,0,0,1-13.229-9.81c-10.322-9.087-10.846-14.2-10.846-15.132V36.6A19.087,19.087,0,0,0,37.6,26.926H53v16.58a1.98,1.98,0,0,1-1.978,1.978H49.746c-1.247-3.624-3.626-5.86-6.268-5.86-4.023,0-7.175,5.085-7.175,11.576s3.152,11.576,7.175,11.576c2.659,0,5.019-2.227,6.267-5.86h1.278A13.426,13.426,0,0,0,64.435,43.506V26.926H66.4A19.085,19.085,0,0,0,76.072,36.6v5.972a1.4,1.4,0,0,0,2.792,0V35.684a1.4,1.4,0,0,0-.869-1.293A16.544,16.544,0,0,1,68.606,25a1.394,1.394,0,0,0-1.292-.869H64.436V17.68h8.135a1.359,1.359,0,0,1,1.363,1.252c.448,6.636,3.081,9.27,9.717,9.717A1.359,1.359,0,0,1,84.9,30.012V55.184c0,9.476-9.491,18.941-17.452,25.213A1.4,1.4,0,1,0,69.18,82.59q3.012-2.374,5.56-4.739h7.981a1.967,1.967,0,0,1,1.964,1.964v9.761a5.717,5.717,0,1,0,11.433,0V79.815A13.414,13.414,0,0,0,84.242,66.506Zm-22.6-45.7h-5.85V14.86h5.85Zm0,8.737h-5.85V23.6h5.85Zm-5.85,2.792h5.85V38.28h-5.85ZM62.532,2.792h4.521a2.925,2.925,0,0,1,0,5.85H63.04a1.4,1.4,0,0,0-1.4,1.4v2.031h-5.85V9.53A6.746,6.746,0,0,1,62.532,2.792ZM39.359,54.126a16.428,16.428,0,0,1,0-5.85H45.74v5.85Zm4.12-11.71c1.206,0,2.424,1.172,3.269,3.068H40.206C41.068,43.561,42.311,42.416,43.479,42.416Zm0,17.569c-1.168,0-2.41-1.144-3.272-3.068h6.541C45.9,58.8,44.677,59.986,43.479,59.986Zm5.054-5.86v-5.85h2.492a4.74,4.74,0,0,0,2.148-.513L57.4,51.991a10.561,10.561,0,0,1-6.377,2.135Zm10.86-4.092-4.2-4.2a4.732,4.732,0,0,0,.606-2.324V41.072h5.85v2.434A10.565,10.565,0,0,1,59.392,50.033ZM93.328,79.815v2.812h-5.85V79.815a4.726,4.726,0,0,0-.545-2.207l3.752-4.786A10.558,10.558,0,0,1,93.328,79.815ZM77.586,75.059a53.79,53.79,0,0,0,4.152-4.824q.388-.514.752-1.026h.232a10.542,10.542,0,0,1,5.86,1.771l-3.633,4.634a4.723,4.723,0,0,0-2.227-.555ZM90.4,92.5a2.928,2.928,0,0,1-2.925-2.925V85.42h5.85v4.156A2.928,2.928,0,0,1,90.4,92.5Zm0,0" transform="translate(-1.034 0)"/>
          <path id="Trazado_656544" data-name="Trazado 656544" d="M61.369,84.789c-4.194,2.929-7.837,5.076-9.635,6.1a1.357,1.357,0,0,1-1.346,0c-5.382-3.05-32.233-19.076-32.233-35.121V30.592a1.359,1.359,0,0,1,1.252-1.363c6.636-.447,9.27-3.081,9.717-9.717a1.359,1.359,0,0,1,1.364-1.252H36.8a1.4,1.4,0,1,0,0-2.792H30.488a4.159,4.159,0,0,0-4.149,3.856c-.353,5.236-1.884,6.766-7.12,7.12a4.158,4.158,0,0,0-3.856,4.148V46.063H11.118A11.033,11.033,0,0,0,.1,57.084V67.408A11.034,11.034,0,0,0,11.118,78.429h17.2q.779.722,1.6,1.448A120.477,120.477,0,0,0,49.011,93.314a4.178,4.178,0,0,0,4.1,0c1.841-1.043,5.57-3.241,9.857-6.235a1.4,1.4,0,0,0-1.6-2.289Zm-40.81-15a51.645,51.645,0,0,0,4.907,5.85h-8.5v-5.85ZM18.755,67H11.53V57.5h3.922A23.549,23.549,0,0,0,18.755,67Zm-3.392-18.14V54.7H11.118a2.359,2.359,0,0,0-.52.059L6.273,50.438a8.186,8.186,0,0,1,4.845-1.583ZM4.328,52.442l4.421,4.421c-.007.073-.011.147-.011.222V60.85H2.888V57.084a8.18,8.18,0,0,1,1.44-4.643ZM2.888,67.407V63.641h5.85v3.766a2.328,2.328,0,0,0,.036.4L4.412,72.169a8.179,8.179,0,0,1-1.524-4.761Zm3.5,6.73,4.38-4.379a2.367,2.367,0,0,0,.347.028h3.056v5.85H11.118a8.18,8.18,0,0,1-4.726-1.5Zm0,0" transform="translate(-0.097 -0.579)"/>
        </g>
      </g>
    </g>
    <rect id="Rectángulo_45467" data-name="Rectángulo 45467" width="190" height="112" transform="translate(1230 3991)" fill="none"/>
  </g>
</svg>
