<svg xmlns="http://www.w3.org/2000/svg" width="266.41" height="260.164" viewBox="0 0 266.41 260.164">
  <g id="Grupo_953942" data-name="Grupo 953942" transform="translate(-1106.873 -2573.308)">
    <g id="Grupo_953955" data-name="Grupo 953955">
      <g id="Grupo_953944" data-name="Grupo 953944">
        <g id="Grupo_953943" data-name="Grupo 953943">
          <rect id="Rect치ngulo_44965" data-name="Rect치ngulo 44965" width="33.747" height="50.067" transform="matrix(0.135, -0.991, 0.991, 0.135, 1304, 2822.136)" fill="#ebebeb"/>
        </g>
      </g>
      <g id="Grupo_953948" data-name="Grupo 953948">
        <g id="Grupo_953947" data-name="Grupo 953947">
          <g id="Grupo_953946" data-name="Grupo 953946">
            <g id="Grupo_953945" data-name="Grupo 953945">
              <path id="Trazado_636972" data-name="Trazado 636972" d="M1358.27,2795.884a3.494,3.494,0,0,1-.522.382l-1.546,1.022c-1.4.9-3.345,2.151-5.737,3.691-4.907,3.1-11.623,7.354-19.062,12.062l-.157.1-.128-.135-.311-.326-15.728-16.593-4.728-5.064-1.269-1.393a.33.33,0,1,1,.066-.063l1.331,1.334,4.833,4.964,15.824,16.5.311.326-.286-.035,19.134-11.948,5.813-3.569,1.591-.95A3.535,3.535,0,0,1,1358.27,2795.884Z" fill="#e0e0e0"/>
            </g>
          </g>
        </g>
      </g>
      <g id="Grupo_953951" data-name="Grupo 953951">
        <g id="Grupo_953950" data-name="Grupo 953950">
          <g id="Grupo_953949" data-name="Grupo 953949">
            <path id="Trazado_636973" data-name="Trazado 636973" d="M1304.1,2822.56c-.084-.093,4.272-4.168,9.727-9.1s9.948-8.857,10.032-8.764-4.27,4.167-9.727,9.1S1304.189,2822.653,1304.1,2822.56Z" fill="#e0e0e0"/>
          </g>
        </g>
      </g>
      <g id="Grupo_953954" data-name="Grupo 953954">
        <g id="Grupo_953953" data-name="Grupo 953953">
          <g id="Grupo_953952" data-name="Grupo 953952">
            <path id="Trazado_636974" data-name="Trazado 636974" d="M1340.41,2806.524c.108-.063,3.175,4.989,6.847,11.284s6.564,11.45,6.456,11.514-3.174-4.989-6.848-11.285S1340.3,2806.587,1340.41,2806.524Z" fill="#e0e0e0"/>
          </g>
        </g>
      </g>
    </g>
    <g id="Grupo_954023" data-name="Grupo 954023">
      <g id="Grupo_953974" data-name="Grupo 953974">
        <g id="Grupo_953964" data-name="Grupo 953964">
          <g id="Grupo_953963" data-name="Grupo 953963">
            <g id="Grupo_953962" data-name="Grupo 953962">
              <g id="Grupo_953961" data-name="Grupo 953961">
                <g id="Grupo_953960" data-name="Grupo 953960">
                  <g id="Grupo_953959" data-name="Grupo 953959">
                    <g id="Grupo_953958" data-name="Grupo 953958">
                      <g id="Grupo_953957" data-name="Grupo 953957">
                        <g id="Grupo_953956" data-name="Grupo 953956">
                          <path id="Trazado_636975" data-name="Trazado 636975" d="M1281.53,2621.583l-25.318-6.783a3.279,3.279,0,0,1-2.319-4.016l9.387-35.044a3.281,3.281,0,0,1,4.017-2.32l16.057,4.3,9,16.14-6.8,25.4A3.281,3.281,0,0,1,1281.53,2621.583Z" fill="#ebebeb"/>
                        </g>
                      </g>
                    </g>
                  </g>
                </g>
              </g>
            </g>
          </g>
        </g>
        <g id="Grupo_953973" data-name="Grupo 953973">
          <g id="Grupo_953972" data-name="Grupo 953972">
            <g id="Grupo_953971" data-name="Grupo 953971">
              <g id="Grupo_953970" data-name="Grupo 953970">
                <g id="Grupo_953969" data-name="Grupo 953969">
                  <g id="Grupo_953968" data-name="Grupo 953968">
                    <g id="Grupo_953967" data-name="Grupo 953967">
                      <g id="Grupo_953966" data-name="Grupo 953966">
                        <g id="Grupo_953965" data-name="Grupo 953965">
                          <path id="Trazado_636976" data-name="Trazado 636976" d="M1283.354,2577.722l-2.642,9.863a3.049,3.049,0,0,0,2.156,3.735l9.483,2.542Z" fill="#e0e0e0"/>
                        </g>
                      </g>
                    </g>
                  </g>
                </g>
              </g>
            </g>
          </g>
        </g>
      </g>
      <g id="Grupo_953982" data-name="Grupo 953982">
        <g id="Grupo_953981" data-name="Grupo 953981">
          <g id="Grupo_953980" data-name="Grupo 953980">
            <g id="Grupo_953979" data-name="Grupo 953979">
              <g id="Grupo_953978" data-name="Grupo 953978">
                <g id="Grupo_953977" data-name="Grupo 953977">
                  <g id="Grupo_953976" data-name="Grupo 953976">
                    <g id="Grupo_953975" data-name="Grupo 953975">
                      <path id="Trazado_636977" data-name="Trazado 636977" d="M1278.7,2586.613a77.421,77.421,0,0,1-11.714-3.138,77.569,77.569,0,0,1,11.714,3.138Z" fill="#fff"/>
                    </g>
                  </g>
                </g>
              </g>
            </g>
          </g>
        </g>
      </g>
      <g id="Grupo_953990" data-name="Grupo 953990">
        <g id="Grupo_953989" data-name="Grupo 953989">
          <g id="Grupo_953988" data-name="Grupo 953988">
            <g id="Grupo_953987" data-name="Grupo 953987">
              <g id="Grupo_953986" data-name="Grupo 953986">
                <g id="Grupo_953985" data-name="Grupo 953985">
                  <g id="Grupo_953984" data-name="Grupo 953984">
                    <g id="Grupo_953983" data-name="Grupo 953983">
                      <path id="Trazado_636978" data-name="Trazado 636978" d="M1284.767,2594.216c-.033.127-4.377-.926-9.7-2.352s-9.612-2.685-9.578-2.812,4.377.926,9.7,2.353S1284.8,2594.089,1284.767,2594.216Z" fill="#fff"/>
                    </g>
                  </g>
                </g>
              </g>
            </g>
          </g>
        </g>
      </g>
      <g id="Grupo_953998" data-name="Grupo 953998">
        <g id="Grupo_953997" data-name="Grupo 953997">
          <g id="Grupo_953996" data-name="Grupo 953996">
            <g id="Grupo_953995" data-name="Grupo 953995">
              <g id="Grupo_953994" data-name="Grupo 953994">
                <g id="Grupo_953993" data-name="Grupo 953993">
                  <g id="Grupo_953992" data-name="Grupo 953992">
                    <g id="Grupo_953991" data-name="Grupo 953991">
                      <path id="Trazado_636979" data-name="Trazado 636979" d="M1285.256,2599.338c-.034.127-4.766-1.031-10.568-2.585s-10.48-2.918-10.446-3.045,4.765,1.031,10.569,2.586S1285.29,2599.211,1285.256,2599.338Z" fill="#fff"/>
                    </g>
                  </g>
                </g>
              </g>
            </g>
          </g>
        </g>
      </g>
      <g id="Grupo_954006" data-name="Grupo 954006">
        <g id="Grupo_954005" data-name="Grupo 954005">
          <g id="Grupo_954004" data-name="Grupo 954004">
            <g id="Grupo_954003" data-name="Grupo 954003">
              <g id="Grupo_954002" data-name="Grupo 954002">
                <g id="Grupo_954001" data-name="Grupo 954001">
                  <g id="Grupo_954000" data-name="Grupo 954000">
                    <g id="Grupo_953999" data-name="Grupo 953999">
                      <path id="Trazado_636980" data-name="Trazado 636980" d="M1284.079,2603.731c-.034.127-4.766-1.031-10.568-2.585s-10.48-2.918-10.446-3.044,4.765,1.03,10.569,2.585S1284.113,2603.6,1284.079,2603.731Z" fill="#fff"/>
                    </g>
                  </g>
                </g>
              </g>
            </g>
          </g>
        </g>
      </g>
      <g id="Grupo_954014" data-name="Grupo 954014">
        <g id="Grupo_954013" data-name="Grupo 954013">
          <g id="Grupo_954012" data-name="Grupo 954012">
            <g id="Grupo_954011" data-name="Grupo 954011">
              <g id="Grupo_954010" data-name="Grupo 954010">
                <g id="Grupo_954009" data-name="Grupo 954009">
                  <g id="Grupo_954008" data-name="Grupo 954008">
                    <g id="Grupo_954007" data-name="Grupo 954007">
                      <path id="Trazado_636981" data-name="Trazado 636981" d="M1282.9,2608.124c-.034.127-4.766-1.03-10.568-2.585s-10.48-2.917-10.446-3.044,4.765,1.03,10.569,2.585S1282.936,2608,1282.9,2608.124Z" fill="#fff"/>
                    </g>
                  </g>
                </g>
              </g>
            </g>
          </g>
        </g>
      </g>
      <g id="Grupo_954022" data-name="Grupo 954022">
        <g id="Grupo_954021" data-name="Grupo 954021">
          <g id="Grupo_954020" data-name="Grupo 954020">
            <g id="Grupo_954019" data-name="Grupo 954019">
              <g id="Grupo_954018" data-name="Grupo 954018">
                <g id="Grupo_954017" data-name="Grupo 954017">
                  <g id="Grupo_954016" data-name="Grupo 954016">
                    <g id="Grupo_954015" data-name="Grupo 954015">
                      <path id="Trazado_636982" data-name="Trazado 636982" d="M1281.726,2612.518c-.034.127-4.767-1.031-10.569-2.585s-10.48-2.918-10.446-3.045,4.765,1.031,10.569,2.586S1281.759,2612.391,1281.726,2612.518Z" fill="#fff"/>
                    </g>
                  </g>
                </g>
              </g>
            </g>
          </g>
        </g>
      </g>
    </g>
    <g id="Grupo_954091" data-name="Grupo 954091">
      <g id="Grupo_954042" data-name="Grupo 954042">
        <g id="Grupo_954032" data-name="Grupo 954032">
          <g id="Grupo_954031" data-name="Grupo 954031">
            <g id="Grupo_954030" data-name="Grupo 954030">
              <g id="Grupo_954029" data-name="Grupo 954029">
                <g id="Grupo_954028" data-name="Grupo 954028">
                  <g id="Grupo_954027" data-name="Grupo 954027">
                    <g id="Grupo_954026" data-name="Grupo 954026">
                      <g id="Grupo_954025" data-name="Grupo 954025">
                        <g id="Grupo_954024" data-name="Grupo 954024">
                          <path id="Trazado_636983" data-name="Trazado 636983" d="M1153.017,2816.117l-24.119,10.262a3.281,3.281,0,0,1-4.3-1.734l-14.2-33.384a3.278,3.278,0,0,1,1.733-4.3l15.3-6.509,17.033,7.166,10.3,24.2A3.28,3.28,0,0,1,1153.017,2816.117Z" fill="#ebebeb"/>
                        </g>
                      </g>
                    </g>
                  </g>
                </g>
              </g>
            </g>
          </g>
        </g>
        <g id="Grupo_954041" data-name="Grupo 954041">
          <g id="Grupo_954040" data-name="Grupo 954040">
            <g id="Grupo_954039" data-name="Grupo 954039">
              <g id="Grupo_954038" data-name="Grupo 954038">
                <g id="Grupo_954037" data-name="Grupo 954037">
                  <g id="Grupo_954036" data-name="Grupo 954036">
                    <g id="Grupo_954035" data-name="Grupo 954035">
                      <g id="Grupo_954034" data-name="Grupo 954034">
                        <g id="Grupo_954033" data-name="Grupo 954033">
                          <path id="Trazado_636984" data-name="Trazado 636984" d="M1127.422,2780.451l4,9.4a3.051,3.051,0,0,0,4,1.613l9.034-3.843Z" fill="#e0e0e0"/>
                        </g>
                      </g>
                    </g>
                  </g>
                </g>
              </g>
            </g>
          </g>
        </g>
      </g>
      <g id="Grupo_954050" data-name="Grupo 954050">
        <g id="Grupo_954049" data-name="Grupo 954049">
          <g id="Grupo_954048" data-name="Grupo 954048">
            <g id="Grupo_954047" data-name="Grupo 954047">
              <g id="Grupo_954046" data-name="Grupo 954046">
                <g id="Grupo_954045" data-name="Grupo 954045">
                  <g id="Grupo_954044" data-name="Grupo 954044">
                    <g id="Grupo_954043" data-name="Grupo 954043">
                      <path id="Trazado_636985" data-name="Trazado 636985" d="M1129.234,2790.324a77.663,77.663,0,0,1-11.158,4.748,77.371,77.371,0,0,1,11.158-4.748Z" fill="#fff"/>
                    </g>
                  </g>
                </g>
              </g>
            </g>
          </g>
        </g>
      </g>
      <g id="Grupo_954058" data-name="Grupo 954058">
        <g id="Grupo_954057" data-name="Grupo 954057">
          <g id="Grupo_954056" data-name="Grupo 954056">
            <g id="Grupo_954055" data-name="Grupo 954055">
              <g id="Grupo_954054" data-name="Grupo 954054">
                <g id="Grupo_954053" data-name="Grupo 954053">
                  <g id="Grupo_954052" data-name="Grupo 954052">
                    <g id="Grupo_954051" data-name="Grupo 954051">
                      <path id="Trazado_636986" data-name="Trazado 636986" d="M1138.7,2792.57c.051.121-4.018,1.968-9.089,4.125s-9.224,3.809-9.276,3.689,4.018-1.968,9.09-4.126S1138.65,2792.449,1138.7,2792.57Z" fill="#fff"/>
                    </g>
                  </g>
                </g>
              </g>
            </g>
          </g>
        </g>
      </g>
      <g id="Grupo_954066" data-name="Grupo 954066">
        <g id="Grupo_954065" data-name="Grupo 954065">
          <g id="Grupo_954064" data-name="Grupo 954064">
            <g id="Grupo_954063" data-name="Grupo 954063">
              <g id="Grupo_954062" data-name="Grupo 954062">
                <g id="Grupo_954061" data-name="Grupo 954061">
                  <g id="Grupo_954060" data-name="Grupo 954060">
                    <g id="Grupo_954059" data-name="Grupo 954059">
                      <path id="Trazado_636987" data-name="Trazado 636987" d="M1142.242,2796.3c.052.121-4.388,2.126-9.916,4.477s-10.051,4.161-10.1,4.041,4.387-2.125,9.916-4.478S1142.191,2796.181,1142.242,2796.3Z" fill="#fff"/>
                    </g>
                  </g>
                </g>
              </g>
            </g>
          </g>
        </g>
      </g>
      <g id="Grupo_954074" data-name="Grupo 954074">
        <g id="Grupo_954073" data-name="Grupo 954073">
          <g id="Grupo_954072" data-name="Grupo 954072">
            <g id="Grupo_954071" data-name="Grupo 954071">
              <g id="Grupo_954070" data-name="Grupo 954070">
                <g id="Grupo_954069" data-name="Grupo 954069">
                  <g id="Grupo_954068" data-name="Grupo 954068">
                    <g id="Grupo_954067" data-name="Grupo 954067">
                      <path id="Trazado_636988" data-name="Trazado 636988" d="M1144.023,2800.487c.051.121-4.389,2.126-9.916,4.477s-10.051,4.161-10.1,4.041,4.388-2.125,9.917-4.478S1143.972,2800.366,1144.023,2800.487Z" fill="#fff"/>
                    </g>
                  </g>
                </g>
              </g>
            </g>
          </g>
        </g>
      </g>
      <g id="Grupo_954082" data-name="Grupo 954082">
        <g id="Grupo_954081" data-name="Grupo 954081">
          <g id="Grupo_954080" data-name="Grupo 954080">
            <g id="Grupo_954079" data-name="Grupo 954079">
              <g id="Grupo_954078" data-name="Grupo 954078">
                <g id="Grupo_954077" data-name="Grupo 954077">
                  <g id="Grupo_954076" data-name="Grupo 954076">
                    <g id="Grupo_954075" data-name="Grupo 954075">
                      <path id="Trazado_636989" data-name="Trazado 636989" d="M1145.8,2804.672c.051.121-4.389,2.126-9.916,4.478s-10.052,4.161-10.1,4.04,4.388-2.125,9.917-4.478S1145.752,2804.552,1145.8,2804.672Z" fill="#fff"/>
                    </g>
                  </g>
                </g>
              </g>
            </g>
          </g>
        </g>
      </g>
      <g id="Grupo_954090" data-name="Grupo 954090">
        <g id="Grupo_954089" data-name="Grupo 954089">
          <g id="Grupo_954088" data-name="Grupo 954088">
            <g id="Grupo_954087" data-name="Grupo 954087">
              <g id="Grupo_954086" data-name="Grupo 954086">
                <g id="Grupo_954085" data-name="Grupo 954085">
                  <g id="Grupo_954084" data-name="Grupo 954084">
                    <g id="Grupo_954083" data-name="Grupo 954083">
                      <path id="Trazado_636990" data-name="Trazado 636990" d="M1147.584,2808.857c.052.121-4.388,2.126-9.916,4.478s-10.051,4.161-10.1,4.04,4.387-2.125,9.916-4.478S1147.533,2808.737,1147.584,2808.857Z" fill="#fff"/>
                    </g>
                  </g>
                </g>
              </g>
            </g>
          </g>
        </g>
      </g>
    </g>
    <g id="Grupo_954092" data-name="Grupo 954092">
      <path id="Trazado_636991" data-name="Trazado 636991" d="M1368.751,2670.585l-9.368-20.489a7.01,7.01,0,0,0-8.7-3.7l-2.469,1.093-17.881,8.175-1.527-3.466a9.831,9.831,0,0,1,17.874-8.193l2.463-1.1a12.531,12.531,0,0,0-22.8,10.4l1.568,3.561a7.008,7.008,0,0,0-2.556,8.787l9.367,20.489a7.013,7.013,0,0,0,9.293,3.461l21.271-9.725A7.013,7.013,0,0,0,1368.751,2670.585Zm-22,3.892-.968-4.415a3.726,3.726,0,1,1,3.647-1.744c1.1,1.377,2.885,3.615,2.885,3.615Z" fill="#f5f5f5"/>
    </g>
    <g id="Grupo_954102" data-name="Grupo 954102">
      <g id="Grupo_954093" data-name="Grupo 954093">
        <path id="Rect치ngulo_44966" data-name="Rect치ngulo 44966" d="M7.674,0H61.581a7.6,7.6,0,0,1,7.6,7.6v3.518a0,0,0,0,1,0,0H0a0,0,0,0,1,0,0V7.674A7.674,7.674,0,0,1,7.674,0Z" transform="translate(1124.225 2574.425) rotate(0.293)" fill="#ebebeb"/>
      </g>
      <g id="Grupo_954097" data-name="Grupo 954097">
        <g id="Grupo_954094" data-name="Grupo 954094">
          <path id="Trazado_636992" data-name="Trazado 636992" d="M1168.134,2594.742c-3.922-4.085-7.858-3.968-7.858-3.968s-9.956-1.158-13.329,9.008,5.806,11.874,5.806,11.874-.088,2.93,2.346,3.053a1.76,1.76,0,0,0,1.887-1.072,1.946,1.946,0,0,0,2.016,1.1,2.376,2.376,0,0,0,1.982-1.176,2.562,2.562,0,0,0,2.3,1.21c1.6-.061,1.7-2.177,1.755-3.023,0,0,6.3-.438,6.568-6.127A13.541,13.541,0,0,0,1168.134,2594.742Zm-14.426,14.223a3.847,3.847,0,1,1,3.961-3.826A3.9,3.9,0,0,1,1153.708,2608.965Zm6.285,2.1-2.039-.01a.422.422,0,0,1-.372-.617c.288-.548.709-1.35,1.006-1.91a.4.4,0,0,1,.708-.006l1.068,1.916A.422.422,0,0,1,1159.993,2611.061Zm4.027-2.044a3.847,3.847,0,1,1,3.961-3.825A3.894,3.894,0,0,1,1164.02,2609.017Z" fill="#e0e0e0"/>
        </g>
        <g id="Grupo_954095" data-name="Grupo 954095">
          <path id="Trazado_636993" data-name="Trazado 636993" d="M1172.794,2624.337a2.445,2.445,0,0,0-4.771-.765l-18.029-7.47a4.844,4.844,0,1,0-1.32,3.449h0l18.064,7.4a2.417,2.417,0,0,0-.12.745,5.23,5.23,0,0,0,6.176-3.356Z" fill="#e0e0e0"/>
        </g>
        <g id="Grupo_954096" data-name="Grupo 954096">
          <path id="Trazado_636994" data-name="Trazado 636994" d="M1170.668,2612.664a2.445,2.445,0,0,0-3.757,3.04l-17.6,8.426a4.846,4.846,0,1,0,1.685,3.286h0l17.572-8.5a4.237,4.237,0,0,0,2.1-6.251Z" fill="#e0e0e0"/>
        </g>
      </g>
      <g id="Grupo_954098" data-name="Grupo 954098">
        <path id="Trazado_636995" data-name="Trazado 636995" d="M1188.015,2637.18h-.028l-58.987-.3a5.387,5.387,0,0,1-5.353-5.409l.265-51.952a5.381,5.381,0,0,1,5.38-5.353h.029l58.987.3a5.381,5.381,0,0,1,5.353,5.408l-.265,51.953A5.388,5.388,0,0,1,1188.015,2637.18Zm-.025-.573h.025a4.813,4.813,0,0,0,4.807-4.783l.266-51.952a4.809,4.809,0,0,0-4.783-4.833l-58.987-.3h-.026a4.805,4.805,0,0,0-4.806,4.783l-.266,51.952A4.812,4.812,0,0,0,1129,2636.3Z" fill="#e0e0e0"/>
      </g>
      <g id="Grupo_954099" data-name="Grupo 954099">
        <path id="Trazado_636996" data-name="Trazado 636996" d="M1132.874,2579.958a1.944,1.944,0,1,1-1.934-1.954A1.943,1.943,0,0,1,1132.874,2579.958Z" fill="#fff"/>
      </g>
      <g id="Grupo_954100" data-name="Grupo 954100">
        <path id="Trazado_636997" data-name="Trazado 636997" d="M1138.058,2580.161a1.944,1.944,0,1,1-1.934-1.954A1.943,1.943,0,0,1,1138.058,2580.161Z" fill="#fff"/>
      </g>
      <g id="Grupo_954101" data-name="Grupo 954101">
        <path id="Trazado_636998" data-name="Trazado 636998" d="M1143.242,2580.364a1.944,1.944,0,1,1-1.935-1.954A1.946,1.946,0,0,1,1143.242,2580.364Z" fill="#fff"/>
      </g>
    </g>
    <g id="Grupo_954115" data-name="Grupo 954115">
      <g id="Grupo_954110" data-name="Grupo 954110">
        <g id="Grupo_954104" data-name="Grupo 954104">
          <g id="Grupo_954103" data-name="Grupo 954103">
            <path id="Trazado_636999" data-name="Trazado 636999" d="M1370.449,2757.9a10.048,10.048,0,1,1-11.385-8.475A10.036,10.036,0,0,1,1370.449,2757.9Z" fill="#f5f5f5"/>
          </g>
        </g>
        <g id="Grupo_954106" data-name="Grupo 954106">
          <g id="Grupo_954105" data-name="Grupo 954105">
            <path id="Trazado_637000" data-name="Trazado 637000" d="M1368.083,2758.243a7.657,7.657,0,1,1-8.677-6.459A7.65,7.65,0,0,1,1368.083,2758.243Z" fill="#ebebeb"/>
          </g>
        </g>
        <g id="Grupo_954109" data-name="Grupo 954109">
          <g id="Grupo_954108" data-name="Grupo 954108">
            <g id="Grupo_954107" data-name="Grupo 954107">
              <path id="Trazado_637001" data-name="Trazado 637001" d="M1368.046,2758a4.54,4.54,0,0,1-.332-.882,8.144,8.144,0,0,0-1.212-2.2,7.837,7.837,0,0,0-1.2-1.231,7.706,7.706,0,0,0-1.673-1.035,7.168,7.168,0,0,0-1-.368,7.077,7.077,0,0,0-1.084-.231,7.449,7.449,0,0,0-1.145-.067,7.486,7.486,0,0,0-2.32.412,7.459,7.459,0,0,0-1.053.457,7.112,7.112,0,0,0-.938.589,7.185,7.185,0,0,0-.81.69,7.715,7.715,0,0,0-1.215,1.547,7.927,7.927,0,0,0-.706,1.571,8.149,8.149,0,0,0-.381,2.477,4.443,4.443,0,0,1-.008.943,2.242,2.242,0,0,1-.22-.93,7.087,7.087,0,0,1,.211-2.607,7.653,7.653,0,0,1,1.936-3.381,7.46,7.46,0,0,1,.856-.757,7.639,7.639,0,0,1,1-.648,7.885,7.885,0,0,1,1.132-.5,7.841,7.841,0,0,1,2.5-.444,7.734,7.734,0,0,1,1.236.081,7.8,7.8,0,0,1,2.229.678,7.838,7.838,0,0,1,1.759,1.153,7.747,7.747,0,0,1,1.223,1.356,7.075,7.075,0,0,1,1.1,2.374A2.248,2.248,0,0,1,1368.046,2758Z" fill="#e0e0e0"/>
            </g>
          </g>
        </g>
      </g>
      <g id="Grupo_954114" data-name="Grupo 954114">
        <g id="Grupo_954113" data-name="Grupo 954113">
          <g id="Grupo_954112" data-name="Grupo 954112">
            <g id="Grupo_954111" data-name="Grupo 954111">
              <path id="Trazado_637002" data-name="Trazado 637002" d="M1362.019,2763.739l.211,1.317-1.176.188-.2-1.282a5.641,5.641,0,0,1-3.078-.471l.416-1.539a4.818,4.818,0,0,0,2.416.47l-.315-1.964c-1.356-.108-2.884-.31-3.153-1.991-.2-1.247.535-2.462,2.358-2.971l-.208-1.305,1.175-.189.206,1.282a5.4,5.4,0,0,1,2.5.335l-.356,1.541a4.887,4.887,0,0,0-1.9-.324l.32,2c1.354.1,2.859.3,3.124,1.959C1364.554,2762.019,1363.83,2763.22,1362.019,2763.739Zm-2.008-5.009-.267-1.67c-.6.241-.793.622-.731,1.01C1359.079,2758.481,1359.468,2758.648,1360.011,2758.73Zm2.477,2.51c-.066-.412-.443-.58-.977-.676l.26,1.623C1362.338,2761.963,1362.548,2761.616,1362.488,2761.24Z" fill="#e0e0e0"/>
            </g>
          </g>
        </g>
      </g>
    </g>
    <g id="Grupo_954128" data-name="Grupo 954128">
      <g id="Grupo_954123" data-name="Grupo 954123">
        <g id="Grupo_954117" data-name="Grupo 954117">
          <g id="Grupo_954116" data-name="Grupo 954116">
            <path id="Trazado_637003" data-name="Trazado 637003" d="M1351.339,2602.537a16.155,16.155,0,1,1-4.025-22.463A16.138,16.138,0,0,1,1351.339,2602.537Z" fill="#f5f5f5"/>
          </g>
        </g>
        <g id="Grupo_954119" data-name="Grupo 954119">
          <g id="Grupo_954118" data-name="Grupo 954118">
            <path id="Trazado_637004" data-name="Trazado 637004" d="M1348.186,2600.337a12.311,12.311,0,1,1-3.067-17.118A12.3,12.3,0,0,1,1348.186,2600.337Z" fill="#ebebeb"/>
          </g>
        </g>
        <g id="Grupo_954122" data-name="Grupo 954122">
          <g id="Grupo_954121" data-name="Grupo 954121">
            <g id="Grupo_954120" data-name="Grupo 954120">
              <path id="Trazado_637005" data-name="Trazado 637005" d="M1348.405,2600.019a7.225,7.225,0,0,1,.58-1.4,13.073,13.073,0,0,0,.995-3.907,12.59,12.59,0,0,0-.057-2.767,12.311,12.311,0,0,0-.823-3.053,12.068,12.068,0,0,0-1.782-2.993,11.906,11.906,0,0,0-1.269-1.338,11.978,11.978,0,0,0-3.173-2.07,11.994,11.994,0,0,0-1.737-.622,12.03,12.03,0,0,0-3.457-.424,12.316,12.316,0,0,0-3.126.478,12.589,12.589,0,0,0-2.555,1.065,13.061,13.061,0,0,0-3.173,2.486c-.659.7-.984,1.137-1.047,1.1a3.624,3.624,0,0,1,.766-1.332,11.4,11.4,0,0,1,3.115-2.824,12.343,12.343,0,0,1,5.989-1.835,11.853,11.853,0,0,1,1.837.055,12.146,12.146,0,0,1,1.889.344,12.507,12.507,0,0,1,1.879.658,12.632,12.632,0,0,1,3.423,2.232,12.708,12.708,0,0,1,1.359,1.455,12.585,12.585,0,0,1,1.868,3.248,12.333,12.333,0,0,1,.736,6.221,11.4,11.4,0,0,1-1.327,3.99C1348.823,2599.644,1348.451,2600.05,1348.405,2600.019Z" fill="#e0e0e0"/>
            </g>
          </g>
        </g>
      </g>
      <g id="Grupo_954127" data-name="Grupo 954127">
        <g id="Grupo_954126" data-name="Grupo 954126">
          <g id="Grupo_954125" data-name="Grupo 954125">
            <g id="Grupo_954124" data-name="Grupo 954124">
              <path id="Trazado_637006" data-name="Trazado 637006" d="M1335.03,2600.11l-1.2,1.777-1.586-1.073,1.17-1.729a9.073,9.073,0,0,1-3.091-3.94l2.181-1.345a7.738,7.738,0,0,0,2.315,3.208l1.792-2.649c-1.471-1.619-3.04-3.536-1.506-5.8,1.138-1.68,3.335-2.3,6.033-.888l1.191-1.76,1.586,1.073-1.169,1.729a8.641,8.641,0,0,1,2.564,3.144l-2.112,1.415a7.867,7.867,0,0,0-1.868-2.467l-1.825,2.7c1.482,1.6,3.019,3.5,1.507,5.734C1339.9,2600.882,1337.724,2601.494,1335.03,2600.11Zm3.157-8.082,1.523-2.252c-.969-.378-1.613-.143-1.967.38C1337.368,2590.711,1337.639,2591.334,1338.187,2592.028Zm.142,5.668c.376-.556.119-1.168-.4-1.867l-1.481,2.188C1337.358,2598.379,1337.986,2598.2,1338.329,2597.7Z" fill="#e0e0e0"/>
            </g>
          </g>
        </g>
      </g>
    </g>
    <g id="Grupo_954130" data-name="Grupo 954130">
      <g id="Grupo_954129" data-name="Grupo 954129">
        <path id="Trazado_637007" data-name="Trazado 637007" d="M1373.283,2833.323c0,.082-59.643.149-133.2.149-73.581,0-133.211-.067-133.211-.149s59.63-.15,133.211-.15C1313.64,2833.173,1373.283,2833.24,1373.283,2833.323Z" fill="#263238"/>
      </g>
    </g>
    <g id="Grupo_954188" data-name="Grupo 954188">
      <g id="Grupo_954187" data-name="Grupo 954187">
        <g id="Grupo_954166" data-name="Grupo 954166">
          <g id="Grupo_954153" data-name="Grupo 954153">
            <g id="Grupo_954152" data-name="Grupo 954152">
              <g id="Grupo_954151" data-name="Grupo 954151">
                <g id="Grupo_954150" data-name="Grupo 954150">
                  <g id="Grupo_954134" data-name="Grupo 954134">
                    <g id="Grupo_954133" data-name="Grupo 954133">
                      <g id="Grupo_954132" data-name="Grupo 954132">
                        <g id="Grupo_954131" data-name="Grupo 954131">
                          <path id="Trazado_637008" data-name="Trazado 637008" d="M1144.583,2712.212a14.744,14.744,0,1,1-18.2-10.165A14.745,14.745,0,0,1,1144.583,2712.212Z" fill="#4aceff"/>
                        </g>
                      </g>
                    </g>
                  </g>
                  <g id="Grupo_954137" data-name="Grupo 954137" opacity="0.1">
                    <g id="Grupo_954136" data-name="Grupo 954136">
                      <g id="Grupo_954135" data-name="Grupo 954135">
                        <path id="Trazado_637009" data-name="Trazado 637009" d="M1126.378,2702.047a14.743,14.743,0,0,0-10.166,18.2s10.095-2.379,11.355-7.072S1126.378,2702.047,1126.378,2702.047Z" fill="#fff"/>
                      </g>
                    </g>
                  </g>
                  <g id="Grupo_954140" data-name="Grupo 954140">
                    <g id="Grupo_954139" data-name="Grupo 954139">
                      <g id="Grupo_954138" data-name="Grupo 954138">
                        <path id="Trazado_637010" data-name="Trazado 637010" d="M1140.893,2713.015a11.208,11.208,0,1,1-13.84-7.728A11.208,11.208,0,0,1,1140.893,2713.015Z" fill="#4aceff"/>
                      </g>
                    </g>
                  </g>
                  <g id="Grupo_954143" data-name="Grupo 954143" opacity="0.2">
                    <g id="Grupo_954142" data-name="Grupo 954142">
                      <g id="Grupo_954141" data-name="Grupo 954141">
                        <path id="Trazado_637011" data-name="Trazado 637011" d="M1140.893,2713.015a11.208,11.208,0,1,1-13.84-7.728A11.208,11.208,0,0,1,1140.893,2713.015Z"/>
                      </g>
                    </g>
                  </g>
                  <g id="Grupo_954146" data-name="Grupo 954146">
                    <g id="Grupo_954145" data-name="Grupo 954145">
                      <g id="Grupo_954144" data-name="Grupo 954144">
                        <path id="Trazado_637012" data-name="Trazado 637012" d="M1141.325,2713.378a11.058,11.058,0,1,1-13.654-7.624A11.058,11.058,0,0,1,1141.325,2713.378Z" fill="#4aceff"/>
                      </g>
                    </g>
                  </g>
                  <g id="Grupo_954149" data-name="Grupo 954149" opacity="0.2">
                    <g id="Grupo_954148" data-name="Grupo 954148">
                      <g id="Grupo_954147" data-name="Grupo 954147">
                        <path id="Trazado_637013" data-name="Trazado 637013" d="M1141.325,2713.378a11.058,11.058,0,1,1-13.654-7.624A11.058,11.058,0,0,1,1141.325,2713.378Z" fill="#fff"/>
                      </g>
                    </g>
                  </g>
                </g>
              </g>
            </g>
          </g>
          <g id="Grupo_954165" data-name="Grupo 954165">
            <g id="Grupo_954157" data-name="Grupo 954157">
              <g id="Grupo_954156" data-name="Grupo 954156">
                <g id="Grupo_954155" data-name="Grupo 954155">
                  <g id="Grupo_954154" data-name="Grupo 954154">
                    <path id="Trazado_637014" data-name="Trazado 637014" d="M1130.848,2715.351l-.771-2.722.013,0a5.808,5.808,0,0,1,1.554-.033,4.718,4.718,0,0,1,.8.236l.012-.095.142-1.1.033-.252-.63-.372-.2.171a5.3,5.3,0,0,0-2.133-.011l-.425-1.5-.572-.243.106.375-.639.182.432,1.524c-2.047.8-2.705,2.281-2.315,3.657.531,1.874,2.274,1.905,3.874,1.845l.764,2.7a5.377,5.377,0,0,1-2.988-.261l-.22,1.534a6.124,6.124,0,0,0,3.621.183l.32,1.131-.524.158.628.208,1.106-.313-.428-1.51c2.056-.816,2.731-2.29,2.341-3.665C1134.214,2715.3,1132.449,2715.291,1130.848,2715.351Zm-1.186.03c-.847-.008-1.511-.14-1.694-.787-.168-.594.1-1.194,1.014-1.613Zm.415-2.754h0Zm1.91,6.743-.676-2.387c.874,0,1.555.142,1.743.8C1133.218,2718.365,1132.93,2718.942,1131.987,2719.37Z" fill="#4aceff"/>
                  </g>
                </g>
              </g>
            </g>
            <g id="Grupo_954161" data-name="Grupo 954161" opacity="0.3">
              <g id="Grupo_954160" data-name="Grupo 954160">
                <g id="Grupo_954159" data-name="Grupo 954159">
                  <g id="Grupo_954158" data-name="Grupo 954158">
                    <path id="Trazado_637015" data-name="Trazado 637015" d="M1130.848,2715.351l-.771-2.722.013,0a5.808,5.808,0,0,1,1.554-.033,4.718,4.718,0,0,1,.8.236l.012-.095.142-1.1.033-.252-.63-.372-.2.171a5.3,5.3,0,0,0-2.133-.011l-.425-1.5-.572-.243.106.375-.639.182.432,1.524c-2.047.8-2.705,2.281-2.315,3.657.531,1.874,2.274,1.905,3.874,1.845l.764,2.7a5.377,5.377,0,0,1-2.988-.261l-.22,1.534a6.124,6.124,0,0,0,3.621.183l.32,1.131-.524.158.628.208,1.106-.313-.428-1.51c2.056-.816,2.731-2.29,2.341-3.665C1134.214,2715.3,1132.449,2715.291,1130.848,2715.351Zm-1.186.03c-.847-.008-1.511-.14-1.694-.787-.168-.594.1-1.194,1.014-1.613Zm.415-2.754h0Zm1.91,6.743-.676-2.387c.874,0,1.555.142,1.743.8C1133.218,2718.365,1132.93,2718.942,1131.987,2719.37Z"/>
                  </g>
                </g>
              </g>
            </g>
            <g id="Grupo_954164" data-name="Grupo 954164">
              <g id="Grupo_954163" data-name="Grupo 954163">
                <g id="Grupo_954162" data-name="Grupo 954162">
                  <path id="Trazado_637016" data-name="Trazado 637016" d="M1131.842,2720.6l.428,1.511-1.106.314-.424-1.5a6.134,6.134,0,0,1-3.622-.184l.221-1.534a5.386,5.386,0,0,0,2.988.261l-.765-2.7c-1.6.06-3.343.03-3.874-1.845-.39-1.376.268-2.859,2.315-3.658l-.432-1.524,1.106-.313.424,1.5a6.006,6.006,0,0,1,2.972.047l-.168,1.518a5.82,5.82,0,0,0-2.391-.109l.772,2.725c1.6-.06,3.366-.051,3.9,1.824C1134.574,2718.31,1133.9,2719.784,1131.842,2720.6Zm-2.742-5.459-.68-2.4c-.916.42-1.183,1.02-1.015,1.614C1127.589,2715,1128.253,2715.133,1129.1,2715.14Zm3.392,2.405c-.188-.661-.869-.8-1.743-.8l.676,2.387C1132.368,2718.7,1132.656,2718.125,1132.492,2717.545Z" fill="#4aceff"/>
                </g>
              </g>
            </g>
          </g>
        </g>
        <g id="Grupo_954170" data-name="Grupo 954170">
          <g id="Grupo_954169" data-name="Grupo 954169">
            <g id="Grupo_954168" data-name="Grupo 954168">
              <g id="Grupo_954167" data-name="Grupo 954167">
                <path id="Trazado_637017" data-name="Trazado 637017" d="M1120.2,2726.311a.724.724,0,0,1-.1-.091l-.263-.276c-.115-.119-.252-.269-.4-.453s-.326-.385-.494-.629c-.087-.12-.179-.246-.273-.377s-.18-.277-.276-.423c-.195-.289-.371-.618-.563-.96a14.633,14.633,0,0,1-1.578-4.829c-.047-.39-.1-.759-.112-1.108-.009-.175-.025-.342-.027-.5l0-.466c-.008-.3.017-.564.028-.8s.032-.437.054-.6l.05-.378a.63.63,0,0,1,.025-.131.566.566,0,0,1,0,.134l-.029.379c-.016.164-.032.366-.036.6s-.024.5-.011.8q0,.222.009.463c0,.161.022.327.033.5.017.347.072.713.121,1.1a15.111,15.111,0,0,0,1.567,4.8c.189.341.361.669.552.959.093.146.176.291.268.424l.266.379c.163.245.336.449.479.635s.273.34.383.463l.247.29A.563.563,0,0,1,1120.2,2726.311Z" fill="#fff"/>
              </g>
            </g>
          </g>
        </g>
        <g id="Grupo_954174" data-name="Grupo 954174">
          <g id="Grupo_954173" data-name="Grupo 954173">
            <g id="Grupo_954172" data-name="Grupo 954172">
              <g id="Grupo_954171" data-name="Grupo 954171">
                <path id="Trazado_637018" data-name="Trazado 637018" d="M1126.93,2715.794a.939.939,0,0,1-.4-.223,1.735,1.735,0,0,1-.5-2.037.937.937,0,0,1,.253-.383c.015.011-.089.152-.181.411a1.8,1.8,0,0,0,.478,1.951C1126.781,2715.7,1126.939,2715.777,1126.93,2715.794Z" fill="#fff"/>
              </g>
            </g>
          </g>
        </g>
        <g id="Grupo_954178" data-name="Grupo 954178">
          <g id="Grupo_954177" data-name="Grupo 954177">
            <g id="Grupo_954176" data-name="Grupo 954176">
              <g id="Grupo_954175" data-name="Grupo 954175">
                <path id="Trazado_637019" data-name="Trazado 637019" d="M1128.168,2710.981c-.029.009-.109-.183-.179-.428a1.027,1.027,0,0,1-.073-.459c.03-.008.11.184.179.429A1.024,1.024,0,0,1,1128.168,2710.981Z" fill="#fff"/>
              </g>
            </g>
          </g>
        </g>
        <g id="Grupo_954182" data-name="Grupo 954182">
          <g id="Grupo_954181" data-name="Grupo 954181">
            <g id="Grupo_954180" data-name="Grupo 954180">
              <g id="Grupo_954179" data-name="Grupo 954179">
                <path id="Trazado_637020" data-name="Trazado 637020" d="M1127.949,2704.734a2.3,2.3,0,0,1-.35.084c-.114.022-.252.052-.411.095s-.341.081-.538.145-.414.125-.641.211-.469.18-.721.284a11.566,11.566,0,0,0-2.987,1.892c-.2.183-.4.354-.566.529s-.326.337-.464.49-.256.3-.362.425-.192.237-.261.33a2.375,2.375,0,0,1-.226.281,2.184,2.184,0,0,1,.191-.306c.064-.1.145-.214.248-.343s.212-.283.351-.438.285-.33.459-.5.361-.354.563-.541a10.968,10.968,0,0,1,3.014-1.909c.256-.1.5-.2.73-.277s.45-.145.651-.2.385-.095.546-.131.3-.061.416-.077A2.251,2.251,0,0,1,1127.949,2704.734Z" fill="#fff"/>
              </g>
            </g>
          </g>
        </g>
        <g id="Grupo_954186" data-name="Grupo 954186">
          <g id="Grupo_954185" data-name="Grupo 954185">
            <g id="Grupo_954184" data-name="Grupo 954184">
              <g id="Grupo_954183" data-name="Grupo 954183">
                <path id="Trazado_637021" data-name="Trazado 637021" d="M1135.938,2729.194a1.288,1.288,0,0,1-.234.141c-.153.085-.381.2-.669.32a10.627,10.627,0,0,1-4.789.839c-.313-.019-.566-.045-.739-.074a1.285,1.285,0,0,1-.267-.052,1.245,1.245,0,0,1,.272.01c.174.015.426.03.737.039a11.937,11.937,0,0,0,4.756-.834c.29-.114.522-.213.68-.287A1.336,1.336,0,0,1,1135.938,2729.194Z" fill="#fff"/>
              </g>
            </g>
          </g>
        </g>
      </g>
    </g>
    <g id="Grupo_954192" data-name="Grupo 954192">
      <g id="Grupo_954191" data-name="Grupo 954191">
        <g id="Grupo_954190" data-name="Grupo 954190">
          <g id="Grupo_954189" data-name="Grupo 954189">
            <path id="Trazado_637022" data-name="Trazado 637022" d="M1326.3,2629.513a10.2,10.2,0,1,0-18.995,5.154h-.006l.029.038c.391.66.881,1.131,1.377,1.824l5.923,7.846a1.841,1.841,0,0,0,2.94,0l5.825-7.717a21.986,21.986,0,0,0,1.482-1.963l.021-.028h0A10.142,10.142,0,0,0,1326.3,2629.513Zm-10.2,4.442a4.49,4.49,0,1,1,4.49-4.49A4.489,4.489,0,0,1,1316.095,2633.955Z" fill="#4aceff"/>
          </g>
        </g>
      </g>
    </g>
    <g id="Grupo_954198" data-name="Grupo 954198">
      <g id="Grupo_954197" data-name="Grupo 954197">
        <g id="Grupo_954196" data-name="Grupo 954196">
          <g id="Grupo_954195" data-name="Grupo 954195">
            <g id="Grupo_954194" data-name="Grupo 954194">
              <g id="Grupo_954193" data-name="Grupo 954193">
                <path id="Trazado_637023" data-name="Trazado 637023" d="M1365.1,2700.619a4.784,4.784,0,0,0,3.9-3.543,4.5,4.5,0,1,0-8.662-2.354,4.78,4.78,0,0,0,1.611,5.055c-6.941-.775-8.574,6.558-8.574,6.558l15.761,4.284S1371.452,2703.383,1365.1,2700.619Z" fill="#4aceff"/>
              </g>
            </g>
          </g>
        </g>
      </g>
    </g>
    <g id="Grupo_954239" data-name="Grupo 954239">
      <g id="Grupo_954219" data-name="Grupo 954219">
        <g id="Grupo_954199" data-name="Grupo 954199">
          <path id="Trazado_637024" data-name="Trazado 637024" d="M1218.5,2655.052c-2.009-6.1-3.993-12.239-4.923-18.59s-.763-12.976,1.448-19c.336-.914,3.2-7.044,4.17-6.953.692.066-1.065,5.781-.713,6.381,3.364,5.722,4.3,12.616,3.792,19.234a86.912,86.912,0,0,1-3.774,18.929" fill="#263238"/>
        </g>
        <g id="Grupo_954200" data-name="Grupo 954200">
          <path id="Trazado_637025" data-name="Trazado 637025" d="M1254.649,2690.48c.029-4.534.066-8.113.1-8.113,0,0,15.549-1.634,16.5-17.052.461-7.445.164-22.853-.268-36.8a28.783,28.783,0,0,0-27.345-27.86l-1.488-.073c-16.1.142-24.97,13.892-24.382,29.98l.263,56.335,10.977,12.976c8.751,10.343,25.645,4.15,25.638-9.4Z" fill="#ffbf9d"/>
        </g>
        <g id="Grupo_954201" data-name="Grupo 954201">
          <path id="Trazado_637026" data-name="Trazado 637026" d="M1254.75,2682.367a37.309,37.309,0,0,1-19.793-6.934s4.342,11.463,19.8,10.837Z" fill="#ff9a6c"/>
        </g>
        <g id="Grupo_954202" data-name="Grupo 954202">
          <path id="Trazado_637027" data-name="Trazado 637027" d="M1264.563,2641.375a2.206,2.206,0,0,1-2.235,2.118,2.11,2.11,0,0,1-2.172-2.1,2.207,2.207,0,0,1,2.232-2.119A2.113,2.113,0,0,1,1264.563,2641.375Z" fill="#263238"/>
        </g>
        <g id="Grupo_954203" data-name="Grupo 954203">
          <path id="Trazado_637028" data-name="Trazado 637028" d="M1267.371,2634.746c-.287.274-1.9-1.044-4.266-1.155-2.367-.145-4.168.988-4.41.685-.12-.135.184-.64.968-1.154a6.06,6.06,0,0,1,3.549-.9,5.818,5.818,0,0,1,3.378,1.279C1267.291,2634.092,1267.512,2634.624,1267.371,2634.746Z" fill="#263238"/>
        </g>
        <g id="Grupo_954204" data-name="Grupo 954204">
          <path id="Trazado_637029" data-name="Trazado 637029" d="M1243.464,2642.054a2.206,2.206,0,0,1-2.235,2.118,2.11,2.11,0,0,1-2.172-2.1,2.207,2.207,0,0,1,2.232-2.119A2.111,2.111,0,0,1,1243.464,2642.054Z" fill="#263238"/>
        </g>
        <g id="Grupo_954205" data-name="Grupo 954205">
          <path id="Trazado_637030" data-name="Trazado 637030" d="M1245.259,2634.489c-.288.274-1.9-1.043-4.268-1.155-2.366-.145-4.167.989-4.41.685-.119-.134.182-.639.97-1.153a6.049,6.049,0,0,1,3.547-.9,5.819,5.819,0,0,1,3.379,1.278C1245.176,2633.836,1245.4,2634.368,1245.259,2634.489Z" fill="#263238"/>
        </g>
        <g id="Grupo_954206" data-name="Grupo 954206">
          <path id="Trazado_637031" data-name="Trazado 637031" d="M1251.7,2653.193a15.7,15.7,0,0,1,3.885-.5c.608-.032,1.187-.124,1.309-.532a3.083,3.083,0,0,0-.314-1.815q-.745-2.239-1.562-4.7c-2.162-6.687-3.694-12.172-3.424-12.258s2.241,5.267,4.4,11.953q.777,2.473,1.485,4.723a3.512,3.512,0,0,1,.2,2.391,1.518,1.518,0,0,1-1.039.836,4.131,4.131,0,0,1-1.035.092A15.475,15.475,0,0,1,1251.7,2653.193Z" fill="#263238"/>
        </g>
        <g id="Grupo_954207" data-name="Grupo 954207">
          <path id="Trazado_637032" data-name="Trazado 637032" d="M1247.516,2632.113c-.5.47-2.477-.874-5.113-1.831-2.618-1.012-4.989-1.3-5.058-1.981-.022-.322.6-.687,1.694-.834a9.437,9.437,0,0,1,7.748,2.9C1247.514,2631.2,1247.744,2631.885,1247.516,2632.113Z" fill="#263238"/>
        </g>
        <g id="Grupo_954208" data-name="Grupo 954208">
          <path id="Trazado_637033" data-name="Trazado 637033" d="M1267.692,2625c-.387.6-2.265.288-4.435.556-2.178.2-3.953.9-4.451.4-.222-.246-.006-.821.727-1.435a7.078,7.078,0,0,1,7.16-.773C1267.533,2624.2,1267.859,2624.714,1267.692,2625Z" fill="#263238"/>
        </g>
        <g id="Grupo_954209" data-name="Grupo 954209">
          <path id="Trazado_637034" data-name="Trazado 637034" d="M1218.465,2642.051c-.258-.127-10.445-3.66-10.631,6.9s10.458,8.572,10.482,8.269S1218.465,2642.051,1218.465,2642.051Z" fill="#ffbf9d"/>
        </g>
        <g id="Grupo_954210" data-name="Grupo 954210">
          <path id="Trazado_637035" data-name="Trazado 637035" d="M1215.159,2653.164c-.046-.034-.186.126-.5.263a1.841,1.841,0,0,1-1.376,0c-1.108-.429-2.017-2.218-2.035-4.122a6.078,6.078,0,0,1,.562-2.626,2.125,2.125,0,0,1,1.409-1.388.936.936,0,0,1,1.077.523c.137.3.065.508.121.527.029.027.23-.173.153-.611a1.18,1.18,0,0,0-.4-.669,1.39,1.39,0,0,0-1.013-.287,2.584,2.584,0,0,0-1.951,1.6,6.225,6.225,0,0,0-.69,2.933c.03,2.13,1.085,4.141,2.6,4.61a1.973,1.973,0,0,0,1.688-.251C1215.136,2653.419,1215.195,2653.184,1215.159,2653.164Z" fill="#ff9a6c"/>
        </g>
        <g id="Grupo_954211" data-name="Grupo 954211">
          <path id="Trazado_637036" data-name="Trazado 637036" d="M1264.3,2610.945c1.718-.929-3.365-6.511-7.55-8.455-6.325-2.936-16.007-4.8-21.877-3.187-7.067,1.938-12.955,5.393-16.551,11.779a41.553,41.553,0,0,0-4.85,21.176,12.613,12.613,0,0,0,1.432,6.468c1.455,2.349,4.273,3.845,4.121,7.066a4.425,4.425,0,0,0,1.069,3.235c1.915,2.073,4.3.162,5.4-1.766,2.358-4.117,2.661-9.056,2.906-13.795.175-3.368.342-6.809-.58-10.053-.5-1.766-1.317-3.437-1.72-5.228a6.344,6.344,0,0,1,.8-5.267,6.6,6.6,0,0,1,.866-.861,11.016,11.016,0,0,1,10.949-1.985c5.931,2.157,16.063,5.389,18.735,3.394,3.843-2.871,4.772-4.757,4.772-4.757Z" fill="#263238"/>
        </g>
        <g id="Grupo_954212" data-name="Grupo 954212">
          <path id="Trazado_637037" data-name="Trazado 637037" d="M1252.4,2658.179l-.284-.13a53.475,53.475,0,0,0-6.251-2.366,2.052,2.052,0,0,0-1.009-.13,1.775,1.775,0,0,0-1.145,1.3,5.093,5.093,0,0,0,1.24,5.154,4.678,4.678,0,0,0,5.179.836A4.331,4.331,0,0,0,1252.4,2658.179Z" fill="#ff9a6c"/>
        </g>
        <g id="Grupo_954214" data-name="Grupo 954214">
          <g id="Grupo_954213" data-name="Grupo 954213">
            <path id="Trazado_637038" data-name="Trazado 637038" d="M1252.4,2658.179a.891.891,0,0,1,.076.258,3.65,3.65,0,0,1,.067.769,4.453,4.453,0,0,1-1,2.635,4.235,4.235,0,0,1-1.568,1.2,4.568,4.568,0,0,1-2.243.353,4.96,4.96,0,0,1-2.358-.854,4.736,4.736,0,0,1-1.661-2.118,5.362,5.362,0,0,1-.354-2.667,4.665,4.665,0,0,1,.328-1.253,1.942,1.942,0,0,1,.823-.975,1.58,1.58,0,0,1,1.215-.027l1.035.334c.663.223,1.276.444,1.832.656,1.112.423,1.995.807,2.6,1.085.3.139.534.252.69.332a.9.9,0,0,1,.231.137,8.046,8.046,0,0,1-.967-.362c-.616-.245-1.509-.6-2.626-.994-.558-.2-1.173-.407-1.836-.619l-1.03-.316a1.317,1.317,0,0,0-1.016.018,1.677,1.677,0,0,0-.689.845,4.385,4.385,0,0,0-.3,1.175,5.108,5.108,0,0,0,.339,2.519,4.483,4.483,0,0,0,1.553,1.99,4.716,4.716,0,0,0,2.216.82,4.355,4.355,0,0,0,2.119-.306,4.071,4.071,0,0,0,1.5-1.113,4.484,4.484,0,0,0,1.043-2.505C1252.463,2658.546,1252.365,2658.184,1252.4,2658.179Z" fill="#263238"/>
          </g>
        </g>
        <g id="Grupo_954216" data-name="Grupo 954216">
          <g id="Grupo_954215" data-name="Grupo 954215">
            <path id="Trazado_637039" data-name="Trazado 637039" d="M1241.246,2648.269c-.044.024-.268-.4-.771-.965a5.96,5.96,0,0,0-5.273-1.982c-.75.094-1.2.265-1.214.218a2.79,2.79,0,0,1,1.181-.426,5.6,5.6,0,0,1,5.468,2.055A2.792,2.792,0,0,1,1241.246,2648.269Z" fill="#ff9a6c"/>
          </g>
        </g>
        <g id="Grupo_954218" data-name="Grupo 954218">
          <g id="Grupo_954217" data-name="Grupo 954217">
            <path id="Trazado_637040" data-name="Trazado 637040" d="M1264.8,2647.383a7.628,7.628,0,0,0-6.1-1.573,2.216,2.216,0,0,1,.935-.287,5.963,5.963,0,0,1,4.487,1.157C1264.6,2647.056,1264.826,2647.36,1264.8,2647.383Z" fill="#ff9a6c"/>
          </g>
        </g>
      </g>
      <g id="Grupo_954238" data-name="Grupo 954238">
        <g id="Grupo_954220" data-name="Grupo 954220">
          <path id="Trazado_637041" data-name="Trazado 637041" d="M1271.486,2625.969c-.466.568-5.769-13.962-22.577-12.636-12.247.966-21.461,10.261-25.721,15.74-3.278,4.217-8.7,12.264-8.7,12.264s-7.406-4.385-3.335-15.39c1.38-3.732,9.273-16.525,19.62-22.144,13.838-7.514,24.718-6.834,32.263-1.834C1269.963,2606.556,1276.382,2620.011,1271.486,2625.969Z" fill="#455a64"/>
        </g>
        <g id="Grupo_954221" data-name="Grupo 954221">
          <path id="Trazado_637042" data-name="Trazado 637042" d="M1231.789,2593.438c2.867-.384,14.594-.5,21.646,6.11l-30.421,17.644-7.846,8.946s-6.761-14.687,5.486-27.124A17.967,17.967,0,0,1,1231.789,2593.438Z" fill="#455a64"/>
        </g>
        <g id="Grupo_954223" data-name="Grupo 954223">
          <g id="Grupo_954222" data-name="Grupo 954222">
            <path id="Trazado_637043" data-name="Trazado 637043" d="M1255.726,2598.709a.494.494,0,0,1-.15,0l-.436-.027-1.674-.129c-.725-.065-1.618-.072-2.651-.122-.516-.024-1.07,0-1.656,0l-.9.006c-.309.01-.626.035-.95.053a33.871,33.871,0,0,0-8.949,1.637,36.555,36.555,0,0,0-9.783,5.309,55.343,55.343,0,0,0-8.413,7.354,51.139,51.139,0,0,0-5.619,7.193,42.391,42.391,0,0,0-2.961,5.4c-.32.655-.519,1.185-.676,1.535l-.177.4a.075.075,0,1,1-.028-.011l.149-.411c.14-.358.321-.9.625-1.56a39.16,39.16,0,0,1,2.889-5.467,49.744,49.744,0,0,1,5.6-7.267,54.5,54.5,0,0,1,8.44-7.408,36.325,36.325,0,0,1,9.87-5.329,33.415,33.415,0,0,1,9.026-1.587c.327-.014.645-.036.956-.042l.908,0c.589.009,1.144-.008,1.662.024,1.036.067,1.93.09,2.656.173l1.67.186.434.055A.616.616,0,0,1,1255.726,2598.709Z" fill="#263238"/>
          </g>
        </g>
        <g id="Grupo_954225" data-name="Grupo 954225">
          <g id="Grupo_954224" data-name="Grupo 954224">
            <path id="Trazado_637044" data-name="Trazado 637044" d="M1219.331,2635.039a2.3,2.3,0,0,1-.535-.269,4.914,4.914,0,0,1-.592-.377,8.008,8.008,0,0,1-.741-.563,11.864,11.864,0,0,1-1.7-1.73,12.728,12.728,0,0,1-2.517-5.339,11.968,11.968,0,0,1-.253-2.412,8.257,8.257,0,0,1,.038-.93,4.946,4.946,0,0,1,.086-.7,2.36,2.36,0,0,1,.133-.583c.061.009-.095.848-.046,2.206a13.08,13.08,0,0,0,.311,2.357,13.358,13.358,0,0,0,2.464,5.229,13.192,13.192,0,0,0,1.62,1.74C1218.616,2634.573,1219.363,2634.987,1219.331,2635.039Z" fill="#263238"/>
          </g>
        </g>
        <g id="Grupo_954227" data-name="Grupo 954227">
          <g id="Grupo_954226" data-name="Grupo 954226">
            <path id="Trazado_637045" data-name="Trazado 637045" d="M1224.2,2627.167a1.849,1.849,0,0,1-.442-.3,11.677,11.677,0,0,1-1.093-.964,16.363,16.363,0,0,1-4.51-8.367,11.555,11.555,0,0,1-.206-1.443,1.862,1.862,0,0,1-.008-.535c.052-.006.135.749.42,1.932a18.354,18.354,0,0,0,4.456,8.265C1223.648,2626.643,1224.233,2627.127,1224.2,2627.167Z" fill="#263238"/>
          </g>
        </g>
        <g id="Grupo_954229" data-name="Grupo 954229">
          <g id="Grupo_954228" data-name="Grupo 954228">
            <path id="Trazado_637046" data-name="Trazado 637046" d="M1231.659,2620.31a17.007,17.007,0,0,1-1.034-1.749c-.62-1.088-1.5-2.576-2.547-4.174s-2.063-3-2.814-4a17.09,17.09,0,0,1-1.192-1.645c.016-.013.154.124.391.384s.57.644.967,1.131a48.909,48.909,0,0,1,5.381,8.2c.287.558.51,1.016.652,1.338A1.961,1.961,0,0,1,1231.659,2620.31Z" fill="#263238"/>
          </g>
        </g>
        <g id="Grupo_954231" data-name="Grupo 954231">
          <g id="Grupo_954230" data-name="Grupo 954230">
            <path id="Trazado_637047" data-name="Trazado 637047" d="M1255.311,2598.6a3.93,3.93,0,0,1,.638.46,7.733,7.733,0,0,1,.7.6c.262.246.576.513.879.851a19.012,19.012,0,0,1,2.011,2.472,19.943,19.943,0,0,1,3.049,7.149,19.063,19.063,0,0,1,.392,3.163c.035.453.01.864.006,1.224a7.717,7.717,0,0,1-.056.921,3.869,3.869,0,0,1-.11.779c-.062-.005.067-1.12-.05-2.913a20.9,20.9,0,0,0-.451-3.115,20.945,20.945,0,0,0-3.008-7.054,21,21,0,0,0-1.937-2.482C1256.165,2599.327,1255.271,2598.647,1255.311,2598.6Z" fill="#263238"/>
          </g>
        </g>
        <g id="Grupo_954233" data-name="Grupo 954233">
          <g id="Grupo_954232" data-name="Grupo 954232">
            <path id="Trazado_637048" data-name="Trazado 637048" d="M1243.987,2598.468a2.765,2.765,0,0,1,.515.429c.317.292.766.723,1.311,1.266s1.185,1.2,1.872,1.952a18.688,18.688,0,0,1,2.069,2.606,15.675,15.675,0,0,1,1.975,5.686c.132.759.215,1.376.27,1.8a2.948,2.948,0,0,1,.053.668,2.842,2.842,0,0,1-.167-.649l-.363-1.782a16.871,16.871,0,0,0-2.021-5.568,20.183,20.183,0,0,0-2.02-2.58c-.672-.759-1.3-1.427-1.82-1.989l-1.241-1.331A3.037,3.037,0,0,1,1243.987,2598.468Z" fill="#263238"/>
          </g>
        </g>
        <g id="Grupo_954235" data-name="Grupo 954235">
          <g id="Grupo_954234" data-name="Grupo 954234">
            <path id="Trazado_637049" data-name="Trazado 637049" d="M1241.362,2615.306c-.048.015-.321-.823-.864-2.134a32.75,32.75,0,0,0-5.858-9.34c-.944-1.059-1.579-1.67-1.545-1.706a2.486,2.486,0,0,1,.487.386c.3.261.719.662,1.214,1.177a27.873,27.873,0,0,1,5.9,9.405c.248.67.428,1.22.531,1.606A2.537,2.537,0,0,1,1241.362,2615.306Z" fill="#263238"/>
          </g>
        </g>
        <g id="Grupo_954237" data-name="Grupo 954237" opacity="0.3">
          <g id="Grupo_954236" data-name="Grupo 954236">
            <path id="Trazado_637050" data-name="Trazado 637050" d="M1213.656,2620.779a29.454,29.454,0,0,1,33.087-22.883c-5.169.131-10.759,2.441-15.084,5.274-6.086,3.986-10.988,7.918-18,17.609"/>
          </g>
        </g>
      </g>
    </g>
    <g id="Grupo_954269" data-name="Grupo 954269">
      <g id="Grupo_954268" data-name="Grupo 954268">
        <g id="Grupo_954264" data-name="Grupo 954264">
          <g id="Grupo_954254" data-name="Grupo 954254">
            <g id="Grupo_954250" data-name="Grupo 954250">
              <g id="Grupo_954244" data-name="Grupo 954244">
                <g id="Grupo_954243" data-name="Grupo 954243">
                  <g id="Grupo_954242" data-name="Grupo 954242">
                    <g id="Grupo_954241" data-name="Grupo 954241">
                      <g id="Grupo_954240" data-name="Grupo 954240">
                        <path id="Trazado_637051" data-name="Trazado 637051" d="M1336.829,2664.463H1145.662a5.967,5.967,0,0,0-5.967,5.967v135.026a5.966,5.966,0,0,0,5.967,5.967h73.37s4.666,14.432-9.8,21.9h68.6s-16.335-5.6-12.135-21.9h71.129a5.966,5.966,0,0,0,5.967-5.967V2670.431A5.967,5.967,0,0,0,1336.829,2664.463Z" fill="#455a64"/>
                      </g>
                    </g>
                  </g>
                </g>
              </g>
              <g id="Grupo_954249" data-name="Grupo 954249">
                <g id="Grupo_954248" data-name="Grupo 954248">
                  <g id="Grupo_954247" data-name="Grupo 954247">
                    <g id="Grupo_954246" data-name="Grupo 954246">
                      <g id="Grupo_954245" data-name="Grupo 954245">
                        <path id="Trazado_637052" data-name="Trazado 637052" d="M1243.8,2797.223a3.683,3.683,0,0,1-5.187,5.187,1.355,1.355,0,0,1-.32-.321,3.683,3.683,0,0,1,5.187-5.186A1.316,1.316,0,0,1,1243.8,2797.223Z" fill="#263238"/>
                      </g>
                    </g>
                  </g>
                </g>
              </g>
            </g>
            <g id="Grupo_954253" data-name="Grupo 954253">
              <g id="Grupo_954252" data-name="Grupo 954252">
                <g id="Grupo_954251" data-name="Grupo 954251">
                  <path id="Rect치ngulo_44967" data-name="Rect치ngulo 44967" d="M9.7,0H186.821a9.7,9.7,0,0,1,9.7,9.7V119.784a0,0,0,0,1,0,0H0a0,0,0,0,1,0,0V9.7A9.7,9.7,0,0,1,9.7,0Z" transform="translate(1142.986 2666.937)" fill="#fff"/>
                </g>
              </g>
            </g>
          </g>
          <g id="Grupo_954256" data-name="Grupo 954256">
            <g id="Grupo_954255" data-name="Grupo 954255">
              <path id="Rect치ngulo_44968" data-name="Rect치ngulo 44968" d="M6.873,0h184a5.643,5.643,0,0,1,5.643,5.643v4.31a0,0,0,0,1,0,0H0a0,0,0,0,1,0,0V6.873A6.873,6.873,0,0,1,6.873,0Z" transform="translate(1142.986 2666.937)" fill="#ebebeb"/>
            </g>
          </g>
          <g id="Grupo_954263" data-name="Grupo 954263">
            <g id="Grupo_954258" data-name="Grupo 954258">
              <g id="Grupo_954257" data-name="Grupo 954257">
                <circle id="Elipse_5466" data-name="Elipse 5466" cx="1.38" cy="1.38" r="1.38" transform="translate(1147.864 2670.742)" fill="#e0e0e0"/>
              </g>
            </g>
            <g id="Grupo_954260" data-name="Grupo 954260">
              <g id="Grupo_954259" data-name="Grupo 954259">
                <circle id="Elipse_5467" data-name="Elipse 5467" cx="1.38" cy="1.38" r="1.38" transform="translate(1151.979 2670.742)" fill="#e0e0e0"/>
              </g>
            </g>
            <g id="Grupo_954262" data-name="Grupo 954262">
              <g id="Grupo_954261" data-name="Grupo 954261">
                <circle id="Elipse_5468" data-name="Elipse 5468" cx="1.38" cy="1.38" r="1.38" transform="translate(1155.893 2670.742)" fill="#e0e0e0"/>
              </g>
            </g>
          </g>
        </g>
        <g id="Grupo_954267" data-name="Grupo 954267">
          <g id="Grupo_954266" data-name="Grupo 954266">
            <g id="Grupo_954265" data-name="Grupo 954265">
              <path id="Trazado_637053" data-name="Trazado 637053" d="M1302.651,2811.442c0,.064-27.2.115-60.752.115s-60.758-.051-60.758-.115,27.2-.114,60.758-.114S1302.651,2811.379,1302.651,2811.442Z" fill="#263238"/>
            </g>
          </g>
        </g>
      </g>
    </g>
    <g id="Grupo_954299" data-name="Grupo 954299">
      <g id="Grupo_954270" data-name="Grupo 954270">
        <path id="Trazado_637054" data-name="Trazado 637054" d="M1171.783,2653.173a6.671,6.671,0,0,0-3.957-5.224,12.18,12.18,0,0,0-6.73-.769c-2.269.3-4.472.958-6.709,1.445-5.243,1.14-10.993,1.441-15.195,4.778-4.18,3.32-6.255,8.171-4.3,13.137l27.09-.136,9-6.079Z" fill="#455a64"/>
      </g>
      <g id="Grupo_954298" data-name="Grupo 954298">
        <g id="Grupo_954271" data-name="Grupo 954271">
          <path id="Trazado_637055" data-name="Trazado 637055" d="M1174.439,2654.391a8.455,8.455,0,0,0-5.216-4.5,12.987,12.987,0,0,0-7.011-.075c-3.89.949-7.6,3.46-9.032,7.2a7.851,7.851,0,0,0-.367,4.7c.393,1.547,1.09,3.176,2.507,3.911a12.657,12.657,0,0,0,6.665.777l11.5-5.368A6.306,6.306,0,0,0,1174.439,2654.391Z" fill="#263238"/>
        </g>
        <g id="Grupo_954285" data-name="Grupo 954285">
          <g id="Grupo_954275" data-name="Grupo 954275">
            <g id="Grupo_954272" data-name="Grupo 954272">
              <path id="Trazado_637056" data-name="Trazado 637056" d="M1149.265,2689.564l12.915,27.211a5.871,5.871,0,0,0,7.475,2.937l45.893-18.272a6.165,6.165,0,0,0,3.348-8.241l-12.158-27.219a6.164,6.164,0,0,0-7.944-3.2l-46.432,18.825A5.87,5.87,0,0,0,1149.265,2689.564Z" fill="#ebebeb"/>
            </g>
            <g id="Grupo_954274" data-name="Grupo 954274">
              <g id="Grupo_954273" data-name="Grupo 954273">
                <path id="Trazado_637057" data-name="Trazado 637057" d="M1149.265,2689.564s-.075-.156-.208-.466a5.811,5.811,0,0,1-.111-3.867,5.991,5.991,0,0,1,.659-1.412,6.4,6.4,0,0,1,1.174-1.332,14.645,14.645,0,0,1,3.73-1.827l4.573-1.867,11.151-4.545c8.273-3.356,18.084-7.39,29.057-11.785a6.321,6.321,0,0,1,7.644,3.608l3.858,8.626,8.107,18.143a6.418,6.418,0,0,1,.291,5.039,6.285,6.285,0,0,1-3.424,3.624l-9.1,3.63-17.2,6.84-15.569,6.184-3.594,1.426a8.606,8.606,0,0,1-1.812.575,5.806,5.806,0,0,1-1.873.017,6,6,0,0,1-3.231-1.563,6.087,6.087,0,0,1-1.084-1.383c-.288-.511-.5-1.025-.747-1.528-3.806-8.065-6.886-14.593-9.019-19.112l-2.438-5.2-.627-1.356c-.14-.306-.2-.466-.2-.466s.083.151.232.453l.654,1.343c.573,1.192,1.411,2.935,2.489,5.179l9.1,19.072c.246.5.469,1.027.744,1.511a5.906,5.906,0,0,0,1.048,1.329,5.774,5.774,0,0,0,3.114,1.5,5.549,5.549,0,0,0,1.8-.02,8.4,8.4,0,0,0,1.762-.566l3.591-1.434,15.559-6.209,17.2-6.857,9.091-3.631a5.991,5.991,0,0,0,3.262-3.454,6.119,6.119,0,0,0-.284-4.814c-2.776-6.216-5.485-12.284-8.1-18.145l-3.851-8.63a6.044,6.044,0,0,0-7.3-3.461l-29.058,11.717-11.168,4.5-4.582,1.845a14.667,14.667,0,0,0-3.709,1.784,6.368,6.368,0,0,0-1.162,1.3,5.93,5.93,0,0,0-.66,1.383,5.719,5.719,0,0,0-.269,2.381A6.8,6.8,0,0,0,1149.265,2689.564Z" fill="#263238"/>
              </g>
            </g>
          </g>
          <g id="Grupo_954276" data-name="Grupo 954276">
            <path id="Trazado_637058" data-name="Trazado 637058" d="M1189.633,2704.77l-20.216,8.6a1.619,1.619,0,0,1-2.122-.855h0a1.617,1.617,0,0,1,.855-2.121l20.217-8.6a1.617,1.617,0,0,1,2.121.855h0A1.617,1.617,0,0,1,1189.633,2704.77Z" fill="#455a64"/>
          </g>
          <g id="Grupo_954277" data-name="Grupo 954277">
            <path id="Trazado_637059" data-name="Trazado 637059" d="M1211.687,2692.568a3.441,3.441,0,1,1-4.513-1.819A3.44,3.44,0,0,1,1211.687,2692.568Z" fill="#fff"/>
          </g>
          <g id="Grupo_954278" data-name="Grupo 954278">
            <circle id="Elipse_5469" data-name="Elipse 5469" cx="3.441" cy="3.441" r="3.441" transform="translate(1201.638 2691.961)" fill="#4aceff"/>
          </g>
          <g id="Grupo_954279" data-name="Grupo 954279">
            <path id="Trazado_637060" data-name="Trazado 637060" d="M1162.85,2689.487l-3.759,1.6a2.147,2.147,0,0,1-2.816-1.135h0a2.147,2.147,0,0,1,1.135-2.816l3.758-1.6a2.148,2.148,0,0,1,2.817,1.135h0A2.147,2.147,0,0,1,1162.85,2689.487Z" fill="#4aceff"/>
          </g>
          <g id="Grupo_954280" data-name="Grupo 954280">
            <rect id="Rect치ngulo_44969" data-name="Rect치ngulo 44969" width="8.379" height="2.923" transform="translate(1195.41 2670.545) rotate(-23.049)" fill="#e0e0e0"/>
          </g>
          <g id="Grupo_954281" data-name="Grupo 954281">
            <rect id="Rect치ngulo_44970" data-name="Rect치ngulo 44970" width="7.052" height="5.238" transform="translate(1160.644 2698.231) rotate(-23.049)" fill="#e0e0e0"/>
          </g>
          <g id="Grupo_954282" data-name="Grupo 954282">
            <rect id="Rect치ngulo_44971" data-name="Rect치ngulo 44971" width="10.519" height="5.238" transform="translate(1170.727 2694.185) rotate(-23.049)" fill="#fff"/>
          </g>
          <g id="Grupo_954283" data-name="Grupo 954283">
            <rect id="Rect치ngulo_44972" data-name="Rect치ngulo 44972" width="10.519" height="5.238" transform="translate(1183.175 2688.644) rotate(-23.049)" fill="#fff"/>
          </g>
          <g id="Grupo_954284" data-name="Grupo 954284">
            <rect id="Rect치ngulo_44973" data-name="Rect치ngulo 44973" width="12.569" height="5.238" transform="translate(1195.623 2683.104) rotate(-23.049)" fill="#fff"/>
          </g>
        </g>
        <g id="Grupo_954295" data-name="Grupo 954295">
          <g id="Grupo_954286" data-name="Grupo 954286">
            <path id="Trazado_637061" data-name="Trazado 637061" d="M1169.65,2652.408s23.374,4.545,24.186,5.032,12.012,8.765,12.174,11.687-3.9,15.907-3.9,15.907-3.9.487-4.058-6.493l-.162-6.979-5.194-3.9s2.11,7.629,1.623,9.9-4.378,7.969-6.491,7.475a6.172,6.172,0,0,1-3.248-1.956s-1.948,5.107-7.3,1.986c0,0-3.571,1.423-6.33-.038s-5.195-6.006-5.195-6.006a2.417,2.417,0,0,1,2.76-2.6,11.084,11.084,0,0,1,5.519,2.273l.324-2.922a33.656,33.656,0,0,0-6.979-6.537c-3.571-2.228-15.113-5.1-11.83-13.074l3.483-1.809Z" fill="#263238"/>
          </g>
          <g id="Grupo_954288" data-name="Grupo 954288">
            <g id="Grupo_954287" data-name="Grupo 954287">
              <path id="Trazado_637062" data-name="Trazado 637062" d="M1178.451,2682.669" fill="none" stroke="#ffe1d3" stroke-miterlimit="10" stroke-width="1"/>
            </g>
          </g>
          <g id="Grupo_954290" data-name="Grupo 954290">
            <g id="Grupo_954289" data-name="Grupo 954289">
              <path id="Trazado_637063" data-name="Trazado 637063" d="M1180.3,2671.608a2.044,2.044,0,0,1,.306.517,9.138,9.138,0,0,1,.585,1.531,10.539,10.539,0,0,1-2.415,10.115,9.211,9.211,0,0,1-1.214,1.1,2.066,2.066,0,0,1-.506.323c-.036-.044.67-.534,1.562-1.565a10.961,10.961,0,0,0,2.369-9.921C1180.659,2672.387,1180.251,2671.631,1180.3,2671.608Z" fill="#455a64"/>
            </g>
          </g>
          <g id="Grupo_954292" data-name="Grupo 954292">
            <g id="Grupo_954291" data-name="Grupo 954291">
              <path id="Trazado_637064" data-name="Trazado 637064" d="M1185.793,2667.585a2.617,2.617,0,0,1,.32.556,5.878,5.878,0,0,1,.315.686c.108.273.248.579.352.935a14.677,14.677,0,0,1,.6,2.534,15.439,15.439,0,0,1-.4,6.334,14.648,14.648,0,0,1-.916,2.437,9.758,9.758,0,0,1-.467.884,6.145,6.145,0,0,1-.4.64,2.688,2.688,0,0,1-.388.512c-.05-.032.47-.786,1.062-2.124a16.367,16.367,0,0,0,.842-2.42,16.316,16.316,0,0,0,.4-6.226,16.273,16.273,0,0,0-.529-2.508C1186.16,2668.423,1185.739,2667.61,1185.793,2667.585Z" fill="#455a64"/>
            </g>
          </g>
          <g id="Grupo_954294" data-name="Grupo 954294">
            <g id="Grupo_954293" data-name="Grupo 954293">
              <path id="Trazado_637065" data-name="Trazado 637065" d="M1191.632,2662.274c.023-.025.3.168.633.6a4.717,4.717,0,0,1,.779,4.027,1.708,1.708,0,0,1-.364.79,5.943,5.943,0,0,0-1.048-5.414Z" fill="#455a64"/>
            </g>
          </g>
        </g>
        <g id="Grupo_954297" data-name="Grupo 954297">
          <g id="Grupo_954296" data-name="Grupo 954296">
            <path id="Trazado_637066" data-name="Trazado 637066" d="M1171.8,2653.175a15.49,15.49,0,0,0-3.113-.932,11.547,11.547,0,0,0-3.5-.029,10.9,10.9,0,0,0-4.024,1.423,10.072,10.072,0,0,0-3.151,2.865,6.4,6.4,0,0,0-1.179,3.237,6.987,6.987,0,0,0,.276,2.336,5.786,5.786,0,0,1,.268.836,4.439,4.439,0,0,1-.378-.8,6.212,6.212,0,0,1,.785-5.764,10.115,10.115,0,0,1,3.226-2.966,10.876,10.876,0,0,1,4.138-1.439,11.265,11.265,0,0,1,3.578.093,9.989,9.989,0,0,1,2.3.718,6.166,6.166,0,0,1,.585.3C1171.743,2653.123,1171.809,2653.166,1171.8,2653.175Z" fill="#455a64"/>
          </g>
        </g>
      </g>
    </g>
    <g id="Grupo_954310" data-name="Grupo 954310">
      <g id="Grupo_954305" data-name="Grupo 954305">
        <g id="Grupo_954301" data-name="Grupo 954301" opacity="0.3">
          <g id="Grupo_954300" data-name="Grupo 954300">
            <path id="Trazado_637067" data-name="Trazado 637067" d="M1334.781,2714.372c1.943,6.5.992,14.671,2.934,21.169a4.459,4.459,0,0,1,.182,2.971,3.707,3.707,0,0,1-2.968,1.847,12.081,12.081,0,0,1-9.422-2.717,17.06,17.06,0,0,1-5.354-8.394,12.337,12.337,0,0,1-.048-7.972C1321.833,2716.877,1330.085,2713.839,1334.781,2714.372Z"/>
          </g>
        </g>
        <g id="Grupo_954304" data-name="Grupo 954304">
          <g id="Grupo_954303" data-name="Grupo 954303">
            <g id="Grupo_954302" data-name="Grupo 954302">
              <path id="Trazado_637068" data-name="Trazado 637068" d="M1325.8,2741.619s5.211,3.449,7.461,3.765,10.245-1.415,10.245-1.415,3.982-3.472,1.337-5.546a10.375,10.375,0,0,0,2.29-1.577c1.419-1.33,1.7-2.025.262-5.38,0,0,2.229-2.857,2.005-4.337a6.277,6.277,0,0,0-1.691-3.366s2.262-4.124-1.674-6.053a5.174,5.174,0,0,1-2-2.34,6.99,6.99,0,0,0-4.141-3.551,14.483,14.483,0,0,0-5.024-.521v5.89s-14,0-15.406,1.12c-3.065,2.439,1.793,4.967,1.793,4.967s-3.04,3.06.109,4.435c0,0-2.262,2.984.976,4.568,1.9.93,15.772,5.212,15.772,5.212l-6.992.7s-4.871-2.373-5.751-.811S1325.8,2741.619,1325.8,2741.619Z" fill="#263238"/>
            </g>
          </g>
        </g>
      </g>
      <g id="Grupo_954307" data-name="Grupo 954307">
        <g id="Grupo_954306" data-name="Grupo 954306">
          <path id="Trazado_637069" data-name="Trazado 637069" d="M1341.109,2730.888a4.055,4.055,0,0,1-.789-.108l-2.129-.391c-1.8-.332-4.281-.779-7.034-1.217s-5.254-.782-7.066-1.022l-2.145-.289a4.184,4.184,0,0,1-.783-.141,3.965,3.965,0,0,1,.8.025c.511.035,1.248.1,2.158.195,1.82.187,4.329.5,7.088.938s5.24.918,7.028,1.305c.894.192,1.616.358,2.112.483A4.112,4.112,0,0,1,1341.109,2730.888Z" fill="#455a64"/>
        </g>
      </g>
      <g id="Grupo_954309" data-name="Grupo 954309">
        <g id="Grupo_954308" data-name="Grupo 954308">
          <path id="Trazado_637070" data-name="Trazado 637070" d="M1342.876,2724.273a4.682,4.682,0,0,1-.85-.091l-2.3-.317c-1.945-.256-4.641-.54-7.63-.678s-5.7-.1-7.66-.019l-2.322.106a4.627,4.627,0,0,1-.855.013,4.728,4.728,0,0,1,.845-.128c.546-.066,1.339-.137,2.321-.2a70.469,70.469,0,0,1,15.331.7c.971.154,1.755.3,2.293.412A4.748,4.748,0,0,1,1342.876,2724.273Z" fill="#455a64"/>
        </g>
      </g>
    </g>
    <g id="Grupo_954368" data-name="Grupo 954368">
      <g id="Grupo_954367" data-name="Grupo 954367">
        <g id="Grupo_954346" data-name="Grupo 954346">
          <g id="Grupo_954333" data-name="Grupo 954333">
            <g id="Grupo_954332" data-name="Grupo 954332">
              <g id="Grupo_954331" data-name="Grupo 954331">
                <g id="Grupo_954330" data-name="Grupo 954330">
                  <g id="Grupo_954314" data-name="Grupo 954314">
                    <g id="Grupo_954313" data-name="Grupo 954313">
                      <g id="Grupo_954312" data-name="Grupo 954312">
                        <g id="Grupo_954311" data-name="Grupo 954311">
                          <path id="Trazado_637071" data-name="Trazado 637071" d="M1323.42,2766.133a14.743,14.743,0,1,1-11.7-17.258A14.743,14.743,0,0,1,1323.42,2766.133Z" fill="#4aceff"/>
                        </g>
                      </g>
                    </g>
                  </g>
                  <g id="Grupo_954317" data-name="Grupo 954317" opacity="0.1">
                    <g id="Grupo_954316" data-name="Grupo 954316">
                      <g id="Grupo_954315" data-name="Grupo 954315">
                        <path id="Trazado_637072" data-name="Trazado 637072" d="M1311.718,2748.875a14.743,14.743,0,0,0-17.257,11.7s10.087,2.407,13.321-1.221S1311.718,2748.875,1311.718,2748.875Z" fill="#fff"/>
                      </g>
                    </g>
                  </g>
                  <g id="Grupo_954320" data-name="Grupo 954320">
                    <g id="Grupo_954319" data-name="Grupo 954319">
                      <g id="Grupo_954318" data-name="Grupo 954318">
                        <path id="Trazado_637073" data-name="Trazado 637073" d="M1319.763,2765.194a11.209,11.209,0,1,1-8.9-13.12A11.209,11.209,0,0,1,1319.763,2765.194Z" fill="#4aceff"/>
                      </g>
                    </g>
                  </g>
                  <g id="Grupo_954323" data-name="Grupo 954323" opacity="0.2">
                    <g id="Grupo_954322" data-name="Grupo 954322">
                      <g id="Grupo_954321" data-name="Grupo 954321">
                        <path id="Trazado_637074" data-name="Trazado 637074" d="M1319.763,2765.194a11.209,11.209,0,1,1-8.9-13.12A11.209,11.209,0,0,1,1319.763,2765.194Z"/>
                      </g>
                    </g>
                  </g>
                  <g id="Grupo_954326" data-name="Grupo 954326">
                    <g id="Grupo_954325" data-name="Grupo 954325">
                      <g id="Grupo_954324" data-name="Grupo 954324">
                        <path id="Trazado_637075" data-name="Trazado 637075" d="M1319.986,2765.712a11.058,11.058,0,1,1-8.777-12.943A11.059,11.059,0,0,1,1319.986,2765.712Z" fill="#4aceff"/>
                      </g>
                    </g>
                  </g>
                  <g id="Grupo_954329" data-name="Grupo 954329" opacity="0.2">
                    <g id="Grupo_954328" data-name="Grupo 954328">
                      <g id="Grupo_954327" data-name="Grupo 954327">
                        <path id="Trazado_637076" data-name="Trazado 637076" d="M1319.986,2765.712a11.058,11.058,0,1,1-8.777-12.943A11.059,11.059,0,0,1,1319.986,2765.712Z" fill="#fff"/>
                      </g>
                    </g>
                  </g>
                </g>
              </g>
            </g>
          </g>
          <g id="Grupo_954345" data-name="Grupo 954345">
            <g id="Grupo_954337" data-name="Grupo 954337">
              <g id="Grupo_954336" data-name="Grupo 954336">
                <g id="Grupo_954335" data-name="Grupo 954335">
                  <g id="Grupo_954334" data-name="Grupo 954334">
                    <path id="Trazado_637077" data-name="Trazado 637077" d="M1309.739,2762.77l.533-2.778.014,0a5.843,5.843,0,0,1,1.4.669,4.715,4.715,0,0,1,.608.569l.054-.079.62-.918.143-.211-.4-.616-.259.062a5.3,5.3,0,0,0-1.9-.967l.293-1.528-.4-.475-.073.384-.653-.126-.3,1.556c-2.188-.206-3.441.824-3.711,2.228-.367,1.914,1.177,2.723,2.633,3.388l-.528,2.753a5.384,5.384,0,0,1-2.553-1.574l-.886,1.272a6.136,6.136,0,0,0,3.154,1.789l-.222,1.154-.539-.094.468.468,1.128.217.3-1.542c2.2.194,3.468-.819,3.738-2.223C1312.769,2764.236,1311.2,2763.435,1309.739,2762.77Zm-1.073-.505c-.754-.388-1.288-.8-1.161-1.465.116-.6.624-1.022,1.631-.986Zm1.607-2.275h0Zm-1.321,6.882.467-2.436c.781.392,1.326.825,1.2,1.5C1310.5,2766.528,1309.986,2766.914,1308.952,2766.872Z" fill="#4aceff"/>
                  </g>
                </g>
              </g>
            </g>
            <g id="Grupo_954341" data-name="Grupo 954341" opacity="0.3">
              <g id="Grupo_954340" data-name="Grupo 954340">
                <g id="Grupo_954339" data-name="Grupo 954339">
                  <g id="Grupo_954338" data-name="Grupo 954338">
                    <path id="Trazado_637078" data-name="Trazado 637078" d="M1309.739,2762.77l.533-2.778.014,0a5.843,5.843,0,0,1,1.4.669,4.715,4.715,0,0,1,.608.569l.054-.079.62-.918.143-.211-.4-.616-.259.062a5.3,5.3,0,0,0-1.9-.967l.293-1.528-.4-.475-.073.384-.653-.126-.3,1.556c-2.188-.206-3.441.824-3.711,2.228-.367,1.914,1.177,2.723,2.633,3.388l-.528,2.753a5.384,5.384,0,0,1-2.553-1.574l-.886,1.272a6.136,6.136,0,0,0,3.154,1.789l-.222,1.154-.539-.094.468.468,1.128.217.3-1.542c2.2.194,3.468-.819,3.738-2.223C1312.769,2764.236,1311.2,2763.435,1309.739,2762.77Zm-1.073-.505c-.754-.388-1.288-.8-1.161-1.465.116-.6.624-1.022,1.631-.986Zm1.607-2.275h0Zm-1.321,6.882.467-2.436c.781.392,1.326.825,1.2,1.5C1310.5,2766.528,1309.986,2766.914,1308.952,2766.872Z"/>
                  </g>
                </g>
              </g>
            </g>
            <g id="Grupo_954344" data-name="Grupo 954344">
              <g id="Grupo_954343" data-name="Grupo 954343">
                <g id="Grupo_954342" data-name="Grupo 954342">
                  <path id="Trazado_637079" data-name="Trazado 637079" d="M1308.27,2767.906l-.3,1.542-1.129-.216.293-1.529a6.136,6.136,0,0,1-3.154-1.79l.886-1.271a5.4,5.4,0,0,0,2.553,1.574l.529-2.753c-1.457-.665-3-1.475-2.633-3.389.269-1.4,1.523-2.434,3.71-2.229l.3-1.555,1.129.216-.294,1.528a6.016,6.016,0,0,1,2.635,1.377l-.832,1.282a5.8,5.8,0,0,0-2.088-1.172l-.533,2.781c1.457.665,3.03,1.467,2.663,3.381C1311.739,2767.087,1310.474,2768.1,1308.27,2767.906Zm0-6.109.47-2.451c-1.006-.036-1.514.381-1.63.986C1306.984,2760.993,1307.518,2761.41,1308.271,2761.8Zm1.951,3.672c.129-.675-.416-1.108-1.2-1.5l-.467,2.436C1309.592,2766.447,1310.108,2766.061,1310.222,2765.469Z" fill="#4aceff"/>
                </g>
              </g>
            </g>
          </g>
        </g>
        <g id="Grupo_954350" data-name="Grupo 954350">
          <g id="Grupo_954349" data-name="Grupo 954349">
            <g id="Grupo_954348" data-name="Grupo 954348">
              <g id="Grupo_954347" data-name="Grupo 954347">
                <path id="Trazado_637080" data-name="Trazado 637080" d="M1295.306,2767.783a.6.6,0,0,1-.046-.125c-.029-.094-.066-.215-.111-.365a5.881,5.881,0,0,1-.153-.584c-.05-.23-.119-.489-.16-.783-.024-.147-.048-.3-.074-.46s-.037-.328-.056-.5c-.045-.347-.055-.719-.073-1.111a14.647,14.647,0,0,1,.759-5.024c.133-.369.253-.722.4-1.04.07-.16.131-.317.2-.462l.207-.417c.126-.269.268-.5.384-.7s.224-.376.318-.513l.214-.315a.6.6,0,0,1,.081-.106.592.592,0,0,1-.062.118l-.2.326c-.089.14-.194.312-.3.521s-.247.436-.368.705l-.2.418c-.069.145-.127.3-.195.462-.14.317-.256.669-.385,1.037a16.378,16.378,0,0,0-.587,2.464,16.653,16.653,0,0,0-.168,2.526c.016.389.022.76.062,1.1.018.173.027.34.05.5s.046.312.067.458c.036.293.1.553.143.783s.091.427.134.586.068.274.091.37A.576.576,0,0,1,1295.306,2767.783Z" fill="#fff"/>
              </g>
            </g>
          </g>
        </g>
        <g id="Grupo_954354" data-name="Grupo 954354">
          <g id="Grupo_954353" data-name="Grupo 954353">
            <g id="Grupo_954352" data-name="Grupo 954352">
              <g id="Grupo_954351" data-name="Grupo 954351">
                <path id="Trazado_637081" data-name="Trazado 637081" d="M1306.039,2761.406a.923.923,0,0,1-.259-.379,1.734,1.734,0,0,1,.468-2.044.944.944,0,0,1,.4-.229c.009.017-.147.1-.346.286a1.873,1.873,0,0,0-.523.911,1.854,1.854,0,0,0,.075,1.047C1305.948,2761.256,1306.054,2761.4,1306.039,2761.406Z" fill="#fff"/>
              </g>
            </g>
          </g>
        </g>
        <g id="Grupo_954358" data-name="Grupo 954358">
          <g id="Grupo_954357" data-name="Grupo 954357">
            <g id="Grupo_954356" data-name="Grupo 954356">
              <g id="Grupo_954355" data-name="Grupo 954355">
                <path id="Trazado_637082" data-name="Trazado 637082" d="M1309.306,2757.662a1.011,1.011,0,0,1,.033-.463,1.026,1.026,0,0,1,.14-.442,1.94,1.94,0,0,1-.173.905Z" fill="#fff"/>
              </g>
            </g>
          </g>
        </g>
        <g id="Grupo_954362" data-name="Grupo 954362">
          <g id="Grupo_954361" data-name="Grupo 954361">
            <g id="Grupo_954360" data-name="Grupo 954360">
              <g id="Grupo_954359" data-name="Grupo 954359">
                <path id="Trazado_637083" data-name="Trazado 637083" d="M1311.916,2751.982a2.241,2.241,0,0,1-.351-.082c-.111-.031-.248-.067-.409-.1s-.342-.081-.547-.111-.426-.076-.667-.1-.5-.049-.772-.07a11.555,11.555,0,0,0-3.518.349c-.263.073-.515.138-.743.219s-.443.154-.636.229-.362.152-.513.217-.279.126-.382.178a.18.18,0,1,1-.02-.038c.1-.058.226-.126.376-.2s.316-.157.51-.233.4-.167.635-.243.483-.155.747-.231a11.78,11.78,0,0,1,1.761-.321,11.913,11.913,0,0,1,1.789-.031c.275.023.536.041.777.08s.467.073.671.114.386.089.546.129.3.08.407.118A2.256,2.256,0,0,1,1311.916,2751.982Z" fill="#fff"/>
              </g>
            </g>
          </g>
        </g>
        <g id="Grupo_954366" data-name="Grupo 954366">
          <g id="Grupo_954365" data-name="Grupo 954365">
            <g id="Grupo_954364" data-name="Grupo 954364">
              <g id="Grupo_954363" data-name="Grupo 954363">
                <path id="Trazado_637084" data-name="Trazado 637084" d="M1308.07,2777.425a1.409,1.409,0,0,1-.272.02c-.175.008-.429,0-.742-.014a10.667,10.667,0,0,1-4.656-1.4c-.271-.158-.484-.295-.626-.4a1.28,1.28,0,0,1-.215-.167,1.338,1.338,0,0,1,.238.131c.149.092.367.218.641.366a11.923,11.923,0,0,0,4.624,1.391c.31.028.562.043.737.048A1.278,1.278,0,0,1,1308.07,2777.425Z" fill="#fff"/>
              </g>
            </g>
          </g>
        </g>
      </g>
    </g>
    <g id="Grupo_954439" data-name="Grupo 954439">
      <g id="Grupo_954381" data-name="Grupo 954381">
        <g id="Grupo_954380" data-name="Grupo 954380">
          <g id="Grupo_954379" data-name="Grupo 954379">
            <g id="Grupo_954378" data-name="Grupo 954378">
              <g id="Grupo_954377" data-name="Grupo 954377">
                <g id="Grupo_954376" data-name="Grupo 954376">
                  <g id="Grupo_954375" data-name="Grupo 954375">
                    <g id="Grupo_954374" data-name="Grupo 954374">
                      <g id="Grupo_954373" data-name="Grupo 954373">
                        <g id="Grupo_954372" data-name="Grupo 954372">
                          <g id="Grupo_954369" data-name="Grupo 954369">
                            <path id="Trazado_637085" data-name="Trazado 637085" d="M1295.852,2730.4l-36.771-18.811a5.168,5.168,0,0,1-2.247-6.955l26.037-50.9a5.168,5.168,0,0,1,6.955-2.248l23.32,11.93,8.534,27.841-18.873,36.891A5.168,5.168,0,0,1,1295.852,2730.4Z" fill="#fafafa"/>
                          </g>
                          <g id="Grupo_954371" data-name="Grupo 954371">
                            <g id="Grupo_954370" data-name="Grupo 954370">
                              <path id="Trazado_637086" data-name="Trazado 637086" d="M1295.852,2730.4s.073.026.212.085a4.326,4.326,0,0,0,.63.232,5.177,5.177,0,0,0,2.586.1,5.115,5.115,0,0,0,3.314-2.4c.784-1.473,1.639-3.207,2.624-5.129,3.93-7.71,9.555-18.745,16.351-32.076l-.008.093-8.551-27.836.071.086-13.459-6.88-7.039-3.6-1.786-.914a13.315,13.315,0,0,0-1.8-.84,5.022,5.022,0,0,0-3.828.325,4.955,4.955,0,0,0-1.981,1.856c-.452.8-.863,1.665-1.295,2.489q-1.278,2.5-2.54,4.965-2.523,4.929-4.967,9.705L1264.987,2689q-2.246,4.384-4.377,8.542-1.063,2.076-2.1,4.091l-1.024,2a11.823,11.823,0,0,0-.907,1.983,5.064,5.064,0,0,0,.572,4.041,5,5,0,0,0,1.4,1.473,19.122,19.122,0,0,0,1.787.975l6.937,3.559,20.924,10.758,5.681,2.938,1.475.771c.331.175.5.271.5.271s-.175-.078-.511-.244l-1.488-.745-5.707-2.888-20.967-10.673-6.945-3.542a19.229,19.229,0,0,1-1.817-.987,5.292,5.292,0,0,1-2.073-5.775,12.011,12.011,0,0,1,.921-2.03q.507-.991,1.021-2l2.091-4.095,4.365-8.547c2.989-5.849,6.127-11.988,9.379-18.353l4.964-9.707,2.539-4.964c.436-.834.832-1.669,1.3-2.508a5.249,5.249,0,0,1,2.1-1.967,5.318,5.318,0,0,1,4.056-.344,13.4,13.4,0,0,1,1.848.859l1.786.914,7.039,3.6,13.454,6.888.054.028.018.057c3.066,10.027,5.94,19.422,8.516,27.847l.015.048-.023.045-16.445,32.028c-1,1.92-1.856,3.641-2.656,5.12a5.189,5.189,0,0,1-3.394,2.422,5.133,5.133,0,0,1-2.614-.136,3.918,3.918,0,0,1-.626-.25C1295.919,2730.436,1295.852,2730.4,1295.852,2730.4Z" fill="#263238"/>
                            </g>
                          </g>
                        </g>
                      </g>
                    </g>
                  </g>
                </g>
              </g>
            </g>
          </g>
        </g>
      </g>
      <g id="Grupo_954389" data-name="Grupo 954389">
        <g id="Grupo_954388" data-name="Grupo 954388">
          <g id="Grupo_954387" data-name="Grupo 954387">
            <g id="Grupo_954386" data-name="Grupo 954386">
              <g id="Grupo_954385" data-name="Grupo 954385">
                <g id="Grupo_954384" data-name="Grupo 954384">
                  <g id="Grupo_954383" data-name="Grupo 954383">
                    <g id="Grupo_954382" data-name="Grupo 954382">
                      <path id="Trazado_637087" data-name="Trazado 637087" d="M1303.034,2675.582c-.094.184-3.979-1.616-8.676-4.019s-8.43-4.5-8.336-4.684,3.978,1.614,8.677,4.018S1303.128,2675.4,1303.034,2675.582Z" fill="#263238"/>
                    </g>
                  </g>
                </g>
              </g>
            </g>
          </g>
        </g>
      </g>
      <g id="Grupo_954397" data-name="Grupo 954397">
        <g id="Grupo_954396" data-name="Grupo 954396">
          <g id="Grupo_954395" data-name="Grupo 954395">
            <g id="Grupo_954394" data-name="Grupo 954394">
              <g id="Grupo_954393" data-name="Grupo 954393">
                <g id="Grupo_954392" data-name="Grupo 954392">
                  <g id="Grupo_954391" data-name="Grupo 954391">
                    <g id="Grupo_954390" data-name="Grupo 954390">
                      <path id="Trazado_637088" data-name="Trazado 637088" d="M1309.878,2689.3c-.1.184-6.439-2.873-14.17-6.828s-13.923-7.312-13.829-7.495,6.437,2.872,14.17,6.828S1309.972,2689.117,1309.878,2689.3Z" fill="#263238"/>
                    </g>
                  </g>
                </g>
              </g>
            </g>
          </g>
        </g>
      </g>
      <g id="Grupo_954405" data-name="Grupo 954405">
        <g id="Grupo_954404" data-name="Grupo 954404">
          <g id="Grupo_954403" data-name="Grupo 954403">
            <g id="Grupo_954402" data-name="Grupo 954402">
              <g id="Grupo_954401" data-name="Grupo 954401">
                <g id="Grupo_954400" data-name="Grupo 954400">
                  <g id="Grupo_954399" data-name="Grupo 954399">
                    <g id="Grupo_954398" data-name="Grupo 954398">
                      <path id="Trazado_637089" data-name="Trazado 637089" d="M1308.94,2697.354c-.095.184-7-3.162-15.43-7.473s-15.185-7.956-15.091-8.141,7,3.162,15.431,7.474S1309.034,2697.17,1308.94,2697.354Z" fill="#263238"/>
                    </g>
                  </g>
                </g>
              </g>
            </g>
          </g>
        </g>
      </g>
      <g id="Grupo_954413" data-name="Grupo 954413">
        <g id="Grupo_954412" data-name="Grupo 954412">
          <g id="Grupo_954411" data-name="Grupo 954411">
            <g id="Grupo_954410" data-name="Grupo 954410">
              <g id="Grupo_954409" data-name="Grupo 954409">
                <g id="Grupo_954408" data-name="Grupo 954408">
                  <g id="Grupo_954407" data-name="Grupo 954407">
                    <g id="Grupo_954406" data-name="Grupo 954406">
                      <path id="Trazado_637090" data-name="Trazado 637090" d="M1305.675,2703.734c-.094.185-7-3.162-15.43-7.473s-15.184-7.956-15.09-8.14,7,3.161,15.431,7.474S1305.769,2703.55,1305.675,2703.734Z" fill="#263238"/>
                    </g>
                  </g>
                </g>
              </g>
            </g>
          </g>
        </g>
      </g>
      <g id="Grupo_954421" data-name="Grupo 954421">
        <g id="Grupo_954420" data-name="Grupo 954420">
          <g id="Grupo_954419" data-name="Grupo 954419">
            <g id="Grupo_954418" data-name="Grupo 954418">
              <g id="Grupo_954417" data-name="Grupo 954417">
                <g id="Grupo_954416" data-name="Grupo 954416">
                  <g id="Grupo_954415" data-name="Grupo 954415">
                    <g id="Grupo_954414" data-name="Grupo 954414">
                      <path id="Trazado_637091" data-name="Trazado 637091" d="M1302.411,2710.115c-.094.184-7-3.162-15.43-7.473s-15.184-7.956-15.09-8.14,7,3.161,15.431,7.474S1302.505,2709.931,1302.411,2710.115Z" fill="#263238"/>
                    </g>
                  </g>
                </g>
              </g>
            </g>
          </g>
        </g>
      </g>
      <g id="Grupo_954429" data-name="Grupo 954429">
        <g id="Grupo_954428" data-name="Grupo 954428">
          <g id="Grupo_954427" data-name="Grupo 954427">
            <g id="Grupo_954426" data-name="Grupo 954426">
              <g id="Grupo_954425" data-name="Grupo 954425">
                <g id="Grupo_954424" data-name="Grupo 954424">
                  <g id="Grupo_954423" data-name="Grupo 954423">
                    <g id="Grupo_954422" data-name="Grupo 954422">
                      <path id="Trazado_637092" data-name="Trazado 637092" d="M1299.147,2716.5c-.094.184-7-3.162-15.43-7.473s-15.185-7.957-15.09-8.141,7,3.162,15.431,7.474S1299.241,2716.312,1299.147,2716.5Z" fill="#263238"/>
                    </g>
                  </g>
                </g>
              </g>
            </g>
          </g>
        </g>
      </g>
      <g id="Grupo_954438" data-name="Grupo 954438">
        <g id="Grupo_954437" data-name="Grupo 954437">
          <g id="Grupo_954436" data-name="Grupo 954436">
            <g id="Grupo_954435" data-name="Grupo 954435">
              <g id="Grupo_954434" data-name="Grupo 954434">
                <g id="Grupo_954433" data-name="Grupo 954433">
                  <g id="Grupo_954432" data-name="Grupo 954432">
                    <g id="Grupo_954431" data-name="Grupo 954431">
                      <g id="Grupo_954430" data-name="Grupo 954430">
                        <path id="Trazado_637093" data-name="Trazado 637093" d="M1312.86,2663.232l-7.328,14.324a4.806,4.806,0,0,0,2.089,6.468l13.772,7.048Z" fill="#e0e0e0"/>
                      </g>
                    </g>
                  </g>
                </g>
              </g>
            </g>
          </g>
        </g>
      </g>
    </g>
    <g id="Grupo_954460" data-name="Grupo 954460">
      <g id="Grupo_954459" data-name="Grupo 954459">
        <g id="Grupo_954447" data-name="Grupo 954447">
          <g id="Grupo_954446" data-name="Grupo 954446">
            <g id="Grupo_954445" data-name="Grupo 954445">
              <g id="Grupo_954444" data-name="Grupo 954444">
                <g id="Grupo_954443" data-name="Grupo 954443">
                  <g id="Grupo_954442" data-name="Grupo 954442">
                    <g id="Grupo_954441" data-name="Grupo 954441">
                      <g id="Grupo_954440" data-name="Grupo 954440">
                        <path id="Trazado_637094" data-name="Trazado 637094" d="M1245.264,2700.761l-18.065-.031-1.615-3.017a6.232,6.232,0,0,0-5.524-3.192l-17.657.008a5.519,5.519,0,0,0-5.688,5.332v2.06l.026,54.189a6.27,6.27,0,0,0,6.468,6.053l71.726-.034a6.27,6.27,0,0,0,6.462-6.059l-.024-51.191a4.134,4.134,0,0,0-4.137-4.133Z" fill="#4aceff"/>
                      </g>
                    </g>
                  </g>
                </g>
              </g>
            </g>
          </g>
        </g>
        <g id="Grupo_954450" data-name="Grupo 954450">
          <g id="Grupo_954449" data-name="Grupo 954449">
            <g id="Grupo_954448" data-name="Grupo 954448">
              <rect id="Rect치ngulo_44974" data-name="Rect치ngulo 44974" width="42.687" height="17.96" transform="translate(1219.91 2720.559)" fill="#fff"/>
            </g>
          </g>
        </g>
        <g id="Grupo_954454" data-name="Grupo 954454">
          <g id="Grupo_954453" data-name="Grupo 954453">
            <g id="Grupo_954452" data-name="Grupo 954452">
              <g id="Grupo_954451" data-name="Grupo 954451">
                <path id="Trazado_637095" data-name="Trazado 637095" d="M1256.023,2728.469c0,.159-6.566.291-14.664.295s-14.666-.122-14.666-.281,6.564-.29,14.666-.294S1256.023,2728.311,1256.023,2728.469Z" fill="#263238"/>
              </g>
            </g>
          </g>
        </g>
        <g id="Grupo_954458" data-name="Grupo 954458">
          <g id="Grupo_954457" data-name="Grupo 954457">
            <g id="Grupo_954456" data-name="Grupo 954456">
              <g id="Grupo_954455" data-name="Grupo 954455">
                <path id="Trazado_637096" data-name="Trazado 637096" d="M1256.025,2732.295c0,.159-6.566.291-14.664.3s-14.667-.122-14.667-.281,6.565-.29,14.666-.294S1256.025,2732.136,1256.025,2732.295Z" fill="#263238"/>
              </g>
            </g>
          </g>
        </g>
      </g>
    </g>
    <g id="Grupo_954469" data-name="Grupo 954469">
      <g id="Grupo_954468" data-name="Grupo 954468">
        <g id="Grupo_954465" data-name="Grupo 954465">
          <g id="Grupo_954464" data-name="Grupo 954464">
            <g id="Grupo_954461" data-name="Grupo 954461">
              <path id="Trazado_637097" data-name="Trazado 637097" d="M1283.683,2795.29a13.535,13.535,0,1,1-1.908-19.046A13.535,13.535,0,0,1,1283.683,2795.29Z" fill="#fff"/>
            </g>
            <g id="Grupo_954463" data-name="Grupo 954463">
              <g id="Grupo_954462" data-name="Grupo 954462">
                <path id="Trazado_637098" data-name="Trazado 637098" d="M1283.683,2795.29a1.212,1.212,0,0,1,.119-.186c.091-.131.214-.3.369-.527l.275-.385c.095-.146.184-.315.289-.493a9.739,9.739,0,0,0,.66-1.26,12.932,12.932,0,0,0,1.1-3.723,13.416,13.416,0,0,0-8.857-14.624,12.247,12.247,0,0,0-3.778-.732,14.922,14.922,0,0,0-1.993.038,15.081,15.081,0,0,0-2,.372,12.947,12.947,0,0,0-3.816,1.644,13.276,13.276,0,0,0-5.349,6.539,12.955,12.955,0,0,0-.855,4.067,12.226,12.226,0,0,0,.39,3.994,12.31,12.31,0,0,0,1.467,3.558,13.455,13.455,0,0,0,16.092,5.779,12.918,12.918,0,0,0,3.43-1.818,9.713,9.713,0,0,0,1.1-.9c.153-.138.3-.259.426-.38l.323-.346.442-.467a1.265,1.265,0,0,1,.159-.153,1.143,1.143,0,0,1-.135.173l-.422.488-.315.357c-.121.126-.267.251-.418.394a9.579,9.579,0,0,1-1.095.925,12.791,12.791,0,0,1-3.442,1.88,13.626,13.626,0,0,1-11.192-.8,13.675,13.675,0,0,1-5.193-4.99,12.559,12.559,0,0,1-1.508-3.629,12.489,12.489,0,0,1-.405-4.079,13.241,13.241,0,0,1,.869-4.158,13.55,13.55,0,0,1,5.468-6.684,13.224,13.224,0,0,1,3.9-1.677,15.561,15.561,0,0,1,2.042-.376,15.237,15.237,0,0,1,2.036-.035,14.263,14.263,0,0,1,1.98.231,14.11,14.11,0,0,1,1.876.527,13.67,13.67,0,0,1,5.92,4.1,13.626,13.626,0,0,1,3.01,10.809,12.812,12.812,0,0,1-1.161,3.748,9.559,9.559,0,0,1-.689,1.256c-.11.177-.2.344-.3.488l-.288.379-.4.511A1.108,1.108,0,0,1,1283.683,2795.29Z" fill="#263238"/>
              </g>
            </g>
          </g>
        </g>
        <g id="Grupo_954467" data-name="Grupo 954467">
          <g id="Grupo_954466" data-name="Grupo 954466">
            <path id="Trazado_637099" data-name="Trazado 637099" d="M1281.7,2788.645a.774.774,0,0,1-.346,1.3l-6.791,2.074-6.809,1.829a1.049,1.049,0,0,1-.967-1.191l1.82-6.811,1.82-6.811a.775.775,0,0,1,1.3-.349l4.989,4.982Z" fill="#e0e0e0"/>
          </g>
        </g>
      </g>
    </g>
    <g id="Grupo_954475" data-name="Grupo 954475">
      <g id="Grupo_954474" data-name="Grupo 954474">
        <g id="Grupo_954473" data-name="Grupo 954473">
          <g id="Grupo_954472" data-name="Grupo 954472">
            <g id="Grupo_954471" data-name="Grupo 954471">
              <g id="Grupo_954470" data-name="Grupo 954470">
                <path id="Trazado_637100" data-name="Trazado 637100" d="M1205.8,2786a7.209,7.209,0,0,0,3.273-7.228,6.776,6.776,0,1,0-13.387,1.919,7.2,7.2,0,0,0,5.248,6.03c-10.064,3.074-7.941,14.193-7.941,14.193l24.359-3.492S1216.233,2786.03,1205.8,2786Z" fill="#4aceff"/>
              </g>
            </g>
          </g>
        </g>
      </g>
    </g>
    <g id="Grupo_954490" data-name="Grupo 954490">
      <g id="Grupo_954481" data-name="Grupo 954481">
        <g id="Grupo_954480" data-name="Grupo 954480">
          <g id="Grupo_954479" data-name="Grupo 954479">
            <g id="Grupo_954476" data-name="Grupo 954476">
              <rect id="Rect치ngulo_44975" data-name="Rect치ngulo 44975" width="49.721" height="33.514" rx="2.411" transform="translate(1122.919 2747.888) rotate(-11.518)" fill="#ebebeb"/>
            </g>
            <g id="Grupo_954478" data-name="Grupo 954478">
              <g id="Grupo_954477" data-name="Grupo 954477">
                <path id="Trazado_637101" data-name="Trazado 637101" d="M1175.969,2771.281c0-.013.14-.029.4-.136a2.406,2.406,0,0,0,.966-.72,2.376,2.376,0,0,0,.5-1.847c-.16-.774-.344-1.667-.551-2.67l-3.52-17.035q-.555-2.7-1.161-5.645l-.621-3a2.3,2.3,0,0,0-2.22-1.715,12.618,12.618,0,0,0-1.582.278l-1.626.334-3.33.682-6.95,1.423-30.951,6.319a2.273,2.273,0,0,0-1.533,1.129,2.2,2.2,0,0,0-.273.931,3.413,3.413,0,0,0,.115.988q.414,2.034.823,4.04l1.607,7.9,3.034,14.932.182.888a2.224,2.224,0,0,0,.326.78,2.278,2.278,0,0,0,2.172,1c.271-.036.57-.11.852-.163l1.7-.346,6.559-1.329,11.774-2.38,17.053-3.427,4.639-.917,1.208-.231c.272-.05.414-.068.414-.068s-.137.038-.408.1l-1.2.26-4.628.972-17.034,3.52-11.766,2.416-6.556,1.343-1.7.349c-.291.055-.56.125-.872.168a2.544,2.544,0,0,1-2.432-1.118,2.5,2.5,0,0,1-.367-.873l-.183-.89c-.973-4.758-1.993-9.752-3.051-14.929q-.793-3.883-1.612-7.9-.41-2.005-.824-4.039a3.758,3.758,0,0,1-.121-1.069,2.526,2.526,0,0,1,.309-1.054,2.579,2.579,0,0,1,1.736-1.278l30.955-6.3,6.953-1.41,3.331-.675,1.627-.33.8-.163a4.176,4.176,0,0,1,.828-.117,2.54,2.54,0,0,1,2.453,1.9l.615,3.01,1.142,5.649,3.426,17.054c.2,1.008.385,1.9.526,2.681a2.431,2.431,0,0,1-.538,1.9,2.39,2.39,0,0,1-1,.711A1.591,1.591,0,0,1,1175.969,2771.281Z" fill="#263238"/>
              </g>
            </g>
          </g>
        </g>
      </g>
      <g id="Grupo_954485" data-name="Grupo 954485">
        <g id="Grupo_954482" data-name="Grupo 954482">
          <path id="Trazado_637102" data-name="Trazado 637102" d="M1123.431,2749.162l28.212,13.615,18.324-24.374" fill="#ebebeb"/>
        </g>
        <g id="Grupo_954484" data-name="Grupo 954484">
          <g id="Grupo_954483" data-name="Grupo 954483">
            <path id="Trazado_637103" data-name="Trazado 637103" d="M1169.967,2738.4a.657.657,0,0,1-.082.135l-.265.377c-.252.345-.6.825-1.043,1.433l-3.884,5.245-12.931,17.274-.073.1-.111-.053-.373-.18-19.667-9.54-5.945-2.922-1.609-.808-.416-.217a.081.081,0,1,1,.014-.027l.428.19,1.634.758,5.986,2.836,19.7,9.461.373.18-.184.045c5.08-6.73,9.668-12.806,13-17.221l3.959-5.188,1.087-1.4.289-.36A.6.6,0,0,1,1169.967,2738.4Z" fill="#263238"/>
          </g>
        </g>
      </g>
      <g id="Grupo_954487" data-name="Grupo 954487">
        <g id="Grupo_954486" data-name="Grupo 954486">
          <path id="Trazado_637104" data-name="Trazado 637104" d="M1141.26,2757.878c.074.037-2.317,5.016-5.339,11.119s-5.534,11.024-5.608,10.988,2.316-5.014,5.34-11.12S1141.186,2757.842,1141.26,2757.878Z" fill="#263238"/>
        </g>
      </g>
      <g id="Grupo_954489" data-name="Grupo 954489">
        <g id="Grupo_954488" data-name="Grupo 954488">
          <path id="Trazado_637105" data-name="Trazado 637105" d="M1157.5,2754.981c.05-.066,4.656,3.3,10.287,7.524s10.157,7.7,10.108,7.765-4.654-3.3-10.287-7.526S1157.455,2755.046,1157.5,2754.981Z" fill="#263238"/>
        </g>
      </g>
    </g>
  </g>
</svg>
