<svg xmlns="http://www.w3.org/2000/svg" width="92" height="92" viewBox="0 0 92 92">
  <g id="Grupo_951802" data-name="Grupo 951802" transform="translate(-421 -2618)">
    <rect id="Rectángulo_34429" data-name="Rectángulo 34429" width="92" height="92" transform="translate(421 2618)" fill="none"/>
    <g id="datos_1_" data-name="datos(1)" transform="translate(424 2623.667)">
      <rect id="Rectángulo_44889" data-name="Rectángulo 44889" width="46" height="16" rx="2" transform="translate(3 14)" fill="#2ff980"/>
      <path id="Trazado_636317" data-name="Trazado 636317" d="M48.32,14.493l-10.653,2.84v5.333H19a8,8,0,0,1-8-8V12H5.667A2.675,2.675,0,0,0,3,14.667V25.333A2.675,2.675,0,0,0,5.667,28h40a2.675,2.675,0,0,0,2.667-2.667V14.667a.76.76,0,0,0-.013-.173Z" transform="translate(0.333 1.667)" fill="#25c766"/>
      <rect id="Rectángulo_44890" data-name="Rectángulo 44890" width="46" height="16" rx="2" transform="translate(3 35)" fill="#fbb03b"/>
      <path id="Trazado_636318" data-name="Trazado 636318" d="M48.333,30.667V41.333a2.667,2.667,0,0,1-2.36,2.64,1.144,1.144,0,0,1-.307.027h-40A2.675,2.675,0,0,1,3,41.333V30.667A2.675,2.675,0,0,1,5.667,28h40a2.675,2.675,0,0,1,2.667,2.667Z" transform="translate(0.333 7)" fill="#2ff980"/>
      <path id="Trazado_636319" data-name="Trazado 636319" d="M45.667,28H37.773A23.939,23.939,0,0,0,41.4,38.667H19a8,8,0,0,1-8-8V28H5.667A2.675,2.675,0,0,0,3,30.667V41.333A2.675,2.675,0,0,0,5.667,44h40a2.536,2.536,0,0,0,.3-.031h0a.071.071,0,0,0,.043-.009,2.723,2.723,0,0,0,.376-.077l.133-.04a2.707,2.707,0,0,0,.321-.133c.047-.024.092-.049.133-.076a2.545,2.545,0,0,0,.267-.175,1.608,1.608,0,0,0,.133-.113,2.5,2.5,0,0,0,.221-.207c.047-.049.087-.1.133-.156.059-.073.119-.145.171-.225a1.9,1.9,0,0,0,.112-.207c.037-.073.083-.149.115-.228a2.593,2.593,0,0,0,.088-.284c.019-.065.044-.133.057-.195a2.646,2.646,0,0,0,.06-.511V30.667A2.675,2.675,0,0,0,45.667,28Z" transform="translate(0.333 7)" fill="#25c766"/>
      <rect id="Rectángulo_44891" data-name="Rectángulo 44891" width="46" height="16" rx="2" transform="translate(3 56)" fill="#2ff980"/>
      <path id="Trazado_636320" data-name="Trazado 636320" d="M48.333,54.667v2.667A2.675,2.675,0,0,1,45.667,60h-40A2.675,2.675,0,0,1,3,57.333V46.667A2.675,2.675,0,0,1,5.667,44H11v2.667a8,8,0,0,0,8,8Z" transform="translate(0.333 12.333)" fill="#25c766"/>
      <path id="Trazado_636321" data-name="Trazado 636321" d="M51,8,31,13.333V27.156a24,24,0,0,0,10.687,19.97L51,53.333l9.313-6.208A24,24,0,0,0,71,27.156V13.333Z" transform="translate(9.667 0.333)" fill="#45bbcc"/>
      <path id="Trazado_636322" data-name="Trazado 636322" d="M62.8,44.667a23.364,23.364,0,0,1-2.493,1.92L51,52.8l-9.307-6.213A23.964,23.964,0,0,1,31,26.627V12.8L43,9.6v9.027a23.964,23.964,0,0,0,10.693,19.96Z" transform="translate(9.667 0.867)" fill="#3795a3"/>
      <path id="Trazado_636323" data-name="Trazado 636323" d="M43.312,41.308A18.635,18.635,0,0,1,35,25.775V16.051L49.667,12.14l14.667,3.911v9.724a18.635,18.635,0,0,1-8.312,15.533l-6.355,4.235Z" transform="translate(11 1.713)" fill="#92d7ef"/>
      <path id="Trazado_636324" data-name="Trazado 636324" d="M56.84,40.193c-.267.213-.533.4-.813.587l-6.36,4.227-6.36-4.227A18.655,18.655,0,0,1,35,25.247V15.513l6.667-1.773v3.507A23.964,23.964,0,0,0,52.36,37.207Z" transform="translate(11 2.247)" fill="#54c4e2"/>
      <path id="Trazado_636325" data-name="Trazado 636325" d="M41,23H54.333v4a6.667,6.667,0,0,1-6.667,6.667h0A6.667,6.667,0,0,1,41,27Z" transform="translate(13 5.333)" fill="#f2e6c7"/>
      <path id="Trazado_636326" data-name="Trazado 636326" d="M49.4,33.44a6.791,6.791,0,0,1-1.733.227A6.667,6.667,0,0,1,41,27V23h.36A23.867,23.867,0,0,0,49.4,33.44Z" transform="translate(13 5.333)" fill="#e3cea8"/>
      <path id="Trazado_636327" data-name="Trazado 636327" d="M7,18.333A1.333,1.333,0,1,0,8.333,17,1.333,1.333,0,0,0,7,18.333Z" transform="translate(1.667 3.333)"/>
      <path id="Trazado_636328" data-name="Trazado 636328" d="M11,18.333A1.333,1.333,0,1,0,12.333,17,1.333,1.333,0,0,0,11,18.333Z" transform="translate(3 3.333)"/>
      <circle id="Elipse_5454" data-name="Elipse 5454" cx="1" cy="1" r="1" transform="translate(9 42)"/>
      <ellipse id="Elipse_5455" data-name="Elipse 5455" cx="1.5" cy="1" rx="1.5" ry="1" transform="translate(14 42)"/>
      <path id="Trazado_636329" data-name="Trazado 636329" d="M46,43H6a4,4,0,0,0-4,4V57.667a4,4,0,0,0,4,4H35.333a1.333,1.333,0,0,0,0-2.667H6a1.333,1.333,0,0,1-1.333-1.333V47A1.333,1.333,0,0,1,6,45.667H46A1.333,1.333,0,0,1,47.333,47V57.667A1.333,1.333,0,0,1,46,59H40.667a1.333,1.333,0,1,0,0,2.667H46a4,4,0,0,0,4-4V47A4,4,0,0,0,46,43Z" transform="translate(0 12)"/>
      <path id="Trazado_636330" data-name="Trazado 636330" d="M7,50.333A1.333,1.333,0,1,0,8.333,49,1.333,1.333,0,0,0,7,50.333Z" transform="translate(1.667 14)"/>
      <path id="Trazado_636331" data-name="Trazado 636331" d="M11,50.333A1.333,1.333,0,1,0,12.333,49,1.333,1.333,0,0,0,11,50.333Z" transform="translate(3 14)"/>
      <path id="Trazado_636332" data-name="Trazado 636332" d="M81.011,12.379l-20-5.333a1.333,1.333,0,0,0-.688,0l-20,5.333a1.333,1.333,0,0,0-.989,1.288V27.488c0,.283.017.563.027.845H6A1.333,1.333,0,0,1,4.667,27V16.333A1.333,1.333,0,0,1,6,15H35.333a1.333,1.333,0,0,0,0-2.667H6a4,4,0,0,0-4,4V27a4,4,0,0,0,4,4H39.585a25.5,25.5,0,0,0,.509,2.667H6a4,4,0,0,0-4,4V48.333a4,4,0,0,0,4,4H46a4,4,0,0,0,4-4v-.2c.205.145.4.3.615.439l9.312,6.208a1.333,1.333,0,0,0,1.48,0l9.312-6.208A25.287,25.287,0,0,0,82,27.488V13.667a1.333,1.333,0,0,0-.989-1.288ZM47.333,48.333A1.333,1.333,0,0,1,46,49.667H6a1.333,1.333,0,0,1-1.333-1.333V37.667A1.333,1.333,0,0,1,6,36.333H40.933a25.255,25.255,0,0,0,6.4,9.619Zm32-20.845A22.621,22.621,0,0,1,69.24,46.348l-8.573,5.719-8.573-5.716a22.872,22.872,0,0,1-2.471-1.912l-.044-.04a22.588,22.588,0,0,1-6.463-9.881c-.007-.016-.011-.033-.019-.051A22.7,22.7,0,0,1,42,27.488v-12.8L60.667,9.713l18.667,4.977Z" transform="translate(0 0)"/>
      <path id="Trazado_636333" data-name="Trazado 636333" d="M49.656,11.184,34.989,15.1A1.333,1.333,0,0,0,34,16.384v9.724a19.98,19.98,0,0,0,2.667,9.963c.011.024.027.043.039.065a19.949,19.949,0,0,0,6.207,6.613l6.353,4.236a1.333,1.333,0,0,0,1.48,0L57.1,42.75A19.959,19.959,0,0,0,66,26.108V16.384a1.333,1.333,0,0,0-.989-1.288L50.344,11.184A1.333,1.333,0,0,0,49.656,11.184Zm13.677,6.224v8.7a17.3,17.3,0,0,1-7.719,14.423L50,44.274l-5.615-3.743a17.3,17.3,0,0,1-7.719-14.423v-8.7L50,13.852Z" transform="translate(10.667 1.38)"/>
      <path id="Trazado_636334" data-name="Trazado 636334" d="M17.333,17a1.333,1.333,0,1,0,0,2.667h8a1.333,1.333,0,1,0,0-2.667Z" transform="translate(4.667 3.333)"/>
      <path id="Trazado_636335" data-name="Trazado 636335" d="M25.333,33h-8a1.333,1.333,0,1,0,0,2.667h8a1.333,1.333,0,1,0,0-2.667Z" transform="translate(4.667 8.667)"/>
      <path id="Trazado_636336" data-name="Trazado 636336" d="M17.333,49a1.333,1.333,0,0,0,0,2.667h8a1.333,1.333,0,0,0,0-2.667Z" transform="translate(4.667 14)"/>
      <path id="Trazado_636337" data-name="Trazado 636337" d="M42.667,21.333V24H41.333A1.333,1.333,0,0,0,40,25.333v4a8,8,0,1,0,16,0v-4A1.333,1.333,0,0,0,54.667,24H53.333V21.333a5.333,5.333,0,1,0-10.667,0Zm10.667,8a5.333,5.333,0,1,1-10.667,0V26.667H53.333Zm-2.667-8V24H45.333V21.333a2.667,2.667,0,0,1,5.333,0Z" transform="translate(12.667 3)"/>
    </g>
  </g>
</svg>
