<svg id="vpn" xmlns="http://www.w3.org/2000/svg" width="98.575" height="98.574" viewBox="0 0 98.575 98.574">
  <g id="Grupo_956972" data-name="Grupo 956972" transform="translate(1.444 1.444)">
    <g id="Grupo_956971" data-name="Grupo 956971">
      <circle id="Elipse_5658" data-name="Elipse 5658" cx="47.843" cy="47.843" r="47.843" fill="#b1e4f9"/>
      <path id="Trazado_656706" data-name="Trazado 656706" d="M65.588,102.087a47.843,47.843,0,1,1,0-93.488,47.856,47.856,0,0,0,0,93.488Z" transform="translate(-7.5 -7.5)" fill="#90d8f9"/>
    </g>
    <path id="Trazado_656707" data-name="Trazado 656707" d="M138.992,209.226q-27.991,1.1-55.982,0a6.162,6.162,0,0,1-5.84-5.118,52.573,52.573,0,0,1,0-17.607,6.162,6.162,0,0,1,5.84-5.118q27.991-1.1,55.982,0a6.162,6.162,0,0,1,5.84,5.118,52.571,52.571,0,0,1,0,17.607A6.162,6.162,0,0,1,138.992,209.226Z" transform="translate(-63.158 -147.461)" fill="#f4dd45"/>
  </g>
  <g id="Grupo_956973" data-name="Grupo 956973" transform="translate(0 0)">
    <path id="Trazado_656708" data-name="Trazado 656708" d="M91.646,24.077a1.444,1.444,0,1,0-2.48,1.48,46.3,46.3,0,0,1,6.5,22.287H85.28a54.405,54.405,0,0,0-.737-7.6,7.615,7.615,0,0,0-3.992-5.459,63.011,63.011,0,0,0-3.914-12.538,49.634,49.634,0,0,0,6.244-4.953,46.287,46.287,0,0,1,3.136,3.641A1.444,1.444,0,0,0,88.3,19.167,49.748,49.748,0,0,0,71.37,5.212,49.3,49.3,0,0,0,0,49.287,49.287,49.287,0,0,0,84.139,84.139a49.3,49.3,0,0,0,7.507-60.062ZM81.695,57.851a4.736,4.736,0,0,1-4.472,3.915c-15.388.6-30.984.709-46.353.309a1.444,1.444,0,0,0-.075,2.887q8.491.221,17.05.234V68.08a48.952,48.952,0,0,0-23.431,6.7,59.757,59.757,0,0,1-3.25-10.13l.076,0q1.893.075,3.784.139a1.444,1.444,0,1,0,.1-2.886q-1.884-.063-3.766-.138a4.737,4.737,0,0,1-4.473-3.915,51.386,51.386,0,0,1,0-17.128,4.736,4.736,0,0,1,4.472-3.915c18.536-.729,37.333-.729,55.869,0a4.737,4.737,0,0,1,4.473,3.915,51.4,51.4,0,0,1,0,17.128ZM47.843,95.631c-5.927-.44-11.553-3.586-16.353-9.168a42.97,42.97,0,0,1-5.871-9.046A46.078,46.078,0,0,1,47.843,70.97ZM50.731,70.97a46.079,46.079,0,0,1,22.224,6.447,42.97,42.97,0,0,1-5.871,9.046c-4.8,5.583-10.426,8.728-16.353,9.168Zm0-2.89V65.2c8.882-.018,17.778-.2,26.605-.546l.076,0a59.769,59.769,0,0,1-3.249,10.13,48.953,48.953,0,0,0-23.432-6.7Zm0-65.136c5.927.44,11.553,3.586,16.353,9.168a42.97,42.97,0,0,1,5.871,9.046,46.078,46.078,0,0,1-22.224,6.447ZM47.843,27.605a46.079,46.079,0,0,1-22.224-6.447,42.97,42.97,0,0,1,5.871-9.046c4.8-5.583,10.426-8.728,16.353-9.168Zm0,2.89v2.883c-8.89.018-17.777.2-26.605.545l-.076,0A59.769,59.769,0,0,1,24.412,23.8a48.953,48.953,0,0,0,23.432,6.7Zm29.569,3.433-.076,0c-8.828-.347-17.715-.527-26.6-.545V30.495a48.952,48.952,0,0,0,23.431-6.7A59.775,59.775,0,0,1,77.412,33.927ZM70.074,7.793a46.7,46.7,0,0,1,10.749,7.469A46.739,46.739,0,0,1,75.4,19.594a45.646,45.646,0,0,0-6.125-9.365A34.632,34.632,0,0,0,64.114,5.3a46.4,46.4,0,0,1,5.96,2.489ZM29.3,10.229a45.646,45.646,0,0,0-6.125,9.365,46.762,46.762,0,0,1-5.427-4.336A46.118,46.118,0,0,1,34.476,5.293,34.643,34.643,0,0,0,29.3,10.229ZM15.688,17.287a49.644,49.644,0,0,0,6.249,4.958,63,63,0,0,0-3.914,12.538,7.615,7.615,0,0,0-3.992,5.46,54.432,54.432,0,0,0-.737,7.6H2.912A46.051,46.051,0,0,1,15.688,17.287ZM2.912,50.731H13.3a54.408,54.408,0,0,0,.737,7.6,7.615,7.615,0,0,0,3.992,5.459,63,63,0,0,0,3.914,12.538,49.644,49.644,0,0,0-6.249,4.958A46.05,46.05,0,0,1,2.912,50.731ZM17.749,83.316a46.766,46.766,0,0,1,5.427-4.336A45.646,45.646,0,0,0,29.3,88.345a34.624,34.624,0,0,0,5.175,4.937,46.121,46.121,0,0,1-16.727-9.966Zm51.525,5.029A45.646,45.646,0,0,0,75.4,78.98a46.78,46.78,0,0,1,5.427,4.336A46.116,46.116,0,0,1,64.1,93.282a34.643,34.643,0,0,0,5.175-4.937Zm13.612-7.058a49.644,49.644,0,0,0-6.249-4.958,63,63,0,0,0,3.914-12.538,7.615,7.615,0,0,0,3.992-5.46,54.43,54.43,0,0,0,.737-7.6H95.662A46.051,46.051,0,0,1,82.886,81.287Z" transform="translate(0 0)"/>
    <path id="Trazado_656709" data-name="Trazado 656709" d="M313.771,207.624h-.014a1.444,1.444,0,0,0-1.43,1.458l.109,11.3-8.36-12.105a1.444,1.444,0,0,0-2.632.821v15.71a1.444,1.444,0,0,0,2.888,0V213.729l7.991,11.571a1.661,1.661,0,0,0,1.87.7,1.74,1.74,0,0,0,1.168-1.74l-.147-15.209A1.444,1.444,0,0,0,313.771,207.624Z" transform="translate(-243.407 -167.65)"/>
    <path id="Trazado_656710" data-name="Trazado 656710" d="M151.359,207.725a1.444,1.444,0,0,0-1.825.915l-4.128,12.426-4.329-12.473a1.444,1.444,0,1,0-2.728.947l5.385,15.514a1.8,1.8,0,0,0,1.7,1.2h.012a1.8,1.8,0,0,0,1.694-1.23l5.139-15.47a1.444,1.444,0,0,0-.915-1.826Z" transform="translate(-111.648 -167.649)"/>
    <path id="Trazado_656711" data-name="Trazado 656711" d="M233.642,207.624h-4.383a1.444,1.444,0,0,0-1.444,1.449v15.735a1.444,1.444,0,1,0,2.888,0v-5.4c.995-.005,2.267-.012,2.939-.012a5.886,5.886,0,1,0,0-11.771Zm0,8.883c-.668,0-1.923.006-2.916.011-.005-1.022-.015-4.943-.018-6.007h2.934a3,3,0,1,1,0,6Z" transform="translate(-183.954 -167.65)"/>
  </g>
</svg>
