<svg xmlns="http://www.w3.org/2000/svg" xmlns:xlink="http://www.w3.org/1999/xlink" width="126" height="112" viewBox="0 0 126 112">
  <defs>
    <clipPath id="clip-path">
      <path id="path519" d="M0-682.665H103v103H0Z" transform="translate(0 682.665)"/>
    </clipPath>
  </defs>
  <g id="Grupo_957675" data-name="Grupo 957675" transform="translate(-265 -6305)">
    <rect id="Rectángulo_45468" data-name="Rectángulo 45468" width="126" height="112" transform="translate(265 6305)" fill="none"/>
    <g id="g513" transform="translate(276.5 6992.165)">
      <g id="g515" transform="translate(0 -682.665)">
        <g id="g517" transform="translate(0 0)" clip-path="url(#clip-path)">
          <g id="g523" transform="translate(19.979 1.926)">
            <path id="path525" d="M-354.364-279.73a11.269,11.269,0,0,1-2.159,5.506,35.659,35.659,0,0,1-15.613,12.211h-27.347A36,36,0,0,1-415.1-274.2a11.242,11.242,0,0,1-2.159-5.518c-.2-1.845.008-3.224,1.052-7.238a89.784,89.784,0,0,1,4.492-13.412c0-.2,5.776-15.538,21.033-27.331a7.726,7.726,0,0,1,9.753,0c14.816,11.453,22.57,26.362,26.39,44.445a11.023,11.023,0,0,1,.179,3.527" transform="translate(417.331 329.436)" fill="#ff7c48"/>
          </g>
          <g id="g527" transform="translate(18.941 68.105)">
            <path id="path529" d="M-366.47-152.762a5.918,5.918,0,0,1-1.74,4.2,5.917,5.917,0,0,1-4.2,1.74h-53.237a5.94,5.94,0,0,1-5.941-5.941,27.058,27.058,0,0,1,7.95-19.194,27.058,27.058,0,0,1,19.194-7.95h10.83a27.144,27.144,0,0,1,27.144,27.144" transform="translate(431.588 179.906)" fill="#f76937"/>
          </g>
          <g id="g531" transform="translate(62.608 38.1)">
            <path id="path533" d="M-86.159-43.08a7.655,7.655,0,0,1-7.655,7.655,7.655,7.655,0,0,1-7.655-7.655,7.655,7.655,0,0,1,7.655-7.655,7.655,7.655,0,0,1,7.655,7.655" transform="translate(101.469 50.735)" fill="#fff2de"/>
          </g>
          <g id="g535" transform="translate(30.794 20.538)">
            <path id="path537" d="M-36.976,0H-9.508a6.57,6.57,0,0,1,6.57,6.57V27.652c0,10.991-15.275,19.9-20.3,19.9h0c-5.03,0-20.3-8.911-20.3-19.9V6.57A6.57,6.57,0,0,1-36.976,0" transform="translate(43.547)" fill="#fff2de"/>
          </g>
          <g id="g539" transform="translate(30.794 20.538)">
            <path id="path541" d="M-134.081-263.068a10.782,10.782,0,0,1-3.521.811c-2.515,0-7.59-2.229-12.038-5.83s-8.266-8.578-8.266-14.072v-21.083a6.57,6.57,0,0,1,6.57-6.57h7.041a6.57,6.57,0,0,0-6.57,6.57v21.083c0,5.494,3.818,10.471,8.266,14.072a32.293,32.293,0,0,0,8.518,5.019" transform="translate(157.906 309.813)" fill="#ffe4c2"/>
          </g>
          <g id="g543" transform="translate(26.137 62.297)">
            <path id="path545" d="M-285.482-218.883H-336.21V-254.5a3.274,3.274,0,0,1,3.274-3.274h44.18a3.274,3.274,0,0,1,3.274,3.274Z" transform="translate(336.21 257.777)" fill="#766d78"/>
          </g>
          <g id="g547" transform="translate(46.069 75.44)">
            <path id="path549" d="M-30.568-103.026h0A5.432,5.432,0,0,1-36-108.458V-115.9a5.432,5.432,0,0,1,5.432-5.432,5.432,5.432,0,0,1,5.432,5.432v7.443a5.432,5.432,0,0,1-5.432,5.432" transform="translate(36 121.333)" fill="#ff956a"/>
          </g>
          <g id="g551" transform="translate(26.137 62.297)">
            <path id="path553" d="M-58.057,0a3.274,3.274,0,0,0-3.275,3.273v35.62h-7.041V3.273A3.274,3.274,0,0,1-65.1,0Z" transform="translate(68.373)" fill="#655e67"/>
          </g>
          <g id="g555" transform="translate(24.278 38.098)">
            <path id="path557" d="M-55.079-1.687V13.025a7.667,7.667,0,0,1-2.13.3,7.657,7.657,0,0,1-7.657-7.657A7.656,7.656,0,0,1-57.21-1.987a7.667,7.667,0,0,1,2.13.3" transform="translate(64.867 1.987)" fill="#ffe4c2"/>
          </g>
          <g id="g559" transform="translate(19.979 1.926)">
            <path id="path561" d="M-354.364-279.73c-4.977-6.657-17.18-7.315-31.446-7.315s-26.48.658-31.453,7.325c-.2-1.845.008-3.224,1.052-7.238a89.784,89.784,0,0,1,4.492-13.412c0-.2,5.776-15.538,21.033-27.331a7.726,7.726,0,0,1,9.753,0c14.816,11.453,22.57,26.362,26.39,44.445a11.023,11.023,0,0,1,.179,3.527" transform="translate(417.331 329.436)" fill="#ffad8c"/>
          </g>
          <g id="g563" transform="translate(19.979 1.926)">
            <path id="path565" d="M-199.415-6.1c-17.619,14.2-24.326,32.017-24.326,32.254a104.088,104.088,0,0,0-4.18,11.638,14.524,14.524,0,0,0-6.86,4.74c-.2-1.845.008-3.223,1.052-7.238a89.55,89.55,0,0,1,4.492-13.412c0-.2,5.776-15.539,21.033-27.331a7.681,7.681,0,0,1,8.789-.65" transform="translate(234.849 7.182)" fill="#ff956a"/>
          </g>
          <g id="g567" transform="translate(17.834 51.199)">
            <path id="path569" d="M-.36,3.245A1.5,1.5,0,0,1-1.366,2.86,39.26,39.26,0,0,1-9.845-7.819a1.508,1.508,0,0,1,.683-2.019,1.51,1.51,0,0,1,2.021.681A36.92,36.92,0,0,0,.647.612,1.509,1.509,0,0,1,.765,2.743,1.505,1.505,0,0,1-.36,3.245Z" transform="translate(10.002 9.996)"/>
          </g>
          <g id="g571" transform="translate(74.016 51.199)">
            <path id="path573" d="M-8.491-64.515a1.505,1.505,0,0,1-1.124-.5A1.509,1.509,0,0,1-9.5-67.148a36.92,36.92,0,0,0,7.788-9.77A1.51,1.51,0,0,1,.312-77.6a1.508,1.508,0,0,1,.683,2.019A39.26,39.26,0,0,1-7.485-64.9,1.5,1.5,0,0,1-8.491-64.515Z" transform="translate(10 77.756)"/>
          </g>
          <g id="g575" transform="translate(17.432 75.331)">
            <path id="path577" d="M-333.218,17.368h-53.239a7.458,7.458,0,0,1-7.449-7.449,28.558,28.558,0,0,1,7.6-19.429,1.509,1.509,0,0,1,2.132-.085,1.509,1.509,0,0,1,.085,2.132,25.548,25.548,0,0,0-6.8,17.382,4.437,4.437,0,0,0,4.432,4.432h53.239a4.4,4.4,0,0,0,3.133-1.3,4.4,4.4,0,0,0,1.3-3.135,25.553,25.553,0,0,0-6.8-17.386A1.509,1.509,0,0,1-335.5-9.6a1.509,1.509,0,0,1,2.132.085,28.563,28.563,0,0,1,7.6,19.433,7.393,7.393,0,0,1-2.183,5.268A7.392,7.392,0,0,1-333.218,17.368Z" transform="translate(393.906 10)"/>
          </g>
          <g id="g579" transform="translate(23.078 44.27)">
            <path id="path581" d="M-42.295.646h0a9.222,9.222,0,0,1-8.775-6.575,1.509,1.509,0,0,1,.752-1.765,26.589,26.589,0,0,1,6.576-2.273,1.509,1.509,0,0,1,1.8,1.148,1.509,1.509,0,0,1-1.148,1.8,26.144,26.144,0,0,0-4.6,1.421,6.2,6.2,0,0,0,5.4,3.228A1.509,1.509,0,0,1-40.786-.859,1.509,1.509,0,0,1-42.295.646Z" transform="translate(51.134 10.002)"/>
          </g>
          <g id="g583" transform="translate(68.769 46.058)">
            <path id="path585" d="M-8.491-39.862A1.509,1.509,0,0,1-10-41.368,1.509,1.509,0,0,1-8.494-42.88a6.131,6.131,0,0,0,5.962-4.69A1.509,1.509,0,0,1-.709-48.679,1.509,1.509,0,0,1,.4-46.856a9.141,9.141,0,0,1-8.889,6.994Z" transform="translate(10 48.722)"/>
          </g>
          <g id="g587" transform="translate(61.585 44.103)">
            <path id="path589" d="M-63.557,9.7a1.506,1.506,0,0,1-1.175-.561,1.509,1.509,0,0,1,.226-2.122,23.052,23.052,0,0,0,6.745-8.308,11.742,11.742,0,0,0,1-4.625V-8.491A1.509,1.509,0,0,1-55.25-10a1.509,1.509,0,0,1,1.509,1.509v2.579A14.738,14.738,0,0,1-54.987-.1,26.039,26.039,0,0,1-62.61,9.368,1.5,1.5,0,0,1-63.557,9.7Z" transform="translate(65.067 10)"/>
          </g>
          <g id="g591" transform="translate(29.285 44.27)">
            <path id="path593" d="M-1.165,9.173A25.977,25.977,0,0,1-8.754-.268,14.737,14.737,0,0,1-10-6.079V-8.491A1.509,1.509,0,0,1-8.491-10,1.509,1.509,0,0,1-6.982-8.491v2.412a11.742,11.742,0,0,0,1,4.625,22.984,22.984,0,0,0,6.7,8.275L-.183,8.027Z" transform="translate(10 10)"/>
          </g>
          <g id="g595" transform="translate(46.571 49.113)">
            <path id="path597" d="M-55.633-1.879A6.631,6.631,0,0,1-58.7-2.632a1.509,1.509,0,0,1-.636-2.037A1.509,1.509,0,0,1-57.3-5.3a3.552,3.552,0,0,0,1.666.408,3.6,3.6,0,0,0,3.595-3.595A1.509,1.509,0,0,1-50.53-10a1.509,1.509,0,0,1,1.509,1.509A6.62,6.62,0,0,1-55.633-1.879Z" transform="translate(59.509 10)"/>
          </g>
          <g id="g599" transform="translate(17.834 0.424)">
            <path id="path601" d="M-43.252-260.984a1.506,1.506,0,0,1-.514-.091,1.509,1.509,0,0,1-.972-1.675c3.552-20.6,11.528-36.028,24.384-47.16a1.509,1.509,0,0,1,2.128.153,1.509,1.509,0,0,1-.153,2.128c-11.225,9.72-18.576,22.928-22.383,40.265a16.851,16.851,0,0,1,2.06-1.258,1.509,1.509,0,0,1,2.034.644,1.509,1.509,0,0,1-.644,2.034,10.935,10.935,0,0,0-4.634,4.207A1.509,1.509,0,0,1-43.252-260.984Zm64.316,0a1.509,1.509,0,0,1-1.306-.754,11.309,11.309,0,0,0-5.285-4.528,26.086,26.086,0,0,0-5.958-1.843,62.661,62.661,0,0,0-8.5-1.01c-3.812-.228-7.939-.257-11.109-.257-3.422,0-7.867.035-11.892.306a57.928,57.928,0,0,0-8.488,1.12,1.509,1.509,0,0,1-1.8-1.147,1.509,1.509,0,0,1,1.147-1.8,60.853,60.853,0,0,1,8.936-1.185c4.094-.276,8.413-.313,12.1-.313,3.211,0,7.4.03,11.289.262A65.592,65.592,0,0,1,9.1-271.067,29.014,29.014,0,0,1,15.746-269a16.749,16.749,0,0,1,3.761,2.364,1.5,1.5,0,0,1,.7-.346,1.509,1.509,0,0,1,1.775,1.184q.3,1.495.567,3.049a1.509,1.509,0,0,1-.973,1.675A1.507,1.507,0,0,1,21.063-260.984Zm-1.54-7.43a1.509,1.509,0,0,1-1.465-1.152c-5.723-23.477-17.124-34.519-25.2-40.783a6.225,6.225,0,0,0-7.811-.071,1.509,1.509,0,0,1-2.112-.3,1.509,1.509,0,0,1,.3-2.112,9.251,9.251,0,0,1,11.471.1c8.436,6.541,20.338,18.058,26.284,42.453a1.509,1.509,0,0,1-1.109,1.823A1.514,1.514,0,0,1,19.524-268.414Z" transform="translate(44.761 314.776)"/>
          </g>
          <g id="g603" transform="translate(24.628 60.788)">
            <path id="path605" d="M-293.974-225.866H-344.7a1.509,1.509,0,0,1-1.509-1.509v-35.62a4.788,4.788,0,0,1,4.783-4.783H-310.7a1.509,1.509,0,0,1,1.509,1.509,1.509,1.509,0,0,1-1.509,1.509h-30.723a1.767,1.767,0,0,0-1.765,1.765v34.111h47.71v-34.111a1.767,1.767,0,0,0-1.765-1.765h-8.93a1.509,1.509,0,0,1-1.509-1.509,1.509,1.509,0,0,1,1.509-1.509h8.93a4.788,4.788,0,0,1,4.783,4.783v35.62A1.509,1.509,0,0,1-293.974-225.866Z" transform="translate(346.21 267.777)"/>
          </g>
          <g id="g607" transform="translate(44.56 73.931)">
            <path id="path609" d="M-39.059-110.009a6.948,6.948,0,0,1-6.94-6.94v-7.443a6.948,6.948,0,0,1,6.94-6.94,6.948,6.948,0,0,1,6.94,6.94v7.443A6.948,6.948,0,0,1-39.059-110.009Zm0-18.307a3.927,3.927,0,0,0-3.923,3.923v7.443a3.927,3.927,0,0,0,3.923,3.923,3.927,3.927,0,0,0,3.923-3.923v-7.443A3.927,3.927,0,0,0-39.059-128.315Z" transform="translate(46 131.333)"/>
          </g>
          <g id="g611" transform="translate(35.491 77.843)">
            <path id="path613" d="M-59.319-26.1a1.5,1.5,0,0,1-.787-.222l-4.622-2.832-2.656,2.212a1.509,1.509,0,0,1-2.125-.194,1.509,1.509,0,0,1,.194-2.125l3.487-2.9a1.509,1.509,0,0,1,1.754-.127l5.544,3.4a1.509,1.509,0,0,1,.5,2.075A1.508,1.508,0,0,1-59.319-26.1Z" transform="translate(69.857 32.513)"/>
          </g>
          <g id="g615" transform="translate(35.021 84.997)">
            <path id="path617" d="M-62.388-25.339a1.5,1.5,0,0,1-.711-.179L-68.292-28.3-71-26.046a1.509,1.509,0,0,1-2.125-.194,1.509,1.509,0,0,1,.194-2.125l3.487-2.9a1.509,1.509,0,0,1,1.678-.171l6.09,3.262a1.509,1.509,0,0,1,.618,2.042A1.509,1.509,0,0,1-62.388-25.339Z" transform="translate(73.472 31.619)"/>
          </g>
          <g id="g619" transform="translate(55.461 77.843)">
            <path id="path621" d="M-8.491-26.1a1.508,1.508,0,0,1-1.288-.721,1.509,1.509,0,0,1,.5-2.075l5.544-3.4a1.509,1.509,0,0,1,1.754.127L1.5-29.26A1.509,1.509,0,0,1,1.7-27.135a1.509,1.509,0,0,1-2.125.194l-2.656-2.212L-7.7-26.321A1.5,1.5,0,0,1-8.491-26.1Z" transform="translate(10.001 32.513)"/>
          </g>
          <g id="g623" transform="translate(55.385 84.997)">
            <path id="path625" d="M-8.492-25.339a1.508,1.508,0,0,1-1.331-.8,1.509,1.509,0,0,1,.618-2.042l6.09-3.262a1.509,1.509,0,0,1,1.678.171l3.487,2.9a1.509,1.509,0,0,1,.194,2.125,1.509,1.509,0,0,1-2.125.194L-2.587-28.3-7.78-25.518A1.5,1.5,0,0,1-8.492-25.339Z" transform="translate(10.002 31.619)"/>
          </g>
          <g id="g627" transform="translate(40.123 68.232)">
            <path id="path629" d="M-50.685-39.832a1.508,1.508,0,0,1-1.329-.792l-2.658-4.92L-57.545-44.2a1.509,1.509,0,0,1-2.006-.728,1.509,1.509,0,0,1,.728-2.006l3.225-1.507a2.608,2.608,0,0,1,3.4,1.122l2.843,5.262a1.509,1.509,0,0,1-.61,2.045A1.5,1.5,0,0,1-50.685-39.832Z" transform="translate(59.693 48.687)"/>
          </g>
          <g id="g631" transform="translate(52.362 68.232)">
            <path id="path633" d="M-8.494-39.832a1.5,1.5,0,0,1-.716-.182,1.509,1.509,0,0,1-.61-2.045l2.843-5.262a2.608,2.608,0,0,1,3.4-1.122l3.225,1.506A1.509,1.509,0,0,1,.372-44.93a1.509,1.509,0,0,1-2.006.728l-2.873-1.342-2.658,4.92A1.509,1.509,0,0,1-8.494-39.832Z" transform="translate(10.002 48.687)"/>
          </g>
        </g>
      </g>
    </g>
  </g>
</svg>
