<svg xmlns="http://www.w3.org/2000/svg" xmlns:xlink="http://www.w3.org/1999/xlink" width="239" height="168" viewBox="0 0 239 168">
  <defs>
    <linearGradient id="linear-gradient" x1="1724.069" y1="-15.701" x2="1721.232" y2="-9.313" gradientUnits="objectBoundingBox">
      <stop offset="0" stop-color="#09005d"/>
      <stop offset="1" stop-color="#1a0f91"/>
    </linearGradient>
    <linearGradient id="linear-gradient-2" x1="0.202" y1="1.102" x2="0.744" y2="0.055" xlink:href="#linear-gradient"/>
    <linearGradient id="linear-gradient-3" x1="4265.052" y1="-20.221" x2="4258.033" y2="-12.656" xlink:href="#linear-gradient"/>
    <linearGradient id="linear-gradient-4" x1="0.167" y1="1.086" x2="0.529" y2="0.055" xlink:href="#linear-gradient"/>
    <linearGradient id="linear-gradient-5" x1="28.573" y1="4.396" x2="29.91" y2="3.063" gradientUnits="objectBoundingBox">
      <stop offset="0" stop-color="#4042e2"/>
      <stop offset="1" stop-color="#4f52ff"/>
    </linearGradient>
    <linearGradient id="linear-gradient-6" x1="72.921" y1="11.323" x2="76.284" y2="7.929" xlink:href="#linear-gradient-5"/>
    <linearGradient id="linear-gradient-7" x1="674.708" y1="666.589" x2="674.912" y2="667.772" xlink:href="#linear-gradient"/>
    <linearGradient id="linear-gradient-8" x1="964.515" y1="-0.062" x2="965.029" y2="2.428" xlink:href="#linear-gradient"/>
    <linearGradient id="linear-gradient-9" x1="0" y1="0.5" x2="1" y2="0.5" xlink:href="#linear-gradient-5"/>
  </defs>
  <g id="Grupo_949234" data-name="Grupo 949234" transform="translate(-929 -9450)">
    <rect id="Rectángulo_42006" data-name="Rectángulo 42006" width="239" height="168" transform="translate(929 9450)" fill="none"/>
    <g id="Grupo_949235" data-name="Grupo 949235" transform="translate(547.075 6835.208)">
      <rect id="Rectángulo_34429" data-name="Rectángulo 34429" width="162.234" height="162.234" transform="translate(420.308 2617.675)" fill="none"/>
      <g id="Grupo_948906" data-name="Grupo 948906" transform="translate(413.244 2617.675)">
        <g id="Grupo_948911" data-name="Grupo 948911" transform="translate(0.459 0)">
          <g id="Grupo_948906-2" data-name="Grupo 948906" opacity="0.64">
            <path id="Trazado_634483" data-name="Trazado 634483" d="M895.379,726.325a.488.488,0,0,1-.4-.422c-.031-.262-.057-.523-.082-.787a.486.486,0,0,1,.969-.086c.022.253.049.506.078.758a.486.486,0,0,1-.424.541A.52.52,0,0,1,895.379,726.325Z" transform="translate(-894.787 -695.126)" fill="#91b3fa"/>
            <path id="Trazado_634484" data-name="Trazado 634484" d="M895.21,728.346a.486.486,0,0,1-.4-.483c0-.536.023-1.079.059-1.614a.485.485,0,1,1,.968.065c-.034.515-.052,1.039-.056,1.557a.484.484,0,0,1-.489.482A.544.544,0,0,1,895.21,728.346Zm.35-4.146a.485.485,0,0,1-.4-.556l.029-.174c.078-.468.171-.943.275-1.411a.482.482,0,0,1,.58-.369.487.487,0,0,1,.369.58c-.1.452-.191.911-.267,1.362l-.028.167a.485.485,0,0,1-.556.4Zm.977-4.042a.692.692,0,0,1-.07-.017.486.486,0,0,1-.313-.611c.165-.511.347-1.023.542-1.521a.485.485,0,1,1,.9.352c-.187.481-.362.975-.522,1.467A.485.485,0,0,1,896.536,720.157Zm1.579-3.848a.484.484,0,0,1-.352-.7c.24-.478.5-.955.768-1.42a.485.485,0,1,1,.84.487c-.259.449-.509.91-.741,1.37A.485.485,0,0,1,898.115,716.309Zm2.154-3.558a.459.459,0,0,1-.2-.084.484.484,0,0,1-.112-.677c.313-.435.643-.868.981-1.285a.486.486,0,1,1,.754.611c-.325.4-.644.819-.945,1.24A.484.484,0,0,1,900.269,712.751Zm2.679-3.184a.475.475,0,0,1-.259-.133.484.484,0,0,1-.006-.686c.377-.383.769-.759,1.165-1.119a.486.486,0,1,1,.652.72c-.383.346-.761.709-1.124,1.08A.486.486,0,0,1,902.948,709.567Zm3.135-2.735a.486.486,0,0,1-.209-.868c.43-.32.875-.632,1.323-.927a.486.486,0,1,1,.533.812c-.432.284-.861.585-1.275.894A.488.488,0,0,1,906.084,706.832Zm3.517-2.224a.485.485,0,0,1-.147-.907c.473-.251.961-.492,1.447-.714a.486.486,0,1,1,.4.883c-.47.215-.939.448-1.4.69A.48.48,0,0,1,909.6,704.608Zm3.814-1.66a.486.486,0,0,1-.079-.938c.506-.175,1.023-.339,1.538-.484a.486.486,0,0,1,.265.935c-.5.141-1,.3-1.484.467A.492.492,0,0,1,913.414,702.947Zm25.194,4.013a.487.487,0,0,1-.213-.093c-.412-.312-.839-.616-1.268-.9a.486.486,0,0,1,.54-.807c.446.3.888.615,1.315.939a.486.486,0,0,1-.374.866Zm-21.173-5.07a.486.486,0,0,1-.006-.957c.527-.1,1.063-.177,1.593-.241a.485.485,0,1,1,.117.964c-.511.062-1.028.141-1.537.234A.511.511,0,0,1,917.434,701.891Zm17.675,2.816a.478.478,0,0,1-.149-.051c-.456-.246-.924-.48-1.393-.7a.485.485,0,0,1,.41-.88c.487.226.972.469,1.444.724a.486.486,0,0,1-.312.906Zm-13.541-3.24a.486.486,0,0,1,.07-.965c.537-.013,1.08-.011,1.614.007a.486.486,0,0,1-.033.971c-.516-.017-1.039-.021-1.558-.007A.466.466,0,0,1,921.568,701.466Zm9.738,1.555a.461.461,0,0,1-.082-.022c-.488-.172-.987-.333-1.483-.476a.486.486,0,0,1,.27-.933c.515.148,1.032.314,1.537.493a.486.486,0,0,1-.242.938Zm-5.584-1.336a.486.486,0,0,1,.144-.961c.528.07,1.064.155,1.593.255a.485.485,0,1,1-.181.954c-.512-.1-1.028-.18-1.538-.246Z" transform="translate(-894.806 -700.493)" fill="#91b3fa"/>
            <path id="Trazado_634485" data-name="Trazado 634485" d="M932.89,707.857a.482.482,0,0,1-.258-.132c-.182-.177-.366-.352-.553-.526a.485.485,0,1,1,.659-.713q.292.268.573.545a.486.486,0,0,1-.422.825Z" transform="translate(-886.538 -699.187)" fill="#91b3fa"/>
          </g>
          <g id="Grupo_948907" data-name="Grupo 948907" transform="translate(7.267 26.137)" opacity="0.64">
            <path id="Trazado_634486" data-name="Trazado 634486" d="M939.449,723.61a.487.487,0,0,1-.4-.477q0-.382-.013-.763a.486.486,0,0,1,.971-.032q.013.394.015.791a.485.485,0,0,1-.484.487A.374.374,0,0,1,939.449,723.61Z" transform="translate(-892.222 -721.869)" fill="#91b3fa"/>
            <path id="Trazado_634487" data-name="Trazado 634487" d="M915.523,749.718h-.008c-.462-.087-.928-.187-1.385-.3l-.167-.04a.486.486,0,1,1,.234-.943l.161.039c.441.106.891.2,1.336.286a.486.486,0,0,1-.17.956Zm2.51.352a.486.486,0,0,1,.126-.964c.507.048,1.022.079,1.53.1a.486.486,0,0,1-.033.971c-.527-.018-1.06-.053-1.586-.1Zm-6.467-1.406a.483.483,0,0,1-.079-.02c-.5-.175-1-.364-1.484-.566a.486.486,0,1,1,.372-.9c.468.194.951.378,1.433.547a.485.485,0,0,1-.241.937Zm10.56,1.472a.486.486,0,0,1,.052-.964c.508-.031,1.021-.077,1.526-.137a.486.486,0,0,1,.115.965c-.523.062-1.057.11-1.582.142A.561.561,0,0,1,922.126,750.136Zm-14.314-3.108a.517.517,0,0,1-.147-.049c-.466-.248-.93-.511-1.382-.785a.486.486,0,1,1,.5-.83c.435.263.883.518,1.333.757a.485.485,0,0,1-.308.907Zm18.369,2.551a.486.486,0,0,1-.022-.954c.5-.106,1-.23,1.487-.366a.485.485,0,1,1,.259.935c-.507.142-1.026.269-1.541.38A.465.465,0,0,1,926.182,749.579Zm-21.831-4.738a.48.48,0,0,1-.208-.089c-.424-.315-.844-.647-1.247-.986a.486.486,0,1,1,.625-.743c.389.326.793.646,1.2.95a.485.485,0,0,1-.372.868Zm25.754,3.574a.486.486,0,0,1-.093-.933c.477-.181.953-.379,1.416-.586a.485.485,0,1,1,.4.885c-.481.215-.973.421-1.467.609A.476.476,0,0,1,930.1,748.415Zm3.7-1.742a.485.485,0,0,1-.159-.9c.443-.251.884-.517,1.312-.794a.486.486,0,0,1,.526.817c-.443.286-.9.562-1.36.822A.476.476,0,0,1,933.808,746.672Zm3.4-2.279a.485.485,0,0,1-.219-.861c.4-.313.8-.643,1.178-.981a.486.486,0,0,1,.643.728c-.4.35-.807.692-1.222,1.017A.483.483,0,0,1,937.209,744.393Zm3.019-2.765a.474.474,0,0,1-.251-.125.485.485,0,0,1-.022-.686c.348-.37.691-.757,1.017-1.148a.485.485,0,1,1,.745.622c-.339.4-.693.806-1.054,1.191A.485.485,0,0,1,940.227,741.628Zm2.568-3.19a.47.47,0,0,1-.193-.078.485.485,0,0,1-.126-.675c.287-.419.567-.854.831-1.29a.485.485,0,1,1,.831.5c-.274.452-.564.9-.862,1.338A.485.485,0,0,1,942.8,738.438Zm2.053-3.543a.473.473,0,0,1-.13-.042.485.485,0,0,1-.227-.648c.221-.458.432-.929.625-1.4a.486.486,0,0,1,.9.369c-.2.488-.419.976-.648,1.451A.485.485,0,0,1,944.848,734.895Zm1.492-3.811a.566.566,0,0,1-.062-.015.484.484,0,0,1-.322-.606c.149-.487.286-.984.407-1.478a.485.485,0,1,1,.943.231c-.125.512-.268,1.027-.422,1.531A.486.486,0,0,1,946.34,731.083Zm.9-3.993a.484.484,0,0,1-.4-.55c.075-.5.136-1.015.182-1.522a.486.486,0,0,1,.967.088c-.048.526-.111,1.057-.19,1.577a.486.486,0,0,1-.551.41Z" transform="translate(-900.309 -721.266)" fill="#91b3fa"/>
            <path id="Trazado_634488" data-name="Trazado 634488" d="M901.691,739.22a.487.487,0,0,1-.265-.138c-.185-.188-.367-.378-.547-.571a.486.486,0,0,1,.712-.661q.259.279.527.55a.486.486,0,0,1-.427.82Z" transform="translate(-900.749 -718.344)" fill="#91b3fa"/>
          </g>
          <g id="Grupo_948910" data-name="Grupo 948910" transform="translate(6.886 6.625)">
            <path id="Trazado_634489" data-name="Trazado 634489" d="M904.225,738.956a.325.325,0,0,0,.342.158l3.882-.726a17.2,17.2,0,0,0,4.4,3.422l.252,3.94a.324.324,0,0,0,.237.292l4.569,1.256a.325.325,0,0,0,.353-.13l2.23-3.257a17.217,17.217,0,0,0,5.531-.695l2.965,2.609a.327.327,0,0,0,.375.038l4.118-2.343a.326.326,0,0,0,.159-.341l-.728-3.884a17.2,17.2,0,0,0,3.422-4.4l3.94-.252a.323.323,0,0,0,.292-.237l1.256-4.569a.325.325,0,0,0-.13-.353l-3.257-2.229a17.222,17.222,0,0,0-.695-5.532l2.609-2.965a.324.324,0,0,0,.038-.375l-2.343-4.118a.324.324,0,0,0-.341-.158l-3.882.726a17.231,17.231,0,0,0-4.4-3.422l-.252-3.94a.324.324,0,0,0-.237-.292l-4.568-1.256a.326.326,0,0,0-.355.13l-2.229,3.257a17.222,17.222,0,0,0-5.532.695l-2.965-2.609a.327.327,0,0,0-.375-.038l-4.118,2.343a.324.324,0,0,0-.158.341l.726,3.883a17.21,17.21,0,0,0-3.422,4.4l-3.94.252a.324.324,0,0,0-.292.237l-1.255,4.569a.324.324,0,0,0,.128.353l3.257,2.229a17.222,17.222,0,0,0,.695,5.532l-2.608,2.965a.325.325,0,0,0-.039.375Z" transform="translate(-900.437 -705.912)" fill="#91b3fa"/>
            <g id="Grupo_948908" data-name="Grupo 948908" transform="translate(16.102 16.103)">
              <path id="Trazado_634490" data-name="Trazado 634490" d="M917.427,728.208a4.6,4.6,0,1,1,.679.064A4.615,4.615,0,0,1,917.427,728.208Zm1.414-8.3a4,4,0,0,0-.559-.053,3.817,3.817,0,1,0,.559.053Z" transform="translate(-913.606 -719.081)" fill="#bdd0fb"/>
            </g>
            <g id="Grupo_948909" data-name="Grupo 948909" transform="translate(9.153 9.01)">
              <path id="Trazado_634491" data-name="Trazado 634491" d="M917.624,736.379c-.385-.066-.769-.15-1.154-.256a11.821,11.821,0,0,1-1.664-.6l-.013-.006-.07-.032-.011,0h0l-.009,0-.034-.016,0,0-.013-.006h0l-.1-.048-.036-.017-.219-.108-.125-.065a.2.2,0,0,1-.1-.2.2.2,0,0,1,.019-.057.193.193,0,0,1,.262-.082,11.389,11.389,0,0,0,2.228.873,11.237,11.237,0,0,0,13.815-7.859,11.429,11.429,0,0,0,.247-1.116,11.238,11.238,0,1,0-21.913,1.147.2.2,0,0,1,0,.084.194.194,0,0,1-.378.021,11.581,11.581,0,0,1-.262-5.04,11.626,11.626,0,0,1,14.546-9.284,11.643,11.643,0,0,1,8.386,13.136,11.487,11.487,0,0,1-.256,1.156A11.644,11.644,0,0,1,917.624,736.379Z" transform="translate(-907.923 -713.28)" fill="#bdd0fb"/>
            </g>
          </g>
        </g>
        <g id="Grupo_948917" data-name="Grupo 948917" transform="translate(51.174 0.866)">
          <g id="Grupo_948912" data-name="Grupo 948912" opacity="0.64">
            <path id="Trazado_634492" data-name="Trazado 634492" d="M936.625,716.689a.292.292,0,0,1-.24-.253c-.02-.156-.035-.314-.05-.472a.292.292,0,0,1,.581-.051q.02.227.048.455a.291.291,0,0,1-.255.323A.32.32,0,0,1,936.625,716.689Z" transform="translate(-936.27 -697.984)" fill="#91b3fa"/>
            <path id="Trazado_634493" data-name="Trazado 634493" d="M936.525,717.9a.293.293,0,0,1-.243-.29c0-.322.015-.647.035-.967a.291.291,0,1,1,.581.038c-.019.309-.032.623-.033.933a.292.292,0,0,1-.294.29A.286.286,0,0,1,936.525,717.9Zm.209-2.486a.293.293,0,0,1-.24-.334l.018-.1c.046-.281.1-.565.165-.846a.288.288,0,0,1,.347-.221.292.292,0,0,1,.221.347c-.061.271-.114.547-.16.817l-.016.1a.292.292,0,0,1-.335.241Zm.586-2.425a.156.156,0,0,1-.042-.01.292.292,0,0,1-.188-.367c.1-.306.209-.613.325-.911a.291.291,0,1,1,.543.212c-.112.287-.218.583-.313.879A.29.29,0,0,1,937.32,712.99Zm.946-2.306a.29.29,0,0,1-.212-.418c.144-.286.3-.572.461-.851a.291.291,0,0,1,.5.292c-.157.269-.306.545-.445.82A.29.29,0,0,1,938.267,710.683Zm1.291-2.132a.287.287,0,0,1-.121-.051.291.291,0,0,1-.067-.406c.187-.262.385-.521.588-.77a.291.291,0,1,1,.452.367c-.2.241-.386.49-.567.743A.292.292,0,0,1,939.558,708.551Zm1.607-1.91a.284.284,0,0,1-.155-.079.29.29,0,0,1,0-.412c.225-.229.46-.455.7-.67a.291.291,0,0,1,.391.432c-.23.208-.457.426-.675.647A.286.286,0,0,1,941.164,706.641Zm1.879-1.64a.291.291,0,0,1-.125-.521c.257-.192.525-.379.792-.555a.291.291,0,1,1,.32.487c-.259.17-.516.351-.765.536A.285.285,0,0,1,943.044,705Zm2.108-1.333a.291.291,0,0,1-.088-.544c.284-.15.576-.295.868-.428a.291.291,0,0,1,.242.529c-.281.128-.564.268-.838.412A.29.29,0,0,1,945.152,703.669Zm2.286-1a.29.29,0,0,1-.048-.561c.3-.105.614-.2.923-.291a.292.292,0,0,1,.158.561c-.3.084-.6.178-.89.28A.286.286,0,0,1,947.438,702.672Zm15.1,2.406a.293.293,0,0,1-.127-.055c-.247-.188-.5-.371-.759-.543a.291.291,0,0,1,.324-.484c.267.18.532.369.788.563a.292.292,0,0,1-.225.52Zm-12.693-3.04a.291.291,0,0,1,0-.573c.317-.057.638-.106.956-.144a.291.291,0,0,1,.07.578c-.307.037-.616.083-.921.139A.282.282,0,0,1,949.848,702.039Zm10.6,1.689a.281.281,0,0,1-.089-.031c-.273-.147-.554-.289-.834-.418a.291.291,0,1,1,.245-.528c.292.136.583.281.866.434a.291.291,0,0,1-.187.543Zm-8.118-1.943a.291.291,0,0,1,.042-.578c.322-.007.648-.006.968,0a.291.291,0,1,1-.021.582c-.308-.011-.622-.012-.933,0A.215.215,0,0,1,952.327,701.784Zm5.839.933a.215.215,0,0,1-.049-.013c-.292-.1-.592-.2-.89-.285a.292.292,0,0,1,.163-.56c.308.089.619.19.922.3a.292.292,0,0,1-.146.562Zm-3.348-.8a.291.291,0,0,1,.086-.575c.318.04.638.092.956.153a.291.291,0,0,1-.109.572c-.307-.059-.616-.109-.922-.148Z" transform="translate(-936.282 -701.201)" fill="#91b3fa"/>
            <path id="Trazado_634494" data-name="Trazado 634494" d="M959.115,705.616a.284.284,0,0,1-.154-.078c-.109-.106-.22-.211-.331-.315a.291.291,0,0,1,.395-.428c.116.108.231.216.344.328a.291.291,0,0,1-.253.494Z" transform="translate(-931.325 -700.418)" fill="#91b3fa"/>
          </g>
          <g id="Grupo_948913" data-name="Grupo 948913" transform="translate(4.357 15.67)" opacity="0.64">
            <path id="Trazado_634495" data-name="Trazado 634495" d="M963.048,715.06a.291.291,0,0,1-.243-.286c0-.151,0-.3-.008-.456a.291.291,0,0,1,.582-.02c.006.158.009.315.01.474a.293.293,0,0,1-.291.292A.219.219,0,0,1,963.048,715.06Z" transform="translate(-934.733 -714.017)" fill="#91b3fa"/>
            <path id="Trazado_634496" data-name="Trazado 634496" d="M948.7,730.713H948.7c-.276-.051-.556-.111-.83-.177l-.1-.024a.292.292,0,0,1-.213-.353.3.3,0,0,1,.353-.213l.1.024c.264.064.534.121.8.171a.291.291,0,0,1-.1.573Zm1.505.21a.289.289,0,0,1-.241-.313.292.292,0,0,1,.317-.264c.3.028.611.048.916.059a.291.291,0,1,1-.02.582c-.315-.011-.636-.031-.95-.06Zm-3.877-.843a.224.224,0,0,1-.048-.012c-.3-.1-.6-.218-.89-.339a.291.291,0,0,1,.223-.538c.281.116.57.226.86.328a.291.291,0,0,1-.144.561Zm6.33.883a.292.292,0,0,1,.032-.578c.3-.018.612-.045.915-.082a.291.291,0,1,1,.068.578c-.313.038-.632.066-.948.086A.3.3,0,0,1,952.661,730.964ZM944.08,729.1a.309.309,0,0,1-.088-.029c-.279-.148-.558-.307-.828-.471a.291.291,0,0,1,.3-.5c.261.158.53.311.8.454a.291.291,0,0,1-.185.544Zm11.013,1.53a.292.292,0,0,1-.013-.572c.3-.064.6-.138.891-.219a.291.291,0,0,1,.155.561c-.3.084-.615.16-.923.227A.3.3,0,0,1,955.093,730.63ZM942,727.789a.29.29,0,0,1-.125-.054c-.254-.189-.5-.388-.748-.591a.292.292,0,0,1,.375-.446c.234.2.476.388.72.57a.291.291,0,0,1-.222.521Zm15.44,2.142a.291.291,0,0,1-.055-.559c.285-.109.571-.227.849-.352a.291.291,0,0,1,.238.531c-.289.13-.584.252-.879.366A.3.3,0,0,1,957.445,729.932Zm2.221-1.044a.3.3,0,0,1-.206-.144.291.291,0,0,1,.11-.4c.265-.15.531-.311.786-.476a.291.291,0,0,1,.315.489c-.265.171-.539.337-.814.493A.29.29,0,0,1,959.665,728.888Zm2.038-1.367a.291.291,0,0,1-.131-.516c.24-.188.477-.386.707-.588a.291.291,0,0,1,.385.437c-.237.209-.484.415-.732.61A.291.291,0,0,1,961.7,727.52Zm1.811-1.657a.3.3,0,0,1-.152-.075.293.293,0,0,1-.012-.412c.209-.223.413-.454.609-.688a.291.291,0,0,1,.448.373c-.2.243-.416.483-.632.714A.291.291,0,0,1,963.514,725.864Zm1.539-1.912a.3.3,0,0,1-.116-.048.291.291,0,0,1-.076-.4c.172-.252.34-.512.5-.774a.291.291,0,1,1,.5.3c-.164.27-.337.54-.516.8A.292.292,0,0,1,965.054,723.951Zm1.23-2.125a.3.3,0,0,1-.077-.024.291.291,0,0,1-.137-.389c.133-.275.259-.558.375-.839a.291.291,0,1,1,.538.221c-.121.292-.251.584-.389.869A.291.291,0,0,1,966.284,721.826Zm.894-2.285-.037-.009a.292.292,0,0,1-.193-.363c.089-.292.171-.591.245-.886a.291.291,0,1,1,.565.138c-.075.307-.16.616-.252.918A.291.291,0,0,1,967.178,719.541Zm.542-2.394a.291.291,0,0,1-.24-.33c.045-.3.082-.608.11-.912a.291.291,0,1,1,.58.053c-.028.315-.066.633-.113.946a.292.292,0,0,1-.331.245Z" transform="translate(-939.581 -713.656)" fill="#91b3fa"/>
            <path id="Trazado_634497" data-name="Trazado 634497" d="M940.41,724.419a.29.29,0,0,1-.159-.082c-.111-.114-.22-.227-.328-.342a.292.292,0,1,1,.427-.4q.156.167.315.33a.291.291,0,0,1-.256.492Z" transform="translate(-939.845 -711.904)" fill="#91b3fa"/>
          </g>
          <g id="Grupo_948916" data-name="Grupo 948916" transform="translate(4.128 3.973)">
            <path id="Trazado_634498" data-name="Trazado 634498" d="M941.93,724.26a.193.193,0,0,0,.2.1l2.328-.435a10.349,10.349,0,0,0,2.637,2.052l.152,2.361a.2.2,0,0,0,.142.176l2.739.752a.2.2,0,0,0,.213-.077l1.336-1.953a10.333,10.333,0,0,0,3.316-.417l1.778,1.565a.2.2,0,0,0,.225.022l2.469-1.4a.2.2,0,0,0,.1-.205l-.436-2.327a10.312,10.312,0,0,0,2.053-2.639l2.361-.15a.2.2,0,0,0,.175-.143l.753-2.739a.194.194,0,0,0-.078-.212l-1.953-1.338a10.289,10.289,0,0,0-.416-3.315l1.564-1.779a.194.194,0,0,0,.023-.224l-1.4-2.47a.192.192,0,0,0-.2-.094l-2.328.435a10.347,10.347,0,0,0-2.637-2.052l-.152-2.362a.194.194,0,0,0-.142-.175L954,704.457a.2.2,0,0,0-.213.077l-1.336,1.953a10.3,10.3,0,0,0-3.316.417l-1.778-1.565a.2.2,0,0,0-.225-.022l-2.469,1.4a.2.2,0,0,0-.1.205l.436,2.327a10.311,10.311,0,0,0-2.053,2.639l-2.361.15a.193.193,0,0,0-.175.143l-.753,2.739a.194.194,0,0,0,.078.212l1.953,1.336a10.3,10.3,0,0,0,.416,3.316l-1.564,1.778a.2.2,0,0,0-.023.225Z" transform="translate(-939.658 -704.45)" fill="#91b3fa"/>
            <g id="Grupo_948914" data-name="Grupo 948914" transform="translate(9.654 9.654)">
              <path id="Trazado_634499" data-name="Trazado 634499" d="M949.844,717.817a2.755,2.755,0,1,1,3.219-2.658,2.758,2.758,0,0,1-2.812,2.7A2.8,2.8,0,0,1,949.844,717.817Zm.847-4.974a2.305,2.305,0,0,0-.335-.031,2.289,2.289,0,1,0,2.241,2.337A2.294,2.294,0,0,0,950.692,712.843Z" transform="translate(-947.554 -712.346)" fill="#bdd0fb"/>
            </g>
            <g id="Grupo_948915" data-name="Grupo 948915" transform="translate(5.488 5.401)">
              <path id="Trazado_634500" data-name="Trazado 634500" d="M949.963,722.716a7.154,7.154,0,0,1-1.69-.51l-.007,0-.043-.02-.006,0h0l0,0-.021-.01h0l-.008,0h0l-.061-.028-.022-.011c-.044-.021-.087-.043-.131-.065l-.075-.038a.114.114,0,0,1-.049-.157.116.116,0,0,1,.157-.05,6.77,6.77,0,0,0,1.336.524,6.738,6.738,0,0,0,8.282-4.711c.061-.224.11-.448.148-.67a6.737,6.737,0,0,0-13.141-2.9,6.638,6.638,0,0,0-.148.668,6.718,6.718,0,0,0,.152,2.921.117.117,0,0,1-.225.062,6.954,6.954,0,0,1-.156-3.023c.039-.231.09-.462.153-.691a6.97,6.97,0,0,1,13.6,3q-.059.347-.153.693A6.982,6.982,0,0,1,949.963,722.716Z" transform="translate(-944.146 -708.867)" fill="#bdd0fb"/>
            </g>
          </g>
        </g>
        <g id="Grupo_948919" data-name="Grupo 948919" transform="translate(0 30.753)">
          <path id="Trazado_634501" data-name="Trazado 634501" d="M1061.993,823.808a2.889,2.889,0,0,1-2.876,2.886H903.582a2.89,2.89,0,0,1-2.877-2.886l-1.294-89.758a5.017,5.017,0,0,1,5.274-4.453l152.008-3.949a7.263,7.263,0,0,1,7.437,7.444Z" transform="translate(-893.321 -725.644)" fill="#342287"/>
          <path id="Trazado_634502" data-name="Trazado 634502" d="M1058.429,820.416a2.736,2.736,0,0,1-2.722,2.733h-149.1a2.735,2.735,0,0,1-2.721-2.733l-1.221-81.484a6.707,6.707,0,0,1,7.02-6.561l145.685-3.925a5.073,5.073,0,0,1,3.729,1.49,5.125,5.125,0,0,1,1.5,3.744Z" transform="translate(-892.597 -725.021)" fill="#bee7ed"/>
          <g id="Grupo_948918" data-name="Grupo 948918" transform="translate(12.089 7.862)" opacity="0.58">
            <path id="Trazado_634503" data-name="Trazado 634503" d="M905.036,773.1a.2.2,0,0,1-.2-.186l-.1-6.609a.206.206,0,0,1,.41,0l.1,6.609a.2.2,0,0,1-.2.191Z" transform="translate(-904.224 -724.491)" fill="#fff"/>
            <path id="Trazado_634504" data-name="Trazado 634504" d="M904.893,764.492a.2.2,0,0,1-.205-.187L904.317,739a5.272,5.272,0,0,1,1.689-4.133,7.43,7.43,0,0,1,4.7-1.536l46.523-1.253a.193.193,0,0,1,.21.183.2.2,0,0,1-.2.194L910.7,733.705a6.975,6.975,0,0,0-4.414,1.431,4.921,4.921,0,0,0-1.56,3.858L905.1,764.3a.2.2,0,0,1-.2.192Z" transform="translate(-904.317 -732.074)" fill="#fff"/>
          </g>
          <rect id="Rectángulo_34904" data-name="Rectángulo 34904" width="176.363" height="7.887" rx="2.579" transform="translate(0 100.614)" fill="#342287"/>
        </g>
        <g id="Grupo_948920" data-name="Grupo 948920" transform="translate(25.35 83.838)">
          <path id="Trazado_634505" data-name="Trazado 634505" d="M915.163,774.741v50.964a7.731,7.731,0,0,0,7.532,7.729c18.614.479,83.719,1.643,101.439,1.383a5.69,5.69,0,0,0,5.6-5.527c.341-11.84.9-40.31-1.158-53.528a5.853,5.853,0,0,0-5.6-4.956c-15.6-.5-84.613-2.082-102.325-1.685A5.619,5.619,0,0,0,915.163,774.741Z" transform="translate(-915.163 -769.058)" fill="#342287"/>
          <path id="Trazado_634506" data-name="Trazado 634506" d="M917.778,774.133v48.42a4.479,4.479,0,0,0,4.413,4.479l98.812,1.22a4.359,4.359,0,0,0,4.425-4.342l.165-47.988a3.188,3.188,0,0,0-3.111-3.2l-101.165-2.044A3.455,3.455,0,0,0,917.778,774.133Z" transform="translate(-914.581 -768.698)" fill="#bee7ed"/>
        </g>
        <g id="Grupo_948921" data-name="Grupo 948921" transform="translate(116.58 97.852)">
          <path id="Trazado_634507" data-name="Trazado 634507" d="M989.849,783.772c-.06,9.831-.227,43.74.276,55.748a2.257,2.257,0,0,0,2.029,2.306c5.384.126,25.115.352,33.911-.213a3.817,3.817,0,0,0,3.268-4.023c.028-10.318,0-39.337-1.163-52.614a3.115,3.115,0,0,0-2.587-2.982c-5.87-.6-25.7-1.976-33.3-1.285A2.935,2.935,0,0,0,989.849,783.772Z" transform="translate(-989.773 -780.519)" fill="#462eb4"/>
          <path id="Trazado_634508" data-name="Trazado 634508" d="M991.913,786.108c-.171,7.937-.688,34.34-.252,44.094a2.6,2.6,0,0,0,2.261,2.63c5.019.268,22.139.768,29.483-.032a2.922,2.922,0,0,0,2.392-2.965c.251-8.1.953-32.687.529-42.332a2.887,2.887,0,0,0-2.418-2.9c-5.434-.489-23.632-1.571-29.877-1.078A2.5,2.5,0,0,0,991.913,786.108Z" transform="translate(-989.391 -779.877)" fill="#bee7ed"/>
          <path id="Trazado_634509" data-name="Trazado 634509" d="M1000.694,782.056h0a.535.535,0,0,0,.467.559c1.272.059,4.856.225,6.457.31a.542.542,0,0,0,.493-.681l-.011-.062a.521.521,0,0,0-.439-.45,52.648,52.648,0,0,0-6.511-.249A.533.533,0,0,0,1000.694,782.056Z" transform="translate(-987.341 -780.312)" fill="#fff" opacity="0.5"/>
        </g>
        <g id="Grupo_948924" data-name="Grupo 948924" transform="translate(62.06 29.694)">
          <g id="Grupo_948923" data-name="Grupo 948923">
            <path id="Trazado_634510" data-name="Trazado 634510" d="M1032.453,749.267a8.3,8.3,0,0,0-4.726-6.956L992.5,725.581a8.311,8.311,0,0,0-7.13,0l-35.225,16.73a8.3,8.3,0,0,0-4.727,6.956c-3.3,51.073,29.444,69.682,40.18,74.383a8.322,8.322,0,0,0,6.676,0C1003.01,818.949,1035.758,800.34,1032.453,749.267Z" transform="translate(-945.185 -724.778)" fill="#462eb4"/>
            <path id="Trazado_634511" data-name="Trazado 634511" d="M972.349,732.14a.532.532,0,0,1-.229-1.012l8.323-3.953a.532.532,0,0,1,.456.961l-8.323,3.952A.524.524,0,0,1,972.349,732.14Z" transform="translate(-939.253 -724.256)" fill="#91b3fa"/>
            <path id="Trazado_634512" data-name="Trazado 634512" d="M947.686,758.708a.531.531,0,0,1-.531-.514c-.113-3.322-.054-6.786.174-10.3a5.961,5.961,0,0,1,3.4-4.991l23.7-11.254a.531.531,0,1,1,.456.96l-23.7,11.254a4.9,4.9,0,0,0-2.79,4.1c-.225,3.476-.282,6.9-.173,10.193a.531.531,0,0,1-.514.549Z" transform="translate(-944.759 -723.258)" fill="#91b3fa"/>
            <path id="Trazado_634513" data-name="Trazado 634513" d="M1022.365,749.644a2.072,2.072,0,0,0-1.181-1.768l-32.929-15.64a2.077,2.077,0,0,0-1.778,0l-32.929,15.64a2.072,2.072,0,0,0-1.181,1.768c-.974,19.052,3.426,34.949,13.088,47.269a58.428,58.428,0,0,0,21.034,16.776,2.082,2.082,0,0,0,1.753,0,58.424,58.424,0,0,0,21.032-16.776C1018.938,784.592,1023.338,768.7,1022.365,749.644Z" transform="translate(-943.615 -723.161)" fill="#332862"/>
            <g id="Grupo_948922" data-name="Grupo 948922" transform="translate(27.837 22.885)">
              <path id="Trazado_634514" data-name="Trazado 634514" d="M973.6,767.56h-3.282V754.482a10.181,10.181,0,0,1,8.946-10.1l6.709-.816a10.172,10.172,0,0,1,11.4,10.1v11.418h-3.282V753.666a6.89,6.89,0,0,0-7.722-6.839l-6.71.816a6.9,6.9,0,0,0-6.059,6.839Z" transform="translate(-967.424 -743.494)" fill="#45bbcc"/>
              <path id="Trazado_634515" data-name="Trazado 634515" d="M969.877,761.066l28.769-1.593a2.037,2.037,0,0,1,2.151,2.035V784.3a2.039,2.039,0,0,1-2.038,2.038H970.68a2.039,2.039,0,0,1-2.037-1.972l-.691-21.2A2.038,2.038,0,0,1,969.877,761.066Z" transform="translate(-967.951 -739.936)" fill="#45bbcc"/>
              <path id="Trazado_634516" data-name="Trazado 634516" d="M986.944,778.8l-1.741-5.006a1.676,1.676,0,0,1,.38-1.728,4.74,4.74,0,1,0-6.358.353,1.691,1.691,0,0,1,.549,1.867L978.2,778.8a1.689,1.689,0,0,0,1.6,2.245h5.549A1.69,1.69,0,0,0,986.944,778.8Z" transform="translate(-965.831 -738.927)" fill="#332862"/>
            </g>
          </g>
        </g>
        <g id="Grupo_948930" data-name="Grupo 948930" transform="translate(32.459 75.275)">
          <path id="Trazado_634517" data-name="Trazado 634517" d="M935.877,829.072s-.319,1.713-.484,3.409a1.169,1.169,0,0,0,1.107,1.278c2.26.116,7.094.345,8.831.285a.381.381,0,0,0,.34-.518.852.852,0,0,0-.432-.463l-7.953-3.748Z" transform="translate(-917.766 -747.127)" fill="url(#linear-gradient)"/>
          <path id="Trazado_634518" data-name="Trazado 634518" d="M935.593,828.3l.224,2.054a2.542,2.542,0,0,0,2.355-.06L937.614,828Z" transform="translate(-917.721 -747.365)" fill="#fff"/>
          <path id="Trazado_634519" data-name="Trazado 634519" d="M937.2,796.715c-.11.536-.819,26.729,1.87,38.5a.4.4,0,0,1-.238.461,6.955,6.955,0,0,1-2.285.441.687.687,0,0,1-.676-.5c-.774-2.732-4.48-16.417-4.855-29.458-.421-14.573,0-.5,0-.5l.414-9Z" transform="translate(-918.781 -754.347)" fill="url(#linear-gradient-2)"/>
          <path id="Trazado_634520" data-name="Trazado 634520" d="M928.446,829.733a12.347,12.347,0,0,0-.979,3.157.715.715,0,0,0,.62.861c.746.081,1.894.186,2.815.188a.713.713,0,0,0,.713-.787,6.007,6.007,0,0,0-1.369-3.305Z" transform="translate(-919.534 -746.98)" fill="url(#linear-gradient-3)"/>
          <path id="Trazado_634521" data-name="Trazado 634521" d="M927.94,827.59l.538,3.108a2.009,2.009,0,0,0,1.674.131l-.24-3.341Z" transform="translate(-919.425 -747.48)" fill="#fff"/>
          <path id="Trazado_634522" data-name="Trazado 634522" d="M927.156,797.52c-2.422,13.8.171,34.169,1.072,38.16a.621.621,0,0,0,.5.476,4.176,4.176,0,0,0,1.791-.054.569.569,0,0,0,.414-.521c.157-3.217.119-22.979,2.327-30.768a1.778,1.778,0,0,1,.693-.972l4.171-2.905.363-4.756Z" transform="translate(-919.824 -754.454)" fill="url(#linear-gradient-4)"/>
          <g id="Grupo_948925" data-name="Grupo 948925" transform="translate(6.575 6.568)">
            <path id="Trazado_634523" data-name="Trazado 634523" d="M941.954,776.162a64.515,64.515,0,0,0-14.454,1.665c-2.161,11.918-.6,25.7-.6,25.7,5.3,1.445,11.317-.743,11.317-.743.93-4.982,5.186-18.986,5.186-18.986a22.625,22.625,0,0,0,8.417-2.582,14.724,14.724,0,0,1-2.852-6.113A23.026,23.026,0,0,1,941.954,776.162Z" transform="translate(-926.354 -765.716)" fill="url(#linear-gradient-5)"/>
            <path id="Trazado_634524" data-name="Trazado 634524" d="M958.206,767.957a1.314,1.314,0,0,0-1.523-.444c-1.05,4.258-6.38,7.667-11.838,9.305a14.724,14.724,0,0,0,2.852,6.113C956.774,777.939,958.206,767.957,958.206,767.957Z" transform="translate(-922.234 -767.427)" fill="#fff"/>
          </g>
          <g id="Grupo_948926" data-name="Grupo 948926" transform="translate(41.038)">
            <path id="Trazado_634525" data-name="Trazado 634525" d="M955.88,769.359c.069.225-.751.559-1.224-.363-.012-.44-.262-2.326,0-2.681a35.065,35.065,0,0,1,4.153-4.259.646.646,0,0,1,.072.9l-1.329,1.359a6.335,6.335,0,0,1,.754,1.526,1.845,1.845,0,0,1-.2,1.355c-.235.414-.555.953-.857,1.373A1.821,1.821,0,0,1,955.88,769.359Z" transform="translate(-954.539 -762.055)" fill="#fff"/>
            <path id="Trazado_634526" data-name="Trazado 634526" d="M956.82,764.623l-1.208,1.005-.386,1.007,1.058,1.2a13.783,13.783,0,0,1,.651-2.437C957.2,764.963,957.068,764.751,956.82,764.623Z" transform="translate(-954.386 -761.483)" fill="#fff"/>
          </g>
          <path id="Trazado_634527" data-name="Trazado 634527" d="M931.237,784l-2.569-6.671s-6.454,4.294-7.56,9.808a15.156,15.156,0,0,1,5.559,1.547C927.166,786.083,931.237,784,931.237,784Z" transform="translate(-920.947 -758.652)" fill="url(#linear-gradient-6)"/>
          <path id="Trazado_634528" data-name="Trazado 634528" d="M936.809,788.524s-7.237,4-9.633.5a2.729,2.729,0,0,1-.481-2.126,15.155,15.155,0,0,0-5.559-1.547,7.626,7.626,0,0,0,.779,5.233c4.179,7.823,15.829-.279,15.829-.279Z" transform="translate(-920.977 -756.865)" fill="#fff"/>
          <path id="Trazado_634529" data-name="Trazado 634529" d="M933.88,771.359l-2.244,6.295a.229.229,0,0,0,.1.275,5.132,5.132,0,0,0,5.328-.307,1.073,1.073,0,0,0,.5-.761l.759-5.461Z" transform="translate(-918.605 -759.983)" fill="#fff"/>
          <g id="Grupo_948927" data-name="Grupo 948927" transform="translate(11.154 2.289)">
            <path id="Trazado_634530" data-name="Trazado 634530" d="M938.424,766.613s2.356,4.536,2.031,6.357-3.3,1.662-5.878.156l-1.767-4.892Z" transform="translate(-929.494 -763.329)" fill="#fff"/>
            <path id="Trazado_634531" data-name="Trazado 634531" d="M935.319,771.332a.185.185,0,0,0,.083-.271,4.909,4.909,0,0,1-.653-1.423s-.429-.28,1.1-.632,3.817-.9,4.309-2.194c.478-1.264-.718-4.466-2.7-1.942a.186.186,0,0,1-.295,0,1.918,1.918,0,0,0-2.329-.781,1.76,1.76,0,0,0-1.22,1.689.185.185,0,0,1-.221.187,2.146,2.146,0,0,0-2.516,1.145,1.726,1.726,0,0,0,.1,2.073.185.185,0,0,1-.082.307,1.118,1.118,0,0,0-.8,1.267c.054,1.18,1.373,1.089,1.75,1.039a.187.187,0,0,1,.165.06,6.332,6.332,0,0,0,3.323,2.084.188.188,0,0,0,.2-.246l-.66-1.982a.187.187,0,0,1,.1-.231Z" transform="translate(-930.098 -763.927)" fill="url(#linear-gradient-7)"/>
            <path id="Trazado_634532" data-name="Trazado 634532" d="M934.924,770.322s-1.7-1.187-1.831-.2,1.524,1.443,2.351,1.083Z" transform="translate(-929.433 -762.634)" fill="#fff"/>
          </g>
          <g id="Grupo_948929" data-name="Grupo 948929" transform="translate(14.338 23.067)">
            <g id="Grupo_948928" data-name="Grupo 948928">
              <path id="Trazado_634533" data-name="Trazado 634533" d="M932.718,795.832l3.943-13.767a.4.4,0,0,1,.339-.29c.714-.083,2.784-.317,5.174-.52a58.8,58.8,0,0,1,8.219-.273.4.4,0,0,1,.329.58c-1.136,2.3-5.808,11.647-8.148,14.708a.4.4,0,0,1-.324.16l-9.147-.086A.4.4,0,0,1,932.718,795.832Z" transform="translate(-932.702 -780.92)" fill="url(#linear-gradient-8)"/>
              <path id="Trazado_634534" data-name="Trazado 634534" d="M933.563,791.25a10.025,10.025,0,0,1-.328-3.059c.222-.8.652-1.832,2.082-1.6a21.075,21.075,0,0,1,3.118.832.82.82,0,0,1-1.173.708l.674.521s-.1.836-1.015.389l.627.692a.73.73,0,0,1-1.07.247C935.8,789.536,935.481,791.522,933.563,791.25Z" transform="translate(-932.595 -779.665)" fill="#fff"/>
            </g>
            <path id="Trazado_634535" data-name="Trazado 634535" d="M940.233,784.767a1.157,1.157,0,1,0,1.158-1.158A1.158,1.158,0,0,0,940.233,784.767Z" transform="translate(-931.025 -780.321)" fill="#91b3fa"/>
            <path id="Trazado_634536" data-name="Trazado 634536" d="M936.358,785.967l.8-2.722a.931.931,0,0,1,.7-.655,80.469,80.469,0,0,1,9.47-.637l0-.308a78.9,78.9,0,0,0-9.529.644,1.241,1.241,0,0,0-.934.868l-.8,2.723Z" transform="translate(-931.954 -780.759)" fill="url(#linear-gradient-9)"/>
          </g>
        </g>
      </g>
    </g>
  </g>
</svg>
