<svg xmlns="http://www.w3.org/2000/svg" width="221.278" height="221.278" viewBox="0 0 221.278 221.278">
  <g id="huella-digital-del-pulgar" transform="translate(-1 -1)">
    <path id="Trazado_658525" data-name="Trazado 658525" d="M222.278,163.236V10.63A7.653,7.653,0,0,0,214.648,3H8.63A7.653,7.653,0,0,0,1,10.63V163.236l3.815,3.815H218.463Z" transform="translate(0 5.63)" fill="#462eb4"/>
    <path id="Trazado_658526" data-name="Trazado 658526" d="M102.933,69.076A20.129,20.129,0,0,1,83.857,53.815V50H38.076v3.815A20.129,20.129,0,0,1,19,69.076l41.967,3.815Z" transform="translate(50.672 137.942)" fill="#9ebbce"/>
    <path id="Trazado_658527" data-name="Trazado 658527" d="M222.278,45V60.261a7.653,7.653,0,0,1-7.63,7.63H8.63A7.653,7.653,0,0,1,1,60.261V45Z" transform="translate(0 123.866)" fill="#bfdbf0"/>
    <rect id="Rectángulo_45553" data-name="Rectángulo 45553" width="191" height="130" rx="1" transform="translate(16 24)" fill="#342287"/>
    <path id="Trazado_658528" data-name="Trazado 658528" d="M27.445,55h83.933a11.445,11.445,0,0,1,11.445,11.445,3.815,3.815,0,0,1-3.815,3.815H19.815A3.815,3.815,0,0,1,16,66.445,11.445,11.445,0,0,1,27.445,55Z" transform="translate(42.227 152.017)" fill="#bfdbf0"/>
    <circle id="Elipse_5718" data-name="Elipse 5718" cx="76.5" cy="76.5" r="76.5" transform="translate(35 1)" fill="#583ae2"/>
    <g id="Grupo_958927" data-name="Grupo 958927" transform="translate(65.857 12.445)">
      <path id="Trazado_658529" data-name="Trazado 658529" d="M105.748,53.6a3.815,3.815,0,0,1-3.815-3.815,38.151,38.151,0,1,0-76.3,0,3.815,3.815,0,1,1-7.63,0,45.782,45.782,0,1,1,91.563,0A3.815,3.815,0,0,1,105.748,53.6Z" transform="translate(-18 -4)" fill="#2ff980"/>
      <path id="Trazado_658530" data-name="Trazado 658530" d="M99.122,65.227a3.815,3.815,0,0,1-2.106-.641A32.349,32.349,0,0,1,83.861,38.521a22.891,22.891,0,0,0-45.782,0C38.08,52.553,24.6,57.215,24.025,57.4a3.82,3.82,0,0,1-2.411-7.249,13.109,13.109,0,0,0,8.836-11.632,30.521,30.521,0,0,1,61.042,0,24.619,24.619,0,0,0,9.763,19.728,3.815,3.815,0,0,1-2.133,6.978Z" transform="translate(-15.189 7.261)" fill="#2ff980"/>
      <path id="Trazado_658531" data-name="Trazado 658531" d="M31.445,92.123H27.63a3.815,3.815,0,0,1,0-7.63h3.815A34.374,34.374,0,0,0,65.782,50.157V27.266a7.63,7.63,0,0,0-8.145-7.63,8.18,8.18,0,0,0-7.115,8.428C50.105,61.255,24.128,61.6,23.815,61.6a3.815,3.815,0,1,1,0-7.63c1.938,0,18.77-.939,19.076-26A15.821,15.821,0,0,1,57.148,12.036a15.1,15.1,0,0,1,11.445,4.1,15.31,15.31,0,0,1,4.819,11.133V50.157A42.016,42.016,0,0,1,31.445,92.123Z" transform="translate(-12.37 18.516)" fill="#2ff980"/>
      <path id="Trazado_658532" data-name="Trazado 658532" d="M23.815,46.144a3.815,3.815,0,1,1,0-7.63c.206,0,20.564-.221,26.668-13.391a3.816,3.816,0,0,1,6.924,3.209C49.235,45.942,24.849,46.144,23.815,46.144Z" transform="translate(-12.37 49.234)" fill="#2ff980"/>
      <path id="Trazado_658533" data-name="Trazado 658533" d="M27.818,73a3.815,3.815,0,0,1-.542-7.592A49.765,49.765,0,0,0,68.613,27.018a3.815,3.815,0,0,1,6.753-1.507A22.8,22.8,0,0,0,82.947,32a3.815,3.815,0,1,1-3.434,6.814,27.874,27.874,0,0,1-5.341-3.537,57.513,57.513,0,0,1-45.82,37.7,4.518,4.518,0,0,1-.534.023Z" transform="translate(-1.112 52.356)" fill="#2ff980"/>
      <path id="Trazado_658534" data-name="Trazado 658534" d="M36.817,56.706a3.815,3.815,0,0,1-2.163-6.959A54.175,54.175,0,0,0,50.967,31.935,3.815,3.815,0,1,1,57.605,35.7,61.805,61.805,0,0,1,38.972,56.035a3.781,3.781,0,0,1-2.156.671Z" transform="translate(24.226 69.193)" fill="#2ff980"/>
    </g>
  </g>
</svg>
