<svg xmlns="http://www.w3.org/2000/svg" width="252.138" height="212.725" viewBox="0 0 252.138 212.725">
  <g id="Grupo_954496" data-name="Grupo 954496" transform="translate(-1034.516 -635.004)">
    <path id="Trazado_113531" data-name="Trazado 113531" d="M1346.322,872.109V862.29a8.072,8.072,0,0,1,8.072-8.074h85.946a8.074,8.074,0,0,1,8.074,8.074v173.575H1226.1V872.109Z" transform="translate(-164.915 -188.7)" fill="#fff"/>
    <path id="Trazado_113532" data-name="Trazado 113532" d="M1341.191,872.109V862.29a8.072,8.072,0,0,1,8.072-8.074h85.946a8.074,8.074,0,0,1,8.074,8.074v173.575H1220.966V872.109Z" transform="translate(-160.498 -188.7)" fill="#29707a"/>
    <path id="Trazado_113533" data-name="Trazado 113533" d="M1491.038,1026.744v156.971H1285.094V1025.973Z" transform="translate(-215.699 -336.549)" fill="#bee7ed"/>
    <path id="Trazado_113534" data-name="Trazado 113534" d="M1409.8,1026.744v156.971H1203.86V1025.973Z" transform="translate(-145.773 -336.549)" fill="#45bbcc"/>
    <path id="Trazado_113535" data-name="Trazado 113535" d="M1077.762,982.777h203.458a7.728,7.728,0,0,1,7.851,6.734v157.022H1067.016V993.494A11.038,11.038,0,0,1,1077.762,982.777Z" transform="translate(-27.977 -299.366)" fill="#d5cef8"/>
    <g id="Grupo_80123" data-name="Grupo 80123" transform="translate(1124.415 651.33)">
      <g id="Grupo_80122" data-name="Grupo 80122" transform="translate(0 0)">
        <rect id="Rectángulo_33785" data-name="Rectángulo 33785" width="118.914" height="90.372" transform="translate(118.914 90.704) rotate(-179.84)" fill="#d5cef8"/>
        <rect id="Rectángulo_33786" data-name="Rectángulo 33786" width="112.832" height="83.08" transform="translate(115.945 86.353) rotate(-179.84)" fill="#45bbcc"/>
        <path id="Trazado_113536" data-name="Trazado 113536" d="M1996.628,1088.112l-72.509-.2,39.645-38.034Z" transform="translate(-1890.193 -1008.454)" fill="#e3eeff"/>
        <path id="Trazado_113537" data-name="Trazado 113537" d="M1831.4,1128.466l-60.924-.171,33.059-31.434Z" transform="translate(-1757.94 -1048.9)" fill="#e3eeff"/>
        <circle id="Elipse_4721" data-name="Elipse 4721" cx="8.397" cy="8.397" r="8.397" transform="translate(39.05 32.96) rotate(-45)" fill="#e3eeff"/>
      </g>
    </g>
    <g id="Grupo_80126" data-name="Grupo 80126" transform="translate(1108.576 635.004)">
      <g id="Grupo_80124" data-name="Grupo 80124" transform="translate(0 0)">
        <rect id="Rectángulo_33787" data-name="Rectángulo 33787" width="110.243" height="95.872" transform="matrix(-1, -0.003, 0.003, -1, 110.242, 96.225)" fill="#d5cef8"/>
        <rect id="Rectángulo_33788" data-name="Rectángulo 33788" width="103.983" height="88.136" transform="translate(107.188 91.609) rotate(-179.815)" fill="#45bbcc"/>
      </g>
      <g id="Grupo_80125" data-name="Grupo 80125" transform="translate(13.004 15.64)">
        <rect id="Rectángulo_33789" data-name="Rectángulo 33789" width="41.413" height="3.638" transform="translate(42.842)" fill="#d5cef8"/>
        <rect id="Rectángulo_33790" data-name="Rectángulo 33790" width="84.255" height="3.638" transform="translate(84.255 13.463) rotate(180)" fill="#d5cef8"/>
        <rect id="Rectángulo_33791" data-name="Rectángulo 33791" width="84.255" height="3.638" transform="translate(84.255 23.467) rotate(180)" fill="#d5cef8"/>
      </g>
    </g>
    <path id="Trazado_113538" data-name="Trazado 113538" d="M1070.723,982.777h203.457a7.728,7.728,0,0,1,7.852,6.734v157.584H1059.978v-153.6A11.038,11.038,0,0,1,1070.723,982.777Z" transform="translate(-21.918 -299.366)" fill="#3795a3"/>
    <rect id="Rectángulo_33792" data-name="Rectángulo 33792" width="22.405" height="0.903" transform="translate(1283.5 847.166) rotate(180)" fill="#fff"/>
    <path id="Trazado_113539" data-name="Trazado 113539" d="M1311.476,1459.925l-8.161,5.325h-10.783l-3.461,2.662v-2.529H1067.017v-5.458Z" transform="translate(-27.977 -710.099)" opacity="0.5" style="mix-blend-mode: darken;isolation: isolate"/>
    <g id="Grupo_80128" data-name="Grupo 80128" transform="translate(1034.516 723.773)">
      <g id="Grupo_80127" data-name="Grupo 80127" transform="translate(0)">
        <rect id="Rectángulo_33793" data-name="Rectángulo 33793" width="252.138" height="28.489" transform="translate(252.138 28.489) rotate(180)" fill="#45bbcc"/>
        <rect id="Rectángulo_33794" data-name="Rectángulo 33794" width="229.44" height="28.489" transform="translate(229.44 28.489) rotate(180)" fill="#bee7ed"/>
      </g>
    </g>
    <g id="Grupo_80137" data-name="Grupo 80137" transform="translate(1157.438 723.598)">
      <path id="Trazado_113540" data-name="Trazado 113540" d="M2103.906,1272.754v28.479H2083.97l13.978-28.479Z" transform="translate(-2060.817 -1272.578)" fill="#29707a"/>
      <g id="Grupo_80133" data-name="Grupo 80133" transform="translate(36.199 0)">
        <g id="Grupo_80130" data-name="Grupo 80130" transform="translate(0 0.185)">
          <path id="Trazado_113541" data-name="Trazado 113541" d="M2177.7,1287.026a25.3,25.3,0,0,0,1.846,10.074c1.129,2.627,2.7,4.192,4.435,4.192h5.294v-28.469h-5.294C2180.505,1272.823,2177.7,1279.205,2177.7,1287.026Zm5.014,4.693c-.991-.313-1.763-2.251-1.763-4.693,0-2.377.771-4.317,1.763-4.63.992.313,1.763,2.253,1.763,4.63C2184.473,1289.467,2183.7,1291.406,2182.709,1291.719Z" transform="translate(-2177.695 -1272.823)" fill="#3795a3"/>
          <g id="Grupo_80129" data-name="Grupo 80129" transform="translate(2.697)">
            <path id="Trazado_113542" data-name="Trazado 113542" d="M2197.072,1287.026A24.34,24.34,0,0,0,2199,1297.1c1.182,2.627,2.825,4.192,4.641,4.192h2.306v-28.469h-2.306C2200.012,1272.823,2197.072,1279.205,2197.072,1287.026Zm2.537,0c0-2.377,1.5-4.317,2.536-4.63,1.038.313,1.845,2.253,1.845,4.63,0,2.441-.807,4.38-1.845,4.693C2201.108,1291.406,2199.609,1289.467,2199.609,1287.026Z" transform="translate(-2197.072 -1272.823)" fill="#3f9ee6"/>
          </g>
        </g>
        <g id="Grupo_80132" data-name="Grupo 80132" transform="translate(2.519)">
          <path id="Trazado_113543" data-name="Trazado 113543" d="M2195.918,1287.026a25.308,25.308,0,0,0,1.846,10.074c1.129,2.627,2.7,4.192,4.435,4.192h5.294v-28.469H2202.2C2198.728,1272.823,2195.918,1279.205,2195.918,1287.026Zm5.014,4.693c-.991-.313-1.763-2.251-1.763-4.693,0-2.377.771-4.317,1.763-4.63.992.313,1.764,2.253,1.764,4.63C2202.7,1289.467,2201.924,1291.406,2200.932,1291.719Z" transform="translate(-2195.901 -1272.638)" fill="#3795a3"/>
          <g id="Grupo_80131" data-name="Grupo 80131" transform="translate(2.714 0.185)">
            <path id="Trazado_113544" data-name="Trazado 113544" d="M2215.295,1287.026a24.34,24.34,0,0,0,1.931,10.074c1.182,2.627,2.825,4.192,4.641,4.192h2.306v-28.469h-2.306C2218.235,1272.823,2215.295,1279.205,2215.295,1287.026Zm2.537,0c0-2.377.807-4.317,1.844-4.63,1.038.313,1.845,2.253,1.845,4.63,0,2.441-.807,4.38-1.845,4.693C2218.639,1291.406,2217.832,1289.467,2217.832,1287.026Z" transform="translate(-2215.295 -1272.823)" fill="#45bbcc"/>
          </g>
          <path id="Trazado_113545" data-name="Trazado 113545" d="M2202.069,1300.333a4.375,4.375,0,0,1-2.879-1.37c-1.548-1.487-3.394-4.844-3.394-12.4,0-7.2,1.683-10.9,3.095-12.743a5.7,5.7,0,0,1,3.172-2.326.185.185,0,0,1,.063.365h0a5.482,5.482,0,0,0-2.966,2.219c-1.365,1.8-2.994,5.423-2.994,12.484,0,7.407,1.776,10.678,3.266,12.118a4.021,4.021,0,0,0,2.655,1.279.185.185,0,0,1,.014.37Z" transform="translate(-2195.796 -1271.492)" fill="#40327b"/>
        </g>
      </g>
      <g id="Grupo_80134" data-name="Grupo 80134" transform="translate(6.946 10.078)">
        <path id="Trazado_113546" data-name="Trazado 113546" d="M2235.575,1355.02c.25.063.437.125.688.188-.063.063-.063.063,0,.063a24.418,24.418,0,0,1,17.519,23.338v23.783h8.009v-23.783a32.392,32.392,0,0,0-25.278-31.535,5.1,5.1,0,0,0-.938-.249C2233.26,1346.323,2233.072,1354.646,2235.575,1355.02Z" transform="translate(-2196.71 -1346.398)" fill="#e6e6e6"/>
        <path id="Trazado_113547" data-name="Trazado 113547" d="M1996.918,1343.9v7.965a24.588,24.588,0,0,0-20.876,19,2.642,2.642,0,0,0-.125.625,14.631,14.631,0,0,0-.25,1.627,24.192,24.192,0,0,0-.188,3V1399.9h-7.947v-23.783A32.486,32.486,0,0,1,1996.918,1343.9Z" transform="translate(-1967.532 -1343.897)" fill="#e6e6e6"/>
        <path id="Trazado_113548" data-name="Trazado 113548" d="M2238.6,1387.549c18.78,3.293,21.2,23.74,21.2,23.74v25.987h-2.817v-23.783a24.5,24.5,0,0,0-18.19-23.578c-.8-.259-1.295-2.594-1.295-2.594S2237.992,1387.432,2238.6,1387.549Z" transform="translate(-2199.921 -1381.277)" fill="#999"/>
        <path id="Trazado_113549" data-name="Trazado 113549" d="M2049.546,1388.958v1.693a24.588,24.588,0,0,0-20.875,19C2029.12,1403.805,2033.964,1391.039,2049.546,1388.958Z" transform="translate(-2020.161 -1382.686)" fill="gray"/>
        <path id="Trazado_113550" data-name="Trazado 113550" d="M2235.575,1355.02c.25.063.437.125.688.188a8.431,8.431,0,0,1-1.331-4.015c-.125-2.441.7-4.091,1.581-4.12a5.1,5.1,0,0,0-.938-.249C2233.26,1346.323,2233.072,1354.646,2235.575,1355.02Z" transform="translate(-2196.71 -1346.398)" fill="#666"/>
      </g>
      <g id="Grupo_80136" data-name="Grupo 80136" transform="translate(0 59.587)">
        <rect id="Rectángulo_33795" data-name="Rectángulo 33795" width="78.9" height="64.495" transform="translate(0)" fill="#2ff980"/>
        <g id="Grupo_80135" data-name="Grupo 80135" transform="translate(30.125 15.869)">
          <path id="Trazado_113551" data-name="Trazado 113551" d="M2144.569,1813.655a3.028,3.028,0,0,0-.752-.063,9.766,9.766,0,0,0-9.761,9.791,9.921,9.921,0,0,0,5.757,8.969v16.611a4.051,4.051,0,0,0,4,4.043,2.114,2.114,0,0,0,.626-.063h.187a4.061,4.061,0,0,0,3.193-3.98v-16.611a9.852,9.852,0,0,0,5.756-8.969A9.7,9.7,0,0,0,2144.569,1813.655Z" transform="translate(-2134.056 -1813.592)" fill="#0dd25c"/>
          <path id="Trazado_113552" data-name="Trazado 113552" d="M2153.468,1814.046a9.713,9.713,0,0,0-9.074,9.727,9.921,9.921,0,0,0,5.757,8.969v16.611a4.059,4.059,0,0,0,3.191,3.98h.186a4.06,4.06,0,0,0,3.193-3.98v-16.611a9.853,9.853,0,0,0,5.756-8.969A9.7,9.7,0,0,0,2153.468,1814.046Z" transform="translate(-2142.955 -1813.983)" fill="#0c9442"/>
        </g>
        <path id="Trazado_113553" data-name="Trazado 113553" d="M1942.667,1764.081H1917.63v-64.5h6.946S1922.731,1747.174,1942.667,1764.081Z" transform="translate(-1917.63 -1699.586)" fill="#0dd25c"/>
        <path id="Trazado_113554" data-name="Trazado 113554" d="M2362.772,1764.081c5.979-12.8,4.865-47.193,4.865-64.5h7.947v64.5Z" transform="translate(-2300.812 -1699.586)" fill="#7af9ad"/>
      </g>
    </g>
  </g>
</svg>
