<svg xmlns="http://www.w3.org/2000/svg" xmlns:xlink="http://www.w3.org/1999/xlink" width="344.404" height="205.208" viewBox="0 0 344.404 205.208">
  <defs>
    <radialGradient id="radial-gradient" cx="0.477" cy="1.035" r="0.999" gradientTransform="translate(0.255 0) scale(0.466 1)" gradientUnits="objectBoundingBox">
      <stop offset="0.264" stop-color="#defbff"/>
      <stop offset="1" stop-color="#defbff" stop-opacity="0"/>
    </radialGradient>
    <clipPath id="clip-path">
      <path id="Trazado_658303" data-name="Trazado 658303" d="M575.8,3632.407c.817,2.84.576,6.985-2.081,8.917-1.337.855-3.337.25-3.307-1.449a29.246,29.246,0,0,0,.093-5.258l-20.356,10.87,11.654,22.846,31.051-16.177-11.884-22.31Z" transform="translate(-550.152 -3629.847)" fill="none"/>
    </clipPath>
    <radialGradient id="radial-gradient-2" cx="0.505" cy="1.101" r="0.968" gradientTransform="translate(0.262 0.553) scale(0.481 1.164)" gradientUnits="objectBoundingBox">
      <stop offset="0.264" stop-color="#a634ff"/>
      <stop offset="1" stop-color="#a634ff" stop-opacity="0"/>
    </radialGradient>
  </defs>
  <g id="Grupo_958777" data-name="Grupo 958777" transform="translate(-493.896 -3491.696)">
    <ellipse id="Elipse_5684" data-name="Elipse 5684" cx="58.651" cy="10.105" rx="58.651" ry="10.105" transform="translate(709.037 3676.694)" fill="#2a3652"/>
    <g id="Grupo_958700" data-name="Grupo 958700" transform="translate(563.124 3576.094)">
      <ellipse id="Elipse_5685" data-name="Elipse 5685" cx="58.651" cy="10.105" rx="58.651" ry="10.105" transform="translate(11.327 100.599)" fill="#2a3652"/>
      <g id="Grupo_958688" data-name="Grupo 958688" transform="translate(5.767 68.797)">
        <g id="Grupo_958681" data-name="Grupo 958681" transform="translate(2.006)">
          <path id="Trazado_658174" data-name="Trazado 658174" d="M626.5,3682.969a43.069,43.069,0,0,0,23.2,7.069c13.171,0,24.337-6.961,25.661-7.235a34.4,34.4,0,0,1,2.387,4.855.32.32,0,0,1-.039.312l-21.242,26.515a36.229,36.229,0,0,1-10.93.171l-21.3-26.974a.322.322,0,0,1-.032-.347S626.363,3682.9,626.5,3682.969Z" transform="translate(-587.962 -3669.966)" fill="#05052d"/>
          <path id="Trazado_658175" data-name="Trazado 658175" d="M684.392,3710.521c8.205-4.178,26.154-15.436,33.714-32.286,1.052-2.344-1.578-12.244-10.192-9.045-5.329,1.98-33.02,11.853-37.5,18.116-7.232,10.117-7.568,19.333-9.059,25.306C665.425,3714.463,680.288,3712.611,684.392,3710.521Z" transform="translate(-592.855 -3668.093)" fill="#293eff"/>
          <path id="Trazado_658176" data-name="Trazado 658176" d="M616,3710.517c-8.205-4.179-31.974-22.25-33.08-32.353-.282-2.576-2.664-10.472,7.555-10.131,5.329,1.979,35.111,13.419,40.134,19.2,6.294,7.248,8.359,19.794,9.059,25.306C635.6,3714.392,620.1,3712.607,616,3710.517Z" transform="translate(-582.478 -3668.022)" fill="#293eff"/>
        </g>
        <g id="Grupo_958684" data-name="Grupo 958684" transform="translate(0 0.126)">
          <g id="Grupo_958682" data-name="Grupo 958682" transform="translate(62.884 34.707)">
            <path id="Trazado_658177" data-name="Trazado 658177" d="M657.8,3708.131a11.016,11.016,0,0,0,1.128.365,116.414,116.414,0,0,0,19.256,2.062c6.466.084,7.281,3.305,7.244,5.121s-3.613,5.886-6.274,6.244c-8.209,1.106-18.09-2.847-20.059-3.053-4.1-.431-6.276-3.545-6.52-5.287,0,0,3.9,1.136,3.069-.9a3.326,3.326,0,0,1,2.107-4.438C657.882,3708.213,657.913,3708.179,657.8,3708.131Z" transform="translate(-652.578 -3708.131)" fill="#05052d"/>
            <path id="Trazado_658178" data-name="Trazado 658178" d="M676.826,3720.4a12.762,12.762,0,0,1,.977-9.491c.227.005.457.012.678.015,6.466.084,7.281,3.3,7.244,5.121s-3.613,5.886-6.274,6.244c-8.209,1.106-18.09-2.847-20.059-3.053a7.876,7.876,0,0,1-4.577-2.035C660.338,3718.739,676.922,3723.135,676.826,3720.4Z" transform="translate(-652.872 -3708.497)" fill="#b8b8b8"/>
            <path id="Trazado_658179" data-name="Trazado 658179" d="M664.521,3709.02h0a11.484,11.484,0,0,0-1.562,5.866l0,.444" transform="translate(-653.944 -3708.248)" fill="none" stroke="#b8b8b8" stroke-linecap="round" stroke-miterlimit="10" stroke-width="1.609"/>
            <path id="Trazado_658180" data-name="Trazado 658180" d="M667.574,3709.535h0a11.478,11.478,0,0,0-1.562,5.865l0,.444" transform="translate(-654.345 -3708.316)" fill="none" stroke="#b8b8b8" stroke-linecap="round" stroke-miterlimit="10" stroke-width="1.609"/>
            <path id="Trazado_658181" data-name="Trazado 658181" d="M670.663,3709.95h0a11.478,11.478,0,0,0-1.562,5.866l0,.443" transform="translate(-654.752 -3708.371)" fill="none" stroke="#b8b8b8" stroke-linecap="round" stroke-miterlimit="10" stroke-width="1.609"/>
            <path id="Trazado_658182" data-name="Trazado 658182" d="M673.285,3710.265h0a11.479,11.479,0,0,0-1.561,5.865l0,.444" transform="translate(-655.097 -3708.412)" fill="none" stroke="#b8b8b8" stroke-linecap="round" stroke-miterlimit="10" stroke-width="1.609"/>
          </g>
          <g id="Grupo_958683" data-name="Grupo 958683">
            <path id="Trazado_658183" data-name="Trazado 658183" d="M590.992,3668.508s42.983,24.31,60.7,34.16a11.983,11.983,0,0,1-3.322,11.417s-60.986-21.135-67.5-33.227C578.369,3676.212,582.722,3666.2,590.992,3668.508Z" transform="translate(-580.168 -3668.167)" fill="#7186ff"/>
            <path id="Trazado_658184" data-name="Trazado 658184" d="M580.594,3680.754c-.042-.11-.083-.22-.119-.333-.02-.066-.036-.133-.054-.2-.03-.105-.059-.211-.082-.321-.017-.072-.028-.146-.041-.221-.02-.107-.04-.214-.056-.324-.01-.076-.016-.154-.025-.232-.011-.11-.023-.22-.03-.333,0-.078-.006-.158-.009-.237,0-.114-.008-.228-.007-.345,0-.079,0-.158.007-.238,0-.119.009-.238.017-.357.006-.078.013-.157.021-.235.012-.123.026-.247.043-.371.01-.077.022-.152.034-.228.021-.128.043-.257.069-.384.015-.073.03-.146.046-.219.029-.133.061-.265.1-.4.017-.069.036-.138.055-.207q.059-.205.125-.409c.021-.063.041-.128.063-.191q.074-.212.156-.422c.023-.059.044-.116.068-.173.06-.146.124-.291.191-.437l.068-.148c.073-.152.151-.3.232-.453.021-.039.041-.079.063-.118.09-.163.186-.323.285-.482l.043-.071q.173-.272.363-.534h0c.172.312.345.634.518.979,7.463,14.8,60.935,33.993,68.689,36.644l0,.005a38.882,38.882,0,0,1-3.046,4.847s-60.986-21.134-67.5-33.227c-.081-.15-.153-.305-.22-.465C580.631,3680.864,580.614,3680.807,580.594,3680.754Z" transform="translate(-580.168 -3668.688)" fill="#5e6eff"/>
          </g>
        </g>
        <g id="Grupo_958687" data-name="Grupo 958687" transform="translate(33.771 0.126)">
          <g id="Grupo_958685" data-name="Grupo 958685" transform="translate(0 34.594)">
            <path id="Trazado_658185" data-name="Trazado 658185" d="M647.13,3708a11.227,11.227,0,0,1-1.146.372,118.316,118.316,0,0,1-19.567,2.095c-6.572.085-7.4,3.358-7.361,5.2s3.671,5.981,6.374,6.346c8.342,1.124,18.383-2.893,20.383-3.1,4.168-.438,6.378-3.6,6.626-5.373,0,0-3.963,1.154-3.119-.912a3.38,3.38,0,0,0-2.14-4.509C647.05,3708.084,647.018,3708.049,647.13,3708Z" transform="translate(-619.055 -3708.001)" fill="#05052d"/>
            <path id="Trazado_658186" data-name="Trazado 658186" d="M628.1,3720.468a12.961,12.961,0,0,0-.993-9.645c-.229.005-.465.013-.689.016-6.572.085-7.4,3.358-7.361,5.2s3.671,5.981,6.374,6.346c8.342,1.124,18.383-2.893,20.383-3.1a8,8,0,0,0,4.65-2.069C644.854,3718.78,628,3723.248,628.1,3720.468Z" transform="translate(-619.055 -3708.372)" fill="#b8b8b8"/>
            <path id="Trazado_658187" data-name="Trazado 658187" d="M645.12,3708.905h0a11.677,11.677,0,0,1,1.588,5.96l0,.451" transform="translate(-622.484 -3708.12)" fill="none" stroke="#b8b8b8" stroke-linecap="round" stroke-miterlimit="10" stroke-width="1.635"/>
            <path id="Trazado_658188" data-name="Trazado 658188" d="M642.017,3709.427h0a11.662,11.662,0,0,1,1.587,5.961l0,.451" transform="translate(-622.075 -3708.188)" fill="none" stroke="#b8b8b8" stroke-linecap="round" stroke-miterlimit="10" stroke-width="1.635"/>
            <path id="Trazado_658189" data-name="Trazado 658189" d="M638.878,3709.849h0a11.67,11.67,0,0,1,1.588,5.961l0,.451" transform="translate(-621.662 -3708.244)" fill="none" stroke="#b8b8b8" stroke-linecap="round" stroke-miterlimit="10" stroke-width="1.635"/>
            <path id="Trazado_658190" data-name="Trazado 658190" d="M636.213,3710.169h0a11.664,11.664,0,0,1,1.588,5.961l0,.451" transform="translate(-621.312 -3708.286)" fill="none" stroke="#b8b8b8" stroke-linecap="round" stroke-miterlimit="10" stroke-width="1.635"/>
          </g>
          <g id="Grupo_958686" data-name="Grupo 958686" transform="translate(24.742)">
            <path id="Trazado_658191" data-name="Trazado 658191" d="M708.249,3668.508s-42.983,24.31-60.7,34.16a11.983,11.983,0,0,0,3.322,11.417s60.985-21.135,67.5-33.227C720.871,3676.212,716.517,3666.2,708.249,3668.508Z" transform="translate(-647.545 -3668.167)" fill="#7186ff"/>
            <path id="Trazado_658192" data-name="Trazado 658192" d="M718.687,3680.754c.042-.11.084-.22.12-.333.02-.066.036-.133.053-.2.029-.105.059-.211.083-.321.016-.072.027-.146.041-.221.019-.107.04-.214.055-.324.01-.076.017-.154.025-.232.012-.11.023-.22.03-.333.005-.078.007-.158.01-.237,0-.114.007-.228.006-.345,0-.079,0-.158-.006-.238,0-.119-.01-.238-.018-.357-.005-.078-.013-.157-.021-.235-.012-.123-.025-.247-.043-.371-.01-.077-.022-.152-.034-.228-.02-.128-.043-.257-.069-.384-.014-.073-.03-.146-.045-.219-.029-.133-.062-.265-.1-.4-.018-.069-.036-.138-.056-.207-.038-.137-.081-.273-.124-.409-.021-.063-.042-.128-.063-.191-.049-.142-.1-.282-.156-.422-.022-.059-.043-.116-.067-.173-.06-.146-.125-.291-.191-.437-.023-.049-.044-.1-.069-.148-.073-.152-.151-.3-.231-.453-.022-.039-.041-.079-.062-.118-.09-.163-.186-.323-.285-.482-.015-.023-.029-.048-.044-.071q-.173-.272-.362-.534h0c-.172.312-.344.634-.518.979-7.462,14.8-60.934,33.993-68.688,36.644l0,.005a38.9,38.9,0,0,0,3.046,4.847s60.985-21.134,67.5-33.227a5.031,5.031,0,0,0,.22-.465C718.651,3680.864,718.667,3680.807,718.687,3680.754Z" transform="translate(-647.587 -3668.688)" fill="#5e6eff"/>
          </g>
        </g>
      </g>
      <path id="Trazado_658193" data-name="Trazado 658193" d="M627.556,3606.308a6.683,6.683,0,0,0-2.039,5.821l1.144,28.959,0-.01c1.209-4.009,2.563-7.971,3.777-11.978,1.2-3.951,2.432-8.15,2.359-12.315a41.132,41.132,0,0,0-1.778-9.979A7.917,7.917,0,0,0,627.556,3606.308Z" transform="translate(-580.358 -3591.103)" fill="#cae3ff"/>
      <g id="Grupo_958695" data-name="Grupo 958695" transform="translate(23.674 6.752)">
        <path id="Trazado_658194" data-name="Trazado 658194" d="M674.257,3670.705l2.362-59.841a6.681,6.681,0,0,0-3.906-7.064,143.294,143.294,0,0,1-13.553-7.222h-16.2l-13.53,7.207a6.688,6.688,0,0,0-3.912,7.067l2.365,59.854Z" transform="translate(-604.033 -3596.578)" fill="#fff"/>
        <path id="Trazado_658195" data-name="Trazado 658195" d="M681.231,3606.308a6.684,6.684,0,0,1,2.039,5.821l-1.145,28.959,0-.01c-1.209-4.009-2.563-7.971-3.777-11.978-1.2-3.951-2.432-8.15-2.36-12.315a41.168,41.168,0,0,1,1.779-9.979A7.915,7.915,0,0,1,681.231,3606.308Z" transform="translate(-610.681 -3597.855)" fill="#cae3ff"/>
        <g id="Grupo_958691" data-name="Grupo 958691" transform="translate(56.077 7.191)">
          <path id="Trazado_658196" data-name="Trazado 658196" d="M679.773,3668.62c2.215-1.411,12.182-17.144,12.182-17.144l-10.779-23.26,11.357-9.818s12.028,32.459,12.584,36.146c.662,4.4-14.325,15.226-20.871,20.985C684.245,3675.529,679.7,3668.668,679.773,3668.62Z" transform="translate(-667.256 -3606.64)" fill="#ffb999"/>
          <path id="Trazado_658197" data-name="Trazado 658197" d="M695.563,3639.463a12.788,12.788,0,0,0,3.663-3.264c-3.209-8.972-6.481-17.8-6.481-17.8l-11.357,9.818,6.353,13.709A18.425,18.425,0,0,0,695.563,3639.463Z" transform="translate(-667.469 -3606.64)" fill="#ff8663"/>
          <g id="Grupo_958689" data-name="Grupo 958689" transform="translate(0 61.98)">
            <path id="Trazado_658198" data-name="Trazado 658198" d="M681.59,3685.839a21.62,21.62,0,0,0-.714,6.6" transform="translate(-667.398 -3677.492)" fill="none" stroke="#ffb999" stroke-miterlimit="10" stroke-width="0.893"/>
            <path id="Trazado_658199" data-name="Trazado 658199" d="M675.073,3680.593a16.438,16.438,0,0,1-6.124,1.347" transform="translate(-665.832 -3676.802)" fill="none" stroke="#ff8663" stroke-miterlimit="10" stroke-width="0.893"/>
            <path id="Trazado_658200" data-name="Trazado 658200" d="M679.055,3676.227l-4.28,2.5a.9.9,0,0,0-.22,1.4l6.973,7.54,2-4.53Z" transform="translate(-666.538 -3676.227)" fill="#ffb999"/>
            <path id="Trazado_658201" data-name="Trazado 658201" d="M678.873,3684.531a23.733,23.733,0,0,0-3.2,10.456" transform="translate(-666.717 -3677.32)" fill="none" stroke="#ffb999" stroke-miterlimit="10" stroke-width="0.893"/>
            <path id="Trazado_658202" data-name="Trazado 658202" d="M676.244,3682.285a28.936,28.936,0,0,0-6.147,12.469" transform="translate(-665.983 -3677.024)" fill="none" stroke="#ffb999" stroke-miterlimit="10" stroke-width="0.893"/>
            <path id="Trazado_658203" data-name="Trazado 658203" d="M674.306,3680.739a35.7,35.7,0,0,0-8.946,7.752" transform="translate(-665.36 -3676.821)" fill="none" stroke="#ffb999" stroke-miterlimit="10" stroke-width="0.893"/>
          </g>
          <g id="Grupo_958690" data-name="Grupo 958690" transform="translate(8.473)">
            <path id="Trazado_658204" data-name="Trazado 658204" d="M684.218,3637.9a21.548,21.548,0,0,0,10.83-3.777,9.987,9.987,0,0,0,3.331-4.741c-3.405-7.163-7.9-17.027-8.818-17.913-1.713-1.654-8.784-6.392-10.547-6.6-2.723-.319-3.543,4.822-3.783,6.662a17.783,17.783,0,0,0,1.91,9.878C679.744,3626.88,682.052,3632.126,684.218,3637.9Z" transform="translate(-675.117 -3604.859)" fill="#fff"/>
          </g>
        </g>
        <g id="Grupo_958694" data-name="Grupo 958694" transform="translate(0 7.191)">
          <path id="Trazado_658205" data-name="Trazado 658205" d="M626.152,3668.62c-2.215-1.411-12.181-17.144-12.181-17.144l10.779-23.26-11.358-9.818s-12.028,32.459-12.583,36.146c-.663,4.4,14.324,15.226,20.87,20.985C621.68,3675.529,626.228,3668.668,626.152,3668.62Z" transform="translate(-600.789 -3606.64)" fill="#ffb999"/>
          <path id="Trazado_658206" data-name="Trazado 658206" d="M611.5,3639.463a12.781,12.781,0,0,1-3.664-3.264c3.21-8.972,6.481-17.8,6.481-17.8l11.358,9.818-6.354,13.709A18.421,18.421,0,0,1,611.5,3639.463Z" transform="translate(-601.716 -3606.64)" fill="#ff8663"/>
          <g id="Grupo_958692" data-name="Grupo 958692" transform="translate(20.892 61.98)">
            <path id="Trazado_658207" data-name="Trazado 658207" d="M628.066,3685.839a21.649,21.649,0,0,1,.713,6.6" transform="translate(-625.269 -3677.492)" fill="none" stroke="#ffb999" stroke-miterlimit="10" stroke-width="0.893"/>
            <path id="Trazado_658208" data-name="Trazado 658208" d="M633.767,3680.593a16.433,16.433,0,0,0,6.123,1.347" transform="translate(-626.019 -3676.802)" fill="none" stroke="#ff8663" stroke-miterlimit="10" stroke-width="0.893"/>
            <path id="Trazado_658209" data-name="Trazado 658209" d="M629.317,3676.227l4.28,2.5a.9.9,0,0,1,.22,1.4l-6.973,7.54-2-4.53Z" transform="translate(-624.845 -3676.227)" fill="#ffb999"/>
            <path id="Trazado_658210" data-name="Trazado 658210" d="M630.41,3684.531a23.724,23.724,0,0,1,3.2,10.456" transform="translate(-625.577 -3677.32)" fill="none" stroke="#ffb999" stroke-miterlimit="10" stroke-width="0.893"/>
            <path id="Trazado_658211" data-name="Trazado 658211" d="M632.593,3682.285a28.936,28.936,0,0,1,6.147,12.469" transform="translate(-625.864 -3677.024)" fill="none" stroke="#ffb999" stroke-miterlimit="10" stroke-width="0.893"/>
            <path id="Trazado_658212" data-name="Trazado 658212" d="M634.107,3680.739a35.708,35.708,0,0,1,8.945,7.752" transform="translate(-626.063 -3676.821)" fill="none" stroke="#ffb999" stroke-miterlimit="10" stroke-width="0.893"/>
          </g>
          <g id="Grupo_958693" data-name="Grupo 958693" transform="translate(6.145)">
            <path id="Trazado_658213" data-name="Trazado 658213" d="M622.025,3637.9a21.552,21.552,0,0,1-10.83-3.777,9.979,9.979,0,0,1-3.331-4.741c3.405-7.163,7.9-17.027,8.817-17.913,1.713-1.654,8.784-6.392,10.548-6.6,2.723-.319,3.542,4.822,3.782,6.662a17.775,17.775,0,0,1-1.909,9.878C626.5,3626.88,624.192,3632.126,622.025,3637.9Z" transform="translate(-607.864 -3604.859)" fill="#fff"/>
          </g>
        </g>
      </g>
      <g id="Grupo_958698" data-name="Grupo 958698" transform="translate(0)">
        <path id="Trazado_658214" data-name="Trazado 658214" d="M716.3,3588.8H573.528l35.186,66.575h67.938Z" transform="translate(-573.528 -3588.803)" fill="url(#radial-gradient)"/>
        <g id="Grupo_958697" data-name="Grupo 958697" transform="translate(33.981 60.232)">
          <g id="Grupo_958696" data-name="Grupo 958696">
            <path id="Trazado_658215" data-name="Trazado 658215" d="M616.284,3704.533c-.013.082-.039.16-.047.244a3.963,3.963,0,0,0,3.948,4.32h55.457a3.963,3.963,0,0,0,3.947-4.32c-.008-.084-.034-.162-.046-.244Z" transform="translate(-613.126 -3664.26)" fill="#8c8c8c"/>
            <path id="Trazado_658216" data-name="Trazado 658216" d="M675.008,3701.009H619.879a4.224,4.224,0,0,1-4.111-3.81l-3.09-34.345c-.232-2.579,1.473-4.7,3.81-4.7H678.4c2.337,0,4.042,2.116,3.81,4.7l-3.09,34.345A4.223,4.223,0,0,1,675.008,3701.009Z" transform="translate(-612.657 -3658.159)" fill="#bababa"/>
            <path id="Trazado_658217" data-name="Trazado 658217" d="M682.3,3658.159H642.334l40.336,40.336a4.053,4.053,0,0,0,.353-1.3l3.09-34.345C686.345,3660.275,684.64,3658.159,682.3,3658.159Z" transform="translate(-616.561 -3658.159)" fill="#d1d1d1"/>
            <path id="Trazado_658218" data-name="Trazado 658218" d="M656.206,3683.592a4.126,4.126,0,1,1-4.116-4.406A4.24,4.24,0,0,1,656.206,3683.592Z" transform="translate(-617.303 -3660.925)" fill="#fff"/>
          </g>
        </g>
      </g>
      <g id="Grupo_958699" data-name="Grupo 958699" transform="translate(87.925 33.43)">
        <path id="Trazado_658219" data-name="Trazado 658219" d="M693.048,3627.457a16.032,16.032,0,0,0-14.67,26l-.832,5.892,6.091-1.677a16.034,16.034,0,1,0,9.411-30.218Z" transform="translate(-674.772 -3627.298)" fill="#f06"/>
        <line id="Línea_260" data-name="Línea 260" x1="18.089" y2="13.614" transform="translate(7.017 9.044)" fill="none" stroke="#fff" stroke-miterlimit="10" stroke-width="7.19"/>
        <line id="Línea_261" data-name="Línea 261" x2="13.614" y2="18.089" transform="translate(9.254 6.806)" fill="none" stroke="#fff" stroke-miterlimit="10" stroke-width="7.19"/>
      </g>
    </g>
    <g id="Grupo_958760" data-name="Grupo 958760" transform="translate(494.445 3504.749)">
      <g id="Grupo_958731" data-name="Grupo 958731" transform="translate(209.776 24.525)">
        <g id="Grupo_958708" data-name="Grupo 958708" transform="translate(0 115.618)">
          <g id="Grupo_958701" data-name="Grupo 958701" transform="translate(2.006)">
            <path id="Trazado_658220" data-name="Trazado 658220" d="M782.332,3682.969a43.069,43.069,0,0,0,23.2,7.069c13.171,0,24.338-6.961,25.661-7.235a34.405,34.405,0,0,1,2.386,4.855.321.321,0,0,1-.039.312l-21.242,26.515a36.228,36.228,0,0,1-10.93.171l-21.3-26.974a.322.322,0,0,1-.032-.347S782.193,3682.9,782.332,3682.969Z" transform="translate(-743.792 -3669.966)" fill="#05052d"/>
            <path id="Trazado_658221" data-name="Trazado 658221" d="M840.222,3710.521c8.205-4.178,26.154-15.436,33.714-32.286,1.052-2.344-1.578-12.244-10.192-9.045-5.329,1.98-33.02,11.853-37.5,18.116-7.232,10.117-7.568,19.333-9.059,25.306C821.255,3714.463,836.118,3712.611,840.222,3710.521Z" transform="translate(-748.685 -3668.093)" fill="#05052d"/>
            <path id="Trazado_658222" data-name="Trazado 658222" d="M771.828,3710.517c-8.206-4.179-31.975-22.25-33.081-32.353-.282-2.576-2.664-10.472,7.556-10.131,5.329,1.979,35.111,13.419,40.134,19.2,6.294,7.248,8.359,19.794,9.059,25.306C791.427,3714.392,775.93,3712.607,771.828,3710.517Z" transform="translate(-738.308 -3668.022)" fill="#05052d"/>
          </g>
          <g id="Grupo_958704" data-name="Grupo 958704" transform="translate(0 0.126)">
            <g id="Grupo_958702" data-name="Grupo 958702" transform="translate(62.884 34.707)">
              <path id="Trazado_658223" data-name="Trazado 658223" d="M813.633,3708.131a10.942,10.942,0,0,0,1.127.365,116.414,116.414,0,0,0,19.256,2.062c6.466.084,7.281,3.305,7.244,5.121s-3.613,5.886-6.273,6.244c-8.21,1.106-18.091-2.847-20.059-3.053-4.1-.431-6.276-3.545-6.52-5.287,0,0,3.9,1.136,3.069-.9a3.326,3.326,0,0,1,2.107-4.438C813.712,3708.213,813.743,3708.179,813.633,3708.131Z" transform="translate(-808.408 -3708.131)" fill="#05052d"/>
              <path id="Trazado_658224" data-name="Trazado 658224" d="M832.656,3720.4a12.761,12.761,0,0,1,.977-9.491c.227.005.457.012.678.015,6.466.084,7.281,3.3,7.244,5.121s-3.613,5.886-6.273,6.244c-8.21,1.106-18.091-2.847-20.059-3.053a7.876,7.876,0,0,1-4.577-2.035C816.168,3718.739,832.752,3723.135,832.656,3720.4Z" transform="translate(-808.702 -3708.497)" fill="#b8b8b8"/>
              <path id="Trazado_658225" data-name="Trazado 658225" d="M820.351,3709.02h0a11.484,11.484,0,0,0-1.562,5.866l0,.444" transform="translate(-809.774 -3708.248)" fill="none" stroke="#b8b8b8" stroke-linecap="round" stroke-miterlimit="10" stroke-width="1.609"/>
              <path id="Trazado_658226" data-name="Trazado 658226" d="M823.4,3709.535h0a11.478,11.478,0,0,0-1.562,5.865l0,.444" transform="translate(-810.175 -3708.316)" fill="none" stroke="#b8b8b8" stroke-linecap="round" stroke-miterlimit="10" stroke-width="1.609"/>
              <path id="Trazado_658227" data-name="Trazado 658227" d="M826.493,3709.95h0a11.479,11.479,0,0,0-1.561,5.866l0,.443" transform="translate(-810.582 -3708.371)" fill="none" stroke="#b8b8b8" stroke-linecap="round" stroke-miterlimit="10" stroke-width="1.609"/>
              <path id="Trazado_658228" data-name="Trazado 658228" d="M829.115,3710.265h0a11.478,11.478,0,0,0-1.561,5.865l0,.444" transform="translate(-810.927 -3708.412)" fill="none" stroke="#b8b8b8" stroke-linecap="round" stroke-miterlimit="10" stroke-width="1.609"/>
            </g>
            <g id="Grupo_958703" data-name="Grupo 958703">
              <path id="Trazado_658229" data-name="Trazado 658229" d="M746.822,3668.508s42.983,24.31,60.7,34.16a11.982,11.982,0,0,1-3.322,11.417s-60.986-21.135-67.5-33.227C734.2,3676.212,738.552,3666.2,746.822,3668.508Z" transform="translate(-735.998 -3668.167)" fill="#2b2b4a"/>
              <path id="Trazado_658230" data-name="Trazado 658230" d="M736.424,3680.754c-.042-.11-.083-.22-.119-.333-.02-.066-.036-.133-.054-.2-.029-.105-.059-.211-.083-.321-.016-.072-.028-.146-.041-.221-.02-.107-.04-.214-.056-.324-.01-.076-.016-.154-.025-.232-.011-.11-.023-.22-.03-.333,0-.078-.006-.158-.009-.237,0-.114-.007-.228-.007-.345,0-.079,0-.158.007-.238,0-.119.009-.238.017-.357.006-.078.014-.157.021-.235.012-.123.026-.247.043-.371.01-.077.022-.152.034-.228.021-.128.043-.257.069-.384.015-.073.03-.146.046-.219.029-.133.061-.265.1-.4.017-.069.036-.138.056-.207q.057-.205.124-.409c.021-.063.041-.128.063-.191q.074-.212.156-.422c.023-.059.044-.116.068-.173.06-.146.124-.291.191-.437.023-.049.044-.1.068-.148.073-.152.151-.3.232-.453.021-.039.041-.079.063-.118.09-.163.186-.323.285-.482l.043-.071q.173-.272.363-.534h0c.172.312.345.634.518.979,7.463,14.8,60.935,33.993,68.689,36.644l0,.005a38.888,38.888,0,0,1-3.046,4.847s-60.986-21.134-67.5-33.227q-.12-.225-.22-.465C736.461,3680.864,736.445,3680.807,736.424,3680.754Z" transform="translate(-735.998 -3668.688)" fill="#24243a"/>
            </g>
          </g>
          <g id="Grupo_958707" data-name="Grupo 958707" transform="translate(33.771 0.126)">
            <g id="Grupo_958705" data-name="Grupo 958705" transform="translate(0 34.594)">
              <path id="Trazado_658231" data-name="Trazado 658231" d="M802.96,3708a11.221,11.221,0,0,1-1.146.372,118.318,118.318,0,0,1-19.567,2.095c-6.571.085-7.4,3.358-7.361,5.2s3.671,5.981,6.374,6.346c8.342,1.124,18.383-2.893,20.383-3.1,4.168-.438,6.378-3.6,6.626-5.373,0,0-3.963,1.154-3.12-.912a3.38,3.38,0,0,0-2.14-4.509C802.88,3708.084,802.848,3708.049,802.96,3708Z" transform="translate(-774.885 -3708.001)" fill="#05052d"/>
              <path id="Trazado_658232" data-name="Trazado 658232" d="M783.928,3720.468a12.961,12.961,0,0,0-.993-9.645c-.229.005-.465.013-.689.016-6.571.085-7.4,3.358-7.361,5.2s3.671,5.981,6.374,6.346c8.342,1.124,18.383-2.893,20.383-3.1a8,8,0,0,0,4.651-2.069C800.684,3718.78,783.832,3723.248,783.928,3720.468Z" transform="translate(-774.885 -3708.372)" fill="#b8b8b8"/>
              <path id="Trazado_658233" data-name="Trazado 658233" d="M800.95,3708.905h0a11.659,11.659,0,0,1,1.587,5.96l0,.451" transform="translate(-778.314 -3708.12)" fill="none" stroke="#b8b8b8" stroke-linecap="round" stroke-miterlimit="10" stroke-width="1.635"/>
              <path id="Trazado_658234" data-name="Trazado 658234" d="M797.847,3709.427h0a11.661,11.661,0,0,1,1.587,5.961l0,.451" transform="translate(-777.905 -3708.188)" fill="none" stroke="#b8b8b8" stroke-linecap="round" stroke-miterlimit="10" stroke-width="1.635"/>
              <path id="Trazado_658235" data-name="Trazado 658235" d="M794.708,3709.849h0a11.669,11.669,0,0,1,1.588,5.961l0,.451" transform="translate(-777.492 -3708.244)" fill="none" stroke="#b8b8b8" stroke-linecap="round" stroke-miterlimit="10" stroke-width="1.635"/>
              <path id="Trazado_658236" data-name="Trazado 658236" d="M792.044,3710.169h0a11.671,11.671,0,0,1,1.587,5.961l0,.451" transform="translate(-777.142 -3708.286)" fill="none" stroke="#b8b8b8" stroke-linecap="round" stroke-miterlimit="10" stroke-width="1.635"/>
            </g>
            <g id="Grupo_958706" data-name="Grupo 958706" transform="translate(24.742)">
              <path id="Trazado_658237" data-name="Trazado 658237" d="M864.079,3668.508s-42.983,24.31-60.7,34.16a11.982,11.982,0,0,0,3.322,11.417s60.985-21.135,67.5-33.227C876.7,3676.212,872.347,3666.2,864.079,3668.508Z" transform="translate(-803.375 -3668.167)" fill="#464670"/>
              <path id="Trazado_658238" data-name="Trazado 658238" d="M874.518,3680.754c.041-.11.083-.22.119-.333.02-.066.036-.133.054-.2.029-.105.058-.211.083-.321.016-.072.027-.146.041-.221.02-.107.04-.214.055-.324.01-.076.017-.154.025-.232.012-.11.023-.22.03-.333.005-.078.007-.158.01-.237,0-.114.007-.228.006-.345,0-.079,0-.158-.006-.238,0-.119-.01-.238-.018-.357-.005-.078-.013-.157-.021-.235q-.017-.185-.043-.371c-.01-.077-.022-.152-.034-.228-.02-.128-.043-.257-.069-.384-.014-.073-.029-.146-.045-.219-.03-.133-.062-.265-.1-.4-.018-.069-.036-.138-.055-.207-.038-.137-.081-.273-.124-.409-.021-.063-.042-.128-.063-.191-.049-.142-.1-.282-.156-.422-.022-.059-.044-.116-.067-.173-.06-.146-.125-.291-.191-.437-.023-.049-.044-.1-.069-.148-.073-.152-.151-.3-.231-.453-.022-.039-.041-.079-.063-.118-.09-.163-.186-.323-.285-.482-.015-.023-.029-.048-.044-.071q-.173-.272-.362-.534h0c-.172.312-.345.634-.518.979-7.462,14.8-60.935,33.993-68.689,36.644l0,.005a38.9,38.9,0,0,0,3.046,4.847s60.985-21.134,67.5-33.227a5.031,5.031,0,0,0,.22-.465C874.481,3680.864,874.5,3680.807,874.518,3680.754Z" transform="translate(-803.417 -3668.688)" fill="#2b2b4a"/>
            </g>
          </g>
        </g>
        <g id="Grupo_958715" data-name="Grupo 958715" transform="translate(17.774 53.573)">
          <path id="Trazado_658239" data-name="Trazado 658239" d="M830.087,3670.705l2.362-59.841a6.681,6.681,0,0,0-3.906-7.064,143.3,143.3,0,0,1-13.553-7.222h-16.2l-13.53,7.207a6.687,6.687,0,0,0-3.912,7.067l2.365,59.854Z" transform="translate(-759.729 -3596.578)" fill="#2b2b4a"/>
          <path id="Trazado_658240" data-name="Trazado 658240" d="M782.774,3640a99.315,99.315,0,0,0,4.4-13.963,53.353,53.353,0,0,0,.884-13.841c-.15-2.875-.793-5.573-2.519-7.488l-.279.148a6.687,6.687,0,0,0-3.912,7.066Z" transform="translate(-759.729 -3597.647)" fill="#05052d"/>
          <path id="Trazado_658241" data-name="Trazado 658241" d="M837.741,3640a99.423,99.423,0,0,1-4.4-13.963,53.361,53.361,0,0,1-.883-13.841c.149-2.875.793-5.573,2.519-7.488l.278.148a6.687,6.687,0,0,1,3.913,7.066Z" transform="translate(-766.449 -3597.647)" fill="#05052d"/>
          <path id="Trazado_658242" data-name="Trazado 658242" d="M813.594,3610.806q.07,1.933.14,3.865" transform="translate(-763.98 -3598.449)" fill="none" stroke="#fff" stroke-miterlimit="10" stroke-width="0.727" style="mix-blend-mode: soft-light;isolation: isolate"/>
          <g id="Grupo_958711" data-name="Grupo 958711" transform="translate(57.099 7.191)">
            <path id="Trazado_658243" data-name="Trazado 658243" d="M834.544,3668.661c2.215-1.412,13.1-17.186,13.1-17.186l-10.779-23.26,11.357-9.818s12.028,32.459,12.584,36.146c.662,4.4-14.606,14.038-21.152,19.8C839.655,3674.341,834.468,3668.71,834.544,3668.661Z" transform="translate(-823.835 -3606.64)" fill="#ffb999"/>
            <g id="Grupo_958709" data-name="Grupo 958709" transform="translate(0 61.98)">
              <path id="Trazado_658244" data-name="Trazado 658244" d="M837.594,3685.337a20.462,20.462,0,0,0-.676,6.253" transform="translate(-824.145 -3677.426)" fill="none" stroke="#ffb999" stroke-miterlimit="10" stroke-width="0.846"/>
              <path id="Trazado_658245" data-name="Trazado 658245" d="M831.418,3680.365a15.574,15.574,0,0,1-5.8,1.277" transform="translate(-822.66 -3676.771)" fill="none" stroke="#ff8663" stroke-miterlimit="10" stroke-width="0.846"/>
              <path id="Trazado_658246" data-name="Trazado 658246" d="M835.359,3676.227l-4.223,2.374a.853.853,0,0,0-.208,1.323l6.609,7.146,1.894-4.294Z" transform="translate(-823.33 -3676.227)" fill="#ffb999"/>
              <path id="Trazado_658247" data-name="Trazado 658247" d="M835.019,3684.1a22.486,22.486,0,0,0-3.032,9.911" transform="translate(-823.499 -3677.262)" fill="none" stroke="#ffb999" stroke-miterlimit="10" stroke-width="0.846"/>
              <path id="Trazado_658248" data-name="Trazado 658248" d="M832.528,3681.968a27.427,27.427,0,0,0-5.826,11.817" transform="translate(-822.804 -3676.982)" fill="none" stroke="#ffb999" stroke-miterlimit="10" stroke-width="0.846"/>
              <path id="Trazado_658249" data-name="Trazado 658249" d="M830.691,3680.5a33.842,33.842,0,0,0-8.478,7.347" transform="translate(-822.213 -3676.79)" fill="none" stroke="#ffb999" stroke-miterlimit="10" stroke-width="0.846"/>
            </g>
            <g id="Grupo_958710" data-name="Grupo 958710" transform="translate(7.393)">
              <path id="Trazado_658250" data-name="Trazado 658250" d="M834.816,3604.873c1.763.208,8.835,4.946,10.547,6.6,1.557,1.5,10.469,25.39,14.328,35.269,1.377,3.528,1.6,8.436-1.224,11.37-3.1,3.219-6.339,6.1-9.247,9.489a3.333,3.333,0,0,0-.736,1.149c-.324,1.081.492,2.294.068,3.34-.433,1.068-1.84,1.278-2.992,1.233a5.258,5.258,0,0,0-2.8.4c-.709.384-1.459,1.354-2.252.425a29.431,29.431,0,0,0-3.549-3.245,11.981,11.981,0,0,0-6.23-2.3c.516-.454,1.029-.91,1.548-1.361.27-.236,2.09-1.82,2.373-1.721a2.264,2.264,0,0,1-1.125-3.185c.648-1.041,1.995-1.332,3.152-1.735a10.9,10.9,0,0,0,5.53-4.435,18.4,18.4,0,0,0,1.361-3.221c.513-1.271,1.187-2.286,1.154-3.726-.068-3-1.5-5.648-2.778-8.278-3.128-6.446-5.919-13.05-9-19.52a17.783,17.783,0,0,1-1.91-9.878C831.272,3609.695,832.092,3604.554,834.816,3604.873Z" transform="translate(-830.726 -3604.859)" fill="#2b2b4a"/>
              <path id="Trazado_658251" data-name="Trazado 658251" d="M832.274,3676.42c.27-.236,2.09-1.819,2.365-1.724,4.538.112,9.189,3.842,11.23,7.815-.1,0-.208,0-.309,0a6.83,6.83,0,0,0-3.117.508,8.992,8.992,0,0,1-3.238.939,3.728,3.728,0,0,0-.54-2.5c-.714-1.121-2.212-1.8-3.364-2.387a12.083,12.083,0,0,0-2.3-.9c-.346-.1-2-.635-2.278-.387C831.242,3677.329,831.755,3676.872,832.274,3676.42Z" transform="translate(-830.726 -3614.045)" fill="#05052d"/>
            </g>
            <path id="Trazado_658252" data-name="Trazado 658252" d="M831.172,3604.948l12.32,7.494" transform="translate(-823.392 -3604.87)" fill="none" stroke="#50507c" stroke-miterlimit="10" stroke-width="1.454"/>
            <path id="Trazado_658253" data-name="Trazado 658253" d="M850.291,3622.584q3.236,8.357,6.472,16.712" transform="translate(-825.907 -3607.19)" fill="none" stroke="#50507c" stroke-miterlimit="10" stroke-width="1.454"/>
          </g>
          <g id="Grupo_958714" data-name="Grupo 958714" transform="translate(0 7.191)">
            <path id="Trazado_658254" data-name="Trazado 658254" d="M783.156,3668.661c-2.215-1.412-13.1-17.186-13.1-17.186l10.779-23.26-11.358-9.818s-12.028,32.459-12.583,36.146c-.662,4.4,14.6,14.038,21.151,19.8C778.044,3674.341,783.231,3668.71,783.156,3668.661Z" transform="translate(-756.518 -3606.64)" fill="#ffb999"/>
            <g id="Grupo_958712" data-name="Grupo 958712" transform="translate(21.245 61.98)">
              <path id="Trazado_658255" data-name="Trazado 658255" d="M783.98,3685.337a20.491,20.491,0,0,1,.677,6.253" transform="translate(-781.329 -3677.426)" fill="none" stroke="#ffb999" stroke-miterlimit="10" stroke-width="0.846"/>
              <path id="Trazado_658256" data-name="Trazado 658256" d="M789.384,3680.365a15.569,15.569,0,0,0,5.8,1.277" transform="translate(-782.04 -3676.771)" fill="none" stroke="#ff8663" stroke-miterlimit="10" stroke-width="0.846"/>
              <path id="Trazado_658257" data-name="Trazado 658257" d="M785,3676.227l4.224,2.374a.853.853,0,0,1,.208,1.323l-6.608,7.146-1.894-4.294Z" transform="translate(-780.928 -3676.227)" fill="#ffb999"/>
              <path id="Trazado_658258" data-name="Trazado 658258" d="M786.2,3684.1a22.5,22.5,0,0,1,3.033,9.911" transform="translate(-781.622 -3677.262)" fill="none" stroke="#ffb999" stroke-miterlimit="10" stroke-width="0.846"/>
              <path id="Trazado_658259" data-name="Trazado 658259" d="M788.271,3681.968a27.426,27.426,0,0,1,5.826,11.817" transform="translate(-781.894 -3676.982)" fill="none" stroke="#ffb999" stroke-miterlimit="10" stroke-width="0.846"/>
              <path id="Trazado_658260" data-name="Trazado 658260" d="M789.706,3680.5a33.854,33.854,0,0,1,8.478,7.347" transform="translate(-782.083 -3676.79)" fill="none" stroke="#ffb999" stroke-miterlimit="10" stroke-width="0.846"/>
            </g>
            <g id="Grupo_958713" data-name="Grupo 958713">
              <path id="Trazado_658261" data-name="Trazado 658261" d="M782.328,3604.873c-1.764.208-8.836,4.946-10.548,6.6-1.557,1.5-10.468,25.39-14.328,35.269-1.378,3.528-1.6,8.436,1.225,11.37,3.1,3.219,6.339,6.1,9.246,9.489a3.322,3.322,0,0,1,.737,1.149c.324,1.081-.492,2.294-.069,3.34.433,1.068,1.841,1.278,2.993,1.233a5.26,5.26,0,0,1,2.8.4c.709.384,1.459,1.354,2.251.425a29.488,29.488,0,0,1,3.55-3.245,11.978,11.978,0,0,1,6.229-2.3c-.515-.454-1.029-.91-1.547-1.361-.271-.236-2.09-1.82-2.373-1.721a2.264,2.264,0,0,0,1.125-3.185c-.648-1.041-1.995-1.332-3.153-1.735a10.9,10.9,0,0,1-5.529-4.435,18.41,18.41,0,0,1-1.361-3.221c-.513-1.271-1.187-2.286-1.155-3.726.069-3,1.5-5.648,2.778-8.278,3.128-6.446,5.92-13.05,9-19.52a17.783,17.783,0,0,0,1.91-9.878C785.872,3609.695,785.052,3604.554,782.328,3604.873Z" transform="translate(-756.465 -3604.859)" fill="#2b2b4a"/>
              <path id="Trazado_658262" data-name="Trazado 658262" d="M787.114,3676.42c-.271-.236-2.09-1.819-2.365-1.724-4.538.112-9.19,3.842-11.23,7.815.1,0,.208,0,.309,0a6.824,6.824,0,0,1,3.116.508,8.992,8.992,0,0,0,3.239.939,3.728,3.728,0,0,1,.54-2.5c.713-1.121,2.212-1.8,3.363-2.387a12.1,12.1,0,0,1,2.3-.9c.346-.1,2-.635,2.278-.387C788.145,3677.329,787.631,3676.872,787.114,3676.42Z" transform="translate(-758.708 -3614.045)" fill="#05052d"/>
            </g>
            <path id="Trazado_658263" data-name="Trazado 658263" d="M788.643,3604.948l-12.32,7.494" transform="translate(-759.077 -3604.87)" fill="none" stroke="#50507c" stroke-miterlimit="10" stroke-width="1.454"/>
            <path id="Trazado_658264" data-name="Trazado 658264" d="M770.41,3622.584l-6.472,16.712" transform="translate(-757.448 -3607.19)" fill="none" stroke="#50507c" stroke-miterlimit="10" stroke-width="1.454"/>
          </g>
        </g>
        <g id="Grupo_958716" data-name="Grupo 958716" transform="translate(42.885 3.437)">
          <path id="Trazado_658265" data-name="Trazado 658265" d="M829.649,3561.508c0,12.515-9.91,37.893-22.135,37.893s-22.135-25.378-22.135-37.893,9.911-22.661,22.135-22.661S829.649,3548.993,829.649,3561.508Z" transform="translate(-785.379 -3538.848)" fill="#05052d"/>
          <path id="Trazado_658266" data-name="Trazado 658266" d="M810.716,3607.664v7.174" transform="translate(-788.712 -3547.901)" fill="none" stroke="#05052d" stroke-miterlimit="10" stroke-width="4.363"/>
        </g>
        <g id="Grupo_958717" data-name="Grupo 958717" transform="translate(56.032 40.795)">
          <path id="Trazado_658267" data-name="Trazado 658267" d="M818.494,3598.27a1.468,1.468,0,0,1-.755,1.248c-1.784,1.066-6.257,3.617-8.234,3.627-2.022.01-6.472-2.555-8.242-3.626a1.468,1.468,0,0,1-.746-1.243v-16.412h17.976Z" transform="translate(-800.518 -3581.865)" fill="#ffb999"/>
          <path id="Trazado_658268" data-name="Trazado 658268" d="M800.518,3588.409c1.2,3.323,4.767,5.734,8.988,5.734h0c4.221,0,7.793-2.411,8.988-5.734v-6.544H800.518Z" transform="translate(-800.518 -3581.865)" fill="#ff8663"/>
        </g>
        <g id="Grupo_958728" data-name="Grupo 958728" transform="translate(45.294 9.47)">
          <g id="Grupo_958720" data-name="Grupo 958720" transform="translate(0 19.129)">
            <g id="Grupo_958718" data-name="Grupo 958718">
              <path id="Trazado_658269" data-name="Trazado 658269" d="M793.691,3572.862c.9,2.856.493,5.23-.9,5.3s-3.258-2.184-4.156-5.04-.493-5.231.9-5.3S792.793,3570.006,793.691,3572.862Z" transform="translate(-788.153 -3567.82)" fill="#ffb999"/>
              <path id="Trazado_658270" data-name="Trazado 658270" d="M789.475,3571.49a.888.888,0,0,1,1.021-1.252c.6.159.857.861,1.017,1.464q.276,1.044.553,2.087a.313.313,0,0,0-.407-.084.625.625,0,0,0-.268.36,1.292,1.292,0,0,0,1.251,1.715" transform="translate(-788.315 -3568.135)" fill="none" stroke="#ff8663" stroke-linecap="round" stroke-linejoin="round" stroke-width="1.106"/>
            </g>
            <g id="Grupo_958719" data-name="Grupo 958719" transform="translate(33.436)">
              <path id="Trazado_658271" data-name="Trazado 658271" d="M827.132,3572.862c-.9,2.856-.493,5.23.9,5.3s3.258-2.184,4.156-5.04.493-5.231-.9-5.3S828.03,3570.006,827.132,3572.862Z" transform="translate(-826.654 -3567.82)" fill="#ffb999"/>
              <path id="Trazado_658272" data-name="Trazado 658272" d="M832.037,3571.49a.888.888,0,0,0-1.02-1.252c-.6.159-.858.861-1.018,1.464l-.552,2.087a.312.312,0,0,1,.406-.084.624.624,0,0,1,.268.36,1.292,1.292,0,0,1-1.25,1.715" transform="translate(-826.946 -3568.135)" fill="none" stroke="#ff8663" stroke-linecap="round" stroke-linejoin="round" stroke-width="1.106"/>
            </g>
          </g>
          <g id="Grupo_958722" data-name="Grupo 958722" transform="translate(2.133)">
            <g id="Grupo_958721" data-name="Grupo 958721">
              <path id="Trazado_658273" data-name="Trazado 658273" d="M823.879,3570.536l1.5-7.359a17.383,17.383,0,0,0-17.384-17.383h0a17.383,17.383,0,0,0-17.384,17.383l1.5,7.359Z" transform="translate(-790.609 -3545.794)" fill="#05052d"/>
            </g>
            <path id="Trazado_658274" data-name="Trazado 658274" d="M824.2,3563.035a5.209,5.209,0,0,0-7.628-4.406,23.041,23.041,0,0,1-16.73,0,5.209,5.209,0,0,0-7.628,4.406c0,.032,0,.066,0,.1v9.566a16,16,0,0,0,15.994,15.994h0A15.994,15.994,0,0,0,824.2,3572.7v-9.566C824.2,3563.1,824.2,3563.067,824.2,3563.035Z" transform="translate(-790.82 -3547.406)" fill="#ffb999"/>
          </g>
          <g id="Grupo_958727" data-name="Grupo 958727" transform="translate(3.523 18.367)">
            <path id="Trazado_658275" data-name="Trazado 658275" d="M807.572,3571.011l1.287,1.09a.881.881,0,0,1,.379.885c.01,2.287.03,4.811.03,4.811" transform="translate(-794.23 -3567.478)" fill="none" stroke="#ff8663" stroke-linecap="round" stroke-linejoin="round" stroke-width="1.106"/>
            <path id="Trazado_658276" data-name="Trazado 658276" d="M792.209,3566.943v5.906a7.267,7.267,0,0,0,1.311,1.846,9.191,9.191,0,0,0,7.848,2.538c3.6-.671,5.08-3.238,5.536-6.272a1.319,1.319,0,0,1,1.3-1.135h0a1.32,1.32,0,0,1,1.3,1.135c.456,3.034,1.936,5.6,5.535,6.272a9.191,9.191,0,0,0,7.848-2.538,7.248,7.248,0,0,0,1.311-1.846v-5.906Z" transform="translate(-792.209 -3566.943)" fill="#05052d"/>
            <g id="Grupo_958725" data-name="Grupo 958725" transform="translate(4.823 1.937)">
              <g id="Grupo_958723" data-name="Grupo 958723">
                <ellipse id="Elipse_5686" data-name="Elipse 5686" cx="1.177" cy="1.918" rx="1.177" ry="1.918" transform="translate(1.763 1.219)" fill="#fff"/>
                <path id="Trazado_658277" data-name="Trazado 658277" d="M797.763,3569.174a13.611,13.611,0,0,0,5.767,1.281" transform="translate(-797.763 -3569.174)" fill="none" stroke="#fff" stroke-linecap="round" stroke-linejoin="round" stroke-width="1.659"/>
              </g>
              <g id="Grupo_958724" data-name="Grupo 958724" transform="translate(16.73)">
                <path id="Trazado_658278" data-name="Trazado 658278" d="M820.771,3572.5c0,1.059-.527,1.918-1.178,1.918s-1.177-.859-1.177-1.918.527-1.918,1.177-1.918S820.771,3571.436,820.771,3572.5Z" transform="translate(-817.21 -3569.359)" fill="#fff"/>
                <path id="Trazado_658279" data-name="Trazado 658279" d="M822.794,3569.174a13.611,13.611,0,0,1-5.767,1.281" transform="translate(-817.027 -3569.174)" fill="none" stroke="#fff" stroke-linecap="round" stroke-linejoin="round" stroke-width="1.659"/>
              </g>
            </g>
            <g id="Grupo_958726" data-name="Grupo 958726" transform="translate(10.782 13.308)">
              <path id="Trazado_658280" data-name="Trazado 658280" d="M804.624,3582.267c.08,2.43,2.393,4.382,5.251,4.382s5.171-1.952,5.25-4.382Z" transform="translate(-804.624 -3582.267)" fill="#fff"/>
              <path id="Trazado_658281" data-name="Trazado 658281" d="M811.887,3584.273v.44h3.441a4.269,4.269,0,0,0,.279-.44Z" transform="translate(-805.58 -3582.531)" fill="#e6e6e6"/>
              <path id="Trazado_658282" data-name="Trazado 658282" d="M808.318,3584.273h-3.149a4.277,4.277,0,0,0,.28.44h2.869Z" transform="translate(-804.696 -3582.531)" fill="#e6e6e6"/>
            </g>
          </g>
          <path id="Trazado_658283" data-name="Trazado 658283" d="M826.223,3564.924a2.476,2.476,0,0,0-1.689.808l.519-2.555a17.383,17.383,0,0,0-17.384-17.383h0a17.383,17.383,0,0,0-17.384,17.383l.439,2.158a2,2,0,0,0-1.191-.411c-1.4.073-1.8,2.447-.9,5.3a11.521,11.521,0,0,0,1.407,2.95c4.042-3.812,10.431-6.279,17.632-6.279,7.357,0,13.86,2.577,17.886,6.531a11.374,11.374,0,0,0,1.572-3.2C828.025,3567.372,827.62,3565,826.223,3564.924Z" transform="translate(-788.153 -3545.794)" fill="#a67060" style="mix-blend-mode: multiply;isolation: isolate"/>
          <path id="Trazado_658284" data-name="Trazado 658284" d="M797.51,3586.739a13.5,13.5,0,0,0,5.078,3.748" transform="translate(-789.384 -3551.18)" fill="none" stroke="#9d46ff" stroke-miterlimit="10" stroke-width="0.727" style="mix-blend-mode: overlay;isolation: isolate"/>
          <path id="Trazado_658285" data-name="Trazado 658285" d="M817.225,3590.93a10.859,10.859,0,0,0,4.088-2.607" transform="translate(-791.977 -3551.389)" fill="none" stroke="#9d46ff" stroke-miterlimit="10" stroke-width="0.727" style="mix-blend-mode: overlay;isolation: isolate"/>
        </g>
        <g id="Grupo_958730" data-name="Grupo 958730" transform="translate(42.885)">
          <g id="Grupo_958729" data-name="Grupo 958729">
            <path id="Trazado_658286" data-name="Trazado 658286" d="M807.514,3555.838c10.306,0,18.966,5.043,21.432,11.869a37.287,37.287,0,0,0,.7-6.7c0-12.525-9.91-26.115-22.135-26.115s-22.135,13.591-22.135,26.115a37.211,37.211,0,0,0,.7,6.7C788.548,3560.881,797.208,3555.838,807.514,3555.838Z" transform="translate(-785.379 -3534.89)" fill="#2b2b4a"/>
          </g>
          <path id="Trazado_658287" data-name="Trazado 658287" d="M817.921,3558.381a22.973,22.973,0,0,1,12.084,5.6" transform="translate(-789.66 -3537.98)" fill="none" stroke="#9d46ff" stroke-miterlimit="10" stroke-width="0.727" style="mix-blend-mode: overlay;isolation: isolate"/>
          <path id="Trazado_658288" data-name="Trazado 658288" d="M792.545,3563.029a25.95,25.95,0,0,1,11.356-4.523" transform="translate(-786.322 -3537.997)" fill="none" stroke="#9d46ff" stroke-miterlimit="10" stroke-width="0.727" style="mix-blend-mode: overlay;isolation: isolate"/>
          <path id="Trazado_658289" data-name="Trazado 658289" d="M814.883,3536.8a21.3,21.3,0,0,1,12.941,10.467" transform="translate(-789.26 -3535.141)" fill="none" stroke="#50507c" stroke-miterlimit="10" stroke-width="1.454"/>
        </g>
      </g>
      <g id="Grupo_958757" data-name="Grupo 958757">
        <g id="Grupo_958755" data-name="Grupo 958755" transform="translate(4.962 15.26)">
          <path id="Trazado_658290" data-name="Trazado 658290" d="M567.147,3637.128a9.249,9.249,0,0,0,2.505-2.614,2.9,2.9,0,0,1,.124.3c.625,1.823,1.827,4.461.922,6.337a1.913,1.913,0,0,1-3.164,1.067l-.033-.038a4.708,4.708,0,0,1-1.9-2.649c-.18-.46-.35-.922-.517-1.387A8.287,8.287,0,0,0,567.147,3637.128Z" transform="translate(-508.699 -3538.731)" fill="rgba(166,52,255,0.4)" stroke="#a634ff" stroke-miterlimit="10" stroke-width="1"/>
          <g id="Grupo_958732" data-name="Grupo 958732">
            <path id="Trazado_658291" data-name="Trazado 658291" d="M761.174,3654.378c-14.012-27.354-29.974-54.074-51.161-76.543-19.834-21.036-44.406-38.705-72.065-47.729a113.541,113.541,0,0,0-42.44-5.664,115.621,115.621,0,0,0-37.817,9.409c-22.31,9.521-43.169,25.919-52.625,48.81-4.977,12.051-7.568,28.8-.88,40.7a19.144,19.144,0,0,0,18.785,9.961c9.574-1.039,18.162-6,26.357-10.723a7.991,7.991,0,0,0,.695-.448,1.045,1.045,0,0,0,.165.309c1.975,2.5,6.116,1.757,8.417.162a9.439,9.439,0,0,0,3.793-5.687,6.532,6.532,0,0,1,1.528,2.423c.737,2.163.25,4.3.21,6.545-.03,1.7,1.988,2.031,3.046,1.125,2.531-2.167,2.585-6.487,1.4-9.4a12.509,12.509,0,0,0-5.143-6.083c-3.192-1.849-7.548-4.149-9.329-4.511a11.014,11.014,0,0,0-6.2.27,30.657,30.657,0,0,0-8.031,4.6,50.657,50.657,0,0,1-9.3,4.914c-3,1.311-6.965,3.022-10.309,2.624-5.074-.605-5.8-7.972-5.892-11.9-.362-14.583,6.289-28.365,16.123-38.845,9.272-9.881,21.1-17.154,33.5-22.443l.032-.013a95.457,95.457,0,0,1,68.417-3.212c24.487,7.591,46.214,22.958,64.127,41.029,22.13,22.324,38.278,49.574,52.523,77.384,1.721,3.361,6.439,4.339,9.569,2.509A7.127,7.127,0,0,0,761.174,3654.378Z" transform="translate(-500.158 -3524.221)" fill="#a634ff" opacity="0.4"/>
            <path id="Trazado_658292" data-name="Trazado 658292" d="M761.174,3654.378c-14.012-27.354-29.974-54.074-51.161-76.543-19.834-21.036-44.406-38.705-72.065-47.729a113.541,113.541,0,0,0-42.44-5.664,115.621,115.621,0,0,0-37.817,9.409c-22.31,9.521-43.169,25.919-52.625,48.81-4.977,12.051-7.568,28.8-.88,40.7a19.144,19.144,0,0,0,18.785,9.961c9.574-1.039,18.162-6,26.357-10.723a7.991,7.991,0,0,0,.695-.448,1.045,1.045,0,0,0,.165.309c1.975,2.5,6.116,1.757,8.417.162a9.439,9.439,0,0,0,3.793-5.687,6.532,6.532,0,0,1,1.528,2.423c.737,2.163.25,4.3.21,6.545-.03,1.7,1.988,2.031,3.046,1.125,2.531-2.167,2.585-6.487,1.4-9.4a12.509,12.509,0,0,0-5.143-6.083c-3.192-1.849-7.548-4.149-9.329-4.511a11.014,11.014,0,0,0-6.2.27,30.657,30.657,0,0,0-8.031,4.6,50.657,50.657,0,0,1-9.3,4.914c-3,1.311-6.965,3.022-10.309,2.624-5.074-.605-5.8-7.972-5.892-11.9-.362-14.583,6.289-28.365,16.123-38.845,9.272-9.881,21.1-17.154,33.5-22.443l.032-.013a95.457,95.457,0,0,1,68.417-3.212c24.487,7.591,46.214,22.958,64.127,41.029,22.13,22.324,38.278,49.574,52.523,77.384,1.721,3.361,6.439,4.339,9.569,2.509A7.127,7.127,0,0,0,761.174,3654.378Z" transform="translate(-500.158 -3524.221)" opacity="0.5"/>
            <path id="Trazado_658293" data-name="Trazado 658293" d="M761.174,3654.378c-14.012-27.354-29.974-54.074-51.161-76.543-19.834-21.036-44.406-38.705-72.065-47.729a113.541,113.541,0,0,0-42.44-5.664,115.621,115.621,0,0,0-37.817,9.409c-22.31,9.521-43.169,25.919-52.625,48.81-4.977,12.051-7.568,28.8-.88,40.7a19.144,19.144,0,0,0,18.785,9.961c9.574-1.039,18.162-6,26.357-10.723a7.991,7.991,0,0,0,.695-.448,1.045,1.045,0,0,0,.165.309c1.975,2.5,6.116,1.757,8.417.162a9.439,9.439,0,0,0,3.793-5.687,6.532,6.532,0,0,1,1.528,2.423c.737,2.163.25,4.3.21,6.545-.03,1.7,1.988,2.031,3.046,1.125,2.531-2.167,2.585-6.487,1.4-9.4a12.509,12.509,0,0,0-5.143-6.083c-3.192-1.849-7.548-4.149-9.329-4.511a11.014,11.014,0,0,0-6.2.27,30.657,30.657,0,0,0-8.031,4.6,50.657,50.657,0,0,1-9.3,4.914c-3,1.311-6.965,3.022-10.309,2.624-5.074-.605-5.8-7.972-5.892-11.9-.362-14.583,6.289-28.365,16.123-38.845,9.272-9.881,21.1-17.154,33.5-22.443l.032-.013a95.457,95.457,0,0,1,68.417-3.212c24.487,7.591,46.214,22.958,64.127,41.029,22.13,22.324,38.278,49.574,52.523,77.384,1.721,3.361,6.439,4.339,9.569,2.509A7.127,7.127,0,0,0,761.174,3654.378Z" transform="translate(-500.158 -3524.221)" fill="none" stroke="#a634ff" stroke-miterlimit="10" stroke-width="1"/>
          </g>
          <path id="Trazado_658294" data-name="Trazado 658294" d="M565.984,3628.587a7.488,7.488,0,0,1-7.652,6.723,5.128,5.128,0,0,1-4.513-2.179" transform="translate(-507.217 -3537.951)" fill="none" stroke="#a634ff" stroke-linecap="round" stroke-linejoin="round" stroke-width="1"/>
          <path id="Trazado_658295" data-name="Trazado 658295" d="M560.237,3625.763a7.893,7.893,0,0,1-4.073,6.229,4.912,4.912,0,0,1-3.775.522,3.345,3.345,0,0,1-1.92-1.7,1.574,1.574,0,0,1,1.217-2.157,3.092,3.092,0,0,0,2.612-2.951" transform="translate(-506.76 -3537.571)" fill="none" stroke="#a634ff" stroke-linecap="round" stroke-linejoin="round" stroke-width="1"/>
          <g id="Grupo_958754" data-name="Grupo 958754" transform="translate(43.417 91.73)">
            <g id="Grupo_958753" data-name="Grupo 958753" clip-path="url(#clip-path)">
              <g id="Grupo_958752" data-name="Grupo 958752" transform="translate(1.306 1.028)">
                <rect id="Rectángulo_45516" data-name="Rectángulo 45516" width="24.092" height="32.374" rx="5.1" transform="matrix(0.463, 0.886, -0.886, 0.463, 28.696, 0)" fill="rgba(255,255,255,0.5)" stroke="#a634ff" stroke-miterlimit="10" stroke-width="1"/>
                <g id="Grupo_958751" data-name="Grupo 958751" transform="translate(7.04 10.46)">
                  <g id="Grupo_958738" data-name="Grupo 958738" transform="translate(16.258)">
                    <g id="Grupo_958737" data-name="Grupo 958737">
                      <g id="Grupo_958733" data-name="Grupo 958733">
                        <path id="Trazado_658296" data-name="Trazado 658296" d="M584.644,3651.019a4.21,4.21,0,1,1,1.783-5.681A4.211,4.211,0,0,1,584.644,3651.019Z" transform="translate(-578.484 -3643.075)" fill="#a634ff"/>
                      </g>
                      <g id="Grupo_958736" data-name="Grupo 958736" transform="translate(2.038 2.969)">
                        <g id="Grupo_958734" data-name="Grupo 958734" transform="translate(0 0.42)">
                          <path id="Trazado_658297" data-name="Trazado 658297" d="M582.167,3649.866l-1.337-2.56.314-.165a1.444,1.444,0,0,1,1.949.612h0a1.444,1.444,0,0,1-.611,1.948Z" transform="translate(-580.83 -3646.977)" fill="#fff"/>
                        </g>
                        <g id="Grupo_958735" data-name="Grupo 958735" transform="translate(2.077)">
                          <path id="Trazado_658298" data-name="Trazado 658298" d="M584.464,3648.1a.849.849,0,1,1,.359-1.145A.848.848,0,0,1,584.464,3648.1Z" transform="translate(-583.222 -3646.494)" fill="#fff"/>
                        </g>
                      </g>
                    </g>
                  </g>
                  <g id="Grupo_958739" data-name="Grupo 958739" transform="translate(0 8.354)">
                    <path id="Trazado_658299" data-name="Trazado 658299" d="M563.226,3661.13l-3.3-6.315a1.449,1.449,0,0,1,.613-1.956h0a1.45,1.45,0,0,1,1.957.614l3.3,6.315a1.449,1.449,0,0,1-.614,1.956h0A1.449,1.449,0,0,1,563.226,3661.13Z" transform="translate(-559.763 -3652.694)" fill="#a634ff"/>
                  </g>
                  <g id="Grupo_958744" data-name="Grupo 958744" transform="translate(6.425 1.736)">
                    <g id="Grupo_958740" data-name="Grupo 958740" transform="translate(0 0)">
                      <rect id="Rectángulo_45517" data-name="Rectángulo 45517" width="2.899" height="14.194" transform="translate(0 1.342) rotate(-27.575)" fill="none" stroke="#a634ff" stroke-miterlimit="10" stroke-width="1"/>
                    </g>
                    <g id="Grupo_958743" data-name="Grupo 958743" transform="translate(1.324 1.83)">
                      <g id="Grupo_958741" data-name="Grupo 958741" transform="translate(0 0.12)">
                        <path id="Trazado_658300" data-name="Trazado 658300" d="M568.988,3648.074l-.29-.555a.112.112,0,0,1,.047-.151h0a.419.419,0,0,1,.564.177l.006.012a.417.417,0,0,1-.177.563h0A.111.111,0,0,1,568.988,3648.074Z" transform="translate(-568.685 -3647.321)" fill="#a634ff"/>
                      </g>
                      <g id="Grupo_958742" data-name="Grupo 958742" transform="translate(0.572)">
                        <path id="Trazado_658301" data-name="Trazado 658301" d="M569.71,3647.653a.25.25,0,1,1,.106-.337A.25.25,0,0,1,569.71,3647.653Z" transform="translate(-569.344 -3647.182)" fill="#a634ff"/>
                      </g>
                    </g>
                  </g>
                  <g id="Grupo_958749" data-name="Grupo 958749" transform="translate(2.448 3.813)">
                    <g id="Grupo_958745" data-name="Grupo 958745" transform="translate(0 0)">
                      <rect id="Rectángulo_45518" data-name="Rectángulo 45518" width="2.899" height="14.194" transform="translate(0 1.342) rotate(-27.575)" fill="none" stroke="#a634ff" stroke-miterlimit="10" stroke-width="1"/>
                    </g>
                    <g id="Grupo_958748" data-name="Grupo 958748" transform="translate(1.319 1.661)">
                      <g id="Grupo_958746" data-name="Grupo 958746" transform="translate(0 0.073)">
                        <rect id="Rectángulo_45519" data-name="Rectángulo 45519" width="0.925" height="0.529" transform="translate(0.469 0) rotate(62.425)" fill="#a634ff"/>
                      </g>
                      <g id="Grupo_958747" data-name="Grupo 958747" transform="translate(0.371)">
                        <path id="Trazado_658302" data-name="Trazado 658302" d="M564.957,3650.328l-.116-.223.144-.075a.212.212,0,0,0-.2-.375l-.144.074-.116-.222.145-.076a.463.463,0,0,1,.428.821Z" transform="translate(-564.528 -3649.379)" fill="#a634ff"/>
                      </g>
                    </g>
                  </g>
                  <g id="Grupo_958750" data-name="Grupo 958750" transform="translate(11.564 0.242)">
                    <line id="Línea_262" data-name="Línea 262" x2="4.247" y2="8.132" transform="translate(0 2.984)" fill="none" stroke="#a634ff" stroke-miterlimit="10" stroke-width="1"/>
                    <line id="Línea_263" data-name="Línea 263" x2="6.571" y2="12.582" transform="translate(0.292)" fill="none" stroke="#a634ff" stroke-miterlimit="10" stroke-width="1"/>
                  </g>
                </g>
              </g>
            </g>
          </g>
        </g>
        <rect id="Rectángulo_45520" data-name="Rectángulo 45520" width="24.092" height="32.374" rx="5.1" transform="matrix(0.463, 0.886, -0.886, 0.463, 78.382, 108.019)" fill="rgba(255,255,255,0.5)" stroke="#a634ff" stroke-miterlimit="10" stroke-width="1"/>
        <g id="Grupo_958756" data-name="Grupo 958756">
          <path id="Trazado_658304" data-name="Trazado 658304" d="M496.454,3633.873a23.023,23.023,0,0,0,16.421,18.072" transform="translate(-494.709 -3523.387)" fill="none" stroke="#fff" stroke-linecap="round" stroke-linejoin="round" stroke-width="1"/>
          <path id="Trazado_658305" data-name="Trazado 658305" d="M494.445,3602.736a72.409,72.409,0,0,1,11.336-32.015" transform="translate(-494.445 -3515.079)" fill="none" stroke="#fff" stroke-linecap="round" stroke-linejoin="round" stroke-width="1"/>
          <path id="Trazado_658306" data-name="Trazado 658306" d="M523.918,3617.674a30.625,30.625,0,0,1,2.6-12.989" transform="translate(-498.321 -3519.547)" fill="none" stroke="#fff" stroke-linecap="round" stroke-linejoin="round" stroke-width="1"/>
          <path id="Trazado_658307" data-name="Trazado 658307" d="M542.649,3519.7a95.3,95.3,0,0,1,28.546-13.048" transform="translate(-500.786 -3506.65)" fill="none" stroke="#fff" stroke-linecap="round" stroke-linejoin="round" stroke-width="1"/>
          <path id="Trazado_658308" data-name="Trazado 658308" d="M682.21,3515.435a65.259,65.259,0,0,1,23.967,12.16" transform="translate(-519.146 -3507.806)" fill="none" stroke="#fff" stroke-linecap="round" stroke-linejoin="round" stroke-width="1"/>
          <path id="Trazado_658309" data-name="Trazado 658309" d="M692.262,3576.925a97.66,97.66,0,0,1,15.76,13.99" transform="translate(-520.468 -3515.895)" fill="none" stroke="#fff" stroke-linecap="round" stroke-linejoin="round" stroke-width="1"/>
          <path id="Trazado_658310" data-name="Trazado 658310" d="M753.785,3576.425a99.86,99.86,0,0,1,20.5,25.531" transform="translate(-528.562 -3515.829)" fill="none" stroke="#fff" stroke-linecap="round" stroke-linejoin="round" stroke-width="1"/>
        </g>
      </g>
      <g id="Grupo_958759" data-name="Grupo 958759" transform="translate(203.65 71.346)">
        <path id="Trazado_658311" data-name="Trazado 658311" d="M867.254,3588.8H728.944l35.186,66.575h67.938Z" transform="translate(-728.944 -3588.803)" fill="url(#radial-gradient-2)"/>
        <g id="Grupo_958758" data-name="Grupo 958758" transform="translate(34.368 60.232)">
          <path id="Trazado_658312" data-name="Trazado 658312" d="M772.145,3704.533c-.013.082-.039.16-.046.244a3.963,3.963,0,0,0,3.947,4.32H831.5a3.963,3.963,0,0,0,3.947-4.32c-.007-.084-.033-.162-.046-.244Z" transform="translate(-768.987 -3664.26)" fill="#8c8c8c"/>
          <path id="Trazado_658313" data-name="Trazado 658313" d="M830.869,3701.009H775.741a4.223,4.223,0,0,1-4.111-3.81l-3.09-34.345c-.233-2.579,1.472-4.7,3.81-4.7H834.26c2.338,0,4.042,2.116,3.81,4.7l-3.09,34.345A4.223,4.223,0,0,1,830.869,3701.009Z" transform="translate(-768.519 -3658.159)" fill="#bababa"/>
          <path id="Trazado_658314" data-name="Trazado 658314" d="M838.164,3658.159H798.2l40.336,40.336a4.049,4.049,0,0,0,.353-1.3l3.09-34.345C842.206,3660.275,840.5,3658.159,838.164,3658.159Z" transform="translate(-772.423 -3658.159)" fill="#d1d1d1"/>
          <path id="Trazado_658315" data-name="Trazado 658315" d="M812.067,3683.592a4.126,4.126,0,1,1-4.117-4.406A4.239,4.239,0,0,1,812.067,3683.592Z" transform="translate(-773.164 -3660.925)" fill="#fff"/>
        </g>
      </g>
    </g>
    <g id="Grupo_958761" data-name="Grupo 958761" transform="translate(624.923 3570.069)">
      <path id="Trazado_658316" data-name="Trazado 658316" d="M662.663,3598.27a1.467,1.467,0,0,1-.754,1.248c-1.784,1.066-6.257,3.617-8.234,3.627-2.022.01-6.473-2.555-8.242-3.626a1.468,1.468,0,0,1-.746-1.243v-16.412h17.975Z" transform="translate(-644.688 -3581.865)" fill="#ffb999"/>
      <path id="Trazado_658317" data-name="Trazado 658317" d="M644.688,3588.409c1.2,3.323,4.767,5.734,8.988,5.734h0c4.221,0,7.793-2.411,8.988-5.734v-6.544H644.688Z" transform="translate(-644.688 -3581.865)" fill="#ff8663"/>
    </g>
    <g id="Grupo_958770" data-name="Grupo 958770" transform="translate(542.586 3492.196)">
      <g id="Grupo_958763" data-name="Grupo 958763" transform="translate(0 66.01)">
        <rect id="Rectángulo_45521" data-name="Rectángulo 45521" width="58.196" height="20.565" fill="rgba(255,255,255,0.5)" stroke="#a634ff" stroke-miterlimit="10" stroke-width="1"/>
        <g id="Grupo_958762" data-name="Grupo 958762" transform="translate(6.512 2.885)">
          <circle id="Elipse_5687" data-name="Elipse 5687" cx="8.065" cy="8.065" r="8.065" fill="#a634ff"/>
          <path id="Trazado_658318" data-name="Trazado 658318" d="M569.684,3583.719l-.222-.588a1.877,1.877,0,0,0-1.018-1.038l-1.482-.651a.454.454,0,0,1-.285-.41v-.386a3.211,3.211,0,0,0,1.135-2.254,1.7,1.7,0,0,0-3.376,0,3.212,3.212,0,0,0,1.136,2.254v.386a.455.455,0,0,1-.285.41l-1.483.651a1.873,1.873,0,0,0-1.017,1.038l-.223.588Z" transform="translate(-558.059 -3572.231)" fill="#fff"/>
          <circle id="Elipse_5688" data-name="Elipse 5688" cx="1.179" cy="1.179" r="1.179" transform="translate(15.037)" fill="#fff"/>
          <rect id="Rectángulo_45522" data-name="Rectángulo 45522" width="23.767" height="3.987" transform="translate(21.404 3.152)" fill="#fff"/>
          <rect id="Rectángulo_45523" data-name="Rectángulo 45523" width="15.821" height="2.188" transform="translate(21.404 10.164)" fill="#fff"/>
        </g>
      </g>
      <g id="Grupo_958765" data-name="Grupo 958765" transform="translate(38.531)">
        <rect id="Rectángulo_45524" data-name="Rectángulo 45524" width="58.196" height="20.565" fill="rgba(255,255,255,0.5)" stroke="#a634ff" stroke-miterlimit="10" stroke-width="1"/>
        <g id="Grupo_958764" data-name="Grupo 958764" transform="translate(6.512 2.885)">
          <circle id="Elipse_5689" data-name="Elipse 5689" cx="8.065" cy="8.065" r="8.065" fill="#a634ff"/>
          <path id="Trazado_658319" data-name="Trazado 658319" d="M614.052,3507.709l-.222-.588a1.878,1.878,0,0,0-1.018-1.038l-1.482-.65a.453.453,0,0,1-.285-.41v-.386a3.212,3.212,0,0,0,1.135-2.254,1.7,1.7,0,0,0-3.376,0,3.213,3.213,0,0,0,1.136,2.254v.386a.455.455,0,0,1-.285.41l-1.483.65a1.877,1.877,0,0,0-1.017,1.038l-.223.588Z" transform="translate(-602.427 -3496.222)" fill="#fff"/>
          <circle id="Elipse_5690" data-name="Elipse 5690" cx="1.179" cy="1.179" r="1.179" transform="translate(15.037)" fill="#fff"/>
          <rect id="Rectángulo_45525" data-name="Rectángulo 45525" width="15.907" height="3.987" transform="translate(21.404 3.152)" fill="#fff"/>
          <rect id="Rectángulo_45526" data-name="Rectángulo 45526" width="22.043" height="2.188" transform="translate(21.404 10.164)" fill="#fff"/>
        </g>
      </g>
      <g id="Grupo_958767" data-name="Grupo 958767" transform="translate(149.348 5.473)">
        <rect id="Rectángulo_45527" data-name="Rectángulo 45527" width="40.561" height="54.179" fill="rgba(255,255,255,0.5)" stroke="#a634ff" stroke-miterlimit="10" stroke-width="1.355"/>
        <g id="Grupo_958766" data-name="Grupo 958766" transform="translate(2.109 3.35)">
          <circle id="Elipse_5691" data-name="Elipse 5691" cx="13.016" cy="13.016" r="13.016" transform="translate(0 21.196) rotate(-54.511)" fill="#a634ff"/>
          <path id="Trazado_658320" data-name="Trazado 658320" d="M751.173,3529.6a.582.582,0,0,1-.544-.377l-.448-1.183a3.213,3.213,0,0,0-1.736-1.76l-2.984-1.309a1.5,1.5,0,0,1-.921-1.358v-.776a.584.584,0,0,1,.256-.482,5.893,5.893,0,0,0,2.029-4.054,2.837,2.837,0,0,0-5.627,0,5.891,5.891,0,0,0,2.028,4.054.582.582,0,0,1,.257.482v.776a1.5,1.5,0,0,1-.922,1.358l-2.984,1.309a3.215,3.215,0,0,0-1.736,1.76l-.447,1.183a.583.583,0,0,1-1.09-.413l.447-1.183a4.386,4.386,0,0,1,2.358-2.416l2.984-1.309a.336.336,0,0,0,.224-.291v-.484a7.246,7.246,0,0,1-2.285-4.829,4,4,0,0,1,7.958,0,7.242,7.242,0,0,1-2.285,4.829v.484a.337.337,0,0,0,.225.291l2.983,1.308a4.383,4.383,0,0,1,2.358,2.416l.448,1.183a.583.583,0,0,1-.339.751A.573.573,0,0,1,751.173,3529.6Z" transform="translate(-725.855 -3503.974)" fill="#fff"/>
          <rect id="Rectángulo_45528" data-name="Rectángulo 45528" width="26.669" height="3.572" transform="translate(4.837 33.986)" fill="#fff"/>
          <rect id="Rectángulo_45529" data-name="Rectángulo 45529" width="16.192" height="2.143" transform="translate(10.075 39.304)" fill="#fff"/>
        </g>
      </g>
      <g id="Grupo_958769" data-name="Grupo 958769" transform="translate(254.477 63.119)">
        <rect id="Rectángulo_45530" data-name="Rectángulo 45530" width="40.561" height="54.179" fill="rgba(255,255,255,0.5)" stroke="#a634ff" stroke-miterlimit="10" stroke-width="1.355"/>
        <g id="Grupo_958768" data-name="Grupo 958768" transform="translate(1.856 3.097)">
          <circle id="Elipse_5692" data-name="Elipse 5692" cx="13.016" cy="13.016" r="13.016" transform="translate(0 18.408) rotate(-45)" fill="#a634ff"/>
          <path id="Trazado_658321" data-name="Trazado 658321" d="M872.227,3595.977a.582.582,0,0,1-.544-.377l-.448-1.183a3.212,3.212,0,0,0-1.736-1.76l-2.984-1.309a1.5,1.5,0,0,1-.921-1.359v-.775a.581.581,0,0,1,.256-.483,5.891,5.891,0,0,0,2.029-4.054,2.838,2.838,0,0,0-5.627,0,5.892,5.892,0,0,0,2.029,4.054.581.581,0,0,1,.256.483v.775a1.5,1.5,0,0,1-.921,1.358l-2.984,1.31a3.212,3.212,0,0,0-1.736,1.76l-.448,1.183a.583.583,0,1,1-1.09-.412L857.8,3594a4.389,4.389,0,0,1,2.358-2.415l2.984-1.309a.336.336,0,0,0,.224-.291v-.484a7.241,7.241,0,0,1-2.285-4.829,4,4,0,0,1,7.958,0,7.241,7.241,0,0,1-2.285,4.829v.484a.337.337,0,0,0,.224.292l2.984,1.308a4.389,4.389,0,0,1,2.358,2.415l.448,1.184a.583.583,0,0,1-.339.751A.572.572,0,0,1,872.227,3595.977Z" transform="translate(-846.656 -3570.1)" fill="#fff"/>
          <rect id="Rectángulo_45531" data-name="Rectángulo 45531" width="26.669" height="3.572" transform="translate(5.09 34.239)" fill="#fff"/>
          <rect id="Rectángulo_45532" data-name="Rectángulo 45532" width="16.192" height="2.143" transform="translate(10.328 39.557)" fill="#fff"/>
        </g>
      </g>
    </g>
    <path id="Trazado_658322" data-name="Trazado 658322" d="M559.511,3517.536" transform="translate(-8.56 -3.333)" fill="none" stroke="#fff" stroke-linecap="round" stroke-linejoin="round" stroke-width="1"/>
    <g id="Grupo_958776" data-name="Grupo 958776" transform="translate(614.185 3529.896)">
      <g id="Grupo_958773" data-name="Grupo 958773" transform="translate(0 27.976)">
        <g id="Grupo_958771" data-name="Grupo 958771">
          <path id="Trazado_658323" data-name="Trazado 658323" d="M637.861,3572.862c.9,2.856.493,5.23-.9,5.3s-3.258-2.184-4.156-5.04-.493-5.231.9-5.3S636.963,3570.006,637.861,3572.862Z" transform="translate(-632.323 -3567.82)" fill="#ffb999"/>
          <path id="Trazado_658324" data-name="Trazado 658324" d="M633.645,3571.49a.888.888,0,0,1,1.021-1.252c.6.159.857.861,1.017,1.464q.276,1.044.553,2.087a.313.313,0,0,0-.407-.084.624.624,0,0,0-.268.36,1.292,1.292,0,0,0,1.251,1.715" transform="translate(-632.485 -3568.135)" fill="none" stroke="#ff8663" stroke-linecap="round" stroke-linejoin="round" stroke-width="1.106"/>
        </g>
        <g id="Grupo_958772" data-name="Grupo 958772" transform="translate(33.436)">
          <path id="Trazado_658325" data-name="Trazado 658325" d="M671.3,3572.862c-.9,2.856-.493,5.23.9,5.3s3.258-2.184,4.156-5.04.493-5.231-.9-5.3S672.2,3570.006,671.3,3572.862Z" transform="translate(-670.824 -3567.82)" fill="#ffb999"/>
          <path id="Trazado_658326" data-name="Trazado 658326" d="M676.207,3571.49a.888.888,0,0,0-1.02-1.252c-.6.159-.858.861-1.018,1.464l-.552,2.087a.312.312,0,0,1,.406-.084.625.625,0,0,1,.268.36,1.292,1.292,0,0,1-1.251,1.715" transform="translate(-671.116 -3568.135)" fill="none" stroke="#ff8663" stroke-linecap="round" stroke-linejoin="round" stroke-width="1.106"/>
        </g>
      </g>
      <path id="Trazado_658327" data-name="Trazado 658327" d="M668.416,3562.946a17.652,17.652,0,0,0-2.046-7.939,16.1,16.1,0,0,0-26.02-2.765c-4.666,5.236-3.977,12.493-3.977,18.986a15.994,15.994,0,1,0,31.988,0C668.362,3568.541,668.564,3565.716,668.416,3562.946Z" transform="translate(-632.851 -3537.085)" fill="#ffb999"/>
      <path id="Trazado_658328" data-name="Trazado 658328" d="M666.37,3555.007a16.1,16.1,0,0,0-26.02-2.765c-4.413,4.952-4.036,9.38-3.982,15.591,1.085-.461.664-1.367,1.35-2.86.656-1.427,1.943-2.04,3.171-2.973a3.5,3.5,0,0,0,.9-3.61c.683,1.909,4.335,5.446,6.466,3.644a1.662,1.662,0,0,0,.021-2.526c.607.411,1.11,1.091,1.7,1.553a16.053,16.053,0,0,0,2.08,1.387c4.63,2.594,9.239,3.013,14.394,2.127.262,1.264.563.2.95,1.429.212.671.385,1.672.982,1.356a38.937,38.937,0,0,0,.032-4.415A17.653,17.653,0,0,0,666.37,3555.007Z" transform="translate(-632.851 -3537.085)" fill="#ff8663"/>
      <path id="Trazado_658329" data-name="Trazado 658329" d="M669.867,3557.285a30.407,30.407,0,0,0-1.1-7.72,34.045,34.045,0,0,0-1.286-3.688c-.247-.61-.365-.731-.062-1.258.267-.465.8-.531.713-1.239a2.771,2.771,0,0,0-1.151-1.658,17.221,17.221,0,0,0-7.2-3.526,27.316,27.316,0,0,0-8.15-.975c-.862.071-2.205-.016-2.929.507.671-.484.286-1.665-.478-1.981a3.187,3.187,0,0,0-2.4.276,20.154,20.154,0,0,0-6.721,4.639c-.4.416-4.633,5.911-3.163,6.051a2.622,2.622,0,0,0-1.637.346c-2.462,1.516-1.88,6.119-1.668,8.459a35.957,35.957,0,0,0,1.069,6.021q.395,1.478.915,2.92.27.747.573,1.484c.135.325.208,1.307.538,1.235,1.235-.27.756-3.693,1.465-5.238.656-1.427,1.943-2.04,3.171-2.972a3.5,3.5,0,0,0,.9-3.61c.683,1.909,4.335,5.446,6.466,3.644a1.662,1.662,0,0,0,.021-2.526c.607.411,1.11,1.092,1.7,1.554a16.137,16.137,0,0,0,2.08,1.387c4.631,2.594,9.239,3.013,14.394,2.129.262,1.262.563,2.528.95,3.759.244.773.435,1.989,1.287,1.116a5.893,5.893,0,0,0,1.106-2.849A29.729,29.729,0,0,0,669.867,3557.285Z" transform="translate(-632.337 -3535.606)" fill="#2b2b4a"/>
      <path id="Trazado_658330" data-name="Trazado 658330" d="M668.8,3549.565a34.045,34.045,0,0,0-1.286-3.688c-.247-.61-.365-.731-.062-1.258.268-.465.8-.531.713-1.239a2.77,2.77,0,0,0-1.151-1.658,17.22,17.22,0,0,0-7.2-3.526,27.315,27.315,0,0,0-8.149-.975c-.862.071-2.205-.016-2.929.507.67-.484.286-1.665-.478-1.981a3.187,3.187,0,0,0-2.4.276,20.154,20.154,0,0,0-6.721,4.639c-.4.416-4.633,5.911-3.163,6.051a2.621,2.621,0,0,0-1.637.346,4.13,4.13,0,0,0-1.7,2.915c-.082.43,2.031-.1,2.189-.19a5.318,5.318,0,0,0,1.619-1.416,1.6,1.6,0,0,0,1.52,1.383,2.612,2.612,0,0,0,1.984-.9,7.744,7.744,0,0,0,1.2-1.895,4.8,4.8,0,0,0,.161,2.506,11.445,11.445,0,0,0,.8,2.171,5.535,5.535,0,0,0,3,3.044c2.206.669,2.119-4.512,2.2-5.619a9.538,9.538,0,0,0,3.709,2.184c2.293.717,3.943-.98,3.9-3.3a10.381,10.381,0,0,0,6.558,3.257c.78.075,2.354.13,3.028-.4.781-.617.5-2.174.367-3.007a.293.293,0,0,1,.532-.225,4.847,4.847,0,0,0,3.536,2.587C668.89,3549.958,668.851,3549.76,668.8,3549.565Z" transform="translate(-632.365 -3535.606)" fill="#464670"/>
      <g id="Grupo_958775" data-name="Grupo 958775" transform="translate(7.857 26.314)">
        <path id="Trazado_658331" data-name="Trazado 658331" d="M651.742,3571.011l1.287,1.09a.881.881,0,0,1,.379.885c.01,2.287.03,4.811.03,4.811" transform="translate(-642.734 -3566.578)" fill="none" stroke="#ff8663" stroke-linecap="round" stroke-linejoin="round" stroke-width="1.106"/>
        <path id="Trazado_658332" data-name="Trazado 658332" d="M646.317,3572.5c0,1.059-.527,1.918-1.178,1.918s-1.177-.859-1.177-1.918.527-1.918,1.177-1.918S646.317,3571.436,646.317,3572.5Z" transform="translate(-641.711 -3566.521)" fill="#05052d"/>
        <path id="Trazado_658333" data-name="Trazado 658333" d="M664.941,3572.5c0,1.059-.527,1.918-1.178,1.918s-1.178-.859-1.178-1.918.528-1.918,1.178-1.918S664.941,3571.436,664.941,3572.5Z" transform="translate(-644.161 -3566.521)" fill="#05052d"/>
        <g id="Grupo_958774" data-name="Grupo 958774" transform="translate(7.802 14.209)">
          <path id="Trazado_658334" data-name="Trazado 658334" d="M656.175,3586.649a1.946,1.946,0,0,0,1.062-3.583,5.987,5.987,0,0,0-5.975,0,1.946,1.946,0,0,0,1.061,3.583Z" transform="translate(-650.353 -3582.267)" fill="#05052d"/>
        </g>
        <path id="Trazado_658335" data-name="Trazado 658335" d="M662.174,3565.906a11.871,11.871,0,0,0,5.156,1.593" transform="translate(-644.107 -3565.906)" fill="none" stroke="#05052d" stroke-linecap="round" stroke-linejoin="round" stroke-width="1.659"/>
        <path id="Trazado_658336" data-name="Trazado 658336" d="M646.525,3565.906a11.871,11.871,0,0,1-5.155,1.593" transform="translate(-641.37 -3565.906)" fill="none" stroke="#05052d" stroke-linecap="round" stroke-linejoin="round" stroke-width="1.659"/>
      </g>
    </g>
  </g>
</svg>
