<svg xmlns="http://www.w3.org/2000/svg" width="332.776" height="220.817" viewBox="0 0 332.776 220.817">
  <g id="Grupo_954684" data-name="Grupo 954684" transform="translate(-1860.984 -3006.508)">
    <g id="Grupo_954588" data-name="Grupo 954588" transform="translate(1929.277 3103.433)">
      <g id="Grupo_954501" data-name="Grupo 954501">
        <g id="Grupo_954499" data-name="Grupo 954499" transform="translate(13.166)">
          <path id="Rectángulo_44979" data-name="Rectángulo 44979" d="M8.73,0h152.4a8.73,8.73,0,0,1,8.73,8.73V113.544a0,0,0,0,1,0,0H0a0,0,0,0,1,0,0V8.73A8.73,8.73,0,0,1,8.73,0Z" fill="#95a4b1"/>
          <path id="Rectángulo_44980" data-name="Rectángulo 44980" d="M6.111,0H109.928a0,0,0,0,1,0,0V166.242a0,0,0,0,1,0,0H6.111A6.111,6.111,0,0,1,0,160.131V6.111A6.111,6.111,0,0,1,6.111,0Z" transform="translate(168.05 1.808) rotate(90)" fill="#435277"/>
          <rect id="Rectángulo_44981" data-name="Rectángulo 44981" width="96.668" height="152.982" transform="translate(161.42 8.438) rotate(90)" fill="#45bbcc"/>
        </g>
        <g id="Grupo_954500" data-name="Grupo 954500" transform="translate(0 113.544)">
          <rect id="Rectángulo_44982" data-name="Rectángulo 44982" width="196.19" height="5.175" fill="#c3d2d7"/>
          <path id="Trazado_637106" data-name="Trazado 637106" d="M2146.869,3324.041H1969.135a10.817,10.817,0,0,1-9.228-5.173H2156.1A10.817,10.817,0,0,1,2146.869,3324.041Z" transform="translate(-1959.907 -3313.693)" fill="#95a4b1"/>
          <path id="Trazado_637107" data-name="Trazado 637107" d="M2107.941,3313.959h-25.763a2.587,2.587,0,0,1-2.587-2.587h30.939A2.587,2.587,0,0,1,2107.941,3313.959Z" transform="translate(-1996.964 -3311.372)" fill="#a6b4c0"/>
        </g>
      </g>
      <g id="Grupo_954587" data-name="Grupo 954587" transform="translate(27.579 16.446)">
        <g id="Grupo_954502" data-name="Grupo 954502" transform="translate(56.365 26.597)">
          <rect id="Rectángulo_44983" data-name="Rectángulo 44983" width="25.062" height="9.923" transform="translate(1.62)" fill="#b0fffa"/>
          <path id="Trazado_637108" data-name="Trazado 637108" d="M2091.712,3216.275v-1.912H2081.5v23.93h28.3v-22.018Z" transform="translate(-2081.5 -3210.834)" fill="#2fd3ea"/>
        </g>
        <g id="Grupo_954586" data-name="Grupo 954586">
          <g id="Grupo_954574" data-name="Grupo 954574" transform="translate(0 0.727)">
            <g id="Grupo_954506" data-name="Grupo 954506" transform="translate(3.315)">
              <g id="Grupo_954503" data-name="Grupo 954503" transform="translate(3.466)">
                <rect id="Rectángulo_44984" data-name="Rectángulo 44984" width="4.52" height="2.411" fill="#fff"/>
              </g>
              <g id="Grupo_954504" data-name="Grupo 954504" transform="translate(12.506)">
                <rect id="Rectángulo_44985" data-name="Rectángulo 44985" width="21.245" height="2.411" fill="#fff"/>
              </g>
              <g id="Grupo_954505" data-name="Grupo 954505">
                <rect id="Rectángulo_44986" data-name="Rectángulo 44986" width="1.582" height="2.411" fill="#fff"/>
              </g>
            </g>
            <g id="Grupo_954510" data-name="Grupo 954510" transform="translate(3.315 6.63)">
              <g id="Grupo_954507" data-name="Grupo 954507" transform="translate(3.466)">
                <rect id="Rectángulo_44987" data-name="Rectángulo 44987" width="4.52" height="2.411" fill="#fff"/>
              </g>
              <g id="Grupo_954508" data-name="Grupo 954508" transform="translate(12.506)">
                <rect id="Rectángulo_44988" data-name="Rectángulo 44988" width="21.245" height="2.411" fill="#fff"/>
              </g>
              <g id="Grupo_954509" data-name="Grupo 954509">
                <rect id="Rectángulo_44989" data-name="Rectángulo 44989" width="1.582" height="2.411" fill="#fff"/>
              </g>
            </g>
            <g id="Grupo_954514" data-name="Grupo 954514" transform="translate(3.315 13.259)">
              <g id="Grupo_954511" data-name="Grupo 954511" transform="translate(3.466)">
                <rect id="Rectángulo_44990" data-name="Rectángulo 44990" width="4.52" height="2.411" fill="#fff"/>
              </g>
              <g id="Grupo_954512" data-name="Grupo 954512" transform="translate(12.506)">
                <rect id="Rectángulo_44991" data-name="Rectángulo 44991" width="21.245" height="2.411" fill="#fff"/>
              </g>
              <g id="Grupo_954513" data-name="Grupo 954513">
                <rect id="Rectángulo_44992" data-name="Rectángulo 44992" width="1.582" height="2.411" fill="#fff"/>
              </g>
            </g>
            <g id="Grupo_954518" data-name="Grupo 954518" transform="translate(3.315 19.889)">
              <g id="Grupo_954515" data-name="Grupo 954515" transform="translate(3.466)">
                <rect id="Rectángulo_44993" data-name="Rectángulo 44993" width="4.52" height="2.411" fill="#fff"/>
              </g>
              <g id="Grupo_954516" data-name="Grupo 954516" transform="translate(12.506)">
                <rect id="Rectángulo_44994" data-name="Rectángulo 44994" width="21.245" height="2.411" fill="#fff"/>
              </g>
              <g id="Grupo_954517" data-name="Grupo 954517">
                <rect id="Rectángulo_44995" data-name="Rectángulo 44995" width="1.582" height="2.411" fill="#fff"/>
              </g>
            </g>
            <g id="Grupo_954521" data-name="Grupo 954521" transform="translate(0.603 26.519)">
              <g id="Grupo_954519" data-name="Grupo 954519">
                <rect id="Rectángulo_44996" data-name="Rectángulo 44996" width="10.698" height="2.411" fill="#fff"/>
              </g>
              <g id="Grupo_954520" data-name="Grupo 954520" transform="translate(15.218)">
                <rect id="Rectángulo_44997" data-name="Rectángulo 44997" width="27.272" height="2.411" fill="#fff"/>
              </g>
            </g>
            <g id="Grupo_954524" data-name="Grupo 954524" transform="translate(4.897 33.149)">
              <g id="Grupo_954522" data-name="Grupo 954522">
                <rect id="Rectángulo_44998" data-name="Rectángulo 44998" width="6.404" height="2.411" fill="#fff"/>
              </g>
              <g id="Grupo_954523" data-name="Grupo 954523" transform="translate(10.924)">
                <rect id="Rectángulo_44999" data-name="Rectángulo 44999" width="30.185" height="2.411" fill="#fff"/>
              </g>
            </g>
            <g id="Grupo_954528" data-name="Grupo 954528" transform="translate(95.804 45.128)">
              <g id="Grupo_954525" data-name="Grupo 954525" transform="translate(3.465)">
                <rect id="Rectángulo_45000" data-name="Rectángulo 45000" width="4.52" height="2.411" fill="#fff"/>
              </g>
              <g id="Grupo_954526" data-name="Grupo 954526" transform="translate(12.506)">
                <rect id="Rectángulo_45001" data-name="Rectángulo 45001" width="21.245" height="2.411" fill="#fff"/>
              </g>
              <g id="Grupo_954527" data-name="Grupo 954527">
                <rect id="Rectángulo_45002" data-name="Rectángulo 45002" width="1.582" height="2.411" fill="#fff"/>
              </g>
            </g>
            <g id="Grupo_954532" data-name="Grupo 954532" transform="translate(95.804 51.758)">
              <g id="Grupo_954529" data-name="Grupo 954529" transform="translate(3.465)">
                <rect id="Rectángulo_45003" data-name="Rectángulo 45003" width="4.52" height="2.411" fill="#fff"/>
              </g>
              <g id="Grupo_954530" data-name="Grupo 954530" transform="translate(12.506)">
                <rect id="Rectángulo_45004" data-name="Rectángulo 45004" width="12.029" height="2.411" fill="#fff"/>
              </g>
              <g id="Grupo_954531" data-name="Grupo 954531">
                <rect id="Rectángulo_45005" data-name="Rectángulo 45005" width="1.582" height="2.411" fill="#fff"/>
              </g>
            </g>
            <g id="Grupo_954536" data-name="Grupo 954536" transform="translate(95.804 58.388)">
              <g id="Grupo_954533" data-name="Grupo 954533" transform="translate(3.465)">
                <rect id="Rectángulo_45006" data-name="Rectángulo 45006" width="4.52" height="2.411" fill="#fff"/>
              </g>
              <g id="Grupo_954534" data-name="Grupo 954534" transform="translate(12.506)">
                <rect id="Rectángulo_45007" data-name="Rectángulo 45007" width="26.243" height="2.411" fill="#fff"/>
              </g>
              <g id="Grupo_954535" data-name="Grupo 954535">
                <rect id="Rectángulo_45008" data-name="Rectángulo 45008" width="1.582" height="2.411" fill="#fff"/>
              </g>
            </g>
            <g id="Grupo_954540" data-name="Grupo 954540" transform="translate(95.804 65.017)">
              <g id="Grupo_954537" data-name="Grupo 954537" transform="translate(3.465)">
                <rect id="Rectángulo_45009" data-name="Rectángulo 45009" width="4.52" height="2.411" fill="#fff"/>
              </g>
              <g id="Grupo_954538" data-name="Grupo 954538" transform="translate(12.506)">
                <rect id="Rectángulo_45010" data-name="Rectángulo 45010" width="17.454" height="2.411" fill="#fff"/>
              </g>
              <g id="Grupo_954539" data-name="Grupo 954539">
                <rect id="Rectángulo_45011" data-name="Rectángulo 45011" width="1.582" height="2.411" fill="#fff"/>
              </g>
            </g>
            <g id="Grupo_954544" data-name="Grupo 954544" transform="translate(3.315 46.408)">
              <g id="Grupo_954541" data-name="Grupo 954541" transform="translate(3.466)">
                <rect id="Rectángulo_45012" data-name="Rectángulo 45012" width="4.52" height="2.411" fill="#fff"/>
              </g>
              <g id="Grupo_954542" data-name="Grupo 954542" transform="translate(12.506)">
                <rect id="Rectángulo_45013" data-name="Rectángulo 45013" width="21.245" height="2.411" fill="#fff"/>
              </g>
              <g id="Grupo_954543" data-name="Grupo 954543">
                <rect id="Rectángulo_45014" data-name="Rectángulo 45014" width="1.582" height="2.411" fill="#fff"/>
              </g>
            </g>
            <g id="Grupo_954547" data-name="Grupo 954547" transform="translate(0 53.038)">
              <g id="Grupo_954545" data-name="Grupo 954545">
                <rect id="Rectángulo_45015" data-name="Rectángulo 45015" width="11.301" height="2.411" fill="#fff"/>
              </g>
              <g id="Grupo_954546" data-name="Grupo 954546" transform="translate(15.821)">
                <rect id="Rectángulo_45016" data-name="Rectángulo 45016" width="24.861" height="2.411" fill="#fff"/>
              </g>
            </g>
            <g id="Grupo_954551" data-name="Grupo 954551" transform="translate(3.315 66.297)">
              <g id="Grupo_954548" data-name="Grupo 954548" transform="translate(3.466)">
                <rect id="Rectángulo_45017" data-name="Rectángulo 45017" width="4.52" height="2.411" fill="#fff"/>
              </g>
              <g id="Grupo_954549" data-name="Grupo 954549" transform="translate(12.506)">
                <rect id="Rectángulo_45018" data-name="Rectángulo 45018" width="21.245" height="2.411" fill="#fff"/>
              </g>
              <g id="Grupo_954550" data-name="Grupo 954550">
                <rect id="Rectángulo_45019" data-name="Rectángulo 45019" width="1.582" height="2.411" fill="#fff"/>
              </g>
            </g>
            <g id="Grupo_954555" data-name="Grupo 954555" transform="translate(3.315 72.927)">
              <g id="Grupo_954552" data-name="Grupo 954552" transform="translate(3.466)">
                <rect id="Rectángulo_45020" data-name="Rectángulo 45020" width="4.52" height="2.411" fill="#fff"/>
              </g>
              <g id="Grupo_954553" data-name="Grupo 954553" transform="translate(12.506)">
                <rect id="Rectángulo_45021" data-name="Rectángulo 45021" width="21.245" height="2.411" fill="#fff"/>
              </g>
              <g id="Grupo_954554" data-name="Grupo 954554">
                <rect id="Rectángulo_45022" data-name="Rectángulo 45022" width="1.582" height="2.411" fill="#fff"/>
              </g>
            </g>
            <g id="Grupo_954559" data-name="Grupo 954559" transform="translate(3.315 79.556)">
              <g id="Grupo_954556" data-name="Grupo 954556" transform="translate(3.466)">
                <rect id="Rectángulo_45023" data-name="Rectángulo 45023" width="4.52" height="2.411" fill="#fff"/>
              </g>
              <g id="Grupo_954557" data-name="Grupo 954557" transform="translate(12.506)">
                <rect id="Rectángulo_45024" data-name="Rectángulo 45024" width="21.245" height="2.411" fill="#fff"/>
              </g>
              <g id="Grupo_954558" data-name="Grupo 954558">
                <rect id="Rectángulo_45025" data-name="Rectángulo 45025" width="1.582" height="2.411" fill="#fff"/>
              </g>
            </g>
            <g id="Grupo_954563" data-name="Grupo 954563" transform="translate(92.326 4.535)">
              <g id="Grupo_954560" data-name="Grupo 954560">
                <rect id="Rectángulo_45026" data-name="Rectángulo 45026" width="5.424" height="2.411" fill="#fff"/>
              </g>
              <g id="Grupo_954561" data-name="Grupo 954561" transform="translate(9.191)">
                <rect id="Rectángulo_45027" data-name="Rectángulo 45027" width="28.553" height="2.411" fill="#fff"/>
              </g>
              <g id="Grupo_954562" data-name="Grupo 954562" transform="translate(40.532)">
                <rect id="Rectángulo_45028" data-name="Rectángulo 45028" width="3.39" height="2.411" fill="#fff"/>
              </g>
            </g>
            <g id="Grupo_954567" data-name="Grupo 954567" transform="translate(92.326 11.301)">
              <g id="Grupo_954564" data-name="Grupo 954564">
                <rect id="Rectángulo_45029" data-name="Rectángulo 45029" width="5.424" height="2.411" fill="#fff"/>
              </g>
              <g id="Grupo_954565" data-name="Grupo 954565" transform="translate(9.191)">
                <rect id="Rectángulo_45030" data-name="Rectángulo 45030" width="28.553" height="2.411" fill="#fff"/>
              </g>
              <g id="Grupo_954566" data-name="Grupo 954566" transform="translate(40.532)">
                <rect id="Rectángulo_45031" data-name="Rectángulo 45031" width="3.39" height="2.411" fill="#fff"/>
              </g>
            </g>
            <g id="Grupo_954570" data-name="Grupo 954570" transform="translate(92.326 18.066)">
              <g id="Grupo_954568" data-name="Grupo 954568">
                <rect id="Rectángulo_45032" data-name="Rectángulo 45032" width="5.424" height="2.411" fill="#fff"/>
              </g>
              <g id="Grupo_954569" data-name="Grupo 954569" transform="translate(9.191)">
                <rect id="Rectángulo_45033" data-name="Rectángulo 45033" width="19.475" height="2.411" fill="#fff"/>
              </g>
            </g>
            <g id="Grupo_954573" data-name="Grupo 954573" transform="translate(92.326 24.831)">
              <g id="Grupo_954571" data-name="Grupo 954571">
                <rect id="Rectángulo_45034" data-name="Rectángulo 45034" width="5.424" height="2.411" fill="#fff"/>
              </g>
              <g id="Grupo_954572" data-name="Grupo 954572" transform="translate(9.191)">
                <rect id="Rectángulo_45035" data-name="Rectángulo 45035" width="14.276" height="2.411" fill="#fff"/>
              </g>
            </g>
          </g>
          <g id="Grupo_954585" data-name="Grupo 954585" transform="translate(43.696)">
            <g id="Grupo_954575" data-name="Grupo 954575" transform="translate(0.301)">
              <rect id="Rectángulo_45036" data-name="Rectángulo 45036" width="0.603" height="21.822" fill="#fff"/>
            </g>
            <g id="Grupo_954576" data-name="Grupo 954576" transform="translate(4.068 12.932)">
              <path id="Trazado_637109" data-name="Trazado 637109" d="M2086.068,3215.223h-.6v-19.3h-6.315l-5.864-5.864h-4.245v-.6h4.494l5.864,5.864h6.668Z" transform="translate(-2069.041 -3189.458)" fill="#fff"/>
            </g>
            <g id="Grupo_954577" data-name="Grupo 954577" transform="translate(0.603 44.887)">
              <path id="Trazado_637110" data-name="Trazado 637110" d="M2071.529,3242.212h-7.508v-.6h7.258l5.864-5.864h7.069v.6h-6.819Z" transform="translate(-2064.021 -3235.745)" fill="#fff"/>
            </g>
            <g id="Grupo_954578" data-name="Grupo 954578" transform="translate(0 49.345)">
              <path id="Trazado_637111" data-name="Trazado 637111" d="M2075.7,3268.018h-12.555v-.6h12.306l14.452-14.451V3242.2h.6v11.011Z" transform="translate(-2063.148 -3242.202)" fill="#fff"/>
            </g>
            <g id="Grupo_954579" data-name="Grupo 954579" transform="translate(31.667 12.932)">
              <path id="Trazado_637112" data-name="Trazado 637112" d="M2109.621,3214.218h-.6v-16.473l8.288-8.288h3.942v.6h-3.692l-7.935,7.935Z" transform="translate(-2109.018 -3189.458)" fill="#fff"/>
            </g>
            <g id="Grupo_954580" data-name="Grupo 954580" transform="translate(33.751 45.189)">
              <path id="Trazado_637113" data-name="Trazado 637113" d="M2126.916,3250.483h-6.465l-8.414-8.414v-5.888h.6v5.639l8.061,8.061h6.216Z" transform="translate(-2112.037 -3236.181)" fill="#fff"/>
            </g>
            <g id="Grupo_954581" data-name="Grupo 954581" transform="translate(48.329 37.09)">
              <path id="Trazado_637114" data-name="Trazado 637114" d="M2133.756,3230.477h-.6v-6.027h6.316v.6h-5.713Z" transform="translate(-2133.153 -3224.45)" fill="#fff"/>
            </g>
            <g id="Grupo_954582" data-name="Grupo 954582" transform="translate(82.068 65.97)">
              <path id="Trazado_637115" data-name="Trazado 637115" d="M2194.58,3277.131h-12.556v-.6h11.953v-10.246h.6Z" transform="translate(-2182.024 -3266.283)" fill="#fff"/>
            </g>
            <g id="Grupo_954583" data-name="Grupo 954583" transform="translate(61.626 37.09)">
              <rect id="Rectángulo_45037" data-name="Rectángulo 45037" width="18.834" height="0.603" fill="#fff"/>
            </g>
            <g id="Grupo_954584" data-name="Grupo 954584" transform="translate(86.487 37.09)">
              <rect id="Rectángulo_45038" data-name="Rectángulo 45038" width="4.37" height="0.603" fill="#fff"/>
            </g>
          </g>
        </g>
      </g>
    </g>
    <g id="Grupo_954592" data-name="Grupo 954592" transform="translate(1967.705 3006.508)">
      <g id="Grupo_954589" data-name="Grupo 954589">
        <path id="Trazado_637116" data-name="Trazado 637116" d="M2056.838,3116.014a55.311,55.311,0,0,1-35.242-51.541v-26.5a1.886,1.886,0,0,1,1.462-1.844l15.435-3.618v-13.19a1.9,1.9,0,0,1,1.634-1.875l35.109-4.857v-6.084l-35.935,4.971a7.92,7.92,0,0,0-6.835,7.845v8.413l-10.784,2.527a7.921,7.921,0,0,0-6.113,7.712v26.5a61.336,61.336,0,0,0,39.082,57.157l20.585,8.016v-6.468Z" transform="translate(-2015.569 -3006.508)" fill="#583ae2"/>
        <path id="Trazado_637117" data-name="Trazado 637117" d="M2155.552,3030.264l-10.784-2.527v-8.413a7.92,7.92,0,0,0-6.835-7.845L2102,3006.508v6.084l35.11,4.857a1.9,1.9,0,0,1,1.633,1.875v13.19l15.435,3.618a1.886,1.886,0,0,1,1.462,1.844v26.5a55.31,55.31,0,0,1-35.241,51.541l-18.4,7.164v6.468l20.586-8.016a61.336,61.336,0,0,0,39.081-57.157v-26.5A7.92,7.92,0,0,0,2155.552,3030.264Z" transform="translate(-2042.33 -3006.508)" fill="#462eb4"/>
        <path id="Trazado_637118" data-name="Trazado 637118" d="M2041.2,3022.053v13.19l-15.435,3.618a1.886,1.886,0,0,0-1.461,1.844v26.5a55.31,55.31,0,0,0,35.242,51.541l18.4,7.164V3015.321l-35.109,4.857A1.9,1.9,0,0,0,2041.2,3022.053Z" transform="translate(-2018.272 -3009.237)" fill="#462eb4"/>
        <path id="Trazado_637119" data-name="Trazado 637119" d="M2102,3122.673v3.234l18.4-7.164a55.31,55.31,0,0,0,35.241-51.541v-26.5a1.886,1.886,0,0,0-1.462-1.844l-15.435-3.618v-13.19a1.9,1.9,0,0,0-1.633-1.875l-35.11-4.857v107.352Z" transform="translate(-2042.33 -3009.237)" fill="#342287"/>
      </g>
      <g id="Grupo_954591" data-name="Grupo 954591" transform="translate(33.45 24.023)">
        <rect id="Rectángulo_45039" data-name="Rectángulo 45039" width="52.435" height="34.957" transform="translate(0 29.532)" fill="#c7f6ed"/>
        <g id="Grupo_954590" data-name="Grupo 954590" transform="translate(6.629)">
          <rect id="Rectángulo_45040" data-name="Rectángulo 45040" width="6.63" height="5.216" transform="translate(0 24.316)" fill="#80d3e4"/>
          <rect id="Rectángulo_45041" data-name="Rectángulo 45041" width="6.63" height="5.216" transform="translate(31.642 24.316)" fill="#80d3e4"/>
          <path id="Trazado_637120" data-name="Trazado 637120" d="M2111.9,3060.441a19.136,19.136,0,0,0-38.272,0v5.18h6.63v-5.18a12.506,12.506,0,1,1,25.012,0v5.18h6.63Z" transform="translate(-2073.624 -3041.305)" fill="#c7f6ed"/>
        </g>
        <path id="Trazado_637121" data-name="Trazado 637121" d="M2104.5,3100.675a4.531,4.531,0,1,0-6.993,3.8l-2.068,9.972h9.061l-2.068-9.972A4.524,4.524,0,0,0,2104.5,3100.675Z" transform="translate(-2073.748 -3058.285)" fill="#1f2232"/>
      </g>
    </g>
    <rect id="Rectángulo_45042" data-name="Rectángulo 45042" width="108.486" height="40.984" rx="5.238" transform="translate(2072.334 3086.754)" fill="#bee7ed"/>
    <g id="Grupo_954611" data-name="Grupo 954611" transform="translate(2081.957 3092.631)" opacity="0.7">
      <g id="Grupo_954593" data-name="Grupo 954593" transform="translate(0)">
        <rect id="Rectángulo_45043" data-name="Rectángulo 45043" width="3.503" height="2.411" fill="#fff"/>
      </g>
      <g id="Grupo_954594" data-name="Grupo 954594" transform="translate(6.253)">
        <rect id="Rectángulo_45044" data-name="Rectángulo 45044" width="28.04" height="2.411" fill="#fff"/>
      </g>
      <g id="Grupo_954595" data-name="Grupo 954595" transform="translate(0 5.374)">
        <rect id="Rectángulo_45045" data-name="Rectángulo 45045" width="3.503" height="2.411" fill="#fff"/>
      </g>
      <g id="Grupo_954596" data-name="Grupo 954596" transform="translate(6.253 5.374)">
        <rect id="Rectángulo_45046" data-name="Rectángulo 45046" width="28.04" height="2.411" fill="#fff"/>
      </g>
      <g id="Grupo_954597" data-name="Grupo 954597" transform="translate(6.253 10.748)">
        <rect id="Rectángulo_45047" data-name="Rectángulo 45047" width="37.482" height="2.411" fill="#fff"/>
      </g>
      <g id="Grupo_954598" data-name="Grupo 954598" transform="translate(52.072 0.151)">
        <rect id="Rectángulo_45048" data-name="Rectángulo 45048" width="37.167" height="4.219" fill="#fff"/>
      </g>
      <g id="Grupo_954599" data-name="Grupo 954599" transform="translate(52.072 7.383)">
        <rect id="Rectángulo_45049" data-name="Rectángulo 45049" width="37.167" height="4.219" fill="#fff"/>
      </g>
      <g id="Grupo_954600" data-name="Grupo 954600" transform="translate(0 18.425)">
        <path id="Trazado_637122" data-name="Trazado 637122" d="M2187.317,3161.073a3.126,3.126,0,1,1-3.127-3.127A3.126,3.126,0,0,1,2187.317,3161.073Z" transform="translate(-2181.064 -3157.946)" fill="#00f5f0"/>
      </g>
      <g id="Grupo_954601" data-name="Grupo 954601" transform="translate(10.246 18.425)">
        <path id="Trazado_637123" data-name="Trazado 637123" d="M2202.158,3161.073a3.126,3.126,0,1,1-3.126-3.127A3.126,3.126,0,0,1,2202.158,3161.073Z" transform="translate(-2195.905 -3157.946)" fill="#00f5f0"/>
      </g>
      <g id="Grupo_954602" data-name="Grupo 954602" transform="translate(20.492 18.425)">
        <path id="Trazado_637124" data-name="Trazado 637124" d="M2217,3161.073a3.127,3.127,0,1,1-3.127-3.127A3.127,3.127,0,0,1,2217,3161.073Z" transform="translate(-2210.746 -3157.946)" fill="#00f5f0"/>
      </g>
      <g id="Grupo_954603" data-name="Grupo 954603" transform="translate(0 27.714)">
        <rect id="Rectángulo_45050" data-name="Rectángulo 45050" width="6.253" height="2.411" fill="#fff"/>
      </g>
      <g id="Grupo_954604" data-name="Grupo 954604" transform="translate(10.246 27.714)">
        <rect id="Rectángulo_45051" data-name="Rectángulo 45051" width="6.253" height="2.411" fill="#fff"/>
      </g>
      <g id="Grupo_954605" data-name="Grupo 954605" transform="translate(20.492 27.714)">
        <rect id="Rectángulo_45052" data-name="Rectángulo 45052" width="6.253" height="2.411" fill="#fff"/>
      </g>
      <g id="Grupo_954606" data-name="Grupo 954606" transform="translate(30.738 27.714)">
        <rect id="Rectángulo_45053" data-name="Rectángulo 45053" width="6.253" height="2.411" fill="#fff"/>
      </g>
      <g id="Grupo_954607" data-name="Grupo 954607" transform="translate(40.984 27.714)">
        <rect id="Rectángulo_45054" data-name="Rectángulo 45054" width="6.253" height="2.411" fill="#fff"/>
      </g>
      <g id="Grupo_954608" data-name="Grupo 954608" transform="translate(66.135 18.332)">
        <rect id="Rectángulo_45055" data-name="Rectángulo 45055" width="14.967" height="2.411" fill="#fff"/>
      </g>
      <g id="Grupo_954609" data-name="Grupo 954609" transform="translate(66.135 22.953)">
        <rect id="Rectángulo_45056" data-name="Rectángulo 45056" width="14.967" height="2.411" fill="#fff"/>
      </g>
      <g id="Grupo_954610" data-name="Grupo 954610" transform="translate(66.135 27.573)">
        <rect id="Rectángulo_45057" data-name="Rectángulo 45057" width="14.967" height="2.411" fill="#fff"/>
      </g>
    </g>
    <rect id="Rectángulo_45058" data-name="Rectángulo 45058" width="100.952" height="40.984" rx="5.238" transform="translate(2092.808 3156.849)" fill="#bee7ed"/>
    <g id="Grupo_954647" data-name="Grupo 954647" transform="translate(2099.85 3162.725)" opacity="0.7">
      <g id="Grupo_954618" data-name="Grupo 954618" transform="translate(0 2.483)">
        <g id="Grupo_954616" data-name="Grupo 954616">
          <g id="Grupo_954613" data-name="Grupo 954613" transform="translate(12.132 12.133)">
            <g id="Grupo_954612" data-name="Grupo 954612">
              <path id="Trazado_637125" data-name="Trazado 637125" d="M2236.687,3266.092h-12.132v-.6h11.53v-11.53h.6Z" transform="translate(-2224.554 -3253.96)" fill="#fff"/>
            </g>
          </g>
          <g id="Grupo_954615" data-name="Grupo 954615">
            <g id="Grupo_954614" data-name="Grupo 954614">
              <path id="Trazado_637126" data-name="Trazado 637126" d="M2207.583,3248.518h-.6v-12.133h12.132v.6h-11.53Z" transform="translate(-2206.981 -3236.385)" fill="#fff"/>
            </g>
          </g>
        </g>
        <g id="Grupo_954617" data-name="Grupo 954617" transform="translate(5.725 5.726)">
          <rect id="Rectángulo_45059" data-name="Rectángulo 45059" width="12.814" height="12.814" fill="#fff"/>
        </g>
      </g>
      <g id="Grupo_954619" data-name="Grupo 954619" transform="translate(32.486 1.381)">
        <rect id="Rectángulo_45060" data-name="Rectángulo 45060" width="14.655" height="2.411" fill="#fff"/>
      </g>
      <g id="Grupo_954620" data-name="Grupo 954620" transform="translate(32.486 6.002)">
        <rect id="Rectángulo_45061" data-name="Rectángulo 45061" width="30.827" height="2.411" fill="#fff"/>
      </g>
      <g id="Grupo_954621" data-name="Grupo 954621" transform="translate(32.486 10.623)">
        <rect id="Rectángulo_45062" data-name="Rectángulo 45062" width="30.827" height="2.411" fill="#fff"/>
      </g>
      <g id="Grupo_954622" data-name="Grupo 954622" transform="translate(32.486 15.244)">
        <rect id="Rectángulo_45063" data-name="Rectángulo 45063" width="22.992" height="2.411" fill="#fff"/>
      </g>
      <g id="Grupo_954629" data-name="Grupo 954629" transform="translate(32.486 21.471)">
        <g id="Grupo_954623" data-name="Grupo 954623">
          <rect id="Rectángulo_45064" data-name="Rectángulo 45064" width="3.606" height="1.808" fill="#fff"/>
        </g>
        <g id="Grupo_954624" data-name="Grupo 954624" transform="translate(6.328)">
          <rect id="Rectángulo_45065" data-name="Rectángulo 45065" width="13.952" height="1.808" fill="#fff"/>
        </g>
        <g id="Grupo_954625" data-name="Grupo 954625" transform="translate(23.405)">
          <rect id="Rectángulo_45066" data-name="Rectángulo 45066" width="11.843" height="1.808" fill="#fff"/>
        </g>
        <g id="Grupo_954626" data-name="Grupo 954626" transform="translate(0 4.269)">
          <rect id="Rectángulo_45067" data-name="Rectángulo 45067" width="3.606" height="1.808" fill="#fff"/>
        </g>
        <g id="Grupo_954627" data-name="Grupo 954627" transform="translate(6.328 4.269)">
          <rect id="Rectángulo_45068" data-name="Rectángulo 45068" width="13.952" height="1.808" fill="#fff"/>
        </g>
        <g id="Grupo_954628" data-name="Grupo 954628" transform="translate(23.405 4.269)">
          <rect id="Rectángulo_45069" data-name="Rectángulo 45069" width="7.423" height="1.808" fill="#fff"/>
        </g>
      </g>
      <g id="Grupo_954630" data-name="Grupo 954630" transform="translate(72.253)">
        <rect id="Rectángulo_45070" data-name="Rectángulo 45070" width="0.603" height="29.231" fill="#fff"/>
      </g>
      <g id="Grupo_954631" data-name="Grupo 954631" transform="translate(75.819 1.864)">
        <rect id="Rectángulo_45071" data-name="Rectángulo 45071" width="1.909" height="1.205" fill="#fff"/>
      </g>
      <g id="Grupo_954632" data-name="Grupo 954632" transform="translate(80.038 1.864)">
        <rect id="Rectángulo_45072" data-name="Rectángulo 45072" width="6.831" height="1.205" fill="#fff"/>
      </g>
      <g id="Grupo_954633" data-name="Grupo 954633" transform="translate(75.819 4.564)">
        <rect id="Rectángulo_45073" data-name="Rectángulo 45073" width="1.909" height="1.205" fill="#fff"/>
      </g>
      <g id="Grupo_954634" data-name="Grupo 954634" transform="translate(80.038 4.564)">
        <rect id="Rectángulo_45074" data-name="Rectángulo 45074" width="6.831" height="1.205" fill="#fff"/>
      </g>
      <g id="Grupo_954635" data-name="Grupo 954635" transform="translate(75.819 7.264)">
        <rect id="Rectángulo_45075" data-name="Rectángulo 45075" width="1.909" height="1.205" fill="#fff"/>
      </g>
      <g id="Grupo_954636" data-name="Grupo 954636" transform="translate(80.038 7.264)">
        <rect id="Rectángulo_45076" data-name="Rectángulo 45076" width="6.831" height="1.205" fill="#fff"/>
      </g>
      <g id="Grupo_954637" data-name="Grupo 954637" transform="translate(75.819 12.663)">
        <rect id="Rectángulo_45077" data-name="Rectángulo 45077" width="1.909" height="1.205" fill="#fff"/>
      </g>
      <g id="Grupo_954638" data-name="Grupo 954638" transform="translate(80.038 12.663)">
        <rect id="Rectángulo_45078" data-name="Rectángulo 45078" width="6.831" height="1.205" fill="#fff"/>
      </g>
      <g id="Grupo_954639" data-name="Grupo 954639" transform="translate(75.819 15.362)">
        <rect id="Rectángulo_45079" data-name="Rectángulo 45079" width="1.909" height="1.205" fill="#fff"/>
      </g>
      <g id="Grupo_954640" data-name="Grupo 954640" transform="translate(80.038 15.362)">
        <rect id="Rectángulo_45080" data-name="Rectángulo 45080" width="6.831" height="1.205" fill="#fff"/>
      </g>
      <g id="Grupo_954641" data-name="Grupo 954641" transform="translate(75.819 18.062)">
        <rect id="Rectángulo_45081" data-name="Rectángulo 45081" width="1.909" height="1.205" fill="#fff"/>
      </g>
      <g id="Grupo_954642" data-name="Grupo 954642" transform="translate(80.038 18.062)">
        <rect id="Rectángulo_45082" data-name="Rectángulo 45082" width="6.831" height="1.205" fill="#fff"/>
      </g>
      <g id="Grupo_954643" data-name="Grupo 954643" transform="translate(75.819 23.461)">
        <rect id="Rectángulo_45083" data-name="Rectángulo 45083" width="1.909" height="1.205" fill="#fff"/>
      </g>
      <g id="Grupo_954644" data-name="Grupo 954644" transform="translate(80.038 23.461)">
        <rect id="Rectángulo_45084" data-name="Rectángulo 45084" width="6.831" height="1.205" fill="#fff"/>
      </g>
      <g id="Grupo_954645" data-name="Grupo 954645" transform="translate(75.819 26.16)">
        <rect id="Rectángulo_45085" data-name="Rectángulo 45085" width="1.909" height="1.205" fill="#fff"/>
      </g>
      <g id="Grupo_954646" data-name="Grupo 954646" transform="translate(80.038 26.16)">
        <rect id="Rectángulo_45086" data-name="Rectángulo 45086" width="6.831" height="1.205" fill="#fff"/>
      </g>
    </g>
    <rect id="Rectángulo_45087" data-name="Rectángulo 45087" width="90.865" height="53.037" rx="5.849" transform="translate(1966.599 3146.944) rotate(180)" fill="#bee7ed"/>
    <g id="Grupo_954668" data-name="Grupo 954668" transform="translate(1885.142 3102.425)" opacity="0.8">
      <g id="Grupo_954656" data-name="Grupo 954656">
        <g id="Grupo_954650" data-name="Grupo 954650" transform="translate(3.918 3.519)">
          <g id="Grupo_954648" data-name="Grupo 954648" transform="translate(3.065)">
            <circle id="Elipse_5470" data-name="Elipse 5470" cx="6.277" cy="6.277" r="6.277" fill="#fff"/>
          </g>
          <g id="Grupo_954649" data-name="Grupo 954649" transform="translate(0 14.461)">
            <path id="Rectángulo_45088" data-name="Rectángulo 45088" d="M9.342,0h0a9.342,9.342,0,0,1,9.342,9.342v4.972a0,0,0,0,1,0,0H0a0,0,0,0,1,0,0V9.342A9.342,9.342,0,0,1,9.342,0Z" fill="#fff"/>
          </g>
        </g>
        <g id="Grupo_954651" data-name="Grupo 954651">
          <path id="Trazado_637127" data-name="Trazado 637127" d="M1896.58,3158.4h-.6v-12.958h12.155v.6H1896.58Z" transform="translate(-1895.978 -3145.443)" fill="#fff"/>
        </g>
        <g id="Grupo_954652" data-name="Grupo 954652" transform="translate(14.114 23.405)">
          <path id="Trazado_637128" data-name="Trazado 637128" d="M1928.576,3192.3h-12.154v-.6h11.552v-12.355h.6Z" transform="translate(-1916.422 -3179.345)" fill="#fff"/>
        </g>
        <g id="Grupo_954653" data-name="Grupo 954653" transform="translate(0.301 35.76)">
          <rect id="Rectángulo_45089" data-name="Rectángulo 45089" width="8.59" height="0.603" fill="#fff"/>
        </g>
        <g id="Grupo_954654" data-name="Grupo 954654" transform="translate(17.329)">
          <path id="Trazado_637129" data-name="Trazado 637129" d="M1930.018,3148.963h-.6v-2.917h-8.337v-.6h8.94Z" transform="translate(-1921.078 -3145.443)" fill="#fff"/>
        </g>
        <g id="Grupo_954655" data-name="Grupo 954655" transform="translate(25.666 7.734)">
          <rect id="Rectángulo_45090" data-name="Rectángulo 45090" width="0.603" height="3.516" fill="#fff"/>
        </g>
      </g>
      <g id="Grupo_954657" data-name="Grupo 954657" transform="translate(32.597 0.301)">
        <rect id="Rectángulo_45091" data-name="Rectángulo 45091" width="20.142" height="2.411" fill="#fff"/>
      </g>
      <g id="Grupo_954658" data-name="Grupo 954658" transform="translate(32.597 6.127)">
        <rect id="Rectángulo_45092" data-name="Rectángulo 45092" width="39.452" height="2.411" fill="#fff"/>
      </g>
      <g id="Grupo_954659" data-name="Grupo 954659" transform="translate(32.597 10.949)">
        <rect id="Rectángulo_45093" data-name="Rectángulo 45093" width="29.131" height="2.411" fill="#fff"/>
      </g>
      <g id="Grupo_954660" data-name="Grupo 954660" transform="translate(32.597 18.181)">
        <rect id="Rectángulo_45094" data-name="Rectángulo 45094" width="2.712" height="2.411" fill="#00f5f0"/>
      </g>
      <g id="Grupo_954661" data-name="Grupo 954661" transform="translate(38.273 18.181)">
        <rect id="Rectángulo_45095" data-name="Rectángulo 45095" width="13.209" height="2.411" fill="#fff"/>
      </g>
      <g id="Grupo_954662" data-name="Grupo 954662" transform="translate(32.597 23.104)">
        <rect id="Rectángulo_45096" data-name="Rectángulo 45096" width="2.712" height="2.411" fill="#00f5f0"/>
      </g>
      <g id="Grupo_954663" data-name="Grupo 954663" transform="translate(38.273 23.104)">
        <rect id="Rectángulo_45097" data-name="Rectángulo 45097" width="18.734" height="2.411" fill="#fff"/>
      </g>
      <g id="Grupo_954664" data-name="Grupo 954664" transform="translate(32.597 28.025)">
        <rect id="Rectángulo_45098" data-name="Rectángulo 45098" width="2.712" height="2.411" fill="#00f5f0"/>
      </g>
      <g id="Grupo_954665" data-name="Grupo 954665" transform="translate(38.273 28.025)">
        <rect id="Rectángulo_45099" data-name="Rectángulo 45099" width="28.678" height="2.411" fill="#fff"/>
      </g>
      <g id="Grupo_954666" data-name="Grupo 954666" transform="translate(32.597 32.947)">
        <rect id="Rectángulo_45100" data-name="Rectángulo 45100" width="2.712" height="2.411" fill="#00f5f0"/>
      </g>
      <g id="Grupo_954667" data-name="Grupo 954667" transform="translate(38.273 32.947)">
        <rect id="Rectángulo_45101" data-name="Rectángulo 45101" width="22.904" height="2.411" fill="#fff"/>
      </g>
    </g>
    <rect id="Rectángulo_45102" data-name="Rectángulo 45102" width="93.519" height="31.441" rx="5.238" transform="translate(1954.503 3203.755) rotate(180)" fill="#bee7ed"/>
    <g id="Grupo_954683" data-name="Grupo 954683" transform="translate(1868.267 3176.933)" opacity="0.8">
      <g id="Grupo_954669" data-name="Grupo 954669" transform="translate(0 1.683)">
        <rect id="Rectángulo_45103" data-name="Rectángulo 45103" width="11.451" height="11.451" fill="#fff"/>
      </g>
      <g id="Grupo_954670" data-name="Grupo 954670" transform="translate(22.702 0.578)">
        <rect id="Rectángulo_45104" data-name="Rectángulo 45104" width="4.922" height="2.411" fill="#fff"/>
      </g>
      <g id="Grupo_954671" data-name="Grupo 954671" transform="translate(31.742 0.578)">
        <rect id="Rectángulo_45105" data-name="Rectángulo 45105" width="13.862" height="2.411" fill="#fff"/>
      </g>
      <g id="Grupo_954672" data-name="Grupo 954672" transform="translate(69.989 0.578)">
        <rect id="Rectángulo_45106" data-name="Rectángulo 45106" width="8.965" height="2.411" fill="#00f5f0"/>
      </g>
      <g id="Grupo_954673" data-name="Grupo 954673" transform="translate(69.989 5.198)">
        <rect id="Rectángulo_45107" data-name="Rectángulo 45107" width="8.965" height="2.411" fill="#00f5f0"/>
      </g>
      <g id="Grupo_954674" data-name="Grupo 954674" transform="translate(69.989 9.819)">
        <rect id="Rectángulo_45108" data-name="Rectángulo 45108" width="8.965" height="2.411" fill="#00f5f0"/>
      </g>
      <g id="Grupo_954675" data-name="Grupo 954675" transform="translate(69.989 14.44)">
        <rect id="Rectángulo_45109" data-name="Rectángulo 45109" width="8.965" height="2.411" fill="#00f5f0"/>
      </g>
      <g id="Grupo_954676" data-name="Grupo 954676" transform="translate(69.989 19.06)">
        <rect id="Rectángulo_45110" data-name="Rectángulo 45110" width="8.965" height="2.411" fill="#00f5f0"/>
      </g>
      <g id="Grupo_954677" data-name="Grupo 954677" transform="translate(22.702 5.198)">
        <rect id="Rectángulo_45111" data-name="Rectángulo 45111" width="31.261" height="2.411" fill="#fff"/>
      </g>
      <g id="Grupo_954678" data-name="Grupo 954678" transform="translate(22.702 9.92)">
        <rect id="Rectángulo_45112" data-name="Rectángulo 45112" width="24.56" height="2.411" fill="#fff"/>
      </g>
      <g id="Grupo_954679" data-name="Grupo 954679" transform="translate(22.702 14.641)">
        <rect id="Rectángulo_45113" data-name="Rectángulo 45113" width="33.651" height="2.411" fill="#fff"/>
      </g>
      <g id="Grupo_954680" data-name="Grupo 954680" transform="translate(22.702 19.362)">
        <rect id="Rectángulo_45114" data-name="Rectángulo 45114" width="37.066" height="2.411" fill="#fff"/>
      </g>
      <g id="Grupo_954681" data-name="Grupo 954681" transform="translate(17.88)">
        <rect id="Rectángulo_45115" data-name="Rectángulo 45115" width="0.603" height="22.351" fill="#fff"/>
      </g>
      <g id="Grupo_954682" data-name="Grupo 954682" transform="translate(64.842)">
        <rect id="Rectángulo_45116" data-name="Rectángulo 45116" width="0.603" height="22.351" fill="#fff"/>
      </g>
    </g>
  </g>
</svg>
