<svg xmlns="http://www.w3.org/2000/svg" xmlns:xlink="http://www.w3.org/1999/xlink" width="85" height="85" viewBox="0 0 85 85">
  <defs>
    <clipPath id="clip-path">
      <rect id="Rectángulo_45651" data-name="Rectángulo 45651" width="85" height="85" transform="translate(1230 14109)" fill="#2ff980" stroke="#707070" stroke-width="1"/>
    </clipPath>
  </defs>
  <g id="Enmascarar_grupo_163" data-name="Enmascarar grupo 163" transform="translate(-1230 -14109)" clip-path="url(#clip-path)">
    <g id="cifrado" transform="translate(1230 14112.539)">
      <path id="Trazado_659263" data-name="Trazado 659263" d="M73.138,76.628H4.735a3.49,3.49,0,0,1-3.49-3.49V4.735a3.49,3.49,0,0,1,3.49-3.49h68.4a3.49,3.49,0,0,1,3.49,3.49v68.4A3.489,3.489,0,0,1,73.138,76.628Zm0,0" fill="#e9feff"/>
      <path id="Trazado_659264" data-name="Trazado 659264" d="M10.719,65.507V25.93a1.61,1.61,0,0,1,1.61-1.61H65.545a1.61,1.61,0,0,1,1.61,1.61V65.507a1.61,1.61,0,0,1-1.61,1.609H12.329a1.609,1.609,0,0,1-1.61-1.609Zm0,0" fill="#71d6a2"/>
      <path id="Trazado_659265" data-name="Trazado 659265" d="M73.138,1.245h-5.98V76.628h5.98a3.489,3.489,0,0,0,3.49-3.49V4.735a3.489,3.489,0,0,0-3.49-3.49Zm0,0" fill="#c4f2f2"/>
      <path id="Trazado_659266" data-name="Trazado 659266" d="M73.138,1.245H4.735a3.49,3.49,0,0,0-3.49,3.49V15.022H76.629V4.735a3.49,3.49,0,0,0-3.49-3.49Zm0,0" fill="#67dde0"/>
      <path id="Trazado_659267" data-name="Trazado 659267" d="M73.138,1.245h-5.98V15.022h9.47V4.735a3.489,3.489,0,0,0-3.49-3.49Zm0,0" fill="#20aba7"/>
      <path id="Trazado_659268" data-name="Trazado 659268" d="M77.7,76.678H60.512a6.053,6.053,0,0,1-6.054-6.054V55.076a6.053,6.053,0,0,1,6.054-6.054H77.7a6.053,6.053,0,0,1,6.054,6.054V70.624A6.053,6.053,0,0,1,77.7,76.678Zm0,0" fill="#fc5c5a"/>
      <path id="Trazado_659269" data-name="Trazado 659269" d="M77.7,49.022H74.783V76.678H77.7a6.053,6.053,0,0,0,6.054-6.054V55.076A6.053,6.053,0,0,0,77.7,49.022Zm0,0" fill="#d84444"/>
      <path id="Trazado_659270" data-name="Trazado 659270" d="M74.6,70.606H63.617a.917.917,0,0,1-.917-.918V62.995a.917.917,0,0,1,.917-.918H74.6a.918.918,0,0,1,.918.918v6.694A.918.918,0,0,1,74.6,70.606Zm0,0" fill="#ffeb7d"/>
      <g id="Grupo_960428" data-name="Grupo 960428">
        <path id="Trazado_659271" data-name="Trazado 659271" d="M71.418,8.131a1.25,1.25,0,1,1-1.25-1.25A1.25,1.25,0,0,1,71.418,8.131Zm0,0" fill="#e9feff"/>
        <path id="Trazado_659272" data-name="Trazado 659272" d="M66.451,8.131a1.25,1.25,0,1,1-1.25-1.25A1.25,1.25,0,0,1,66.451,8.131Zm0,0" fill="#e9feff"/>
        <path id="Trazado_659273" data-name="Trazado 659273" d="M61.484,8.131a1.25,1.25,0,1,1-1.25-1.25A1.25,1.25,0,0,1,61.484,8.131Zm0,0" fill="#e9feff"/>
      </g>
      <path id="Trazado_659274" data-name="Trazado 659274" d="M19.7,35.169l-.443.443a.5.5,0,0,1-.332.125.668.668,0,0,1-.582-.72.777.777,0,0,1,.346-.65l1.634-1.246a.562.562,0,0,1,.374-.139c.374,0,.8.222.8.582v9c0,.374-.457.567-.9.567s-.9-.194-.9-.567Zm0,0"/>
      <path id="Trazado_659275" data-name="Trazado 659275" d="M23.6,40.041V36.18c0-2.312,1.412-3.17,3.239-3.17s3.253.858,3.253,3.17v3.862c0,2.311-1.426,3.169-3.253,3.169S23.6,42.353,23.6,40.041ZM28.3,36.18c0-1.093-.554-1.592-1.453-1.592s-1.44.5-1.44,1.592v3.862c0,1.093.526,1.591,1.44,1.591s1.453-.5,1.453-1.591Zm0,0"/>
      <path id="Trazado_659276" data-name="Trazado 659276" d="M32.809,35.169l-.443.443a.5.5,0,0,1-.332.125.668.668,0,0,1-.582-.72.777.777,0,0,1,.346-.65l1.634-1.246a.562.562,0,0,1,.374-.139c.374,0,.8.222.8.582v9c0,.374-.457.567-.9.567s-.9-.194-.9-.567Zm0,0"/>
      <path id="Trazado_659277" data-name="Trazado 659277" d="M37.474,35.169l-.443.443a.5.5,0,0,1-.333.125.668.668,0,0,1-.581-.72.778.778,0,0,1,.346-.65L38.1,33.121a.563.563,0,0,1,.374-.139c.374,0,.8.222.8.582v9c0,.374-.457.567-.9.567s-.9-.194-.9-.567Zm0,0"/>
      <path id="Trazado_659278" data-name="Trazado 659278" d="M41.376,40.041V36.18c0-2.312,1.412-3.17,3.239-3.17s3.253.858,3.253,3.17v3.862c0,2.311-1.425,3.169-3.253,3.169S41.376,42.353,41.376,40.041Zm4.692-3.862c0-1.093-.553-1.592-1.453-1.592s-1.439.5-1.439,1.592v3.862c0,1.093.526,1.591,1.439,1.591s1.453-.5,1.453-1.591Zm0,0"/>
      <path id="Trazado_659279" data-name="Trazado 659279" d="M50.58,35.169l-.443.443a.5.5,0,0,1-.332.125.668.668,0,0,1-.581-.72.778.778,0,0,1,.346-.65L51.2,33.121a.562.562,0,0,1,.374-.139c.374,0,.8.222.8.582v9c0,.374-.457.567-.9.567s-.9-.194-.9-.567Zm0,0"/>
      <path id="Trazado_659280" data-name="Trazado 659280" d="M55.245,35.169l-.443.443a.5.5,0,0,1-.332.125.668.668,0,0,1-.582-.72.777.777,0,0,1,.346-.65l1.634-1.246a.562.562,0,0,1,.374-.139c.374,0,.8.222.8.582v9c0,.374-.457.567-.9.567s-.9-.194-.9-.567Zm0,0"/>
      <path id="Trazado_659281" data-name="Trazado 659281" d="M18.94,56.651V52.789c0-2.312,1.412-3.17,3.239-3.17s3.252.858,3.252,3.17v3.862c0,2.311-1.425,3.169-3.252,3.169S18.94,58.962,18.94,56.651Zm4.693-3.862c0-1.093-.554-1.592-1.453-1.592s-1.44.5-1.44,1.592v3.862c0,1.093.526,1.591,1.44,1.591s1.453-.5,1.453-1.591Zm0,0"/>
      <path id="Trazado_659282" data-name="Trazado 659282" d="M28.144,51.779l-.443.443a.5.5,0,0,1-.332.125.668.668,0,0,1-.582-.72.778.778,0,0,1,.346-.65l1.634-1.246a.562.562,0,0,1,.374-.139c.374,0,.8.222.8.582v9c0,.374-.457.567-.9.567s-.9-.194-.9-.567Zm0,0"/>
      <path id="Trazado_659283" data-name="Trazado 659283" d="M32.809,51.779l-.443.443a.5.5,0,0,1-.332.125.668.668,0,0,1-.582-.72.777.777,0,0,1,.346-.65l1.634-1.246a.562.562,0,0,1,.374-.139c.374,0,.8.222.8.582v9c0,.374-.457.567-.9.567s-.9-.194-.9-.567Zm0,0"/>
      <path id="Trazado_659284" data-name="Trazado 659284" d="M36.712,56.651V52.789c0-2.312,1.412-3.17,3.239-3.17s3.253.858,3.253,3.17v3.862c0,2.311-1.426,3.169-3.253,3.169S36.712,58.962,36.712,56.651ZM41.4,52.789c0-1.093-.554-1.592-1.453-1.592s-1.44.5-1.44,1.592v3.862c0,1.093.526,1.591,1.44,1.591s1.453-.5,1.453-1.591Zm0,0"/>
      <path id="Trazado_659285" data-name="Trazado 659285" d="M45.916,51.779l-.443.443a.5.5,0,0,1-.333.125.668.668,0,0,1-.581-.72.777.777,0,0,1,.346-.65l1.633-1.246a.563.563,0,0,1,.374-.139c.374,0,.8.222.8.582v9c0,.374-.457.567-.9.567s-.9-.194-.9-.567Zm0,0"/>
      <path id="Trazado_659286" data-name="Trazado 659286" d="M8.681,9.379H41.163a1.245,1.245,0,0,0,0-2.49H8.681a1.245,1.245,0,0,0,0,2.49Zm0,0"/>
      <path id="Trazado_659287" data-name="Trazado 659287" d="M77.7,47.777H60.512a7.307,7.307,0,0,0-7.3,7.3V70.624a7.307,7.307,0,0,0,7.3,7.3H77.7a7.307,7.307,0,0,0,7.3-7.3V55.076A7.307,7.307,0,0,0,77.7,47.777ZM82.51,70.624A4.814,4.814,0,0,1,77.7,75.433H60.512A4.814,4.814,0,0,1,55.7,70.624V55.076a4.814,4.814,0,0,1,4.809-4.809H77.7a4.814,4.814,0,0,1,4.809,4.809Zm0,0"/>
      <path id="Trazado_659288" data-name="Trazado 659288" d="M74.872,60.85V59.615a5.766,5.766,0,0,0-11.532,0V60.85a2.165,2.165,0,0,0-1.885,2.145v6.694a2.165,2.165,0,0,0,2.162,2.163H74.6a2.165,2.165,0,0,0,2.163-2.163V62.994a2.166,2.166,0,0,0-1.886-2.145Zm-5.766-4.51a3.279,3.279,0,0,1,3.276,3.276v1.217H65.83V59.615a3.28,3.28,0,0,1,3.276-3.276Zm5.161,13.021H63.945V63.322H74.268Zm0,0"/>
      <path id="Trazado_659289" data-name="Trazado 659289" d="M52.646,75.383H4.735A2.247,2.247,0,0,1,2.49,73.138V16.267H75.383v27.77a1.245,1.245,0,0,0,2.49,0V4.735A4.741,4.741,0,0,0,73.138,0H4.735A4.741,4.741,0,0,0,0,4.735v68.4a4.74,4.74,0,0,0,4.735,4.735H52.646a1.245,1.245,0,0,0,0-2.49ZM4.735,2.49h68.4a2.247,2.247,0,0,1,2.244,2.244v9.042H2.49V4.735A2.248,2.248,0,0,1,4.735,2.49Zm0,0"/>
      <path id="Trazado_659290" data-name="Trazado 659290" d="M67.155,45.287A1.245,1.245,0,0,0,68.4,44.041V25.93a2.858,2.858,0,0,0-2.855-2.854H12.329A2.858,2.858,0,0,0,9.474,25.93V65.507a2.858,2.858,0,0,0,2.855,2.854H49.478a1.245,1.245,0,0,0,0-2.49H12.329a.364.364,0,0,1-.364-.364V25.93a.365.365,0,0,1,.364-.364H65.545a.365.365,0,0,1,.364.364V44.041A1.245,1.245,0,0,0,67.155,45.287Zm0,0"/>
    </g>
  </g>
</svg>
