<svg xmlns="http://www.w3.org/2000/svg" xmlns:xlink="http://www.w3.org/1999/xlink" width="295" height="173" viewBox="0 0 295 173">
  <defs>
    <clipPath id="clip-path">
      <rect id="Rectángulo_45198" data-name="Rectángulo 45198" width="295" height="173" transform="translate(1125 9042)" fill="#fff" stroke="#707070" stroke-width="1"/>
    </clipPath>
    <clipPath id="clip-path-2">
      <path id="Rectángulo_45190" data-name="Rectángulo 45190" d="M21.482,0H175.96a21.481,21.481,0,0,1,21.481,21.481v98.036A21.481,21.481,0,0,1,175.96,141H21.481A21.481,21.481,0,0,1,0,119.518V21.482A21.482,21.482,0,0,1,21.482,0Z" fill="none"/>
    </clipPath>
    <clipPath id="clip-path-3">
      <path id="Trazado_656010" data-name="Trazado 656010" d="M406.14,568.937h-6.476a19,19,0,0,1-18.983-18.983V516.041a19,19,0,0,1,18.983-18.983h6.476a19,19,0,0,1,18.983,18.983v33.914A19,19,0,0,1,406.14,568.937Zm-6.476-62.111a9.225,9.225,0,0,0-9.215,9.215v33.914a9.225,9.225,0,0,0,9.215,9.215h6.476a9.225,9.225,0,0,0,9.215-9.215V516.041a9.225,9.225,0,0,0-9.215-9.215Z" transform="translate(-380.681 -497.058)" fill="none"/>
    </clipPath>
    <clipPath id="clip-path-4">
      <rect id="Rectángulo_45197" data-name="Rectángulo 45197" width="56.32" height="49.131" fill="none"/>
    </clipPath>
  </defs>
  <g id="Enmascarar_grupo_101" data-name="Enmascarar grupo 101" transform="translate(-1125 -9042)" clip-path="url(#clip-path)">
    <rect id="Rectángulo_45378" data-name="Rectángulo 45378" width="295" height="87" rx="10" transform="translate(1125 9128)" fill="#daf1f5"/>
    <g id="Grupo_955649" data-name="Grupo 955649" transform="translate(909.769 8590.75)">
      <rect id="Rectángulo_45186" data-name="Rectángulo 45186" width="27.498" height="43.824" transform="translate(348.981 575.863)" fill="#b3a4f5"/>
      <rect id="Rectángulo_45187" data-name="Rectángulo 45187" width="210" height="150.964" rx="23" transform="translate(257.731 451.251)" fill="#b3a4f5"/>
      <path id="Rectángulo_45188" data-name="Rectángulo 45188" d="M21.482,0H175.96a21.481,21.481,0,0,1,21.481,21.481v98.036A21.481,21.481,0,0,1,175.96,141H21.481A21.481,21.481,0,0,1,0,119.518V21.482A21.482,21.482,0,0,1,21.482,0Z" transform="translate(264.01 456.233)" fill="#8b77e8"/>
      <g id="Grupo_955635" data-name="Grupo 955635" transform="translate(264.01 456.233)">
        <g id="Grupo_955634" data-name="Grupo 955634" clip-path="url(#clip-path-2)">
          <rect id="Rectángulo_45189" data-name="Rectángulo 45189" width="278.154" height="24.357" transform="translate(-12.895 -8.512)" fill="#3f327a" opacity="0.6"/>
        </g>
      </g>
      <rect id="Rectángulo_45191" data-name="Rectángulo 45191" width="86.786" height="7.216" transform="translate(319.338 616.76)" fill="#8b77e8"/>
      <rect id="Rectángulo_45192" data-name="Rectángulo 45192" width="27.498" height="4.516" transform="translate(348.981 602.214)" fill="#3f327a" opacity="0.2"/>
      <g id="Grupo_955639" data-name="Grupo 955639" transform="translate(276.761 483.211)">
        <g id="Grupo_955636" data-name="Grupo 955636" transform="translate(0 44.182)">
          <path id="Trazado_655993" data-name="Trazado 655993" d="M335.762,590.092v-8.661h-6.021a19.715,19.715,0,0,0-2.613-6.291l4.263-4.261-6.123-6.125-4.264,4.262a19.733,19.733,0,0,0-6.291-2.612v-6.021h-8.66V566.4a19.7,19.7,0,0,0-6.291,2.613l-4.262-4.262-6.124,6.123,4.262,4.263a19.722,19.722,0,0,0-2.614,6.291h-6.019v8.66h6.019a19.737,19.737,0,0,0,2.614,6.293l-4.261,4.259,6.123,6.125,4.262-4.261a19.688,19.688,0,0,0,6.292,2.614v6.017l8.66,0v-6.02a19.706,19.706,0,0,0,6.292-2.614l4.259,4.262,6.125-6.123-4.262-4.262a19.7,19.7,0,0,0,2.612-6.292Zm-25.378,3.157a7.487,7.487,0,1,1,7.488-7.487A7.487,7.487,0,0,1,310.384,593.249Z" transform="translate(-285.006 -560.382)" fill="#ddd7ff"/>
          <path id="Trazado_655994" data-name="Trazado 655994" d="M316.361,580.158a11.582,11.582,0,1,0,11.582,11.582A11.582,11.582,0,0,0,316.361,580.158Zm0,19.069a7.487,7.487,0,1,1,7.489-7.487A7.487,7.487,0,0,1,316.361,599.227Z" transform="translate(-290.984 -566.36)" fill="#8b77e8" opacity="0.5" style="mix-blend-mode: multiply;isolation: isolate"/>
        </g>
        <g id="Grupo_955637" data-name="Grupo 955637" transform="translate(19.774 11.405)" opacity="0.5">
          <path id="Trazado_655995" data-name="Trazado 655995" d="M349.265,537.68l.948-6.129-4.261-.659a14.1,14.1,0,0,0-1.161-4.738l3.484-2.549-3.662-5-3.484,2.55a14.114,14.114,0,0,0-4.165-2.537l.659-4.261-6.128-.948-.659,4.261a14.145,14.145,0,0,0-4.738,1.16l-2.549-3.482-5,3.663,2.55,3.483a14.11,14.11,0,0,0-2.538,4.166L314.3,526l-.947,6.128,4.259.66a14.129,14.129,0,0,0,1.162,4.739l-3.482,2.547,3.663,5,3.482-2.549a14.112,14.112,0,0,0,4.167,2.538l-.659,4.258,6.128.949.659-4.26a14.088,14.088,0,0,0,4.738-1.161l2.549,3.482,5-3.664-2.549-3.482A14.093,14.093,0,0,0,345,537.02Zm-18.3-.542a5.362,5.362,0,1,1,6.118-4.479A5.363,5.363,0,0,1,330.96,537.138Z" transform="translate(-313.348 -513.405)" fill="#ddd6ff"/>
        </g>
        <g id="Grupo_955638" data-name="Grupo 955638" transform="translate(3.96)" opacity="0.5">
          <path id="Trazado_655996" data-name="Trazado 655996" d="M312.906,512.079l.587-3.793-2.636-.408a8.751,8.751,0,0,0-.718-2.931l2.155-1.578-2.266-3.1-2.156,1.578a8.74,8.74,0,0,0-2.578-1.57l.408-2.637-3.791-.586-.408,2.637a8.713,8.713,0,0,0-2.931.718l-1.578-2.155-3.1,2.266,1.578,2.155a8.75,8.75,0,0,0-1.57,2.579l-2.635-.408-.587,3.792,2.635.408a8.739,8.739,0,0,0,.719,2.932l-2.155,1.577,2.267,3.1,2.155-1.578a8.713,8.713,0,0,0,2.578,1.571l-.408,2.635,3.793.587.408-2.636a8.7,8.7,0,0,0,2.932-.719l1.576,2.155,3.1-2.267-1.578-2.155a8.719,8.719,0,0,0,1.569-2.577Zm-11.326-.336a3.317,3.317,0,1,1,3.786-2.772A3.318,3.318,0,0,1,301.58,511.743Z" transform="translate(-290.682 -497.058)" fill="#ddd6ff"/>
        </g>
      </g>
      <path id="Trazado_655997" data-name="Trazado 655997" d="M510.815,467.6a2.907,2.907,0,1,1-2.907-2.907A2.907,2.907,0,0,1,510.815,467.6Z" transform="translate(-74.748 -4.063)" fill="#fff" opacity="0.4"/>
      <g id="Grupo_955640" data-name="Grupo 955640" transform="translate(416.183 460.628)">
        <path id="Trazado_655998" data-name="Trazado 655998" d="M490.648,467.6a2.907,2.907,0,1,1-2.907-2.907A2.907,2.907,0,0,1,490.648,467.6Z" transform="translate(-484.834 -464.691)" fill="#fff" opacity="0.4"/>
        <path id="Trazado_655999" data-name="Trazado 655999" d="M530.981,467.6a2.907,2.907,0,1,1-2.907-2.907A2.907,2.907,0,0,1,530.981,467.6Z" transform="translate(-497.026 -464.691)" fill="#fff" opacity="0.4"/>
      </g>
      <g id="Grupo_955641" data-name="Grupo 955641" transform="translate(388.858 482.513)" opacity="0.5">
        <path id="Trazado_656000" data-name="Trazado 656000" d="M445.671,577.73h39.765V526.144h14.07" transform="translate(-445.671 -505.153)" fill="none" stroke="#ddd7ff" stroke-miterlimit="10" stroke-width="2"/>
        <path id="Trazado_656001" data-name="Trazado 656001" d="M529.052,524.254a3.111,3.111,0,1,1-3.111-3.11A3.111,3.111,0,0,1,529.052,524.254Z" transform="translate(-468.996 -503.641)" fill="none" stroke="#ddd7ff" stroke-miterlimit="10" stroke-width="2"/>
        <path id="Trazado_656002" data-name="Trazado 656002" d="M519.845,590.587a3.111,3.111,0,1,1-3.111-3.11A3.111,3.111,0,0,1,519.845,590.587Z" transform="translate(-466.213 -523.693)" fill="none" stroke="#ddd7ff" stroke-miterlimit="10" stroke-width="2"/>
        <path id="Trazado_656003" data-name="Trazado 656003" d="M511.512,636.129a3.111,3.111,0,1,1-3.111-3.111A3.111,3.111,0,0,1,511.512,636.129Z" transform="translate(-463.694 -537.46)" fill="none" stroke="#ddd7ff" stroke-miterlimit="10" stroke-width="2"/>
        <path id="Trazado_656004" data-name="Trazado 656004" d="M486.014,499.168a3.111,3.111,0,1,1-3.111-3.11A3.111,3.111,0,0,1,486.014,499.168Z" transform="translate(-455.986 -496.058)" fill="none" stroke="#ddd7ff" stroke-miterlimit="10" stroke-width="2"/>
        <path id="Trazado_656005" data-name="Trazado 656005" d="M472.046,582.268a3.111,3.111,0,1,1-3.111-3.11A3.111,3.111,0,0,1,472.046,582.268Z" transform="translate(-451.764 -521.178)" fill="none" stroke="#ddd7ff" stroke-miterlimit="10" stroke-width="2"/>
        <path id="Trazado_656006" data-name="Trazado 656006" d="M502.665,563.112h10.757v17" transform="translate(-462.9 -516.328)" fill="none" stroke="#ddd7ff" stroke-miterlimit="10" stroke-width="2"/>
        <line id="Línea_141" data-name="Línea 141" y1="8.793" transform="translate(17.172 63.784)" fill="none" stroke="#ddd7ff" stroke-miterlimit="10" stroke-width="2"/>
        <path id="Trazado_656007" data-name="Trazado 656007" d="M452.755,609.977H478.45v19.187h10.218" transform="translate(-447.813 -530.495)" fill="none" stroke="#ddd7ff" stroke-miterlimit="10" stroke-width="2"/>
        <path id="Trazado_656008" data-name="Trazado 656008" d="M484.251,504.477v28.955H497.1" transform="translate(-457.334 -498.603)" fill="none" stroke="#ddd7ff" stroke-miterlimit="10" stroke-width="2"/>
      </g>
      <g id="Grupo_955648" data-name="Grupo 955648" transform="translate(337.575 483.211)">
        <g id="Grupo_955642" data-name="Grupo 955642" transform="translate(5.939)">
          <path id="Trazado_656009" data-name="Trazado 656009" d="M406.14,568.937h-6.476a19,19,0,0,1-18.983-18.983V516.041a19,19,0,0,1,18.983-18.983h6.476a19,19,0,0,1,18.983,18.983v33.914A19,19,0,0,1,406.14,568.937Zm-6.476-62.111a9.225,9.225,0,0,0-9.215,9.215v33.914a9.225,9.225,0,0,0,9.215,9.215h6.476a9.225,9.225,0,0,0,9.215-9.215V516.041a9.225,9.225,0,0,0-9.215-9.215Z" transform="translate(-380.681 -497.058)" fill="#ffd35a"/>
        </g>
        <g id="Grupo_955644" data-name="Grupo 955644" transform="translate(5.939)">
          <g id="Grupo_955643" data-name="Grupo 955643" clip-path="url(#clip-path-3)">
            <rect id="Rectángulo_45193" data-name="Rectángulo 45193" width="50.235" height="17.443" transform="translate(-2.297 39.281)" fill="#ffd35a" style="mix-blend-mode: multiply;isolation: isolate"/>
          </g>
        </g>
        <rect id="Rectángulo_45194" data-name="Rectángulo 45194" width="56.32" height="49.131" transform="translate(0 43.521)" fill="#ffc15a"/>
        <g id="Grupo_955646" data-name="Grupo 955646" transform="translate(0 43.521)">
          <g id="Grupo_955645" data-name="Grupo 955645" clip-path="url(#clip-path-4)">
            <rect id="Rectángulo_45195" data-name="Rectángulo 45195" width="107.448" height="3.921" transform="translate(-11.215 42.297) rotate(-45)" fill="#ffe25a"/>
            <rect id="Rectángulo_45196" data-name="Rectángulo 45196" width="107.448" height="10.159" transform="translate(4.58 58.092) rotate(-45)" fill="#ffe25a"/>
          </g>
        </g>
        <g id="Grupo_955647" data-name="Grupo 955647" transform="translate(21.487 53.584)">
          <path id="Trazado_656011" data-name="Trazado 656011" d="M419.706,581.229a7.371,7.371,0,1,0-11.906,5.8l-1.989,15.782h13.048l-1.988-15.781A7.353,7.353,0,0,0,419.706,581.229Z" transform="translate(-403.57 -573.858)" fill="#fff"/>
          <path id="Trazado_656012" data-name="Trazado 656012" d="M417.706,581.229a7.371,7.371,0,1,0-11.906,5.8l-1.989,15.782h13.048l-1.989-15.781A7.353,7.353,0,0,0,417.706,581.229Z" transform="translate(-402.965 -573.858)" fill="#3f327a"/>
        </g>
        <path id="Trazado_656013" data-name="Trazado 656013" d="M444.185,550.132l3.121,6.2,5.7,3.391-5.7,3.392-3.121,6.2-3.12-6.2-5.7-3.392,5.7-3.391Z" transform="translate(-391.271 -513.102)" fill="#fff"/>
        <path id="Trazado_656014" data-name="Trazado 656014" d="M464.059,538.434l1.2,2.391,2.2,1.311-2.2,1.311-1.2,2.394-1.207-2.394-2.2-1.311,2.2-1.311Z" transform="translate(-398.916 -509.566)" fill="#fff"/>
      </g>
    </g>
  </g>
</svg>
