<svg id="Grupo_81330" data-name="Grupo 81330" xmlns="http://www.w3.org/2000/svg" width="67" height="73" viewBox="0 0 67 73">
  <rect id="Rectángulo_34185" data-name="Rectángulo 34185" width="67" height="73" rx="5" fill="#fff"/>
  <g id="Filled_outline" data-name="Filled outline" transform="translate(-9.849 -4.745)">
    <path id="Trazado_656015" data-name="Trazado 656015" d="M245.948,221.285v21.14a3.523,3.523,0,0,1-3.523,3.523H216V221.285A5.285,5.285,0,0,1,221.285,216h19.378a5.392,5.392,0,0,1,1.066.107h0A5.289,5.289,0,0,1,245.948,221.285Z" transform="translate(-177.979 -177.979)" fill="#3d4d63"/>
    <path id="Trazado_656016" data-name="Trazado 656016" d="M245.948,222.148v21.14a3.523,3.523,0,0,1-3.523,3.523H216v-9.822c9.012-3.886,18.767-10.106,25.729-20.019h0A5.289,5.289,0,0,1,245.948,222.148Z" transform="translate(-177.979 -178.843)" fill="#374559"/>
    <path id="Trazado_656017" data-name="Trazado 656017" d="M287.927,24a7.927,7.927,0,0,1,7.927,7.927V45.14H280V31.927A7.927,7.927,0,0,1,287.927,24Z" transform="translate(-234.933 -7.119)" fill="#3d4d63"/>
    <path id="Trazado_656018" data-name="Trazado 656018" d="M330.642,24a7.915,7.915,0,0,0-2.642.451,7.931,7.931,0,0,1,5.285,7.476V45.14h5.285V31.927A7.927,7.927,0,0,0,330.642,24Z" transform="translate(-277.648 -7.119)" fill="#374559"/>
    <path id="Trazado_656019" data-name="Trazado 656019" d="M280,96h15.855v4.4H280Z" transform="translate(-234.933 -71.192)" fill="#fec9a3"/>
    <path id="Trazado_656020" data-name="Trazado 656020" d="M373.98,96,368,98.216a3.146,3.146,0,0,0,4.058,1.995A3.329,3.329,0,0,0,373.98,96Z" transform="translate(-313.244 -71.192)" fill="#f35244"/>
    <path id="Trazado_656021" data-name="Trazado 656021" d="M280.186,96l5.98,2.216a3.146,3.146,0,0,1-4.058,1.995A3.329,3.329,0,0,1,280.186,96Z" transform="translate(-234.933 -71.192)" fill="#f35244"/>
    <path id="Trazado_656022" data-name="Trazado 656022" d="M424,280h1.762v13.212H424Z" transform="translate(-363.078 -234.933)" fill="#2a3845"/>
    <path id="Trazado_656023" data-name="Trazado 656023" d="M92.294,299.378H62.346l-.083-.451L59.2,282.077A1.762,1.762,0,0,1,60.934,280h26.05a2.143,2.143,0,0,1,2.106,1.758Z" transform="translate(-38.419 -234.933)" fill="#e0e0de"/>
    <path id="Trazado_656024" data-name="Trazado 656024" d="M88,456h40.518v3.523H88Z" transform="translate(-64.073 -391.555)" fill="#c7c7c5"/>
    <path id="Trazado_656025" data-name="Trazado 656025" d="M360,456h10.57v3.523H360Z" transform="translate(-306.125 -391.555)" fill="#a3a3a1"/>
    <path id="Trazado_656026" data-name="Trazado 656026" d="M117.281,305.821H87.333l-.083-.451c8.653-2.988,19.084-8.4,26.386-18.13a2.119,2.119,0,0,1,.44.961Z" transform="translate(-63.405 -241.376)" fill="#d6d6d4"/>
    <path id="Trazado_656027" data-name="Trazado 656027" d="M0,0H1.762V8.224H0Z" transform="matrix(0.982, -0.19, 0.19, 0.982, 24.59, 53.168)" fill="#ebebe9"/>
    <path id="Trazado_656028" data-name="Trazado 656028" d="M0,0H1.762V1.791H0Z" transform="matrix(0.984, -0.179, 0.179, 0.984, 23.945, 49.633)" fill="#ebebe9"/>
    <path id="Trazado_656029" data-name="Trazado 656029" d="M48.663,26.642V44.259A2.643,2.643,0,0,1,46.021,46.9H38.093l2.642,7.927L31.927,46.9H26.642A2.641,2.641,0,0,1,24,44.338c0-.026,0-.053,0-.079V26.642A2.643,2.643,0,0,1,26.642,24H46.021a2.644,2.644,0,0,1,2.642,2.642Z" transform="translate(-7.119 -7.119)" fill="#f35244"/>
    <path id="Trazado_656030" data-name="Trazado 656030" d="M48.681,32.24V49.856A2.643,2.643,0,0,1,46.038,52.5H38.111l2.642,7.927L31.945,52.5H26.66a2.641,2.641,0,0,1-2.64-2.563c6.957-1.605,19.689-6.314,23.8-19.645A2.633,2.633,0,0,1,48.681,32.24Z" transform="translate(-7.137 -12.717)" fill="#ea4a3b"/>
    <path id="Trazado_656031" data-name="Trazado 656031" d="M95.047,35.451h2.642v1.321a3.083,3.083,0,1,1-6.166,0V24H88V36.772a6.606,6.606,0,1,0,13.212,0V27.523Z" transform="translate(-64.073 -7.119)" fill="#ffb531"/>
    <path id="Trazado_656032" data-name="Trazado 656032" d="M370.57,399.047H360v-4.4A2.642,2.642,0,0,1,362.642,392h5.285a2.642,2.642,0,0,1,2.642,2.642Z" transform="translate(-306.125 -334.601)" fill="#fec9a3"/>
    <path id="Trazado_656033" data-name="Trazado 656033" d="M417.762,392H416a2.642,2.642,0,0,1,2.642,2.642v4.4H420.4v-4.4A2.642,2.642,0,0,0,417.762,392Z" transform="translate(-355.959 -334.601)" fill="#fec093"/>
    <path id="Trazado_656034" data-name="Trazado 656034" d="M93.993,37.14h-.881V24.808a8.808,8.808,0,1,0-17.616,0V38.021a.881.881,0,0,0,.881.881H93.993a4.409,4.409,0,0,1,4.4,4.4v21.14a2.647,2.647,0,0,1-1.762,2.491v-6.9a3.53,3.53,0,0,0-2.642-3.412V45.067H92.231V56.518h-4.4a3.522,3.522,0,0,0-2.91,1.539L82.845,46.672a3.02,3.02,0,0,0-2.972-2.486H66.687v1.762H79.873a1.26,1.26,0,0,1,1.239,1.039l3.017,16.578H55.972L52.959,46.991a.883.883,0,0,1,.868-1.043H58.76V44.186H53.827a2.645,2.645,0,0,0-2.6,3.117l3.13,17.221v3.444a.881.881,0,0,0,.881.881H95.755a4.409,4.409,0,0,0,4.4-4.4V43.306A6.173,6.173,0,0,0,93.993,37.14ZM84.3,17.762a7.055,7.055,0,0,1,6.99,6.166H77.314a7.055,7.055,0,0,1,6.99-6.166Zm7.045,8.244a2.4,2.4,0,0,1-1.532,2.188,2.178,2.178,0,0,1-1.7-.075,2.3,2.3,0,0,1-.794-.619Zm-6.116,1.306a4.239,4.239,0,0,0,.513,1.02H82.862a4.239,4.239,0,0,0,.513-1.02.881.881,0,0,0-.527-1.112l-1.375-.51h5.662l-1.375.51A.881.881,0,0,0,85.233,27.311Zm-3.946.187a2.3,2.3,0,0,1-.794.619,2.178,2.178,0,0,1-1.7.075,2.4,2.4,0,0,1-1.532-2.188ZM91.351,37.14H77.257V30.093H91.351ZM84.3,67.088H56.118V65.326H84.3Zm10.57,0H86.066V65.326h8.808Zm0-3.523H86.066V60.041a1.764,1.764,0,0,1,1.762-1.762h5.285a1.764,1.764,0,0,1,1.762,1.762Z" transform="translate(-31.309 0)"/>
    <path id="Trazado_656035" data-name="Trazado 656035" d="M329.554,161.633H328v1.762h1.554a9.272,9.272,0,0,0,4.125-.974l-.788-1.576a7.5,7.5,0,0,1-3.337.788Z" transform="translate(-277.648 -128.897)"/>
    <path id="Trazado_656036" data-name="Trazado 656036" d="M0,0H1.762V8.224H0Z" transform="matrix(0.982, -0.19, 0.19, 0.982, 24.591, 53.168)"/>
    <path id="Trazado_656037" data-name="Trazado 656037" d="M0,0H1.762V1.79H0Z" transform="matrix(0.984, -0.179, 0.179, 0.984, 23.947, 49.632)"/>
    <path id="Trazado_656038" data-name="Trazado 656038" d="M33.027,48.364a.881.881,0,0,0,1.425-.933L32.2,40.663H38.9a3.527,3.527,0,0,0,3.523-3.523V19.523A3.527,3.527,0,0,0,38.9,16H19.523A3.527,3.527,0,0,0,16,19.523V37.14a3.527,3.527,0,0,0,3.523,3.523H24.47Zm-8.219-30.6H26.57V29.653a3.964,3.964,0,1,0,7.927,0V28.332a.881.881,0,0,0-.881-.881h-.842l3.484-4.479v6.681a5.725,5.725,0,0,1-11.451,0ZM17.762,37.14V19.523a1.764,1.764,0,0,1,1.762-1.762h3.523V29.653a7.487,7.487,0,0,0,14.974,0V20.4a.881.881,0,0,0-1.576-.541l-6.166,7.927a.881.881,0,0,0,.7,1.422h1.762v.44a2.2,2.2,0,1,1-4.4,0V17.762H38.9a1.764,1.764,0,0,1,1.762,1.762V37.14A1.764,1.764,0,0,1,38.9,38.9H30.974a.881.881,0,0,0-.836,1.159l1.587,4.762-6.328-5.7a.881.881,0,0,0-.589-.226H19.523a1.764,1.764,0,0,1-1.762-1.762Z" transform="translate(0 0)"/>
  </g>
</svg>
