<svg id="Grupo_955664" data-name="Grupo 955664" xmlns="http://www.w3.org/2000/svg" xmlns:xlink="http://www.w3.org/1999/xlink" width="67" height="73" viewBox="0 0 67 73">
  <defs>
    <clipPath id="clip-path">
      <path id="path1139" d="M0-682.665H54.25v54.25H0Z" transform="translate(0 682.665)"/>
    </clipPath>
  </defs>
  <rect id="Rectángulo_34185" data-name="Rectángulo 34185" width="67" height="73" rx="5" fill="#fff"/>
  <g id="g1125" transform="translate(6.375 692.098)">
    <g id="g1127" transform="translate(3.802 -677.258)">
      <path id="path1129" d="M-105.557-10h0a.8.8,0,0,1,.7.425l8.318,15.8a.8.8,0,0,1-.023.781.8.8,0,0,1-.68.384h-16.636a.8.8,0,0,1-.68-.384.8.8,0,0,1-.023-.781l8.318-15.8A.8.8,0,0,1-105.557-10Zm7,15.8-7-13.3-7,13.3Z" transform="translate(114.669 10)"/>
    </g>
    <g id="g1131" transform="translate(12.12 -679.699)">
      <path id="path1133" d="M-9.205,9.834A.8.8,0,0,1-10,9.04V-9.205A.8.8,0,0,1-9.205-10a.8.8,0,0,1,.795.795V9.04A.8.8,0,0,1-9.205,9.834Z" transform="translate(10 10)"/>
    </g>
    <g id="g1135" transform="translate(0 -682.665)">
      <g id="g1137" transform="translate(0 0)" clip-path="url(#clip-path)">
        <g id="g1143" transform="translate(4.149 21.556)">
          <path id="path1145" d="M-.5-5.523,1.41-2.217a.318.318,0,0,0,.275.159H14.763a.318.318,0,0,0,.275-.159l1.909-3.306A.318.318,0,0,0,16.672-6H-.223A.318.318,0,0,0-.5-5.523" transform="translate(0.541 6)" fill="#fed402"/>
        </g>
        <g id="g1147" transform="translate(32.222 5.407)">
          <path id="path1149" d="M-105.557-10h0a.8.8,0,0,1,.7.425l8.318,15.8a.8.8,0,0,1-.023.781.8.8,0,0,1-.68.384h-16.636a.8.8,0,0,1-.68-.384.8.8,0,0,1-.023-.781l8.318-15.8A.8.8,0,0,1-105.557-10Zm7,15.8-7-13.3-7,13.3Z" transform="translate(114.669 10)"/>
        </g>
        <g id="g1151" transform="translate(40.54 2.966)">
          <path id="path1153" d="M-9.205,9.834A.8.8,0,0,1-10,9.04V-9.205A.8.8,0,0,1-9.205-10a.8.8,0,0,1,.795.795V9.04A.8.8,0,0,1-9.205,9.834Z" transform="translate(10 10)"/>
        </g>
        <g id="g1155" transform="translate(32.569 21.556)">
          <path id="path1157" d="M-.5-5.523,1.41-2.217a.318.318,0,0,0,.275.159H14.763a.318.318,0,0,0,.275-.159l1.909-3.306A.318.318,0,0,0,16.671-6H-.224A.318.318,0,0,0-.5-5.523" transform="translate(0.542 6)" fill="#fed402"/>
        </g>
        <g id="g1159" transform="translate(4.149 21.556)">
          <path id="path1161" d="M-.5-5.523,1.41-2.217a.318.318,0,0,0,.275.159H14.763a.318.318,0,0,0,.275-.159l1.909-3.306A.318.318,0,0,0,16.672-6H-.223A.318.318,0,0,0-.5-5.523" transform="translate(0.541 6)" fill="#c96e58"/>
        </g>
        <g id="g1163" transform="translate(4.149 21.556)">
          <path id="path1165" d="M-74.627-43.817l-1.909-3.306a.318.318,0,0,1,.275-.477h-4.491a.318.318,0,0,0-.275.477l1.909,3.306a.318.318,0,0,0,.275.159h4.491a.318.318,0,0,1-.275-.159" transform="translate(81.069 47.6)" fill="#bb5d4c"/>
        </g>
        <g id="g1167" transform="translate(3.356 20.761)">
          <path id="path1169" d="M-9.417-16H7.477a1.116,1.116,0,0,1,.964.556,1.116,1.116,0,0,1,0,1.113L6.532-11.025a1.116,1.116,0,0,1-.963.556H-7.509a1.116,1.116,0,0,1-.963-.556l-1.909-3.306a1.116,1.116,0,0,1,0-1.113A1.116,1.116,0,0,1-9.417-16ZM6.652-14.411H-8.591l1.358,2.352H5.294Z" transform="translate(10.529 16)"/>
        </g>
        <g id="g1171" transform="translate(32.569 21.556)">
          <path id="path1173" d="M-.5-5.523,1.41-2.217a.318.318,0,0,0,.275.159H14.763a.318.318,0,0,0,.275-.159l1.909-3.306A.318.318,0,0,0,16.671-6H-.224A.318.318,0,0,0-.5-5.523" transform="translate(0.542 6)" fill="#c96e58"/>
        </g>
        <g id="g1175" transform="translate(32.569 21.556)">
          <path id="path1177" d="M-81.053-43.817l-1.909-3.306a.318.318,0,0,1,.275-.477h-5.045a.318.318,0,0,0-.275.477l1.909,3.306a.318.318,0,0,0,.275.159h5.045a.318.318,0,0,1-.275-.159" transform="translate(88.05 47.6)" fill="#bb5d4c"/>
        </g>
        <g id="g1179" transform="translate(31.776 20.761)">
          <path id="path1181" d="M-162.713-54.069H-164.6a.8.8,0,0,1-.795-.795.8.8,0,0,1,.795-.795h1.613l1.358-2.352h-15.243l1.358,2.352h7.205a.8.8,0,0,1,.795.795.8.8,0,0,1-.795.795h-7.481a1.115,1.115,0,0,1-.964-.557l-1.908-3.305a1.116,1.116,0,0,1,0-1.113,1.116,1.116,0,0,1,.963-.556H-160.8a1.116,1.116,0,0,1,.964.556,1.116,1.116,0,0,1,0,1.112l-1.909,3.306A1.116,1.116,0,0,1-162.713-54.069Z" transform="translate(178.811 59.6)"/>
        </g>
        <g id="g1183" transform="translate(26.33 2.512)">
          <path id="path1185" d="M-9.205-364.637a.8.8,0,0,1-.795-.795v-30.752a.8.8,0,0,1,.795-.795.8.8,0,0,1,.795.795v30.752A.8.8,0,0,1-9.205-364.637Z" transform="translate(10 396.979)"/>
        </g>
        <g id="g1187" transform="translate(25.002 10.927)">
          <path id="path1189" d="M-49.176-246.96h-4.245v-20.79a.53.53,0,0,1,.53-.53h3.186a.53.53,0,0,1,.53.53Z" transform="translate(53.421 268.279)" fill="#bb5d4c"/>
        </g>
        <g id="g1191" transform="translate(25.002 10.927)">
          <path id="path1193" d="M-26.96,0h-1.8a.53.53,0,0,0-.53.53V21.32h1.8V.53A.53.53,0,0,1-26.96,0" transform="translate(29.288 0)" fill="#a44f3e"/>
        </g>
        <g id="g1195" transform="translate(24.208 10.132)">
          <path id="path1197" d="M-58.381-20.26h-4.245a.8.8,0,0,1-.795-.795v-20.79A1.326,1.326,0,0,1-62.1-43.169h3.186a1.326,1.326,0,0,1,1.324,1.324v2.106a.8.8,0,0,1-.795.795.8.8,0,0,1-.795-.795V-41.58h-2.656v19.73h2.656V-36.03a.8.8,0,0,1,.795-.795.8.8,0,0,1,.795.795v14.975A.8.8,0,0,1-58.381-20.26Z" transform="translate(63.421 43.169)"/>
        </g>
        <g id="g1199" transform="translate(8.351 2.966)">
          <path id="path1201" d="M26.753-8.411H-9.205A.8.8,0,0,1-10-9.205.8.8,0,0,1-9.205-10H26.753a.8.8,0,0,1,.795.795A.8.8,0,0,1,26.753-8.411Z" transform="translate(10 10)"/>
        </g>
        <g id="g1203" transform="translate(24.159 0.795)">
          <path id="path1205" d="M-68.721-34.36a2.966,2.966,0,0,1-2.966,2.966,2.966,2.966,0,0,1-2.966-2.966,2.966,2.966,0,0,1,2.966-2.966,2.966,2.966,0,0,1,2.966,2.966" transform="translate(74.653 37.327)" fill="#883f2e"/>
        </g>
        <g id="g1207" transform="translate(24.159 0.795)">
          <path id="path1209" d="M-30.69-34.36a2.965,2.965,0,0,1,1.642-2.654,2.952,2.952,0,0,0-1.325-.312A2.966,2.966,0,0,0-33.34-34.36a2.966,2.966,0,0,0,2.966,2.966,2.952,2.952,0,0,0,1.325-.312A2.966,2.966,0,0,1-30.69-34.36" transform="translate(33.34 37.327)" fill="#6d3326"/>
        </g>
        <g id="g1211" transform="translate(23.364 0)">
          <path id="path1213" d="M-80.892-47.327a3.765,3.765,0,0,1,3.761,3.761A3.765,3.765,0,0,1-80.892-39.8a3.765,3.765,0,0,1-3.761-3.761A3.765,3.765,0,0,1-80.892-47.327Zm0,5.933a2.174,2.174,0,0,0,2.172-2.172,2.174,2.174,0,0,0-2.172-2.172,2.174,2.174,0,0,0-2.172,2.172A2.174,2.174,0,0,0-80.892-41.394Z" transform="translate(84.653 47.327)"/>
        </g>
        <g id="g1215" transform="translate(22.172 30.885)">
          <path id="path1217" d="M-114.746-65.857h-9.906v-3.566a2.119,2.119,0,0,1,2.119-2.119h5.668a2.119,2.119,0,0,1,2.119,2.119Z" transform="translate(124.652 71.542)" fill="#883f2e"/>
        </g>
        <g id="g1219" transform="translate(22.172 30.885)">
          <path id="path1221" d="M-65.965,0h-3.576A2.119,2.119,0,0,0-71.66,2.119V5.685h3.576V2.119A2.119,2.119,0,0,1-65.965,0" transform="translate(71.66 0)" fill="#6d3326"/>
        </g>
        <g id="g1223" transform="translate(21.377 30.09)">
          <path id="path1225" d="M-123.951-74.268h-9.906a.8.8,0,0,1-.795-.795v-3.566a2.917,2.917,0,0,1,2.914-2.914h5.668a2.917,2.917,0,0,1,2.914,2.914v3.566A.8.8,0,0,1-123.951-74.268Zm-9.111-1.589h8.316v-2.772a1.326,1.326,0,0,0-1.324-1.324h-5.668a1.326,1.326,0,0,0-1.324,1.324Z" transform="translate(134.652 81.542)"/>
        </g>
        <g id="g1227" transform="translate(18.137 35.438)">
          <path id="path1229" d="M-208.23-64.514h-17.976v-3.753a1.816,1.816,0,0,1,1.816-1.816h14.344a1.816,1.816,0,0,1,1.816,1.816Z" transform="translate(226.206 70.084)" fill="#bb5d4c"/>
        </g>
        <g id="g1231" transform="translate(18.137 35.438)">
          <path id="path1233" d="M-72.8,0h-4.468a1.816,1.816,0,0,0-1.816,1.816V5.569h4.468V1.816A1.816,1.816,0,0,1-72.8,0" transform="translate(79.082)" fill="#a44f3e"/>
        </g>
        <g id="g1235" transform="translate(17.342 34.643)">
          <path id="path1237" d="M-217.435-113.4h-17.976a.8.8,0,0,1-.795-.795v-7.248a2.614,2.614,0,0,1,2.611-2.611h14.344a2.614,2.614,0,0,1,2.611,2.611v7.248A.8.8,0,0,1-217.435-113.4Zm-17.181-1.589h16.387v-6.453a1.023,1.023,0,0,0-1.021-1.021H-233.6a1.023,1.023,0,0,0-1.021,1.021Z" transform="translate(236.206 124.057)"/>
        </g>
        <g id="g1239" transform="translate(1.441 40.158)">
          <path id="path1241" d="M-567.173-127.859h-43.444a5.519,5.519,0,0,1-5.519-5.519h0a5.519,5.519,0,0,1,5.519-5.519h43.444Z" transform="translate(616.136 138.897)" fill="#6e61b6"/>
        </g>
        <g id="g1243" transform="translate(1.441 40.158)">
          <path id="path1245" d="M-31.054-63.929h0a5.519,5.519,0,0,1,5.519-5.519h-2.681a5.519,5.519,0,0,0-5.519,5.519,5.519,5.519,0,0,0,5.519,5.519h2.681a5.519,5.519,0,0,1-5.519-5.519" transform="translate(33.735 69.448)" fill="#6354b1"/>
        </g>
        <g id="g1247" transform="translate(0.646 39.364)">
          <path id="path1249" d="M-576.378-136.27h-43.444a6.321,6.321,0,0,1-6.314-6.314,6.321,6.321,0,0,1,6.314-6.314h12.431a.8.8,0,0,1,.266.046l31.014,11.038a.8.8,0,0,1,.517.884A.8.8,0,0,1-576.378-136.27Zm-43.444-11.038a4.73,4.73,0,0,0-4.724,4.724,4.73,4.73,0,0,0,4.724,4.724h38.841l-26.548-9.449Z" transform="translate(626.136 148.897)"/>
        </g>
        <g id="g1251" transform="translate(8.233 40.158)">
          <path id="path1253" d="M0-32.784v5.377a2.83,2.83,0,0,0,2.83,2.83H42.17V-35.615H2.83A2.83,2.83,0,0,0,0-32.784" transform="translate(0 35.615)" fill="#fff3de"/>
        </g>
        <g id="g1255" transform="translate(8.233 40.162)">
          <path id="path1257" d="M-63.833-97.126a2.83,2.83,0,0,1-2.83-2.83v-5.377c0-.06,0-.118.006-.177a2.83,2.83,0,0,0-2.686,2.827v5.377a2.83,2.83,0,0,0,2.83,2.83h39.34v-2.65Z" transform="translate(69.344 105.51)" fill="#ffe5c2"/>
        </g>
        <g id="g1259" transform="translate(7.438 39.364)">
          <path id="path1261" d="M-163.43,2.627h-39.34A3.629,3.629,0,0,1-206.4-1V-6.375A3.629,3.629,0,0,1-202.771-10h12.777a.8.8,0,0,1,.795.795.8.8,0,0,1-.795.795h-12.777a2.038,2.038,0,0,0-2.036,2.036V-1a2.038,2.038,0,0,0,2.036,2.036h38.546V-8.411h-22.06a.8.8,0,0,1-.795-.795.8.8,0,0,1,.795-.795h22.855a.8.8,0,0,1,.795.795V1.833A.8.8,0,0,1-163.43,2.627Z" transform="translate(206.396 10)"/>
        </g>
        <g id="g1263" transform="translate(43.666 39.364)">
          <path id="path1265" d="M-.856-8.411H-9.205A.8.8,0,0,1-10-9.205.8.8,0,0,1-9.205-10H-.856a.8.8,0,0,1,.795.795A.8.8,0,0,1-.856-8.411Z" transform="translate(10 10)"/>
        </g>
        <g id="g1267" transform="translate(43.666 50.402)">
          <path id="path1269" d="M-.856-8.411H-9.205A.8.8,0,0,1-10-9.205.8.8,0,0,1-9.205-10H-.856a.8.8,0,0,1,.795.795A.8.8,0,0,1-.856-8.411Z" transform="translate(10 10)"/>
        </g>
        <g id="g1271" transform="translate(31.637 42.901)">
          <path id="path1273" d="M8.484-8.411H-9.205A.8.8,0,0,1-10-9.205.8.8,0,0,1-9.205-10H8.484a.8.8,0,0,1,.795.795A.8.8,0,0,1,8.484-8.411Z" transform="translate(10 10)"/>
        </g>
        <g id="g1275" transform="translate(12.21 43.696)">
          <path id="path1277" d="M-67.035-109.359V-118.8h-5.787v9.441a.318.318,0,0,0,.5.261l2.395-1.657,2.395,1.657a.318.318,0,0,0,.5-.261" transform="translate(72.822 118.8)" fill="#fb2b3a"/>
        </g>
        <g id="g1279" transform="translate(12.21 43.696)">
          <path id="path1281" d="M-30.861,0h-2.664V9.441a.318.318,0,0,0,.5.261l2.165-1.5Z" transform="translate(33.525)" fill="#e41f2d"/>
        </g>
        <g id="g1283" transform="translate(11.416 42.901)">
          <path id="path1285" d="M-76.56-117.451a1.106,1.106,0,0,1-.632-.2l-1.943-1.344-1.943,1.344a1.106,1.106,0,0,1-.632.2,1.115,1.115,0,0,1-1.114-1.113V-128a.8.8,0,0,1,.795-.795h5.787a.8.8,0,0,1,.795.795v9.441a1.1,1.1,0,0,1-.345.805A1.112,1.112,0,0,1-76.56-117.451Zm-4.674-9.759v7.736l1.647-1.14a.8.8,0,0,1,.9,0l1.647,1.14v-7.736Z" transform="translate(82.822 128.8)"/>
        </g>
        <g id="g1287" transform="translate(10.269 42.901)">
          <path id="path1289" d="M5.229-8.411H-9.205A.8.8,0,0,1-10-9.205.8.8,0,0,1-9.205-10H5.229a.8.8,0,0,1,.795.795A.8.8,0,0,1,5.229-8.411Z" transform="translate(10 10)"/>
        </g>
        <g id="g1291" transform="translate(31.637 46.864)">
          <path id="path1293" d="M8.484-8.411H-9.205A.8.8,0,0,1-10-9.205.8.8,0,0,1-9.205-10H8.484a.8.8,0,0,1,.795.795A.8.8,0,0,1,8.484-8.411Z" transform="translate(10 10)"/>
        </g>
      </g>
    </g>
  </g>
</svg>
