<svg id="Grupo_955660" data-name="Grupo 955660" xmlns="http://www.w3.org/2000/svg" width="67" height="73" viewBox="0 0 67 73">
  <rect id="Rectángulo_34185" data-name="Rectángulo 34185" width="67" height="73" rx="5" fill="#fff"/>
  <g id="hack" transform="translate(3.462 6.932)">
    <path id="Trazado_656039" data-name="Trazado 656039" d="M6.738,60.738H53.468A3.738,3.738,0,0,0,57.206,57H3A3.738,3.738,0,0,0,6.738,60.738Z" transform="translate(-0.065 -3.598)" fill="#d9d9d9"/>
    <g id="Grupo_955665" data-name="Grupo 955665" transform="translate(5.738 2.934)">
      <circle id="Elipse_5624" data-name="Elipse 5624" cx="1.869" cy="1.869" r="1.869" transform="translate(0 2.804)" fill="#f7ba41"/>
      <circle id="Elipse_5625" data-name="Elipse 5625" cx="1.869" cy="1.869" r="1.869" transform="translate(47.664 5.608)" fill="#f7ba41"/>
      <circle id="Elipse_5626" data-name="Elipse 5626" cx="1.869" cy="1.869" r="1.869" transform="translate(39.253 0)" fill="#f7ba41"/>
      <circle id="Elipse_5627" data-name="Elipse 5627" cx="1.869" cy="1.869" r="1.869" transform="translate(23.365 5.608)" fill="#f7ba41"/>
    </g>
    <path id="Trazado_656040" data-name="Trazado 656040" d="M8,23H52.86V54.776H8Z" transform="translate(-0.392 -1.374)" fill="#d9d9d9"/>
    <path id="Trazado_656041" data-name="Trazado 656041" d="M12,27H49.384V51.3H12Z" transform="translate(-0.654 -1.636)" fill="#41bdf7"/>
    <path id="Trazado_656042" data-name="Trazado 656042" d="M38.757,31.411H28.477V27.673a.935.935,0,0,1,.935-.935h8.411A3.738,3.738,0,0,0,34.084,23H28.477a3.738,3.738,0,0,0-3.738,3.738v4.673H23.8a2.8,2.8,0,0,0-2.8,2.8v9.346a2.8,2.8,0,0,0,2.8,2.8H38.757a2.8,2.8,0,0,0,2.8-2.8V34.215A2.8,2.8,0,0,0,38.757,31.411Z" transform="translate(-1.243 -1.374)" fill="#f7ba41"/>
    <path id="Trazado_656043" data-name="Trazado 656043" d="M23.738,26.673v3.738A3.738,3.738,0,0,0,20,34.15V43.5a3.738,3.738,0,0,0,3.738,3.738H38.692A3.738,3.738,0,0,0,42.43,43.5V34.15a3.738,3.738,0,0,0-3.738-3.738h-.935V32.28h.935a1.869,1.869,0,0,1,1.869,1.869V43.5a1.869,1.869,0,0,1-1.869,1.869H23.738A1.869,1.869,0,0,1,21.869,43.5V34.15a1.869,1.869,0,0,1,1.869-1.869H34.953V30.411H29.346v-2.8h3.738V25.738H29.346a1.869,1.869,0,0,0-1.869,1.869v2.8H25.608V26.673a2.8,2.8,0,0,1,2.8-2.8h5.608a2.8,2.8,0,0,1,2.8,2.8h1.869A4.679,4.679,0,0,0,34.019,22H28.411A4.679,4.679,0,0,0,23.738,26.673Z" transform="translate(-1.177 -1.309)"/>
    <path id="Trazado_656044" data-name="Trazado 656044" d="M34.608,37.738V35.869a.935.935,0,0,0-.935-.935h-.935V34H30.869v.935h-.935a.935.935,0,0,0-.935.935v3.738a.935.935,0,0,0,.935.935h2.8v1.869H30.869v-.935H29v1.869a.935.935,0,0,0,.935.935h3.738a.935.935,0,0,0,.935-.935V39.608a.935.935,0,0,0-.935-.935h-2.8V36.8h1.869v.935Z" transform="translate(-1.766 -2.094)"/>
    <path id="Trazado_656045" data-name="Trazado 656045" d="M39.972,27.869h8.411V50.3H12.869V27.869H21.28V26H11.935a.935.935,0,0,0-.935.935v24.3a.935.935,0,0,0,.935.935H49.318a.935.935,0,0,0,.935-.935v-24.3A.935.935,0,0,0,49.318,26H39.972Z" transform="translate(-0.589 -1.571)"/>
    <path id="Trazado_656046" data-name="Trazado 656046" d="M57.141,56H2.935A.935.935,0,0,0,2,56.935a4.679,4.679,0,0,0,4.673,4.673H53.4a4.679,4.679,0,0,0,4.673-4.673A.935.935,0,0,0,57.141,56ZM53.4,59.738H6.673a2.809,2.809,0,0,1-2.644-1.869H56.046A2.809,2.809,0,0,1,53.4,59.738Z" transform="translate(0 -3.533)"/>
    <path id="Trazado_656047" data-name="Trazado 656047" d="M7,22.935V51.907H8.869V23.869h12.15V22H7.935A.935.935,0,0,0,7,22.935Z" transform="translate(-0.327 -1.309)"/>
    <path id="Trazado_656048" data-name="Trazado 656048" d="M42,23.869H54.15V51.907h1.869V22.935A.935.935,0,0,0,55.084,22H42Z" transform="translate(-2.616 -1.309)"/>
    <path id="Trazado_656049" data-name="Trazado 656049" d="M10.608,7.8a2.8,2.8,0,1,0-3.738,2.632v3.91a.935.935,0,0,0,.935.935h4.673v3.738h1.869V14.345a.935.935,0,0,0-.935-.935H8.738V10.435A2.8,2.8,0,0,0,10.608,7.8ZM7.8,6.868a.935.935,0,1,1-.935.935A.935.935,0,0,1,7.8,6.868Z" transform="translate(-0.196 -0.196)"/>
    <path id="Trazado_656050" data-name="Trazado 656050" d="M58.215,8a2.794,2.794,0,0,0-1.682,5.033l-1.508,1.509h-7.09a.935.935,0,0,0-.935.935v3.738h1.869v-2.8h6.542a.934.934,0,0,0,.661-.274l2.574-2.574A2.8,2.8,0,0,0,58.215,8Zm0,3.738a.935.935,0,1,1,.935-.935A.935.935,0,0,1,58.215,11.738Z" transform="translate(-2.944 -0.393)"/>
    <path id="Trazado_656051" data-name="Trazado 656051" d="M42.467,12.4a.935.935,0,0,0-.467.811v5.608h1.869V13.756l6.075-3.469a.935.935,0,0,0,.467-.811V7.435a2.8,2.8,0,1,0-1.869,0v1.5Zm7.009-8.535a.935.935,0,1,1-.935.935A.935.935,0,0,1,49.477,3.868Z" transform="translate(-2.616)"/>
    <path id="Trazado_656052" data-name="Trazado 656052" d="M15,2V8.542a.935.935,0,0,0,.35.73l4.322,3.457v6.094h1.869V12.28a.935.935,0,0,0-.35-.73L16.869,8.094V2Z" transform="translate(-0.85 -0.001)"/>
    <path id="Trazado_656053" data-name="Trazado 656053" d="M20,4V6.8a.935.935,0,0,0,.35.73l4.322,3.457V16.15h1.869V10.542a.935.935,0,0,0-.35-.73L21.869,6.355V4Z" transform="translate(-1.177 -0.132)"/>
    <path id="Trazado_656054" data-name="Trazado 656054" d="M38.565,5.725a.935.935,0,0,0,.78-.922V2H37.477V4.012l-4.827.8a.935.935,0,0,0-.78.922V7.779a2.787,2.787,0,0,0,0,5.264v2.041a.935.935,0,0,0,.707.907l3.031.758v2.074h1.869v-2.8a.935.935,0,0,0-.707-.907l-3.031-.758V13.046a2.787,2.787,0,0,0,0-5.264V6.53ZM32.8,11.346a.935.935,0,1,1,.935-.935A.935.935,0,0,1,32.8,11.346Z" transform="translate(-1.831 -0.001)"/>
  </g>
</svg>
