<svg xmlns="http://www.w3.org/2000/svg" xmlns:xlink="http://www.w3.org/1999/xlink" width="85" height="85" viewBox="0 0 85 85">
  <defs>
    <clipPath id="clip-path">
      <rect id="Rectángulo_45653" data-name="Rectángulo 45653" width="85" height="85" transform="translate(915 14591)" fill="#2ff980" stroke="#707070" stroke-width="1"/>
    </clipPath>
  </defs>
  <g id="Enmascarar_grupo_165" data-name="Enmascarar grupo 165" transform="translate(-915 -14591)" clip-path="url(#clip-path)">
    <g id="comunicacion" transform="translate(915 14591)">
      <path id="Trazado_659317" data-name="Trazado 659317" d="M33.271,72.047a53.487,53.487,0,0,1,18.458,0q-5.329-6.135-2.957-12.27H36.228Q38.6,65.912,33.271,72.047Z" fill="#738b95"/>
      <path id="Trazado_659318" data-name="Trazado 659318" d="M36.228,59.777a10.549,10.549,0,0,1,.715,3.251H48.057a10.549,10.549,0,0,1,.715-3.251Z" fill="#617881"/>
      <path id="Trazado_659319" data-name="Trazado 659319" d="M73.077,15.455,26.135,14.121H15.216a1.139,1.139,0,0,0-.3.041l-4.588,1.266-3.884,3.9V58.235a1.542,1.542,0,0,0,1.542,1.542H77.018a1.542,1.542,0,0,0,1.542-1.542V19.328Z" fill="#f9f6f9"/>
      <path id="Trazado_659320" data-name="Trazado 659320" d="M73.077,15.455H69.086l5.483,3.874V58.235a1.542,1.542,0,0,1-1.542,1.542h3.991a1.542,1.542,0,0,0,1.542-1.542V19.328Z" fill="#dddaec"/>
      <path id="Trazado_659321" data-name="Trazado 659321" d="M6.44,13.071v6.258h6.765a1.143,1.143,0,0,0,1.055-.7l.5-1.209a1.143,1.143,0,0,1,1.055-.7H25.37a1.143,1.143,0,0,1,1.055.7l.5,1.209a1.143,1.143,0,0,0,1.055.7H78.56V13.071a1.542,1.542,0,0,0-1.542-1.542H7.982A1.542,1.542,0,0,0,6.44,13.071Z" fill="#dd636e"/>
      <g id="Grupo_960430" data-name="Grupo 960430">
        <path id="Trazado_659322" data-name="Trazado 659322" d="M77.018,11.528H73.027a1.542,1.542,0,0,1,1.542,1.542v6.258H78.56V13.071A1.542,1.542,0,0,0,77.018,11.528Z" fill="#da4a54"/>
      </g>
      <path id="Trazado_659323" data-name="Trazado 659323" d="M62.856,59.777H22.144V57a2.074,2.074,0,0,1,2.074-2.074H60.782A2.074,2.074,0,0,1,62.856,57Z" fill="#dd636e"/>
      <path id="Trazado_659324" data-name="Trazado 659324" d="M60.782,54.93h-2.8A2.074,2.074,0,0,1,60.059,57v2.773h2.8V57A2.074,2.074,0,0,0,60.782,54.93Z" fill="#da4a54"/>
      <g id="Grupo_960431" data-name="Grupo 960431">
        <path id="Trazado_659325" data-name="Trazado 659325" d="M29.869,24.217H3.394a2.149,2.149,0,0,0-2.149,2.149V44.348A2.149,2.149,0,0,0,3.394,46.5H21.526a.543.543,0,0,1,.478.285l2.1,3.888a.543.543,0,0,0,.956,0l2.1-3.888a.543.543,0,0,1,.478-.285h2.239a2.149,2.149,0,0,0,2.149-2.149V26.366A2.149,2.149,0,0,0,29.869,24.217Z" fill="#eab14d"/>
        <path id="Trazado_659326" data-name="Trazado 659326" d="M29.869,24.217H25.73a2.149,2.149,0,0,1,2.149,2.149V44.348A2.149,2.149,0,0,1,25.73,46.5H23.49a.543.543,0,0,0-.478.285l-.5.935L24.1,50.67a.543.543,0,0,0,.956,0l2.1-3.888a.543.543,0,0,1,.478-.285h2.239a2.149,2.149,0,0,0,2.149-2.149V26.366a2.149,2.149,0,0,0-2.149-2.149Z" fill="#e49542"/>
      </g>
      <path id="Trazado_659327" data-name="Trazado 659327" d="M55.132,24.217H81.606a2.149,2.149,0,0,1,2.149,2.149V44.348A2.149,2.149,0,0,1,81.606,46.5H63.474a.543.543,0,0,0-.478.285L60.9,50.67a.543.543,0,0,1-.956,0l-2.1-3.888a.543.543,0,0,0-.478-.285H55.132a2.149,2.149,0,0,1-2.149-2.149V26.366a2.149,2.149,0,0,1,2.149-2.149Z" fill="#ffe07d"/>
      <g id="Grupo_960432" data-name="Grupo 960432">
        <path id="Trazado_659328" data-name="Trazado 659328" d="M81.606,24.217H77.929a2.149,2.149,0,0,1,2.149,2.149V44.348A2.149,2.149,0,0,1,77.929,46.5h3.677a2.149,2.149,0,0,0,2.149-2.149V26.366A2.149,2.149,0,0,0,81.606,24.217Z" fill="#ffd064"/>
      </g>
      <g id="Grupo_960433" data-name="Grupo 960433">
        <path id="Trazado_659329" data-name="Trazado 659329" d="M60.951,16.673a1.245,1.245,0,0,0,0-2.49H59.623a1.245,1.245,0,1,0,0,2.49Z"/>
        <path id="Trazado_659330" data-name="Trazado 659330" d="M66.021,16.673a1.245,1.245,0,0,0,0-2.49H64.691a1.245,1.245,0,1,0,0,2.49Z"/>
        <path id="Trazado_659331" data-name="Trazado 659331" d="M71.09,16.673a1.245,1.245,0,0,0,0-2.49H69.76a1.245,1.245,0,1,0,0,2.49Z"/>
        <path id="Trazado_659332" data-name="Trazado 659332" d="M42.5,64.242a1.245,1.245,0,0,0-1.245,1.245v1.052a1.245,1.245,0,0,0,2.49,0V65.487A1.245,1.245,0,0,0,42.5,64.242Z"/>
        <path id="Trazado_659333" data-name="Trazado 659333" d="M6.126,36.6H7.555a1.245,1.245,0,0,0,0-2.49H6.126a1.245,1.245,0,0,0,0,2.49Z"/>
        <path id="Trazado_659334" data-name="Trazado 659334" d="M15.917,36.6h1.429a1.245,1.245,0,0,0,0-2.49H15.917a1.245,1.245,0,0,0,0,2.49Z"/>
        <path id="Trazado_659335" data-name="Trazado 659335" d="M25.708,36.6h1.429a1.245,1.245,0,0,0,0-2.49H25.708a1.245,1.245,0,0,0,0,2.49Z"/>
        <path id="Trazado_659336" data-name="Trazado 659336" d="M77.445,34.112a1.245,1.245,0,0,0,0,2.49h1.429a1.245,1.245,0,0,0,0-2.49Z"/>
        <path id="Trazado_659337" data-name="Trazado 659337" d="M67.654,34.112a1.245,1.245,0,0,0,0,2.49h1.429a1.245,1.245,0,0,0,0-2.49Z"/>
        <path id="Trazado_659338" data-name="Trazado 659338" d="M57.863,34.112a1.245,1.245,0,1,0,0,2.49h1.429a1.245,1.245,0,0,0,0-2.49Z"/>
        <path id="Trazado_659339" data-name="Trazado 659339" d="M83.755,31.934A1.245,1.245,0,0,0,85,30.689V26.366a3.4,3.4,0,0,0-3.394-3.394h-1.8v-9.9a2.791,2.791,0,0,0-2.787-2.787H34.507a1.245,1.245,0,0,0,0,2.49H77.018a.3.3,0,0,1,.3.3v5.013H28.053l-.479-1.146a2.382,2.382,0,0,0-2.2-1.468H15.82a2.382,2.382,0,0,0-2.2,1.468l-.478,1.146H7.685V13.071a.3.3,0,0,1,.3-.3H29.528a1.245,1.245,0,0,0,0-2.49H7.982a2.791,2.791,0,0,0-2.787,2.787v9.9h-1.8A3.4,3.4,0,0,0,0,26.366V44.348a3.4,3.4,0,0,0,3.394,3.394h1.8V58.235a2.791,2.791,0,0,0,2.787,2.788h3.747a1.245,1.245,0,1,0,0-2.49H7.982a.3.3,0,0,1-.3-.3V47.742H21.107L23,51.26a1.788,1.788,0,0,0,3.148,0l1.9-3.519h1.82a3.4,3.4,0,0,0,3.394-3.394V26.366a3.4,3.4,0,0,0-3.394-3.394H7.685v-2.4h5.52a2.382,2.382,0,0,0,2.2-1.468l.478-1.146H25.3l.478,1.146a2.382,2.382,0,0,0,2.2,1.468H77.315v2.4H55.132a3.4,3.4,0,0,0-3.394,3.394V44.347a3.4,3.4,0,0,0,3.394,3.394h1.82l1.9,3.518a1.788,1.788,0,0,0,3.148,0l1.9-3.519H77.315V58.235a.3.3,0,0,1-.3.3H64.1V57a3.323,3.323,0,0,0-3.319-3.319H24.218A3.323,3.323,0,0,0,20.9,57v1.528H16.708a1.245,1.245,0,0,0,0,2.49H35.337c.969,3.277.074,6.521-2.726,9.88a58.379,58.379,0,0,0-5.838,1.373,1.245,1.245,0,1,0,.693,2.392,53.225,53.225,0,0,1,30.069,0,1.245,1.245,0,1,0,.693-2.392A58.37,58.37,0,0,0,52.39,70.9c-2.8-3.358-3.7-6.6-2.726-9.88H77.018a2.791,2.791,0,0,0,2.787-2.788V47.741h1.8A3.4,3.4,0,0,0,85,44.347v-8.68a1.245,1.245,0,0,0-2.49,0v8.68a.9.9,0,0,1-.9.9H63.474a1.785,1.785,0,0,0-1.574.94l-1.477,2.741-1.477-2.74a1.786,1.786,0,0,0-1.574-.94H55.132a.9.9,0,0,1-.9-.9V26.366a.9.9,0,0,1,.9-.9H81.606a.9.9,0,0,1,.9.9v4.323a1.244,1.244,0,0,0,1.245,1.245ZM30.772,26.366V44.347a.9.9,0,0,1-.9.9H27.629a1.786,1.786,0,0,0-1.574.94l-1.477,2.741L23.1,46.191a1.786,1.786,0,0,0-1.574-.94H3.394a.9.9,0,0,1-.9-.9V26.366a.9.9,0,0,1,.9-.9H29.869a.9.9,0,0,1,.9.9ZM48.93,70.382a54.917,54.917,0,0,0-12.859,0,11.994,11.994,0,0,0,1.843-9.359h9.174A11.994,11.994,0,0,0,48.93,70.382ZM23.389,58.532V57a.83.83,0,0,1,.829-.829H60.782a.83.83,0,0,1,.829.829v1.528Z"/>
        <path id="Trazado_659340" data-name="Trazado 659340" d="M36.493,33.22a1.245,1.245,0,0,0,1.245,1.245h9.524a1.245,1.245,0,0,0,.881-2.126L44.673,28.87a1.245,1.245,0,1,0-1.761,1.761l1.344,1.344H37.738a1.245,1.245,0,0,0-1.245,1.245Z"/>
        <path id="Trazado_659341" data-name="Trazado 659341" d="M48.507,37.437a1.245,1.245,0,0,0-1.245-1.245H37.738a1.245,1.245,0,0,0-.881,2.126l3.469,3.469a1.245,1.245,0,0,0,1.761-1.761l-1.344-1.344h6.518A1.245,1.245,0,0,0,48.507,37.437Z"/>
      </g>
    </g>
  </g>
</svg>
