<svg xmlns="http://www.w3.org/2000/svg" xmlns:xlink="http://www.w3.org/1999/xlink" width="85" height="85" viewBox="0 0 85 85">
  <defs>
    <clipPath id="clip-path">
      <rect id="Rectángulo_45632" data-name="Rectángulo 45632" width="85" height="85" transform="translate(600 14961)" fill="#2ff980" stroke="#707070" stroke-width="1"/>
    </clipPath>
  </defs>
  <g id="Enmascarar_grupo_152" data-name="Enmascarar grupo 152" transform="translate(-600 -14961)" clip-path="url(#clip-path)">
    <g id="sistema-operativo" transform="translate(598.629 14959.629)">
      <path id="Trazado_659007" data-name="Trazado 659007" d="M75.4,19.194a9.463,9.463,0,0,1,9.09,6.416A9.633,9.633,0,0,1,75.4,38.387H56.84A5.456,5.456,0,0,0,52.1,35.645H22v-.069A9.6,9.6,0,0,1,28.79,19.194a8.968,8.968,0,0,1,1.371.1v-.1a10.972,10.972,0,0,1,17.192-9.035A15.069,15.069,0,0,1,75.4,17.823c0,.466-.027.919-.069,1.371h.014Z" fill="#e6e9ed"/>
      <path id="Trazado_659008" data-name="Trazado 659008" d="M65.806,21.935l-5.484,8.226-5.484-8.226h2.742V10.968h5.484V21.935Z" fill="#fcd770"/>
      <path id="Trazado_659009" data-name="Trazado 659009" d="M64.6,60.158a4.11,4.11,0,0,1-2.906,7.019H57.581V58.952h4.113A4.1,4.1,0,0,1,64.6,60.158Z" fill="#aab2bd"/>
      <path id="Trazado_659010" data-name="Trazado 659010" d="M47.984,85H12.339a5.477,5.477,0,0,1,5.484-5.484H42.5A5.482,5.482,0,0,1,47.984,85Z" fill="#969faa"/>
      <path id="Trazado_659011" data-name="Trazado 659011" d="M20.565,74.032H39.758v5.484H20.565Z" fill="#969faa"/>
      <path id="Trazado_659012" data-name="Trazado 659012" d="M57.581,67.177v1.371A5.482,5.482,0,0,1,52.1,74.032H8.226a5.482,5.482,0,0,1-5.484-5.484V65.806h32.9l2.742-2.742H57.581Z" fill="#ccd1d9"/>
      <path id="Trazado_659013" data-name="Trazado 659013" d="M57.581,58.952v4.113H38.387l-2.742,2.742H2.742V41.129a5.482,5.482,0,0,1,5.484-5.484H52.1a5.5,5.5,0,0,1,5.484,5.484Z" fill="#69d6f4"/>
      <path id="Trazado_659014" data-name="Trazado 659014" d="M30.161,46.613v13.71H16.452V54.839h5.484V46.613Z" fill="#fcd770"/>
      <path id="Trazado_659015" data-name="Trazado 659015" d="M21.935,46.613v8.226H8.226V41.129h13.71Z" fill="#ff826e"/>
      <path id="Trazado_659016" data-name="Trazado 659016" d="M78.145,47.984h-9.6a4.113,4.113,0,0,1,0-8.226H75.4A11,11,0,0,0,85.794,25.189a10.684,10.684,0,0,0-9.022-7.265c0-.033,0-.067,0-.1A16.438,16.438,0,0,0,46.925,8.3,12.333,12.333,0,0,0,28.87,17.828c-.026,0-.052-.005-.08-.005A10.956,10.956,0,0,0,19.3,34.274H8.226a6.863,6.863,0,0,0-6.855,6.855V68.548A6.863,6.863,0,0,0,8.226,75.4H19.194v2.742H17.823A6.863,6.863,0,0,0,10.968,85v1.371H49.355V85A6.863,6.863,0,0,0,42.5,78.145H41.129V75.4H52.1a6.863,6.863,0,0,0,6.855-6.855h2.742a5.479,5.479,0,0,0,5.289-4.113H78.145a8.226,8.226,0,0,0,0-16.452ZM8.226,37.016H52.1a4.118,4.118,0,0,1,4.113,4.113V61.694H37.82l-2.742,2.742H4.113V41.129A4.118,4.118,0,0,1,8.226,37.016ZM46.378,83.629H13.944a4.121,4.121,0,0,1,3.878-2.742H42.5A4.121,4.121,0,0,1,46.378,83.629Zm-7.991-5.484H21.935V75.4H38.387ZM52.1,72.661H8.226a4.118,4.118,0,0,1-4.113-4.113V67.177h32.1l2.742-2.742H56.21v4.113A4.118,4.118,0,0,1,52.1,72.661Zm9.6-6.855H58.952V60.323h2.742a2.742,2.742,0,1,1,0,5.484Zm16.452-4.113H66.983a5.479,5.479,0,0,0-5.289-4.113H58.952V41.129A6.863,6.863,0,0,0,52.1,34.274H22.672A8.222,8.222,0,1,1,35.612,24.192l2.272-1.535a10.974,10.974,0,0,0-6.3-4.467,9.591,9.591,0,0,1,14.985-6.9l1.209.835.749-1.265A13.7,13.7,0,1,1,71.815,25.3l2.3,1.5a16.326,16.326,0,0,0,2.409-6.147,8.073,8.073,0,0,1,6.663,5.381,8.381,8.381,0,0,1-1.126,7.6A8.259,8.259,0,0,1,75.4,37.016H68.548a6.855,6.855,0,0,0,0,13.71h9.6a5.484,5.484,0,1,1,0,10.968Z"/>
      <path id="Trazado_659017" data-name="Trazado 659017" d="M64.435,20.565V9.6H56.21V20.565H52.276l8.046,12.069,8.046-12.069Zm-4.113,7.125L57.4,23.306h1.551V12.339h2.742V23.306h1.551Z"/>
      <path id="Trazado_659018" data-name="Trazado 659018" d="M50.726,67.177h2.742v2.742H50.726Z"/>
      <path id="Trazado_659019" data-name="Trazado 659019" d="M45.242,67.177h2.742v2.742H45.242Z"/>
      <path id="Trazado_659020" data-name="Trazado 659020" d="M39.758,67.177H42.5v2.742H39.758Z"/>
      <path id="Trazado_659021" data-name="Trazado 659021" d="M15.081,61.694H31.532V45.242H23.306V39.758H6.855V56.21h8.226Zm13.71-13.71V58.952H17.823V56.21h5.484V47.984ZM9.6,42.5H20.565V53.468H9.6Z"/>
      <path id="Trazado_659022" data-name="Trazado 659022" d="M34.274,39.758H53.468V42.5H34.274Z"/>
      <path id="Trazado_659023" data-name="Trazado 659023" d="M34.274,45.242H53.468v2.742H34.274Z"/>
      <path id="Trazado_659024" data-name="Trazado 659024" d="M34.274,50.726H53.468v2.742H34.274Z"/>
      <path id="Trazado_659025" data-name="Trazado 659025" d="M45.242,56.21h2.742v2.742H45.242Z"/>
      <path id="Trazado_659026" data-name="Trazado 659026" d="M39.758,56.21H42.5v2.742H39.758Z"/>
      <path id="Trazado_659027" data-name="Trazado 659027" d="M34.274,56.21h2.742v2.742H34.274Z"/>
      <path id="Trazado_659028" data-name="Trazado 659028" d="M23.306,28.79h2.742a2.745,2.745,0,0,1,2.742-2.742V23.306A5.489,5.489,0,0,0,23.306,28.79Z"/>
      <path id="Trazado_659029" data-name="Trazado 659029" d="M80.887,28.79H78.145A2.745,2.745,0,0,1,75.4,31.532v2.742A5.489,5.489,0,0,0,80.887,28.79Z"/>
      <path id="Trazado_659030" data-name="Trazado 659030" d="M30.161,28.79H32.9v2.742H30.161Z"/>
      <path id="Trazado_659031" data-name="Trazado 659031" d="M35.645,28.79h2.742v2.742H35.645Z"/>
      <path id="Trazado_659032" data-name="Trazado 659032" d="M41.129,28.79h2.742v2.742H41.129Z"/>
    </g>
  </g>
</svg>
