<svg xmlns="http://www.w3.org/2000/svg" xmlns:xlink="http://www.w3.org/1999/xlink" width="85" height="85" viewBox="0 0 85 85">
  <defs>
    <clipPath id="clip-path">
      <rect id="Rectángulo_45633" data-name="Rectángulo 45633" width="85" height="85" transform="translate(296 15940)" fill="#40327b" stroke="#707070" stroke-width="1"/>
    </clipPath>
  </defs>
  <g id="Enmascarar_grupo_153" data-name="Enmascarar grupo 153" transform="translate(-296 -15940)" clip-path="url(#clip-path)">
    <g id="Page-1" transform="translate(296 15940)">
      <g id="_026---Refresh-Website" data-name="026---Refresh-Website">
        <g id="Icons" transform="translate(1.417 1.417)">
          <path id="Path" d="M82.167,14.7V62.867A5.667,5.667,0,0,1,76.5,68.533H5.667A5.667,5.667,0,0,1,0,62.867V14.7Z" transform="translate(0 5.133)" fill="#f5f5f5" fill-rule="evenodd"/>
          <path id="Path-2" data-name="Path" d="M59.217,14.7V62.867a5.667,5.667,0,0,1-5.667,5.667H57.8a5.667,5.667,0,0,0,5.667-5.667V14.7Z" transform="translate(18.7 5.133)" fill="#cfd8dc" fill-rule="evenodd"/>
          <rect id="Rectangle" width="56.667" height="56.667" rx="4.2" transform="translate(12.75 25.5)" fill="#e91e63"/>
          <path id="Path-3" data-name="Path" d="M48.35,18.9H44.1a5.667,5.667,0,0,1,5.667,5.667V69.9A5.667,5.667,0,0,1,44.1,75.567h4.25A5.667,5.667,0,0,0,54.017,69.9V24.567A5.667,5.667,0,0,0,48.35,18.9Z" transform="translate(15.4 6.6)" fill="#ad1457" fill-rule="evenodd"/>
          <path id="Path-4" data-name="Path" d="M82.167,5.667v8.5H41.083a2.842,2.842,0,0,1-2.833-2.833V8.5a2.842,2.842,0,0,0-2.833-2.833H0A5.667,5.667,0,0,1,5.667,0H76.5A5.667,5.667,0,0,1,82.167,5.667Z" fill="#3f51b5" fill-rule="evenodd"/>
          <path id="Path-5" data-name="Path" d="M57.8,0H53.55a5.667,5.667,0,0,1,5.667,5.667v8.5h4.25v-8.5A5.667,5.667,0,0,0,57.8,0Z" transform="translate(18.7)" fill="#283593" fill-rule="evenodd"/>
          <path id="Path-6" data-name="Path" d="M82.167,12.7v5.667H0V4.2H35.417A2.842,2.842,0,0,1,38.25,7.033V9.867A2.842,2.842,0,0,0,41.083,12.7Z" transform="translate(0 1.467)" fill="#02a9f4" fill-rule="evenodd"/>
          <path id="Rectangle-2" data-name="Rectangle" d="M57.75,10.5H62v5.667H57.75Z" transform="translate(20.167 3.667)" fill="#0377bc" fill-rule="evenodd"/>
          <g id="Grupo_960423" data-name="Grupo 960423" transform="translate(18.558 32.583)">
            <path id="Path-7" data-name="Path" d="M39.113,62.717A2.842,2.842,0,0,1,36.28,65.55a21.25,21.25,0,0,1-18.388-31.9l-1.147.1a2.833,2.833,0,0,1-.524-5.638l8.457-.793a2.822,2.822,0,0,1,3.088,2.55l.793,8.472a2.808,2.808,0,0,1-2.55,3.074,1.714,1.714,0,0,1-.269.014,2.833,2.833,0,0,1-2.819-2.564l-.212-2.224A15.583,15.583,0,0,0,36.28,59.883a2.842,2.842,0,0,1,2.833,2.833Z" transform="translate(-13.755 -23.05)" fill="#f5f5f5" fill-rule="evenodd"/>
            <path id="Path-8" data-name="Path" d="M28.35,26.983a2.842,2.842,0,0,1,2.833-2.833,21.25,21.25,0,0,1,18.388,31.9l1.148-.1a2.833,2.833,0,0,1,.524,5.638l-8.458.793a2.822,2.822,0,0,1-3.088-2.55L38.9,51.364a2.808,2.808,0,0,1,2.55-3.074,1.714,1.714,0,0,1,.269-.014,2.833,2.833,0,0,1,2.819,2.564l.213,2.224A15.583,15.583,0,0,0,31.183,29.817a2.842,2.842,0,0,1-2.833-2.833Z" transform="translate(-8.658 -24.15)" fill="#f5f5f5" fill-rule="evenodd"/>
          </g>
        </g>
        <g id="Icons_copy">
          <path id="Path-9" data-name="Path" d="M22.25,9.45H6.667a1.417,1.417,0,0,0,0,2.833H22.25a1.417,1.417,0,1,0,0-2.833Z" transform="translate(1.833 3.3)" fill-rule="evenodd"/>
          <path id="Path-10" data-name="Path" d="M27.306,8.815a1.417,1.417,0,0,0-2,0l-.415.415-.415-.415a1.417,1.417,0,0,0-2,2l.415.415-.415.415a1.417,1.417,0,1,0,2,2l.415-.415.415.415a1.417,1.417,0,0,0,2-2l-.415-.415.415-.415a1.417,1.417,0,0,0,0-2Z" transform="translate(7.695 2.933)" fill-rule="evenodd"/>
          <circle id="Oval" cx="1.417" cy="1.417" r="1.417" transform="translate(73.667 7.083)"/>
          <circle id="Oval-2" data-name="Oval" cx="1.417" cy="1.417" r="1.417" transform="translate(68 7.083)"/>
          <circle id="Oval-3" data-name="Oval" cx="1.417" cy="1.417" r="1.417" transform="translate(62.333 7.083)"/>
          <g id="Grupo_960424" data-name="Grupo 960424">
            <path id="Shape" d="M77.917,0H7.083A7.092,7.092,0,0,0,0,7.083V69.417A7.092,7.092,0,0,0,7.083,76.5H12.75v1.417A7.092,7.092,0,0,0,19.833,85H65.167a7.092,7.092,0,0,0,7.083-7.083V76.5h5.667A7.092,7.092,0,0,0,85,69.417V7.083A7.092,7.092,0,0,0,77.917,0ZM2.833,8.5h34A1.417,1.417,0,0,1,38.25,9.917V12.75A4.25,4.25,0,0,0,42.5,17H82.167v2.833H2.833Zm4.25-5.667H77.917a4.25,4.25,0,0,1,4.25,4.25v7.083H42.5a1.417,1.417,0,0,1-1.417-1.417V9.917a4.25,4.25,0,0,0-4.25-4.25H3.094A4.25,4.25,0,0,1,7.083,2.833ZM69.417,77.917a4.25,4.25,0,0,1-4.25,4.25H19.833a4.25,4.25,0,0,1-4.25-4.25V32.583a4.25,4.25,0,0,1,4.25-4.25H65.167a4.25,4.25,0,0,1,4.25,4.25Zm8.5-4.25H72.25V32.583A7.092,7.092,0,0,0,65.167,25.5H19.833a7.092,7.092,0,0,0-7.083,7.083V73.667H7.083a4.25,4.25,0,0,1-4.25-4.25V22.667H82.167v46.75A4.25,4.25,0,0,1,77.917,73.667Z"/>
            <path id="Shape-2" data-name="Shape" d="M37.725,59.884A14.167,14.167,0,0,1,23.885,42.7a4.239,4.239,0,0,0,3.3,1.558,2.856,2.856,0,0,0,.4-.02,4.225,4.225,0,0,0,3.825-4.617l-.793-8.469a4.24,4.24,0,0,0-4.632-3.832l-8.453.793a4.25,4.25,0,0,0-.516,8.382A22.667,22.667,0,0,0,37.725,68.384a4.25,4.25,0,0,0,0-8.5Zm0,5.667a19.833,19.833,0,0,1-17.162-29.78,1.417,1.417,0,0,0-1.227-2.125,1.165,1.165,0,0,0-.122,0l-1.155.1a1.415,1.415,0,1,1-.262-2.818l8.465-.793A1.4,1.4,0,0,1,27.8,31.409l.795,8.482a1.371,1.371,0,0,1-.309,1.017,1.486,1.486,0,0,1-1.1.513,1.417,1.417,0,0,1-1.41-1.282l-.212-2.224a1.417,1.417,0,0,0-2.645-.558A17,17,0,0,0,37.725,62.718a1.417,1.417,0,0,1,0,2.833Z" transform="translate(4.775 9.532)"/>
            <path id="Shape-3" data-name="Shape" d="M55.108,56.918a4.216,4.216,0,0,0-1.8-.88A22.667,22.667,0,0,0,32.6,24.15a4.25,4.25,0,1,0,0,8.5A14.167,14.167,0,0,1,46.439,49.838a4.239,4.239,0,0,0-3.3-1.558,2.856,2.856,0,0,0-.4.02,4.225,4.225,0,0,0-3.825,4.617l.793,8.469a4.25,4.25,0,0,0,4.2,3.848,2.849,2.849,0,0,0,.425-.021l8.453-.793a4.25,4.25,0,0,0,2.319-7.508Zm-1.622,4.176a1.4,1.4,0,0,1-.959.506l-8.465.8a1.4,1.4,0,0,1-1.537-1.275l-.795-8.482a1.371,1.371,0,0,1,.309-1.017,1.486,1.486,0,0,1,1.1-.513A1.417,1.417,0,0,1,44.557,52.4l.212,2.224a1.417,1.417,0,0,0,2.645.558A17,17,0,0,0,32.6,29.817a1.417,1.417,0,1,1,0-2.833A19.833,19.833,0,0,1,49.76,56.762a1.417,1.417,0,0,0,.033,1.469,1.387,1.387,0,0,0,1.316.65l1.156-.1A1.417,1.417,0,0,1,53.3,59.1a1.432,1.432,0,0,1,.186,1.995Z" transform="translate(9.9 8.433)"/>
          </g>
        </g>
      </g>
    </g>
  </g>
</svg>
