<svg xmlns="http://www.w3.org/2000/svg" xmlns:xlink="http://www.w3.org/1999/xlink" width="85" height="85" viewBox="0 0 85 85">
  <defs>
    <clipPath id="clip-path">
      <path id="path3529" d="M0-682.665H85v85H0Z" transform="translate(0 682.665)"/>
    </clipPath>
  </defs>
  <g id="g3519" transform="translate(0 682.665)">
    <g id="g3521" transform="translate(30.574 -619.681)">
      <path id="path3523" d="M-157.542,0H-178.5l-1.445,9.7H-156.1Z" transform="translate(179.948)" fill="#495560"/>
    </g>
    <g id="g3525" transform="translate(0 -682.665)">
      <g id="g3527" clip-path="url(#clip-path)">
        <g id="g3533" transform="translate(24.611 72.685)">
          <path id="path3535" d="M-237.05-46.07H-268.7a2.064,2.064,0,0,1-1.98-2.647l.288-.978a4.079,4.079,0,0,1,3.913-2.927h27.206a4.079,4.079,0,0,1,3.913,2.927l.288.978a2.064,2.064,0,0,1-1.98,2.647" transform="translate(270.763 52.623)" fill="#c7c7c7"/>
        </g>
        <g id="g3537" transform="translate(24.611 72.685)">
          <path id="path3539" d="M-106.191,0h-10.816a4.079,4.079,0,0,0-3.913,2.927l-.288.978a2.064,2.064,0,0,0,1.98,2.647h14.657A7.539,7.539,0,0,1-106.191,0" transform="translate(121.293)" fill="#98a5b3"/>
        </g>
        <g id="g3541" transform="translate(1.245 5.762)">
          <path id="path3543" d="M-510.959-402.345h-62.827a9.841,9.841,0,0,1-9.841-9.841v-37.539a9.841,9.841,0,0,1,9.841-9.841h62.827a9.841,9.841,0,0,1,9.841,9.841v37.539a9.841,9.841,0,0,1-9.841,9.841" transform="translate(583.628 459.567)" fill="#495560"/>
        </g>
        <g id="g3545" transform="translate(1.245 5.762)">
          <path id="path3547" d="M-187.373,0H-204.18a9.841,9.841,0,0,0-9.841,9.841V47.38a9.841,9.841,0,0,0,9.841,9.841h24.239c-9.354-9.789-13.471-37.269-7.432-57.221" transform="translate(214.021)" fill="#333941"/>
        </g>
        <g id="g3549" transform="translate(7.976 12.493)">
          <path id="path3551" d="M0-277.095v-35.057A4.351,4.351,0,0,1,4.351-316.5H64.7a4.351,4.351,0,0,1,4.351,4.351v35.057a4.351,4.351,0,0,1-4.351,4.351H4.351A4.351,4.351,0,0,1,0-277.095" transform="translate(0 316.503)" fill="#faef81"/>
        </g>
        <g id="g3553" transform="translate(7.976 12.493)">
          <path id="path3555" d="M-161.008-307.689c-5.246-10.9-7.375-28.553-4.595-43.759h-13.952a4.351,4.351,0,0,0-4.351,4.351v35.057a4.351,4.351,0,0,0,4.351,4.351Z" transform="translate(183.906 351.448)" fill="#fad271"/>
        </g>
        <g id="g3557" transform="translate(42.5 12.493)">
          <path id="path3559" d="M-212.156,0h-30.173V43.759h30.173a4.351,4.351,0,0,0,4.351-4.351V4.351A4.351,4.351,0,0,0-212.156,0" transform="translate(242.329)" fill="#333941"/>
        </g>
        <g id="g3561" transform="translate(1.245 50.389)">
          <path id="path3563" d="M0,0V2.754a9.841,9.841,0,0,0,9.841,9.841H72.669A9.841,9.841,0,0,0,82.51,2.754V0Z" fill="#c7c7c7"/>
        </g>
        <g id="g3565" transform="translate(1.245 50.389)">
          <path id="path3567" d="M0,0V2.754a9.841,9.841,0,0,0,9.841,9.841H34.08C31.327,9.714,29.028,5.3,27.308,0Z" fill="#98a5b3"/>
        </g>
        <g id="g3569" transform="translate(38.902 53.088)">
          <path id="path3571" d="M-50.6-25.3a3.6,3.6,0,0,1-3.6,3.6,3.6,3.6,0,0,1-3.6-3.6,3.6,3.6,0,0,1,3.6-3.6,3.6,3.6,0,0,1,3.6,3.6" transform="translate(57.795 28.897)" fill="#fff"/>
        </g>
        <g id="g3573" transform="translate(63.323 34.765)">
          <path id="path3575" d="M-3.806-7.51H-8.755A1.245,1.245,0,0,1-10-8.755,1.245,1.245,0,0,1-8.755-10h4.949A1.245,1.245,0,0,1-2.561-8.755,1.245,1.245,0,0,1-3.806-7.51Z" transform="translate(10 10)" fill="#fff"/>
        </g>
        <g id="g3577" transform="translate(48.762 34.765)">
          <path id="path3579" d="M1.341-7.51h-10.1A1.245,1.245,0,0,1-10-8.755,1.245,1.245,0,0,1-8.755-10h10.1A1.245,1.245,0,0,1,2.586-8.755,1.245,1.245,0,0,1,1.341-7.51Z" transform="translate(10 10)" fill="#84dfff"/>
        </g>
        <g id="g3581" transform="translate(57.732 39.293)">
          <path id="path3583" d="M-2.6-7.51H-8.755A1.245,1.245,0,0,1-10-8.755,1.245,1.245,0,0,1-8.755-10H-2.6A1.245,1.245,0,0,1-1.352-8.755,1.245,1.245,0,0,1-2.6-7.51Z" transform="translate(10 10)" fill="#84dfff"/>
        </g>
        <g id="g3585" transform="translate(48.762 39.293)">
          <path id="path3587" d="M-4.251-7.51h-4.5A1.245,1.245,0,0,1-10-8.755,1.245,1.245,0,0,1-8.755-10h4.5A1.245,1.245,0,0,1-3.006-8.755,1.245,1.245,0,0,1-4.251-7.51Z" transform="translate(10 10)" fill="#fff"/>
        </g>
        <g id="g3589" transform="translate(57.418 30.237)">
          <path id="path3591" d="M.381-7.51H-8.755A1.245,1.245,0,0,1-10-8.755,1.245,1.245,0,0,1-8.755-10H.381A1.245,1.245,0,0,1,1.626-8.755,1.245,1.245,0,0,1,.381-7.51Z" transform="translate(10 10)" fill="#55d57b"/>
        </g>
        <g id="g3593" transform="translate(48.762 30.237)">
          <path id="path3595" d="M-4.564-7.51H-8.755A1.245,1.245,0,0,1-10-8.755,1.245,1.245,0,0,1-8.755-10h4.191A1.245,1.245,0,0,1-3.319-8.755,1.245,1.245,0,0,1-4.564-7.51Z" transform="translate(10 10)" fill="#ff8aa0"/>
        </g>
        <g id="g3597" transform="translate(63.045 25.709)">
          <path id="path3599" d="M-3.529-7.51H-8.755A1.245,1.245,0,0,1-10-8.755,1.245,1.245,0,0,1-8.755-10h5.226A1.245,1.245,0,0,1-2.283-8.755,1.245,1.245,0,0,1-3.529-7.51Z" transform="translate(10 10)" fill="#ff8aa0"/>
        </g>
        <g id="g3601" transform="translate(48.762 25.709)">
          <path id="path3603" d="M1.063-7.51H-8.755A1.245,1.245,0,0,1-10-8.755,1.245,1.245,0,0,1-8.755-10H1.063A1.245,1.245,0,0,1,2.308-8.755,1.245,1.245,0,0,1,1.063-7.51Z" transform="translate(10 10)" fill="#fff"/>
        </g>
        <g id="g3605" transform="translate(57.732 21.181)">
          <path id="path3607" d="M-3.19-7.51H-8.755A1.245,1.245,0,0,1-10-8.755,1.245,1.245,0,0,1-8.755-10H-3.19A1.245,1.245,0,0,1-1.945-8.755,1.245,1.245,0,0,1-3.19-7.51Z" transform="translate(10 10)" fill="#55d57b"/>
        </g>
        <g id="g3609" transform="translate(48.762 21.181)">
          <path id="path3611" d="M-4.251-7.51h-4.5A1.245,1.245,0,0,1-10-8.755,1.245,1.245,0,0,1-8.755-10h4.5A1.245,1.245,0,0,1-3.006-8.755,1.245,1.245,0,0,1-4.251-7.51Z" transform="translate(10 10)" fill="#84dfff"/>
        </g>
        <g id="g3613" transform="translate(6.731 11.248)">
          <path id="path3615" d="M60.293-273.968a1.245,1.245,0,0,1-1.245-1.245v-33.545a3.109,3.109,0,0,0-3.106-3.106H-4.4a3.109,3.109,0,0,0-3.106,3.106v33.545a1.245,1.245,0,0,1-1.245,1.245A1.245,1.245,0,0,1-10-275.213v-33.545a5.6,5.6,0,0,1,5.6-5.6H55.942a5.6,5.6,0,0,1,5.6,5.6v33.545A1.245,1.245,0,0,1,60.293-273.968Z" transform="translate(10 314.354)"/>
        </g>
        <g id="g3617" transform="translate(0 4.517)">
          <path id="path3619" d="M-446.891,48.872a1.24,1.24,0,0,1-.5-.107,11.1,11.1,0,0,1-6.6-10.139V1.086A11.1,11.1,0,0,1-442.9-10h45.441a1.245,1.245,0,0,1,1.245,1.245,1.245,1.245,0,0,1-1.245,1.245H-442.9a8.606,8.606,0,0,0-8.6,8.6V38.626a8.608,8.608,0,0,0,5.116,7.862,1.245,1.245,0,0,1,.633,1.643A1.246,1.246,0,0,1-446.891,48.872Z" transform="translate(453.991 10)"/>
        </g>
        <g id="g3621" transform="translate(11.664 4.517)">
          <path id="path3623" d="M52.25-409.855h-61A1.245,1.245,0,0,1-10-411.1a1.245,1.245,0,0,1,1.245-1.245h61a8.606,8.606,0,0,0,8.6-8.6v-37.539a8.606,8.606,0,0,0-8.6-8.6H41.128a1.245,1.245,0,0,1-1.245-1.245,1.245,1.245,0,0,1,1.245-1.245H52.25a11.1,11.1,0,0,1,11.086,11.086v37.539A11.1,11.1,0,0,1,52.25-409.855Z" transform="translate(10 469.567)"/>
        </g>
        <g id="g3625" transform="translate(0 49.144)">
          <path id="path3627" d="M73.755-7.51H-8.755A1.245,1.245,0,0,1-10-8.755,1.245,1.245,0,0,1-8.755-10h82.51A1.245,1.245,0,0,1,75-8.755,1.245,1.245,0,0,1,73.755-7.51Z" transform="translate(10 10)"/>
        </g>
        <g id="g3629" transform="translate(29.329 61.738)">
          <path id="path3631" d="M-8.754-75.726a1.254,1.254,0,0,1-.185-.014,1.245,1.245,0,0,1-1.048-1.415l1.445-9.7A1.245,1.245,0,0,1-7.127-87.9,1.245,1.245,0,0,1-6.079-86.49l-1.445,9.7A1.245,1.245,0,0,1-8.754-75.726Z" transform="translate(10.001 87.918)"/>
        </g>
        <g id="g3633" transform="translate(51.735 61.738)">
          <path id="path3635" d="M-7.312,2.191a1.245,1.245,0,0,1-1.23-1.062l-1.445-9.7A1.245,1.245,0,0,1-8.94-9.988,1.245,1.245,0,0,1-7.525-8.94l1.445,9.7A1.245,1.245,0,0,1-7.127,2.177,1.255,1.255,0,0,1-7.312,2.191Z" transform="translate(10.001 10.001)"/>
        </g>
        <g id="g3637" transform="translate(23.364 71.44)">
          <path id="path3639" d="M8.361-53.58H-23.287a3.281,3.281,0,0,1-2.65-1.327,3.281,3.281,0,0,1-.525-2.917l.288-.978a5.354,5.354,0,0,1,5.108-3.821H6.14A5.354,5.354,0,0,1,11.248-58.8l.288.978a3.281,3.281,0,0,1-.525,2.917A3.281,3.281,0,0,1,8.361-53.58Zm-29.427-6.552A2.85,2.85,0,0,0-23.785-58.1l-.288.978a.812.812,0,0,0,.13.722.8.8,0,0,0,.656.328H8.361a.8.8,0,0,0,.656-.328.812.812,0,0,0,.13-.722L8.859-58.1A2.85,2.85,0,0,0,6.14-60.132Z" transform="translate(26.598 62.623)"/>
        </g>
        <g id="g3641" transform="translate(13.395 25.005)">
          <path id="path3643" d="M-44.827,2.751a1.241,1.241,0,0,1-.88-.365l-5.13-5.13a1.245,1.245,0,0,1,0-1.761l5.13-5.13a1.245,1.245,0,0,1,1.761,0,1.245,1.245,0,0,1,0,1.761l-4.25,4.25,4.25,4.25a1.245,1.245,0,0,1,0,1.761A1.241,1.241,0,0,1-44.827,2.751Z" transform="translate(51.203 10)"/>
        </g>
        <g id="g3645" transform="translate(29.461 25.005)">
          <path id="path3647" d="M-8.755,2.751a1.241,1.241,0,0,1-.88-.365,1.245,1.245,0,0,1,0-1.761l4.25-4.25-4.25-4.25a1.245,1.245,0,0,1,0-1.761,1.245,1.245,0,0,1,1.761,0l5.13,5.13a1.245,1.245,0,0,1,0,1.761l-5.13,5.13A1.241,1.241,0,0,1-8.755,2.751Z" transform="translate(10 10)"/>
        </g>
        <g id="g3649" transform="translate(21.111 22.219)">
          <path id="path3651" d="M-8.757-118.839a1.242,1.242,0,0,1-.426-.075,1.245,1.245,0,0,1-.744-1.6l5.763-15.833a1.245,1.245,0,0,1,1.6-.744,1.245,1.245,0,0,1,.744,1.6l-5.763,15.833A1.246,1.246,0,0,1-8.757-118.839Z" transform="translate(10.003 137.162)"/>
        </g>
      </g>
    </g>
  </g>
</svg>
