<svg xmlns="http://www.w3.org/2000/svg" xmlns:xlink="http://www.w3.org/1999/xlink" width="85" height="85" viewBox="0 0 85 85">
  <defs>
    <clipPath id="clip-path">
      <rect id="Rect치ngulo_45656" data-name="Rect치ngulo 45656" width="85" height="85" transform="translate(600 14109)" fill="#2ff980" stroke="#707070" stroke-width="1"/>
    </clipPath>
  </defs>
  <g id="Enmascarar_grupo_167" data-name="Enmascarar grupo 167" transform="translate(-600 -14109)" clip-path="url(#clip-path)">
    <g id="software" transform="translate(600 14109)">
      <path id="Trazado_659357" data-name="Trazado 659357" d="M81.167,68.315H3.833a2.588,2.588,0,0,1-2.588-2.588V17.779A2.588,2.588,0,0,1,3.833,15.19H81.166a2.588,2.588,0,0,1,2.588,2.588V65.727A2.588,2.588,0,0,1,81.167,68.315Z" fill="#685c79"/>
      <path id="Trazado_659358" data-name="Trazado 659358" d="M81.167,15.19h-4.98a2.588,2.588,0,0,1,2.588,2.588V65.727a2.588,2.588,0,0,1-2.588,2.588h4.98a2.588,2.588,0,0,0,2.588-2.588V17.779A2.588,2.588,0,0,0,81.167,15.19Z" fill="#594f69"/>
      <rect id="Rect치ngulo_45655" data-name="Rect치ngulo 45655" width="43.164" height="72.549" transform="translate(78.774 20.171) rotate(90)" fill="#ade7ff"/>
      <path id="Trazado_659359" data-name="Trazado 659359" d="M63.916,83.755H21.084a2.49,2.49,0,0,1-2.49-2.49h0a2.49,2.49,0,0,1,2.49-2.49H63.916a2.49,2.49,0,0,1,2.49,2.49h0A2.49,2.49,0,0,1,63.916,83.755Z" fill="#685c79"/>
      <path id="Trazado_659360" data-name="Trazado 659360" d="M63.916,78.774h-5a2.49,2.49,0,0,1,0,4.98h5a2.49,2.49,0,0,0,0-4.98Z" fill="#594f69"/>
      <path id="Trazado_659361" data-name="Trazado 659361" d="M58.221,78.774H26.779A13.135,13.135,0,0,0,32.14,68.315H52.86A13.135,13.135,0,0,0,58.221,78.774Z" fill="#ade7ff"/>
      <path id="Trazado_659362" data-name="Trazado 659362" d="M52.86,68.315h-4.7a13.135,13.135,0,0,0,5.361,10.459h4.7A13.135,13.135,0,0,1,52.86,68.315Z" fill="#82d2f5"/>
      <path id="Trazado_659363" data-name="Trazado 659363" d="M58.6,31.766V52.072L42.5,59.766,26.4,52.072V31.766l16.1-7.694Z" fill="#ff2c5c"/>
      <path id="Trazado_659364" data-name="Trazado 659364" d="M58.6,31.766l-4.98,2.379L37.878,26.28,42.5,24.072Z" fill="#e62753"/>
      <path id="Trazado_659365" data-name="Trazado 659365" d="M42.5,39.46V59.766L26.4,52.072V31.766Z" fill="#4fb1f5"/>
      <path id="Trazado_659366" data-name="Trazado 659366" d="M42.5,39.46V59.766l16.1-7.694V31.766Z" fill="#ffd659"/>
      <path id="Trazado_659367" data-name="Trazado 659367" d="M58.6,31.766l-4.98,2.379.075,20.27L58.6,52.072Z" fill="#ffbd54"/>
      <circle id="Elipse_5760" data-name="Elipse 5760" cx="2.49" cy="2.49" r="2.49" transform="translate(62.484 1.245)" fill="#ff2c5c"/>
      <circle id="Elipse_5761" data-name="Elipse 5761" cx="2.49" cy="2.49" r="2.49" transform="translate(40.01 1.245)" fill="#ff2c5c"/>
      <circle id="Elipse_5762" data-name="Elipse 5762" cx="2.49" cy="2.49" r="2.49" transform="translate(17.535 1.245)" fill="#ff2c5c"/>
      <path id="Trazado_659368" data-name="Trazado 659368" d="M81.166,13.945H63.75a1.245,1.245,0,0,0,0,2.49H81.166a1.345,1.345,0,0,1,1.343,1.343V65.727a1.345,1.345,0,0,1-1.343,1.343H3.834A1.345,1.345,0,0,1,2.49,65.727V17.779a1.345,1.345,0,0,1,1.343-1.343H31.19v2.49H6.226A1.245,1.245,0,0,0,4.98,20.171v32.9a1.245,1.245,0,0,0,2.49,0V21.416H31.19V28.1l-5.33,2.547a1.253,1.253,0,0,0-.708,1.124V52.072A1.245,1.245,0,0,0,25.86,53.2l16.1,7.694a1.26,1.26,0,0,0,1.074,0l9.053-4.325a1.245,1.245,0,1,0-1.074-2.247l-7.271,3.474V40.245l13.613-6.5V51.287l-1.85.884a1.245,1.245,0,0,0,1.074,2.247L59.14,53.2a1.246,1.246,0,0,0,.708-1.124V31.766a1.252,1.252,0,0,0-.708-1.124L53.81,28.1v-6.68H77.529V62.09H7.471V58.382a1.245,1.245,0,0,0-2.49,0v4.953A1.245,1.245,0,0,0,6.226,64.58H78.774a1.245,1.245,0,0,0,1.245-1.245V20.171a1.245,1.245,0,0,0-1.245-1.245H53.81v-2.49h4.628a1.245,1.245,0,0,0,0-2.49H53.81v-2.49H64.974a1.245,1.245,0,0,0,1.245-1.245V7.257a3.735,3.735,0,1,0-2.49,0V8.965H52.565A1.245,1.245,0,0,0,51.32,10.21v3.735H43.745V7.257a3.735,3.735,0,1,0-2.49,0v6.689H33.68V10.21a1.245,1.245,0,0,0-1.245-1.245H21.271V7.257a3.735,3.735,0,1,0-2.49,0V10.21a1.245,1.245,0,0,0,1.245,1.245H31.19v2.49H3.834A3.838,3.838,0,0,0,0,17.779V65.727a3.838,3.838,0,0,0,3.834,3.834H30.828a11.867,11.867,0,0,1-4.454,7.969H21.084a3.735,3.735,0,0,0,0,7.471H63.916a3.735,3.735,0,0,0,0-7.471H58.629a11.986,11.986,0,0,1-4.456-7.969H81.166A3.838,3.838,0,0,0,85,65.727V17.779A3.838,3.838,0,0,0,81.166,13.945ZM64.974,2.49a1.245,1.245,0,1,1-1.245,1.245A1.246,1.246,0,0,1,64.974,2.49ZM42.5,2.49a1.245,1.245,0,1,1-1.245,1.245A1.246,1.246,0,0,1,42.5,2.49Zm-22.474,0a1.245,1.245,0,1,1-1.245,1.245A1.246,1.246,0,0,1,20.026,2.49ZM33.68,21.416h7.574v1.871L33.68,26.906Zm22.035,10.35L42.5,38.08,29.285,31.766,42.5,25.452ZM27.642,33.741l13.613,6.5V57.791l-13.613-6.5ZM51.32,26.906l-7.574-3.619V21.416H51.32Zm0-10.47v2.49H43.745v-2.49Zm-10.065,0v2.49H33.68v-2.49ZM65.161,81.265a1.246,1.246,0,0,1-1.245,1.245H21.084a1.245,1.245,0,0,1,0-2.49H63.916A1.246,1.246,0,0,1,65.161,81.265Zm-10.1-3.735H29.943a14.042,14.042,0,0,0,3.389-7.969H51.668A14.043,14.043,0,0,0,55.057,77.529Z"/>
    </g>
  </g>
</svg>
