<svg xmlns="http://www.w3.org/2000/svg" xmlns:xlink="http://www.w3.org/1999/xlink" width="85" height="85" viewBox="0 0 85 85">
  <defs>
    <clipPath id="clip-path">
      <rect id="Rectángulo_45654" data-name="Rectángulo 45654" width="85" height="85" transform="translate(285 14591)" fill="#2ff980" stroke="#707070" stroke-width="1"/>
    </clipPath>
  </defs>
  <g id="Enmascarar_grupo_166" data-name="Enmascarar grupo 166" transform="translate(-285 -14591)" clip-path="url(#clip-path)">
    <g id="copia-de-datos" transform="translate(285 14591)">
      <g id="Grupo_960434" data-name="Grupo 960434">
        <path id="Trazado_659342" data-name="Trazado 659342" d="M21.646,47.531l-1.218-3.655A2.012,2.012,0,0,0,18.519,42.5H9.68a2.012,2.012,0,0,0-1.909,1.376L6.553,47.531Z" fill="#ffc344"/>
        <path id="Trazado_659343" data-name="Trazado 659343" d="M46.86,83.755H4.6A3.354,3.354,0,0,1,1.245,80.4V50.885A3.354,3.354,0,0,1,4.6,47.531H46.86a3.354,3.354,0,0,1,3.354,3.354V80.4A3.354,3.354,0,0,1,46.86,83.755Z" fill="#ffe177"/>
        <path id="Trazado_659344" data-name="Trazado 659344" d="M46.86,47.531H37.217A38.5,38.5,0,0,1,11.584,83.755H46.86A3.354,3.354,0,0,0,50.214,80.4V50.885A3.354,3.354,0,0,0,46.86,47.531Z" fill="#ffd15b"/>
      </g>
      <g id="Grupo_960436" data-name="Grupo 960436">
        <path id="Trazado_659345" data-name="Trazado 659345" d="M55.187,6.276,53.968,2.621a2.012,2.012,0,0,0-1.909-1.376H43.221a2.012,2.012,0,0,0-1.909,1.376L40.093,6.276Z" fill="#ffc344"/>
        <path id="Trazado_659346" data-name="Trazado 659346" d="M80.4,42.5H38.14a3.354,3.354,0,0,1-3.354-3.354V9.63A3.354,3.354,0,0,1,38.14,6.276H80.4A3.354,3.354,0,0,1,83.755,9.63V39.146A3.354,3.354,0,0,1,80.4,42.5Z" fill="#ffe177"/>
        <path id="Trazado_659347" data-name="Trazado 659347" d="M80.4,6.276H70.757A38.5,38.5,0,0,1,45.125,42.5H80.4a3.354,3.354,0,0,0,3.354-3.354V9.63A3.354,3.354,0,0,0,80.4,6.276Z" fill="#ffd15b"/>
        <g id="Grupo_960435" data-name="Grupo 960435">
          <circle id="Elipse_5758" data-name="Elipse 5758" cx="13.416" cy="13.416" r="13.416" transform="translate(45.854 10.972)" fill="#fe646f"/>
          <path id="Trazado_659348" data-name="Trazado 659348" d="M66.323,12.975A13.416,13.416,0,0,1,47.858,31.44,13.416,13.416,0,1,0,66.323,12.975Z" fill="#fd4755"/>
        </g>
      </g>
      <path id="Trazado_659349" data-name="Trazado 659349" d="M28.772,19.5l-6.649-6.649a2.516,2.516,0,1,0-3.558,3.558l2.947,2.947H9.907a3.354,3.354,0,0,0-3.354,3.354V35.792a1.342,1.342,0,0,0,1.342,1.342h2.348a1.342,1.342,0,0,0,1.342-1.342v-11.4h9.929l-2.9,2.9a2.562,2.562,0,0,0-.134,3.52,2.516,2.516,0,0,0,3.642.088l6.649-6.649a3.354,3.354,0,0,0,0-4.743Z" fill="#fe646f"/>
      <path id="Trazado_659350" data-name="Trazado 659350" d="M56.228,65.5l6.648,6.649a2.516,2.516,0,0,0,3.558-3.558l-2.947-2.947H75.093a3.354,3.354,0,0,0,3.354-3.354V49.208a1.342,1.342,0,0,0-1.342-1.342H74.758a1.342,1.342,0,0,0-1.342,1.342v11.4H63.487l2.9-2.9a2.562,2.562,0,0,0,.134-3.52,2.516,2.516,0,0,0-3.642-.088l-6.649,6.649a3.354,3.354,0,0,0,0,4.743Z" fill="#8bc727"/>
      <g id="Grupo_960437" data-name="Grupo 960437">
        <path id="Trazado_659351" data-name="Trazado 659351" d="M46.86,46.285H22.543l-.934-2.8a3.254,3.254,0,0,0-3.09-2.228H9.68a3.254,3.254,0,0,0-3.09,2.227l-.934,2.8H4.6a4.6,4.6,0,0,0-4.6,4.6V80.4A4.6,4.6,0,0,0,4.6,85H7.4a1.245,1.245,0,0,0,0-2.49H4.6A2.111,2.111,0,0,1,2.49,80.4V50.885A2.112,2.112,0,0,1,4.6,48.775H46.86a2.112,2.112,0,0,1,2.11,2.11V80.4a2.112,2.112,0,0,1-2.11,2.108H13.207a1.245,1.245,0,1,0,0,2.49H46.86a4.6,4.6,0,0,0,4.6-4.6V50.885a4.605,4.605,0,0,0-4.6-4.6ZM8.952,44.27a.766.766,0,0,1,.728-.525h8.838a.766.766,0,0,1,.728.525l.672,2.015H8.281Z"/>
        <path id="Trazado_659352" data-name="Trazado 659352" d="M80.4,5.03H56.084l-.934-2.8A3.254,3.254,0,0,0,52.059,0H43.221a3.254,3.254,0,0,0-3.09,2.227L39.2,5.03H38.141a4.605,4.605,0,0,0-4.6,4.6V39.146a4.6,4.6,0,0,0,4.6,4.6H66.846a1.245,1.245,0,0,0,0-2.49H38.14a2.112,2.112,0,0,1-2.11-2.108V9.631a2.112,2.112,0,0,1,2.11-2.11H80.4a2.112,2.112,0,0,1,2.108,2.11V39.146A2.111,2.111,0,0,1,80.4,41.255H72.657a1.245,1.245,0,0,0,0,2.49H80.4a4.6,4.6,0,0,0,4.6-4.6V9.631a4.6,4.6,0,0,0-4.6-4.6ZM42.493,3.015a.766.766,0,0,1,.728-.525h8.838a.766.766,0,0,1,.728.525l.672,2.015H41.821Z"/>
        <path id="Trazado_659353" data-name="Trazado 659353" d="M59.27,9.727A14.661,14.661,0,1,0,73.932,24.388,14.678,14.678,0,0,0,59.27,9.727Zm0,26.832A12.171,12.171,0,1,1,71.441,24.388,12.185,12.185,0,0,1,59.27,36.559Z"/>
        <path id="Trazado_659354" data-name="Trazado 659354" d="M59.27,14.925a1.245,1.245,0,0,0-1.245,1.245V28.386a1.245,1.245,0,0,0,2.49,0V16.171a1.245,1.245,0,0,0-1.245-1.245Z"/>
        <path id="Trazado_659355" data-name="Trazado 659355" d="M7.895,38.379h2.348a2.59,2.59,0,0,0,2.587-2.587V25.633h5.678l-.771.771a3.792,3.792,0,0,0-.175,5.238,3.73,3.73,0,0,0,2.695,1.231A3.8,3.8,0,0,0,23,31.773l6.648-6.649a4.6,4.6,0,0,0,0-6.5L23,11.972a3.761,3.761,0,1,0-5.318,5.318l.822.821h-8.6a4.6,4.6,0,0,0-4.6,4.6V35.792a2.59,2.59,0,0,0,2.587,2.587ZM7.8,22.711A2.111,2.111,0,0,1,9.907,20.6H21.513a1.245,1.245,0,0,0,.88-2.126L19.447,15.53a1.27,1.27,0,1,1,1.8-1.8l6.648,6.648a2.109,2.109,0,0,1,0,2.982l-6.649,6.649a1.27,1.27,0,0,1-1.84-.046,1.322,1.322,0,0,1,.094-1.8l2.9-2.9a1.245,1.245,0,0,0-.88-2.126H11.584a1.245,1.245,0,0,0-1.245,1.245v11.4a.1.1,0,0,1-.1.1H7.895a.1.1,0,0,1-.1-.1Z"/>
        <path id="Trazado_659356" data-name="Trazado 659356" d="M77.106,46.622H74.758a2.59,2.59,0,0,0-2.588,2.587V59.367H66.492l.771-.771a3.791,3.791,0,0,0,.176-5.237,3.727,3.727,0,0,0-2.693-1.232,3.779,3.779,0,0,0-2.75,1.1l-6.649,6.647a4.6,4.6,0,0,0,0,6.506L62,73.027a3.761,3.761,0,0,0,5.319-5.318l-.821-.821h8.6a4.6,4.6,0,0,0,4.6-4.6V58.772a1.245,1.245,0,1,0-2.49,0v3.518A2.111,2.111,0,0,1,75.094,64.4H63.486a1.245,1.245,0,0,0-.88,2.126l2.947,2.945a1.271,1.271,0,1,1-1.8,1.8L57.108,64.62a2.11,2.11,0,0,1,0-2.984l6.649-6.647a1.244,1.244,0,0,1,.93-.372,1.259,1.259,0,0,1,.91.418,1.322,1.322,0,0,1-.094,1.8l-2.9,2.9a1.245,1.245,0,0,0,.88,2.126h9.929a1.245,1.245,0,0,0,1.245-1.245v-11.4a.1.1,0,0,1,.1-.1h2.347a.1.1,0,0,1,.1.1v3.752a1.245,1.245,0,0,0,2.49,0V49.209a2.589,2.589,0,0,0-2.587-2.587Z"/>
        <circle id="Elipse_5759" data-name="Elipse 5759" cx="1.245" cy="1.245" r="1.245" transform="translate(58.025 31.36)"/>
      </g>
    </g>
  </g>
</svg>
