<svg xmlns="http://www.w3.org/2000/svg" xmlns:xlink="http://www.w3.org/1999/xlink" width="85" height="85" viewBox="0 0 85 85">
  <defs>
    <clipPath id="clip-path">
      <rect id="Rectángulo_45650" data-name="Rectángulo 45650" width="85" height="85" transform="translate(1230 14109)" fill="#2ff980" stroke="#707070" stroke-width="1"/>
    </clipPath>
  </defs>
  <g id="Enmascarar_grupo_162" data-name="Enmascarar grupo 162" transform="translate(-1230 -14109)" clip-path="url(#clip-path)">
    <g id="_x30_5_Invoice" transform="translate(1230 14109)">
      <g id="_x30_5_Invoice_1_">
        <g id="Invoice">
          <g id="Grupo_960425" data-name="Grupo 960425">
            <path id="Trazado_659241" data-name="Trazado 659241" d="M54.7,77.944,42.5,80.767,30.3,77.944l2.075-5.811L42.5,69.478l9.3,2.656Z" fill="#eee1dc"/>
            <path id="Trazado_659242" data-name="Trazado 659242" d="M83.755,66.323H1.245V18.677a5.817,5.817,0,0,1,5.811-5.811H77.944a5.817,5.817,0,0,1,5.811,5.811Z" fill="#75eeff"/>
            <path id="Trazado_659243" data-name="Trazado 659243" d="M72.134,66.323H1.245V18.677a5.817,5.817,0,0,1,5.811-5.811H66.323a5.817,5.817,0,0,1,5.811,5.811Z" fill="#c0f6ff"/>
            <path id="Trazado_659244" data-name="Trazado 659244" d="M77.944,72.134H7.056a5.817,5.817,0,0,1-5.811-5.811V60.513h82.51v5.811A5.817,5.817,0,0,1,77.944,72.134Z" fill="#f6efea"/>
            <path id="Trazado_659245" data-name="Trazado 659245" d="M66.323,66.323H1.245V60.513H72.134A5.817,5.817,0,0,1,66.323,66.323Z" fill="#fff4f4"/>
            <path id="Trazado_659246" data-name="Trazado 659246" d="M22.163,83.755a1.253,1.253,0,0,1-1.2-1.61,5.822,5.822,0,0,1,5.595-4.2H58.438a5.822,5.822,0,0,1,5.595,4.2,1.258,1.258,0,0,1-1.2,1.61Z" fill="#fff4f4"/>
            <path id="Trazado_659247" data-name="Trazado 659247" d="M48.311,67.568H36.689a1.245,1.245,0,0,1,0-2.49H48.311a1.245,1.245,0,0,1,0,2.49Z"/>
          </g>
          <g id="Grupo_960426" data-name="Grupo 960426">
            <path id="Trazado_659248" data-name="Trazado 659248" d="M63,47.729H75.039a2.9,2.9,0,0,0,2.905-2.905V36.108A5.817,5.817,0,0,0,72.134,30.3H63Z" fill="#ccbeb9"/>
            <path id="Trazado_659249" data-name="Trazado 659249" d="M63,30.3h9.131V47.729H63Z" fill="#e0d2cd"/>
            <path id="Trazado_659250" data-name="Trazado 659250" d="M63.418,54.7H58.105V30.3H72.134a5.817,5.817,0,0,0-5.811,5.811V51.8A2.9,2.9,0,0,1,63.418,54.7Z" fill="#eee1dc"/>
            <path id="Trazado_659251" data-name="Trazado 659251" d="M60.513,51.8A2.9,2.9,0,0,0,63.418,54.7H21.582A2.9,2.9,0,0,1,18.677,51.8V4.15a2.9,2.9,0,0,1,2.905-2.905H57.607A2.9,2.9,0,0,1,60.513,4.15Z" fill="#f6efea"/>
            <path id="Trazado_659252" data-name="Trazado 659252" d="M50.137,47.646H18.677V4.15a2.9,2.9,0,0,1,2.905-2.905H55.947V41.836A5.817,5.817,0,0,1,50.137,47.646Z" fill="#fff4f4"/>
            <path id="Trazado_659253" data-name="Trazado 659253" d="M49.473,5.811H29.551a1.245,1.245,0,0,0,0,2.49H49.473a1.245,1.245,0,0,0,0-2.49Z" fill="#f6efea"/>
          </g>
          <g id="Grupo_960427" data-name="Grupo 960427">
            <path id="Trazado_659254" data-name="Trazado 659254" d="M44.293,13.729,29.6,36.009A13.7,13.7,0,1,0,44.293,13.729Z" fill="#facf23"/>
            <path id="Trazado_659255" data-name="Trazado 659255" d="M48.062,23.159a13.7,13.7,0,0,0-3.769-9.43A13.692,13.692,0,0,0,29.584,35.992,13.693,13.693,0,0,0,48.062,23.159Z" fill="#fae77d"/>
            <path id="Trazado_659256" data-name="Trazado 659256" d="M39.578,25.3a1.668,1.668,0,0,1-1.361-1.926,1.668,1.668,0,0,1,1.926-1.345,1.578,1.578,0,0,1,.963.548,1.247,1.247,0,0,0,1.876-1.644,4.132,4.132,0,0,0-2.241-1.312v-.946a1.245,1.245,0,0,0-2.49,0v1.162a4.155,4.155,0,0,0,.88,7.919,1.668,1.668,0,0,1-.564,3.287,1.817,1.817,0,0,1-.714-.3,1.245,1.245,0,1,0-1.494,1.992,4.259,4.259,0,0,0,1.776.764c.033,0,.083.017.116.017v.946a1.245,1.245,0,0,0,2.49,0V33.1a2.9,2.9,0,0,0,.481-.3,4.151,4.151,0,0,0,1.029-5.777A4.06,4.06,0,0,0,39.578,25.3Z" fill="#fff"/>
          </g>
        </g>
        <g id="Invoice_1_">
          <path id="Trazado_659257" data-name="Trazado 659257" d="M77.944,11.621H66.323a1.245,1.245,0,0,0,0,2.49H77.944a4.563,4.563,0,0,1,4.565,4.565V59.268H2.49V18.677a4.563,4.563,0,0,1,4.565-4.565h5.811a1.245,1.245,0,0,0,0-2.49H7.056A7.071,7.071,0,0,0,0,18.677V66.323a7.071,7.071,0,0,0,7.056,7.056H30.613L29.435,76.7H26.562a7.071,7.071,0,0,0-7.056,7.056A1.254,1.254,0,0,0,20.752,85h43.5a1.254,1.254,0,0,0,1.245-1.245A7.071,7.071,0,0,0,58.438,76.7H55.466l-1.66-3.32H77.944A7.071,7.071,0,0,0,85,66.323V18.677A7.071,7.071,0,0,0,77.944,11.621ZM58.438,79.189a4.586,4.586,0,0,1,4.4,3.32H22.163a4.586,4.586,0,0,1,4.4-3.32h7.886a1.245,1.245,0,0,0,0-2.49H32.058l1.179-3.32h17.78l1.66,3.32H40.242a1.245,1.245,0,1,0,0,2.49Zm19.507-8.3H7.056A4.563,4.563,0,0,1,2.49,66.323V61.758H82.51v4.565A4.563,4.563,0,0,1,77.944,70.889Z"/>
          <path id="Trazado_659258" data-name="Trazado 659258" d="M72.134,29.053H61.758V4.15A4.152,4.152,0,0,0,57.607,0H21.582a4.152,4.152,0,0,0-4.15,4.15V51.8a4.152,4.152,0,0,0,4.15,4.15H63.418a4.152,4.152,0,0,0,4.15-4.15V48.975h7.471a4.152,4.152,0,0,0,4.15-4.15V36.108A7.071,7.071,0,0,0,72.134,29.053Zm-50.552,24.4a1.665,1.665,0,0,1-1.66-1.66V4.15a1.665,1.665,0,0,1,1.66-1.66H57.607a1.665,1.665,0,0,1,1.66,1.66V51.8a3.968,3.968,0,0,0,.349,1.66Zm43.5-1.66a1.66,1.66,0,0,1-3.32,0V31.543h5a7.017,7.017,0,0,0-1.677,4.565ZM76.7,44.824a1.665,1.665,0,0,1-1.66,1.66H67.568V36.108a4.565,4.565,0,0,1,9.131,0Z"/>
          <path id="Trazado_659259" data-name="Trazado 659259" d="M49.473,8.3H29.551a1.245,1.245,0,0,1,0-2.49H49.473a1.245,1.245,0,0,1,0,2.49Z"/>
          <path id="Trazado_659260" data-name="Trazado 659260" d="M39.512,41.5A14.941,14.941,0,1,1,54.453,26.563,14.964,14.964,0,0,1,39.512,41.5Zm0-27.393A12.451,12.451,0,1,0,51.963,26.563,12.456,12.456,0,0,0,39.512,14.111Z"/>
          <path id="Trazado_659261" data-name="Trazado 659261" d="M39.578,25.3a1.668,1.668,0,0,1,.564-3.287,1.578,1.578,0,0,1,.963.548,1.247,1.247,0,0,0,1.876-1.644,4.132,4.132,0,0,0-2.241-1.312V18.66a1.245,1.245,0,0,0-2.49,0v1.162a4.019,4.019,0,0,0-.78.432,4.149,4.149,0,0,0,1.644,7.487,1.661,1.661,0,0,1-.581,3.271,1.817,1.817,0,0,1-.714-.3,1.245,1.245,0,1,0-1.494,1.992,4.259,4.259,0,0,0,1.776.764c.033,0,.083.017.116.017v.946a1.245,1.245,0,0,0,2.49,0V33.07A4.161,4.161,0,0,0,42.9,30.1a4.08,4.08,0,0,0-3.32-4.8Z"/>
          <path id="Trazado_659262" data-name="Trazado 659262" d="M54.7,47.646H43.081a1.245,1.245,0,0,0,0,2.49H54.7a1.245,1.245,0,0,0,0-2.49Z"/>
        </g>
      </g>
    </g>
  </g>
</svg>
