<svg xmlns="http://www.w3.org/2000/svg" width="73.213" height="85" viewBox="0 0 73.213 85">
  <g id="codigo-binario" transform="translate(-35.5)">
    <path id="Trazado_659369" data-name="Trazado 659369" d="M99.445,90.01H45.656A2.656,2.656,0,0,1,43,87.353v-77.2A2.656,2.656,0,0,1,45.656,7.5H99.445a2.656,2.656,0,0,1,2.656,2.656v77.2A2.656,2.656,0,0,1,99.445,90.01Z" transform="translate(-6.255 -6.255)" fill="#eaf6ff"/>
    <path id="Trazado_659370" data-name="Trazado 659370" d="M357.98,7.5H353a2.656,2.656,0,0,1,2.656,2.656v77.2A2.656,2.656,0,0,1,353,90.01h4.98a2.656,2.656,0,0,0,2.656-2.656v-77.2A2.656,2.656,0,0,0,357.98,7.5Z" transform="translate(-264.79 -6.255)" fill="#d8ecfe"/>
    <path id="Trazado_659371" data-name="Trazado 659371" d="M102.1,17.461H43v-7.3A2.656,2.656,0,0,1,45.656,7.5H99.445a2.656,2.656,0,0,1,2.656,2.656Z" transform="translate(-6.255 -6.255)" fill="#2abcc8"/>
    <path id="Trazado_659372" data-name="Trazado 659372" d="M357.98,7.5H353a2.656,2.656,0,0,1,2.656,2.656v7.3h4.98v-7.3A2.656,2.656,0,0,0,357.98,7.5Z" transform="translate(-264.79 -6.255)" fill="#0cacba"/>
    <path id="Trazado_659373" data-name="Trazado 659373" d="M82.823,12.812h0a2.49,2.49,0,0,1-2.49-2.49V7.5h4.98v2.822A2.49,2.49,0,0,1,82.823,12.812Z" transform="translate(-37.39 -6.255)" fill="#fe7ab6"/>
    <path id="Trazado_659374" data-name="Trazado 659374" d="M138.157,12.812h0a2.49,2.49,0,0,1-2.49-2.49V7.5h4.98v2.822A2.49,2.49,0,0,1,138.157,12.812Z" transform="translate(-83.538 -6.255)" fill="#fdb441"/>
    <path id="Trazado_659375" data-name="Trazado 659375" d="M193.49,12.812h0a2.49,2.49,0,0,1-2.49-2.49V7.5h4.98v2.822A2.49,2.49,0,0,1,193.49,12.812Z" transform="translate(-129.685 -6.255)" fill="#edf9d9"/>
    <path id="Trazado_659376" data-name="Trazado 659376" d="M271.191,247.664H237.656A2.656,2.656,0,0,1,235,245.008V207.156a2.656,2.656,0,0,1,2.656-2.656h33.535a2.656,2.656,0,0,1,2.656,2.656v37.852A2.656,2.656,0,0,1,271.191,247.664Z" transform="translate(-166.38 -170.55)" fill="#d8ecfe"/>
    <path id="Trazado_659377" data-name="Trazado 659377" d="M427.98,204.5H423a2.656,2.656,0,0,1,2.656,2.656v37.852A2.656,2.656,0,0,1,423,247.664h4.98a2.656,2.656,0,0,0,2.656-2.656V207.156A2.656,2.656,0,0,0,427.98,204.5Z" transform="translate(-323.169 -170.55)" fill="#c4e2ff"/>
    <path id="Trazado_659378" data-name="Trazado 659378" d="M265.634,394.322h0a2.822,2.822,0,0,1,2.822-2.822h22.578a2.822,2.822,0,0,1,2.822,2.822h0a2.822,2.822,0,0,1-2.822,2.822H268.456A2.822,2.822,0,0,1,265.634,394.322Z" transform="translate(-191.928 -326.505)" fill="#fdb441"/>
    <path id="Trazado_659379" data-name="Trazado 659379" d="M393.615,391.5h-4.98a2.822,2.822,0,0,1,2.822,2.822h0a2.822,2.822,0,0,1-2.822,2.822h4.98a2.822,2.822,0,0,0,2.822-2.822h0A2.822,2.822,0,0,0,393.615,391.5Z" transform="translate(-294.508 -326.505)" fill="#fe9738"/>
    <path id="Trazado_659380" data-name="Trazado 659380" d="M273.848,214.129H235v-6.973a2.656,2.656,0,0,1,2.656-2.656h33.535a2.656,2.656,0,0,1,2.656,2.656Z" transform="translate(-166.38 -170.55)" fill="#2abcc8"/>
    <path id="Trazado_659381" data-name="Trazado 659381" d="M427.98,204.5H423a2.656,2.656,0,0,1,2.656,2.656v6.973h4.98v-6.973A2.656,2.656,0,0,0,427.98,204.5Z" transform="translate(-323.169 -170.55)" fill="#0cacba"/>
    <path id="Trazado_659382" data-name="Trazado 659382" d="M100.225,284.889H85.376a.876.876,0,0,1-.876-.876v-26.47a.876.876,0,0,1,.876-.876h14.849a.876.876,0,0,1,.876.876v26.47A.876.876,0,0,1,100.225,284.889Z" transform="translate(-40.865 -214.056)" fill="#fe7ab6"/>
    <path id="Trazado_659383" data-name="Trazado 659383" d="M154.2,256.667h-4.98a.876.876,0,0,1,.876.876v26.47a.876.876,0,0,1-.876.876h4.98a.876.876,0,0,0,.876-.876v-26.47A.876.876,0,0,0,154.2,256.667Z" transform="translate(-94.842 -214.056)" fill="#fe5ca7"/>
    <g id="Grupo_960441" data-name="Grupo 960441" transform="translate(35.5 0)">
      <path id="Trazado_659384" data-name="Trazado 659384" d="M95.847,34.836A1.245,1.245,0,0,1,94.6,33.59V3.9A1.413,1.413,0,0,0,93.19,2.49H39.4A1.413,1.413,0,0,0,37.99,3.9V19.8a1.245,1.245,0,0,1-2.49,0V3.9A3.906,3.906,0,0,1,39.4,0H93.19a3.906,3.906,0,0,1,3.9,3.9V33.59A1.245,1.245,0,0,1,95.847,34.836Z" transform="translate(-35.5 0)"/>
      <path id="Trazado_659385" data-name="Trazado 659385" d="M93.19,209.681H39.4a3.906,3.906,0,0,1-3.9-3.9V150.745a1.245,1.245,0,0,1,2.49,0v55.034A1.413,1.413,0,0,0,39.4,207.19H93.19a1.413,1.413,0,0,0,1.411-1.411v-3.606a1.245,1.245,0,0,1,2.49,0v3.606A3.906,3.906,0,0,1,93.19,209.681Z" transform="translate(-35.5 -124.681)"/>
      <path id="Línea_268" data-name="Línea 268" d="M52.044-5.01h-58.3A1.245,1.245,0,0,1-7.5-6.255,1.245,1.245,0,0,1-6.255-7.5h58.3a1.245,1.245,0,0,1,1.245,1.245A1.245,1.245,0,0,1,52.044-5.01Z" transform="translate(7.998 17.461)"/>
      <path id="Trazado_659386" data-name="Trazado 659386" d="M76.568,7.8a3.74,3.74,0,0,1-3.735-3.735V1.245A1.245,1.245,0,0,1,74.078,0h4.98A1.245,1.245,0,0,1,80.3,1.245V4.067A3.74,3.74,0,0,1,76.568,7.8ZM75.323,2.49V4.067a1.245,1.245,0,0,0,2.49,0V2.49Z" transform="translate(-66.635 0)"/>
      <path id="Trazado_659387" data-name="Trazado 659387" d="M131.9,7.8a3.74,3.74,0,0,1-3.735-3.735V1.245A1.245,1.245,0,0,1,129.412,0h4.98a1.245,1.245,0,0,1,1.245,1.245V4.067A3.74,3.74,0,0,1,131.9,7.8ZM130.657,2.49V4.067a1.245,1.245,0,0,0,2.49,0V2.49Z" transform="translate(-112.783 0)"/>
      <path id="Trazado_659388" data-name="Trazado 659388" d="M187.235,7.8A3.74,3.74,0,0,1,183.5,4.067V1.245A1.245,1.245,0,0,1,184.745,0h4.98a1.245,1.245,0,0,1,1.245,1.245V4.067A3.74,3.74,0,0,1,187.235,7.8ZM185.99,2.49V4.067a1.245,1.245,0,1,0,2.49,0V2.49Z" transform="translate(-158.93 0)"/>
      <g id="Grupo_960438" data-name="Grupo 960438" transform="translate(42.002 48.329)">
        <path id="Línea_269" data-name="Línea 269" d="M1.8-5.01H-6.255A1.245,1.245,0,0,1-7.5-6.255,1.245,1.245,0,0,1-6.255-7.5H1.8A1.245,1.245,0,0,1,3.042-6.255,1.245,1.245,0,0,1,1.8-5.01Z" transform="translate(7.5 7.5)"/>
        <path id="Línea_270" data-name="Línea 270" d="M13.667-5.01H-6.255A1.245,1.245,0,0,1-7.5-6.255,1.245,1.245,0,0,1-6.255-7.5H13.667a1.245,1.245,0,0,1,1.245,1.245A1.245,1.245,0,0,1,13.667-5.01Z" transform="translate(7.5 11.853)"/>
        <path id="Línea_271" data-name="Línea 271" d="M10.928-5.01H-6.255A1.245,1.245,0,0,1-7.5-6.255,1.245,1.245,0,0,1-6.255-7.5H10.928a1.245,1.245,0,0,1,1.245,1.245A1.245,1.245,0,0,1,10.928-5.01Z" transform="translate(7.5 16.207)"/>
      </g>
      <path id="Trazado_659389" data-name="Trazado 659389" d="M264.936,242.654h-16.38a1.245,1.245,0,0,1,0-2.49h16.38a1.413,1.413,0,0,0,1.411-1.411V200.9a1.413,1.413,0,0,0-1.411-1.411H231.4a1.413,1.413,0,0,0-1.411,1.411v37.852a1.413,1.413,0,0,0,1.411,1.411h11.234a1.245,1.245,0,0,1,0,2.49H231.4a3.906,3.906,0,0,1-3.9-3.9V200.9a3.906,3.906,0,0,1,3.9-3.9h33.535a3.906,3.906,0,0,1,3.9,3.9v37.852A3.906,3.906,0,0,1,264.936,242.654Z" transform="translate(-195.625 -164.295)"/>
      <path id="Trazado_659390" data-name="Trazado 659390" d="M262.2,384h22.578a4.067,4.067,0,0,1,0,8.135H262.2a4.067,4.067,0,0,1,0-8.135Zm22.578,5.645a1.577,1.577,0,0,0,0-3.154H262.2a1.577,1.577,0,0,0,0,3.154Z" transform="translate(-221.173 -320.25)"/>
      <path id="Línea_272" data-name="Línea 272" d="M31.726-5.01H-6.255A1.245,1.245,0,0,1-7.5-6.255,1.245,1.245,0,0,1-6.255-7.5H31.726a1.245,1.245,0,0,1,1.245,1.245A1.245,1.245,0,0,1,31.726-5.01Z" transform="translate(39.947 49.834)"/>
      <path id="Trazado_659391" data-name="Trazado 659391" d="M93.97,279.879H79.121A2.124,2.124,0,0,1,77,277.758v-26.47a2.124,2.124,0,0,1,2.121-2.121H93.97a2.124,2.124,0,0,1,2.121,2.121v26.47A2.124,2.124,0,0,1,93.97,279.879Zm-14.48-2.49H93.6V251.656H79.49Z" transform="translate(-70.11 -207.801)"/>
      <g id="Grupo_960439" data-name="Grupo 960439" transform="translate(11.596 46.844)">
        <path id="Línea_273" data-name="Línea 273" d="M-2.16-5.01H-6.255A1.245,1.245,0,0,1-7.5-6.255,1.245,1.245,0,0,1-6.255-7.5H-2.16A1.245,1.245,0,0,1-.915-6.255,1.245,1.245,0,0,1-2.16-5.01Z" transform="translate(7.5 7.5)"/>
        <path id="Línea_274" data-name="Línea 274" d="M-2.16-5.01H-6.255A1.245,1.245,0,0,1-7.5-6.255,1.245,1.245,0,0,1-6.255-7.5H-2.16A1.245,1.245,0,0,1-.915-6.255,1.245,1.245,0,0,1-2.16-5.01Z" transform="translate(7.5 23.659)"/>
        <path id="Línea_275" data-name="Línea 275" d="M.66-5.01H-6.255A1.245,1.245,0,0,1-7.5-6.255,1.245,1.245,0,0,1-6.255-7.5H.66A1.245,1.245,0,0,1,1.905-6.255,1.245,1.245,0,0,1,.66-5.01Z" transform="translate(7.5 11.54)"/>
        <path id="Línea_276" data-name="Línea 276" d="M.66-5.01H-6.255A1.245,1.245,0,0,1-7.5-6.255,1.245,1.245,0,0,1-6.255-7.5H.66A1.245,1.245,0,0,1,1.905-6.255,1.245,1.245,0,0,1,.66-5.01Z" transform="translate(7.5 15.579)"/>
      </g>
      <g id="Grupo_960440" data-name="Grupo 960440" transform="translate(7.637 19.009)">
        <path id="Trazado_659392" data-name="Trazado 659392" d="M85.567,124.795a4.072,4.072,0,0,1-4.067-4.067v-1.66a4.067,4.067,0,0,1,8.135,0v1.66A4.072,4.072,0,0,1,85.567,124.795Zm0-7.3a1.579,1.579,0,0,0-1.577,1.577v1.66a1.577,1.577,0,1,0,3.154,0v-1.66A1.579,1.579,0,0,0,85.567,117.49Z" transform="translate(-81.5 -114.917)"/>
        <path id="Línea_277" data-name="Línea 277" d="M-6.255,2.295A1.245,1.245,0,0,1-7.5,1.05v-7.3A1.245,1.245,0,0,1-6.255-7.5,1.245,1.245,0,0,1-5.01-6.255v7.3A1.245,1.245,0,0,1-6.255,2.295Z" transform="translate(18.457 7.5)"/>
        <path id="Trazado_659393" data-name="Trazado 659393" d="M183.567,124.795a4.072,4.072,0,0,1-4.067-4.067v-1.66a4.067,4.067,0,1,1,8.135,0v1.66A4.072,4.072,0,0,1,183.567,124.795Zm0-7.3a1.579,1.579,0,0,0-1.577,1.577v1.66a1.577,1.577,0,0,0,3.154,0v-1.66A1.579,1.579,0,0,0,183.567,117.49Z" transform="translate(-163.23 -114.917)"/>
        <path id="Línea_278" data-name="Línea 278" d="M-6.255,2.295A1.245,1.245,0,0,1-7.5,1.05v-7.3A1.245,1.245,0,0,1-6.255-7.5,1.245,1.245,0,0,1-5.01-6.255v7.3A1.245,1.245,0,0,1-6.255,2.295Z" transform="translate(34.727 7.5)"/>
        <path id="Trazado_659394" data-name="Trazado 659394" d="M281.567,124.795a4.072,4.072,0,0,1-4.067-4.067v-1.66a4.067,4.067,0,1,1,8.135,0v1.66A4.072,4.072,0,0,1,281.567,124.795Zm0-7.3a1.579,1.579,0,0,0-1.577,1.577v1.66a1.577,1.577,0,0,0,3.154,0v-1.66A1.579,1.579,0,0,0,281.567,117.49Z" transform="translate(-244.961 -114.917)"/>
        <path id="Línea_279" data-name="Línea 279" d="M-6.255,2.295A1.245,1.245,0,0,1-7.5,1.05v-7.3A1.245,1.245,0,0,1-6.255-7.5,1.245,1.245,0,0,1-5.01-6.255v7.3A1.245,1.245,0,0,1-6.255,2.295Z" transform="translate(50.996 7.5)"/>
      </g>
    </g>
  </g>
</svg>
