<svg xmlns="http://www.w3.org/2000/svg" width="105" height="105" viewBox="0 0 105 105">
  <g id="Grupo_83848" data-name="Grupo 83848" transform="translate(2796 8425)">
    <circle id="_240_F_321763424_EUgnpmBP81OrR6HvnHsT5Mthjtk0JLcN" data-name="240_F_321763424_EUgnpmBP81OrR6HvnHsT5Mthjtk0JLcN" cx="52.5" cy="52.5" r="52.5" transform="translate(-2796 -8425)" fill="#583ae2"/>
    <g id="Layer_1" transform="translate(-2773.915 -8409.791)">
      <g id="Grupo_955724" data-name="Grupo 955724" transform="translate(2.167 11.431)">
        <g id="Grupo_955723" data-name="Grupo 955723" transform="translate(0.56 0.56)">
          <g id="Grupo_955705" data-name="Grupo 955705" transform="translate(0 7.177)">
            <g id="Grupo_955704" data-name="Grupo 955704" transform="translate(0 0)">
              <path id="Trazado_656071" data-name="Trazado 656071" d="M59.949,45.953V88.785a1.121,1.121,0,0,1-1.121,1.121H5.788a1.121,1.121,0,0,1-1.121-1.121V45.953Z" transform="translate(-4.667 -45.953)" fill="#2ff980"/>
            </g>
          </g>
          <g id="Grupo_955712" data-name="Grupo 955712" transform="translate(16.281 18.528)">
            <g id="Grupo_955707" data-name="Grupo 955707">
              <g id="Grupo_955706" data-name="Grupo 955706">
                <path id="Trazado_656072" data-name="Trazado 656072" d="M88.673,96.6c-6.274,0-11.36,4.3-11.36,9.6a9.076,9.076,0,0,0,4.079,7.367l.4,3.42a.979.979,0,0,0,.972.864H94.576a.979.979,0,0,0,.972-.864l.4-3.42a9.075,9.075,0,0,0,4.079-7.367c0-5.3-5.086-9.6-11.36-9.6Z" transform="translate(-77.313 -96.6)" fill="#efefef"/>
              </g>
            </g>
            <g id="Grupo_955709" data-name="Grupo 955709" transform="translate(4.082 6.643)">
              <g id="Grupo_955708" data-name="Grupo 955708">
                <path id="Trazado_656073" data-name="Trazado 656073" d="M99.849,130.565c-1.053,1.053-2.48,1.334-3.533.281a2.7,2.7,0,1,1,3.814-3.814C101.184,128.085,100.9,129.512,99.849,130.565Z" transform="translate(-95.527 -126.243)" fill="#afafaf"/>
              </g>
            </g>
            <g id="Grupo_955711" data-name="Grupo 955711" transform="translate(13.371 6.643)">
              <g id="Grupo_955710" data-name="Grupo 955710">
                <path id="Trazado_656074" data-name="Trazado 656074" d="M137.918,130.565c1.053,1.053,2.48,1.334,3.533.281a2.7,2.7,0,1,0-3.814-3.814C136.584,128.085,136.865,129.512,137.918,130.565Z" transform="translate(-136.974 -126.243)" fill="#afafaf"/>
              </g>
            </g>
          </g>
          <g id="Grupo_955714" data-name="Grupo 955714">
            <g id="Grupo_955713" data-name="Grupo 955713">
              <path id="Trazado_656075" data-name="Trazado 656075" d="M59.949,15.052v6.056H4.667V15.052a1.121,1.121,0,0,1,1.121-1.121H58.829A1.121,1.121,0,0,1,59.949,15.052Z" transform="translate(-4.667 -13.931)" fill="#afafaf"/>
            </g>
          </g>
          <g id="Grupo_955716" data-name="Grupo 955716" transform="translate(2.904 2.214)">
            <g id="Grupo_955715" data-name="Grupo 955715">
              <circle id="Elipse_5637" data-name="Elipse 5637" cx="1.374" cy="1.374" r="1.374" fill="#fc5d3d"/>
            </g>
          </g>
          <g id="Grupo_955718" data-name="Grupo 955718" transform="translate(8.203 2.214)">
            <g id="Grupo_955717" data-name="Grupo 955717">
              <circle id="Elipse_5638" data-name="Elipse 5638" cx="1.374" cy="1.374" r="1.374" fill="#f0c020"/>
            </g>
          </g>
          <g id="Grupo_955720" data-name="Grupo 955720" transform="translate(13.503 2.214)">
            <g id="Grupo_955719" data-name="Grupo 955719">
              <circle id="Elipse_5639" data-name="Elipse 5639" cx="1.374" cy="1.374" r="1.374" fill="#13bf6d"/>
            </g>
          </g>
          <g id="Grupo_955722" data-name="Grupo 955722" transform="translate(2.344 8.644)">
            <g id="Grupo_955721" data-name="Grupo 955721" transform="translate(0 0)">
              <path id="Trazado_656076" data-name="Trazado 656076" d="M64.85,92.5H18.57a.56.56,0,1,1,0-1.121H64.29V53.059a.56.56,0,1,1,1.121,0V91.944A.56.56,0,0,1,64.85,92.5Zm-48.521,0h-.645a.56.56,0,1,1,0-1.121h.645a.56.56,0,1,1,0,1.121Z" transform="translate(-15.124 -52.499)" fill="#25c766"/>
            </g>
          </g>
        </g>
        <path id="Trazado_656077" data-name="Trazado 656077" d="M88.91,107.623a.56.56,0,1,0,.791.047A.577.577,0,0,0,88.91,107.623Z" transform="translate(-69.324 -85.96)"/>
        <path id="Trazado_656078" data-name="Trazado 656078" d="M77.316,98.859a.573.573,0,0,0-.782.132,9.052,9.052,0,0,0-1.723,5.267,9.593,9.593,0,0,0,4.113,7.678l.377,3.176a1.541,1.541,0,0,0,1.528,1.358H92.634a1.541,1.541,0,0,0,1.528-1.358l.377-3.176a9.593,9.593,0,0,0,4.113-7.678c0-5.554-5.267-10.159-11.921-10.159a13.367,13.367,0,0,0-6.71,1.759.562.562,0,0,0-.2.766.576.576,0,0,0,.766.2,12.11,12.11,0,0,1,5.388-1.586l-.664,2.23a.564.564,0,0,0,.538.722h1.08l-.728,2.25a.561.561,0,1,0,1.067.345l.966-2.983a.561.561,0,0,0-.533-.733H86.6l.55-1.845c5.874.184,10.384,4.249,10.384,9.03a8.525,8.525,0,0,1-3.844,6.91.56.56,0,0,0-.233.392l-.4,3.42a.421.421,0,0,1-.417.37h-3.12l.137-2.79a.561.561,0,0,0-1.121-.056l-.138,2.846H85.069l-.138-2.846a.561.561,0,0,0-1.121.056l.137,2.79h-3.12a.421.421,0,0,1-.417-.37l-.4-3.42a.571.571,0,0,0-.233-.392,8.525,8.525,0,0,1-3.844-6.91,7.927,7.927,0,0,1,1.517-4.617.562.562,0,0,0-.132-.782Z" transform="translate(-58.529 -75.572)"/>
        <path id="Trazado_656079" data-name="Trazado 656079" d="M93.976,124.692a3.255,3.255,0,0,0,0,4.606c1.262,1.272,3.045,1,4.325-.28v0c1.29-1.29,1.547-3.072.28-4.323A3.253,3.253,0,0,0,93.976,124.692Zm3.532,3.532v0c-.824.824-1.9,1.109-2.739.28a2.137,2.137,0,0,1,3.021-3.023C98.627,126.337,98.328,127.408,97.508,128.224Z" transform="translate(-72.659 -98.567)"/>
        <path id="Trazado_656080" data-name="Trazado 656080" d="M139.931,129.308a3.257,3.257,0,0,0-4.606-4.606c-1.191,1.19-1.075,2.969.281,4.325C136.876,130.3,138.651,130.589,139.931,129.308Zm-3.813-3.814a2.136,2.136,0,0,1,3.021,3.021c-.831.831-1.916.543-2.74-.281S135.285,126.327,136.117,125.494Z" transform="translate(-104.846 -98.577)"/>
        <path id="Trazado_656081" data-name="Trazado 656081" d="M129.984,153.116a.56.56,0,0,0,0,.791l.412.415a.561.561,0,0,0,.793-.793l-.412-.412A.573.573,0,0,0,129.984,153.116Z" transform="translate(-101.211 -121.238)"/>
        <path id="Trazado_656082" data-name="Trazado 656082" d="M119.5,154.322a.559.559,0,0,0,.791,0l.415-.412a.562.562,0,0,0,0-.793.573.573,0,0,0-.793,0l-.412.412A.562.562,0,0,0,119.5,154.322Z" transform="translate(-93.079 -121.238)"/>
        <path id="Trazado_656083" data-name="Trazado 656083" d="M195.155,135.033a.56.56,0,0,0,.791,0l3.028-3.028a.562.562,0,0,0,0-.793l-3.028-3.026a.57.57,0,0,0-.791,0,.557.557,0,0,0,0,.791l2.629,2.631-2.629,2.631a.556.556,0,0,0,0,.793Z" transform="translate(-151.774 -101.896)"/>
        <path id="Trazado_656084" data-name="Trazado 656084" d="M46.482,128.186a.57.57,0,0,0-.791,0l-3.028,3.026a.562.562,0,0,0,0,.793l3.028,3.028a.56.56,0,0,0,.791-.793l-2.631-2.631,2.631-2.631A.555.555,0,0,0,46.482,128.186Z" transform="translate(-33.46 -101.895)"/>
        <circle id="Elipse_5640" data-name="Elipse 5640" cx="0.56" cy="0.56" r="0.56" transform="translate(0.001 23.897)"/>
        <path id="Trazado_656085" data-name="Trazado 656085" d="M56.889,11.431H3.848a1.683,1.683,0,0,0-1.681,1.681c0,.074,0,7.446,0,20.535a.56.56,0,0,0,1.121,0V19.727h54.16V62a.56.56,0,0,1-.56.56H3.849a.56.56,0,0,1-.56-.56V38.13a.56.56,0,0,0-1.121,0V62a1.683,1.683,0,0,0,1.681,1.681H56.888A1.683,1.683,0,0,0,58.569,62c0-5.44,0-47.418,0-48.888A1.683,1.683,0,0,0,56.889,11.431Zm-53.6,7.176V13.112a.561.561,0,0,1,.56-.56H56.889a.561.561,0,0,1,.56.56v5.495Z" transform="translate(-2.167 -11.431)"/>
        <path id="Trazado_656086" data-name="Trazado 656086" d="M17.056,21.309a1.934,1.934,0,1,0,1.934,1.934,1.939,1.939,0,0,0-1.934-1.934Zm0,2.748a.814.814,0,1,1,.814-.814.818.818,0,0,1-.814.814Z" transform="translate(-12.217 -19.095)"/>
        <path id="Trazado_656087" data-name="Trazado 656087" d="M40.7,21.309a1.934,1.934,0,1,0,1.934,1.934A1.936,1.936,0,0,0,40.7,21.309Zm0,2.75a.815.815,0,1,1,.814-.816A.818.818,0,0,1,40.7,24.059Z" transform="translate(-30.567 -19.095)"/>
        <path id="Trazado_656088" data-name="Trazado 656088" d="M64.354,21.309a1.934,1.934,0,1,0,1.934,1.934A1.936,1.936,0,0,0,64.354,21.309Zm0,2.75a.815.815,0,1,1,.814-.816A.818.818,0,0,1,64.354,24.059Z" transform="translate(-48.916 -19.095)"/>
        <path id="Trazado_656089" data-name="Trazado 656089" d="M117.052,27.439H94.64a.56.56,0,0,0,0,1.121h22.412a.56.56,0,1,0,0-1.121Z" transform="translate(-73.481 -23.851)"/>
        <circle id="Elipse_5641" data-name="Elipse 5641" cx="0.56" cy="0.56" r="0.56" transform="translate(45.252 3.588)"/>
        <path id="Trazado_656090" data-name="Trazado 656090" d="M219.217,27.439H214.64a.56.56,0,0,0,0,1.121h4.576a.56.56,0,1,0,0-1.121Z" transform="translate(-166.587 -23.851)"/>
      </g>
    </g>
  </g>
</svg>
