<svg xmlns="http://www.w3.org/2000/svg" xmlns:xlink="http://www.w3.org/1999/xlink" width="400" height="356" viewBox="0 0 400 356">
  <defs>
    <clipPath id="clip-path">
      <rect id="Rectángulo_42208" data-name="Rectángulo 42208" width="400" height="356" transform="translate(180 3100)" fill="#fff" stroke="#707070" stroke-width="1"/>
    </clipPath>
  </defs>
  <g id="Enmascarar_grupo_131" data-name="Enmascarar grupo 131" transform="translate(-180 -3100)" clip-path="url(#clip-path)">
    <g id="Grupo_949915" data-name="Grupo 949915" transform="translate(158.319 -1459.942)">
      <path id="Trazado_634896" data-name="Trazado 634896" d="M85.92,4793.778c4.178-27.077,50.76-32.519,42.206-81.51-6.437-36.868,44.391-103.747,79.549-96.974,26.711,5.146,13.543,34.422,32.723,43.262,11.941,5.5,17.382-10.053,33.126-4.271,18.528,6.8,10.856,45.68,43.179,63.658,29.728,16.535,52.192,10.512,60.1,31.992,8.936,24.282-17.771,30.127-13.313,46.721,5.532,20.59,25.438,18.665,21.249,42.1-8.307,46.469-96.016,62.859-150.515,62.859S78.138,4844.2,85.92,4793.778Z" transform="translate(-3.122 -10.669)" fill="#e0feec"/>
      <g id="Grupo_949849" data-name="Grupo 949849" transform="translate(300.599 4614.565)">
        <path id="Rectángulo_42205" data-name="Rectángulo 42205" d="M15.156,0H27.073A15.157,15.157,0,0,1,42.23,15.157V27.165A15.157,15.157,0,0,1,27.073,42.322H15.156A15.156,15.156,0,0,1,0,27.165V15.156A15.156,15.156,0,0,1,15.156,0Z" transform="translate(0.518 0.52)" fill="#fffdf7"/>
        <path id="Trazado_634897" data-name="Trazado 634897" d="M400.981,4671.752H381.989a12.165,12.165,0,0,1-12.137-12.165v-19.033a12.165,12.165,0,0,1,12.137-12.165h18.992a12.166,12.166,0,0,1,12.139,12.165v19.033A12.166,12.166,0,0,1,400.981,4671.752Zm-18.992-42.322a11.124,11.124,0,0,0-11.1,11.125v19.033a11.124,11.124,0,0,0,11.1,11.125h18.992a11.125,11.125,0,0,0,11.1-11.125v-19.033a11.125,11.125,0,0,0-11.1-11.125Z" transform="translate(-369.852 -4628.39)" fill="#32293a"/>
      </g>
      <path id="Trazado_634898" data-name="Trazado 634898" d="M330.342,4700.685c-3.236-4.155-.038-10.571,6.024-11.474s11.878,4.241,13.358,9.816c4.217-1.065,7.976,5.312,6.377,8.935,3.361,6.948-7.09,12.425-7.09,12.425s-10.038-1.325-10.1-1.583S330.342,4700.685,330.342,4700.685Z" transform="translate(-59.766 -27.946)" fill="#32293a"/>
      <g id="Grupo_949872" data-name="Grupo 949872" transform="translate(82.19 4616.901)">
        <g id="Grupo_949850" data-name="Grupo 949850" transform="translate(14.326)">
          <path id="Trazado_634899" data-name="Trazado 634899" d="M191.179,4637.035l-3.6,36.676a73.667,73.667,0,0,1-31.04,51.431l-6.245,4.341a4.363,4.363,0,0,1-4.994-.008l-6.186-4.329a73.665,73.665,0,0,1-30.856-51.3l-3.62-36.809a4.377,4.377,0,0,1,4.338-4.92c4.42,0,72.156.235,77.869,0A4.327,4.327,0,0,1,191.179,4637.035Z" transform="translate(-104.081 -4631.592)" fill="#25c766"/>
          <path id="Trazado_634900" data-name="Trazado 634900" d="M147.641,4730.622a4.881,4.881,0,0,1-2.8-.878l-6.186-4.329a74.3,74.3,0,0,1-31.074-51.664l-3.622-36.823a4.9,4.9,0,0,1,4.854-5.491c.789,0,3.592.008,7.7.019,19.591.052,65.467.176,70.15-.019a4.644,4.644,0,0,1,3.6,1.517,4.973,4.973,0,0,1,1.278,3.981l-3.6,36.668a74.279,74.279,0,0,1-31.261,51.808l-6.246,4.341A4.879,4.879,0,0,1,147.641,4730.622Zm-38.828-98.145a3.858,3.858,0,0,0-3.823,4.336l3.622,36.822a73.25,73.25,0,0,0,30.638,50.929l6.186,4.328a3.864,3.864,0,0,0,4.4.006l6.245-4.342a73.238,73.238,0,0,0,30.821-51.068l3.6-36.676a3.941,3.941,0,0,0-1.011-3.155,3.549,3.549,0,0,0-2.791-1.182c-4.706.193-50.6.071-70.2.019C112.4,4632.484,109.6,4632.477,108.814,4632.477Z" transform="translate(-103.923 -4631.434)" fill="#32293a"/>
        </g>
        <g id="Grupo_949851" data-name="Grupo 949851" transform="translate(0 30.85)">
          <rect id="Rectángulo_42206" data-name="Rectángulo 42206" width="115.264" height="25.331" rx="12.665" transform="translate(0.52 0.52)" fill="#1c954d"/>
          <path id="Trazado_634901" data-name="Trazado 634901" d="M188.4,4698.005H98.413a13.186,13.186,0,0,1,0-26.372H188.4a13.186,13.186,0,0,1,0,26.372Zm-89.989-25.332a12.145,12.145,0,0,0,0,24.291H188.4a12.145,12.145,0,0,0,0-24.291Z" transform="translate(-85.256 -4671.634)" fill="#32293a"/>
        </g>
        <g id="Grupo_949871" data-name="Grupo 949871" transform="translate(8.571 40.785)">
          <g id="Grupo_949852" data-name="Grupo 949852" transform="translate(0.452 0.453)">
            <path id="Trazado_634902" data-name="Trazado 634902" d="M97.013,4688.127a2.952,2.952,0,1,1,2.952,2.959A2.955,2.955,0,0,1,97.013,4688.127Z" transform="translate(-97.013 -4685.169)" fill="#fffdf7"/>
            <path id="Trazado_634903" data-name="Trazado 634903" d="M114.181,4688.127a2.952,2.952,0,1,1,2.952,2.959A2.955,2.955,0,0,1,114.181,4688.127Z" transform="translate(-101.006 -4685.169)" fill="#fffdf7"/>
            <path id="Trazado_634904" data-name="Trazado 634904" d="M131.349,4688.127a2.952,2.952,0,1,1,2.952,2.959A2.955,2.955,0,0,1,131.349,4688.127Z" transform="translate(-104.998 -4685.169)" fill="#fffdf7"/>
            <path id="Trazado_634905" data-name="Trazado 634905" d="M148.517,4688.127a2.952,2.952,0,1,1,2.952,2.959A2.955,2.955,0,0,1,148.517,4688.127Z" transform="translate(-108.991 -4685.169)" fill="#fffdf7"/>
            <path id="Trazado_634906" data-name="Trazado 634906" d="M165.685,4688.127a2.952,2.952,0,1,1,2.952,2.959A2.955,2.955,0,0,1,165.685,4688.127Z" transform="translate(-112.984 -4685.169)" fill="#fffdf7"/>
            <path id="Trazado_634907" data-name="Trazado 634907" d="M182.854,4688.127a2.952,2.952,0,1,1,2.952,2.959A2.954,2.954,0,0,1,182.854,4688.127Z" transform="translate(-116.977 -4685.169)" fill="#fffdf7"/>
            <path id="Trazado_634908" data-name="Trazado 634908" d="M200.021,4688.127a2.952,2.952,0,1,1,2.952,2.959A2.955,2.955,0,0,1,200.021,4688.127Z" transform="translate(-120.969 -4685.169)" fill="#fffdf7"/>
            <ellipse id="Elipse_5437" data-name="Elipse 5437" cx="2.952" cy="2.958" rx="2.952" ry="2.958" transform="translate(92.228 0)" fill="#fffdf7"/>
          </g>
          <g id="Grupo_949861" data-name="Grupo 949861">
            <g id="Grupo_949853" data-name="Grupo 949853">
              <path id="Trazado_634909" data-name="Trazado 634909" d="M97.013,4688.127a2.952,2.952,0,1,1,2.952,2.959A2.955,2.955,0,0,1,97.013,4688.127Z" transform="translate(-96.561 -4684.716)" fill="#fffdf7"/>
              <path id="Trazado_634910" data-name="Trazado 634910" d="M99.828,4691.4a3.411,3.411,0,1,1,3.4-3.411A3.411,3.411,0,0,1,99.828,4691.4Zm0-5.917a2.506,2.506,0,1,0,2.5,2.506A2.506,2.506,0,0,0,99.828,4685.484Z" transform="translate(-96.424 -4684.579)" fill="#32293a"/>
            </g>
            <g id="Grupo_949854" data-name="Grupo 949854" transform="translate(13.177)">
              <path id="Trazado_634911" data-name="Trazado 634911" d="M114.181,4688.127a2.952,2.952,0,1,1,2.952,2.959A2.955,2.955,0,0,1,114.181,4688.127Z" transform="translate(-113.731 -4684.716)" fill="#fffdf7"/>
              <path id="Trazado_634912" data-name="Trazado 634912" d="M117,4691.4a3.411,3.411,0,1,1,3.4-3.411A3.41,3.41,0,0,1,117,4691.4Zm0-5.917a2.506,2.506,0,1,0,2.5,2.506A2.506,2.506,0,0,0,117,4685.484Z" transform="translate(-113.594 -4684.579)" fill="#32293a"/>
            </g>
            <g id="Grupo_949855" data-name="Grupo 949855" transform="translate(26.351)">
              <path id="Trazado_634913" data-name="Trazado 634913" d="M131.349,4688.127a2.952,2.952,0,1,1,2.952,2.959A2.955,2.955,0,0,1,131.349,4688.127Z" transform="translate(-130.898 -4684.716)" fill="#fffdf7"/>
              <path id="Trazado_634914" data-name="Trazado 634914" d="M134.164,4691.4a3.411,3.411,0,1,1,3.4-3.411A3.411,3.411,0,0,1,134.164,4691.4Zm0-5.917a2.506,2.506,0,1,0,2.5,2.506A2.506,2.506,0,0,0,134.164,4685.484Z" transform="translate(-130.761 -4684.579)" fill="#32293a"/>
            </g>
            <g id="Grupo_949856" data-name="Grupo 949856" transform="translate(39.527)">
              <path id="Trazado_634915" data-name="Trazado 634915" d="M148.517,4688.127a2.952,2.952,0,1,1,2.952,2.959A2.955,2.955,0,0,1,148.517,4688.127Z" transform="translate(-148.066 -4684.716)" fill="#fffdf7"/>
              <path id="Trazado_634916" data-name="Trazado 634916" d="M151.333,4691.4a3.411,3.411,0,1,1,3.4-3.411A3.411,3.411,0,0,1,151.333,4691.4Zm0-5.917a2.506,2.506,0,1,0,2.5,2.506A2.506,2.506,0,0,0,151.333,4685.484Z" transform="translate(-147.929 -4684.579)" fill="#32293a"/>
            </g>
            <g id="Grupo_949857" data-name="Grupo 949857" transform="translate(52.702)">
              <path id="Trazado_634917" data-name="Trazado 634917" d="M165.685,4688.127a2.952,2.952,0,1,1,2.952,2.959A2.955,2.955,0,0,1,165.685,4688.127Z" transform="translate(-165.234 -4684.716)" fill="#fffdf7"/>
              <path id="Trazado_634918" data-name="Trazado 634918" d="M168.5,4691.4a3.411,3.411,0,1,1,3.4-3.411A3.41,3.41,0,0,1,168.5,4691.4Zm0-5.917a2.506,2.506,0,1,0,2.5,2.506A2.506,2.506,0,0,0,168.5,4685.484Z" transform="translate(-165.097 -4684.579)" fill="#32293a"/>
            </g>
            <g id="Grupo_949858" data-name="Grupo 949858" transform="translate(65.878)">
              <path id="Trazado_634919" data-name="Trazado 634919" d="M182.854,4688.127a2.952,2.952,0,1,1,2.952,2.959A2.954,2.954,0,0,1,182.854,4688.127Z" transform="translate(-182.403 -4684.716)" fill="#fffdf7"/>
              <path id="Trazado_634920" data-name="Trazado 634920" d="M185.668,4691.4a3.411,3.411,0,1,1,3.4-3.411A3.411,3.411,0,0,1,185.668,4691.4Zm0-5.917a2.506,2.506,0,1,0,2.5,2.506A2.506,2.506,0,0,0,185.668,4685.484Z" transform="translate(-182.266 -4684.579)" fill="#32293a"/>
            </g>
            <g id="Grupo_949859" data-name="Grupo 949859" transform="translate(79.053)">
              <path id="Trazado_634921" data-name="Trazado 634921" d="M200.021,4688.127a2.952,2.952,0,1,1,2.952,2.959A2.955,2.955,0,0,1,200.021,4688.127Z" transform="translate(-199.571 -4684.716)" fill="#fffdf7"/>
              <path id="Trazado_634922" data-name="Trazado 634922" d="M202.836,4691.4a3.411,3.411,0,1,1,3.4-3.411A3.411,3.411,0,0,1,202.836,4691.4Zm0-5.917a2.506,2.506,0,1,0,2.5,2.506A2.505,2.505,0,0,0,202.836,4685.484Z" transform="translate(-199.434 -4684.579)" fill="#32293a"/>
            </g>
            <g id="Grupo_949860" data-name="Grupo 949860" transform="translate(92.228)">
              <ellipse id="Elipse_5438" data-name="Elipse 5438" cx="2.952" cy="2.958" rx="2.952" ry="2.958" transform="translate(0.452 0.453)" fill="#fffdf7"/>
              <path id="Trazado_634923" data-name="Trazado 634923" d="M220.005,4691.4a3.411,3.411,0,1,1,3.4-3.411A3.411,3.411,0,0,1,220.005,4691.4Zm0-5.917a2.506,2.506,0,1,0,2.5,2.506A2.506,2.506,0,0,0,220.005,4685.484Z" transform="translate(-216.601 -4684.579)" fill="#32293a"/>
            </g>
          </g>
          <g id="Grupo_949870" data-name="Grupo 949870">
            <g id="Grupo_949862" data-name="Grupo 949862">
              <path id="Trazado_634924" data-name="Trazado 634924" d="M97.013,4688.127a2.952,2.952,0,1,1,2.952,2.959A2.955,2.955,0,0,1,97.013,4688.127Z" transform="translate(-96.561 -4684.716)" fill="#fffdf7"/>
              <path id="Trazado_634925" data-name="Trazado 634925" d="M99.828,4691.4a3.411,3.411,0,1,1,3.4-3.411A3.411,3.411,0,0,1,99.828,4691.4Zm0-5.917a2.506,2.506,0,1,0,2.5,2.506A2.506,2.506,0,0,0,99.828,4685.484Z" transform="translate(-96.424 -4684.579)" fill="#32293a"/>
            </g>
            <g id="Grupo_949863" data-name="Grupo 949863" transform="translate(13.177)">
              <path id="Trazado_634926" data-name="Trazado 634926" d="M114.181,4688.127a2.952,2.952,0,1,1,2.952,2.959A2.955,2.955,0,0,1,114.181,4688.127Z" transform="translate(-113.731 -4684.716)" fill="#fffdf7"/>
              <path id="Trazado_634927" data-name="Trazado 634927" d="M117,4691.4a3.411,3.411,0,1,1,3.4-3.411A3.41,3.41,0,0,1,117,4691.4Zm0-5.917a2.506,2.506,0,1,0,2.5,2.506A2.506,2.506,0,0,0,117,4685.484Z" transform="translate(-113.594 -4684.579)" fill="#32293a"/>
            </g>
            <g id="Grupo_949864" data-name="Grupo 949864" transform="translate(26.351)">
              <path id="Trazado_634928" data-name="Trazado 634928" d="M131.349,4688.127a2.952,2.952,0,1,1,2.952,2.959A2.955,2.955,0,0,1,131.349,4688.127Z" transform="translate(-130.898 -4684.716)" fill="#fffdf7"/>
              <path id="Trazado_634929" data-name="Trazado 634929" d="M134.164,4691.4a3.411,3.411,0,1,1,3.4-3.411A3.411,3.411,0,0,1,134.164,4691.4Zm0-5.917a2.506,2.506,0,1,0,2.5,2.506A2.506,2.506,0,0,0,134.164,4685.484Z" transform="translate(-130.761 -4684.579)" fill="#32293a"/>
            </g>
            <g id="Grupo_949865" data-name="Grupo 949865" transform="translate(39.527)">
              <path id="Trazado_634930" data-name="Trazado 634930" d="M148.517,4688.127a2.952,2.952,0,1,1,2.952,2.959A2.955,2.955,0,0,1,148.517,4688.127Z" transform="translate(-148.066 -4684.716)" fill="#fffdf7"/>
              <path id="Trazado_634931" data-name="Trazado 634931" d="M151.333,4691.4a3.411,3.411,0,1,1,3.4-3.411A3.411,3.411,0,0,1,151.333,4691.4Zm0-5.917a2.506,2.506,0,1,0,2.5,2.506A2.506,2.506,0,0,0,151.333,4685.484Z" transform="translate(-147.929 -4684.579)" fill="#32293a"/>
            </g>
            <g id="Grupo_949866" data-name="Grupo 949866" transform="translate(52.702)">
              <path id="Trazado_634932" data-name="Trazado 634932" d="M165.685,4688.127a2.952,2.952,0,1,1,2.952,2.959A2.955,2.955,0,0,1,165.685,4688.127Z" transform="translate(-165.234 -4684.716)" fill="#fffdf7"/>
              <path id="Trazado_634933" data-name="Trazado 634933" d="M168.5,4691.4a3.411,3.411,0,1,1,3.4-3.411A3.41,3.41,0,0,1,168.5,4691.4Zm0-5.917a2.506,2.506,0,1,0,2.5,2.506A2.506,2.506,0,0,0,168.5,4685.484Z" transform="translate(-165.097 -4684.579)" fill="#32293a"/>
            </g>
            <g id="Grupo_949867" data-name="Grupo 949867" transform="translate(65.878)">
              <path id="Trazado_634934" data-name="Trazado 634934" d="M182.854,4688.127a2.952,2.952,0,1,1,2.952,2.959A2.954,2.954,0,0,1,182.854,4688.127Z" transform="translate(-182.403 -4684.716)" fill="#fffdf7"/>
              <path id="Trazado_634935" data-name="Trazado 634935" d="M185.668,4691.4a3.411,3.411,0,1,1,3.4-3.411A3.411,3.411,0,0,1,185.668,4691.4Zm0-5.917a2.506,2.506,0,1,0,2.5,2.506A2.506,2.506,0,0,0,185.668,4685.484Z" transform="translate(-182.266 -4684.579)" fill="#32293a"/>
            </g>
            <g id="Grupo_949868" data-name="Grupo 949868" transform="translate(79.053)">
              <path id="Trazado_634936" data-name="Trazado 634936" d="M200.021,4688.127a2.952,2.952,0,1,1,2.952,2.959A2.955,2.955,0,0,1,200.021,4688.127Z" transform="translate(-199.571 -4684.716)" fill="#fffdf7"/>
              <path id="Trazado_634937" data-name="Trazado 634937" d="M202.836,4691.4a3.411,3.411,0,1,1,3.4-3.411A3.411,3.411,0,0,1,202.836,4691.4Zm0-5.917a2.506,2.506,0,1,0,2.5,2.506A2.505,2.505,0,0,0,202.836,4685.484Z" transform="translate(-199.434 -4684.579)" fill="#32293a"/>
            </g>
            <g id="Grupo_949869" data-name="Grupo 949869" transform="translate(92.228)">
              <ellipse id="Elipse_5439" data-name="Elipse 5439" cx="2.952" cy="2.958" rx="2.952" ry="2.958" transform="translate(0.452 0.453)" fill="#fffdf7"/>
              <path id="Trazado_634938" data-name="Trazado 634938" d="M220.005,4691.4a3.411,3.411,0,1,1,3.4-3.411A3.411,3.411,0,0,1,220.005,4691.4Zm0-5.917a2.506,2.506,0,1,0,2.5,2.506A2.506,2.506,0,0,0,220.005,4685.484Z" transform="translate(-216.601 -4684.579)" fill="#32293a"/>
            </g>
          </g>
        </g>
      </g>
      <g id="Grupo_949873" data-name="Grupo 949873" transform="translate(212.112 4822.568)">
        <path id="Rectángulo_42207" data-name="Rectángulo 42207" d="M14.268,0H142.591A14.269,14.269,0,0,1,156.86,14.269V70.058a14.269,14.269,0,0,1-14.269,14.269H14.269A14.269,14.269,0,0,1,0,70.058V14.268A14.268,14.268,0,0,1,14.268,0Z" transform="translate(0.519 0.519)" fill="#e2e0eb"/>
        <path id="Trazado_634939" data-name="Trazado 634939" d="M400.991,4984.795H266.008a11.483,11.483,0,0,1-11.458-11.482v-62.4a11.483,11.483,0,0,1,11.458-11.481H400.991a11.482,11.482,0,0,1,11.457,11.481v62.4A11.483,11.483,0,0,1,400.991,4984.795Zm-134.983-84.327a10.443,10.443,0,0,0-10.419,10.442v62.4a10.443,10.443,0,0,0,10.419,10.442H400.991a10.443,10.443,0,0,0,10.419-10.442v-62.4a10.443,10.443,0,0,0-10.419-10.442Z" transform="translate(-254.55 -4899.428)" fill="#32293a"/>
      </g>
      <g id="Grupo_949880" data-name="Grupo 949880" transform="translate(72.073 4804.081)">
        <path id="Trazado_634940" data-name="Trazado 634940" d="M129.747,4892.926l15.71,14.6,12.476-13.479-15.71-14.6Z" transform="translate(-85.486 -4876.294)" fill="#f4c7a8"/>
        <path id="Trazado_634941" data-name="Trazado 634941" d="M139.447,4906.113l1.035-1.119a3.021,3.021,0,0,0-.16-4.264l-.734-.683a3.008,3.008,0,0,0-3.091-.619l-2.945,1.09a3.006,3.006,0,0,1-3.09-.618L124.109,4894a3.021,3.021,0,0,1-.939-2.591l1.034-8.18a3.022,3.022,0,0,0-.939-2.591h0a3.707,3.707,0,0,0-2.282-.8c-10.446-.963-21.323-2.419-31.554-4.19-1.654-.287-3.3-.6-4.774.2l-5.92,3.217,45.949,42.717Z" transform="translate(-73.622 -4875.338)" fill="#25c766"/>
        <g id="Grupo_949874" data-name="Grupo 949874" transform="translate(0 3.206)">
          <path id="Trazado_634942" data-name="Trazado 634942" d="M117.635,4928.3a2.443,2.443,0,0,1-1.669-.656l-43.108-40.078a2.467,2.467,0,0,1-.13-3.477l4.079-4.407a.52.52,0,0,1,.761.708l-4.079,4.405a1.425,1.425,0,0,0,.076,2.009l43.107,40.077a1.42,1.42,0,0,0,2.006-.076l4.077-4.406a.519.519,0,0,1,.761.707l-4.078,4.406A2.446,2.446,0,0,1,117.635,4928.3Z" transform="translate(-72.073 -4879.516)" fill="#32293a"/>
        </g>
        <g id="Grupo_949875" data-name="Grupo 949875" transform="translate(41.7 34.31)">
          <path id="Trazado_634943" data-name="Trazado 634943" d="M126.662,4924.1l-.252-1.008,11.392-2.86a6.051,6.051,0,0,1,5.61,1.443l1.261,1.171-.7.762-1.261-1.171a5.024,5.024,0,0,0-4.654-1.2Z" transform="translate(-126.41 -4920.045)" fill="#32293a"/>
        </g>
        <g id="Grupo_949876" data-name="Grupo 949876" transform="translate(21.316 1.358)">
          <path id="Trazado_634944" data-name="Trazado 634944" d="M117.493,4888.967a3.064,3.064,0,0,1-.522-.045l-14.58-2.489a3.059,3.059,0,0,1-2.495-3.544l1.007-5.782,1.021.179-1.007,5.782a2.019,2.019,0,0,0,1.648,2.341l14.58,2.489a2.017,2.017,0,0,0,2.341-1.76l.757-6.549,1.031.12-.757,6.547a3.058,3.058,0,0,1-3.025,2.71Z" transform="translate(-99.849 -4877.108)" fill="#32293a"/>
        </g>
        <g id="Grupo_949877" data-name="Grupo 949877" transform="translate(35.656 2.985)">
          <path id="Trazado_634945" data-name="Trazado 634945" d="M120.352,4879.906l-1.141,8.378Z" transform="translate(-118.692 -4879.386)" fill="#ffcc38"/>
          <path id="Trazado_634946" data-name="Trazado 634946" d="M119.055,4888.646a.43.43,0,0,1-.071-.005.52.52,0,0,1-.444-.585l1.141-8.377a.519.519,0,1,1,1.028.141l-1.141,8.377A.521.521,0,0,1,119.055,4888.646Z" transform="translate(-118.535 -4879.228)" fill="#32293a"/>
        </g>
        <g id="Grupo_949878" data-name="Grupo 949878" transform="translate(30.95 2.347)">
          <path id="Trazado_634947" data-name="Trazado 634947" d="M114.219,4879.075l-1.141,8.378Z" transform="translate(-112.559 -4878.555)" fill="#ffcc38"/>
          <path id="Trazado_634948" data-name="Trazado 634948" d="M112.922,4887.815a.446.446,0,0,1-.071-.005.519.519,0,0,1-.444-.584l1.14-8.378a.519.519,0,1,1,1.028.141l-1.14,8.378A.519.519,0,0,1,112.922,4887.815Z" transform="translate(-112.402 -4878.397)" fill="#32293a"/>
        </g>
        <g id="Grupo_949879" data-name="Grupo 949879" transform="translate(26.302 1.538)">
          <path id="Trazado_634949" data-name="Trazado 634949" d="M108.163,4878.02l-1.141,8.378Z" transform="translate(-106.503 -4877.5)" fill="#ffcc38"/>
          <path id="Trazado_634950" data-name="Trazado 634950" d="M106.866,4886.76a.43.43,0,0,1-.071-.005.519.519,0,0,1-.444-.584l1.141-8.377a.519.519,0,1,1,1.028.14l-1.141,8.377A.521.521,0,0,1,106.866,4886.76Z" transform="translate(-106.346 -4877.342)" fill="#32293a"/>
        </g>
      </g>
      <g id="Grupo_949887" data-name="Grupo 949887" transform="translate(119.591 4863.867)">
        <path id="Trazado_634951" data-name="Trazado 634951" d="M180.7,4971.627H202.13l3.769-18.385H184.471Z" transform="translate(-144.854 -4953.242)" fill="#f4c7a8"/>
        <path id="Trazado_634952" data-name="Trazado 634952" d="M197.534,4969.239v-1.525a3.015,3.015,0,0,0-3.011-3.018h-1a3.01,3.01,0,0,0-2.685,1.653l-1.42,2.807a3.01,3.01,0,0,1-2.686,1.653h-8.664a3.011,3.011,0,0,1-2.447-1.259l-4.793-6.7a3.008,3.008,0,0,0-2.447-1.259h0a3.706,3.706,0,0,0-2.213.971c-8.311,6.415-17.274,12.761-25.977,18.435-1.407.918-2.827,1.807-3.365,3.4l-2.156,6.394h62.675Z" transform="translate(-134.148 -4955.183)" fill="#25c766"/>
        <g id="Grupo_949881" data-name="Grupo 949881" transform="translate(0 35.085)">
          <path id="Trazado_634953" data-name="Trazado 634953" d="M195.248,5007.949h-58.8a2.462,2.462,0,0,1-2.456-2.46v-6.009a.519.519,0,1,1,1.038,0v6.009a1.42,1.42,0,0,0,1.417,1.42h58.8a1.421,1.421,0,0,0,1.418-1.42v-6.009a.519.519,0,1,1,1.038,0v6.009A2.462,2.462,0,0,1,195.248,5007.949Z" transform="translate(-133.991 -4998.959)" fill="#32293a"/>
        </g>
        <g id="Grupo_949882" data-name="Grupo 949882" transform="translate(50.163 22.694)">
          <path id="Trazado_634954" data-name="Trazado 634954" d="M200.225,4996.008l-.87-.568,6.411-9.861a6.054,6.054,0,0,1,5.093-2.766h1.719v1.04h-1.719a5.021,5.021,0,0,0-4.223,2.294Z" transform="translate(-199.355 -4982.814)" fill="#32293a"/>
        </g>
        <g id="Grupo_949883" data-name="Grupo 949883" transform="translate(11.565 10.128)">
          <path id="Trazado_634955" data-name="Trazado 634955" d="M154.815,4984.741a3.132,3.132,0,0,1-.64-.067,3.037,3.037,0,0,1-1.93-1.33l-3.184-4.926.869-.565,3.185,4.926a2.016,2.016,0,0,0,2.8.592l12.377-8.112a2.026,2.026,0,0,0,.522-2.887l-3.889-5.317.837-.615,3.889,5.318a3.065,3.065,0,0,1-.794,4.37l-12.377,8.114A3.032,3.032,0,0,1,154.815,4984.741Z" transform="translate(-149.061 -4966.439)" fill="#32293a"/>
        </g>
        <g id="Grupo_949884" data-name="Grupo 949884" transform="translate(23.46 12.974)">
          <path id="Trazado_634956" data-name="Trazado 634956" d="M165.237,4970.826l4.849,6.919Z" transform="translate(-164.718 -4970.306)" fill="#ffcc38"/>
          <path id="Trazado_634957" data-name="Trazado 634957" d="M169.929,4978.108a.519.519,0,0,1-.425-.222l-4.849-6.919a.52.52,0,1,1,.85-.6l4.849,6.921a.52.52,0,0,1-.424.819Z" transform="translate(-164.56 -4970.148)" fill="#32293a"/>
        </g>
        <g id="Grupo_949885" data-name="Grupo 949885" transform="translate(19.577 15.715)">
          <path id="Trazado_634958" data-name="Trazado 634958" d="M160.177,4974.4l4.849,6.92Z" transform="translate(-159.658 -4973.877)" fill="#ffcc38"/>
          <path id="Trazado_634959" data-name="Trazado 634959" d="M164.868,4981.68a.516.516,0,0,1-.424-.222l-4.849-6.921a.519.519,0,1,1,.849-.6l4.849,6.92a.521.521,0,0,1-.425.819Z" transform="translate(-159.501 -4973.719)" fill="#32293a"/>
        </g>
        <g id="Grupo_949886" data-name="Grupo 949886" transform="translate(15.621 18.289)">
          <path id="Trazado_634960" data-name="Trazado 634960" d="M155.021,4977.75l4.849,6.92Z" transform="translate(-154.502 -4977.231)" fill="#ffcc38"/>
          <path id="Trazado_634961" data-name="Trazado 634961" d="M159.713,4985.032a.516.516,0,0,1-.424-.221l-4.849-6.92a.519.519,0,1,1,.849-.6l4.849,6.92a.519.519,0,0,1-.424.818Z" transform="translate(-154.345 -4977.073)" fill="#32293a"/>
        </g>
      </g>
      <path id="Trazado_634962" data-name="Trazado 634962" d="M251.665,4812.45l-4.606,14.048-35.934-18.364a23.924,23.924,0,0,0-29.011,4.476l-45.041,47.6a1.686,1.686,0,0,0,.107,2.42l23.156,20.486a1.676,1.676,0,0,0,2.408-.193l15.567-18.947-11.677,57.512a1.683,1.683,0,0,0,1.62,2.02l31.633.485a1.681,1.681,0,0,0,1.669-1.332l9.6-45.071,61.378.011a19.828,19.828,0,0,0,18.427-12.535l10.193-33.347Z" transform="translate(-15.01 -54.926)" fill="#32293a"/>
      <path id="Trazado_634963" data-name="Trazado 634963" d="M362.8,4818.343l26.168,49.771-11.457,10.524h16.709s2.417,16.212,3.229,21.186,6.652,5.25,6.656.753c0,2.453,2.042,4.5,3.833,3.95,1.4-.432,2.651-2.461,2.649-7.144-.15,3.314,6.5,2.651,5.83-3.18.44,2.53,5.084,2.518,5.189-2.487.06-2.855-.05-7.174-.14-9.994a9.107,9.107,0,0,0-1.744-5.075l-7.846-10.765L387.627,4807.8Z" transform="translate(-67.612 -55.55)" fill="#f4c7a8"/>
      <g id="Grupo_949888" data-name="Grupo 949888" transform="translate(303.675 4771.934)">
        <path id="Trazado_634964" data-name="Trazado 634964" d="M410.174,4910.526a4.112,4.112,0,0,1-2.785-1.061,3.716,3.716,0,0,1-.682-.833,3.147,3.147,0,0,1-2.523,1.6c-1.952.156-4.176-1.291-4.678-4.363-.728-4.46-2.769-18.112-3.163-20.75H380.081a.521.521,0,0,1-.351-.9l11.164-10.254-16.973-32.281a.518.518,0,1,1,.916-.485L392,4873.836a.519.519,0,0,1-.107.626l-10.475,9.621h15.375a.521.521,0,0,1,.513.444c.025.161,2.425,16.265,3.227,21.179.4,2.45,2.069,3.626,3.572,3.494.992-.08,2.053-.82,2.054-2.657a.519.519,0,0,1,.519-.519h0a.519.519,0,0,1,.519.519,2.837,2.837,0,0,0,.9,2.156,3.147,3.147,0,0,0,2.371.776,1.932,1.932,0,0,0,1.388-.707c.766-.922,1.04-2.78.792-5.37a.521.521,0,0,1,.464-.567.539.539,0,0,1,.568.461,1.939,1.939,0,0,0,1.058,1.682,2.306,2.306,0,0,0,2.255-.392,4.566,4.566,0,0,0,1.485-4.355.519.519,0,0,1,1.026-.149,1.538,1.538,0,0,0,1.733,1.226c1.086-.083,2.374-1.084,2.427-3.634.062-2.958-.061-7.514-.141-9.965a8.552,8.552,0,0,0-1.644-4.785l-7.846-10.765a.479.479,0,0,1-.059-.106l-15.811-37.88a.518.518,0,1,1,.955-.4l15.788,37.823,7.81,10.716a9.586,9.586,0,0,1,1.845,5.363c.079,2.462.2,7.039.141,10.022-.065,3.039-1.747,4.523-3.387,4.647a2.737,2.737,0,0,1-1.8-.464,5,5,0,0,1-1.908,3.544,3.338,3.338,0,0,1-3.287.506,2.685,2.685,0,0,1-.556-.33,6.288,6.288,0,0,1-1.112,3.836,2.963,2.963,0,0,1-2.094,1.077C410.424,4910.521,410.3,4910.526,410.174,4910.526Z" transform="translate(-373.86 -4833.449)" fill="#32293a"/>
      </g>
      <path id="Trazado_634965" data-name="Trazado 634965" d="M247.2,4723.168l-48.3-17.857s-10.489-7.208-12.135-7.732-4.524.2-4.592,1.769c-3.051-1.969-6.128-.534-6.4,1.225-3-1.439-5.949.777-5.925,2.78,0,0-11.589-6.82-13.663-8.1s-6.66,1.54-4.181,4.1c3.574,3.69,19.074,15.479,19.074,15.479l-4.46,4.88s-2.194-2.842-4.786-2.679a6.643,6.643,0,0,0-2.809.779,1.083,1.083,0,0,0-.341,1.624c1.562,1.954,4.792,5.333,6.863,7.459a4.1,4.1,0,0,0,4.407.968l10.615-4.06,57.858,24.689Z" transform="translate(-18.422 -29.3)" fill="#f4c7a8"/>
      <g id="Grupo_949889" data-name="Grupo 949889" transform="translate(132.344 4665.103)">
        <path id="Trazado_634966" data-name="Trazado 634966" d="M190.981,4728.672a.5.5,0,0,1-.2-.042L180.4,4724.2l-10.419,3.986a4.617,4.617,0,0,1-4.964-1.092c-2.3-2.361-5.364-5.58-6.9-7.5a1.583,1.583,0,0,1-.316-1.3,1.623,1.623,0,0,1,.813-1.106,7.152,7.152,0,0,1,3.026-.842c2.19-.137,4.042,1.564,4.829,2.417l3.683-4.03c-2.627-2.006-15.42-11.822-18.679-15.187a2.565,2.565,0,0,1-.219-3.618c1.112-1.388,3.5-2.236,5.044-1.285,1.761,1.088,10.514,6.248,13,7.71a4.05,4.05,0,0,1,1.734-2.158,4.884,4.884,0,0,1,4.258-.482,3.35,3.35,0,0,1,1.708-1.585,5.427,5.427,0,0,1,4.7.275,2.422,2.422,0,0,1,.783-.858,5.431,5.431,0,0,1,4.282-.625c1.647.525,10.912,6.867,12.218,7.764l19.667,7.27a.52.52,0,0,1-.358.976l-19.729-7.293a.566.566,0,0,1-.114-.059c-4.191-2.88-10.845-7.3-12-7.667a4.4,4.4,0,0,0-3.374.487,1.084,1.084,0,0,0-.543.81.517.517,0,0,1-.8.415,4.563,4.563,0,0,0-4.311-.545,2.078,2.078,0,0,0-1.3,1.413.519.519,0,0,1-.737.389,3.84,3.84,0,0,0-3.8.194,2.705,2.705,0,0,0-1.378,2.111.518.518,0,0,1-.781.454c-.117-.068-11.618-6.838-13.674-8.109-.948-.583-2.807-.054-3.691,1.052a1.526,1.526,0,0,0,.154,2.241c3.506,3.621,18.86,15.311,19.015,15.429a.518.518,0,0,1,.2.367.526.526,0,0,1-.134.4l-4.46,4.88a.51.51,0,0,1-.4.168.518.518,0,0,1-.39-.2c-.021-.026-2.05-2.638-4.344-2.479a6.121,6.121,0,0,0-2.592.716.587.587,0,0,0-.3.4.537.537,0,0,0,.109.446c1.587,1.983,4.96,5.5,6.829,7.42a3.587,3.587,0,0,0,3.851.846l10.614-4.06a.518.518,0,0,1,.388.008l10.575,4.512a.52.52,0,0,1-.2,1Z" transform="translate(-150.608 -4694.243)" fill="#32293a"/>
      </g>
      <path id="Trazado_634967" data-name="Trazado 634967" d="M337.256,4795.593l-6.284,19.06-49.488-19.272,8.094-28.582-24.749-9.754,8.779-25.32,65.028,20.329a20.682,20.682,0,0,1,12.3,10.444l13.907,27.611-24.83,10.541Z" transform="translate(-44.828 -37.857)" fill="#25c766"/>
      <path id="Trazado_634968" data-name="Trazado 634968" d="M343.832,4743.477c-1.9,4.855-10.409,11.919-17.893,8.748s-8.715-9.355-6.371-16.513l3.712-.968a7.327,7.327,0,0,0,5.2-5.1l.691-2.449s-4.659-.205-4.41-6.931,3.125-16.07,3.125-16.07a21.263,21.263,0,0,0,11.106,3.653c-1.52,3.742,1.094,5.269,2.38,5.77-.761,2.884-.8,5.173,2.6,6.413,4.33-1.222,5.673,1.567,5.291,3.867-.305,1.844-2.247,4.323-5.938,2.433l-2.087,7.888a7.352,7.352,0,0,0,.542,5.185Z" transform="translate(-57.309 -31.454)" fill="#f4c7a8"/>
      <g id="Grupo_949890" data-name="Grupo 949890" transform="translate(239.456 4717.749)">
        <path id="Trazado_634969" data-name="Trazado 634969" d="M290.7,4791.418a.512.512,0,0,1-.137-.02.52.52,0,0,1-.364-.638l7.518-27.535a.519.519,0,1,1,1,.275l-7.518,27.535A.519.519,0,0,1,290.7,4791.418Z" transform="translate(-290.18 -4762.843)" fill="#32293a"/>
      </g>
      <g id="Grupo_949891" data-name="Grupo 949891" transform="translate(282.696 4729.496)">
        <path id="Trazado_634970" data-name="Trazado 634970" d="M359.012,4811.967a.52.52,0,0,1-.451-.264l-11.97-21.082a.519.519,0,0,1,.9-.514l11.741,20.68,23.884-10.14-11.459-21.734a.519.519,0,1,1,.916-.486l11.724,22.235a.519.519,0,0,1-.256.722l-24.83,10.542A.524.524,0,0,1,359.012,4811.967Z" transform="translate(-346.524 -4778.15)" fill="#32293a"/>
      </g>
      <g id="Grupo_949892" data-name="Grupo 949892" transform="translate(219.348 4693.229)">
        <path id="Trazado_634971" data-name="Trazado 634971" d="M289.38,4767.125a.529.529,0,0,1-.19-.036l-25.212-9.937,9.1-26.259,16.253,4.848a.52.52,0,0,1-.3,1l-15.3-4.566-8.453,24.379,24.286,9.57a.52.52,0,0,1-.19,1Z" transform="translate(-263.978 -4730.893)" fill="#32293a"/>
      </g>
      <g id="Grupo_949893" data-name="Grupo 949893" transform="translate(162.896 4669.331)">
        <path id="Trazado_634972" data-name="Trazado 634972" d="M198.377,4705.7a.521.521,0,0,1-.285-.085l-7.439-4.91a.52.52,0,0,1,.572-.868l7.439,4.91a.52.52,0,0,1-.285.954Z" transform="translate(-190.419 -4699.752)" fill="#32293a"/>
      </g>
      <g id="Grupo_949894" data-name="Grupo 949894" transform="translate(156.829 4670.754)">
        <path id="Trazado_634973" data-name="Trazado 634973" d="M191.28,4708.295a.511.511,0,0,1-.292-.091l-8.248-5.648a.519.519,0,0,1,.586-.857l8.248,5.649a.52.52,0,0,1-.293.948Z" transform="translate(-182.514 -4701.607)" fill="#32293a"/>
      </g>
      <g id="Grupo_949895" data-name="Grupo 949895" transform="translate(149.749 4672.853)">
        <path id="Trazado_634974" data-name="Trazado 634974" d="M182.05,4711.236a.52.52,0,0,1-.3-.1l-8.243-5.855a.52.52,0,0,1,.6-.849l8.243,5.856a.52.52,0,0,1-.3.943Z" transform="translate(-173.288 -4704.342)" fill="#32293a"/>
      </g>
      <g id="Grupo_949896" data-name="Grupo 949896" transform="translate(162.782 4788.883)">
        <path id="Trazado_634975" data-name="Trazado 634975" d="M287.857,4889.286h-3.093a18.113,18.113,0,0,1-8.582-2.17l-16.5-7.991-36.547-19.744a23.444,23.444,0,0,0-11.031-2.807h-.063a20.4,20.4,0,0,0-19.9,15.723l-.844,3.528a.519.519,0,1,1-1.01-.242l.844-3.527a21.435,21.435,0,0,1,20.907-16.521h.065a24.477,24.477,0,0,1,11.521,2.932L260.15,4878.2l16.5,7.991a17.1,17.1,0,0,0,8.11,2.056h3.093a15.209,15.209,0,0,0,14.387-10.3l2.948-8.631a.519.519,0,1,1,.982.337l-2.948,8.63A16.245,16.245,0,0,1,287.857,4889.286Z" transform="translate(-190.271 -4855.534)" fill="#faf5ff"/>
      </g>
      <g id="Grupo_949897" data-name="Grupo 949897" transform="translate(263.053 4777.011)">
        <path id="Trazado_634976" data-name="Trazado 634976" d="M327.79,4855.869a.518.518,0,0,1-.219-.049c-4.971-2.33-8.492-9.25-5.6-15.457a.519.519,0,1,1,.94.44c-2.88,6.175,1.184,12.242,5.1,14.074a.52.52,0,0,1-.22.991Z" transform="translate(-320.928 -4840.064)" fill="#faf5ff"/>
      </g>
      <g id="Grupo_949898" data-name="Grupo 949898" transform="translate(347.282 4825.405)">
        <path id="Trazado_634977" data-name="Trazado 634977" d="M432.2,4916.892a.519.519,0,0,1-.516-.479l-1-12.728a.519.519,0,0,1,.476-.56.5.5,0,0,1,.557.478l1,12.727a.518.518,0,0,1-.476.56Z" transform="translate(-430.682 -4903.124)" fill="#32293a"/>
      </g>
      <g id="Grupo_949899" data-name="Grupo 949899" transform="translate(341.104 4825.597)">
        <path id="Trazado_634978" data-name="Trazado 634978" d="M424.5,4920.13a.518.518,0,0,1-.516-.476l-1.349-15.715a.518.518,0,1,1,1.033-.089l1.349,15.717a.518.518,0,0,1-.472.561Z" transform="translate(-422.631 -4903.375)" fill="#32293a"/>
      </g>
      <g id="Grupo_949900" data-name="Grupo 949900" transform="translate(334.473 4825.405)">
        <path id="Trazado_634979" data-name="Trazado 634979" d="M416.008,4923.267a.518.518,0,0,1-.516-.479l-1.5-19.1a.52.52,0,0,1,.476-.56.509.509,0,0,1,.557.478l1.5,19.1a.52.52,0,0,1-.476.56Z" transform="translate(-413.991 -4903.124)" fill="#32293a"/>
      </g>
      <g id="Grupo_949901" data-name="Grupo 949901" transform="translate(267.191 4690.891)">
        <path id="Trazado_634980" data-name="Trazado 634980" d="M334.125,4733.818c-4.369,0-6.988-1.792-7.792-5.336a.52.52,0,0,1,.392-.621.513.513,0,0,1,.62.391c.75,3.31,3.3,4.778,7.832,4.492a.52.52,0,0,1,.065,1.038C334.859,4733.806,334.485,4733.818,334.125,4733.818Z" transform="translate(-326.32 -4727.846)" fill="#32293a"/>
      </g>
      <g id="Grupo_949902" data-name="Grupo 949902" transform="translate(260.519 4695.577)">
        <path id="Trazado_634981" data-name="Trazado 634981" d="M321.762,4757.348a.518.518,0,0,1-.341-.128c-6.63-5.8-2.569-14.719-2.526-14.807a.516.516,0,0,1,.347-.285l3.692-.9a6.153,6.153,0,0,0,4.349-3.93l1.068-3a.519.519,0,1,1,.977.349l-1.068,3a7.19,7.19,0,0,1-5.081,4.59l-3.442.84c-.577,1.377-3.185,8.505,2.366,13.359a.52.52,0,0,1-.341.912Z" transform="translate(-317.626 -4733.952)" fill="#32293a"/>
      </g>
      <g id="Grupo_949903" data-name="Grupo 949903" transform="translate(268.167 4677.194)">
        <path id="Trazado_634982" data-name="Trazado 634982" d="M329.114,4718.553a.518.518,0,0,1-.425-.222l-.879-1.26a1.214,1.214,0,0,1-.15-1.092,1.174,1.174,0,0,1,.784-.75c.656-.2,1.8-.635,2.059-1.395a1.841,1.841,0,0,0-.137-1.45,2.837,2.837,0,0,0-1.634-1.367.52.52,0,0,1,.3-1,3.878,3.878,0,0,1,2.26,1.889,2.839,2.839,0,0,1,.195,2.264,3.917,3.917,0,0,1-2.745,2.052.146.146,0,0,0-.1.1.173.173,0,0,0,.021.153l.88,1.261a.522.522,0,0,1-.128.724A.509.509,0,0,1,329.114,4718.553Z" transform="translate(-327.592 -4709.999)" fill="#32293a"/>
      </g>
      <g id="Grupo_949904" data-name="Grupo 949904" transform="translate(275.562 4680.886)">
        <path id="Trazado_634983" data-name="Trazado 634983" d="M341.318,4718.312a.521.521,0,0,1-.5-.391,2.636,2.636,0,0,0-2.958-2.022.52.52,0,0,1-.219-1.016,3.661,3.661,0,0,1,4.183,2.78.521.521,0,0,1-.373.633A.546.546,0,0,1,341.318,4718.312Z" transform="translate(-337.228 -4714.81)" fill="#32293a"/>
      </g>
      <path id="Trazado_634984" data-name="Trazado 634984" d="M330.078,4715.61a1.046,1.046,0,1,1-.583-1.529A1.169,1.169,0,0,1,330.078,4715.61Z" transform="translate(-59.534 -33.745)" fill="#32293a"/>
      <path id="Trazado_634985" data-name="Trazado 634985" d="M338.964,4719.6a1.045,1.045,0,1,1-.582-1.529A1.168,1.168,0,0,1,338.964,4719.6Z" transform="translate(-61.601 -34.673)" fill="#32293a"/>
      <g id="Grupo_949905" data-name="Grupo 949905" transform="translate(311.13 4625.667)">
        <path id="Trazado_634986" data-name="Trazado 634986" d="M394.232,4662.386a2.988,2.988,0,0,1-2.228-1l-6.992-7.819a2.995,2.995,0,1,1,4.456-4l4.592,5.136,7.7-10a2.994,2.994,0,1,1,4.737,3.663l-9.9,12.854a2.993,2.993,0,0,1-2.259,1.164Z" transform="translate(-383.732 -4643.015)" fill="#25c766"/>
        <path id="Trazado_634987" data-name="Trazado 634987" d="M394.076,4662.749a3.51,3.51,0,0,1-2.614-1.171l-6.993-7.818a3.527,3.527,0,0,1,.272-4.967,3.433,3.433,0,0,1,2.536-.894,3.482,3.482,0,0,1,2.421,1.165l4.176,4.67,7.322-9.506a3.513,3.513,0,0,1,5.557,4.3l-9.9,12.852a3.5,3.5,0,0,1-2.65,1.367Zm-6.994-13.816a2.449,2.449,0,0,0-1.648.633,2.484,2.484,0,0,0-.193,3.5l6.993,7.82a2.474,2.474,0,0,0,1.842.824v.521l.085-.522a2.464,2.464,0,0,0,1.872-.962l9.9-12.853a2.475,2.475,0,1,0-3.915-3.029l-7.7,10a.519.519,0,0,1-.392.2.535.535,0,0,1-.4-.172l-4.592-5.136a2.452,2.452,0,0,0-1.706-.82C387.174,4648.934,387.127,4648.932,387.081,4648.932Z" transform="translate(-383.575 -4642.857)" fill="#32293a"/>
      </g>
      <g id="Grupo_949906" data-name="Grupo 949906" transform="translate(268.638 4687.987)">
        <path id="Trazado_634988" data-name="Trazado 634988" d="M330.69,4726.661a2.5,2.5,0,0,1-1.546-.533,2.248,2.248,0,0,1-.938-1.555.521.521,0,0,1,.519-.511h.01a.518.518,0,0,1,.51.519,1.54,1.54,0,0,0,.62.788,1.5,1.5,0,0,0,1.3.185.519.519,0,0,1,.282,1A2.763,2.763,0,0,1,330.69,4726.661Z" transform="translate(-328.206 -4724.062)" fill="#32293a"/>
      </g>
      <g id="Grupo_949907" data-name="Grupo 949907" transform="translate(339.291 4708.31)">
        <path id="Trazado_634989" data-name="Trazado 634989" d="M458.1,4834.311a.514.514,0,0,1-.366-.152c-7.26-7.275-7.98-13.185-2.407-19.761,11.241-13.269,13.652-26.323,7.368-39.909-6.869-14.852-27.564-19.588-38.683-22.134-1.265-.289-2.4-.548-3.351-.786a.52.52,0,0,1-.376-.631.515.515,0,0,1,.629-.378c.95.239,2.072.495,3.33.784,11.292,2.584,32.311,7.395,39.394,22.708,6.38,13.8,3.851,27.6-7.52,41.02-5.206,6.146-4.526,11.462,2.349,18.353a.52.52,0,0,1-.367.888Z" transform="translate(-420.269 -4750.543)" fill="#32293a"/>
      </g>
      <g id="Grupo_949908" data-name="Grupo 949908" transform="translate(200.913 4595.643)">
        <path id="Trazado_634990" data-name="Trazado 634990" d="M279.019,4646.154a.506.506,0,0,1-.2-.042c-5.7-2.421-8.014-9.6-10.695-17.907-.561-1.734-1.14-3.528-1.772-5.356-4.778-13.8-12.732-19.3-25.816-17.845a.52.52,0,0,1-.114-1.033c13.637-1.518,21.946,4.2,26.91,18.538.635,1.833,1.217,3.636,1.779,5.377,2.6,8.066,4.853,15.033,10.114,17.27a.521.521,0,0,1-.2,1Z" transform="translate(-239.957 -4603.734)" fill="#32293a"/>
      </g>
      <g id="Grupo_949909" data-name="Grupo 949909" transform="translate(103.648 4748.232)">
        <path id="Trazado_634991" data-name="Trazado 634991" d="M116.953,4810.051a3.743,3.743,0,1,1,3.735-3.744A3.743,3.743,0,0,1,116.953,4810.051Zm0-6.447a2.7,2.7,0,1,0,2.7,2.7A2.7,2.7,0,0,0,116.953,4803.6Z" transform="translate(-113.217 -4802.565)" fill="#32293a"/>
      </g>
      <g id="Grupo_949910" data-name="Grupo 949910" transform="translate(362.042 4681.579)">
        <path id="Trazado_634992" data-name="Trazado 634992" d="M452.947,4721.787a3.037,3.037,0,1,1,3.031-3.038A3.038,3.038,0,0,1,452.947,4721.787Zm0-5.035a2,2,0,1,0,1.992,2A2,2,0,0,0,452.947,4716.751Z" transform="translate(-449.915 -4715.712)" fill="#32293a"/>
      </g>
      <g id="Grupo_949911" data-name="Grupo 949911" transform="translate(181.029 4583.55)">
        <path id="Trazado_634993" data-name="Trazado 634993" d="M217.079,4594.051a3.038,3.038,0,1,1,3.031-3.038A3.038,3.038,0,0,1,217.079,4594.051Zm0-5.036a2,2,0,1,0,1.992,2A2,2,0,0,0,217.079,4589.016Z" transform="translate(-214.047 -4587.976)" fill="#32293a"/>
      </g>
      <g id="Grupo_949912" data-name="Grupo 949912" transform="translate(194.557 4568.943)">
        <path id="Trazado_634994" data-name="Trazado 634994" d="M237.321,4580.258a5.658,5.658,0,1,1,5.645-5.658A5.659,5.659,0,0,1,237.321,4580.258Zm0-10.276a4.618,4.618,0,1,0,4.608,4.618A4.618,4.618,0,0,0,237.321,4569.982Z" transform="translate(-231.675 -4568.943)" fill="#32293a"/>
      </g>
      <g id="Grupo_949913" data-name="Grupo 949913" transform="translate(87.924 4730.447)">
        <path id="Trazado_634995" data-name="Trazado 634995" d="M98.97,4791.9a6.255,6.255,0,1,1,6.24-6.254A6.255,6.255,0,0,1,98.97,4791.9Zm0-11.47a5.215,5.215,0,1,0,5.2,5.215A5.215,5.215,0,0,0,98.97,4780.429Z" transform="translate(-92.728 -4779.389)" fill="#32293a"/>
      </g>
      <g id="Grupo_949914" data-name="Grupo 949914" transform="translate(222.68 4766.529)">
        <path id="Trazado_634996" data-name="Trazado 634996" d="M292.321,4839.04a.519.519,0,0,1-.229-.054l-23.482-11.594a.52.52,0,0,1,.46-.932l23.482,11.593a.52.52,0,0,1-.23.987Z" transform="translate(-268.32 -4826.406)" fill="#faf5ff"/>
      </g>
    </g>
  </g>
</svg>
