<svg xmlns="http://www.w3.org/2000/svg" width="92" height="92" viewBox="0 0 92 92">
  <g id="Grupo_84088" data-name="Grupo 84088" transform="translate(-421 -2618)">
    <rect id="Rectángulo_34429" data-name="Rectángulo 34429" width="92" height="92" transform="translate(421 2618)" fill="none"/>
    <g id="_021---Cyber-Security" data-name="021---Cyber-Security" transform="translate(428 2625)">
      <path id="Path" d="M55.6,34.8a20.8,20.8,0,0,1-41.6.235V34.8c0-.235,0-.485.014-.722A20.8,20.8,0,0,1,32.207,14.166,20.118,20.118,0,0,1,34.8,14h.222A20.8,20.8,0,0,1,55.6,34.8Z" transform="translate(4.2 4.2)" fill="#2ff980"/>
      <rect id="Rectangle" width="17.31" height="17.31" rx="2" transform="translate(30.397 33.643)" fill="#e5e8eb"/>
      <ellipse id="Oval" cx="2.164" cy="2.705" rx="2.164" ry="2.705" transform="translate(36.889 39.052)" fill="#abb1bb"/>
      <path id="Path-2" data-name="Path" d="M14.8,4.9a3.748,3.748,0,0,1-.221,1.274,3.9,3.9,0,1,1,0-2.548A3.748,3.748,0,0,1,14.8,4.9Z" transform="translate(2.098 0.3)" fill="#2ff980"/>
      <path id="Path-3" data-name="Path" d="M54.8,4.9a3.9,3.9,0,0,1-7.579,1.274,3.783,3.783,0,0,1,0-2.548A3.9,3.9,0,0,1,54.8,4.9Z" transform="translate(14.1 0.305)" fill="#2ff980"/>
      <path id="Path-4" data-name="Path" d="M14.8,56.9a3.748,3.748,0,0,1-.221,1.274,3.9,3.9,0,1,1,0-2.548A3.748,3.748,0,0,1,14.8,56.9Z" transform="translate(2.098 15.9)" fill="#2ff980"/>
      <path id="Path-5" data-name="Path" d="M54.8,56.9a3.9,3.9,0,0,1-7.579,1.274,3.783,3.783,0,0,1,0-2.548A3.9,3.9,0,0,1,54.8,56.9Z" transform="translate(14.1 15.905)" fill="#2ff980"/>
      <path id="Path-6" data-name="Path" d="M8.8,40.9a3.748,3.748,0,0,1-.221,1.274,3.9,3.9,0,1,1,0-2.548A3.748,3.748,0,0,1,8.8,40.9Z" transform="translate(0.298 11.1)" fill="#2ff980"/>
      <path id="Path-7" data-name="Path" d="M8.8,20.9a3.748,3.748,0,0,1-.221,1.274,3.9,3.9,0,1,1,0-2.548A3.748,3.748,0,0,1,8.8,20.9Z" transform="translate(0.298 5.1)" fill="#2ff980"/>
      <path id="Path-8" data-name="Path" d="M60.8,40.9a3.9,3.9,0,0,1-7.579,1.274,3.783,3.783,0,0,1,0-2.548A3.9,3.9,0,0,1,60.8,40.9Z" transform="translate(15.9 11.105)" fill="#2ff980"/>
      <path id="Path-9" data-name="Path" d="M60.8,20.9a3.9,3.9,0,0,1-7.579,1.274,3.783,3.783,0,0,1,0-2.548A3.9,3.9,0,0,1,60.8,20.9Z" transform="translate(15.9 5.105)" fill="#2ff980"/>
      <g id="Grupo_84087" data-name="Grupo 84087">
        <path id="Shape" d="M38.9,44.5h-13A3.9,3.9,0,0,1,22,40.6V28.9A3.9,3.9,0,0,1,25.9,25h13a3.9,3.9,0,0,1,3.9,3.9V40.6A3.9,3.9,0,0,1,38.9,44.5Zm-13-16.9a1.3,1.3,0,0,0-1.3,1.3V40.6a1.3,1.3,0,0,0,1.3,1.3h13a1.3,1.3,0,0,0,1.3-1.3V28.9a1.3,1.3,0,0,0-1.3-1.3Z" transform="translate(6.6 7.5)"/>
        <path id="Shape-2" data-name="Shape" d="M30.9,36.8a3.9,3.9,0,1,1,3.9-3.9A3.9,3.9,0,0,1,30.9,36.8Zm0-5.2a1.3,1.3,0,1,0,1.3,1.3A1.3,1.3,0,0,0,30.9,31.6Z" transform="translate(8.1 8.7)"/>
        <path id="Path-10" data-name="Path" d="M35.1,55.575A22.1,22.1,0,0,1,18.525,18.857a1.3,1.3,0,1,1,1.95,1.721A19.5,19.5,0,0,0,46.469,49.319a1.3,1.3,0,1,1,1.518,2.111A21.95,21.95,0,0,1,35.1,55.575Z" transform="translate(3.9 5.525)"/>
        <path id="Path-11" data-name="Path" d="M49.236,49.4a1.3,1.3,0,0,1-1.013-2.114A19.286,19.286,0,0,0,52.5,35.1a19.5,19.5,0,0,0-30.468-16.12,1.3,1.3,0,1,1-1.464-2.149A22.1,22.1,0,0,1,50.252,48.913a1.3,1.3,0,0,1-1.017.486Z" transform="translate(6 3.901)"/>
        <path id="Shape-3" data-name="Shape" d="M11.2,10.4a5.2,5.2,0,1,1,3.677-1.523A5.2,5.2,0,0,1,11.2,10.4Zm0-7.8a2.6,2.6,0,1,0,1.838.762A2.6,2.6,0,0,0,11.2,2.6Z" transform="translate(1.8)"/>
        <path id="Shape-4" data-name="Shape" d="M51.2,10.4a5.2,5.2,0,1,1,3.677-1.523A5.2,5.2,0,0,1,51.2,10.4Zm0-7.8a2.6,2.6,0,1,0,1.838.762A2.6,2.6,0,0,0,51.2,2.6Z" transform="translate(13.8)"/>
        <path id="Shape-5" data-name="Shape" d="M11.2,62.4a5.2,5.2,0,1,1,5.2-5.2A5.2,5.2,0,0,1,11.2,62.4Zm0-7.8a2.6,2.6,0,1,0,2.6,2.6A2.6,2.6,0,0,0,11.2,54.6Z" transform="translate(1.8 15.6)"/>
        <path id="Shape-6" data-name="Shape" d="M51.2,62.4a5.2,5.2,0,1,1,5.2-5.2A5.2,5.2,0,0,1,51.2,62.4Zm0-7.8a2.6,2.6,0,1,0,2.6,2.6A2.6,2.6,0,0,0,51.2,54.6Z" transform="translate(13.8 15.6)"/>
        <path id="Shape-7" data-name="Shape" d="M5.2,46.4a5.2,5.2,0,1,1,5.2-5.2A5.2,5.2,0,0,1,5.2,46.4Zm0-7.8a2.6,2.6,0,1,0,2.6,2.6A2.6,2.6,0,0,0,5.2,38.6Z" transform="translate(0 10.8)"/>
        <path id="Shape-8" data-name="Shape" d="M5.2,26.4a5.2,5.2,0,1,1,5.2-5.2A5.2,5.2,0,0,1,5.2,26.4Zm0-7.8a2.6,2.6,0,1,0,2.6,2.6A2.6,2.6,0,0,0,5.2,18.6Z" transform="translate(0 4.8)"/>
        <path id="Shape-9" data-name="Shape" d="M57.2,46.4a5.2,5.2,0,1,1,5.2-5.2A5.2,5.2,0,0,1,57.2,46.4Zm0-7.8a2.6,2.6,0,1,0,2.6,2.6A2.6,2.6,0,0,0,57.2,38.6Z" transform="translate(15.6 10.8)"/>
        <path id="Shape-10" data-name="Shape" d="M57.2,26.4a5.2,5.2,0,1,1,5.2-5.2A5.2,5.2,0,0,1,57.2,26.4Zm0-7.8a2.6,2.6,0,1,0,2.6,2.6A2.6,2.6,0,0,0,57.2,18.6Z" transform="translate(15.6 4.8)"/>
        <path id="Path-12" data-name="Path" d="M36.7,29.7a1.3,1.3,0,0,1-1.3-1.3V24.5a3.9,3.9,0,1,0-7.8,0v3.9a1.3,1.3,0,0,1-2.6,0V24.5a6.5,6.5,0,1,1,13,0v3.9A1.3,1.3,0,0,1,36.7,29.7Z" transform="translate(7.5 5.4)"/>
        <path id="Path-13" data-name="Path" d="M30.3,36.9A1.3,1.3,0,0,1,29,35.6V34.3a1.3,1.3,0,1,1,2.6,0v1.3A1.3,1.3,0,0,1,30.3,36.9Z" transform="translate(8.7 9.9)"/>
        <path id="Path-14" data-name="Path" d="M46.458,18.9a1.3,1.3,0,0,1-.928-.39,24.634,24.634,0,0,0-7.758-5.356,1.3,1.3,0,0,1,1.04-2.382,27.178,27.178,0,0,1,8.58,5.918,1.3,1.3,0,0,1-.928,2.21Z" transform="translate(11.108 3.203)"/>
        <path id="Path-15" data-name="Path" d="M35.5,12.12a1.269,1.269,0,0,1-.26-.026A24.9,24.9,0,0,0,30.3,11.6a1.3,1.3,0,0,1,0-2.6,27.453,27.453,0,0,1,5.46.547,1.3,1.3,0,0,1-.26,2.573Z" transform="translate(8.7 2.7)"/>
        <path id="Path-16" data-name="Path" d="M22.3,13.643a1.3,1.3,0,0,1-.52-2.491,27.187,27.187,0,0,1,5.46-1.726,1.3,1.3,0,1,1,.52,2.549,24.638,24.638,0,0,0-4.94,1.56,1.271,1.271,0,0,1-.52.108Z" transform="translate(6.3 2.82)"/>
        <path id="Path-17" data-name="Path" d="M12.975,23.4a1.286,1.286,0,0,1-.65-.176,1.3,1.3,0,0,1-.475-1.774,27.273,27.273,0,0,1,7.267-8.19,1.3,1.3,0,0,1,1.56,2.08A24.657,24.657,0,0,0,14.1,22.75a1.3,1.3,0,0,1-1.126.65Z" transform="translate(3.503 3.9)"/>
        <path id="Path-18" data-name="Path" d="M10.3,33.478a1.3,1.3,0,0,1-1.3-1.3,27.254,27.254,0,0,1,1.365-8.545,1.3,1.3,0,1,1,2.47.813A24.687,24.687,0,0,0,11.6,32.178a1.3,1.3,0,0,1-1.3,1.3Z" transform="translate(2.7 6.822)"/>
        <path id="Path-19" data-name="Path" d="M13.66,43.4a1.3,1.3,0,0,1-1.127-.65,27.132,27.132,0,0,1-3.107-8.19,1.3,1.3,0,1,1,2.548-.52,24.487,24.487,0,0,0,2.811,7.41,1.3,1.3,0,0,1-.476,1.776,1.278,1.278,0,0,1-.649.174Z" transform="translate(2.82 9.9)"/>
        <path id="Path-20" data-name="Path" d="M24.465,51.542a1.271,1.271,0,0,1-.52-.109,27.5,27.5,0,0,1-9.825-7.28,1.3,1.3,0,1,1,1.975-1.69,24.93,24.93,0,0,0,8.891,6.588,1.3,1.3,0,0,1-.52,2.491Z" transform="translate(4.135 12.595)"/>
        <path id="Path-21" data-name="Path" d="M31.507,51.722a27.454,27.454,0,0,1-5.46-.547,1.3,1.3,0,1,1,.52-2.547,25.09,25.09,0,0,0,9.88,0,1.3,1.3,0,0,1,.52,2.547,27.454,27.454,0,0,1-5.46.547Z" transform="translate(7.493 14.578)"/>
        <path id="Path-22" data-name="Path" d="M38.3,51.237a1.3,1.3,0,0,1-.52-2.491,24.634,24.634,0,0,0,7.758-5.356A1.3,1.3,0,0,1,47.4,45.21a27.178,27.178,0,0,1-8.58,5.918,1.265,1.265,0,0,1-.52.109Z" transform="translate(11.1 12.9)"/>
        <path id="Path-23" data-name="Path" d="M47.623,43.4a1.286,1.286,0,0,1-.65-.175,1.3,1.3,0,0,1-.473-1.776,24.479,24.479,0,0,0,2.808-7.41,1.3,1.3,0,0,1,2.549.52,27.04,27.04,0,0,1-3.108,8.19A1.3,1.3,0,0,1,47.623,43.4Z" transform="translate(13.897 9.899)"/>
        <path id="Path-24" data-name="Path" d="M51.1,34.589a1.3,1.3,0,0,1-1.3-1.3,24.684,24.684,0,0,0-3.3-12.35,1.3,1.3,0,0,1,2.249-1.3A27.282,27.282,0,0,1,52.4,33.289,1.3,1.3,0,0,1,51.1,34.589Z" transform="translate(13.903 5.711)"/>
        <path id="Path-25" data-name="Path" d="M25,15.571a1.3,1.3,0,0,1-1.3-1.3V5.6H13.3a1.3,1.3,0,0,1,0-2.6H23.7a2.6,2.6,0,0,1,2.6,2.6v8.671A1.3,1.3,0,0,1,25,15.571Z" transform="translate(3.6 0.9)"/>
        <path id="Path-26" data-name="Path" d="M38.3,15.571a1.3,1.3,0,0,1-1.3-1.3V5.6A2.6,2.6,0,0,1,39.6,3H50a1.3,1.3,0,0,1,0,2.6H39.6v8.671A1.3,1.3,0,0,1,38.3,15.571Z" transform="translate(11.1 0.9)"/>
        <path id="Path-27" data-name="Path" d="M23.7,59.9H13.3a1.3,1.3,0,1,1,0-2.6H23.7V48.63a1.3,1.3,0,0,1,2.6,0V57.3A2.6,2.6,0,0,1,23.7,59.9Z" transform="translate(3.6 14.199)"/>
        <path id="Path-28" data-name="Path" d="M50,59.9H39.6A2.6,2.6,0,0,1,37,57.3V48.63a1.3,1.3,0,0,1,2.6,0V57.3H50a1.3,1.3,0,1,1,0,2.6Z" transform="translate(11.1 14.199)"/>
        <path id="Path-29" data-name="Path" d="M30.3,63.3A1.3,1.3,0,0,1,29,62V50.3a1.3,1.3,0,1,1,2.6,0V62A1.3,1.3,0,0,1,30.3,63.3Z" transform="translate(8.7 14.7)"/>
        <path id="Path-30" data-name="Path" d="M30.3,14.3A1.3,1.3,0,0,1,29,13V1.3a1.3,1.3,0,1,1,2.6,0V13A1.3,1.3,0,0,1,30.3,14.3Z" transform="translate(8.7)"/>
        <path id="Path-31" data-name="Path" d="M14.7,41.6H7.3a1.3,1.3,0,0,1,0-2.6h7.4a1.3,1.3,0,0,1,0,2.6Z" transform="translate(1.8 11.7)"/>
        <path id="Path-32" data-name="Path" d="M14.7,21.6H7.3a1.3,1.3,0,1,1,0-2.6h7.4a1.3,1.3,0,1,1,0,2.6Z" transform="translate(1.8 5.7)"/>
        <path id="Path-33" data-name="Path" d="M55.007,41.6h-7.4a1.3,1.3,0,0,1,0-2.6h7.4a1.3,1.3,0,0,1,0,2.6Z" transform="translate(13.893 11.7)"/>
        <path id="Path-34" data-name="Path" d="M55.007,21.6h-7.4a1.3,1.3,0,0,1,0-2.6h7.4a1.3,1.3,0,0,1,0,2.6Z" transform="translate(13.893 5.7)"/>
        <path id="Path-35" data-name="Path" d="M62,31.6H50.3a1.3,1.3,0,0,1,0-2.6H62a1.3,1.3,0,1,1,0,2.6Z" transform="translate(14.7 8.7)"/>
        <path id="Path-36" data-name="Path" d="M13,31.6H1.3a1.3,1.3,0,1,1,0-2.6H13a1.3,1.3,0,1,1,0,2.6Z" transform="translate(0 8.7)"/>
      </g>
    </g>
  </g>
</svg>
