<svg xmlns="http://www.w3.org/2000/svg" xmlns:xlink="http://www.w3.org/1999/xlink" width="190" height="115" viewBox="0 0 190 115">
  <defs>
    <clipPath id="clip-path">
      <rect id="Rectángulo_45235" data-name="Rectángulo 45235" width="190" height="115" transform="translate(1020 9470)" fill="#2ff980"/>
    </clipPath>
  </defs>
  <g id="Enmascarar_grupo_134" data-name="Enmascarar grupo 134" transform="translate(-1020 -9470)" clip-path="url(#clip-path)">
    <g id="verificado_1_" data-name="verificado(1)" transform="translate(1070.839 9474.284)">
      <g id="Grupo_84022" data-name="Grupo 84022" transform="translate(1.621 1.622)">
        <path id="Trazado_245530" data-name="Trazado 245530" d="M136.029,7.5v5.653L119.976,14.24l-17.043-1.087V7.5Z" transform="translate(-84.247 -7.5)" fill="#7ca1b1"/>
        <path id="Trazado_245531" data-name="Trazado 245531" d="M226.008,7.5v5.651l-6.92.432V8.849A1.35,1.35,0,0,0,217.737,7.5h8.27Z" transform="translate(-174.226 -7.5)" fill="#678d98"/>
        <path id="Trazado_245532" data-name="Trazado 245532" d="M86.988,40.186v87.02a6.545,6.545,0,0,1-6.546,6.546H23.071a6.547,6.547,0,0,1-6.548-6.546V40.186a6.547,6.547,0,0,1,6.548-6.546h3.454L51.757,35.3,76.406,33.64h4.036a6.545,6.545,0,0,1,6.546,6.546Z" transform="translate(-16.523 -27.987)" fill="#5986cb"/>
        <path id="Trazado_245533" data-name="Trazado 245533" d="M304.03,40.182V127.2a6.545,6.545,0,0,1-6.546,6.546h-4.037a6.545,6.545,0,0,0,6.546-6.546V40.182c0-6.774-5.8-6.546-5.8-6.546h3.287A6.545,6.545,0,0,1,304.03,40.182Z" transform="translate(-233.564 -27.984)" fill="#4278c3"/>
        <path id="Trazado_245534" data-name="Trazado 245534" d="M104.178,36.927v82.555a3.287,3.287,0,0,1-3.287,3.287h-50.8a3.285,3.285,0,0,1-3.287-3.287V36.927a3.287,3.287,0,0,1,3.287-3.287h50.8A3.288,3.288,0,0,1,104.178,36.927Z" transform="translate(-40.258 -27.987)" fill="#c8effe"/>
        <path id="Trazado_245535" data-name="Trazado 245535" d="M279.184,36.927v82.555a3.287,3.287,0,0,1-3.287,3.287h-5.8a3.285,3.285,0,0,0,3.287-3.287V36.927A3.287,3.287,0,0,0,270.1,33.64h5.8A3.288,3.288,0,0,1,279.184,36.927Z" transform="translate(-215.264 -27.987)" fill="#99e6fc"/>
        <path id="Trazado_245536" data-name="Trazado 245536" d="M85.9,108.658h41.451v6.487H85.9Z" transform="translate(-70.901 -86.783)" fill="#7ca1b1"/>
        <path id="Trazado_245537" data-name="Trazado 245537" d="M263.237,157.5,220.65,146.086a2.261,2.261,0,0,0-2.769,1.6l-16.5,61.587a2.261,2.261,0,0,0,1.6,2.769l42.587,11.411a2.261,2.261,0,0,0,2.769-1.6l16.5-61.587A2.261,2.261,0,0,0,263.237,157.5Z" transform="translate(-161.344 -116.057)" fill="#99e6fc"/>
        <path id="Trazado_245538" data-name="Trazado 245538" d="M240.162,117.535l-16.5,61.586a2.262,2.262,0,0,1-2.768,1.6L178.3,169.31a2.264,2.264,0,0,1-1.6-2.77l16.5-61.586a2.262,2.262,0,0,1,2.77-1.6l42.587,11.411A2.261,2.261,0,0,1,240.162,117.535Z" transform="translate(-142.006 -82.565)" fill="#eaf6ff"/>
        <path id="Trazado_245539" data-name="Trazado 245539" d="M375.861,152.571l-16.5,61.588a2.263,2.263,0,0,1-2.768,1.6l-6.825-1.829a2.264,2.264,0,0,0,2.77-1.6l16.5-61.586a2.259,2.259,0,0,0-1.579-2.764l6.8,1.823A2.257,2.257,0,0,1,375.861,152.571Z" transform="translate(-277.706 -117.602)" fill="#c8effe"/>
        <circle id="Elipse_4838" data-name="Elipse 4838" cx="15.94" cy="15.94" r="15.94" transform="translate(47.702 53.929)" fill="#46cc8d"/>
        <path id="Trazado_245540" data-name="Trazado 245540" d="M0,0H31.88V12.789H0Z" transform="translate(57.775 30.182) rotate(15.009)" fill="#5986cb"/>
      </g>
      <g id="Grupo_84023" data-name="Grupo 84023" transform="translate(0 0)">
        <path id="Trazado_245541" data-name="Trazado 245541" d="M80.024,183.892h9.044a1.622,1.622,0,1,0,0-3.244H80.024a1.622,1.622,0,1,0,0,3.244Z" transform="translate(-63.4 -141.584)"/>
        <path id="Trazado_245542" data-name="Trazado 245542" d="M89.067,378.611H80.024a1.622,1.622,0,0,0,0,3.244h9.044a1.622,1.622,0,1,0,0-3.244Z" transform="translate(-63.4 -296.739)"/>
        <path id="Trazado_245543" data-name="Trazado 245543" d="M115.317,43.3a3.857,3.857,0,0,0-2.358-1.809l-3.538-.948.948-3.536a3.931,3.931,0,0,0-2.744-4.756l-24.891-6.67V13.821a8.177,8.177,0,0,0-8.168-8.168H64.05V1.622A1.622,1.622,0,0,0,62.428,0h-33.1A1.622,1.622,0,0,0,27.71,1.622V5.653H17.194a8.177,8.177,0,0,0-8.168,8.168V84.262a1.622,1.622,0,1,0,3.244,0V13.821A4.933,4.933,0,0,1,15.795,9.1a4.9,4.9,0,0,0-.222,1.462V93.117a4.914,4.914,0,0,0,4.909,4.909h29.51a3.856,3.856,0,0,0,1.87,1.146L75.837,105.6a4.943,4.943,0,0,1-1.271.167H17.194a4.93,4.93,0,0,1-4.924-4.924V91.9a1.622,1.622,0,1,0-3.244,0v8.937a8.177,8.177,0,0,0,8.168,8.168H74.566a8.126,8.126,0,0,0,5.622-2.245l14.26,3.821a3.882,3.882,0,0,0,4.755-2.746l16.5-61.587a3.856,3.856,0,0,0-.388-2.946Zm-8.144-7.619a.638.638,0,0,1,.064.486l-16.5,61.587a.64.64,0,0,1-.782.453L47.365,86.8a.641.641,0,0,1-.453-.784l16.5-61.587a.671.671,0,0,1,.784-.453l42.587,11.411a.633.633,0,0,1,.387.3ZM59,28.362H27.272V25.118h32.6ZM30.953,3.244H60.806V5.653H30.953ZM35.325,8.9H56.435v1.417a3.733,3.733,0,0,1-3.729,3.729H39.054a3.733,3.733,0,0,1-3.729-3.729ZM18.816,93.117V10.561A1.667,1.667,0,0,1,20.481,8.9h11.6v1.417a6.981,6.981,0,0,0,6.973,6.973H52.706a6.981,6.981,0,0,0,6.973-6.973V8.9h11.6a1.667,1.667,0,0,1,1.665,1.665v6.594a1.622,1.622,0,1,0,3.244,0V10.561A4.889,4.889,0,0,0,75.965,9.1a4.933,4.933,0,0,1,3.525,4.721v10.9L65.037,20.844a3.914,3.914,0,0,0-3.774,1.031H25.65A1.622,1.622,0,0,0,24.028,23.5v6.487a1.622,1.622,0,0,0,1.622,1.622H58.133l-4.866,18.16H25.65a1.622,1.622,0,1,0,0,3.244H52.4l-2,7.458H25.65a1.622,1.622,0,0,0,0,3.244H49.531l-2,7.458H25.65a1.622,1.622,0,0,0,0,3.244H46.663L43.779,85.176a3.888,3.888,0,0,0,2.746,4.757l3.537.948-.948,3.536c-.033.122-.058.244-.078.365H20.481a1.667,1.667,0,0,1-1.665-1.665Zm93.755-47.706L96.069,107a.639.639,0,0,1-.783.452L52.7,96.039a.64.64,0,0,1-.452-.783L53.2,91.72l35.917,9.624A3.88,3.88,0,0,0,93.867,98.6l14.715-54.917,3.537.948a.646.646,0,0,1,.452.783Z" transform="translate(-9.026 0)"/>
        <path id="Trazado_245544" data-name="Trazado 245544" d="M263.69,260.621a1.643,1.643,0,0,0-2.3-.761l-14.323,8.269-4.431-7.675a1.622,1.622,0,1,0-2.809,1.622l5.242,9.08a1.656,1.656,0,0,0,2.215.594l13.982-8.073a14.315,14.315,0,1,1-4.583-7.479,1.622,1.622,0,0,0,2.115-2.459,17.563,17.563,0,1,0-2.665,28.533C263.407,278.074,267.091,268.5,263.69,260.621Z" transform="translate(-182.092 -195.572)"/>
        <path id="Trazado_245545" data-name="Trazado 245545" d="M261.119,154.3a1.623,1.623,0,0,0,.985.756l30.794,8.251a1.655,1.655,0,0,0,1.986-1.147l3.31-12.353a1.637,1.637,0,0,0-1.147-1.986l-30.794-8.251a1.623,1.623,0,0,0-1.986,1.147l-3.31,12.353A1.621,1.621,0,0,0,261.119,154.3Zm5.861-11.178,27.66,7.411-2.471,9.221-27.66-7.412Z" transform="translate(-206.436 -109.345)"/>
      </g>
    </g>
  </g>
</svg>
