<svg xmlns="http://www.w3.org/2000/svg" xmlns:xlink="http://www.w3.org/1999/xlink" width="190" height="115" viewBox="0 0 190 115">
  <defs>
    <clipPath id="clip-path">
      <rect id="Rectángulo_45249" data-name="Rectángulo 45249" width="190" height="115" transform="translate(1020 9470)" fill="#2ff980"/>
    </clipPath>
  </defs>
  <g id="Enmascarar_grupo_137" data-name="Enmascarar grupo 137" transform="translate(-1020 -9470)" clip-path="url(#clip-path)">
    <g id="cumplimiento_1_" data-name="cumplimiento(1)" transform="translate(1035.927 9470.002)">
      <g id="Grupo_955794" data-name="Grupo 955794" transform="translate(34.89 1.709)">
        <g id="Grupo_955792" data-name="Grupo 955792">
          <path id="Trazado_656126" data-name="Trazado 656126" d="M111.312,60a4.285,4.285,0,0,1,4.276,4.276v78.685a4.285,4.285,0,0,1-4.276,4.276H45.456a4.285,4.285,0,0,1-4.276-4.276V64.273A4.285,4.285,0,0,1,45.456,60h65.856Z" transform="translate(-41.18 -48.879)" fill="#eceff1" fill-rule="evenodd"/>
          <path id="Trazado_656127" data-name="Trazado 656127" d="M248.108,60a4.285,4.285,0,0,1,4.276,4.276V142.96a4.285,4.285,0,0,1-4.276,4.276H215.18V60h32.928Z" transform="translate(-177.976 -48.879)" fill="#e1e4e6" fill-rule="evenodd"/>
          <path id="Trazado_656128" data-name="Trazado 656128" d="M140.163,13.557h7.414a7.271,7.271,0,0,1,14.134,0h7.414a1.987,1.987,0,0,1,1.983,1.983v7.153a1.987,1.987,0,0,1-1.983,1.983H140.163a1.987,1.987,0,0,1-1.983-1.983V15.54A1.987,1.987,0,0,1,140.163,13.557Z" transform="translate(-117.44 -7.998)" fill="#685e68" fill-rule="evenodd"/>
          <path id="Trazado_656129" data-name="Trazado 656129" d="M215.18,8a7.272,7.272,0,0,1,7.067,5.559h7.414a1.987,1.987,0,0,1,1.983,1.983v7.153a1.987,1.987,0,0,1-1.983,1.983H215.18Z" transform="translate(-177.976 -7.998)" fill="#544854" fill-rule="evenodd"/>
          <path id="Trazado_656130" data-name="Trazado 656130" d="M105,188.546h6.084a2.78,2.78,0,0,1,2.776,2.776v6.084a2.78,2.78,0,0,1-2.776,2.776H105a2.78,2.78,0,0,1-2.776-2.776v-6.084A2.78,2.78,0,0,1,105,188.546Zm0-45.757h6.084a2.78,2.78,0,0,1,2.776,2.776v6.084a2.78,2.78,0,0,1-2.776,2.776H105a2.78,2.78,0,0,1-2.776-2.776v-6.084A2.78,2.78,0,0,1,105,142.789Zm0,22.878h6.084a2.78,2.78,0,0,1,2.776,2.776v6.084a2.78,2.78,0,0,1-2.776,2.776H105a2.78,2.78,0,0,1-2.776-2.776v-6.084A2.78,2.78,0,0,1,105,165.667Z" transform="translate(-89.169 -113.968)" fill="#ffe177" fill-rule="evenodd"/>
          <path id="Trazado_656131" data-name="Trazado 656131" d="M129.43,188.546h3.042a2.78,2.78,0,0,1,2.776,2.776v6.084a2.78,2.78,0,0,1-2.776,2.776H129.43Zm0-11.243V165.667h3.042a2.78,2.78,0,0,1,2.776,2.776v6.084a2.78,2.78,0,0,1-2.776,2.776Zm0-22.878V142.789h3.042a2.78,2.78,0,0,1,2.776,2.776v6.084a2.78,2.78,0,0,1-2.776,2.776Z" transform="translate(-110.561 -113.968)" fill="#ffd064" fill-rule="evenodd"/>
        </g>
        <g id="Grupo_955793" data-name="Grupo 955793" transform="translate(49.674 63.857)">
          <circle id="Elipse_5645" data-name="Elipse 5645" cx="17.48" cy="17.48" r="17.48" transform="translate(0 24.716) rotate(-45)" fill="#8ac9fe"/>
          <path id="Trazado_656132" data-name="Trazado 656132" d="M389.18,340.5a17.48,17.48,0,1,1,0,34.959Z" transform="translate(-364.445 -333.261)" fill="#60b7ff" fill-rule="evenodd"/>
        </g>
      </g>
      <path id="Trazado_656133" data-name="Trazado 656133" d="M109.3,106.052a15.769,15.769,0,1,1,15.769-15.769A15.787,15.787,0,0,1,109.3,106.052Zm-70.132-7.7H91.891a19.185,19.185,0,0,1,15.7-27.185V17.1a2.569,2.569,0,0,0-2.566-2.566H90.269v3.849a1.71,1.71,0,0,1-1.711,1.71H55.63a1.709,1.709,0,0,1-1.711-1.71V14.537H39.166A2.569,2.569,0,0,0,36.6,17.1V95.789A2.568,2.568,0,0,0,39.166,98.354ZM57.341,8.978h7.687A1.71,1.71,0,0,0,66.69,7.67a5.56,5.56,0,0,1,10.808,0,1.711,1.711,0,0,0,1.663,1.308h7.687v7.7H57.341Zm53.669,62.192V17.1a5.994,5.994,0,0,0-5.987-5.987H90.269V7.268a1.711,1.711,0,0,0-1.711-1.711H80.4a8.986,8.986,0,0,0-16.614,0H55.63a1.71,1.71,0,0,0-1.711,1.711v3.848H39.166A5.994,5.994,0,0,0,33.179,17.1V95.789a5.994,5.994,0,0,0,5.987,5.987H93.939a19.187,19.187,0,1,0,17.07-30.606Zm8.557,12.014a1.711,1.711,0,0,0-2.419.011L106.706,93.74l-5.264-5.262A1.71,1.71,0,1,0,99.024,90.9l6.479,6.478a1.714,1.714,0,0,0,1.21.5h0a1.721,1.721,0,0,0,1.211-.507L119.579,85.6a1.709,1.709,0,0,0-.012-2.418ZM86.484,87.129a1.711,1.711,0,0,1-1.711,1.711H69.9a1.711,1.711,0,1,1,0-3.422h14.87A1.71,1.71,0,0,1,86.484,87.129Zm0-10.049a1.709,1.709,0,0,1-1.711,1.71H69.9a1.71,1.71,0,1,1,0-3.42h14.87A1.711,1.711,0,0,1,86.484,77.08Zm-29.41,8.338H50.445V78.789h6.629Zm1.711-10.049a1.711,1.711,0,0,1,1.711,1.711V87.129a1.711,1.711,0,0,1-1.711,1.711H48.734a1.711,1.711,0,0,1-1.711-1.711V77.08a1.711,1.711,0,0,1,1.711-1.711ZM68.192,64.25A1.711,1.711,0,0,1,69.9,62.54H95.453a1.711,1.711,0,0,1,0,3.422H69.9A1.71,1.71,0,0,1,68.192,64.25Zm0-10.049A1.711,1.711,0,0,1,69.9,52.491H95.453a1.71,1.71,0,1,1,0,3.421H69.9A1.71,1.71,0,0,1,68.192,54.2ZM57.073,62.54H50.445V55.911h6.629ZM58.784,52.49A1.711,1.711,0,0,1,60.494,54.2V64.25a1.71,1.71,0,0,1-1.711,1.711H48.734a1.711,1.711,0,0,1-1.711-1.711V54.2a1.711,1.711,0,0,1,1.711-1.711h10.05Zm9.408-11.118A1.711,1.711,0,0,1,69.9,39.661H95.453a1.711,1.711,0,0,1,0,3.422H69.9A1.711,1.711,0,0,1,68.192,41.372Zm0-10.05a1.711,1.711,0,0,1,1.711-1.71H95.453a1.71,1.71,0,1,1,0,3.421H69.9A1.71,1.71,0,0,1,68.192,31.322Zm-11.118,8.34H50.445V33.033h6.629Zm1.711-10.049a1.71,1.71,0,0,1,1.711,1.71v10.05a1.71,1.71,0,0,1-1.711,1.711H48.734a1.711,1.711,0,0,1-1.711-1.711V31.322a1.71,1.71,0,0,1,1.711-1.71Z" fill-rule="evenodd"/>
    </g>
  </g>
</svg>
