<svg xmlns="http://www.w3.org/2000/svg" xmlns:xlink="http://www.w3.org/1999/xlink" width="190" height="115" viewBox="0 0 190 115">
  <defs>
    <clipPath id="clip-path">
      <rect id="Rectángulo_45250" data-name="Rectángulo 45250" width="190" height="115" transform="translate(1020 9470)" fill="#2ff980"/>
    </clipPath>
  </defs>
  <g id="Enmascarar_grupo_138" data-name="Enmascarar grupo 138" transform="translate(-1020 -9470)" clip-path="url(#clip-path)">
    <g id="_001---Cyber-Security" data-name="001---Cyber-Security" transform="translate(1056.318 9470)">
      <path id="Path" d="M86.71,14.932V60A35.154,35.154,0,0,1,74.443,86.7l-4.829,4.145-3.256,2.775-16.1,13.8a3.7,3.7,0,0,1-4.811,0l-16.1-13.8L26.1,90.847,21.267,86.7A35.154,35.154,0,0,1,9,60V14.932a3.684,3.684,0,0,1,3.441-3.682c6.513-.463,21.148-2.294,33.434-9.7a3.808,3.808,0,0,1,3.959,0c12.286,7.4,26.921,9.233,33.434,9.7a3.684,3.684,0,0,1,3.441,3.682Z" transform="translate(7.652 0.85)" fill="#8fc05e"/>
      <path id="Path-2" data-name="Path" d="M22.68,77.451A28.048,28.048,0,0,1,13,56.205V15.851A1.85,1.85,0,0,1,14.608,14,84.186,84.186,0,0,0,43.594,5.218a1.808,1.808,0,0,1,1.721,0A84.21,84.21,0,0,0,74.3,14a1.85,1.85,0,0,1,1.608,1.85V56.207a28.042,28.042,0,0,1-9.682,21.248L45.659,95.217a1.85,1.85,0,0,1-2.405,0Z" transform="translate(11.053 4.251)" fill="#b8df8a"/>
      <path id="Path-3" data-name="Path" d="M62.4,23.694a3.7,3.7,0,0,1-6.938,1.776,3.641,3.641,0,0,1,0-3.552A3.7,3.7,0,0,1,62.4,23.694Z" transform="translate(46.763 17.012)" fill="#b8df8a"/>
      <path id="Path-4" data-name="Path" d="M62.4,8.7a3.7,3.7,0,0,1-1.924,3.238,3.641,3.641,0,0,1-3.552,0A3.7,3.7,0,1,1,62.4,8.7Z" transform="translate(46.763 4.247)" fill="#b8df8a"/>
      <path id="Path-5" data-name="Path" d="M62.4,38.7a3.7,3.7,0,1,1-5.477-3.238,3.641,3.641,0,0,1,3.552,0A3.7,3.7,0,0,1,62.4,38.7Z" transform="translate(46.763 29.758)" fill="#b8df8a"/>
      <path id="Path-6" data-name="Path" d="M53.4,58.694a3.7,3.7,0,0,1-6.938,1.776,3.641,3.641,0,0,1,0-3.552A3.7,3.7,0,0,1,53.4,58.694Z" transform="translate(39.111 46.77)" fill="#b8df8a"/>
      <path id="Path-7" data-name="Path" d="M8.4,23.7a3.576,3.576,0,0,1-.463,1.776,3.7,3.7,0,1,1,0-3.552A3.577,3.577,0,0,1,8.4,23.7Z" transform="translate(0.846 17.005)" fill="#b8df8a"/>
      <path id="Path-8" data-name="Path" d="M8.4,8.7a3.7,3.7,0,0,1-1.924,3.238,3.641,3.641,0,0,1-3.552,0A3.7,3.7,0,1,1,8.4,8.7Z" transform="translate(0.85 4.247)" fill="#b8df8a"/>
      <path id="Path-9" data-name="Path" d="M8.4,38.7a3.7,3.7,0,1,1-5.477-3.238,3.641,3.641,0,0,1,3.552,0A3.7,3.7,0,0,1,8.4,38.7Z" transform="translate(0.85 29.758)" fill="#b8df8a"/>
      <path id="Path-10" data-name="Path" d="M17.4,58.7a3.577,3.577,0,0,1-.463,1.776,3.7,3.7,0,1,1,0-3.552A3.576,3.576,0,0,1,17.4,58.7Z" transform="translate(8.499 46.763)" fill="#b8df8a"/>
      <circle id="Oval" cx="20.353" cy="20.353" r="20.353" transform="translate(35.155 31.454)" fill="#8fc05e"/>
      <g id="Grupo_948264" data-name="Grupo 948264" transform="translate(0 0)">
        <path id="Path-11" data-name="Path" d="M48.705,111.023a5.536,5.536,0,0,1-3.612-1.345L20.913,88.965A36.973,36.973,0,0,1,8,60.862V15.792a5.566,5.566,0,0,1,5.157-5.536,89.181,89.181,0,0,0,9.32-1.169,1.85,1.85,0,0,1,.651,3.641,92.487,92.487,0,0,1-9.71,1.219A1.832,1.832,0,0,0,11.7,15.8V60.862A33.271,33.271,0,0,0,23.322,86.154L47.5,106.877a1.85,1.85,0,0,0,2.405,0L74.089,86.154A33.269,33.269,0,0,0,85.71,60.862V15.792a1.83,1.83,0,0,0-1.717-1.85c-7.493-.529-21.909-2.524-34.268-9.96a1.945,1.945,0,0,0-2.035,0A64.2,64.2,0,0,1,34.479,9.9a1.85,1.85,0,0,1-1.147-3.515A60.482,60.482,0,0,0,45.778.816a5.658,5.658,0,0,1,5.854,0c12.134,7.3,26.862,9.033,32.621,9.44a5.567,5.567,0,0,1,5.157,5.536v45.07A36.968,36.968,0,0,1,76.5,88.963L52.315,109.686a5.528,5.528,0,0,1-3.61,1.338Z" transform="translate(6.802 0)"/>
        <path id="Path-12" data-name="Path" d="M45.3,98.362a3.682,3.682,0,0,1-2.405-.89L22.33,79.71A29.889,29.889,0,0,1,12,57.056V16.7a3.7,3.7,0,0,1,3.229-3.684,82.6,82.6,0,0,0,28.338-8.58,3.656,3.656,0,0,1,3.475,0,82.665,82.665,0,0,0,28.338,8.58A3.7,3.7,0,0,1,78.608,16.7V57.056a30.077,30.077,0,0,1-1.23,8.526,1.85,1.85,0,1,1-3.549-1.047,26.373,26.373,0,0,0,1.079-7.479V16.7a86.691,86.691,0,0,1-29.622-9,85.908,85.908,0,0,1-29.6,8.992L15.7,57.056A26.188,26.188,0,0,0,24.741,76.9L45.3,94.662,65.86,76.9a26.005,26.005,0,0,0,3.867-4.145,1.85,1.85,0,1,1,2.96,2.22,29.924,29.924,0,0,1-4.405,4.738L47.71,97.465a3.686,3.686,0,0,1-2.405.9Z" transform="translate(10.203 3.401)"/>
        <path id="Shape" d="M59.551,30.1A5.551,5.551,0,1,1,65.1,24.551,5.551,5.551,0,0,1,59.551,30.1Zm0-7.4a1.85,1.85,0,1,0,1.85,1.85A1.85,1.85,0,0,0,59.551,22.7Z" transform="translate(45.913 16.154)"/>
        <path id="Shape-2" data-name="Shape" d="M59.551,15.1a5.551,5.551,0,1,1,3.925-1.626A5.551,5.551,0,0,1,59.551,15.1Zm0-7.4a1.85,1.85,0,1,0,1.85,1.85A1.85,1.85,0,0,0,59.551,7.7Z" transform="translate(45.913 3.401)"/>
        <path id="Shape-3" data-name="Shape" d="M59.551,45.1A5.551,5.551,0,1,1,65.1,39.551,5.551,5.551,0,0,1,59.551,45.1Zm0-7.4a1.85,1.85,0,1,0,1.85,1.85A1.85,1.85,0,0,0,59.551,37.7Z" transform="translate(45.913 28.908)"/>
        <path id="Shape-4" data-name="Shape" d="M50.551,65.1A5.551,5.551,0,1,1,56.1,59.551,5.551,5.551,0,0,1,50.551,65.1Zm0-7.4a1.85,1.85,0,1,0,1.85,1.85A1.85,1.85,0,0,0,50.551,57.7Z" transform="translate(38.261 45.913)"/>
        <path id="Shape-5" data-name="Shape" d="M5.551,30.1A5.551,5.551,0,1,1,11.1,24.551,5.551,5.551,0,0,1,5.551,30.1Zm0-7.4a1.85,1.85,0,1,0,1.85,1.85A1.85,1.85,0,0,0,5.551,22.7Z" transform="translate(0 16.154)"/>
        <path id="Shape-6" data-name="Shape" d="M5.551,15.1a5.551,5.551,0,1,1,3.925-1.626A5.551,5.551,0,0,1,5.551,15.1Zm0-7.4A1.85,1.85,0,1,0,7.4,9.551,1.85,1.85,0,0,0,5.551,7.7Z" transform="translate(0 3.401)"/>
        <path id="Shape-7" data-name="Shape" d="M5.551,45.1A5.551,5.551,0,1,1,11.1,39.551,5.551,5.551,0,0,1,5.551,45.1Zm0-7.4a1.85,1.85,0,1,0,1.85,1.85A1.85,1.85,0,0,0,5.551,37.7Z" transform="translate(0 28.908)"/>
        <path id="Shape-8" data-name="Shape" d="M14.551,65.1A5.551,5.551,0,1,1,20.1,59.551,5.551,5.551,0,0,1,14.551,65.1Zm0-7.4a1.85,1.85,0,1,0,1.85,1.85A1.85,1.85,0,0,0,14.551,57.7Z" transform="translate(7.652 45.913)"/>
        <path id="Shape-9" data-name="Shape" d="M40.2,60.406a22.2,22.2,0,1,1,22.2-22.2A22.2,22.2,0,0,1,40.2,60.406Zm0-40.705a18.5,18.5,0,1,0,18.5,18.5A18.5,18.5,0,0,0,40.2,19.7Z" transform="translate(15.304 13.604)" fill="#060606"/>
        <path id="Path-13" data-name="Path" d="M31.39,41.506a1.85,1.85,0,0,1-1.308-.542l-5.551-5.551A1.85,1.85,0,0,1,27.148,32.8L31.3,36.949,42.956,23.627a1.851,1.851,0,1,1,2.786,2.439l-12.952,14.8a1.85,1.85,0,0,1-1.33.631Z" transform="translate(20.416 19.551)" fill="#060606"/>
        <path id="Path-14" data-name="Path" d="M59.251,24.7h-7.4a1.85,1.85,0,0,1,0-3.7h7.4a1.85,1.85,0,0,1,0,3.7Z" transform="translate(42.512 17.855)" fill="#373737"/>
        <path id="Path-15" data-name="Path" d="M61.1,20.952H51.85a1.85,1.85,0,0,1,0-3.7H61.1V9.85a1.85,1.85,0,0,1,3.7,0v7.4A3.7,3.7,0,0,1,61.1,20.952Z" transform="translate(42.512 6.802)"/>
        <path id="Path-16" data-name="Path" d="M62.952,41.952A1.85,1.85,0,0,1,61.1,40.1V32.7H51.85a1.85,1.85,0,0,1,0-3.7H61.1a3.7,3.7,0,0,1,3.7,3.7v7.4A1.85,1.85,0,0,1,62.952,41.952Z" transform="translate(42.512 24.657)"/>
        <path id="Path-17" data-name="Path" d="M51.1,65.474H43.7a3.7,3.7,0,0,1-3.7-3.7V51.06a1.85,1.85,0,1,1,3.7,0V61.773h7.4a1.85,1.85,0,0,1,0,3.7Z" transform="translate(34.01 41.84)"/>
        <path id="Path-18" data-name="Path" d="M13.251,24.7H5.85a1.85,1.85,0,0,1,0-3.7h7.4a1.85,1.85,0,0,1,0,3.7Z" transform="translate(3.401 17.855)"/>
        <path id="Path-19" data-name="Path" d="M14.952,20.952H5.7a3.7,3.7,0,0,1-3.7-3.7V9.85a1.85,1.85,0,1,1,3.7,0v7.4h9.251a1.85,1.85,0,1,1,0,3.7Z" transform="translate(1.701 6.802)"/>
        <path id="Path-20" data-name="Path" d="M3.85,41.952A1.85,1.85,0,0,1,2,40.1V32.7A3.7,3.7,0,0,1,5.7,29h9.251a1.85,1.85,0,1,1,0,3.7H5.7v7.4A1.85,1.85,0,0,1,3.85,41.952Z" transform="translate(1.701 24.657)"/>
        <path id="Path-21" data-name="Path" d="M22.251,65.474h-7.4a1.85,1.85,0,1,1,0-3.7h7.4V51.06a1.85,1.85,0,0,1,3.7,0V61.773A3.7,3.7,0,0,1,22.251,65.474Z" transform="translate(11.053 41.84)"/>
      </g>
    </g>
  </g>
</svg>
