<svg xmlns="http://www.w3.org/2000/svg" xmlns:xlink="http://www.w3.org/1999/xlink" width="190" height="115" viewBox="0 0 190 115">
  <defs>
    <clipPath id="clip-path">
      <rect id="Rectángulo_45254" data-name="Rectángulo 45254" width="190" height="115" transform="translate(1020 9470)" fill="#2ff980"/>
    </clipPath>
  </defs>
  <g id="Enmascarar_grupo_142" data-name="Enmascarar grupo 142" transform="translate(-1020 -9470)" clip-path="url(#clip-path)">
    <g id="bulding" transform="translate(1061.603 9472.947)">
      <path id="Trazado_114479" data-name="Trazado 114479" d="M4,2H55.933V102.285H4Z" transform="translate(2.372 0.813)" fill="#b3bec4"/>
      <path id="Trazado_114480" data-name="Trazado 114480" d="M32.653,55.872A5.372,5.372,0,0,0,38.025,50.5V2.148H4V55.872Z" transform="translate(2.372 0.93)" fill="#c2cbd0"/>
      <path id="Trazado_114481" data-name="Trazado 114481" d="M21,20H35.326V37.908H21Z" transform="translate(15.816 15.048)" fill="#f5f5f5"/>
      <path id="Trazado_114482" data-name="Trazado 114482" d="M21,34H35.326V51.908H21Z" transform="translate(15.816 26.119)" fill="#f5f5f5"/>
      <path id="Trazado_114483" data-name="Trazado 114483" d="M14,48H33.7V65.908H14Z" transform="translate(10.28 37.19)" fill="#e0e0e0"/>
      <path id="Trazado_114484" data-name="Trazado 114484" d="M25,28H67.979V81.724H25Z" transform="translate(18.979 21.374)" fill="#b3bec4"/>
      <path id="Trazado_114485" data-name="Trazado 114485" d="M25,28V65.607H51.862a3.582,3.582,0,0,0,3.582-3.582V28Z" transform="translate(18.979 21.374)" fill="#c2cbd0"/>
      <path id="Trazado_114486" data-name="Trazado 114486" d="M2,58H109.448v7.163H2Z" transform="translate(0.791 45.098)" fill="#94a4ad"/>
      <g id="Grupo_83854" data-name="Grupo 83854" transform="translate(15.326 9.976)">
        <path id="Trazado_114487" data-name="Trazado 114487" d="M9,6H23.326V23.908H9Z" transform="translate(-9 -6)" fill="#f5f5f5"/>
        <path id="Trazado_114488" data-name="Trazado 114488" d="M21,6H35.326V23.908H21Z" transform="translate(0.49 -6)" fill="#f5f5f5"/>
        <path id="Trazado_114489" data-name="Trazado 114489" d="M9,20H23.326V37.908H9Z" transform="translate(-9 5.071)" fill="#f5f5f5"/>
        <path id="Trazado_114490" data-name="Trazado 114490" d="M9,34H23.326V51.908H9Z" transform="translate(-9 16.143)" fill="#f5f5f5"/>
        <path id="Trazado_114491" data-name="Trazado 114491" d="M29,32H39.745V42.745H29Z" transform="translate(6.816 14.561)" fill="#f5f5f5"/>
        <path id="Trazado_114492" data-name="Trazado 114492" d="M39,32H49.745V42.745H39Z" transform="translate(14.724 14.561)" fill="#f5f5f5"/>
        <path id="Trazado_114493" data-name="Trazado 114493" d="M29,42H39.745V52.745H29Z" transform="translate(6.816 22.469)" fill="#f5f5f5"/>
        <path id="Trazado_114494" data-name="Trazado 114494" d="M39,42H49.745V52.745H39Z" transform="translate(14.724 22.469)" fill="#f5f5f5"/>
      </g>
      <path id="Trazado_114495" data-name="Trazado 114495" d="M34,62.745V57.372a5.372,5.372,0,0,1,10.745,0v5.372Z" transform="translate(26.097 40.354)" fill="#e0e0e0"/>
      <ellipse id="Elipse_4809" data-name="Elipse 4809" cx="6.548" cy="8.419" rx="6.548" ry="8.419" transform="translate(94.545 78.377)" fill="#67ac5c"/>
      <path id="Trazado_114496" data-name="Trazado 114496" d="M59.7,41.389A19.586,19.586,0,0,1,48.381,37.8L40,41.389l3.592-8.381A19.688,19.688,0,1,1,59.7,41.389Z" transform="translate(30.841 0.822)" fill="#e0e0e0"/>
      <path id="Trazado_114497" data-name="Trazado 114497" d="M59.7,2a19.674,19.674,0,0,0-17.53,28.653h22.9a5.372,5.372,0,0,0,5.372-5.372V5.2A19.6,19.6,0,0,0,59.7,2Z" transform="translate(30.842 0.813)" fill="#f5f5f5"/>
      <path id="Trazado_114498" data-name="Trazado 114498" d="M62.693,18.46a8.252,8.252,0,0,0-6.75-12.414C55.609,6.016,55.271,6,54.928,6s-.681.016-1.015.047a8.252,8.252,0,0,0-6.75,12.414l7.765,12.611Z" transform="translate(35.612 3.976)" fill="#d4483f"/>
      <circle id="Elipse_4810" data-name="Elipse 4810" cx="3.742" cy="3.742" r="3.742" transform="translate(87.061 14.766)" fill="#f5f5f5"/>
      <path id="Trazado_114499" data-name="Trazado 114499" d="M60.163,44C56.207,44,53,48.01,53,52.954a10.873,10.873,0,0,0,.526,3.34,3.535,3.535,0,0,0,1.264.242h5.372a3.582,3.582,0,0,0,3.582-3.582V45.243A6.06,6.06,0,0,0,60.163,44Z" transform="translate(41.122 34.027)" fill="#85bd7d"/>
      <path id="Trazado_114500" data-name="Trazado 114500" d="M110.239,101.285h-7.163v-3.8c4.081-1,7.163-5.338,7.163-10.528,0-5.926-4.017-10.745-8.954-10.745s-8.954,4.819-8.954,10.745c0,5.193,3.082,9.529,7.163,10.528v3.8H88.75V49.352a1.791,1.791,0,0,0-1.791-1.791H60.1V2.791A1.791,1.791,0,0,0,58.306,1H6.372A1.791,1.791,0,0,0,4.582,2.791v98.494H2.791A1.791,1.791,0,0,0,1,103.076v7.163a1.791,1.791,0,0,0,1.791,1.791H110.239a1.791,1.791,0,0,0,1.791-1.791v-7.163A1.791,1.791,0,0,0,110.239,101.285ZM95.913,86.959c0-3.951,2.41-7.163,5.372-7.163s5.372,3.213,5.372,7.163-2.41,7.163-5.372,7.163S95.913,90.909,95.913,86.959ZM85.168,101.285H72.632V97.7a7.163,7.163,0,0,0-14.326,0v3.582H45.77V51.143h39.4Zm-16.117,0H61.887V97.7a3.582,3.582,0,0,1,7.163,0Zm-19.7-53.724H43.979a1.791,1.791,0,0,0-1.791,1.791v1.791H38.607V36.816H49.352ZM42.189,76.214H38.607V61.887h3.582Zm0,25.071H26.071V86.959H42.189ZM8.163,4.582H56.515V47.561H52.933V35.025a1.791,1.791,0,0,0-1.791-1.791H36.816a1.791,1.791,0,0,0-1.791,1.791V52.933a1.791,1.791,0,0,0,1.791,1.791h5.372v3.582H36.816A1.791,1.791,0,0,0,35.025,60.1V78A1.791,1.791,0,0,0,36.816,79.8h5.372v3.582H24.28a1.791,1.791,0,0,0-1.791,1.791v16.117H8.163ZM108.448,108.448H4.582v-3.582H108.448Z" transform="translate(0 0.022)"/>
      <path id="Trazado_114501" data-name="Trazado 114501" d="M9.791,26.49H24.117A1.791,1.791,0,0,0,25.908,24.7V6.791A1.791,1.791,0,0,0,24.117,5H9.791A1.791,1.791,0,0,0,8,6.791V24.7A1.791,1.791,0,0,0,9.791,26.49ZM11.582,8.582H22.326V22.908H11.582Z" transform="translate(5.536 3.186)"/>
      <path id="Trazado_114502" data-name="Trazado 114502" d="M21.791,26.49H36.117A1.791,1.791,0,0,0,37.908,24.7V6.791A1.791,1.791,0,0,0,36.117,5H21.791A1.791,1.791,0,0,0,20,6.791V24.7A1.791,1.791,0,0,0,21.791,26.49ZM23.582,8.582H34.326V22.908H23.582Z" transform="translate(15.025 3.186)"/>
      <path id="Trazado_114503" data-name="Trazado 114503" d="M9.791,40.49H24.117A1.791,1.791,0,0,0,25.908,38.7V20.791A1.791,1.791,0,0,0,24.117,19H9.791A1.791,1.791,0,0,0,8,20.791V38.7A1.791,1.791,0,0,0,9.791,40.49Zm1.791-17.908H22.326V36.908H11.582Z" transform="translate(5.536 14.257)"/>
      <path id="Trazado_114504" data-name="Trazado 114504" d="M24.117,54.49A1.791,1.791,0,0,0,25.908,52.7V34.791A1.791,1.791,0,0,0,24.117,33H9.791A1.791,1.791,0,0,0,8,34.791V52.7A1.791,1.791,0,0,0,9.791,54.49ZM11.582,36.582H22.326V50.908H11.582Z" transform="translate(5.536 25.328)"/>
      <path id="Trazado_114505" data-name="Trazado 114505" d="M29.791,45.326H40.536a1.791,1.791,0,0,0,1.791-1.791V32.791A1.791,1.791,0,0,0,40.536,31H29.791A1.791,1.791,0,0,0,28,32.791V43.536A1.791,1.791,0,0,0,29.791,45.326Zm1.791-10.745h7.163v7.163H31.582Z" transform="translate(21.352 23.747)"/>
      <path id="Trazado_114506" data-name="Trazado 114506" d="M39.791,45.326H50.536a1.791,1.791,0,0,0,1.791-1.791V32.791A1.791,1.791,0,0,0,50.536,31H39.791A1.791,1.791,0,0,0,38,32.791V43.536A1.791,1.791,0,0,0,39.791,45.326Zm1.791-10.745h7.163v7.163H41.582Z" transform="translate(29.26 23.747)"/>
      <path id="Trazado_114507" data-name="Trazado 114507" d="M29.791,55.326H40.536a1.791,1.791,0,0,0,1.791-1.791V42.791A1.791,1.791,0,0,0,40.536,41H29.791A1.791,1.791,0,0,0,28,42.791V53.536A1.791,1.791,0,0,0,29.791,55.326Zm1.791-10.745h7.163v7.163H31.582Z" transform="translate(21.352 31.655)"/>
      <path id="Trazado_114508" data-name="Trazado 114508" d="M39.791,55.326H50.536a1.791,1.791,0,0,0,1.791-1.791V42.791A1.791,1.791,0,0,0,50.536,41H39.791A1.791,1.791,0,0,0,38,42.791V53.536A1.791,1.791,0,0,0,39.791,55.326Zm1.791-10.745h7.163v7.163H41.582Z" transform="translate(29.26 31.655)"/>
      <path id="Trazado_114509" data-name="Trazado 114509" d="M39.145,41.505A1.791,1.791,0,0,0,40.791,44a1.771,1.771,0,0,0,.706-.145l7.487-3.209a21.515,21.515,0,1,0-6.626-6.626ZM60.49,4.6A17.908,17.908,0,1,1,50.2,37.156a1.791,1.791,0,0,0-1.735-.179l-4.273,1.832,1.828-4.266a1.791,1.791,0,0,0-.179-1.737A17.888,17.888,0,0,1,60.49,4.6Z" transform="translate(30.051 0)"/>
      <path id="Trazado_114510" data-name="Trazado 114510" d="M54.217,32.8a1.791,1.791,0,0,0,3.044,0l7.765-12.611a9.67,9.67,0,0,0,.417-9.459,10.474,10.474,0,0,0-8.528-5.68,13.22,13.22,0,0,0-2.351,0,10.474,10.474,0,0,0-8.522,5.68,9.67,9.67,0,0,0,.41,9.457ZM49.244,12.343a6.914,6.914,0,0,1,5.643-3.716,7.964,7.964,0,0,1,.856-.045c.288,0,.575.014.851.038a6.916,6.916,0,0,1,5.648,3.723,6.037,6.037,0,0,1-.258,5.978L55.743,28.448,49.5,18.314a6.037,6.037,0,0,1-.258-5.971Z" transform="translate(34.797 3.185)"/>
      <path id="Trazado_114511" data-name="Trazado 114511" d="M53.372,18.745A5.372,5.372,0,1,0,48,13.372,5.372,5.372,0,0,0,53.372,18.745Zm0-7.163a1.791,1.791,0,1,1-1.791,1.791A1.791,1.791,0,0,1,53.372,11.582Z" transform="translate(37.168 5.558)"/>
    </g>
  </g>
</svg>
