<svg xmlns="http://www.w3.org/2000/svg" width="188.976" height="177.874" viewBox="0 0 188.976 177.874">
  <g id="Grupo_955837" data-name="Grupo 955837" transform="translate(-330.23 -109.242)">
    <g id="Grupo_82299" data-name="Grupo 82299" transform="translate(369.855 109.242)">
      <g id="Grupo_82297" data-name="Grupo 82297">
        <path id="Trazado_119423" data-name="Trazado 119423" d="M459.272,288.212,377.666,241.1c-3.223-1.86-2.818-5.11.9-7.259L424.882,207.1c3.721-2.148,9.35-2.381,12.573-.521l81.605,47.115c3.223,1.86,2.818,5.11-.9,7.259l-46.313,26.739C468.123,289.839,462.495,290.072,459.272,288.212Z" transform="translate(-375.49 -121.205)" fill="#92b4d1" opacity="0.2"/>
        <path id="Trazado_119424" data-name="Trazado 119424" d="M459.272,282.958l-81.606-47.116a3.758,3.758,0,0,1-2.175-3.095c0-.037,0-4.005,0-4.042.025-1.411,1.068,1.038,3.077-.122l46.314-26.739c3.721-2.148,9.35-2.381,12.573-.521l81.606,47.116c1.076.621,1.856-2.015,2.135-1.178.093.279.033,3.978.039,4.267.031,1.445-1.012,2.977-3.077,4.169l-46.313,26.738C468.123,284.584,462.495,284.818,459.272,282.958Z" transform="translate(-375.49 -120.551)" fill="#2672ab"/>
        <path id="Trazado_119425" data-name="Trazado 119425" d="M459.272,278.426,377.666,231.31c-3.223-1.86-2.818-5.11.9-7.259l46.314-26.739c3.721-2.148,9.35-2.381,12.573-.521l81.605,47.115c3.223,1.86,2.818,5.11-.9,7.259L471.845,277.9C468.123,280.052,462.495,280.286,459.272,278.426Z" transform="translate(-375.49 -119.986)" fill="#d1ebff"/>
        <path id="Trazado_119426" data-name="Trazado 119426" d="M471.187,294.108c3.223,1.86,8.851,1.627,12.573-.522v-3.968c-3.722,2.148-9.35,2.382-12.573.522Z" transform="translate(-387.405 -131.7)" fill="#3f92d1" opacity="0.5"/>
        <path id="Trazado_119427" data-name="Trazado 119427" d="M459.272,283.031l-81.606-47.116a3.638,3.638,0,0,1-2.158-3.393,1.654,1.654,0,0,0-.017.222c0,.038,0,4.006,0,4.043a3.758,3.758,0,0,0,2.175,3.095L459.272,287Z" transform="translate(-375.49 -124.592)" fill="#3f92d1"/>
        <path id="Trazado_119428" data-name="Trazado 119428" d="M518.158,255.077l-46.313,26.739c-3.722,2.148-9.35,2.381-12.573.521l-81.606-47.116a3.851,3.851,0,0,1-2.15-2.856c-.168,1.317.536,2.6,2.15,3.53l81.606,47.116c3.223,1.86,8.851,1.627,12.573-.522l46.313-26.738c2.177-1.257,3.209-2.891,3.054-4.4C521.044,252.659,520.015,254.006,518.158,255.077Z" transform="translate(-375.49 -124.572)" fill="#fff"/>
        <path id="Trazado_119429" data-name="Trazado 119429" d="M445.783,267.9l-29.044-16.768c-.581-.336-.509-.922.163-1.31l10.9-6.3a2.521,2.521,0,0,1,2.269-.094L459.118,260.2c.582.336.509.923-.163,1.311l-10.9,6.295A2.522,2.522,0,0,1,445.783,267.9Z" transform="translate(-380.577 -125.922)" fill="#fff" opacity="0.3"/>
        <path id="Trazado_119430" data-name="Trazado 119430" d="M416.9,250.512l10.9-6.3a2.526,2.526,0,0,1,2.269-.094l29.043,16.768a.875.875,0,0,1,.269.236.608.608,0,0,0-.269-.924l-29.043-16.767a2.521,2.521,0,0,0-2.269.094l-10.9,6.3c-.534.308-.682.741-.431,1.074A1.264,1.264,0,0,1,416.9,250.512Z" transform="translate(-380.578 -125.922)" fill="#a8cff0"/>
        <path id="Trazado_119431" data-name="Trazado 119431" d="M436.218,203.658l5.005,2.889a2.538,2.538,0,0,0,2.3,0,.7.7,0,0,0-.007-1.326l-5.005-2.89a2.54,2.54,0,0,0-2.3,0A.7.7,0,0,0,436.218,203.658Zm8.569,4.947,2.371,1.369a2.54,2.54,0,0,0,2.3,0,.7.7,0,0,0-.007-1.326l-2.371-1.368a2.54,2.54,0,0,0-2.3,0A.7.7,0,0,0,444.788,208.606Zm5.936,3.427,2.371,1.369a2.54,2.54,0,0,0,2.3,0,.7.7,0,0,0-.008-1.327l-2.371-1.368a2.538,2.538,0,0,0-2.3,0A.7.7,0,0,0,450.724,212.033Zm5.935,3.428,2.372,1.368a2.538,2.538,0,0,0,2.3,0,.7.7,0,0,0-.007-1.327l-2.371-1.368a2.54,2.54,0,0,0-2.3,0A.7.7,0,0,0,456.659,215.46Zm5.936,3.427,2.371,1.368a2.54,2.54,0,0,0,2.3,0,.7.7,0,0,0-.007-1.326l-2.372-1.369a2.538,2.538,0,0,0-2.3,0A.7.7,0,0,0,462.594,218.887Zm5.936,3.427,2.371,1.369a2.541,2.541,0,0,0,2.3,0,.7.7,0,0,0-.007-1.326l-2.371-1.369a2.543,2.543,0,0,0-2.3,0A.7.7,0,0,0,468.53,222.313Zm5.935,3.427,2.371,1.369a2.543,2.543,0,0,0,2.3,0,.7.7,0,0,0-.007-1.327l-2.371-1.368a2.54,2.54,0,0,0-2.3,0A.7.7,0,0,0,474.465,225.74Zm5.936,3.427,2.371,1.369a2.54,2.54,0,0,0,2.3,0,.7.7,0,0,0-.008-1.327l-2.371-1.368a2.538,2.538,0,0,0-2.3,0A.7.7,0,0,0,480.4,229.167Zm5.936,3.428,2.371,1.368a2.538,2.538,0,0,0,2.3,0,.7.7,0,0,0-.007-1.326l-2.371-1.369a2.54,2.54,0,0,0-2.3,0A.7.7,0,0,0,486.337,232.594Zm5.935,3.427,2.371,1.368a2.54,2.54,0,0,0,2.3,0,.7.7,0,0,0-.007-1.326l-2.371-1.369a2.54,2.54,0,0,0-2.3,0A.7.7,0,0,0,492.272,236.021Zm5.936,3.427,2.371,1.369a2.54,2.54,0,0,0,2.3,0,.7.7,0,0,0-.008-1.326l-2.371-1.368a2.538,2.538,0,0,0-2.3,0A.7.7,0,0,0,498.208,239.448Zm5.935,3.427,2.372,1.369a2.538,2.538,0,0,0,2.3,0,.7.7,0,0,0-.007-1.327l-2.371-1.368a2.54,2.54,0,0,0-2.3,0A.7.7,0,0,0,504.143,242.874Zm6.059,3.5,2.371,1.369a2.543,2.543,0,0,0,2.3,0,.7.7,0,0,0-.007-1.326l-2.372-1.369a2.541,2.541,0,0,0-2.3,0A.7.7,0,0,0,510.2,246.373ZM430.88,206.924l2.052,1.185a2.891,2.891,0,0,0,2.615,0l2.04-1.178a.8.8,0,0,0-.008-1.51l-2.052-1.185a2.893,2.893,0,0,0-2.616-.005l-2.039,1.178A.8.8,0,0,0,430.88,206.924Zm10.6,4.616,2.04-1.178a.8.8,0,0,0-.008-1.509l-2.053-1.185a2.889,2.889,0,0,0-2.615,0l-2.04,1.178a.8.8,0,0,0,.008,1.509l2.053,1.185A2.889,2.889,0,0,0,441.483,211.541Zm1.268,2.238,2.053,1.185a2.889,2.889,0,0,0,2.615,0l2.04-1.178a.8.8,0,0,0-.009-1.509l-2.052-1.185a2.889,2.889,0,0,0-2.615,0l-2.04,1.178A.8.8,0,0,0,442.75,213.778Zm5.936,3.427,2.052,1.185a2.891,2.891,0,0,0,2.615.005l2.04-1.178a.8.8,0,0,0-.008-1.51l-2.053-1.185a2.891,2.891,0,0,0-2.615,0l-2.04,1.178A.8.8,0,0,0,448.686,217.2Zm12.634,1.929-2.052-1.185a2.889,2.889,0,0,0-2.615-.005l-2.04,1.178a.8.8,0,0,0,.008,1.51l2.053,1.185a2.889,2.889,0,0,0,2.615.005l2.04-1.178A.8.8,0,0,0,461.321,219.134Zm5.936,3.427-2.052-1.185a2.891,2.891,0,0,0-2.615-.005l-2.04,1.178a.8.8,0,0,0,.008,1.509l2.053,1.185a2.891,2.891,0,0,0,2.615,0l2.039-1.178A.8.8,0,0,0,467.256,222.56Zm5.936,3.428-2.053-1.185a2.889,2.889,0,0,0-2.615,0l-2.04,1.178a.8.8,0,0,0,.009,1.509l2.052,1.185a2.889,2.889,0,0,0,2.615,0l2.04-1.178A.8.8,0,0,0,473.192,225.988Zm5.935,3.427-2.052-1.185a2.891,2.891,0,0,0-2.615,0l-2.04,1.178a.8.8,0,0,0,.008,1.51l2.053,1.185a2.891,2.891,0,0,0,2.615.005l2.04-1.178A.8.8,0,0,0,479.127,229.415Zm5.936,3.427-2.052-1.185a2.893,2.893,0,0,0-2.616,0l-2.039,1.178a.8.8,0,0,0,.008,1.51l2.052,1.185a2.889,2.889,0,0,0,2.615.005l2.04-1.178A.8.8,0,0,0,485.063,232.841ZM491,236.268l-2.053-1.185a2.891,2.891,0,0,0-2.615-.005l-2.04,1.178a.8.8,0,0,0,.008,1.51l2.053,1.185a2.891,2.891,0,0,0,2.615,0l2.04-1.178A.8.8,0,0,0,491,236.268Zm-.764,4.925,2.053,1.185a2.889,2.889,0,0,0,2.615,0l2.04-1.178a.8.8,0,0,0-.009-1.51l-2.052-1.185a2.891,2.891,0,0,0-2.615-.005l-2.04,1.178A.8.8,0,0,0,490.234,241.193Zm12.635,1.93-2.053-1.185a2.889,2.889,0,0,0-2.615,0l-2.04,1.178a.8.8,0,0,0,.009,1.509l2.052,1.185a2.891,2.891,0,0,0,2.615.005l2.04-1.178A.8.8,0,0,0,502.87,243.122Zm8.693,5.019-4.687-2.706a2.891,2.891,0,0,0-2.615-.005l-2.04,1.178a.8.8,0,0,0,.008,1.509l4.687,2.706a2.889,2.889,0,0,0,2.615,0l2.04-1.178A.8.8,0,0,0,511.563,248.141ZM425.382,210.1l4.686,2.705a2.891,2.891,0,0,0,2.615.005l2.04-1.178a.8.8,0,0,0-.008-1.51l-4.687-2.706a2.889,2.889,0,0,0-2.615,0l-2.04,1.178A.8.8,0,0,0,425.382,210.1Zm8.569,4.947L436,216.231a2.891,2.891,0,0,0,2.615,0l2.04-1.178a.8.8,0,0,0-.009-1.51l-2.052-1.185a2.889,2.889,0,0,0-2.615-.005l-2.04,1.178A.8.8,0,0,0,433.952,215.046Zm7.988,4.612a2.889,2.889,0,0,0,2.615,0l2.04-1.178a.8.8,0,0,0-.008-1.51l-2.053-1.185a2.891,2.891,0,0,0-2.615-.005l-2.04,1.178a.8.8,0,0,0,.009,1.509Zm5.936,3.427a2.889,2.889,0,0,0,2.615,0l2.04-1.178a.8.8,0,0,0-.009-1.509l-2.052-1.185a2.889,2.889,0,0,0-2.615,0l-2.04,1.178a.8.8,0,0,0,.008,1.509Zm5.915-.446-2.04,1.178a.8.8,0,0,0,.008,1.51l2.052,1.185a2.893,2.893,0,0,0,2.616.005l2.039-1.178a.8.8,0,0,0-.008-1.509l-2.052-1.185A2.891,2.891,0,0,0,453.79,222.639Zm6.06,3.354-2.29,1.323a.721.721,0,0,0,.007,1.365l2.305,1.331a2.612,2.612,0,0,0,2.364,0l2.29-1.322a.72.72,0,0,0-.007-1.365L462.214,226A2.612,2.612,0,0,0,459.851,225.993Zm5.936,3.428-2.29,1.322a.72.72,0,0,0,.007,1.365l2.305,1.331a2.612,2.612,0,0,0,2.364,0l2.29-1.323a.72.72,0,0,0-.008-1.364l-2.3-1.332A2.612,2.612,0,0,0,465.786,229.421Zm5.936,3.427-2.291,1.322a.72.72,0,0,0,.008,1.365l2.305,1.331a2.611,2.611,0,0,0,2.363,0l2.291-1.323a.72.72,0,0,0-.008-1.364l-2.305-1.331A2.61,2.61,0,0,0,471.722,232.847Zm5.935,3.427-2.29,1.323a.72.72,0,0,0,.007,1.364l2.305,1.331a2.612,2.612,0,0,0,2.364,0l2.29-1.322a.72.72,0,0,0-.007-1.365l-2.305-1.331A2.612,2.612,0,0,0,477.657,236.274Zm5.936,3.427-2.291,1.323a.72.72,0,0,0,.008,1.364l2.305,1.332a2.61,2.61,0,0,0,2.363,0l2.291-1.322a.721.721,0,0,0-.008-1.365l-2.3-1.331A2.612,2.612,0,0,0,483.593,239.7Zm8.321,7.45,2.29-1.323a.72.72,0,0,0-.007-1.365l-2.305-1.331a2.613,2.613,0,0,0-2.363,0l-2.291,1.323a.721.721,0,0,0,.007,1.365l2.305,1.331A2.612,2.612,0,0,0,491.914,247.15Zm5.936,3.427,2.29-1.323a.72.72,0,0,0-.007-1.364l-2.305-1.331a2.612,2.612,0,0,0-2.364,0l-2.29,1.322a.72.72,0,0,0,.007,1.365l2.305,1.331A2.612,2.612,0,0,0,497.85,250.577Zm8.342.811-2.305-1.331a2.61,2.61,0,0,0-2.363,0l-2.291,1.323a.72.72,0,0,0,.008,1.364l2.305,1.332a2.613,2.613,0,0,0,2.363,0l2.291-1.322A.721.721,0,0,0,506.191,251.388ZM419.758,213.2l7.442,4.3a2.612,2.612,0,0,0,2.364,0l2.29-1.322a.72.72,0,0,0-.007-1.365l-7.443-4.3a2.613,2.613,0,0,0-2.363,0l-2.291,1.323A.72.72,0,0,0,419.758,213.2Zm11.072,6.392,2.305,1.332a2.615,2.615,0,0,0,2.364,0l2.29-1.323a.72.72,0,0,0-.008-1.365l-2.3-1.331a2.612,2.612,0,0,0-2.364,0l-2.29,1.323A.72.72,0,0,0,430.831,219.592Zm5.936,3.428,2.305,1.331a2.61,2.61,0,0,0,2.363,0l2.291-1.323a.72.72,0,0,0-.008-1.364l-2.305-1.332a2.61,2.61,0,0,0-2.363,0l-2.291,1.322A.72.72,0,0,0,436.766,223.019Zm5.935,3.427,2.305,1.331a2.612,2.612,0,0,0,2.364,0l2.29-1.323a.72.72,0,0,0-.007-1.364l-2.305-1.331a2.612,2.612,0,0,0-2.364,0l-2.29,1.322A.72.72,0,0,0,442.7,226.446Zm10.6,4.762,2.291-1.322a.721.721,0,0,0-.008-1.365l-2.305-1.331a2.611,2.611,0,0,0-2.363,0l-2.291,1.323a.72.72,0,0,0,.008,1.364l2.305,1.331A2.61,2.61,0,0,0,453.305,231.208Zm5.936,3.427,2.29-1.322a.72.72,0,0,0-.007-1.365l-2.305-1.331a2.612,2.612,0,0,0-2.364,0l-2.29,1.323a.72.72,0,0,0,.008,1.364l2.3,1.331A2.612,2.612,0,0,0,459.241,234.634Zm5.936,3.428,2.29-1.323a.721.721,0,0,0-.007-1.365l-2.305-1.331a2.615,2.615,0,0,0-2.364,0l-2.29,1.323a.72.72,0,0,0,.007,1.365l2.305,1.331A2.615,2.615,0,0,0,465.177,238.062Zm5.935,3.427,2.291-1.323a.72.72,0,0,0-.008-1.364l-2.305-1.332a2.613,2.613,0,0,0-2.363,0l-2.291,1.322a.72.72,0,0,0,.008,1.365l2.305,1.331A2.61,2.61,0,0,0,471.112,241.488Zm5.936,3.427,2.29-1.323a.72.72,0,0,0-.007-1.364l-2.305-1.331a2.612,2.612,0,0,0-2.364,0l-2.29,1.322a.721.721,0,0,0,.007,1.365l2.305,1.331A2.612,2.612,0,0,0,477.048,244.915Zm5.936,3.427,2.29-1.322a.72.72,0,0,0-.008-1.365l-2.3-1.331a2.612,2.612,0,0,0-2.364,0l-2.29,1.323a.72.72,0,0,0,.007,1.364l2.305,1.331A2.612,2.612,0,0,0,482.984,248.342Zm1.267,2.092,2.305,1.331a2.61,2.61,0,0,0,2.363,0l2.291-1.322a.72.72,0,0,0-.008-1.365l-2.305-1.331a2.61,2.61,0,0,0-2.363,0l-2.291,1.323A.72.72,0,0,0,484.251,250.434Zm16.444,4.128-5.861-3.385a2.615,2.615,0,0,0-2.364,0l-2.29,1.323a.72.72,0,0,0,.007,1.365l5.861,3.384a2.612,2.612,0,0,0,2.364,0l2.29-1.323A.72.72,0,0,0,500.694,254.562Zm-86.411-38.024,10.56,6.1a2.951,2.951,0,0,0,2.669.005l1.986-1.146a.814.814,0,0,0-.009-1.542l-10.559-6.1a2.953,2.953,0,0,0-2.67,0L414.275,215A.814.814,0,0,0,414.283,216.538Zm14.5,8.37,2,1.153a2.95,2.95,0,0,0,2.67.005l1.985-1.146a.814.814,0,0,0-.008-1.542l-2-1.153a2.952,2.952,0,0,0-2.67-.005l-1.985,1.146A.814.814,0,0,0,428.78,224.908Zm5.936,3.427,2,1.154a2.95,2.95,0,0,0,2.669,0l1.986-1.146a.814.814,0,0,0-.009-1.542l-2-1.153a2.952,2.952,0,0,0-2.67-.005l-1.986,1.147A.813.813,0,0,0,434.716,228.334Zm5.936,3.427,2,1.154a2.95,2.95,0,0,0,2.67,0l1.985-1.146a.813.813,0,0,0-.008-1.541l-2-1.154a2.95,2.95,0,0,0-2.67,0l-1.985,1.146A.813.813,0,0,0,440.652,231.761Zm5.935,3.428,2,1.153a2.952,2.952,0,0,0,2.67.005l1.985-1.147a.813.813,0,0,0-.008-1.541l-2-1.154a2.952,2.952,0,0,0-2.67,0l-1.985,1.146A.814.814,0,0,0,446.587,235.188Zm5.936,3.427,2,1.153a2.951,2.951,0,0,0,2.669.005l1.986-1.146a.814.814,0,0,0-.009-1.542l-2-1.154a2.951,2.951,0,0,0-2.669,0l-1.986,1.146A.814.814,0,0,0,452.523,238.615Zm5.935,3.427,2,1.154a2.953,2.953,0,0,0,2.67,0l1.985-1.146a.814.814,0,0,0-.008-1.542l-2-1.153a2.953,2.953,0,0,0-2.67-.005L458.45,240.5A.814.814,0,0,0,458.458,242.042Zm5.936,3.427,2,1.154a2.951,2.951,0,0,0,2.669,0l1.986-1.146a.814.814,0,0,0-.009-1.542l-2-1.153a2.95,2.95,0,0,0-2.67,0l-1.985,1.146A.813.813,0,0,0,464.393,245.469Zm5.936,3.428,2,1.153a2.953,2.953,0,0,0,2.67.005l1.986-1.147a.813.813,0,0,0-.009-1.541l-2-1.154a2.948,2.948,0,0,0-2.669,0l-1.986,1.146A.814.814,0,0,0,470.329,248.9Zm5.935,3.427,2,1.153a2.953,2.953,0,0,0,2.67.005l1.985-1.147a.813.813,0,0,0-.008-1.541l-2-1.154a2.953,2.953,0,0,0-2.67,0l-1.985,1.146A.814.814,0,0,0,476.264,252.323Zm5.936,3.427,2,1.153a2.948,2.948,0,0,0,2.669.005l1.986-1.146a.814.814,0,0,0-.009-1.542l-2-1.153a2.948,2.948,0,0,0-2.669-.005l-1.986,1.146A.814.814,0,0,0,482.2,255.749Zm12.711,1.973-2-1.153a2.953,2.953,0,0,0-2.67-.005l-1.986,1.146a.814.814,0,0,0,.009,1.542l2,1.153a2.948,2.948,0,0,0,2.669.005l1.986-1.146A.814.814,0,0,0,494.911,257.723ZM418.064,219.7l-4.631-2.675a2.953,2.953,0,0,0-2.67-.005l-1.986,1.147a.813.813,0,0,0,.009,1.541l4.632,2.675a2.948,2.948,0,0,0,2.669,0l1.986-1.146A.813.813,0,0,0,418.064,219.7ZM424,223.13l-2-1.154a2.951,2.951,0,0,0-2.669,0l-1.986,1.146a.814.814,0,0,0,.009,1.542l2,1.153a2.953,2.953,0,0,0,2.67.005l1.986-1.147A.813.813,0,0,0,424,223.13Zm5.936,3.427-2-1.153a2.95,2.95,0,0,0-2.67-.005l-1.985,1.146a.814.814,0,0,0,.008,1.542l2,1.153a2.95,2.95,0,0,0,2.67.005l1.985-1.146A.814.814,0,0,0,429.936,226.557Zm41.548,23.988-37.611-21.714a2.951,2.951,0,0,0-2.669-.005l-1.986,1.146a.814.814,0,0,0,.009,1.542l37.61,21.715a2.95,2.95,0,0,0,2.67,0l1.986-1.146A.814.814,0,0,0,471.484,250.545Zm5.936,3.428-2-1.154a2.953,2.953,0,0,0-2.67,0l-1.985,1.146a.814.814,0,0,0,.008,1.542l2,1.153a2.953,2.953,0,0,0,2.67.005l1.985-1.147A.813.813,0,0,0,477.42,253.972Zm5.935,3.427-2-1.154a2.951,2.951,0,0,0-2.669,0l-1.986,1.146a.814.814,0,0,0,.009,1.542l2,1.153a2.951,2.951,0,0,0,2.669.005l1.986-1.146A.814.814,0,0,0,483.355,257.4Zm6.059,3.5-2-1.154a2.948,2.948,0,0,0-2.669,0l-1.986,1.146a.814.814,0,0,0,.009,1.542l2,1.153a2.95,2.95,0,0,0,2.67,0l1.986-1.146A.813.813,0,0,0,489.414,260.9Z" transform="translate(-379.566 -120.799)" fill="#72b5e8"/>
        <path id="Trazado_119432" data-name="Trazado 119432" d="M436.218,203.027l5.005,2.89a2.538,2.538,0,0,0,2.3,0,.7.7,0,0,0-.007-1.327l-5.005-2.889a2.54,2.54,0,0,0-2.3,0A.7.7,0,0,0,436.218,203.027Zm8.569,4.948,2.371,1.368a2.54,2.54,0,0,0,2.3,0,.7.7,0,0,0-.007-1.326l-2.371-1.369a2.54,2.54,0,0,0-2.3,0A.7.7,0,0,0,444.788,207.975Zm5.936,3.427,2.371,1.368a2.54,2.54,0,0,0,2.3,0,.7.7,0,0,0-.008-1.326l-2.371-1.369a2.538,2.538,0,0,0-2.3,0A.7.7,0,0,0,450.724,211.4Zm5.935,3.427,2.372,1.369a2.541,2.541,0,0,0,2.3,0,.7.7,0,0,0-.007-1.326l-2.371-1.369a2.543,2.543,0,0,0-2.3,0A.7.7,0,0,0,456.659,214.828Zm5.936,3.427,2.371,1.369a2.54,2.54,0,0,0,2.3,0,.7.7,0,0,0-.007-1.327l-2.372-1.368a2.538,2.538,0,0,0-2.3,0A.7.7,0,0,0,462.594,218.255Zm5.936,3.428,2.371,1.368a2.538,2.538,0,0,0,2.3,0,.7.7,0,0,0-.007-1.327l-2.371-1.368a2.54,2.54,0,0,0-2.3,0A.7.7,0,0,0,468.53,221.682Zm5.935,3.427,2.371,1.368a2.54,2.54,0,0,0,2.3,0,.7.7,0,0,0-.007-1.326l-2.371-1.369a2.54,2.54,0,0,0-2.3,0A.7.7,0,0,0,474.465,225.109Zm5.936,3.427,2.371,1.369a2.543,2.543,0,0,0,2.3,0,.7.7,0,0,0-.008-1.326l-2.371-1.369a2.541,2.541,0,0,0-2.3,0A.7.7,0,0,0,480.4,228.536Zm5.936,3.427,2.371,1.369a2.538,2.538,0,0,0,2.3,0,.7.7,0,0,0-.007-1.326l-2.371-1.368a2.54,2.54,0,0,0-2.3,0A.7.7,0,0,0,486.337,231.962Zm5.935,3.427,2.371,1.369a2.54,2.54,0,0,0,2.3,0,.7.7,0,0,0-.007-1.327l-2.371-1.368a2.54,2.54,0,0,0-2.3,0A.7.7,0,0,0,492.272,235.389Zm5.936,3.428,2.371,1.368a2.54,2.54,0,0,0,2.3,0,.7.7,0,0,0-.008-1.327l-2.371-1.368a2.538,2.538,0,0,0-2.3,0A.7.7,0,0,0,498.208,238.817Zm5.935,3.427,2.372,1.368a2.538,2.538,0,0,0,2.3,0,.7.7,0,0,0-.007-1.326l-2.371-1.369a2.54,2.54,0,0,0-2.3,0A.7.7,0,0,0,504.143,242.243Zm6.059,3.5,2.371,1.369a2.54,2.54,0,0,0,2.3,0,.7.7,0,0,0-.007-1.327l-2.372-1.368a2.538,2.538,0,0,0-2.3,0A.7.7,0,0,0,510.2,245.741ZM430.88,206.293l2.052,1.185a2.891,2.891,0,0,0,2.615.005l2.04-1.178a.8.8,0,0,0-.008-1.509l-2.052-1.185a2.893,2.893,0,0,0-2.616,0l-2.039,1.178A.8.8,0,0,0,430.88,206.293Zm10.6,4.616,2.04-1.178a.8.8,0,0,0-.008-1.51l-2.053-1.185a2.891,2.891,0,0,0-2.615,0l-2.04,1.178a.8.8,0,0,0,.008,1.51l2.053,1.185A2.889,2.889,0,0,0,441.483,210.91Zm1.268,2.237,2.053,1.185a2.891,2.891,0,0,0,2.615,0l2.04-1.178a.8.8,0,0,0-.009-1.51l-2.052-1.185a2.891,2.891,0,0,0-2.615-.005l-2.04,1.178A.8.8,0,0,0,442.75,213.146Zm5.936,3.427,2.052,1.185a2.889,2.889,0,0,0,2.615,0l2.04-1.178a.8.8,0,0,0-.008-1.509l-2.053-1.185a2.891,2.891,0,0,0-2.615-.005l-2.04,1.178A.8.8,0,0,0,448.686,216.573Zm12.634,1.93-2.052-1.185a2.889,2.889,0,0,0-2.615,0l-2.04,1.178a.8.8,0,0,0,.008,1.509l2.053,1.185a2.888,2.888,0,0,0,2.615,0l2.04-1.178A.8.8,0,0,0,461.321,218.5Zm5.936,3.427-2.052-1.185a2.891,2.891,0,0,0-2.615,0l-2.04,1.178a.8.8,0,0,0,.008,1.51l2.053,1.185a2.891,2.891,0,0,0,2.615.005l2.039-1.178A.8.8,0,0,0,467.256,221.929Zm5.936,3.427-2.053-1.185a2.889,2.889,0,0,0-2.615-.005l-2.04,1.178a.8.8,0,0,0,.009,1.51l2.052,1.185a2.889,2.889,0,0,0,2.615.005l2.04-1.178A.8.8,0,0,0,473.192,225.356Zm5.935,3.427-2.052-1.185a2.891,2.891,0,0,0-2.615-.005l-2.04,1.178a.8.8,0,0,0,.008,1.509l2.053,1.185a2.891,2.891,0,0,0,2.615,0l2.04-1.178A.8.8,0,0,0,479.127,228.783Zm5.936,3.428-2.052-1.185a2.891,2.891,0,0,0-2.616,0l-2.039,1.178a.8.8,0,0,0,.008,1.509l2.052,1.185a2.889,2.889,0,0,0,2.615,0l2.04-1.178A.8.8,0,0,0,485.063,232.21ZM491,235.637l-2.053-1.185a2.889,2.889,0,0,0-2.615,0l-2.04,1.178a.8.8,0,0,0,.008,1.51l2.053,1.185a2.888,2.888,0,0,0,2.615,0l2.04-1.178A.8.8,0,0,0,491,235.637Zm-.764,4.925,2.053,1.185a2.891,2.891,0,0,0,2.615.005l2.04-1.178a.8.8,0,0,0-.009-1.51l-2.052-1.185a2.891,2.891,0,0,0-2.615,0l-2.04,1.178A.8.8,0,0,0,490.234,240.562Zm12.635,1.929-2.053-1.185a2.889,2.889,0,0,0-2.615-.005l-2.04,1.178a.8.8,0,0,0,.009,1.51l2.052,1.185a2.891,2.891,0,0,0,2.615,0l2.04-1.178A.8.8,0,0,0,502.87,242.49Zm8.693,5.019-4.687-2.706a2.891,2.891,0,0,0-2.615,0l-2.04,1.178a.8.8,0,0,0,.008,1.51l4.687,2.705a2.889,2.889,0,0,0,2.615.005l2.04-1.178A.8.8,0,0,0,511.563,247.509Zm-86.18-38.043,4.686,2.706a2.889,2.889,0,0,0,2.615,0l2.04-1.178a.8.8,0,0,0-.008-1.509l-4.687-2.706a2.891,2.891,0,0,0-2.615-.005l-2.04,1.178A.8.8,0,0,0,425.382,209.467Zm8.569,4.948L436,215.6a2.889,2.889,0,0,0,2.615,0l2.04-1.178a.8.8,0,0,0-.009-1.509l-2.052-1.185a2.889,2.889,0,0,0-2.615,0l-2.04,1.178A.8.8,0,0,0,433.952,214.415Zm7.988,4.611a2.891,2.891,0,0,0,2.615.005l2.04-1.178a.8.8,0,0,0-.008-1.51l-2.053-1.185a2.891,2.891,0,0,0-2.615,0l-2.04,1.178a.8.8,0,0,0,.009,1.51Zm5.936,3.427a2.889,2.889,0,0,0,2.615.005l2.04-1.178a.8.8,0,0,0-.009-1.51l-2.052-1.185a2.888,2.888,0,0,0-2.615-.005l-2.04,1.178a.8.8,0,0,0,.008,1.51Zm5.915-.446-2.04,1.178a.8.8,0,0,0,.008,1.509l2.052,1.185a2.893,2.893,0,0,0,2.616,0l2.039-1.178a.8.8,0,0,0-.008-1.51l-2.052-1.185A2.891,2.891,0,0,0,453.79,222.007Zm6.06,3.355-2.29,1.322a.721.721,0,0,0,.007,1.365l2.305,1.331a2.612,2.612,0,0,0,2.364,0l2.29-1.323a.72.72,0,0,0-.007-1.364l-2.305-1.331A2.612,2.612,0,0,0,459.851,225.362Zm5.936,3.427-2.29,1.323a.72.72,0,0,0,.007,1.364l2.305,1.331a2.612,2.612,0,0,0,2.364,0l2.29-1.322a.72.72,0,0,0-.008-1.365l-2.3-1.331A2.612,2.612,0,0,0,465.786,228.789Zm5.936,3.427-2.291,1.323a.72.72,0,0,0,.008,1.365l2.305,1.331a2.611,2.611,0,0,0,2.363,0l2.291-1.322a.72.72,0,0,0-.008-1.365l-2.305-1.331A2.61,2.61,0,0,0,471.722,232.215Zm5.935,3.427-2.29,1.323a.72.72,0,0,0,.007,1.365l2.305,1.331a2.612,2.612,0,0,0,2.364,0l2.29-1.323a.72.72,0,0,0-.007-1.364l-2.305-1.332A2.615,2.615,0,0,0,477.657,235.642Zm5.936,3.428-2.291,1.322a.721.721,0,0,0,.008,1.365l2.305,1.331a2.61,2.61,0,0,0,2.363,0l2.291-1.323a.72.72,0,0,0-.008-1.364l-2.3-1.331A2.612,2.612,0,0,0,483.593,239.07Zm8.321,7.449,2.29-1.322a.72.72,0,0,0-.007-1.365l-2.305-1.331a2.611,2.611,0,0,0-2.363,0l-2.291,1.323a.72.72,0,0,0,.007,1.364l2.305,1.331A2.612,2.612,0,0,0,491.914,246.518Zm5.936,3.427,2.29-1.322a.721.721,0,0,0-.007-1.365l-2.305-1.331a2.612,2.612,0,0,0-2.364,0l-2.29,1.323a.72.72,0,0,0,.007,1.364l2.305,1.331A2.612,2.612,0,0,0,497.85,249.945Zm8.342.812-2.305-1.331a2.61,2.61,0,0,0-2.363,0l-2.291,1.322a.721.721,0,0,0,.008,1.365l2.305,1.331a2.611,2.611,0,0,0,2.363,0l2.291-1.323A.72.72,0,0,0,506.191,250.757Zm-86.433-38.189,7.442,4.3a2.612,2.612,0,0,0,2.364,0l2.29-1.323a.72.72,0,0,0-.007-1.364l-7.443-4.3a2.61,2.61,0,0,0-2.363,0L419.75,211.2A.72.72,0,0,0,419.758,212.568Zm11.072,6.393,2.305,1.331a2.612,2.612,0,0,0,2.364,0l2.29-1.323a.72.72,0,0,0-.008-1.364l-2.3-1.331a2.612,2.612,0,0,0-2.364,0l-2.29,1.322A.72.72,0,0,0,430.831,218.961Zm5.936,3.427,2.305,1.331a2.61,2.61,0,0,0,2.363,0l2.291-1.322a.72.72,0,0,0-.008-1.365l-2.305-1.331a2.61,2.61,0,0,0-2.363,0l-2.291,1.323A.72.72,0,0,0,436.766,222.387Zm5.935,3.427,2.305,1.332a2.612,2.612,0,0,0,2.364,0l2.29-1.322a.72.72,0,0,0-.007-1.365l-2.305-1.331a2.612,2.612,0,0,0-2.364,0l-2.29,1.323A.72.72,0,0,0,442.7,225.814Zm10.6,4.763,2.291-1.323a.72.72,0,0,0-.008-1.365l-2.305-1.331a2.61,2.61,0,0,0-2.363,0l-2.291,1.322a.721.721,0,0,0,.008,1.365l2.305,1.331A2.61,2.61,0,0,0,453.305,230.577ZM459.241,234l2.29-1.323a.72.72,0,0,0-.007-1.364l-2.305-1.331a2.612,2.612,0,0,0-2.364,0l-2.29,1.322a.72.72,0,0,0,.008,1.365l2.3,1.331A2.612,2.612,0,0,0,459.241,234Zm5.936,3.427,2.29-1.323a.72.72,0,0,0-.007-1.364l-2.305-1.331a2.612,2.612,0,0,0-2.364,0l-2.29,1.322a.72.72,0,0,0,.007,1.365l2.305,1.331A2.612,2.612,0,0,0,465.177,237.43Zm5.935,3.427,2.291-1.322a.72.72,0,0,0-.008-1.365l-2.305-1.331a2.61,2.61,0,0,0-2.363,0l-2.291,1.323a.72.72,0,0,0,.008,1.364l2.305,1.331A2.611,2.611,0,0,0,471.112,240.857Zm5.936,3.428,2.29-1.323a.72.72,0,0,0-.007-1.365l-2.305-1.331a2.615,2.615,0,0,0-2.364,0l-2.29,1.323a.721.721,0,0,0,.007,1.365l2.305,1.331A2.615,2.615,0,0,0,477.048,244.284Zm5.936,3.427,2.29-1.323a.72.72,0,0,0-.008-1.364l-2.3-1.332a2.615,2.615,0,0,0-2.364,0l-2.29,1.322a.72.72,0,0,0,.007,1.365l2.305,1.331A2.612,2.612,0,0,0,482.984,247.711Zm1.267,2.092,2.305,1.331a2.61,2.61,0,0,0,2.363,0l2.291-1.323a.72.72,0,0,0-.008-1.364L488.9,247.12a2.61,2.61,0,0,0-2.363,0l-2.291,1.322A.72.72,0,0,0,484.251,249.8Zm16.444,4.128-5.861-3.384a2.612,2.612,0,0,0-2.364,0l-2.29,1.323a.72.72,0,0,0,.007,1.364l5.861,3.385a2.612,2.612,0,0,0,2.364,0l2.29-1.322A.72.72,0,0,0,500.694,253.93Zm-86.411-38.024,10.56,6.1a2.951,2.951,0,0,0,2.669,0l1.986-1.146a.814.814,0,0,0-.009-1.542l-10.559-6.1a2.953,2.953,0,0,0-2.67-.005l-1.985,1.147A.813.813,0,0,0,414.283,215.906Zm14.5,8.371,2,1.153a2.95,2.95,0,0,0,2.67,0l1.985-1.146a.813.813,0,0,0-.008-1.541l-2-1.154a2.95,2.95,0,0,0-2.67,0l-1.985,1.146A.814.814,0,0,0,428.78,224.277Zm5.936,3.427,2,1.153a2.951,2.951,0,0,0,2.669.005l1.986-1.147a.813.813,0,0,0-.009-1.541l-2-1.154a2.953,2.953,0,0,0-2.67,0l-1.986,1.146A.814.814,0,0,0,434.716,227.7Zm5.936,3.427,2,1.153a2.95,2.95,0,0,0,2.67.005l1.985-1.146a.814.814,0,0,0-.008-1.542l-2-1.153a2.95,2.95,0,0,0-2.67-.005l-1.985,1.146A.814.814,0,0,0,440.652,231.13Zm5.935,3.427,2,1.154a2.952,2.952,0,0,0,2.67,0l1.985-1.146a.814.814,0,0,0-.008-1.542l-2-1.153a2.953,2.953,0,0,0-2.67-.005l-1.985,1.147A.813.813,0,0,0,446.587,234.557Zm5.936,3.427,2,1.154a2.948,2.948,0,0,0,2.669,0L459.176,238a.814.814,0,0,0-.009-1.542l-2-1.153a2.948,2.948,0,0,0-2.669,0l-1.986,1.146A.813.813,0,0,0,452.523,237.983Zm5.935,3.428,2,1.153a2.95,2.95,0,0,0,2.67,0l1.985-1.146a.813.813,0,0,0-.008-1.541l-2-1.154a2.953,2.953,0,0,0-2.67,0l-1.985,1.146A.814.814,0,0,0,458.458,241.411Zm5.936,3.427,2,1.153a2.951,2.951,0,0,0,2.669.005l1.986-1.146a.814.814,0,0,0-.009-1.542l-2-1.154a2.953,2.953,0,0,0-2.67,0l-1.985,1.146A.814.814,0,0,0,464.393,244.837Zm5.936,3.427,2,1.154a2.953,2.953,0,0,0,2.67,0l1.986-1.146a.814.814,0,0,0-.009-1.542l-2-1.153a2.951,2.951,0,0,0-2.669-.005l-1.986,1.146A.814.814,0,0,0,470.329,248.264Zm5.935,3.427,2,1.154a2.953,2.953,0,0,0,2.67,0l1.985-1.146a.814.814,0,0,0-.008-1.542l-2-1.153a2.953,2.953,0,0,0-2.67-.005l-1.985,1.147A.813.813,0,0,0,476.264,251.691Zm5.936,3.427,2,1.154a2.948,2.948,0,0,0,2.669,0l1.986-1.146a.813.813,0,0,0-.009-1.541l-2-1.154a2.948,2.948,0,0,0-2.669,0l-1.986,1.146A.813.813,0,0,0,482.2,255.117Zm12.711,1.974-2-1.154a2.95,2.95,0,0,0-2.67,0l-1.986,1.146a.814.814,0,0,0,.009,1.542l2,1.153a2.948,2.948,0,0,0,2.669,0l1.986-1.146A.813.813,0,0,0,494.911,257.092Zm-76.847-38.02-4.631-2.675a2.953,2.953,0,0,0-2.67,0l-1.986,1.146a.814.814,0,0,0,.009,1.542l4.632,2.674a2.948,2.948,0,0,0,2.669.005l1.986-1.146A.814.814,0,0,0,418.064,219.072ZM424,222.5l-2-1.153a2.951,2.951,0,0,0-2.669-.005l-1.986,1.146a.814.814,0,0,0,.009,1.542l2,1.154a2.952,2.952,0,0,0,2.67,0l1.986-1.146A.814.814,0,0,0,424,222.5Zm5.936,3.428-2-1.154a2.95,2.95,0,0,0-2.67,0l-1.985,1.146a.813.813,0,0,0,.008,1.541l2,1.154a2.95,2.95,0,0,0,2.67,0l1.985-1.146A.813.813,0,0,0,429.936,225.926Zm41.548,23.988L433.873,228.2a2.951,2.951,0,0,0-2.669,0l-1.986,1.146a.814.814,0,0,0,.009,1.542l37.61,21.714a2.95,2.95,0,0,0,2.67.005l1.986-1.146A.814.814,0,0,0,471.484,249.914Zm5.936,3.427-2-1.153a2.953,2.953,0,0,0-2.67-.005l-1.985,1.147a.813.813,0,0,0,.008,1.541l2,1.154a2.952,2.952,0,0,0,2.67,0l1.985-1.146A.814.814,0,0,0,477.42,253.34Zm5.935,3.427-2-1.153a2.951,2.951,0,0,0-2.669-.005l-1.986,1.147a.813.813,0,0,0,.009,1.541l2,1.154a2.948,2.948,0,0,0,2.669,0l1.986-1.146A.814.814,0,0,0,483.355,256.767Zm6.059,3.5-2-1.153a2.948,2.948,0,0,0-2.669-.005l-1.986,1.146a.814.814,0,0,0,.009,1.542l2,1.153a2.95,2.95,0,0,0,2.67.005l1.986-1.146A.814.814,0,0,0,489.414,260.265Z" transform="translate(-379.566 -120.72)" fill="#a8cff0"/>
        <g id="Grupo_82296" data-name="Grupo 82296" transform="translate(58.138)">
          <path id="Trazado_119433" data-name="Trazado 119433" d="M526.035,232.655l-78.628-45.423c-3.044-1.757-5.511-6.473-5.511-10.531V115.018c0-4.059,2.467-5.924,5.511-4.166l78.628,45.422c3.044,1.758,5.512,6.472,5.512,10.531v61.682C531.547,232.546,529.079,234.412,526.035,232.655Z" transform="translate(-441.896 -109.36)" fill="#a8cff0"/>
          <path id="Trazado_119434" data-name="Trazado 119434" d="M527.185,229.99,449.4,185.057a9.374,9.374,0,0,1-3.965-7.851V115.224a.978.978,0,0,1,1.472-.841l.173.1,77.851,44.976c2.916,1.682,3.965,4.668,3.965,7.851v61.837a1.055,1.055,0,0,1-1.578.916Z" transform="translate(-442.336 -109.865)" fill="#03336e"/>
          <path id="Trazado_119435" data-name="Trazado 119435" d="M524.927,159.459l-77.851-44.976-.173-.1a.978.978,0,0,0-1.472.841v61.981a9.374,9.374,0,0,0,3.965,7.851l77.789,44.933.129.074a1.055,1.055,0,0,0,1.578-.916V167.311C528.892,164.127,527.843,161.141,524.927,159.459Zm3.346,69.688a.438.438,0,0,1-.438.436.434.434,0,0,1-.214-.058L449.706,184.52a8.731,8.731,0,0,1-3.655-7.315V115.224a.356.356,0,0,1,.539-.307L524.617,160c3.022,1.741,3.656,4.939,3.656,7.315Z" transform="translate(-442.336 -109.865)" fill="#022652"/>
          <path id="Trazado_119436" data-name="Trazado 119436" d="M527.894,155.326,449.265,109.9a3.725,3.725,0,0,0-3.224-.474c-.116.045-1.653.861-1.761.921l-.005,0a3.6,3.6,0,0,1,3.428.379l78.628,45.422c3.044,1.757,5.512,6.473,5.512,10.531v61.682c0,2.534-.961,4.211-2.424,4.688a.912.912,0,0,0,.483-.164c.069-.04,1.738-.981,1.8-1.028,1.046-.734,1.7-2.24,1.7-4.327V165.857C533.405,161.8,530.937,157.084,527.894,155.326Z" transform="translate(-442.192 -109.242)" fill="#3f92d1"/>
          <path id="Trazado_119437" data-name="Trazado 119437" d="M527.894,155.326,449.265,109.9a3.725,3.725,0,0,0-3.224-.474c-.116.045-1.653.861-1.761.921l-.005,0a3.6,3.6,0,0,1,3.428.379l78.628,45.422Z" transform="translate(-442.192 -109.242)" fill="#4f9fdb"/>
          <path id="Trazado_119438" data-name="Trazado 119438" d="M526.649,156.124,448.021,110.7a3.655,3.655,0,0,0-3.32-.425,4.071,4.071,0,0,1,2.659.622l78.628,45.423c3.044,1.757,5.512,6.473,5.512,10.531v61.682c0,2.394-.863,4.017-2.192,4.591,1.7-.27,2.853-2.017,2.853-4.79V166.655C532.161,162.6,529.693,157.882,526.649,156.124Z" transform="translate(-442.245 -109.342)" fill="#fff" style="mix-blend-mode: screen;isolation: isolate"/>
        </g>
      </g>
      <g id="Grupo_82298" data-name="Grupo 82298" transform="translate(83.347 33.496)">
        <path id="Trazado_119439" data-name="Trazado 119439" d="M470.69,169.069,484.322,200.6l27.561-28.931-10.752-9.1-14.809,24.964-6.993-16.782Z" transform="translate(-470.69 -149.378)" fill="#0fbab8"/>
        <path id="Trazado_119440" data-name="Trazado 119440" d="M493.046,208.178l-1.022-1.2,1.015-.444c1.255-.678,2.451-1.279,3.582-1.85,7.7-3.88,11.913-5.778,12.891-19.58l1.923-1.683.02,1.579c-1.054,14.892-6.192,17.482-13.969,21.4-1.116.564-2.3,1.158-3.534,1.825Z" transform="translate(-473.346 -151.974)" fill="#eb4680"/>
        <path id="Trazado_119441" data-name="Trazado 119441" d="M497.606,162.087a65.212,65.212,0,0,1-7.057-8.729c-4.83,1.437-10.338.585-16.048-2.47l.307,10.212-1.947-.382-.382-13.216,1.733,1.018c5.929,3.492,11.6,4.463,16.381,2.8l.414-.143.575.33.194.228a63.721,63.721,0,0,0,7.21,9.008Z" transform="translate(-470.913 -147.502)" fill="#eb4680"/>
      </g>
    </g>
    <g id="Grupo_82300" data-name="Grupo 82300" transform="translate(476.963 233.001)">
      <path id="Trazado_119442" data-name="Trazado 119442" d="M530.658,294.2c-3.526,2.83-15.656,4.448-15.656,4.448s-1.069-8.108,2.457-10.938,6.664-1.1,10.31.689S534.183,291.365,530.658,294.2Z" transform="translate(-498.198 -244.528)" fill="#92b4d1" opacity="0.2"/>
      <path id="Trazado_119443" data-name="Trazado 119443" d="M529.128,260.725c-5.9-3.338-11.669-9.032-16.5-16.288l-.066-.038c-4.834,1.672-10.6.706-16.5-2.769l-.226-.132.319,11.023c1.12,17.089,6.948,24.527,16.329,40.414l.229.132c9.381-5.056,15.209-5.763,16.329-21.559l.318-10.656Z" transform="translate(-495.83 -238.962)" fill="#a8cff0"/>
      <path id="Trazado_119444" data-name="Trazado 119444" d="M532.464,257.828c-5.9-3.337-11.669-9.032-16.5-16.287l-.066-.038c-4.835,1.672-10.6.706-16.5-2.769l-.225-.133-3.265,2.573.162.1c5.9,3.475,11.669,4.441,16.5,2.769l.066.038c4.834,7.255,10.6,12.949,16.5,16.288l.226.127-.319,10.656c-.731,10.31-3.469,14.191-7.89,17.049,5.523-3.262,10.4-8,11.218-19.585l.319-10.656Z" transform="translate(-495.839 -238.601)" fill="#d1ebff"/>
      <path id="Trazado_119445" data-name="Trazado 119445" d="M535.06,258.368l-.226-.128c-5.9-3.337-11.669-9.032-16.5-16.287l-.066-.038-3.328,2.535.066.038c4.834,7.255,10.6,12.949,16.5,16.288l.226.127Z" transform="translate(-498.209 -239.014)" fill="#d1ebff"/>
      <path id="Trazado_119446" data-name="Trazado 119446" d="M532.954,263.243l-.319,10.656c-.731,10.31-3.469,14.191-7.89,17.049,5.524-3.262,10.4-8,11.218-19.585l.319-10.656Z" transform="translate(-499.43 -241.353)" fill="#72b5e8"/>
      <path id="Trazado_119447" data-name="Trazado 119447" d="M512.163,285.908c-6.731-11.165-10.116-16.781-10.933-29.036l-.186-6.433a20.08,20.08,0,0,0,12.2,1.834,54.332,54.332,0,0,0,12.2,12.25l-.187,6.218c-.816,11.312-4.2,13.02-10.934,16.414-.352.178-.711.358-1.076.545Z" transform="translate(-496.479 -240.075)" fill="#084c94"/>
      <path id="Trazado_119448" data-name="Trazado 119448" d="M514.869,286.668l-1.077.545-1.078-1.79c-6.731-11.165-10.117-16.782-10.933-29.037l-.165-5.7c-.191-.081-.382-.162-.573-.249l.186,6.433c.817,12.254,4.2,17.871,10.933,29.036l1.079,1.791c.365-.186.724-.367,1.076-.545a27.557,27.557,0,0,0,6.621-4.079A31.855,31.855,0,0,1,514.869,286.668Z" transform="translate(-496.479 -240.075)" fill="#001a46"/>
      <path id="Trazado_119449" data-name="Trazado 119449" d="M529.369,260.5c-5.9-3.338-11.669-9.032-16.5-16.287l-.065-.038c-4.835,1.672-10.6.706-16.5-2.769l-.214.228c5.889,3.46,11.646,4.421,16.472,2.752l.066.038c4.834,7.255,10.6,12.949,16.5,16.288l.225.127L529.03,271.5c-.606,8.555-2.594,12.684-5.78,15.475,3.329-2.795,5.4-6.913,6.026-15.685l.319-10.657Z" transform="translate(-495.862 -238.951)" fill="#fff"/>
    </g>
    <g id="Grupo_82303" data-name="Grupo 82303" transform="translate(353.155 233.001)">
      <path id="Trazado_119451" data-name="Trazado 119451" d="M420.059,274.8a12.278,12.278,0,0,0-5.572-9.61,5.277,5.277,0,0,0-2.258-.751c0-.048.006-.092.006-.141,0-6.836-4.829-15.166-10.787-18.605-3.345-1.931-6.257-1.673-8.308-.3l-3.441,1.965c-1.944-1.009-3.682-1-4.907-.156l-4.628,2.774a5.251,5.251,0,0,1,4.7.673,10.791,10.791,0,0,1,1.126.762c1.407-4.146,5.463-5.391,10.254-2.626,5.958,3.44,10.787,11.77,10.787,18.606,0,.049-.006.093-.006.141a5.276,5.276,0,0,1,2.258.751,12.278,12.278,0,0,1,5.572,9.61,4.2,4.2,0,0,1-1.2,3.265l4.588-2.672-.005-.011C419.36,277.945,420.059,276.667,420.059,274.8Z" transform="translate(-377.757 -244.303)" fill="#72b5e8"/>
      <g id="Grupo_82301" data-name="Grupo 82301" transform="translate(2.607 2.818)">
        <path id="Trazado_119452" data-name="Trazado 119452" d="M410.992,268.5a5.267,5.267,0,0,0-2.258-.752c0-.048.006-.092.006-.14,0-6.837-4.83-15.166-10.787-18.606-2.855-1.649-5.449-1.872-7.377-.905,1.879-.747,4.311-.449,6.97,1.086,5.958,3.44,10.787,11.77,10.787,18.606,0,.049-.006.093-.006.141a5.276,5.276,0,0,1,2.258.751,12.278,12.278,0,0,1,5.572,9.61c0,1.786-.639,3.031-1.668,3.6,1.265-.441,2.075-1.767,2.075-3.778A12.275,12.275,0,0,0,410.992,268.5Z" transform="translate(-381.661 -247.521)" fill="#fff"/>
        <path id="Trazado_119453" data-name="Trazado 119453" d="M384.9,251.382a10.789,10.789,0,0,1,1.126.762c.044-.128.089-.253.138-.375a9.8,9.8,0,0,0-.857-.568c-1.906-1.1-3.636-1.237-4.912-.573A5.4,5.4,0,0,1,384.9,251.382Z" transform="translate(-380.393 -247.858)" fill="#fff"/>
      </g>
      <path id="Trazado_119454" data-name="Trazado 119454" d="M408.946,268.7a5.277,5.277,0,0,0-2.258-.751c0-.048.006-.092.006-.141,0-6.836-4.829-15.166-10.787-18.606-4.791-2.766-8.847-1.521-10.254,2.626a10.788,10.788,0,0,0-1.126-.762c-3.928-2.268-7.113-.453-7.113,4.054a15.672,15.672,0,0,0,7.113,12.268l24.418,14.1c3.077,1.776,5.572.354,5.572-3.176A12.278,12.278,0,0,0,408.946,268.7Z" transform="translate(-377.415 -244.729)" fill="#d1ebff"/>
      <path id="Trazado_119455" data-name="Trazado 119455" d="M411.7,280.715a3.28,3.28,0,0,1-1.6-.524l-24.42-14.1a13.919,13.919,0,0,1-6.212-10.712c0-.973.207-3.235,2.124-3.235a4.778,4.778,0,0,1,2.294.735,9.107,9.107,0,0,1,.938.637l1.986,1.508.8-2.362a3.8,3.8,0,0,1,3.717-2.886,8.143,8.143,0,0,1,3.937,1.239c5.361,3.095,9.89,10.9,9.89,17.05,0,0-.006.062-.007.119l-.02,1.7,1.7.113a3.581,3.581,0,0,1,1.48.516,10.465,10.465,0,0,1,4.673,8.055,2.927,2.927,0,0,1-.458,1.783.946.946,0,0,1-.817.362Z" transform="translate(-377.671 -244.985)" fill="#3f92d1"/>
      <g id="Grupo_82302" data-name="Grupo 82302" transform="translate(1.797 5.296)">
        <path id="Trazado_119456" data-name="Trazado 119456" d="M388.486,254.649l.8-2.361a4.732,4.732,0,0,1,1.176-1.936,4.307,4.307,0,0,0-1.775,2.384l-.558,1.644Z" transform="translate(-380.546 -250.352)" fill="#2672ab"/>
        <path id="Trazado_119457" data-name="Trazado 119457" d="M412.3,280.626a3.28,3.28,0,0,1-1.6-.524L386.278,266a13.916,13.916,0,0,1-6.212-10.712,4.277,4.277,0,0,1,.734-2.622c-1.183.532-1.332,2.254-1.332,3.071a13.919,13.919,0,0,0,6.212,10.712l24.42,14.1a3.28,3.28,0,0,0,1.6.524.945.945,0,0,0,.817-.362c.027-.033.047-.081.072-.118A1.349,1.349,0,0,1,412.3,280.626Z" transform="translate(-379.467 -250.64)" fill="#2672ab"/>
      </g>
    </g>
    <g id="Grupo_82306" data-name="Grupo 82306" transform="translate(330.23 157.747)">
      <path id="Trazado_119458" data-name="Trazado 119458" d="M344.091,225.1l-11.656-6.367c-1.944-1.122-1.7-3.084.545-4.381h0c2.246-1.3,9.676-1.3,11.62-.18l9.536,5.17c2.985,1.761.03,4.18-2.457,5.443h0C349.433,226.083,346.035,226.224,344.091,225.1Z" transform="translate(-322.462 -178.362)" fill="#92b4d1" opacity="0.2"/>
      <path id="Trazado_119459" data-name="Trazado 119459" d="M342.53,209.17c-5.427-3.133-9.827-10.722-9.827-16.95a7.86,7.86,0,0,1,1.651-5.282c-2.978.215-4.993,2.709-4.993,6.917,0,6.227,4.4,13.815,9.827,16.949,3.41,1.969,6.4,1.7,8.163-.313A8.526,8.526,0,0,1,342.53,209.17Z" transform="translate(-322.243 -175.073)" fill="#72b5e8"/>
      <path id="Trazado_119460" data-name="Trazado 119460" d="M342.1,209.433c-5.427-3.133-9.827-10.722-9.827-16.95s4.4-8.737,9.827-5.6,9.827,10.722,9.827,16.95S347.523,212.566,342.1,209.433Z" transform="translate(-322.604 -174.897)" fill="#084c94"/>
      <path id="Trazado_119461" data-name="Trazado 119461" d="M351.069,205.739a19.283,19.283,0,0,0-.168-2.382l3.972-.5a36.008,36.008,0,0,0-1.8-6.014l-4.526-1.368a31.759,31.759,0,0,0-2.817-4.859l1.085-4.567a36.2,36.2,0,0,0-4.335-4.568l-2.437,3.151a19.781,19.781,0,0,0-1.991-1.342,15.388,15.388,0,0,0-1.992-.957l-2.436-5.965a12.078,12.078,0,0,0-4.335-.438l1.084,5.82a6.214,6.214,0,0,0-2.816,1.607L323.03,179.5a11.81,11.81,0,0,0-1.8,3.935l3.972,5.088a14.99,14.99,0,0,0-.168,2.189,19.275,19.275,0,0,0,.168,2.381l-3.972.5a35.855,35.855,0,0,0,1.8,6.013l4.526,1.369a31.79,31.79,0,0,0,2.816,4.858l-1.084,4.568a36.31,36.31,0,0,0,4.335,4.568l2.436-3.152a19.606,19.606,0,0,0,1.992,1.343,15.383,15.383,0,0,0,1.991.957l2.437,5.964a12.058,12.058,0,0,0,4.335.438l-1.085-5.82a6.215,6.215,0,0,0,2.817-1.606l4.526,3.857a11.846,11.846,0,0,0,1.8-3.935l-3.972-5.088A14.973,14.973,0,0,0,351.069,205.739Zm-12.893,3.689c-5.427-3.133-9.827-10.721-9.827-16.95s4.4-8.736,9.827-5.6S348,197.6,348,203.826,343.6,212.562,338.176,209.428Z" transform="translate(-321.23 -173.696)" fill="#a8cff0"/>
      <path id="Trazado_119462" data-name="Trazado 119462" d="M341.629,179.9l-2.436-5.965-3.807,2.186,2.436,5.965Z" transform="translate(-322.993 -173.454)" fill="#72b5e8"/>
      <path id="Trazado_119463" data-name="Trazado 119463" d="M338.169,182.935a15.389,15.389,0,0,1,1.992.957,19.781,19.781,0,0,1,1.991,1.342l2.437-3.151h0s-.412-.259-.62-.379a15.376,15.376,0,0,0-1.992-.957Z" transform="translate(-323.339 -174.302)" fill="#d1ebff"/>
      <path id="Trazado_119464" data-name="Trazado 119464" d="M338.576,173.867a12.077,12.077,0,0,0-4.335-.437l-3.807,2.186a12.079,12.079,0,0,1,4.335.438Z" transform="translate(-322.376 -173.385)" fill="#d1ebff"/>
      <path id="Trazado_119465" data-name="Trazado 119465" d="M353.642,184.343a36.312,36.312,0,0,0-4.335-4.568l-3.807,2.187a36.3,36.3,0,0,1,4.335,4.567Z" transform="translate(-324.252 -174.181)" fill="#d1ebff"/>
      <path id="Trazado_119466" data-name="Trazado 119466" d="M350.3,187.18l-1.084,4.568,3.807-2.186,1.085-4.568Z" transform="translate(-324.714 -174.831)" fill="#72b5e8"/>
      <path id="Trazado_119467" data-name="Trazado 119467" d="M349.213,192.4a31.762,31.762,0,0,1,2.817,4.859l3.807-2.187a31.8,31.8,0,0,0-2.817-4.859Z" transform="translate(-324.714 -175.48)" fill="#72b5e8"/>
      <path id="Trazado_119468" data-name="Trazado 119468" d="M352.431,197.947l4.526,1.369,3.807-2.186-4.526-1.369Z" transform="translate(-325.115 -176.171)" fill="#d1ebff"/>
      <path id="Trazado_119469" data-name="Trazado 119469" d="M357.6,199.51a36.026,36.026,0,0,1,1.8,6.013l3.807-2.186a36,36,0,0,0-1.8-6.013Z" transform="translate(-325.758 -176.366)" fill="#72b5e8"/>
      <path id="Trazado_119470" data-name="Trazado 119470" d="M330.629,181.95l-.315-1.692-3.221-2.746-3.807,2.186,4.526,3.858A6.214,6.214,0,0,1,330.629,181.95Z" transform="translate(-321.486 -173.899)" fill="#72b5e8"/>
      <path id="Trazado_119471" data-name="Trazado 119471" d="M359.4,217.985a11.847,11.847,0,0,1-1.8,3.935l3.807-2.187a11.842,11.842,0,0,0,1.8-3.934Z" transform="translate(-325.758 -178.666)" fill="#72b5e8"/>
      <path id="Trazado_119472" data-name="Trazado 119472" d="M358.927,209.576a14.963,14.963,0,0,0,.168-2.188c0-.229-.015-.462-.027-.7l-3.948.5a19.289,19.289,0,0,1,.168,2.382,14.977,14.977,0,0,1-.168,2.188Z" transform="translate(-325.45 -177.532)" fill="#72b5e8"/>
      <path id="Trazado_119473" data-name="Trazado 119473" d="M355.12,212.173l3.972,5.089,3.807-2.187-3.972-5.089Z" transform="translate(-325.45 -177.942)" fill="#d1ebff"/>
      <path id="Trazado_119474" data-name="Trazado 119474" d="M352.03,218.385a6.216,6.216,0,0,1-2.817,1.606l1.085,5.82,3.807-2.187-.769-4.127Z" transform="translate(-324.714 -178.988)" fill="#72b5e8"/>
      <path id="Trazado_119475" data-name="Trazado 119475" d="M325.059,193.544l-3.828,2.247,3.972-.5C325.129,194.7,325.084,194.119,325.059,193.544Z" transform="translate(-321.23 -175.895)" fill="#d1ebff"/>
      <path id="Trazado_119476" data-name="Trazado 119476" d="M337.823,216.928l-2.437,3.152,3.835-2.183C338.749,217.594,338.281,217.275,337.823,216.928Z" transform="translate(-322.993 -178.807)" fill="#72b5e8"/>
      <g id="Grupo_82304" data-name="Grupo 82304" transform="translate(0.192 2.169)" style="mix-blend-mode: color-dodge;isolation: isolate">
        <path id="Trazado_119477" data-name="Trazado 119477" d="M331.068,182.873l-.011-.059c-.181.069-.355.152-.527.238C330.707,182.988,330.883,182.922,331.068,182.873Z" transform="translate(-322.58 -176.728)" fill="#fff"/>
        <path id="Trazado_119478" data-name="Trazado 119478" d="M324.746,195.614l-3.3.417c.012.064.03.129.044.193l3.273-.414C324.758,195.744,324.754,195.679,324.746,195.614Z" transform="translate(-321.449 -178.321)" fill="#fff"/>
        <path id="Trazado_119479" data-name="Trazado 119479" d="M349.629,187.086l-1.085,4.567a31.846,31.846,0,0,1,2.817,4.859l4.525,1.369a36.073,36.073,0,0,1,1.757,5.821l.448-.074a36,36,0,0,0-1.8-6.013l-4.526-1.369a31.846,31.846,0,0,0-2.817-4.859l1.085-4.567a36.31,36.31,0,0,0-4.335-4.568l-.15.5A36.517,36.517,0,0,1,349.629,187.086Z" transform="translate(-324.45 -176.658)" fill="#fff"/>
        <path id="Trazado_119480" data-name="Trazado 119480" d="M339.173,210.865c-5.427-3.134-9.827-10.722-9.827-16.95,0-2.751.863-4.767,2.291-5.9-1.65,1.062-2.664,3.181-2.664,6.163,0,6.227,4.4,13.816,9.827,16.95,2.74,1.582,5.216,1.722,7,.675-.131.04-.27.067-.406.1C343.7,212.518,341.535,212.227,339.173,210.865Z" transform="translate(-322.386 -177.376)" fill="#fff"/>
        <path id="Trazado_119481" data-name="Trazado 119481" d="M350.048,219.831a6.171,6.171,0,0,0,1.79-1l-.167-.143A6.207,6.207,0,0,1,350.048,219.831Z" transform="translate(-325.01 -181.194)" fill="#fff"/>
        <path id="Trazado_119482" data-name="Trazado 119482" d="M327.676,183.967c-.165.007,0-.129.167-.264l-4.358-3.715c-.123.172-.235.358-.03.381Z" transform="translate(-321.685 -176.376)" fill="#fff"/>
        <path id="Trazado_119483" data-name="Trazado 119483" d="M349.085,220.488l1.038,5.57c-.12-.006.116-.009.346-.031l-1.073-5.761C349.178,220.349,348.959,220.427,349.085,220.488Z" transform="translate(-324.885 -181.391)" fill="#fff" style="mix-blend-mode: color-dodge;isolation: isolate"/>
        <path id="Trazado_119484" data-name="Trazado 119484" d="M355.454,209.653a18.687,18.687,0,0,0-.149-2.187l-.395.03a19.463,19.463,0,0,1,.168,2.382,15.092,15.092,0,0,1-.168,2.188l3.972,5.089a12.125,12.125,0,0,1-1.451,3.394l.026.315a11.833,11.833,0,0,0,1.8-3.934l-3.972-5.089A15.072,15.072,0,0,0,355.454,209.653Z" transform="translate(-325.615 -179.797)" fill="#fff"/>
        <path id="Trazado_119485" data-name="Trazado 119485" d="M334.631,176.52l2.436,5.965a15.382,15.382,0,0,1,1.992.956,19.707,19.707,0,0,1,1.991,1.343l.076-.378a18.661,18.661,0,0,0-1.71-1.141,15.322,15.322,0,0,0-1.991-.957l-2.437-5.964a12.061,12.061,0,0,0-4.335-.438l.047.25A14.177,14.177,0,0,1,334.631,176.52Z" transform="translate(-322.595 -175.862)" fill="#fff"/>
        <path id="Trazado_119486" data-name="Trazado 119486" d="M337.35,217.228l-2.037,2.635c.086.077.169.16.256.236l2.063-2.669C337.539,217.362,337.443,217.3,337.35,217.228Z" transform="translate(-323.175 -181.013)" fill="#fff"/>
      </g>
      <g id="Grupo_82305" data-name="Grupo 82305" transform="translate(14.597 18.027)">
        <path id="Trazado_119487" data-name="Trazado 119487" d="M343.206,194.555a3.007,3.007,0,0,0-2.942-.326c-.021.012-2.327,1.368-2.361,1.42a2.839,2.839,0,0,1,3.193.163,9.283,9.283,0,0,1,4.213,7.267,2.893,2.893,0,0,1-1.282,2.732.956.956,0,0,0,.206-.09l2-1.224a2.959,2.959,0,0,0,1.182-2.676A9.285,9.285,0,0,0,343.206,194.555Z" transform="translate(-337.903 -193.976)" fill="#4f9fdb"/>
      </g>
      <path id="Trazado_119488" data-name="Trazado 119488" d="M340.951,195.991c-2.327-1.344-4.214-.268-4.214,2.4a9.282,9.282,0,0,0,4.214,7.267c2.327,1.344,4.213.268,4.213-2.4A9.282,9.282,0,0,0,340.951,195.991Z" transform="translate(-323.161 -176.128)" fill="#a8cff0"/>
      <path id="Trazado_119489" data-name="Trazado 119489" d="M341.12,195.991a2.942,2.942,0,0,0-3.027-.272,3.155,3.155,0,0,1,2.727.422,9.282,9.282,0,0,1,4.213,7.267,2.951,2.951,0,0,1-1.187,2.674,2.778,2.778,0,0,0,1.487-2.824A9.283,9.283,0,0,0,341.12,195.991Z" transform="translate(-323.33 -176.128)" fill="#fff"/>
    </g>
    <g id="Grupo_82317" data-name="Grupo 82317" transform="translate(380.499 126.648)">
      <path id="Trazado_119490" data-name="Trazado 119490" d="M415.066,188.446,388.625,173.6c-1.447-.836-1.265-2.295.405-3.259h0c1.67-.965,7.2-.97,8.645-.135l24.863,13.96c2.221,1.311.023,3.11-1.827,4.049h0A6.274,6.274,0,0,1,415.066,188.446Z" transform="translate(-387.648 -134.162)" fill="#92b4d1" opacity="0.2"/>
      <g id="Grupo_82307" data-name="Grupo 82307" transform="translate(0.094 0)">
        <path id="Trazado_119491" data-name="Trazado 119491" d="M414.614,183.349l-23.849-13.9a7.2,7.2,0,0,1-3.008-5.748V132.583c0-2.215,1.347-3.233,3.008-2.274l23.849,13.9a7.2,7.2,0,0,1,3.007,5.747v31.118C417.621,183.29,416.274,184.308,414.614,183.349Z" transform="translate(-387.756 -129.226)" fill="#a8cff0"/>
        <path id="Trazado_119492" data-name="Trazado 119492" d="M415.241,182.025l-23.391-13.634a5.115,5.115,0,0,1-2.163-4.285V133.794a.533.533,0,0,1,.8-.46l.095.055,23.425,13.658a4.626,4.626,0,0,1,2.164,4.285v30.233a.576.576,0,0,1-.861.5Z" transform="translate(-387.996 -129.638)" fill="#084c94"/>
        <path id="Trazado_119493" data-name="Trazado 119493" d="M415.792,181.672l-.07-.04L392.331,168a5.114,5.114,0,0,1-2.164-4.285V133.4a.563.563,0,0,1,.018-.136.53.53,0,0,0-.5.529v30.312a5.115,5.115,0,0,0,2.163,4.285l23.391,13.634.071.04a.575.575,0,0,0,.832-.326A.557.557,0,0,1,415.792,181.672Z" transform="translate(-387.996 -129.639)" fill="#001a46"/>
        <path id="Trazado_119494" data-name="Trazado 119494" d="M416.192,143.385l-23.849-13.9a2.035,2.035,0,0,0-1.76-.258c-.063.025-1.466.74-1.525.772l0,0a1.967,1.967,0,0,1,1.871.207l23.849,13.9a7.2,7.2,0,0,1,3.007,5.747v31.118c0,1.382-.524,2.3-1.322,2.558a.506.506,0,0,0,.263-.089c.038-.022,1.512-.805,1.549-.831a2.779,2.779,0,0,0,.927-2.361V149.132A7.206,7.206,0,0,0,416.192,143.385Z" transform="translate(-387.918 -129.123)" fill="#3f92d1"/>
        <path id="Trazado_119495" data-name="Trazado 119495" d="M416.192,143.385l-23.849-13.9a2.035,2.035,0,0,0-1.76-.258c-.063.025-1.466.74-1.525.772l0,0a1.967,1.967,0,0,1,1.871.207l23.849,13.9Z" transform="translate(-387.918 -129.123)" fill="#4f9fdb"/>
        <path id="Trazado_119496" data-name="Trazado 119496" d="M414.949,144.128l-23.849-13.9a2,2,0,0,0-1.812-.231,2.224,2.224,0,0,1,1.452.34l23.848,13.9a7.2,7.2,0,0,1,3.008,5.748V181.1a2.528,2.528,0,0,1-1.2,2.506c.928-.147,1.557-1.1,1.557-2.614V149.876A7.206,7.206,0,0,0,414.949,144.128Z" transform="translate(-387.947 -129.216)" fill="#fff" style="mix-blend-mode: screen;isolation: isolate"/>
      </g>
      <g id="Grupo_82308" data-name="Grupo 82308" transform="translate(14.753 25.355)">
        <path id="Trazado_119497" data-name="Trazado 119497" d="M405.025,168.32a.526.526,0,0,1-.513-.641,40.356,40.356,0,0,0,.925-8.861v-.209a.525.525,0,1,1,1.05,0v.209a41.438,41.438,0,0,1-.951,9.092A.524.524,0,0,1,405.025,168.32Z" transform="translate(-404.499 -158.084)" fill="#a8cff0"/>
      </g>
      <g id="Grupo_82309" data-name="Grupo 82309" transform="translate(11.007 21.783)">
        <path id="Trazado_119498" data-name="Trazado 119498" d="M400.747,171.362a.5.5,0,0,1-.124-.015.525.525,0,0,1-.387-.634,70.021,70.021,0,0,0,1.562-14.405,2.728,2.728,0,0,1,.878-2.188.525.525,0,0,1,.66.818,1.724,1.724,0,0,0-.488,1.37,71.208,71.208,0,0,1-1.591,14.652A.524.524,0,0,1,400.747,171.362Z" transform="translate(-400.221 -154.004)" fill="#a8cff0"/>
      </g>
      <g id="Grupo_82310" data-name="Grupo 82310" transform="translate(15.556 21.866)">
        <path id="Trazado_119499" data-name="Trazado 119499" d="M408.914,160.276a.526.526,0,0,1-.525-.525,6.071,6.071,0,0,0-2.71-4.672.525.525,0,0,1,.525-.91,7.032,7.032,0,0,1,3.234,5.581A.525.525,0,0,1,408.914,160.276Z" transform="translate(-405.416 -154.099)" fill="#a8cff0"/>
      </g>
      <g id="Grupo_82311" data-name="Grupo 82311" transform="translate(16.384 31.254)">
        <path id="Trazado_119500" data-name="Trazado 119500" d="M406.888,176.607a.514.514,0,0,1-.12-.013.525.525,0,0,1-.392-.63,104.642,104.642,0,0,0,1.849-10.677.525.525,0,1,1,1.043.12A105.2,105.2,0,0,1,407.4,176.2.525.525,0,0,1,406.888,176.607Z" transform="translate(-406.362 -164.821)" fill="#a8cff0"/>
      </g>
      <g id="Grupo_82312" data-name="Grupo 82312" transform="translate(5.785 14.165)">
        <path id="Trazado_119501" data-name="Trazado 119501" d="M411.68,175.17a.548.548,0,0,1-.135-.018.525.525,0,0,1-.373-.643,48.312,48.312,0,0,0,1.5-12.37v-.209c0-5.3-3.76-11.788-8.383-14.457-2.15-1.241-4.141-1.458-5.607-.612s-2.25,2.644-2.25,5.087a50.944,50.944,0,0,1-1.138,11.018.526.526,0,0,1-1.026-.228,49.846,49.846,0,0,0,1.114-10.79c0-2.834.985-4.963,2.775-6s4.166-.825,6.656.612c4.912,2.837,8.907,9.729,8.907,15.367v.209a49.37,49.37,0,0,1-1.534,12.639A.526.526,0,0,1,411.68,175.17Z" transform="translate(-394.256 -145.303)" fill="#a8cff0"/>
      </g>
      <g id="Grupo_82313" data-name="Grupo 82313" transform="translate(8.22 29.849)">
        <path id="Trazado_119502" data-name="Trazado 119502" d="M397.563,169.3a.567.567,0,0,1-.13-.017.526.526,0,0,1-.378-.64,45.669,45.669,0,0,0,.981-4.979.535.535,0,0,1,.594-.447.525.525,0,0,1,.446.594,46.461,46.461,0,0,1-1,5.094A.525.525,0,0,1,397.563,169.3Z" transform="translate(-397.038 -163.217)" fill="#a8cff0"/>
      </g>
      <g id="Grupo_82314" data-name="Grupo 82314" transform="translate(9.404 19.045)">
        <path id="Trazado_119503" data-name="Trazado 119503" d="M398.916,161.209a.429.429,0,0,1-.059,0,.526.526,0,0,1-.465-.58,57.575,57.575,0,0,0,.341-6.344,5.466,5.466,0,0,1,.874-3.183.525.525,0,0,1,.856.608,4.441,4.441,0,0,0-.68,2.575,59.046,59.046,0,0,1-.345,6.46A.526.526,0,0,1,398.916,161.209Z" transform="translate(-398.389 -150.876)" fill="#a8cff0"/>
      </g>
      <g id="Grupo_82315" data-name="Grupo 82315" transform="translate(12.143 17.817)">
        <path id="Trazado_119504" data-name="Trazado 119504" d="M410.46,157.494a.525.525,0,0,1-.488-.332,12.21,12.21,0,0,0-4.779-5.913,4.1,4.1,0,0,0-3.019-.643.525.525,0,1,1-.264-1.016,5.118,5.118,0,0,1,3.808.749,13.11,13.11,0,0,1,5.23,6.435.526.526,0,0,1-.489.72Z" transform="translate(-401.518 -149.473)" fill="#a8cff0"/>
      </g>
      <g id="Grupo_82316" data-name="Grupo 82316" transform="translate(19.219 28.63)">
        <path id="Trazado_119505" data-name="Trazado 119505" d="M410.125,177.207a.525.525,0,0,1-.5-.692l.116-.349a43.274,43.274,0,0,0,2-13.606v-.208a.525.525,0,1,1,1.051,0v.208A44.342,44.342,0,0,1,410.74,176.5l-.116.35A.526.526,0,0,1,410.125,177.207Z" transform="translate(-409.6 -161.825)" fill="#a8cff0"/>
      </g>
    </g>
  </g>
</svg>
