<svg xmlns="http://www.w3.org/2000/svg" xmlns:xlink="http://www.w3.org/1999/xlink" width="169.816" height="177.874" viewBox="0 0 169.816 177.874">
  <defs>
    <linearGradient id="linear-gradient" x1="0.087" y1="0.521" x2="1.244" y2="0.349" gradientUnits="objectBoundingBox">
      <stop offset="0.056" stop-color="#92a3b0"/>
      <stop offset="1" stop-color="#fff"/>
    </linearGradient>
    <linearGradient id="linear-gradient-2" x1="0.086" y1="0.52" x2="1.229" y2="0.351" xlink:href="#linear-gradient"/>
    <linearGradient id="linear-gradient-3" x1="0.085" y1="0.518" x2="1.215" y2="0.353" xlink:href="#linear-gradient"/>
    <linearGradient id="linear-gradient-4" x1="0.085" y1="0.517" x2="1.2" y2="0.355" xlink:href="#linear-gradient"/>
    <linearGradient id="linear-gradient-5" x1="0.084" y1="0.516" x2="1.185" y2="0.357" xlink:href="#linear-gradient"/>
    <linearGradient id="linear-gradient-6" x1="0.083" y1="0.515" x2="1.17" y2="0.359" xlink:href="#linear-gradient"/>
    <linearGradient id="linear-gradient-7" x1="0.082" y1="0.514" x2="1.156" y2="0.361" xlink:href="#linear-gradient"/>
    <linearGradient id="linear-gradient-8" x1="0.081" y1="0.513" x2="1.141" y2="0.363" xlink:href="#linear-gradient"/>
    <linearGradient id="linear-gradient-9" x1="0.081" y1="0.512" x2="1.126" y2="0.365" xlink:href="#linear-gradient"/>
    <linearGradient id="linear-gradient-10" x1="0.08" y1="0.51" x2="1.112" y2="0.367" xlink:href="#linear-gradient"/>
    <linearGradient id="linear-gradient-11" x1="0.079" y1="0.509" x2="1.097" y2="0.369" xlink:href="#linear-gradient"/>
    <linearGradient id="linear-gradient-12" x1="0.078" y1="0.508" x2="1.082" y2="0.371" xlink:href="#linear-gradient"/>
    <linearGradient id="linear-gradient-13" x1="0.077" y1="0.507" x2="1.068" y2="0.373" xlink:href="#linear-gradient"/>
    <linearGradient id="linear-gradient-14" x1="0.076" y1="0.505" x2="1.053" y2="0.374" xlink:href="#linear-gradient"/>
    <linearGradient id="linear-gradient-15" x1="0.075" y1="0.504" x2="1.038" y2="0.376" xlink:href="#linear-gradient"/>
    <linearGradient id="linear-gradient-16" x1="0.074" y1="0.503" x2="1.024" y2="0.378" xlink:href="#linear-gradient"/>
    <linearGradient id="linear-gradient-17" x1="0.073" y1="0.502" x2="1.009" y2="0.38" xlink:href="#linear-gradient"/>
    <linearGradient id="linear-gradient-18" x1="0.072" y1="0.501" x2="0.995" y2="0.382" xlink:href="#linear-gradient"/>
    <linearGradient id="linear-gradient-19" x1="0.071" y1="0.5" x2="0.981" y2="0.385" xlink:href="#linear-gradient"/>
    <linearGradient id="linear-gradient-20" x1="0.07" y1="0.499" x2="0.967" y2="0.387" xlink:href="#linear-gradient"/>
    <linearGradient id="linear-gradient-21" x1="0.069" y1="0.499" x2="0.953" y2="0.39" xlink:href="#linear-gradient"/>
    <linearGradient id="linear-gradient-22" x1="0.069" y1="0.499" x2="0.939" y2="0.393" xlink:href="#linear-gradient"/>
    <radialGradient id="radial-gradient" cx="0.5" cy="0.5" r="0.31" gradientTransform="matrix(-1.221, -0.709, -1.221, 0.701, 407.572, 127.868)" xlink:href="#linear-gradient"/>
  </defs>
  <g id="Grupo_955839" data-name="Grupo 955839" transform="translate(-360.191 -98.594)">
    <g id="Grupo_82232" data-name="Grupo 82232" transform="translate(360.191 98.594)">
      <g id="Grupo_82231" data-name="Grupo 82231">
        <path id="Trazado_119053" data-name="Trazado 119053" d="M455.446,300.22l-87.027-50.245c-3.437-1.984-3.005-5.45.963-7.741l49.389-28.514c3.968-2.292,9.971-2.54,13.408-.556l87.027,50.245c3.437,1.984,3.006,5.45-.962,7.74l-49.39,28.515C464.885,301.956,458.883,302.2,455.446,300.22Z" transform="translate(-366.099 -123.686)" fill="#92b4d1" opacity="0.2"/>
        <path id="Trazado_119054" data-name="Trazado 119054" d="M455.446,295.93l-87.027-50.245a4.007,4.007,0,0,1-2.319-3.3c0-.04,0-4.272,0-4.312.027-1.5,1.139,1.108,3.282-.129l49.389-28.515c3.968-2.292,9.971-2.54,13.408-.556l87.027,50.245c1.147.662,1.979-2.149,2.277-1.256.1.3.036,4.242.043,4.551.033,1.54-1.08,3.174-3.282,4.445l-49.389,28.515C464.885,297.666,458.883,297.914,455.446,295.93Z" transform="translate(-366.099 -122.735)" fill="#2672ab"/>
        <path id="Trazado_119055" data-name="Trazado 119055" d="M455.446,290.494,368.419,240.25c-3.437-1.985-3.005-5.45.963-7.741l49.389-28.515c3.968-2.291,9.971-2.54,13.408-.556l87.027,50.245c3.437,1.984,3.006,5.45-.962,7.741l-49.39,28.514C464.885,292.23,458.883,292.479,455.446,290.494Z" transform="translate(-366.099 -121.531)" fill="#d1ebff"/>
        <path id="Trazado_119056" data-name="Trazado 119056" d="M480.882,319.732c3.437,1.985,9.44,1.736,13.408-.556v-4.231c-3.968,2.292-9.971,2.541-13.408.557Z" transform="translate(-391.535 -146.538)" fill="#3f92d1" opacity="0.5"/>
        <path id="Trazado_119057" data-name="Trazado 119057" d="M455.446,300.326l-87.027-50.245c-1.662-.96-2.411-2.266-2.3-3.618a1.736,1.736,0,0,0-.018.237c0,.04,0,4.272,0,4.312a4.006,4.006,0,0,0,2.32,3.3l87.027,50.245Z" transform="translate(-366.099 -131.362)" fill="#3f92d1"/>
        <path id="Trazado_119058" data-name="Trazado 119058" d="M518.244,270.494l-49.39,28.515c-3.967,2.292-9.971,2.54-13.407.556L368.419,249.32a4.108,4.108,0,0,1-2.293-3.045c-.179,1.4.571,2.77,2.293,3.764l87.027,50.244c3.437,1.985,9.44,1.736,13.407-.556l49.39-28.514c2.322-1.341,3.423-3.082,3.256-4.7C521.322,267.916,520.223,269.351,518.244,270.494Z" transform="translate(-366.099 -131.32)" fill="#fff"/>
        <path id="Trazado_119059" data-name="Trazado 119059" d="M446.5,285.613l-30.973-17.881c-.62-.359-.543-.984.174-1.4l11.629-6.714a2.689,2.689,0,0,1,2.419-.1L460.717,277.4c.62.358.543.983-.174,1.4l-11.629,6.714A2.687,2.687,0,0,1,446.5,285.613Z" transform="translate(-376.958 -134.202)" fill="#fff" opacity="0.3"/>
        <path id="Trazado_119060" data-name="Trazado 119060" d="M415.7,267.068l11.629-6.714a2.689,2.689,0,0,1,2.419-.1l30.973,17.882a.937.937,0,0,1,.286.251.648.648,0,0,0-.286-.985L429.746,259.52a2.689,2.689,0,0,0-2.419.1L415.7,266.334c-.57.328-.728.79-.46,1.146A1.355,1.355,0,0,1,415.7,267.068Z" transform="translate(-376.96 -134.202)" fill="#a8cff0"/>
        <path id="Trazado_119061" data-name="Trazado 119061" d="M435.216,211.628l5.337,3.082a2.708,2.708,0,0,0,2.45,0A.747.747,0,0,0,443,213.3l-5.337-3.082a2.71,2.71,0,0,0-2.45,0A.747.747,0,0,0,435.216,211.628Zm9.139,5.277,2.528,1.459a2.71,2.71,0,0,0,2.45,0,.747.747,0,0,0-.008-1.415l-2.528-1.459a2.708,2.708,0,0,0-2.45,0A.747.747,0,0,0,444.355,216.905Zm6.33,3.654,2.528,1.46a2.708,2.708,0,0,0,2.45,0,.747.747,0,0,0-.008-1.414l-2.528-1.46a2.708,2.708,0,0,0-2.45,0A.746.746,0,0,0,450.685,220.559Zm6.329,3.655,2.529,1.46a2.708,2.708,0,0,0,2.45,0,.747.747,0,0,0-.008-1.414l-2.528-1.46a2.712,2.712,0,0,0-2.451,0A.747.747,0,0,0,457.014,224.214Zm6.33,3.655,2.528,1.46a2.708,2.708,0,0,0,2.45,0,.746.746,0,0,0-.007-1.414l-2.529-1.46a2.707,2.707,0,0,0-2.45,0A.747.747,0,0,0,463.344,227.868Zm6.33,3.655,2.528,1.46a2.708,2.708,0,0,0,2.45,0,.746.746,0,0,0-.008-1.414l-2.528-1.46a2.708,2.708,0,0,0-2.45,0A.746.746,0,0,0,469.674,231.523Zm6.33,3.655,2.528,1.46a2.708,2.708,0,0,0,2.45,0,.746.746,0,0,0-.008-1.414l-2.528-1.46a2.71,2.71,0,0,0-2.45,0A.747.747,0,0,0,476,235.177Zm6.329,3.655,2.529,1.46a2.708,2.708,0,0,0,2.45,0,.747.747,0,0,0-.008-1.415l-2.528-1.46a2.71,2.71,0,0,0-2.45,0A.747.747,0,0,0,482.333,238.832Zm6.33,3.655,2.528,1.46a2.709,2.709,0,0,0,2.451,0,.747.747,0,0,0-.008-1.415l-2.529-1.46a2.71,2.71,0,0,0-2.45,0A.747.747,0,0,0,488.663,242.487Zm6.33,3.655,2.528,1.46a2.708,2.708,0,0,0,2.45,0,.747.747,0,0,0-.008-1.415l-2.528-1.46a2.707,2.707,0,0,0-2.45,0A.747.747,0,0,0,494.993,246.141Zm6.33,3.655,2.528,1.46a2.71,2.71,0,0,0,2.45,0,.747.747,0,0,0-.008-1.415l-2.528-1.46a2.708,2.708,0,0,0-2.45,0A.747.747,0,0,0,501.323,249.8Zm6.33,3.655,2.528,1.46a2.708,2.708,0,0,0,2.45,0,.746.746,0,0,0-.008-1.414l-2.528-1.46a2.708,2.708,0,0,0-2.45,0A.747.747,0,0,0,507.653,253.45Zm6.462,3.73,2.528,1.46a2.708,2.708,0,0,0,2.45,0,.747.747,0,0,0-.008-1.414l-2.528-1.46a2.708,2.708,0,0,0-2.45,0A.746.746,0,0,0,514.114,257.18Zm-84.592-42.069,2.189,1.264a3.081,3.081,0,0,0,2.789,0l2.176-1.256a.85.85,0,0,0-.009-1.611l-2.189-1.263a3.084,3.084,0,0,0-2.789-.005l-2.175,1.256A.85.85,0,0,0,429.522,215.111Zm11.308,4.923L443,218.779a.85.85,0,0,0-.009-1.611l-2.189-1.263a3.084,3.084,0,0,0-2.789-.005l-2.175,1.256a.849.849,0,0,0,.009,1.61l2.189,1.264A3.081,3.081,0,0,0,440.83,220.034Zm1.352,2.386,2.189,1.264a3.081,3.081,0,0,0,2.789,0l2.175-1.256a.85.85,0,0,0-.009-1.611l-2.189-1.263a3.084,3.084,0,0,0-2.789-.005l-2.176,1.256A.85.85,0,0,0,442.182,222.42Zm6.329,3.655,2.19,1.264a3.082,3.082,0,0,0,2.788,0l2.176-1.256a.85.85,0,0,0-.009-1.611l-2.189-1.264a3.084,3.084,0,0,0-2.789,0l-2.176,1.256A.85.85,0,0,0,448.511,226.075Zm13.474,2.057-2.189-1.264a3.082,3.082,0,0,0-2.788,0l-2.176,1.256a.85.85,0,0,0,.009,1.611l2.189,1.264a3.084,3.084,0,0,0,2.789,0l2.176-1.256A.85.85,0,0,0,461.986,228.132Zm6.33,3.655-2.189-1.264a3.081,3.081,0,0,0-2.789,0l-2.175,1.256a.85.85,0,0,0,.009,1.611l2.189,1.263a3.084,3.084,0,0,0,2.789.005l2.176-1.256A.85.85,0,0,0,468.315,231.787Zm6.33,3.655-2.189-1.264a3.081,3.081,0,0,0-2.789,0l-2.175,1.256a.85.85,0,0,0,.009,1.611l2.189,1.263a3.083,3.083,0,0,0,2.789.005l2.175-1.256A.849.849,0,0,0,474.645,235.441Zm6.33,3.655-2.189-1.264a3.081,3.081,0,0,0-2.789,0l-2.176,1.256a.85.85,0,0,0,.009,1.611l2.189,1.263a3.084,3.084,0,0,0,2.789.005l2.175-1.256A.85.85,0,0,0,480.975,239.1Zm6.33,3.654-2.189-1.263a3.081,3.081,0,0,0-2.789,0l-2.176,1.256a.85.85,0,0,0,.009,1.61l2.189,1.264a3.084,3.084,0,0,0,2.789.005l2.176-1.256A.85.85,0,0,0,487.305,242.75Zm6.329,3.655-2.189-1.263a3.084,3.084,0,0,0-2.789-.005l-2.175,1.256a.85.85,0,0,0,.009,1.61l2.189,1.264a3.081,3.081,0,0,0,2.789,0l2.176-1.256A.85.85,0,0,0,493.634,246.4Zm-.814,5.252,2.189,1.264a3.081,3.081,0,0,0,2.789,0l2.175-1.256a.85.85,0,0,0-.009-1.611l-2.189-1.263a3.084,3.084,0,0,0-2.789-.005l-2.175,1.256A.849.849,0,0,0,492.82,251.656Zm13.474,2.057-2.189-1.263a3.084,3.084,0,0,0-2.789-.005l-2.176,1.256a.85.85,0,0,0,.009,1.61l2.189,1.264a3.081,3.081,0,0,0,2.789,0l2.175-1.256A.85.85,0,0,0,506.294,253.713Zm9.271,5.353-5-2.886a3.081,3.081,0,0,0-2.789,0l-2.176,1.256a.85.85,0,0,0,.009,1.611l5,2.886a3.081,3.081,0,0,0,2.789,0l2.175-1.256A.849.849,0,0,0,515.565,259.067ZM423.659,218.5l5,2.886a3.084,3.084,0,0,0,2.789.005l2.176-1.256a.85.85,0,0,0-.009-1.61l-5-2.886a3.079,3.079,0,0,0-2.788,0l-2.176,1.256A.85.85,0,0,0,423.659,218.5Zm9.139,5.277,2.189,1.263a3.081,3.081,0,0,0,2.789,0l2.176-1.256a.85.85,0,0,0-.009-1.61l-2.189-1.264a3.083,3.083,0,0,0-2.789-.005l-2.175,1.256A.85.85,0,0,0,432.8,223.773Zm8.519,4.918a3.081,3.081,0,0,0,2.789,0l2.175-1.256a.849.849,0,0,0-.009-1.61l-2.189-1.264a3.083,3.083,0,0,0-2.789-.005l-2.175,1.256a.849.849,0,0,0,.009,1.61Zm6.33,3.655a3.081,3.081,0,0,0,2.789,0l2.175-1.256a.85.85,0,0,0-.009-1.611l-2.189-1.263a3.084,3.084,0,0,0-2.789-.005l-2.176,1.256a.85.85,0,0,0,.009,1.61Zm6.307-.476-2.176,1.256a.85.85,0,0,0,.009,1.61l2.19,1.264a3.079,3.079,0,0,0,2.788,0l2.176-1.256a.85.85,0,0,0-.009-1.611l-2.189-1.263A3.084,3.084,0,0,0,453.955,231.87Zm6.463,3.578-2.443,1.41a.768.768,0,0,0,.008,1.455l2.458,1.42a2.787,2.787,0,0,0,2.52,0l2.443-1.41a.768.768,0,0,0-.009-1.455l-2.457-1.419A2.786,2.786,0,0,0,460.418,235.448Zm6.33,3.655-2.443,1.41a.768.768,0,0,0,.008,1.455l2.458,1.419a2.784,2.784,0,0,0,2.52,0l2.443-1.41a.768.768,0,0,0-.008-1.455l-2.458-1.419A2.784,2.784,0,0,0,466.748,239.1Zm6.33,3.655-2.443,1.41a.768.768,0,0,0,.008,1.456l2.458,1.419a2.784,2.784,0,0,0,2.52,0l2.443-1.41a.768.768,0,0,0-.008-1.455l-2.458-1.419A2.784,2.784,0,0,0,473.078,242.757Zm6.33,3.655-2.443,1.41a.768.768,0,0,0,.008,1.456l2.458,1.419a2.784,2.784,0,0,0,2.52,0l2.443-1.41a.768.768,0,0,0-.008-1.455l-2.458-1.42A2.787,2.787,0,0,0,479.408,246.411Zm6.33,3.654-2.443,1.41a.768.768,0,0,0,.008,1.456l2.458,1.419a2.786,2.786,0,0,0,2.521,0l2.443-1.41a.768.768,0,0,0-.008-1.455l-2.458-1.42A2.787,2.787,0,0,0,485.738,250.065Zm8.873,7.944,2.443-1.41a.768.768,0,0,0-.009-1.456l-2.458-1.419a2.787,2.787,0,0,0-2.52,0l-2.443,1.41a.768.768,0,0,0,.008,1.456L492.09,258A2.787,2.787,0,0,0,494.611,258.009Zm6.33,3.655,2.443-1.41a.768.768,0,0,0-.008-1.456l-2.458-1.419a2.787,2.787,0,0,0-2.52,0l-2.443,1.41a.768.768,0,0,0,.008,1.456l2.458,1.419A2.787,2.787,0,0,0,500.941,261.664Zm8.9.865-2.458-1.419a2.784,2.784,0,0,0-2.52,0l-2.443,1.41a.768.768,0,0,0,.008,1.455l2.458,1.419a2.784,2.784,0,0,0,2.52,0l2.443-1.41A.768.768,0,0,0,509.837,262.529ZM417.662,221.8l7.937,4.582a2.784,2.784,0,0,0,2.52,0l2.443-1.41a.768.768,0,0,0-.009-1.455l-7.936-4.582a2.787,2.787,0,0,0-2.52,0l-2.443,1.41A.768.768,0,0,0,417.662,221.8Zm11.808,6.817,2.458,1.419a2.784,2.784,0,0,0,2.52,0l2.443-1.41a.768.768,0,0,0-.008-1.456l-2.458-1.419a2.787,2.787,0,0,0-2.521,0l-2.443,1.41A.768.768,0,0,0,429.47,228.621Zm6.33,3.655,2.458,1.419a2.787,2.787,0,0,0,2.52,0l2.443-1.41a.768.768,0,0,0-.008-1.456l-2.458-1.419a2.787,2.787,0,0,0-2.52,0l-2.443,1.41A.768.768,0,0,0,435.8,232.276Zm6.33,3.655,2.458,1.419a2.787,2.787,0,0,0,2.521,0l2.443-1.41a.768.768,0,0,0-.008-1.456l-2.458-1.419a2.787,2.787,0,0,0-2.52,0l-2.443,1.41A.768.768,0,0,0,442.13,235.93Zm11.308,5.078,2.443-1.41a.768.768,0,0,0-.008-1.456l-2.458-1.419a2.786,2.786,0,0,0-2.521,0l-2.443,1.41a.768.768,0,0,0,.008,1.455l2.458,1.42A2.787,2.787,0,0,0,453.438,241.008Zm6.33,3.654,2.443-1.41a.768.768,0,0,0-.008-1.455l-2.458-1.419a2.784,2.784,0,0,0-2.52,0l-2.443,1.41a.768.768,0,0,0,.008,1.455l2.458,1.42A2.787,2.787,0,0,0,459.768,244.662Zm6.33,3.655,2.443-1.41a.768.768,0,0,0-.008-1.455l-2.458-1.419a2.784,2.784,0,0,0-2.52,0l-2.443,1.41a.768.768,0,0,0,.008,1.455l2.458,1.419A2.784,2.784,0,0,0,466.1,248.317Zm6.33,3.655,2.443-1.41a.768.768,0,0,0-.008-1.455l-2.458-1.419a2.784,2.784,0,0,0-2.521,0l-2.443,1.41a.768.768,0,0,0,.008,1.455l2.458,1.419A2.784,2.784,0,0,0,472.428,251.971Zm6.33,3.655,2.443-1.41a.768.768,0,0,0-.008-1.455l-2.458-1.42a2.784,2.784,0,0,0-2.52,0l-2.443,1.41a.768.768,0,0,0,.009,1.456l2.457,1.419A2.786,2.786,0,0,0,478.758,255.626Zm6.329,3.655,2.443-1.41a.768.768,0,0,0-.009-1.456L485.064,255a2.787,2.787,0,0,0-2.52,0L480.1,256.4a.768.768,0,0,0,.008,1.456l2.458,1.419A2.784,2.784,0,0,0,485.087,259.281Zm1.351,2.231,2.458,1.419a2.787,2.787,0,0,0,2.52,0l2.443-1.41a.768.768,0,0,0-.008-1.456l-2.458-1.419a2.787,2.787,0,0,0-2.52,0l-2.443,1.41A.768.768,0,0,0,486.438,261.511Zm17.536,4.4-6.251-3.609a2.787,2.787,0,0,0-2.52,0l-2.443,1.41a.768.768,0,0,0,.008,1.456l6.25,3.609a2.787,2.787,0,0,0,2.521,0l2.443-1.41A.768.768,0,0,0,503.974,265.913Zm-92.15-40.55,11.26,6.5a3.148,3.148,0,0,0,2.847.005l2.117-1.222A.868.868,0,0,0,428.04,229l-11.261-6.5a3.148,3.148,0,0,0-2.847-.005l-2.117,1.222A.868.868,0,0,0,411.824,225.363Zm15.46,8.926,2.13,1.23a3.148,3.148,0,0,0,2.847.005l2.117-1.222a.868.868,0,0,0-.009-1.644l-2.13-1.23a3.146,3.146,0,0,0-2.847-.005l-2.117,1.222A.868.868,0,0,0,427.284,234.289Zm6.33,3.655,2.13,1.23a3.148,3.148,0,0,0,2.847.005l2.117-1.222a.868.868,0,0,0-.009-1.644l-2.13-1.23a3.143,3.143,0,0,0-2.847-.005l-2.117,1.222A.868.868,0,0,0,433.614,237.944Zm6.33,3.655,2.13,1.23a3.148,3.148,0,0,0,2.847.005l2.116-1.223a.867.867,0,0,0-.009-1.643l-2.131-1.231a3.145,3.145,0,0,0-2.847,0l-2.117,1.222A.868.868,0,0,0,439.944,241.6Zm6.33,3.655,2.13,1.23a3.146,3.146,0,0,0,2.847.005l2.117-1.223a.868.868,0,0,0-.009-1.644l-2.131-1.23a3.145,3.145,0,0,0-2.847,0l-2.117,1.222A.868.868,0,0,0,446.274,245.253Zm6.329,3.655,2.13,1.23a3.146,3.146,0,0,0,2.847,0l2.117-1.222a.868.868,0,0,0-.009-1.644l-2.13-1.23a3.146,3.146,0,0,0-2.847,0l-2.117,1.222A.868.868,0,0,0,452.6,248.908Zm6.33,3.655,2.13,1.23a3.145,3.145,0,0,0,2.847,0l2.117-1.222a.868.868,0,0,0-.009-1.644l-2.13-1.23a3.146,3.146,0,0,0-2.847-.005l-2.117,1.223A.868.868,0,0,0,458.933,252.562Zm6.33,3.655,2.13,1.23a3.145,3.145,0,0,0,2.847,0l2.117-1.222a.868.868,0,0,0-.009-1.644l-2.13-1.23a3.148,3.148,0,0,0-2.847-.005l-2.117,1.223A.868.868,0,0,0,465.263,256.217Zm6.33,3.654,2.13,1.231a3.148,3.148,0,0,0,2.847,0l2.117-1.222a.868.868,0,0,0-.009-1.644l-2.131-1.23A3.148,3.148,0,0,0,473.7,257l-2.117,1.222A.868.868,0,0,0,471.593,259.871Zm6.329,3.655,2.131,1.23a3.148,3.148,0,0,0,2.847.005l2.117-1.222a.868.868,0,0,0-.009-1.644l-2.131-1.23a3.148,3.148,0,0,0-2.847-.005l-2.117,1.222A.868.868,0,0,0,477.922,263.525Zm6.33,3.655,2.13,1.23a3.148,3.148,0,0,0,2.847.005l2.117-1.222a.868.868,0,0,0-.009-1.644l-2.13-1.23a3.146,3.146,0,0,0-2.847-.005l-2.117,1.222A.868.868,0,0,0,484.252,267.18Zm13.557,2.1-2.13-1.23a3.148,3.148,0,0,0-2.847-.005l-2.117,1.222a.868.868,0,0,0,.009,1.644l2.13,1.23a3.148,3.148,0,0,0,2.847.005l2.117-1.222A.868.868,0,0,0,497.808,269.285Zm-81.952-40.545-4.94-2.852a3.148,3.148,0,0,0-2.847-.005l-2.116,1.223a.868.868,0,0,0,.009,1.644l4.94,2.852a3.148,3.148,0,0,0,2.847,0l2.117-1.222A.868.868,0,0,0,415.856,228.739Zm6.33,3.655-2.131-1.23a3.148,3.148,0,0,0-2.847-.005l-2.117,1.222a.868.868,0,0,0,.009,1.644l2.131,1.23a3.148,3.148,0,0,0,2.847.005l2.116-1.222A.868.868,0,0,0,422.186,232.394Zm6.33,3.655-2.13-1.23a3.148,3.148,0,0,0-2.847-.005l-2.117,1.222a.868.868,0,0,0,.009,1.644l2.13,1.23a3.146,3.146,0,0,0,2.847.005l2.117-1.222A.868.868,0,0,0,428.516,236.048Zm44.308,25.581-40.109-23.157a3.146,3.146,0,0,0-2.847-.005l-2.117,1.222a.868.868,0,0,0,.009,1.644l40.109,23.157a3.145,3.145,0,0,0,2.847.005l2.117-1.222A.868.868,0,0,0,472.824,261.63Zm6.33,3.655-2.13-1.23a3.148,3.148,0,0,0-2.847-.005l-2.117,1.222a.868.868,0,0,0,.009,1.644l2.13,1.23a3.148,3.148,0,0,0,2.847.005l2.117-1.222A.868.868,0,0,0,479.154,265.284Zm6.33,3.655-2.13-1.23a3.148,3.148,0,0,0-2.847-.005l-2.117,1.222a.868.868,0,0,0,.009,1.644l2.13,1.23a3.146,3.146,0,0,0,2.847.005l2.117-1.222A.868.868,0,0,0,485.484,268.939Zm6.462,3.73-2.13-1.23a3.146,3.146,0,0,0-2.847,0l-2.117,1.222a.868.868,0,0,0,.009,1.644l2.131,1.23a3.146,3.146,0,0,0,2.847.005l2.117-1.223A.868.868,0,0,0,491.945,272.669Z" transform="translate(-374.8 -123.265)" fill="#72b5e8"/>
        <path id="Trazado_119062" data-name="Trazado 119062" d="M435.216,210.871l5.337,3.082a2.707,2.707,0,0,0,2.45,0,.746.746,0,0,0-.008-1.414l-5.337-3.082a2.708,2.708,0,0,0-2.45,0A.747.747,0,0,0,435.216,210.871Zm9.139,5.276,2.528,1.46a2.708,2.708,0,0,0,2.45,0,.746.746,0,0,0-.008-1.414l-2.528-1.46a2.708,2.708,0,0,0-2.45,0A.746.746,0,0,0,444.355,216.147Zm6.33,3.655,2.528,1.46a2.708,2.708,0,0,0,2.45,0,.747.747,0,0,0-.008-1.414l-2.528-1.46a2.71,2.71,0,0,0-2.45,0A.747.747,0,0,0,450.685,219.8Zm6.329,3.655,2.529,1.46a2.708,2.708,0,0,0,2.45,0,.747.747,0,0,0-.008-1.415l-2.528-1.46a2.712,2.712,0,0,0-2.451,0A.747.747,0,0,0,457.014,223.457Zm6.33,3.655,2.528,1.46a2.708,2.708,0,0,0,2.45,0,.747.747,0,0,0-.007-1.415l-2.529-1.46a2.71,2.71,0,0,0-2.45,0A.747.747,0,0,0,463.344,227.111Zm6.33,3.655,2.528,1.46a2.708,2.708,0,0,0,2.45,0,.747.747,0,0,0-.008-1.415l-2.528-1.46a2.708,2.708,0,0,0-2.45,0A.747.747,0,0,0,469.674,230.766ZM476,234.42l2.528,1.459a2.71,2.71,0,0,0,2.45,0,.747.747,0,0,0-.008-1.415l-2.528-1.459a2.708,2.708,0,0,0-2.45,0A.747.747,0,0,0,476,234.42Zm6.329,3.655,2.529,1.46a2.708,2.708,0,0,0,2.45,0,.747.747,0,0,0-.008-1.414l-2.528-1.46a2.708,2.708,0,0,0-2.45,0A.747.747,0,0,0,482.333,238.075Zm6.33,3.654,2.528,1.46a2.709,2.709,0,0,0,2.451,0,.747.747,0,0,0-.008-1.414l-2.529-1.46a2.708,2.708,0,0,0-2.45,0A.747.747,0,0,0,488.663,241.729Zm6.33,3.655,2.528,1.46a2.708,2.708,0,0,0,2.45,0,.746.746,0,0,0-.008-1.414l-2.528-1.46a2.708,2.708,0,0,0-2.45,0A.747.747,0,0,0,494.993,245.383Zm6.33,3.655,2.528,1.46a2.705,2.705,0,0,0,2.45,0,.746.746,0,0,0-.008-1.414l-2.528-1.46a2.708,2.708,0,0,0-2.45,0A.746.746,0,0,0,501.323,249.038Zm6.33,3.655,2.528,1.46a2.708,2.708,0,0,0,2.45,0,.747.747,0,0,0-.008-1.415l-2.528-1.46a2.71,2.71,0,0,0-2.45,0A.747.747,0,0,0,507.653,252.692Zm6.462,3.731,2.528,1.459a2.71,2.71,0,0,0,2.45,0,.747.747,0,0,0-.008-1.415l-2.528-1.459a2.708,2.708,0,0,0-2.45,0A.747.747,0,0,0,514.114,256.423Zm-84.592-42.069,2.189,1.263a3.081,3.081,0,0,0,2.789.005l2.176-1.256a.85.85,0,0,0-.009-1.611l-2.189-1.264a3.081,3.081,0,0,0-2.789,0l-2.175,1.256A.85.85,0,0,0,429.522,214.354Zm11.308,4.923L443,218.021a.849.849,0,0,0-.009-1.61l-2.189-1.264a3.081,3.081,0,0,0-2.789,0l-2.175,1.256a.85.85,0,0,0,.009,1.611l2.189,1.263A3.083,3.083,0,0,0,440.83,219.277Zm1.352,2.386,2.189,1.263a3.084,3.084,0,0,0,2.789.005l2.175-1.256a.85.85,0,0,0-.009-1.61l-2.189-1.264a3.081,3.081,0,0,0-2.789,0l-2.176,1.256A.85.85,0,0,0,442.182,221.663Zm6.329,3.655,2.19,1.263a3.082,3.082,0,0,0,2.788.005l2.176-1.256a.85.85,0,0,0-.009-1.61l-2.189-1.264a3.081,3.081,0,0,0-2.789,0l-2.176,1.256A.85.85,0,0,0,448.511,225.318Zm13.474,2.057-2.189-1.264a3.08,3.08,0,0,0-2.788,0l-2.176,1.256a.85.85,0,0,0,.009,1.611l2.189,1.263a3.084,3.084,0,0,0,2.789.005l2.176-1.256A.85.85,0,0,0,461.986,227.375Zm6.33,3.654-2.189-1.263a3.084,3.084,0,0,0-2.789-.005l-2.175,1.256a.85.85,0,0,0,.009,1.61l2.189,1.264a3.081,3.081,0,0,0,2.789,0l2.176-1.256A.85.85,0,0,0,468.315,231.029Zm6.33,3.655-2.189-1.263a3.084,3.084,0,0,0-2.789-.005l-2.175,1.256a.849.849,0,0,0,.009,1.61l2.189,1.264a3.081,3.081,0,0,0,2.789,0l2.175-1.256A.85.85,0,0,0,474.645,234.683Zm6.33,3.655-2.189-1.263a3.083,3.083,0,0,0-2.789-.005l-2.176,1.256a.85.85,0,0,0,.009,1.61l2.189,1.264a3.081,3.081,0,0,0,2.789,0l2.175-1.256A.85.85,0,0,0,480.975,238.338Zm6.33,3.655-2.189-1.263a3.081,3.081,0,0,0-2.789-.005l-2.176,1.256a.85.85,0,0,0,.009,1.61l2.189,1.264a3.081,3.081,0,0,0,2.789,0l2.176-1.256A.85.85,0,0,0,487.305,241.993Zm6.329,3.655-2.189-1.264a3.084,3.084,0,0,0-2.789,0l-2.175,1.256a.85.85,0,0,0,.009,1.611l2.189,1.264a3.086,3.086,0,0,0,2.789,0l2.176-1.256A.85.85,0,0,0,493.634,245.647Zm-.814,5.252,2.189,1.263a3.084,3.084,0,0,0,2.789.005l2.175-1.256a.849.849,0,0,0-.009-1.61l-2.189-1.264a3.081,3.081,0,0,0-2.789,0l-2.175,1.256A.85.85,0,0,0,492.82,250.9Zm13.474,2.057-2.189-1.264a3.081,3.081,0,0,0-2.789,0l-2.176,1.256a.85.85,0,0,0,.009,1.611l2.189,1.263a3.083,3.083,0,0,0,2.789.005l2.175-1.256A.85.85,0,0,0,506.294,252.956Zm9.271,5.352-5-2.886a3.084,3.084,0,0,0-2.789-.005l-2.176,1.256a.85.85,0,0,0,.009,1.61l5,2.886a3.084,3.084,0,0,0,2.789,0l2.175-1.256A.85.85,0,0,0,515.565,258.309Zm-91.906-40.569,5,2.886a3.081,3.081,0,0,0,2.789,0l2.176-1.256a.85.85,0,0,0-.009-1.61l-5-2.886a3.079,3.079,0,0,0-2.788,0l-2.176,1.256A.85.85,0,0,0,423.659,217.739Zm9.139,5.276,2.189,1.264a3.081,3.081,0,0,0,2.789,0l2.176-1.256a.85.85,0,0,0-.009-1.611l-2.189-1.263a3.084,3.084,0,0,0-2.789-.005l-2.175,1.256A.85.85,0,0,0,432.8,223.015Zm8.519,4.918a3.081,3.081,0,0,0,2.789.005l2.175-1.256a.85.85,0,0,0-.009-1.611l-2.189-1.263a3.079,3.079,0,0,0-2.789-.005l-2.175,1.256a.85.85,0,0,0,.009,1.611Zm6.33,3.655a3.083,3.083,0,0,0,2.789.005l2.175-1.256a.85.85,0,0,0-.009-1.61l-2.189-1.264a3.081,3.081,0,0,0-2.789,0l-2.176,1.256a.85.85,0,0,0,.009,1.611Zm6.307-.475-2.176,1.256a.85.85,0,0,0,.009,1.611l2.19,1.263a3.082,3.082,0,0,0,2.788.005l2.176-1.256a.85.85,0,0,0-.009-1.61l-2.189-1.264A3.081,3.081,0,0,0,453.955,231.113Zm6.463,3.577-2.443,1.41a.768.768,0,0,0,.008,1.456l2.458,1.419a2.787,2.787,0,0,0,2.52,0l2.443-1.41a.768.768,0,0,0-.009-1.456l-2.457-1.419A2.789,2.789,0,0,0,460.418,234.69Zm6.33,3.655-2.443,1.41a.768.768,0,0,0,.008,1.456l2.458,1.419a2.787,2.787,0,0,0,2.52,0l2.443-1.41a.768.768,0,0,0-.008-1.456l-2.458-1.419A2.787,2.787,0,0,0,466.748,238.344Zm6.33,3.655-2.443,1.41a.768.768,0,0,0,.008,1.456l2.458,1.419a2.787,2.787,0,0,0,2.52,0l2.443-1.41a.768.768,0,0,0-.008-1.456L475.6,242A2.787,2.787,0,0,0,473.078,242Zm6.33,3.655-2.443,1.41a.768.768,0,0,0,.008,1.455l2.458,1.42a2.787,2.787,0,0,0,2.52,0l2.443-1.41a.768.768,0,0,0-.008-1.456l-2.458-1.419A2.784,2.784,0,0,0,479.408,245.653Zm6.33,3.655-2.443,1.41a.768.768,0,0,0,.008,1.455l2.458,1.42a2.788,2.788,0,0,0,2.521,0l2.443-1.41a.768.768,0,0,0-.008-1.456l-2.458-1.419A2.784,2.784,0,0,0,485.738,249.308Zm8.873,7.944,2.443-1.41a.768.768,0,0,0-.009-1.455l-2.458-1.419a2.784,2.784,0,0,0-2.52,0l-2.443,1.41a.768.768,0,0,0,.008,1.455l2.458,1.419A2.784,2.784,0,0,0,494.611,257.252Zm6.33,3.655,2.443-1.41a.768.768,0,0,0-.008-1.455l-2.458-1.419a2.785,2.785,0,0,0-2.52,0l-2.443,1.41a.768.768,0,0,0,.008,1.455l2.458,1.419A2.784,2.784,0,0,0,500.941,260.906Zm8.9.865-2.458-1.419a2.787,2.787,0,0,0-2.52,0l-2.443,1.41a.768.768,0,0,0,.008,1.456l2.458,1.419a2.787,2.787,0,0,0,2.52,0l2.443-1.41A.768.768,0,0,0,509.837,261.771Zm-92.175-40.725,7.937,4.582a2.784,2.784,0,0,0,2.52,0l2.443-1.41a.768.768,0,0,0-.009-1.456l-7.936-4.582a2.784,2.784,0,0,0-2.52,0l-2.443,1.41A.768.768,0,0,0,417.662,221.046Zm11.808,6.817,2.458,1.42a2.787,2.787,0,0,0,2.52,0l2.443-1.41a.768.768,0,0,0-.008-1.455L434.426,225a2.784,2.784,0,0,0-2.521,0l-2.443,1.41A.768.768,0,0,0,429.47,227.863Zm6.33,3.655,2.458,1.419a2.784,2.784,0,0,0,2.52,0l2.443-1.41a.768.768,0,0,0-.008-1.455l-2.458-1.419a2.784,2.784,0,0,0-2.52,0l-2.443,1.41A.768.768,0,0,0,435.8,231.518Zm6.33,3.655,2.458,1.419a2.784,2.784,0,0,0,2.521,0l2.443-1.41a.768.768,0,0,0-.008-1.455l-2.458-1.42a2.787,2.787,0,0,0-2.52,0l-2.443,1.41A.768.768,0,0,0,442.13,235.172Zm11.308,5.078,2.443-1.41a.768.768,0,0,0-.008-1.455l-2.458-1.42a2.788,2.788,0,0,0-2.521,0l-2.443,1.41a.768.768,0,0,0,.008,1.456l2.458,1.419A2.784,2.784,0,0,0,453.438,240.251Zm6.33,3.655,2.443-1.41a.768.768,0,0,0-.008-1.455l-2.458-1.42a2.787,2.787,0,0,0-2.52,0l-2.443,1.41a.768.768,0,0,0,.008,1.456l2.458,1.419A2.784,2.784,0,0,0,459.768,243.905Zm6.33,3.655,2.443-1.41a.768.768,0,0,0-.008-1.456l-2.458-1.419a2.787,2.787,0,0,0-2.52,0l-2.443,1.41a.768.768,0,0,0,.008,1.456l2.458,1.419A2.787,2.787,0,0,0,466.1,247.56Zm6.33,3.655,2.443-1.41a.768.768,0,0,0-.008-1.456l-2.458-1.419a2.787,2.787,0,0,0-2.521,0l-2.443,1.41a.768.768,0,0,0,.008,1.456l2.458,1.419A2.787,2.787,0,0,0,472.428,251.214Zm6.33,3.655,2.443-1.41a.768.768,0,0,0-.008-1.456l-2.458-1.419a2.784,2.784,0,0,0-2.52,0l-2.443,1.41a.768.768,0,0,0,.009,1.455l2.457,1.42A2.788,2.788,0,0,0,478.758,254.869Zm6.329,3.655,2.443-1.41a.768.768,0,0,0-.009-1.456l-2.458-1.419a2.784,2.784,0,0,0-2.52,0l-2.443,1.41a.768.768,0,0,0,.008,1.455l2.458,1.42A2.789,2.789,0,0,0,485.087,258.523Zm1.351,2.23,2.458,1.42a2.787,2.787,0,0,0,2.52,0l2.443-1.41a.768.768,0,0,0-.008-1.456l-2.458-1.419a2.784,2.784,0,0,0-2.52,0l-2.443,1.41A.768.768,0,0,0,486.438,260.754Zm17.536,4.4-6.251-3.609a2.784,2.784,0,0,0-2.52,0l-2.443,1.41a.768.768,0,0,0,.008,1.455l6.25,3.609a2.785,2.785,0,0,0,2.521,0l2.443-1.41A.768.768,0,0,0,503.974,265.156Zm-92.15-40.55,11.26,6.5a3.148,3.148,0,0,0,2.847.005l2.117-1.223a.867.867,0,0,0-.009-1.643l-11.261-6.5a3.145,3.145,0,0,0-2.847,0l-2.117,1.222A.868.868,0,0,0,411.824,224.606Zm15.46,8.926,2.13,1.23a3.148,3.148,0,0,0,2.847.005l2.117-1.223a.868.868,0,0,0-.009-1.644l-2.13-1.23a3.144,3.144,0,0,0-2.847,0l-2.117,1.222A.868.868,0,0,0,427.284,233.532Zm6.33,3.655,2.13,1.23a3.145,3.145,0,0,0,2.847,0l2.117-1.222a.868.868,0,0,0-.009-1.644l-2.13-1.23a3.148,3.148,0,0,0-2.847-.005l-2.117,1.223A.868.868,0,0,0,433.614,237.187Zm6.33,3.655,2.13,1.23a3.146,3.146,0,0,0,2.847,0l2.116-1.222a.868.868,0,0,0-.009-1.644l-2.131-1.23a3.148,3.148,0,0,0-2.847-.005l-2.117,1.223C439.15,239.65,439.155,240.385,439.944,240.841Zm6.33,3.654,2.13,1.23a3.144,3.144,0,0,0,2.847.005l2.117-1.222a.868.868,0,0,0-.009-1.644l-2.131-1.23a3.148,3.148,0,0,0-2.847-.005l-2.117,1.223A.867.867,0,0,0,446.274,244.5Zm6.329,3.655,2.13,1.23a3.148,3.148,0,0,0,2.847.005l2.117-1.222a.868.868,0,0,0-.009-1.644l-2.13-1.23a3.148,3.148,0,0,0-2.847-.005l-2.117,1.222A.868.868,0,0,0,452.6,248.15Zm6.33,3.655,2.13,1.23a3.148,3.148,0,0,0,2.847.005l2.117-1.222a.868.868,0,0,0-.009-1.644l-2.13-1.23a3.146,3.146,0,0,0-2.847-.005l-2.117,1.222A.868.868,0,0,0,458.933,251.8Zm6.33,3.655,2.13,1.23a3.148,3.148,0,0,0,2.847.005l2.117-1.222a.868.868,0,0,0-.009-1.644l-2.13-1.231a3.15,3.15,0,0,0-2.847,0l-2.117,1.222A.868.868,0,0,0,465.263,255.459Zm6.33,3.655,2.13,1.23a3.146,3.146,0,0,0,2.847.005l2.117-1.223a.867.867,0,0,0-.009-1.643l-2.131-1.231a3.145,3.145,0,0,0-2.847,0l-2.117,1.222A.868.868,0,0,0,471.593,259.113Zm6.329,3.655,2.131,1.23A3.148,3.148,0,0,0,482.9,264l2.117-1.223a.867.867,0,0,0-.009-1.643l-2.131-1.231a3.145,3.145,0,0,0-2.847,0l-2.117,1.222A.868.868,0,0,0,477.922,262.768Zm6.33,3.655,2.13,1.23a3.146,3.146,0,0,0,2.847,0l2.117-1.222a.868.868,0,0,0-.009-1.644l-2.13-1.23a3.144,3.144,0,0,0-2.847,0l-2.117,1.222A.868.868,0,0,0,484.252,266.423Zm13.557,2.1-2.13-1.23a3.146,3.146,0,0,0-2.847,0l-2.117,1.222a.868.868,0,0,0,.009,1.644l2.13,1.23a3.148,3.148,0,0,0,2.847.005l2.117-1.223A.868.868,0,0,0,497.808,268.527Zm-81.952-40.545-4.94-2.852a3.148,3.148,0,0,0-2.847-.005l-2.116,1.222a.868.868,0,0,0,.009,1.644l4.94,2.852a3.148,3.148,0,0,0,2.847.005l2.117-1.223A.867.867,0,0,0,415.856,227.982Zm6.33,3.654-2.131-1.23a3.145,3.145,0,0,0-2.847,0l-2.117,1.222a.868.868,0,0,0,.009,1.644l2.131,1.23a3.148,3.148,0,0,0,2.847.005l2.116-1.223A.868.868,0,0,0,422.186,231.636Zm6.33,3.655-2.13-1.23a3.145,3.145,0,0,0-2.847,0l-2.117,1.222a.868.868,0,0,0,.009,1.644l2.13,1.23a3.144,3.144,0,0,0,2.847,0l2.117-1.222A.868.868,0,0,0,428.516,235.291Zm44.308,25.582-40.109-23.157a3.148,3.148,0,0,0-2.847-.005l-2.117,1.223a.868.868,0,0,0,.009,1.644l40.109,23.157a3.148,3.148,0,0,0,2.847.005l2.117-1.223A.867.867,0,0,0,472.824,260.873Zm6.33,3.655-2.13-1.231a3.145,3.145,0,0,0-2.847,0l-2.117,1.222a.868.868,0,0,0,.009,1.644l2.13,1.23a3.148,3.148,0,0,0,2.847.005l2.117-1.223A.867.867,0,0,0,479.154,264.527Zm6.33,3.654-2.13-1.23a3.145,3.145,0,0,0-2.847,0l-2.117,1.222a.868.868,0,0,0,.009,1.644l2.13,1.23a3.146,3.146,0,0,0,2.847.005l2.117-1.223A.868.868,0,0,0,485.484,268.181Zm6.462,3.731-2.13-1.23a3.148,3.148,0,0,0-2.847-.005L484.85,271.9a.868.868,0,0,0,.009,1.644l2.131,1.23a3.146,3.146,0,0,0,2.847.005l2.117-1.222A.868.868,0,0,0,491.945,271.912Z" transform="translate(-374.8 -123.097)" fill="#a8cff0"/>
        <g id="Grupo_82230" data-name="Grupo 82230" transform="translate(61.999)">
          <path id="Trazado_119063" data-name="Trazado 119063" d="M535.477,230.33l-83.851-48.44c-3.247-1.874-5.878-6.9-5.878-11.231V104.88c0-4.328,2.632-6.317,5.878-4.443l83.851,48.44c3.246,1.874,5.878,6.9,5.878,11.231v65.779C541.355,230.215,538.723,232.2,535.477,230.33Z" transform="translate(-445.748 -98.846)" fill="#a8cff0"/>
          <path id="Trazado_119064" data-name="Trazado 119064" d="M537.174,228.028l-82.957-47.918a9.995,9.995,0,0,1-4.228-8.372v-66.1a1.042,1.042,0,0,1,1.569-.9l.184.107,83.023,47.964c3.11,1.793,4.228,4.978,4.228,8.372v65.945a1.125,1.125,0,0,1-1.682.976Z" transform="translate(-446.688 -99.925)" fill="#03336e"/>
          <path id="Trazado_119065" data-name="Trazado 119065" d="M534.765,152.813l-83.023-47.963-.184-.107a1.042,1.042,0,0,0-1.569.9v66.1a9.995,9.995,0,0,0,4.228,8.372l82.957,47.918.138.079a1.125,1.125,0,0,0,1.682-.976V161.186C538.994,157.791,537.875,154.606,534.765,152.813Zm3.568,74.318a.468.468,0,0,1-.467.465.451.451,0,0,1-.228-.063l-83.09-47.994a9.313,9.313,0,0,1-3.9-7.8v-66.1a.383.383,0,0,1,.384-.381.378.378,0,0,1,.191.054l83.209,48.073c3.223,1.857,3.9,5.267,3.9,7.8Z" transform="translate(-446.688 -99.925)" fill="#022652"/>
          <path id="Trazado_119066" data-name="Trazado 119066" d="M537.776,147.74,453.925,99.3a3.972,3.972,0,0,0-3.44-.505c-.123.047-1.762.919-1.878.982l-.005,0a3.846,3.846,0,0,1,3.657.4l83.851,48.44c3.246,1.874,5.878,6.9,5.878,11.231v65.779c0,2.7-1.025,4.491-2.585,5a.978.978,0,0,0,.515-.175c.074-.043,1.853-1.047,1.924-1.1,1.116-.782,1.811-2.389,1.811-4.614V158.971C543.653,154.642,541.021,149.614,537.776,147.74Z" transform="translate(-446.38 -98.594)" fill="#3f92d1"/>
          <path id="Trazado_119067" data-name="Trazado 119067" d="M537.776,147.74,453.925,99.3a3.972,3.972,0,0,0-3.44-.505c-.123.047-1.762.919-1.878.982l-.005,0a3.846,3.846,0,0,1,3.657.4l83.851,48.44Z" transform="translate(-446.38 -98.594)" fill="#4f9fdb"/>
          <path id="Trazado_119068" data-name="Trazado 119068" d="M536.505,148.7l-83.851-48.439a3.9,3.9,0,0,0-3.54-.453,4.341,4.341,0,0,1,2.835.664l83.851,48.44c3.247,1.874,5.878,6.9,5.878,11.232v65.779c0,2.554-.919,4.284-2.338,4.9,1.814-.287,3.043-2.151,3.043-5.107V159.928C542.383,155.6,539.751,150.571,536.505,148.7Z" transform="translate(-446.494 -98.808)" fill="#fff" style="mix-blend-mode: screen;isolation: isolate"/>
        </g>
      </g>
    </g>
    <g id="Grupo_82245" data-name="Grupo 82245" transform="translate(378.404 102.811)">
      <g id="Grupo_82236" data-name="Grupo 82236" transform="translate(37.597)">
        <path id="Trazado_119113" data-name="Trazado 119113" d="M437.8,204.429s26.97-.782,37.089-5.841,15.179-19.849,15.179-27.244,1.168-25.3,1.168-25.3a80.328,80.328,0,0,1-25.687-14.79c-7.49-6.356-21.406-27.244-21.406-27.244v66.553C444.139,184.576,437.8,204.429,437.8,204.429Z" transform="translate(-437.797 -104.012)" opacity="0.1" fill="url(#linear-gradient)" style="mix-blend-mode: multiply;isolation: isolate"/>
        <path id="Trazado_119114" data-name="Trazado 119114" d="M437.8,204.793s26.372-.934,36.274-5.94c10.105-5.151,15-19.709,15-26.964s1.146-25.444,1.146-25.444a72.308,72.308,0,0,1-25.2-14.063c-7.348-6.235-21-26.727-21-26.727v65.917C444.02,185.316,437.8,204.793,437.8,204.793Z" transform="translate(-437.797 -104.376)" opacity="0.143" fill="url(#linear-gradient-2)" style="mix-blend-mode: multiply;isolation: isolate"/>
        <path id="Trazado_119115" data-name="Trazado 119115" d="M437.8,205.157s25.79-1.056,35.458-6.039c10.109-5.21,14.828-19.569,14.828-26.684s1.123-25.589,1.123-25.589a65.156,65.156,0,0,1-24.713-13.337C457.287,127.394,443.9,107.3,443.9,107.3v65.281C443.9,186.057,437.8,205.157,437.8,205.157Z" transform="translate(-437.797 -104.74)" opacity="0.186" fill="url(#linear-gradient-3)" style="mix-blend-mode: multiply;isolation: isolate"/>
        <path id="Trazado_119116" data-name="Trazado 119116" d="M437.8,205.521s25.2-1.2,34.643-6.138c10.1-5.287,14.653-19.43,14.653-26.4s1.1-25.735,1.1-25.735-12.113-2.333-24.225-12.611c-7.065-5.994-20.189-25.694-20.189-25.694v64.643C443.779,186.8,437.8,205.521,437.8,205.521Z" transform="translate(-437.797 -105.104)" opacity="0.229" fill="url(#linear-gradient-4)" style="mix-blend-mode: multiply;isolation: isolate"/>
        <path id="Trazado_119117" data-name="Trazado 119117" d="M437.8,205.885s24.606-1.337,33.828-6.237c10.1-5.366,14.477-19.29,14.477-26.123s1.079-25.88,1.079-25.88-11.87-1.813-23.739-11.884c-6.922-5.874-19.783-25.178-19.783-25.178v64.006C443.658,187.538,437.8,205.885,437.8,205.885Z" transform="translate(-437.797 -105.468)" opacity="0.271" fill="url(#linear-gradient-5)" style="mix-blend-mode: multiply;isolation: isolate"/>
        <path id="Trazado_119118" data-name="Trazado 119118" d="M437.8,206.249s24.014-1.481,33.012-6.335c10.09-5.445,14.3-19.149,14.3-25.843s1.056-26.026,1.056-26.026-11.625-1.293-23.252-11.158c-6.78-5.753-19.377-24.661-19.377-24.661V175.6C443.539,188.279,437.8,206.249,437.8,206.249Z" transform="translate(-437.797 -105.832)" opacity="0.314" fill="url(#linear-gradient-6)" style="mix-blend-mode: multiply;isolation: isolate"/>
        <path id="Trazado_119119" data-name="Trazado 119119" d="M437.8,206.613s23.42-1.625,32.2-6.434c10.083-5.526,14.125-19.009,14.125-25.563s1.035-26.171,1.035-26.171-11.383-.773-22.765-10.431c-6.638-5.632-18.971-24.144-18.971-24.144V176.6C443.418,189.019,437.8,206.613,437.8,206.613Z" transform="translate(-437.797 -106.196)" opacity="0.357" fill="url(#linear-gradient-7)" style="mix-blend-mode: multiply;isolation: isolate"/>
        <path id="Trazado_119120" data-name="Trazado 119120" d="M437.8,206.977s22.825-1.772,31.381-6.533c10.076-5.608,13.95-18.869,13.95-25.282s1.013-26.317,1.013-26.317-11.139-.254-22.278-9.7c-6.5-5.512-18.565-23.628-18.565-23.628v62.1C443.3,189.76,437.8,206.977,437.8,206.977Z" transform="translate(-437.797 -106.56)" opacity="0.4" fill="url(#linear-gradient-8)" style="mix-blend-mode: multiply;isolation: isolate"/>
        <path id="Trazado_119121" data-name="Trazado 119121" d="M437.8,207.341s22.23-1.92,30.565-6.632c10.068-5.692,13.775-18.729,13.775-25s.991-26.462.991-26.462-10.9.265-21.791-8.979c-6.354-5.391-18.159-23.111-18.159-23.111v61.459C443.177,190.5,437.8,207.341,437.8,207.341Z" transform="translate(-437.797 -106.924)" opacity="0.443" fill="url(#linear-gradient-9)" style="mix-blend-mode: multiply;isolation: isolate"/>
        <path id="Trazado_119122" data-name="Trazado 119122" d="M437.8,207.705s21.634-2.069,29.75-6.731c10.058-5.777,13.6-18.589,13.6-24.722s.968-26.607.968-26.607-10.652.785-21.3-8.253c-6.212-5.271-17.753-22.6-17.753-22.6V179.62C443.057,191.24,437.8,207.705,437.8,207.705Z" transform="translate(-437.797 -107.288)" opacity="0.486" fill="url(#linear-gradient-10)" style="mix-blend-mode: multiply;isolation: isolate"/>
        <path id="Trazado_119123" data-name="Trazado 119123" d="M437.8,208.069s21.037-2.221,28.935-6.83c10.048-5.864,13.424-18.449,13.424-24.442s.946-26.753.946-26.753-10.408,1.305-20.817-7.526c-6.07-5.15-17.347-22.079-17.347-22.079v60.186C442.937,191.98,437.8,208.069,437.8,208.069Z" transform="translate(-437.797 -107.652)" opacity="0.529" fill="url(#linear-gradient-11)" style="mix-blend-mode: multiply;isolation: isolate"/>
        <path id="Trazado_119124" data-name="Trazado 119124" d="M437.8,208.433s20.439-2.373,28.119-6.929c10.037-5.953,13.248-18.31,13.248-24.162s.924-26.9.924-26.9-10.165,1.825-20.33-6.8c-5.928-5.029-16.941-21.562-16.941-21.562v59.549C442.817,192.721,437.8,208.433,437.8,208.433Z" transform="translate(-437.797 -108.017)" opacity="0.571" fill="url(#linear-gradient-12)" style="mix-blend-mode: multiply;isolation: isolate"/>
        <path id="Trazado_119125" data-name="Trazado 119125" d="M437.8,208.8s19.841-2.528,27.3-7.027c10.024-6.044,13.072-18.169,13.072-23.881s.9-27.044.9-27.044-9.922,2.345-19.842-6.073c-5.787-4.909-16.536-21.046-16.536-21.046v58.912C442.7,193.462,437.8,208.8,437.8,208.8Z" transform="translate(-437.797 -108.381)" opacity="0.614" fill="url(#linear-gradient-13)" style="mix-blend-mode: multiply;isolation: isolate"/>
        <path id="Trazado_119126" data-name="Trazado 119126" d="M437.8,209.161s19.241-2.684,26.488-7.126c10.011-6.137,12.9-18.029,12.9-23.6s.88-27.19.88-27.19-9.678,2.865-19.356-5.347c-5.644-4.789-16.13-20.529-16.13-20.529v58.276C442.576,194.2,437.8,209.161,437.8,209.161Z" transform="translate(-437.797 -108.745)" opacity="0.657" fill="url(#linear-gradient-14)" style="mix-blend-mode: multiply;isolation: isolate"/>
        <path id="Trazado_119127" data-name="Trazado 119127" d="M437.8,209.526s18.641-2.841,25.673-7.225c10-6.232,12.721-17.889,12.721-23.321s.858-27.335.858-27.335-9.434,3.384-18.868-4.621c-5.5-4.668-15.724-20.012-15.724-20.012v57.639C442.456,194.943,437.8,209.526,437.8,209.526Z" transform="translate(-437.797 -109.109)" opacity="0.7" fill="url(#linear-gradient-15)" style="mix-blend-mode: multiply;isolation: isolate"/>
        <path id="Trazado_119128" data-name="Trazado 119128" d="M437.8,209.89s18.039-3,24.857-7.324c9.98-6.329,12.545-17.749,12.545-23.041s.835-27.481.835-27.481-9.191,3.9-18.381-3.894c-5.36-4.547-15.318-19.5-15.318-19.5v57C442.336,195.683,437.8,209.89,437.8,209.89Z" transform="translate(-437.797 -109.473)" opacity="0.743" fill="url(#linear-gradient-16)" style="mix-blend-mode: multiply;isolation: isolate"/>
        <path id="Trazado_119129" data-name="Trazado 119129" d="M437.8,210.253s17.437-3.16,24.042-7.423c9.962-6.43,12.37-17.609,12.37-22.76s.813-27.626.813-27.626-8.948,4.424-17.895-3.167c-5.218-4.428-14.913-18.98-14.913-18.98v56.366C442.215,196.424,437.8,210.253,437.8,210.253Z" transform="translate(-437.797 -109.837)" opacity="0.786" fill="url(#linear-gradient-17)" style="mix-blend-mode: multiply;isolation: isolate"/>
        <path id="Trazado_119130" data-name="Trazado 119130" d="M437.8,210.618s16.834-3.321,23.227-7.522c9.942-6.532,12.194-17.469,12.194-22.48s.791-27.771.791-27.771A15.585,15.585,0,0,1,456.6,150.4C451.526,146.1,442.1,131.94,442.1,131.94v55.729C442.1,197.164,437.8,210.618,437.8,210.618Z" transform="translate(-437.797 -110.201)" opacity="0.829" fill="url(#linear-gradient-18)" style="mix-blend-mode: multiply;isolation: isolate"/>
        <path id="Trazado_119131" data-name="Trazado 119131" d="M437.8,210.982s16.23-3.484,22.411-7.621a27.592,27.592,0,0,0,12.019-22.2c0-4.871.769-27.917.769-27.917a14.433,14.433,0,0,1-16.921-1.716c-4.933-4.186-14.1-17.946-14.1-17.946v55.092C441.975,197.9,437.8,210.982,437.8,210.982Z" transform="translate(-437.797 -110.565)" opacity="0.871" fill="url(#linear-gradient-19)" style="mix-blend-mode: multiply;isolation: isolate"/>
        <path id="Trazado_119132" data-name="Trazado 119132" d="M437.8,211.346s15.624-3.648,21.6-7.719a27.25,27.25,0,0,0,11.843-21.92c0-4.731.747-28.062.747-28.062s-8.217,5.983-16.434-.989c-4.792-4.066-13.694-17.429-13.694-17.429v54.455C441.855,198.645,437.8,211.346,437.8,211.346Z" transform="translate(-437.797 -110.929)" opacity="0.914" fill="url(#linear-gradient-20)" style="mix-blend-mode: multiply;isolation: isolate"/>
        <path id="Trazado_119133" data-name="Trazado 119133" d="M437.8,211.71s15.017-3.813,20.78-7.818a26.919,26.919,0,0,0,11.667-21.64c0-4.591.725-28.208.725-28.208s-7.974,6.5-15.947-.262c-4.649-3.946-13.288-16.913-13.288-16.913v53.819C441.735,199.385,437.8,211.71,437.8,211.71Z" transform="translate(-437.797 -111.293)" opacity="0.957" fill="url(#linear-gradient-21)" style="mix-blend-mode: multiply;isolation: isolate"/>
        <path id="Trazado_119134" data-name="Trazado 119134" d="M437.8,212.074s14.41-3.98,19.964-7.917A26.592,26.592,0,0,0,469.254,182.8c0-4.451.7-28.353.7-28.353s-7.729,7.023-15.46.464c-4.508-3.825-12.883-16.4-12.883-16.4v53.182C441.614,200.126,437.8,212.074,437.8,212.074Z" transform="translate(-437.797 -111.657)" fill="url(#linear-gradient-22)" style="mix-blend-mode: multiply;isolation: isolate"/>
      </g>
      <path id="Trazado_119135" data-name="Trazado 119135" d="M457.643,154.945c-9.83-5.562-19.442-15.05-27.5-27.138l-.109-.062c-8.056,2.786-17.667,1.175-27.5-4.614l-.375-.221.53,18.369c1.866,28.473,11.577,40.866,27.207,67.339l.381.22c15.63-8.424,25.342-9.6,27.207-35.922l.531-17.756Z" transform="translate(-392.304 -108.2)" fill="#a8cff0"/>
      <path id="Trazado_119136" data-name="Trazado 119136" d="M463.219,149.517c-9.831-5.562-19.442-15.049-27.5-27.137l-.109-.063c-8.055,2.787-17.667,1.175-27.5-4.614l-.376-.221-5.439,4.287.271.159c9.83,5.79,19.442,7.4,27.5,4.614l.109.062c8.056,12.089,17.667,21.576,27.5,27.138l.375.213-.531,17.756c-1.217,17.179-5.779,23.645-13.146,28.409,9.2-5.436,17.323-13.325,18.691-32.634l.531-17.755Z" transform="translate(-392.334 -106.997)" fill="#d1ebff"/>
      <path id="Trazado_119137" data-name="Trazado 119137" d="M471.5,151.107l-.376-.213c-9.831-5.562-19.442-15.049-27.5-27.137l-.109-.063-5.545,4.225.109.062c8.056,12.089,17.667,21.576,27.5,27.138l.375.213Z" transform="translate(-400.239 -108.373)" fill="#d1ebff"/>
      <path id="Trazado_119138" data-name="Trazado 119138" d="M470.028,163.135l-.531,17.756c-1.217,17.178-5.779,23.645-13.146,28.409,9.2-5.436,17.323-13.325,18.691-32.634l.531-17.755Z" transform="translate(-404.312 -116.178)" fill="#72b5e8"/>
      <path id="Trazado_119139" data-name="Trazado 119139" d="M429.839,199.332c-12.134-20.126-18.236-30.252-19.708-52.342l-.335-11.6c7.79,3.522,15.259,4.646,21.987,3.306a97.979,97.979,0,0,0,21.987,22.082l-.335,11.209c-1.472,20.393-7.575,23.47-19.711,29.588q-.953.481-1.941.982Z" transform="translate(-393.995 -110.966)" fill="#084c94"/>
      <ellipse id="Elipse_5280" data-name="Elipse 5280" cx="16.814" cy="29.124" rx="16.814" ry="29.124" transform="translate(7.676 40.507) rotate(-30.311)" fill="url(#radial-gradient)" style="mix-blend-mode: multiply;isolation: isolate"/>
      <path id="Trazado_119140" data-name="Trazado 119140" d="M434.717,200.7c-.635.321-1.281.647-1.941.982l-1.944-3.228C418.7,178.328,412.6,168.2,411.124,146.113l-.3-10.27c-.344-.147-.687-.293-1.032-.448l.335,11.6c1.472,22.09,7.575,32.216,19.708,52.342l1.944,3.229q.989-.5,1.941-.982c4.951-2.5,8.9-4.487,11.935-7.353C442.768,196.639,439.146,198.469,434.717,200.7Z" transform="translate(-393.995 -110.966)" fill="#001a46"/>
      <path id="Trazado_119141" data-name="Trazado 119141" d="M458.1,154.558c-9.831-5.562-19.443-15.05-27.5-27.138l-.109-.063c-8.056,2.787-17.667,1.175-27.5-4.614l-.359.38c9.813,5.765,19.406,7.367,27.448,4.585l.109.063c8.056,12.089,17.667,21.576,27.5,27.138l.376.213-.531,17.756c-1.01,14.256-4.324,21.134-9.631,25.785,5.547-4.656,9-11.518,10.041-26.136l.531-17.756Z" transform="translate(-392.408 -108.163)" fill="#fff"/>
      <g id="Grupo_82237" data-name="Grupo 82237" transform="translate(0 27.455)">
        <path id="Trazado_119142" data-name="Trazado 119142" d="M389.886,158.516a.389.389,0,0,1-.389-.389q0-.8.037-1.574a.389.389,0,1,1,.777.036q-.034.754-.035,1.538A.389.389,0,0,1,389.886,158.516Zm.232-3.883a.344.344,0,0,1-.049,0,.388.388,0,0,1-.338-.434q.1-.8.241-1.561a.389.389,0,0,1,.765.142q-.137.738-.233,1.515A.389.389,0,0,1,390.118,154.633Zm.772-3.808a.381.381,0,0,1-.109-.016.389.389,0,0,1-.265-.483c.149-.512.318-1.019.5-1.5a.39.39,0,0,1,.73.272c-.175.467-.337.955-.48,1.449A.391.391,0,0,1,390.89,150.825Zm1.446-3.6a.389.389,0,0,1-.343-.572c.251-.47.525-.931.815-1.368a.389.389,0,0,1,.649.43c-.277.417-.538.855-.777,1.3A.389.389,0,0,1,392.336,147.22Zm2.241-3.165a.384.384,0,0,1-.265-.105.39.39,0,0,1-.019-.55,13.465,13.465,0,0,1,1.162-1.1.389.389,0,0,1,.5.6,12.589,12.589,0,0,0-1.094,1.038A.39.39,0,0,1,394.577,144.055Zm3.044-2.4a.389.389,0,0,1-.191-.729,13.121,13.121,0,0,1,1.444-.7.389.389,0,0,1,.295.721,12.04,12.04,0,0,0-1.357.655A.384.384,0,0,1,397.62,141.657Zm3.627-1.358a.389.389,0,0,1-.08-.77,14.772,14.772,0,0,1,1.579-.245.4.4,0,0,1,.425.348.388.388,0,0,1-.348.427,14.052,14.052,0,0,0-1.5.232A.407.407,0,0,1,401.247,140.3Z" transform="translate(-389.497 -139.282)" fill="#a8cff0"/>
      </g>
      <g id="Grupo_82238" data-name="Grupo 82238" transform="translate(4.241 64.765)">
        <path id="Trazado_119143" data-name="Trazado 119143" d="M406.647,205.591a.391.391,0,0,1-.286-.126q-.528-.576-1.044-1.168a.389.389,0,1,1,.586-.512q.51.586,1.031,1.153a.39.39,0,0,1-.024.55A.385.385,0,0,1,406.647,205.591Zm-2.533-2.952a.388.388,0,0,1-.3-.146q-.489-.609-.965-1.234a.39.39,0,0,1,.619-.473q.471.618.953,1.22a.389.389,0,0,1-.3.633Zm-2.337-3.111a.39.39,0,0,1-.319-.165q-.448-.64-.885-1.292a.389.389,0,0,1,.648-.433q.43.645.875,1.277a.389.389,0,0,1-.095.542A.384.384,0,0,1,401.777,199.528Zm-2.14-3.251a.39.39,0,0,1-.332-.184q-.411-.667-.8-1.344a.389.389,0,0,1,.673-.392q.388.668.794,1.326a.389.389,0,0,1-.331.593ZM397.7,192.9a.391.391,0,0,1-.343-.206q-.368-.691-.722-1.389a.389.389,0,1,1,.7-.35q.348.69.714,1.373a.391.391,0,0,1-.344.573Zm-1.73-3.487a.388.388,0,0,1-.353-.227q-.328-.713-.636-1.432a.39.39,0,0,1,.716-.307q.3.71.627,1.414a.388.388,0,0,1-.353.551Z" transform="translate(-394.946 -187.215)" fill="#a8cff0"/>
      </g>
      <g id="Grupo_82239" data-name="Grupo 82239" transform="translate(6.593 35.808)">
        <path id="Trazado_119144" data-name="Trazado 119144" d="M417.731,198.348c-10.9-6.293-19.764-21.586-19.764-34.092,0-6.117,2.088-10.691,5.882-12.882,3.826-2.209,8.894-1.716,14.27,1.387a31.921,31.921,0,0,1,5.288,3.872l-.518.58a31.149,31.149,0,0,0-5.158-3.778c-5.124-2.959-9.915-3.451-13.492-1.387-3.542,2.046-5.493,6.381-5.493,12.208,0,12.258,8.692,27.249,19.374,33.417Z" transform="translate(-397.967 -150.014)" fill="#f76195"/>
      </g>
      <path id="Trazado_119145" data-name="Trazado 119145" d="M424.775,212.04c-.03.641-.47.92-.982.624a2.012,2.012,0,0,1-.872-1.695c.031-.64.47-.919.982-.624A2.01,2.01,0,0,1,424.775,212.04Z" transform="translate(-396.903 -127.55)" fill="#eb4680"/>
      <g id="Grupo_82240" data-name="Grupo 82240" transform="translate(29.505 40.376)">
        <path id="Trazado_119146" data-name="Trazado 119146" d="M430.707,159.041l-3.01-.753a.389.389,0,1,1,.188-.755l1.58.4-.564-1.521a.389.389,0,0,1,.73-.271Z" transform="translate(-427.402 -155.882)" fill="#f76195"/>
      </g>
      <g id="Grupo_82244" data-name="Grupo 82244" transform="translate(11.425 41.14)">
        <g id="Grupo_82241" data-name="Grupo 82241" transform="translate(0.145)">
          <path id="Trazado_119147" data-name="Trazado 119147" d="M408.746,169.536c.213-7.8,5.882-10.9,12.837-6.884a26.4,26.4,0,0,1,9.154,9.695l2.566-.645c-2.923-5.3-7.094-9.978-11.72-12.649-8.752-5.053-15.882-1.059-15.989,8.895l2.053,1.864Z" transform="translate(-404.634 -156.864)" fill="#f5b500"/>
          <path id="Trazado_119148" data-name="Trazado 119148" d="M427.756,197.656a11.04,11.04,0,0,1-6.446-1.713c-6.588-3.8-12.027-12.661-12.766-20.424l-3.139-1.582c.005.057-1.049.271-1.044.328.908,9.662,8.747,20.542,16.949,25.277,2.978,1.72,4.994,2.624,7.385,2.37.1-.011.974-.259,1.073-.273Z" transform="translate(-404.361 -160.647)" fill="#f5b500"/>
          <path id="Trazado_119149" data-name="Trazado 119149" d="M438.784,179.6a24.565,24.565,0,0,1,2.489,10.125c0,4.661-1.9,7.722-4.85,8.724l1.987,3.936c3.654-1.257,6-5.067,6-10.849a30.525,30.525,0,0,0-3.075-12.577Z" transform="translate(-411.466 -161.76)" fill="#f5b500"/>
        </g>
        <path id="Trazado_119150" data-name="Trazado 119150" d="M428.648,183.948a10.954,10.954,0,0,1-2.255-2.7c-.372-.624-.36-1.3,0-1.512a2.88,2.88,0,0,0,1.151-1.284c.4.109.885-.037.885-.578a2.143,2.143,0,0,0-.571-1.459,7.172,7.172,0,0,0-3.626-6.368,3.381,3.381,0,0,0-2.2-.621c-.125.023-1.2.307-1.308.36-.738.367-.059,1.159-.114,2.442-.327-.072-.571.247-.571.8a2.615,2.615,0,0,0,.885,1.6,12.879,12.879,0,0,0,1.15,2.612c.363.63.376,1.322,0,1.516a2.969,2.969,0,0,1-2.254.1,1.7,1.7,0,0,0-.942-.038c-.079.023-1.049.274-1.121.31-.506.251.072.62.072,1.479v2.439a1.645,1.645,0,0,0,.746,1.287l10.454,6.919c.181.105,1.208-.26,1.337-.309a.489.489,0,0,0,.269-.5V188A5.81,5.81,0,0,0,428.648,183.948Z" transform="translate(-407.14 -159.642)" fill="#f5b500"/>
        <g id="Grupo_82242" data-name="Grupo 82242" transform="translate(0.402 0.201)">
          <path id="Trazado_119151" data-name="Trazado 119151" d="M407.843,169.794c.213-7.8,5.882-10.9,12.837-6.885a26.411,26.411,0,0,1,9.154,9.7l2.566-.645c-2.923-5.3-7.094-9.978-11.72-12.649-8.752-5.053-15.882-1.059-15.989,8.895Z" transform="translate(-404.691 -157.122)" fill="#fff"/>
          <path id="Trazado_119152" data-name="Trazado 119152" d="M427.15,197.914A11.04,11.04,0,0,1,420.7,196.2c-6.588-3.8-12.027-12.661-12.766-20.424L404.8,174.2c.844,9.7,7.655,20.842,15.905,25.6a13.435,13.435,0,0,0,8.457,2.1Z" transform="translate(-404.715 -160.905)" fill="#fff"/>
          <path id="Trazado_119153" data-name="Trazado 119153" d="M437.881,179.859a24.564,24.564,0,0,1,2.489,10.125c0,4.662-1.9,7.722-4.85,8.724l1.987,3.936c3.654-1.257,6-5.067,6-10.849a30.528,30.528,0,0,0-3.075-12.577Z" transform="translate(-411.523 -162.018)" fill="#fff"/>
        </g>
        <path id="Trazado_119154" data-name="Trazado 119154" d="M427.824,184.206a10.953,10.953,0,0,1-2.255-2.7c-.372-.624-.36-1.3,0-1.512a2.88,2.88,0,0,0,1.151-1.284c.4.109.885-.037.885-.578a2.141,2.141,0,0,0-.571-1.459,7.172,7.172,0,0,0-3.626-6.368c-2.721-1.571-3.529-.073-3.626,2.181-.327-.072-.571.247-.571.8a2.615,2.615,0,0,0,.885,1.6,12.857,12.857,0,0,0,1.15,2.612c.363.631.376,1.322,0,1.516a2.969,2.969,0,0,1-2.254.1c-1.143-.346-1.991.344-1.991,1.751v2.44a1.645,1.645,0,0,0,.746,1.287l11.315,6.532c.412.238.746.047.746-.425v-2.44A5.81,5.81,0,0,0,427.824,184.206Z" transform="translate(-407.019 -159.699)" fill="#fff"/>
        <g id="Grupo_82243" data-name="Grupo 82243" transform="translate(0 0.301)">
          <path id="Trazado_119155" data-name="Trazado 119155" d="M407.327,169.923c.213-7.8,5.882-10.9,12.837-6.885a26.411,26.411,0,0,1,9.154,9.7l2.566-.645c-2.923-5.3-7.094-9.978-11.72-12.649-8.752-5.053-15.882-1.059-15.989,8.895Z" transform="translate(-404.175 -157.251)" fill="#ffd70f"/>
          <path id="Trazado_119156" data-name="Trazado 119156" d="M426.634,198.043a11.04,11.04,0,0,1-6.446-1.713c-6.588-3.8-12.027-12.661-12.766-20.424l-3.139-1.582c.844,9.7,7.655,20.842,15.905,25.6a13.435,13.435,0,0,0,8.457,2.1Z" transform="translate(-404.199 -161.034)" fill="#ffd70f"/>
          <path id="Trazado_119157" data-name="Trazado 119157" d="M437.365,179.988a24.565,24.565,0,0,1,2.489,10.125c0,4.662-1.9,7.722-4.85,8.724l1.987,3.936c3.654-1.257,6-5.067,6-10.849a30.528,30.528,0,0,0-3.075-12.577Z" transform="translate(-411.006 -162.147)" fill="#ffd70f"/>
        </g>
        <path id="Trazado_119158" data-name="Trazado 119158" d="M427.308,184.335a10.954,10.954,0,0,1-2.255-2.7c-.372-.624-.36-1.3,0-1.512a2.88,2.88,0,0,0,1.151-1.284c.4.109.885-.037.885-.578a2.142,2.142,0,0,0-.57-1.459,7.172,7.172,0,0,0-3.626-6.368c-2.721-1.571-3.529-.073-3.626,2.181-.327-.072-.571.247-.571.8a2.615,2.615,0,0,0,.885,1.6,12.86,12.86,0,0,0,1.151,2.612c.363.631.376,1.322,0,1.516a2.969,2.969,0,0,1-2.254.1c-1.143-.346-1.991.344-1.991,1.751v2.44a1.644,1.644,0,0,0,.746,1.287l11.315,6.532c.412.238.746.047.746-.425v-2.44A5.811,5.811,0,0,0,427.308,184.335Z" transform="translate(-406.905 -159.727)" fill="#ffd70f"/>
      </g>
    </g>
    <g id="Grupo_82248" data-name="Grupo 82248" transform="translate(486.916 173.768)">
      <path id="Trazado_119159" data-name="Trazado 119159" d="M562.276,229.5,532.023,212a7.478,7.478,0,0,1-3.123-5.966v-7.169c0-2.3,1.4-3.356,3.123-2.361L562.276,214a7.479,7.479,0,0,1,3.123,5.966v7.169C565.4,229.436,564,230.493,562.276,229.5Z" transform="translate(-528.9 -195.383)" fill="#0fbab8"/>
      <path id="Trazado_119160" data-name="Trazado 119160" d="M563.177,227.357,533.4,210.14a5.309,5.309,0,0,1-2.246-4.448v-5.138a.553.553,0,0,1,.834-.476l.1.057L561.9,217.376a4.8,4.8,0,0,1,2.246,4.448v5.057a.6.6,0,0,1-.894.518Z" transform="translate(-529.399 -196.24)" fill="#084c94"/>
      <path id="Trazado_119161" data-name="Trazado 119161" d="M563.749,226.991l-.072-.041L533.9,209.733a5.311,5.311,0,0,1-2.246-4.448v-5.138a.56.56,0,0,1,.019-.141.552.552,0,0,0-.519.55v5.138a5.309,5.309,0,0,0,2.246,4.448l29.778,17.217.073.041a.6.6,0,0,0,.864-.338A.583.583,0,0,1,563.749,226.991Z" transform="translate(-529.399 -196.241)" fill="#001a46"/>
      <path id="Trazado_119162" data-name="Trazado 119162" d="M564.083,213.038l-30.253-17.494a2.11,2.11,0,0,0-1.827-.269c-.065.025-1.522.768-1.583.8l0,0a2.044,2.044,0,0,1,1.943.214l30.253,17.495a7.476,7.476,0,0,1,3.123,5.966v7.169c0,1.435-.545,2.386-1.373,2.656a.516.516,0,0,0,.273-.093c.04-.023,1.57-.836,1.608-.862a2.884,2.884,0,0,0,.962-2.451V219A7.478,7.478,0,0,0,564.083,213.038Z" transform="translate(-529.236 -195.169)" fill="#0ba19f"/>
      <path id="Trazado_119163" data-name="Trazado 119163" d="M564.083,213.038l-30.253-17.494a2.11,2.11,0,0,0-1.827-.269c-.065.025-1.522.768-1.583.8l0,0a2.044,2.044,0,0,1,1.943.214l30.253,17.495Z" transform="translate(-529.236 -195.169)" fill="#3ecfcd"/>
      <path id="Trazado_119164" data-name="Trazado 119164" d="M562.822,213.906l-30.253-17.494a2.074,2.074,0,0,0-1.881-.241,2.3,2.3,0,0,1,1.506.353l30.253,17.494a7.478,7.478,0,0,1,3.122,5.966v7.169a2.624,2.624,0,0,1-1.241,2.6c.963-.153,1.616-1.143,1.616-2.714v-7.169A7.479,7.479,0,0,0,562.822,213.906Z" transform="translate(-529.296 -195.362)" fill="#fff" opacity="0.7"/>
      <g id="Grupo_82246" data-name="Grupo 82246" transform="translate(6.961 9.133)">
        <path id="Trazado_119165" data-name="Trazado 119165" d="M562.8,222.729a4.149,4.149,0,0,0,1.882,3.247c1.04.6,1.883.12,1.883-1.073a4.148,4.148,0,0,0-1.883-3.247C563.639,221.055,562.8,221.536,562.8,222.729Z" transform="translate(-543.373 -210.114)" fill="#001a46"/>
        <path id="Trazado_119166" data-name="Trazado 119166" d="M556.558,219.1a4.147,4.147,0,0,0,1.882,3.247c1.04.6,1.883.12,1.883-1.073a4.149,4.149,0,0,0-1.883-3.247C557.4,217.431,556.558,217.912,556.558,219.1Z" transform="translate(-541.99 -209.311)" fill="#001a46"/>
        <path id="Trazado_119167" data-name="Trazado 119167" d="M550.32,215.482a4.146,4.146,0,0,0,1.882,3.247c1.04.6,1.883.12,1.883-1.073a4.148,4.148,0,0,0-1.883-3.247C551.162,213.808,550.32,214.289,550.32,215.482Z" transform="translate(-540.608 -208.508)" fill="#001a46"/>
        <path id="Trazado_119168" data-name="Trazado 119168" d="M544.081,211.858a4.149,4.149,0,0,0,1.883,3.247c1.04.6,1.883.12,1.883-1.073a4.148,4.148,0,0,0-1.883-3.247C544.924,210.184,544.081,210.665,544.081,211.858Z" transform="translate(-539.225 -207.705)" fill="#001a46"/>
        <path id="Trazado_119169" data-name="Trazado 119169" d="M537.843,208.234a4.148,4.148,0,0,0,1.883,3.247c1.04.6,1.882.12,1.882-1.073a4.148,4.148,0,0,0-1.882-3.247C538.686,206.56,537.843,207.041,537.843,208.234Z" transform="translate(-537.843 -206.902)" fill="#001a46"/>
      </g>
      <g id="Grupo_82247" data-name="Grupo 82247" transform="translate(6.379 9.172)">
        <path id="Trazado_119170" data-name="Trazado 119170" d="M562.047,222.779a4.149,4.149,0,0,0,1.883,3.247c1.04.6,1.882.12,1.882-1.073a4.147,4.147,0,0,0-1.882-3.247C562.89,221.105,562.047,221.586,562.047,222.779Z" transform="translate(-542.624 -210.164)" fill="#a8cff0"/>
        <path id="Trazado_119171" data-name="Trazado 119171" d="M555.809,219.155a4.148,4.148,0,0,0,1.883,3.247c1.039.6,1.882.12,1.882-1.073a4.15,4.15,0,0,0-1.882-3.247C556.652,217.481,555.809,217.962,555.809,219.155Z" transform="translate(-541.242 -209.361)" fill="#a8cff0"/>
        <path id="Trazado_119172" data-name="Trazado 119172" d="M549.571,215.532a4.148,4.148,0,0,0,1.883,3.247c1.039.6,1.882.12,1.882-1.073a4.149,4.149,0,0,0-1.882-3.247C550.414,213.858,549.571,214.339,549.571,215.532Z" transform="translate(-539.86 -208.558)" fill="#a8cff0"/>
        <path id="Trazado_119173" data-name="Trazado 119173" d="M543.333,211.908a4.151,4.151,0,0,0,1.882,3.247c1.04.6,1.883.119,1.883-1.073a4.148,4.148,0,0,0-1.883-3.247C544.176,210.234,543.333,210.715,543.333,211.908Z" transform="translate(-538.477 -207.755)" fill="#a8cff0"/>
        <path id="Trazado_119174" data-name="Trazado 119174" d="M537.095,208.284a4.149,4.149,0,0,0,1.882,3.247c1.04.6,1.883.12,1.883-1.073a4.149,4.149,0,0,0-1.883-3.247C537.938,206.61,537.095,207.091,537.095,208.284Z" transform="translate(-537.095 -206.952)" fill="#a8cff0"/>
      </g>
    </g>
    <g id="Grupo_82252" data-name="Grupo 82252" transform="translate(489.984 212.117)">
      <path id="Trazado_119175" data-name="Trazado 119175" d="M558.417,317.688l-23.9-13.754c-2.487-1.435-2.175-3.943.7-5.6h0c2.871-1.658,12.37-1.667,14.856-.232l21.186,12.226c3.817,2.253.038,5.344-3.141,6.959h0C565.247,318.944,560.9,319.124,558.417,317.688Z" transform="translate(-532.842 -256.096)" fill="#92b4d1" opacity="0.2"/>
      <path id="Trazado_119176" data-name="Trazado 119176" d="M567.821,282.783,533.271,269.9v25.625a2.255,2.255,0,0,0,1.349,2.232l23.364,13.531c2.024,1.168,5.559,1.022,7.9-.327h0a3.32,3.32,0,0,0,1.93-2.491l.012,0Z" transform="translate(-532.933 -250.078)" fill="#72b5e8"/>
      <path id="Trazado_119177" data-name="Trazado 119177" d="M557.983,284.526,534.619,271c-2.025-1.168-1.77-3.209.567-4.559h0c2.337-1.349,5.872-1.5,7.9-.327l23.364,13.531c2.024,1.168,1.77,3.209-.567,4.559h0C563.541,285.548,560.006,285.695,557.983,284.526Z" transform="translate(-532.933 -249.064)" fill="#a8cff0"/>
      <path id="Trazado_119178" data-name="Trazado 119178" d="M565.879,284.884c-2.338,1.349-5.872,1.5-7.9.328l-23.364-13.531a2.415,2.415,0,0,1-1.353-1.806,2.264,2.264,0,0,0,1.353,2.2l23.364,13.531c2.024,1.168,5.559,1.022,7.9-.327,1.361-.786,2.01-1.807,1.919-2.753A3.432,3.432,0,0,1,565.879,284.884Z" transform="translate(-532.933 -250.073)" fill="#fff"/>
      <g id="Grupo_82251" data-name="Grupo 82251" transform="translate(5.241)">
        <path id="Trazado_119179" data-name="Trazado 119179" d="M554.249,245.757h0a9.788,9.788,0,0,0-14.674,8.481v10.615h0a.14.14,0,0,1,0,.015c0,1.041,1.438,1.878,3.213,1.878s3.213-.838,3.213-1.87c0-.012,0-.024,0-.037h.034v-9.232a4.148,4.148,0,0,1,6.214-3.6h0a10.345,10.345,0,0,1,5.19,8.969v14.154h.034c.035,1.016,1.457,1.833,3.209,1.833s3.194-.827,3.211-1.853h0V262.443A19.257,19.257,0,0,0,554.249,245.757Z" transform="translate(-539.575 -244.436)" fill="#2672ab"/>
        <g id="Grupo_82249" data-name="Grupo 82249" transform="translate(13.885 5.922)">
          <path id="Trazado_119180" data-name="Trazado 119180" d="M558.012,252.344a6.049,6.049,0,0,0-.6-.3,11.276,11.276,0,0,1,4.976,9.334v16.609a3.9,3.9,0,0,0,1.255.459v-16.36A11.275,11.275,0,0,0,558.012,252.344Z" transform="translate(-557.413 -252.044)" fill="#3f92d1"/>
        </g>
        <g id="Grupo_82250" data-name="Grupo 82250" transform="translate(2.667 4.52)">
          <path id="Trazado_119181" data-name="Trazado 119181" d="M548.293,250.242a5.264,5.264,0,0,0-5.258,5.258v11.087l-.034,1.15a4.528,4.528,0,0,0,1.842-.221l.033-1.15V255.279a5.268,5.268,0,0,1,3.716-5.028C548.493,250.246,548.393,250.242,548.293,250.242Z" transform="translate(-543.001 -250.242)" fill="#084c94"/>
        </g>
        <path id="Trazado_119182" data-name="Trazado 119182" d="M551,247a10.161,10.161,0,0,1,4.778,1.2,18.052,18.052,0,0,0-1.771-1.167,8.555,8.555,0,0,0-4.319-1.174,8.717,8.717,0,0,0-8.7,8.7v.023A10.5,10.5,0,0,1,551,247Z" transform="translate(-539.889 -244.75)" fill="#3f92d1"/>
        <path id="Trazado_119183" data-name="Trazado 119183" d="M567.63,268.69l0,12.422a3.986,3.986,0,0,0,1.607-.559,1.054,1.054,0,0,0,.111-.435l0-12.671C569.347,261.968,567.63,263.106,567.63,268.69Z" transform="translate(-545.792 -248.743)" fill="#084c94"/>
      </g>
      <path id="Trazado_119184" data-name="Trazado 119184" d="M553.964,294.141a6.983,6.983,0,0,0-3.168-5.464c-1.75-1.01-3.168-.2-3.168,1.807a6.893,6.893,0,0,0,1.6,4.082v6.36l3.132,1.809v-6.36C553.318,296.3,553.964,295.494,553.964,294.141Z" transform="translate(-536.119 -254.143)" fill="#084c94"/>
      <path id="Trazado_119185" data-name="Trazado 119185" d="M549.776,300.7v-6.36a6.892,6.892,0,0,1-1.6-4.082,2.262,2.262,0,0,1,.831-1.969c-.832.175-1.378.958-1.378,2.2a6.893,6.893,0,0,0,1.6,4.082v6.36l3.132,1.809v-.55Z" transform="translate(-536.119 -254.154)" fill="#001a46"/>
    </g>
  </g>
</svg>
