<svg xmlns="http://www.w3.org/2000/svg" width="278.136" height="285.15" viewBox="0 0 278.136 285.15">
  <g id="Grupo_948609" data-name="Grupo 948609" transform="translate(-645.194 -57.482)">
    <path id="Trazado_634001" data-name="Trazado 634001" d="M675.878,273.318c-2.9-18.452-22.727-19.238-22.727-42.737s30.375-39.391,30.375-55.632-21.166-62.911,10.154-73.615c16.369-5.594,25.033,19.037,45.98,2.337,23.467-18.708,37.931-29.415,54.975-18.921,20.117,12.385,19.359,59.488,47.992,67.67s83.3,19.41,83.3,41.919-27.835,26.792-27.835,36.91,13.083,27.682,0,40.793S866.7,273.436,855.1,275.23c-24.276,3.756-33.234,38.981-60.3,51.945C755.013,346.227,685.235,332.832,675.878,273.318Z" transform="translate(-2.593 -7.543)" fill="#e6e1fb"/>
    <path id="Trazado_634002" data-name="Trazado 634002" d="M731.031,142.673c-2.35-6.8-2.141-13.49,2.172-17.91,5.013-5.135,8.8-3.458,8.992-12.2.195-8.9,10.725-15.5,21.352-9.256,6.228-2.147,12.312,5.755,12.727,12.165.66,10.173-8.117,22-1.79,28.979Z" transform="translate(-27.489 -14.135)" fill="#32293a"/>
    <g id="Grupo_948645" data-name="Grupo 948645" transform="translate(777.373 94.408)">
      <g id="Grupo_948640" data-name="Grupo 948640" transform="translate(0 15.924)">
        <path id="Trazado_634003" data-name="Trazado 634003" d="M958.635,136.563v67.282a9.462,9.462,0,0,1-9.448,9.476H851.406a9.462,9.462,0,0,1-9.447-9.476V136.563Z" transform="translate(-841.503 -136.106)" fill="#fffdf7"/>
        <path id="Trazado_634004" data-name="Trazado 634004" d="M948.967,213.557H851.185a9.93,9.93,0,0,1-9.9-9.933V135.885H958.87v67.739A9.929,9.929,0,0,1,948.967,213.557ZM842.194,136.8v66.825a9.015,9.015,0,0,0,8.991,9.019h97.782a9.015,9.015,0,0,0,8.992-9.019V136.8Z" transform="translate(-841.282 -135.885)" fill="#32293a"/>
      </g>
      <g id="Grupo_948641" data-name="Grupo 948641">
        <path id="Trazado_634005" data-name="Trazado 634005" d="M958.635,122.415v6.448H841.959v-6.448a9.462,9.462,0,0,1,9.447-9.476h97.781A9.462,9.462,0,0,1,958.635,122.415Z" transform="translate(-841.503 -112.483)" fill="#583ae2"/>
        <path id="Trazado_634006" data-name="Trazado 634006" d="M958.87,129.1H841.282v-6.905a9.93,9.93,0,0,1,9.9-9.933h97.782a9.929,9.929,0,0,1,9.9,9.933Zm-116.675-.914H957.958v-5.991a9.015,9.015,0,0,0-8.992-9.019H851.185a9.015,9.015,0,0,0-8.991,9.019Z" transform="translate(-841.282 -112.262)" fill="#583ae2"/>
      </g>
      <g id="Grupo_948642" data-name="Grupo 948642" transform="translate(5.942 5.516)">
        <rect id="Rectángulo_34845" data-name="Rectángulo 34845" width="59.223" height="5.296" rx="2.648" transform="translate(0.455 0.457)" fill="#fffdf7"/>
        <path id="Trazado_634007" data-name="Trazado 634007" d="M907.133,126.655H853.2a3.1,3.1,0,0,1,0-6.21h53.938a3.1,3.1,0,0,1,0,6.21Zm-53.938-5.3a2.191,2.191,0,0,0,0,4.383h53.938a2.191,2.191,0,0,0,0-4.383Z" transform="translate(-850.097 -120.445)" fill="#32293a"/>
      </g>
      <g id="Grupo_948643" data-name="Grupo 948643" transform="translate(103.552 5.252)">
        <path id="Trazado_634008" data-name="Trazado 634008" d="M995.577,123.64a2.9,2.9,0,1,1,2.9,2.909A2.905,2.905,0,0,1,995.577,123.64Z" transform="translate(-995.121 -120.274)" fill="#fffdf7"/>
        <path id="Trazado_634009" data-name="Trazado 634009" d="M998.26,126.784a3.366,3.366,0,1,1,3.358-3.366A3.366,3.366,0,0,1,998.26,126.784Zm0-5.818a2.452,2.452,0,1,0,2.446,2.452A2.453,2.453,0,0,0,998.26,120.966Z" transform="translate(-994.901 -120.053)" fill="#32293a"/>
      </g>
      <g id="Grupo_948644" data-name="Grupo 948644" transform="translate(96.438 6.266)">
        <path id="Trazado_634010" data-name="Trazado 634010" d="M985.024,124.13a1.891,1.891,0,1,1,1.891,1.9A1.894,1.894,0,0,1,985.024,124.13Z" transform="translate(-984.568 -121.778)" fill="#fffdf7"/>
        <path id="Trazado_634011" data-name="Trazado 634011" d="M986.7,126.261a2.352,2.352,0,1,1,2.346-2.352A2.352,2.352,0,0,1,986.7,126.261Zm0-3.79a1.438,1.438,0,1,0,1.435,1.438A1.439,1.439,0,0,0,986.7,122.47Z" transform="translate(-984.348 -121.557)" fill="#32293a"/>
      </g>
      <rect id="Rectángulo_34846" data-name="Rectángulo 34846" width="46.702" height="25.191" rx="7.57" transform="translate(9.049 25.422)" fill="#e6e1fb"/>
      <rect id="Rectángulo_34847" data-name="Rectángulo 34847" width="46.702" height="25.191" rx="7.57" transform="translate(9.049 58.651)" fill="#e6e1fb"/>
      <rect id="Rectángulo_34848" data-name="Rectángulo 34848" width="46.702" height="25.191" rx="7.57" transform="translate(62.186 25.422)" fill="#e6e1fb"/>
      <rect id="Rectángulo_34849" data-name="Rectángulo 34849" width="46.702" height="25.191" rx="7.57" transform="translate(62.186 58.651)" fill="#e6e1fb"/>
    </g>
    <path id="Trazado_634012" data-name="Trazado 634012" d="M824.781,169.33l7.422,5.134,33.169-28.83a6.974,6.974,0,0,1,7.074-1.163L891.7,152.1a1.072,1.072,0,0,1,.554,1.5,4.165,4.165,0,0,1-1.753,1.952,5.714,5.714,0,0,1-3.081.206l1.763,4.225a1.127,1.127,0,0,1-.747,1.527,3.879,3.879,0,0,1-3.933-.742c-.179,1.1-3.324,2.085-4.735,1.321-.762,1.263-3.306.968-4.482,0a29.149,29.149,0,0,1-2.276-2.617,7.646,7.646,0,0,1-6.463,6.688c-1.374,1.517-18.227,17.716-27.223,26.349a11.085,11.085,0,0,1-12.522,1.976l-13.318-6.467Z" transform="translate(-54.849 -28.192)" fill="#f4c7a8"/>
    <g id="Grupo_948646" data-name="Grupo 948646" transform="translate(790.412 115.332)">
      <path id="Trazado_634013" data-name="Trazado 634013" d="M861.081,186.6a.457.457,0,0,1-.316-.786c8.893-8.547,19.723-18.987,20.81-20.188a.456.456,0,0,1,.278-.146,7.163,7.163,0,0,0,6.069-6.265.455.455,0,0,1,.812-.253,27.093,27.093,0,0,0,2.208,2.546,3,3,0,0,0,2.288.506,1.853,1.853,0,0,0,1.323-.771.454.454,0,0,1,.384-.22.37.37,0,0,1,.39.209,1.8,1.8,0,0,0,1.949.547,3.148,3.148,0,0,0,2.143-1.312.454.454,0,0,1,.782-.237,3.338,3.338,0,0,0,3.239.671.868.868,0,0,0,.583-.446.831.831,0,0,0,.029-.708l-1.685-4.04a.456.456,0,0,1,.582-.6,3.643,3.643,0,0,0,2.71-.185,3.2,3.2,0,0,0,1.428-1.525.811.811,0,0,0,.064-.682.852.852,0,0,0-.491-.512l-19.015-7.529a6.509,6.509,0,0,0-6.614,1.087l-18.981,16.5a.456.456,0,1,1-.6-.69l18.985-16.5a7.419,7.419,0,0,1,7.54-1.242l19.015,7.529a1.765,1.765,0,0,1,1.016,1.062,1.735,1.735,0,0,1-.136,1.438,4.1,4.1,0,0,1-1.8,1.88,4.357,4.357,0,0,1-2.53.435l1.347,3.229a1.745,1.745,0,0,1-.06,1.48,1.775,1.775,0,0,1-1.2.917,4.465,4.465,0,0,1-3.633-.522,4.7,4.7,0,0,1-2.542,1.4,2.829,2.829,0,0,1-2.508-.489,3.007,3.007,0,0,1-1.568.729,3.877,3.877,0,0,1-3.022-.7,17.888,17.888,0,0,1-1.692-1.874,8.243,8.243,0,0,1-6.535,6.022c-1.589,1.674-12.081,11.79-20.739,20.111A.454.454,0,0,1,861.081,186.6Z" transform="translate(-860.625 -143.302)" fill="#32293a"/>
    </g>
    <g id="Grupo_948653" data-name="Grupo 948653" transform="translate(746.515 303.919)">
      <rect id="Rectángulo_34850" data-name="Rectángulo 34850" width="18.822" height="16.149" transform="translate(3.782)" fill="#f4c7a8"/>
      <path id="Trazado_634014" data-name="Trazado 634014" d="M795.931,438.138V436.8a2.648,2.648,0,0,1,2.645-2.65h.88a2.644,2.644,0,0,1,2.359,1.452l1.247,2.465a2.643,2.643,0,0,0,2.359,1.452h7.61a2.643,2.643,0,0,0,2.149-1.106l4.21-5.886a2.644,2.644,0,0,1,2.15-1.106h0a3.255,3.255,0,0,1,1.944.853c7.3,5.634,15.173,11.208,22.817,16.192,1.236.806,2.484,1.586,2.956,2.986l1.894,5.615H796.1Z" transform="translate(-795.643 -425.791)" fill="#583ae2"/>
      <g id="Grupo_948647" data-name="Grupo 948647" transform="translate(0 30.817)">
        <path id="Trazado_634015" data-name="Trazado 634015" d="M849.31,476.685H797.661a2.162,2.162,0,0,1-2.157-2.162v-5.278a.456.456,0,1,1,.911,0v5.278a1.248,1.248,0,0,0,1.246,1.248H849.31a1.248,1.248,0,0,0,1.245-1.248v-5.278a.456.456,0,1,1,.912,0v5.278A2.162,2.162,0,0,1,849.31,476.685Z" transform="translate(-795.504 -468.788)" fill="#32293a"/>
      </g>
      <g id="Grupo_948648" data-name="Grupo 948648" transform="translate(0.288 19.934)">
        <path id="Trazado_634016" data-name="Trazado 634016" d="M806.782,464.232l-5.631-8.661a4.41,4.41,0,0,0-3.709-2.014h-1.51v-.913h1.51a5.319,5.319,0,0,1,4.473,2.429l5.631,8.662Z" transform="translate(-795.931 -452.643)" fill="#32293a"/>
      </g>
      <g id="Grupo_948649" data-name="Grupo 948649" transform="translate(27.2 8.896)">
        <path id="Trazado_634017" data-name="Trazado 634017" d="M849.405,452.344a2.655,2.655,0,0,1-1.463-.439l-10.872-7.127a2.691,2.691,0,0,1-.7-3.839l3.416-4.671.735.54-3.416,4.671a1.779,1.779,0,0,0,.459,2.535l10.872,7.127a1.772,1.772,0,0,0,2.458-.521l2.8-4.327.764.5-2.8,4.327a2.666,2.666,0,0,1-1.7,1.168A2.738,2.738,0,0,1,849.405,452.344Z" transform="translate(-835.855 -436.268)" fill="#32293a"/>
      </g>
      <g id="Grupo_948650" data-name="Grupo 948650" transform="translate(30.186 11.397)">
        <path id="Trazado_634018" data-name="Trazado 634018" d="M845.219,440.655l-4.259,6.078Z" transform="translate(-840.504 -440.199)" fill="#ffcc38"/>
        <path id="Trazado_634019" data-name="Trazado 634019" d="M840.74,446.97a.457.457,0,0,1-.373-.719l4.259-6.079a.456.456,0,1,1,.745.524l-4.259,6.079A.454.454,0,0,1,840.74,446.97Z" transform="translate(-840.284 -439.978)" fill="#32293a"/>
      </g>
      <g id="Grupo_948651" data-name="Grupo 948651" transform="translate(33.596 13.804)">
        <path id="Trazado_634020" data-name="Trazado 634020" d="M850.279,444.225,846.02,450.3Z" transform="translate(-845.564 -443.769)" fill="#ffcc38"/>
        <path id="Trazado_634021" data-name="Trazado 634021" d="M845.8,450.54a.456.456,0,0,1-.373-.719l4.26-6.079a.456.456,0,1,1,.745.525l-4.26,6.079A.453.453,0,0,1,845.8,450.54Z" transform="translate(-845.344 -443.548)" fill="#32293a"/>
      </g>
      <g id="Grupo_948652" data-name="Grupo 948652" transform="translate(37.072 16.064)">
        <path id="Trazado_634022" data-name="Trazado 634022" d="M855.435,447.579l-4.259,6.078Z" transform="translate(-850.721 -447.123)" fill="#ffcc38"/>
        <path id="Trazado_634023" data-name="Trazado 634023" d="M850.956,453.893a.456.456,0,0,1-.373-.719l4.258-6.077a.456.456,0,1,1,.746.524l-4.259,6.078A.456.456,0,0,1,850.956,453.893Z" transform="translate(-850.501 -446.902)" fill="#32293a"/>
      </g>
    </g>
    <g id="Grupo_948660" data-name="Grupo 948660" transform="translate(679.915 303.804)">
      <path id="Trazado_634024" data-name="Trazado 634024" d="M719.385,439.049H700.563l4.555-16.149H723.94Z" transform="translate(-697.96 -422.901)" fill="#f4c7a8"/>
      <path id="Trazado_634025" data-name="Trazado 634025" d="M697.129,437.968v-1.34a2.648,2.648,0,0,1,2.644-2.651h.88a2.643,2.643,0,0,1,2.359,1.452l1.247,2.465a2.645,2.645,0,0,0,2.359,1.452h7.61a2.644,2.644,0,0,0,2.15-1.106l4.21-5.886a2.643,2.643,0,0,1,2.15-1.106h0a3.251,3.251,0,0,1,1.944.853c7.3,5.634,15.173,11.209,22.817,16.192,1.236.806,2.483,1.587,2.956,2.986l1.894,5.616H697.3Z" transform="translate(-696.841 -425.621)" fill="#583ae2"/>
      <g id="Grupo_948654" data-name="Grupo 948654" transform="translate(0 30.817)">
        <path id="Trazado_634026" data-name="Trazado 634026" d="M750.507,476.515H698.859a2.162,2.162,0,0,1-2.157-2.162v-5.278a.456.456,0,1,1,.911,0v5.278a1.248,1.248,0,0,0,1.246,1.248h51.648a1.248,1.248,0,0,0,1.246-1.248v-5.278a.456.456,0,1,1,.911,0v5.278A2.162,2.162,0,0,1,750.507,476.515Z" transform="translate(-696.702 -468.618)" fill="#32293a"/>
      </g>
      <g id="Grupo_948655" data-name="Grupo 948655" transform="translate(0.288 19.934)">
        <path id="Trazado_634027" data-name="Trazado 634027" d="M707.979,464.063l-5.631-8.662a4.41,4.41,0,0,0-3.71-2.014h-1.509v-.913h1.509a5.322,5.322,0,0,1,4.474,2.429l5.631,8.662Z" transform="translate(-697.129 -452.473)" fill="#32293a"/>
      </g>
      <g id="Grupo_948656" data-name="Grupo 948656" transform="translate(27.199 8.896)">
        <path id="Trazado_634028" data-name="Trazado 634028" d="M750.6,452.174a2.663,2.663,0,0,1-1.463-.44l-10.871-7.126a2.692,2.692,0,0,1-.7-3.839l3.415-4.671.735.54-3.416,4.671a1.777,1.777,0,0,0,.46,2.535l10.871,7.126a1.771,1.771,0,0,0,2.457-.52l2.8-4.327.764.5-2.8,4.327a2.684,2.684,0,0,1-2.257,1.227Z" transform="translate(-737.052 -436.098)" fill="#32293a"/>
      </g>
      <g id="Grupo_948657" data-name="Grupo 948657" transform="translate(30.185 11.397)">
        <path id="Trazado_634029" data-name="Trazado 634029" d="M746.417,440.485l-4.259,6.078Z" transform="translate(-741.702 -440.029)" fill="#ffcc38"/>
        <path id="Trazado_634030" data-name="Trazado 634030" d="M741.938,446.8a.456.456,0,0,1-.373-.719L745.823,440a.456.456,0,1,1,.746.524L742.31,446.6A.455.455,0,0,1,741.938,446.8Z" transform="translate(-741.482 -439.808)" fill="#32293a"/>
      </g>
      <g id="Grupo_948658" data-name="Grupo 948658" transform="translate(33.596 13.804)">
        <path id="Trazado_634031" data-name="Trazado 634031" d="M751.477,444.056l-4.259,6.078Z" transform="translate(-746.762 -443.599)" fill="#ffcc38"/>
        <path id="Trazado_634032" data-name="Trazado 634032" d="M747,450.37a.453.453,0,0,1-.262-.083.457.457,0,0,1-.111-.636l4.26-6.078a.456.456,0,1,1,.746.525l-4.26,6.078A.454.454,0,0,1,747,450.37Z" transform="translate(-746.541 -443.379)" fill="#32293a"/>
      </g>
      <g id="Grupo_948659" data-name="Grupo 948659" transform="translate(37.072 16.064)">
        <path id="Trazado_634033" data-name="Trazado 634033" d="M756.633,447.409l-4.259,6.078Z" transform="translate(-751.918 -446.953)" fill="#ffcc38"/>
        <path id="Trazado_634034" data-name="Trazado 634034" d="M752.154,453.724a.457.457,0,0,1-.373-.719l4.259-6.078a.456.456,0,1,1,.746.524l-4.258,6.078A.456.456,0,0,1,752.154,453.724Z" transform="translate(-751.698 -446.732)" fill="#32293a"/>
      </g>
    </g>
    <path id="Trazado_634035" data-name="Trazado 634035" d="M756.635,236.337l-6.022,28.521,35.2,29a15.264,15.264,0,0,1,5.59,11.811V364.16a1.734,1.734,0,0,1-1.732,1.736H763.818a1.734,1.734,0,0,1-1.732-1.736V314.171L742.9,297.62,727.28,363.306a1.732,1.732,0,0,1-1.685,1.333H699.945a1.735,1.735,0,0,1-1.687-2.132l19.387-82.865-8.894-9.889,6.307-33.415Z" transform="translate(-17.28 -58.292)" fill="#32293a"/>
    <path id="Trazado_634036" data-name="Trazado 634036" d="M759.82,157.232l-40.173.171a12.223,12.223,0,0,0-7.2,2.386l-17.571,12.533,13,18.439,13.568-8.919-7.467,28.713h41.576l6.514-26.082,12.766,7.862,11.3-18.686L767.455,159.87A12.222,12.222,0,0,0,759.82,157.232Z" transform="translate(-16.192 -32.51)" fill="#583ae2"/>
    <path id="Trazado_634037" data-name="Trazado 634037" d="M769.7,144.324c.054,3.279-3.243,10.879-11.624,10.818-6.227-.045-10.645-7.518-10.445-10.724.065-.05,3.172-2.063,4.816-3.128a3.251,3.251,0,0,0,1.344-1.787l2.83-9.3c-4.3.4-4.036-6.714.348-5.172,5.393,1.9,10.988-7.5,10.988-7.5,1.349,3.751,8.431,5.543,9.637,5.463-1.344,5.085-4.944,15.234-10.2,12.94.006,0-.5,1.471-.947,2.789a3.269,3.269,0,0,0,.907,3.49Z" transform="translate(-33.384 -19.572)" fill="#f4c7a8"/>
    <path id="Trazado_634038" data-name="Trazado 634038" d="M709.293,281.409l-4.833-7.366a4.811,4.811,0,0,1,1.372-6.654L727.9,252.848a4.788,4.788,0,0,1,6.64,1.374l4.832,7.366A4.81,4.81,0,0,1,738,268.242l-22.071,14.542A4.786,4.786,0,0,1,709.293,281.409Z" transform="translate(-19.059 -63.415)" fill="#32293a"/>
    <g id="Grupo_948661" data-name="Grupo 948661" transform="translate(684.159 188.188)">
      <path id="Trazado_634039" data-name="Trazado 634039" d="M713.088,283.81a5.25,5.25,0,0,1-4.4-2.369l-4.832-7.366a5.274,5.274,0,0,1,1.5-7.286l22.071-14.542a5.251,5.251,0,0,1,7.271,1.506l4.832,7.366a5.274,5.274,0,0,1-1.5,7.285l-22.07,14.542A5.2,5.2,0,0,1,713.088,283.81Zm-3.634-2.871a4.338,4.338,0,0,0,6.009,1.244l22.071-14.542a4.358,4.358,0,0,0,1.241-6.021l-4.832-7.366a4.339,4.339,0,0,0-6.009-1.245l-22.071,14.542a4.36,4.36,0,0,0-1.242,6.022Z" transform="translate(-702.999 -251.384)" fill="#faf5ff"/>
    </g>
    <path id="Trazado_634040" data-name="Trazado 634040" d="M698.774,213.091l6.053,10.729,12.255,5.227-3.73,2.457s10.424,16.094,10.477,16.049c1.28,2.131-2.949,5.476-4.6,3.3,1.128,2.591-2.686,4.855-4.424,2.341,1.411,2.264-2.611,5.36-4.736,2.616,1.976,2.7-2.522,4.882-4.682,2.5-1.357-1.5-13.4-15.9-13.4-15.9l-12.311-21.326-8.032-14.144a15.867,15.867,0,0,1,5.343-21.265l9.637-6.056,13,18.439-6.878,4.549Z" transform="translate(-7.947 -39.806)" fill="#f4c7a8"/>
    <g id="Grupo_948662" data-name="Grupo 948662" transform="translate(696.424 183.557)">
      <path id="Trazado_634041" data-name="Trazado 634041" d="M733.9,250.654a.453.453,0,0,1-.178-.036l-12.255-5.228a.456.456,0,0,1,.357-.84l12.255,5.228a.457.457,0,0,1-.179.876Z" transform="translate(-721.194 -244.514)" fill="#faf5ff"/>
    </g>
    <g id="Grupo_948663" data-name="Grupo 948663" transform="translate(668.125 175.265)">
      <path id="Trazado_634042" data-name="Trazado 634042" d="M708.532,275.9a.453.453,0,0,1-.337-.15c-1.348-1.488-12.92-15.324-13.413-15.912l-12.355-21.391-3.155-5.556a.456.456,0,0,1,.793-.452L683.218,238l12.307,21.324c.075.079,12.008,14.345,13.343,15.821a.457.457,0,0,1-.337.764Z" transform="translate(-679.212 -232.212)" fill="#32293a"/>
    </g>
    <g id="Grupo_948664" data-name="Grupo 948664" transform="translate(696.989 188.784)">
      <path id="Trazado_634043" data-name="Trazado 634043" d="M724.844,283.458a3.589,3.589,0,0,1-2.693-1.167.456.456,0,1,1,.674-.613,2.818,2.818,0,0,0,3.78.278,1.47,1.47,0,0,0,.2-2.2l.727-.55a2.2,2.2,0,0,0,3.164.415,1.918,1.918,0,0,0,.826-2.509l.761-.5a1.955,1.955,0,0,0,2.69.6,1.928,1.928,0,0,0,.942-2.5l-1.53-3.517,2.311,3.058c.647.855,1.8.529,2.6-.011,1.016-.689,1.757-1.916,1.24-2.777l.029-.018c-.577-.706-2.47-3.624-10.5-16.019l-.247-.381,4.109-2.706a.456.456,0,1,1,.5.762l-3.351,2.209c3.8,5.871,9.254,14.259,10.094,15.481l.025,0,.119.2c.826,1.376-.162,3.09-1.511,4a3.192,3.192,0,0,1-2.809.562,3.085,3.085,0,0,1-4.35,2.562,3.446,3.446,0,0,1-4.535,2.669,2.352,2.352,0,0,1-.928,1.87A3.732,3.732,0,0,1,724.844,283.458Z" transform="translate(-722.033 -252.268)" fill="#faf5ff"/>
    </g>
    <g id="Grupo_948665" data-name="Grupo 948665" transform="translate(683.2 160.117)">
      <path id="Trazado_634044" data-name="Trazado 634044" d="M715.255,234.094a.456.456,0,0,1-.4-.232l-13.223-23.439a.456.456,0,1,1,.793-.45l13.223,23.439a.457.457,0,0,1-.172.622A.45.45,0,0,1,715.255,234.094Z" transform="translate(-701.577 -209.741)" fill="#32293a"/>
    </g>
    <g id="Grupo_948666" data-name="Grupo 948666" transform="translate(703.881 201.289)">
      <path id="Trazado_634045" data-name="Trazado 634045" d="M739.662,281.033a.452.452,0,0,1-.365-.183l-6.951-9.3a.456.456,0,1,1,.729-.547l6.95,9.3a.456.456,0,0,1-.091.638A.451.451,0,0,1,739.662,281.033Z" transform="translate(-732.257 -270.819)" fill="#32293a"/>
    </g>
    <g id="Grupo_948667" data-name="Grupo 948667" transform="translate(699.899 203.858)">
      <path id="Trazado_634046" data-name="Trazado 634046" d="M733.312,284.617a.453.453,0,0,1-.369-.19l-6.508-9.073a.456.456,0,1,1,.739-.533l6.508,9.073a.456.456,0,0,1-.369.723Z" transform="translate(-726.348 -274.63)" fill="#32293a"/>
    </g>
    <g id="Grupo_948668" data-name="Grupo 948668" transform="translate(695.216 206.456)">
      <path id="Trazado_634047" data-name="Trazado 634047" d="M726.312,288.489a.452.452,0,0,1-.371-.192l-6.454-9.091a.456.456,0,1,1,.741-.53l6.454,9.091a.457.457,0,0,1-.107.637A.45.45,0,0,1,726.312,288.489Z" transform="translate(-719.402 -278.485)" fill="#32293a"/>
    </g>
    <g id="Grupo_948669" data-name="Grupo 948669" transform="translate(713.925 198.162)">
      <path id="Trazado_634048" data-name="Trazado 634048" d="M749.281,270.44a2.13,2.13,0,0,1-.516-4.194,2.124,2.124,0,0,1,2.577,1.548,2.127,2.127,0,0,1-2.061,2.646Zm0-3.345a1.222,1.222,0,0,0-.3.037h0a1.215,1.215,0,1,0,.919.137A1.192,1.192,0,0,0,749.284,267.094Zm-.409-.406h0Z" transform="translate(-747.157 -266.181)" fill="#faf5ff"/>
    </g>
    <g id="Grupo_948670" data-name="Grupo 948670" transform="translate(724.512 191.172)">
      <path id="Trazado_634049" data-name="Trazado 634049" d="M782.864,281.024a.454.454,0,0,1-.288-.1l-19.713-16.2,1.479-8.53a.455.455,0,1,1,.9.156l-1.387,8.006,19.3,15.865a.457.457,0,0,1-.289.81Z" transform="translate(-762.863 -255.81)" fill="#faf5ff"/>
    </g>
    <g id="Grupo_948671" data-name="Grupo 948671" transform="translate(701.934 218.097)">
      <path id="Trazado_634050" data-name="Trazado 634050" d="M776.076,337.926a.455.455,0,0,1-.3-.116L729.52,296.551a.456.456,0,0,1,.606-.681l46.253,41.258a.457.457,0,0,1-.3.8Z" transform="translate(-729.368 -295.754)" fill="#faf5ff"/>
    </g>
    <g id="Grupo_948672" data-name="Grupo 948672" transform="translate(678.227 128.96)">
      <path id="Trazado_634051" data-name="Trazado 634051" d="M707.65,193.267a.454.454,0,0,1-.372-.193l-13-18.44a.457.457,0,0,1,.108-.636L708.964,163.6a.456.456,0,0,1,.529.744l-14.2,10.131,12.475,17.7,17.019-11.722a.456.456,0,0,1,.516.752l-17.39,11.978A.458.458,0,0,1,707.65,193.267Z" transform="translate(-694.198 -163.519)" fill="#32293a"/>
    </g>
    <g id="Grupo_948673" data-name="Grupo 948673" transform="translate(742.107 135.915)">
      <path id="Trazado_634052" data-name="Trazado 634052" d="M789.421,202.849a.46.46,0,0,1-.446-.552l3.739-17.645a5.559,5.559,0,0,0-.487-3.879c-3.3-6.248-3.284-6.34-3.254-6.544a.455.455,0,0,1,.9-.029c.063.16.484,1.07,3.163,6.146a6.468,6.468,0,0,1,.571,4.506l-3.736,17.634A.456.456,0,0,1,789.421,202.849Z" transform="translate(-788.965 -173.837)" fill="#32293a"/>
    </g>
    <g id="Grupo_948674" data-name="Grupo 948674" transform="translate(812.952 123.727)">
      <path id="Trazado_634053" data-name="Trazado 634053" d="M899.409,163.744l-.272-.872s3.788-1.19,6.722-2.074c1.234-.371,1.492-2.109,1.353-2.913a.494.494,0,0,0-.46-.406l-12.262-.811a.457.457,0,0,1,.059-.911l12.262.81a1.408,1.408,0,0,1,1.3,1.161c.222,1.283-.256,3.424-1.989,3.945C903.191,162.555,899.411,163.743,899.409,163.744Z" transform="translate(-894.063 -155.756)" fill="#32293a"/>
    </g>
    <g id="Grupo_948675" data-name="Grupo 948675" transform="translate(826.113 125.431)">
      <path id="Trazado_634054" data-name="Trazado 634054" d="M920.048,160.874a.448.448,0,0,1-.122-.017l-6.005-1.676a.456.456,0,0,1,.244-.88l6,1.676a.457.457,0,0,1-.121.9Z" transform="translate(-913.587 -158.284)" fill="#32293a"/>
    </g>
    <g id="Grupo_948676" data-name="Grupo 948676" transform="translate(826.339 127.597)">
      <path id="Trazado_634055" data-name="Trazado 634055" d="M917.239,166.932a.456.456,0,0,1-.386-.212l-2.86-4.521a.456.456,0,1,1,.77-.488l2.861,4.52a.457.457,0,0,1-.385.7Z" transform="translate(-913.922 -161.498)" fill="#32293a"/>
    </g>
    <g id="Grupo_948677" data-name="Grupo 948677" transform="translate(822.487 129.466)">
      <path id="Trazado_634056" data-name="Trazado 634056" d="M910.642,169.156a.455.455,0,0,1-.408-.253l-1.977-3.972a.456.456,0,1,1,.816-.408l1.976,3.973a.457.457,0,0,1-.2.612A.443.443,0,0,1,910.642,169.156Z" transform="translate(-908.209 -164.27)" fill="#32293a"/>
    </g>
    <g id="Grupo_948678" data-name="Grupo 948678" transform="translate(744.868 140.682)">
      <path id="Trazado_634057" data-name="Trazado 634057" d="M806.828,200.509a.454.454,0,0,1-.232-.065l-13.313-7.929a.456.456,0,0,1,.464-.785l12.925,7.7,11.062-18.3a.454.454,0,0,1,.626-.154L830.2,188.19a.456.456,0,0,1-.473.78l-11.454-6.977-11.06,18.3A.454.454,0,0,1,806.828,200.509Z" transform="translate(-793.06 -180.909)" fill="#32293a"/>
    </g>
    <g id="Grupo_948679" data-name="Grupo 948679" transform="translate(753.449 128.993)">
      <path id="Trazado_634058" data-name="Trazado 634058" d="M822.273,176.17a.453.453,0,0,1-.268-.088l-16.026-11.689a.456.456,0,0,1,.536-.738l16.026,11.689a.456.456,0,0,1-.268.826Z" transform="translate(-805.791 -163.568)" fill="#32293a"/>
    </g>
    <g id="Grupo_948685" data-name="Grupo 948685" transform="translate(799.996 142.199)">
      <path id="Trazado_634059" data-name="Trazado 634059" d="M941.227,245.961l-23.343,14.218a12.615,12.615,0,0,1-13.154-.017l-23.17-14.194a12.675,12.675,0,0,1-5.8-13.27l7.654-38.661a12.643,12.643,0,0,1,12.394-10.2h31.208a12.643,12.643,0,0,1,12.4,10.2l7.649,38.638A12.674,12.674,0,0,1,941.227,245.961Z" transform="translate(-875.062 -183.381)" fill="#583ae2"/>
      <g id="Grupo_948680" data-name="Grupo 948680" transform="translate(0 23.041)">
        <path id="Trazado_634060" data-name="Trazado 634060" d="M904.512,271.538a.454.454,0,0,1-.238-.067L881.1,257.277a13.178,13.178,0,0,1-6.012-13.748l5.112-25.82a.451.451,0,0,1,.535-.359.456.456,0,0,1,.357.537l-5.112,25.82a12.263,12.263,0,0,0,5.594,12.791l23.17,14.194a.457.457,0,0,1-.237.846Z" transform="translate(-874.843 -217.341)" fill="#32293a"/>
      </g>
      <g id="Grupo_948681" data-name="Grupo 948681" transform="translate(50.823 25.879)">
        <path id="Trazado_634061" data-name="Trazado 634061" d="M950.695,267.777a.457.457,0,0,1-.237-.847l14.886-9.067a12.259,12.259,0,0,0,5.621-12.808L966.42,222.1a.455.455,0,1,1,.893-.177l4.545,22.959a13.173,13.173,0,0,1-6.041,13.765l-14.887,9.068A.453.453,0,0,1,950.695,267.777Z" transform="translate(-950.239 -221.551)" fill="#32293a"/>
      </g>
      <g id="Grupo_948682" data-name="Grupo 948682" transform="translate(11.706 0)">
        <path id="Trazado_634062" data-name="Trazado 634062" d="M945.9,199.577a.457.457,0,0,1-.447-.368l-1.049-5.3a12.219,12.219,0,0,0-11.949-9.831H901.245a12.133,12.133,0,0,0-8.272,3.247.456.456,0,1,1-.619-.671,13.047,13.047,0,0,1,8.891-3.49h31.209A13.131,13.131,0,0,1,945.3,193.728l1.049,5.3a.455.455,0,0,1-.446.545Z" transform="translate(-892.208 -183.16)" fill="#32293a"/>
      </g>
      <g id="Grupo_948683" data-name="Grupo 948683" transform="translate(26.199 25.343)">
        <path id="Trazado_634063" data-name="Trazado 634063" d="M914.385,231.273a9.817,9.817,0,1,1,9.817,9.839A9.828,9.828,0,0,1,914.385,231.273Z" transform="translate(-913.929 -220.977)" fill="#fffdf7"/>
        <path id="Trazado_634064" data-name="Trazado 634064" d="M923.982,241.347a10.3,10.3,0,1,1,10.274-10.3A10.3,10.3,0,0,1,923.982,241.347Zm0-19.677a9.382,9.382,0,1,0,9.362,9.382A9.382,9.382,0,0,0,923.982,221.67Z" transform="translate(-913.709 -220.756)" fill="#32293a"/>
      </g>
      <g id="Grupo_948684" data-name="Grupo 948684" transform="translate(31.585 23.796)">
        <path id="Trazado_634065" data-name="Trazado 634065" d="M926.5,234.69a.447.447,0,0,1-.322-.134l-4.345-4.353a.456.456,0,1,1,.644-.646l4.023,4.031,14.959-14.994a.456.456,0,0,1,.645.646l-15.282,15.316A.452.452,0,0,1,926.5,234.69Z" transform="translate(-921.699 -218.461)" fill="#32293a"/>
      </g>
    </g>
    <g id="Grupo_948686" data-name="Grupo 948686" transform="translate(739.594 105.109)">
      <path id="Trazado_634066" data-name="Trazado 634066" d="M785.883,134.554l-.647-.643s.6-.6.973-.975a2.9,2.9,0,0,1-.068-3.117,3.263,3.263,0,0,1,3.126-1.67.455.455,0,0,1,.418.491.445.445,0,0,1-.489.419,2.374,2.374,0,0,0-2.262,1.209,1.994,1.994,0,0,0,.032,2.15.914.914,0,0,1-.117,1.167C786.476,133.956,785.883,134.554,785.883,134.554Z" transform="translate(-785.236 -128.137)" fill="#32293a"/>
    </g>
    <g id="Grupo_948687" data-name="Grupo 948687" transform="translate(732.541 103.586)">
      <path id="Trazado_634067" data-name="Trazado 634067" d="M775.229,127.918a.45.45,0,0,1-.291-.106.456.456,0,0,1-.057-.643c1.246-1.5,3.016-1.7,4.849-.569a.456.456,0,1,1-.477.777,2.6,2.6,0,0,0-3.674.377A.454.454,0,0,1,775.229,127.918Z" transform="translate(-774.774 -125.877)" fill="#32293a"/>
    </g>
    <path id="Trazado_634068" data-name="Trazado 634068" d="M778.6,131.129a.918.918,0,1,1-.623-1.294A1.027,1.027,0,0,1,778.6,131.129Z" transform="translate(-42.899 -23.575)" fill="#32293a"/>
    <path id="Trazado_634069" data-name="Trazado 634069" d="M788.4,132.481a.918.918,0,1,1-.623-1.294A1.028,1.028,0,0,1,788.4,132.481Z" transform="translate(-46.094 -24.016)" fill="#32293a"/>
    <g id="Grupo_948688" data-name="Grupo 948688" transform="translate(735.936 111.759)">
      <path id="Trazado_634070" data-name="Trazado 634070" d="M781.348,139.527a1.712,1.712,0,0,1-.632-.128,1.551,1.551,0,0,1-.877-.78.456.456,0,0,1,.851-.325.833.833,0,0,0,.406.272.576.576,0,0,0,.406.018.456.456,0,1,1,.4.82A1.25,1.25,0,0,1,781.348,139.527Z" transform="translate(-779.81 -138.001)" fill="#32293a"/>
    </g>
    <g id="Grupo_948689" data-name="Grupo 948689" transform="translate(730.896 114.711)">
      <path id="Trazado_634071" data-name="Trazado 634071" d="M775.72,144.77a.462.462,0,0,1-.116-.015,6.474,6.474,0,0,1-3.15-1.608.456.456,0,1,1,.669-.619,5.63,5.63,0,0,0,2.713,1.343.457.457,0,0,1-.116.9Z" transform="translate(-772.334 -142.381)" fill="#32293a"/>
    </g>
    <g id="Grupo_948690" data-name="Grupo 948690" transform="translate(724.914 124.297)">
      <path id="Trazado_634072" data-name="Trazado 634072" d="M763.915,168.393a.457.457,0,0,1,0-.913,10.111,10.111,0,0,0,7.3-3.083,10.809,10.809,0,0,0,3.193-7.335.456.456,0,0,1,.452-.46h0a.457.457,0,0,1,.456.453,11.6,11.6,0,0,1-3.458,7.985A11,11,0,0,1,763.915,168.393Z" transform="translate(-763.459 -156.601)" fill="#32293a"/>
    </g>
    <g id="Grupo_948691" data-name="Grupo 948691" transform="translate(827.464 265.716)">
      <path id="Trazado_634073" data-name="Trazado 634073" d="M916.048,402.818a.456.456,0,0,1-.346-.753c1.622-1.907,3.14-4.04,4.747-6.3,6.37-8.951,13.589-19.1,29.516-16.174,22.32,4.1,35.637,3.256,42.089-12.909a.456.456,0,1,1,.846.338c-6.651,16.665-20.84,17.557-43.1,13.468-15.361-2.818-22.094,6.65-28.61,15.807-1.619,2.274-3.148,4.423-4.8,6.36A.451.451,0,0,1,916.048,402.818Z" transform="translate(-915.592 -366.397)" fill="#32293a"/>
    </g>
    <g id="Grupo_948692" data-name="Grupo 948692" transform="translate(667.807 85.001)">
      <path id="Trazado_634074" data-name="Trazado 634074" d="M679.2,125.082h-.021a.456.456,0,0,1-.434-.477c.337-7.7,4.824-15.912,11.429-20.923,4.557-3.457,12.232-7.05,22.917-4.533a.457.457,0,0,1-.209.889c-10.336-2.435-17.756,1.033-22.158,4.371-6.4,4.854-10.743,12.8-11.07,20.237A.455.455,0,0,1,679.2,125.082Z" transform="translate(-678.74 -98.305)" fill="#32293a"/>
    </g>
    <g id="Grupo_948693" data-name="Grupo 948693" transform="translate(904.132 227.944)">
      <path id="Trazado_634075" data-name="Trazado 634075" d="M1034.283,320.307a4.966,4.966,0,0,1-4.693-3.38,4.978,4.978,0,0,1,3.109-6.3,4.956,4.956,0,0,1,6.285,3.117h0a4.969,4.969,0,0,1-4.7,6.563Zm.007-9.031a4.059,4.059,0,0,0-1.8,7.695,4.053,4.053,0,0,0,5.63-4.935h0a4.055,4.055,0,0,0-3.832-2.76Z" transform="translate(-1029.329 -310.362)" fill="#32293a"/>
    </g>
    <g id="Grupo_948694" data-name="Grupo 948694" transform="translate(770.654 57.483)">
      <path id="Trazado_634076" data-name="Trazado 634076" d="M834.784,64.441a3.478,3.478,0,1,1,1.116-.185A3.507,3.507,0,0,1,834.784,64.441Zm0-6.047a2.566,2.566,0,1,0,2.427,1.745h0A2.566,2.566,0,0,0,834.785,58.395Z" transform="translate(-831.314 -57.483)" fill="#32293a"/>
    </g>
    <g id="Grupo_948695" data-name="Grupo 948695" transform="translate(645.213 215.481)">
      <path id="Trazado_634077" data-name="Trazado 634077" d="M650.571,302.588a5.358,5.358,0,1,1,5.057-7.071h0a5.351,5.351,0,0,1-5.057,7.071Zm0-9.8a4.445,4.445,0,1,0,4.2,3.022h0a4.441,4.441,0,0,0-4.2-3.022Z" transform="translate(-645.223 -291.874)" fill="#32293a"/>
    </g>
    <g id="Grupo_948696" data-name="Grupo 948696" transform="translate(645.194 200.977)">
      <path id="Trazado_634078" data-name="Trazado 634078" d="M647.524,275.032a2.338,2.338,0,1,1,2.21-3.087h0a2.337,2.337,0,0,1-2.21,3.087Zm0-3.762a1.425,1.425,0,1,0,1.345.968h0a1.42,1.42,0,0,0-1.345-.968Z" transform="translate(-645.194 -270.357)" fill="#32293a"/>
    </g>
    <g id="Grupo_948697" data-name="Grupo 948697" transform="translate(898.084 213.092)">
      <path id="Trazado_634079" data-name="Trazado 634079" d="M1023.19,294a2.837,2.837,0,1,1,2.678-3.744h0A2.831,2.831,0,0,1,1023.19,294Zm0-4.76a1.923,1.923,0,1,0,.613,3.745,1.924,1.924,0,0,0,.237-3.544A1.907,1.907,0,0,0,1023.19,289.242Z" transform="translate(-1020.357 -288.329)" fill="#32293a"/>
    </g>
  </g>
</svg>
