<svg xmlns="http://www.w3.org/2000/svg" width="69.002" height="76.002" viewBox="0 0 69.002 76.002">
  <g id="proteger" transform="translate(-128.381 -364.537)">
    <path id="Trazado_633845" data-name="Trazado 633845" d="M167.377,437.86l-3.3,1.734a1.816,1.816,0,0,1-1.687,0l-3.3-1.734c-18.118-9.523-29.275-27.1-29.275-46.11V380.138a1.8,1.8,0,0,1,1.6-1.8c6.245-.659,11.21-5.129,12-10.784a1.824,1.824,0,0,1,1.8-1.589h36.038a1.824,1.824,0,0,1,1.8,1.589c.791,5.655,5.757,10.126,12,10.784a1.8,1.8,0,0,1,1.6,1.8v11.615C196.651,410.766,185.5,428.339,167.377,437.86Z" transform="translate(-0.349 -0.347)" fill="#e1e6e9"/>
    <path id="Trazado_633846" data-name="Trazado 633846" d="M205.633,378.337c-6.246-.659-11.21-5.129-12-10.784a1.824,1.824,0,0,0-1.8-1.589H189.38c.353,7.839,5.94,13.4,11.983,14.037a1.8,1.8,0,0,1,1.6,1.8v11.615c0,19.014-11.157,36.587-29.275,46.11l-.378.2a1.809,1.809,0,0,0,1.351-.132l3.3-1.734c18.118-9.523,29.275-27.1,29.275-46.11V380.137A1.8,1.8,0,0,0,205.633,378.337Z" transform="translate(-10.932 -0.347)" fill="#cbcbcb"/>
    <path id="Trazado_633847" data-name="Trazado 633847" d="M163.719,434.816a51.908,51.908,0,0,1-19.763-17.948,44.972,44.972,0,0,1-7.119-24.108v-6.593A2.328,2.328,0,0,1,138.3,384a20.431,20.431,0,0,0,10.987-10.1,2.323,2.323,0,0,1,2.1-1.317h27.105a2.324,2.324,0,0,1,2.1,1.317A20.426,20.426,0,0,0,191.58,384a2.328,2.328,0,0,1,1.466,2.166v6.593a44.971,44.971,0,0,1-7.119,24.108,51.92,51.92,0,0,1-19.763,17.948l-.137.072a2.332,2.332,0,0,1-2.172,0Z" transform="translate(-2.058 -1.959)" fill="#2ff980"/>
    <path id="Trazado_633848" data-name="Trazado 633848" d="M200.619,384l-.114-.047-.19-.076q-.162-.067-.322-.136l-.185-.081c-.114-.05-.228-.1-.341-.155l-.151-.071q-.244-.116-.485-.237l-.036-.019q-.222-.112-.442-.231l-.151-.085q-.159-.087-.317-.177l-.174-.1c-.1-.058-.2-.117-.3-.176l-.17-.1c-.1-.064-.2-.128-.3-.193l-.151-.1c-.138-.091-.275-.182-.412-.276l-.03-.02q-.219-.151-.433-.308l-.133-.1q-.148-.109-.293-.221l-.151-.121c-.089-.07-.179-.141-.266-.213l-.151-.126q-.136-.111-.269-.227l-.137-.117c-.11-.1-.219-.193-.326-.291l-.067-.061q-.194-.177-.378-.36l-.107-.106c-.089-.088-.178-.176-.266-.265l-.133-.138q-.118-.121-.233-.246l-.135-.145q-.116-.126-.227-.255l-.123-.139c-.089-.1-.176-.206-.262-.31l-.076-.09c-.11-.135-.219-.27-.326-.408l-.081-.106q-.119-.151-.235-.311c-.037-.05-.076-.1-.11-.151-.067-.092-.132-.184-.2-.277l-.112-.163q-.1-.14-.188-.281c-.035-.052-.069-.1-.1-.157-.069-.107-.136-.215-.2-.324-.024-.04-.05-.076-.076-.12-.09-.148-.178-.3-.263-.449-.018-.032-.036-.064-.053-.1q-.1-.179-.2-.361c-.029-.054-.056-.107-.084-.161-.051-.1-.1-.2-.156-.3-.029-.058-.058-.117-.086-.176s-.045-.089-.066-.134a2.324,2.324,0,0,0-2.1-1.317H173.98v62.568a2.331,2.331,0,0,0,1.086-.268l.137-.072a51.907,51.907,0,0,0,19.763-17.948,44.971,44.971,0,0,0,7.119-24.108v-6.6A2.328,2.328,0,0,0,200.619,384Z" transform="translate(-11.096 -1.96)" fill="#25c766"/>
    <path id="Trazado_633849" data-name="Trazado 633849" d="M200.619,384l-.114-.047-.19-.076q-.162-.067-.322-.136l-.185-.081c-.114-.05-.228-.1-.341-.155l-.151-.071q-.244-.116-.485-.237l-.036-.019q-.222-.112-.442-.231l-.151-.085q-.159-.087-.317-.177l-.174-.1c-.1-.058-.2-.117-.3-.176l-.17-.1c-.1-.064-.2-.128-.3-.193l-.151-.1c-.138-.091-.275-.182-.412-.276l-.03-.02q-.219-.151-.433-.308l-.133-.1q-.148-.109-.293-.221l-.151-.121c-.089-.07-.179-.141-.266-.213l-.151-.126q-.136-.111-.269-.227l-.137-.117c-.11-.1-.219-.193-.326-.291l-.067-.061q-.194-.177-.378-.36l-.107-.106c-.089-.088-.178-.176-.266-.265l-.133-.138q-.118-.121-.233-.246l-.135-.145q-.116-.126-.227-.255l-.123-.139c-.089-.1-.176-.206-.262-.31l-.076-.09c-.11-.135-.219-.27-.326-.408l-.081-.106q-.119-.151-.235-.311c-.037-.05-.076-.1-.11-.151-.067-.092-.132-.184-.2-.277l-.112-.163q-.1-.14-.188-.281c-.035-.052-.069-.1-.1-.157-.069-.107-.136-.215-.2-.324-.024-.04-.05-.076-.076-.12-.09-.148-.178-.3-.263-.449-.018-.032-.036-.064-.053-.1q-.1-.179-.2-.361c-.029-.054-.056-.107-.084-.161-.051-.1-.1-.2-.156-.3-.029-.058-.058-.117-.086-.176s-.045-.089-.066-.134a2.324,2.324,0,0,0-2.1-1.317H183.8a20.852,20.852,0,0,1,1.649,2.487c.025.043.044.089.066.134l.086.176c.05.1.1.2.156.3l.084.161q.1.182.2.361c.018.032.035.064.053.1q.128.227.263.449c.024.04.049.079.076.12.067.109.134.216.2.324l.1.157c.062.095.124.188.188.281l.112.163c.064.093.13.185.2.277.036.051.076.1.11.151.076.1.155.208.235.311l.081.106c.107.138.216.273.326.408l.076.09c.086.1.173.207.262.31.04.047.082.093.123.139l.227.255.135.145c.077.083.154.165.233.246l.133.138q.132.134.266.265l.107.106c.126.122.251.242.378.36l.067.061c.107.1.216.2.326.291l.137.117q.133.115.269.227l.151.126c.088.072.177.143.266.213l.151.121q.145.112.293.221l.133.1q.213.157.433.308l.03.02c.135.094.272.185.412.276l.151.1q.151.1.3.193l.17.1q.146.09.3.176l.174.1c.1.061.21.12.317.177l.151.085q.219.118.442.231l.036.019q.239.123.484.237l.151.071c.113.052.227.1.34.155l.185.081q.16.07.322.136l.19.076.114.047a2.328,2.328,0,0,1,1.466,2.166v6.593a44.971,44.971,0,0,1-7.119,24.108A55.387,55.387,0,0,1,173.98,435.1v.061a2.331,2.331,0,0,0,1.086-.268l.137-.072a51.907,51.907,0,0,0,19.763-17.948,44.971,44.971,0,0,0,7.119-24.108v-6.593A2.328,2.328,0,0,0,200.619,384Z" transform="translate(-11.096 -1.96)" fill="#1e9690"/>
    <path id="Trazado_633850" data-name="Trazado 633850" d="M181.653,421.848H156.96a2.358,2.358,0,0,1-2.359-2.358h0V404a2.358,2.358,0,0,1,2.359-2.359h24.694A2.359,2.359,0,0,1,184.012,404h0V419.49a2.358,2.358,0,0,1-2.359,2.358Z" transform="translate(-6.38 -9.03)" fill="#636a75"/>
    <path id="Trazado_633851" data-name="Trazado 633851" d="M188.981,401.645h-4.266A2.359,2.359,0,0,1,187.074,404h0V419.49a2.359,2.359,0,0,1-2.359,2.359h4.27a2.359,2.359,0,0,0,2.359-2.359h0V404a2.359,2.359,0,0,0-2.359-2.359Z" transform="translate(-13.708 -9.03)" fill="#515a66"/>
    <path id="Trazado_633852" data-name="Trazado 633852" d="M172.138,414.921V418a1.082,1.082,0,1,0,2.163.057v-3.137a2.533,2.533,0,1,0-2.163,0Z" transform="translate(-10.294 -11.086)"/>
    <path id="Trazado_633853" data-name="Trazado 633853" d="M162.868,435.425h0l.136.072a3.415,3.415,0,0,0,3.178,0l.137-.076A53,53,0,0,0,186.492,417.1a46.056,46.056,0,0,0,7.287-24.688v-6.588a3.391,3.391,0,0,0-2.15-3.172,19.233,19.233,0,0,1-10.4-9.559,3.418,3.418,0,0,0-3.077-1.934H151.041a3.418,3.418,0,0,0-3.077,1.934,19.234,19.234,0,0,1-10.407,9.559,3.389,3.389,0,0,0-2.15,3.172v6.593A46.049,46.049,0,0,0,142.7,417.1,53,53,0,0,0,162.868,435.425Zm-25.3-43.014v-6.592a1.237,1.237,0,0,1,.782-1.161,21.389,21.389,0,0,0,11.564-10.637,1.244,1.244,0,0,1,1.124-.7h27.105a1.246,1.246,0,0,1,1.124.7,21.387,21.387,0,0,0,11.564,10.638,1.239,1.239,0,0,1,.782,1.161v6.593a43.9,43.9,0,0,1-6.951,23.532,50.83,50.83,0,0,1-19.354,17.566l-.137.072a1.251,1.251,0,0,1-1.166,0l-.136-.072a50.834,50.834,0,0,1-19.351-17.57A43.889,43.889,0,0,1,137.571,392.411Z" transform="translate(-1.71 -1.61)"/>
    <path id="Trazado_633854" data-name="Trazado 633854" d="M195.724,412.782a1.081,1.081,0,0,0-1.293.816h0c-3.295,14.573-13.327,27.212-27.526,34.675l-3.3,1.737a.732.732,0,0,1-.681,0l-3.3-1.734c-14.221-7.475-24.259-20.135-27.543-34.735a1.081,1.081,0,1,0-2.11.474c3.419,15.22,13.86,28.405,28.643,36.175l3.3,1.734a2.892,2.892,0,0,0,2.693,0l3.3-1.734c14.76-7.758,25.2-20.921,28.63-36.112a1.082,1.082,0,0,0-.813-1.3Z" transform="translate(-0.381 -11.719)"/>
    <path id="Trazado_633855" data-name="Trazado 633855" d="M194.817,376.915c-5.776-.609-10.317-4.663-11.047-9.859a2.922,2.922,0,0,0-2.866-2.518H144.865A2.921,2.921,0,0,0,142,367.056c-.727,5.2-5.269,9.249-11.047,9.859a2.875,2.875,0,0,0-2.567,2.875V391.4a49.53,49.53,0,0,0,.26,5.07,1.082,1.082,0,0,0,1.074.971,1.1,1.1,0,0,0,.112-.006,1.081,1.081,0,0,0,.965-1.186h0a47.409,47.409,0,0,1-.249-4.85V379.79a.725.725,0,0,1,.631-.725c6.768-.714,12.1-5.529,12.96-11.709a.74.74,0,0,1,.727-.654H180.9a.74.74,0,0,1,.727.654c.868,6.18,6.194,11,12.959,11.71a.726.726,0,0,1,.631.725v11.615a47.744,47.744,0,0,1-.244,4.8,1.082,1.082,0,0,0,2.152.219,50.087,50.087,0,0,0,.254-5.019V379.79A2.876,2.876,0,0,0,194.817,376.915Z"/>
    <path id="Trazado_633856" data-name="Trazado 633856" d="M181.305,417.552a3.444,3.444,0,0,0,3.44-3.44V398.625a3.444,3.444,0,0,0-3.44-3.44h-1.778v-5.163a10.569,10.569,0,0,0-21.137,0v5.163h-1.778a3.443,3.443,0,0,0-3.44,3.44v15.487a3.443,3.443,0,0,0,3.44,3.44Zm-20.753-27.529a8.406,8.406,0,0,1,16.811,0v5.163H160.552Zm-5.221,24.089V398.625a1.278,1.278,0,0,1,1.277-1.276H181.3a1.278,1.278,0,0,1,1.276,1.276v15.487a1.278,1.278,0,0,1-1.276,1.276H156.611a1.278,1.278,0,0,1-1.277-1.276Z" transform="translate(-6.033 -3.651)"/>
  </g>
</svg>
