<svg xmlns="http://www.w3.org/2000/svg" xmlns:xlink="http://www.w3.org/1999/xlink" width="400" height="375" viewBox="0 0 400 375">
  <defs>
    <clipPath id="clip-path">
      <rect id="Rectángulo_45322" data-name="Rectángulo 45322" width="400" height="375" transform="translate(1020 24479)" fill="#fff" stroke="#707070" stroke-width="1"/>
    </clipPath>
  </defs>
  <g id="Enmascarar_grupo_143" data-name="Enmascarar grupo 143" transform="translate(-1020 -24479)" clip-path="url(#clip-path)">
    <g id="Grupo_955934" data-name="Grupo 955934" transform="translate(238.561 23931.463)">
      <path id="Trazado_656134" data-name="Trazado 656134" d="M850.461,725.666c22.352-28.763,38.067-55.156,19.666-77.957-19.666-24.367-4.917-67.749,38.059-59.723s85.235,32.8,146.913-8.622c27.608-18.814,56.486-10.457,65.72,7.154,21.608,41.208-56.253,73.591-26.6,105.273,36.9,39.418,34.385,69.286,2.931,102-24.045,25.008,14.209,40.237-10.26,76.5-25.153,37.28-141.885,40.3-195.654,4.488C837.219,838.806,819.421,765.608,850.461,725.666Z" transform="translate(-3.7 -3.127)" fill="#e3f5f8"/>
      <g id="Grupo_955875" data-name="Grupo 955875" transform="translate(810.217 713.475)">
        <path id="Rectángulo_45315" data-name="Rectángulo 45315" d="M19.822,0h109.87a0,0,0,0,1,0,0V67.682a0,0,0,0,1,0,0H19.822A19.822,19.822,0,0,1,0,47.86V19.822A19.822,19.822,0,0,1,19.822,0Z" transform="translate(0.577 0.577)" fill="#c4baf5"/>
        <path id="Trazado_656135" data-name="Trazado 656135" d="M941.062,811.116h-113.4a17.488,17.488,0,0,1-17.448-17.487V759.764a17.488,17.488,0,0,1,17.448-17.486h113.4Zm-113.4-67.683a16.332,16.332,0,0,0-16.3,16.331v33.865a16.332,16.332,0,0,0,16.3,16.331H939.909V743.433Z" transform="translate(-810.217 -742.278)" fill="#32293a"/>
      </g>
      <g id="Grupo_955876" data-name="Grupo 955876" transform="translate(893.839 734.463)">
        <path id="Rectángulo_45316" data-name="Rectángulo 45316" d="M5.361,0H43.33a1.343,1.343,0,0,1,1.343,1.343V9.378a1.343,1.343,0,0,1-1.343,1.343H5.36A5.36,5.36,0,0,1,0,5.361v0A5.361,5.361,0,0,1,5.361,0Z" transform="translate(0.577 0.577)" fill="#fffdf7"/>
        <path id="Trazado_656136" data-name="Trazado 656136" d="M952.264,778.785H914.279a5.938,5.938,0,0,1,0-11.876h37.985a1.92,1.92,0,0,1,1.916,1.92v8.035A1.921,1.921,0,0,1,952.264,778.785Zm-37.985-10.721a4.783,4.783,0,0,0,0,9.566h37.985a.766.766,0,0,0,.764-.765v-8.035a.766.766,0,0,0-.764-.765Z" transform="translate(-908.354 -766.909)" fill="#32293a"/>
      </g>
      <g id="Grupo_955877" data-name="Grupo 955877" transform="translate(893.839 751.182)">
        <path id="Rectángulo_45317" data-name="Rectángulo 45317" d="M5.361,0H43.33a1.343,1.343,0,0,1,1.343,1.343V9.378a1.343,1.343,0,0,1-1.343,1.343H5.36A5.36,5.36,0,0,1,0,5.361v0A5.361,5.361,0,0,1,5.361,0Z" transform="translate(0.577 0.577)" fill="#fff5d7"/>
        <path id="Trazado_656137" data-name="Trazado 656137" d="M952.264,798.4H914.279a5.937,5.937,0,0,1,0-11.875h37.985a1.92,1.92,0,0,1,1.916,1.92v8.034A1.921,1.921,0,0,1,952.264,798.4Zm-37.985-10.72a4.783,4.783,0,0,0,0,9.566h37.985a.766.766,0,0,0,.764-.766V788.45a.766.766,0,0,0-.764-.765Z" transform="translate(-908.354 -786.53)" fill="#32293a"/>
      </g>
      <g id="Grupo_955878" data-name="Grupo 955878" transform="translate(1047.54 565.204)">
        <path id="Trazado_656138" data-name="Trazado 656138" d="M1201.157,568.947v74.64a10.5,10.5,0,0,1-10.481,10.512H1099.89a10.5,10.5,0,0,1-10.481-10.512v-74.64Z" transform="translate(-1088.833 -568.37)" fill="#fffdf7"/>
        <path id="Trazado_656139" data-name="Trazado 656139" d="M1190.576,654.577H1099.79a11.086,11.086,0,0,1-11.057-11.09V568.27h112.9v75.217A11.086,11.086,0,0,1,1190.576,654.577Zm-100.691-85.152v74.063a9.932,9.932,0,0,0,9.9,9.935h90.786a9.931,9.931,0,0,0,9.9-9.935V569.425Z" transform="translate(-1088.733 -568.27)" fill="#32293a"/>
      </g>
      <rect id="Rectángulo_45318" data-name="Rectángulo 45318" width="91.402" height="29.646" rx="6.029" transform="translate(1058.505 573.934)" fill="#e6e1fb"/>
      <path id="Rectángulo_45319" data-name="Rectángulo 45319" d="M6.029,0H85.373A6.029,6.029,0,0,1,91.4,6.029V23.617a6.029,6.029,0,0,1-6.029,6.029H6.03A6.03,6.03,0,0,1,0,23.616V6.029A6.029,6.029,0,0,1,6.029,0Z" transform="translate(1058.505 611.831)" fill="#e6e1fb"/>
      <path id="Trazado_656140" data-name="Trazado 656140" d="M1201.157,558.728v7.153H1089.409v-7.153a10.5,10.5,0,0,1,10.481-10.512h90.787A10.5,10.5,0,0,1,1201.157,558.728Z" transform="translate(-41.294 -0.1)" fill="#583ae2"/>
      <path id="Trazado_656141" data-name="Trazado 656141" d="M1201.633,566.358h-112.9v-7.73a11.086,11.086,0,0,1,11.057-11.09h90.786a11.086,11.086,0,0,1,11.057,11.09ZM1089.885,565.2h110.6v-6.576a9.93,9.93,0,0,0-9.9-9.935H1099.79a9.931,9.931,0,0,0-9.9,9.935Z" transform="translate(-41.194)" fill="#32293a"/>
      <g id="Grupo_955879" data-name="Grupo 955879" transform="translate(1054.13 553.658)">
        <path id="Rectángulo_45320" data-name="Rectángulo 45320" d="M2.937,0H62.762A2.937,2.937,0,0,1,65.7,2.937v0a2.938,2.938,0,0,1-2.938,2.938H2.938A2.938,2.938,0,0,1,0,2.937v0A2.937,2.937,0,0,1,2.937,0Z" transform="translate(0.576 0.577)" fill="#fffdf7"/>
        <path id="Trazado_656142" data-name="Trazado 656142" d="M1159.813,561.75h-59.838a3.515,3.515,0,0,1,0-7.03h59.838a3.515,3.515,0,0,1,0,7.03Zm-59.838-5.875a2.36,2.36,0,0,0,0,4.721h59.838a2.36,2.36,0,0,0,0-4.721Z" transform="translate(-1096.468 -554.72)" fill="#32293a"/>
      </g>
      <g id="Grupo_955880" data-name="Grupo 955880" transform="translate(1144.729 553.365)">
        <path id="Trazado_656143" data-name="Trazado 656143" d="M1203.467,558.281a3.22,3.22,0,1,1,3.22,3.226A3.224,3.224,0,0,1,1203.467,558.281Z" transform="translate(-1202.892 -554.476)" fill="#fffdf7"/>
        <path id="Trazado_656144" data-name="Trazado 656144" d="M1206.588,561.984a3.8,3.8,0,1,1,3.8-3.8A3.8,3.8,0,0,1,1206.588,561.984Zm0-6.454a2.65,2.65,0,1,0,2.643,2.65A2.65,2.65,0,0,0,1206.588,555.531Z" transform="translate(-1202.792 -554.376)" fill="#32293a"/>
      </g>
      <g id="Grupo_955881" data-name="Grupo 955881" transform="translate(1136.837 554.489)">
        <path id="Trazado_656145" data-name="Trazado 656145" d="M1194.206,558.476a2.1,2.1,0,1,1,2.1,2.1A2.1,2.1,0,0,1,1194.206,558.476Z" transform="translate(-1193.63 -555.795)" fill="#fffdf7"/>
        <path id="Trazado_656146" data-name="Trazado 656146" d="M1196.2,561.056a2.68,2.68,0,1,1,2.674-2.68A2.68,2.68,0,0,1,1196.2,561.056Zm0-4.206a1.526,1.526,0,1,0,1.522,1.526A1.525,1.525,0,0,0,1196.2,556.85Z" transform="translate(-1193.53 -555.695)" fill="#32293a"/>
      </g>
      <path id="Trazado_656147" data-name="Trazado 656147" d="M972.533,623.378c-1.65.841-5.672.637-6.02-3.95s-4.548-2.994-4.6-6.677,3.564-2.2,4.81-7.968,6.585-4.156,8.914-5.885,6.086-9.026,12.146-6.983,7.768,9.757,4.733,15.5S980.026,622.7,980.026,622.7Z" transform="translate(-22.436 -6.511)" fill="#32293a"/>
      <g id="Grupo_955888" data-name="Grupo 955888" transform="translate(980.209 864.541)">
        <path id="Trazado_656148" data-name="Trazado 656148" d="M1037.367,939.979h-23.793l5.758-20.413h23.793Z" transform="translate(-1010.286 -919.565)" fill="#f4c7a8"/>
        <path id="Trazado_656149" data-name="Trazado 656149" d="M1010.141,936.408v-1.695a3.347,3.347,0,0,1,3.343-3.35h1.112a3.342,3.342,0,0,1,2.981,1.835l1.577,3.117a3.341,3.341,0,0,0,2.982,1.835h9.619a3.342,3.342,0,0,0,2.717-1.4l5.322-7.44a3.34,3.34,0,0,1,2.716-1.4h0a4.108,4.108,0,0,1,2.458,1.079c9.228,7.121,19.18,14.168,28.843,20.468,1.562,1.018,3.14,2,3.736,3.774l2.394,7.1h-69.589Z" transform="translate(-1009.778 -920.8)" fill="#583ae2"/>
        <g id="Grupo_955882" data-name="Grupo 955882" transform="translate(0 38.956)">
          <path id="Trazado_656150" data-name="Trazado 656150" d="M1077.729,975.265h-65.287a2.733,2.733,0,0,1-2.727-2.733V965.86a.576.576,0,1,1,1.152,0v6.673a1.577,1.577,0,0,0,1.575,1.577h65.287a1.577,1.577,0,0,0,1.574-1.577V965.86a.577.577,0,1,1,1.153,0v6.673A2.733,2.733,0,0,1,1077.729,975.265Z" transform="translate(-1009.715 -965.283)" fill="#32293a"/>
        </g>
        <g id="Grupo_955883" data-name="Grupo 955883" transform="translate(0.362 25.198)">
          <path id="Trazado_656151" data-name="Trazado 656151" d="M1023.856,963.787l-7.119-10.949a5.574,5.574,0,0,0-4.687-2.546h-1.91v-1.155h1.91a6.726,6.726,0,0,1,5.654,3.071l7.118,10.949Z" transform="translate(-1010.14 -949.137)" fill="#32293a"/>
        </g>
        <g id="Grupo_955884" data-name="Grupo 955884" transform="translate(34.382 11.246)">
          <path id="Trazado_656152" data-name="Trazado 656152" d="M1067.194,953.084a3.361,3.361,0,0,1-1.848-.555L1051.6,943.52a3.4,3.4,0,0,1-.879-4.853l4.318-5.9.93.683-4.318,5.9a2.248,2.248,0,0,0,.579,3.2l13.744,9.009a2.236,2.236,0,0,0,3.106-.659l3.536-5.47.965.628-3.535,5.471a3.4,3.4,0,0,1-2.853,1.551Z" transform="translate(-1050.064 -932.763)" fill="#32293a"/>
        </g>
        <g id="Grupo_955885" data-name="Grupo 955885" transform="translate(38.155 14.407)">
          <path id="Trazado_656153" data-name="Trazado 656153" d="M1060.553,937.149l-5.383,7.683Z" transform="translate(-1054.593 -936.573)" fill="#ffcc38"/>
          <path id="Trazado_656154" data-name="Trazado 656154" d="M1055.07,945.31a.572.572,0,0,1-.332-.1.579.579,0,0,1-.141-.8l5.385-7.683a.576.576,0,1,1,.942.663l-5.385,7.683A.572.572,0,0,1,1055.07,945.31Z" transform="translate(-1054.493 -936.473)" fill="#32293a"/>
        </g>
        <g id="Grupo_955886" data-name="Grupo 955886" transform="translate(42.468 17.449)">
          <path id="Trazado_656155" data-name="Trazado 656155" d="M1065.614,940.72l-5.384,7.683Z" transform="translate(-1059.654 -940.143)" fill="#ffcc38"/>
          <path id="Trazado_656156" data-name="Trazado 656156" d="M1060.13,948.881a.571.571,0,0,1-.332-.106.577.577,0,0,1-.139-.8l5.383-7.683a.576.576,0,1,1,.942.663l-5.382,7.683A.575.575,0,0,1,1060.13,948.881Z" transform="translate(-1059.555 -940.043)" fill="#32293a"/>
        </g>
        <g id="Grupo_955887" data-name="Grupo 955887" transform="translate(46.861 20.307)">
          <path id="Trazado_656157" data-name="Trazado 656157" d="M1070.77,944.074l-5.384,7.683Z" transform="translate(-1064.81 -943.497)" fill="#ffcc38"/>
          <path id="Trazado_656158" data-name="Trazado 656158" d="M1065.286,952.234a.577.577,0,0,1-.471-.909l5.383-7.683a.576.576,0,1,1,.943.663l-5.383,7.682A.574.574,0,0,1,1065.286,952.234Z" transform="translate(-1064.71 -943.397)" fill="#32293a"/>
        </g>
      </g>
      <g id="Grupo_955894" data-name="Grupo 955894" transform="translate(936.268 864.947)">
        <rect id="Rectángulo_45321" data-name="Rectángulo 45321" width="23.793" height="24.881" transform="translate(6.935)" fill="#f4c7a8"/>
        <path id="Trazado_656159" data-name="Trazado 656159" d="M990.479,933.283h-.927a2.912,2.912,0,0,0-2.572,1.551l-1.865,3.518H968.156l-1.866-3.518a2.911,2.911,0,0,0-2.572-1.551h-.926a4.111,4.111,0,0,0-4.108,4.117v26.7a4.771,4.771,0,0,0,4.766,4.777H989.82a4.771,4.771,0,0,0,4.766-4.777V937.4A4.11,4.11,0,0,0,990.479,933.283Z" transform="translate(-958.227 -922)" fill="#583ae2"/>
        <path id="Trazado_656160" data-name="Trazado 656160" d="M970.661,937.5v-2.215a7.753,7.753,0,0,1,7.746-7.762h0a7.754,7.754,0,0,1,7.746,7.762V937.5Z" transform="translate(-959.999 -921.148)" fill="#583ae2"/>
        <g id="Grupo_955889" data-name="Grupo 955889" transform="translate(10.086 15.775)">
          <path id="Trazado_656161" data-name="Trazado 656161" d="M986.152,939.232l-2.434,17.217A3.661,3.661,0,0,1,980.1,959.6h-3.378a3.662,3.662,0,0,1-3.623-3.153l-2.434-17.217Z" transform="translate(-970.085 -938.655)" fill="#583ae2"/>
          <path id="Trazado_656162" data-name="Trazado 656162" d="M979.995,960.08h-3.378a4.258,4.258,0,0,1-4.192-3.65l-2.434-17.217a.575.575,0,1,1,1.139-.162l2.434,17.217a3.1,3.1,0,0,0,3.053,2.657h3.378a3.1,3.1,0,0,0,3.054-2.657l2.433-17.217a.575.575,0,1,1,1.139.162l-2.433,17.217A4.258,4.258,0,0,1,979.995,960.08Z" transform="translate(-969.985 -938.555)" fill="#32293a"/>
        </g>
        <g id="Grupo_955890" data-name="Grupo 955890" transform="translate(11.02 20.696)">
          <path id="Trazado_656163" data-name="Trazado 656163" d="M971.758,945.008h0Z" transform="translate(-971.181 -944.43)" fill="#ffcc38"/>
          <path id="Trazado_656164" data-name="Trazado 656164" d="M985.518,945.484H971.657a.577.577,0,0,1,0-1.155h13.861a.577.577,0,0,1,0,1.155Z" transform="translate(-971.081 -944.33)" fill="#32293a"/>
        </g>
        <g id="Grupo_955891" data-name="Grupo 955891" transform="translate(12.283 25.95)">
          <path id="Trazado_656165" data-name="Trazado 656165" d="M973.239,951.174h0Z" transform="translate(-972.663 -950.596)" fill="#ffcc38"/>
          <path id="Trazado_656166" data-name="Trazado 656166" d="M984.476,951.651H973.139a.578.578,0,0,1,0-1.155h11.337a.578.578,0,0,1,0,1.155Z" transform="translate(-972.563 -950.496)" fill="#32293a"/>
        </g>
        <g id="Grupo_955892" data-name="Grupo 955892" transform="translate(12.802 31.276)">
          <path id="Trazado_656167" data-name="Trazado 656167" d="M973.848,957.424h0Z" transform="translate(-973.272 -956.847)" fill="#ffcc38"/>
          <path id="Trazado_656168" data-name="Trazado 656168" d="M984.047,957.9h-10.3a.577.577,0,0,1,0-1.155h10.3a.577.577,0,0,1,0,1.155Z" transform="translate(-973.172 -956.747)" fill="#32293a"/>
        </g>
        <g id="Grupo_955893" data-name="Grupo 955893" transform="translate(0 41.785)">
          <path id="Trazado_656169" data-name="Trazado 656169" d="M989.861,981.886H963.491a5.353,5.353,0,0,1-5.343-5.353v-6.876a.576.576,0,1,1,1.152,0v6.876a4.2,4.2,0,0,0,4.191,4.2h26.371a4.2,4.2,0,0,0,4.191-4.2v-6.876a.576.576,0,1,1,1.152,0v6.876A5.353,5.353,0,0,1,989.861,981.886Z" transform="translate(-958.148 -969.08)" fill="#32293a"/>
        </g>
      </g>
      <path id="Trazado_656170" data-name="Trazado 656170" d="M957.841,732.531V894.953a1.589,1.589,0,0,0,1.587,1.591h35.645a1.59,1.59,0,0,0,1.588-1.591v-109.2l26.881,38.713-21.117,70.073a1.59,1.59,0,0,0,1.482,2.05l34.073.81a1.588,1.588,0,0,0,1.551-1.109l21.128-66.607a23.406,23.406,0,0,0-2.665-19.8l-35.7-55.1a8.584,8.584,0,0,1-1.38-4.573l-.2-17.683Z" transform="translate(-21.834 -27.361)" fill="#32293a"/>
      <path id="Trazado_656171" data-name="Trazado 656171" d="M1059.479,639.821h17.209l5.067-40.013a9.583,9.583,0,0,1,6.442-7.881l29.775-9.971a.754.754,0,0,1,.954.454l.27.735,5.8-1.894a.67.67,0,0,1,.816.365,5.01,5.01,0,0,1-.024,3.8c1.651,2.832-.66,6.084-2.157,6.946.431,2.094.062,3.83-1.817,4.918s-15.609,9.709-15.609,9.709c.444,3.293-5.419,6.786-7.221,7.176.141,2.851.867,27.752,1.315,43.287a12.123,12.123,0,0,1-12.063,12.483l-28.762.106Z" transform="translate(-36.867 -4.982)" fill="#f4c7a8"/>
      <g id="Grupo_955895" data-name="Grupo 955895" transform="translate(1038.611 575.66)">
        <path id="Trazado_656172" data-name="Trazado 656172" d="M1102.852,650.04a.578.578,0,0,1-.576-.561c-.626-21.579-.992-33.486-1.085-35.388a.575.575,0,0,1,.453-.592c.717-.156,7.007-1.668,6.81-6.733a.573.573,0,0,1,.268-.511c.55-.347,13.459-8.5,15.324-9.578,1.5-.867,1.976-2.194,1.542-4.3a.578.578,0,0,1,.313-.636,4.8,4.8,0,0,0,2.15-6.175.577.577,0,0,1-.019-.464,4.527,4.527,0,0,0,.034-3.348l-5.915,1.843a.576.576,0,0,1-.72-.351l-.269-.735a.18.18,0,0,0-.226-.107l-29.781,9.974a9.058,9.058,0,0,0-6.053,7.406l-5.7,45.391a.575.575,0,1,1-1.142-.144l5.7-45.392a10.217,10.217,0,0,1,6.828-8.356l29.778-9.972a1.338,1.338,0,0,1,1.677.8l.078.216,5.276-1.723a1.242,1.242,0,0,1,1.518.676,5.513,5.513,0,0,1,.073,4.015c.718,1.8.69,5.492-2.394,7.277.365,2.344-.365,4.06-2.173,5.106-1.7.984-13.092,8.169-15.012,9.382-.036,5.1-5.477,6.976-7.249,7.452.121,2.964.478,14.7,1.067,34.936a.577.577,0,0,1-.559.594Z" transform="translate(-1078.255 -580.541)" fill="#32293a"/>
      </g>
      <path id="Trazado_656173" data-name="Trazado 656173" d="M932.5,661.027l-15.877,32.064,25.67,9.267,9.449-16.3v34.267h62.87V680.21h23.736V649.993l-88.512.229A19.406,19.406,0,0,0,932.5,661.027Z" transform="translate(-15.738 -15.153)" fill="#45bbcc"/>
      <path id="Trazado_656174" data-name="Trazado 656174" d="M976.743,643.841c0,5.84,5.037,14.978,16.847,14.978s12.748-9.414,12.579-15.047l-4.7-3.456a6.786,6.786,0,0,1-2.187-2.728l-3.127-7.092s7.709-1.489,6.8-8.525-7.9-14.792-7.9-14.792c-1.893,3.67-12.684,2.558-12.684,2.558-.286,3.4-4.114,3.146-3.745,5.471s2.484,7.434-1.428,7.408-6.87,4.5-4.191,6.928a5.257,5.257,0,0,0,7,.463c.338,1.213.817,2.906,1.256,4.451a6.8,6.8,0,0,1-1.79,6.72Z" transform="translate(-23.925 -8.821)" fill="#f4c7a8"/>
      <path id="Trazado_656175" data-name="Trazado 656175" d="M1010.408,728.214l-10.5,3.674a6.056,6.056,0,0,1-7.718-3.731l-11.007-31.591a6.076,6.076,0,0,1,3.723-7.735l10.5-3.674a6.058,6.058,0,0,1,7.719,3.732l11.007,31.591A6.075,6.075,0,0,1,1010.408,728.214Z" transform="translate(-25.236 -20.304)" fill="#32293a"/>
      <g id="Grupo_955896" data-name="Grupo 955896" transform="translate(966.931 698.365)">
        <path id="Trazado_656176" data-name="Trazado 656176" d="M998.855,739.141a4.972,4.972,0,0,1-4.69-3.335.576.576,0,1,1,1.088-.38,3.807,3.807,0,0,0,4.854,2.347l13.656-4.779a3.825,3.825,0,0,0,2.342-4.865l-.982-2.815a.576.576,0,1,1,1.088-.38l.982,2.816a4.975,4.975,0,0,1-3.05,6.334l-13.656,4.779A4.951,4.951,0,0,1,998.855,739.141Z" transform="translate(-994.133 -724.545)" fill="#faf5ff"/>
      </g>
      <path id="Trazado_656177" data-name="Trazado 656177" d="M914.808,699.741l-8.784,20.14c-6.643,15.23,7.413,31.332,23.359,26.758l48.975-14.051s21.32-10.372,23.572-11.579c3.582-1.921,2.292-8.12-1.616-6.52,4.01-1.767,1.459-7.662-1.744-6.624,3.609-1.363,2.011-6.745-1.506-6.156,3.171-1.353.379-7.578-2.623-6.661.039.078-22.856,7.94-22.856,7.94l-1.86-5.338L959.561,711.1l-22.31,6.162,3.228-8.256Z" transform="translate(-13.921 -21.804)" fill="#f4c7a8"/>
      <g id="Grupo_955897" data-name="Grupo 955897" transform="translate(915.214 672.576)">
        <path id="Trazado_656178" data-name="Trazado 656178" d="M939.157,745.547a.577.577,0,0,1-.158-1.132l43.5-12.482c.119-.068,21.243-10.345,23.458-11.533a3.58,3.58,0,0,0,1.5-4.559,1.851,1.851,0,0,0-2.629-.919.577.577,0,0,1-.449-1.063,2.788,2.788,0,0,0,1.478-3.759c-.453-1.194-1.561-2.191-2.814-1.787a.577.577,0,0,1-.381-1.089,2.485,2.485,0,0,0,1.568-3.12,2.426,2.426,0,0,0-2.775-1.927.57.57,0,0,1-.648-.407.576.576,0,0,1,.328-.693c1.245-.532,1.2-2.057.787-3.2-.532-1.461-1.815-2.751-3.016-2.377l-.013-.04c-1.037.489-5.182,1.916-22.825,7.975a.576.576,0,0,1-.73-.357l-1.5-4.321-9.513,12.593a.584.584,0,0,1-.307.209L934.168,719.8a.578.578,0,0,1-.306-1.114l29.662-8.193,10.044-13.3a.583.583,0,0,1,.549-.222.576.576,0,0,1,.454.38l1.67,4.8c8.743-3,21.414-7.377,22.222-7.713a.618.618,0,0,1,.112-.048c1.939-.586,3.731,1.148,4.434,3.086a4.06,4.06,0,0,1-.175,3.627,3.911,3.911,0,0,1,1.8,6.132,4.371,4.371,0,0,1,1.87,6.393,2.962,2.962,0,0,1,2,1.715,4.765,4.765,0,0,1-2,6.067c-2.236,1.2-22.721,11.167-23.593,11.59l-43.6,12.517A.554.554,0,0,1,939.157,745.547Z" transform="translate(-933.439 -694.28)" fill="#32293a"/>
      </g>
      <g id="Grupo_955898" data-name="Grupo 955898" transform="translate(969.051 679.329)">
        <path id="Trazado_656179" data-name="Trazado 656179" d="M997.2,709.039a.578.578,0,0,1-.223-1.109l13.515-5.68a.576.576,0,0,1,.446,1.063l-13.515,5.681A.584.584,0,0,1,997.2,709.039Z" transform="translate(-996.621 -702.205)" fill="#32293a"/>
      </g>
      <g id="Grupo_955899" data-name="Grupo 955899" transform="translate(970.971 685.483)">
        <path id="Trazado_656180" data-name="Trazado 656180" d="M999.45,715.79a.577.577,0,0,1-.212-1.114l13.1-5.207a.577.577,0,0,1,.424,1.073l-13.1,5.207A.562.562,0,0,1,999.45,715.79Z" transform="translate(-998.875 -709.427)" fill="#32293a"/>
      </g>
      <g id="Grupo_955900" data-name="Grupo 955900" transform="translate(972.71 692.108)">
        <path id="Trazado_656181" data-name="Trazado 656181" d="M1001.491,723.493a.578.578,0,0,1-.21-1.115l13.108-5.136a.576.576,0,0,1,.419,1.074l-13.107,5.137A.569.569,0,0,1,1001.491,723.493Z" transform="translate(-1000.915 -717.202)" fill="#32293a"/>
      </g>
      <g id="Grupo_955901" data-name="Grupo 955901" transform="translate(935.431 659.59)">
        <path id="Trazado_656182" data-name="Trazado 656182" d="M957.741,711.951a.576.576,0,0,1-.576-.577V679.618a.576.576,0,1,1,1.152,0v31.757A.577.577,0,0,1,957.741,711.951Z" transform="translate(-957.165 -679.04)" fill="#32293a"/>
      </g>
      <g id="Grupo_955902" data-name="Grupo 955902" transform="translate(997.952 659.59)">
        <path id="Trazado_656183" data-name="Trazado 656183" d="M1031.115,711.951a.577.577,0,0,1-.577-.577V679.618a.576.576,0,1,1,1.153,0v31.757A.577.577,0,0,1,1031.115,711.951Z" transform="translate(-1030.538 -679.04)" fill="#32293a"/>
      </g>
      <g id="Grupo_955903" data-name="Grupo 955903" transform="translate(900.311 657.354)">
        <path id="Trazado_656184" data-name="Trazado 656184" d="M942.2,706.843a.581.581,0,0,1-.2-.034l-25.671-9.267a.576.576,0,0,1-.32-.8l9.906-20.006a.576.576,0,1,1,1.031.513l-9.62,19.426,24.612,8.885,9.207-15.886a.577.577,0,0,1,1,.58l-9.449,16.3A.578.578,0,0,1,942.2,706.843Z" transform="translate(-915.95 -676.416)" fill="#32293a"/>
      </g>
      <g id="Grupo_955904" data-name="Grupo 955904" transform="translate(1066.599 577.089)">
        <path id="Trazado_656185" data-name="Trazado 656185" d="M1111.676,595.224a.578.578,0,0,1-.232-1.106c2.641-1.16,9.107-4.013,12.153-5.457,3.477-1.649,3.068-4.249,2.515-5.654a.576.576,0,1,1,1.072-.423c.44,1.117,1.519,4.935-3.095,7.12-3.059,1.45-9.537,4.309-12.182,5.472A.584.584,0,0,1,1111.676,595.224Z" transform="translate(-1111.101 -582.218)" fill="#32293a"/>
      </g>
      <g id="Grupo_955905" data-name="Grupo 955905" transform="translate(1077.153 578.194)">
        <path id="Trazado_656186" data-name="Trazado 656186" d="M1124.063,593.883a.578.578,0,0,1-.274-1.086c2.413-1.307,6.7-3.65,8.322-4.658a5.921,5.921,0,0,0,2.96-4.155.575.575,0,1,1,1.131.215,7.145,7.145,0,0,1-3.482,4.921c-1.645,1.023-5.958,3.379-8.381,4.693A.584.584,0,0,1,1124.063,593.883Z" transform="translate(-1123.486 -583.515)" fill="#32293a"/>
      </g>
      <g id="Grupo_955906" data-name="Grupo 955906" transform="translate(1077.757 586.585)">
        <path id="Trazado_656187" data-name="Trazado 656187" d="M1124.772,599.556a.577.577,0,0,1-.291-1.075l8.574-5.038a.576.576,0,1,1,.582.994l-8.573,5.039A.576.576,0,0,1,1124.772,599.556Z" transform="translate(-1124.196 -593.362)" fill="#32293a"/>
      </g>
      <g id="Grupo_955907" data-name="Grupo 955907" transform="translate(1058.564 588.049)">
        <path id="Trazado_656188" data-name="Trazado 656188" d="M1112.489,610.08a.548.548,0,0,1-.065,0,.576.576,0,0,1-.509-.637,16.9,16.9,0,0,0-.186-5.1.579.579,0,0,1,.42-.658c.047-.013,4.709-1.275,6.486-3.427a3.193,3.193,0,0,0-.066-3.84.357.357,0,0,0-.406-.16l-15.743,4.967a.577.577,0,0,1-.348-1.1l15.743-4.966a1.5,1.5,0,0,1,1.737.662c1.142,1.881,1.131,3.768-.03,5.173-1.658,2.007-5.242,3.252-6.574,3.661a17.729,17.729,0,0,1,.11,4.918A.577.577,0,0,1,1112.489,610.08Z" transform="translate(-1101.671 -595.081)" fill="#32293a"/>
      </g>
      <g id="Grupo_955908" data-name="Grupo 955908" transform="translate(1022.035 634.263)">
        <path id="Trazado_656189" data-name="Trazado 656189" d="M1059.378,680.687a.577.577,0,0,1-.576-.578V649.893a.577.577,0,0,1,.576-.577h17.211a.577.577,0,0,1,0,1.155h-16.634v29.638A.577.577,0,0,1,1059.378,680.687Z" transform="translate(-1058.802 -649.316)" fill="#32293a"/>
      </g>
      <g id="Grupo_955909" data-name="Grupo 955909" transform="translate(994.815 634.263)">
        <path id="Trazado_656190" data-name="Trazado 656190" d="M1054.653,650.471h-27.22a.577.577,0,0,1,0-1.155h27.22a.577.577,0,0,1,0,1.155Z" transform="translate(-1026.857 -649.316)" fill="#32293a"/>
      </g>
      <g id="Grupo_955910" data-name="Grupo 955910" transform="translate(974.251 742.507)">
        <path id="Trazado_656191" data-name="Trazado 656191" d="M1003.3,813.722a.577.577,0,0,1-.576-.577l.064-21.171,7.884-15.313a.576.576,0,1,1,1.023.529l-7.819,15.188v20.767A.577.577,0,0,1,1003.3,813.722Z" transform="translate(-1002.723 -776.349)" fill="#faf5ff"/>
      </g>
      <g id="Grupo_955911" data-name="Grupo 955911" transform="translate(995.14 787.904)">
        <path id="Trazado_656192" data-name="Trazado 656192" d="M1037.525,844.643a.575.575,0,0,1-.471-.246l-9.711-13.864a.576.576,0,1,1,.942-.663L1038,843.734a.578.578,0,0,1-.472.909Z" transform="translate(-1027.238 -829.625)" fill="#faf5ff"/>
      </g>
      <g id="Grupo_955912" data-name="Grupo 955912" transform="translate(946.932 721.961)">
        <path id="Trazado_656193" data-name="Trazado 656193" d="M971.238,765.723a.577.577,0,0,1,0-1.155c7.553,0,11.73-6.95,11.73-11.755a.576.576,0,1,1,1.152,0C984.12,758.92,978.83,765.723,971.238,765.723Z" transform="translate(-970.662 -752.237)" fill="#faf5ff"/>
      </g>
      <g id="Grupo_955913" data-name="Grupo 955913" transform="translate(969.051 669.145)">
        <path id="Trazado_656194" data-name="Trazado 656194" d="M999.306,695.636a2.691,2.691,0,1,1,2.687-2.691A2.691,2.691,0,0,1,999.306,695.636Zm0-4.228a1.537,1.537,0,1,0,1.534,1.537A1.537,1.537,0,0,0,999.306,691.408Z" transform="translate(-996.621 -690.253)" fill="#faf5ff"/>
      </g>
      <g id="Grupo_955914" data-name="Grupo 955914" transform="translate(971.727 600.478)">
        <path id="Trazado_656195" data-name="Trazado 656195" d="M1003.67,619.148a.569.569,0,0,1-.17-.026.576.576,0,0,1-.38-.721l.44-1.43a.306.306,0,0,0-.042-.268.27.27,0,0,0-.206-.12,3.774,3.774,0,0,1-2.912-1.385,3.349,3.349,0,0,1-.572-2.658,4.307,4.307,0,0,1,1.877-2.787.577.577,0,0,1,.608.981,3.16,3.16,0,0,0-1.354,2.021,2.2,2.2,0,0,0,.365,1.753,2.734,2.734,0,0,0,2.061.923,1.42,1.42,0,0,1,1.081.617,1.455,1.455,0,0,1,.193,1.263l-.44,1.43A.577.577,0,0,1,1003.67,619.148Z" transform="translate(-999.761 -609.667)" fill="#32293a"/>
      </g>
      <g id="Grupo_955915" data-name="Grupo 955915" transform="translate(969.273 615.4)">
        <path id="Trazado_656196" data-name="Trazado 656196" d="M998.944,634.029a8.251,8.251,0,0,1-1.6-.159.577.577,0,0,1,.222-1.133c4.462.879,7.49-2.7,8.34-5.17a.576.576,0,1,1,1.088.377C1006.123,630.476,1003.248,634.029,998.944,634.029Z" transform="translate(-996.881 -627.179)" fill="#32293a"/>
      </g>
      <g id="Grupo_955916" data-name="Grupo 955916" transform="translate(961.919 605.51)">
        <path id="Trazado_656197" data-name="Trazado 656197" d="M988.828,619.963a.549.549,0,0,1-.083-.006.576.576,0,0,1-.487-.653,4.528,4.528,0,0,1,1.864-3.045,3.849,3.849,0,0,1,3.1-.583.577.577,0,0,1-.25,1.126,2.715,2.715,0,0,0-2.2.406,3.41,3.41,0,0,0-1.379,2.259A.575.575,0,0,1,988.828,619.963Z" transform="translate(-988.251 -615.573)" fill="#32293a"/>
      </g>
      <path id="Trazado_656198" data-name="Trazado 656198" d="M994.75,619.833a1.161,1.161,0,1,1-1.716-.585A1.3,1.3,0,0,1,994.75,619.833Z" transform="translate(-26.971 -10.584)" fill="#32293a"/>
      <path id="Trazado_656199" data-name="Trazado 656199" d="M1003.415,614.28a1.161,1.161,0,1,1-1.716-.585A1.3,1.3,0,0,1,1003.415,614.28Z" transform="translate(-28.253 -9.763)" fill="#32293a"/>
      <g id="Grupo_955917" data-name="Grupo 955917" transform="translate(972.638 612.128)">
        <path id="Trazado_656200" data-name="Trazado 656200" d="M1002.073,625.717a2.349,2.349,0,0,1-.883-.172.577.577,0,0,1,.433-1.069,1.153,1.153,0,0,0,.973-.04.88.88,0,0,0,.456-.629.571.571,0,0,1,.676-.457.577.577,0,0,1,.456.676,2.034,2.034,0,0,1-1.038,1.425A2.261,2.261,0,0,1,1002.073,625.717Z" transform="translate(-1000.831 -623.339)" fill="#32293a"/>
      </g>
      <g id="Grupo_955918" data-name="Grupo 955918" transform="translate(952.243 620.608)">
        <path id="Trazado_656201" data-name="Trazado 656201" d="M977.47,648.281a.578.578,0,0,1-.407-.986l3.381-3.394a5.066,5.066,0,0,0,1.245-5.13l-1.5-4.727a.576.576,0,1,1,1.1-.35l1.5,4.727a6.222,6.222,0,0,1-1.526,6.3l-3.382,3.395A.577.577,0,0,1,977.47,648.281Z" transform="translate(-976.895 -633.291)" fill="#32293a"/>
      </g>
      <g id="Grupo_955919" data-name="Grupo 955919" transform="translate(969.595 621.097)">
        <path id="Trazado_656202" data-name="Trazado 656202" d="M997.836,663.344h0a.577.577,0,0,1,0-1.155h0a10.075,10.075,0,0,0,7.515-2.926c3.641-3.725,3.955-9.906,3.98-11.263l-4.969-3.88a6.185,6.185,0,0,1-1.837-2.351l-3.156-7.091a.576.576,0,1,1,1.051-.47l3.157,7.091a5.045,5.045,0,0,0,1.493,1.91l5.193,4.055a.576.576,0,0,1,.222.443c.007.318.113,7.838-4.309,12.364A11.19,11.19,0,0,1,997.836,663.344Z" transform="translate(-997.259 -633.866)" fill="#32293a"/>
      </g>
      <g id="Grupo_955923" data-name="Grupo 955923" transform="translate(1086.696 580.319)">
        <g id="Grupo_955920" data-name="Grupo 955920" transform="translate(0 15.414)">
          <path id="Trazado_656203" data-name="Trazado 656203" d="M1170.648,622.452a17.643,17.643,0,1,1-29.1-13.431,17.433,17.433,0,0,1,5.452-3.2,17.734,17.734,0,0,1,12.017,0,17.433,17.433,0,0,1,5.452,3.2A17.624,17.624,0,0,1,1170.648,622.452Z" transform="translate(-1134.786 -604.198)" fill="#25c766"/>
          <path id="Trazado_656204" data-name="Trazado 656204" d="M1152.9,640.612a18.26,18.26,0,0,1-11.835-32.13,17.938,17.938,0,0,1,5.631-3.3,18.381,18.381,0,0,1,12.408,0,17.947,17.947,0,0,1,5.633,3.308,18.259,18.259,0,0,1-11.837,32.127Zm0-35.364a17.051,17.051,0,0,0-5.813,1.015,16.755,16.755,0,0,0-5.271,3.1,17.068,17.068,0,1,0,22.17,0,16.763,16.763,0,0,0-5.273-3.1A17.072,17.072,0,0,0,1152.9,605.248Z" transform="translate(-1134.686 -604.099)" fill="#32293a"/>
        </g>
        <g id="Grupo_955921" data-name="Grupo 955921" transform="translate(6.182)">
          <path id="Trazado_656205" data-name="Trazado 656205" d="M1165.538,598.161v8.185a17.434,17.434,0,0,0-5.452-3.2v-4.983a6.009,6.009,0,1,0-12.017,0v4.983a17.432,17.432,0,0,0-5.452,3.2v-8.185a11.46,11.46,0,1,1,22.92,0Z" transform="translate(-1142.041 -586.109)" fill="#2ff980"/>
          <path id="Trazado_656206" data-name="Trazado 656206" d="M1166.014,607.506l-.953-.824a16.764,16.764,0,0,0-5.27-3.1l-.381-.138v-5.388a5.432,5.432,0,1,0-10.864,0v5.388l-.381.138a16.773,16.773,0,0,0-5.271,3.1l-.953.822v-9.445a12.037,12.037,0,1,1,24.073,0Zm-12.037-20.343a10.9,10.9,0,0,0-10.885,10.9v6.979a17.875,17.875,0,0,1,4.3-2.4v-4.583a6.585,6.585,0,1,1,13.17,0v4.583a17.854,17.854,0,0,1,4.3,2.4v-6.979A10.9,10.9,0,0,0,1153.978,587.164Z" transform="translate(-1141.941 -586.009)" fill="#32293a"/>
        </g>
        <g id="Grupo_955922" data-name="Grupo 955922" transform="translate(14.672 27.597)">
          <path id="Trazado_656207" data-name="Trazado 656207" d="M1158.522,622.049a2.978,2.978,0,0,1-1.128,2.341v5.074a1.845,1.845,0,0,1-3.151,1.311,1.868,1.868,0,0,1-.54-1.311v-5.082a2.975,2.975,0,1,1,4.819-2.333Z" transform="translate(-1152.005 -618.496)" fill="#32293a"/>
          <path id="Trazado_656208" data-name="Trazado 656208" d="M1155.451,631.794a2.412,2.412,0,0,1-1.715-.71,2.455,2.455,0,0,1-.71-1.72v-4.819a3.544,3.544,0,1,1,4.843.009v4.81A2.427,2.427,0,0,1,1155.451,631.794Zm0-12.244a2.4,2.4,0,0,0-1.488,4.282.577.577,0,0,1,.215.45v5.082a1.289,1.289,0,0,0,.372.9,1.27,1.27,0,0,0,2.168-.9V624.29a.578.578,0,0,1,.217-.452,2.4,2.4,0,0,0-1.484-4.288Z" transform="translate(-1151.905 -618.396)" fill="#32293a"/>
        </g>
      </g>
      <g id="Grupo_955926" data-name="Grupo 955926" transform="translate(826.639 729.678)">
        <g id="Grupo_955924" data-name="Grupo 955924">
          <path id="Trazado_656209" data-name="Trazado 656209" d="M875.25,780.012V779.8a9.141,9.141,0,0,0-15.834-6.261v-2.394a9.155,9.155,0,1,0-18.31,0v8.835H839.32a9.175,9.175,0,0,0,0,18.35h35.3a9.17,9.17,0,0,0,.635-18.318Z" transform="translate(-829.589 -761.393)" fill="#462eb4"/>
          <path id="Trazado_656210" data-name="Trazado 656210" d="M874.516,798.807h-35.3a9.752,9.752,0,0,1,0-19.5h1.211v-8.257a9.731,9.731,0,1,1,19.461,0v1.068a9.594,9.594,0,0,1,6.1-2.165,9.751,9.751,0,0,1,9.725,9.44,9.748,9.748,0,0,1-1.2,19.418Zm-35.3-18.35a8.6,8.6,0,0,0,0,17.2h35.3a8.593,8.593,0,0,0,.595-17.165.575.575,0,0,1-.536-.575V779.7A8.6,8.6,0,0,0,866,771.1a8.485,8.485,0,0,0-6.259,2.731.576.576,0,0,1-1-.394v-2.394a8.578,8.578,0,1,0-17.157,0v8.835a.576.576,0,0,1-.576.577Z" transform="translate(-829.489 -761.293)" fill="#32293a"/>
        </g>
        <ellipse id="Elipse_5646" data-name="Elipse 5646" cx="6.428" cy="6.442" rx="6.428" ry="6.442" transform="translate(20.122 18.233)" fill="#fffdf7"/>
        <g id="Grupo_955925" data-name="Grupo 955925" transform="translate(23.073 16.642)">
          <path id="Trazado_656211" data-name="Trazado 656211" d="M859.987,792.007a.579.579,0,0,1-.408-.169l-2.843-2.85a.576.576,0,0,1,.814-.816l2.437,2.442,9.6-9.619a.577.577,0,0,1,.815.816l-10.005,10.027A.577.577,0,0,1,859.987,792.007Z" transform="translate(-856.567 -780.824)" fill="#32293a"/>
        </g>
      </g>
      <g id="Grupo_955927" data-name="Grupo 955927" transform="translate(1096.691 747.316)">
        <path id="Trazado_656212" data-name="Trazado 656212" d="M1152.485,881.223a.6.6,0,0,1-.171-.026.579.579,0,0,1-.379-.723c2.034-6.568.176-11.327-1.976-16.837-2.254-5.771-4.808-12.313-2.838-22.06,1.413-6.984,6.117-11.894,11.562-17.58,8.634-9.016,18.42-19.234,18.42-41.428a.576.576,0,1,1,1.152,0c0,22.658-10.391,33.509-18.742,42.227-5.321,5.556-9.916,10.355-11.262,17.01-1.9,9.414.477,15.512,2.781,21.411,2.139,5.474,4.157,10.644,2.005,17.6A.578.578,0,0,1,1152.485,881.223Z" transform="translate(-1146.416 -781.993)" fill="#32293a"/>
      </g>
      <g id="Grupo_955928" data-name="Grupo 955928" transform="translate(846.471 573.355)">
        <path id="Trazado_656213" data-name="Trazado 656213" d="M869.431,672.61l-.055,0a.578.578,0,0,1-.519-.629c.758-8.025-3.062-14.982-7.108-22.349-5.658-10.3-12.069-21.975-7.339-39.214,6.942-25.3,29.657-31.208,39.1-32.571a.577.577,0,0,1,.163,1.142c-9.22,1.332-31.393,7.09-38.154,31.736-4.606,16.787,1.685,28.244,7.238,38.352,4.134,7.526,8.039,14.634,7.246,23.013A.578.578,0,0,1,869.431,672.61Z" transform="translate(-852.764 -577.837)" fill="#32293a"/>
      </g>
      <g id="Grupo_955929" data-name="Grupo 955929" transform="translate(931.438 552.989)">
        <path id="Trazado_656214" data-name="Trazado 656214" d="M958.748,566.5a6.283,6.283,0,1,1,6.268-6.283A6.283,6.283,0,0,1,958.748,566.5Zm0-11.41a5.128,5.128,0,1,0,5.115,5.128A5.128,5.128,0,0,0,958.748,555.09Z" transform="translate(-952.479 -553.935)" fill="#32293a"/>
      </g>
      <g id="Grupo_955930" data-name="Grupo 955930" transform="translate(949.375 565.913)">
        <path id="Trazado_656215" data-name="Trazado 656215" d="M977.106,576.272a3.585,3.585,0,1,1,3.577-3.586A3.586,3.586,0,0,1,977.106,576.272Zm0-6.016a2.43,2.43,0,1,0,2.425,2.43A2.431,2.431,0,0,0,977.106,570.257Z" transform="translate(-973.529 -569.102)" fill="#32293a"/>
      </g>
      <g id="Grupo_955931" data-name="Grupo 955931" transform="translate(857.444 843.272)">
        <path id="Trazado_656216" data-name="Trazado 656216" d="M871.335,906.014a5.705,5.705,0,1,1,5.693-5.706A5.706,5.706,0,0,1,871.335,906.014Zm0-10.256a4.551,4.551,0,1,0,4.541,4.55A4.55,4.55,0,0,0,871.335,895.759Z" transform="translate(-865.642 -894.604)" fill="#32293a"/>
      </g>
      <g id="Grupo_955932" data-name="Grupo 955932" transform="translate(837.548 838.47)">
        <path id="Trazado_656217" data-name="Trazado 656217" d="M845.663,895.726a3.379,3.379,0,1,1,3.372-3.378A3.378,3.378,0,0,1,845.663,895.726Zm0-5.6a2.224,2.224,0,1,0,2.22,2.224A2.224,2.224,0,0,0,845.663,890.124Z" transform="translate(-842.292 -888.969)" fill="#32293a"/>
      </g>
      <g id="Grupo_955933" data-name="Grupo 955933" transform="translate(1119.187 694.287)">
        <path id="Trazado_656218" data-name="Trazado 656218" d="M1176.188,726.516a3.379,3.379,0,1,1,3.372-3.379A3.379,3.379,0,0,1,1176.188,726.516Zm0-5.6a2.224,2.224,0,1,0,2.22,2.223A2.224,2.224,0,0,0,1176.188,720.914Z" transform="translate(-1172.817 -719.759)" fill="#32293a"/>
      </g>
    </g>
  </g>
</svg>
