<svg xmlns="http://www.w3.org/2000/svg" xmlns:xlink="http://www.w3.org/1999/xlink" width="106.333" height="106.332" viewBox="0 0 106.333 106.332">
  <defs>
    <clipPath id="clip-path">
      <path id="path659" d="M0-682.665H106.333v106.333H0Z" transform="translate(0 682.665)"/>
    </clipPath>
  </defs>
  <g id="g651" transform="translate(0 682.664)">
    <path id="path653" d="M174.42-569.447H98.894V-672.665H174.42Z" transform="translate(-83.49 -8.442)" fill="#ecf4ff"/>
    <g id="g655" transform="translate(0 -682.665)">
      <g id="g657" clip-path="url(#clip-path)">
        <g id="g663" transform="translate(15.632 61.537)">
          <path id="path665" d="M-261.173-127.257c-15.994,10.588-32.827,17.211-48.186,19.76h75.3v-43.239a135.381,135.381,0,0,1-27.111,23.479" transform="translate(309.359 150.736)" fill="#cbe2ff"/>
        </g>
        <g id="g667" transform="translate(22.117 21.908)">
          <path id="path669" d="M-56.854-56.854v-10.49a10.49,10.49,0,0,0-10.49,10.49,10.49,10.49,0,0,0,10.49,10.49,10.489,10.489,0,0,0,10.49-10.49Z" transform="translate(67.344 67.344)" fill="#e49542"/>
        </g>
        <g id="g671" transform="translate(32.607 21.907)">
          <path id="path673" d="M0,0V10.49H10.49A10.489,10.489,0,0,0,0,0" fill="#c8ea73"/>
        </g>
        <path id="path675" d="M233.582-622.852h33.567v-6.713H233.582Z" transform="translate(-197.199 637.836)" fill="#4073c8"/>
        <path id="path677" d="M147.381-89.486h10.07V-96.2h-10.07Z" transform="translate(-124.425 187.549)" fill="#4073c8"/>
        <path id="path679" d="M255.133-144.067H265.2V-160.85h-10.07Z" transform="translate(-215.393 242.129)" fill="#e49542"/>
        <g id="g681" transform="translate(39.74 93.191)">
          <path id="path683" d="M-54.579,0q-5.034,2.563-10.07,4.615v.256h10.07Z" transform="translate(64.649)" fill="#e28424"/>
        </g>
        <path id="path685" d="M362.883-212.292h10.07v-29.371h-10.07Z" transform="translate(-306.36 310.355)" fill="#dd5790"/>
        <g id="g687" transform="translate(56.523 83.127)">
          <path id="path689" d="M-54.579,0c-.915.636-1.837,1.268-2.775,1.889q-3.623,2.4-7.3,4.523v8.523h10.07Z" transform="translate(64.649)" fill="#da387d"/>
        </g>
        <path id="path691" d="M470.634-257.775H480.7v-37.763h-10.07Z" transform="translate(-397.327 355.838)" fill="#c8ea73"/>
        <g id="g693" transform="translate(73.307 69.428)">
          <path id="path695" d="M-54.58,0c-3.135,3.006-6.5,5.93-10.07,8.739V28.634h10.07Z" transform="translate(64.651)" fill="#b7e445"/>
        </g>
        <g id="g697" transform="translate(13.846 0)">
          <path id="path699" d="M-8.442-407.908A1.558,1.558,0,0,1-10-409.466v-73.989a1.558,1.558,0,0,1,1.558-1.558H67.083a1.558,1.558,0,0,1,1.558,1.558v11.35a1.558,1.558,0,0,1-1.558,1.558,1.558,1.558,0,0,1-1.558-1.558V-481.9H-6.885v72.431A1.558,1.558,0,0,1-8.442-407.908Z" transform="translate(10 485.012)"/>
        </g>
        <g id="g701" transform="translate(13.846 18.619)">
          <path id="path703" d="M-417.8,77.714h-75.526a1.558,1.558,0,0,1-1.558-1.558V54.2a1.558,1.558,0,0,1,1.558-1.558,1.558,1.558,0,0,1,1.558,1.558V74.6h72.41V-8.442A1.558,1.558,0,0,1-417.8-10a1.558,1.558,0,0,1,1.558,1.558v84.6A1.558,1.558,0,0,1-417.8,77.714Z" transform="translate(494.879 10)"/>
        </g>
        <g id="g705" transform="translate(31.049 20.35)">
          <path id="path707" d="M2.047,3.6H-8.442A1.558,1.558,0,0,1-10,2.047V-8.442A1.558,1.558,0,0,1-8.442-10,1.558,1.558,0,0,1-6.885-8.442V.49H2.047a1.558,1.558,0,0,1,0,3.115Z" transform="translate(10 10)"/>
        </g>
        <g id="g709" transform="translate(20.56 20.35)">
          <path id="path711" d="M-132.64-77.344A12.061,12.061,0,0,1-120.593-65.3,12.061,12.061,0,0,1-132.64-53.249,12.061,12.061,0,0,1-144.688-65.3,12.061,12.061,0,0,1-132.64-77.344Zm0,20.979a8.942,8.942,0,0,0,8.932-8.932,8.942,8.942,0,0,0-8.932-8.932,8.942,8.942,0,0,0-8.932,8.932A8.942,8.942,0,0,0-132.64-56.365Z" transform="translate(144.688 77.344)"/>
        </g>
        <path id="path713" d="M149.009-96.371h-10.07a1.558,1.558,0,0,1-1.558-1.558v-6.713a1.558,1.558,0,0,1,1.558-1.558h10.07a1.558,1.558,0,0,1,1.558,1.558v6.713A1.558,1.558,0,0,1,149.009-96.371ZM140.5-99.486h6.955v-3.6H140.5Z" transform="translate(-115.982 195.991)"/>
        <path id="path715" d="M256.76-150.952H246.69a1.558,1.558,0,0,1-1.558-1.558v-16.783a1.558,1.558,0,0,1,1.558-1.558h10.07a1.558,1.558,0,0,1,1.558,1.558v16.783A1.558,1.558,0,0,1,256.76-150.952Zm-8.512-3.115H255.2v-13.668h-6.955Z" transform="translate(-206.95 250.571)"/>
        <path id="path717" d="M364.511-219.177h-10.07a1.558,1.558,0,0,1-1.558-1.558v-29.371a1.558,1.558,0,0,1,1.558-1.558h10.07a1.558,1.558,0,0,1,1.558,1.558v29.371A1.558,1.558,0,0,1,364.511-219.177ZM356-222.292h6.955v-26.256H356Z" transform="translate(-297.917 318.797)"/>
        <g id="g719" transform="translate(71.75 58.743)">
          <path id="path721" d="M-63.013-51.057H-73.081a1.558,1.558,0,0,1-1.558-1.558V-90.375a1.558,1.558,0,0,1,1.558-1.558h10.068a1.558,1.558,0,0,1,1.558,1.558v5.493a1.558,1.558,0,0,1-1.558,1.558,1.558,1.558,0,0,1-1.558-1.558v-3.936h-6.953v34.645h6.953V-77.613a1.558,1.558,0,0,1,1.558-1.558,1.558,1.558,0,0,1,1.558,1.558v25A1.558,1.558,0,0,1-63.013-51.057Z" transform="translate(74.638 91.933)"/>
        </g>
        <path id="path723" d="M258.707-629.737H225.14a1.558,1.558,0,0,1-1.558-1.558v-6.713a1.558,1.558,0,0,1,1.558-1.558h33.567a1.558,1.558,0,0,1,1.558,1.558v6.713A1.558,1.558,0,0,1,258.707-629.737ZM226.7-632.852h30.452v-3.6H226.7Z" transform="translate(-188.757 646.278)"/>
        <g id="g725" transform="translate(51.609 20.35)">
          <path id="path727" d="M22.607-6.885H-8.442A1.558,1.558,0,0,1-10-8.442,1.558,1.558,0,0,1-8.442-10H22.607a1.558,1.558,0,0,1,1.558,1.558A1.558,1.558,0,0,1,22.607-6.885Z" transform="translate(10 10)"/>
        </g>
        <g id="g729" transform="translate(51.609 27.343)">
          <path id="path731" d="M22.607-6.885H-8.442A1.558,1.558,0,0,1-10-8.442,1.558,1.558,0,0,1-8.442-10H22.607a1.558,1.558,0,0,1,1.558,1.558A1.558,1.558,0,0,1,22.607-6.885Z" transform="translate(10 10)"/>
        </g>
        <g id="g733" transform="translate(51.609 34.336)">
          <path id="path735" d="M22.607-6.885H-8.442A1.558,1.558,0,0,1-10-8.442,1.558,1.558,0,0,1-8.442-10H22.607a1.558,1.558,0,0,1,1.558,1.558A1.558,1.558,0,0,1,22.607-6.885Z" transform="translate(10 10)"/>
        </g>
        <g id="g737" transform="translate(51.609 41.329)">
          <path id="path739" d="M10.019-6.885H-8.442A1.558,1.558,0,0,1-10-8.442,1.558,1.558,0,0,1-8.442-10H10.019a1.558,1.558,0,0,1,1.558,1.558A1.558,1.558,0,0,1,10.019-6.885Z" transform="translate(10 10)"/>
        </g>
        <g id="g741" transform="translate(23.287 51.609)">
          <path id="path743" d="M19.88-6.885H-8.442A1.558,1.558,0,0,1-10-8.442,1.558,1.558,0,0,1-8.442-10H19.88a1.558,1.558,0,0,1,1.558,1.558A1.558,1.558,0,0,1,19.88-6.885Z" transform="translate(10 10)"/>
        </g>
        <g id="g745" transform="translate(23.287 58.602)">
          <path id="path747" d="M19.88-6.885H-8.442A1.558,1.558,0,0,1-10-8.442,1.558,1.558,0,0,1-8.442-10H19.88a1.558,1.558,0,0,1,1.558,1.558A1.558,1.558,0,0,1,19.88-6.885Z" transform="translate(10 10)"/>
        </g>
        <g id="g749" transform="translate(23.287 65.595)">
          <path id="path751" d="M7.292-6.885H-8.442A1.558,1.558,0,0,1-10-8.442,1.558,1.558,0,0,1-8.442-10H7.292A1.558,1.558,0,0,1,8.85-8.442,1.558,1.558,0,0,1,7.292-6.885Z" transform="translate(10 10)"/>
        </g>
      </g>
    </g>
  </g>
</svg>
