<svg xmlns="http://www.w3.org/2000/svg" width="45.497" height="53.424" viewBox="0 0 45.497 53.424">
  <g id="Grupo_955682" data-name="Grupo 955682" transform="translate(-125.346 -9625.892)">
    <g id="Grupo_111426" data-name="Grupo 111426" transform="translate(125.346 9625.893)">
      <path id="Trazado_165806" data-name="Trazado 165806" d="M570.53,947.2c-7.337,0-13.113-1.65-17.166-4.9a16.769,16.769,0,0,1-6.347-13.743,2.376,2.376,0,0,1,2.375-2.375h8.252l-6.494-.9a2.376,2.376,0,0,1-2.041-2.531l2.016-26.77a2.376,2.376,0,0,1,2.369-2.2h33.1a2.376,2.376,0,0,1,2.376,2.376v11.821a2.376,2.376,0,0,1-2.376,2.375h-7.346a17.253,17.253,0,0,1,8.061,4.367c3.455,3.349,5.208,7.934,5.208,13.631a17.422,17.422,0,0,1-2.816,9.635,19.254,19.254,0,0,1-7.828,6.784A25.476,25.476,0,0,1,570.53,947.2Zm-18.594-16.271a11.647,11.647,0,0,0,4.4,7.663c3.189,2.56,7.965,3.857,14.193,3.857a20.785,20.785,0,0,0,9.242-1.947,14.381,14.381,0,0,0,5.94-5.106,12.577,12.577,0,0,0,2.051-7.051c0-4.423-1.231-7.765-3.762-10.219-2.553-2.474-5.982-3.676-10.48-3.676a15.448,15.448,0,0,0-4.458.594,15.818,15.818,0,0,0-3.19,1.281c-.467.268-.719.425-.847.51a2.376,2.376,0,0,1-4.1-1.632,2.757,2.757,0,0,1,.016-.306l.546-7.108a2.376,2.376,0,0,1,2.369-2.193h20.362v-7.07H555.7l-1.683,22.349,7.4,1.03a10.285,10.285,0,0,1,2.448-2.061,9.628,9.628,0,0,1,5.282-1.245,9.514,9.514,0,1,1-.07,19,9.806,9.806,0,0,1-7.159-2.594,8.593,8.593,0,0,1-2.372-4.081Zm11.208-4.2a2.37,2.37,0,0,1,.861,1.83,4.03,4.03,0,0,0,1.235,3.067,5.221,5.221,0,0,0,3.83,1.232,4.955,4.955,0,0,0,3.749-1.256,4.732,4.732,0,0,0,1.246-3.461,4.374,4.374,0,0,0-4.925-4.786,5.19,5.19,0,0,0-2.718.494,5.466,5.466,0,0,0-1.347,1.084c-.337.435-.549.714-.636.842A2.418,2.418,0,0,1,563.145,926.727Zm2.91-16.376-.055.714c.521-.194,1.082-.382,1.685-.565q.258-.078.523-.149Z" transform="translate(-547.017 -893.779)" fill="#261e49"/>
    </g>
    <g id="Grupo_111427" data-name="Grupo 111427" transform="translate(127.721 9628.268)">
      <path id="Trazado_165807" data-name="Trazado 165807" d="M566.531,910.652l-.556,7.231q0-.138,1.391-.939a18.067,18.067,0,0,1,3.685-1.5,17.756,17.756,0,0,1,5.146-.7q7.648,0,12.133,4.346t4.485,11.925a15.021,15.021,0,0,1-2.433,8.344,16.837,16.837,0,0,1-6.883,5.945,23.027,23.027,0,0,1-10.291,2.19q-10.221,0-15.68-4.38a14.434,14.434,0,0,1-5.459-11.89h12.238A6.4,6.4,0,0,0,566.253,936a7.5,7.5,0,0,0,5.493,1.912,7.231,7.231,0,0,0,5.458-1.982,7.054,7.054,0,0,0,1.912-5.11,6.72,6.72,0,0,0-7.3-7.162,7.476,7.476,0,0,0-4,.869,7.788,7.788,0,0,0-1.947,1.635q-.591.765-.73.973l-10.986-1.53,2.016-26.77h33.1v11.821Z" transform="translate(-552.068 -898.831)" fill="#c4baf5"/>
    </g>
  </g>
</svg>
