<svg xmlns="http://www.w3.org/2000/svg" width="42.911" height="49.816" viewBox="0 0 42.911 49.816">
  <g id="Grupo_956939" data-name="Grupo 956939" transform="translate(-833.518 -762.039)">
    <path id="Trazado_165800" data-name="Trazado 165800" d="M855.846,812.194a45.07,45.07,0,0,1-9.559-1.037,30.246,30.246,0,0,1-8.435-3.09l-.922-.52,6.023-13.1,1.094.636a22.282,22.282,0,0,0,5.555,2.281,22.681,22.681,0,0,0,5.739.784,7.445,7.445,0,0,0,3.605-.737,1.622,1.622,0,0,0,.991-1.523c0-.465,0-1.881-4.091-1.881h-7.023V783.231l4.916-5.012h-14.2v-13.54H874.8v10.778l-7.2,7.308a14.62,14.62,0,0,1,6.585,4.4,13.288,13.288,0,0,1,3.012,8.721,14.815,14.815,0,0,1-2.357,8.036,16.7,16.7,0,0,1-7.206,6.013A27.671,27.671,0,0,1,855.846,812.194Z" transform="translate(-1.925 -1.489)" fill="#c4baf5"/>
    <path id="Trazado_165801" data-name="Trazado 165801" d="M871.73,764.34V773.5l-8.209,8.336a14.289,14.289,0,0,1,7.862,4.578,12.115,12.115,0,0,1,2.747,7.988,13.623,13.623,0,0,1-2.179,7.421,15.5,15.5,0,0,1-6.726,5.589,26.427,26.427,0,0,1-11.3,2.147,43.712,43.712,0,0,1-9.315-1.011,28.987,28.987,0,0,1-8.115-2.968l5.052-10.988a23.338,23.338,0,0,0,5.841,2.4,23.715,23.715,0,0,0,6.031.821,8.5,8.5,0,0,0,4.168-.884,2.764,2.764,0,0,0,1.579-2.526q0-3.031-5.241-3.031h-5.873v-9.156l6.5-6.632H838.765V764.34H871.73m2.3-2.3H836.465v15.84h12.61l-2.669,2.721-.658.671v12.4h8.173c2.418,0,2.915.546,2.922.555h0a.563.563,0,0,1,.019.176c0,.171,0,.294-.4.52a6.361,6.361,0,0,1-3.044.591,21.528,21.528,0,0,1-5.446-.746A21.113,21.113,0,0,1,842.7,792.6l-2.188-1.273-1.058,2.3L834.4,804.616l-.885,1.924,1.844,1.04a31.4,31.4,0,0,0,8.755,3.212,46.2,46.2,0,0,0,9.8,1.063,28.792,28.792,0,0,0,12.285-2.367,17.818,17.818,0,0,0,7.687-6.438,15.947,15.947,0,0,0,2.535-8.651,14.406,14.406,0,0,0-3.276-9.455,15.134,15.134,0,0,0-5.441-4.09l5.656-5.743.661-.671v-12.4Z" transform="translate(0 0)" fill="#261e49"/>
  </g>
</svg>
