<svg xmlns="http://www.w3.org/2000/svg" width="43.457" height="49.815" viewBox="0 0 43.457 49.815">
  <g id="Grupo_111422" data-name="Grupo 111422" transform="translate(-552.066 -758.499)">
    <path id="Trazado_165797" data-name="Trazado 165797" d="M558.678,808.653V797.844l16.346-15.119a12.188,12.188,0,0,0,2.531-3.017,4.938,4.938,0,0,0,.573-2.2,2.005,2.005,0,0,0-.689-1.672,3.831,3.831,0,0,0-2.455-.651,6,6,0,0,0-3.192.906,5.866,5.866,0,0,0-2.277,2.549l-.507,1.049-13.338-6.669.555-1.042a19.659,19.659,0,0,1,7.838-7.944,27.462,27.462,0,0,1,22.041-1.1,15.715,15.715,0,0,1,6.8,5.251,13.294,13.294,0,0,1,2.49,7.934,16.707,16.707,0,0,1-1.663,7.354,26.529,26.529,0,0,1-6.3,7.583l-4.113,3.742h13.081v13.857Z" transform="translate(-2.033 -1.488)" fill="#c4baf5"/>
    <path id="Trazado_165798" data-name="Trazado 165798" d="M574.341,760.8a23.712,23.712,0,0,1,9.283,1.7,14.523,14.523,0,0,1,6.316,4.863,12.116,12.116,0,0,1,2.273,7.263,15.493,15.493,0,0,1-1.547,6.852,25.7,25.7,0,0,1-6.031,7.231l-6.315,5.746h14.9v11.557H557.8v-9.157l15.977-14.777a13.175,13.175,0,0,0,2.778-3.346,6.048,6.048,0,0,0,.7-2.716,3.14,3.14,0,0,0-1.105-2.557,4.883,4.883,0,0,0-3.189-.916,7.176,7.176,0,0,0-3.789,1.074,7.05,7.05,0,0,0-2.715,3.031l-11.24-5.62a18.439,18.439,0,0,1,7.388-7.483,23.53,23.53,0,0,1,11.746-2.747m0-2.3a25.891,25.891,0,0,0-12.877,3.044,20.788,20.788,0,0,0-8.287,8.4l-1.111,2.083,2.112,1.055,11.24,5.62,2.083,1.042,1.015-2.1a4.758,4.758,0,0,1,1.84-2.068,4.873,4.873,0,0,1,2.595-.739,2.891,2.891,0,0,1,1.722.388c.1.084.272.225.272.786a3.813,3.813,0,0,1-.452,1.687,10.8,10.8,0,0,1-2.3,2.7L556.234,795.17l-.738.683v12.462h40.027V792.158H584.264l1.919-1.746a27.564,27.564,0,0,0,6.552-7.927,17.846,17.846,0,0,0,1.778-7.856,14.423,14.423,0,0,0-2.707-8.606,16.847,16.847,0,0,0-7.288-5.638,26.1,26.1,0,0,0-10.177-1.886Z" transform="translate(0 0)" fill="#261e49"/>
  </g>
</svg>
