<svg id="Grupo_955633" data-name="Grupo 955633" xmlns="http://www.w3.org/2000/svg" width="48.851" height="49.814" viewBox="0 0 48.851 49.814">
  <path id="Trazado_165803" data-name="Trazado 165803" d="M293.807,942.325v-7.71H270.485V923.391l19.657-28.46h18.441l-12.39,18.632H310.94v6.875h5.975v14.178H310.94v7.71Zm.45-21.888v-3.963l-2.635,3.963Z" transform="translate(-269.275 -893.721)" fill="#c4baf5"/>
  <path id="Trazado_165804" data-name="Trazado 165804" d="M304.721,894.538,287.76,920.044h6.1v-6.875h14.263v6.875H314.1V931.8h-5.975v7.71H293.414V931.8H270.092v-9.637l19.082-27.627h15.548m4.517-2.421H287.9l-.722,1.045L268.1,920.789l-.429.621v12.813h23.322v7.71h19.554v-7.71h5.975v-16.6h-5.975v-6.874h-13.7l9.889-14.871,2.5-3.761Z" transform="translate(-267.671 -892.117)" fill="#261e49"/>
</svg>
